<?xml version="1.0" encoding="utf-8" standalone="no"?>
<!DOCTYPE svg PUBLIC "-//W3C//DTD SVG 1.1//EN"
  "http://www.w3.org/Graphics/SVG/1.1/DTD/svg11.dtd">
<svg xmlns:xlink="http://www.w3.org/1999/xlink" width="507.170156pt" height="492.454219pt" viewBox="0 0 507.170156 492.454219" xmlns="http://www.w3.org/2000/svg" version="1.1">
 <metadata>
  <rdf:RDF xmlns:dc="http://purl.org/dc/elements/1.1/" xmlns:cc="http://creativecommons.org/ns#" xmlns:rdf="http://www.w3.org/1999/02/22-rdf-syntax-ns#">
   <cc:Work>
    <dc:type rdf:resource="http://purl.org/dc/dcmitype/StillImage"/>
    <dc:date>2026-05-12T11:03:11.086532</dc:date>
    <dc:format>image/svg+xml</dc:format>
    <dc:creator>
     <cc:Agent>
      <dc:title>Matplotlib v3.7.1, https://matplotlib.org/</dc:title>
     </cc:Agent>
    </dc:creator>
   </cc:Work>
  </rdf:RDF>
 </metadata>
 <defs>
  <style type="text/css">*{stroke-linejoin: round; stroke-linecap: butt}</style>
 </defs>
 <g id="figure_1">
  <g id="patch_1">
   <path d="M 0 492.454219 
L 507.170156 492.454219 
L 507.170156 0 
L 0 0 
z
" style="fill: #ffffff"/>
  </g>
  <g id="axes_1">
   <g id="patch_2">
    <path d="M 56.450156 450.72 
L 499.970156 450.72 
L 499.970156 7.2 
L 56.450156 7.2 
z
" style="fill: #eaeaf2"/>
   </g>
   <g id="matplotlib.axis_1">
    <g id="xtick_1">
     <g id="line2d_1">
      <path d="M 100.802156 450.72 
L 100.802156 7.2 
" clip-path="url(#p0d3db6ecc5)" style="fill: none; stroke: #ffffff; stroke-linecap: round"/>
     </g>
     <g id="text_1">
      <!-- −400 -->
      <g style="fill: #262626" transform="translate(88.414266 468.093594) scale(0.11 -0.11)">
       <defs>
        <path id="ArialMT-2212" d="M 3381 1997 
L 356 1997 
L 356 2522 
L 3381 2522 
L 3381 1997 
z
" transform="scale(0.015625)"/>
        <path id="ArialMT-34" d="M 2069 0 
L 2069 1097 
L 81 1097 
L 81 1613 
L 2172 4581 
L 2631 4581 
L 2631 1613 
L 3250 1613 
L 3250 1097 
L 2631 1097 
L 2631 0 
L 2069 0 
z
M 2069 1613 
L 2069 3678 
L 634 1613 
L 2069 1613 
z
" transform="scale(0.015625)"/>
        <path id="ArialMT-30" d="M 266 2259 
Q 266 3072 433 3567 
Q 600 4063 929 4331 
Q 1259 4600 1759 4600 
Q 2128 4600 2406 4451 
Q 2684 4303 2865 4023 
Q 3047 3744 3150 3342 
Q 3253 2941 3253 2259 
Q 3253 1453 3087 958 
Q 2922 463 2592 192 
Q 2263 -78 1759 -78 
Q 1097 -78 719 397 
Q 266 969 266 2259 
z
M 844 2259 
Q 844 1131 1108 757 
Q 1372 384 1759 384 
Q 2147 384 2411 759 
Q 2675 1134 2675 2259 
Q 2675 3391 2411 3762 
Q 2147 4134 1753 4134 
Q 1366 4134 1134 3806 
Q 844 3388 844 2259 
z
" transform="scale(0.015625)"/>
       </defs>
       <use xlink:href="#ArialMT-2212"/>
       <use xlink:href="#ArialMT-34" x="58.398438"/>
       <use xlink:href="#ArialMT-30" x="114.013672"/>
       <use xlink:href="#ArialMT-30" x="169.628906"/>
      </g>
     </g>
    </g>
    <g id="xtick_2">
     <g id="line2d_2">
      <path d="M 189.506156 450.72 
L 189.506156 7.2 
" clip-path="url(#p0d3db6ecc5)" style="fill: none; stroke: #ffffff; stroke-linecap: round"/>
     </g>
     <g id="text_2">
      <!-- −200 -->
      <g style="fill: #262626" transform="translate(177.118266 468.093594) scale(0.11 -0.11)">
       <defs>
        <path id="ArialMT-32" d="M 3222 541 
L 3222 0 
L 194 0 
Q 188 203 259 391 
Q 375 700 629 1000 
Q 884 1300 1366 1694 
Q 2113 2306 2375 2664 
Q 2638 3022 2638 3341 
Q 2638 3675 2398 3904 
Q 2159 4134 1775 4134 
Q 1369 4134 1125 3890 
Q 881 3647 878 3216 
L 300 3275 
Q 359 3922 746 4261 
Q 1134 4600 1788 4600 
Q 2447 4600 2831 4234 
Q 3216 3869 3216 3328 
Q 3216 3053 3103 2787 
Q 2991 2522 2730 2228 
Q 2469 1934 1863 1422 
Q 1356 997 1212 845 
Q 1069 694 975 541 
L 3222 541 
z
" transform="scale(0.015625)"/>
       </defs>
       <use xlink:href="#ArialMT-2212"/>
       <use xlink:href="#ArialMT-32" x="58.398438"/>
       <use xlink:href="#ArialMT-30" x="114.013672"/>
       <use xlink:href="#ArialMT-30" x="169.628906"/>
      </g>
     </g>
    </g>
    <g id="xtick_3">
     <g id="line2d_3">
      <path d="M 278.210156 450.72 
L 278.210156 7.2 
" clip-path="url(#p0d3db6ecc5)" style="fill: none; stroke: #ffffff; stroke-linecap: round"/>
     </g>
     <g id="text_3">
      <!-- 0 -->
      <g style="fill: #262626" transform="translate(275.151641 468.093594) scale(0.11 -0.11)">
       <use xlink:href="#ArialMT-30"/>
      </g>
     </g>
    </g>
    <g id="xtick_4">
     <g id="line2d_4">
      <path d="M 366.914156 450.72 
L 366.914156 7.2 
" clip-path="url(#p0d3db6ecc5)" style="fill: none; stroke: #ffffff; stroke-linecap: round"/>
     </g>
     <g id="text_4">
      <!-- 200 -->
      <g style="fill: #262626" transform="translate(357.738609 468.093594) scale(0.11 -0.11)">
       <use xlink:href="#ArialMT-32"/>
       <use xlink:href="#ArialMT-30" x="55.615234"/>
       <use xlink:href="#ArialMT-30" x="111.230469"/>
      </g>
     </g>
    </g>
    <g id="xtick_5">
     <g id="line2d_5">
      <path d="M 455.618156 450.72 
L 455.618156 7.2 
" clip-path="url(#p0d3db6ecc5)" style="fill: none; stroke: #ffffff; stroke-linecap: round"/>
     </g>
     <g id="text_5">
      <!-- 400 -->
      <g style="fill: #262626" transform="translate(446.442609 468.093594) scale(0.11 -0.11)">
       <use xlink:href="#ArialMT-34"/>
       <use xlink:href="#ArialMT-30" x="55.615234"/>
       <use xlink:href="#ArialMT-30" x="111.230469"/>
      </g>
     </g>
    </g>
    <g id="text_6">
     <!-- x -->
     <g style="fill: #262626" transform="translate(275.210156 482.869219) scale(0.12 -0.12)">
      <defs>
       <path id="ArialMT-78" d="M 47 0 
L 1259 1725 
L 138 3319 
L 841 3319 
L 1350 2541 
Q 1494 2319 1581 2169 
Q 1719 2375 1834 2534 
L 2394 3319 
L 3066 3319 
L 1919 1756 
L 3153 0 
L 2463 0 
L 1781 1031 
L 1600 1309 
L 728 0 
L 47 0 
z
" transform="scale(0.015625)"/>
      </defs>
      <use xlink:href="#ArialMT-78"/>
     </g>
    </g>
   </g>
   <g id="matplotlib.axis_2">
    <g id="ytick_1">
     <g id="line2d_6">
      <path d="M 56.450156 406.368 
L 499.970156 406.368 
" clip-path="url(#p0d3db6ecc5)" style="fill: none; stroke: #ffffff; stroke-linecap: round"/>
     </g>
     <g id="text_7">
      <!-- −400 -->
      <g style="fill: #262626" transform="translate(22.174375 410.304797) scale(0.11 -0.11)">
       <use xlink:href="#ArialMT-2212"/>
       <use xlink:href="#ArialMT-34" x="58.398438"/>
       <use xlink:href="#ArialMT-30" x="114.013672"/>
       <use xlink:href="#ArialMT-30" x="169.628906"/>
      </g>
     </g>
    </g>
    <g id="ytick_2">
     <g id="line2d_7">
      <path d="M 56.450156 317.664 
L 499.970156 317.664 
" clip-path="url(#p0d3db6ecc5)" style="fill: none; stroke: #ffffff; stroke-linecap: round"/>
     </g>
     <g id="text_8">
      <!-- −200 -->
      <g style="fill: #262626" transform="translate(22.174375 321.600797) scale(0.11 -0.11)">
       <use xlink:href="#ArialMT-2212"/>
       <use xlink:href="#ArialMT-32" x="58.398438"/>
       <use xlink:href="#ArialMT-30" x="114.013672"/>
       <use xlink:href="#ArialMT-30" x="169.628906"/>
      </g>
     </g>
    </g>
    <g id="ytick_3">
     <g id="line2d_8">
      <path d="M 56.450156 228.96 
L 499.970156 228.96 
" clip-path="url(#p0d3db6ecc5)" style="fill: none; stroke: #ffffff; stroke-linecap: round"/>
     </g>
     <g id="text_9">
      <!-- 0 -->
      <g style="fill: #262626" transform="translate(40.833125 232.896797) scale(0.11 -0.11)">
       <use xlink:href="#ArialMT-30"/>
      </g>
     </g>
    </g>
    <g id="ytick_4">
     <g id="line2d_9">
      <path d="M 56.450156 140.256 
L 499.970156 140.256 
" clip-path="url(#p0d3db6ecc5)" style="fill: none; stroke: #ffffff; stroke-linecap: round"/>
     </g>
     <g id="text_10">
      <!-- 200 -->
      <g style="fill: #262626" transform="translate(28.599063 144.192797) scale(0.11 -0.11)">
       <use xlink:href="#ArialMT-32"/>
       <use xlink:href="#ArialMT-30" x="55.615234"/>
       <use xlink:href="#ArialMT-30" x="111.230469"/>
      </g>
     </g>
    </g>
    <g id="ytick_5">
     <g id="line2d_10">
      <path d="M 56.450156 51.552 
L 499.970156 51.552 
" clip-path="url(#p0d3db6ecc5)" style="fill: none; stroke: #ffffff; stroke-linecap: round"/>
     </g>
     <g id="text_11">
      <!-- 400 -->
      <g style="fill: #262626" transform="translate(28.599063 55.488797) scale(0.11 -0.11)">
       <use xlink:href="#ArialMT-34"/>
       <use xlink:href="#ArialMT-30" x="55.615234"/>
       <use xlink:href="#ArialMT-30" x="111.230469"/>
      </g>
     </g>
    </g>
    <g id="text_12">
     <!-- y -->
     <g style="fill: #262626" transform="translate(15.64875 231.96) rotate(-90) scale(0.12 -0.12)">
      <defs>
       <path id="ArialMT-79" d="M 397 -1278 
L 334 -750 
Q 519 -800 656 -800 
Q 844 -800 956 -737 
Q 1069 -675 1141 -563 
Q 1194 -478 1313 -144 
Q 1328 -97 1363 -6 
L 103 3319 
L 709 3319 
L 1400 1397 
Q 1534 1031 1641 628 
Q 1738 1016 1872 1384 
L 2581 3319 
L 3144 3319 
L 1881 -56 
Q 1678 -603 1566 -809 
Q 1416 -1088 1222 -1217 
Q 1028 -1347 759 -1347 
Q 597 -1347 397 -1278 
z
" transform="scale(0.015625)"/>
      </defs>
      <use xlink:href="#ArialMT-79"/>
     </g>
    </g>
   </g>
   <g id="patch_3">
    <path d="M 278.210156 672.48 
C 395.833035 672.48 508.654221 625.747935 591.826156 542.576 
C 674.998091 459.404064 721.730156 346.582879 721.730156 228.96 
C 721.730156 111.337121 674.998091 -1.484064 591.826156 -84.656 
C 508.654221 -167.827935 395.833035 -214.56 278.210156 -214.56 
C 160.587277 -214.56 47.766092 -167.827935 -35.405843 -84.656 
C -118.577779 -1.484064 -165.309844 111.337121 -165.309844 228.96 
C -165.309844 346.582879 -118.577779 459.404064 -35.405843 542.576 
C 47.766092 625.747935 160.587277 672.48 278.210156 672.48 
z
" clip-path="url(#p0d3db6ecc5)" style="fill: #228b22; opacity: 0.12; stroke: #228b22; stroke-width: 1.5; stroke-linejoin: miter"/>
   </g>
   <g id="PathCollection_1">
    <defs>
     <path id="m7013159341" d="M 0 2.236068 
C 0.593012 2.236068 1.161816 2.000462 1.581139 1.581139 
C 2.000462 1.161816 2.236068 0.593012 2.236068 0 
C 2.236068 -0.593012 2.000462 -1.161816 1.581139 -1.581139 
C 1.161816 -2.000462 0.593012 -2.236068 0 -2.236068 
C -0.593012 -2.236068 -1.161816 -2.000462 -1.581139 -1.581139 
C -2.000462 -1.161816 -2.236068 -0.593012 -2.236068 0 
C -2.236068 0.593012 -2.000462 1.161816 -1.581139 1.581139 
C -1.161816 2.000462 -0.593012 2.236068 0 2.236068 
z
" style="stroke: #4169e1"/>
    </defs>
    <g clip-path="url(#p0d3db6ecc5)">
     <use xlink:href="#m7013159341" x="351.719177" y="126.107627" style="fill: #4169e1; stroke: #4169e1"/>
     <use xlink:href="#m7013159341" x="231.681896" y="278.205727" style="fill: #4169e1; stroke: #4169e1"/>
     <use xlink:href="#m7013159341" x="300.653323" y="265.945237" style="fill: #4169e1; stroke: #4169e1"/>
     <use xlink:href="#m7013159341" x="190.25463" y="280.450181" style="fill: #4169e1; stroke: #4169e1"/>
     <use xlink:href="#m7013159341" x="236.459258" y="191.571824" style="fill: #4169e1; stroke: #4169e1"/>
     <use xlink:href="#m7013159341" x="425.291881" y="172.584254" style="fill: #4169e1; stroke: #4169e1"/>
     <use xlink:href="#m7013159341" x="252.422877" y="216.749359" style="fill: #4169e1; stroke: #4169e1"/>
     <use xlink:href="#m7013159341" x="330.563136" y="160.355518" style="fill: #4169e1; stroke: #4169e1"/>
     <use xlink:href="#m7013159341" x="149.892368" y="281.637989" style="fill: #4169e1; stroke: #4169e1"/>
     <use xlink:href="#m7013159341" x="160.41338" y="186.728228" style="fill: #4169e1; stroke: #4169e1"/>
     <use xlink:href="#m7013159341" x="258.890683" y="136.887749" style="fill: #4169e1; stroke: #4169e1"/>
     <use xlink:href="#m7013159341" x="166.621625" y="342.453605" style="fill: #4169e1; stroke: #4169e1"/>
     <use xlink:href="#m7013159341" x="213.151337" y="405.996758" style="fill: #4169e1; stroke: #4169e1"/>
     <use xlink:href="#m7013159341" x="194.043107" y="149.087974" style="fill: #4169e1; stroke: #4169e1"/>
     <use xlink:href="#m7013159341" x="283.866391" y="140.395365" style="fill: #4169e1; stroke: #4169e1"/>
     <use xlink:href="#m7013159341" x="158.240554" y="265.751038" style="fill: #4169e1; stroke: #4169e1"/>
     <use xlink:href="#m7013159341" x="250.380422" y="243.589949" style="fill: #4169e1; stroke: #4169e1"/>
     <use xlink:href="#m7013159341" x="331.730712" y="265.130512" style="fill: #4169e1; stroke: #4169e1"/>
     <use xlink:href="#m7013159341" x="276.415848" y="175.391032" style="fill: #4169e1; stroke: #4169e1"/>
     <use xlink:href="#m7013159341" x="338.329943" y="234.646318" style="fill: #4169e1; stroke: #4169e1"/>
     <use xlink:href="#m7013159341" x="354.226856" y="227.327249" style="fill: #4169e1; stroke: #4169e1"/>
     <use xlink:href="#m7013159341" x="499.970156" y="429.158293" style="fill: #4169e1; stroke: #4169e1"/>
     <use xlink:href="#m7013159341" x="378.570254" y="376.173895" style="fill: #4169e1; stroke: #4169e1"/>
     <use xlink:href="#m7013159341" x="176.252389" y="363.482399" style="fill: #4169e1; stroke: #4169e1"/>
     <use xlink:href="#m7013159341" x="224.797838" y="287.294412" style="fill: #4169e1; stroke: #4169e1"/>
     <use xlink:href="#m7013159341" x="240.37219" y="319.277093" style="fill: #4169e1; stroke: #4169e1"/>
     <use xlink:href="#m7013159341" x="398.784549" y="200.133244" style="fill: #4169e1; stroke: #4169e1"/>
     <use xlink:href="#m7013159341" x="345.670052" y="312.838561" style="fill: #4169e1; stroke: #4169e1"/>
     <use xlink:href="#m7013159341" x="291.070098" y="253.401756" style="fill: #4169e1; stroke: #4169e1"/>
     <use xlink:href="#m7013159341" x="263.047359" y="318.865935" style="fill: #4169e1; stroke: #4169e1"/>
     <use xlink:href="#m7013159341" x="307.460908" y="259.894562" style="fill: #4169e1; stroke: #4169e1"/>
     <use xlink:href="#m7013159341" x="179.852084" y="218.103739" style="fill: #4169e1; stroke: #4169e1"/>
     <use xlink:href="#m7013159341" x="283.444721" y="274.071261" style="fill: #4169e1; stroke: #4169e1"/>
     <use xlink:href="#m7013159341" x="256.664756" y="297.343507" style="fill: #4169e1; stroke: #4169e1"/>
     <use xlink:href="#m7013159341" x="306.80272" y="355.801022" style="fill: #4169e1; stroke: #4169e1"/>
     <use xlink:href="#m7013159341" x="265.496213" y="153.591465" style="fill: #4169e1; stroke: #4169e1"/>
     <use xlink:href="#m7013159341" x="298.512314" y="140.729981" style="fill: #4169e1; stroke: #4169e1"/>
     <use xlink:href="#m7013159341" x="349.91157" y="112.940837" style="fill: #4169e1; stroke: #4169e1"/>
     <use xlink:href="#m7013159341" x="119.824641" y="82.408975" style="fill: #4169e1; stroke: #4169e1"/>
     <use xlink:href="#m7013159341" x="337.788889" y="368.088507" style="fill: #4169e1; stroke: #4169e1"/>
     <use xlink:href="#m7013159341" x="293.386663" y="332.206206" style="fill: #4169e1; stroke: #4169e1"/>
     <use xlink:href="#m7013159341" x="329.682904" y="213.783654" style="fill: #4169e1; stroke: #4169e1"/>
     <use xlink:href="#m7013159341" x="389.569253" y="286.99917" style="fill: #4169e1; stroke: #4169e1"/>
     <use xlink:href="#m7013159341" x="237.563412" y="239.49336" style="fill: #4169e1; stroke: #4169e1"/>
     <use xlink:href="#m7013159341" x="238.854575" y="205.294025" style="fill: #4169e1; stroke: #4169e1"/>
     <use xlink:href="#m7013159341" x="370.121352" y="317.316938" style="fill: #4169e1; stroke: #4169e1"/>
     <use xlink:href="#m7013159341" x="199.983382" y="167.349498" style="fill: #4169e1; stroke: #4169e1"/>
     <use xlink:href="#m7013159341" x="329.145693" y="269.609485" style="fill: #4169e1; stroke: #4169e1"/>
     <use xlink:href="#m7013159341" x="276.055147" y="299.644471" style="fill: #4169e1; stroke: #4169e1"/>
     <use xlink:href="#m7013159341" x="331.535447" y="263.302525" style="fill: #4169e1; stroke: #4169e1"/>
     <use xlink:href="#m7013159341" x="206.000565" y="75.277911" style="fill: #4169e1; stroke: #4169e1"/>
     <use xlink:href="#m7013159341" x="363.595478" y="109.045012" style="fill: #4169e1; stroke: #4169e1"/>
     <use xlink:href="#m7013159341" x="76.935588" y="283.169343" style="fill: #4169e1; stroke: #4169e1"/>
     <use xlink:href="#m7013159341" x="328.260894" y="25.52717" style="fill: #4169e1; stroke: #4169e1"/>
     <use xlink:href="#m7013159341" x="292.124916" y="110.527383" style="fill: #4169e1; stroke: #4169e1"/>
     <use xlink:href="#m7013159341" x="376.07477" y="252.230194" style="fill: #4169e1; stroke: #4169e1"/>
     <use xlink:href="#m7013159341" x="291.661665" y="259.834158" style="fill: #4169e1; stroke: #4169e1"/>
     <use xlink:href="#m7013159341" x="159.345226" y="155.573506" style="fill: #4169e1; stroke: #4169e1"/>
     <use xlink:href="#m7013159341" x="286.562765" y="243.962005" style="fill: #4169e1; stroke: #4169e1"/>
     <use xlink:href="#m7013159341" x="77.386038" y="267.074394" style="fill: #4169e1; stroke: #4169e1"/>
     <use xlink:href="#m7013159341" x="246.938108" y="220.633185" style="fill: #4169e1; stroke: #4169e1"/>
     <use xlink:href="#m7013159341" x="56.450156" y="401.851779" style="fill: #4169e1; stroke: #4169e1"/>
     <use xlink:href="#m7013159341" x="319.475714" y="74.793217" style="fill: #4169e1; stroke: #4169e1"/>
     <use xlink:href="#m7013159341" x="228.930033" y="66.936221" style="fill: #4169e1; stroke: #4169e1"/>
     <use xlink:href="#m7013159341" x="344.856948" y="181.383317" style="fill: #4169e1; stroke: #4169e1"/>
     <use xlink:href="#m7013159341" x="175.679229" y="172.477042" style="fill: #4169e1; stroke: #4169e1"/>
     <use xlink:href="#m7013159341" x="192.598824" y="294.449427" style="fill: #4169e1; stroke: #4169e1"/>
     <use xlink:href="#m7013159341" x="279.269155" y="386.54686" style="fill: #4169e1; stroke: #4169e1"/>
     <use xlink:href="#m7013159341" x="156.589983" y="167.817781" style="fill: #4169e1; stroke: #4169e1"/>
     <use xlink:href="#m7013159341" x="139.708327" y="7.2" style="fill: #4169e1; stroke: #4169e1"/>
     <use xlink:href="#m7013159341" x="213.779902" y="177.678619" style="fill: #4169e1; stroke: #4169e1"/>
     <use xlink:href="#m7013159341" x="107.303782" y="43.340302" style="fill: #4169e1; stroke: #4169e1"/>
     <use xlink:href="#m7013159341" x="133.33404" y="450.72" style="fill: #4169e1; stroke: #4169e1"/>
     <use xlink:href="#m7013159341" x="497.143041" y="339.034902" style="fill: #4169e1; stroke: #4169e1"/>
     <use xlink:href="#m7013159341" x="122.931257" y="196.54459" style="fill: #4169e1; stroke: #4169e1"/>
     <use xlink:href="#m7013159341" x="443.228778" y="103.891827" style="fill: #4169e1; stroke: #4169e1"/>
     <use xlink:href="#m7013159341" x="218.594845" y="265.928247" style="fill: #4169e1; stroke: #4169e1"/>
     <use xlink:href="#m7013159341" x="258.184429" y="135.293294" style="fill: #4169e1; stroke: #4169e1"/>
     <use xlink:href="#m7013159341" x="291.014417" y="292.580425" style="fill: #4169e1; stroke: #4169e1"/>
     <use xlink:href="#m7013159341" x="56.450156" y="23.484282" style="fill: #4169e1; stroke: #4169e1"/>
     <use xlink:href="#m7013159341" x="243.150637" y="323.715494" style="fill: #4169e1; stroke: #4169e1"/>
     <use xlink:href="#m7013159341" x="254.456656" y="75.746606" style="fill: #4169e1; stroke: #4169e1"/>
     <use xlink:href="#m7013159341" x="231.105681" y="122.134307" style="fill: #4169e1; stroke: #4169e1"/>
     <use xlink:href="#m7013159341" x="347.573467" y="205.30983" style="fill: #4169e1; stroke: #4169e1"/>
     <use xlink:href="#m7013159341" x="374.056293" y="202.982083" style="fill: #4169e1; stroke: #4169e1"/>
     <use xlink:href="#m7013159341" x="214.528336" y="171.086934" style="fill: #4169e1; stroke: #4169e1"/>
     <use xlink:href="#m7013159341" x="499.970156" y="51.113583" style="fill: #4169e1; stroke: #4169e1"/>
     <use xlink:href="#m7013159341" x="277.448916" y="348.422155" style="fill: #4169e1; stroke: #4169e1"/>
     <use xlink:href="#m7013159341" x="352.917011" y="380.933154" style="fill: #4169e1; stroke: #4169e1"/>
     <use xlink:href="#m7013159341" x="158.716329" y="65.569211" style="fill: #4169e1; stroke: #4169e1"/>
     <use xlink:href="#m7013159341" x="331.363205" y="195.88555" style="fill: #4169e1; stroke: #4169e1"/>
     <use xlink:href="#m7013159341" x="400.347792" y="312.048866" style="fill: #4169e1; stroke: #4169e1"/>
     <use xlink:href="#m7013159341" x="304.773784" y="259.970752" style="fill: #4169e1; stroke: #4169e1"/>
     <use xlink:href="#m7013159341" x="331.009633" y="117.106409" style="fill: #4169e1; stroke: #4169e1"/>
     <use xlink:href="#m7013159341" x="183.663537" y="204.830491" style="fill: #4169e1; stroke: #4169e1"/>
     <use xlink:href="#m7013159341" x="125.129285" y="350.852609" style="fill: #4169e1; stroke: #4169e1"/>
     <use xlink:href="#m7013159341" x="308.469399" y="326.31216" style="fill: #4169e1; stroke: #4169e1"/>
     <use xlink:href="#m7013159341" x="233.370177" y="270.415619" style="fill: #4169e1; stroke: #4169e1"/>
     <use xlink:href="#m7013159341" x="243.776042" y="245.772331" style="fill: #4169e1; stroke: #4169e1"/>
     <use xlink:href="#m7013159341" x="143.021219" y="137.820491" style="fill: #4169e1; stroke: #4169e1"/>
     <use xlink:href="#m7013159341" x="473.222603" y="232.685027" style="fill: #4169e1; stroke: #4169e1"/>
     <use xlink:href="#m7013159341" x="81.882255" y="327.435124" style="fill: #4169e1; stroke: #4169e1"/>
     <use xlink:href="#m7013159341" x="341.174952" y="139.306692" style="fill: #4169e1; stroke: #4169e1"/>
     <use xlink:href="#m7013159341" x="247.147954" y="290.891745" style="fill: #4169e1; stroke: #4169e1"/>
     <use xlink:href="#m7013159341" x="284.763046" y="287.029658" style="fill: #4169e1; stroke: #4169e1"/>
     <use xlink:href="#m7013159341" x="354.706724" y="99.059316" style="fill: #4169e1; stroke: #4169e1"/>
     <use xlink:href="#m7013159341" x="132.075514" y="269.153638" style="fill: #4169e1; stroke: #4169e1"/>
     <use xlink:href="#m7013159341" x="390.939938" y="212.402657" style="fill: #4169e1; stroke: #4169e1"/>
     <use xlink:href="#m7013159341" x="225.308533" y="64.203026" style="fill: #4169e1; stroke: #4169e1"/>
     <use xlink:href="#m7013159341" x="111.167893" y="264.260165" style="fill: #4169e1; stroke: #4169e1"/>
     <use xlink:href="#m7013159341" x="269.319646" y="267.635968" style="fill: #4169e1; stroke: #4169e1"/>
     <use xlink:href="#m7013159341" x="236.645827" y="173.080666" style="fill: #4169e1; stroke: #4169e1"/>
     <use xlink:href="#m7013159341" x="385.32875" y="45.53228" style="fill: #4169e1; stroke: #4169e1"/>
     <use xlink:href="#m7013159341" x="295.612706" y="277.389205" style="fill: #4169e1; stroke: #4169e1"/>
     <use xlink:href="#m7013159341" x="265.514873" y="173.694434" style="fill: #4169e1; stroke: #4169e1"/>
     <use xlink:href="#m7013159341" x="166.305992" y="142.665644" style="fill: #4169e1; stroke: #4169e1"/>
     <use xlink:href="#m7013159341" x="244.342163" y="305.609637" style="fill: #4169e1; stroke: #4169e1"/>
     <use xlink:href="#m7013159341" x="275.4337" y="135.933135" style="fill: #4169e1; stroke: #4169e1"/>
     <use xlink:href="#m7013159341" x="227.406773" y="108.913911" style="fill: #4169e1; stroke: #4169e1"/>
     <use xlink:href="#m7013159341" x="311.276607" y="86.612372" style="fill: #4169e1; stroke: #4169e1"/>
     <use xlink:href="#m7013159341" x="456.075942" y="303.233913" style="fill: #4169e1; stroke: #4169e1"/>
     <use xlink:href="#m7013159341" x="264.455063" y="75.025277" style="fill: #4169e1; stroke: #4169e1"/>
     <use xlink:href="#m7013159341" x="359.427401" y="312.618141" style="fill: #4169e1; stroke: #4169e1"/>
     <use xlink:href="#m7013159341" x="287.959396" y="134.629821" style="fill: #4169e1; stroke: #4169e1"/>
     <use xlink:href="#m7013159341" x="347.874347" y="7.2" style="fill: #4169e1; stroke: #4169e1"/>
     <use xlink:href="#m7013159341" x="252.196723" y="316.33254" style="fill: #4169e1; stroke: #4169e1"/>
     <use xlink:href="#m7013159341" x="334.454899" y="313.220334" style="fill: #4169e1; stroke: #4169e1"/>
     <use xlink:href="#m7013159341" x="203.75781" y="205.900528" style="fill: #4169e1; stroke: #4169e1"/>
     <use xlink:href="#m7013159341" x="302.336066" y="293.033108" style="fill: #4169e1; stroke: #4169e1"/>
     <use xlink:href="#m7013159341" x="434.424457" y="64.038303" style="fill: #4169e1; stroke: #4169e1"/>
     <use xlink:href="#m7013159341" x="304.663724" y="205.738627" style="fill: #4169e1; stroke: #4169e1"/>
     <use xlink:href="#m7013159341" x="369.989939" y="148.688057" style="fill: #4169e1; stroke: #4169e1"/>
     <use xlink:href="#m7013159341" x="317.235626" y="170.903032" style="fill: #4169e1; stroke: #4169e1"/>
     <use xlink:href="#m7013159341" x="272.595896" y="186.152822" style="fill: #4169e1; stroke: #4169e1"/>
     <use xlink:href="#m7013159341" x="444.589765" y="318.77146" style="fill: #4169e1; stroke: #4169e1"/>
     <use xlink:href="#m7013159341" x="277.569962" y="124.060827" style="fill: #4169e1; stroke: #4169e1"/>
     <use xlink:href="#m7013159341" x="281.341422" y="221.513083" style="fill: #4169e1; stroke: #4169e1"/>
     <use xlink:href="#m7013159341" x="371.116301" y="246.145493" style="fill: #4169e1; stroke: #4169e1"/>
     <use xlink:href="#m7013159341" x="277.294836" y="100.84417" style="fill: #4169e1; stroke: #4169e1"/>
     <use xlink:href="#m7013159341" x="175.230058" y="84.305373" style="fill: #4169e1; stroke: #4169e1"/>
     <use xlink:href="#m7013159341" x="253.323997" y="204.266765" style="fill: #4169e1; stroke: #4169e1"/>
     <use xlink:href="#m7013159341" x="195.417453" y="303.956291" style="fill: #4169e1; stroke: #4169e1"/>
     <use xlink:href="#m7013159341" x="246.481354" y="7.2" style="fill: #4169e1; stroke: #4169e1"/>
     <use xlink:href="#m7013159341" x="341.798808" y="212.95899" style="fill: #4169e1; stroke: #4169e1"/>
     <use xlink:href="#m7013159341" x="345.196991" y="193.460297" style="fill: #4169e1; stroke: #4169e1"/>
     <use xlink:href="#m7013159341" x="122.302941" y="297.976317" style="fill: #4169e1; stroke: #4169e1"/>
     <use xlink:href="#m7013159341" x="436.936771" y="320.465581" style="fill: #4169e1; stroke: #4169e1"/>
     <use xlink:href="#m7013159341" x="342.950683" y="347.713536" style="fill: #4169e1; stroke: #4169e1"/>
     <use xlink:href="#m7013159341" x="121.011376" y="439.97582" style="fill: #4169e1; stroke: #4169e1"/>
     <use xlink:href="#m7013159341" x="152.043957" y="242.013786" style="fill: #4169e1; stroke: #4169e1"/>
    </g>
   </g>
   <g id="PathCollection_2">
    <defs>
     <path id="mbb329266d2" d="M 0 2.5 
C 0.663008 2.5 1.29895 2.236584 1.767767 1.767767 
C 2.236584 1.29895 2.5 0.663008 2.5 0 
C 2.5 -0.663008 2.236584 -1.29895 1.767767 -1.767767 
C 1.29895 -2.236584 0.663008 -2.5 0 -2.5 
C -0.663008 -2.5 -1.29895 -2.236584 -1.767767 -1.767767 
C -2.236584 -1.29895 -2.5 -0.663008 -2.5 0 
C -2.5 0.663008 -2.236584 1.29895 -1.767767 1.767767 
C -1.29895 2.236584 -0.663008 2.5 0 2.5 
z
" style="stroke: #b22222"/>
    </defs>
    <g clip-path="url(#p0d3db6ecc5)">
     <use xlink:href="#mbb329266d2" x="313.62156" y="317.37476" style="fill: #b22222; stroke: #b22222"/>
     <use xlink:href="#mbb329266d2" x="351.356563" y="130.243754" style="fill: #b22222; stroke: #b22222"/>
     <use xlink:href="#mbb329266d2" x="264.763011" y="346.35489" style="fill: #b22222; stroke: #b22222"/>
     <use xlink:href="#mbb329266d2" x="175.969295" y="243.823515" style="fill: #b22222; stroke: #b22222"/>
     <use xlink:href="#mbb329266d2" x="312.751655" y="241.574558" style="fill: #b22222; stroke: #b22222"/>
     <use xlink:href="#mbb329266d2" x="376.894845" y="183.162936" style="fill: #b22222; stroke: #b22222"/>
     <use xlink:href="#mbb329266d2" x="318.151147" y="348.526173" style="fill: #b22222; stroke: #b22222"/>
     <use xlink:href="#mbb329266d2" x="262.760755" y="245.696204" style="fill: #b22222; stroke: #b22222"/>
     <use xlink:href="#mbb329266d2" x="382.711971" y="248.792481" style="fill: #b22222; stroke: #b22222"/>
     <use xlink:href="#mbb329266d2" x="165.913154" y="299.983614" style="fill: #b22222; stroke: #b22222"/>
     <use xlink:href="#mbb329266d2" x="290.015761" y="99.508439" style="fill: #b22222; stroke: #b22222"/>
     <use xlink:href="#mbb329266d2" x="238.541513" y="167.183652" style="fill: #b22222; stroke: #b22222"/>
     <use xlink:href="#mbb329266d2" x="289.318632" y="245.982087" style="fill: #b22222; stroke: #b22222"/>
     <use xlink:href="#mbb329266d2" x="224.511268" y="249.308717" style="fill: #b22222; stroke: #b22222"/>
     <use xlink:href="#mbb329266d2" x="358.747496" y="250.178812" style="fill: #b22222; stroke: #b22222"/>
     <use xlink:href="#mbb329266d2" x="196.709079" y="336.730244" style="fill: #b22222; stroke: #b22222"/>
     <use xlink:href="#mbb329266d2" x="379.168372" y="367.296457" style="fill: #b22222; stroke: #b22222"/>
     <use xlink:href="#mbb329266d2" x="245.543906" y="333.154966" style="fill: #b22222; stroke: #b22222"/>
     <use xlink:href="#mbb329266d2" x="262.554598" y="220.896842" style="fill: #b22222; stroke: #b22222"/>
     <use xlink:href="#mbb329266d2" x="372.610961" y="242.952518" style="fill: #b22222; stroke: #b22222"/>
     <use xlink:href="#mbb329266d2" x="221.226242" y="291.089785" style="fill: #b22222; stroke: #b22222"/>
     <use xlink:href="#mbb329266d2" x="295.099419" y="48.913619" style="fill: #b22222; stroke: #b22222"/>
     <use xlink:href="#mbb329266d2" x="319.515914" y="281.281903" style="fill: #b22222; stroke: #b22222"/>
     <use xlink:href="#mbb329266d2" x="247.828738" y="306.166528" style="fill: #b22222; stroke: #b22222"/>
     <use xlink:href="#mbb329266d2" x="336.475153" y="304.552156" style="fill: #b22222; stroke: #b22222"/>
     <use xlink:href="#mbb329266d2" x="213.15872" y="366.822266" style="fill: #b22222; stroke: #b22222"/>
     <use xlink:href="#mbb329266d2" x="183.303346" y="155.192214" style="fill: #b22222; stroke: #b22222"/>
     <use xlink:href="#mbb329266d2" x="177.590583" y="279.413493" style="fill: #b22222; stroke: #b22222"/>
     <use xlink:href="#mbb329266d2" x="327.019067" y="317.119677" style="fill: #b22222; stroke: #b22222"/>
     <use xlink:href="#mbb329266d2" x="278.650167" y="110.067715" style="fill: #b22222; stroke: #b22222"/>
     <use xlink:href="#mbb329266d2" x="174.65566" y="85.49759" style="fill: #b22222; stroke: #b22222"/>
     <use xlink:href="#mbb329266d2" x="219.263881" y="267.336032" style="fill: #b22222; stroke: #b22222"/>
     <use xlink:href="#mbb329266d2" x="298.006449" y="282.127085" style="fill: #b22222; stroke: #b22222"/>
     <use xlink:href="#mbb329266d2" x="230.758765" y="233.796714" style="fill: #b22222; stroke: #b22222"/>
     <use xlink:href="#mbb329266d2" x="418.550561" y="181.884469" style="fill: #b22222; stroke: #b22222"/>
     <use xlink:href="#mbb329266d2" x="68.083826" y="179.792371" style="fill: #b22222; stroke: #b22222"/>
     <use xlink:href="#mbb329266d2" x="224.714756" y="343.579547" style="fill: #b22222; stroke: #b22222"/>
     <use xlink:href="#mbb329266d2" x="365.321982" y="285.830125" style="fill: #b22222; stroke: #b22222"/>
     <use xlink:href="#mbb329266d2" x="382.786651" y="254.466501" style="fill: #b22222; stroke: #b22222"/>
     <use xlink:href="#mbb329266d2" x="385.361661" y="92.924926" style="fill: #b22222; stroke: #b22222"/>
     <use xlink:href="#mbb329266d2" x="272.67831" y="210.638036" style="fill: #b22222; stroke: #b22222"/>
     <use xlink:href="#mbb329266d2" x="99.303219" y="218.75969" style="fill: #b22222; stroke: #b22222"/>
     <use xlink:href="#mbb329266d2" x="343.711467" y="293.471444" style="fill: #b22222; stroke: #b22222"/>
     <use xlink:href="#mbb329266d2" x="408.357911" y="417.373381" style="fill: #b22222; stroke: #b22222"/>
     <use xlink:href="#mbb329266d2" x="170.386726" y="129.271287" style="fill: #b22222; stroke: #b22222"/>
     <use xlink:href="#mbb329266d2" x="151.059437" y="188.181809" style="fill: #b22222; stroke: #b22222"/>
     <use xlink:href="#mbb329266d2" x="377.911958" y="205.622599" style="fill: #b22222; stroke: #b22222"/>
     <use xlink:href="#mbb329266d2" x="324.70844" y="287.969424" style="fill: #b22222; stroke: #b22222"/>
     <use xlink:href="#mbb329266d2" x="120.684394" y="364.146244" style="fill: #b22222; stroke: #b22222"/>
     <use xlink:href="#mbb329266d2" x="265.81876" y="220.936544" style="fill: #b22222; stroke: #b22222"/>
     <use xlink:href="#mbb329266d2" x="124.025453" y="275.379174" style="fill: #b22222; stroke: #b22222"/>
     <use xlink:href="#mbb329266d2" x="277.098915" y="259.891896" style="fill: #b22222; stroke: #b22222"/>
     <use xlink:href="#mbb329266d2" x="105.623041" y="328.57808" style="fill: #b22222; stroke: #b22222"/>
     <use xlink:href="#mbb329266d2" x="298.466785" y="287.173841" style="fill: #b22222; stroke: #b22222"/>
     <use xlink:href="#mbb329266d2" x="205.750888" y="175.43736" style="fill: #b22222; stroke: #b22222"/>
     <use xlink:href="#mbb329266d2" x="304.149926" y="240.265205" style="fill: #b22222; stroke: #b22222"/>
     <use xlink:href="#mbb329266d2" x="298.994971" y="211.643393" style="fill: #b22222; stroke: #b22222"/>
     <use xlink:href="#mbb329266d2" x="192.214893" y="112.494785" style="fill: #b22222; stroke: #b22222"/>
     <use xlink:href="#mbb329266d2" x="386.269301" y="325.095017" style="fill: #b22222; stroke: #b22222"/>
     <use xlink:href="#mbb329266d2" x="393.84752" y="150.029865" style="fill: #b22222; stroke: #b22222"/>
     <use xlink:href="#mbb329266d2" x="183.95147" y="333.119429" style="fill: #b22222; stroke: #b22222"/>
     <use xlink:href="#mbb329266d2" x="255.827266" y="307.470985" style="fill: #b22222; stroke: #b22222"/>
     <use xlink:href="#mbb329266d2" x="153.78941" y="64.732034" style="fill: #b22222; stroke: #b22222"/>
     <use xlink:href="#mbb329266d2" x="161.943963" y="99.221426" style="fill: #b22222; stroke: #b22222"/>
     <use xlink:href="#mbb329266d2" x="237.396195" y="207.773506" style="fill: #b22222; stroke: #b22222"/>
     <use xlink:href="#mbb329266d2" x="256.404003" y="210.495795" style="fill: #b22222; stroke: #b22222"/>
     <use xlink:href="#mbb329266d2" x="293.770989" y="82.977235" style="fill: #b22222; stroke: #b22222"/>
     <use xlink:href="#mbb329266d2" x="362.670106" y="59.403406" style="fill: #b22222; stroke: #b22222"/>
     <use xlink:href="#mbb329266d2" x="218.920677" y="332.324672" style="fill: #b22222; stroke: #b22222"/>
     <use xlink:href="#mbb329266d2" x="259.418998" y="108.901987" style="fill: #b22222; stroke: #b22222"/>
     <use xlink:href="#mbb329266d2" x="59.416575" y="96.219477" style="fill: #b22222; stroke: #b22222"/>
     <use xlink:href="#mbb329266d2" x="382.394599" y="108.120236" style="fill: #b22222; stroke: #b22222"/>
     <use xlink:href="#mbb329266d2" x="210.535532" y="180.325896" style="fill: #b22222; stroke: #b22222"/>
     <use xlink:href="#mbb329266d2" x="192.687642" y="397.177656" style="fill: #b22222; stroke: #b22222"/>
     <use xlink:href="#mbb329266d2" x="192.462925" y="223.498688" style="fill: #b22222; stroke: #b22222"/>
    </g>
   </g>
   <g id="patch_4">
    <path d="M 56.450156 450.72 
L 56.450156 7.2 
" style="fill: none; stroke: #ffffff; stroke-width: 1.25; stroke-linejoin: miter; stroke-linecap: square"/>
   </g>
   <g id="patch_5">
    <path d="M 499.970156 450.72 
L 499.970156 7.2 
" style="fill: none; stroke: #ffffff; stroke-width: 1.25; stroke-linejoin: miter; stroke-linecap: square"/>
   </g>
   <g id="patch_6">
    <path d="M 56.450156 450.72 
L 499.970156 450.72 
" style="fill: none; stroke: #ffffff; stroke-width: 1.25; stroke-linejoin: miter; stroke-linecap: square"/>
   </g>
   <g id="patch_7">
    <path d="M 56.450156 7.2 
L 499.970156 7.2 
" style="fill: none; stroke: #ffffff; stroke-width: 1.25; stroke-linejoin: miter; stroke-linecap: square"/>
   </g>
   <g id="text_13">
    <!-- t = 100 -->
    <g style="fill: #262626" transform="translate(65.320556 24.659775) scale(0.12 -0.12)">
     <defs>
      <path id="ArialMT-74" d="M 1650 503 
L 1731 6 
Q 1494 -44 1306 -44 
Q 1000 -44 831 53 
Q 663 150 594 308 
Q 525 466 525 972 
L 525 2881 
L 113 2881 
L 113 3319 
L 525 3319 
L 525 4141 
L 1084 4478 
L 1084 3319 
L 1650 3319 
L 1650 2881 
L 1084 2881 
L 1084 941 
Q 1084 700 1114 631 
Q 1144 563 1211 522 
Q 1278 481 1403 481 
Q 1497 481 1650 503 
z
" transform="scale(0.015625)"/>
      <path id="ArialMT-20" transform="scale(0.015625)"/>
      <path id="ArialMT-3d" d="M 3381 2694 
L 356 2694 
L 356 3219 
L 3381 3219 
L 3381 2694 
z
M 3381 1303 
L 356 1303 
L 356 1828 
L 3381 1828 
L 3381 1303 
z
" transform="scale(0.015625)"/>
      <path id="ArialMT-31" d="M 2384 0 
L 1822 0 
L 1822 3584 
Q 1619 3391 1289 3197 
Q 959 3003 697 2906 
L 697 3450 
Q 1169 3672 1522 3987 
Q 1875 4303 2022 4600 
L 2384 4600 
L 2384 0 
z
" transform="scale(0.015625)"/>
     </defs>
     <use xlink:href="#ArialMT-74"/>
     <use xlink:href="#ArialMT-20" x="27.783203"/>
     <use xlink:href="#ArialMT-3d" x="55.566406"/>
     <use xlink:href="#ArialMT-20" x="113.964844"/>
     <use xlink:href="#ArialMT-31" x="141.748047"/>
     <use xlink:href="#ArialMT-30" x="197.363281"/>
     <use xlink:href="#ArialMT-30" x="252.978516"/>
    </g>
   </g>
   <g id="legend_1">
    <g id="patch_8">
     <path d="M 328.111406 94.59 
L 483.170156 94.59 
Q 487.970156 94.59 487.970156 89.79 
L 487.970156 24 
Q 487.970156 19.2 483.170156 19.2 
L 328.111406 19.2 
Q 323.311406 19.2 323.311406 24 
L 323.311406 89.79 
Q 323.311406 94.59 328.111406 94.59 
z
" style="fill: #eaeaf2; opacity: 0.8; stroke: #cccccc; stroke-linejoin: miter"/>
    </g>
    <g id="PathCollection_3">
     <g>
      <use xlink:href="#m7013159341" x="356.911406" y="39.97125" style="fill: #4169e1; stroke: #4169e1"/>
     </g>
    </g>
    <g id="text_14">
     <!-- Sheep -->
     <g style="fill: #262626" transform="translate(400.111406 46.27125) scale(0.24 -0.24)">
      <defs>
       <path id="ArialMT-53" d="M 288 1472 
L 859 1522 
Q 900 1178 1048 958 
Q 1197 738 1509 602 
Q 1822 466 2213 466 
Q 2559 466 2825 569 
Q 3091 672 3220 851 
Q 3350 1031 3350 1244 
Q 3350 1459 3225 1620 
Q 3100 1781 2813 1891 
Q 2628 1963 1997 2114 
Q 1366 2266 1113 2400 
Q 784 2572 623 2826 
Q 463 3081 463 3397 
Q 463 3744 659 4045 
Q 856 4347 1234 4503 
Q 1613 4659 2075 4659 
Q 2584 4659 2973 4495 
Q 3363 4331 3572 4012 
Q 3781 3694 3797 3291 
L 3216 3247 
Q 3169 3681 2898 3903 
Q 2628 4125 2100 4125 
Q 1550 4125 1298 3923 
Q 1047 3722 1047 3438 
Q 1047 3191 1225 3031 
Q 1400 2872 2139 2705 
Q 2878 2538 3153 2413 
Q 3553 2228 3743 1945 
Q 3934 1663 3934 1294 
Q 3934 928 3725 604 
Q 3516 281 3123 101 
Q 2731 -78 2241 -78 
Q 1619 -78 1198 103 
Q 778 284 539 648 
Q 300 1013 288 1472 
z
" transform="scale(0.015625)"/>
       <path id="ArialMT-68" d="M 422 0 
L 422 4581 
L 984 4581 
L 984 2938 
Q 1378 3394 1978 3394 
Q 2347 3394 2619 3248 
Q 2891 3103 3008 2847 
Q 3125 2591 3125 2103 
L 3125 0 
L 2563 0 
L 2563 2103 
Q 2563 2525 2380 2717 
Q 2197 2909 1863 2909 
Q 1613 2909 1392 2779 
Q 1172 2650 1078 2428 
Q 984 2206 984 1816 
L 984 0 
L 422 0 
z
" transform="scale(0.015625)"/>
       <path id="ArialMT-65" d="M 2694 1069 
L 3275 997 
Q 3138 488 2766 206 
Q 2394 -75 1816 -75 
Q 1088 -75 661 373 
Q 234 822 234 1631 
Q 234 2469 665 2931 
Q 1097 3394 1784 3394 
Q 2450 3394 2872 2941 
Q 3294 2488 3294 1666 
Q 3294 1616 3291 1516 
L 816 1516 
Q 847 969 1125 678 
Q 1403 388 1819 388 
Q 2128 388 2347 550 
Q 2566 713 2694 1069 
z
M 847 1978 
L 2700 1978 
Q 2663 2397 2488 2606 
Q 2219 2931 1791 2931 
Q 1403 2931 1139 2672 
Q 875 2413 847 1978 
z
" transform="scale(0.015625)"/>
       <path id="ArialMT-70" d="M 422 -1272 
L 422 3319 
L 934 3319 
L 934 2888 
Q 1116 3141 1344 3267 
Q 1572 3394 1897 3394 
Q 2322 3394 2647 3175 
Q 2972 2956 3137 2557 
Q 3303 2159 3303 1684 
Q 3303 1175 3120 767 
Q 2938 359 2589 142 
Q 2241 -75 1856 -75 
Q 1575 -75 1351 44 
Q 1128 163 984 344 
L 984 -1272 
L 422 -1272 
z
M 931 1641 
Q 931 1000 1190 694 
Q 1450 388 1819 388 
Q 2194 388 2461 705 
Q 2728 1022 2728 1688 
Q 2728 2322 2467 2637 
Q 2206 2953 1844 2953 
Q 1484 2953 1207 2617 
Q 931 2281 931 1641 
z
" transform="scale(0.015625)"/>
      </defs>
      <use xlink:href="#ArialMT-53"/>
      <use xlink:href="#ArialMT-68" x="66.699219"/>
      <use xlink:href="#ArialMT-65" x="122.314453"/>
      <use xlink:href="#ArialMT-65" x="177.929688"/>
      <use xlink:href="#ArialMT-70" x="233.544922"/>
     </g>
    </g>
    <g id="PathCollection_4">
     <g>
      <use xlink:href="#mbb329266d2" x="356.911406" y="73.92" style="fill: #b22222; stroke: #b22222"/>
     </g>
    </g>
    <g id="text_15">
     <!-- Wolves -->
     <g style="fill: #262626" transform="translate(400.111406 80.22) scale(0.24 -0.24)">
      <defs>
       <path id="ArialMT-57" d="M 1294 0 
L 78 4581 
L 700 4581 
L 1397 1578 
Q 1509 1106 1591 641 
Q 1766 1375 1797 1488 
L 2669 4581 
L 3400 4581 
L 4056 2263 
Q 4303 1400 4413 641 
Q 4500 1075 4641 1638 
L 5359 4581 
L 5969 4581 
L 4713 0 
L 4128 0 
L 3163 3491 
Q 3041 3928 3019 4028 
Q 2947 3713 2884 3491 
L 1913 0 
L 1294 0 
z
" transform="scale(0.015625)"/>
       <path id="ArialMT-6f" d="M 213 1659 
Q 213 2581 725 3025 
Q 1153 3394 1769 3394 
Q 2453 3394 2887 2945 
Q 3322 2497 3322 1706 
Q 3322 1066 3130 698 
Q 2938 331 2570 128 
Q 2203 -75 1769 -75 
Q 1072 -75 642 372 
Q 213 819 213 1659 
z
M 791 1659 
Q 791 1022 1069 705 
Q 1347 388 1769 388 
Q 2188 388 2466 706 
Q 2744 1025 2744 1678 
Q 2744 2294 2464 2611 
Q 2184 2928 1769 2928 
Q 1347 2928 1069 2612 
Q 791 2297 791 1659 
z
" transform="scale(0.015625)"/>
       <path id="ArialMT-6c" d="M 409 0 
L 409 4581 
L 972 4581 
L 972 0 
L 409 0 
z
" transform="scale(0.015625)"/>
       <path id="ArialMT-76" d="M 1344 0 
L 81 3319 
L 675 3319 
L 1388 1331 
Q 1503 1009 1600 663 
Q 1675 925 1809 1294 
L 2547 3319 
L 3125 3319 
L 1869 0 
L 1344 0 
z
" transform="scale(0.015625)"/>
       <path id="ArialMT-73" d="M 197 991 
L 753 1078 
Q 800 744 1014 566 
Q 1228 388 1613 388 
Q 2000 388 2187 545 
Q 2375 703 2375 916 
Q 2375 1106 2209 1216 
Q 2094 1291 1634 1406 
Q 1016 1563 777 1677 
Q 538 1791 414 1992 
Q 291 2194 291 2438 
Q 291 2659 392 2848 
Q 494 3038 669 3163 
Q 800 3259 1026 3326 
Q 1253 3394 1513 3394 
Q 1903 3394 2198 3281 
Q 2494 3169 2634 2976 
Q 2775 2784 2828 2463 
L 2278 2388 
Q 2241 2644 2061 2787 
Q 1881 2931 1553 2931 
Q 1166 2931 1000 2803 
Q 834 2675 834 2503 
Q 834 2394 903 2306 
Q 972 2216 1119 2156 
Q 1203 2125 1616 2013 
Q 2213 1853 2448 1751 
Q 2684 1650 2818 1456 
Q 2953 1263 2953 975 
Q 2953 694 2789 445 
Q 2625 197 2315 61 
Q 2006 -75 1616 -75 
Q 969 -75 630 194 
Q 291 463 197 991 
z
" transform="scale(0.015625)"/>
      </defs>
      <use xlink:href="#ArialMT-57"/>
      <use xlink:href="#ArialMT-6f" x="92.634766"/>
      <use xlink:href="#ArialMT-6c" x="148.25"/>
      <use xlink:href="#ArialMT-76" x="170.466797"/>
      <use xlink:href="#ArialMT-65" x="220.466797"/>
      <use xlink:href="#ArialMT-73" x="276.082031"/>
     </g>
    </g>
   </g>
  </g>
 </g>
 <defs>
  <clipPath id="p0d3db6ecc5">
   <rect x="56.450156" y="7.2" width="443.52" height="443.52"/>
  </clipPath>
 </defs>
</svg>
