<?xml version="1.0" encoding="utf-8" standalone="no"?>
<!DOCTYPE svg PUBLIC "-//W3C//DTD SVG 1.1//EN"
  "http://www.w3.org/Graphics/SVG/1.1/DTD/svg11.dtd">
<svg xmlns:xlink="http://www.w3.org/1999/xlink" width="507.170156pt" height="492.454219pt" viewBox="0 0 507.170156 492.454219" xmlns="http://www.w3.org/2000/svg" version="1.1">
 <metadata>
  <rdf:RDF xmlns:dc="http://purl.org/dc/elements/1.1/" xmlns:cc="http://creativecommons.org/ns#" xmlns:rdf="http://www.w3.org/1999/02/22-rdf-syntax-ns#">
   <cc:Work>
    <dc:type rdf:resource="http://purl.org/dc/dcmitype/StillImage"/>
    <dc:date>2026-05-12T11:03:11.270317</dc:date>
    <dc:format>image/svg+xml</dc:format>
    <dc:creator>
     <cc:Agent>
      <dc:title>Matplotlib v3.7.1, https://matplotlib.org/</dc:title>
     </cc:Agent>
    </dc:creator>
   </cc:Work>
  </rdf:RDF>
 </metadata>
 <defs>
  <style type="text/css">*{stroke-linejoin: round; stroke-linecap: butt}</style>
 </defs>
 <g id="figure_1">
  <g id="patch_1">
   <path d="M 0 492.454219 
L 507.170156 492.454219 
L 507.170156 0 
L 0 0 
z
" style="fill: #ffffff"/>
  </g>
  <g id="axes_1">
   <g id="patch_2">
    <path d="M 56.450156 450.72 
L 499.970156 450.72 
L 499.970156 7.2 
L 56.450156 7.2 
z
" style="fill: #eaeaf2"/>
   </g>
   <g id="matplotlib.axis_1">
    <g id="xtick_1">
     <g id="line2d_1">
      <path d="M 100.802156 450.72 
L 100.802156 7.2 
" clip-path="url(#pf886ad4af2)" style="fill: none; stroke: #ffffff; stroke-linecap: round"/>
     </g>
     <g id="text_1">
      <!-- −400 -->
      <g style="fill: #262626" transform="translate(88.414266 468.093594) scale(0.11 -0.11)">
       <defs>
        <path id="ArialMT-2212" d="M 3381 1997 
L 356 1997 
L 356 2522 
L 3381 2522 
L 3381 1997 
z
" transform="scale(0.015625)"/>
        <path id="ArialMT-34" d="M 2069 0 
L 2069 1097 
L 81 1097 
L 81 1613 
L 2172 4581 
L 2631 4581 
L 2631 1613 
L 3250 1613 
L 3250 1097 
L 2631 1097 
L 2631 0 
L 2069 0 
z
M 2069 1613 
L 2069 3678 
L 634 1613 
L 2069 1613 
z
" transform="scale(0.015625)"/>
        <path id="ArialMT-30" d="M 266 2259 
Q 266 3072 433 3567 
Q 600 4063 929 4331 
Q 1259 4600 1759 4600 
Q 2128 4600 2406 4451 
Q 2684 4303 2865 4023 
Q 3047 3744 3150 3342 
Q 3253 2941 3253 2259 
Q 3253 1453 3087 958 
Q 2922 463 2592 192 
Q 2263 -78 1759 -78 
Q 1097 -78 719 397 
Q 266 969 266 2259 
z
M 844 2259 
Q 844 1131 1108 757 
Q 1372 384 1759 384 
Q 2147 384 2411 759 
Q 2675 1134 2675 2259 
Q 2675 3391 2411 3762 
Q 2147 4134 1753 4134 
Q 1366 4134 1134 3806 
Q 844 3388 844 2259 
z
" transform="scale(0.015625)"/>
       </defs>
       <use xlink:href="#ArialMT-2212"/>
       <use xlink:href="#ArialMT-34" x="58.398438"/>
       <use xlink:href="#ArialMT-30" x="114.013672"/>
       <use xlink:href="#ArialMT-30" x="169.628906"/>
      </g>
     </g>
    </g>
    <g id="xtick_2">
     <g id="line2d_2">
      <path d="M 189.506156 450.72 
L 189.506156 7.2 
" clip-path="url(#pf886ad4af2)" style="fill: none; stroke: #ffffff; stroke-linecap: round"/>
     </g>
     <g id="text_2">
      <!-- −200 -->
      <g style="fill: #262626" transform="translate(177.118266 468.093594) scale(0.11 -0.11)">
       <defs>
        <path id="ArialMT-32" d="M 3222 541 
L 3222 0 
L 194 0 
Q 188 203 259 391 
Q 375 700 629 1000 
Q 884 1300 1366 1694 
Q 2113 2306 2375 2664 
Q 2638 3022 2638 3341 
Q 2638 3675 2398 3904 
Q 2159 4134 1775 4134 
Q 1369 4134 1125 3890 
Q 881 3647 878 3216 
L 300 3275 
Q 359 3922 746 4261 
Q 1134 4600 1788 4600 
Q 2447 4600 2831 4234 
Q 3216 3869 3216 3328 
Q 3216 3053 3103 2787 
Q 2991 2522 2730 2228 
Q 2469 1934 1863 1422 
Q 1356 997 1212 845 
Q 1069 694 975 541 
L 3222 541 
z
" transform="scale(0.015625)"/>
       </defs>
       <use xlink:href="#ArialMT-2212"/>
       <use xlink:href="#ArialMT-32" x="58.398438"/>
       <use xlink:href="#ArialMT-30" x="114.013672"/>
       <use xlink:href="#ArialMT-30" x="169.628906"/>
      </g>
     </g>
    </g>
    <g id="xtick_3">
     <g id="line2d_3">
      <path d="M 278.210156 450.72 
L 278.210156 7.2 
" clip-path="url(#pf886ad4af2)" style="fill: none; stroke: #ffffff; stroke-linecap: round"/>
     </g>
     <g id="text_3">
      <!-- 0 -->
      <g style="fill: #262626" transform="translate(275.151641 468.093594) scale(0.11 -0.11)">
       <use xlink:href="#ArialMT-30"/>
      </g>
     </g>
    </g>
    <g id="xtick_4">
     <g id="line2d_4">
      <path d="M 366.914156 450.72 
L 366.914156 7.2 
" clip-path="url(#pf886ad4af2)" style="fill: none; stroke: #ffffff; stroke-linecap: round"/>
     </g>
     <g id="text_4">
      <!-- 200 -->
      <g style="fill: #262626" transform="translate(357.738609 468.093594) scale(0.11 -0.11)">
       <use xlink:href="#ArialMT-32"/>
       <use xlink:href="#ArialMT-30" x="55.615234"/>
       <use xlink:href="#ArialMT-30" x="111.230469"/>
      </g>
     </g>
    </g>
    <g id="xtick_5">
     <g id="line2d_5">
      <path d="M 455.618156 450.72 
L 455.618156 7.2 
" clip-path="url(#pf886ad4af2)" style="fill: none; stroke: #ffffff; stroke-linecap: round"/>
     </g>
     <g id="text_5">
      <!-- 400 -->
      <g style="fill: #262626" transform="translate(446.442609 468.093594) scale(0.11 -0.11)">
       <use xlink:href="#ArialMT-34"/>
       <use xlink:href="#ArialMT-30" x="55.615234"/>
       <use xlink:href="#ArialMT-30" x="111.230469"/>
      </g>
     </g>
    </g>
    <g id="text_6">
     <!-- x -->
     <g style="fill: #262626" transform="translate(275.210156 482.869219) scale(0.12 -0.12)">
      <defs>
       <path id="ArialMT-78" d="M 47 0 
L 1259 1725 
L 138 3319 
L 841 3319 
L 1350 2541 
Q 1494 2319 1581 2169 
Q 1719 2375 1834 2534 
L 2394 3319 
L 3066 3319 
L 1919 1756 
L 3153 0 
L 2463 0 
L 1781 1031 
L 1600 1309 
L 728 0 
L 47 0 
z
" transform="scale(0.015625)"/>
      </defs>
      <use xlink:href="#ArialMT-78"/>
     </g>
    </g>
   </g>
   <g id="matplotlib.axis_2">
    <g id="ytick_1">
     <g id="line2d_6">
      <path d="M 56.450156 406.368 
L 499.970156 406.368 
" clip-path="url(#pf886ad4af2)" style="fill: none; stroke: #ffffff; stroke-linecap: round"/>
     </g>
     <g id="text_7">
      <!-- −400 -->
      <g style="fill: #262626" transform="translate(22.174375 410.304797) scale(0.11 -0.11)">
       <use xlink:href="#ArialMT-2212"/>
       <use xlink:href="#ArialMT-34" x="58.398438"/>
       <use xlink:href="#ArialMT-30" x="114.013672"/>
       <use xlink:href="#ArialMT-30" x="169.628906"/>
      </g>
     </g>
    </g>
    <g id="ytick_2">
     <g id="line2d_7">
      <path d="M 56.450156 317.664 
L 499.970156 317.664 
" clip-path="url(#pf886ad4af2)" style="fill: none; stroke: #ffffff; stroke-linecap: round"/>
     </g>
     <g id="text_8">
      <!-- −200 -->
      <g style="fill: #262626" transform="translate(22.174375 321.600797) scale(0.11 -0.11)">
       <use xlink:href="#ArialMT-2212"/>
       <use xlink:href="#ArialMT-32" x="58.398438"/>
       <use xlink:href="#ArialMT-30" x="114.013672"/>
       <use xlink:href="#ArialMT-30" x="169.628906"/>
      </g>
     </g>
    </g>
    <g id="ytick_3">
     <g id="line2d_8">
      <path d="M 56.450156 228.96 
L 499.970156 228.96 
" clip-path="url(#pf886ad4af2)" style="fill: none; stroke: #ffffff; stroke-linecap: round"/>
     </g>
     <g id="text_9">
      <!-- 0 -->
      <g style="fill: #262626" transform="translate(40.833125 232.896797) scale(0.11 -0.11)">
       <use xlink:href="#ArialMT-30"/>
      </g>
     </g>
    </g>
    <g id="ytick_4">
     <g id="line2d_9">
      <path d="M 56.450156 140.256 
L 499.970156 140.256 
" clip-path="url(#pf886ad4af2)" style="fill: none; stroke: #ffffff; stroke-linecap: round"/>
     </g>
     <g id="text_10">
      <!-- 200 -->
      <g style="fill: #262626" transform="translate(28.599063 144.192797) scale(0.11 -0.11)">
       <use xlink:href="#ArialMT-32"/>
       <use xlink:href="#ArialMT-30" x="55.615234"/>
       <use xlink:href="#ArialMT-30" x="111.230469"/>
      </g>
     </g>
    </g>
    <g id="ytick_5">
     <g id="line2d_10">
      <path d="M 56.450156 51.552 
L 499.970156 51.552 
" clip-path="url(#pf886ad4af2)" style="fill: none; stroke: #ffffff; stroke-linecap: round"/>
     </g>
     <g id="text_11">
      <!-- 400 -->
      <g style="fill: #262626" transform="translate(28.599063 55.488797) scale(0.11 -0.11)">
       <use xlink:href="#ArialMT-34"/>
       <use xlink:href="#ArialMT-30" x="55.615234"/>
       <use xlink:href="#ArialMT-30" x="111.230469"/>
      </g>
     </g>
    </g>
    <g id="text_12">
     <!-- y -->
     <g style="fill: #262626" transform="translate(15.64875 231.96) rotate(-90) scale(0.12 -0.12)">
      <defs>
       <path id="ArialMT-79" d="M 397 -1278 
L 334 -750 
Q 519 -800 656 -800 
Q 844 -800 956 -737 
Q 1069 -675 1141 -563 
Q 1194 -478 1313 -144 
Q 1328 -97 1363 -6 
L 103 3319 
L 709 3319 
L 1400 1397 
Q 1534 1031 1641 628 
Q 1738 1016 1872 1384 
L 2581 3319 
L 3144 3319 
L 1881 -56 
Q 1678 -603 1566 -809 
Q 1416 -1088 1222 -1217 
Q 1028 -1347 759 -1347 
Q 597 -1347 397 -1278 
z
" transform="scale(0.015625)"/>
      </defs>
      <use xlink:href="#ArialMT-79"/>
     </g>
    </g>
   </g>
   <g id="patch_3">
    <path d="M 278.210156 672.48 
C 395.833035 672.48 508.654221 625.747935 591.826156 542.576 
C 674.998091 459.404064 721.730156 346.582879 721.730156 228.96 
C 721.730156 111.337121 674.998091 -1.484064 591.826156 -84.656 
C 508.654221 -167.827935 395.833035 -214.56 278.210156 -214.56 
C 160.587277 -214.56 47.766092 -167.827935 -35.405843 -84.656 
C -118.577779 -1.484064 -165.309844 111.337121 -165.309844 228.96 
C -165.309844 346.582879 -118.577779 459.404064 -35.405843 542.576 
C 47.766092 625.747935 160.587277 672.48 278.210156 672.48 
z
" clip-path="url(#pf886ad4af2)" style="fill: #228b22; opacity: 0.12; stroke: #228b22; stroke-width: 1.5; stroke-linejoin: miter"/>
   </g>
   <g id="PathCollection_1">
    <defs>
     <path id="med9d5b4b75" d="M 0 2.236068 
C 0.593012 2.236068 1.161816 2.000462 1.581139 1.581139 
C 2.000462 1.161816 2.236068 0.593012 2.236068 0 
C 2.236068 -0.593012 2.000462 -1.161816 1.581139 -1.581139 
C 1.161816 -2.000462 0.593012 -2.236068 0 -2.236068 
C -0.593012 -2.236068 -1.161816 -2.000462 -1.581139 -1.581139 
C -2.000462 -1.161816 -2.236068 -0.593012 -2.236068 0 
C -2.236068 0.593012 -2.000462 1.161816 -1.581139 1.581139 
C -1.161816 2.000462 -0.593012 2.236068 0 2.236068 
z
" style="stroke: #4169e1"/>
    </defs>
    <g clip-path="url(#pf886ad4af2)">
     <use xlink:href="#med9d5b4b75" x="386.350404" y="165.609331" style="fill: #4169e1; stroke: #4169e1"/>
     <use xlink:href="#med9d5b4b75" x="237.964489" y="177.178519" style="fill: #4169e1; stroke: #4169e1"/>
     <use xlink:href="#med9d5b4b75" x="56.450156" y="23.228494" style="fill: #4169e1; stroke: #4169e1"/>
     <use xlink:href="#med9d5b4b75" x="168.293332" y="348.670431" style="fill: #4169e1; stroke: #4169e1"/>
     <use xlink:href="#med9d5b4b75" x="204.079222" y="235.682945" style="fill: #4169e1; stroke: #4169e1"/>
     <use xlink:href="#med9d5b4b75" x="499.970156" y="267.946129" style="fill: #4169e1; stroke: #4169e1"/>
     <use xlink:href="#med9d5b4b75" x="183.360579" y="177.419181" style="fill: #4169e1; stroke: #4169e1"/>
     <use xlink:href="#med9d5b4b75" x="356.310485" y="210.287189" style="fill: #4169e1; stroke: #4169e1"/>
     <use xlink:href="#med9d5b4b75" x="56.450156" y="450.72" style="fill: #4169e1; stroke: #4169e1"/>
     <use xlink:href="#med9d5b4b75" x="106.221876" y="418.22925" style="fill: #4169e1; stroke: #4169e1"/>
     <use xlink:href="#med9d5b4b75" x="202.854318" y="179.087077" style="fill: #4169e1; stroke: #4169e1"/>
     <use xlink:href="#med9d5b4b75" x="374.355799" y="312.027034" style="fill: #4169e1; stroke: #4169e1"/>
     <use xlink:href="#med9d5b4b75" x="404.576635" y="425.582048" style="fill: #4169e1; stroke: #4169e1"/>
     <use xlink:href="#med9d5b4b75" x="111.003225" y="266.373381" style="fill: #4169e1; stroke: #4169e1"/>
     <use xlink:href="#med9d5b4b75" x="210.498432" y="290.682174" style="fill: #4169e1; stroke: #4169e1"/>
     <use xlink:href="#med9d5b4b75" x="243.91537" y="274.805215" style="fill: #4169e1; stroke: #4169e1"/>
     <use xlink:href="#med9d5b4b75" x="221.222107" y="315.528051" style="fill: #4169e1; stroke: #4169e1"/>
     <use xlink:href="#med9d5b4b75" x="331.089163" y="338.171095" style="fill: #4169e1; stroke: #4169e1"/>
     <use xlink:href="#med9d5b4b75" x="206.23875" y="50.903558" style="fill: #4169e1; stroke: #4169e1"/>
     <use xlink:href="#med9d5b4b75" x="255.138337" y="214.599264" style="fill: #4169e1; stroke: #4169e1"/>
     <use xlink:href="#med9d5b4b75" x="488.259025" y="159.693296" style="fill: #4169e1; stroke: #4169e1"/>
     <use xlink:href="#med9d5b4b75" x="371.443324" y="450.72" style="fill: #4169e1; stroke: #4169e1"/>
     <use xlink:href="#med9d5b4b75" x="308.982639" y="386.019733" style="fill: #4169e1; stroke: #4169e1"/>
     <use xlink:href="#med9d5b4b75" x="164.314212" y="333.227393" style="fill: #4169e1; stroke: #4169e1"/>
     <use xlink:href="#med9d5b4b75" x="445.320298" y="340.780423" style="fill: #4169e1; stroke: #4169e1"/>
     <use xlink:href="#med9d5b4b75" x="162.754718" y="339.765367" style="fill: #4169e1; stroke: #4169e1"/>
     <use xlink:href="#med9d5b4b75" x="460.190346" y="192.238539" style="fill: #4169e1; stroke: #4169e1"/>
     <use xlink:href="#med9d5b4b75" x="213.35544" y="289.066793" style="fill: #4169e1; stroke: #4169e1"/>
     <use xlink:href="#med9d5b4b75" x="107.948543" y="450.72" style="fill: #4169e1; stroke: #4169e1"/>
     <use xlink:href="#med9d5b4b75" x="221.738936" y="332.494775" style="fill: #4169e1; stroke: #4169e1"/>
     <use xlink:href="#med9d5b4b75" x="276.868628" y="187.89106" style="fill: #4169e1; stroke: #4169e1"/>
     <use xlink:href="#med9d5b4b75" x="274.455852" y="71.635925" style="fill: #4169e1; stroke: #4169e1"/>
     <use xlink:href="#med9d5b4b75" x="313.09221" y="347.614215" style="fill: #4169e1; stroke: #4169e1"/>
     <use xlink:href="#med9d5b4b75" x="271.214716" y="254.222895" style="fill: #4169e1; stroke: #4169e1"/>
     <use xlink:href="#med9d5b4b75" x="183.569325" y="420.128097" style="fill: #4169e1; stroke: #4169e1"/>
     <use xlink:href="#med9d5b4b75" x="385.221714" y="120.371779" style="fill: #4169e1; stroke: #4169e1"/>
     <use xlink:href="#med9d5b4b75" x="300.727523" y="63.506737" style="fill: #4169e1; stroke: #4169e1"/>
     <use xlink:href="#med9d5b4b75" x="412.240309" y="36.029504" style="fill: #4169e1; stroke: #4169e1"/>
     <use xlink:href="#med9d5b4b75" x="56.450156" y="47.676533" style="fill: #4169e1; stroke: #4169e1"/>
     <use xlink:href="#med9d5b4b75" x="344.493833" y="395.733252" style="fill: #4169e1; stroke: #4169e1"/>
     <use xlink:href="#med9d5b4b75" x="211.221853" y="294.644462" style="fill: #4169e1; stroke: #4169e1"/>
     <use xlink:href="#med9d5b4b75" x="354.142938" y="245.298304" style="fill: #4169e1; stroke: #4169e1"/>
     <use xlink:href="#med9d5b4b75" x="319.777613" y="289.4039" style="fill: #4169e1; stroke: #4169e1"/>
     <use xlink:href="#med9d5b4b75" x="290.411184" y="249.752331" style="fill: #4169e1; stroke: #4169e1"/>
     <use xlink:href="#med9d5b4b75" x="286.756308" y="252.623392" style="fill: #4169e1; stroke: #4169e1"/>
     <use xlink:href="#med9d5b4b75" x="356.538566" y="369.113484" style="fill: #4169e1; stroke: #4169e1"/>
     <use xlink:href="#med9d5b4b75" x="196.16682" y="7.2" style="fill: #4169e1; stroke: #4169e1"/>
     <use xlink:href="#med9d5b4b75" x="212.359807" y="284.738125" style="fill: #4169e1; stroke: #4169e1"/>
     <use xlink:href="#med9d5b4b75" x="134.280634" y="442.683893" style="fill: #4169e1; stroke: #4169e1"/>
     <use xlink:href="#med9d5b4b75" x="180.316137" y="204.344879" style="fill: #4169e1; stroke: #4169e1"/>
     <use xlink:href="#med9d5b4b75" x="166.66914" y="180.943793" style="fill: #4169e1; stroke: #4169e1"/>
     <use xlink:href="#med9d5b4b75" x="425.367881" y="7.2" style="fill: #4169e1; stroke: #4169e1"/>
     <use xlink:href="#med9d5b4b75" x="62.387339" y="372.369149" style="fill: #4169e1; stroke: #4169e1"/>
     <use xlink:href="#med9d5b4b75" x="71.097632" y="80.046049" style="fill: #4169e1; stroke: #4169e1"/>
     <use xlink:href="#med9d5b4b75" x="345.013928" y="85.325626" style="fill: #4169e1; stroke: #4169e1"/>
     <use xlink:href="#med9d5b4b75" x="323.787521" y="19.934295" style="fill: #4169e1; stroke: #4169e1"/>
     <use xlink:href="#med9d5b4b75" x="337.351832" y="443.991823" style="fill: #4169e1; stroke: #4169e1"/>
     <use xlink:href="#med9d5b4b75" x="139.694534" y="124.157813" style="fill: #4169e1; stroke: #4169e1"/>
     <use xlink:href="#med9d5b4b75" x="225.69151" y="261.777397" style="fill: #4169e1; stroke: #4169e1"/>
     <use xlink:href="#med9d5b4b75" x="56.450156" y="270.017743" style="fill: #4169e1; stroke: #4169e1"/>
     <use xlink:href="#med9d5b4b75" x="249.53945" y="384.124676" style="fill: #4169e1; stroke: #4169e1"/>
     <use xlink:href="#med9d5b4b75" x="100.082113" y="423.393196" style="fill: #4169e1; stroke: #4169e1"/>
     <use xlink:href="#med9d5b4b75" x="151.559087" y="48.501392" style="fill: #4169e1; stroke: #4169e1"/>
     <use xlink:href="#med9d5b4b75" x="56.450156" y="7.2" style="fill: #4169e1; stroke: #4169e1"/>
     <use xlink:href="#med9d5b4b75" x="444.078028" y="79.912429" style="fill: #4169e1; stroke: #4169e1"/>
     <use xlink:href="#med9d5b4b75" x="90.193707" y="230.50328" style="fill: #4169e1; stroke: #4169e1"/>
     <use xlink:href="#med9d5b4b75" x="333.816632" y="344.914858" style="fill: #4169e1; stroke: #4169e1"/>
     <use xlink:href="#med9d5b4b75" x="229.492172" y="419.923039" style="fill: #4169e1; stroke: #4169e1"/>
     <use xlink:href="#med9d5b4b75" x="69.581017" y="211.323708" style="fill: #4169e1; stroke: #4169e1"/>
     <use xlink:href="#med9d5b4b75" x="217.42136" y="301.034836" style="fill: #4169e1; stroke: #4169e1"/>
     <use xlink:href="#med9d5b4b75" x="216.789323" y="159.772389" style="fill: #4169e1; stroke: #4169e1"/>
     <use xlink:href="#med9d5b4b75" x="104.387051" y="27.875939" style="fill: #4169e1; stroke: #4169e1"/>
     <use xlink:href="#med9d5b4b75" x="250.535798" y="214.777511" style="fill: #4169e1; stroke: #4169e1"/>
     <use xlink:href="#med9d5b4b75" x="455.780944" y="437.007804" style="fill: #4169e1; stroke: #4169e1"/>
     <use xlink:href="#med9d5b4b75" x="468.963577" y="246.77455" style="fill: #4169e1; stroke: #4169e1"/>
     <use xlink:href="#med9d5b4b75" x="454.688792" y="121.507975" style="fill: #4169e1; stroke: #4169e1"/>
     <use xlink:href="#med9d5b4b75" x="91.862605" y="246.429204" style="fill: #4169e1; stroke: #4169e1"/>
     <use xlink:href="#med9d5b4b75" x="460.15242" y="14.690504" style="fill: #4169e1; stroke: #4169e1"/>
     <use xlink:href="#med9d5b4b75" x="378.733623" y="251.230474" style="fill: #4169e1; stroke: #4169e1"/>
     <use xlink:href="#med9d5b4b75" x="335.511795" y="423.405676" style="fill: #4169e1; stroke: #4169e1"/>
     <use xlink:href="#med9d5b4b75" x="254.745405" y="242.824034" style="fill: #4169e1; stroke: #4169e1"/>
     <use xlink:href="#med9d5b4b75" x="292.204149" y="127.842942" style="fill: #4169e1; stroke: #4169e1"/>
     <use xlink:href="#med9d5b4b75" x="303.964808" y="242.366152" style="fill: #4169e1; stroke: #4169e1"/>
     <use xlink:href="#med9d5b4b75" x="215.393686" y="238.179923" style="fill: #4169e1; stroke: #4169e1"/>
     <use xlink:href="#med9d5b4b75" x="479.199133" y="168.298638" style="fill: #4169e1; stroke: #4169e1"/>
     <use xlink:href="#med9d5b4b75" x="179.782906" y="128.045651" style="fill: #4169e1; stroke: #4169e1"/>
     <use xlink:href="#med9d5b4b75" x="370.027317" y="154.14529" style="fill: #4169e1; stroke: #4169e1"/>
     <use xlink:href="#med9d5b4b75" x="245.285533" y="326.307882" style="fill: #4169e1; stroke: #4169e1"/>
     <use xlink:href="#med9d5b4b75" x="460.878987" y="302.284469" style="fill: #4169e1; stroke: #4169e1"/>
     <use xlink:href="#med9d5b4b75" x="498.258541" y="236.29593" style="fill: #4169e1; stroke: #4169e1"/>
     <use xlink:href="#med9d5b4b75" x="325.15559" y="157.517595" style="fill: #4169e1; stroke: #4169e1"/>
     <use xlink:href="#med9d5b4b75" x="354.143019" y="317.429307" style="fill: #4169e1; stroke: #4169e1"/>
     <use xlink:href="#med9d5b4b75" x="222.561478" y="281.617196" style="fill: #4169e1; stroke: #4169e1"/>
     <use xlink:href="#med9d5b4b75" x="334.530537" y="266.130074" style="fill: #4169e1; stroke: #4169e1"/>
     <use xlink:href="#med9d5b4b75" x="221.445295" y="30.782709" style="fill: #4169e1; stroke: #4169e1"/>
     <use xlink:href="#med9d5b4b75" x="73.535638" y="421.104239" style="fill: #4169e1; stroke: #4169e1"/>
     <use xlink:href="#med9d5b4b75" x="173.568875" y="233.971759" style="fill: #4169e1; stroke: #4169e1"/>
     <use xlink:href="#med9d5b4b75" x="297.79984" y="7.2" style="fill: #4169e1; stroke: #4169e1"/>
     <use xlink:href="#med9d5b4b75" x="300.916102" y="7.2" style="fill: #4169e1; stroke: #4169e1"/>
     <use xlink:href="#med9d5b4b75" x="143.091006" y="132.431908" style="fill: #4169e1; stroke: #4169e1"/>
     <use xlink:href="#med9d5b4b75" x="496.014669" y="208.189626" style="fill: #4169e1; stroke: #4169e1"/>
     <use xlink:href="#med9d5b4b75" x="153.061219" y="174.314598" style="fill: #4169e1; stroke: #4169e1"/>
     <use xlink:href="#med9d5b4b75" x="197.960574" y="180.807328" style="fill: #4169e1; stroke: #4169e1"/>
     <use xlink:href="#med9d5b4b75" x="89.840615" y="295.214888" style="fill: #4169e1; stroke: #4169e1"/>
     <use xlink:href="#med9d5b4b75" x="259.841645" y="287.032074" style="fill: #4169e1; stroke: #4169e1"/>
     <use xlink:href="#med9d5b4b75" x="413.891056" y="95.567056" style="fill: #4169e1; stroke: #4169e1"/>
     <use xlink:href="#med9d5b4b75" x="292.051488" y="205.886944" style="fill: #4169e1; stroke: #4169e1"/>
     <use xlink:href="#med9d5b4b75" x="400.221672" y="276.888157" style="fill: #4169e1; stroke: #4169e1"/>
     <use xlink:href="#med9d5b4b75" x="360.145949" y="24.153541" style="fill: #4169e1; stroke: #4169e1"/>
     <use xlink:href="#med9d5b4b75" x="74.292132" y="228.048354" style="fill: #4169e1; stroke: #4169e1"/>
     <use xlink:href="#med9d5b4b75" x="270.691697" y="308.374843" style="fill: #4169e1; stroke: #4169e1"/>
     <use xlink:href="#med9d5b4b75" x="285.842721" y="77.364585" style="fill: #4169e1; stroke: #4169e1"/>
     <use xlink:href="#med9d5b4b75" x="260.231545" y="435.221123" style="fill: #4169e1; stroke: #4169e1"/>
     <use xlink:href="#med9d5b4b75" x="435.282004" y="400.074626" style="fill: #4169e1; stroke: #4169e1"/>
     <use xlink:href="#med9d5b4b75" x="232.052458" y="176.712365" style="fill: #4169e1; stroke: #4169e1"/>
     <use xlink:href="#med9d5b4b75" x="164.233854" y="140.728411" style="fill: #4169e1; stroke: #4169e1"/>
     <use xlink:href="#med9d5b4b75" x="394.60488" y="273.191584" style="fill: #4169e1; stroke: #4169e1"/>
     <use xlink:href="#med9d5b4b75" x="313.412282" y="129.006749" style="fill: #4169e1; stroke: #4169e1"/>
     <use xlink:href="#med9d5b4b75" x="223.66995" y="59.627453" style="fill: #4169e1; stroke: #4169e1"/>
     <use xlink:href="#med9d5b4b75" x="422.119917" y="397.179077" style="fill: #4169e1; stroke: #4169e1"/>
     <use xlink:href="#med9d5b4b75" x="499.970156" y="369.976404" style="fill: #4169e1; stroke: #4169e1"/>
     <use xlink:href="#med9d5b4b75" x="211.199127" y="125.83756" style="fill: #4169e1; stroke: #4169e1"/>
     <use xlink:href="#med9d5b4b75" x="188.894841" y="288.416727" style="fill: #4169e1; stroke: #4169e1"/>
     <use xlink:href="#med9d5b4b75" x="434.904846" y="149.717595" style="fill: #4169e1; stroke: #4169e1"/>
     <use xlink:href="#med9d5b4b75" x="443.157624" y="70.986996" style="fill: #4169e1; stroke: #4169e1"/>
     <use xlink:href="#med9d5b4b75" x="203.251317" y="276.182269" style="fill: #4169e1; stroke: #4169e1"/>
     <use xlink:href="#med9d5b4b75" x="173.326921" y="285.423677" style="fill: #4169e1; stroke: #4169e1"/>
     <use xlink:href="#med9d5b4b75" x="241.666547" y="172.665194" style="fill: #4169e1; stroke: #4169e1"/>
     <use xlink:href="#med9d5b4b75" x="418.782404" y="261.434332" style="fill: #4169e1; stroke: #4169e1"/>
     <use xlink:href="#med9d5b4b75" x="499.970156" y="109.858232" style="fill: #4169e1; stroke: #4169e1"/>
     <use xlink:href="#med9d5b4b75" x="495.789485" y="82.067375" style="fill: #4169e1; stroke: #4169e1"/>
     <use xlink:href="#med9d5b4b75" x="344.319751" y="87.875257" style="fill: #4169e1; stroke: #4169e1"/>
     <use xlink:href="#med9d5b4b75" x="176.299735" y="196.344402" style="fill: #4169e1; stroke: #4169e1"/>
     <use xlink:href="#med9d5b4b75" x="349.709673" y="297.683348" style="fill: #4169e1; stroke: #4169e1"/>
     <use xlink:href="#med9d5b4b75" x="477.516266" y="308.859943" style="fill: #4169e1; stroke: #4169e1"/>
     <use xlink:href="#med9d5b4b75" x="295.270737" y="61.37966" style="fill: #4169e1; stroke: #4169e1"/>
     <use xlink:href="#med9d5b4b75" x="220.23808" y="337.876096" style="fill: #4169e1; stroke: #4169e1"/>
     <use xlink:href="#med9d5b4b75" x="175.962926" y="75.599668" style="fill: #4169e1; stroke: #4169e1"/>
     <use xlink:href="#med9d5b4b75" x="283.235124" y="117.548082" style="fill: #4169e1; stroke: #4169e1"/>
     <use xlink:href="#med9d5b4b75" x="337.119819" y="12.933533" style="fill: #4169e1; stroke: #4169e1"/>
     <use xlink:href="#med9d5b4b75" x="457.302552" y="212.336003" style="fill: #4169e1; stroke: #4169e1"/>
     <use xlink:href="#med9d5b4b75" x="499.970156" y="343.692051" style="fill: #4169e1; stroke: #4169e1"/>
     <use xlink:href="#med9d5b4b75" x="418.68958" y="32.491874" style="fill: #4169e1; stroke: #4169e1"/>
     <use xlink:href="#med9d5b4b75" x="325.404451" y="250.41838" style="fill: #4169e1; stroke: #4169e1"/>
     <use xlink:href="#med9d5b4b75" x="499.970156" y="102.889589" style="fill: #4169e1; stroke: #4169e1"/>
     <use xlink:href="#med9d5b4b75" x="217.601446" y="404.946957" style="fill: #4169e1; stroke: #4169e1"/>
     <use xlink:href="#med9d5b4b75" x="499.970156" y="135.118765" style="fill: #4169e1; stroke: #4169e1"/>
     <use xlink:href="#med9d5b4b75" x="205.54981" y="399.919391" style="fill: #4169e1; stroke: #4169e1"/>
     <use xlink:href="#med9d5b4b75" x="220.436533" y="432.534069" style="fill: #4169e1; stroke: #4169e1"/>
     <use xlink:href="#med9d5b4b75" x="275.771282" y="299.827344" style="fill: #4169e1; stroke: #4169e1"/>
     <use xlink:href="#med9d5b4b75" x="119.033971" y="380.186298" style="fill: #4169e1; stroke: #4169e1"/>
     <use xlink:href="#med9d5b4b75" x="165.08152" y="148.452593" style="fill: #4169e1; stroke: #4169e1"/>
     <use xlink:href="#med9d5b4b75" x="496.735917" y="103.371061" style="fill: #4169e1; stroke: #4169e1"/>
     <use xlink:href="#med9d5b4b75" x="67.336076" y="246.985705" style="fill: #4169e1; stroke: #4169e1"/>
     <use xlink:href="#med9d5b4b75" x="333.337322" y="202.023877" style="fill: #4169e1; stroke: #4169e1"/>
     <use xlink:href="#med9d5b4b75" x="416.576526" y="260.989259" style="fill: #4169e1; stroke: #4169e1"/>
     <use xlink:href="#med9d5b4b75" x="199.819214" y="344.943025" style="fill: #4169e1; stroke: #4169e1"/>
     <use xlink:href="#med9d5b4b75" x="70.538576" y="301.464029" style="fill: #4169e1; stroke: #4169e1"/>
     <use xlink:href="#med9d5b4b75" x="253.559432" y="163.458682" style="fill: #4169e1; stroke: #4169e1"/>
     <use xlink:href="#med9d5b4b75" x="320.300202" y="259.623734" style="fill: #4169e1; stroke: #4169e1"/>
     <use xlink:href="#med9d5b4b75" x="212.771973" y="233.969332" style="fill: #4169e1; stroke: #4169e1"/>
     <use xlink:href="#med9d5b4b75" x="261.279342" y="9.73301" style="fill: #4169e1; stroke: #4169e1"/>
     <use xlink:href="#med9d5b4b75" x="447.709822" y="10.579431" style="fill: #4169e1; stroke: #4169e1"/>
     <use xlink:href="#med9d5b4b75" x="499.970156" y="183.948946" style="fill: #4169e1; stroke: #4169e1"/>
     <use xlink:href="#med9d5b4b75" x="425.149707" y="116.220053" style="fill: #4169e1; stroke: #4169e1"/>
     <use xlink:href="#med9d5b4b75" x="353.629861" y="48.466621" style="fill: #4169e1; stroke: #4169e1"/>
     <use xlink:href="#med9d5b4b75" x="423.618854" y="331.725694" style="fill: #4169e1; stroke: #4169e1"/>
     <use xlink:href="#med9d5b4b75" x="235.945419" y="382.431171" style="fill: #4169e1; stroke: #4169e1"/>
     <use xlink:href="#med9d5b4b75" x="450.65319" y="19.910013" style="fill: #4169e1; stroke: #4169e1"/>
     <use xlink:href="#med9d5b4b75" x="294.233952" y="105.172428" style="fill: #4169e1; stroke: #4169e1"/>
     <use xlink:href="#med9d5b4b75" x="282.42484" y="432.494222" style="fill: #4169e1; stroke: #4169e1"/>
     <use xlink:href="#med9d5b4b75" x="132.456907" y="449.927774" style="fill: #4169e1; stroke: #4169e1"/>
     <use xlink:href="#med9d5b4b75" x="198.5118" y="423.340775" style="fill: #4169e1; stroke: #4169e1"/>
    </g>
   </g>
   <g id="PathCollection_2">
    <defs>
     <path id="mdfa992fb3a" d="M 0 2.5 
C 0.663008 2.5 1.29895 2.236584 1.767767 1.767767 
C 2.236584 1.29895 2.5 0.663008 2.5 0 
C 2.5 -0.663008 2.236584 -1.29895 1.767767 -1.767767 
C 1.29895 -2.236584 0.663008 -2.5 0 -2.5 
C -0.663008 -2.5 -1.29895 -2.236584 -1.767767 -1.767767 
C -2.236584 -1.29895 -2.5 -0.663008 -2.5 0 
C -2.5 0.663008 -2.236584 1.29895 -1.767767 1.767767 
C -1.29895 2.236584 -0.663008 2.5 0 2.5 
z
" style="stroke: #b22222"/>
    </defs>
    <g clip-path="url(#pf886ad4af2)">
     <use xlink:href="#mdfa992fb3a" x="436.444227" y="138.556729" style="fill: #b22222; stroke: #b22222"/>
     <use xlink:href="#mdfa992fb3a" x="262.119046" y="262.088506" style="fill: #b22222; stroke: #b22222"/>
     <use xlink:href="#mdfa992fb3a" x="326.527108" y="159.007545" style="fill: #b22222; stroke: #b22222"/>
     <use xlink:href="#mdfa992fb3a" x="175.55271" y="274.306367" style="fill: #b22222; stroke: #b22222"/>
     <use xlink:href="#mdfa992fb3a" x="177.562545" y="201.206414" style="fill: #b22222; stroke: #b22222"/>
     <use xlink:href="#mdfa992fb3a" x="442.49497" y="150.860362" style="fill: #b22222; stroke: #b22222"/>
     <use xlink:href="#mdfa992fb3a" x="437.488803" y="199.250863" style="fill: #b22222; stroke: #b22222"/>
     <use xlink:href="#mdfa992fb3a" x="379.584653" y="446.861736" style="fill: #b22222; stroke: #b22222"/>
     <use xlink:href="#mdfa992fb3a" x="152.515278" y="251.324035" style="fill: #b22222; stroke: #b22222"/>
     <use xlink:href="#mdfa992fb3a" x="344.771372" y="170.054526" style="fill: #b22222; stroke: #b22222"/>
     <use xlink:href="#mdfa992fb3a" x="409.450997" y="136.976662" style="fill: #b22222; stroke: #b22222"/>
     <use xlink:href="#mdfa992fb3a" x="88.197001" y="176.170681" style="fill: #b22222; stroke: #b22222"/>
     <use xlink:href="#mdfa992fb3a" x="276.232594" y="141.030854" style="fill: #b22222; stroke: #b22222"/>
     <use xlink:href="#mdfa992fb3a" x="84.935069" y="256.097322" style="fill: #b22222; stroke: #b22222"/>
     <use xlink:href="#mdfa992fb3a" x="330.895008" y="325.580402" style="fill: #b22222; stroke: #b22222"/>
     <use xlink:href="#mdfa992fb3a" x="237.729603" y="268.233149" style="fill: #b22222; stroke: #b22222"/>
     <use xlink:href="#mdfa992fb3a" x="475.937728" y="224.513515" style="fill: #b22222; stroke: #b22222"/>
     <use xlink:href="#mdfa992fb3a" x="122.012748" y="320.741373" style="fill: #b22222; stroke: #b22222"/>
     <use xlink:href="#mdfa992fb3a" x="249.271099" y="343.864232" style="fill: #b22222; stroke: #b22222"/>
     <use xlink:href="#mdfa992fb3a" x="419.889567" y="400.320614" style="fill: #b22222; stroke: #b22222"/>
     <use xlink:href="#mdfa992fb3a" x="304.350184" y="162.946356" style="fill: #b22222; stroke: #b22222"/>
     <use xlink:href="#mdfa992fb3a" x="301.479995" y="450.72" style="fill: #b22222; stroke: #b22222"/>
     <use xlink:href="#mdfa992fb3a" x="499.970156" y="69.409825" style="fill: #b22222; stroke: #b22222"/>
     <use xlink:href="#mdfa992fb3a" x="259.697751" y="113.202282" style="fill: #b22222; stroke: #b22222"/>
     <use xlink:href="#mdfa992fb3a" x="499.970156" y="274.18001" style="fill: #b22222; stroke: #b22222"/>
     <use xlink:href="#mdfa992fb3a" x="398.079584" y="402.48586" style="fill: #b22222; stroke: #b22222"/>
     <use xlink:href="#mdfa992fb3a" x="214.952101" y="305.270778" style="fill: #b22222; stroke: #b22222"/>
     <use xlink:href="#mdfa992fb3a" x="243.041442" y="250.191864" style="fill: #b22222; stroke: #b22222"/>
     <use xlink:href="#mdfa992fb3a" x="151.920584" y="331.648368" style="fill: #b22222; stroke: #b22222"/>
     <use xlink:href="#mdfa992fb3a" x="293.724528" y="162.524716" style="fill: #b22222; stroke: #b22222"/>
     <use xlink:href="#mdfa992fb3a" x="268.672007" y="63.557088" style="fill: #b22222; stroke: #b22222"/>
     <use xlink:href="#mdfa992fb3a" x="486.982416" y="450.72" style="fill: #b22222; stroke: #b22222"/>
     <use xlink:href="#mdfa992fb3a" x="211.033815" y="131.404055" style="fill: #b22222; stroke: #b22222"/>
     <use xlink:href="#mdfa992fb3a" x="185.656981" y="92.472472" style="fill: #b22222; stroke: #b22222"/>
     <use xlink:href="#mdfa992fb3a" x="340.639833" y="147.917839" style="fill: #b22222; stroke: #b22222"/>
     <use xlink:href="#mdfa992fb3a" x="311.504949" y="320.606083" style="fill: #b22222; stroke: #b22222"/>
     <use xlink:href="#mdfa992fb3a" x="217.965758" y="232.492307" style="fill: #b22222; stroke: #b22222"/>
     <use xlink:href="#mdfa992fb3a" x="177.846628" y="285.124324" style="fill: #b22222; stroke: #b22222"/>
     <use xlink:href="#mdfa992fb3a" x="101.970254" y="92.661978" style="fill: #b22222; stroke: #b22222"/>
     <use xlink:href="#mdfa992fb3a" x="124.748203" y="337.443357" style="fill: #b22222; stroke: #b22222"/>
     <use xlink:href="#mdfa992fb3a" x="417.239789" y="296.932682" style="fill: #b22222; stroke: #b22222"/>
     <use xlink:href="#mdfa992fb3a" x="365.955705" y="308.399077" style="fill: #b22222; stroke: #b22222"/>
     <use xlink:href="#mdfa992fb3a" x="432.242116" y="7.2" style="fill: #b22222; stroke: #b22222"/>
     <use xlink:href="#mdfa992fb3a" x="468.947876" y="450.72" style="fill: #b22222; stroke: #b22222"/>
     <use xlink:href="#mdfa992fb3a" x="211.659688" y="265.76881" style="fill: #b22222; stroke: #b22222"/>
     <use xlink:href="#mdfa992fb3a" x="361.004978" y="274.40451" style="fill: #b22222; stroke: #b22222"/>
     <use xlink:href="#mdfa992fb3a" x="496.554018" y="337.89175" style="fill: #b22222; stroke: #b22222"/>
     <use xlink:href="#mdfa992fb3a" x="248.622105" y="267.9314" style="fill: #b22222; stroke: #b22222"/>
     <use xlink:href="#mdfa992fb3a" x="241.963478" y="237.200229" style="fill: #b22222; stroke: #b22222"/>
     <use xlink:href="#mdfa992fb3a" x="71.187952" y="55.018692" style="fill: #b22222; stroke: #b22222"/>
     <use xlink:href="#mdfa992fb3a" x="378.999399" y="201.86169" style="fill: #b22222; stroke: #b22222"/>
     <use xlink:href="#mdfa992fb3a" x="194.666556" y="196.29263" style="fill: #b22222; stroke: #b22222"/>
     <use xlink:href="#mdfa992fb3a" x="97.04657" y="396.100596" style="fill: #b22222; stroke: #b22222"/>
     <use xlink:href="#mdfa992fb3a" x="334.656735" y="7.2" style="fill: #b22222; stroke: #b22222"/>
     <use xlink:href="#mdfa992fb3a" x="278.616004" y="308.691822" style="fill: #b22222; stroke: #b22222"/>
     <use xlink:href="#mdfa992fb3a" x="183.364796" y="231.33685" style="fill: #b22222; stroke: #b22222"/>
     <use xlink:href="#mdfa992fb3a" x="66.732652" y="289.623481" style="fill: #b22222; stroke: #b22222"/>
     <use xlink:href="#mdfa992fb3a" x="199.783265" y="114.70601" style="fill: #b22222; stroke: #b22222"/>
     <use xlink:href="#mdfa992fb3a" x="279.659319" y="196.347406" style="fill: #b22222; stroke: #b22222"/>
     <use xlink:href="#mdfa992fb3a" x="274.341136" y="190.624874" style="fill: #b22222; stroke: #b22222"/>
     <use xlink:href="#mdfa992fb3a" x="350.962508" y="232.091303" style="fill: #b22222; stroke: #b22222"/>
     <use xlink:href="#mdfa992fb3a" x="131.15829" y="7.2" style="fill: #b22222; stroke: #b22222"/>
     <use xlink:href="#mdfa992fb3a" x="381.264264" y="363.858148" style="fill: #b22222; stroke: #b22222"/>
     <use xlink:href="#mdfa992fb3a" x="349.366713" y="112.778157" style="fill: #b22222; stroke: #b22222"/>
     <use xlink:href="#mdfa992fb3a" x="206.928054" y="314.83187" style="fill: #b22222; stroke: #b22222"/>
     <use xlink:href="#mdfa992fb3a" x="235.544447" y="211.309909" style="fill: #b22222; stroke: #b22222"/>
     <use xlink:href="#mdfa992fb3a" x="127.134654" y="150.619862" style="fill: #b22222; stroke: #b22222"/>
     <use xlink:href="#mdfa992fb3a" x="342.839309" y="210.622946" style="fill: #b22222; stroke: #b22222"/>
     <use xlink:href="#mdfa992fb3a" x="101.077218" y="331.755451" style="fill: #b22222; stroke: #b22222"/>
     <use xlink:href="#mdfa992fb3a" x="243.351458" y="132.649608" style="fill: #b22222; stroke: #b22222"/>
     <use xlink:href="#mdfa992fb3a" x="261.551923" y="333.197277" style="fill: #b22222; stroke: #b22222"/>
     <use xlink:href="#mdfa992fb3a" x="239.289693" y="202.087343" style="fill: #b22222; stroke: #b22222"/>
     <use xlink:href="#mdfa992fb3a" x="499.970156" y="68.49585" style="fill: #b22222; stroke: #b22222"/>
     <use xlink:href="#mdfa992fb3a" x="173.9242" y="299.852702" style="fill: #b22222; stroke: #b22222"/>
     <use xlink:href="#mdfa992fb3a" x="168.451537" y="304.385606" style="fill: #b22222; stroke: #b22222"/>
     <use xlink:href="#mdfa992fb3a" x="99.961907" y="45.453925" style="fill: #b22222; stroke: #b22222"/>
     <use xlink:href="#mdfa992fb3a" x="321.814603" y="7.2" style="fill: #b22222; stroke: #b22222"/>
     <use xlink:href="#mdfa992fb3a" x="61.108943" y="198.580887" style="fill: #b22222; stroke: #b22222"/>
     <use xlink:href="#mdfa992fb3a" x="362.374106" y="38.587892" style="fill: #b22222; stroke: #b22222"/>
     <use xlink:href="#mdfa992fb3a" x="342.105995" y="170.830016" style="fill: #b22222; stroke: #b22222"/>
     <use xlink:href="#mdfa992fb3a" x="281.652474" y="428.093157" style="fill: #b22222; stroke: #b22222"/>
     <use xlink:href="#mdfa992fb3a" x="215.600097" y="90.285746" style="fill: #b22222; stroke: #b22222"/>
     <use xlink:href="#mdfa992fb3a" x="325.552414" y="331.198304" style="fill: #b22222; stroke: #b22222"/>
     <use xlink:href="#mdfa992fb3a" x="268.652068" y="128.891707" style="fill: #b22222; stroke: #b22222"/>
     <use xlink:href="#mdfa992fb3a" x="475.671911" y="186.752872" style="fill: #b22222; stroke: #b22222"/>
     <use xlink:href="#mdfa992fb3a" x="124.095646" y="16.534074" style="fill: #b22222; stroke: #b22222"/>
     <use xlink:href="#mdfa992fb3a" x="292.613708" y="80.855965" style="fill: #b22222; stroke: #b22222"/>
     <use xlink:href="#mdfa992fb3a" x="268.575681" y="239.01958" style="fill: #b22222; stroke: #b22222"/>
     <use xlink:href="#mdfa992fb3a" x="302.845127" y="133.980919" style="fill: #b22222; stroke: #b22222"/>
     <use xlink:href="#mdfa992fb3a" x="251.408149" y="278.930332" style="fill: #b22222; stroke: #b22222"/>
     <use xlink:href="#mdfa992fb3a" x="81.860707" y="8.19122" style="fill: #b22222; stroke: #b22222"/>
     <use xlink:href="#mdfa992fb3a" x="292.685475" y="283.526485" style="fill: #b22222; stroke: #b22222"/>
     <use xlink:href="#mdfa992fb3a" x="199.02667" y="217.724296" style="fill: #b22222; stroke: #b22222"/>
     <use xlink:href="#mdfa992fb3a" x="322.449842" y="328.82105" style="fill: #b22222; stroke: #b22222"/>
     <use xlink:href="#mdfa992fb3a" x="378.839373" y="339.164176" style="fill: #b22222; stroke: #b22222"/>
     <use xlink:href="#mdfa992fb3a" x="230.3809" y="362.341656" style="fill: #b22222; stroke: #b22222"/>
     <use xlink:href="#mdfa992fb3a" x="484.133983" y="230.290198" style="fill: #b22222; stroke: #b22222"/>
     <use xlink:href="#mdfa992fb3a" x="214.226935" y="217.109818" style="fill: #b22222; stroke: #b22222"/>
    </g>
   </g>
   <g id="patch_4">
    <path d="M 56.450156 450.72 
L 56.450156 7.2 
" style="fill: none; stroke: #ffffff; stroke-width: 1.25; stroke-linejoin: miter; stroke-linecap: square"/>
   </g>
   <g id="patch_5">
    <path d="M 499.970156 450.72 
L 499.970156 7.2 
" style="fill: none; stroke: #ffffff; stroke-width: 1.25; stroke-linejoin: miter; stroke-linecap: square"/>
   </g>
   <g id="patch_6">
    <path d="M 56.450156 450.72 
L 499.970156 450.72 
" style="fill: none; stroke: #ffffff; stroke-width: 1.25; stroke-linejoin: miter; stroke-linecap: square"/>
   </g>
   <g id="patch_7">
    <path d="M 56.450156 7.2 
L 499.970156 7.2 
" style="fill: none; stroke: #ffffff; stroke-width: 1.25; stroke-linejoin: miter; stroke-linecap: square"/>
   </g>
   <g id="text_13">
    <!-- t = 400 -->
    <g style="fill: #262626" transform="translate(65.320556 24.659775) scale(0.12 -0.12)">
     <defs>
      <path id="ArialMT-74" d="M 1650 503 
L 1731 6 
Q 1494 -44 1306 -44 
Q 1000 -44 831 53 
Q 663 150 594 308 
Q 525 466 525 972 
L 525 2881 
L 113 2881 
L 113 3319 
L 525 3319 
L 525 4141 
L 1084 4478 
L 1084 3319 
L 1650 3319 
L 1650 2881 
L 1084 2881 
L 1084 941 
Q 1084 700 1114 631 
Q 1144 563 1211 522 
Q 1278 481 1403 481 
Q 1497 481 1650 503 
z
" transform="scale(0.015625)"/>
      <path id="ArialMT-20" transform="scale(0.015625)"/>
      <path id="ArialMT-3d" d="M 3381 2694 
L 356 2694 
L 356 3219 
L 3381 3219 
L 3381 2694 
z
M 3381 1303 
L 356 1303 
L 356 1828 
L 3381 1828 
L 3381 1303 
z
" transform="scale(0.015625)"/>
     </defs>
     <use xlink:href="#ArialMT-74"/>
     <use xlink:href="#ArialMT-20" x="27.783203"/>
     <use xlink:href="#ArialMT-3d" x="55.566406"/>
     <use xlink:href="#ArialMT-20" x="113.964844"/>
     <use xlink:href="#ArialMT-34" x="141.748047"/>
     <use xlink:href="#ArialMT-30" x="197.363281"/>
     <use xlink:href="#ArialMT-30" x="252.978516"/>
    </g>
   </g>
   <g id="legend_1">
    <g id="patch_8">
     <path d="M 328.111406 94.59 
L 483.170156 94.59 
Q 487.970156 94.59 487.970156 89.79 
L 487.970156 24 
Q 487.970156 19.2 483.170156 19.2 
L 328.111406 19.2 
Q 323.311406 19.2 323.311406 24 
L 323.311406 89.79 
Q 323.311406 94.59 328.111406 94.59 
z
" style="fill: #eaeaf2; opacity: 0.8; stroke: #cccccc; stroke-linejoin: miter"/>
    </g>
    <g id="PathCollection_3">
     <g>
      <use xlink:href="#med9d5b4b75" x="356.911406" y="39.97125" style="fill: #4169e1; stroke: #4169e1"/>
     </g>
    </g>
    <g id="text_14">
     <!-- Sheep -->
     <g style="fill: #262626" transform="translate(400.111406 46.27125) scale(0.24 -0.24)">
      <defs>
       <path id="ArialMT-53" d="M 288 1472 
L 859 1522 
Q 900 1178 1048 958 
Q 1197 738 1509 602 
Q 1822 466 2213 466 
Q 2559 466 2825 569 
Q 3091 672 3220 851 
Q 3350 1031 3350 1244 
Q 3350 1459 3225 1620 
Q 3100 1781 2813 1891 
Q 2628 1963 1997 2114 
Q 1366 2266 1113 2400 
Q 784 2572 623 2826 
Q 463 3081 463 3397 
Q 463 3744 659 4045 
Q 856 4347 1234 4503 
Q 1613 4659 2075 4659 
Q 2584 4659 2973 4495 
Q 3363 4331 3572 4012 
Q 3781 3694 3797 3291 
L 3216 3247 
Q 3169 3681 2898 3903 
Q 2628 4125 2100 4125 
Q 1550 4125 1298 3923 
Q 1047 3722 1047 3438 
Q 1047 3191 1225 3031 
Q 1400 2872 2139 2705 
Q 2878 2538 3153 2413 
Q 3553 2228 3743 1945 
Q 3934 1663 3934 1294 
Q 3934 928 3725 604 
Q 3516 281 3123 101 
Q 2731 -78 2241 -78 
Q 1619 -78 1198 103 
Q 778 284 539 648 
Q 300 1013 288 1472 
z
" transform="scale(0.015625)"/>
       <path id="ArialMT-68" d="M 422 0 
L 422 4581 
L 984 4581 
L 984 2938 
Q 1378 3394 1978 3394 
Q 2347 3394 2619 3248 
Q 2891 3103 3008 2847 
Q 3125 2591 3125 2103 
L 3125 0 
L 2563 0 
L 2563 2103 
Q 2563 2525 2380 2717 
Q 2197 2909 1863 2909 
Q 1613 2909 1392 2779 
Q 1172 2650 1078 2428 
Q 984 2206 984 1816 
L 984 0 
L 422 0 
z
" transform="scale(0.015625)"/>
       <path id="ArialMT-65" d="M 2694 1069 
L 3275 997 
Q 3138 488 2766 206 
Q 2394 -75 1816 -75 
Q 1088 -75 661 373 
Q 234 822 234 1631 
Q 234 2469 665 2931 
Q 1097 3394 1784 3394 
Q 2450 3394 2872 2941 
Q 3294 2488 3294 1666 
Q 3294 1616 3291 1516 
L 816 1516 
Q 847 969 1125 678 
Q 1403 388 1819 388 
Q 2128 388 2347 550 
Q 2566 713 2694 1069 
z
M 847 1978 
L 2700 1978 
Q 2663 2397 2488 2606 
Q 2219 2931 1791 2931 
Q 1403 2931 1139 2672 
Q 875 2413 847 1978 
z
" transform="scale(0.015625)"/>
       <path id="ArialMT-70" d="M 422 -1272 
L 422 3319 
L 934 3319 
L 934 2888 
Q 1116 3141 1344 3267 
Q 1572 3394 1897 3394 
Q 2322 3394 2647 3175 
Q 2972 2956 3137 2557 
Q 3303 2159 3303 1684 
Q 3303 1175 3120 767 
Q 2938 359 2589 142 
Q 2241 -75 1856 -75 
Q 1575 -75 1351 44 
Q 1128 163 984 344 
L 984 -1272 
L 422 -1272 
z
M 931 1641 
Q 931 1000 1190 694 
Q 1450 388 1819 388 
Q 2194 388 2461 705 
Q 2728 1022 2728 1688 
Q 2728 2322 2467 2637 
Q 2206 2953 1844 2953 
Q 1484 2953 1207 2617 
Q 931 2281 931 1641 
z
" transform="scale(0.015625)"/>
      </defs>
      <use xlink:href="#ArialMT-53"/>
      <use xlink:href="#ArialMT-68" x="66.699219"/>
      <use xlink:href="#ArialMT-65" x="122.314453"/>
      <use xlink:href="#ArialMT-65" x="177.929688"/>
      <use xlink:href="#ArialMT-70" x="233.544922"/>
     </g>
    </g>
    <g id="PathCollection_4">
     <g>
      <use xlink:href="#mdfa992fb3a" x="356.911406" y="73.92" style="fill: #b22222; stroke: #b22222"/>
     </g>
    </g>
    <g id="text_15">
     <!-- Wolves -->
     <g style="fill: #262626" transform="translate(400.111406 80.22) scale(0.24 -0.24)">
      <defs>
       <path id="ArialMT-57" d="M 1294 0 
L 78 4581 
L 700 4581 
L 1397 1578 
Q 1509 1106 1591 641 
Q 1766 1375 1797 1488 
L 2669 4581 
L 3400 4581 
L 4056 2263 
Q 4303 1400 4413 641 
Q 4500 1075 4641 1638 
L 5359 4581 
L 5969 4581 
L 4713 0 
L 4128 0 
L 3163 3491 
Q 3041 3928 3019 4028 
Q 2947 3713 2884 3491 
L 1913 0 
L 1294 0 
z
" transform="scale(0.015625)"/>
       <path id="ArialMT-6f" d="M 213 1659 
Q 213 2581 725 3025 
Q 1153 3394 1769 3394 
Q 2453 3394 2887 2945 
Q 3322 2497 3322 1706 
Q 3322 1066 3130 698 
Q 2938 331 2570 128 
Q 2203 -75 1769 -75 
Q 1072 -75 642 372 
Q 213 819 213 1659 
z
M 791 1659 
Q 791 1022 1069 705 
Q 1347 388 1769 388 
Q 2188 388 2466 706 
Q 2744 1025 2744 1678 
Q 2744 2294 2464 2611 
Q 2184 2928 1769 2928 
Q 1347 2928 1069 2612 
Q 791 2297 791 1659 
z
" transform="scale(0.015625)"/>
       <path id="ArialMT-6c" d="M 409 0 
L 409 4581 
L 972 4581 
L 972 0 
L 409 0 
z
" transform="scale(0.015625)"/>
       <path id="ArialMT-76" d="M 1344 0 
L 81 3319 
L 675 3319 
L 1388 1331 
Q 1503 1009 1600 663 
Q 1675 925 1809 1294 
L 2547 3319 
L 3125 3319 
L 1869 0 
L 1344 0 
z
" transform="scale(0.015625)"/>
       <path id="ArialMT-73" d="M 197 991 
L 753 1078 
Q 800 744 1014 566 
Q 1228 388 1613 388 
Q 2000 388 2187 545 
Q 2375 703 2375 916 
Q 2375 1106 2209 1216 
Q 2094 1291 1634 1406 
Q 1016 1563 777 1677 
Q 538 1791 414 1992 
Q 291 2194 291 2438 
Q 291 2659 392 2848 
Q 494 3038 669 3163 
Q 800 3259 1026 3326 
Q 1253 3394 1513 3394 
Q 1903 3394 2198 3281 
Q 2494 3169 2634 2976 
Q 2775 2784 2828 2463 
L 2278 2388 
Q 2241 2644 2061 2787 
Q 1881 2931 1553 2931 
Q 1166 2931 1000 2803 
Q 834 2675 834 2503 
Q 834 2394 903 2306 
Q 972 2216 1119 2156 
Q 1203 2125 1616 2013 
Q 2213 1853 2448 1751 
Q 2684 1650 2818 1456 
Q 2953 1263 2953 975 
Q 2953 694 2789 445 
Q 2625 197 2315 61 
Q 2006 -75 1616 -75 
Q 969 -75 630 194 
Q 291 463 197 991 
z
" transform="scale(0.015625)"/>
      </defs>
      <use xlink:href="#ArialMT-57"/>
      <use xlink:href="#ArialMT-6f" x="92.634766"/>
      <use xlink:href="#ArialMT-6c" x="148.25"/>
      <use xlink:href="#ArialMT-76" x="170.466797"/>
      <use xlink:href="#ArialMT-65" x="220.466797"/>
      <use xlink:href="#ArialMT-73" x="276.082031"/>
     </g>
    </g>
   </g>
  </g>
 </g>
 <defs>
  <clipPath id="pf886ad4af2">
   <rect x="56.450156" y="7.2" width="443.52" height="443.52"/>
  </clipPath>
 </defs>
</svg>
