<?xml version="1.0" encoding="utf-8" standalone="no"?>
<!DOCTYPE svg PUBLIC "-//W3C//DTD SVG 1.1//EN"
  "http://www.w3.org/Graphics/SVG/1.1/DTD/svg11.dtd">
<svg xmlns:xlink="http://www.w3.org/1999/xlink" width="507.170156pt" height="492.454219pt" viewBox="0 0 507.170156 492.454219" xmlns="http://www.w3.org/2000/svg" version="1.1">
 <metadata>
  <rdf:RDF xmlns:dc="http://purl.org/dc/elements/1.1/" xmlns:cc="http://creativecommons.org/ns#" xmlns:rdf="http://www.w3.org/1999/02/22-rdf-syntax-ns#">
   <cc:Work>
    <dc:type rdf:resource="http://purl.org/dc/dcmitype/StillImage"/>
    <dc:date>2026-05-12T10:49:56.663618</dc:date>
    <dc:format>image/svg+xml</dc:format>
    <dc:creator>
     <cc:Agent>
      <dc:title>Matplotlib v3.7.1, https://matplotlib.org/</dc:title>
     </cc:Agent>
    </dc:creator>
   </cc:Work>
  </rdf:RDF>
 </metadata>
 <defs>
  <style type="text/css">*{stroke-linejoin: round; stroke-linecap: butt}</style>
 </defs>
 <g id="figure_1">
  <g id="patch_1">
   <path d="M 0 492.454219 
L 507.170156 492.454219 
L 507.170156 0 
L 0 0 
z
" style="fill: #ffffff"/>
  </g>
  <g id="axes_1">
   <g id="patch_2">
    <path d="M 56.450156 450.72 
L 499.970156 450.72 
L 499.970156 7.2 
L 56.450156 7.2 
z
" style="fill: #eaeaf2"/>
   </g>
   <g id="matplotlib.axis_1">
    <g id="xtick_1">
     <g id="line2d_1">
      <path d="M 100.802156 450.72 
L 100.802156 7.2 
" clip-path="url(#p7d7f4e1bd6)" style="fill: none; stroke: #ffffff; stroke-linecap: round"/>
     </g>
     <g id="text_1">
      <!-- −400 -->
      <g style="fill: #262626" transform="translate(88.414266 468.093594) scale(0.11 -0.11)">
       <defs>
        <path id="ArialMT-2212" d="M 3381 1997 
L 356 1997 
L 356 2522 
L 3381 2522 
L 3381 1997 
z
" transform="scale(0.015625)"/>
        <path id="ArialMT-34" d="M 2069 0 
L 2069 1097 
L 81 1097 
L 81 1613 
L 2172 4581 
L 2631 4581 
L 2631 1613 
L 3250 1613 
L 3250 1097 
L 2631 1097 
L 2631 0 
L 2069 0 
z
M 2069 1613 
L 2069 3678 
L 634 1613 
L 2069 1613 
z
" transform="scale(0.015625)"/>
        <path id="ArialMT-30" d="M 266 2259 
Q 266 3072 433 3567 
Q 600 4063 929 4331 
Q 1259 4600 1759 4600 
Q 2128 4600 2406 4451 
Q 2684 4303 2865 4023 
Q 3047 3744 3150 3342 
Q 3253 2941 3253 2259 
Q 3253 1453 3087 958 
Q 2922 463 2592 192 
Q 2263 -78 1759 -78 
Q 1097 -78 719 397 
Q 266 969 266 2259 
z
M 844 2259 
Q 844 1131 1108 757 
Q 1372 384 1759 384 
Q 2147 384 2411 759 
Q 2675 1134 2675 2259 
Q 2675 3391 2411 3762 
Q 2147 4134 1753 4134 
Q 1366 4134 1134 3806 
Q 844 3388 844 2259 
z
" transform="scale(0.015625)"/>
       </defs>
       <use xlink:href="#ArialMT-2212"/>
       <use xlink:href="#ArialMT-34" x="58.398438"/>
       <use xlink:href="#ArialMT-30" x="114.013672"/>
       <use xlink:href="#ArialMT-30" x="169.628906"/>
      </g>
     </g>
    </g>
    <g id="xtick_2">
     <g id="line2d_2">
      <path d="M 189.506156 450.72 
L 189.506156 7.2 
" clip-path="url(#p7d7f4e1bd6)" style="fill: none; stroke: #ffffff; stroke-linecap: round"/>
     </g>
     <g id="text_2">
      <!-- −200 -->
      <g style="fill: #262626" transform="translate(177.118266 468.093594) scale(0.11 -0.11)">
       <defs>
        <path id="ArialMT-32" d="M 3222 541 
L 3222 0 
L 194 0 
Q 188 203 259 391 
Q 375 700 629 1000 
Q 884 1300 1366 1694 
Q 2113 2306 2375 2664 
Q 2638 3022 2638 3341 
Q 2638 3675 2398 3904 
Q 2159 4134 1775 4134 
Q 1369 4134 1125 3890 
Q 881 3647 878 3216 
L 300 3275 
Q 359 3922 746 4261 
Q 1134 4600 1788 4600 
Q 2447 4600 2831 4234 
Q 3216 3869 3216 3328 
Q 3216 3053 3103 2787 
Q 2991 2522 2730 2228 
Q 2469 1934 1863 1422 
Q 1356 997 1212 845 
Q 1069 694 975 541 
L 3222 541 
z
" transform="scale(0.015625)"/>
       </defs>
       <use xlink:href="#ArialMT-2212"/>
       <use xlink:href="#ArialMT-32" x="58.398438"/>
       <use xlink:href="#ArialMT-30" x="114.013672"/>
       <use xlink:href="#ArialMT-30" x="169.628906"/>
      </g>
     </g>
    </g>
    <g id="xtick_3">
     <g id="line2d_3">
      <path d="M 278.210156 450.72 
L 278.210156 7.2 
" clip-path="url(#p7d7f4e1bd6)" style="fill: none; stroke: #ffffff; stroke-linecap: round"/>
     </g>
     <g id="text_3">
      <!-- 0 -->
      <g style="fill: #262626" transform="translate(275.151641 468.093594) scale(0.11 -0.11)">
       <use xlink:href="#ArialMT-30"/>
      </g>
     </g>
    </g>
    <g id="xtick_4">
     <g id="line2d_4">
      <path d="M 366.914156 450.72 
L 366.914156 7.2 
" clip-path="url(#p7d7f4e1bd6)" style="fill: none; stroke: #ffffff; stroke-linecap: round"/>
     </g>
     <g id="text_4">
      <!-- 200 -->
      <g style="fill: #262626" transform="translate(357.738609 468.093594) scale(0.11 -0.11)">
       <use xlink:href="#ArialMT-32"/>
       <use xlink:href="#ArialMT-30" x="55.615234"/>
       <use xlink:href="#ArialMT-30" x="111.230469"/>
      </g>
     </g>
    </g>
    <g id="xtick_5">
     <g id="line2d_5">
      <path d="M 455.618156 450.72 
L 455.618156 7.2 
" clip-path="url(#p7d7f4e1bd6)" style="fill: none; stroke: #ffffff; stroke-linecap: round"/>
     </g>
     <g id="text_5">
      <!-- 400 -->
      <g style="fill: #262626" transform="translate(446.442609 468.093594) scale(0.11 -0.11)">
       <use xlink:href="#ArialMT-34"/>
       <use xlink:href="#ArialMT-30" x="55.615234"/>
       <use xlink:href="#ArialMT-30" x="111.230469"/>
      </g>
     </g>
    </g>
    <g id="text_6">
     <!-- x -->
     <g style="fill: #262626" transform="translate(275.210156 482.869219) scale(0.12 -0.12)">
      <defs>
       <path id="ArialMT-78" d="M 47 0 
L 1259 1725 
L 138 3319 
L 841 3319 
L 1350 2541 
Q 1494 2319 1581 2169 
Q 1719 2375 1834 2534 
L 2394 3319 
L 3066 3319 
L 1919 1756 
L 3153 0 
L 2463 0 
L 1781 1031 
L 1600 1309 
L 728 0 
L 47 0 
z
" transform="scale(0.015625)"/>
      </defs>
      <use xlink:href="#ArialMT-78"/>
     </g>
    </g>
   </g>
   <g id="matplotlib.axis_2">
    <g id="ytick_1">
     <g id="line2d_6">
      <path d="M 56.450156 406.368 
L 499.970156 406.368 
" clip-path="url(#p7d7f4e1bd6)" style="fill: none; stroke: #ffffff; stroke-linecap: round"/>
     </g>
     <g id="text_7">
      <!-- −400 -->
      <g style="fill: #262626" transform="translate(22.174375 410.304797) scale(0.11 -0.11)">
       <use xlink:href="#ArialMT-2212"/>
       <use xlink:href="#ArialMT-34" x="58.398438"/>
       <use xlink:href="#ArialMT-30" x="114.013672"/>
       <use xlink:href="#ArialMT-30" x="169.628906"/>
      </g>
     </g>
    </g>
    <g id="ytick_2">
     <g id="line2d_7">
      <path d="M 56.450156 317.664 
L 499.970156 317.664 
" clip-path="url(#p7d7f4e1bd6)" style="fill: none; stroke: #ffffff; stroke-linecap: round"/>
     </g>
     <g id="text_8">
      <!-- −200 -->
      <g style="fill: #262626" transform="translate(22.174375 321.600797) scale(0.11 -0.11)">
       <use xlink:href="#ArialMT-2212"/>
       <use xlink:href="#ArialMT-32" x="58.398438"/>
       <use xlink:href="#ArialMT-30" x="114.013672"/>
       <use xlink:href="#ArialMT-30" x="169.628906"/>
      </g>
     </g>
    </g>
    <g id="ytick_3">
     <g id="line2d_8">
      <path d="M 56.450156 228.96 
L 499.970156 228.96 
" clip-path="url(#p7d7f4e1bd6)" style="fill: none; stroke: #ffffff; stroke-linecap: round"/>
     </g>
     <g id="text_9">
      <!-- 0 -->
      <g style="fill: #262626" transform="translate(40.833125 232.896797) scale(0.11 -0.11)">
       <use xlink:href="#ArialMT-30"/>
      </g>
     </g>
    </g>
    <g id="ytick_4">
     <g id="line2d_9">
      <path d="M 56.450156 140.256 
L 499.970156 140.256 
" clip-path="url(#p7d7f4e1bd6)" style="fill: none; stroke: #ffffff; stroke-linecap: round"/>
     </g>
     <g id="text_10">
      <!-- 200 -->
      <g style="fill: #262626" transform="translate(28.599063 144.192797) scale(0.11 -0.11)">
       <use xlink:href="#ArialMT-32"/>
       <use xlink:href="#ArialMT-30" x="55.615234"/>
       <use xlink:href="#ArialMT-30" x="111.230469"/>
      </g>
     </g>
    </g>
    <g id="ytick_5">
     <g id="line2d_10">
      <path d="M 56.450156 51.552 
L 499.970156 51.552 
" clip-path="url(#p7d7f4e1bd6)" style="fill: none; stroke: #ffffff; stroke-linecap: round"/>
     </g>
     <g id="text_11">
      <!-- 400 -->
      <g style="fill: #262626" transform="translate(28.599063 55.488797) scale(0.11 -0.11)">
       <use xlink:href="#ArialMT-34"/>
       <use xlink:href="#ArialMT-30" x="55.615234"/>
       <use xlink:href="#ArialMT-30" x="111.230469"/>
      </g>
     </g>
    </g>
    <g id="text_12">
     <!-- y -->
     <g style="fill: #262626" transform="translate(15.64875 231.96) rotate(-90) scale(0.12 -0.12)">
      <defs>
       <path id="ArialMT-79" d="M 397 -1278 
L 334 -750 
Q 519 -800 656 -800 
Q 844 -800 956 -737 
Q 1069 -675 1141 -563 
Q 1194 -478 1313 -144 
Q 1328 -97 1363 -6 
L 103 3319 
L 709 3319 
L 1400 1397 
Q 1534 1031 1641 628 
Q 1738 1016 1872 1384 
L 2581 3319 
L 3144 3319 
L 1881 -56 
Q 1678 -603 1566 -809 
Q 1416 -1088 1222 -1217 
Q 1028 -1347 759 -1347 
Q 597 -1347 397 -1278 
z
" transform="scale(0.015625)"/>
      </defs>
      <use xlink:href="#ArialMT-79"/>
     </g>
    </g>
   </g>
   <g id="patch_3">
    <path d="M 278.210156 317.664 
C 301.734732 317.664 324.298969 308.317587 340.933356 291.6832 
C 357.567743 275.048813 366.914156 252.484576 366.914156 228.96 
C 366.914156 205.435424 357.567743 182.871187 340.933356 166.2368 
C 324.298969 149.602413 301.734732 140.256 278.210156 140.256 
C 254.68558 140.256 232.121343 149.602413 215.486956 166.2368 
C 198.852569 182.871187 189.506156 205.435424 189.506156 228.96 
C 189.506156 252.484576 198.852569 275.048813 215.486956 291.6832 
C 232.121343 308.317587 254.68558 317.664 278.210156 317.664 
z
" clip-path="url(#p7d7f4e1bd6)" style="fill: #228b22; opacity: 0.12; stroke: #228b22; stroke-width: 1.5; stroke-linejoin: miter"/>
   </g>
   <g id="PathCollection_1">
    <defs>
     <path id="m078ae21fda" d="M 0 2.236068 
C 0.593012 2.236068 1.161816 2.000462 1.581139 1.581139 
C 2.000462 1.161816 2.236068 0.593012 2.236068 0 
C 2.236068 -0.593012 2.000462 -1.161816 1.581139 -1.581139 
C 1.161816 -2.000462 0.593012 -2.236068 0 -2.236068 
C -0.593012 -2.236068 -1.161816 -2.000462 -1.581139 -1.581139 
C -2.000462 -1.161816 -2.236068 -0.593012 -2.236068 0 
C -2.236068 0.593012 -2.000462 1.161816 -1.581139 1.581139 
C -1.161816 2.000462 -0.593012 2.236068 0 2.236068 
z
" style="stroke: #4169e1"/>
    </defs>
    <g clip-path="url(#p7d7f4e1bd6)">
     <use xlink:href="#m078ae21fda" x="285.884487" y="293.049222" style="fill: #4169e1; stroke: #4169e1"/>
     <use xlink:href="#m078ae21fda" x="341.453438" y="285.279518" style="fill: #4169e1; stroke: #4169e1"/>
     <use xlink:href="#m078ae21fda" x="292.243938" y="271.907633" style="fill: #4169e1; stroke: #4169e1"/>
     <use xlink:href="#m078ae21fda" x="230.929791" y="218.916171" style="fill: #4169e1; stroke: #4169e1"/>
     <use xlink:href="#m078ae21fda" x="202.268374" y="297.803405" style="fill: #4169e1; stroke: #4169e1"/>
     <use xlink:href="#m078ae21fda" x="345.937364" y="263.729698" style="fill: #4169e1; stroke: #4169e1"/>
     <use xlink:href="#m078ae21fda" x="334.624454" y="138.315762" style="fill: #4169e1; stroke: #4169e1"/>
     <use xlink:href="#m078ae21fda" x="373.36062" y="218.617242" style="fill: #4169e1; stroke: #4169e1"/>
     <use xlink:href="#m078ae21fda" x="412.785153" y="237.786874" style="fill: #4169e1; stroke: #4169e1"/>
     <use xlink:href="#m078ae21fda" x="216.411408" y="132.60352" style="fill: #4169e1; stroke: #4169e1"/>
     <use xlink:href="#m078ae21fda" x="245.369187" y="292.091427" style="fill: #4169e1; stroke: #4169e1"/>
     <use xlink:href="#m078ae21fda" x="329.10186" y="178.952998" style="fill: #4169e1; stroke: #4169e1"/>
     <use xlink:href="#m078ae21fda" x="315.172117" y="260.456556" style="fill: #4169e1; stroke: #4169e1"/>
     <use xlink:href="#m078ae21fda" x="296.789486" y="148.418491" style="fill: #4169e1; stroke: #4169e1"/>
     <use xlink:href="#m078ae21fda" x="204.25612" y="124.632173" style="fill: #4169e1; stroke: #4169e1"/>
     <use xlink:href="#m078ae21fda" x="318.466042" y="316.247417" style="fill: #4169e1; stroke: #4169e1"/>
     <use xlink:href="#m078ae21fda" x="428.707545" y="178.010687" style="fill: #4169e1; stroke: #4169e1"/>
     <use xlink:href="#m078ae21fda" x="315.209842" y="251.332375" style="fill: #4169e1; stroke: #4169e1"/>
     <use xlink:href="#m078ae21fda" x="342.504023" y="121.178847" style="fill: #4169e1; stroke: #4169e1"/>
     <use xlink:href="#m078ae21fda" x="287.106787" y="306.982894" style="fill: #4169e1; stroke: #4169e1"/>
     <use xlink:href="#m078ae21fda" x="345.553155" y="195.026602" style="fill: #4169e1; stroke: #4169e1"/>
     <use xlink:href="#m078ae21fda" x="404.641604" y="111.693139" style="fill: #4169e1; stroke: #4169e1"/>
     <use xlink:href="#m078ae21fda" x="319.121408" y="314.58526" style="fill: #4169e1; stroke: #4169e1"/>
     <use xlink:href="#m078ae21fda" x="462.546478" y="106.530411" style="fill: #4169e1; stroke: #4169e1"/>
     <use xlink:href="#m078ae21fda" x="238.207232" y="120.779682" style="fill: #4169e1; stroke: #4169e1"/>
     <use xlink:href="#m078ae21fda" x="465.660917" y="176.342209" style="fill: #4169e1; stroke: #4169e1"/>
     <use xlink:href="#m078ae21fda" x="261.337373" y="318.07107" style="fill: #4169e1; stroke: #4169e1"/>
     <use xlink:href="#m078ae21fda" x="233.16298" y="200.263323" style="fill: #4169e1; stroke: #4169e1"/>
     <use xlink:href="#m078ae21fda" x="328.753993" y="155.840149" style="fill: #4169e1; stroke: #4169e1"/>
     <use xlink:href="#m078ae21fda" x="301.713294" y="171.01356" style="fill: #4169e1; stroke: #4169e1"/>
     <use xlink:href="#m078ae21fda" x="374.048815" y="178.02628" style="fill: #4169e1; stroke: #4169e1"/>
     <use xlink:href="#m078ae21fda" x="301.96264" y="301.706051" style="fill: #4169e1; stroke: #4169e1"/>
     <use xlink:href="#m078ae21fda" x="309.084846" y="98.646372" style="fill: #4169e1; stroke: #4169e1"/>
     <use xlink:href="#m078ae21fda" x="328.201312" y="167.956882" style="fill: #4169e1; stroke: #4169e1"/>
     <use xlink:href="#m078ae21fda" x="283.163078" y="306.060967" style="fill: #4169e1; stroke: #4169e1"/>
     <use xlink:href="#m078ae21fda" x="428.419937" y="107.760905" style="fill: #4169e1; stroke: #4169e1"/>
     <use xlink:href="#m078ae21fda" x="206.866666" y="268.34296" style="fill: #4169e1; stroke: #4169e1"/>
     <use xlink:href="#m078ae21fda" x="242.694052" y="164.073747" style="fill: #4169e1; stroke: #4169e1"/>
     <use xlink:href="#m078ae21fda" x="346.267588" y="191.121845" style="fill: #4169e1; stroke: #4169e1"/>
     <use xlink:href="#m078ae21fda" x="223.353322" y="241.398952" style="fill: #4169e1; stroke: #4169e1"/>
     <use xlink:href="#m078ae21fda" x="191.207695" y="247.988963" style="fill: #4169e1; stroke: #4169e1"/>
     <use xlink:href="#m078ae21fda" x="256.093691" y="250.928264" style="fill: #4169e1; stroke: #4169e1"/>
     <use xlink:href="#m078ae21fda" x="293.145108" y="220.289138" style="fill: #4169e1; stroke: #4169e1"/>
     <use xlink:href="#m078ae21fda" x="283.334322" y="313.6187" style="fill: #4169e1; stroke: #4169e1"/>
     <use xlink:href="#m078ae21fda" x="469.640578" y="202.662525" style="fill: #4169e1; stroke: #4169e1"/>
     <use xlink:href="#m078ae21fda" x="401.687719" y="188.579597" style="fill: #4169e1; stroke: #4169e1"/>
     <use xlink:href="#m078ae21fda" x="224.06383" y="239.235358" style="fill: #4169e1; stroke: #4169e1"/>
     <use xlink:href="#m078ae21fda" x="452.773148" y="133.167294" style="fill: #4169e1; stroke: #4169e1"/>
     <use xlink:href="#m078ae21fda" x="363.570079" y="93.57039" style="fill: #4169e1; stroke: #4169e1"/>
     <use xlink:href="#m078ae21fda" x="272.218184" y="281.529342" style="fill: #4169e1; stroke: #4169e1"/>
     <use xlink:href="#m078ae21fda" x="396.411024" y="263.276071" style="fill: #4169e1; stroke: #4169e1"/>
     <use xlink:href="#m078ae21fda" x="297.339183" y="293.439826" style="fill: #4169e1; stroke: #4169e1"/>
     <use xlink:href="#m078ae21fda" x="236.427745" y="116.815038" style="fill: #4169e1; stroke: #4169e1"/>
     <use xlink:href="#m078ae21fda" x="411.45305" y="155.664138" style="fill: #4169e1; stroke: #4169e1"/>
     <use xlink:href="#m078ae21fda" x="358.25278" y="269.128777" style="fill: #4169e1; stroke: #4169e1"/>
     <use xlink:href="#m078ae21fda" x="361.341834" y="187.665213" style="fill: #4169e1; stroke: #4169e1"/>
     <use xlink:href="#m078ae21fda" x="309.918222" y="273.961481" style="fill: #4169e1; stroke: #4169e1"/>
     <use xlink:href="#m078ae21fda" x="277.032696" y="280.546565" style="fill: #4169e1; stroke: #4169e1"/>
     <use xlink:href="#m078ae21fda" x="317.459081" y="198.82212" style="fill: #4169e1; stroke: #4169e1"/>
     <use xlink:href="#m078ae21fda" x="347.734129" y="187.1095" style="fill: #4169e1; stroke: #4169e1"/>
     <use xlink:href="#m078ae21fda" x="303.728374" y="199.723047" style="fill: #4169e1; stroke: #4169e1"/>
     <use xlink:href="#m078ae21fda" x="328.401294" y="279.059081" style="fill: #4169e1; stroke: #4169e1"/>
     <use xlink:href="#m078ae21fda" x="382.677172" y="234.617732" style="fill: #4169e1; stroke: #4169e1"/>
     <use xlink:href="#m078ae21fda" x="344.701442" y="102.21566" style="fill: #4169e1; stroke: #4169e1"/>
     <use xlink:href="#m078ae21fda" x="288.161772" y="252.403451" style="fill: #4169e1; stroke: #4169e1"/>
     <use xlink:href="#m078ae21fda" x="377.232392" y="319.333108" style="fill: #4169e1; stroke: #4169e1"/>
     <use xlink:href="#m078ae21fda" x="270.014543" y="314.855151" style="fill: #4169e1; stroke: #4169e1"/>
     <use xlink:href="#m078ae21fda" x="240.007499" y="286.842507" style="fill: #4169e1; stroke: #4169e1"/>
     <use xlink:href="#m078ae21fda" x="419.605734" y="160.412027" style="fill: #4169e1; stroke: #4169e1"/>
     <use xlink:href="#m078ae21fda" x="309.402113" y="219.16106" style="fill: #4169e1; stroke: #4169e1"/>
     <use xlink:href="#m078ae21fda" x="367.723951" y="204.54715" style="fill: #4169e1; stroke: #4169e1"/>
     <use xlink:href="#m078ae21fda" x="349.228526" y="111.555906" style="fill: #4169e1; stroke: #4169e1"/>
     <use xlink:href="#m078ae21fda" x="348.279643" y="196.409939" style="fill: #4169e1; stroke: #4169e1"/>
     <use xlink:href="#m078ae21fda" x="256.788528" y="157.449039" style="fill: #4169e1; stroke: #4169e1"/>
     <use xlink:href="#m078ae21fda" x="409.705025" y="171.616287" style="fill: #4169e1; stroke: #4169e1"/>
     <use xlink:href="#m078ae21fda" x="255.231638" y="120.556419" style="fill: #4169e1; stroke: #4169e1"/>
     <use xlink:href="#m078ae21fda" x="299.533468" y="343.036611" style="fill: #4169e1; stroke: #4169e1"/>
     <use xlink:href="#m078ae21fda" x="385.910065" y="158.311655" style="fill: #4169e1; stroke: #4169e1"/>
     <use xlink:href="#m078ae21fda" x="213.808753" y="178.892841" style="fill: #4169e1; stroke: #4169e1"/>
     <use xlink:href="#m078ae21fda" x="454.047158" y="200.21369" style="fill: #4169e1; stroke: #4169e1"/>
     <use xlink:href="#m078ae21fda" x="180.910561" y="167.606768" style="fill: #4169e1; stroke: #4169e1"/>
     <use xlink:href="#m078ae21fda" x="333.658044" y="320.859982" style="fill: #4169e1; stroke: #4169e1"/>
     <use xlink:href="#m078ae21fda" x="392.094257" y="184.722095" style="fill: #4169e1; stroke: #4169e1"/>
     <use xlink:href="#m078ae21fda" x="468.542484" y="146.692603" style="fill: #4169e1; stroke: #4169e1"/>
     <use xlink:href="#m078ae21fda" x="301.756545" y="215.124693" style="fill: #4169e1; stroke: #4169e1"/>
     <use xlink:href="#m078ae21fda" x="329.389858" y="116.152201" style="fill: #4169e1; stroke: #4169e1"/>
     <use xlink:href="#m078ae21fda" x="292.660039" y="256.746153" style="fill: #4169e1; stroke: #4169e1"/>
     <use xlink:href="#m078ae21fda" x="329.993729" y="258.910323" style="fill: #4169e1; stroke: #4169e1"/>
     <use xlink:href="#m078ae21fda" x="412.495758" y="206.241208" style="fill: #4169e1; stroke: #4169e1"/>
     <use xlink:href="#m078ae21fda" x="372.495933" y="109.204037" style="fill: #4169e1; stroke: #4169e1"/>
     <use xlink:href="#m078ae21fda" x="308.353413" y="218.872" style="fill: #4169e1; stroke: #4169e1"/>
     <use xlink:href="#m078ae21fda" x="430.90311" y="214.64128" style="fill: #4169e1; stroke: #4169e1"/>
     <use xlink:href="#m078ae21fda" x="393.843581" y="101.531959" style="fill: #4169e1; stroke: #4169e1"/>
     <use xlink:href="#m078ae21fda" x="296.237511" y="343.518057" style="fill: #4169e1; stroke: #4169e1"/>
     <use xlink:href="#m078ae21fda" x="450.138232" y="170.188213" style="fill: #4169e1; stroke: #4169e1"/>
     <use xlink:href="#m078ae21fda" x="382.092623" y="210.266709" style="fill: #4169e1; stroke: #4169e1"/>
     <use xlink:href="#m078ae21fda" x="262.859932" y="212.75388" style="fill: #4169e1; stroke: #4169e1"/>
     <use xlink:href="#m078ae21fda" x="332.608907" y="285.189076" style="fill: #4169e1; stroke: #4169e1"/>
     <use xlink:href="#m078ae21fda" x="305.564086" y="292.843" style="fill: #4169e1; stroke: #4169e1"/>
     <use xlink:href="#m078ae21fda" x="314.590981" y="273.115876" style="fill: #4169e1; stroke: #4169e1"/>
     <use xlink:href="#m078ae21fda" x="277.731195" y="186.951829" style="fill: #4169e1; stroke: #4169e1"/>
     <use xlink:href="#m078ae21fda" x="385.931538" y="124.633831" style="fill: #4169e1; stroke: #4169e1"/>
     <use xlink:href="#m078ae21fda" x="238.520886" y="250.502626" style="fill: #4169e1; stroke: #4169e1"/>
     <use xlink:href="#m078ae21fda" x="300.697475" y="92.7095" style="fill: #4169e1; stroke: #4169e1"/>
     <use xlink:href="#m078ae21fda" x="327.965932" y="263.059004" style="fill: #4169e1; stroke: #4169e1"/>
     <use xlink:href="#m078ae21fda" x="244.011171" y="121.39053" style="fill: #4169e1; stroke: #4169e1"/>
     <use xlink:href="#m078ae21fda" x="310.433956" y="203.167782" style="fill: #4169e1; stroke: #4169e1"/>
     <use xlink:href="#m078ae21fda" x="254.505727" y="259.131376" style="fill: #4169e1; stroke: #4169e1"/>
     <use xlink:href="#m078ae21fda" x="282.676386" y="291.630555" style="fill: #4169e1; stroke: #4169e1"/>
     <use xlink:href="#m078ae21fda" x="291.968444" y="246.016413" style="fill: #4169e1; stroke: #4169e1"/>
     <use xlink:href="#m078ae21fda" x="379.847458" y="81.5468" style="fill: #4169e1; stroke: #4169e1"/>
     <use xlink:href="#m078ae21fda" x="296.271377" y="135.700195" style="fill: #4169e1; stroke: #4169e1"/>
     <use xlink:href="#m078ae21fda" x="218.002282" y="306.759807" style="fill: #4169e1; stroke: #4169e1"/>
     <use xlink:href="#m078ae21fda" x="250.591052" y="168.532478" style="fill: #4169e1; stroke: #4169e1"/>
     <use xlink:href="#m078ae21fda" x="366.777783" y="223.277342" style="fill: #4169e1; stroke: #4169e1"/>
     <use xlink:href="#m078ae21fda" x="327.887865" y="188.317689" style="fill: #4169e1; stroke: #4169e1"/>
     <use xlink:href="#m078ae21fda" x="250.084313" y="130.581923" style="fill: #4169e1; stroke: #4169e1"/>
     <use xlink:href="#m078ae21fda" x="271.319059" y="255.402302" style="fill: #4169e1; stroke: #4169e1"/>
     <use xlink:href="#m078ae21fda" x="402.469509" y="218.596974" style="fill: #4169e1; stroke: #4169e1"/>
     <use xlink:href="#m078ae21fda" x="171.387238" y="259.415455" style="fill: #4169e1; stroke: #4169e1"/>
     <use xlink:href="#m078ae21fda" x="268.070789" y="177.200761" style="fill: #4169e1; stroke: #4169e1"/>
     <use xlink:href="#m078ae21fda" x="309.340535" y="172.798363" style="fill: #4169e1; stroke: #4169e1"/>
     <use xlink:href="#m078ae21fda" x="266.181383" y="175.303859" style="fill: #4169e1; stroke: #4169e1"/>
     <use xlink:href="#m078ae21fda" x="430.721008" y="198.873287" style="fill: #4169e1; stroke: #4169e1"/>
     <use xlink:href="#m078ae21fda" x="409.209746" y="201.266583" style="fill: #4169e1; stroke: #4169e1"/>
     <use xlink:href="#m078ae21fda" x="283.2641" y="308.888481" style="fill: #4169e1; stroke: #4169e1"/>
     <use xlink:href="#m078ae21fda" x="299.21722" y="249.929559" style="fill: #4169e1; stroke: #4169e1"/>
     <use xlink:href="#m078ae21fda" x="276.388219" y="297.282606" style="fill: #4169e1; stroke: #4169e1"/>
     <use xlink:href="#m078ae21fda" x="191.539367" y="247.243578" style="fill: #4169e1; stroke: #4169e1"/>
     <use xlink:href="#m078ae21fda" x="256.502836" y="145.410688" style="fill: #4169e1; stroke: #4169e1"/>
     <use xlink:href="#m078ae21fda" x="308.487922" y="108.296221" style="fill: #4169e1; stroke: #4169e1"/>
     <use xlink:href="#m078ae21fda" x="219.477892" y="248.631852" style="fill: #4169e1; stroke: #4169e1"/>
     <use xlink:href="#m078ae21fda" x="334.753471" y="208.818826" style="fill: #4169e1; stroke: #4169e1"/>
     <use xlink:href="#m078ae21fda" x="269.604886" y="80.000435" style="fill: #4169e1; stroke: #4169e1"/>
     <use xlink:href="#m078ae21fda" x="310.051577" y="158.609137" style="fill: #4169e1; stroke: #4169e1"/>
     <use xlink:href="#m078ae21fda" x="238.445024" y="209.212938" style="fill: #4169e1; stroke: #4169e1"/>
     <use xlink:href="#m078ae21fda" x="445.6683" y="176.905829" style="fill: #4169e1; stroke: #4169e1"/>
     <use xlink:href="#m078ae21fda" x="225.075014" y="324.492182" style="fill: #4169e1; stroke: #4169e1"/>
     <use xlink:href="#m078ae21fda" x="241.894388" y="110.689507" style="fill: #4169e1; stroke: #4169e1"/>
     <use xlink:href="#m078ae21fda" x="322.338549" y="262.800753" style="fill: #4169e1; stroke: #4169e1"/>
     <use xlink:href="#m078ae21fda" x="356.36026" y="124.935936" style="fill: #4169e1; stroke: #4169e1"/>
    </g>
   </g>
   <g id="PathCollection_2">
    <defs>
     <path id="maa434819a6" d="M 0 2.5 
C 0.663008 2.5 1.29895 2.236584 1.767767 1.767767 
C 2.236584 1.29895 2.5 0.663008 2.5 0 
C 2.5 -0.663008 2.236584 -1.29895 1.767767 -1.767767 
C 1.29895 -2.236584 0.663008 -2.5 0 -2.5 
C -0.663008 -2.5 -1.29895 -2.236584 -1.767767 -1.767767 
C -2.236584 -1.29895 -2.5 -0.663008 -2.5 0 
C -2.5 0.663008 -2.236584 1.29895 -1.767767 1.767767 
C -1.29895 2.236584 -0.663008 2.5 0 2.5 
z
" style="stroke: #b22222"/>
    </defs>
    <g clip-path="url(#p7d7f4e1bd6)">
     <use xlink:href="#maa434819a6" x="327.536861" y="189.725839" style="fill: #b22222; stroke: #b22222"/>
     <use xlink:href="#maa434819a6" x="189.957039" y="157.206198" style="fill: #b22222; stroke: #b22222"/>
     <use xlink:href="#maa434819a6" x="338.362455" y="192.627851" style="fill: #b22222; stroke: #b22222"/>
     <use xlink:href="#maa434819a6" x="158.932634" y="184.656013" style="fill: #b22222; stroke: #b22222"/>
     <use xlink:href="#maa434819a6" x="346.885279" y="201.877176" style="fill: #b22222; stroke: #b22222"/>
     <use xlink:href="#maa434819a6" x="351.904981" y="212.731909" style="fill: #b22222; stroke: #b22222"/>
     <use xlink:href="#maa434819a6" x="157.284296" y="175.410262" style="fill: #b22222; stroke: #b22222"/>
     <use xlink:href="#maa434819a6" x="169.709495" y="182.769016" style="fill: #b22222; stroke: #b22222"/>
     <use xlink:href="#maa434819a6" x="312.896925" y="188.506487" style="fill: #b22222; stroke: #b22222"/>
     <use xlink:href="#maa434819a6" x="350.81733" y="206.078757" style="fill: #b22222; stroke: #b22222"/>
     <use xlink:href="#maa434819a6" x="176.619124" y="166.459744" style="fill: #b22222; stroke: #b22222"/>
     <use xlink:href="#maa434819a6" x="337.236648" y="196.154784" style="fill: #b22222; stroke: #b22222"/>
     <use xlink:href="#maa434819a6" x="288.805795" y="231.842618" style="fill: #b22222; stroke: #b22222"/>
     <use xlink:href="#maa434819a6" x="171.585887" y="185.008411" style="fill: #b22222; stroke: #b22222"/>
     <use xlink:href="#maa434819a6" x="332.845884" y="200.074914" style="fill: #b22222; stroke: #b22222"/>
     <use xlink:href="#maa434819a6" x="318.432797" y="207.220488" style="fill: #b22222; stroke: #b22222"/>
     <use xlink:href="#maa434819a6" x="208.280162" y="194.102063" style="fill: #b22222; stroke: #b22222"/>
     <use xlink:href="#maa434819a6" x="220.204689" y="204.977398" style="fill: #b22222; stroke: #b22222"/>
     <use xlink:href="#maa434819a6" x="305.666798" y="181.482272" style="fill: #b22222; stroke: #b22222"/>
     <use xlink:href="#maa434819a6" x="324.466299" y="193.273576" style="fill: #b22222; stroke: #b22222"/>
     <use xlink:href="#maa434819a6" x="163.042002" y="190.780502" style="fill: #b22222; stroke: #b22222"/>
     <use xlink:href="#maa434819a6" x="345.535729" y="216.540795" style="fill: #b22222; stroke: #b22222"/>
     <use xlink:href="#maa434819a6" x="333.603135" y="199.320833" style="fill: #b22222; stroke: #b22222"/>
     <use xlink:href="#maa434819a6" x="309.529334" y="197.714714" style="fill: #b22222; stroke: #b22222"/>
     <use xlink:href="#maa434819a6" x="335.117137" y="192.358014" style="fill: #b22222; stroke: #b22222"/>
     <use xlink:href="#maa434819a6" x="339.845448" y="190.070688" style="fill: #b22222; stroke: #b22222"/>
     <use xlink:href="#maa434819a6" x="152.362141" y="192.699208" style="fill: #b22222; stroke: #b22222"/>
     <use xlink:href="#maa434819a6" x="332.974715" y="196.273041" style="fill: #b22222; stroke: #b22222"/>
     <use xlink:href="#maa434819a6" x="348.409141" y="206.122287" style="fill: #b22222; stroke: #b22222"/>
     <use xlink:href="#maa434819a6" x="326.990555" y="193.303871" style="fill: #b22222; stroke: #b22222"/>
     <use xlink:href="#maa434819a6" x="162.553654" y="181.045648" style="fill: #b22222; stroke: #b22222"/>
     <use xlink:href="#maa434819a6" x="333.335708" y="204.179569" style="fill: #b22222; stroke: #b22222"/>
     <use xlink:href="#maa434819a6" x="193.378998" y="175.081277" style="fill: #b22222; stroke: #b22222"/>
     <use xlink:href="#maa434819a6" x="327.62848" y="189.128076" style="fill: #b22222; stroke: #b22222"/>
     <use xlink:href="#maa434819a6" x="311.232473" y="181.26217" style="fill: #b22222; stroke: #b22222"/>
     <use xlink:href="#maa434819a6" x="200.092577" y="183.858711" style="fill: #b22222; stroke: #b22222"/>
     <use xlink:href="#maa434819a6" x="186.646672" y="176.93716" style="fill: #b22222; stroke: #b22222"/>
     <use xlink:href="#maa434819a6" x="318.334322" y="196.897627" style="fill: #b22222; stroke: #b22222"/>
     <use xlink:href="#maa434819a6" x="206.873339" y="193.4348" style="fill: #b22222; stroke: #b22222"/>
     <use xlink:href="#maa434819a6" x="179.614102" y="172.999086" style="fill: #b22222; stroke: #b22222"/>
     <use xlink:href="#maa434819a6" x="299.978591" y="200.358229" style="fill: #b22222; stroke: #b22222"/>
     <use xlink:href="#maa434819a6" x="195.779721" y="178.894997" style="fill: #b22222; stroke: #b22222"/>
     <use xlink:href="#maa434819a6" x="185.361224" y="175.37478" style="fill: #b22222; stroke: #b22222"/>
     <use xlink:href="#maa434819a6" x="173.006144" y="178.478412" style="fill: #b22222; stroke: #b22222"/>
     <use xlink:href="#maa434819a6" x="173.510661" y="173.163694" style="fill: #b22222; stroke: #b22222"/>
     <use xlink:href="#maa434819a6" x="153.012668" y="188.138395" style="fill: #b22222; stroke: #b22222"/>
     <use xlink:href="#maa434819a6" x="187.180803" y="177.640237" style="fill: #b22222; stroke: #b22222"/>
     <use xlink:href="#maa434819a6" x="196.058986" y="182.746892" style="fill: #b22222; stroke: #b22222"/>
     <use xlink:href="#maa434819a6" x="314.436437" y="184.615032" style="fill: #b22222; stroke: #b22222"/>
     <use xlink:href="#maa434819a6" x="160.218149" y="178.497581" style="fill: #b22222; stroke: #b22222"/>
     <use xlink:href="#maa434819a6" x="314.524906" y="187.052151" style="fill: #b22222; stroke: #b22222"/>
     <use xlink:href="#maa434819a6" x="153.463077" y="187.702614" style="fill: #b22222; stroke: #b22222"/>
     <use xlink:href="#maa434819a6" x="191.980843" y="186.225356" style="fill: #b22222; stroke: #b22222"/>
     <use xlink:href="#maa434819a6" x="310.266106" y="185.849133" style="fill: #b22222; stroke: #b22222"/>
     <use xlink:href="#maa434819a6" x="208.925857" y="193.820058" style="fill: #b22222; stroke: #b22222"/>
     <use xlink:href="#maa434819a6" x="205.500048" y="192.703719" style="fill: #b22222; stroke: #b22222"/>
     <use xlink:href="#maa434819a6" x="176.532885" y="175.644729" style="fill: #b22222; stroke: #b22222"/>
     <use xlink:href="#maa434819a6" x="149.494556" y="192.592571" style="fill: #b22222; stroke: #b22222"/>
     <use xlink:href="#maa434819a6" x="191.229811" y="175.993733" style="fill: #b22222; stroke: #b22222"/>
     <use xlink:href="#maa434819a6" x="183.955037" y="169.295096" style="fill: #b22222; stroke: #b22222"/>
     <use xlink:href="#maa434819a6" x="332.146231" y="207.655038" style="fill: #b22222; stroke: #b22222"/>
     <use xlink:href="#maa434819a6" x="149.23816" y="183.682557" style="fill: #b22222; stroke: #b22222"/>
     <use xlink:href="#maa434819a6" x="201.413067" y="192.202055" style="fill: #b22222; stroke: #b22222"/>
     <use xlink:href="#maa434819a6" x="154.015691" y="186.529518" style="fill: #b22222; stroke: #b22222"/>
     <use xlink:href="#maa434819a6" x="338.752057" y="201.096362" style="fill: #b22222; stroke: #b22222"/>
     <use xlink:href="#maa434819a6" x="167.456534" y="144.535525" style="fill: #b22222; stroke: #b22222"/>
     <use xlink:href="#maa434819a6" x="187.791293" y="179.583002" style="fill: #b22222; stroke: #b22222"/>
     <use xlink:href="#maa434819a6" x="327.431571" y="223.202724" style="fill: #b22222; stroke: #b22222"/>
     <use xlink:href="#maa434819a6" x="194.937591" y="188.667393" style="fill: #b22222; stroke: #b22222"/>
     <use xlink:href="#maa434819a6" x="169.7036" y="178.812879" style="fill: #b22222; stroke: #b22222"/>
     <use xlink:href="#maa434819a6" x="314.829521" y="180.676521" style="fill: #b22222; stroke: #b22222"/>
     <use xlink:href="#maa434819a6" x="316.729211" y="202.802766" style="fill: #b22222; stroke: #b22222"/>
     <use xlink:href="#maa434819a6" x="203.759353" y="186.509693" style="fill: #b22222; stroke: #b22222"/>
     <use xlink:href="#maa434819a6" x="154.687982" y="185.322111" style="fill: #b22222; stroke: #b22222"/>
     <use xlink:href="#maa434819a6" x="158.638921" y="188.244605" style="fill: #b22222; stroke: #b22222"/>
     <use xlink:href="#maa434819a6" x="156.981636" y="196.095785" style="fill: #b22222; stroke: #b22222"/>
     <use xlink:href="#maa434819a6" x="371.807007" y="187.549633" style="fill: #b22222; stroke: #b22222"/>
     <use xlink:href="#maa434819a6" x="171.20002" y="170.698631" style="fill: #b22222; stroke: #b22222"/>
     <use xlink:href="#maa434819a6" x="158.154403" y="188.818892" style="fill: #b22222; stroke: #b22222"/>
     <use xlink:href="#maa434819a6" x="335.725664" y="198.429628" style="fill: #b22222; stroke: #b22222"/>
     <use xlink:href="#maa434819a6" x="167.523892" y="176.586904" style="fill: #b22222; stroke: #b22222"/>
     <use xlink:href="#maa434819a6" x="285.773289" y="206.167172" style="fill: #b22222; stroke: #b22222"/>
     <use xlink:href="#maa434819a6" x="159.341301" y="184.352098" style="fill: #b22222; stroke: #b22222"/>
     <use xlink:href="#maa434819a6" x="281.792318" y="221.817875" style="fill: #b22222; stroke: #b22222"/>
     <use xlink:href="#maa434819a6" x="157.976402" y="193.908446" style="fill: #b22222; stroke: #b22222"/>
     <use xlink:href="#maa434819a6" x="206.888031" y="187.815673" style="fill: #b22222; stroke: #b22222"/>
     <use xlink:href="#maa434819a6" x="201.606491" y="200.262444" style="fill: #b22222; stroke: #b22222"/>
     <use xlink:href="#maa434819a6" x="194.010643" y="173.292224" style="fill: #b22222; stroke: #b22222"/>
     <use xlink:href="#maa434819a6" x="148.840754" y="177.884398" style="fill: #b22222; stroke: #b22222"/>
     <use xlink:href="#maa434819a6" x="349.290158" y="194.543488" style="fill: #b22222; stroke: #b22222"/>
     <use xlink:href="#maa434819a6" x="204.377814" y="196.52806" style="fill: #b22222; stroke: #b22222"/>
     <use xlink:href="#maa434819a6" x="159.555224" y="165.965867" style="fill: #b22222; stroke: #b22222"/>
    </g>
   </g>
   <g id="patch_4">
    <path d="M 56.450156 450.72 
L 56.450156 7.2 
" style="fill: none; stroke: #ffffff; stroke-width: 1.25; stroke-linejoin: miter; stroke-linecap: square"/>
   </g>
   <g id="patch_5">
    <path d="M 499.970156 450.72 
L 499.970156 7.2 
" style="fill: none; stroke: #ffffff; stroke-width: 1.25; stroke-linejoin: miter; stroke-linecap: square"/>
   </g>
   <g id="patch_6">
    <path d="M 56.450156 450.72 
L 499.970156 450.72 
" style="fill: none; stroke: #ffffff; stroke-width: 1.25; stroke-linejoin: miter; stroke-linecap: square"/>
   </g>
   <g id="patch_7">
    <path d="M 56.450156 7.2 
L 499.970156 7.2 
" style="fill: none; stroke: #ffffff; stroke-width: 1.25; stroke-linejoin: miter; stroke-linecap: square"/>
   </g>
   <g id="text_13">
    <!-- t = 1800 -->
    <g style="fill: #262626" transform="translate(65.320556 24.659775) scale(0.12 -0.12)">
     <defs>
      <path id="ArialMT-74" d="M 1650 503 
L 1731 6 
Q 1494 -44 1306 -44 
Q 1000 -44 831 53 
Q 663 150 594 308 
Q 525 466 525 972 
L 525 2881 
L 113 2881 
L 113 3319 
L 525 3319 
L 525 4141 
L 1084 4478 
L 1084 3319 
L 1650 3319 
L 1650 2881 
L 1084 2881 
L 1084 941 
Q 1084 700 1114 631 
Q 1144 563 1211 522 
Q 1278 481 1403 481 
Q 1497 481 1650 503 
z
" transform="scale(0.015625)"/>
      <path id="ArialMT-20" transform="scale(0.015625)"/>
      <path id="ArialMT-3d" d="M 3381 2694 
L 356 2694 
L 356 3219 
L 3381 3219 
L 3381 2694 
z
M 3381 1303 
L 356 1303 
L 356 1828 
L 3381 1828 
L 3381 1303 
z
" transform="scale(0.015625)"/>
      <path id="ArialMT-31" d="M 2384 0 
L 1822 0 
L 1822 3584 
Q 1619 3391 1289 3197 
Q 959 3003 697 2906 
L 697 3450 
Q 1169 3672 1522 3987 
Q 1875 4303 2022 4600 
L 2384 4600 
L 2384 0 
z
" transform="scale(0.015625)"/>
      <path id="ArialMT-38" d="M 1131 2484 
Q 781 2613 612 2850 
Q 444 3088 444 3419 
Q 444 3919 803 4259 
Q 1163 4600 1759 4600 
Q 2359 4600 2725 4251 
Q 3091 3903 3091 3403 
Q 3091 3084 2923 2848 
Q 2756 2613 2416 2484 
Q 2838 2347 3058 2040 
Q 3278 1734 3278 1309 
Q 3278 722 2862 322 
Q 2447 -78 1769 -78 
Q 1091 -78 675 323 
Q 259 725 259 1325 
Q 259 1772 486 2073 
Q 713 2375 1131 2484 
z
M 1019 3438 
Q 1019 3113 1228 2906 
Q 1438 2700 1772 2700 
Q 2097 2700 2305 2904 
Q 2513 3109 2513 3406 
Q 2513 3716 2298 3927 
Q 2084 4138 1766 4138 
Q 1444 4138 1231 3931 
Q 1019 3725 1019 3438 
z
M 838 1322 
Q 838 1081 952 856 
Q 1066 631 1291 507 
Q 1516 384 1775 384 
Q 2178 384 2440 643 
Q 2703 903 2703 1303 
Q 2703 1709 2433 1975 
Q 2163 2241 1756 2241 
Q 1359 2241 1098 1978 
Q 838 1716 838 1322 
z
" transform="scale(0.015625)"/>
     </defs>
     <use xlink:href="#ArialMT-74"/>
     <use xlink:href="#ArialMT-20" x="27.783203"/>
     <use xlink:href="#ArialMT-3d" x="55.566406"/>
     <use xlink:href="#ArialMT-20" x="113.964844"/>
     <use xlink:href="#ArialMT-31" x="141.748047"/>
     <use xlink:href="#ArialMT-38" x="197.363281"/>
     <use xlink:href="#ArialMT-30" x="252.978516"/>
     <use xlink:href="#ArialMT-30" x="308.59375"/>
    </g>
   </g>
   <g id="legend_1">
    <g id="patch_8">
     <path d="M 328.111406 94.59 
L 483.170156 94.59 
Q 487.970156 94.59 487.970156 89.79 
L 487.970156 24 
Q 487.970156 19.2 483.170156 19.2 
L 328.111406 19.2 
Q 323.311406 19.2 323.311406 24 
L 323.311406 89.79 
Q 323.311406 94.59 328.111406 94.59 
z
" style="fill: #eaeaf2; opacity: 0.8; stroke: #cccccc; stroke-linejoin: miter"/>
    </g>
    <g id="PathCollection_3">
     <g>
      <use xlink:href="#m078ae21fda" x="356.911406" y="39.97125" style="fill: #4169e1; stroke: #4169e1"/>
     </g>
    </g>
    <g id="text_14">
     <!-- Sheep -->
     <g style="fill: #262626" transform="translate(400.111406 46.27125) scale(0.24 -0.24)">
      <defs>
       <path id="ArialMT-53" d="M 288 1472 
L 859 1522 
Q 900 1178 1048 958 
Q 1197 738 1509 602 
Q 1822 466 2213 466 
Q 2559 466 2825 569 
Q 3091 672 3220 851 
Q 3350 1031 3350 1244 
Q 3350 1459 3225 1620 
Q 3100 1781 2813 1891 
Q 2628 1963 1997 2114 
Q 1366 2266 1113 2400 
Q 784 2572 623 2826 
Q 463 3081 463 3397 
Q 463 3744 659 4045 
Q 856 4347 1234 4503 
Q 1613 4659 2075 4659 
Q 2584 4659 2973 4495 
Q 3363 4331 3572 4012 
Q 3781 3694 3797 3291 
L 3216 3247 
Q 3169 3681 2898 3903 
Q 2628 4125 2100 4125 
Q 1550 4125 1298 3923 
Q 1047 3722 1047 3438 
Q 1047 3191 1225 3031 
Q 1400 2872 2139 2705 
Q 2878 2538 3153 2413 
Q 3553 2228 3743 1945 
Q 3934 1663 3934 1294 
Q 3934 928 3725 604 
Q 3516 281 3123 101 
Q 2731 -78 2241 -78 
Q 1619 -78 1198 103 
Q 778 284 539 648 
Q 300 1013 288 1472 
z
" transform="scale(0.015625)"/>
       <path id="ArialMT-68" d="M 422 0 
L 422 4581 
L 984 4581 
L 984 2938 
Q 1378 3394 1978 3394 
Q 2347 3394 2619 3248 
Q 2891 3103 3008 2847 
Q 3125 2591 3125 2103 
L 3125 0 
L 2563 0 
L 2563 2103 
Q 2563 2525 2380 2717 
Q 2197 2909 1863 2909 
Q 1613 2909 1392 2779 
Q 1172 2650 1078 2428 
Q 984 2206 984 1816 
L 984 0 
L 422 0 
z
" transform="scale(0.015625)"/>
       <path id="ArialMT-65" d="M 2694 1069 
L 3275 997 
Q 3138 488 2766 206 
Q 2394 -75 1816 -75 
Q 1088 -75 661 373 
Q 234 822 234 1631 
Q 234 2469 665 2931 
Q 1097 3394 1784 3394 
Q 2450 3394 2872 2941 
Q 3294 2488 3294 1666 
Q 3294 1616 3291 1516 
L 816 1516 
Q 847 969 1125 678 
Q 1403 388 1819 388 
Q 2128 388 2347 550 
Q 2566 713 2694 1069 
z
M 847 1978 
L 2700 1978 
Q 2663 2397 2488 2606 
Q 2219 2931 1791 2931 
Q 1403 2931 1139 2672 
Q 875 2413 847 1978 
z
" transform="scale(0.015625)"/>
       <path id="ArialMT-70" d="M 422 -1272 
L 422 3319 
L 934 3319 
L 934 2888 
Q 1116 3141 1344 3267 
Q 1572 3394 1897 3394 
Q 2322 3394 2647 3175 
Q 2972 2956 3137 2557 
Q 3303 2159 3303 1684 
Q 3303 1175 3120 767 
Q 2938 359 2589 142 
Q 2241 -75 1856 -75 
Q 1575 -75 1351 44 
Q 1128 163 984 344 
L 984 -1272 
L 422 -1272 
z
M 931 1641 
Q 931 1000 1190 694 
Q 1450 388 1819 388 
Q 2194 388 2461 705 
Q 2728 1022 2728 1688 
Q 2728 2322 2467 2637 
Q 2206 2953 1844 2953 
Q 1484 2953 1207 2617 
Q 931 2281 931 1641 
z
" transform="scale(0.015625)"/>
      </defs>
      <use xlink:href="#ArialMT-53"/>
      <use xlink:href="#ArialMT-68" x="66.699219"/>
      <use xlink:href="#ArialMT-65" x="122.314453"/>
      <use xlink:href="#ArialMT-65" x="177.929688"/>
      <use xlink:href="#ArialMT-70" x="233.544922"/>
     </g>
    </g>
    <g id="PathCollection_4">
     <g>
      <use xlink:href="#maa434819a6" x="356.911406" y="73.92" style="fill: #b22222; stroke: #b22222"/>
     </g>
    </g>
    <g id="text_15">
     <!-- Wolves -->
     <g style="fill: #262626" transform="translate(400.111406 80.22) scale(0.24 -0.24)">
      <defs>
       <path id="ArialMT-57" d="M 1294 0 
L 78 4581 
L 700 4581 
L 1397 1578 
Q 1509 1106 1591 641 
Q 1766 1375 1797 1488 
L 2669 4581 
L 3400 4581 
L 4056 2263 
Q 4303 1400 4413 641 
Q 4500 1075 4641 1638 
L 5359 4581 
L 5969 4581 
L 4713 0 
L 4128 0 
L 3163 3491 
Q 3041 3928 3019 4028 
Q 2947 3713 2884 3491 
L 1913 0 
L 1294 0 
z
" transform="scale(0.015625)"/>
       <path id="ArialMT-6f" d="M 213 1659 
Q 213 2581 725 3025 
Q 1153 3394 1769 3394 
Q 2453 3394 2887 2945 
Q 3322 2497 3322 1706 
Q 3322 1066 3130 698 
Q 2938 331 2570 128 
Q 2203 -75 1769 -75 
Q 1072 -75 642 372 
Q 213 819 213 1659 
z
M 791 1659 
Q 791 1022 1069 705 
Q 1347 388 1769 388 
Q 2188 388 2466 706 
Q 2744 1025 2744 1678 
Q 2744 2294 2464 2611 
Q 2184 2928 1769 2928 
Q 1347 2928 1069 2612 
Q 791 2297 791 1659 
z
" transform="scale(0.015625)"/>
       <path id="ArialMT-6c" d="M 409 0 
L 409 4581 
L 972 4581 
L 972 0 
L 409 0 
z
" transform="scale(0.015625)"/>
       <path id="ArialMT-76" d="M 1344 0 
L 81 3319 
L 675 3319 
L 1388 1331 
Q 1503 1009 1600 663 
Q 1675 925 1809 1294 
L 2547 3319 
L 3125 3319 
L 1869 0 
L 1344 0 
z
" transform="scale(0.015625)"/>
       <path id="ArialMT-73" d="M 197 991 
L 753 1078 
Q 800 744 1014 566 
Q 1228 388 1613 388 
Q 2000 388 2187 545 
Q 2375 703 2375 916 
Q 2375 1106 2209 1216 
Q 2094 1291 1634 1406 
Q 1016 1563 777 1677 
Q 538 1791 414 1992 
Q 291 2194 291 2438 
Q 291 2659 392 2848 
Q 494 3038 669 3163 
Q 800 3259 1026 3326 
Q 1253 3394 1513 3394 
Q 1903 3394 2198 3281 
Q 2494 3169 2634 2976 
Q 2775 2784 2828 2463 
L 2278 2388 
Q 2241 2644 2061 2787 
Q 1881 2931 1553 2931 
Q 1166 2931 1000 2803 
Q 834 2675 834 2503 
Q 834 2394 903 2306 
Q 972 2216 1119 2156 
Q 1203 2125 1616 2013 
Q 2213 1853 2448 1751 
Q 2684 1650 2818 1456 
Q 2953 1263 2953 975 
Q 2953 694 2789 445 
Q 2625 197 2315 61 
Q 2006 -75 1616 -75 
Q 969 -75 630 194 
Q 291 463 197 991 
z
" transform="scale(0.015625)"/>
      </defs>
      <use xlink:href="#ArialMT-57"/>
      <use xlink:href="#ArialMT-6f" x="92.634766"/>
      <use xlink:href="#ArialMT-6c" x="148.25"/>
      <use xlink:href="#ArialMT-76" x="170.466797"/>
      <use xlink:href="#ArialMT-65" x="220.466797"/>
      <use xlink:href="#ArialMT-73" x="276.082031"/>
     </g>
    </g>
   </g>
  </g>
 </g>
 <defs>
  <clipPath id="p7d7f4e1bd6">
   <rect x="56.450156" y="7.2" width="443.52" height="443.52"/>
  </clipPath>
 </defs>
</svg>
