<?xml version="1.0" encoding="utf-8" standalone="no"?>
<!DOCTYPE svg PUBLIC "-//W3C//DTD SVG 1.1//EN"
  "http://www.w3.org/Graphics/SVG/1.1/DTD/svg11.dtd">
<svg xmlns:xlink="http://www.w3.org/1999/xlink" width="507.170156pt" height="492.454219pt" viewBox="0 0 507.170156 492.454219" xmlns="http://www.w3.org/2000/svg" version="1.1">
 <metadata>
  <rdf:RDF xmlns:dc="http://purl.org/dc/elements/1.1/" xmlns:cc="http://creativecommons.org/ns#" xmlns:rdf="http://www.w3.org/1999/02/22-rdf-syntax-ns#">
   <cc:Work>
    <dc:type rdf:resource="http://purl.org/dc/dcmitype/StillImage"/>
    <dc:date>2026-05-12T10:49:57.145694</dc:date>
    <dc:format>image/svg+xml</dc:format>
    <dc:creator>
     <cc:Agent>
      <dc:title>Matplotlib v3.7.1, https://matplotlib.org/</dc:title>
     </cc:Agent>
    </dc:creator>
   </cc:Work>
  </rdf:RDF>
 </metadata>
 <defs>
  <style type="text/css">*{stroke-linejoin: round; stroke-linecap: butt}</style>
 </defs>
 <g id="figure_1">
  <g id="patch_1">
   <path d="M 0 492.454219 
L 507.170156 492.454219 
L 507.170156 0 
L 0 0 
z
" style="fill: #ffffff"/>
  </g>
  <g id="axes_1">
   <g id="patch_2">
    <path d="M 56.450156 450.72 
L 499.970156 450.72 
L 499.970156 7.2 
L 56.450156 7.2 
z
" style="fill: #eaeaf2"/>
   </g>
   <g id="matplotlib.axis_1">
    <g id="xtick_1">
     <g id="line2d_1">
      <path d="M 100.802156 450.72 
L 100.802156 7.2 
" clip-path="url(#p37b2f94bf1)" style="fill: none; stroke: #ffffff; stroke-linecap: round"/>
     </g>
     <g id="text_1">
      <!-- −400 -->
      <g style="fill: #262626" transform="translate(88.414266 468.093594) scale(0.11 -0.11)">
       <defs>
        <path id="ArialMT-2212" d="M 3381 1997 
L 356 1997 
L 356 2522 
L 3381 2522 
L 3381 1997 
z
" transform="scale(0.015625)"/>
        <path id="ArialMT-34" d="M 2069 0 
L 2069 1097 
L 81 1097 
L 81 1613 
L 2172 4581 
L 2631 4581 
L 2631 1613 
L 3250 1613 
L 3250 1097 
L 2631 1097 
L 2631 0 
L 2069 0 
z
M 2069 1613 
L 2069 3678 
L 634 1613 
L 2069 1613 
z
" transform="scale(0.015625)"/>
        <path id="ArialMT-30" d="M 266 2259 
Q 266 3072 433 3567 
Q 600 4063 929 4331 
Q 1259 4600 1759 4600 
Q 2128 4600 2406 4451 
Q 2684 4303 2865 4023 
Q 3047 3744 3150 3342 
Q 3253 2941 3253 2259 
Q 3253 1453 3087 958 
Q 2922 463 2592 192 
Q 2263 -78 1759 -78 
Q 1097 -78 719 397 
Q 266 969 266 2259 
z
M 844 2259 
Q 844 1131 1108 757 
Q 1372 384 1759 384 
Q 2147 384 2411 759 
Q 2675 1134 2675 2259 
Q 2675 3391 2411 3762 
Q 2147 4134 1753 4134 
Q 1366 4134 1134 3806 
Q 844 3388 844 2259 
z
" transform="scale(0.015625)"/>
       </defs>
       <use xlink:href="#ArialMT-2212"/>
       <use xlink:href="#ArialMT-34" x="58.398438"/>
       <use xlink:href="#ArialMT-30" x="114.013672"/>
       <use xlink:href="#ArialMT-30" x="169.628906"/>
      </g>
     </g>
    </g>
    <g id="xtick_2">
     <g id="line2d_2">
      <path d="M 189.506156 450.72 
L 189.506156 7.2 
" clip-path="url(#p37b2f94bf1)" style="fill: none; stroke: #ffffff; stroke-linecap: round"/>
     </g>
     <g id="text_2">
      <!-- −200 -->
      <g style="fill: #262626" transform="translate(177.118266 468.093594) scale(0.11 -0.11)">
       <defs>
        <path id="ArialMT-32" d="M 3222 541 
L 3222 0 
L 194 0 
Q 188 203 259 391 
Q 375 700 629 1000 
Q 884 1300 1366 1694 
Q 2113 2306 2375 2664 
Q 2638 3022 2638 3341 
Q 2638 3675 2398 3904 
Q 2159 4134 1775 4134 
Q 1369 4134 1125 3890 
Q 881 3647 878 3216 
L 300 3275 
Q 359 3922 746 4261 
Q 1134 4600 1788 4600 
Q 2447 4600 2831 4234 
Q 3216 3869 3216 3328 
Q 3216 3053 3103 2787 
Q 2991 2522 2730 2228 
Q 2469 1934 1863 1422 
Q 1356 997 1212 845 
Q 1069 694 975 541 
L 3222 541 
z
" transform="scale(0.015625)"/>
       </defs>
       <use xlink:href="#ArialMT-2212"/>
       <use xlink:href="#ArialMT-32" x="58.398438"/>
       <use xlink:href="#ArialMT-30" x="114.013672"/>
       <use xlink:href="#ArialMT-30" x="169.628906"/>
      </g>
     </g>
    </g>
    <g id="xtick_3">
     <g id="line2d_3">
      <path d="M 278.210156 450.72 
L 278.210156 7.2 
" clip-path="url(#p37b2f94bf1)" style="fill: none; stroke: #ffffff; stroke-linecap: round"/>
     </g>
     <g id="text_3">
      <!-- 0 -->
      <g style="fill: #262626" transform="translate(275.151641 468.093594) scale(0.11 -0.11)">
       <use xlink:href="#ArialMT-30"/>
      </g>
     </g>
    </g>
    <g id="xtick_4">
     <g id="line2d_4">
      <path d="M 366.914156 450.72 
L 366.914156 7.2 
" clip-path="url(#p37b2f94bf1)" style="fill: none; stroke: #ffffff; stroke-linecap: round"/>
     </g>
     <g id="text_4">
      <!-- 200 -->
      <g style="fill: #262626" transform="translate(357.738609 468.093594) scale(0.11 -0.11)">
       <use xlink:href="#ArialMT-32"/>
       <use xlink:href="#ArialMT-30" x="55.615234"/>
       <use xlink:href="#ArialMT-30" x="111.230469"/>
      </g>
     </g>
    </g>
    <g id="xtick_5">
     <g id="line2d_5">
      <path d="M 455.618156 450.72 
L 455.618156 7.2 
" clip-path="url(#p37b2f94bf1)" style="fill: none; stroke: #ffffff; stroke-linecap: round"/>
     </g>
     <g id="text_5">
      <!-- 400 -->
      <g style="fill: #262626" transform="translate(446.442609 468.093594) scale(0.11 -0.11)">
       <use xlink:href="#ArialMT-34"/>
       <use xlink:href="#ArialMT-30" x="55.615234"/>
       <use xlink:href="#ArialMT-30" x="111.230469"/>
      </g>
     </g>
    </g>
    <g id="text_6">
     <!-- x -->
     <g style="fill: #262626" transform="translate(275.210156 482.869219) scale(0.12 -0.12)">
      <defs>
       <path id="ArialMT-78" d="M 47 0 
L 1259 1725 
L 138 3319 
L 841 3319 
L 1350 2541 
Q 1494 2319 1581 2169 
Q 1719 2375 1834 2534 
L 2394 3319 
L 3066 3319 
L 1919 1756 
L 3153 0 
L 2463 0 
L 1781 1031 
L 1600 1309 
L 728 0 
L 47 0 
z
" transform="scale(0.015625)"/>
      </defs>
      <use xlink:href="#ArialMT-78"/>
     </g>
    </g>
   </g>
   <g id="matplotlib.axis_2">
    <g id="ytick_1">
     <g id="line2d_6">
      <path d="M 56.450156 406.368 
L 499.970156 406.368 
" clip-path="url(#p37b2f94bf1)" style="fill: none; stroke: #ffffff; stroke-linecap: round"/>
     </g>
     <g id="text_7">
      <!-- −400 -->
      <g style="fill: #262626" transform="translate(22.174375 410.304797) scale(0.11 -0.11)">
       <use xlink:href="#ArialMT-2212"/>
       <use xlink:href="#ArialMT-34" x="58.398438"/>
       <use xlink:href="#ArialMT-30" x="114.013672"/>
       <use xlink:href="#ArialMT-30" x="169.628906"/>
      </g>
     </g>
    </g>
    <g id="ytick_2">
     <g id="line2d_7">
      <path d="M 56.450156 317.664 
L 499.970156 317.664 
" clip-path="url(#p37b2f94bf1)" style="fill: none; stroke: #ffffff; stroke-linecap: round"/>
     </g>
     <g id="text_8">
      <!-- −200 -->
      <g style="fill: #262626" transform="translate(22.174375 321.600797) scale(0.11 -0.11)">
       <use xlink:href="#ArialMT-2212"/>
       <use xlink:href="#ArialMT-32" x="58.398438"/>
       <use xlink:href="#ArialMT-30" x="114.013672"/>
       <use xlink:href="#ArialMT-30" x="169.628906"/>
      </g>
     </g>
    </g>
    <g id="ytick_3">
     <g id="line2d_8">
      <path d="M 56.450156 228.96 
L 499.970156 228.96 
" clip-path="url(#p37b2f94bf1)" style="fill: none; stroke: #ffffff; stroke-linecap: round"/>
     </g>
     <g id="text_9">
      <!-- 0 -->
      <g style="fill: #262626" transform="translate(40.833125 232.896797) scale(0.11 -0.11)">
       <use xlink:href="#ArialMT-30"/>
      </g>
     </g>
    </g>
    <g id="ytick_4">
     <g id="line2d_9">
      <path d="M 56.450156 140.256 
L 499.970156 140.256 
" clip-path="url(#p37b2f94bf1)" style="fill: none; stroke: #ffffff; stroke-linecap: round"/>
     </g>
     <g id="text_10">
      <!-- 200 -->
      <g style="fill: #262626" transform="translate(28.599063 144.192797) scale(0.11 -0.11)">
       <use xlink:href="#ArialMT-32"/>
       <use xlink:href="#ArialMT-30" x="55.615234"/>
       <use xlink:href="#ArialMT-30" x="111.230469"/>
      </g>
     </g>
    </g>
    <g id="ytick_5">
     <g id="line2d_10">
      <path d="M 56.450156 51.552 
L 499.970156 51.552 
" clip-path="url(#p37b2f94bf1)" style="fill: none; stroke: #ffffff; stroke-linecap: round"/>
     </g>
     <g id="text_11">
      <!-- 400 -->
      <g style="fill: #262626" transform="translate(28.599063 55.488797) scale(0.11 -0.11)">
       <use xlink:href="#ArialMT-34"/>
       <use xlink:href="#ArialMT-30" x="55.615234"/>
       <use xlink:href="#ArialMT-30" x="111.230469"/>
      </g>
     </g>
    </g>
    <g id="text_12">
     <!-- y -->
     <g style="fill: #262626" transform="translate(15.64875 231.96) rotate(-90) scale(0.12 -0.12)">
      <defs>
       <path id="ArialMT-79" d="M 397 -1278 
L 334 -750 
Q 519 -800 656 -800 
Q 844 -800 956 -737 
Q 1069 -675 1141 -563 
Q 1194 -478 1313 -144 
Q 1328 -97 1363 -6 
L 103 3319 
L 709 3319 
L 1400 1397 
Q 1534 1031 1641 628 
Q 1738 1016 1872 1384 
L 2581 3319 
L 3144 3319 
L 1881 -56 
Q 1678 -603 1566 -809 
Q 1416 -1088 1222 -1217 
Q 1028 -1347 759 -1347 
Q 597 -1347 397 -1278 
z
" transform="scale(0.015625)"/>
      </defs>
      <use xlink:href="#ArialMT-79"/>
     </g>
    </g>
   </g>
   <g id="patch_3">
    <path d="M 278.210156 317.664 
C 301.734732 317.664 324.298969 308.317587 340.933356 291.6832 
C 357.567743 275.048813 366.914156 252.484576 366.914156 228.96 
C 366.914156 205.435424 357.567743 182.871187 340.933356 166.2368 
C 324.298969 149.602413 301.734732 140.256 278.210156 140.256 
C 254.68558 140.256 232.121343 149.602413 215.486956 166.2368 
C 198.852569 182.871187 189.506156 205.435424 189.506156 228.96 
C 189.506156 252.484576 198.852569 275.048813 215.486956 291.6832 
C 232.121343 308.317587 254.68558 317.664 278.210156 317.664 
z
" clip-path="url(#p37b2f94bf1)" style="fill: #228b22; opacity: 0.12; stroke: #228b22; stroke-width: 1.5; stroke-linejoin: miter"/>
   </g>
   <g id="PathCollection_1">
    <defs>
     <path id="m02d0624d32" d="M 0 2.236068 
C 0.593012 2.236068 1.161816 2.000462 1.581139 1.581139 
C 2.000462 1.161816 2.236068 0.593012 2.236068 0 
C 2.236068 -0.593012 2.000462 -1.161816 1.581139 -1.581139 
C 1.161816 -2.000462 0.593012 -2.236068 0 -2.236068 
C -0.593012 -2.236068 -1.161816 -2.000462 -1.581139 -1.581139 
C -2.000462 -1.161816 -2.236068 -0.593012 -2.236068 0 
C -2.236068 0.593012 -2.000462 1.161816 -1.581139 1.581139 
C -1.161816 2.000462 -0.593012 2.236068 0 2.236068 
z
" style="stroke: #4169e1"/>
    </defs>
    <g clip-path="url(#p37b2f94bf1)">
     <use xlink:href="#m02d0624d32" x="441.863717" y="150.993331" style="fill: #4169e1; stroke: #4169e1"/>
     <use xlink:href="#m02d0624d32" x="213.885971" y="277.504427" style="fill: #4169e1; stroke: #4169e1"/>
     <use xlink:href="#m02d0624d32" x="265.672255" y="217.391105" style="fill: #4169e1; stroke: #4169e1"/>
     <use xlink:href="#m02d0624d32" x="314.211202" y="102.317133" style="fill: #4169e1; stroke: #4169e1"/>
     <use xlink:href="#m02d0624d32" x="245.351094" y="296.870637" style="fill: #4169e1; stroke: #4169e1"/>
     <use xlink:href="#m02d0624d32" x="405.611845" y="178.425929" style="fill: #4169e1; stroke: #4169e1"/>
     <use xlink:href="#m02d0624d32" x="304.599278" y="146.596761" style="fill: #4169e1; stroke: #4169e1"/>
     <use xlink:href="#m02d0624d32" x="344.648188" y="305.887149" style="fill: #4169e1; stroke: #4169e1"/>
     <use xlink:href="#m02d0624d32" x="173.474718" y="216.915054" style="fill: #4169e1; stroke: #4169e1"/>
     <use xlink:href="#m02d0624d32" x="280.39784" y="165.580359" style="fill: #4169e1; stroke: #4169e1"/>
     <use xlink:href="#m02d0624d32" x="337.499541" y="326.554466" style="fill: #4169e1; stroke: #4169e1"/>
     <use xlink:href="#m02d0624d32" x="277.256286" y="296.339524" style="fill: #4169e1; stroke: #4169e1"/>
     <use xlink:href="#m02d0624d32" x="340.84351" y="203.550312" style="fill: #4169e1; stroke: #4169e1"/>
     <use xlink:href="#m02d0624d32" x="232.881642" y="249.131736" style="fill: #4169e1; stroke: #4169e1"/>
     <use xlink:href="#m02d0624d32" x="238.573487" y="293.222662" style="fill: #4169e1; stroke: #4169e1"/>
     <use xlink:href="#m02d0624d32" x="370.509283" y="153.431635" style="fill: #4169e1; stroke: #4169e1"/>
     <use xlink:href="#m02d0624d32" x="237.221094" y="163.794956" style="fill: #4169e1; stroke: #4169e1"/>
     <use xlink:href="#m02d0624d32" x="235.27658" y="257.575929" style="fill: #4169e1; stroke: #4169e1"/>
     <use xlink:href="#m02d0624d32" x="250.887643" y="200.29417" style="fill: #4169e1; stroke: #4169e1"/>
     <use xlink:href="#m02d0624d32" x="283.445483" y="258.256825" style="fill: #4169e1; stroke: #4169e1"/>
     <use xlink:href="#m02d0624d32" x="193.202357" y="198.214801" style="fill: #4169e1; stroke: #4169e1"/>
     <use xlink:href="#m02d0624d32" x="188.677338" y="310.816585" style="fill: #4169e1; stroke: #4169e1"/>
     <use xlink:href="#m02d0624d32" x="317.694711" y="290.319411" style="fill: #4169e1; stroke: #4169e1"/>
     <use xlink:href="#m02d0624d32" x="419.106896" y="172.623773" style="fill: #4169e1; stroke: #4169e1"/>
     <use xlink:href="#m02d0624d32" x="236.339746" y="160.108602" style="fill: #4169e1; stroke: #4169e1"/>
     <use xlink:href="#m02d0624d32" x="429.471415" y="148.691021" style="fill: #4169e1; stroke: #4169e1"/>
     <use xlink:href="#m02d0624d32" x="315.894955" y="234.559312" style="fill: #4169e1; stroke: #4169e1"/>
     <use xlink:href="#m02d0624d32" x="292.191089" y="261.912008" style="fill: #4169e1; stroke: #4169e1"/>
     <use xlink:href="#m02d0624d32" x="242.400495" y="261.985077" style="fill: #4169e1; stroke: #4169e1"/>
     <use xlink:href="#m02d0624d32" x="411.475938" y="213.4776" style="fill: #4169e1; stroke: #4169e1"/>
     <use xlink:href="#m02d0624d32" x="257.724315" y="250.10881" style="fill: #4169e1; stroke: #4169e1"/>
     <use xlink:href="#m02d0624d32" x="370.101171" y="179.415582" style="fill: #4169e1; stroke: #4169e1"/>
     <use xlink:href="#m02d0624d32" x="208.509225" y="288.150071" style="fill: #4169e1; stroke: #4169e1"/>
     <use xlink:href="#m02d0624d32" x="283.765878" y="93.594902" style="fill: #4169e1; stroke: #4169e1"/>
     <use xlink:href="#m02d0624d32" x="257.08947" y="304.090898" style="fill: #4169e1; stroke: #4169e1"/>
     <use xlink:href="#m02d0624d32" x="286.667019" y="303.048271" style="fill: #4169e1; stroke: #4169e1"/>
     <use xlink:href="#m02d0624d32" x="227.730798" y="169.555763" style="fill: #4169e1; stroke: #4169e1"/>
     <use xlink:href="#m02d0624d32" x="266.246884" y="177.106454" style="fill: #4169e1; stroke: #4169e1"/>
     <use xlink:href="#m02d0624d32" x="322.143453" y="179.473682" style="fill: #4169e1; stroke: #4169e1"/>
     <use xlink:href="#m02d0624d32" x="312.232727" y="317.391037" style="fill: #4169e1; stroke: #4169e1"/>
     <use xlink:href="#m02d0624d32" x="253.026379" y="333.745918" style="fill: #4169e1; stroke: #4169e1"/>
     <use xlink:href="#m02d0624d32" x="335.250337" y="80.334483" style="fill: #4169e1; stroke: #4169e1"/>
     <use xlink:href="#m02d0624d32" x="366.346803" y="317.13531" style="fill: #4169e1; stroke: #4169e1"/>
     <use xlink:href="#m02d0624d32" x="330.910627" y="179.504989" style="fill: #4169e1; stroke: #4169e1"/>
     <use xlink:href="#m02d0624d32" x="163.475493" y="323.893867" style="fill: #4169e1; stroke: #4169e1"/>
     <use xlink:href="#m02d0624d32" x="214.083922" y="100.290257" style="fill: #4169e1; stroke: #4169e1"/>
     <use xlink:href="#m02d0624d32" x="304.176575" y="163.118591" style="fill: #4169e1; stroke: #4169e1"/>
     <use xlink:href="#m02d0624d32" x="332.486958" y="204.464761" style="fill: #4169e1; stroke: #4169e1"/>
     <use xlink:href="#m02d0624d32" x="303.808482" y="290.752062" style="fill: #4169e1; stroke: #4169e1"/>
     <use xlink:href="#m02d0624d32" x="470.184786" y="182.991862" style="fill: #4169e1; stroke: #4169e1"/>
     <use xlink:href="#m02d0624d32" x="206.639823" y="140.777665" style="fill: #4169e1; stroke: #4169e1"/>
     <use xlink:href="#m02d0624d32" x="179.923239" y="282.003526" style="fill: #4169e1; stroke: #4169e1"/>
     <use xlink:href="#m02d0624d32" x="378.002319" y="166.407505" style="fill: #4169e1; stroke: #4169e1"/>
     <use xlink:href="#m02d0624d32" x="288.334541" y="139.461114" style="fill: #4169e1; stroke: #4169e1"/>
     <use xlink:href="#m02d0624d32" x="215.387371" y="231.242534" style="fill: #4169e1; stroke: #4169e1"/>
     <use xlink:href="#m02d0624d32" x="195.759317" y="101.407598" style="fill: #4169e1; stroke: #4169e1"/>
     <use xlink:href="#m02d0624d32" x="299.833132" y="281.348533" style="fill: #4169e1; stroke: #4169e1"/>
     <use xlink:href="#m02d0624d32" x="462.047613" y="219.632261" style="fill: #4169e1; stroke: #4169e1"/>
     <use xlink:href="#m02d0624d32" x="275.269069" y="156.162807" style="fill: #4169e1; stroke: #4169e1"/>
     <use xlink:href="#m02d0624d32" x="423.727433" y="182.735398" style="fill: #4169e1; stroke: #4169e1"/>
     <use xlink:href="#m02d0624d32" x="416.996508" y="268.00186" style="fill: #4169e1; stroke: #4169e1"/>
     <use xlink:href="#m02d0624d32" x="320.901849" y="168.188739" style="fill: #4169e1; stroke: #4169e1"/>
     <use xlink:href="#m02d0624d32" x="201.362994" y="185.716188" style="fill: #4169e1; stroke: #4169e1"/>
     <use xlink:href="#m02d0624d32" x="247.142317" y="277.302908" style="fill: #4169e1; stroke: #4169e1"/>
     <use xlink:href="#m02d0624d32" x="388.407199" y="227.091011" style="fill: #4169e1; stroke: #4169e1"/>
     <use xlink:href="#m02d0624d32" x="239.395781" y="241.077045" style="fill: #4169e1; stroke: #4169e1"/>
     <use xlink:href="#m02d0624d32" x="247.862177" y="271.569741" style="fill: #4169e1; stroke: #4169e1"/>
     <use xlink:href="#m02d0624d32" x="261.033486" y="240.316257" style="fill: #4169e1; stroke: #4169e1"/>
     <use xlink:href="#m02d0624d32" x="294.992995" y="313.784459" style="fill: #4169e1; stroke: #4169e1"/>
     <use xlink:href="#m02d0624d32" x="201.268363" y="207.247028" style="fill: #4169e1; stroke: #4169e1"/>
     <use xlink:href="#m02d0624d32" x="345.140062" y="217.685118" style="fill: #4169e1; stroke: #4169e1"/>
     <use xlink:href="#m02d0624d32" x="332.133985" y="285.067077" style="fill: #4169e1; stroke: #4169e1"/>
     <use xlink:href="#m02d0624d32" x="246.142793" y="249.494521" style="fill: #4169e1; stroke: #4169e1"/>
     <use xlink:href="#m02d0624d32" x="251.802258" y="303.060115" style="fill: #4169e1; stroke: #4169e1"/>
     <use xlink:href="#m02d0624d32" x="400.6143" y="171.056114" style="fill: #4169e1; stroke: #4169e1"/>
     <use xlink:href="#m02d0624d32" x="394.564518" y="259.336369" style="fill: #4169e1; stroke: #4169e1"/>
     <use xlink:href="#m02d0624d32" x="363.98749" y="190.796301" style="fill: #4169e1; stroke: #4169e1"/>
     <use xlink:href="#m02d0624d32" x="243.24185" y="331.856755" style="fill: #4169e1; stroke: #4169e1"/>
     <use xlink:href="#m02d0624d32" x="154.270382" y="272.99409" style="fill: #4169e1; stroke: #4169e1"/>
     <use xlink:href="#m02d0624d32" x="264.762378" y="308.288732" style="fill: #4169e1; stroke: #4169e1"/>
     <use xlink:href="#m02d0624d32" x="325.753421" y="248.574575" style="fill: #4169e1; stroke: #4169e1"/>
     <use xlink:href="#m02d0624d32" x="309.304521" y="276.337415" style="fill: #4169e1; stroke: #4169e1"/>
     <use xlink:href="#m02d0624d32" x="295.635518" y="305.675093" style="fill: #4169e1; stroke: #4169e1"/>
     <use xlink:href="#m02d0624d32" x="310.733898" y="172.67229" style="fill: #4169e1; stroke: #4169e1"/>
     <use xlink:href="#m02d0624d32" x="399.644546" y="120.656945" style="fill: #4169e1; stroke: #4169e1"/>
     <use xlink:href="#m02d0624d32" x="454.747805" y="150.013108" style="fill: #4169e1; stroke: #4169e1"/>
     <use xlink:href="#m02d0624d32" x="263.068103" y="309.047005" style="fill: #4169e1; stroke: #4169e1"/>
     <use xlink:href="#m02d0624d32" x="354.849777" y="225.470861" style="fill: #4169e1; stroke: #4169e1"/>
     <use xlink:href="#m02d0624d32" x="344.31883" y="185.951151" style="fill: #4169e1; stroke: #4169e1"/>
     <use xlink:href="#m02d0624d32" x="280.946106" y="247.006906" style="fill: #4169e1; stroke: #4169e1"/>
     <use xlink:href="#m02d0624d32" x="225.806843" y="160.638017" style="fill: #4169e1; stroke: #4169e1"/>
     <use xlink:href="#m02d0624d32" x="344.50054" y="154.539319" style="fill: #4169e1; stroke: #4169e1"/>
     <use xlink:href="#m02d0624d32" x="273.693924" y="159.926805" style="fill: #4169e1; stroke: #4169e1"/>
     <use xlink:href="#m02d0624d32" x="337.227342" y="286.481734" style="fill: #4169e1; stroke: #4169e1"/>
     <use xlink:href="#m02d0624d32" x="256.378024" y="349.592662" style="fill: #4169e1; stroke: #4169e1"/>
     <use xlink:href="#m02d0624d32" x="378.354152" y="215.104528" style="fill: #4169e1; stroke: #4169e1"/>
     <use xlink:href="#m02d0624d32" x="390.03558" y="344.462202" style="fill: #4169e1; stroke: #4169e1"/>
     <use xlink:href="#m02d0624d32" x="266.843137" y="145.643865" style="fill: #4169e1; stroke: #4169e1"/>
     <use xlink:href="#m02d0624d32" x="290.954601" y="168.454407" style="fill: #4169e1; stroke: #4169e1"/>
     <use xlink:href="#m02d0624d32" x="278.0656" y="288.957707" style="fill: #4169e1; stroke: #4169e1"/>
     <use xlink:href="#m02d0624d32" x="394.109331" y="172.173232" style="fill: #4169e1; stroke: #4169e1"/>
     <use xlink:href="#m02d0624d32" x="355.542974" y="176.523762" style="fill: #4169e1; stroke: #4169e1"/>
     <use xlink:href="#m02d0624d32" x="384.733961" y="338.414132" style="fill: #4169e1; stroke: #4169e1"/>
     <use xlink:href="#m02d0624d32" x="208.966185" y="239.193985" style="fill: #4169e1; stroke: #4169e1"/>
     <use xlink:href="#m02d0624d32" x="260.087019" y="119.103305" style="fill: #4169e1; stroke: #4169e1"/>
     <use xlink:href="#m02d0624d32" x="205.954281" y="283.211431" style="fill: #4169e1; stroke: #4169e1"/>
     <use xlink:href="#m02d0624d32" x="251.102536" y="247.906293" style="fill: #4169e1; stroke: #4169e1"/>
     <use xlink:href="#m02d0624d32" x="384.074474" y="110.312526" style="fill: #4169e1; stroke: #4169e1"/>
     <use xlink:href="#m02d0624d32" x="262.803895" y="128.506253" style="fill: #4169e1; stroke: #4169e1"/>
     <use xlink:href="#m02d0624d32" x="355.243522" y="258.710835" style="fill: #4169e1; stroke: #4169e1"/>
     <use xlink:href="#m02d0624d32" x="473.105145" y="193.937719" style="fill: #4169e1; stroke: #4169e1"/>
     <use xlink:href="#m02d0624d32" x="286.83224" y="255.456515" style="fill: #4169e1; stroke: #4169e1"/>
     <use xlink:href="#m02d0624d32" x="270.682577" y="206.999365" style="fill: #4169e1; stroke: #4169e1"/>
     <use xlink:href="#m02d0624d32" x="361.085546" y="124.021155" style="fill: #4169e1; stroke: #4169e1"/>
     <use xlink:href="#m02d0624d32" x="304.904982" y="199.309538" style="fill: #4169e1; stroke: #4169e1"/>
     <use xlink:href="#m02d0624d32" x="388.53263" y="268.273717" style="fill: #4169e1; stroke: #4169e1"/>
     <use xlink:href="#m02d0624d32" x="389.95935" y="235.507026" style="fill: #4169e1; stroke: #4169e1"/>
     <use xlink:href="#m02d0624d32" x="260.376776" y="199.367469" style="fill: #4169e1; stroke: #4169e1"/>
     <use xlink:href="#m02d0624d32" x="375.287119" y="270.212693" style="fill: #4169e1; stroke: #4169e1"/>
     <use xlink:href="#m02d0624d32" x="460.587711" y="148.721421" style="fill: #4169e1; stroke: #4169e1"/>
     <use xlink:href="#m02d0624d32" x="421.837925" y="121.538368" style="fill: #4169e1; stroke: #4169e1"/>
     <use xlink:href="#m02d0624d32" x="384.859398" y="243.550973" style="fill: #4169e1; stroke: #4169e1"/>
     <use xlink:href="#m02d0624d32" x="376.432687" y="247.701613" style="fill: #4169e1; stroke: #4169e1"/>
     <use xlink:href="#m02d0624d32" x="294.97864" y="225.423936" style="fill: #4169e1; stroke: #4169e1"/>
     <use xlink:href="#m02d0624d32" x="304.786158" y="183.365977" style="fill: #4169e1; stroke: #4169e1"/>
     <use xlink:href="#m02d0624d32" x="308.341702" y="159.887519" style="fill: #4169e1; stroke: #4169e1"/>
     <use xlink:href="#m02d0624d32" x="302.643567" y="256.923338" style="fill: #4169e1; stroke: #4169e1"/>
     <use xlink:href="#m02d0624d32" x="274.221638" y="212.412138" style="fill: #4169e1; stroke: #4169e1"/>
     <use xlink:href="#m02d0624d32" x="332.949489" y="190.389918" style="fill: #4169e1; stroke: #4169e1"/>
     <use xlink:href="#m02d0624d32" x="241.065495" y="187.000535" style="fill: #4169e1; stroke: #4169e1"/>
     <use xlink:href="#m02d0624d32" x="217.55343" y="300.308397" style="fill: #4169e1; stroke: #4169e1"/>
     <use xlink:href="#m02d0624d32" x="247.800345" y="261.711163" style="fill: #4169e1; stroke: #4169e1"/>
     <use xlink:href="#m02d0624d32" x="410.696881" y="255.437018" style="fill: #4169e1; stroke: #4169e1"/>
     <use xlink:href="#m02d0624d32" x="309.875837" y="284.802106" style="fill: #4169e1; stroke: #4169e1"/>
     <use xlink:href="#m02d0624d32" x="314.372517" y="287.572194" style="fill: #4169e1; stroke: #4169e1"/>
     <use xlink:href="#m02d0624d32" x="371.2204" y="281.912028" style="fill: #4169e1; stroke: #4169e1"/>
     <use xlink:href="#m02d0624d32" x="297.701712" y="297.299072" style="fill: #4169e1; stroke: #4169e1"/>
     <use xlink:href="#m02d0624d32" x="298.362815" y="223.158311" style="fill: #4169e1; stroke: #4169e1"/>
    </g>
   </g>
   <g id="PathCollection_2">
    <defs>
     <path id="m59fcf6987a" d="M 0 2.5 
C 0.663008 2.5 1.29895 2.236584 1.767767 1.767767 
C 2.236584 1.29895 2.5 0.663008 2.5 0 
C 2.5 -0.663008 2.236584 -1.29895 1.767767 -1.767767 
C 1.29895 -2.236584 0.663008 -2.5 0 -2.5 
C -0.663008 -2.5 -1.29895 -2.236584 -1.767767 -1.767767 
C -2.236584 -1.29895 -2.5 -0.663008 -2.5 0 
C -2.5 0.663008 -2.236584 1.29895 -1.767767 1.767767 
C -1.29895 2.236584 -0.663008 2.5 0 2.5 
z
" style="stroke: #b22222"/>
    </defs>
    <g clip-path="url(#p37b2f94bf1)">
     <use xlink:href="#m59fcf6987a" x="287.392734" y="249.367513" style="fill: #b22222; stroke: #b22222"/>
     <use xlink:href="#m59fcf6987a" x="238.205219" y="165.462461" style="fill: #b22222; stroke: #b22222"/>
     <use xlink:href="#m59fcf6987a" x="278.911708" y="203.576865" style="fill: #b22222; stroke: #b22222"/>
     <use xlink:href="#m59fcf6987a" x="184.166341" y="140.543954" style="fill: #b22222; stroke: #b22222"/>
     <use xlink:href="#m59fcf6987a" x="205.343277" y="133.935082" style="fill: #b22222; stroke: #b22222"/>
     <use xlink:href="#m59fcf6987a" x="292.6961" y="209.609626" style="fill: #b22222; stroke: #b22222"/>
     <use xlink:href="#m59fcf6987a" x="298.843609" y="194.688457" style="fill: #b22222; stroke: #b22222"/>
     <use xlink:href="#m59fcf6987a" x="216.374044" y="135.806256" style="fill: #b22222; stroke: #b22222"/>
     <use xlink:href="#m59fcf6987a" x="200.608213" y="127.056543" style="fill: #b22222; stroke: #b22222"/>
     <use xlink:href="#m59fcf6987a" x="291.995725" y="219.390665" style="fill: #b22222; stroke: #b22222"/>
     <use xlink:href="#m59fcf6987a" x="244.383666" y="170.712558" style="fill: #b22222; stroke: #b22222"/>
     <use xlink:href="#m59fcf6987a" x="220.427282" y="152.59073" style="fill: #b22222; stroke: #b22222"/>
     <use xlink:href="#m59fcf6987a" x="307.392197" y="186.575778" style="fill: #b22222; stroke: #b22222"/>
     <use xlink:href="#m59fcf6987a" x="193.467375" y="143.177868" style="fill: #b22222; stroke: #b22222"/>
     <use xlink:href="#m59fcf6987a" x="257.345885" y="193.474492" style="fill: #b22222; stroke: #b22222"/>
     <use xlink:href="#m59fcf6987a" x="303.689985" y="210.757719" style="fill: #b22222; stroke: #b22222"/>
     <use xlink:href="#m59fcf6987a" x="290.626129" y="211.11156" style="fill: #b22222; stroke: #b22222"/>
     <use xlink:href="#m59fcf6987a" x="185.676634" y="140.009958" style="fill: #b22222; stroke: #b22222"/>
     <use xlink:href="#m59fcf6987a" x="311.268097" y="214.758038" style="fill: #b22222; stroke: #b22222"/>
     <use xlink:href="#m59fcf6987a" x="184.185764" y="139.995597" style="fill: #b22222; stroke: #b22222"/>
     <use xlink:href="#m59fcf6987a" x="222.876319" y="140.985525" style="fill: #b22222; stroke: #b22222"/>
     <use xlink:href="#m59fcf6987a" x="327.296612" y="215.599853" style="fill: #b22222; stroke: #b22222"/>
     <use xlink:href="#m59fcf6987a" x="192.574082" y="141.593998" style="fill: #b22222; stroke: #b22222"/>
     <use xlink:href="#m59fcf6987a" x="194.126828" y="140.816917" style="fill: #b22222; stroke: #b22222"/>
     <use xlink:href="#m59fcf6987a" x="290.534386" y="199.685809" style="fill: #b22222; stroke: #b22222"/>
     <use xlink:href="#m59fcf6987a" x="305.697626" y="221.06407" style="fill: #b22222; stroke: #b22222"/>
     <use xlink:href="#m59fcf6987a" x="305.608108" y="194.646115" style="fill: #b22222; stroke: #b22222"/>
     <use xlink:href="#m59fcf6987a" x="303.775874" y="199.2569" style="fill: #b22222; stroke: #b22222"/>
     <use xlink:href="#m59fcf6987a" x="225.236949" y="146.385808" style="fill: #b22222; stroke: #b22222"/>
     <use xlink:href="#m59fcf6987a" x="175.255674" y="144.069618" style="fill: #b22222; stroke: #b22222"/>
     <use xlink:href="#m59fcf6987a" x="298.956309" y="199.213225" style="fill: #b22222; stroke: #b22222"/>
     <use xlink:href="#m59fcf6987a" x="352.369284" y="160.943904" style="fill: #b22222; stroke: #b22222"/>
     <use xlink:href="#m59fcf6987a" x="180.134204" y="139.318805" style="fill: #b22222; stroke: #b22222"/>
     <use xlink:href="#m59fcf6987a" x="324.109742" y="190.075391" style="fill: #b22222; stroke: #b22222"/>
     <use xlink:href="#m59fcf6987a" x="314.804065" y="202.897512" style="fill: #b22222; stroke: #b22222"/>
     <use xlink:href="#m59fcf6987a" x="178.548845" y="152.868898" style="fill: #b22222; stroke: #b22222"/>
     <use xlink:href="#m59fcf6987a" x="328.702942" y="176.998461" style="fill: #b22222; stroke: #b22222"/>
     <use xlink:href="#m59fcf6987a" x="205.251035" y="133.344665" style="fill: #b22222; stroke: #b22222"/>
     <use xlink:href="#m59fcf6987a" x="325.230477" y="188.599426" style="fill: #b22222; stroke: #b22222"/>
     <use xlink:href="#m59fcf6987a" x="305.281592" y="191.152268" style="fill: #b22222; stroke: #b22222"/>
     <use xlink:href="#m59fcf6987a" x="179.944902" y="143.763697" style="fill: #b22222; stroke: #b22222"/>
     <use xlink:href="#m59fcf6987a" x="196.574208" y="141.555686" style="fill: #b22222; stroke: #b22222"/>
     <use xlink:href="#m59fcf6987a" x="334.275633" y="178.507262" style="fill: #b22222; stroke: #b22222"/>
     <use xlink:href="#m59fcf6987a" x="183.933502" y="140.299827" style="fill: #b22222; stroke: #b22222"/>
     <use xlink:href="#m59fcf6987a" x="205.112523" y="127.488842" style="fill: #b22222; stroke: #b22222"/>
     <use xlink:href="#m59fcf6987a" x="269.831972" y="221.503548" style="fill: #b22222; stroke: #b22222"/>
     <use xlink:href="#m59fcf6987a" x="308.925341" y="196.950009" style="fill: #b22222; stroke: #b22222"/>
     <use xlink:href="#m59fcf6987a" x="285.568767" y="226.97606" style="fill: #b22222; stroke: #b22222"/>
     <use xlink:href="#m59fcf6987a" x="196.698887" y="137.886725" style="fill: #b22222; stroke: #b22222"/>
     <use xlink:href="#m59fcf6987a" x="255.587041" y="223.325921" style="fill: #b22222; stroke: #b22222"/>
     <use xlink:href="#m59fcf6987a" x="211.919353" y="138.968712" style="fill: #b22222; stroke: #b22222"/>
     <use xlink:href="#m59fcf6987a" x="305.517282" y="305.628823" style="fill: #b22222; stroke: #b22222"/>
     <use xlink:href="#m59fcf6987a" x="205.733766" y="134.104102" style="fill: #b22222; stroke: #b22222"/>
     <use xlink:href="#m59fcf6987a" x="310.60388" y="192.905623" style="fill: #b22222; stroke: #b22222"/>
     <use xlink:href="#m59fcf6987a" x="244.194901" y="181.702394" style="fill: #b22222; stroke: #b22222"/>
     <use xlink:href="#m59fcf6987a" x="185.749277" y="142.824614" style="fill: #b22222; stroke: #b22222"/>
     <use xlink:href="#m59fcf6987a" x="183.715086" y="139.583255" style="fill: #b22222; stroke: #b22222"/>
     <use xlink:href="#m59fcf6987a" x="223.467406" y="143.461504" style="fill: #b22222; stroke: #b22222"/>
     <use xlink:href="#m59fcf6987a" x="269.18346" y="219.245235" style="fill: #b22222; stroke: #b22222"/>
     <use xlink:href="#m59fcf6987a" x="320.358122" y="203.720891" style="fill: #b22222; stroke: #b22222"/>
     <use xlink:href="#m59fcf6987a" x="207.477744" y="134.39389" style="fill: #b22222; stroke: #b22222"/>
     <use xlink:href="#m59fcf6987a" x="204.762991" y="131.15375" style="fill: #b22222; stroke: #b22222"/>
     <use xlink:href="#m59fcf6987a" x="316.704449" y="218.27964" style="fill: #b22222; stroke: #b22222"/>
     <use xlink:href="#m59fcf6987a" x="316.066154" y="210.417592" style="fill: #b22222; stroke: #b22222"/>
     <use xlink:href="#m59fcf6987a" x="226.231207" y="139.284243" style="fill: #b22222; stroke: #b22222"/>
     <use xlink:href="#m59fcf6987a" x="205.958085" y="139.666544" style="fill: #b22222; stroke: #b22222"/>
     <use xlink:href="#m59fcf6987a" x="335.866382" y="171.805042" style="fill: #b22222; stroke: #b22222"/>
     <use xlink:href="#m59fcf6987a" x="266.54634" y="172.861521" style="fill: #b22222; stroke: #b22222"/>
     <use xlink:href="#m59fcf6987a" x="316.342647" y="211.014696" style="fill: #b22222; stroke: #b22222"/>
     <use xlink:href="#m59fcf6987a" x="314.803081" y="199.404772" style="fill: #b22222; stroke: #b22222"/>
     <use xlink:href="#m59fcf6987a" x="319.913086" y="196.776197" style="fill: #b22222; stroke: #b22222"/>
     <use xlink:href="#m59fcf6987a" x="242.13328" y="165.203871" style="fill: #b22222; stroke: #b22222"/>
     <use xlink:href="#m59fcf6987a" x="303.702591" y="202.919139" style="fill: #b22222; stroke: #b22222"/>
     <use xlink:href="#m59fcf6987a" x="301.581197" y="209.717046" style="fill: #b22222; stroke: #b22222"/>
     <use xlink:href="#m59fcf6987a" x="306.131715" y="195.088173" style="fill: #b22222; stroke: #b22222"/>
     <use xlink:href="#m59fcf6987a" x="321.890427" y="171.246527" style="fill: #b22222; stroke: #b22222"/>
     <use xlink:href="#m59fcf6987a" x="218.76913" y="136.661624" style="fill: #b22222; stroke: #b22222"/>
     <use xlink:href="#m59fcf6987a" x="304.696706" y="191.576156" style="fill: #b22222; stroke: #b22222"/>
     <use xlink:href="#m59fcf6987a" x="305.024815" y="193.636274" style="fill: #b22222; stroke: #b22222"/>
     <use xlink:href="#m59fcf6987a" x="303.4307" y="204.47293" style="fill: #b22222; stroke: #b22222"/>
     <use xlink:href="#m59fcf6987a" x="320.192336" y="202.627017" style="fill: #b22222; stroke: #b22222"/>
     <use xlink:href="#m59fcf6987a" x="274.736546" y="229.926988" style="fill: #b22222; stroke: #b22222"/>
     <use xlink:href="#m59fcf6987a" x="202.511147" y="127.25107" style="fill: #b22222; stroke: #b22222"/>
     <use xlink:href="#m59fcf6987a" x="310.832292" y="202.618231" style="fill: #b22222; stroke: #b22222"/>
     <use xlink:href="#m59fcf6987a" x="303.056462" y="191.829422" style="fill: #b22222; stroke: #b22222"/>
     <use xlink:href="#m59fcf6987a" x="300.333307" y="208.141475" style="fill: #b22222; stroke: #b22222"/>
     <use xlink:href="#m59fcf6987a" x="186.752456" y="139.560347" style="fill: #b22222; stroke: #b22222"/>
     <use xlink:href="#m59fcf6987a" x="303.360842" y="202.562661" style="fill: #b22222; stroke: #b22222"/>
     <use xlink:href="#m59fcf6987a" x="213.44285" y="133.885455" style="fill: #b22222; stroke: #b22222"/>
     <use xlink:href="#m59fcf6987a" x="199.74739" y="143.662122" style="fill: #b22222; stroke: #b22222"/>
     <use xlink:href="#m59fcf6987a" x="217.609668" y="142.120752" style="fill: #b22222; stroke: #b22222"/>
     <use xlink:href="#m59fcf6987a" x="188.899111" y="138.882148" style="fill: #b22222; stroke: #b22222"/>
     <use xlink:href="#m59fcf6987a" x="187.052808" y="145.0699" style="fill: #b22222; stroke: #b22222"/>
     <use xlink:href="#m59fcf6987a" x="204.441152" y="130.297313" style="fill: #b22222; stroke: #b22222"/>
     <use xlink:href="#m59fcf6987a" x="295.33052" y="204.542483" style="fill: #b22222; stroke: #b22222"/>
     <use xlink:href="#m59fcf6987a" x="189.227731" y="143.291875" style="fill: #b22222; stroke: #b22222"/>
     <use xlink:href="#m59fcf6987a" x="221.202284" y="136.295241" style="fill: #b22222; stroke: #b22222"/>
     <use xlink:href="#m59fcf6987a" x="183.091473" y="137.712913" style="fill: #b22222; stroke: #b22222"/>
     <use xlink:href="#m59fcf6987a" x="277.149527" y="178.291176" style="fill: #b22222; stroke: #b22222"/>
     <use xlink:href="#m59fcf6987a" x="214.866187" y="141.935368" style="fill: #b22222; stroke: #b22222"/>
     <use xlink:href="#m59fcf6987a" x="210.092161" y="136.068446" style="fill: #b22222; stroke: #b22222"/>
     <use xlink:href="#m59fcf6987a" x="259.809374" y="191.000854" style="fill: #b22222; stroke: #b22222"/>
     <use xlink:href="#m59fcf6987a" x="230.675222" y="148.891064" style="fill: #b22222; stroke: #b22222"/>
     <use xlink:href="#m59fcf6987a" x="307.085768" y="192.974777" style="fill: #b22222; stroke: #b22222"/>
     <use xlink:href="#m59fcf6987a" x="223.202148" y="130.409999" style="fill: #b22222; stroke: #b22222"/>
     <use xlink:href="#m59fcf6987a" x="322.220546" y="178.511471" style="fill: #b22222; stroke: #b22222"/>
     <use xlink:href="#m59fcf6987a" x="319.483456" y="194.231439" style="fill: #b22222; stroke: #b22222"/>
     <use xlink:href="#m59fcf6987a" x="261.385243" y="155.576349" style="fill: #b22222; stroke: #b22222"/>
     <use xlink:href="#m59fcf6987a" x="251.061495" y="170.861763" style="fill: #b22222; stroke: #b22222"/>
     <use xlink:href="#m59fcf6987a" x="198.080915" y="139.231754" style="fill: #b22222; stroke: #b22222"/>
     <use xlink:href="#m59fcf6987a" x="207.10234" y="132.667738" style="fill: #b22222; stroke: #b22222"/>
     <use xlink:href="#m59fcf6987a" x="315.666096" y="181.068543" style="fill: #b22222; stroke: #b22222"/>
     <use xlink:href="#m59fcf6987a" x="190.804097" y="157.120635" style="fill: #b22222; stroke: #b22222"/>
     <use xlink:href="#m59fcf6987a" x="283.138004" y="218.445669" style="fill: #b22222; stroke: #b22222"/>
     <use xlink:href="#m59fcf6987a" x="180.123322" y="143.298074" style="fill: #b22222; stroke: #b22222"/>
     <use xlink:href="#m59fcf6987a" x="211.607747" y="129.832502" style="fill: #b22222; stroke: #b22222"/>
     <use xlink:href="#m59fcf6987a" x="215.532793" y="122.531909" style="fill: #b22222; stroke: #b22222"/>
     <use xlink:href="#m59fcf6987a" x="205.307971" y="138.600014" style="fill: #b22222; stroke: #b22222"/>
     <use xlink:href="#m59fcf6987a" x="221.368442" y="142.217867" style="fill: #b22222; stroke: #b22222"/>
     <use xlink:href="#m59fcf6987a" x="310.6399" y="203.727955" style="fill: #b22222; stroke: #b22222"/>
     <use xlink:href="#m59fcf6987a" x="307.123202" y="199.022332" style="fill: #b22222; stroke: #b22222"/>
     <use xlink:href="#m59fcf6987a" x="298.742958" y="201.530283" style="fill: #b22222; stroke: #b22222"/>
     <use xlink:href="#m59fcf6987a" x="235.949338" y="159.608979" style="fill: #b22222; stroke: #b22222"/>
     <use xlink:href="#m59fcf6987a" x="194.249647" y="134.151841" style="fill: #b22222; stroke: #b22222"/>
     <use xlink:href="#m59fcf6987a" x="230.915326" y="158.206162" style="fill: #b22222; stroke: #b22222"/>
     <use xlink:href="#m59fcf6987a" x="203.417495" y="142.893271" style="fill: #b22222; stroke: #b22222"/>
     <use xlink:href="#m59fcf6987a" x="223.482105" y="146.892815" style="fill: #b22222; stroke: #b22222"/>
     <use xlink:href="#m59fcf6987a" x="185.284189" y="148.249972" style="fill: #b22222; stroke: #b22222"/>
     <use xlink:href="#m59fcf6987a" x="310.06494" y="214.687711" style="fill: #b22222; stroke: #b22222"/>
     <use xlink:href="#m59fcf6987a" x="303.02158" y="214.146091" style="fill: #b22222; stroke: #b22222"/>
     <use xlink:href="#m59fcf6987a" x="344.218332" y="187.077188" style="fill: #b22222; stroke: #b22222"/>
     <use xlink:href="#m59fcf6987a" x="321.421664" y="184.013654" style="fill: #b22222; stroke: #b22222"/>
     <use xlink:href="#m59fcf6987a" x="190.100106" y="139.490891" style="fill: #b22222; stroke: #b22222"/>
     <use xlink:href="#m59fcf6987a" x="180.034146" y="145.289934" style="fill: #b22222; stroke: #b22222"/>
     <use xlink:href="#m59fcf6987a" x="230.796846" y="145.518103" style="fill: #b22222; stroke: #b22222"/>
     <use xlink:href="#m59fcf6987a" x="230.765803" y="158.850313" style="fill: #b22222; stroke: #b22222"/>
     <use xlink:href="#m59fcf6987a" x="187.088453" y="142.784557" style="fill: #b22222; stroke: #b22222"/>
    </g>
   </g>
   <g id="patch_4">
    <path d="M 56.450156 450.72 
L 56.450156 7.2 
" style="fill: none; stroke: #ffffff; stroke-width: 1.25; stroke-linejoin: miter; stroke-linecap: square"/>
   </g>
   <g id="patch_5">
    <path d="M 499.970156 450.72 
L 499.970156 7.2 
" style="fill: none; stroke: #ffffff; stroke-width: 1.25; stroke-linejoin: miter; stroke-linecap: square"/>
   </g>
   <g id="patch_6">
    <path d="M 56.450156 450.72 
L 499.970156 450.72 
" style="fill: none; stroke: #ffffff; stroke-width: 1.25; stroke-linejoin: miter; stroke-linecap: square"/>
   </g>
   <g id="patch_7">
    <path d="M 56.450156 7.2 
L 499.970156 7.2 
" style="fill: none; stroke: #ffffff; stroke-width: 1.25; stroke-linejoin: miter; stroke-linecap: square"/>
   </g>
   <g id="text_13">
    <!-- t = 2800 -->
    <g style="fill: #262626" transform="translate(65.320556 24.659775) scale(0.12 -0.12)">
     <defs>
      <path id="ArialMT-74" d="M 1650 503 
L 1731 6 
Q 1494 -44 1306 -44 
Q 1000 -44 831 53 
Q 663 150 594 308 
Q 525 466 525 972 
L 525 2881 
L 113 2881 
L 113 3319 
L 525 3319 
L 525 4141 
L 1084 4478 
L 1084 3319 
L 1650 3319 
L 1650 2881 
L 1084 2881 
L 1084 941 
Q 1084 700 1114 631 
Q 1144 563 1211 522 
Q 1278 481 1403 481 
Q 1497 481 1650 503 
z
" transform="scale(0.015625)"/>
      <path id="ArialMT-20" transform="scale(0.015625)"/>
      <path id="ArialMT-3d" d="M 3381 2694 
L 356 2694 
L 356 3219 
L 3381 3219 
L 3381 2694 
z
M 3381 1303 
L 356 1303 
L 356 1828 
L 3381 1828 
L 3381 1303 
z
" transform="scale(0.015625)"/>
      <path id="ArialMT-38" d="M 1131 2484 
Q 781 2613 612 2850 
Q 444 3088 444 3419 
Q 444 3919 803 4259 
Q 1163 4600 1759 4600 
Q 2359 4600 2725 4251 
Q 3091 3903 3091 3403 
Q 3091 3084 2923 2848 
Q 2756 2613 2416 2484 
Q 2838 2347 3058 2040 
Q 3278 1734 3278 1309 
Q 3278 722 2862 322 
Q 2447 -78 1769 -78 
Q 1091 -78 675 323 
Q 259 725 259 1325 
Q 259 1772 486 2073 
Q 713 2375 1131 2484 
z
M 1019 3438 
Q 1019 3113 1228 2906 
Q 1438 2700 1772 2700 
Q 2097 2700 2305 2904 
Q 2513 3109 2513 3406 
Q 2513 3716 2298 3927 
Q 2084 4138 1766 4138 
Q 1444 4138 1231 3931 
Q 1019 3725 1019 3438 
z
M 838 1322 
Q 838 1081 952 856 
Q 1066 631 1291 507 
Q 1516 384 1775 384 
Q 2178 384 2440 643 
Q 2703 903 2703 1303 
Q 2703 1709 2433 1975 
Q 2163 2241 1756 2241 
Q 1359 2241 1098 1978 
Q 838 1716 838 1322 
z
" transform="scale(0.015625)"/>
     </defs>
     <use xlink:href="#ArialMT-74"/>
     <use xlink:href="#ArialMT-20" x="27.783203"/>
     <use xlink:href="#ArialMT-3d" x="55.566406"/>
     <use xlink:href="#ArialMT-20" x="113.964844"/>
     <use xlink:href="#ArialMT-32" x="141.748047"/>
     <use xlink:href="#ArialMT-38" x="197.363281"/>
     <use xlink:href="#ArialMT-30" x="252.978516"/>
     <use xlink:href="#ArialMT-30" x="308.59375"/>
    </g>
   </g>
   <g id="legend_1">
    <g id="patch_8">
     <path d="M 328.111406 94.59 
L 483.170156 94.59 
Q 487.970156 94.59 487.970156 89.79 
L 487.970156 24 
Q 487.970156 19.2 483.170156 19.2 
L 328.111406 19.2 
Q 323.311406 19.2 323.311406 24 
L 323.311406 89.79 
Q 323.311406 94.59 328.111406 94.59 
z
" style="fill: #eaeaf2; opacity: 0.8; stroke: #cccccc; stroke-linejoin: miter"/>
    </g>
    <g id="PathCollection_3">
     <g>
      <use xlink:href="#m02d0624d32" x="356.911406" y="39.97125" style="fill: #4169e1; stroke: #4169e1"/>
     </g>
    </g>
    <g id="text_14">
     <!-- Sheep -->
     <g style="fill: #262626" transform="translate(400.111406 46.27125) scale(0.24 -0.24)">
      <defs>
       <path id="ArialMT-53" d="M 288 1472 
L 859 1522 
Q 900 1178 1048 958 
Q 1197 738 1509 602 
Q 1822 466 2213 466 
Q 2559 466 2825 569 
Q 3091 672 3220 851 
Q 3350 1031 3350 1244 
Q 3350 1459 3225 1620 
Q 3100 1781 2813 1891 
Q 2628 1963 1997 2114 
Q 1366 2266 1113 2400 
Q 784 2572 623 2826 
Q 463 3081 463 3397 
Q 463 3744 659 4045 
Q 856 4347 1234 4503 
Q 1613 4659 2075 4659 
Q 2584 4659 2973 4495 
Q 3363 4331 3572 4012 
Q 3781 3694 3797 3291 
L 3216 3247 
Q 3169 3681 2898 3903 
Q 2628 4125 2100 4125 
Q 1550 4125 1298 3923 
Q 1047 3722 1047 3438 
Q 1047 3191 1225 3031 
Q 1400 2872 2139 2705 
Q 2878 2538 3153 2413 
Q 3553 2228 3743 1945 
Q 3934 1663 3934 1294 
Q 3934 928 3725 604 
Q 3516 281 3123 101 
Q 2731 -78 2241 -78 
Q 1619 -78 1198 103 
Q 778 284 539 648 
Q 300 1013 288 1472 
z
" transform="scale(0.015625)"/>
       <path id="ArialMT-68" d="M 422 0 
L 422 4581 
L 984 4581 
L 984 2938 
Q 1378 3394 1978 3394 
Q 2347 3394 2619 3248 
Q 2891 3103 3008 2847 
Q 3125 2591 3125 2103 
L 3125 0 
L 2563 0 
L 2563 2103 
Q 2563 2525 2380 2717 
Q 2197 2909 1863 2909 
Q 1613 2909 1392 2779 
Q 1172 2650 1078 2428 
Q 984 2206 984 1816 
L 984 0 
L 422 0 
z
" transform="scale(0.015625)"/>
       <path id="ArialMT-65" d="M 2694 1069 
L 3275 997 
Q 3138 488 2766 206 
Q 2394 -75 1816 -75 
Q 1088 -75 661 373 
Q 234 822 234 1631 
Q 234 2469 665 2931 
Q 1097 3394 1784 3394 
Q 2450 3394 2872 2941 
Q 3294 2488 3294 1666 
Q 3294 1616 3291 1516 
L 816 1516 
Q 847 969 1125 678 
Q 1403 388 1819 388 
Q 2128 388 2347 550 
Q 2566 713 2694 1069 
z
M 847 1978 
L 2700 1978 
Q 2663 2397 2488 2606 
Q 2219 2931 1791 2931 
Q 1403 2931 1139 2672 
Q 875 2413 847 1978 
z
" transform="scale(0.015625)"/>
       <path id="ArialMT-70" d="M 422 -1272 
L 422 3319 
L 934 3319 
L 934 2888 
Q 1116 3141 1344 3267 
Q 1572 3394 1897 3394 
Q 2322 3394 2647 3175 
Q 2972 2956 3137 2557 
Q 3303 2159 3303 1684 
Q 3303 1175 3120 767 
Q 2938 359 2589 142 
Q 2241 -75 1856 -75 
Q 1575 -75 1351 44 
Q 1128 163 984 344 
L 984 -1272 
L 422 -1272 
z
M 931 1641 
Q 931 1000 1190 694 
Q 1450 388 1819 388 
Q 2194 388 2461 705 
Q 2728 1022 2728 1688 
Q 2728 2322 2467 2637 
Q 2206 2953 1844 2953 
Q 1484 2953 1207 2617 
Q 931 2281 931 1641 
z
" transform="scale(0.015625)"/>
      </defs>
      <use xlink:href="#ArialMT-53"/>
      <use xlink:href="#ArialMT-68" x="66.699219"/>
      <use xlink:href="#ArialMT-65" x="122.314453"/>
      <use xlink:href="#ArialMT-65" x="177.929688"/>
      <use xlink:href="#ArialMT-70" x="233.544922"/>
     </g>
    </g>
    <g id="PathCollection_4">
     <g>
      <use xlink:href="#m59fcf6987a" x="356.911406" y="73.92" style="fill: #b22222; stroke: #b22222"/>
     </g>
    </g>
    <g id="text_15">
     <!-- Wolves -->
     <g style="fill: #262626" transform="translate(400.111406 80.22) scale(0.24 -0.24)">
      <defs>
       <path id="ArialMT-57" d="M 1294 0 
L 78 4581 
L 700 4581 
L 1397 1578 
Q 1509 1106 1591 641 
Q 1766 1375 1797 1488 
L 2669 4581 
L 3400 4581 
L 4056 2263 
Q 4303 1400 4413 641 
Q 4500 1075 4641 1638 
L 5359 4581 
L 5969 4581 
L 4713 0 
L 4128 0 
L 3163 3491 
Q 3041 3928 3019 4028 
Q 2947 3713 2884 3491 
L 1913 0 
L 1294 0 
z
" transform="scale(0.015625)"/>
       <path id="ArialMT-6f" d="M 213 1659 
Q 213 2581 725 3025 
Q 1153 3394 1769 3394 
Q 2453 3394 2887 2945 
Q 3322 2497 3322 1706 
Q 3322 1066 3130 698 
Q 2938 331 2570 128 
Q 2203 -75 1769 -75 
Q 1072 -75 642 372 
Q 213 819 213 1659 
z
M 791 1659 
Q 791 1022 1069 705 
Q 1347 388 1769 388 
Q 2188 388 2466 706 
Q 2744 1025 2744 1678 
Q 2744 2294 2464 2611 
Q 2184 2928 1769 2928 
Q 1347 2928 1069 2612 
Q 791 2297 791 1659 
z
" transform="scale(0.015625)"/>
       <path id="ArialMT-6c" d="M 409 0 
L 409 4581 
L 972 4581 
L 972 0 
L 409 0 
z
" transform="scale(0.015625)"/>
       <path id="ArialMT-76" d="M 1344 0 
L 81 3319 
L 675 3319 
L 1388 1331 
Q 1503 1009 1600 663 
Q 1675 925 1809 1294 
L 2547 3319 
L 3125 3319 
L 1869 0 
L 1344 0 
z
" transform="scale(0.015625)"/>
       <path id="ArialMT-73" d="M 197 991 
L 753 1078 
Q 800 744 1014 566 
Q 1228 388 1613 388 
Q 2000 388 2187 545 
Q 2375 703 2375 916 
Q 2375 1106 2209 1216 
Q 2094 1291 1634 1406 
Q 1016 1563 777 1677 
Q 538 1791 414 1992 
Q 291 2194 291 2438 
Q 291 2659 392 2848 
Q 494 3038 669 3163 
Q 800 3259 1026 3326 
Q 1253 3394 1513 3394 
Q 1903 3394 2198 3281 
Q 2494 3169 2634 2976 
Q 2775 2784 2828 2463 
L 2278 2388 
Q 2241 2644 2061 2787 
Q 1881 2931 1553 2931 
Q 1166 2931 1000 2803 
Q 834 2675 834 2503 
Q 834 2394 903 2306 
Q 972 2216 1119 2156 
Q 1203 2125 1616 2013 
Q 2213 1853 2448 1751 
Q 2684 1650 2818 1456 
Q 2953 1263 2953 975 
Q 2953 694 2789 445 
Q 2625 197 2315 61 
Q 2006 -75 1616 -75 
Q 969 -75 630 194 
Q 291 463 197 991 
z
" transform="scale(0.015625)"/>
      </defs>
      <use xlink:href="#ArialMT-57"/>
      <use xlink:href="#ArialMT-6f" x="92.634766"/>
      <use xlink:href="#ArialMT-6c" x="148.25"/>
      <use xlink:href="#ArialMT-76" x="170.466797"/>
      <use xlink:href="#ArialMT-65" x="220.466797"/>
      <use xlink:href="#ArialMT-73" x="276.082031"/>
     </g>
    </g>
   </g>
  </g>
 </g>
 <defs>
  <clipPath id="p37b2f94bf1">
   <rect x="56.450156" y="7.2" width="443.52" height="443.52"/>
  </clipPath>
 </defs>
</svg>
