<?xml version="1.0" encoding="utf-8" standalone="no"?>
<!DOCTYPE svg PUBLIC "-//W3C//DTD SVG 1.1//EN"
  "http://www.w3.org/Graphics/SVG/1.1/DTD/svg11.dtd">
<svg xmlns:xlink="http://www.w3.org/1999/xlink" width="507.170156pt" height="492.454219pt" viewBox="0 0 507.170156 492.454219" xmlns="http://www.w3.org/2000/svg" version="1.1">
 <metadata>
  <rdf:RDF xmlns:dc="http://purl.org/dc/elements/1.1/" xmlns:cc="http://creativecommons.org/ns#" xmlns:rdf="http://www.w3.org/1999/02/22-rdf-syntax-ns#">
   <cc:Work>
    <dc:type rdf:resource="http://purl.org/dc/dcmitype/StillImage"/>
    <dc:date>2026-05-12T10:49:56.213458</dc:date>
    <dc:format>image/svg+xml</dc:format>
    <dc:creator>
     <cc:Agent>
      <dc:title>Matplotlib v3.7.1, https://matplotlib.org/</dc:title>
     </cc:Agent>
    </dc:creator>
   </cc:Work>
  </rdf:RDF>
 </metadata>
 <defs>
  <style type="text/css">*{stroke-linejoin: round; stroke-linecap: butt}</style>
 </defs>
 <g id="figure_1">
  <g id="patch_1">
   <path d="M 0 492.454219 
L 507.170156 492.454219 
L 507.170156 0 
L 0 0 
z
" style="fill: #ffffff"/>
  </g>
  <g id="axes_1">
   <g id="patch_2">
    <path d="M 56.450156 450.72 
L 499.970156 450.72 
L 499.970156 7.2 
L 56.450156 7.2 
z
" style="fill: #eaeaf2"/>
   </g>
   <g id="matplotlib.axis_1">
    <g id="xtick_1">
     <g id="line2d_1">
      <path d="M 100.802156 450.72 
L 100.802156 7.2 
" clip-path="url(#p740578578a)" style="fill: none; stroke: #ffffff; stroke-linecap: round"/>
     </g>
     <g id="text_1">
      <!-- −400 -->
      <g style="fill: #262626" transform="translate(88.414266 468.093594) scale(0.11 -0.11)">
       <defs>
        <path id="ArialMT-2212" d="M 3381 1997 
L 356 1997 
L 356 2522 
L 3381 2522 
L 3381 1997 
z
" transform="scale(0.015625)"/>
        <path id="ArialMT-34" d="M 2069 0 
L 2069 1097 
L 81 1097 
L 81 1613 
L 2172 4581 
L 2631 4581 
L 2631 1613 
L 3250 1613 
L 3250 1097 
L 2631 1097 
L 2631 0 
L 2069 0 
z
M 2069 1613 
L 2069 3678 
L 634 1613 
L 2069 1613 
z
" transform="scale(0.015625)"/>
        <path id="ArialMT-30" d="M 266 2259 
Q 266 3072 433 3567 
Q 600 4063 929 4331 
Q 1259 4600 1759 4600 
Q 2128 4600 2406 4451 
Q 2684 4303 2865 4023 
Q 3047 3744 3150 3342 
Q 3253 2941 3253 2259 
Q 3253 1453 3087 958 
Q 2922 463 2592 192 
Q 2263 -78 1759 -78 
Q 1097 -78 719 397 
Q 266 969 266 2259 
z
M 844 2259 
Q 844 1131 1108 757 
Q 1372 384 1759 384 
Q 2147 384 2411 759 
Q 2675 1134 2675 2259 
Q 2675 3391 2411 3762 
Q 2147 4134 1753 4134 
Q 1366 4134 1134 3806 
Q 844 3388 844 2259 
z
" transform="scale(0.015625)"/>
       </defs>
       <use xlink:href="#ArialMT-2212"/>
       <use xlink:href="#ArialMT-34" x="58.398438"/>
       <use xlink:href="#ArialMT-30" x="114.013672"/>
       <use xlink:href="#ArialMT-30" x="169.628906"/>
      </g>
     </g>
    </g>
    <g id="xtick_2">
     <g id="line2d_2">
      <path d="M 189.506156 450.72 
L 189.506156 7.2 
" clip-path="url(#p740578578a)" style="fill: none; stroke: #ffffff; stroke-linecap: round"/>
     </g>
     <g id="text_2">
      <!-- −200 -->
      <g style="fill: #262626" transform="translate(177.118266 468.093594) scale(0.11 -0.11)">
       <defs>
        <path id="ArialMT-32" d="M 3222 541 
L 3222 0 
L 194 0 
Q 188 203 259 391 
Q 375 700 629 1000 
Q 884 1300 1366 1694 
Q 2113 2306 2375 2664 
Q 2638 3022 2638 3341 
Q 2638 3675 2398 3904 
Q 2159 4134 1775 4134 
Q 1369 4134 1125 3890 
Q 881 3647 878 3216 
L 300 3275 
Q 359 3922 746 4261 
Q 1134 4600 1788 4600 
Q 2447 4600 2831 4234 
Q 3216 3869 3216 3328 
Q 3216 3053 3103 2787 
Q 2991 2522 2730 2228 
Q 2469 1934 1863 1422 
Q 1356 997 1212 845 
Q 1069 694 975 541 
L 3222 541 
z
" transform="scale(0.015625)"/>
       </defs>
       <use xlink:href="#ArialMT-2212"/>
       <use xlink:href="#ArialMT-32" x="58.398438"/>
       <use xlink:href="#ArialMT-30" x="114.013672"/>
       <use xlink:href="#ArialMT-30" x="169.628906"/>
      </g>
     </g>
    </g>
    <g id="xtick_3">
     <g id="line2d_3">
      <path d="M 278.210156 450.72 
L 278.210156 7.2 
" clip-path="url(#p740578578a)" style="fill: none; stroke: #ffffff; stroke-linecap: round"/>
     </g>
     <g id="text_3">
      <!-- 0 -->
      <g style="fill: #262626" transform="translate(275.151641 468.093594) scale(0.11 -0.11)">
       <use xlink:href="#ArialMT-30"/>
      </g>
     </g>
    </g>
    <g id="xtick_4">
     <g id="line2d_4">
      <path d="M 366.914156 450.72 
L 366.914156 7.2 
" clip-path="url(#p740578578a)" style="fill: none; stroke: #ffffff; stroke-linecap: round"/>
     </g>
     <g id="text_4">
      <!-- 200 -->
      <g style="fill: #262626" transform="translate(357.738609 468.093594) scale(0.11 -0.11)">
       <use xlink:href="#ArialMT-32"/>
       <use xlink:href="#ArialMT-30" x="55.615234"/>
       <use xlink:href="#ArialMT-30" x="111.230469"/>
      </g>
     </g>
    </g>
    <g id="xtick_5">
     <g id="line2d_5">
      <path d="M 455.618156 450.72 
L 455.618156 7.2 
" clip-path="url(#p740578578a)" style="fill: none; stroke: #ffffff; stroke-linecap: round"/>
     </g>
     <g id="text_5">
      <!-- 400 -->
      <g style="fill: #262626" transform="translate(446.442609 468.093594) scale(0.11 -0.11)">
       <use xlink:href="#ArialMT-34"/>
       <use xlink:href="#ArialMT-30" x="55.615234"/>
       <use xlink:href="#ArialMT-30" x="111.230469"/>
      </g>
     </g>
    </g>
    <g id="text_6">
     <!-- x -->
     <g style="fill: #262626" transform="translate(275.210156 482.869219) scale(0.12 -0.12)">
      <defs>
       <path id="ArialMT-78" d="M 47 0 
L 1259 1725 
L 138 3319 
L 841 3319 
L 1350 2541 
Q 1494 2319 1581 2169 
Q 1719 2375 1834 2534 
L 2394 3319 
L 3066 3319 
L 1919 1756 
L 3153 0 
L 2463 0 
L 1781 1031 
L 1600 1309 
L 728 0 
L 47 0 
z
" transform="scale(0.015625)"/>
      </defs>
      <use xlink:href="#ArialMT-78"/>
     </g>
    </g>
   </g>
   <g id="matplotlib.axis_2">
    <g id="ytick_1">
     <g id="line2d_6">
      <path d="M 56.450156 406.368 
L 499.970156 406.368 
" clip-path="url(#p740578578a)" style="fill: none; stroke: #ffffff; stroke-linecap: round"/>
     </g>
     <g id="text_7">
      <!-- −400 -->
      <g style="fill: #262626" transform="translate(22.174375 410.304797) scale(0.11 -0.11)">
       <use xlink:href="#ArialMT-2212"/>
       <use xlink:href="#ArialMT-34" x="58.398438"/>
       <use xlink:href="#ArialMT-30" x="114.013672"/>
       <use xlink:href="#ArialMT-30" x="169.628906"/>
      </g>
     </g>
    </g>
    <g id="ytick_2">
     <g id="line2d_7">
      <path d="M 56.450156 317.664 
L 499.970156 317.664 
" clip-path="url(#p740578578a)" style="fill: none; stroke: #ffffff; stroke-linecap: round"/>
     </g>
     <g id="text_8">
      <!-- −200 -->
      <g style="fill: #262626" transform="translate(22.174375 321.600797) scale(0.11 -0.11)">
       <use xlink:href="#ArialMT-2212"/>
       <use xlink:href="#ArialMT-32" x="58.398438"/>
       <use xlink:href="#ArialMT-30" x="114.013672"/>
       <use xlink:href="#ArialMT-30" x="169.628906"/>
      </g>
     </g>
    </g>
    <g id="ytick_3">
     <g id="line2d_8">
      <path d="M 56.450156 228.96 
L 499.970156 228.96 
" clip-path="url(#p740578578a)" style="fill: none; stroke: #ffffff; stroke-linecap: round"/>
     </g>
     <g id="text_9">
      <!-- 0 -->
      <g style="fill: #262626" transform="translate(40.833125 232.896797) scale(0.11 -0.11)">
       <use xlink:href="#ArialMT-30"/>
      </g>
     </g>
    </g>
    <g id="ytick_4">
     <g id="line2d_9">
      <path d="M 56.450156 140.256 
L 499.970156 140.256 
" clip-path="url(#p740578578a)" style="fill: none; stroke: #ffffff; stroke-linecap: round"/>
     </g>
     <g id="text_10">
      <!-- 200 -->
      <g style="fill: #262626" transform="translate(28.599063 144.192797) scale(0.11 -0.11)">
       <use xlink:href="#ArialMT-32"/>
       <use xlink:href="#ArialMT-30" x="55.615234"/>
       <use xlink:href="#ArialMT-30" x="111.230469"/>
      </g>
     </g>
    </g>
    <g id="ytick_5">
     <g id="line2d_10">
      <path d="M 56.450156 51.552 
L 499.970156 51.552 
" clip-path="url(#p740578578a)" style="fill: none; stroke: #ffffff; stroke-linecap: round"/>
     </g>
     <g id="text_11">
      <!-- 400 -->
      <g style="fill: #262626" transform="translate(28.599063 55.488797) scale(0.11 -0.11)">
       <use xlink:href="#ArialMT-34"/>
       <use xlink:href="#ArialMT-30" x="55.615234"/>
       <use xlink:href="#ArialMT-30" x="111.230469"/>
      </g>
     </g>
    </g>
    <g id="text_12">
     <!-- y -->
     <g style="fill: #262626" transform="translate(15.64875 231.96) rotate(-90) scale(0.12 -0.12)">
      <defs>
       <path id="ArialMT-79" d="M 397 -1278 
L 334 -750 
Q 519 -800 656 -800 
Q 844 -800 956 -737 
Q 1069 -675 1141 -563 
Q 1194 -478 1313 -144 
Q 1328 -97 1363 -6 
L 103 3319 
L 709 3319 
L 1400 1397 
Q 1534 1031 1641 628 
Q 1738 1016 1872 1384 
L 2581 3319 
L 3144 3319 
L 1881 -56 
Q 1678 -603 1566 -809 
Q 1416 -1088 1222 -1217 
Q 1028 -1347 759 -1347 
Q 597 -1347 397 -1278 
z
" transform="scale(0.015625)"/>
      </defs>
      <use xlink:href="#ArialMT-79"/>
     </g>
    </g>
   </g>
   <g id="patch_3">
    <path d="M 278.210156 317.664 
C 301.734732 317.664 324.298969 308.317587 340.933356 291.6832 
C 357.567743 275.048813 366.914156 252.484576 366.914156 228.96 
C 366.914156 205.435424 357.567743 182.871187 340.933356 166.2368 
C 324.298969 149.602413 301.734732 140.256 278.210156 140.256 
C 254.68558 140.256 232.121343 149.602413 215.486956 166.2368 
C 198.852569 182.871187 189.506156 205.435424 189.506156 228.96 
C 189.506156 252.484576 198.852569 275.048813 215.486956 291.6832 
C 232.121343 308.317587 254.68558 317.664 278.210156 317.664 
z
" clip-path="url(#p740578578a)" style="fill: #228b22; opacity: 0.12; stroke: #228b22; stroke-width: 1.5; stroke-linejoin: miter"/>
   </g>
   <g id="PathCollection_1">
    <defs>
     <path id="m208d944d31" d="M 0 2.236068 
C 0.593012 2.236068 1.161816 2.000462 1.581139 1.581139 
C 2.000462 1.161816 2.236068 0.593012 2.236068 0 
C 2.236068 -0.593012 2.000462 -1.161816 1.581139 -1.581139 
C 1.161816 -2.000462 0.593012 -2.236068 0 -2.236068 
C -0.593012 -2.236068 -1.161816 -2.000462 -1.581139 -1.581139 
C -2.000462 -1.161816 -2.236068 -0.593012 -2.236068 0 
C -2.236068 0.593012 -2.000462 1.161816 -1.581139 1.581139 
C -1.161816 2.000462 -0.593012 2.236068 0 2.236068 
z
" style="stroke: #4169e1"/>
    </defs>
    <g clip-path="url(#p740578578a)">
     <use xlink:href="#m208d944d31" x="181.700242" y="267.8999" style="fill: #4169e1; stroke: #4169e1"/>
     <use xlink:href="#m208d944d31" x="248.109722" y="276.154829" style="fill: #4169e1; stroke: #4169e1"/>
     <use xlink:href="#m208d944d31" x="236.806431" y="317.748777" style="fill: #4169e1; stroke: #4169e1"/>
     <use xlink:href="#m208d944d31" x="331.840032" y="139.851529" style="fill: #4169e1; stroke: #4169e1"/>
     <use xlink:href="#m208d944d31" x="286.007338" y="310.563944" style="fill: #4169e1; stroke: #4169e1"/>
     <use xlink:href="#m208d944d31" x="257.9688" y="222.950126" style="fill: #4169e1; stroke: #4169e1"/>
     <use xlink:href="#m208d944d31" x="409.370788" y="291.054776" style="fill: #4169e1; stroke: #4169e1"/>
     <use xlink:href="#m208d944d31" x="263.500583" y="244.924952" style="fill: #4169e1; stroke: #4169e1"/>
     <use xlink:href="#m208d944d31" x="258.861021" y="266.750995" style="fill: #4169e1; stroke: #4169e1"/>
     <use xlink:href="#m208d944d31" x="215.496702" y="196.592508" style="fill: #4169e1; stroke: #4169e1"/>
     <use xlink:href="#m208d944d31" x="266.379304" y="173.548661" style="fill: #4169e1; stroke: #4169e1"/>
     <use xlink:href="#m208d944d31" x="319.382745" y="178.107298" style="fill: #4169e1; stroke: #4169e1"/>
     <use xlink:href="#m208d944d31" x="340.12595" y="81.614719" style="fill: #4169e1; stroke: #4169e1"/>
     <use xlink:href="#m208d944d31" x="359.796999" y="305.150369" style="fill: #4169e1; stroke: #4169e1"/>
     <use xlink:href="#m208d944d31" x="380.403225" y="161.693163" style="fill: #4169e1; stroke: #4169e1"/>
     <use xlink:href="#m208d944d31" x="379.28244" y="232.43994" style="fill: #4169e1; stroke: #4169e1"/>
     <use xlink:href="#m208d944d31" x="196.710439" y="275.991382" style="fill: #4169e1; stroke: #4169e1"/>
     <use xlink:href="#m208d944d31" x="286.162521" y="257.555325" style="fill: #4169e1; stroke: #4169e1"/>
     <use xlink:href="#m208d944d31" x="241.077859" y="246.395053" style="fill: #4169e1; stroke: #4169e1"/>
     <use xlink:href="#m208d944d31" x="350.592741" y="217.279304" style="fill: #4169e1; stroke: #4169e1"/>
     <use xlink:href="#m208d944d31" x="441.139762" y="101.307925" style="fill: #4169e1; stroke: #4169e1"/>
     <use xlink:href="#m208d944d31" x="215.172819" y="306.130741" style="fill: #4169e1; stroke: #4169e1"/>
     <use xlink:href="#m208d944d31" x="317.223275" y="365.805262" style="fill: #4169e1; stroke: #4169e1"/>
     <use xlink:href="#m208d944d31" x="250.931478" y="253.027734" style="fill: #4169e1; stroke: #4169e1"/>
     <use xlink:href="#m208d944d31" x="216.421295" y="304.279781" style="fill: #4169e1; stroke: #4169e1"/>
     <use xlink:href="#m208d944d31" x="440.272267" y="263.026439" style="fill: #4169e1; stroke: #4169e1"/>
     <use xlink:href="#m208d944d31" x="403.070538" y="222.114509" style="fill: #4169e1; stroke: #4169e1"/>
     <use xlink:href="#m208d944d31" x="386.269477" y="97.453072" style="fill: #4169e1; stroke: #4169e1"/>
     <use xlink:href="#m208d944d31" x="344.022492" y="194.714972" style="fill: #4169e1; stroke: #4169e1"/>
     <use xlink:href="#m208d944d31" x="309.778208" y="293.935653" style="fill: #4169e1; stroke: #4169e1"/>
     <use xlink:href="#m208d944d31" x="334.356664" y="323.075288" style="fill: #4169e1; stroke: #4169e1"/>
     <use xlink:href="#m208d944d31" x="363.920254" y="141.529672" style="fill: #4169e1; stroke: #4169e1"/>
     <use xlink:href="#m208d944d31" x="231.559792" y="244.547275" style="fill: #4169e1; stroke: #4169e1"/>
     <use xlink:href="#m208d944d31" x="253.032937" y="331.419427" style="fill: #4169e1; stroke: #4169e1"/>
     <use xlink:href="#m208d944d31" x="216.983769" y="299.610044" style="fill: #4169e1; stroke: #4169e1"/>
     <use xlink:href="#m208d944d31" x="264.555461" y="294.796069" style="fill: #4169e1; stroke: #4169e1"/>
     <use xlink:href="#m208d944d31" x="354.588671" y="187.8839" style="fill: #4169e1; stroke: #4169e1"/>
     <use xlink:href="#m208d944d31" x="203.843805" y="94.49763" style="fill: #4169e1; stroke: #4169e1"/>
     <use xlink:href="#m208d944d31" x="354.44645" y="247.800318" style="fill: #4169e1; stroke: #4169e1"/>
     <use xlink:href="#m208d944d31" x="440.472438" y="206.392969" style="fill: #4169e1; stroke: #4169e1"/>
     <use xlink:href="#m208d944d31" x="325.970427" y="184.458227" style="fill: #4169e1; stroke: #4169e1"/>
     <use xlink:href="#m208d944d31" x="358.498862" y="88.628258" style="fill: #4169e1; stroke: #4169e1"/>
     <use xlink:href="#m208d944d31" x="220.809447" y="302.237685" style="fill: #4169e1; stroke: #4169e1"/>
     <use xlink:href="#m208d944d31" x="316.31381" y="121.136455" style="fill: #4169e1; stroke: #4169e1"/>
     <use xlink:href="#m208d944d31" x="321.768776" y="212.707873" style="fill: #4169e1; stroke: #4169e1"/>
     <use xlink:href="#m208d944d31" x="392.084485" y="107.000987" style="fill: #4169e1; stroke: #4169e1"/>
     <use xlink:href="#m208d944d31" x="420.590864" y="100.576349" style="fill: #4169e1; stroke: #4169e1"/>
     <use xlink:href="#m208d944d31" x="380.018211" y="118.81724" style="fill: #4169e1; stroke: #4169e1"/>
     <use xlink:href="#m208d944d31" x="382.202589" y="298.937827" style="fill: #4169e1; stroke: #4169e1"/>
     <use xlink:href="#m208d944d31" x="385.952497" y="61.548836" style="fill: #4169e1; stroke: #4169e1"/>
     <use xlink:href="#m208d944d31" x="221.284341" y="253.376955" style="fill: #4169e1; stroke: #4169e1"/>
     <use xlink:href="#m208d944d31" x="424.586185" y="183.779408" style="fill: #4169e1; stroke: #4169e1"/>
     <use xlink:href="#m208d944d31" x="268.598574" y="226.485327" style="fill: #4169e1; stroke: #4169e1"/>
     <use xlink:href="#m208d944d31" x="458.339129" y="287.848318" style="fill: #4169e1; stroke: #4169e1"/>
     <use xlink:href="#m208d944d31" x="260.968132" y="250.098229" style="fill: #4169e1; stroke: #4169e1"/>
     <use xlink:href="#m208d944d31" x="187.071594" y="279.451821" style="fill: #4169e1; stroke: #4169e1"/>
     <use xlink:href="#m208d944d31" x="318.169257" y="186.21018" style="fill: #4169e1; stroke: #4169e1"/>
     <use xlink:href="#m208d944d31" x="450.656831" y="257.259714" style="fill: #4169e1; stroke: #4169e1"/>
     <use xlink:href="#m208d944d31" x="312.140627" y="153.627313" style="fill: #4169e1; stroke: #4169e1"/>
     <use xlink:href="#m208d944d31" x="190.593794" y="153.550102" style="fill: #4169e1; stroke: #4169e1"/>
     <use xlink:href="#m208d944d31" x="322.878547" y="295.71958" style="fill: #4169e1; stroke: #4169e1"/>
     <use xlink:href="#m208d944d31" x="348.706326" y="114.982317" style="fill: #4169e1; stroke: #4169e1"/>
     <use xlink:href="#m208d944d31" x="342.50472" y="200.001232" style="fill: #4169e1; stroke: #4169e1"/>
     <use xlink:href="#m208d944d31" x="246.350188" y="247.659125" style="fill: #4169e1; stroke: #4169e1"/>
     <use xlink:href="#m208d944d31" x="253.442791" y="230.472895" style="fill: #4169e1; stroke: #4169e1"/>
     <use xlink:href="#m208d944d31" x="346.672127" y="162.741657" style="fill: #4169e1; stroke: #4169e1"/>
     <use xlink:href="#m208d944d31" x="304.548914" y="252.70668" style="fill: #4169e1; stroke: #4169e1"/>
     <use xlink:href="#m208d944d31" x="348.74392" y="156.358227" style="fill: #4169e1; stroke: #4169e1"/>
     <use xlink:href="#m208d944d31" x="215.551627" y="243.34722" style="fill: #4169e1; stroke: #4169e1"/>
     <use xlink:href="#m208d944d31" x="416.098126" y="308.867069" style="fill: #4169e1; stroke: #4169e1"/>
     <use xlink:href="#m208d944d31" x="447.985736" y="271.600591" style="fill: #4169e1; stroke: #4169e1"/>
     <use xlink:href="#m208d944d31" x="325.620682" y="165.217522" style="fill: #4169e1; stroke: #4169e1"/>
     <use xlink:href="#m208d944d31" x="392.876427" y="184.845623" style="fill: #4169e1; stroke: #4169e1"/>
     <use xlink:href="#m208d944d31" x="303.10667" y="240.445269" style="fill: #4169e1; stroke: #4169e1"/>
     <use xlink:href="#m208d944d31" x="296.349688" y="255.645868" style="fill: #4169e1; stroke: #4169e1"/>
     <use xlink:href="#m208d944d31" x="337.312431" y="266.839174" style="fill: #4169e1; stroke: #4169e1"/>
     <use xlink:href="#m208d944d31" x="392.491798" y="300.056372" style="fill: #4169e1; stroke: #4169e1"/>
     <use xlink:href="#m208d944d31" x="152.51119" y="314.58419" style="fill: #4169e1; stroke: #4169e1"/>
     <use xlink:href="#m208d944d31" x="237.379266" y="324.720493" style="fill: #4169e1; stroke: #4169e1"/>
     <use xlink:href="#m208d944d31" x="468.589303" y="260.567635" style="fill: #4169e1; stroke: #4169e1"/>
     <use xlink:href="#m208d944d31" x="339.045168" y="155.769908" style="fill: #4169e1; stroke: #4169e1"/>
     <use xlink:href="#m208d944d31" x="325.87179" y="281.367367" style="fill: #4169e1; stroke: #4169e1"/>
     <use xlink:href="#m208d944d31" x="344.885744" y="169.053419" style="fill: #4169e1; stroke: #4169e1"/>
     <use xlink:href="#m208d944d31" x="439.405827" y="114.081891" style="fill: #4169e1; stroke: #4169e1"/>
     <use xlink:href="#m208d944d31" x="389.668405" y="264.005484" style="fill: #4169e1; stroke: #4169e1"/>
     <use xlink:href="#m208d944d31" x="473.495431" y="221.93684" style="fill: #4169e1; stroke: #4169e1"/>
     <use xlink:href="#m208d944d31" x="302.780815" y="93.461283" style="fill: #4169e1; stroke: #4169e1"/>
     <use xlink:href="#m208d944d31" x="446.031814" y="208.672587" style="fill: #4169e1; stroke: #4169e1"/>
     <use xlink:href="#m208d944d31" x="393.498489" y="115.218492" style="fill: #4169e1; stroke: #4169e1"/>
     <use xlink:href="#m208d944d31" x="309.715635" y="189.90966" style="fill: #4169e1; stroke: #4169e1"/>
     <use xlink:href="#m208d944d31" x="369.142395" y="299.80181" style="fill: #4169e1; stroke: #4169e1"/>
     <use xlink:href="#m208d944d31" x="348.022462" y="289.245978" style="fill: #4169e1; stroke: #4169e1"/>
     <use xlink:href="#m208d944d31" x="301.192114" y="249.026752" style="fill: #4169e1; stroke: #4169e1"/>
     <use xlink:href="#m208d944d31" x="198.311824" y="246.665272" style="fill: #4169e1; stroke: #4169e1"/>
     <use xlink:href="#m208d944d31" x="267.356533" y="242.424248" style="fill: #4169e1; stroke: #4169e1"/>
     <use xlink:href="#m208d944d31" x="394.723529" y="215.313643" style="fill: #4169e1; stroke: #4169e1"/>
     <use xlink:href="#m208d944d31" x="296.6326" y="273.157689" style="fill: #4169e1; stroke: #4169e1"/>
     <use xlink:href="#m208d944d31" x="449.122865" y="156.401905" style="fill: #4169e1; stroke: #4169e1"/>
     <use xlink:href="#m208d944d31" x="457.226823" y="208.01932" style="fill: #4169e1; stroke: #4169e1"/>
     <use xlink:href="#m208d944d31" x="329.902928" y="162.026351" style="fill: #4169e1; stroke: #4169e1"/>
     <use xlink:href="#m208d944d31" x="235.580809" y="300.045362" style="fill: #4169e1; stroke: #4169e1"/>
     <use xlink:href="#m208d944d31" x="275.394454" y="76.883478" style="fill: #4169e1; stroke: #4169e1"/>
     <use xlink:href="#m208d944d31" x="355.071632" y="177.361555" style="fill: #4169e1; stroke: #4169e1"/>
     <use xlink:href="#m208d944d31" x="385.032222" y="240.298478" style="fill: #4169e1; stroke: #4169e1"/>
     <use xlink:href="#m208d944d31" x="222.108023" y="270.128098" style="fill: #4169e1; stroke: #4169e1"/>
     <use xlink:href="#m208d944d31" x="354.116449" y="112.584158" style="fill: #4169e1; stroke: #4169e1"/>
     <use xlink:href="#m208d944d31" x="299.980051" y="271.521593" style="fill: #4169e1; stroke: #4169e1"/>
     <use xlink:href="#m208d944d31" x="419.809073" y="280.332574" style="fill: #4169e1; stroke: #4169e1"/>
     <use xlink:href="#m208d944d31" x="330.003948" y="100.653419" style="fill: #4169e1; stroke: #4169e1"/>
     <use xlink:href="#m208d944d31" x="234.230786" y="316.364293" style="fill: #4169e1; stroke: #4169e1"/>
     <use xlink:href="#m208d944d31" x="208.169871" y="209.463059" style="fill: #4169e1; stroke: #4169e1"/>
     <use xlink:href="#m208d944d31" x="337.961191" y="235.12312" style="fill: #4169e1; stroke: #4169e1"/>
     <use xlink:href="#m208d944d31" x="215.812612" y="227.111606" style="fill: #4169e1; stroke: #4169e1"/>
     <use xlink:href="#m208d944d31" x="360.939637" y="311.236222" style="fill: #4169e1; stroke: #4169e1"/>
     <use xlink:href="#m208d944d31" x="452.443201" y="105.054659" style="fill: #4169e1; stroke: #4169e1"/>
     <use xlink:href="#m208d944d31" x="228.138409" y="247.664603" style="fill: #4169e1; stroke: #4169e1"/>
     <use xlink:href="#m208d944d31" x="219.495014" y="257.818699" style="fill: #4169e1; stroke: #4169e1"/>
     <use xlink:href="#m208d944d31" x="221.840474" y="200.419025" style="fill: #4169e1; stroke: #4169e1"/>
     <use xlink:href="#m208d944d31" x="406.826273" y="127.322434" style="fill: #4169e1; stroke: #4169e1"/>
     <use xlink:href="#m208d944d31" x="324.998271" y="247.403716" style="fill: #4169e1; stroke: #4169e1"/>
     <use xlink:href="#m208d944d31" x="423.255909" y="207.452992" style="fill: #4169e1; stroke: #4169e1"/>
     <use xlink:href="#m208d944d31" x="314.931942" y="101.212258" style="fill: #4169e1; stroke: #4169e1"/>
     <use xlink:href="#m208d944d31" x="176.517644" y="278.308686" style="fill: #4169e1; stroke: #4169e1"/>
     <use xlink:href="#m208d944d31" x="438.695002" y="157.847006" style="fill: #4169e1; stroke: #4169e1"/>
     <use xlink:href="#m208d944d31" x="372.8268" y="267.513258" style="fill: #4169e1; stroke: #4169e1"/>
     <use xlink:href="#m208d944d31" x="278.343724" y="212.941434" style="fill: #4169e1; stroke: #4169e1"/>
     <use xlink:href="#m208d944d31" x="253.410678" y="318.710606" style="fill: #4169e1; stroke: #4169e1"/>
     <use xlink:href="#m208d944d31" x="371.911302" y="182.467848" style="fill: #4169e1; stroke: #4169e1"/>
     <use xlink:href="#m208d944d31" x="325.654456" y="281.708764" style="fill: #4169e1; stroke: #4169e1"/>
     <use xlink:href="#m208d944d31" x="411.271855" y="201.108294" style="fill: #4169e1; stroke: #4169e1"/>
     <use xlink:href="#m208d944d31" x="434.040938" y="244.536107" style="fill: #4169e1; stroke: #4169e1"/>
     <use xlink:href="#m208d944d31" x="396.889641" y="326.011144" style="fill: #4169e1; stroke: #4169e1"/>
     <use xlink:href="#m208d944d31" x="413.265109" y="249.076284" style="fill: #4169e1; stroke: #4169e1"/>
     <use xlink:href="#m208d944d31" x="403.439601" y="190.429356" style="fill: #4169e1; stroke: #4169e1"/>
     <use xlink:href="#m208d944d31" x="452.763267" y="134.83542" style="fill: #4169e1; stroke: #4169e1"/>
     <use xlink:href="#m208d944d31" x="341.815523" y="266.101944" style="fill: #4169e1; stroke: #4169e1"/>
     <use xlink:href="#m208d944d31" x="340.699902" y="95.736949" style="fill: #4169e1; stroke: #4169e1"/>
     <use xlink:href="#m208d944d31" x="425.644864" y="235.384931" style="fill: #4169e1; stroke: #4169e1"/>
     <use xlink:href="#m208d944d31" x="371.706799" y="261.518967" style="fill: #4169e1; stroke: #4169e1"/>
     <use xlink:href="#m208d944d31" x="205.916823" y="253.963964" style="fill: #4169e1; stroke: #4169e1"/>
     <use xlink:href="#m208d944d31" x="181.107531" y="196.470417" style="fill: #4169e1; stroke: #4169e1"/>
     <use xlink:href="#m208d944d31" x="168.731911" y="150.308574" style="fill: #4169e1; stroke: #4169e1"/>
     <use xlink:href="#m208d944d31" x="217.896092" y="257.36163" style="fill: #4169e1; stroke: #4169e1"/>
     <use xlink:href="#m208d944d31" x="258.917013" y="299.393948" style="fill: #4169e1; stroke: #4169e1"/>
     <use xlink:href="#m208d944d31" x="335.52194" y="181.579817" style="fill: #4169e1; stroke: #4169e1"/>
     <use xlink:href="#m208d944d31" x="258.468953" y="215.00614" style="fill: #4169e1; stroke: #4169e1"/>
     <use xlink:href="#m208d944d31" x="313.790546" y="150.037005" style="fill: #4169e1; stroke: #4169e1"/>
     <use xlink:href="#m208d944d31" x="307.096498" y="104.063764" style="fill: #4169e1; stroke: #4169e1"/>
     <use xlink:href="#m208d944d31" x="274.739112" y="223.494598" style="fill: #4169e1; stroke: #4169e1"/>
     <use xlink:href="#m208d944d31" x="271.479806" y="308.727393" style="fill: #4169e1; stroke: #4169e1"/>
     <use xlink:href="#m208d944d31" x="407.737338" y="265.202909" style="fill: #4169e1; stroke: #4169e1"/>
     <use xlink:href="#m208d944d31" x="264.830477" y="341.510516" style="fill: #4169e1; stroke: #4169e1"/>
     <use xlink:href="#m208d944d31" x="313.405741" y="165.447991" style="fill: #4169e1; stroke: #4169e1"/>
     <use xlink:href="#m208d944d31" x="385.122501" y="264.216514" style="fill: #4169e1; stroke: #4169e1"/>
     <use xlink:href="#m208d944d31" x="285.234985" y="324.541152" style="fill: #4169e1; stroke: #4169e1"/>
     <use xlink:href="#m208d944d31" x="353.343152" y="221.586573" style="fill: #4169e1; stroke: #4169e1"/>
     <use xlink:href="#m208d944d31" x="449.708748" y="282.570321" style="fill: #4169e1; stroke: #4169e1"/>
     <use xlink:href="#m208d944d31" x="459.536273" y="193.824203" style="fill: #4169e1; stroke: #4169e1"/>
     <use xlink:href="#m208d944d31" x="337.587926" y="175.833859" style="fill: #4169e1; stroke: #4169e1"/>
     <use xlink:href="#m208d944d31" x="444.180584" y="219.233853" style="fill: #4169e1; stroke: #4169e1"/>
     <use xlink:href="#m208d944d31" x="435.146192" y="291.285517" style="fill: #4169e1; stroke: #4169e1"/>
     <use xlink:href="#m208d944d31" x="290.733695" y="337.958884" style="fill: #4169e1; stroke: #4169e1"/>
    </g>
   </g>
   <g id="PathCollection_2">
    <defs>
     <path id="mc030cddc67" d="M 0 2.5 
C 0.663008 2.5 1.29895 2.236584 1.767767 1.767767 
C 2.236584 1.29895 2.5 0.663008 2.5 0 
C 2.5 -0.663008 2.236584 -1.29895 1.767767 -1.767767 
C 1.29895 -2.236584 0.663008 -2.5 0 -2.5 
C -0.663008 -2.5 -1.29895 -2.236584 -1.767767 -1.767767 
C -2.236584 -1.29895 -2.5 -0.663008 -2.5 0 
C -2.5 0.663008 -2.236584 1.29895 -1.767767 1.767767 
C -1.29895 2.236584 -0.663008 2.5 0 2.5 
z
" style="stroke: #b22222"/>
    </defs>
    <g clip-path="url(#p740578578a)">
     <use xlink:href="#mc030cddc67" x="279.01106" y="192.019679" style="fill: #b22222; stroke: #b22222"/>
     <use xlink:href="#mc030cddc67" x="326.521203" y="224.863819" style="fill: #b22222; stroke: #b22222"/>
     <use xlink:href="#mc030cddc67" x="236.882533" y="162.697946" style="fill: #b22222; stroke: #b22222"/>
     <use xlink:href="#mc030cddc67" x="328.228206" y="230.73473" style="fill: #b22222; stroke: #b22222"/>
     <use xlink:href="#mc030cddc67" x="257.792659" y="178.162068" style="fill: #b22222; stroke: #b22222"/>
     <use xlink:href="#mc030cddc67" x="286.496172" y="193.574605" style="fill: #b22222; stroke: #b22222"/>
     <use xlink:href="#mc030cddc67" x="324.385626" y="224.182017" style="fill: #b22222; stroke: #b22222"/>
     <use xlink:href="#mc030cddc67" x="232.12792" y="158.417926" style="fill: #b22222; stroke: #b22222"/>
     <use xlink:href="#mc030cddc67" x="314.87214" y="206.877396" style="fill: #b22222; stroke: #b22222"/>
     <use xlink:href="#mc030cddc67" x="319.276944" y="210.016324" style="fill: #b22222; stroke: #b22222"/>
     <use xlink:href="#mc030cddc67" x="315.632491" y="209.493576" style="fill: #b22222; stroke: #b22222"/>
     <use xlink:href="#mc030cddc67" x="225.728011" y="147.854677" style="fill: #b22222; stroke: #b22222"/>
     <use xlink:href="#mc030cddc67" x="259.626991" y="171.42266" style="fill: #b22222; stroke: #b22222"/>
     <use xlink:href="#mc030cddc67" x="59.423925" y="131.431762" style="fill: #b22222; stroke: #b22222"/>
     <use xlink:href="#mc030cddc67" x="232.187123" y="153.965212" style="fill: #b22222; stroke: #b22222"/>
     <use xlink:href="#mc030cddc67" x="254.666363" y="167.507819" style="fill: #b22222; stroke: #b22222"/>
     <use xlink:href="#mc030cddc67" x="316.529266" y="249.482774" style="fill: #b22222; stroke: #b22222"/>
     <use xlink:href="#mc030cddc67" x="235.137147" y="150.746057" style="fill: #b22222; stroke: #b22222"/>
     <use xlink:href="#mc030cddc67" x="252.828585" y="178.311963" style="fill: #b22222; stroke: #b22222"/>
     <use xlink:href="#mc030cddc67" x="270.862652" y="194.580835" style="fill: #b22222; stroke: #b22222"/>
     <use xlink:href="#mc030cddc67" x="277.804981" y="197.680816" style="fill: #b22222; stroke: #b22222"/>
     <use xlink:href="#mc030cddc67" x="240.382453" y="171.589196" style="fill: #b22222; stroke: #b22222"/>
     <use xlink:href="#mc030cddc67" x="225.49613" y="147.785614" style="fill: #b22222; stroke: #b22222"/>
     <use xlink:href="#mc030cddc67" x="324.442217" y="224.660757" style="fill: #b22222; stroke: #b22222"/>
     <use xlink:href="#mc030cddc67" x="283.622912" y="195.196451" style="fill: #b22222; stroke: #b22222"/>
     <use xlink:href="#mc030cddc67" x="325.003232" y="193.651149" style="fill: #b22222; stroke: #b22222"/>
     <use xlink:href="#mc030cddc67" x="243.129234" y="150.394164" style="fill: #b22222; stroke: #b22222"/>
     <use xlink:href="#mc030cddc67" x="327.141465" y="231.775005" style="fill: #b22222; stroke: #b22222"/>
     <use xlink:href="#mc030cddc67" x="322.126818" y="233.992899" style="fill: #b22222; stroke: #b22222"/>
     <use xlink:href="#mc030cddc67" x="318.526318" y="226.451467" style="fill: #b22222; stroke: #b22222"/>
     <use xlink:href="#mc030cddc67" x="330.681768" y="241.895264" style="fill: #b22222; stroke: #b22222"/>
     <use xlink:href="#mc030cddc67" x="255.21177" y="178.352328" style="fill: #b22222; stroke: #b22222"/>
     <use xlink:href="#mc030cddc67" x="255.295008" y="161.997021" style="fill: #b22222; stroke: #b22222"/>
     <use xlink:href="#mc030cddc67" x="330.353984" y="239.52252" style="fill: #b22222; stroke: #b22222"/>
     <use xlink:href="#mc030cddc67" x="234.344921" y="148.802199" style="fill: #b22222; stroke: #b22222"/>
     <use xlink:href="#mc030cddc67" x="267.326733" y="120.905647" style="fill: #b22222; stroke: #b22222"/>
     <use xlink:href="#mc030cddc67" x="329.34686" y="230.002163" style="fill: #b22222; stroke: #b22222"/>
     <use xlink:href="#mc030cddc67" x="326.680265" y="221.19958" style="fill: #b22222; stroke: #b22222"/>
     <use xlink:href="#mc030cddc67" x="272.933589" y="196.690015" style="fill: #b22222; stroke: #b22222"/>
     <use xlink:href="#mc030cddc67" x="258.153313" y="168.810293" style="fill: #b22222; stroke: #b22222"/>
     <use xlink:href="#mc030cddc67" x="234.684515" y="158.256878" style="fill: #b22222; stroke: #b22222"/>
     <use xlink:href="#mc030cddc67" x="327.43311" y="248.468244" style="fill: #b22222; stroke: #b22222"/>
     <use xlink:href="#mc030cddc67" x="266.531139" y="171.388281" style="fill: #b22222; stroke: #b22222"/>
     <use xlink:href="#mc030cddc67" x="267.139742" y="179.367918" style="fill: #b22222; stroke: #b22222"/>
     <use xlink:href="#mc030cddc67" x="316.083953" y="222.929579" style="fill: #b22222; stroke: #b22222"/>
     <use xlink:href="#mc030cddc67" x="263.611715" y="195.184872" style="fill: #b22222; stroke: #b22222"/>
     <use xlink:href="#mc030cddc67" x="260.792858" y="189.930169" style="fill: #b22222; stroke: #b22222"/>
     <use xlink:href="#mc030cddc67" x="244.589556" y="165.909534" style="fill: #b22222; stroke: #b22222"/>
     <use xlink:href="#mc030cddc67" x="235.231345" y="153.573301" style="fill: #b22222; stroke: #b22222"/>
     <use xlink:href="#mc030cddc67" x="326.187629" y="241.890821" style="fill: #b22222; stroke: #b22222"/>
     <use xlink:href="#mc030cddc67" x="275.348409" y="193.158781" style="fill: #b22222; stroke: #b22222"/>
     <use xlink:href="#mc030cddc67" x="315.378734" y="197.870477" style="fill: #b22222; stroke: #b22222"/>
     <use xlink:href="#mc030cddc67" x="231.106716" y="145.105416" style="fill: #b22222; stroke: #b22222"/>
     <use xlink:href="#mc030cddc67" x="362.305875" y="233.897779" style="fill: #b22222; stroke: #b22222"/>
     <use xlink:href="#mc030cddc67" x="244.456207" y="169.59871" style="fill: #b22222; stroke: #b22222"/>
     <use xlink:href="#mc030cddc67" x="315.550884" y="238.008112" style="fill: #b22222; stroke: #b22222"/>
     <use xlink:href="#mc030cddc67" x="252.486555" y="174.192521" style="fill: #b22222; stroke: #b22222"/>
     <use xlink:href="#mc030cddc67" x="330.924183" y="253.321363" style="fill: #b22222; stroke: #b22222"/>
     <use xlink:href="#mc030cddc67" x="318.632883" y="223.319195" style="fill: #b22222; stroke: #b22222"/>
     <use xlink:href="#mc030cddc67" x="327.656204" y="222.219078" style="fill: #b22222; stroke: #b22222"/>
     <use xlink:href="#mc030cddc67" x="232.353196" y="159.378631" style="fill: #b22222; stroke: #b22222"/>
     <use xlink:href="#mc030cddc67" x="224.901764" y="154.450291" style="fill: #b22222; stroke: #b22222"/>
     <use xlink:href="#mc030cddc67" x="269.192365" y="196.840008" style="fill: #b22222; stroke: #b22222"/>
     <use xlink:href="#mc030cddc67" x="217.460781" y="150.562372" style="fill: #b22222; stroke: #b22222"/>
     <use xlink:href="#mc030cddc67" x="269.5553" y="187.753506" style="fill: #b22222; stroke: #b22222"/>
     <use xlink:href="#mc030cddc67" x="359.52746" y="225.210625" style="fill: #b22222; stroke: #b22222"/>
     <use xlink:href="#mc030cddc67" x="319.322334" y="247.290368" style="fill: #b22222; stroke: #b22222"/>
     <use xlink:href="#mc030cddc67" x="229.035986" y="159.654153" style="fill: #b22222; stroke: #b22222"/>
     <use xlink:href="#mc030cddc67" x="256.629827" y="172.842264" style="fill: #b22222; stroke: #b22222"/>
     <use xlink:href="#mc030cddc67" x="318.018952" y="224.584813" style="fill: #b22222; stroke: #b22222"/>
     <use xlink:href="#mc030cddc67" x="252.023243" y="178.766639" style="fill: #b22222; stroke: #b22222"/>
     <use xlink:href="#mc030cddc67" x="343.004628" y="227.869836" style="fill: #b22222; stroke: #b22222"/>
     <use xlink:href="#mc030cddc67" x="234.509201" y="152.607114" style="fill: #b22222; stroke: #b22222"/>
     <use xlink:href="#mc030cddc67" x="242.369157" y="152.577702" style="fill: #b22222; stroke: #b22222"/>
     <use xlink:href="#mc030cddc67" x="329.593" y="210.7666" style="fill: #b22222; stroke: #b22222"/>
     <use xlink:href="#mc030cddc67" x="269.759241" y="279.889605" style="fill: #b22222; stroke: #b22222"/>
     <use xlink:href="#mc030cddc67" x="319.622442" y="217.396416" style="fill: #b22222; stroke: #b22222"/>
     <use xlink:href="#mc030cddc67" x="350.889066" y="244.946813" style="fill: #b22222; stroke: #b22222"/>
     <use xlink:href="#mc030cddc67" x="332.669801" y="234.651878" style="fill: #b22222; stroke: #b22222"/>
     <use xlink:href="#mc030cddc67" x="218.050995" y="153.586978" style="fill: #b22222; stroke: #b22222"/>
     <use xlink:href="#mc030cddc67" x="284.692385" y="194.9127" style="fill: #b22222; stroke: #b22222"/>
     <use xlink:href="#mc030cddc67" x="230.817318" y="149.614342" style="fill: #b22222; stroke: #b22222"/>
     <use xlink:href="#mc030cddc67" x="264.513116" y="155.418184" style="fill: #b22222; stroke: #b22222"/>
     <use xlink:href="#mc030cddc67" x="282.289488" y="201.709145" style="fill: #b22222; stroke: #b22222"/>
     <use xlink:href="#mc030cddc67" x="250.279656" y="158.472859" style="fill: #b22222; stroke: #b22222"/>
     <use xlink:href="#mc030cddc67" x="232.117982" y="147.111827" style="fill: #b22222; stroke: #b22222"/>
     <use xlink:href="#mc030cddc67" x="226.374152" y="147.254474" style="fill: #b22222; stroke: #b22222"/>
     <use xlink:href="#mc030cddc67" x="257.821042" y="173.422121" style="fill: #b22222; stroke: #b22222"/>
     <use xlink:href="#mc030cddc67" x="218.858584" y="143.094999" style="fill: #b22222; stroke: #b22222"/>
     <use xlink:href="#mc030cddc67" x="235.253424" y="157.350138" style="fill: #b22222; stroke: #b22222"/>
     <use xlink:href="#mc030cddc67" x="247.775715" y="176.106535" style="fill: #b22222; stroke: #b22222"/>
     <use xlink:href="#mc030cddc67" x="318.948628" y="207.508962" style="fill: #b22222; stroke: #b22222"/>
     <use xlink:href="#mc030cddc67" x="251.666294" y="173.805484" style="fill: #b22222; stroke: #b22222"/>
     <use xlink:href="#mc030cddc67" x="237.76245" y="179.292294" style="fill: #b22222; stroke: #b22222"/>
     <use xlink:href="#mc030cddc67" x="228.653831" y="144.181696" style="fill: #b22222; stroke: #b22222"/>
     <use xlink:href="#mc030cddc67" x="238.805131" y="161.638007" style="fill: #b22222; stroke: #b22222"/>
     <use xlink:href="#mc030cddc67" x="376.993144" y="221.711667" style="fill: #b22222; stroke: #b22222"/>
     <use xlink:href="#mc030cddc67" x="255.958821" y="177.60605" style="fill: #b22222; stroke: #b22222"/>
     <use xlink:href="#mc030cddc67" x="227.932001" y="154.07578" style="fill: #b22222; stroke: #b22222"/>
     <use xlink:href="#mc030cddc67" x="319.24358" y="199.292812" style="fill: #b22222; stroke: #b22222"/>
     <use xlink:href="#mc030cddc67" x="221.693533" y="152.6312" style="fill: #b22222; stroke: #b22222"/>
    </g>
   </g>
   <g id="patch_4">
    <path d="M 56.450156 450.72 
L 56.450156 7.2 
" style="fill: none; stroke: #ffffff; stroke-width: 1.25; stroke-linejoin: miter; stroke-linecap: square"/>
   </g>
   <g id="patch_5">
    <path d="M 499.970156 450.72 
L 499.970156 7.2 
" style="fill: none; stroke: #ffffff; stroke-width: 1.25; stroke-linejoin: miter; stroke-linecap: square"/>
   </g>
   <g id="patch_6">
    <path d="M 56.450156 450.72 
L 499.970156 450.72 
" style="fill: none; stroke: #ffffff; stroke-width: 1.25; stroke-linejoin: miter; stroke-linecap: square"/>
   </g>
   <g id="patch_7">
    <path d="M 56.450156 7.2 
L 499.970156 7.2 
" style="fill: none; stroke: #ffffff; stroke-width: 1.25; stroke-linejoin: miter; stroke-linecap: square"/>
   </g>
   <g id="text_13">
    <!-- t = 900 -->
    <g style="fill: #262626" transform="translate(65.320556 24.659775) scale(0.12 -0.12)">
     <defs>
      <path id="ArialMT-74" d="M 1650 503 
L 1731 6 
Q 1494 -44 1306 -44 
Q 1000 -44 831 53 
Q 663 150 594 308 
Q 525 466 525 972 
L 525 2881 
L 113 2881 
L 113 3319 
L 525 3319 
L 525 4141 
L 1084 4478 
L 1084 3319 
L 1650 3319 
L 1650 2881 
L 1084 2881 
L 1084 941 
Q 1084 700 1114 631 
Q 1144 563 1211 522 
Q 1278 481 1403 481 
Q 1497 481 1650 503 
z
" transform="scale(0.015625)"/>
      <path id="ArialMT-20" transform="scale(0.015625)"/>
      <path id="ArialMT-3d" d="M 3381 2694 
L 356 2694 
L 356 3219 
L 3381 3219 
L 3381 2694 
z
M 3381 1303 
L 356 1303 
L 356 1828 
L 3381 1828 
L 3381 1303 
z
" transform="scale(0.015625)"/>
      <path id="ArialMT-39" d="M 350 1059 
L 891 1109 
Q 959 728 1153 556 
Q 1347 384 1650 384 
Q 1909 384 2104 503 
Q 2300 622 2425 820 
Q 2550 1019 2634 1356 
Q 2719 1694 2719 2044 
Q 2719 2081 2716 2156 
Q 2547 1888 2255 1720 
Q 1963 1553 1622 1553 
Q 1053 1553 659 1965 
Q 266 2378 266 3053 
Q 266 3750 677 4175 
Q 1088 4600 1706 4600 
Q 2153 4600 2523 4359 
Q 2894 4119 3086 3673 
Q 3278 3228 3278 2384 
Q 3278 1506 3087 986 
Q 2897 466 2520 194 
Q 2144 -78 1638 -78 
Q 1100 -78 759 220 
Q 419 519 350 1059 
z
M 2653 3081 
Q 2653 3566 2395 3850 
Q 2138 4134 1775 4134 
Q 1400 4134 1122 3828 
Q 844 3522 844 3034 
Q 844 2597 1108 2323 
Q 1372 2050 1759 2050 
Q 2150 2050 2401 2323 
Q 2653 2597 2653 3081 
z
" transform="scale(0.015625)"/>
     </defs>
     <use xlink:href="#ArialMT-74"/>
     <use xlink:href="#ArialMT-20" x="27.783203"/>
     <use xlink:href="#ArialMT-3d" x="55.566406"/>
     <use xlink:href="#ArialMT-20" x="113.964844"/>
     <use xlink:href="#ArialMT-39" x="141.748047"/>
     <use xlink:href="#ArialMT-30" x="197.363281"/>
     <use xlink:href="#ArialMT-30" x="252.978516"/>
    </g>
   </g>
   <g id="legend_1">
    <g id="patch_8">
     <path d="M 328.111406 94.59 
L 483.170156 94.59 
Q 487.970156 94.59 487.970156 89.79 
L 487.970156 24 
Q 487.970156 19.2 483.170156 19.2 
L 328.111406 19.2 
Q 323.311406 19.2 323.311406 24 
L 323.311406 89.79 
Q 323.311406 94.59 328.111406 94.59 
z
" style="fill: #eaeaf2; opacity: 0.8; stroke: #cccccc; stroke-linejoin: miter"/>
    </g>
    <g id="PathCollection_3">
     <g>
      <use xlink:href="#m208d944d31" x="356.911406" y="39.97125" style="fill: #4169e1; stroke: #4169e1"/>
     </g>
    </g>
    <g id="text_14">
     <!-- Sheep -->
     <g style="fill: #262626" transform="translate(400.111406 46.27125) scale(0.24 -0.24)">
      <defs>
       <path id="ArialMT-53" d="M 288 1472 
L 859 1522 
Q 900 1178 1048 958 
Q 1197 738 1509 602 
Q 1822 466 2213 466 
Q 2559 466 2825 569 
Q 3091 672 3220 851 
Q 3350 1031 3350 1244 
Q 3350 1459 3225 1620 
Q 3100 1781 2813 1891 
Q 2628 1963 1997 2114 
Q 1366 2266 1113 2400 
Q 784 2572 623 2826 
Q 463 3081 463 3397 
Q 463 3744 659 4045 
Q 856 4347 1234 4503 
Q 1613 4659 2075 4659 
Q 2584 4659 2973 4495 
Q 3363 4331 3572 4012 
Q 3781 3694 3797 3291 
L 3216 3247 
Q 3169 3681 2898 3903 
Q 2628 4125 2100 4125 
Q 1550 4125 1298 3923 
Q 1047 3722 1047 3438 
Q 1047 3191 1225 3031 
Q 1400 2872 2139 2705 
Q 2878 2538 3153 2413 
Q 3553 2228 3743 1945 
Q 3934 1663 3934 1294 
Q 3934 928 3725 604 
Q 3516 281 3123 101 
Q 2731 -78 2241 -78 
Q 1619 -78 1198 103 
Q 778 284 539 648 
Q 300 1013 288 1472 
z
" transform="scale(0.015625)"/>
       <path id="ArialMT-68" d="M 422 0 
L 422 4581 
L 984 4581 
L 984 2938 
Q 1378 3394 1978 3394 
Q 2347 3394 2619 3248 
Q 2891 3103 3008 2847 
Q 3125 2591 3125 2103 
L 3125 0 
L 2563 0 
L 2563 2103 
Q 2563 2525 2380 2717 
Q 2197 2909 1863 2909 
Q 1613 2909 1392 2779 
Q 1172 2650 1078 2428 
Q 984 2206 984 1816 
L 984 0 
L 422 0 
z
" transform="scale(0.015625)"/>
       <path id="ArialMT-65" d="M 2694 1069 
L 3275 997 
Q 3138 488 2766 206 
Q 2394 -75 1816 -75 
Q 1088 -75 661 373 
Q 234 822 234 1631 
Q 234 2469 665 2931 
Q 1097 3394 1784 3394 
Q 2450 3394 2872 2941 
Q 3294 2488 3294 1666 
Q 3294 1616 3291 1516 
L 816 1516 
Q 847 969 1125 678 
Q 1403 388 1819 388 
Q 2128 388 2347 550 
Q 2566 713 2694 1069 
z
M 847 1978 
L 2700 1978 
Q 2663 2397 2488 2606 
Q 2219 2931 1791 2931 
Q 1403 2931 1139 2672 
Q 875 2413 847 1978 
z
" transform="scale(0.015625)"/>
       <path id="ArialMT-70" d="M 422 -1272 
L 422 3319 
L 934 3319 
L 934 2888 
Q 1116 3141 1344 3267 
Q 1572 3394 1897 3394 
Q 2322 3394 2647 3175 
Q 2972 2956 3137 2557 
Q 3303 2159 3303 1684 
Q 3303 1175 3120 767 
Q 2938 359 2589 142 
Q 2241 -75 1856 -75 
Q 1575 -75 1351 44 
Q 1128 163 984 344 
L 984 -1272 
L 422 -1272 
z
M 931 1641 
Q 931 1000 1190 694 
Q 1450 388 1819 388 
Q 2194 388 2461 705 
Q 2728 1022 2728 1688 
Q 2728 2322 2467 2637 
Q 2206 2953 1844 2953 
Q 1484 2953 1207 2617 
Q 931 2281 931 1641 
z
" transform="scale(0.015625)"/>
      </defs>
      <use xlink:href="#ArialMT-53"/>
      <use xlink:href="#ArialMT-68" x="66.699219"/>
      <use xlink:href="#ArialMT-65" x="122.314453"/>
      <use xlink:href="#ArialMT-65" x="177.929688"/>
      <use xlink:href="#ArialMT-70" x="233.544922"/>
     </g>
    </g>
    <g id="PathCollection_4">
     <g>
      <use xlink:href="#mc030cddc67" x="356.911406" y="73.92" style="fill: #b22222; stroke: #b22222"/>
     </g>
    </g>
    <g id="text_15">
     <!-- Wolves -->
     <g style="fill: #262626" transform="translate(400.111406 80.22) scale(0.24 -0.24)">
      <defs>
       <path id="ArialMT-57" d="M 1294 0 
L 78 4581 
L 700 4581 
L 1397 1578 
Q 1509 1106 1591 641 
Q 1766 1375 1797 1488 
L 2669 4581 
L 3400 4581 
L 4056 2263 
Q 4303 1400 4413 641 
Q 4500 1075 4641 1638 
L 5359 4581 
L 5969 4581 
L 4713 0 
L 4128 0 
L 3163 3491 
Q 3041 3928 3019 4028 
Q 2947 3713 2884 3491 
L 1913 0 
L 1294 0 
z
" transform="scale(0.015625)"/>
       <path id="ArialMT-6f" d="M 213 1659 
Q 213 2581 725 3025 
Q 1153 3394 1769 3394 
Q 2453 3394 2887 2945 
Q 3322 2497 3322 1706 
Q 3322 1066 3130 698 
Q 2938 331 2570 128 
Q 2203 -75 1769 -75 
Q 1072 -75 642 372 
Q 213 819 213 1659 
z
M 791 1659 
Q 791 1022 1069 705 
Q 1347 388 1769 388 
Q 2188 388 2466 706 
Q 2744 1025 2744 1678 
Q 2744 2294 2464 2611 
Q 2184 2928 1769 2928 
Q 1347 2928 1069 2612 
Q 791 2297 791 1659 
z
" transform="scale(0.015625)"/>
       <path id="ArialMT-6c" d="M 409 0 
L 409 4581 
L 972 4581 
L 972 0 
L 409 0 
z
" transform="scale(0.015625)"/>
       <path id="ArialMT-76" d="M 1344 0 
L 81 3319 
L 675 3319 
L 1388 1331 
Q 1503 1009 1600 663 
Q 1675 925 1809 1294 
L 2547 3319 
L 3125 3319 
L 1869 0 
L 1344 0 
z
" transform="scale(0.015625)"/>
       <path id="ArialMT-73" d="M 197 991 
L 753 1078 
Q 800 744 1014 566 
Q 1228 388 1613 388 
Q 2000 388 2187 545 
Q 2375 703 2375 916 
Q 2375 1106 2209 1216 
Q 2094 1291 1634 1406 
Q 1016 1563 777 1677 
Q 538 1791 414 1992 
Q 291 2194 291 2438 
Q 291 2659 392 2848 
Q 494 3038 669 3163 
Q 800 3259 1026 3326 
Q 1253 3394 1513 3394 
Q 1903 3394 2198 3281 
Q 2494 3169 2634 2976 
Q 2775 2784 2828 2463 
L 2278 2388 
Q 2241 2644 2061 2787 
Q 1881 2931 1553 2931 
Q 1166 2931 1000 2803 
Q 834 2675 834 2503 
Q 834 2394 903 2306 
Q 972 2216 1119 2156 
Q 1203 2125 1616 2013 
Q 2213 1853 2448 1751 
Q 2684 1650 2818 1456 
Q 2953 1263 2953 975 
Q 2953 694 2789 445 
Q 2625 197 2315 61 
Q 2006 -75 1616 -75 
Q 969 -75 630 194 
Q 291 463 197 991 
z
" transform="scale(0.015625)"/>
      </defs>
      <use xlink:href="#ArialMT-57"/>
      <use xlink:href="#ArialMT-6f" x="92.634766"/>
      <use xlink:href="#ArialMT-6c" x="148.25"/>
      <use xlink:href="#ArialMT-76" x="170.466797"/>
      <use xlink:href="#ArialMT-65" x="220.466797"/>
      <use xlink:href="#ArialMT-73" x="276.082031"/>
     </g>
    </g>
   </g>
  </g>
 </g>
 <defs>
  <clipPath id="p740578578a">
   <rect x="56.450156" y="7.2" width="443.52" height="443.52"/>
  </clipPath>
 </defs>
</svg>
