<?xml version="1.0" encoding="utf-8" standalone="no"?>
<!DOCTYPE svg PUBLIC "-//W3C//DTD SVG 1.1//EN"
  "http://www.w3.org/Graphics/SVG/1.1/DTD/svg11.dtd">
<svg xmlns:xlink="http://www.w3.org/1999/xlink" width="507.170156pt" height="492.454219pt" viewBox="0 0 507.170156 492.454219" xmlns="http://www.w3.org/2000/svg" version="1.1">
 <metadata>
  <rdf:RDF xmlns:dc="http://purl.org/dc/elements/1.1/" xmlns:cc="http://creativecommons.org/ns#" xmlns:rdf="http://www.w3.org/1999/02/22-rdf-syntax-ns#">
   <cc:Work>
    <dc:type rdf:resource="http://purl.org/dc/dcmitype/StillImage"/>
    <dc:date>2026-05-12T10:49:56.805131</dc:date>
    <dc:format>image/svg+xml</dc:format>
    <dc:creator>
     <cc:Agent>
      <dc:title>Matplotlib v3.7.1, https://matplotlib.org/</dc:title>
     </cc:Agent>
    </dc:creator>
   </cc:Work>
  </rdf:RDF>
 </metadata>
 <defs>
  <style type="text/css">*{stroke-linejoin: round; stroke-linecap: butt}</style>
 </defs>
 <g id="figure_1">
  <g id="patch_1">
   <path d="M 0 492.454219 
L 507.170156 492.454219 
L 507.170156 0 
L 0 0 
z
" style="fill: #ffffff"/>
  </g>
  <g id="axes_1">
   <g id="patch_2">
    <path d="M 56.450156 450.72 
L 499.970156 450.72 
L 499.970156 7.2 
L 56.450156 7.2 
z
" style="fill: #eaeaf2"/>
   </g>
   <g id="matplotlib.axis_1">
    <g id="xtick_1">
     <g id="line2d_1">
      <path d="M 100.802156 450.72 
L 100.802156 7.2 
" clip-path="url(#p77e278c383)" style="fill: none; stroke: #ffffff; stroke-linecap: round"/>
     </g>
     <g id="text_1">
      <!-- −400 -->
      <g style="fill: #262626" transform="translate(88.414266 468.093594) scale(0.11 -0.11)">
       <defs>
        <path id="ArialMT-2212" d="M 3381 1997 
L 356 1997 
L 356 2522 
L 3381 2522 
L 3381 1997 
z
" transform="scale(0.015625)"/>
        <path id="ArialMT-34" d="M 2069 0 
L 2069 1097 
L 81 1097 
L 81 1613 
L 2172 4581 
L 2631 4581 
L 2631 1613 
L 3250 1613 
L 3250 1097 
L 2631 1097 
L 2631 0 
L 2069 0 
z
M 2069 1613 
L 2069 3678 
L 634 1613 
L 2069 1613 
z
" transform="scale(0.015625)"/>
        <path id="ArialMT-30" d="M 266 2259 
Q 266 3072 433 3567 
Q 600 4063 929 4331 
Q 1259 4600 1759 4600 
Q 2128 4600 2406 4451 
Q 2684 4303 2865 4023 
Q 3047 3744 3150 3342 
Q 3253 2941 3253 2259 
Q 3253 1453 3087 958 
Q 2922 463 2592 192 
Q 2263 -78 1759 -78 
Q 1097 -78 719 397 
Q 266 969 266 2259 
z
M 844 2259 
Q 844 1131 1108 757 
Q 1372 384 1759 384 
Q 2147 384 2411 759 
Q 2675 1134 2675 2259 
Q 2675 3391 2411 3762 
Q 2147 4134 1753 4134 
Q 1366 4134 1134 3806 
Q 844 3388 844 2259 
z
" transform="scale(0.015625)"/>
       </defs>
       <use xlink:href="#ArialMT-2212"/>
       <use xlink:href="#ArialMT-34" x="58.398438"/>
       <use xlink:href="#ArialMT-30" x="114.013672"/>
       <use xlink:href="#ArialMT-30" x="169.628906"/>
      </g>
     </g>
    </g>
    <g id="xtick_2">
     <g id="line2d_2">
      <path d="M 189.506156 450.72 
L 189.506156 7.2 
" clip-path="url(#p77e278c383)" style="fill: none; stroke: #ffffff; stroke-linecap: round"/>
     </g>
     <g id="text_2">
      <!-- −200 -->
      <g style="fill: #262626" transform="translate(177.118266 468.093594) scale(0.11 -0.11)">
       <defs>
        <path id="ArialMT-32" d="M 3222 541 
L 3222 0 
L 194 0 
Q 188 203 259 391 
Q 375 700 629 1000 
Q 884 1300 1366 1694 
Q 2113 2306 2375 2664 
Q 2638 3022 2638 3341 
Q 2638 3675 2398 3904 
Q 2159 4134 1775 4134 
Q 1369 4134 1125 3890 
Q 881 3647 878 3216 
L 300 3275 
Q 359 3922 746 4261 
Q 1134 4600 1788 4600 
Q 2447 4600 2831 4234 
Q 3216 3869 3216 3328 
Q 3216 3053 3103 2787 
Q 2991 2522 2730 2228 
Q 2469 1934 1863 1422 
Q 1356 997 1212 845 
Q 1069 694 975 541 
L 3222 541 
z
" transform="scale(0.015625)"/>
       </defs>
       <use xlink:href="#ArialMT-2212"/>
       <use xlink:href="#ArialMT-32" x="58.398438"/>
       <use xlink:href="#ArialMT-30" x="114.013672"/>
       <use xlink:href="#ArialMT-30" x="169.628906"/>
      </g>
     </g>
    </g>
    <g id="xtick_3">
     <g id="line2d_3">
      <path d="M 278.210156 450.72 
L 278.210156 7.2 
" clip-path="url(#p77e278c383)" style="fill: none; stroke: #ffffff; stroke-linecap: round"/>
     </g>
     <g id="text_3">
      <!-- 0 -->
      <g style="fill: #262626" transform="translate(275.151641 468.093594) scale(0.11 -0.11)">
       <use xlink:href="#ArialMT-30"/>
      </g>
     </g>
    </g>
    <g id="xtick_4">
     <g id="line2d_4">
      <path d="M 366.914156 450.72 
L 366.914156 7.2 
" clip-path="url(#p77e278c383)" style="fill: none; stroke: #ffffff; stroke-linecap: round"/>
     </g>
     <g id="text_4">
      <!-- 200 -->
      <g style="fill: #262626" transform="translate(357.738609 468.093594) scale(0.11 -0.11)">
       <use xlink:href="#ArialMT-32"/>
       <use xlink:href="#ArialMT-30" x="55.615234"/>
       <use xlink:href="#ArialMT-30" x="111.230469"/>
      </g>
     </g>
    </g>
    <g id="xtick_5">
     <g id="line2d_5">
      <path d="M 455.618156 450.72 
L 455.618156 7.2 
" clip-path="url(#p77e278c383)" style="fill: none; stroke: #ffffff; stroke-linecap: round"/>
     </g>
     <g id="text_5">
      <!-- 400 -->
      <g style="fill: #262626" transform="translate(446.442609 468.093594) scale(0.11 -0.11)">
       <use xlink:href="#ArialMT-34"/>
       <use xlink:href="#ArialMT-30" x="55.615234"/>
       <use xlink:href="#ArialMT-30" x="111.230469"/>
      </g>
     </g>
    </g>
    <g id="text_6">
     <!-- x -->
     <g style="fill: #262626" transform="translate(275.210156 482.869219) scale(0.12 -0.12)">
      <defs>
       <path id="ArialMT-78" d="M 47 0 
L 1259 1725 
L 138 3319 
L 841 3319 
L 1350 2541 
Q 1494 2319 1581 2169 
Q 1719 2375 1834 2534 
L 2394 3319 
L 3066 3319 
L 1919 1756 
L 3153 0 
L 2463 0 
L 1781 1031 
L 1600 1309 
L 728 0 
L 47 0 
z
" transform="scale(0.015625)"/>
      </defs>
      <use xlink:href="#ArialMT-78"/>
     </g>
    </g>
   </g>
   <g id="matplotlib.axis_2">
    <g id="ytick_1">
     <g id="line2d_6">
      <path d="M 56.450156 406.368 
L 499.970156 406.368 
" clip-path="url(#p77e278c383)" style="fill: none; stroke: #ffffff; stroke-linecap: round"/>
     </g>
     <g id="text_7">
      <!-- −400 -->
      <g style="fill: #262626" transform="translate(22.174375 410.304797) scale(0.11 -0.11)">
       <use xlink:href="#ArialMT-2212"/>
       <use xlink:href="#ArialMT-34" x="58.398438"/>
       <use xlink:href="#ArialMT-30" x="114.013672"/>
       <use xlink:href="#ArialMT-30" x="169.628906"/>
      </g>
     </g>
    </g>
    <g id="ytick_2">
     <g id="line2d_7">
      <path d="M 56.450156 317.664 
L 499.970156 317.664 
" clip-path="url(#p77e278c383)" style="fill: none; stroke: #ffffff; stroke-linecap: round"/>
     </g>
     <g id="text_8">
      <!-- −200 -->
      <g style="fill: #262626" transform="translate(22.174375 321.600797) scale(0.11 -0.11)">
       <use xlink:href="#ArialMT-2212"/>
       <use xlink:href="#ArialMT-32" x="58.398438"/>
       <use xlink:href="#ArialMT-30" x="114.013672"/>
       <use xlink:href="#ArialMT-30" x="169.628906"/>
      </g>
     </g>
    </g>
    <g id="ytick_3">
     <g id="line2d_8">
      <path d="M 56.450156 228.96 
L 499.970156 228.96 
" clip-path="url(#p77e278c383)" style="fill: none; stroke: #ffffff; stroke-linecap: round"/>
     </g>
     <g id="text_9">
      <!-- 0 -->
      <g style="fill: #262626" transform="translate(40.833125 232.896797) scale(0.11 -0.11)">
       <use xlink:href="#ArialMT-30"/>
      </g>
     </g>
    </g>
    <g id="ytick_4">
     <g id="line2d_9">
      <path d="M 56.450156 140.256 
L 499.970156 140.256 
" clip-path="url(#p77e278c383)" style="fill: none; stroke: #ffffff; stroke-linecap: round"/>
     </g>
     <g id="text_10">
      <!-- 200 -->
      <g style="fill: #262626" transform="translate(28.599063 144.192797) scale(0.11 -0.11)">
       <use xlink:href="#ArialMT-32"/>
       <use xlink:href="#ArialMT-30" x="55.615234"/>
       <use xlink:href="#ArialMT-30" x="111.230469"/>
      </g>
     </g>
    </g>
    <g id="ytick_5">
     <g id="line2d_10">
      <path d="M 56.450156 51.552 
L 499.970156 51.552 
" clip-path="url(#p77e278c383)" style="fill: none; stroke: #ffffff; stroke-linecap: round"/>
     </g>
     <g id="text_11">
      <!-- 400 -->
      <g style="fill: #262626" transform="translate(28.599063 55.488797) scale(0.11 -0.11)">
       <use xlink:href="#ArialMT-34"/>
       <use xlink:href="#ArialMT-30" x="55.615234"/>
       <use xlink:href="#ArialMT-30" x="111.230469"/>
      </g>
     </g>
    </g>
    <g id="text_12">
     <!-- y -->
     <g style="fill: #262626" transform="translate(15.64875 231.96) rotate(-90) scale(0.12 -0.12)">
      <defs>
       <path id="ArialMT-79" d="M 397 -1278 
L 334 -750 
Q 519 -800 656 -800 
Q 844 -800 956 -737 
Q 1069 -675 1141 -563 
Q 1194 -478 1313 -144 
Q 1328 -97 1363 -6 
L 103 3319 
L 709 3319 
L 1400 1397 
Q 1534 1031 1641 628 
Q 1738 1016 1872 1384 
L 2581 3319 
L 3144 3319 
L 1881 -56 
Q 1678 -603 1566 -809 
Q 1416 -1088 1222 -1217 
Q 1028 -1347 759 -1347 
Q 597 -1347 397 -1278 
z
" transform="scale(0.015625)"/>
      </defs>
      <use xlink:href="#ArialMT-79"/>
     </g>
    </g>
   </g>
   <g id="patch_3">
    <path d="M 278.210156 317.664 
C 301.734732 317.664 324.298969 308.317587 340.933356 291.6832 
C 357.567743 275.048813 366.914156 252.484576 366.914156 228.96 
C 366.914156 205.435424 357.567743 182.871187 340.933356 166.2368 
C 324.298969 149.602413 301.734732 140.256 278.210156 140.256 
C 254.68558 140.256 232.121343 149.602413 215.486956 166.2368 
C 198.852569 182.871187 189.506156 205.435424 189.506156 228.96 
C 189.506156 252.484576 198.852569 275.048813 215.486956 291.6832 
C 232.121343 308.317587 254.68558 317.664 278.210156 317.664 
z
" clip-path="url(#p77e278c383)" style="fill: #228b22; opacity: 0.12; stroke: #228b22; stroke-width: 1.5; stroke-linejoin: miter"/>
   </g>
   <g id="PathCollection_1">
    <defs>
     <path id="m94483908f7" d="M 0 2.236068 
C 0.593012 2.236068 1.161816 2.000462 1.581139 1.581139 
C 2.000462 1.161816 2.236068 0.593012 2.236068 0 
C 2.236068 -0.593012 2.000462 -1.161816 1.581139 -1.581139 
C 1.161816 -2.000462 0.593012 -2.236068 0 -2.236068 
C -0.593012 -2.236068 -1.161816 -2.000462 -1.581139 -1.581139 
C -2.000462 -1.161816 -2.236068 -0.593012 -2.236068 0 
C -2.236068 0.593012 -2.000462 1.161816 -1.581139 1.581139 
C -1.161816 2.000462 -0.593012 2.236068 0 2.236068 
z
" style="stroke: #4169e1"/>
    </defs>
    <g clip-path="url(#p77e278c383)">
     <use xlink:href="#m94483908f7" x="169.326504" y="230.628063" style="fill: #4169e1; stroke: #4169e1"/>
     <use xlink:href="#m94483908f7" x="424.201123" y="159.052123" style="fill: #4169e1; stroke: #4169e1"/>
     <use xlink:href="#m94483908f7" x="369.868712" y="213.804347" style="fill: #4169e1; stroke: #4169e1"/>
     <use xlink:href="#m94483908f7" x="342.330563" y="283.68735" style="fill: #4169e1; stroke: #4169e1"/>
     <use xlink:href="#m94483908f7" x="169.972828" y="274.164143" style="fill: #4169e1; stroke: #4169e1"/>
     <use xlink:href="#m94483908f7" x="366.381399" y="247.20368" style="fill: #4169e1; stroke: #4169e1"/>
     <use xlink:href="#m94483908f7" x="316.441291" y="178.800586" style="fill: #4169e1; stroke: #4169e1"/>
     <use xlink:href="#m94483908f7" x="449.728495" y="243.362817" style="fill: #4169e1; stroke: #4169e1"/>
     <use xlink:href="#m94483908f7" x="454.89412" y="216.48234" style="fill: #4169e1; stroke: #4169e1"/>
     <use xlink:href="#m94483908f7" x="268.259791" y="107.098549" style="fill: #4169e1; stroke: #4169e1"/>
     <use xlink:href="#m94483908f7" x="313.450309" y="322.913468" style="fill: #4169e1; stroke: #4169e1"/>
     <use xlink:href="#m94483908f7" x="267.537609" y="294.291296" style="fill: #4169e1; stroke: #4169e1"/>
     <use xlink:href="#m94483908f7" x="317.804383" y="345.278006" style="fill: #4169e1; stroke: #4169e1"/>
     <use xlink:href="#m94483908f7" x="353.446655" y="170.395423" style="fill: #4169e1; stroke: #4169e1"/>
     <use xlink:href="#m94483908f7" x="184.005198" y="187.754596" style="fill: #4169e1; stroke: #4169e1"/>
     <use xlink:href="#m94483908f7" x="346.329627" y="298.031351" style="fill: #4169e1; stroke: #4169e1"/>
     <use xlink:href="#m94483908f7" x="311.552714" y="91.177036" style="fill: #4169e1; stroke: #4169e1"/>
     <use xlink:href="#m94483908f7" x="372.297575" y="193.289632" style="fill: #4169e1; stroke: #4169e1"/>
     <use xlink:href="#m94483908f7" x="346.699373" y="114.307211" style="fill: #4169e1; stroke: #4169e1"/>
     <use xlink:href="#m94483908f7" x="349.841648" y="292.000491" style="fill: #4169e1; stroke: #4169e1"/>
     <use xlink:href="#m94483908f7" x="356.003988" y="307.96625" style="fill: #4169e1; stroke: #4169e1"/>
     <use xlink:href="#m94483908f7" x="211.857883" y="270.02005" style="fill: #4169e1; stroke: #4169e1"/>
     <use xlink:href="#m94483908f7" x="331.278563" y="243.497651" style="fill: #4169e1; stroke: #4169e1"/>
     <use xlink:href="#m94483908f7" x="373.177577" y="261.413775" style="fill: #4169e1; stroke: #4169e1"/>
     <use xlink:href="#m94483908f7" x="232.657341" y="240.564199" style="fill: #4169e1; stroke: #4169e1"/>
     <use xlink:href="#m94483908f7" x="330.618461" y="128.77856" style="fill: #4169e1; stroke: #4169e1"/>
     <use xlink:href="#m94483908f7" x="399.148848" y="158.209052" style="fill: #4169e1; stroke: #4169e1"/>
     <use xlink:href="#m94483908f7" x="279.481844" y="291.829231" style="fill: #4169e1; stroke: #4169e1"/>
     <use xlink:href="#m94483908f7" x="223.404295" y="321.684835" style="fill: #4169e1; stroke: #4169e1"/>
     <use xlink:href="#m94483908f7" x="293.861646" y="123.14133" style="fill: #4169e1; stroke: #4169e1"/>
     <use xlink:href="#m94483908f7" x="231.171881" y="196.043177" style="fill: #4169e1; stroke: #4169e1"/>
     <use xlink:href="#m94483908f7" x="366.732433" y="206.186582" style="fill: #4169e1; stroke: #4169e1"/>
     <use xlink:href="#m94483908f7" x="289.093997" y="289.930099" style="fill: #4169e1; stroke: #4169e1"/>
     <use xlink:href="#m94483908f7" x="270.098739" y="287.929522" style="fill: #4169e1; stroke: #4169e1"/>
     <use xlink:href="#m94483908f7" x="266.331146" y="224.504825" style="fill: #4169e1; stroke: #4169e1"/>
     <use xlink:href="#m94483908f7" x="376.971596" y="196.681092" style="fill: #4169e1; stroke: #4169e1"/>
     <use xlink:href="#m94483908f7" x="328.621792" y="188.3205" style="fill: #4169e1; stroke: #4169e1"/>
     <use xlink:href="#m94483908f7" x="159.690846" y="253.912788" style="fill: #4169e1; stroke: #4169e1"/>
     <use xlink:href="#m94483908f7" x="172.656179" y="227.35838" style="fill: #4169e1; stroke: #4169e1"/>
     <use xlink:href="#m94483908f7" x="270.954247" y="239.276305" style="fill: #4169e1; stroke: #4169e1"/>
     <use xlink:href="#m94483908f7" x="201.571388" y="328.740563" style="fill: #4169e1; stroke: #4169e1"/>
     <use xlink:href="#m94483908f7" x="298.485369" y="233.040645" style="fill: #4169e1; stroke: #4169e1"/>
     <use xlink:href="#m94483908f7" x="193.403692" y="258.603941" style="fill: #4169e1; stroke: #4169e1"/>
     <use xlink:href="#m94483908f7" x="327.60451" y="300.482358" style="fill: #4169e1; stroke: #4169e1"/>
     <use xlink:href="#m94483908f7" x="245.562165" y="259.267154" style="fill: #4169e1; stroke: #4169e1"/>
     <use xlink:href="#m94483908f7" x="302.983911" y="172.967617" style="fill: #4169e1; stroke: #4169e1"/>
     <use xlink:href="#m94483908f7" x="402.526073" y="169.665959" style="fill: #4169e1; stroke: #4169e1"/>
     <use xlink:href="#m94483908f7" x="184.476939" y="208.931613" style="fill: #4169e1; stroke: #4169e1"/>
     <use xlink:href="#m94483908f7" x="217.756585" y="305.925555" style="fill: #4169e1; stroke: #4169e1"/>
     <use xlink:href="#m94483908f7" x="268.963223" y="120.58282" style="fill: #4169e1; stroke: #4169e1"/>
     <use xlink:href="#m94483908f7" x="264.548614" y="264.288487" style="fill: #4169e1; stroke: #4169e1"/>
     <use xlink:href="#m94483908f7" x="186.261448" y="154.240422" style="fill: #4169e1; stroke: #4169e1"/>
     <use xlink:href="#m94483908f7" x="439.351064" y="246.640271" style="fill: #4169e1; stroke: #4169e1"/>
     <use xlink:href="#m94483908f7" x="394.692493" y="300.682482" style="fill: #4169e1; stroke: #4169e1"/>
     <use xlink:href="#m94483908f7" x="335.015129" y="257.43961" style="fill: #4169e1; stroke: #4169e1"/>
     <use xlink:href="#m94483908f7" x="423.115779" y="228.573277" style="fill: #4169e1; stroke: #4169e1"/>
     <use xlink:href="#m94483908f7" x="283.284222" y="360.386597" style="fill: #4169e1; stroke: #4169e1"/>
     <use xlink:href="#m94483908f7" x="330.290128" y="284.68637" style="fill: #4169e1; stroke: #4169e1"/>
     <use xlink:href="#m94483908f7" x="275.832021" y="317.674239" style="fill: #4169e1; stroke: #4169e1"/>
     <use xlink:href="#m94483908f7" x="223.058337" y="287.214115" style="fill: #4169e1; stroke: #4169e1"/>
     <use xlink:href="#m94483908f7" x="355.976471" y="297.521475" style="fill: #4169e1; stroke: #4169e1"/>
     <use xlink:href="#m94483908f7" x="254.034415" y="354.755431" style="fill: #4169e1; stroke: #4169e1"/>
     <use xlink:href="#m94483908f7" x="319.21923" y="241.543169" style="fill: #4169e1; stroke: #4169e1"/>
     <use xlink:href="#m94483908f7" x="413.081153" y="186.307718" style="fill: #4169e1; stroke: #4169e1"/>
     <use xlink:href="#m94483908f7" x="273.882913" y="123.207618" style="fill: #4169e1; stroke: #4169e1"/>
     <use xlink:href="#m94483908f7" x="337.603586" y="280.321898" style="fill: #4169e1; stroke: #4169e1"/>
     <use xlink:href="#m94483908f7" x="280.247069" y="325.104079" style="fill: #4169e1; stroke: #4169e1"/>
     <use xlink:href="#m94483908f7" x="317.629191" y="317.899776" style="fill: #4169e1; stroke: #4169e1"/>
     <use xlink:href="#m94483908f7" x="267.535555" y="200.555585" style="fill: #4169e1; stroke: #4169e1"/>
     <use xlink:href="#m94483908f7" x="312.521469" y="304.829566" style="fill: #4169e1; stroke: #4169e1"/>
     <use xlink:href="#m94483908f7" x="183.16302" y="250.89141" style="fill: #4169e1; stroke: #4169e1"/>
     <use xlink:href="#m94483908f7" x="173.073549" y="223.170067" style="fill: #4169e1; stroke: #4169e1"/>
     <use xlink:href="#m94483908f7" x="340.195074" y="256.974962" style="fill: #4169e1; stroke: #4169e1"/>
     <use xlink:href="#m94483908f7" x="165.83555" y="247.883353" style="fill: #4169e1; stroke: #4169e1"/>
     <use xlink:href="#m94483908f7" x="358.419912" y="211.463902" style="fill: #4169e1; stroke: #4169e1"/>
     <use xlink:href="#m94483908f7" x="351.211697" y="246.964928" style="fill: #4169e1; stroke: #4169e1"/>
     <use xlink:href="#m94483908f7" x="211.480374" y="274.947324" style="fill: #4169e1; stroke: #4169e1"/>
     <use xlink:href="#m94483908f7" x="410.069906" y="186.559587" style="fill: #4169e1; stroke: #4169e1"/>
     <use xlink:href="#m94483908f7" x="321.17909" y="301.588674" style="fill: #4169e1; stroke: #4169e1"/>
     <use xlink:href="#m94483908f7" x="449.921074" y="227.387726" style="fill: #4169e1; stroke: #4169e1"/>
     <use xlink:href="#m94483908f7" x="444.98353" y="160.991304" style="fill: #4169e1; stroke: #4169e1"/>
     <use xlink:href="#m94483908f7" x="335.448931" y="227.779005" style="fill: #4169e1; stroke: #4169e1"/>
     <use xlink:href="#m94483908f7" x="340.785539" y="263.847149" style="fill: #4169e1; stroke: #4169e1"/>
     <use xlink:href="#m94483908f7" x="324.293513" y="232.706919" style="fill: #4169e1; stroke: #4169e1"/>
     <use xlink:href="#m94483908f7" x="385.651069" y="224.928851" style="fill: #4169e1; stroke: #4169e1"/>
     <use xlink:href="#m94483908f7" x="326.780462" y="289.140546" style="fill: #4169e1; stroke: #4169e1"/>
     <use xlink:href="#m94483908f7" x="223.555933" y="156.752215" style="fill: #4169e1; stroke: #4169e1"/>
     <use xlink:href="#m94483908f7" x="341.720128" y="302.57272" style="fill: #4169e1; stroke: #4169e1"/>
     <use xlink:href="#m94483908f7" x="374.19651" y="141.350818" style="fill: #4169e1; stroke: #4169e1"/>
     <use xlink:href="#m94483908f7" x="349.077236" y="307.909951" style="fill: #4169e1; stroke: #4169e1"/>
     <use xlink:href="#m94483908f7" x="377.95927" y="291.356353" style="fill: #4169e1; stroke: #4169e1"/>
     <use xlink:href="#m94483908f7" x="270.317628" y="289.838453" style="fill: #4169e1; stroke: #4169e1"/>
     <use xlink:href="#m94483908f7" x="353.702504" y="135.884158" style="fill: #4169e1; stroke: #4169e1"/>
     <use xlink:href="#m94483908f7" x="384.967801" y="129.614417" style="fill: #4169e1; stroke: #4169e1"/>
     <use xlink:href="#m94483908f7" x="299.243576" y="162.012187" style="fill: #4169e1; stroke: #4169e1"/>
     <use xlink:href="#m94483908f7" x="356.019574" y="285.429044" style="fill: #4169e1; stroke: #4169e1"/>
     <use xlink:href="#m94483908f7" x="393.08323" y="316.448123" style="fill: #4169e1; stroke: #4169e1"/>
     <use xlink:href="#m94483908f7" x="348.633398" y="160.456476" style="fill: #4169e1; stroke: #4169e1"/>
     <use xlink:href="#m94483908f7" x="246.712677" y="269.20517" style="fill: #4169e1; stroke: #4169e1"/>
     <use xlink:href="#m94483908f7" x="386.383863" y="245.350289" style="fill: #4169e1; stroke: #4169e1"/>
     <use xlink:href="#m94483908f7" x="354.649938" y="250.560827" style="fill: #4169e1; stroke: #4169e1"/>
     <use xlink:href="#m94483908f7" x="452.526429" y="220.937923" style="fill: #4169e1; stroke: #4169e1"/>
     <use xlink:href="#m94483908f7" x="422.910005" y="152.655787" style="fill: #4169e1; stroke: #4169e1"/>
     <use xlink:href="#m94483908f7" x="322.872" y="222.612085" style="fill: #4169e1; stroke: #4169e1"/>
     <use xlink:href="#m94483908f7" x="197.241809" y="196.047511" style="fill: #4169e1; stroke: #4169e1"/>
     <use xlink:href="#m94483908f7" x="249.072548" y="189.609667" style="fill: #4169e1; stroke: #4169e1"/>
     <use xlink:href="#m94483908f7" x="364.876147" y="145.749473" style="fill: #4169e1; stroke: #4169e1"/>
     <use xlink:href="#m94483908f7" x="368.244608" y="254.313865" style="fill: #4169e1; stroke: #4169e1"/>
     <use xlink:href="#m94483908f7" x="365.087472" y="109.394368" style="fill: #4169e1; stroke: #4169e1"/>
     <use xlink:href="#m94483908f7" x="200.070759" y="186.821902" style="fill: #4169e1; stroke: #4169e1"/>
     <use xlink:href="#m94483908f7" x="263.23701" y="235.470728" style="fill: #4169e1; stroke: #4169e1"/>
     <use xlink:href="#m94483908f7" x="327.61327" y="226.64877" style="fill: #4169e1; stroke: #4169e1"/>
     <use xlink:href="#m94483908f7" x="248.09171" y="185.898746" style="fill: #4169e1; stroke: #4169e1"/>
     <use xlink:href="#m94483908f7" x="354.698556" y="165.068242" style="fill: #4169e1; stroke: #4169e1"/>
     <use xlink:href="#m94483908f7" x="249.169707" y="344.556203" style="fill: #4169e1; stroke: #4169e1"/>
     <use xlink:href="#m94483908f7" x="384.251236" y="123.891644" style="fill: #4169e1; stroke: #4169e1"/>
     <use xlink:href="#m94483908f7" x="389.056169" y="194.804077" style="fill: #4169e1; stroke: #4169e1"/>
     <use xlink:href="#m94483908f7" x="251.214216" y="213.680215" style="fill: #4169e1; stroke: #4169e1"/>
     <use xlink:href="#m94483908f7" x="204.17723" y="196.678388" style="fill: #4169e1; stroke: #4169e1"/>
     <use xlink:href="#m94483908f7" x="278.237176" y="220.336793" style="fill: #4169e1; stroke: #4169e1"/>
     <use xlink:href="#m94483908f7" x="375.654416" y="214.422814" style="fill: #4169e1; stroke: #4169e1"/>
     <use xlink:href="#m94483908f7" x="279.170671" y="167.559246" style="fill: #4169e1; stroke: #4169e1"/>
     <use xlink:href="#m94483908f7" x="179.236363" y="243.700925" style="fill: #4169e1; stroke: #4169e1"/>
     <use xlink:href="#m94483908f7" x="251.889927" y="183.501772" style="fill: #4169e1; stroke: #4169e1"/>
     <use xlink:href="#m94483908f7" x="407.605478" y="225.263941" style="fill: #4169e1; stroke: #4169e1"/>
     <use xlink:href="#m94483908f7" x="387.679001" y="246.390212" style="fill: #4169e1; stroke: #4169e1"/>
     <use xlink:href="#m94483908f7" x="236.651281" y="206.470746" style="fill: #4169e1; stroke: #4169e1"/>
     <use xlink:href="#m94483908f7" x="384.088591" y="317.584731" style="fill: #4169e1; stroke: #4169e1"/>
     <use xlink:href="#m94483908f7" x="270.040642" y="299.031693" style="fill: #4169e1; stroke: #4169e1"/>
     <use xlink:href="#m94483908f7" x="357.769832" y="222.346808" style="fill: #4169e1; stroke: #4169e1"/>
     <use xlink:href="#m94483908f7" x="267.702173" y="287.510582" style="fill: #4169e1; stroke: #4169e1"/>
     <use xlink:href="#m94483908f7" x="157.99994" y="231.29642" style="fill: #4169e1; stroke: #4169e1"/>
     <use xlink:href="#m94483908f7" x="180.26069" y="222.45204" style="fill: #4169e1; stroke: #4169e1"/>
     <use xlink:href="#m94483908f7" x="223.279515" y="268.566957" style="fill: #4169e1; stroke: #4169e1"/>
     <use xlink:href="#m94483908f7" x="244.096893" y="248.186119" style="fill: #4169e1; stroke: #4169e1"/>
     <use xlink:href="#m94483908f7" x="243.455946" y="225.602809" style="fill: #4169e1; stroke: #4169e1"/>
     <use xlink:href="#m94483908f7" x="269.284598" y="309.013506" style="fill: #4169e1; stroke: #4169e1"/>
     <use xlink:href="#m94483908f7" x="210.264322" y="177.770245" style="fill: #4169e1; stroke: #4169e1"/>
     <use xlink:href="#m94483908f7" x="243.263019" y="250.532598" style="fill: #4169e1; stroke: #4169e1"/>
     <use xlink:href="#m94483908f7" x="257.738943" y="171.854235" style="fill: #4169e1; stroke: #4169e1"/>
     <use xlink:href="#m94483908f7" x="185.008221" y="219.295467" style="fill: #4169e1; stroke: #4169e1"/>
     <use xlink:href="#m94483908f7" x="350.79727" y="112.582926" style="fill: #4169e1; stroke: #4169e1"/>
     <use xlink:href="#m94483908f7" x="233.710525" y="313.900448" style="fill: #4169e1; stroke: #4169e1"/>
     <use xlink:href="#m94483908f7" x="370.972057" y="295.870003" style="fill: #4169e1; stroke: #4169e1"/>
     <use xlink:href="#m94483908f7" x="174.771602" y="265.046439" style="fill: #4169e1; stroke: #4169e1"/>
     <use xlink:href="#m94483908f7" x="383.896074" y="371.391234" style="fill: #4169e1; stroke: #4169e1"/>
     <use xlink:href="#m94483908f7" x="343.248578" y="285.1198" style="fill: #4169e1; stroke: #4169e1"/>
     <use xlink:href="#m94483908f7" x="334.049555" y="286.192745" style="fill: #4169e1; stroke: #4169e1"/>
     <use xlink:href="#m94483908f7" x="226.33603" y="268.329949" style="fill: #4169e1; stroke: #4169e1"/>
     <use xlink:href="#m94483908f7" x="349.384559" y="242.495219" style="fill: #4169e1; stroke: #4169e1"/>
     <use xlink:href="#m94483908f7" x="311.500052" y="183.614651" style="fill: #4169e1; stroke: #4169e1"/>
     <use xlink:href="#m94483908f7" x="278.902801" y="306.001473" style="fill: #4169e1; stroke: #4169e1"/>
     <use xlink:href="#m94483908f7" x="275.25406" y="123.058082" style="fill: #4169e1; stroke: #4169e1"/>
     <use xlink:href="#m94483908f7" x="348.581268" y="284.529146" style="fill: #4169e1; stroke: #4169e1"/>
     <use xlink:href="#m94483908f7" x="386.253289" y="151.500988" style="fill: #4169e1; stroke: #4169e1"/>
    </g>
   </g>
   <g id="PathCollection_2">
    <defs>
     <path id="mf69b05624b" d="M 0 2.5 
C 0.663008 2.5 1.29895 2.236584 1.767767 1.767767 
C 2.236584 1.29895 2.5 0.663008 2.5 0 
C 2.5 -0.663008 2.236584 -1.29895 1.767767 -1.767767 
C 1.29895 -2.236584 0.663008 -2.5 0 -2.5 
C -0.663008 -2.5 -1.29895 -2.236584 -1.767767 -1.767767 
C -2.236584 -1.29895 -2.5 -0.663008 -2.5 0 
C -2.5 0.663008 -2.236584 1.29895 -1.767767 1.767767 
C -1.29895 2.236584 -0.663008 2.5 0 2.5 
z
" style="stroke: #b22222"/>
    </defs>
    <g clip-path="url(#p77e278c383)">
     <use xlink:href="#mf69b05624b" x="241.884314" y="204.077226" style="fill: #b22222; stroke: #b22222"/>
     <use xlink:href="#mf69b05624b" x="263.498162" y="218.601888" style="fill: #b22222; stroke: #b22222"/>
     <use xlink:href="#mf69b05624b" x="289.6966" y="227.707679" style="fill: #b22222; stroke: #b22222"/>
     <use xlink:href="#mf69b05624b" x="278.144308" y="229.279937" style="fill: #b22222; stroke: #b22222"/>
     <use xlink:href="#mf69b05624b" x="278.649024" y="220.447953" style="fill: #b22222; stroke: #b22222"/>
     <use xlink:href="#mf69b05624b" x="279.583249" y="224.288762" style="fill: #b22222; stroke: #b22222"/>
     <use xlink:href="#mf69b05624b" x="276.723321" y="202.318273" style="fill: #b22222; stroke: #b22222"/>
     <use xlink:href="#mf69b05624b" x="291.631932" y="199.758604" style="fill: #b22222; stroke: #b22222"/>
     <use xlink:href="#mf69b05624b" x="257.90741" y="214.724878" style="fill: #b22222; stroke: #b22222"/>
     <use xlink:href="#mf69b05624b" x="274.768008" y="229.455092" style="fill: #b22222; stroke: #b22222"/>
     <use xlink:href="#mf69b05624b" x="285.225257" y="230.635414" style="fill: #b22222; stroke: #b22222"/>
     <use xlink:href="#mf69b05624b" x="273.866897" y="229.82186" style="fill: #b22222; stroke: #b22222"/>
     <use xlink:href="#mf69b05624b" x="278.82382" y="226.845645" style="fill: #b22222; stroke: #b22222"/>
     <use xlink:href="#mf69b05624b" x="252.074424" y="217.51882" style="fill: #b22222; stroke: #b22222"/>
     <use xlink:href="#mf69b05624b" x="261.546531" y="216.662467" style="fill: #b22222; stroke: #b22222"/>
     <use xlink:href="#mf69b05624b" x="281.693661" y="245.969842" style="fill: #b22222; stroke: #b22222"/>
     <use xlink:href="#mf69b05624b" x="283.492327" y="221.099991" style="fill: #b22222; stroke: #b22222"/>
     <use xlink:href="#mf69b05624b" x="267.70946" y="226.762421" style="fill: #b22222; stroke: #b22222"/>
     <use xlink:href="#mf69b05624b" x="265.579617" y="219.451959" style="fill: #b22222; stroke: #b22222"/>
     <use xlink:href="#mf69b05624b" x="284.683803" y="230.35109" style="fill: #b22222; stroke: #b22222"/>
     <use xlink:href="#mf69b05624b" x="265.170316" y="225.604666" style="fill: #b22222; stroke: #b22222"/>
     <use xlink:href="#mf69b05624b" x="255.249263" y="216.242503" style="fill: #b22222; stroke: #b22222"/>
     <use xlink:href="#mf69b05624b" x="278.713286" y="232.421151" style="fill: #b22222; stroke: #b22222"/>
     <use xlink:href="#mf69b05624b" x="272.137562" y="210.543599" style="fill: #b22222; stroke: #b22222"/>
     <use xlink:href="#mf69b05624b" x="265.211742" y="202.617288" style="fill: #b22222; stroke: #b22222"/>
     <use xlink:href="#mf69b05624b" x="284.602598" y="232.518132" style="fill: #b22222; stroke: #b22222"/>
     <use xlink:href="#mf69b05624b" x="252.019725" y="204.644457" style="fill: #b22222; stroke: #b22222"/>
     <use xlink:href="#mf69b05624b" x="294.245789" y="201.847361" style="fill: #b22222; stroke: #b22222"/>
     <use xlink:href="#mf69b05624b" x="276.574424" y="225.184397" style="fill: #b22222; stroke: #b22222"/>
     <use xlink:href="#mf69b05624b" x="270.796016" y="225.733074" style="fill: #b22222; stroke: #b22222"/>
     <use xlink:href="#mf69b05624b" x="302.55104" y="193.720239" style="fill: #b22222; stroke: #b22222"/>
     <use xlink:href="#mf69b05624b" x="241.542636" y="205.731684" style="fill: #b22222; stroke: #b22222"/>
     <use xlink:href="#mf69b05624b" x="264.767734" y="213.451885" style="fill: #b22222; stroke: #b22222"/>
     <use xlink:href="#mf69b05624b" x="282.368173" y="235.214225" style="fill: #b22222; stroke: #b22222"/>
     <use xlink:href="#mf69b05624b" x="248.556629" y="211.17508" style="fill: #b22222; stroke: #b22222"/>
     <use xlink:href="#mf69b05624b" x="276.92356" y="228.719879" style="fill: #b22222; stroke: #b22222"/>
     <use xlink:href="#mf69b05624b" x="272.2449" y="224.548503" style="fill: #b22222; stroke: #b22222"/>
     <use xlink:href="#mf69b05624b" x="278.871763" y="223.787021" style="fill: #b22222; stroke: #b22222"/>
     <use xlink:href="#mf69b05624b" x="270.917323" y="229.515501" style="fill: #b22222; stroke: #b22222"/>
     <use xlink:href="#mf69b05624b" x="264.723194" y="223.426804" style="fill: #b22222; stroke: #b22222"/>
     <use xlink:href="#mf69b05624b" x="248.459226" y="206.73211" style="fill: #b22222; stroke: #b22222"/>
     <use xlink:href="#mf69b05624b" x="280.543033" y="234.863512" style="fill: #b22222; stroke: #b22222"/>
     <use xlink:href="#mf69b05624b" x="264.529719" y="205.818832" style="fill: #b22222; stroke: #b22222"/>
     <use xlink:href="#mf69b05624b" x="273.997469" y="219.658611" style="fill: #b22222; stroke: #b22222"/>
     <use xlink:href="#mf69b05624b" x="278.550166" y="222.20228" style="fill: #b22222; stroke: #b22222"/>
     <use xlink:href="#mf69b05624b" x="224.560005" y="287.060118" style="fill: #b22222; stroke: #b22222"/>
     <use xlink:href="#mf69b05624b" x="267.259212" y="215.045074" style="fill: #b22222; stroke: #b22222"/>
     <use xlink:href="#mf69b05624b" x="254.532498" y="202.729463" style="fill: #b22222; stroke: #b22222"/>
     <use xlink:href="#mf69b05624b" x="258.237873" y="203.9246" style="fill: #b22222; stroke: #b22222"/>
     <use xlink:href="#mf69b05624b" x="277.355577" y="216.496026" style="fill: #b22222; stroke: #b22222"/>
     <use xlink:href="#mf69b05624b" x="292.638954" y="215.068424" style="fill: #b22222; stroke: #b22222"/>
     <use xlink:href="#mf69b05624b" x="238.923837" y="193.366437" style="fill: #b22222; stroke: #b22222"/>
     <use xlink:href="#mf69b05624b" x="309.261222" y="225.448395" style="fill: #b22222; stroke: #b22222"/>
     <use xlink:href="#mf69b05624b" x="262.788637" y="213.883029" style="fill: #b22222; stroke: #b22222"/>
     <use xlink:href="#mf69b05624b" x="252.965236" y="198.654274" style="fill: #b22222; stroke: #b22222"/>
     <use xlink:href="#mf69b05624b" x="267.318847" y="216.629092" style="fill: #b22222; stroke: #b22222"/>
     <use xlink:href="#mf69b05624b" x="263.433061" y="210.818597" style="fill: #b22222; stroke: #b22222"/>
     <use xlink:href="#mf69b05624b" x="262.182315" y="199.817195" style="fill: #b22222; stroke: #b22222"/>
     <use xlink:href="#mf69b05624b" x="256.14228" y="201.777542" style="fill: #b22222; stroke: #b22222"/>
     <use xlink:href="#mf69b05624b" x="255.114293" y="208.277992" style="fill: #b22222; stroke: #b22222"/>
     <use xlink:href="#mf69b05624b" x="248.979152" y="214.304197" style="fill: #b22222; stroke: #b22222"/>
     <use xlink:href="#mf69b05624b" x="275.054901" y="225.033946" style="fill: #b22222; stroke: #b22222"/>
     <use xlink:href="#mf69b05624b" x="282.101514" y="229.185934" style="fill: #b22222; stroke: #b22222"/>
     <use xlink:href="#mf69b05624b" x="274.052828" y="315.655775" style="fill: #b22222; stroke: #b22222"/>
     <use xlink:href="#mf69b05624b" x="255.858289" y="207.925349" style="fill: #b22222; stroke: #b22222"/>
     <use xlink:href="#mf69b05624b" x="294.104531" y="225.893561" style="fill: #b22222; stroke: #b22222"/>
     <use xlink:href="#mf69b05624b" x="284.809945" y="229.601091" style="fill: #b22222; stroke: #b22222"/>
     <use xlink:href="#mf69b05624b" x="277.052059" y="204.717067" style="fill: #b22222; stroke: #b22222"/>
     <use xlink:href="#mf69b05624b" x="264.190249" y="232.251633" style="fill: #b22222; stroke: #b22222"/>
     <use xlink:href="#mf69b05624b" x="269.437441" y="232.313221" style="fill: #b22222; stroke: #b22222"/>
     <use xlink:href="#mf69b05624b" x="273.121552" y="232.695459" style="fill: #b22222; stroke: #b22222"/>
     <use xlink:href="#mf69b05624b" x="244.017147" y="203.378032" style="fill: #b22222; stroke: #b22222"/>
     <use xlink:href="#mf69b05624b" x="260.304566" y="212.758349" style="fill: #b22222; stroke: #b22222"/>
     <use xlink:href="#mf69b05624b" x="253.696767" y="208.856711" style="fill: #b22222; stroke: #b22222"/>
     <use xlink:href="#mf69b05624b" x="247.113554" y="207.298436" style="fill: #b22222; stroke: #b22222"/>
     <use xlink:href="#mf69b05624b" x="274.816161" y="265.548823" style="fill: #b22222; stroke: #b22222"/>
     <use xlink:href="#mf69b05624b" x="311.266449" y="229.559695" style="fill: #b22222; stroke: #b22222"/>
     <use xlink:href="#mf69b05624b" x="249.25128" y="216.571896" style="fill: #b22222; stroke: #b22222"/>
     <use xlink:href="#mf69b05624b" x="276.810479" y="219.24905" style="fill: #b22222; stroke: #b22222"/>
     <use xlink:href="#mf69b05624b" x="267.532373" y="226.069043" style="fill: #b22222; stroke: #b22222"/>
     <use xlink:href="#mf69b05624b" x="291.225481" y="233.621074" style="fill: #b22222; stroke: #b22222"/>
     <use xlink:href="#mf69b05624b" x="254.971205" y="204.242825" style="fill: #b22222; stroke: #b22222"/>
     <use xlink:href="#mf69b05624b" x="365.857412" y="213.184388" style="fill: #b22222; stroke: #b22222"/>
     <use xlink:href="#mf69b05624b" x="282.220061" y="226.514858" style="fill: #b22222; stroke: #b22222"/>
     <use xlink:href="#mf69b05624b" x="257.514777" y="196.790554" style="fill: #b22222; stroke: #b22222"/>
     <use xlink:href="#mf69b05624b" x="278.483079" y="229.201764" style="fill: #b22222; stroke: #b22222"/>
     <use xlink:href="#mf69b05624b" x="270.874795" y="215.150921" style="fill: #b22222; stroke: #b22222"/>
     <use xlink:href="#mf69b05624b" x="288.060835" y="230.041583" style="fill: #b22222; stroke: #b22222"/>
     <use xlink:href="#mf69b05624b" x="268.176865" y="223.665148" style="fill: #b22222; stroke: #b22222"/>
     <use xlink:href="#mf69b05624b" x="261.132748" y="218.544933" style="fill: #b22222; stroke: #b22222"/>
     <use xlink:href="#mf69b05624b" x="267.533743" y="211.704165" style="fill: #b22222; stroke: #b22222"/>
     <use xlink:href="#mf69b05624b" x="253.078193" y="195.609317" style="fill: #b22222; stroke: #b22222"/>
     <use xlink:href="#mf69b05624b" x="292.904208" y="208.951725" style="fill: #b22222; stroke: #b22222"/>
     <use xlink:href="#mf69b05624b" x="286.167904" y="234.024781" style="fill: #b22222; stroke: #b22222"/>
     <use xlink:href="#mf69b05624b" x="262.788632" y="209.992884" style="fill: #b22222; stroke: #b22222"/>
     <use xlink:href="#mf69b05624b" x="283.246154" y="210.444735" style="fill: #b22222; stroke: #b22222"/>
     <use xlink:href="#mf69b05624b" x="261.11241" y="221.820291" style="fill: #b22222; stroke: #b22222"/>
     <use xlink:href="#mf69b05624b" x="257.996356" y="214.990603" style="fill: #b22222; stroke: #b22222"/>
     <use xlink:href="#mf69b05624b" x="261.206364" y="204.225798" style="fill: #b22222; stroke: #b22222"/>
     <use xlink:href="#mf69b05624b" x="286.570407" y="218.989768" style="fill: #b22222; stroke: #b22222"/>
     <use xlink:href="#mf69b05624b" x="255.88652" y="212.376562" style="fill: #b22222; stroke: #b22222"/>
     <use xlink:href="#mf69b05624b" x="261.460218" y="213.390875" style="fill: #b22222; stroke: #b22222"/>
     <use xlink:href="#mf69b05624b" x="284.040909" y="209.68565" style="fill: #b22222; stroke: #b22222"/>
     <use xlink:href="#mf69b05624b" x="278.373928" y="227.681677" style="fill: #b22222; stroke: #b22222"/>
     <use xlink:href="#mf69b05624b" x="280.758618" y="232.696978" style="fill: #b22222; stroke: #b22222"/>
     <use xlink:href="#mf69b05624b" x="252.790016" y="221.313908" style="fill: #b22222; stroke: #b22222"/>
     <use xlink:href="#mf69b05624b" x="271.942488" y="200.174543" style="fill: #b22222; stroke: #b22222"/>
     <use xlink:href="#mf69b05624b" x="270.499315" y="223.643988" style="fill: #b22222; stroke: #b22222"/>
     <use xlink:href="#mf69b05624b" x="268.675898" y="199.132552" style="fill: #b22222; stroke: #b22222"/>
     <use xlink:href="#mf69b05624b" x="286.311336" y="220.665939" style="fill: #b22222; stroke: #b22222"/>
     <use xlink:href="#mf69b05624b" x="268.465616" y="203.709582" style="fill: #b22222; stroke: #b22222"/>
     <use xlink:href="#mf69b05624b" x="271.290622" y="221.720561" style="fill: #b22222; stroke: #b22222"/>
     <use xlink:href="#mf69b05624b" x="260.777362" y="216.067412" style="fill: #b22222; stroke: #b22222"/>
     <use xlink:href="#mf69b05624b" x="289.086444" y="203.111503" style="fill: #b22222; stroke: #b22222"/>
     <use xlink:href="#mf69b05624b" x="258.49947" y="210.144685" style="fill: #b22222; stroke: #b22222"/>
     <use xlink:href="#mf69b05624b" x="274.954124" y="194.722914" style="fill: #b22222; stroke: #b22222"/>
     <use xlink:href="#mf69b05624b" x="263.800429" y="193.583223" style="fill: #b22222; stroke: #b22222"/>
     <use xlink:href="#mf69b05624b" x="263.010159" y="202.636733" style="fill: #b22222; stroke: #b22222"/>
     <use xlink:href="#mf69b05624b" x="247.532718" y="199.369787" style="fill: #b22222; stroke: #b22222"/>
     <use xlink:href="#mf69b05624b" x="242.378598" y="236.476675" style="fill: #b22222; stroke: #b22222"/>
     <use xlink:href="#mf69b05624b" x="253.23991" y="205.389706" style="fill: #b22222; stroke: #b22222"/>
     <use xlink:href="#mf69b05624b" x="258.138756" y="217.776702" style="fill: #b22222; stroke: #b22222"/>
     <use xlink:href="#mf69b05624b" x="263.878277" y="220.177105" style="fill: #b22222; stroke: #b22222"/>
     <use xlink:href="#mf69b05624b" x="268.294656" y="201.586123" style="fill: #b22222; stroke: #b22222"/>
     <use xlink:href="#mf69b05624b" x="252.618837" y="212.876681" style="fill: #b22222; stroke: #b22222"/>
    </g>
   </g>
   <g id="patch_4">
    <path d="M 56.450156 450.72 
L 56.450156 7.2 
" style="fill: none; stroke: #ffffff; stroke-width: 1.25; stroke-linejoin: miter; stroke-linecap: square"/>
   </g>
   <g id="patch_5">
    <path d="M 499.970156 450.72 
L 499.970156 7.2 
" style="fill: none; stroke: #ffffff; stroke-width: 1.25; stroke-linejoin: miter; stroke-linecap: square"/>
   </g>
   <g id="patch_6">
    <path d="M 56.450156 450.72 
L 499.970156 450.72 
" style="fill: none; stroke: #ffffff; stroke-width: 1.25; stroke-linejoin: miter; stroke-linecap: square"/>
   </g>
   <g id="patch_7">
    <path d="M 56.450156 7.2 
L 499.970156 7.2 
" style="fill: none; stroke: #ffffff; stroke-width: 1.25; stroke-linejoin: miter; stroke-linecap: square"/>
   </g>
   <g id="text_13">
    <!-- t = 2100 -->
    <g style="fill: #262626" transform="translate(65.320556 24.659775) scale(0.12 -0.12)">
     <defs>
      <path id="ArialMT-74" d="M 1650 503 
L 1731 6 
Q 1494 -44 1306 -44 
Q 1000 -44 831 53 
Q 663 150 594 308 
Q 525 466 525 972 
L 525 2881 
L 113 2881 
L 113 3319 
L 525 3319 
L 525 4141 
L 1084 4478 
L 1084 3319 
L 1650 3319 
L 1650 2881 
L 1084 2881 
L 1084 941 
Q 1084 700 1114 631 
Q 1144 563 1211 522 
Q 1278 481 1403 481 
Q 1497 481 1650 503 
z
" transform="scale(0.015625)"/>
      <path id="ArialMT-20" transform="scale(0.015625)"/>
      <path id="ArialMT-3d" d="M 3381 2694 
L 356 2694 
L 356 3219 
L 3381 3219 
L 3381 2694 
z
M 3381 1303 
L 356 1303 
L 356 1828 
L 3381 1828 
L 3381 1303 
z
" transform="scale(0.015625)"/>
      <path id="ArialMT-31" d="M 2384 0 
L 1822 0 
L 1822 3584 
Q 1619 3391 1289 3197 
Q 959 3003 697 2906 
L 697 3450 
Q 1169 3672 1522 3987 
Q 1875 4303 2022 4600 
L 2384 4600 
L 2384 0 
z
" transform="scale(0.015625)"/>
     </defs>
     <use xlink:href="#ArialMT-74"/>
     <use xlink:href="#ArialMT-20" x="27.783203"/>
     <use xlink:href="#ArialMT-3d" x="55.566406"/>
     <use xlink:href="#ArialMT-20" x="113.964844"/>
     <use xlink:href="#ArialMT-32" x="141.748047"/>
     <use xlink:href="#ArialMT-31" x="197.363281"/>
     <use xlink:href="#ArialMT-30" x="252.978516"/>
     <use xlink:href="#ArialMT-30" x="308.59375"/>
    </g>
   </g>
   <g id="legend_1">
    <g id="patch_8">
     <path d="M 328.111406 94.59 
L 483.170156 94.59 
Q 487.970156 94.59 487.970156 89.79 
L 487.970156 24 
Q 487.970156 19.2 483.170156 19.2 
L 328.111406 19.2 
Q 323.311406 19.2 323.311406 24 
L 323.311406 89.79 
Q 323.311406 94.59 328.111406 94.59 
z
" style="fill: #eaeaf2; opacity: 0.8; stroke: #cccccc; stroke-linejoin: miter"/>
    </g>
    <g id="PathCollection_3">
     <g>
      <use xlink:href="#m94483908f7" x="356.911406" y="39.97125" style="fill: #4169e1; stroke: #4169e1"/>
     </g>
    </g>
    <g id="text_14">
     <!-- Sheep -->
     <g style="fill: #262626" transform="translate(400.111406 46.27125) scale(0.24 -0.24)">
      <defs>
       <path id="ArialMT-53" d="M 288 1472 
L 859 1522 
Q 900 1178 1048 958 
Q 1197 738 1509 602 
Q 1822 466 2213 466 
Q 2559 466 2825 569 
Q 3091 672 3220 851 
Q 3350 1031 3350 1244 
Q 3350 1459 3225 1620 
Q 3100 1781 2813 1891 
Q 2628 1963 1997 2114 
Q 1366 2266 1113 2400 
Q 784 2572 623 2826 
Q 463 3081 463 3397 
Q 463 3744 659 4045 
Q 856 4347 1234 4503 
Q 1613 4659 2075 4659 
Q 2584 4659 2973 4495 
Q 3363 4331 3572 4012 
Q 3781 3694 3797 3291 
L 3216 3247 
Q 3169 3681 2898 3903 
Q 2628 4125 2100 4125 
Q 1550 4125 1298 3923 
Q 1047 3722 1047 3438 
Q 1047 3191 1225 3031 
Q 1400 2872 2139 2705 
Q 2878 2538 3153 2413 
Q 3553 2228 3743 1945 
Q 3934 1663 3934 1294 
Q 3934 928 3725 604 
Q 3516 281 3123 101 
Q 2731 -78 2241 -78 
Q 1619 -78 1198 103 
Q 778 284 539 648 
Q 300 1013 288 1472 
z
" transform="scale(0.015625)"/>
       <path id="ArialMT-68" d="M 422 0 
L 422 4581 
L 984 4581 
L 984 2938 
Q 1378 3394 1978 3394 
Q 2347 3394 2619 3248 
Q 2891 3103 3008 2847 
Q 3125 2591 3125 2103 
L 3125 0 
L 2563 0 
L 2563 2103 
Q 2563 2525 2380 2717 
Q 2197 2909 1863 2909 
Q 1613 2909 1392 2779 
Q 1172 2650 1078 2428 
Q 984 2206 984 1816 
L 984 0 
L 422 0 
z
" transform="scale(0.015625)"/>
       <path id="ArialMT-65" d="M 2694 1069 
L 3275 997 
Q 3138 488 2766 206 
Q 2394 -75 1816 -75 
Q 1088 -75 661 373 
Q 234 822 234 1631 
Q 234 2469 665 2931 
Q 1097 3394 1784 3394 
Q 2450 3394 2872 2941 
Q 3294 2488 3294 1666 
Q 3294 1616 3291 1516 
L 816 1516 
Q 847 969 1125 678 
Q 1403 388 1819 388 
Q 2128 388 2347 550 
Q 2566 713 2694 1069 
z
M 847 1978 
L 2700 1978 
Q 2663 2397 2488 2606 
Q 2219 2931 1791 2931 
Q 1403 2931 1139 2672 
Q 875 2413 847 1978 
z
" transform="scale(0.015625)"/>
       <path id="ArialMT-70" d="M 422 -1272 
L 422 3319 
L 934 3319 
L 934 2888 
Q 1116 3141 1344 3267 
Q 1572 3394 1897 3394 
Q 2322 3394 2647 3175 
Q 2972 2956 3137 2557 
Q 3303 2159 3303 1684 
Q 3303 1175 3120 767 
Q 2938 359 2589 142 
Q 2241 -75 1856 -75 
Q 1575 -75 1351 44 
Q 1128 163 984 344 
L 984 -1272 
L 422 -1272 
z
M 931 1641 
Q 931 1000 1190 694 
Q 1450 388 1819 388 
Q 2194 388 2461 705 
Q 2728 1022 2728 1688 
Q 2728 2322 2467 2637 
Q 2206 2953 1844 2953 
Q 1484 2953 1207 2617 
Q 931 2281 931 1641 
z
" transform="scale(0.015625)"/>
      </defs>
      <use xlink:href="#ArialMT-53"/>
      <use xlink:href="#ArialMT-68" x="66.699219"/>
      <use xlink:href="#ArialMT-65" x="122.314453"/>
      <use xlink:href="#ArialMT-65" x="177.929688"/>
      <use xlink:href="#ArialMT-70" x="233.544922"/>
     </g>
    </g>
    <g id="PathCollection_4">
     <g>
      <use xlink:href="#mf69b05624b" x="356.911406" y="73.92" style="fill: #b22222; stroke: #b22222"/>
     </g>
    </g>
    <g id="text_15">
     <!-- Wolves -->
     <g style="fill: #262626" transform="translate(400.111406 80.22) scale(0.24 -0.24)">
      <defs>
       <path id="ArialMT-57" d="M 1294 0 
L 78 4581 
L 700 4581 
L 1397 1578 
Q 1509 1106 1591 641 
Q 1766 1375 1797 1488 
L 2669 4581 
L 3400 4581 
L 4056 2263 
Q 4303 1400 4413 641 
Q 4500 1075 4641 1638 
L 5359 4581 
L 5969 4581 
L 4713 0 
L 4128 0 
L 3163 3491 
Q 3041 3928 3019 4028 
Q 2947 3713 2884 3491 
L 1913 0 
L 1294 0 
z
" transform="scale(0.015625)"/>
       <path id="ArialMT-6f" d="M 213 1659 
Q 213 2581 725 3025 
Q 1153 3394 1769 3394 
Q 2453 3394 2887 2945 
Q 3322 2497 3322 1706 
Q 3322 1066 3130 698 
Q 2938 331 2570 128 
Q 2203 -75 1769 -75 
Q 1072 -75 642 372 
Q 213 819 213 1659 
z
M 791 1659 
Q 791 1022 1069 705 
Q 1347 388 1769 388 
Q 2188 388 2466 706 
Q 2744 1025 2744 1678 
Q 2744 2294 2464 2611 
Q 2184 2928 1769 2928 
Q 1347 2928 1069 2612 
Q 791 2297 791 1659 
z
" transform="scale(0.015625)"/>
       <path id="ArialMT-6c" d="M 409 0 
L 409 4581 
L 972 4581 
L 972 0 
L 409 0 
z
" transform="scale(0.015625)"/>
       <path id="ArialMT-76" d="M 1344 0 
L 81 3319 
L 675 3319 
L 1388 1331 
Q 1503 1009 1600 663 
Q 1675 925 1809 1294 
L 2547 3319 
L 3125 3319 
L 1869 0 
L 1344 0 
z
" transform="scale(0.015625)"/>
       <path id="ArialMT-73" d="M 197 991 
L 753 1078 
Q 800 744 1014 566 
Q 1228 388 1613 388 
Q 2000 388 2187 545 
Q 2375 703 2375 916 
Q 2375 1106 2209 1216 
Q 2094 1291 1634 1406 
Q 1016 1563 777 1677 
Q 538 1791 414 1992 
Q 291 2194 291 2438 
Q 291 2659 392 2848 
Q 494 3038 669 3163 
Q 800 3259 1026 3326 
Q 1253 3394 1513 3394 
Q 1903 3394 2198 3281 
Q 2494 3169 2634 2976 
Q 2775 2784 2828 2463 
L 2278 2388 
Q 2241 2644 2061 2787 
Q 1881 2931 1553 2931 
Q 1166 2931 1000 2803 
Q 834 2675 834 2503 
Q 834 2394 903 2306 
Q 972 2216 1119 2156 
Q 1203 2125 1616 2013 
Q 2213 1853 2448 1751 
Q 2684 1650 2818 1456 
Q 2953 1263 2953 975 
Q 2953 694 2789 445 
Q 2625 197 2315 61 
Q 2006 -75 1616 -75 
Q 969 -75 630 194 
Q 291 463 197 991 
z
" transform="scale(0.015625)"/>
      </defs>
      <use xlink:href="#ArialMT-57"/>
      <use xlink:href="#ArialMT-6f" x="92.634766"/>
      <use xlink:href="#ArialMT-6c" x="148.25"/>
      <use xlink:href="#ArialMT-76" x="170.466797"/>
      <use xlink:href="#ArialMT-65" x="220.466797"/>
      <use xlink:href="#ArialMT-73" x="276.082031"/>
     </g>
    </g>
   </g>
  </g>
 </g>
 <defs>
  <clipPath id="p77e278c383">
   <rect x="56.450156" y="7.2" width="443.52" height="443.52"/>
  </clipPath>
 </defs>
</svg>
