<?xml version="1.0" encoding="utf-8" standalone="no"?>
<!DOCTYPE svg PUBLIC "-//W3C//DTD SVG 1.1//EN"
  "http://www.w3.org/Graphics/SVG/1.1/DTD/svg11.dtd">
<svg xmlns:xlink="http://www.w3.org/1999/xlink" width="507.170156pt" height="492.454219pt" viewBox="0 0 507.170156 492.454219" xmlns="http://www.w3.org/2000/svg" version="1.1">
 <metadata>
  <rdf:RDF xmlns:dc="http://purl.org/dc/elements/1.1/" xmlns:cc="http://creativecommons.org/ns#" xmlns:rdf="http://www.w3.org/1999/02/22-rdf-syntax-ns#">
   <cc:Work>
    <dc:type rdf:resource="http://purl.org/dc/dcmitype/StillImage"/>
    <dc:date>2026-05-12T10:49:57.966715</dc:date>
    <dc:format>image/svg+xml</dc:format>
    <dc:creator>
     <cc:Agent>
      <dc:title>Matplotlib v3.7.1, https://matplotlib.org/</dc:title>
     </cc:Agent>
    </dc:creator>
   </cc:Work>
  </rdf:RDF>
 </metadata>
 <defs>
  <style type="text/css">*{stroke-linejoin: round; stroke-linecap: butt}</style>
 </defs>
 <g id="figure_1">
  <g id="patch_1">
   <path d="M 0 492.454219 
L 507.170156 492.454219 
L 507.170156 0 
L 0 0 
z
" style="fill: #ffffff"/>
  </g>
  <g id="axes_1">
   <g id="patch_2">
    <path d="M 56.450156 450.72 
L 499.970156 450.72 
L 499.970156 7.2 
L 56.450156 7.2 
z
" style="fill: #eaeaf2"/>
   </g>
   <g id="matplotlib.axis_1">
    <g id="xtick_1">
     <g id="line2d_1">
      <path d="M 100.802156 450.72 
L 100.802156 7.2 
" clip-path="url(#p9c3ce7d537)" style="fill: none; stroke: #ffffff; stroke-linecap: round"/>
     </g>
     <g id="text_1">
      <!-- −400 -->
      <g style="fill: #262626" transform="translate(88.414266 468.093594) scale(0.11 -0.11)">
       <defs>
        <path id="ArialMT-2212" d="M 3381 1997 
L 356 1997 
L 356 2522 
L 3381 2522 
L 3381 1997 
z
" transform="scale(0.015625)"/>
        <path id="ArialMT-34" d="M 2069 0 
L 2069 1097 
L 81 1097 
L 81 1613 
L 2172 4581 
L 2631 4581 
L 2631 1613 
L 3250 1613 
L 3250 1097 
L 2631 1097 
L 2631 0 
L 2069 0 
z
M 2069 1613 
L 2069 3678 
L 634 1613 
L 2069 1613 
z
" transform="scale(0.015625)"/>
        <path id="ArialMT-30" d="M 266 2259 
Q 266 3072 433 3567 
Q 600 4063 929 4331 
Q 1259 4600 1759 4600 
Q 2128 4600 2406 4451 
Q 2684 4303 2865 4023 
Q 3047 3744 3150 3342 
Q 3253 2941 3253 2259 
Q 3253 1453 3087 958 
Q 2922 463 2592 192 
Q 2263 -78 1759 -78 
Q 1097 -78 719 397 
Q 266 969 266 2259 
z
M 844 2259 
Q 844 1131 1108 757 
Q 1372 384 1759 384 
Q 2147 384 2411 759 
Q 2675 1134 2675 2259 
Q 2675 3391 2411 3762 
Q 2147 4134 1753 4134 
Q 1366 4134 1134 3806 
Q 844 3388 844 2259 
z
" transform="scale(0.015625)"/>
       </defs>
       <use xlink:href="#ArialMT-2212"/>
       <use xlink:href="#ArialMT-34" x="58.398438"/>
       <use xlink:href="#ArialMT-30" x="114.013672"/>
       <use xlink:href="#ArialMT-30" x="169.628906"/>
      </g>
     </g>
    </g>
    <g id="xtick_2">
     <g id="line2d_2">
      <path d="M 189.506156 450.72 
L 189.506156 7.2 
" clip-path="url(#p9c3ce7d537)" style="fill: none; stroke: #ffffff; stroke-linecap: round"/>
     </g>
     <g id="text_2">
      <!-- −200 -->
      <g style="fill: #262626" transform="translate(177.118266 468.093594) scale(0.11 -0.11)">
       <defs>
        <path id="ArialMT-32" d="M 3222 541 
L 3222 0 
L 194 0 
Q 188 203 259 391 
Q 375 700 629 1000 
Q 884 1300 1366 1694 
Q 2113 2306 2375 2664 
Q 2638 3022 2638 3341 
Q 2638 3675 2398 3904 
Q 2159 4134 1775 4134 
Q 1369 4134 1125 3890 
Q 881 3647 878 3216 
L 300 3275 
Q 359 3922 746 4261 
Q 1134 4600 1788 4600 
Q 2447 4600 2831 4234 
Q 3216 3869 3216 3328 
Q 3216 3053 3103 2787 
Q 2991 2522 2730 2228 
Q 2469 1934 1863 1422 
Q 1356 997 1212 845 
Q 1069 694 975 541 
L 3222 541 
z
" transform="scale(0.015625)"/>
       </defs>
       <use xlink:href="#ArialMT-2212"/>
       <use xlink:href="#ArialMT-32" x="58.398438"/>
       <use xlink:href="#ArialMT-30" x="114.013672"/>
       <use xlink:href="#ArialMT-30" x="169.628906"/>
      </g>
     </g>
    </g>
    <g id="xtick_3">
     <g id="line2d_3">
      <path d="M 278.210156 450.72 
L 278.210156 7.2 
" clip-path="url(#p9c3ce7d537)" style="fill: none; stroke: #ffffff; stroke-linecap: round"/>
     </g>
     <g id="text_3">
      <!-- 0 -->
      <g style="fill: #262626" transform="translate(275.151641 468.093594) scale(0.11 -0.11)">
       <use xlink:href="#ArialMT-30"/>
      </g>
     </g>
    </g>
    <g id="xtick_4">
     <g id="line2d_4">
      <path d="M 366.914156 450.72 
L 366.914156 7.2 
" clip-path="url(#p9c3ce7d537)" style="fill: none; stroke: #ffffff; stroke-linecap: round"/>
     </g>
     <g id="text_4">
      <!-- 200 -->
      <g style="fill: #262626" transform="translate(357.738609 468.093594) scale(0.11 -0.11)">
       <use xlink:href="#ArialMT-32"/>
       <use xlink:href="#ArialMT-30" x="55.615234"/>
       <use xlink:href="#ArialMT-30" x="111.230469"/>
      </g>
     </g>
    </g>
    <g id="xtick_5">
     <g id="line2d_5">
      <path d="M 455.618156 450.72 
L 455.618156 7.2 
" clip-path="url(#p9c3ce7d537)" style="fill: none; stroke: #ffffff; stroke-linecap: round"/>
     </g>
     <g id="text_5">
      <!-- 400 -->
      <g style="fill: #262626" transform="translate(446.442609 468.093594) scale(0.11 -0.11)">
       <use xlink:href="#ArialMT-34"/>
       <use xlink:href="#ArialMT-30" x="55.615234"/>
       <use xlink:href="#ArialMT-30" x="111.230469"/>
      </g>
     </g>
    </g>
    <g id="text_6">
     <!-- x -->
     <g style="fill: #262626" transform="translate(275.210156 482.869219) scale(0.12 -0.12)">
      <defs>
       <path id="ArialMT-78" d="M 47 0 
L 1259 1725 
L 138 3319 
L 841 3319 
L 1350 2541 
Q 1494 2319 1581 2169 
Q 1719 2375 1834 2534 
L 2394 3319 
L 3066 3319 
L 1919 1756 
L 3153 0 
L 2463 0 
L 1781 1031 
L 1600 1309 
L 728 0 
L 47 0 
z
" transform="scale(0.015625)"/>
      </defs>
      <use xlink:href="#ArialMT-78"/>
     </g>
    </g>
   </g>
   <g id="matplotlib.axis_2">
    <g id="ytick_1">
     <g id="line2d_6">
      <path d="M 56.450156 406.368 
L 499.970156 406.368 
" clip-path="url(#p9c3ce7d537)" style="fill: none; stroke: #ffffff; stroke-linecap: round"/>
     </g>
     <g id="text_7">
      <!-- −400 -->
      <g style="fill: #262626" transform="translate(22.174375 410.304797) scale(0.11 -0.11)">
       <use xlink:href="#ArialMT-2212"/>
       <use xlink:href="#ArialMT-34" x="58.398438"/>
       <use xlink:href="#ArialMT-30" x="114.013672"/>
       <use xlink:href="#ArialMT-30" x="169.628906"/>
      </g>
     </g>
    </g>
    <g id="ytick_2">
     <g id="line2d_7">
      <path d="M 56.450156 317.664 
L 499.970156 317.664 
" clip-path="url(#p9c3ce7d537)" style="fill: none; stroke: #ffffff; stroke-linecap: round"/>
     </g>
     <g id="text_8">
      <!-- −200 -->
      <g style="fill: #262626" transform="translate(22.174375 321.600797) scale(0.11 -0.11)">
       <use xlink:href="#ArialMT-2212"/>
       <use xlink:href="#ArialMT-32" x="58.398438"/>
       <use xlink:href="#ArialMT-30" x="114.013672"/>
       <use xlink:href="#ArialMT-30" x="169.628906"/>
      </g>
     </g>
    </g>
    <g id="ytick_3">
     <g id="line2d_8">
      <path d="M 56.450156 228.96 
L 499.970156 228.96 
" clip-path="url(#p9c3ce7d537)" style="fill: none; stroke: #ffffff; stroke-linecap: round"/>
     </g>
     <g id="text_9">
      <!-- 0 -->
      <g style="fill: #262626" transform="translate(40.833125 232.896797) scale(0.11 -0.11)">
       <use xlink:href="#ArialMT-30"/>
      </g>
     </g>
    </g>
    <g id="ytick_4">
     <g id="line2d_9">
      <path d="M 56.450156 140.256 
L 499.970156 140.256 
" clip-path="url(#p9c3ce7d537)" style="fill: none; stroke: #ffffff; stroke-linecap: round"/>
     </g>
     <g id="text_10">
      <!-- 200 -->
      <g style="fill: #262626" transform="translate(28.599063 144.192797) scale(0.11 -0.11)">
       <use xlink:href="#ArialMT-32"/>
       <use xlink:href="#ArialMT-30" x="55.615234"/>
       <use xlink:href="#ArialMT-30" x="111.230469"/>
      </g>
     </g>
    </g>
    <g id="ytick_5">
     <g id="line2d_10">
      <path d="M 56.450156 51.552 
L 499.970156 51.552 
" clip-path="url(#p9c3ce7d537)" style="fill: none; stroke: #ffffff; stroke-linecap: round"/>
     </g>
     <g id="text_11">
      <!-- 400 -->
      <g style="fill: #262626" transform="translate(28.599063 55.488797) scale(0.11 -0.11)">
       <use xlink:href="#ArialMT-34"/>
       <use xlink:href="#ArialMT-30" x="55.615234"/>
       <use xlink:href="#ArialMT-30" x="111.230469"/>
      </g>
     </g>
    </g>
    <g id="text_12">
     <!-- y -->
     <g style="fill: #262626" transform="translate(15.64875 231.96) rotate(-90) scale(0.12 -0.12)">
      <defs>
       <path id="ArialMT-79" d="M 397 -1278 
L 334 -750 
Q 519 -800 656 -800 
Q 844 -800 956 -737 
Q 1069 -675 1141 -563 
Q 1194 -478 1313 -144 
Q 1328 -97 1363 -6 
L 103 3319 
L 709 3319 
L 1400 1397 
Q 1534 1031 1641 628 
Q 1738 1016 1872 1384 
L 2581 3319 
L 3144 3319 
L 1881 -56 
Q 1678 -603 1566 -809 
Q 1416 -1088 1222 -1217 
Q 1028 -1347 759 -1347 
Q 597 -1347 397 -1278 
z
" transform="scale(0.015625)"/>
      </defs>
      <use xlink:href="#ArialMT-79"/>
     </g>
    </g>
   </g>
   <g id="patch_3">
    <path d="M 278.210156 317.664 
C 301.734732 317.664 324.298969 308.317587 340.933356 291.6832 
C 357.567743 275.048813 366.914156 252.484576 366.914156 228.96 
C 366.914156 205.435424 357.567743 182.871187 340.933356 166.2368 
C 324.298969 149.602413 301.734732 140.256 278.210156 140.256 
C 254.68558 140.256 232.121343 149.602413 215.486956 166.2368 
C 198.852569 182.871187 189.506156 205.435424 189.506156 228.96 
C 189.506156 252.484576 198.852569 275.048813 215.486956 291.6832 
C 232.121343 308.317587 254.68558 317.664 278.210156 317.664 
z
" clip-path="url(#p9c3ce7d537)" style="fill: #228b22; opacity: 0.12; stroke: #228b22; stroke-width: 1.5; stroke-linejoin: miter"/>
   </g>
   <g id="PathCollection_1">
    <defs>
     <path id="ma5ef2ba838" d="M 0 2.236068 
C 0.593012 2.236068 1.161816 2.000462 1.581139 1.581139 
C 2.000462 1.161816 2.236068 0.593012 2.236068 0 
C 2.236068 -0.593012 2.000462 -1.161816 1.581139 -1.581139 
C 1.161816 -2.000462 0.593012 -2.236068 0 -2.236068 
C -0.593012 -2.236068 -1.161816 -2.000462 -1.581139 -1.581139 
C -2.000462 -1.161816 -2.236068 -0.593012 -2.236068 0 
C -2.236068 0.593012 -2.000462 1.161816 -1.581139 1.581139 
C -1.161816 2.000462 -0.593012 2.236068 0 2.236068 
z
" style="stroke: #4169e1"/>
    </defs>
    <g clip-path="url(#p9c3ce7d537)">
     <use xlink:href="#ma5ef2ba838" x="373.026518" y="143.362765" style="fill: #4169e1; stroke: #4169e1"/>
     <use xlink:href="#ma5ef2ba838" x="395.122681" y="198.636783" style="fill: #4169e1; stroke: #4169e1"/>
     <use xlink:href="#ma5ef2ba838" x="329.159611" y="212.871017" style="fill: #4169e1; stroke: #4169e1"/>
     <use xlink:href="#ma5ef2ba838" x="289.934748" y="174.857456" style="fill: #4169e1; stroke: #4169e1"/>
     <use xlink:href="#ma5ef2ba838" x="321.860575" y="236.833241" style="fill: #4169e1; stroke: #4169e1"/>
     <use xlink:href="#ma5ef2ba838" x="273.149287" y="225.704035" style="fill: #4169e1; stroke: #4169e1"/>
     <use xlink:href="#ma5ef2ba838" x="418.249593" y="133.77578" style="fill: #4169e1; stroke: #4169e1"/>
     <use xlink:href="#ma5ef2ba838" x="367.333712" y="277.875161" style="fill: #4169e1; stroke: #4169e1"/>
     <use xlink:href="#ma5ef2ba838" x="377.590336" y="264.340276" style="fill: #4169e1; stroke: #4169e1"/>
     <use xlink:href="#ma5ef2ba838" x="304.448826" y="127.059473" style="fill: #4169e1; stroke: #4169e1"/>
     <use xlink:href="#ma5ef2ba838" x="382.845089" y="181.773887" style="fill: #4169e1; stroke: #4169e1"/>
     <use xlink:href="#ma5ef2ba838" x="367.619135" y="202.666105" style="fill: #4169e1; stroke: #4169e1"/>
     <use xlink:href="#ma5ef2ba838" x="447.211823" y="293.941169" style="fill: #4169e1; stroke: #4169e1"/>
     <use xlink:href="#ma5ef2ba838" x="276.319878" y="321.860799" style="fill: #4169e1; stroke: #4169e1"/>
     <use xlink:href="#ma5ef2ba838" x="237.735853" y="145.960872" style="fill: #4169e1; stroke: #4169e1"/>
     <use xlink:href="#ma5ef2ba838" x="347.509094" y="314.303112" style="fill: #4169e1; stroke: #4169e1"/>
     <use xlink:href="#ma5ef2ba838" x="340.920965" y="86.0992" style="fill: #4169e1; stroke: #4169e1"/>
     <use xlink:href="#ma5ef2ba838" x="415.376702" y="189.994732" style="fill: #4169e1; stroke: #4169e1"/>
     <use xlink:href="#ma5ef2ba838" x="253.940867" y="302.743148" style="fill: #4169e1; stroke: #4169e1"/>
     <use xlink:href="#ma5ef2ba838" x="344.977681" y="190.172942" style="fill: #4169e1; stroke: #4169e1"/>
     <use xlink:href="#ma5ef2ba838" x="286.111761" y="278.627899" style="fill: #4169e1; stroke: #4169e1"/>
     <use xlink:href="#ma5ef2ba838" x="259.897663" y="200.743145" style="fill: #4169e1; stroke: #4169e1"/>
     <use xlink:href="#ma5ef2ba838" x="347.944817" y="162.384952" style="fill: #4169e1; stroke: #4169e1"/>
     <use xlink:href="#ma5ef2ba838" x="334.168245" y="162.440419" style="fill: #4169e1; stroke: #4169e1"/>
     <use xlink:href="#ma5ef2ba838" x="290.345618" y="292.846181" style="fill: #4169e1; stroke: #4169e1"/>
     <use xlink:href="#ma5ef2ba838" x="361.566132" y="126.908637" style="fill: #4169e1; stroke: #4169e1"/>
     <use xlink:href="#ma5ef2ba838" x="298.289285" y="195.745718" style="fill: #4169e1; stroke: #4169e1"/>
     <use xlink:href="#ma5ef2ba838" x="311.391077" y="150.296162" style="fill: #4169e1; stroke: #4169e1"/>
     <use xlink:href="#ma5ef2ba838" x="296.113329" y="312.581562" style="fill: #4169e1; stroke: #4169e1"/>
     <use xlink:href="#ma5ef2ba838" x="351.533772" y="247.389785" style="fill: #4169e1; stroke: #4169e1"/>
     <use xlink:href="#ma5ef2ba838" x="343.636361" y="187.94399" style="fill: #4169e1; stroke: #4169e1"/>
     <use xlink:href="#ma5ef2ba838" x="279.805518" y="308.450754" style="fill: #4169e1; stroke: #4169e1"/>
     <use xlink:href="#ma5ef2ba838" x="351.844641" y="173.857171" style="fill: #4169e1; stroke: #4169e1"/>
     <use xlink:href="#ma5ef2ba838" x="334.550701" y="234.650996" style="fill: #4169e1; stroke: #4169e1"/>
     <use xlink:href="#ma5ef2ba838" x="320.088231" y="199.575084" style="fill: #4169e1; stroke: #4169e1"/>
     <use xlink:href="#ma5ef2ba838" x="354.260768" y="123.849137" style="fill: #4169e1; stroke: #4169e1"/>
     <use xlink:href="#ma5ef2ba838" x="298.298555" y="121.635246" style="fill: #4169e1; stroke: #4169e1"/>
     <use xlink:href="#ma5ef2ba838" x="217.624137" y="289.178018" style="fill: #4169e1; stroke: #4169e1"/>
     <use xlink:href="#ma5ef2ba838" x="281.117261" y="309.686616" style="fill: #4169e1; stroke: #4169e1"/>
     <use xlink:href="#ma5ef2ba838" x="339.488837" y="269.114843" style="fill: #4169e1; stroke: #4169e1"/>
     <use xlink:href="#ma5ef2ba838" x="420.239938" y="233.338363" style="fill: #4169e1; stroke: #4169e1"/>
     <use xlink:href="#ma5ef2ba838" x="397.270507" y="97.469666" style="fill: #4169e1; stroke: #4169e1"/>
     <use xlink:href="#ma5ef2ba838" x="296.407705" y="199.99952" style="fill: #4169e1; stroke: #4169e1"/>
     <use xlink:href="#ma5ef2ba838" x="303.600678" y="134.151814" style="fill: #4169e1; stroke: #4169e1"/>
     <use xlink:href="#ma5ef2ba838" x="272.542164" y="283.492962" style="fill: #4169e1; stroke: #4169e1"/>
     <use xlink:href="#ma5ef2ba838" x="314.12928" y="217.558419" style="fill: #4169e1; stroke: #4169e1"/>
     <use xlink:href="#ma5ef2ba838" x="264.013202" y="234.464256" style="fill: #4169e1; stroke: #4169e1"/>
     <use xlink:href="#ma5ef2ba838" x="291.694121" y="212.489784" style="fill: #4169e1; stroke: #4169e1"/>
     <use xlink:href="#ma5ef2ba838" x="243.186863" y="252.867891" style="fill: #4169e1; stroke: #4169e1"/>
     <use xlink:href="#ma5ef2ba838" x="219.09057" y="282.816573" style="fill: #4169e1; stroke: #4169e1"/>
     <use xlink:href="#ma5ef2ba838" x="281.839797" y="240.046828" style="fill: #4169e1; stroke: #4169e1"/>
     <use xlink:href="#ma5ef2ba838" x="283.12602" y="270.512859" style="fill: #4169e1; stroke: #4169e1"/>
     <use xlink:href="#ma5ef2ba838" x="399.265061" y="149.109007" style="fill: #4169e1; stroke: #4169e1"/>
     <use xlink:href="#ma5ef2ba838" x="362.438973" y="189.150094" style="fill: #4169e1; stroke: #4169e1"/>
     <use xlink:href="#ma5ef2ba838" x="313.678796" y="274.259079" style="fill: #4169e1; stroke: #4169e1"/>
     <use xlink:href="#ma5ef2ba838" x="262.890383" y="208.91769" style="fill: #4169e1; stroke: #4169e1"/>
     <use xlink:href="#ma5ef2ba838" x="300.322521" y="176.766773" style="fill: #4169e1; stroke: #4169e1"/>
     <use xlink:href="#ma5ef2ba838" x="289.12261" y="130.483482" style="fill: #4169e1; stroke: #4169e1"/>
     <use xlink:href="#ma5ef2ba838" x="302.899709" y="245.062048" style="fill: #4169e1; stroke: #4169e1"/>
     <use xlink:href="#ma5ef2ba838" x="266.162412" y="174.628604" style="fill: #4169e1; stroke: #4169e1"/>
     <use xlink:href="#ma5ef2ba838" x="218.256398" y="270.264651" style="fill: #4169e1; stroke: #4169e1"/>
     <use xlink:href="#ma5ef2ba838" x="256.212282" y="160.361243" style="fill: #4169e1; stroke: #4169e1"/>
     <use xlink:href="#ma5ef2ba838" x="339.3701" y="199.662657" style="fill: #4169e1; stroke: #4169e1"/>
     <use xlink:href="#ma5ef2ba838" x="285.531835" y="199.561712" style="fill: #4169e1; stroke: #4169e1"/>
     <use xlink:href="#ma5ef2ba838" x="351.676785" y="268.206705" style="fill: #4169e1; stroke: #4169e1"/>
     <use xlink:href="#ma5ef2ba838" x="370.84078" y="161.310741" style="fill: #4169e1; stroke: #4169e1"/>
     <use xlink:href="#ma5ef2ba838" x="245.636229" y="279.813196" style="fill: #4169e1; stroke: #4169e1"/>
     <use xlink:href="#ma5ef2ba838" x="373.322383" y="166.293506" style="fill: #4169e1; stroke: #4169e1"/>
     <use xlink:href="#ma5ef2ba838" x="407.681181" y="274.597738" style="fill: #4169e1; stroke: #4169e1"/>
     <use xlink:href="#ma5ef2ba838" x="365.445077" y="92.136841" style="fill: #4169e1; stroke: #4169e1"/>
     <use xlink:href="#ma5ef2ba838" x="355.21388" y="233.738443" style="fill: #4169e1; stroke: #4169e1"/>
     <use xlink:href="#ma5ef2ba838" x="370.764434" y="245.298964" style="fill: #4169e1; stroke: #4169e1"/>
     <use xlink:href="#ma5ef2ba838" x="249.628972" y="295.59147" style="fill: #4169e1; stroke: #4169e1"/>
     <use xlink:href="#ma5ef2ba838" x="315.774543" y="294.531159" style="fill: #4169e1; stroke: #4169e1"/>
     <use xlink:href="#ma5ef2ba838" x="263.383919" y="293.070432" style="fill: #4169e1; stroke: #4169e1"/>
     <use xlink:href="#ma5ef2ba838" x="326.372245" y="119.330912" style="fill: #4169e1; stroke: #4169e1"/>
     <use xlink:href="#ma5ef2ba838" x="317.5815" y="158.674011" style="fill: #4169e1; stroke: #4169e1"/>
     <use xlink:href="#ma5ef2ba838" x="306.463284" y="101.913379" style="fill: #4169e1; stroke: #4169e1"/>
     <use xlink:href="#ma5ef2ba838" x="357.390265" y="233.709593" style="fill: #4169e1; stroke: #4169e1"/>
     <use xlink:href="#ma5ef2ba838" x="277.795027" y="327.492466" style="fill: #4169e1; stroke: #4169e1"/>
     <use xlink:href="#ma5ef2ba838" x="438.817684" y="308.21596" style="fill: #4169e1; stroke: #4169e1"/>
     <use xlink:href="#ma5ef2ba838" x="427.419607" y="173.059598" style="fill: #4169e1; stroke: #4169e1"/>
     <use xlink:href="#ma5ef2ba838" x="299.979198" y="125.580473" style="fill: #4169e1; stroke: #4169e1"/>
     <use xlink:href="#ma5ef2ba838" x="345.571962" y="326.208954" style="fill: #4169e1; stroke: #4169e1"/>
     <use xlink:href="#ma5ef2ba838" x="358.032448" y="96.32317" style="fill: #4169e1; stroke: #4169e1"/>
     <use xlink:href="#ma5ef2ba838" x="256.10204" y="195.056664" style="fill: #4169e1; stroke: #4169e1"/>
     <use xlink:href="#ma5ef2ba838" x="298.594838" y="234.021838" style="fill: #4169e1; stroke: #4169e1"/>
     <use xlink:href="#ma5ef2ba838" x="378.385939" y="321.98721" style="fill: #4169e1; stroke: #4169e1"/>
     <use xlink:href="#ma5ef2ba838" x="246.09166" y="115.94914" style="fill: #4169e1; stroke: #4169e1"/>
     <use xlink:href="#ma5ef2ba838" x="350.143448" y="166.639613" style="fill: #4169e1; stroke: #4169e1"/>
     <use xlink:href="#ma5ef2ba838" x="251.182645" y="225.92575" style="fill: #4169e1; stroke: #4169e1"/>
     <use xlink:href="#ma5ef2ba838" x="278.662329" y="236.734524" style="fill: #4169e1; stroke: #4169e1"/>
     <use xlink:href="#ma5ef2ba838" x="324.180068" y="171.343127" style="fill: #4169e1; stroke: #4169e1"/>
     <use xlink:href="#ma5ef2ba838" x="353.028304" y="155.767526" style="fill: #4169e1; stroke: #4169e1"/>
     <use xlink:href="#ma5ef2ba838" x="365.258475" y="271.227643" style="fill: #4169e1; stroke: #4169e1"/>
     <use xlink:href="#ma5ef2ba838" x="234.170744" y="262.46096" style="fill: #4169e1; stroke: #4169e1"/>
     <use xlink:href="#ma5ef2ba838" x="381.350158" y="165.364398" style="fill: #4169e1; stroke: #4169e1"/>
     <use xlink:href="#ma5ef2ba838" x="413.902223" y="282.532933" style="fill: #4169e1; stroke: #4169e1"/>
     <use xlink:href="#ma5ef2ba838" x="253.221475" y="295.203268" style="fill: #4169e1; stroke: #4169e1"/>
     <use xlink:href="#ma5ef2ba838" x="360.536005" y="316.523406" style="fill: #4169e1; stroke: #4169e1"/>
     <use xlink:href="#ma5ef2ba838" x="346.411027" y="206.4506" style="fill: #4169e1; stroke: #4169e1"/>
     <use xlink:href="#ma5ef2ba838" x="336.133302" y="268.161643" style="fill: #4169e1; stroke: #4169e1"/>
     <use xlink:href="#ma5ef2ba838" x="402.751934" y="178.283624" style="fill: #4169e1; stroke: #4169e1"/>
     <use xlink:href="#ma5ef2ba838" x="390.057419" y="276.483818" style="fill: #4169e1; stroke: #4169e1"/>
     <use xlink:href="#ma5ef2ba838" x="276.467629" y="249.172211" style="fill: #4169e1; stroke: #4169e1"/>
     <use xlink:href="#ma5ef2ba838" x="334.944923" y="85.153215" style="fill: #4169e1; stroke: #4169e1"/>
     <use xlink:href="#ma5ef2ba838" x="326.931352" y="193.472404" style="fill: #4169e1; stroke: #4169e1"/>
     <use xlink:href="#ma5ef2ba838" x="362.211853" y="204.221702" style="fill: #4169e1; stroke: #4169e1"/>
     <use xlink:href="#ma5ef2ba838" x="256.739206" y="278.678662" style="fill: #4169e1; stroke: #4169e1"/>
     <use xlink:href="#ma5ef2ba838" x="185.954673" y="233.168766" style="fill: #4169e1; stroke: #4169e1"/>
     <use xlink:href="#ma5ef2ba838" x="401.15511" y="250.458366" style="fill: #4169e1; stroke: #4169e1"/>
     <use xlink:href="#ma5ef2ba838" x="368.183287" y="139.781843" style="fill: #4169e1; stroke: #4169e1"/>
     <use xlink:href="#ma5ef2ba838" x="236.893868" y="150.358729" style="fill: #4169e1; stroke: #4169e1"/>
     <use xlink:href="#ma5ef2ba838" x="422.223366" y="216.609117" style="fill: #4169e1; stroke: #4169e1"/>
     <use xlink:href="#ma5ef2ba838" x="287.714955" y="182.218037" style="fill: #4169e1; stroke: #4169e1"/>
     <use xlink:href="#ma5ef2ba838" x="270.132433" y="229.134285" style="fill: #4169e1; stroke: #4169e1"/>
     <use xlink:href="#ma5ef2ba838" x="263.138574" y="130.864165" style="fill: #4169e1; stroke: #4169e1"/>
     <use xlink:href="#ma5ef2ba838" x="319.025799" y="295.728662" style="fill: #4169e1; stroke: #4169e1"/>
     <use xlink:href="#ma5ef2ba838" x="351.776925" y="149.147163" style="fill: #4169e1; stroke: #4169e1"/>
     <use xlink:href="#ma5ef2ba838" x="302.5802" y="216.217647" style="fill: #4169e1; stroke: #4169e1"/>
     <use xlink:href="#ma5ef2ba838" x="266.023655" y="312.856421" style="fill: #4169e1; stroke: #4169e1"/>
     <use xlink:href="#ma5ef2ba838" x="265.404412" y="159.989344" style="fill: #4169e1; stroke: #4169e1"/>
     <use xlink:href="#ma5ef2ba838" x="322.658601" y="225.978269" style="fill: #4169e1; stroke: #4169e1"/>
     <use xlink:href="#ma5ef2ba838" x="323.400883" y="246.733146" style="fill: #4169e1; stroke: #4169e1"/>
     <use xlink:href="#ma5ef2ba838" x="321.550018" y="315.647438" style="fill: #4169e1; stroke: #4169e1"/>
     <use xlink:href="#ma5ef2ba838" x="274.205724" y="256.56166" style="fill: #4169e1; stroke: #4169e1"/>
     <use xlink:href="#ma5ef2ba838" x="333.965085" y="260.115487" style="fill: #4169e1; stroke: #4169e1"/>
     <use xlink:href="#ma5ef2ba838" x="311.448825" y="199.355602" style="fill: #4169e1; stroke: #4169e1"/>
     <use xlink:href="#ma5ef2ba838" x="222.375471" y="191.123625" style="fill: #4169e1; stroke: #4169e1"/>
     <use xlink:href="#ma5ef2ba838" x="301.707267" y="147.973915" style="fill: #4169e1; stroke: #4169e1"/>
     <use xlink:href="#ma5ef2ba838" x="372.704814" y="177.241396" style="fill: #4169e1; stroke: #4169e1"/>
     <use xlink:href="#ma5ef2ba838" x="325.12514" y="203.612704" style="fill: #4169e1; stroke: #4169e1"/>
     <use xlink:href="#ma5ef2ba838" x="401.690426" y="282.7663" style="fill: #4169e1; stroke: #4169e1"/>
     <use xlink:href="#ma5ef2ba838" x="410.86044" y="108.437771" style="fill: #4169e1; stroke: #4169e1"/>
     <use xlink:href="#ma5ef2ba838" x="387.958536" y="146.779174" style="fill: #4169e1; stroke: #4169e1"/>
     <use xlink:href="#ma5ef2ba838" x="268.448914" y="249.830438" style="fill: #4169e1; stroke: #4169e1"/>
     <use xlink:href="#ma5ef2ba838" x="264.2927" y="279.361234" style="fill: #4169e1; stroke: #4169e1"/>
    </g>
   </g>
   <g id="PathCollection_2">
    <defs>
     <path id="m9d38e788d4" d="M 0 2.5 
C 0.663008 2.5 1.29895 2.236584 1.767767 1.767767 
C 2.236584 1.29895 2.5 0.663008 2.5 0 
C 2.5 -0.663008 2.236584 -1.29895 1.767767 -1.767767 
C 1.29895 -2.236584 0.663008 -2.5 0 -2.5 
C -0.663008 -2.5 -1.29895 -2.236584 -1.767767 -1.767767 
C -2.236584 -1.29895 -2.5 -0.663008 -2.5 0 
C -2.5 0.663008 -2.236584 1.29895 -1.767767 1.767767 
C -1.29895 2.236584 -0.663008 2.5 0 2.5 
z
" style="stroke: #b22222"/>
    </defs>
    <g clip-path="url(#p9c3ce7d537)">
     <use xlink:href="#m9d38e788d4" x="190.480268" y="216.368002" style="fill: #b22222; stroke: #b22222"/>
     <use xlink:href="#m9d38e788d4" x="202.526205" y="239.252378" style="fill: #b22222; stroke: #b22222"/>
     <use xlink:href="#m9d38e788d4" x="149.322822" y="246.665705" style="fill: #b22222; stroke: #b22222"/>
     <use xlink:href="#m9d38e788d4" x="177.339878" y="211.753238" style="fill: #b22222; stroke: #b22222"/>
     <use xlink:href="#m9d38e788d4" x="175.56031" y="213.092777" style="fill: #b22222; stroke: #b22222"/>
     <use xlink:href="#m9d38e788d4" x="337.306861" y="220.875341" style="fill: #b22222; stroke: #b22222"/>
     <use xlink:href="#m9d38e788d4" x="205.349456" y="226.188087" style="fill: #b22222; stroke: #b22222"/>
     <use xlink:href="#m9d38e788d4" x="350.244684" y="188.069569" style="fill: #b22222; stroke: #b22222"/>
     <use xlink:href="#m9d38e788d4" x="320.151474" y="237.813025" style="fill: #b22222; stroke: #b22222"/>
     <use xlink:href="#m9d38e788d4" x="156.717132" y="241.041386" style="fill: #b22222; stroke: #b22222"/>
     <use xlink:href="#m9d38e788d4" x="182.413937" y="208.998575" style="fill: #b22222; stroke: #b22222"/>
     <use xlink:href="#m9d38e788d4" x="164.822146" y="202.81945" style="fill: #b22222; stroke: #b22222"/>
     <use xlink:href="#m9d38e788d4" x="167.004595" y="203.787538" style="fill: #b22222; stroke: #b22222"/>
     <use xlink:href="#m9d38e788d4" x="190.092939" y="233.581589" style="fill: #b22222; stroke: #b22222"/>
     <use xlink:href="#m9d38e788d4" x="182.03297" y="216.768133" style="fill: #b22222; stroke: #b22222"/>
     <use xlink:href="#m9d38e788d4" x="189.615392" y="219.044393" style="fill: #b22222; stroke: #b22222"/>
     <use xlink:href="#m9d38e788d4" x="175.580545" y="214.887226" style="fill: #b22222; stroke: #b22222"/>
     <use xlink:href="#m9d38e788d4" x="177.635682" y="199.84015" style="fill: #b22222; stroke: #b22222"/>
     <use xlink:href="#m9d38e788d4" x="177.434157" y="204.208414" style="fill: #b22222; stroke: #b22222"/>
     <use xlink:href="#m9d38e788d4" x="188.746881" y="229.197985" style="fill: #b22222; stroke: #b22222"/>
     <use xlink:href="#m9d38e788d4" x="167.115448" y="207.395031" style="fill: #b22222; stroke: #b22222"/>
     <use xlink:href="#m9d38e788d4" x="163.387514" y="205.550189" style="fill: #b22222; stroke: #b22222"/>
     <use xlink:href="#m9d38e788d4" x="356.999803" y="231.724969" style="fill: #b22222; stroke: #b22222"/>
     <use xlink:href="#m9d38e788d4" x="193.272198" y="220.231783" style="fill: #b22222; stroke: #b22222"/>
     <use xlink:href="#m9d38e788d4" x="183.590894" y="220.686736" style="fill: #b22222; stroke: #b22222"/>
     <use xlink:href="#m9d38e788d4" x="155.294032" y="200.907666" style="fill: #b22222; stroke: #b22222"/>
     <use xlink:href="#m9d38e788d4" x="154.061006" y="212.045983" style="fill: #b22222; stroke: #b22222"/>
     <use xlink:href="#m9d38e788d4" x="170.89736" y="208.435685" style="fill: #b22222; stroke: #b22222"/>
     <use xlink:href="#m9d38e788d4" x="175.207908" y="205.46865" style="fill: #b22222; stroke: #b22222"/>
     <use xlink:href="#m9d38e788d4" x="304.804789" y="274.297952" style="fill: #b22222; stroke: #b22222"/>
     <use xlink:href="#m9d38e788d4" x="152.456996" y="230.329313" style="fill: #b22222; stroke: #b22222"/>
     <use xlink:href="#m9d38e788d4" x="175.605876" y="250.016727" style="fill: #b22222; stroke: #b22222"/>
     <use xlink:href="#m9d38e788d4" x="334.368548" y="209.947535" style="fill: #b22222; stroke: #b22222"/>
     <use xlink:href="#m9d38e788d4" x="195.551539" y="229.697852" style="fill: #b22222; stroke: #b22222"/>
     <use xlink:href="#m9d38e788d4" x="207.534443" y="229.678635" style="fill: #b22222; stroke: #b22222"/>
     <use xlink:href="#m9d38e788d4" x="182.801544" y="223.170199" style="fill: #b22222; stroke: #b22222"/>
     <use xlink:href="#m9d38e788d4" x="202.619523" y="226.620297" style="fill: #b22222; stroke: #b22222"/>
     <use xlink:href="#m9d38e788d4" x="182.798789" y="209.427687" style="fill: #b22222; stroke: #b22222"/>
     <use xlink:href="#m9d38e788d4" x="154.717015" y="214.115811" style="fill: #b22222; stroke: #b22222"/>
     <use xlink:href="#m9d38e788d4" x="153.479076" y="228.816027" style="fill: #b22222; stroke: #b22222"/>
     <use xlink:href="#m9d38e788d4" x="156.249519" y="203.138685" style="fill: #b22222; stroke: #b22222"/>
     <use xlink:href="#m9d38e788d4" x="190.573207" y="224.986345" style="fill: #b22222; stroke: #b22222"/>
     <use xlink:href="#m9d38e788d4" x="184.800037" y="215.209515" style="fill: #b22222; stroke: #b22222"/>
     <use xlink:href="#m9d38e788d4" x="191.811471" y="219.715871" style="fill: #b22222; stroke: #b22222"/>
     <use xlink:href="#m9d38e788d4" x="300.601139" y="226.055888" style="fill: #b22222; stroke: #b22222"/>
     <use xlink:href="#m9d38e788d4" x="151.56155" y="233.096839" style="fill: #b22222; stroke: #b22222"/>
     <use xlink:href="#m9d38e788d4" x="197.146393" y="225.270843" style="fill: #b22222; stroke: #b22222"/>
     <use xlink:href="#m9d38e788d4" x="189.236908" y="232.957146" style="fill: #b22222; stroke: #b22222"/>
     <use xlink:href="#m9d38e788d4" x="194.227442" y="233.123812" style="fill: #b22222; stroke: #b22222"/>
     <use xlink:href="#m9d38e788d4" x="333.712557" y="212.099569" style="fill: #b22222; stroke: #b22222"/>
     <use xlink:href="#m9d38e788d4" x="174.892485" y="227.72676" style="fill: #b22222; stroke: #b22222"/>
     <use xlink:href="#m9d38e788d4" x="165.922764" y="202.662337" style="fill: #b22222; stroke: #b22222"/>
     <use xlink:href="#m9d38e788d4" x="161.489276" y="240.254565" style="fill: #b22222; stroke: #b22222"/>
     <use xlink:href="#m9d38e788d4" x="168.539665" y="215.313729" style="fill: #b22222; stroke: #b22222"/>
     <use xlink:href="#m9d38e788d4" x="198.056984" y="230.689721" style="fill: #b22222; stroke: #b22222"/>
     <use xlink:href="#m9d38e788d4" x="170.903458" y="206.456351" style="fill: #b22222; stroke: #b22222"/>
     <use xlink:href="#m9d38e788d4" x="152.590493" y="242.158838" style="fill: #b22222; stroke: #b22222"/>
     <use xlink:href="#m9d38e788d4" x="156.835104" y="212.811313" style="fill: #b22222; stroke: #b22222"/>
     <use xlink:href="#m9d38e788d4" x="198.659827" y="222.386249" style="fill: #b22222; stroke: #b22222"/>
     <use xlink:href="#m9d38e788d4" x="149.407308" y="220.59235" style="fill: #b22222; stroke: #b22222"/>
     <use xlink:href="#m9d38e788d4" x="152.689936" y="236.492764" style="fill: #b22222; stroke: #b22222"/>
     <use xlink:href="#m9d38e788d4" x="194.386297" y="236.045528" style="fill: #b22222; stroke: #b22222"/>
     <use xlink:href="#m9d38e788d4" x="202.234962" y="232.81735" style="fill: #b22222; stroke: #b22222"/>
     <use xlink:href="#m9d38e788d4" x="172.924257" y="201.70689" style="fill: #b22222; stroke: #b22222"/>
     <use xlink:href="#m9d38e788d4" x="151.17814" y="224.462757" style="fill: #b22222; stroke: #b22222"/>
     <use xlink:href="#m9d38e788d4" x="194.70371" y="214.491947" style="fill: #b22222; stroke: #b22222"/>
     <use xlink:href="#m9d38e788d4" x="183.314689" y="212.950568" style="fill: #b22222; stroke: #b22222"/>
     <use xlink:href="#m9d38e788d4" x="161.066397" y="243.003097" style="fill: #b22222; stroke: #b22222"/>
     <use xlink:href="#m9d38e788d4" x="157.269515" y="229.471316" style="fill: #b22222; stroke: #b22222"/>
     <use xlink:href="#m9d38e788d4" x="183.613985" y="219.96999" style="fill: #b22222; stroke: #b22222"/>
     <use xlink:href="#m9d38e788d4" x="189.369296" y="218.496691" style="fill: #b22222; stroke: #b22222"/>
     <use xlink:href="#m9d38e788d4" x="190.054953" y="215.926821" style="fill: #b22222; stroke: #b22222"/>
     <use xlink:href="#m9d38e788d4" x="151.850702" y="241.542181" style="fill: #b22222; stroke: #b22222"/>
     <use xlink:href="#m9d38e788d4" x="202.648299" y="229.427715" style="fill: #b22222; stroke: #b22222"/>
     <use xlink:href="#m9d38e788d4" x="188.14521" y="221.412994" style="fill: #b22222; stroke: #b22222"/>
     <use xlink:href="#m9d38e788d4" x="181.752177" y="230.103389" style="fill: #b22222; stroke: #b22222"/>
     <use xlink:href="#m9d38e788d4" x="152.777874" y="207.822663" style="fill: #b22222; stroke: #b22222"/>
     <use xlink:href="#m9d38e788d4" x="174.885156" y="203.517637" style="fill: #b22222; stroke: #b22222"/>
     <use xlink:href="#m9d38e788d4" x="166.976022" y="217.708129" style="fill: #b22222; stroke: #b22222"/>
     <use xlink:href="#m9d38e788d4" x="171.782072" y="227.786988" style="fill: #b22222; stroke: #b22222"/>
     <use xlink:href="#m9d38e788d4" x="156.354498" y="243.514809" style="fill: #b22222; stroke: #b22222"/>
     <use xlink:href="#m9d38e788d4" x="161.26891" y="214.994246" style="fill: #b22222; stroke: #b22222"/>
     <use xlink:href="#m9d38e788d4" x="155.100561" y="238.158897" style="fill: #b22222; stroke: #b22222"/>
     <use xlink:href="#m9d38e788d4" x="181.260072" y="204.001236" style="fill: #b22222; stroke: #b22222"/>
     <use xlink:href="#m9d38e788d4" x="189.041887" y="222.446421" style="fill: #b22222; stroke: #b22222"/>
     <use xlink:href="#m9d38e788d4" x="158.505925" y="218.092295" style="fill: #b22222; stroke: #b22222"/>
     <use xlink:href="#m9d38e788d4" x="153.071424" y="238.861795" style="fill: #b22222; stroke: #b22222"/>
     <use xlink:href="#m9d38e788d4" x="145.811721" y="215.860842" style="fill: #b22222; stroke: #b22222"/>
     <use xlink:href="#m9d38e788d4" x="189.681612" y="234.524284" style="fill: #b22222; stroke: #b22222"/>
     <use xlink:href="#m9d38e788d4" x="182.888825" y="205.785046" style="fill: #b22222; stroke: #b22222"/>
     <use xlink:href="#m9d38e788d4" x="184.336545" y="224.534035" style="fill: #b22222; stroke: #b22222"/>
     <use xlink:href="#m9d38e788d4" x="182.124989" y="200.243068" style="fill: #b22222; stroke: #b22222"/>
     <use xlink:href="#m9d38e788d4" x="153.322813" y="245.459139" style="fill: #b22222; stroke: #b22222"/>
     <use xlink:href="#m9d38e788d4" x="166.615155" y="233.106203" style="fill: #b22222; stroke: #b22222"/>
     <use xlink:href="#m9d38e788d4" x="192.799862" y="227.858194" style="fill: #b22222; stroke: #b22222"/>
     <use xlink:href="#m9d38e788d4" x="187.834138" y="222.483242" style="fill: #b22222; stroke: #b22222"/>
     <use xlink:href="#m9d38e788d4" x="157.413164" y="199.311169" style="fill: #b22222; stroke: #b22222"/>
     <use xlink:href="#m9d38e788d4" x="185.877022" y="207.396014" style="fill: #b22222; stroke: #b22222"/>
     <use xlink:href="#m9d38e788d4" x="187.898234" y="235.461242" style="fill: #b22222; stroke: #b22222"/>
     <use xlink:href="#m9d38e788d4" x="185.433996" y="239.169004" style="fill: #b22222; stroke: #b22222"/>
     <use xlink:href="#m9d38e788d4" x="155.422169" y="247.267837" style="fill: #b22222; stroke: #b22222"/>
     <use xlink:href="#m9d38e788d4" x="172.304299" y="226.845013" style="fill: #b22222; stroke: #b22222"/>
     <use xlink:href="#m9d38e788d4" x="312.167018" y="225.882282" style="fill: #b22222; stroke: #b22222"/>
     <use xlink:href="#m9d38e788d4" x="149.94307" y="220.577135" style="fill: #b22222; stroke: #b22222"/>
     <use xlink:href="#m9d38e788d4" x="186.883449" y="225.057839" style="fill: #b22222; stroke: #b22222"/>
     <use xlink:href="#m9d38e788d4" x="171.525655" y="198.952501" style="fill: #b22222; stroke: #b22222"/>
     <use xlink:href="#m9d38e788d4" x="199.767476" y="239.124593" style="fill: #b22222; stroke: #b22222"/>
     <use xlink:href="#m9d38e788d4" x="173.901305" y="208.843492" style="fill: #b22222; stroke: #b22222"/>
     <use xlink:href="#m9d38e788d4" x="315.017349" y="234.119382" style="fill: #b22222; stroke: #b22222"/>
     <use xlink:href="#m9d38e788d4" x="162.0064" y="233.991069" style="fill: #b22222; stroke: #b22222"/>
     <use xlink:href="#m9d38e788d4" x="156.641024" y="208.477605" style="fill: #b22222; stroke: #b22222"/>
     <use xlink:href="#m9d38e788d4" x="150.565606" y="217.107237" style="fill: #b22222; stroke: #b22222"/>
     <use xlink:href="#m9d38e788d4" x="170.716957" y="205.40962" style="fill: #b22222; stroke: #b22222"/>
     <use xlink:href="#m9d38e788d4" x="160.1518" y="217.004585" style="fill: #b22222; stroke: #b22222"/>
     <use xlink:href="#m9d38e788d4" x="178.303892" y="234.114029" style="fill: #b22222; stroke: #b22222"/>
     <use xlink:href="#m9d38e788d4" x="166.868032" y="243.497451" style="fill: #b22222; stroke: #b22222"/>
     <use xlink:href="#m9d38e788d4" x="163.46327" y="213.879525" style="fill: #b22222; stroke: #b22222"/>
     <use xlink:href="#m9d38e788d4" x="189.511787" y="218.609913" style="fill: #b22222; stroke: #b22222"/>
     <use xlink:href="#m9d38e788d4" x="188.331934" y="215.326538" style="fill: #b22222; stroke: #b22222"/>
     <use xlink:href="#m9d38e788d4" x="162.675267" y="213.727833" style="fill: #b22222; stroke: #b22222"/>
     <use xlink:href="#m9d38e788d4" x="161.389346" y="213.10952" style="fill: #b22222; stroke: #b22222"/>
     <use xlink:href="#m9d38e788d4" x="186.149573" y="231.683509" style="fill: #b22222; stroke: #b22222"/>
     <use xlink:href="#m9d38e788d4" x="179.618021" y="242.544682" style="fill: #b22222; stroke: #b22222"/>
     <use xlink:href="#m9d38e788d4" x="156.36871" y="238.657513" style="fill: #b22222; stroke: #b22222"/>
     <use xlink:href="#m9d38e788d4" x="160.804979" y="236.225652" style="fill: #b22222; stroke: #b22222"/>
    </g>
   </g>
   <g id="patch_4">
    <path d="M 56.450156 450.72 
L 56.450156 7.2 
" style="fill: none; stroke: #ffffff; stroke-width: 1.25; stroke-linejoin: miter; stroke-linecap: square"/>
   </g>
   <g id="patch_5">
    <path d="M 499.970156 450.72 
L 499.970156 7.2 
" style="fill: none; stroke: #ffffff; stroke-width: 1.25; stroke-linejoin: miter; stroke-linecap: square"/>
   </g>
   <g id="patch_6">
    <path d="M 56.450156 450.72 
L 499.970156 450.72 
" style="fill: none; stroke: #ffffff; stroke-width: 1.25; stroke-linejoin: miter; stroke-linecap: square"/>
   </g>
   <g id="patch_7">
    <path d="M 56.450156 7.2 
L 499.970156 7.2 
" style="fill: none; stroke: #ffffff; stroke-width: 1.25; stroke-linejoin: miter; stroke-linecap: square"/>
   </g>
   <g id="text_13">
    <!-- t = 4500 -->
    <g style="fill: #262626" transform="translate(65.320556 24.659775) scale(0.12 -0.12)">
     <defs>
      <path id="ArialMT-74" d="M 1650 503 
L 1731 6 
Q 1494 -44 1306 -44 
Q 1000 -44 831 53 
Q 663 150 594 308 
Q 525 466 525 972 
L 525 2881 
L 113 2881 
L 113 3319 
L 525 3319 
L 525 4141 
L 1084 4478 
L 1084 3319 
L 1650 3319 
L 1650 2881 
L 1084 2881 
L 1084 941 
Q 1084 700 1114 631 
Q 1144 563 1211 522 
Q 1278 481 1403 481 
Q 1497 481 1650 503 
z
" transform="scale(0.015625)"/>
      <path id="ArialMT-20" transform="scale(0.015625)"/>
      <path id="ArialMT-3d" d="M 3381 2694 
L 356 2694 
L 356 3219 
L 3381 3219 
L 3381 2694 
z
M 3381 1303 
L 356 1303 
L 356 1828 
L 3381 1828 
L 3381 1303 
z
" transform="scale(0.015625)"/>
      <path id="ArialMT-35" d="M 266 1200 
L 856 1250 
Q 922 819 1161 601 
Q 1400 384 1738 384 
Q 2144 384 2425 690 
Q 2706 997 2706 1503 
Q 2706 1984 2436 2262 
Q 2166 2541 1728 2541 
Q 1456 2541 1237 2417 
Q 1019 2294 894 2097 
L 366 2166 
L 809 4519 
L 3088 4519 
L 3088 3981 
L 1259 3981 
L 1013 2750 
Q 1425 3038 1878 3038 
Q 2478 3038 2890 2622 
Q 3303 2206 3303 1553 
Q 3303 931 2941 478 
Q 2500 -78 1738 -78 
Q 1113 -78 717 272 
Q 322 622 266 1200 
z
" transform="scale(0.015625)"/>
     </defs>
     <use xlink:href="#ArialMT-74"/>
     <use xlink:href="#ArialMT-20" x="27.783203"/>
     <use xlink:href="#ArialMT-3d" x="55.566406"/>
     <use xlink:href="#ArialMT-20" x="113.964844"/>
     <use xlink:href="#ArialMT-34" x="141.748047"/>
     <use xlink:href="#ArialMT-35" x="197.363281"/>
     <use xlink:href="#ArialMT-30" x="252.978516"/>
     <use xlink:href="#ArialMT-30" x="308.59375"/>
    </g>
   </g>
   <g id="legend_1">
    <g id="patch_8">
     <path d="M 328.111406 94.59 
L 483.170156 94.59 
Q 487.970156 94.59 487.970156 89.79 
L 487.970156 24 
Q 487.970156 19.2 483.170156 19.2 
L 328.111406 19.2 
Q 323.311406 19.2 323.311406 24 
L 323.311406 89.79 
Q 323.311406 94.59 328.111406 94.59 
z
" style="fill: #eaeaf2; opacity: 0.8; stroke: #cccccc; stroke-linejoin: miter"/>
    </g>
    <g id="PathCollection_3">
     <g>
      <use xlink:href="#ma5ef2ba838" x="356.911406" y="39.97125" style="fill: #4169e1; stroke: #4169e1"/>
     </g>
    </g>
    <g id="text_14">
     <!-- Sheep -->
     <g style="fill: #262626" transform="translate(400.111406 46.27125) scale(0.24 -0.24)">
      <defs>
       <path id="ArialMT-53" d="M 288 1472 
L 859 1522 
Q 900 1178 1048 958 
Q 1197 738 1509 602 
Q 1822 466 2213 466 
Q 2559 466 2825 569 
Q 3091 672 3220 851 
Q 3350 1031 3350 1244 
Q 3350 1459 3225 1620 
Q 3100 1781 2813 1891 
Q 2628 1963 1997 2114 
Q 1366 2266 1113 2400 
Q 784 2572 623 2826 
Q 463 3081 463 3397 
Q 463 3744 659 4045 
Q 856 4347 1234 4503 
Q 1613 4659 2075 4659 
Q 2584 4659 2973 4495 
Q 3363 4331 3572 4012 
Q 3781 3694 3797 3291 
L 3216 3247 
Q 3169 3681 2898 3903 
Q 2628 4125 2100 4125 
Q 1550 4125 1298 3923 
Q 1047 3722 1047 3438 
Q 1047 3191 1225 3031 
Q 1400 2872 2139 2705 
Q 2878 2538 3153 2413 
Q 3553 2228 3743 1945 
Q 3934 1663 3934 1294 
Q 3934 928 3725 604 
Q 3516 281 3123 101 
Q 2731 -78 2241 -78 
Q 1619 -78 1198 103 
Q 778 284 539 648 
Q 300 1013 288 1472 
z
" transform="scale(0.015625)"/>
       <path id="ArialMT-68" d="M 422 0 
L 422 4581 
L 984 4581 
L 984 2938 
Q 1378 3394 1978 3394 
Q 2347 3394 2619 3248 
Q 2891 3103 3008 2847 
Q 3125 2591 3125 2103 
L 3125 0 
L 2563 0 
L 2563 2103 
Q 2563 2525 2380 2717 
Q 2197 2909 1863 2909 
Q 1613 2909 1392 2779 
Q 1172 2650 1078 2428 
Q 984 2206 984 1816 
L 984 0 
L 422 0 
z
" transform="scale(0.015625)"/>
       <path id="ArialMT-65" d="M 2694 1069 
L 3275 997 
Q 3138 488 2766 206 
Q 2394 -75 1816 -75 
Q 1088 -75 661 373 
Q 234 822 234 1631 
Q 234 2469 665 2931 
Q 1097 3394 1784 3394 
Q 2450 3394 2872 2941 
Q 3294 2488 3294 1666 
Q 3294 1616 3291 1516 
L 816 1516 
Q 847 969 1125 678 
Q 1403 388 1819 388 
Q 2128 388 2347 550 
Q 2566 713 2694 1069 
z
M 847 1978 
L 2700 1978 
Q 2663 2397 2488 2606 
Q 2219 2931 1791 2931 
Q 1403 2931 1139 2672 
Q 875 2413 847 1978 
z
" transform="scale(0.015625)"/>
       <path id="ArialMT-70" d="M 422 -1272 
L 422 3319 
L 934 3319 
L 934 2888 
Q 1116 3141 1344 3267 
Q 1572 3394 1897 3394 
Q 2322 3394 2647 3175 
Q 2972 2956 3137 2557 
Q 3303 2159 3303 1684 
Q 3303 1175 3120 767 
Q 2938 359 2589 142 
Q 2241 -75 1856 -75 
Q 1575 -75 1351 44 
Q 1128 163 984 344 
L 984 -1272 
L 422 -1272 
z
M 931 1641 
Q 931 1000 1190 694 
Q 1450 388 1819 388 
Q 2194 388 2461 705 
Q 2728 1022 2728 1688 
Q 2728 2322 2467 2637 
Q 2206 2953 1844 2953 
Q 1484 2953 1207 2617 
Q 931 2281 931 1641 
z
" transform="scale(0.015625)"/>
      </defs>
      <use xlink:href="#ArialMT-53"/>
      <use xlink:href="#ArialMT-68" x="66.699219"/>
      <use xlink:href="#ArialMT-65" x="122.314453"/>
      <use xlink:href="#ArialMT-65" x="177.929688"/>
      <use xlink:href="#ArialMT-70" x="233.544922"/>
     </g>
    </g>
    <g id="PathCollection_4">
     <g>
      <use xlink:href="#m9d38e788d4" x="356.911406" y="73.92" style="fill: #b22222; stroke: #b22222"/>
     </g>
    </g>
    <g id="text_15">
     <!-- Wolves -->
     <g style="fill: #262626" transform="translate(400.111406 80.22) scale(0.24 -0.24)">
      <defs>
       <path id="ArialMT-57" d="M 1294 0 
L 78 4581 
L 700 4581 
L 1397 1578 
Q 1509 1106 1591 641 
Q 1766 1375 1797 1488 
L 2669 4581 
L 3400 4581 
L 4056 2263 
Q 4303 1400 4413 641 
Q 4500 1075 4641 1638 
L 5359 4581 
L 5969 4581 
L 4713 0 
L 4128 0 
L 3163 3491 
Q 3041 3928 3019 4028 
Q 2947 3713 2884 3491 
L 1913 0 
L 1294 0 
z
" transform="scale(0.015625)"/>
       <path id="ArialMT-6f" d="M 213 1659 
Q 213 2581 725 3025 
Q 1153 3394 1769 3394 
Q 2453 3394 2887 2945 
Q 3322 2497 3322 1706 
Q 3322 1066 3130 698 
Q 2938 331 2570 128 
Q 2203 -75 1769 -75 
Q 1072 -75 642 372 
Q 213 819 213 1659 
z
M 791 1659 
Q 791 1022 1069 705 
Q 1347 388 1769 388 
Q 2188 388 2466 706 
Q 2744 1025 2744 1678 
Q 2744 2294 2464 2611 
Q 2184 2928 1769 2928 
Q 1347 2928 1069 2612 
Q 791 2297 791 1659 
z
" transform="scale(0.015625)"/>
       <path id="ArialMT-6c" d="M 409 0 
L 409 4581 
L 972 4581 
L 972 0 
L 409 0 
z
" transform="scale(0.015625)"/>
       <path id="ArialMT-76" d="M 1344 0 
L 81 3319 
L 675 3319 
L 1388 1331 
Q 1503 1009 1600 663 
Q 1675 925 1809 1294 
L 2547 3319 
L 3125 3319 
L 1869 0 
L 1344 0 
z
" transform="scale(0.015625)"/>
       <path id="ArialMT-73" d="M 197 991 
L 753 1078 
Q 800 744 1014 566 
Q 1228 388 1613 388 
Q 2000 388 2187 545 
Q 2375 703 2375 916 
Q 2375 1106 2209 1216 
Q 2094 1291 1634 1406 
Q 1016 1563 777 1677 
Q 538 1791 414 1992 
Q 291 2194 291 2438 
Q 291 2659 392 2848 
Q 494 3038 669 3163 
Q 800 3259 1026 3326 
Q 1253 3394 1513 3394 
Q 1903 3394 2198 3281 
Q 2494 3169 2634 2976 
Q 2775 2784 2828 2463 
L 2278 2388 
Q 2241 2644 2061 2787 
Q 1881 2931 1553 2931 
Q 1166 2931 1000 2803 
Q 834 2675 834 2503 
Q 834 2394 903 2306 
Q 972 2216 1119 2156 
Q 1203 2125 1616 2013 
Q 2213 1853 2448 1751 
Q 2684 1650 2818 1456 
Q 2953 1263 2953 975 
Q 2953 694 2789 445 
Q 2625 197 2315 61 
Q 2006 -75 1616 -75 
Q 969 -75 630 194 
Q 291 463 197 991 
z
" transform="scale(0.015625)"/>
      </defs>
      <use xlink:href="#ArialMT-57"/>
      <use xlink:href="#ArialMT-6f" x="92.634766"/>
      <use xlink:href="#ArialMT-6c" x="148.25"/>
      <use xlink:href="#ArialMT-76" x="170.466797"/>
      <use xlink:href="#ArialMT-65" x="220.466797"/>
      <use xlink:href="#ArialMT-73" x="276.082031"/>
     </g>
    </g>
   </g>
  </g>
 </g>
 <defs>
  <clipPath id="p9c3ce7d537">
   <rect x="56.450156" y="7.2" width="443.52" height="443.52"/>
  </clipPath>
 </defs>
</svg>
