<?xml version="1.0" encoding="utf-8" standalone="no"?>
<!DOCTYPE svg PUBLIC "-//W3C//DTD SVG 1.1//EN"
  "http://www.w3.org/Graphics/SVG/1.1/DTD/svg11.dtd">
<svg xmlns:xlink="http://www.w3.org/1999/xlink" width="507.170156pt" height="492.454219pt" viewBox="0 0 507.170156 492.454219" xmlns="http://www.w3.org/2000/svg" version="1.1">
 <metadata>
  <rdf:RDF xmlns:dc="http://purl.org/dc/elements/1.1/" xmlns:cc="http://creativecommons.org/ns#" xmlns:rdf="http://www.w3.org/1999/02/22-rdf-syntax-ns#">
   <cc:Work>
    <dc:type rdf:resource="http://purl.org/dc/dcmitype/StillImage"/>
    <dc:date>2026-05-12T10:49:57.241765</dc:date>
    <dc:format>image/svg+xml</dc:format>
    <dc:creator>
     <cc:Agent>
      <dc:title>Matplotlib v3.7.1, https://matplotlib.org/</dc:title>
     </cc:Agent>
    </dc:creator>
   </cc:Work>
  </rdf:RDF>
 </metadata>
 <defs>
  <style type="text/css">*{stroke-linejoin: round; stroke-linecap: butt}</style>
 </defs>
 <g id="figure_1">
  <g id="patch_1">
   <path d="M 0 492.454219 
L 507.170156 492.454219 
L 507.170156 0 
L 0 0 
z
" style="fill: #ffffff"/>
  </g>
  <g id="axes_1">
   <g id="patch_2">
    <path d="M 56.450156 450.72 
L 499.970156 450.72 
L 499.970156 7.2 
L 56.450156 7.2 
z
" style="fill: #eaeaf2"/>
   </g>
   <g id="matplotlib.axis_1">
    <g id="xtick_1">
     <g id="line2d_1">
      <path d="M 100.802156 450.72 
L 100.802156 7.2 
" clip-path="url(#p87d2a69d9a)" style="fill: none; stroke: #ffffff; stroke-linecap: round"/>
     </g>
     <g id="text_1">
      <!-- −400 -->
      <g style="fill: #262626" transform="translate(88.414266 468.093594) scale(0.11 -0.11)">
       <defs>
        <path id="ArialMT-2212" d="M 3381 1997 
L 356 1997 
L 356 2522 
L 3381 2522 
L 3381 1997 
z
" transform="scale(0.015625)"/>
        <path id="ArialMT-34" d="M 2069 0 
L 2069 1097 
L 81 1097 
L 81 1613 
L 2172 4581 
L 2631 4581 
L 2631 1613 
L 3250 1613 
L 3250 1097 
L 2631 1097 
L 2631 0 
L 2069 0 
z
M 2069 1613 
L 2069 3678 
L 634 1613 
L 2069 1613 
z
" transform="scale(0.015625)"/>
        <path id="ArialMT-30" d="M 266 2259 
Q 266 3072 433 3567 
Q 600 4063 929 4331 
Q 1259 4600 1759 4600 
Q 2128 4600 2406 4451 
Q 2684 4303 2865 4023 
Q 3047 3744 3150 3342 
Q 3253 2941 3253 2259 
Q 3253 1453 3087 958 
Q 2922 463 2592 192 
Q 2263 -78 1759 -78 
Q 1097 -78 719 397 
Q 266 969 266 2259 
z
M 844 2259 
Q 844 1131 1108 757 
Q 1372 384 1759 384 
Q 2147 384 2411 759 
Q 2675 1134 2675 2259 
Q 2675 3391 2411 3762 
Q 2147 4134 1753 4134 
Q 1366 4134 1134 3806 
Q 844 3388 844 2259 
z
" transform="scale(0.015625)"/>
       </defs>
       <use xlink:href="#ArialMT-2212"/>
       <use xlink:href="#ArialMT-34" x="58.398438"/>
       <use xlink:href="#ArialMT-30" x="114.013672"/>
       <use xlink:href="#ArialMT-30" x="169.628906"/>
      </g>
     </g>
    </g>
    <g id="xtick_2">
     <g id="line2d_2">
      <path d="M 189.506156 450.72 
L 189.506156 7.2 
" clip-path="url(#p87d2a69d9a)" style="fill: none; stroke: #ffffff; stroke-linecap: round"/>
     </g>
     <g id="text_2">
      <!-- −200 -->
      <g style="fill: #262626" transform="translate(177.118266 468.093594) scale(0.11 -0.11)">
       <defs>
        <path id="ArialMT-32" d="M 3222 541 
L 3222 0 
L 194 0 
Q 188 203 259 391 
Q 375 700 629 1000 
Q 884 1300 1366 1694 
Q 2113 2306 2375 2664 
Q 2638 3022 2638 3341 
Q 2638 3675 2398 3904 
Q 2159 4134 1775 4134 
Q 1369 4134 1125 3890 
Q 881 3647 878 3216 
L 300 3275 
Q 359 3922 746 4261 
Q 1134 4600 1788 4600 
Q 2447 4600 2831 4234 
Q 3216 3869 3216 3328 
Q 3216 3053 3103 2787 
Q 2991 2522 2730 2228 
Q 2469 1934 1863 1422 
Q 1356 997 1212 845 
Q 1069 694 975 541 
L 3222 541 
z
" transform="scale(0.015625)"/>
       </defs>
       <use xlink:href="#ArialMT-2212"/>
       <use xlink:href="#ArialMT-32" x="58.398438"/>
       <use xlink:href="#ArialMT-30" x="114.013672"/>
       <use xlink:href="#ArialMT-30" x="169.628906"/>
      </g>
     </g>
    </g>
    <g id="xtick_3">
     <g id="line2d_3">
      <path d="M 278.210156 450.72 
L 278.210156 7.2 
" clip-path="url(#p87d2a69d9a)" style="fill: none; stroke: #ffffff; stroke-linecap: round"/>
     </g>
     <g id="text_3">
      <!-- 0 -->
      <g style="fill: #262626" transform="translate(275.151641 468.093594) scale(0.11 -0.11)">
       <use xlink:href="#ArialMT-30"/>
      </g>
     </g>
    </g>
    <g id="xtick_4">
     <g id="line2d_4">
      <path d="M 366.914156 450.72 
L 366.914156 7.2 
" clip-path="url(#p87d2a69d9a)" style="fill: none; stroke: #ffffff; stroke-linecap: round"/>
     </g>
     <g id="text_4">
      <!-- 200 -->
      <g style="fill: #262626" transform="translate(357.738609 468.093594) scale(0.11 -0.11)">
       <use xlink:href="#ArialMT-32"/>
       <use xlink:href="#ArialMT-30" x="55.615234"/>
       <use xlink:href="#ArialMT-30" x="111.230469"/>
      </g>
     </g>
    </g>
    <g id="xtick_5">
     <g id="line2d_5">
      <path d="M 455.618156 450.72 
L 455.618156 7.2 
" clip-path="url(#p87d2a69d9a)" style="fill: none; stroke: #ffffff; stroke-linecap: round"/>
     </g>
     <g id="text_5">
      <!-- 400 -->
      <g style="fill: #262626" transform="translate(446.442609 468.093594) scale(0.11 -0.11)">
       <use xlink:href="#ArialMT-34"/>
       <use xlink:href="#ArialMT-30" x="55.615234"/>
       <use xlink:href="#ArialMT-30" x="111.230469"/>
      </g>
     </g>
    </g>
    <g id="text_6">
     <!-- x -->
     <g style="fill: #262626" transform="translate(275.210156 482.869219) scale(0.12 -0.12)">
      <defs>
       <path id="ArialMT-78" d="M 47 0 
L 1259 1725 
L 138 3319 
L 841 3319 
L 1350 2541 
Q 1494 2319 1581 2169 
Q 1719 2375 1834 2534 
L 2394 3319 
L 3066 3319 
L 1919 1756 
L 3153 0 
L 2463 0 
L 1781 1031 
L 1600 1309 
L 728 0 
L 47 0 
z
" transform="scale(0.015625)"/>
      </defs>
      <use xlink:href="#ArialMT-78"/>
     </g>
    </g>
   </g>
   <g id="matplotlib.axis_2">
    <g id="ytick_1">
     <g id="line2d_6">
      <path d="M 56.450156 406.368 
L 499.970156 406.368 
" clip-path="url(#p87d2a69d9a)" style="fill: none; stroke: #ffffff; stroke-linecap: round"/>
     </g>
     <g id="text_7">
      <!-- −400 -->
      <g style="fill: #262626" transform="translate(22.174375 410.304797) scale(0.11 -0.11)">
       <use xlink:href="#ArialMT-2212"/>
       <use xlink:href="#ArialMT-34" x="58.398438"/>
       <use xlink:href="#ArialMT-30" x="114.013672"/>
       <use xlink:href="#ArialMT-30" x="169.628906"/>
      </g>
     </g>
    </g>
    <g id="ytick_2">
     <g id="line2d_7">
      <path d="M 56.450156 317.664 
L 499.970156 317.664 
" clip-path="url(#p87d2a69d9a)" style="fill: none; stroke: #ffffff; stroke-linecap: round"/>
     </g>
     <g id="text_8">
      <!-- −200 -->
      <g style="fill: #262626" transform="translate(22.174375 321.600797) scale(0.11 -0.11)">
       <use xlink:href="#ArialMT-2212"/>
       <use xlink:href="#ArialMT-32" x="58.398438"/>
       <use xlink:href="#ArialMT-30" x="114.013672"/>
       <use xlink:href="#ArialMT-30" x="169.628906"/>
      </g>
     </g>
    </g>
    <g id="ytick_3">
     <g id="line2d_8">
      <path d="M 56.450156 228.96 
L 499.970156 228.96 
" clip-path="url(#p87d2a69d9a)" style="fill: none; stroke: #ffffff; stroke-linecap: round"/>
     </g>
     <g id="text_9">
      <!-- 0 -->
      <g style="fill: #262626" transform="translate(40.833125 232.896797) scale(0.11 -0.11)">
       <use xlink:href="#ArialMT-30"/>
      </g>
     </g>
    </g>
    <g id="ytick_4">
     <g id="line2d_9">
      <path d="M 56.450156 140.256 
L 499.970156 140.256 
" clip-path="url(#p87d2a69d9a)" style="fill: none; stroke: #ffffff; stroke-linecap: round"/>
     </g>
     <g id="text_10">
      <!-- 200 -->
      <g style="fill: #262626" transform="translate(28.599063 144.192797) scale(0.11 -0.11)">
       <use xlink:href="#ArialMT-32"/>
       <use xlink:href="#ArialMT-30" x="55.615234"/>
       <use xlink:href="#ArialMT-30" x="111.230469"/>
      </g>
     </g>
    </g>
    <g id="ytick_5">
     <g id="line2d_10">
      <path d="M 56.450156 51.552 
L 499.970156 51.552 
" clip-path="url(#p87d2a69d9a)" style="fill: none; stroke: #ffffff; stroke-linecap: round"/>
     </g>
     <g id="text_11">
      <!-- 400 -->
      <g style="fill: #262626" transform="translate(28.599063 55.488797) scale(0.11 -0.11)">
       <use xlink:href="#ArialMT-34"/>
       <use xlink:href="#ArialMT-30" x="55.615234"/>
       <use xlink:href="#ArialMT-30" x="111.230469"/>
      </g>
     </g>
    </g>
    <g id="text_12">
     <!-- y -->
     <g style="fill: #262626" transform="translate(15.64875 231.96) rotate(-90) scale(0.12 -0.12)">
      <defs>
       <path id="ArialMT-79" d="M 397 -1278 
L 334 -750 
Q 519 -800 656 -800 
Q 844 -800 956 -737 
Q 1069 -675 1141 -563 
Q 1194 -478 1313 -144 
Q 1328 -97 1363 -6 
L 103 3319 
L 709 3319 
L 1400 1397 
Q 1534 1031 1641 628 
Q 1738 1016 1872 1384 
L 2581 3319 
L 3144 3319 
L 1881 -56 
Q 1678 -603 1566 -809 
Q 1416 -1088 1222 -1217 
Q 1028 -1347 759 -1347 
Q 597 -1347 397 -1278 
z
" transform="scale(0.015625)"/>
      </defs>
      <use xlink:href="#ArialMT-79"/>
     </g>
    </g>
   </g>
   <g id="patch_3">
    <path d="M 278.210156 317.664 
C 301.734732 317.664 324.298969 308.317587 340.933356 291.6832 
C 357.567743 275.048813 366.914156 252.484576 366.914156 228.96 
C 366.914156 205.435424 357.567743 182.871187 340.933356 166.2368 
C 324.298969 149.602413 301.734732 140.256 278.210156 140.256 
C 254.68558 140.256 232.121343 149.602413 215.486956 166.2368 
C 198.852569 182.871187 189.506156 205.435424 189.506156 228.96 
C 189.506156 252.484576 198.852569 275.048813 215.486956 291.6832 
C 232.121343 308.317587 254.68558 317.664 278.210156 317.664 
z
" clip-path="url(#p87d2a69d9a)" style="fill: #228b22; opacity: 0.12; stroke: #228b22; stroke-width: 1.5; stroke-linejoin: miter"/>
   </g>
   <g id="PathCollection_1">
    <defs>
     <path id="m8ec5f05e74" d="M 0 2.236068 
C 0.593012 2.236068 1.161816 2.000462 1.581139 1.581139 
C 2.000462 1.161816 2.236068 0.593012 2.236068 0 
C 2.236068 -0.593012 2.000462 -1.161816 1.581139 -1.581139 
C 1.161816 -2.000462 0.593012 -2.236068 0 -2.236068 
C -0.593012 -2.236068 -1.161816 -2.000462 -1.581139 -1.581139 
C -2.000462 -1.161816 -2.236068 -0.593012 -2.236068 0 
C -2.236068 0.593012 -2.000462 1.161816 -1.581139 1.581139 
C -1.161816 2.000462 -0.593012 2.236068 0 2.236068 
z
" style="stroke: #4169e1"/>
    </defs>
    <g clip-path="url(#p87d2a69d9a)">
     <use xlink:href="#m8ec5f05e74" x="283.742033" y="127.662918" style="fill: #4169e1; stroke: #4169e1"/>
     <use xlink:href="#m8ec5f05e74" x="335.383739" y="328.967933" style="fill: #4169e1; stroke: #4169e1"/>
     <use xlink:href="#m8ec5f05e74" x="228.639352" y="150.092553" style="fill: #4169e1; stroke: #4169e1"/>
     <use xlink:href="#m8ec5f05e74" x="268.109307" y="161.703227" style="fill: #4169e1; stroke: #4169e1"/>
     <use xlink:href="#m8ec5f05e74" x="270.197883" y="255.153869" style="fill: #4169e1; stroke: #4169e1"/>
     <use xlink:href="#m8ec5f05e74" x="418.346153" y="145.185707" style="fill: #4169e1; stroke: #4169e1"/>
     <use xlink:href="#m8ec5f05e74" x="325.977479" y="158.210831" style="fill: #4169e1; stroke: #4169e1"/>
     <use xlink:href="#m8ec5f05e74" x="371.979012" y="283.28404" style="fill: #4169e1; stroke: #4169e1"/>
     <use xlink:href="#m8ec5f05e74" x="217.764057" y="306.381101" style="fill: #4169e1; stroke: #4169e1"/>
     <use xlink:href="#m8ec5f05e74" x="422.970358" y="144.868132" style="fill: #4169e1; stroke: #4169e1"/>
     <use xlink:href="#m8ec5f05e74" x="374.037276" y="334.055704" style="fill: #4169e1; stroke: #4169e1"/>
     <use xlink:href="#m8ec5f05e74" x="268.252802" y="330.733432" style="fill: #4169e1; stroke: #4169e1"/>
     <use xlink:href="#m8ec5f05e74" x="403.241947" y="172.671843" style="fill: #4169e1; stroke: #4169e1"/>
     <use xlink:href="#m8ec5f05e74" x="209.958935" y="259.061555" style="fill: #4169e1; stroke: #4169e1"/>
     <use xlink:href="#m8ec5f05e74" x="240.692923" y="311.632335" style="fill: #4169e1; stroke: #4169e1"/>
     <use xlink:href="#m8ec5f05e74" x="271.822865" y="295.567485" style="fill: #4169e1; stroke: #4169e1"/>
     <use xlink:href="#m8ec5f05e74" x="341.342835" y="188.873912" style="fill: #4169e1; stroke: #4169e1"/>
     <use xlink:href="#m8ec5f05e74" x="216.296528" y="290.609557" style="fill: #4169e1; stroke: #4169e1"/>
     <use xlink:href="#m8ec5f05e74" x="187.896698" y="308.144501" style="fill: #4169e1; stroke: #4169e1"/>
     <use xlink:href="#m8ec5f05e74" x="312.25009" y="272.997054" style="fill: #4169e1; stroke: #4169e1"/>
     <use xlink:href="#m8ec5f05e74" x="246.072454" y="221.438974" style="fill: #4169e1; stroke: #4169e1"/>
     <use xlink:href="#m8ec5f05e74" x="241.853948" y="294.434721" style="fill: #4169e1; stroke: #4169e1"/>
     <use xlink:href="#m8ec5f05e74" x="385.872538" y="275.060018" style="fill: #4169e1; stroke: #4169e1"/>
     <use xlink:href="#m8ec5f05e74" x="350.644215" y="144.746505" style="fill: #4169e1; stroke: #4169e1"/>
     <use xlink:href="#m8ec5f05e74" x="331.599759" y="288.627753" style="fill: #4169e1; stroke: #4169e1"/>
     <use xlink:href="#m8ec5f05e74" x="190.093081" y="245.965457" style="fill: #4169e1; stroke: #4169e1"/>
     <use xlink:href="#m8ec5f05e74" x="288.215996" y="282.837857" style="fill: #4169e1; stroke: #4169e1"/>
     <use xlink:href="#m8ec5f05e74" x="167.676379" y="244.847734" style="fill: #4169e1; stroke: #4169e1"/>
     <use xlink:href="#m8ec5f05e74" x="353.076232" y="285.203606" style="fill: #4169e1; stroke: #4169e1"/>
     <use xlink:href="#m8ec5f05e74" x="289.296225" y="245.342435" style="fill: #4169e1; stroke: #4169e1"/>
     <use xlink:href="#m8ec5f05e74" x="389.689872" y="289.510692" style="fill: #4169e1; stroke: #4169e1"/>
     <use xlink:href="#m8ec5f05e74" x="368.759776" y="285.504631" style="fill: #4169e1; stroke: #4169e1"/>
     <use xlink:href="#m8ec5f05e74" x="196.542245" y="297.57797" style="fill: #4169e1; stroke: #4169e1"/>
     <use xlink:href="#m8ec5f05e74" x="271.541494" y="309.248415" style="fill: #4169e1; stroke: #4169e1"/>
     <use xlink:href="#m8ec5f05e74" x="198.189412" y="247.953181" style="fill: #4169e1; stroke: #4169e1"/>
     <use xlink:href="#m8ec5f05e74" x="313.887028" y="233.656593" style="fill: #4169e1; stroke: #4169e1"/>
     <use xlink:href="#m8ec5f05e74" x="297.211858" y="349.649212" style="fill: #4169e1; stroke: #4169e1"/>
     <use xlink:href="#m8ec5f05e74" x="383.280962" y="231.766221" style="fill: #4169e1; stroke: #4169e1"/>
     <use xlink:href="#m8ec5f05e74" x="155.978667" y="215.297059" style="fill: #4169e1; stroke: #4169e1"/>
     <use xlink:href="#m8ec5f05e74" x="333.502992" y="284.124732" style="fill: #4169e1; stroke: #4169e1"/>
     <use xlink:href="#m8ec5f05e74" x="381.909708" y="251.848237" style="fill: #4169e1; stroke: #4169e1"/>
     <use xlink:href="#m8ec5f05e74" x="364.701138" y="325.23801" style="fill: #4169e1; stroke: #4169e1"/>
     <use xlink:href="#m8ec5f05e74" x="298.165812" y="203.433364" style="fill: #4169e1; stroke: #4169e1"/>
     <use xlink:href="#m8ec5f05e74" x="236.71156" y="126.269006" style="fill: #4169e1; stroke: #4169e1"/>
     <use xlink:href="#m8ec5f05e74" x="190.419806" y="291.427318" style="fill: #4169e1; stroke: #4169e1"/>
     <use xlink:href="#m8ec5f05e74" x="203.980531" y="184.942806" style="fill: #4169e1; stroke: #4169e1"/>
     <use xlink:href="#m8ec5f05e74" x="225.226564" y="305.316682" style="fill: #4169e1; stroke: #4169e1"/>
     <use xlink:href="#m8ec5f05e74" x="314.195616" y="305.566311" style="fill: #4169e1; stroke: #4169e1"/>
     <use xlink:href="#m8ec5f05e74" x="350.420932" y="243.151929" style="fill: #4169e1; stroke: #4169e1"/>
     <use xlink:href="#m8ec5f05e74" x="224.379229" y="122.986954" style="fill: #4169e1; stroke: #4169e1"/>
     <use xlink:href="#m8ec5f05e74" x="275.654941" y="303.011977" style="fill: #4169e1; stroke: #4169e1"/>
     <use xlink:href="#m8ec5f05e74" x="175.217945" y="230.491368" style="fill: #4169e1; stroke: #4169e1"/>
     <use xlink:href="#m8ec5f05e74" x="178.441707" y="299.452413" style="fill: #4169e1; stroke: #4169e1"/>
     <use xlink:href="#m8ec5f05e74" x="306.35602" y="370.70714" style="fill: #4169e1; stroke: #4169e1"/>
     <use xlink:href="#m8ec5f05e74" x="237.464301" y="212.991517" style="fill: #4169e1; stroke: #4169e1"/>
     <use xlink:href="#m8ec5f05e74" x="216.246894" y="149.229775" style="fill: #4169e1; stroke: #4169e1"/>
     <use xlink:href="#m8ec5f05e74" x="359.656538" y="321.261719" style="fill: #4169e1; stroke: #4169e1"/>
     <use xlink:href="#m8ec5f05e74" x="227.689407" y="178.903233" style="fill: #4169e1; stroke: #4169e1"/>
     <use xlink:href="#m8ec5f05e74" x="193.967621" y="145.236146" style="fill: #4169e1; stroke: #4169e1"/>
     <use xlink:href="#m8ec5f05e74" x="361.438969" y="190.25059" style="fill: #4169e1; stroke: #4169e1"/>
     <use xlink:href="#m8ec5f05e74" x="320.389033" y="255.94897" style="fill: #4169e1; stroke: #4169e1"/>
     <use xlink:href="#m8ec5f05e74" x="344.042605" y="324.108826" style="fill: #4169e1; stroke: #4169e1"/>
     <use xlink:href="#m8ec5f05e74" x="221.596039" y="156.791352" style="fill: #4169e1; stroke: #4169e1"/>
     <use xlink:href="#m8ec5f05e74" x="308.905698" y="295.012192" style="fill: #4169e1; stroke: #4169e1"/>
     <use xlink:href="#m8ec5f05e74" x="418.473167" y="315.615569" style="fill: #4169e1; stroke: #4169e1"/>
     <use xlink:href="#m8ec5f05e74" x="240.752833" y="199.301847" style="fill: #4169e1; stroke: #4169e1"/>
     <use xlink:href="#m8ec5f05e74" x="188.47429" y="240.746041" style="fill: #4169e1; stroke: #4169e1"/>
     <use xlink:href="#m8ec5f05e74" x="197.954449" y="121.729065" style="fill: #4169e1; stroke: #4169e1"/>
     <use xlink:href="#m8ec5f05e74" x="159.205543" y="164.713418" style="fill: #4169e1; stroke: #4169e1"/>
     <use xlink:href="#m8ec5f05e74" x="370.445715" y="336.411511" style="fill: #4169e1; stroke: #4169e1"/>
     <use xlink:href="#m8ec5f05e74" x="283.164296" y="209.476083" style="fill: #4169e1; stroke: #4169e1"/>
     <use xlink:href="#m8ec5f05e74" x="347.083758" y="179.024515" style="fill: #4169e1; stroke: #4169e1"/>
     <use xlink:href="#m8ec5f05e74" x="311.280015" y="348.418352" style="fill: #4169e1; stroke: #4169e1"/>
     <use xlink:href="#m8ec5f05e74" x="396.722874" y="271.623039" style="fill: #4169e1; stroke: #4169e1"/>
     <use xlink:href="#m8ec5f05e74" x="310.261795" y="243.324917" style="fill: #4169e1; stroke: #4169e1"/>
     <use xlink:href="#m8ec5f05e74" x="359.050609" y="207.730647" style="fill: #4169e1; stroke: #4169e1"/>
     <use xlink:href="#m8ec5f05e74" x="277.365651" y="332.968851" style="fill: #4169e1; stroke: #4169e1"/>
     <use xlink:href="#m8ec5f05e74" x="362.531121" y="148.387915" style="fill: #4169e1; stroke: #4169e1"/>
     <use xlink:href="#m8ec5f05e74" x="316.729211" y="321.74374" style="fill: #4169e1; stroke: #4169e1"/>
     <use xlink:href="#m8ec5f05e74" x="178.838714" y="152.061316" style="fill: #4169e1; stroke: #4169e1"/>
     <use xlink:href="#m8ec5f05e74" x="284.465915" y="324.237863" style="fill: #4169e1; stroke: #4169e1"/>
     <use xlink:href="#m8ec5f05e74" x="397.421004" y="284.661746" style="fill: #4169e1; stroke: #4169e1"/>
     <use xlink:href="#m8ec5f05e74" x="217.731816" y="274.563511" style="fill: #4169e1; stroke: #4169e1"/>
     <use xlink:href="#m8ec5f05e74" x="268.247967" y="337.90184" style="fill: #4169e1; stroke: #4169e1"/>
     <use xlink:href="#m8ec5f05e74" x="333.523376" y="144.781994" style="fill: #4169e1; stroke: #4169e1"/>
     <use xlink:href="#m8ec5f05e74" x="210.555598" y="332.397803" style="fill: #4169e1; stroke: #4169e1"/>
     <use xlink:href="#m8ec5f05e74" x="396.199484" y="285.253104" style="fill: #4169e1; stroke: #4169e1"/>
     <use xlink:href="#m8ec5f05e74" x="252.753241" y="233.973166" style="fill: #4169e1; stroke: #4169e1"/>
     <use xlink:href="#m8ec5f05e74" x="360.080317" y="175.446746" style="fill: #4169e1; stroke: #4169e1"/>
     <use xlink:href="#m8ec5f05e74" x="312.304562" y="288.658214" style="fill: #4169e1; stroke: #4169e1"/>
     <use xlink:href="#m8ec5f05e74" x="324.646076" y="260.254977" style="fill: #4169e1; stroke: #4169e1"/>
     <use xlink:href="#m8ec5f05e74" x="221.019756" y="168.525967" style="fill: #4169e1; stroke: #4169e1"/>
     <use xlink:href="#m8ec5f05e74" x="261.349563" y="178.115859" style="fill: #4169e1; stroke: #4169e1"/>
     <use xlink:href="#m8ec5f05e74" x="259.556833" y="327.339444" style="fill: #4169e1; stroke: #4169e1"/>
     <use xlink:href="#m8ec5f05e74" x="304.74417" y="278.015683" style="fill: #4169e1; stroke: #4169e1"/>
     <use xlink:href="#m8ec5f05e74" x="299.239268" y="313.804031" style="fill: #4169e1; stroke: #4169e1"/>
     <use xlink:href="#m8ec5f05e74" x="397.905631" y="319.788871" style="fill: #4169e1; stroke: #4169e1"/>
     <use xlink:href="#m8ec5f05e74" x="377.690658" y="250.257656" style="fill: #4169e1; stroke: #4169e1"/>
     <use xlink:href="#m8ec5f05e74" x="379.321184" y="158.213031" style="fill: #4169e1; stroke: #4169e1"/>
     <use xlink:href="#m8ec5f05e74" x="236.633801" y="267.045284" style="fill: #4169e1; stroke: #4169e1"/>
     <use xlink:href="#m8ec5f05e74" x="297.029959" y="308.298538" style="fill: #4169e1; stroke: #4169e1"/>
     <use xlink:href="#m8ec5f05e74" x="194.299151" y="194.494809" style="fill: #4169e1; stroke: #4169e1"/>
     <use xlink:href="#m8ec5f05e74" x="236.520833" y="265.276672" style="fill: #4169e1; stroke: #4169e1"/>
     <use xlink:href="#m8ec5f05e74" x="356.957655" y="299.653167" style="fill: #4169e1; stroke: #4169e1"/>
     <use xlink:href="#m8ec5f05e74" x="171.321911" y="223.064827" style="fill: #4169e1; stroke: #4169e1"/>
     <use xlink:href="#m8ec5f05e74" x="229.741002" y="251.898977" style="fill: #4169e1; stroke: #4169e1"/>
     <use xlink:href="#m8ec5f05e74" x="161.695254" y="223.077395" style="fill: #4169e1; stroke: #4169e1"/>
     <use xlink:href="#m8ec5f05e74" x="233.504611" y="279.609966" style="fill: #4169e1; stroke: #4169e1"/>
     <use xlink:href="#m8ec5f05e74" x="320.371884" y="328.86531" style="fill: #4169e1; stroke: #4169e1"/>
     <use xlink:href="#m8ec5f05e74" x="242.761931" y="347.848671" style="fill: #4169e1; stroke: #4169e1"/>
     <use xlink:href="#m8ec5f05e74" x="276.650429" y="266.270991" style="fill: #4169e1; stroke: #4169e1"/>
     <use xlink:href="#m8ec5f05e74" x="359.279096" y="176.812711" style="fill: #4169e1; stroke: #4169e1"/>
     <use xlink:href="#m8ec5f05e74" x="331.481442" y="267.286815" style="fill: #4169e1; stroke: #4169e1"/>
     <use xlink:href="#m8ec5f05e74" x="202.259231" y="169.525241" style="fill: #4169e1; stroke: #4169e1"/>
     <use xlink:href="#m8ec5f05e74" x="228.850592" y="282.851971" style="fill: #4169e1; stroke: #4169e1"/>
     <use xlink:href="#m8ec5f05e74" x="235.492946" y="293.472135" style="fill: #4169e1; stroke: #4169e1"/>
     <use xlink:href="#m8ec5f05e74" x="218.720566" y="269.166899" style="fill: #4169e1; stroke: #4169e1"/>
     <use xlink:href="#m8ec5f05e74" x="264.695765" y="310.606052" style="fill: #4169e1; stroke: #4169e1"/>
     <use xlink:href="#m8ec5f05e74" x="358.264136" y="175.576569" style="fill: #4169e1; stroke: #4169e1"/>
     <use xlink:href="#m8ec5f05e74" x="329.28586" y="186.708389" style="fill: #4169e1; stroke: #4169e1"/>
     <use xlink:href="#m8ec5f05e74" x="346.482215" y="405.307602" style="fill: #4169e1; stroke: #4169e1"/>
     <use xlink:href="#m8ec5f05e74" x="363.528087" y="182.111664" style="fill: #4169e1; stroke: #4169e1"/>
     <use xlink:href="#m8ec5f05e74" x="196.80951" y="218.521052" style="fill: #4169e1; stroke: #4169e1"/>
     <use xlink:href="#m8ec5f05e74" x="320.218321" y="159.926825" style="fill: #4169e1; stroke: #4169e1"/>
     <use xlink:href="#m8ec5f05e74" x="385.391039" y="330.805737" style="fill: #4169e1; stroke: #4169e1"/>
     <use xlink:href="#m8ec5f05e74" x="347.750412" y="247.912117" style="fill: #4169e1; stroke: #4169e1"/>
     <use xlink:href="#m8ec5f05e74" x="275.477494" y="262.691024" style="fill: #4169e1; stroke: #4169e1"/>
     <use xlink:href="#m8ec5f05e74" x="356.588131" y="234.161657" style="fill: #4169e1; stroke: #4169e1"/>
     <use xlink:href="#m8ec5f05e74" x="388.799029" y="283.914128" style="fill: #4169e1; stroke: #4169e1"/>
     <use xlink:href="#m8ec5f05e74" x="158.357038" y="258.169121" style="fill: #4169e1; stroke: #4169e1"/>
     <use xlink:href="#m8ec5f05e74" x="333.606719" y="340.637681" style="fill: #4169e1; stroke: #4169e1"/>
     <use xlink:href="#m8ec5f05e74" x="385.861913" y="278.089907" style="fill: #4169e1; stroke: #4169e1"/>
     <use xlink:href="#m8ec5f05e74" x="284.351062" y="263.379665" style="fill: #4169e1; stroke: #4169e1"/>
     <use xlink:href="#m8ec5f05e74" x="270.039806" y="353.931884" style="fill: #4169e1; stroke: #4169e1"/>
     <use xlink:href="#m8ec5f05e74" x="421.731011" y="158.896346" style="fill: #4169e1; stroke: #4169e1"/>
     <use xlink:href="#m8ec5f05e74" x="360.578295" y="311.621257" style="fill: #4169e1; stroke: #4169e1"/>
     <use xlink:href="#m8ec5f05e74" x="394.935841" y="194.40434" style="fill: #4169e1; stroke: #4169e1"/>
     <use xlink:href="#m8ec5f05e74" x="349.86413" y="307.079183" style="fill: #4169e1; stroke: #4169e1"/>
    </g>
   </g>
   <g id="PathCollection_2">
    <defs>
     <path id="mef3b75e5e8" d="M 0 2.5 
C 0.663008 2.5 1.29895 2.236584 1.767767 1.767767 
C 2.236584 1.29895 2.5 0.663008 2.5 0 
C 2.5 -0.663008 2.236584 -1.29895 1.767767 -1.767767 
C 1.29895 -2.236584 0.663008 -2.5 0 -2.5 
C -0.663008 -2.5 -1.29895 -2.236584 -1.767767 -1.767767 
C -2.236584 -1.29895 -2.5 -0.663008 -2.5 0 
C -2.5 0.663008 -2.236584 1.29895 -1.767767 1.767767 
C -1.29895 2.236584 -0.663008 2.5 0 2.5 
z
" style="stroke: #b22222"/>
    </defs>
    <g clip-path="url(#p87d2a69d9a)">
     <use xlink:href="#mef3b75e5e8" x="256.914879" y="206.398712" style="fill: #b22222; stroke: #b22222"/>
     <use xlink:href="#mef3b75e5e8" x="228.137539" y="175.523768" style="fill: #b22222; stroke: #b22222"/>
     <use xlink:href="#mef3b75e5e8" x="254.069246" y="200.332732" style="fill: #b22222; stroke: #b22222"/>
     <use xlink:href="#mef3b75e5e8" x="256.634082" y="205.516524" style="fill: #b22222; stroke: #b22222"/>
     <use xlink:href="#mef3b75e5e8" x="245.441888" y="153.31501" style="fill: #b22222; stroke: #b22222"/>
     <use xlink:href="#mef3b75e5e8" x="254.529345" y="202.186755" style="fill: #b22222; stroke: #b22222"/>
     <use xlink:href="#mef3b75e5e8" x="283.273861" y="227.798313" style="fill: #b22222; stroke: #b22222"/>
     <use xlink:href="#mef3b75e5e8" x="266.465155" y="208.043077" style="fill: #b22222; stroke: #b22222"/>
     <use xlink:href="#mef3b75e5e8" x="229.926305" y="182.769043" style="fill: #b22222; stroke: #b22222"/>
     <use xlink:href="#mef3b75e5e8" x="283.964246" y="249.216952" style="fill: #b22222; stroke: #b22222"/>
     <use xlink:href="#mef3b75e5e8" x="289.836732" y="219.876169" style="fill: #b22222; stroke: #b22222"/>
     <use xlink:href="#mef3b75e5e8" x="230.819747" y="188.831896" style="fill: #b22222; stroke: #b22222"/>
     <use xlink:href="#mef3b75e5e8" x="266.337037" y="215.268611" style="fill: #b22222; stroke: #b22222"/>
     <use xlink:href="#mef3b75e5e8" x="281.099552" y="219.928012" style="fill: #b22222; stroke: #b22222"/>
     <use xlink:href="#mef3b75e5e8" x="249.980285" y="157.012754" style="fill: #b22222; stroke: #b22222"/>
     <use xlink:href="#mef3b75e5e8" x="261.159022" y="200.468137" style="fill: #b22222; stroke: #b22222"/>
     <use xlink:href="#mef3b75e5e8" x="288.639036" y="264.013277" style="fill: #b22222; stroke: #b22222"/>
     <use xlink:href="#mef3b75e5e8" x="283.916126" y="250.55062" style="fill: #b22222; stroke: #b22222"/>
     <use xlink:href="#mef3b75e5e8" x="272.625993" y="215.770743" style="fill: #b22222; stroke: #b22222"/>
     <use xlink:href="#mef3b75e5e8" x="264.098399" y="209.680007" style="fill: #b22222; stroke: #b22222"/>
     <use xlink:href="#mef3b75e5e8" x="228.672398" y="171.104232" style="fill: #b22222; stroke: #b22222"/>
     <use xlink:href="#mef3b75e5e8" x="269.734843" y="212.874788" style="fill: #b22222; stroke: #b22222"/>
     <use xlink:href="#mef3b75e5e8" x="280.8787" y="221.817649" style="fill: #b22222; stroke: #b22222"/>
     <use xlink:href="#mef3b75e5e8" x="254.882424" y="209.582006" style="fill: #b22222; stroke: #b22222"/>
     <use xlink:href="#mef3b75e5e8" x="239.879714" y="175.450113" style="fill: #b22222; stroke: #b22222"/>
     <use xlink:href="#mef3b75e5e8" x="287.469067" y="217.87636" style="fill: #b22222; stroke: #b22222"/>
     <use xlink:href="#mef3b75e5e8" x="245.408277" y="166.105008" style="fill: #b22222; stroke: #b22222"/>
     <use xlink:href="#mef3b75e5e8" x="225.234475" y="154.335358" style="fill: #b22222; stroke: #b22222"/>
     <use xlink:href="#mef3b75e5e8" x="239.873159" y="137.328001" style="fill: #b22222; stroke: #b22222"/>
     <use xlink:href="#mef3b75e5e8" x="262.379468" y="198.605385" style="fill: #b22222; stroke: #b22222"/>
     <use xlink:href="#mef3b75e5e8" x="263.782818" y="210.217939" style="fill: #b22222; stroke: #b22222"/>
     <use xlink:href="#mef3b75e5e8" x="277.419557" y="201.337245" style="fill: #b22222; stroke: #b22222"/>
     <use xlink:href="#mef3b75e5e8" x="231.324108" y="181.559355" style="fill: #b22222; stroke: #b22222"/>
     <use xlink:href="#mef3b75e5e8" x="262.414282" y="219.69702" style="fill: #b22222; stroke: #b22222"/>
     <use xlink:href="#mef3b75e5e8" x="260.76154" y="200.923223" style="fill: #b22222; stroke: #b22222"/>
     <use xlink:href="#mef3b75e5e8" x="256.931353" y="218.875757" style="fill: #b22222; stroke: #b22222"/>
     <use xlink:href="#mef3b75e5e8" x="249.125258" y="192.43267" style="fill: #b22222; stroke: #b22222"/>
     <use xlink:href="#mef3b75e5e8" x="252.646777" y="205.272886" style="fill: #b22222; stroke: #b22222"/>
     <use xlink:href="#mef3b75e5e8" x="286.565732" y="245.940723" style="fill: #b22222; stroke: #b22222"/>
     <use xlink:href="#mef3b75e5e8" x="251.849091" y="198.537009" style="fill: #b22222; stroke: #b22222"/>
     <use xlink:href="#mef3b75e5e8" x="276.261316" y="218.549149" style="fill: #b22222; stroke: #b22222"/>
     <use xlink:href="#mef3b75e5e8" x="222.063784" y="169.472521" style="fill: #b22222; stroke: #b22222"/>
     <use xlink:href="#mef3b75e5e8" x="258.091031" y="205.730361" style="fill: #b22222; stroke: #b22222"/>
     <use xlink:href="#mef3b75e5e8" x="241.219322" y="144.611221" style="fill: #b22222; stroke: #b22222"/>
     <use xlink:href="#mef3b75e5e8" x="253.79739" y="144.770685" style="fill: #b22222; stroke: #b22222"/>
     <use xlink:href="#mef3b75e5e8" x="257.478219" y="200.845734" style="fill: #b22222; stroke: #b22222"/>
     <use xlink:href="#mef3b75e5e8" x="245.016143" y="191.010203" style="fill: #b22222; stroke: #b22222"/>
     <use xlink:href="#mef3b75e5e8" x="243.546371" y="174.258837" style="fill: #b22222; stroke: #b22222"/>
     <use xlink:href="#mef3b75e5e8" x="244.170017" y="178.550713" style="fill: #b22222; stroke: #b22222"/>
     <use xlink:href="#mef3b75e5e8" x="249.144461" y="182.71876" style="fill: #b22222; stroke: #b22222"/>
     <use xlink:href="#mef3b75e5e8" x="253.380804" y="204.656174" style="fill: #b22222; stroke: #b22222"/>
     <use xlink:href="#mef3b75e5e8" x="276.040383" y="216.431817" style="fill: #b22222; stroke: #b22222"/>
     <use xlink:href="#mef3b75e5e8" x="257.147963" y="171.899009" style="fill: #b22222; stroke: #b22222"/>
     <use xlink:href="#mef3b75e5e8" x="260.444022" y="206.418382" style="fill: #b22222; stroke: #b22222"/>
     <use xlink:href="#mef3b75e5e8" x="252.232077" y="209.060559" style="fill: #b22222; stroke: #b22222"/>
     <use xlink:href="#mef3b75e5e8" x="243.802466" y="170.569904" style="fill: #b22222; stroke: #b22222"/>
     <use xlink:href="#mef3b75e5e8" x="239.721985" y="170.876658" style="fill: #b22222; stroke: #b22222"/>
     <use xlink:href="#mef3b75e5e8" x="250.628795" y="160.800472" style="fill: #b22222; stroke: #b22222"/>
     <use xlink:href="#mef3b75e5e8" x="238.053121" y="154.186505" style="fill: #b22222; stroke: #b22222"/>
     <use xlink:href="#mef3b75e5e8" x="255.617476" y="207.89695" style="fill: #b22222; stroke: #b22222"/>
     <use xlink:href="#mef3b75e5e8" x="257.234826" y="209.720973" style="fill: #b22222; stroke: #b22222"/>
     <use xlink:href="#mef3b75e5e8" x="249.973621" y="147.141767" style="fill: #b22222; stroke: #b22222"/>
     <use xlink:href="#mef3b75e5e8" x="269.210548" y="201.328662" style="fill: #b22222; stroke: #b22222"/>
     <use xlink:href="#mef3b75e5e8" x="231.064608" y="155.007013" style="fill: #b22222; stroke: #b22222"/>
     <use xlink:href="#mef3b75e5e8" x="256.867514" y="200.450846" style="fill: #b22222; stroke: #b22222"/>
     <use xlink:href="#mef3b75e5e8" x="249.893322" y="198.886622" style="fill: #b22222; stroke: #b22222"/>
     <use xlink:href="#mef3b75e5e8" x="274.535846" y="214.321591" style="fill: #b22222; stroke: #b22222"/>
     <use xlink:href="#mef3b75e5e8" x="262.770466" y="207.548236" style="fill: #b22222; stroke: #b22222"/>
     <use xlink:href="#mef3b75e5e8" x="251.069711" y="142.164735" style="fill: #b22222; stroke: #b22222"/>
     <use xlink:href="#mef3b75e5e8" x="264.469785" y="210.093224" style="fill: #b22222; stroke: #b22222"/>
     <use xlink:href="#mef3b75e5e8" x="281.578884" y="201.319761" style="fill: #b22222; stroke: #b22222"/>
     <use xlink:href="#mef3b75e5e8" x="240.788627" y="170.985461" style="fill: #b22222; stroke: #b22222"/>
     <use xlink:href="#mef3b75e5e8" x="276.004322" y="216.212441" style="fill: #b22222; stroke: #b22222"/>
     <use xlink:href="#mef3b75e5e8" x="267.055057" y="219.285325" style="fill: #b22222; stroke: #b22222"/>
     <use xlink:href="#mef3b75e5e8" x="257.778965" y="205.871879" style="fill: #b22222; stroke: #b22222"/>
     <use xlink:href="#mef3b75e5e8" x="254.894917" y="199.694945" style="fill: #b22222; stroke: #b22222"/>
     <use xlink:href="#mef3b75e5e8" x="235.775428" y="145.558641" style="fill: #b22222; stroke: #b22222"/>
     <use xlink:href="#mef3b75e5e8" x="254.832143" y="203.821625" style="fill: #b22222; stroke: #b22222"/>
     <use xlink:href="#mef3b75e5e8" x="257.714152" y="193.153874" style="fill: #b22222; stroke: #b22222"/>
     <use xlink:href="#mef3b75e5e8" x="247.95355" y="185.629106" style="fill: #b22222; stroke: #b22222"/>
     <use xlink:href="#mef3b75e5e8" x="257.823301" y="197.185371" style="fill: #b22222; stroke: #b22222"/>
     <use xlink:href="#mef3b75e5e8" x="239.846688" y="171.592127" style="fill: #b22222; stroke: #b22222"/>
     <use xlink:href="#mef3b75e5e8" x="234.85586" y="189.831257" style="fill: #b22222; stroke: #b22222"/>
     <use xlink:href="#mef3b75e5e8" x="245.299948" y="171.098039" style="fill: #b22222; stroke: #b22222"/>
     <use xlink:href="#mef3b75e5e8" x="229.769226" y="145.191216" style="fill: #b22222; stroke: #b22222"/>
     <use xlink:href="#mef3b75e5e8" x="258.41196" y="202.63071" style="fill: #b22222; stroke: #b22222"/>
     <use xlink:href="#mef3b75e5e8" x="266.070053" y="209.546321" style="fill: #b22222; stroke: #b22222"/>
     <use xlink:href="#mef3b75e5e8" x="272.610545" y="223.008488" style="fill: #b22222; stroke: #b22222"/>
     <use xlink:href="#mef3b75e5e8" x="244.945219" y="145.453297" style="fill: #b22222; stroke: #b22222"/>
     <use xlink:href="#mef3b75e5e8" x="234.950213" y="191.302569" style="fill: #b22222; stroke: #b22222"/>
     <use xlink:href="#mef3b75e5e8" x="238.012417" y="160.711221" style="fill: #b22222; stroke: #b22222"/>
     <use xlink:href="#mef3b75e5e8" x="225.744053" y="151.306948" style="fill: #b22222; stroke: #b22222"/>
     <use xlink:href="#mef3b75e5e8" x="242.517239" y="144.338562" style="fill: #b22222; stroke: #b22222"/>
     <use xlink:href="#mef3b75e5e8" x="290.881199" y="212.39205" style="fill: #b22222; stroke: #b22222"/>
     <use xlink:href="#mef3b75e5e8" x="275.630883" y="211.754006" style="fill: #b22222; stroke: #b22222"/>
     <use xlink:href="#mef3b75e5e8" x="273.969804" y="208.758456" style="fill: #b22222; stroke: #b22222"/>
     <use xlink:href="#mef3b75e5e8" x="252.005903" y="170.26893" style="fill: #b22222; stroke: #b22222"/>
     <use xlink:href="#mef3b75e5e8" x="256.502429" y="260.094084" style="fill: #b22222; stroke: #b22222"/>
     <use xlink:href="#mef3b75e5e8" x="282.571031" y="212.281307" style="fill: #b22222; stroke: #b22222"/>
     <use xlink:href="#mef3b75e5e8" x="255.586187" y="206.655644" style="fill: #b22222; stroke: #b22222"/>
     <use xlink:href="#mef3b75e5e8" x="230.577742" y="166.734014" style="fill: #b22222; stroke: #b22222"/>
     <use xlink:href="#mef3b75e5e8" x="269.723162" y="213.160287" style="fill: #b22222; stroke: #b22222"/>
     <use xlink:href="#mef3b75e5e8" x="274.830259" y="218.819704" style="fill: #b22222; stroke: #b22222"/>
     <use xlink:href="#mef3b75e5e8" x="252.565096" y="178.395052" style="fill: #b22222; stroke: #b22222"/>
     <use xlink:href="#mef3b75e5e8" x="236.125914" y="155.923552" style="fill: #b22222; stroke: #b22222"/>
     <use xlink:href="#mef3b75e5e8" x="290.305692" y="277.883384" style="fill: #b22222; stroke: #b22222"/>
     <use xlink:href="#mef3b75e5e8" x="253.492492" y="219.583927" style="fill: #b22222; stroke: #b22222"/>
     <use xlink:href="#mef3b75e5e8" x="237.17561" y="182.208647" style="fill: #b22222; stroke: #b22222"/>
     <use xlink:href="#mef3b75e5e8" x="231.196234" y="172.136477" style="fill: #b22222; stroke: #b22222"/>
     <use xlink:href="#mef3b75e5e8" x="253.065128" y="174.884428" style="fill: #b22222; stroke: #b22222"/>
     <use xlink:href="#mef3b75e5e8" x="264.084395" y="224.177188" style="fill: #b22222; stroke: #b22222"/>
     <use xlink:href="#mef3b75e5e8" x="235.461037" y="184.57136" style="fill: #b22222; stroke: #b22222"/>
     <use xlink:href="#mef3b75e5e8" x="259.290478" y="190.701175" style="fill: #b22222; stroke: #b22222"/>
     <use xlink:href="#mef3b75e5e8" x="283.30811" y="209.774962" style="fill: #b22222; stroke: #b22222"/>
     <use xlink:href="#mef3b75e5e8" x="276.387199" y="182.346627" style="fill: #b22222; stroke: #b22222"/>
     <use xlink:href="#mef3b75e5e8" x="227.192545" y="160.942064" style="fill: #b22222; stroke: #b22222"/>
     <use xlink:href="#mef3b75e5e8" x="244.866096" y="140.778592" style="fill: #b22222; stroke: #b22222"/>
     <use xlink:href="#mef3b75e5e8" x="274.882387" y="213.761398" style="fill: #b22222; stroke: #b22222"/>
     <use xlink:href="#mef3b75e5e8" x="244.847052" y="169.840129" style="fill: #b22222; stroke: #b22222"/>
     <use xlink:href="#mef3b75e5e8" x="298.352479" y="219.819834" style="fill: #b22222; stroke: #b22222"/>
     <use xlink:href="#mef3b75e5e8" x="234.055682" y="182.854575" style="fill: #b22222; stroke: #b22222"/>
     <use xlink:href="#mef3b75e5e8" x="264.32957" y="211.863017" style="fill: #b22222; stroke: #b22222"/>
     <use xlink:href="#mef3b75e5e8" x="233.455279" y="151.853646" style="fill: #b22222; stroke: #b22222"/>
     <use xlink:href="#mef3b75e5e8" x="243.446014" y="184.568978" style="fill: #b22222; stroke: #b22222"/>
     <use xlink:href="#mef3b75e5e8" x="244.076086" y="166.663848" style="fill: #b22222; stroke: #b22222"/>
     <use xlink:href="#mef3b75e5e8" x="277.275081" y="202.402535" style="fill: #b22222; stroke: #b22222"/>
     <use xlink:href="#mef3b75e5e8" x="239.195474" y="169.854639" style="fill: #b22222; stroke: #b22222"/>
     <use xlink:href="#mef3b75e5e8" x="240.993637" y="167.42968" style="fill: #b22222; stroke: #b22222"/>
     <use xlink:href="#mef3b75e5e8" x="238.426275" y="151.85862" style="fill: #b22222; stroke: #b22222"/>
     <use xlink:href="#mef3b75e5e8" x="249.263631" y="189.330534" style="fill: #b22222; stroke: #b22222"/>
     <use xlink:href="#mef3b75e5e8" x="282.591378" y="275.659717" style="fill: #b22222; stroke: #b22222"/>
     <use xlink:href="#mef3b75e5e8" x="252.782117" y="191.149683" style="fill: #b22222; stroke: #b22222"/>
     <use xlink:href="#mef3b75e5e8" x="248.46105" y="190.093653" style="fill: #b22222; stroke: #b22222"/>
     <use xlink:href="#mef3b75e5e8" x="251.155067" y="209.82134" style="fill: #b22222; stroke: #b22222"/>
     <use xlink:href="#mef3b75e5e8" x="239.449479" y="149.398267" style="fill: #b22222; stroke: #b22222"/>
     <use xlink:href="#mef3b75e5e8" x="271.717879" y="273.627525" style="fill: #b22222; stroke: #b22222"/>
     <use xlink:href="#mef3b75e5e8" x="227.901997" y="154.510834" style="fill: #b22222; stroke: #b22222"/>
     <use xlink:href="#mef3b75e5e8" x="245.71588" y="193.841453" style="fill: #b22222; stroke: #b22222"/>
     <use xlink:href="#mef3b75e5e8" x="261.820803" y="206.217564" style="fill: #b22222; stroke: #b22222"/>
     <use xlink:href="#mef3b75e5e8" x="243.725434" y="148.191872" style="fill: #b22222; stroke: #b22222"/>
     <use xlink:href="#mef3b75e5e8" x="240.621846" y="158.979358" style="fill: #b22222; stroke: #b22222"/>
     <use xlink:href="#mef3b75e5e8" x="283.332367" y="276.679192" style="fill: #b22222; stroke: #b22222"/>
    </g>
   </g>
   <g id="patch_4">
    <path d="M 56.450156 450.72 
L 56.450156 7.2 
" style="fill: none; stroke: #ffffff; stroke-width: 1.25; stroke-linejoin: miter; stroke-linecap: square"/>
   </g>
   <g id="patch_5">
    <path d="M 499.970156 450.72 
L 499.970156 7.2 
" style="fill: none; stroke: #ffffff; stroke-width: 1.25; stroke-linejoin: miter; stroke-linecap: square"/>
   </g>
   <g id="patch_6">
    <path d="M 56.450156 450.72 
L 499.970156 450.72 
" style="fill: none; stroke: #ffffff; stroke-width: 1.25; stroke-linejoin: miter; stroke-linecap: square"/>
   </g>
   <g id="patch_7">
    <path d="M 56.450156 7.2 
L 499.970156 7.2 
" style="fill: none; stroke: #ffffff; stroke-width: 1.25; stroke-linejoin: miter; stroke-linecap: square"/>
   </g>
   <g id="text_13">
    <!-- t = 3000 -->
    <g style="fill: #262626" transform="translate(65.320556 24.659775) scale(0.12 -0.12)">
     <defs>
      <path id="ArialMT-74" d="M 1650 503 
L 1731 6 
Q 1494 -44 1306 -44 
Q 1000 -44 831 53 
Q 663 150 594 308 
Q 525 466 525 972 
L 525 2881 
L 113 2881 
L 113 3319 
L 525 3319 
L 525 4141 
L 1084 4478 
L 1084 3319 
L 1650 3319 
L 1650 2881 
L 1084 2881 
L 1084 941 
Q 1084 700 1114 631 
Q 1144 563 1211 522 
Q 1278 481 1403 481 
Q 1497 481 1650 503 
z
" transform="scale(0.015625)"/>
      <path id="ArialMT-20" transform="scale(0.015625)"/>
      <path id="ArialMT-3d" d="M 3381 2694 
L 356 2694 
L 356 3219 
L 3381 3219 
L 3381 2694 
z
M 3381 1303 
L 356 1303 
L 356 1828 
L 3381 1828 
L 3381 1303 
z
" transform="scale(0.015625)"/>
      <path id="ArialMT-33" d="M 269 1209 
L 831 1284 
Q 928 806 1161 595 
Q 1394 384 1728 384 
Q 2125 384 2398 659 
Q 2672 934 2672 1341 
Q 2672 1728 2419 1979 
Q 2166 2231 1775 2231 
Q 1616 2231 1378 2169 
L 1441 2663 
Q 1497 2656 1531 2656 
Q 1891 2656 2178 2843 
Q 2466 3031 2466 3422 
Q 2466 3731 2256 3934 
Q 2047 4138 1716 4138 
Q 1388 4138 1169 3931 
Q 950 3725 888 3313 
L 325 3413 
Q 428 3978 793 4289 
Q 1159 4600 1703 4600 
Q 2078 4600 2393 4439 
Q 2709 4278 2876 4000 
Q 3044 3722 3044 3409 
Q 3044 3113 2884 2869 
Q 2725 2625 2413 2481 
Q 2819 2388 3044 2092 
Q 3269 1797 3269 1353 
Q 3269 753 2831 336 
Q 2394 -81 1725 -81 
Q 1122 -81 723 278 
Q 325 638 269 1209 
z
" transform="scale(0.015625)"/>
     </defs>
     <use xlink:href="#ArialMT-74"/>
     <use xlink:href="#ArialMT-20" x="27.783203"/>
     <use xlink:href="#ArialMT-3d" x="55.566406"/>
     <use xlink:href="#ArialMT-20" x="113.964844"/>
     <use xlink:href="#ArialMT-33" x="141.748047"/>
     <use xlink:href="#ArialMT-30" x="197.363281"/>
     <use xlink:href="#ArialMT-30" x="252.978516"/>
     <use xlink:href="#ArialMT-30" x="308.59375"/>
    </g>
   </g>
   <g id="legend_1">
    <g id="patch_8">
     <path d="M 328.111406 94.59 
L 483.170156 94.59 
Q 487.970156 94.59 487.970156 89.79 
L 487.970156 24 
Q 487.970156 19.2 483.170156 19.2 
L 328.111406 19.2 
Q 323.311406 19.2 323.311406 24 
L 323.311406 89.79 
Q 323.311406 94.59 328.111406 94.59 
z
" style="fill: #eaeaf2; opacity: 0.8; stroke: #cccccc; stroke-linejoin: miter"/>
    </g>
    <g id="PathCollection_3">
     <g>
      <use xlink:href="#m8ec5f05e74" x="356.911406" y="39.97125" style="fill: #4169e1; stroke: #4169e1"/>
     </g>
    </g>
    <g id="text_14">
     <!-- Sheep -->
     <g style="fill: #262626" transform="translate(400.111406 46.27125) scale(0.24 -0.24)">
      <defs>
       <path id="ArialMT-53" d="M 288 1472 
L 859 1522 
Q 900 1178 1048 958 
Q 1197 738 1509 602 
Q 1822 466 2213 466 
Q 2559 466 2825 569 
Q 3091 672 3220 851 
Q 3350 1031 3350 1244 
Q 3350 1459 3225 1620 
Q 3100 1781 2813 1891 
Q 2628 1963 1997 2114 
Q 1366 2266 1113 2400 
Q 784 2572 623 2826 
Q 463 3081 463 3397 
Q 463 3744 659 4045 
Q 856 4347 1234 4503 
Q 1613 4659 2075 4659 
Q 2584 4659 2973 4495 
Q 3363 4331 3572 4012 
Q 3781 3694 3797 3291 
L 3216 3247 
Q 3169 3681 2898 3903 
Q 2628 4125 2100 4125 
Q 1550 4125 1298 3923 
Q 1047 3722 1047 3438 
Q 1047 3191 1225 3031 
Q 1400 2872 2139 2705 
Q 2878 2538 3153 2413 
Q 3553 2228 3743 1945 
Q 3934 1663 3934 1294 
Q 3934 928 3725 604 
Q 3516 281 3123 101 
Q 2731 -78 2241 -78 
Q 1619 -78 1198 103 
Q 778 284 539 648 
Q 300 1013 288 1472 
z
" transform="scale(0.015625)"/>
       <path id="ArialMT-68" d="M 422 0 
L 422 4581 
L 984 4581 
L 984 2938 
Q 1378 3394 1978 3394 
Q 2347 3394 2619 3248 
Q 2891 3103 3008 2847 
Q 3125 2591 3125 2103 
L 3125 0 
L 2563 0 
L 2563 2103 
Q 2563 2525 2380 2717 
Q 2197 2909 1863 2909 
Q 1613 2909 1392 2779 
Q 1172 2650 1078 2428 
Q 984 2206 984 1816 
L 984 0 
L 422 0 
z
" transform="scale(0.015625)"/>
       <path id="ArialMT-65" d="M 2694 1069 
L 3275 997 
Q 3138 488 2766 206 
Q 2394 -75 1816 -75 
Q 1088 -75 661 373 
Q 234 822 234 1631 
Q 234 2469 665 2931 
Q 1097 3394 1784 3394 
Q 2450 3394 2872 2941 
Q 3294 2488 3294 1666 
Q 3294 1616 3291 1516 
L 816 1516 
Q 847 969 1125 678 
Q 1403 388 1819 388 
Q 2128 388 2347 550 
Q 2566 713 2694 1069 
z
M 847 1978 
L 2700 1978 
Q 2663 2397 2488 2606 
Q 2219 2931 1791 2931 
Q 1403 2931 1139 2672 
Q 875 2413 847 1978 
z
" transform="scale(0.015625)"/>
       <path id="ArialMT-70" d="M 422 -1272 
L 422 3319 
L 934 3319 
L 934 2888 
Q 1116 3141 1344 3267 
Q 1572 3394 1897 3394 
Q 2322 3394 2647 3175 
Q 2972 2956 3137 2557 
Q 3303 2159 3303 1684 
Q 3303 1175 3120 767 
Q 2938 359 2589 142 
Q 2241 -75 1856 -75 
Q 1575 -75 1351 44 
Q 1128 163 984 344 
L 984 -1272 
L 422 -1272 
z
M 931 1641 
Q 931 1000 1190 694 
Q 1450 388 1819 388 
Q 2194 388 2461 705 
Q 2728 1022 2728 1688 
Q 2728 2322 2467 2637 
Q 2206 2953 1844 2953 
Q 1484 2953 1207 2617 
Q 931 2281 931 1641 
z
" transform="scale(0.015625)"/>
      </defs>
      <use xlink:href="#ArialMT-53"/>
      <use xlink:href="#ArialMT-68" x="66.699219"/>
      <use xlink:href="#ArialMT-65" x="122.314453"/>
      <use xlink:href="#ArialMT-65" x="177.929688"/>
      <use xlink:href="#ArialMT-70" x="233.544922"/>
     </g>
    </g>
    <g id="PathCollection_4">
     <g>
      <use xlink:href="#mef3b75e5e8" x="356.911406" y="73.92" style="fill: #b22222; stroke: #b22222"/>
     </g>
    </g>
    <g id="text_15">
     <!-- Wolves -->
     <g style="fill: #262626" transform="translate(400.111406 80.22) scale(0.24 -0.24)">
      <defs>
       <path id="ArialMT-57" d="M 1294 0 
L 78 4581 
L 700 4581 
L 1397 1578 
Q 1509 1106 1591 641 
Q 1766 1375 1797 1488 
L 2669 4581 
L 3400 4581 
L 4056 2263 
Q 4303 1400 4413 641 
Q 4500 1075 4641 1638 
L 5359 4581 
L 5969 4581 
L 4713 0 
L 4128 0 
L 3163 3491 
Q 3041 3928 3019 4028 
Q 2947 3713 2884 3491 
L 1913 0 
L 1294 0 
z
" transform="scale(0.015625)"/>
       <path id="ArialMT-6f" d="M 213 1659 
Q 213 2581 725 3025 
Q 1153 3394 1769 3394 
Q 2453 3394 2887 2945 
Q 3322 2497 3322 1706 
Q 3322 1066 3130 698 
Q 2938 331 2570 128 
Q 2203 -75 1769 -75 
Q 1072 -75 642 372 
Q 213 819 213 1659 
z
M 791 1659 
Q 791 1022 1069 705 
Q 1347 388 1769 388 
Q 2188 388 2466 706 
Q 2744 1025 2744 1678 
Q 2744 2294 2464 2611 
Q 2184 2928 1769 2928 
Q 1347 2928 1069 2612 
Q 791 2297 791 1659 
z
" transform="scale(0.015625)"/>
       <path id="ArialMT-6c" d="M 409 0 
L 409 4581 
L 972 4581 
L 972 0 
L 409 0 
z
" transform="scale(0.015625)"/>
       <path id="ArialMT-76" d="M 1344 0 
L 81 3319 
L 675 3319 
L 1388 1331 
Q 1503 1009 1600 663 
Q 1675 925 1809 1294 
L 2547 3319 
L 3125 3319 
L 1869 0 
L 1344 0 
z
" transform="scale(0.015625)"/>
       <path id="ArialMT-73" d="M 197 991 
L 753 1078 
Q 800 744 1014 566 
Q 1228 388 1613 388 
Q 2000 388 2187 545 
Q 2375 703 2375 916 
Q 2375 1106 2209 1216 
Q 2094 1291 1634 1406 
Q 1016 1563 777 1677 
Q 538 1791 414 1992 
Q 291 2194 291 2438 
Q 291 2659 392 2848 
Q 494 3038 669 3163 
Q 800 3259 1026 3326 
Q 1253 3394 1513 3394 
Q 1903 3394 2198 3281 
Q 2494 3169 2634 2976 
Q 2775 2784 2828 2463 
L 2278 2388 
Q 2241 2644 2061 2787 
Q 1881 2931 1553 2931 
Q 1166 2931 1000 2803 
Q 834 2675 834 2503 
Q 834 2394 903 2306 
Q 972 2216 1119 2156 
Q 1203 2125 1616 2013 
Q 2213 1853 2448 1751 
Q 2684 1650 2818 1456 
Q 2953 1263 2953 975 
Q 2953 694 2789 445 
Q 2625 197 2315 61 
Q 2006 -75 1616 -75 
Q 969 -75 630 194 
Q 291 463 197 991 
z
" transform="scale(0.015625)"/>
      </defs>
      <use xlink:href="#ArialMT-57"/>
      <use xlink:href="#ArialMT-6f" x="92.634766"/>
      <use xlink:href="#ArialMT-6c" x="148.25"/>
      <use xlink:href="#ArialMT-76" x="170.466797"/>
      <use xlink:href="#ArialMT-65" x="220.466797"/>
      <use xlink:href="#ArialMT-73" x="276.082031"/>
     </g>
    </g>
   </g>
  </g>
 </g>
 <defs>
  <clipPath id="p87d2a69d9a">
   <rect x="56.450156" y="7.2" width="443.52" height="443.52"/>
  </clipPath>
 </defs>
</svg>
