<?xml version="1.0" encoding="utf-8" standalone="no"?>
<!DOCTYPE svg PUBLIC "-//W3C//DTD SVG 1.1//EN"
  "http://www.w3.org/Graphics/SVG/1.1/DTD/svg11.dtd">
<svg xmlns:xlink="http://www.w3.org/1999/xlink" width="507.170156pt" height="492.454219pt" viewBox="0 0 507.170156 492.454219" xmlns="http://www.w3.org/2000/svg" version="1.1">
 <metadata>
  <rdf:RDF xmlns:dc="http://purl.org/dc/elements/1.1/" xmlns:cc="http://creativecommons.org/ns#" xmlns:rdf="http://www.w3.org/1999/02/22-rdf-syntax-ns#">
   <cc:Work>
    <dc:type rdf:resource="http://purl.org/dc/dcmitype/StillImage"/>
    <dc:date>2026-05-12T10:49:58.015157</dc:date>
    <dc:format>image/svg+xml</dc:format>
    <dc:creator>
     <cc:Agent>
      <dc:title>Matplotlib v3.7.1, https://matplotlib.org/</dc:title>
     </cc:Agent>
    </dc:creator>
   </cc:Work>
  </rdf:RDF>
 </metadata>
 <defs>
  <style type="text/css">*{stroke-linejoin: round; stroke-linecap: butt}</style>
 </defs>
 <g id="figure_1">
  <g id="patch_1">
   <path d="M 0 492.454219 
L 507.170156 492.454219 
L 507.170156 0 
L 0 0 
z
" style="fill: #ffffff"/>
  </g>
  <g id="axes_1">
   <g id="patch_2">
    <path d="M 56.450156 450.72 
L 499.970156 450.72 
L 499.970156 7.2 
L 56.450156 7.2 
z
" style="fill: #eaeaf2"/>
   </g>
   <g id="matplotlib.axis_1">
    <g id="xtick_1">
     <g id="line2d_1">
      <path d="M 100.802156 450.72 
L 100.802156 7.2 
" clip-path="url(#pbf27cb480f)" style="fill: none; stroke: #ffffff; stroke-linecap: round"/>
     </g>
     <g id="text_1">
      <!-- −400 -->
      <g style="fill: #262626" transform="translate(88.414266 468.093594) scale(0.11 -0.11)">
       <defs>
        <path id="ArialMT-2212" d="M 3381 1997 
L 356 1997 
L 356 2522 
L 3381 2522 
L 3381 1997 
z
" transform="scale(0.015625)"/>
        <path id="ArialMT-34" d="M 2069 0 
L 2069 1097 
L 81 1097 
L 81 1613 
L 2172 4581 
L 2631 4581 
L 2631 1613 
L 3250 1613 
L 3250 1097 
L 2631 1097 
L 2631 0 
L 2069 0 
z
M 2069 1613 
L 2069 3678 
L 634 1613 
L 2069 1613 
z
" transform="scale(0.015625)"/>
        <path id="ArialMT-30" d="M 266 2259 
Q 266 3072 433 3567 
Q 600 4063 929 4331 
Q 1259 4600 1759 4600 
Q 2128 4600 2406 4451 
Q 2684 4303 2865 4023 
Q 3047 3744 3150 3342 
Q 3253 2941 3253 2259 
Q 3253 1453 3087 958 
Q 2922 463 2592 192 
Q 2263 -78 1759 -78 
Q 1097 -78 719 397 
Q 266 969 266 2259 
z
M 844 2259 
Q 844 1131 1108 757 
Q 1372 384 1759 384 
Q 2147 384 2411 759 
Q 2675 1134 2675 2259 
Q 2675 3391 2411 3762 
Q 2147 4134 1753 4134 
Q 1366 4134 1134 3806 
Q 844 3388 844 2259 
z
" transform="scale(0.015625)"/>
       </defs>
       <use xlink:href="#ArialMT-2212"/>
       <use xlink:href="#ArialMT-34" x="58.398438"/>
       <use xlink:href="#ArialMT-30" x="114.013672"/>
       <use xlink:href="#ArialMT-30" x="169.628906"/>
      </g>
     </g>
    </g>
    <g id="xtick_2">
     <g id="line2d_2">
      <path d="M 189.506156 450.72 
L 189.506156 7.2 
" clip-path="url(#pbf27cb480f)" style="fill: none; stroke: #ffffff; stroke-linecap: round"/>
     </g>
     <g id="text_2">
      <!-- −200 -->
      <g style="fill: #262626" transform="translate(177.118266 468.093594) scale(0.11 -0.11)">
       <defs>
        <path id="ArialMT-32" d="M 3222 541 
L 3222 0 
L 194 0 
Q 188 203 259 391 
Q 375 700 629 1000 
Q 884 1300 1366 1694 
Q 2113 2306 2375 2664 
Q 2638 3022 2638 3341 
Q 2638 3675 2398 3904 
Q 2159 4134 1775 4134 
Q 1369 4134 1125 3890 
Q 881 3647 878 3216 
L 300 3275 
Q 359 3922 746 4261 
Q 1134 4600 1788 4600 
Q 2447 4600 2831 4234 
Q 3216 3869 3216 3328 
Q 3216 3053 3103 2787 
Q 2991 2522 2730 2228 
Q 2469 1934 1863 1422 
Q 1356 997 1212 845 
Q 1069 694 975 541 
L 3222 541 
z
" transform="scale(0.015625)"/>
       </defs>
       <use xlink:href="#ArialMT-2212"/>
       <use xlink:href="#ArialMT-32" x="58.398438"/>
       <use xlink:href="#ArialMT-30" x="114.013672"/>
       <use xlink:href="#ArialMT-30" x="169.628906"/>
      </g>
     </g>
    </g>
    <g id="xtick_3">
     <g id="line2d_3">
      <path d="M 278.210156 450.72 
L 278.210156 7.2 
" clip-path="url(#pbf27cb480f)" style="fill: none; stroke: #ffffff; stroke-linecap: round"/>
     </g>
     <g id="text_3">
      <!-- 0 -->
      <g style="fill: #262626" transform="translate(275.151641 468.093594) scale(0.11 -0.11)">
       <use xlink:href="#ArialMT-30"/>
      </g>
     </g>
    </g>
    <g id="xtick_4">
     <g id="line2d_4">
      <path d="M 366.914156 450.72 
L 366.914156 7.2 
" clip-path="url(#pbf27cb480f)" style="fill: none; stroke: #ffffff; stroke-linecap: round"/>
     </g>
     <g id="text_4">
      <!-- 200 -->
      <g style="fill: #262626" transform="translate(357.738609 468.093594) scale(0.11 -0.11)">
       <use xlink:href="#ArialMT-32"/>
       <use xlink:href="#ArialMT-30" x="55.615234"/>
       <use xlink:href="#ArialMT-30" x="111.230469"/>
      </g>
     </g>
    </g>
    <g id="xtick_5">
     <g id="line2d_5">
      <path d="M 455.618156 450.72 
L 455.618156 7.2 
" clip-path="url(#pbf27cb480f)" style="fill: none; stroke: #ffffff; stroke-linecap: round"/>
     </g>
     <g id="text_5">
      <!-- 400 -->
      <g style="fill: #262626" transform="translate(446.442609 468.093594) scale(0.11 -0.11)">
       <use xlink:href="#ArialMT-34"/>
       <use xlink:href="#ArialMT-30" x="55.615234"/>
       <use xlink:href="#ArialMT-30" x="111.230469"/>
      </g>
     </g>
    </g>
    <g id="text_6">
     <!-- x -->
     <g style="fill: #262626" transform="translate(275.210156 482.869219) scale(0.12 -0.12)">
      <defs>
       <path id="ArialMT-78" d="M 47 0 
L 1259 1725 
L 138 3319 
L 841 3319 
L 1350 2541 
Q 1494 2319 1581 2169 
Q 1719 2375 1834 2534 
L 2394 3319 
L 3066 3319 
L 1919 1756 
L 3153 0 
L 2463 0 
L 1781 1031 
L 1600 1309 
L 728 0 
L 47 0 
z
" transform="scale(0.015625)"/>
      </defs>
      <use xlink:href="#ArialMT-78"/>
     </g>
    </g>
   </g>
   <g id="matplotlib.axis_2">
    <g id="ytick_1">
     <g id="line2d_6">
      <path d="M 56.450156 406.368 
L 499.970156 406.368 
" clip-path="url(#pbf27cb480f)" style="fill: none; stroke: #ffffff; stroke-linecap: round"/>
     </g>
     <g id="text_7">
      <!-- −400 -->
      <g style="fill: #262626" transform="translate(22.174375 410.304797) scale(0.11 -0.11)">
       <use xlink:href="#ArialMT-2212"/>
       <use xlink:href="#ArialMT-34" x="58.398438"/>
       <use xlink:href="#ArialMT-30" x="114.013672"/>
       <use xlink:href="#ArialMT-30" x="169.628906"/>
      </g>
     </g>
    </g>
    <g id="ytick_2">
     <g id="line2d_7">
      <path d="M 56.450156 317.664 
L 499.970156 317.664 
" clip-path="url(#pbf27cb480f)" style="fill: none; stroke: #ffffff; stroke-linecap: round"/>
     </g>
     <g id="text_8">
      <!-- −200 -->
      <g style="fill: #262626" transform="translate(22.174375 321.600797) scale(0.11 -0.11)">
       <use xlink:href="#ArialMT-2212"/>
       <use xlink:href="#ArialMT-32" x="58.398438"/>
       <use xlink:href="#ArialMT-30" x="114.013672"/>
       <use xlink:href="#ArialMT-30" x="169.628906"/>
      </g>
     </g>
    </g>
    <g id="ytick_3">
     <g id="line2d_8">
      <path d="M 56.450156 228.96 
L 499.970156 228.96 
" clip-path="url(#pbf27cb480f)" style="fill: none; stroke: #ffffff; stroke-linecap: round"/>
     </g>
     <g id="text_9">
      <!-- 0 -->
      <g style="fill: #262626" transform="translate(40.833125 232.896797) scale(0.11 -0.11)">
       <use xlink:href="#ArialMT-30"/>
      </g>
     </g>
    </g>
    <g id="ytick_4">
     <g id="line2d_9">
      <path d="M 56.450156 140.256 
L 499.970156 140.256 
" clip-path="url(#pbf27cb480f)" style="fill: none; stroke: #ffffff; stroke-linecap: round"/>
     </g>
     <g id="text_10">
      <!-- 200 -->
      <g style="fill: #262626" transform="translate(28.599063 144.192797) scale(0.11 -0.11)">
       <use xlink:href="#ArialMT-32"/>
       <use xlink:href="#ArialMT-30" x="55.615234"/>
       <use xlink:href="#ArialMT-30" x="111.230469"/>
      </g>
     </g>
    </g>
    <g id="ytick_5">
     <g id="line2d_10">
      <path d="M 56.450156 51.552 
L 499.970156 51.552 
" clip-path="url(#pbf27cb480f)" style="fill: none; stroke: #ffffff; stroke-linecap: round"/>
     </g>
     <g id="text_11">
      <!-- 400 -->
      <g style="fill: #262626" transform="translate(28.599063 55.488797) scale(0.11 -0.11)">
       <use xlink:href="#ArialMT-34"/>
       <use xlink:href="#ArialMT-30" x="55.615234"/>
       <use xlink:href="#ArialMT-30" x="111.230469"/>
      </g>
     </g>
    </g>
    <g id="text_12">
     <!-- y -->
     <g style="fill: #262626" transform="translate(15.64875 231.96) rotate(-90) scale(0.12 -0.12)">
      <defs>
       <path id="ArialMT-79" d="M 397 -1278 
L 334 -750 
Q 519 -800 656 -800 
Q 844 -800 956 -737 
Q 1069 -675 1141 -563 
Q 1194 -478 1313 -144 
Q 1328 -97 1363 -6 
L 103 3319 
L 709 3319 
L 1400 1397 
Q 1534 1031 1641 628 
Q 1738 1016 1872 1384 
L 2581 3319 
L 3144 3319 
L 1881 -56 
Q 1678 -603 1566 -809 
Q 1416 -1088 1222 -1217 
Q 1028 -1347 759 -1347 
Q 597 -1347 397 -1278 
z
" transform="scale(0.015625)"/>
      </defs>
      <use xlink:href="#ArialMT-79"/>
     </g>
    </g>
   </g>
   <g id="patch_3">
    <path d="M 278.210156 317.664 
C 301.734732 317.664 324.298969 308.317587 340.933356 291.6832 
C 357.567743 275.048813 366.914156 252.484576 366.914156 228.96 
C 366.914156 205.435424 357.567743 182.871187 340.933356 166.2368 
C 324.298969 149.602413 301.734732 140.256 278.210156 140.256 
C 254.68558 140.256 232.121343 149.602413 215.486956 166.2368 
C 198.852569 182.871187 189.506156 205.435424 189.506156 228.96 
C 189.506156 252.484576 198.852569 275.048813 215.486956 291.6832 
C 232.121343 308.317587 254.68558 317.664 278.210156 317.664 
z
" clip-path="url(#pbf27cb480f)" style="fill: #228b22; opacity: 0.12; stroke: #228b22; stroke-width: 1.5; stroke-linejoin: miter"/>
   </g>
   <g id="PathCollection_1">
    <defs>
     <path id="macfa3a6c12" d="M 0 2.236068 
C 0.593012 2.236068 1.161816 2.000462 1.581139 1.581139 
C 2.000462 1.161816 2.236068 0.593012 2.236068 0 
C 2.236068 -0.593012 2.000462 -1.161816 1.581139 -1.581139 
C 1.161816 -2.000462 0.593012 -2.236068 0 -2.236068 
C -0.593012 -2.236068 -1.161816 -2.000462 -1.581139 -1.581139 
C -2.000462 -1.161816 -2.236068 -0.593012 -2.236068 0 
C -2.236068 0.593012 -2.000462 1.161816 -1.581139 1.581139 
C -1.161816 2.000462 -0.593012 2.236068 0 2.236068 
z
" style="stroke: #4169e1"/>
    </defs>
    <g clip-path="url(#pbf27cb480f)">
     <use xlink:href="#macfa3a6c12" x="310.75148" y="168.925342" style="fill: #4169e1; stroke: #4169e1"/>
     <use xlink:href="#macfa3a6c12" x="352.84114" y="180.828477" style="fill: #4169e1; stroke: #4169e1"/>
     <use xlink:href="#macfa3a6c12" x="345.741023" y="104.859523" style="fill: #4169e1; stroke: #4169e1"/>
     <use xlink:href="#macfa3a6c12" x="277.921955" y="169.14246" style="fill: #4169e1; stroke: #4169e1"/>
     <use xlink:href="#macfa3a6c12" x="243.289247" y="296.853826" style="fill: #4169e1; stroke: #4169e1"/>
     <use xlink:href="#macfa3a6c12" x="222.5576" y="260.558513" style="fill: #4169e1; stroke: #4169e1"/>
     <use xlink:href="#macfa3a6c12" x="372.401058" y="187.047008" style="fill: #4169e1; stroke: #4169e1"/>
     <use xlink:href="#macfa3a6c12" x="436.630728" y="266.319038" style="fill: #4169e1; stroke: #4169e1"/>
     <use xlink:href="#macfa3a6c12" x="411.292617" y="311.472214" style="fill: #4169e1; stroke: #4169e1"/>
     <use xlink:href="#macfa3a6c12" x="258.725649" y="139.13175" style="fill: #4169e1; stroke: #4169e1"/>
     <use xlink:href="#macfa3a6c12" x="312.321728" y="200.732383" style="fill: #4169e1; stroke: #4169e1"/>
     <use xlink:href="#macfa3a6c12" x="357.441936" y="213.367371" style="fill: #4169e1; stroke: #4169e1"/>
     <use xlink:href="#macfa3a6c12" x="350.228232" y="165.054653" style="fill: #4169e1; stroke: #4169e1"/>
     <use xlink:href="#macfa3a6c12" x="232.885192" y="253.750216" style="fill: #4169e1; stroke: #4169e1"/>
     <use xlink:href="#macfa3a6c12" x="295.386956" y="151.473701" style="fill: #4169e1; stroke: #4169e1"/>
     <use xlink:href="#macfa3a6c12" x="358.970603" y="240.898067" style="fill: #4169e1; stroke: #4169e1"/>
     <use xlink:href="#macfa3a6c12" x="364.685775" y="100.57976" style="fill: #4169e1; stroke: #4169e1"/>
     <use xlink:href="#macfa3a6c12" x="358.412853" y="213.920739" style="fill: #4169e1; stroke: #4169e1"/>
     <use xlink:href="#macfa3a6c12" x="194.243089" y="288.893198" style="fill: #4169e1; stroke: #4169e1"/>
     <use xlink:href="#macfa3a6c12" x="427.692584" y="196.171964" style="fill: #4169e1; stroke: #4169e1"/>
     <use xlink:href="#macfa3a6c12" x="263.203986" y="326.465026" style="fill: #4169e1; stroke: #4169e1"/>
     <use xlink:href="#macfa3a6c12" x="228.890155" y="128.675909" style="fill: #4169e1; stroke: #4169e1"/>
     <use xlink:href="#macfa3a6c12" x="333.155578" y="125.400455" style="fill: #4169e1; stroke: #4169e1"/>
     <use xlink:href="#macfa3a6c12" x="392.426681" y="177.27518" style="fill: #4169e1; stroke: #4169e1"/>
     <use xlink:href="#macfa3a6c12" x="297.541977" y="245.026119" style="fill: #4169e1; stroke: #4169e1"/>
     <use xlink:href="#macfa3a6c12" x="313.917702" y="172.136551" style="fill: #4169e1; stroke: #4169e1"/>
     <use xlink:href="#macfa3a6c12" x="351.268923" y="173.891655" style="fill: #4169e1; stroke: #4169e1"/>
     <use xlink:href="#macfa3a6c12" x="314.666352" y="116.8353" style="fill: #4169e1; stroke: #4169e1"/>
     <use xlink:href="#macfa3a6c12" x="336.498231" y="328.563029" style="fill: #4169e1; stroke: #4169e1"/>
     <use xlink:href="#macfa3a6c12" x="393.780751" y="242.21701" style="fill: #4169e1; stroke: #4169e1"/>
     <use xlink:href="#macfa3a6c12" x="354.464222" y="202.850497" style="fill: #4169e1; stroke: #4169e1"/>
     <use xlink:href="#macfa3a6c12" x="334.831701" y="330.364551" style="fill: #4169e1; stroke: #4169e1"/>
     <use xlink:href="#macfa3a6c12" x="299.82027" y="252.881418" style="fill: #4169e1; stroke: #4169e1"/>
     <use xlink:href="#macfa3a6c12" x="373.469084" y="296.430209" style="fill: #4169e1; stroke: #4169e1"/>
     <use xlink:href="#macfa3a6c12" x="396.265522" y="139.496001" style="fill: #4169e1; stroke: #4169e1"/>
     <use xlink:href="#macfa3a6c12" x="358.096198" y="119.530069" style="fill: #4169e1; stroke: #4169e1"/>
     <use xlink:href="#macfa3a6c12" x="227.0764" y="118.753557" style="fill: #4169e1; stroke: #4169e1"/>
     <use xlink:href="#macfa3a6c12" x="209.34523" y="282.910429" style="fill: #4169e1; stroke: #4169e1"/>
     <use xlink:href="#macfa3a6c12" x="296.261679" y="291.446578" style="fill: #4169e1; stroke: #4169e1"/>
     <use xlink:href="#macfa3a6c12" x="375.995041" y="256.563623" style="fill: #4169e1; stroke: #4169e1"/>
     <use xlink:href="#macfa3a6c12" x="394.336491" y="142.772544" style="fill: #4169e1; stroke: #4169e1"/>
     <use xlink:href="#macfa3a6c12" x="233.163376" y="150.661557" style="fill: #4169e1; stroke: #4169e1"/>
     <use xlink:href="#macfa3a6c12" x="279.126777" y="221.304428" style="fill: #4169e1; stroke: #4169e1"/>
     <use xlink:href="#macfa3a6c12" x="340.724813" y="220.564225" style="fill: #4169e1; stroke: #4169e1"/>
     <use xlink:href="#macfa3a6c12" x="314.844803" y="312.441392" style="fill: #4169e1; stroke: #4169e1"/>
     <use xlink:href="#macfa3a6c12" x="342.302816" y="330.730413" style="fill: #4169e1; stroke: #4169e1"/>
     <use xlink:href="#macfa3a6c12" x="218.891028" y="246.023024" style="fill: #4169e1; stroke: #4169e1"/>
     <use xlink:href="#macfa3a6c12" x="301.040963" y="171.749778" style="fill: #4169e1; stroke: #4169e1"/>
     <use xlink:href="#macfa3a6c12" x="261.592857" y="236.399731" style="fill: #4169e1; stroke: #4169e1"/>
     <use xlink:href="#macfa3a6c12" x="255.078043" y="268.888917" style="fill: #4169e1; stroke: #4169e1"/>
     <use xlink:href="#macfa3a6c12" x="228.99689" y="233.549991" style="fill: #4169e1; stroke: #4169e1"/>
     <use xlink:href="#macfa3a6c12" x="336.118556" y="319.131272" style="fill: #4169e1; stroke: #4169e1"/>
     <use xlink:href="#macfa3a6c12" x="283.676091" y="177.657982" style="fill: #4169e1; stroke: #4169e1"/>
     <use xlink:href="#macfa3a6c12" x="404.320063" y="202.814195" style="fill: #4169e1; stroke: #4169e1"/>
     <use xlink:href="#macfa3a6c12" x="358.732953" y="267.362859" style="fill: #4169e1; stroke: #4169e1"/>
     <use xlink:href="#macfa3a6c12" x="272.350233" y="139.91421" style="fill: #4169e1; stroke: #4169e1"/>
     <use xlink:href="#macfa3a6c12" x="379.991547" y="165.894334" style="fill: #4169e1; stroke: #4169e1"/>
     <use xlink:href="#macfa3a6c12" x="301.433941" y="148.639344" style="fill: #4169e1; stroke: #4169e1"/>
     <use xlink:href="#macfa3a6c12" x="311.725186" y="290.140517" style="fill: #4169e1; stroke: #4169e1"/>
     <use xlink:href="#macfa3a6c12" x="266.092065" y="193.096705" style="fill: #4169e1; stroke: #4169e1"/>
     <use xlink:href="#macfa3a6c12" x="214.717611" y="263.200998" style="fill: #4169e1; stroke: #4169e1"/>
     <use xlink:href="#macfa3a6c12" x="241.130227" y="194.075605" style="fill: #4169e1; stroke: #4169e1"/>
     <use xlink:href="#macfa3a6c12" x="322.665182" y="219.482458" style="fill: #4169e1; stroke: #4169e1"/>
     <use xlink:href="#macfa3a6c12" x="272.355831" y="219.309867" style="fill: #4169e1; stroke: #4169e1"/>
     <use xlink:href="#macfa3a6c12" x="426.742078" y="260.104307" style="fill: #4169e1; stroke: #4169e1"/>
     <use xlink:href="#macfa3a6c12" x="322.481734" y="142.472375" style="fill: #4169e1; stroke: #4169e1"/>
     <use xlink:href="#macfa3a6c12" x="241.155879" y="305.94271" style="fill: #4169e1; stroke: #4169e1"/>
     <use xlink:href="#macfa3a6c12" x="346.075003" y="142.553018" style="fill: #4169e1; stroke: #4169e1"/>
     <use xlink:href="#macfa3a6c12" x="386.718689" y="251.036654" style="fill: #4169e1; stroke: #4169e1"/>
     <use xlink:href="#macfa3a6c12" x="348.72493" y="156.439614" style="fill: #4169e1; stroke: #4169e1"/>
     <use xlink:href="#macfa3a6c12" x="440.118792" y="259.141598" style="fill: #4169e1; stroke: #4169e1"/>
     <use xlink:href="#macfa3a6c12" x="433.806848" y="281.838039" style="fill: #4169e1; stroke: #4169e1"/>
     <use xlink:href="#macfa3a6c12" x="304.879569" y="343.731885" style="fill: #4169e1; stroke: #4169e1"/>
     <use xlink:href="#macfa3a6c12" x="255.261921" y="216.695683" style="fill: #4169e1; stroke: #4169e1"/>
     <use xlink:href="#macfa3a6c12" x="396.87126" y="286.52127" style="fill: #4169e1; stroke: #4169e1"/>
     <use xlink:href="#macfa3a6c12" x="416.620244" y="200.613486" style="fill: #4169e1; stroke: #4169e1"/>
     <use xlink:href="#macfa3a6c12" x="371.746951" y="138.710116" style="fill: #4169e1; stroke: #4169e1"/>
     <use xlink:href="#macfa3a6c12" x="301.691504" y="161.370187" style="fill: #4169e1; stroke: #4169e1"/>
     <use xlink:href="#macfa3a6c12" x="348.275867" y="288.025926" style="fill: #4169e1; stroke: #4169e1"/>
     <use xlink:href="#macfa3a6c12" x="314.939224" y="277.35265" style="fill: #4169e1; stroke: #4169e1"/>
     <use xlink:href="#macfa3a6c12" x="409.124962" y="202.775311" style="fill: #4169e1; stroke: #4169e1"/>
     <use xlink:href="#macfa3a6c12" x="447.069758" y="173.953132" style="fill: #4169e1; stroke: #4169e1"/>
     <use xlink:href="#macfa3a6c12" x="204.542564" y="170.92301" style="fill: #4169e1; stroke: #4169e1"/>
     <use xlink:href="#macfa3a6c12" x="317.930321" y="296.100175" style="fill: #4169e1; stroke: #4169e1"/>
     <use xlink:href="#macfa3a6c12" x="309.066025" y="121.104871" style="fill: #4169e1; stroke: #4169e1"/>
     <use xlink:href="#macfa3a6c12" x="285.851896" y="257.437661" style="fill: #4169e1; stroke: #4169e1"/>
     <use xlink:href="#macfa3a6c12" x="253.373561" y="209.865539" style="fill: #4169e1; stroke: #4169e1"/>
     <use xlink:href="#macfa3a6c12" x="425.778605" y="225.167889" style="fill: #4169e1; stroke: #4169e1"/>
     <use xlink:href="#macfa3a6c12" x="221.190069" y="171.857612" style="fill: #4169e1; stroke: #4169e1"/>
     <use xlink:href="#macfa3a6c12" x="325.268643" y="189.482017" style="fill: #4169e1; stroke: #4169e1"/>
     <use xlink:href="#macfa3a6c12" x="261.109764" y="224.80546" style="fill: #4169e1; stroke: #4169e1"/>
     <use xlink:href="#macfa3a6c12" x="216.211195" y="246.494572" style="fill: #4169e1; stroke: #4169e1"/>
     <use xlink:href="#macfa3a6c12" x="381.405456" y="220.256929" style="fill: #4169e1; stroke: #4169e1"/>
     <use xlink:href="#macfa3a6c12" x="386.665644" y="156.351412" style="fill: #4169e1; stroke: #4169e1"/>
     <use xlink:href="#macfa3a6c12" x="303.049608" y="248.357979" style="fill: #4169e1; stroke: #4169e1"/>
     <use xlink:href="#macfa3a6c12" x="239.814397" y="253.510873" style="fill: #4169e1; stroke: #4169e1"/>
     <use xlink:href="#macfa3a6c12" x="340.968142" y="86.591812" style="fill: #4169e1; stroke: #4169e1"/>
     <use xlink:href="#macfa3a6c12" x="397.681854" y="229.876463" style="fill: #4169e1; stroke: #4169e1"/>
     <use xlink:href="#macfa3a6c12" x="317.131872" y="309.074752" style="fill: #4169e1; stroke: #4169e1"/>
     <use xlink:href="#macfa3a6c12" x="256.586729" y="159.560287" style="fill: #4169e1; stroke: #4169e1"/>
     <use xlink:href="#macfa3a6c12" x="338.664715" y="372.947669" style="fill: #4169e1; stroke: #4169e1"/>
     <use xlink:href="#macfa3a6c12" x="357.508346" y="301.160577" style="fill: #4169e1; stroke: #4169e1"/>
     <use xlink:href="#macfa3a6c12" x="297.645497" y="154.002731" style="fill: #4169e1; stroke: #4169e1"/>
     <use xlink:href="#macfa3a6c12" x="346.94059" y="196.277626" style="fill: #4169e1; stroke: #4169e1"/>
     <use xlink:href="#macfa3a6c12" x="378.006555" y="238.762319" style="fill: #4169e1; stroke: #4169e1"/>
     <use xlink:href="#macfa3a6c12" x="277.375753" y="254.694344" style="fill: #4169e1; stroke: #4169e1"/>
     <use xlink:href="#macfa3a6c12" x="244.735877" y="191.813999" style="fill: #4169e1; stroke: #4169e1"/>
     <use xlink:href="#macfa3a6c12" x="359.574725" y="283.603006" style="fill: #4169e1; stroke: #4169e1"/>
     <use xlink:href="#macfa3a6c12" x="319.308193" y="184.607205" style="fill: #4169e1; stroke: #4169e1"/>
     <use xlink:href="#macfa3a6c12" x="423.534178" y="210.742245" style="fill: #4169e1; stroke: #4169e1"/>
     <use xlink:href="#macfa3a6c12" x="262.783611" y="250.071115" style="fill: #4169e1; stroke: #4169e1"/>
     <use xlink:href="#macfa3a6c12" x="350.354109" y="252.747927" style="fill: #4169e1; stroke: #4169e1"/>
     <use xlink:href="#macfa3a6c12" x="334.297621" y="282.433041" style="fill: #4169e1; stroke: #4169e1"/>
     <use xlink:href="#macfa3a6c12" x="324.876008" y="124.632674" style="fill: #4169e1; stroke: #4169e1"/>
     <use xlink:href="#macfa3a6c12" x="332.132446" y="208.246562" style="fill: #4169e1; stroke: #4169e1"/>
     <use xlink:href="#macfa3a6c12" x="320.039755" y="239.822843" style="fill: #4169e1; stroke: #4169e1"/>
     <use xlink:href="#macfa3a6c12" x="285.25" y="166.047721" style="fill: #4169e1; stroke: #4169e1"/>
     <use xlink:href="#macfa3a6c12" x="456.472983" y="150.141882" style="fill: #4169e1; stroke: #4169e1"/>
     <use xlink:href="#macfa3a6c12" x="344.517215" y="343.629776" style="fill: #4169e1; stroke: #4169e1"/>
     <use xlink:href="#macfa3a6c12" x="302.292065" y="297.757237" style="fill: #4169e1; stroke: #4169e1"/>
     <use xlink:href="#macfa3a6c12" x="246.097392" y="160.075218" style="fill: #4169e1; stroke: #4169e1"/>
     <use xlink:href="#macfa3a6c12" x="333.078289" y="117.553455" style="fill: #4169e1; stroke: #4169e1"/>
     <use xlink:href="#macfa3a6c12" x="242.725612" y="274.096829" style="fill: #4169e1; stroke: #4169e1"/>
     <use xlink:href="#macfa3a6c12" x="275.109663" y="164.054276" style="fill: #4169e1; stroke: #4169e1"/>
     <use xlink:href="#macfa3a6c12" x="253.469215" y="269.073716" style="fill: #4169e1; stroke: #4169e1"/>
     <use xlink:href="#macfa3a6c12" x="189.249381" y="215.838696" style="fill: #4169e1; stroke: #4169e1"/>
     <use xlink:href="#macfa3a6c12" x="211.269605" y="250.031276" style="fill: #4169e1; stroke: #4169e1"/>
     <use xlink:href="#macfa3a6c12" x="209.490652" y="178.886869" style="fill: #4169e1; stroke: #4169e1"/>
     <use xlink:href="#macfa3a6c12" x="423.427237" y="235.157242" style="fill: #4169e1; stroke: #4169e1"/>
     <use xlink:href="#macfa3a6c12" x="376.38526" y="325.340599" style="fill: #4169e1; stroke: #4169e1"/>
     <use xlink:href="#macfa3a6c12" x="265.908875" y="92.205857" style="fill: #4169e1; stroke: #4169e1"/>
     <use xlink:href="#macfa3a6c12" x="404.14684" y="280.366182" style="fill: #4169e1; stroke: #4169e1"/>
     <use xlink:href="#macfa3a6c12" x="349.98374" y="207.859622" style="fill: #4169e1; stroke: #4169e1"/>
     <use xlink:href="#macfa3a6c12" x="346.933741" y="131.023068" style="fill: #4169e1; stroke: #4169e1"/>
     <use xlink:href="#macfa3a6c12" x="242.013294" y="163.253212" style="fill: #4169e1; stroke: #4169e1"/>
     <use xlink:href="#macfa3a6c12" x="399.278028" y="171.431248" style="fill: #4169e1; stroke: #4169e1"/>
     <use xlink:href="#macfa3a6c12" x="214.714126" y="115.918111" style="fill: #4169e1; stroke: #4169e1"/>
     <use xlink:href="#macfa3a6c12" x="347.089247" y="319.051807" style="fill: #4169e1; stroke: #4169e1"/>
     <use xlink:href="#macfa3a6c12" x="260.466248" y="187.129945" style="fill: #4169e1; stroke: #4169e1"/>
     <use xlink:href="#macfa3a6c12" x="274.992247" y="215.050477" style="fill: #4169e1; stroke: #4169e1"/>
     <use xlink:href="#macfa3a6c12" x="265.355572" y="258.547253" style="fill: #4169e1; stroke: #4169e1"/>
     <use xlink:href="#macfa3a6c12" x="328.692807" y="328.357335" style="fill: #4169e1; stroke: #4169e1"/>
     <use xlink:href="#macfa3a6c12" x="230.727041" y="184.354172" style="fill: #4169e1; stroke: #4169e1"/>
     <use xlink:href="#macfa3a6c12" x="361.337421" y="232.79031" style="fill: #4169e1; stroke: #4169e1"/>
     <use xlink:href="#macfa3a6c12" x="307.518994" y="131.781957" style="fill: #4169e1; stroke: #4169e1"/>
     <use xlink:href="#macfa3a6c12" x="280.576919" y="211.448401" style="fill: #4169e1; stroke: #4169e1"/>
     <use xlink:href="#macfa3a6c12" x="239.584634" y="245.978275" style="fill: #4169e1; stroke: #4169e1"/>
     <use xlink:href="#macfa3a6c12" x="235.534668" y="93.690041" style="fill: #4169e1; stroke: #4169e1"/>
     <use xlink:href="#macfa3a6c12" x="319.192806" y="278.333201" style="fill: #4169e1; stroke: #4169e1"/>
     <use xlink:href="#macfa3a6c12" x="184.72608" y="301.684882" style="fill: #4169e1; stroke: #4169e1"/>
     <use xlink:href="#macfa3a6c12" x="307.305453" y="296.955576" style="fill: #4169e1; stroke: #4169e1"/>
     <use xlink:href="#macfa3a6c12" x="270.940757" y="286.467265" style="fill: #4169e1; stroke: #4169e1"/>
     <use xlink:href="#macfa3a6c12" x="284.97402" y="335.244314" style="fill: #4169e1; stroke: #4169e1"/>
     <use xlink:href="#macfa3a6c12" x="379.293586" y="255.306644" style="fill: #4169e1; stroke: #4169e1"/>
     <use xlink:href="#macfa3a6c12" x="242.224202" y="189.287763" style="fill: #4169e1; stroke: #4169e1"/>
     <use xlink:href="#macfa3a6c12" x="251.192161" y="193.489898" style="fill: #4169e1; stroke: #4169e1"/>
     <use xlink:href="#macfa3a6c12" x="430.500737" y="164.464527" style="fill: #4169e1; stroke: #4169e1"/>
     <use xlink:href="#macfa3a6c12" x="309.313316" y="254.016704" style="fill: #4169e1; stroke: #4169e1"/>
     <use xlink:href="#macfa3a6c12" x="406.520216" y="207.919676" style="fill: #4169e1; stroke: #4169e1"/>
     <use xlink:href="#macfa3a6c12" x="350.668307" y="161.301347" style="fill: #4169e1; stroke: #4169e1"/>
     <use xlink:href="#macfa3a6c12" x="278.296247" y="223.334316" style="fill: #4169e1; stroke: #4169e1"/>
     <use xlink:href="#macfa3a6c12" x="261.627516" y="305.949431" style="fill: #4169e1; stroke: #4169e1"/>
     <use xlink:href="#macfa3a6c12" x="255.269794" y="222.629148" style="fill: #4169e1; stroke: #4169e1"/>
    </g>
   </g>
   <g id="PathCollection_2">
    <defs>
     <path id="m3632e4b05c" d="M 0 2.5 
C 0.663008 2.5 1.29895 2.236584 1.767767 1.767767 
C 2.236584 1.29895 2.5 0.663008 2.5 0 
C 2.5 -0.663008 2.236584 -1.29895 1.767767 -1.767767 
C 1.29895 -2.236584 0.663008 -2.5 0 -2.5 
C -0.663008 -2.5 -1.29895 -2.236584 -1.767767 -1.767767 
C -2.236584 -1.29895 -2.5 -0.663008 -2.5 0 
C -2.5 0.663008 -2.236584 1.29895 -1.767767 1.767767 
C -1.29895 2.236584 -0.663008 2.5 0 2.5 
z
" style="stroke: #b22222"/>
    </defs>
    <g clip-path="url(#pbf27cb480f)">
     <use xlink:href="#m3632e4b05c" x="192.783133" y="214.662124" style="fill: #b22222; stroke: #b22222"/>
     <use xlink:href="#m3632e4b05c" x="334.270994" y="211.607635" style="fill: #b22222; stroke: #b22222"/>
     <use xlink:href="#m3632e4b05c" x="168.123127" y="214.472348" style="fill: #b22222; stroke: #b22222"/>
     <use xlink:href="#m3632e4b05c" x="321.092624" y="249.84221" style="fill: #b22222; stroke: #b22222"/>
     <use xlink:href="#m3632e4b05c" x="206.517594" y="239.010464" style="fill: #b22222; stroke: #b22222"/>
     <use xlink:href="#m3632e4b05c" x="202.051013" y="222.190325" style="fill: #b22222; stroke: #b22222"/>
     <use xlink:href="#m3632e4b05c" x="306.872014" y="238.22589" style="fill: #b22222; stroke: #b22222"/>
     <use xlink:href="#m3632e4b05c" x="317.769547" y="261.827826" style="fill: #b22222; stroke: #b22222"/>
     <use xlink:href="#m3632e4b05c" x="289.98502" y="244.004612" style="fill: #b22222; stroke: #b22222"/>
     <use xlink:href="#m3632e4b05c" x="180.813283" y="224.107957" style="fill: #b22222; stroke: #b22222"/>
     <use xlink:href="#m3632e4b05c" x="176.132583" y="197.594238" style="fill: #b22222; stroke: #b22222"/>
     <use xlink:href="#m3632e4b05c" x="312.98603" y="237.050477" style="fill: #b22222; stroke: #b22222"/>
     <use xlink:href="#m3632e4b05c" x="285.772119" y="244.558633" style="fill: #b22222; stroke: #b22222"/>
     <use xlink:href="#m3632e4b05c" x="290.869504" y="231.087036" style="fill: #b22222; stroke: #b22222"/>
     <use xlink:href="#m3632e4b05c" x="313.06407" y="245.5054" style="fill: #b22222; stroke: #b22222"/>
     <use xlink:href="#m3632e4b05c" x="320.84912" y="261.754239" style="fill: #b22222; stroke: #b22222"/>
     <use xlink:href="#m3632e4b05c" x="322.923349" y="259.890732" style="fill: #b22222; stroke: #b22222"/>
     <use xlink:href="#m3632e4b05c" x="182.465412" y="209.458466" style="fill: #b22222; stroke: #b22222"/>
     <use xlink:href="#m3632e4b05c" x="193.675607" y="220.356878" style="fill: #b22222; stroke: #b22222"/>
     <use xlink:href="#m3632e4b05c" x="150.221096" y="208.404175" style="fill: #b22222; stroke: #b22222"/>
     <use xlink:href="#m3632e4b05c" x="187.256255" y="205.257608" style="fill: #b22222; stroke: #b22222"/>
     <use xlink:href="#m3632e4b05c" x="178.61579" y="216.291555" style="fill: #b22222; stroke: #b22222"/>
     <use xlink:href="#m3632e4b05c" x="167.875664" y="212.778902" style="fill: #b22222; stroke: #b22222"/>
     <use xlink:href="#m3632e4b05c" x="196.732136" y="212.846574" style="fill: #b22222; stroke: #b22222"/>
     <use xlink:href="#m3632e4b05c" x="162.787893" y="204.721097" style="fill: #b22222; stroke: #b22222"/>
     <use xlink:href="#m3632e4b05c" x="318.87341" y="250.426692" style="fill: #b22222; stroke: #b22222"/>
     <use xlink:href="#m3632e4b05c" x="177.481605" y="217.632952" style="fill: #b22222; stroke: #b22222"/>
     <use xlink:href="#m3632e4b05c" x="312.841031" y="242.677196" style="fill: #b22222; stroke: #b22222"/>
     <use xlink:href="#m3632e4b05c" x="177.881264" y="196.701067" style="fill: #b22222; stroke: #b22222"/>
     <use xlink:href="#m3632e4b05c" x="163.630781" y="220.882354" style="fill: #b22222; stroke: #b22222"/>
     <use xlink:href="#m3632e4b05c" x="361.623345" y="176.298964" style="fill: #b22222; stroke: #b22222"/>
     <use xlink:href="#m3632e4b05c" x="157.13863" y="210.363369" style="fill: #b22222; stroke: #b22222"/>
     <use xlink:href="#m3632e4b05c" x="173.088188" y="214.098649" style="fill: #b22222; stroke: #b22222"/>
     <use xlink:href="#m3632e4b05c" x="178.094652" y="196.601901" style="fill: #b22222; stroke: #b22222"/>
     <use xlink:href="#m3632e4b05c" x="161.29816" y="217.540521" style="fill: #b22222; stroke: #b22222"/>
     <use xlink:href="#m3632e4b05c" x="199.550562" y="229.726228" style="fill: #b22222; stroke: #b22222"/>
     <use xlink:href="#m3632e4b05c" x="197.168239" y="227.163136" style="fill: #b22222; stroke: #b22222"/>
     <use xlink:href="#m3632e4b05c" x="182.535937" y="203.553187" style="fill: #b22222; stroke: #b22222"/>
     <use xlink:href="#m3632e4b05c" x="154.580107" y="205.319371" style="fill: #b22222; stroke: #b22222"/>
     <use xlink:href="#m3632e4b05c" x="185.722647" y="223.636792" style="fill: #b22222; stroke: #b22222"/>
     <use xlink:href="#m3632e4b05c" x="325.72581" y="246.228758" style="fill: #b22222; stroke: #b22222"/>
     <use xlink:href="#m3632e4b05c" x="165.905791" y="200.437108" style="fill: #b22222; stroke: #b22222"/>
     <use xlink:href="#m3632e4b05c" x="188.712712" y="214.869395" style="fill: #b22222; stroke: #b22222"/>
     <use xlink:href="#m3632e4b05c" x="299.531744" y="239.399881" style="fill: #b22222; stroke: #b22222"/>
     <use xlink:href="#m3632e4b05c" x="159.95822" y="226.171154" style="fill: #b22222; stroke: #b22222"/>
     <use xlink:href="#m3632e4b05c" x="163.859133" y="199.050194" style="fill: #b22222; stroke: #b22222"/>
     <use xlink:href="#m3632e4b05c" x="176.122425" y="212.209945" style="fill: #b22222; stroke: #b22222"/>
     <use xlink:href="#m3632e4b05c" x="162.581996" y="208.537334" style="fill: #b22222; stroke: #b22222"/>
     <use xlink:href="#m3632e4b05c" x="174.994574" y="208.364228" style="fill: #b22222; stroke: #b22222"/>
     <use xlink:href="#m3632e4b05c" x="194.790308" y="221.431155" style="fill: #b22222; stroke: #b22222"/>
     <use xlink:href="#m3632e4b05c" x="161.326286" y="194.149707" style="fill: #b22222; stroke: #b22222"/>
     <use xlink:href="#m3632e4b05c" x="156.198641" y="209.772515" style="fill: #b22222; stroke: #b22222"/>
     <use xlink:href="#m3632e4b05c" x="188.701552" y="217.37825" style="fill: #b22222; stroke: #b22222"/>
     <use xlink:href="#m3632e4b05c" x="165.171901" y="221.940077" style="fill: #b22222; stroke: #b22222"/>
     <use xlink:href="#m3632e4b05c" x="152.621922" y="209.611359" style="fill: #b22222; stroke: #b22222"/>
     <use xlink:href="#m3632e4b05c" x="165.505577" y="205.643052" style="fill: #b22222; stroke: #b22222"/>
     <use xlink:href="#m3632e4b05c" x="185.322961" y="219.683088" style="fill: #b22222; stroke: #b22222"/>
     <use xlink:href="#m3632e4b05c" x="160.58548" y="205.860457" style="fill: #b22222; stroke: #b22222"/>
     <use xlink:href="#m3632e4b05c" x="187.260471" y="218.59049" style="fill: #b22222; stroke: #b22222"/>
     <use xlink:href="#m3632e4b05c" x="182.088234" y="205.339186" style="fill: #b22222; stroke: #b22222"/>
     <use xlink:href="#m3632e4b05c" x="179.760905" y="197.567814" style="fill: #b22222; stroke: #b22222"/>
     <use xlink:href="#m3632e4b05c" x="158.230214" y="202.448546" style="fill: #b22222; stroke: #b22222"/>
     <use xlink:href="#m3632e4b05c" x="162.633931" y="211.324309" style="fill: #b22222; stroke: #b22222"/>
     <use xlink:href="#m3632e4b05c" x="162.599538" y="196.450321" style="fill: #b22222; stroke: #b22222"/>
     <use xlink:href="#m3632e4b05c" x="175.73848" y="201.246548" style="fill: #b22222; stroke: #b22222"/>
     <use xlink:href="#m3632e4b05c" x="168.762264" y="200.147774" style="fill: #b22222; stroke: #b22222"/>
     <use xlink:href="#m3632e4b05c" x="177.447807" y="206.079894" style="fill: #b22222; stroke: #b22222"/>
     <use xlink:href="#m3632e4b05c" x="198.107186" y="217.753759" style="fill: #b22222; stroke: #b22222"/>
     <use xlink:href="#m3632e4b05c" x="174.360641" y="199.537287" style="fill: #b22222; stroke: #b22222"/>
     <use xlink:href="#m3632e4b05c" x="153.558974" y="208.061468" style="fill: #b22222; stroke: #b22222"/>
     <use xlink:href="#m3632e4b05c" x="212.768109" y="228.824546" style="fill: #b22222; stroke: #b22222"/>
     <use xlink:href="#m3632e4b05c" x="168.163875" y="196.555902" style="fill: #b22222; stroke: #b22222"/>
     <use xlink:href="#m3632e4b05c" x="190.614124" y="217.192407" style="fill: #b22222; stroke: #b22222"/>
     <use xlink:href="#m3632e4b05c" x="199.915375" y="226.442767" style="fill: #b22222; stroke: #b22222"/>
     <use xlink:href="#m3632e4b05c" x="185.936753" y="209.463851" style="fill: #b22222; stroke: #b22222"/>
     <use xlink:href="#m3632e4b05c" x="169.457754" y="201.587397" style="fill: #b22222; stroke: #b22222"/>
     <use xlink:href="#m3632e4b05c" x="203.300023" y="215.674085" style="fill: #b22222; stroke: #b22222"/>
     <use xlink:href="#m3632e4b05c" x="164.705263" y="199.647775" style="fill: #b22222; stroke: #b22222"/>
     <use xlink:href="#m3632e4b05c" x="331.050581" y="255.199503" style="fill: #b22222; stroke: #b22222"/>
     <use xlink:href="#m3632e4b05c" x="161.12851" y="203.439289" style="fill: #b22222; stroke: #b22222"/>
     <use xlink:href="#m3632e4b05c" x="159.479996" y="212.586963" style="fill: #b22222; stroke: #b22222"/>
     <use xlink:href="#m3632e4b05c" x="311.969164" y="249.812974" style="fill: #b22222; stroke: #b22222"/>
     <use xlink:href="#m3632e4b05c" x="168.756132" y="205.477526" style="fill: #b22222; stroke: #b22222"/>
     <use xlink:href="#m3632e4b05c" x="199.832039" y="218.931791" style="fill: #b22222; stroke: #b22222"/>
     <use xlink:href="#m3632e4b05c" x="195.334706" y="217.088292" style="fill: #b22222; stroke: #b22222"/>
     <use xlink:href="#m3632e4b05c" x="195.926754" y="193.443764" style="fill: #b22222; stroke: #b22222"/>
     <use xlink:href="#m3632e4b05c" x="160.518061" y="204.991003" style="fill: #b22222; stroke: #b22222"/>
     <use xlink:href="#m3632e4b05c" x="164.508347" y="211.629574" style="fill: #b22222; stroke: #b22222"/>
     <use xlink:href="#m3632e4b05c" x="158.375202" y="207.228605" style="fill: #b22222; stroke: #b22222"/>
     <use xlink:href="#m3632e4b05c" x="171.000207" y="194.812662" style="fill: #b22222; stroke: #b22222"/>
     <use xlink:href="#m3632e4b05c" x="196.46548" y="220.771163" style="fill: #b22222; stroke: #b22222"/>
     <use xlink:href="#m3632e4b05c" x="188.484658" y="209.604141" style="fill: #b22222; stroke: #b22222"/>
     <use xlink:href="#m3632e4b05c" x="199.802553" y="226.693391" style="fill: #b22222; stroke: #b22222"/>
     <use xlink:href="#m3632e4b05c" x="179.586849" y="204.655928" style="fill: #b22222; stroke: #b22222"/>
     <use xlink:href="#m3632e4b05c" x="176.494844" y="205.121193" style="fill: #b22222; stroke: #b22222"/>
    </g>
   </g>
   <g id="patch_4">
    <path d="M 56.450156 450.72 
L 56.450156 7.2 
" style="fill: none; stroke: #ffffff; stroke-width: 1.25; stroke-linejoin: miter; stroke-linecap: square"/>
   </g>
   <g id="patch_5">
    <path d="M 499.970156 450.72 
L 499.970156 7.2 
" style="fill: none; stroke: #ffffff; stroke-width: 1.25; stroke-linejoin: miter; stroke-linecap: square"/>
   </g>
   <g id="patch_6">
    <path d="M 56.450156 450.72 
L 499.970156 450.72 
" style="fill: none; stroke: #ffffff; stroke-width: 1.25; stroke-linejoin: miter; stroke-linecap: square"/>
   </g>
   <g id="patch_7">
    <path d="M 56.450156 7.2 
L 499.970156 7.2 
" style="fill: none; stroke: #ffffff; stroke-width: 1.25; stroke-linejoin: miter; stroke-linecap: square"/>
   </g>
   <g id="text_13">
    <!-- t = 4600 -->
    <g style="fill: #262626" transform="translate(65.320556 24.659775) scale(0.12 -0.12)">
     <defs>
      <path id="ArialMT-74" d="M 1650 503 
L 1731 6 
Q 1494 -44 1306 -44 
Q 1000 -44 831 53 
Q 663 150 594 308 
Q 525 466 525 972 
L 525 2881 
L 113 2881 
L 113 3319 
L 525 3319 
L 525 4141 
L 1084 4478 
L 1084 3319 
L 1650 3319 
L 1650 2881 
L 1084 2881 
L 1084 941 
Q 1084 700 1114 631 
Q 1144 563 1211 522 
Q 1278 481 1403 481 
Q 1497 481 1650 503 
z
" transform="scale(0.015625)"/>
      <path id="ArialMT-20" transform="scale(0.015625)"/>
      <path id="ArialMT-3d" d="M 3381 2694 
L 356 2694 
L 356 3219 
L 3381 3219 
L 3381 2694 
z
M 3381 1303 
L 356 1303 
L 356 1828 
L 3381 1828 
L 3381 1303 
z
" transform="scale(0.015625)"/>
      <path id="ArialMT-36" d="M 3184 3459 
L 2625 3416 
Q 2550 3747 2413 3897 
Q 2184 4138 1850 4138 
Q 1581 4138 1378 3988 
Q 1113 3794 959 3422 
Q 806 3050 800 2363 
Q 1003 2672 1297 2822 
Q 1591 2972 1913 2972 
Q 2475 2972 2870 2558 
Q 3266 2144 3266 1488 
Q 3266 1056 3080 686 
Q 2894 316 2569 119 
Q 2244 -78 1831 -78 
Q 1128 -78 684 439 
Q 241 956 241 2144 
Q 241 3472 731 4075 
Q 1159 4600 1884 4600 
Q 2425 4600 2770 4297 
Q 3116 3994 3184 3459 
z
M 888 1484 
Q 888 1194 1011 928 
Q 1134 663 1356 523 
Q 1578 384 1822 384 
Q 2178 384 2434 671 
Q 2691 959 2691 1453 
Q 2691 1928 2437 2201 
Q 2184 2475 1800 2475 
Q 1419 2475 1153 2201 
Q 888 1928 888 1484 
z
" transform="scale(0.015625)"/>
     </defs>
     <use xlink:href="#ArialMT-74"/>
     <use xlink:href="#ArialMT-20" x="27.783203"/>
     <use xlink:href="#ArialMT-3d" x="55.566406"/>
     <use xlink:href="#ArialMT-20" x="113.964844"/>
     <use xlink:href="#ArialMT-34" x="141.748047"/>
     <use xlink:href="#ArialMT-36" x="197.363281"/>
     <use xlink:href="#ArialMT-30" x="252.978516"/>
     <use xlink:href="#ArialMT-30" x="308.59375"/>
    </g>
   </g>
   <g id="legend_1">
    <g id="patch_8">
     <path d="M 328.111406 94.59 
L 483.170156 94.59 
Q 487.970156 94.59 487.970156 89.79 
L 487.970156 24 
Q 487.970156 19.2 483.170156 19.2 
L 328.111406 19.2 
Q 323.311406 19.2 323.311406 24 
L 323.311406 89.79 
Q 323.311406 94.59 328.111406 94.59 
z
" style="fill: #eaeaf2; opacity: 0.8; stroke: #cccccc; stroke-linejoin: miter"/>
    </g>
    <g id="PathCollection_3">
     <g>
      <use xlink:href="#macfa3a6c12" x="356.911406" y="39.97125" style="fill: #4169e1; stroke: #4169e1"/>
     </g>
    </g>
    <g id="text_14">
     <!-- Sheep -->
     <g style="fill: #262626" transform="translate(400.111406 46.27125) scale(0.24 -0.24)">
      <defs>
       <path id="ArialMT-53" d="M 288 1472 
L 859 1522 
Q 900 1178 1048 958 
Q 1197 738 1509 602 
Q 1822 466 2213 466 
Q 2559 466 2825 569 
Q 3091 672 3220 851 
Q 3350 1031 3350 1244 
Q 3350 1459 3225 1620 
Q 3100 1781 2813 1891 
Q 2628 1963 1997 2114 
Q 1366 2266 1113 2400 
Q 784 2572 623 2826 
Q 463 3081 463 3397 
Q 463 3744 659 4045 
Q 856 4347 1234 4503 
Q 1613 4659 2075 4659 
Q 2584 4659 2973 4495 
Q 3363 4331 3572 4012 
Q 3781 3694 3797 3291 
L 3216 3247 
Q 3169 3681 2898 3903 
Q 2628 4125 2100 4125 
Q 1550 4125 1298 3923 
Q 1047 3722 1047 3438 
Q 1047 3191 1225 3031 
Q 1400 2872 2139 2705 
Q 2878 2538 3153 2413 
Q 3553 2228 3743 1945 
Q 3934 1663 3934 1294 
Q 3934 928 3725 604 
Q 3516 281 3123 101 
Q 2731 -78 2241 -78 
Q 1619 -78 1198 103 
Q 778 284 539 648 
Q 300 1013 288 1472 
z
" transform="scale(0.015625)"/>
       <path id="ArialMT-68" d="M 422 0 
L 422 4581 
L 984 4581 
L 984 2938 
Q 1378 3394 1978 3394 
Q 2347 3394 2619 3248 
Q 2891 3103 3008 2847 
Q 3125 2591 3125 2103 
L 3125 0 
L 2563 0 
L 2563 2103 
Q 2563 2525 2380 2717 
Q 2197 2909 1863 2909 
Q 1613 2909 1392 2779 
Q 1172 2650 1078 2428 
Q 984 2206 984 1816 
L 984 0 
L 422 0 
z
" transform="scale(0.015625)"/>
       <path id="ArialMT-65" d="M 2694 1069 
L 3275 997 
Q 3138 488 2766 206 
Q 2394 -75 1816 -75 
Q 1088 -75 661 373 
Q 234 822 234 1631 
Q 234 2469 665 2931 
Q 1097 3394 1784 3394 
Q 2450 3394 2872 2941 
Q 3294 2488 3294 1666 
Q 3294 1616 3291 1516 
L 816 1516 
Q 847 969 1125 678 
Q 1403 388 1819 388 
Q 2128 388 2347 550 
Q 2566 713 2694 1069 
z
M 847 1978 
L 2700 1978 
Q 2663 2397 2488 2606 
Q 2219 2931 1791 2931 
Q 1403 2931 1139 2672 
Q 875 2413 847 1978 
z
" transform="scale(0.015625)"/>
       <path id="ArialMT-70" d="M 422 -1272 
L 422 3319 
L 934 3319 
L 934 2888 
Q 1116 3141 1344 3267 
Q 1572 3394 1897 3394 
Q 2322 3394 2647 3175 
Q 2972 2956 3137 2557 
Q 3303 2159 3303 1684 
Q 3303 1175 3120 767 
Q 2938 359 2589 142 
Q 2241 -75 1856 -75 
Q 1575 -75 1351 44 
Q 1128 163 984 344 
L 984 -1272 
L 422 -1272 
z
M 931 1641 
Q 931 1000 1190 694 
Q 1450 388 1819 388 
Q 2194 388 2461 705 
Q 2728 1022 2728 1688 
Q 2728 2322 2467 2637 
Q 2206 2953 1844 2953 
Q 1484 2953 1207 2617 
Q 931 2281 931 1641 
z
" transform="scale(0.015625)"/>
      </defs>
      <use xlink:href="#ArialMT-53"/>
      <use xlink:href="#ArialMT-68" x="66.699219"/>
      <use xlink:href="#ArialMT-65" x="122.314453"/>
      <use xlink:href="#ArialMT-65" x="177.929688"/>
      <use xlink:href="#ArialMT-70" x="233.544922"/>
     </g>
    </g>
    <g id="PathCollection_4">
     <g>
      <use xlink:href="#m3632e4b05c" x="356.911406" y="73.92" style="fill: #b22222; stroke: #b22222"/>
     </g>
    </g>
    <g id="text_15">
     <!-- Wolves -->
     <g style="fill: #262626" transform="translate(400.111406 80.22) scale(0.24 -0.24)">
      <defs>
       <path id="ArialMT-57" d="M 1294 0 
L 78 4581 
L 700 4581 
L 1397 1578 
Q 1509 1106 1591 641 
Q 1766 1375 1797 1488 
L 2669 4581 
L 3400 4581 
L 4056 2263 
Q 4303 1400 4413 641 
Q 4500 1075 4641 1638 
L 5359 4581 
L 5969 4581 
L 4713 0 
L 4128 0 
L 3163 3491 
Q 3041 3928 3019 4028 
Q 2947 3713 2884 3491 
L 1913 0 
L 1294 0 
z
" transform="scale(0.015625)"/>
       <path id="ArialMT-6f" d="M 213 1659 
Q 213 2581 725 3025 
Q 1153 3394 1769 3394 
Q 2453 3394 2887 2945 
Q 3322 2497 3322 1706 
Q 3322 1066 3130 698 
Q 2938 331 2570 128 
Q 2203 -75 1769 -75 
Q 1072 -75 642 372 
Q 213 819 213 1659 
z
M 791 1659 
Q 791 1022 1069 705 
Q 1347 388 1769 388 
Q 2188 388 2466 706 
Q 2744 1025 2744 1678 
Q 2744 2294 2464 2611 
Q 2184 2928 1769 2928 
Q 1347 2928 1069 2612 
Q 791 2297 791 1659 
z
" transform="scale(0.015625)"/>
       <path id="ArialMT-6c" d="M 409 0 
L 409 4581 
L 972 4581 
L 972 0 
L 409 0 
z
" transform="scale(0.015625)"/>
       <path id="ArialMT-76" d="M 1344 0 
L 81 3319 
L 675 3319 
L 1388 1331 
Q 1503 1009 1600 663 
Q 1675 925 1809 1294 
L 2547 3319 
L 3125 3319 
L 1869 0 
L 1344 0 
z
" transform="scale(0.015625)"/>
       <path id="ArialMT-73" d="M 197 991 
L 753 1078 
Q 800 744 1014 566 
Q 1228 388 1613 388 
Q 2000 388 2187 545 
Q 2375 703 2375 916 
Q 2375 1106 2209 1216 
Q 2094 1291 1634 1406 
Q 1016 1563 777 1677 
Q 538 1791 414 1992 
Q 291 2194 291 2438 
Q 291 2659 392 2848 
Q 494 3038 669 3163 
Q 800 3259 1026 3326 
Q 1253 3394 1513 3394 
Q 1903 3394 2198 3281 
Q 2494 3169 2634 2976 
Q 2775 2784 2828 2463 
L 2278 2388 
Q 2241 2644 2061 2787 
Q 1881 2931 1553 2931 
Q 1166 2931 1000 2803 
Q 834 2675 834 2503 
Q 834 2394 903 2306 
Q 972 2216 1119 2156 
Q 1203 2125 1616 2013 
Q 2213 1853 2448 1751 
Q 2684 1650 2818 1456 
Q 2953 1263 2953 975 
Q 2953 694 2789 445 
Q 2625 197 2315 61 
Q 2006 -75 1616 -75 
Q 969 -75 630 194 
Q 291 463 197 991 
z
" transform="scale(0.015625)"/>
      </defs>
      <use xlink:href="#ArialMT-57"/>
      <use xlink:href="#ArialMT-6f" x="92.634766"/>
      <use xlink:href="#ArialMT-6c" x="148.25"/>
      <use xlink:href="#ArialMT-76" x="170.466797"/>
      <use xlink:href="#ArialMT-65" x="220.466797"/>
      <use xlink:href="#ArialMT-73" x="276.082031"/>
     </g>
    </g>
   </g>
  </g>
 </g>
 <defs>
  <clipPath id="pbf27cb480f">
   <rect x="56.450156" y="7.2" width="443.52" height="443.52"/>
  </clipPath>
 </defs>
</svg>
