<?xml version="1.0" encoding="utf-8" standalone="no"?>
<!DOCTYPE svg PUBLIC "-//W3C//DTD SVG 1.1//EN"
  "http://www.w3.org/Graphics/SVG/1.1/DTD/svg11.dtd">
<svg xmlns:xlink="http://www.w3.org/1999/xlink" width="507.170156pt" height="492.454219pt" viewBox="0 0 507.170156 492.454219" xmlns="http://www.w3.org/2000/svg" version="1.1">
 <metadata>
  <rdf:RDF xmlns:dc="http://purl.org/dc/elements/1.1/" xmlns:cc="http://creativecommons.org/ns#" xmlns:rdf="http://www.w3.org/1999/02/22-rdf-syntax-ns#">
   <cc:Work>
    <dc:type rdf:resource="http://purl.org/dc/dcmitype/StillImage"/>
    <dc:date>2026-05-12T10:49:56.261861</dc:date>
    <dc:format>image/svg+xml</dc:format>
    <dc:creator>
     <cc:Agent>
      <dc:title>Matplotlib v3.7.1, https://matplotlib.org/</dc:title>
     </cc:Agent>
    </dc:creator>
   </cc:Work>
  </rdf:RDF>
 </metadata>
 <defs>
  <style type="text/css">*{stroke-linejoin: round; stroke-linecap: butt}</style>
 </defs>
 <g id="figure_1">
  <g id="patch_1">
   <path d="M 0 492.454219 
L 507.170156 492.454219 
L 507.170156 0 
L 0 0 
z
" style="fill: #ffffff"/>
  </g>
  <g id="axes_1">
   <g id="patch_2">
    <path d="M 56.450156 450.72 
L 499.970156 450.72 
L 499.970156 7.2 
L 56.450156 7.2 
z
" style="fill: #eaeaf2"/>
   </g>
   <g id="matplotlib.axis_1">
    <g id="xtick_1">
     <g id="line2d_1">
      <path d="M 100.802156 450.72 
L 100.802156 7.2 
" clip-path="url(#p166c2dbcea)" style="fill: none; stroke: #ffffff; stroke-linecap: round"/>
     </g>
     <g id="text_1">
      <!-- −400 -->
      <g style="fill: #262626" transform="translate(88.414266 468.093594) scale(0.11 -0.11)">
       <defs>
        <path id="ArialMT-2212" d="M 3381 1997 
L 356 1997 
L 356 2522 
L 3381 2522 
L 3381 1997 
z
" transform="scale(0.015625)"/>
        <path id="ArialMT-34" d="M 2069 0 
L 2069 1097 
L 81 1097 
L 81 1613 
L 2172 4581 
L 2631 4581 
L 2631 1613 
L 3250 1613 
L 3250 1097 
L 2631 1097 
L 2631 0 
L 2069 0 
z
M 2069 1613 
L 2069 3678 
L 634 1613 
L 2069 1613 
z
" transform="scale(0.015625)"/>
        <path id="ArialMT-30" d="M 266 2259 
Q 266 3072 433 3567 
Q 600 4063 929 4331 
Q 1259 4600 1759 4600 
Q 2128 4600 2406 4451 
Q 2684 4303 2865 4023 
Q 3047 3744 3150 3342 
Q 3253 2941 3253 2259 
Q 3253 1453 3087 958 
Q 2922 463 2592 192 
Q 2263 -78 1759 -78 
Q 1097 -78 719 397 
Q 266 969 266 2259 
z
M 844 2259 
Q 844 1131 1108 757 
Q 1372 384 1759 384 
Q 2147 384 2411 759 
Q 2675 1134 2675 2259 
Q 2675 3391 2411 3762 
Q 2147 4134 1753 4134 
Q 1366 4134 1134 3806 
Q 844 3388 844 2259 
z
" transform="scale(0.015625)"/>
       </defs>
       <use xlink:href="#ArialMT-2212"/>
       <use xlink:href="#ArialMT-34" x="58.398438"/>
       <use xlink:href="#ArialMT-30" x="114.013672"/>
       <use xlink:href="#ArialMT-30" x="169.628906"/>
      </g>
     </g>
    </g>
    <g id="xtick_2">
     <g id="line2d_2">
      <path d="M 189.506156 450.72 
L 189.506156 7.2 
" clip-path="url(#p166c2dbcea)" style="fill: none; stroke: #ffffff; stroke-linecap: round"/>
     </g>
     <g id="text_2">
      <!-- −200 -->
      <g style="fill: #262626" transform="translate(177.118266 468.093594) scale(0.11 -0.11)">
       <defs>
        <path id="ArialMT-32" d="M 3222 541 
L 3222 0 
L 194 0 
Q 188 203 259 391 
Q 375 700 629 1000 
Q 884 1300 1366 1694 
Q 2113 2306 2375 2664 
Q 2638 3022 2638 3341 
Q 2638 3675 2398 3904 
Q 2159 4134 1775 4134 
Q 1369 4134 1125 3890 
Q 881 3647 878 3216 
L 300 3275 
Q 359 3922 746 4261 
Q 1134 4600 1788 4600 
Q 2447 4600 2831 4234 
Q 3216 3869 3216 3328 
Q 3216 3053 3103 2787 
Q 2991 2522 2730 2228 
Q 2469 1934 1863 1422 
Q 1356 997 1212 845 
Q 1069 694 975 541 
L 3222 541 
z
" transform="scale(0.015625)"/>
       </defs>
       <use xlink:href="#ArialMT-2212"/>
       <use xlink:href="#ArialMT-32" x="58.398438"/>
       <use xlink:href="#ArialMT-30" x="114.013672"/>
       <use xlink:href="#ArialMT-30" x="169.628906"/>
      </g>
     </g>
    </g>
    <g id="xtick_3">
     <g id="line2d_3">
      <path d="M 278.210156 450.72 
L 278.210156 7.2 
" clip-path="url(#p166c2dbcea)" style="fill: none; stroke: #ffffff; stroke-linecap: round"/>
     </g>
     <g id="text_3">
      <!-- 0 -->
      <g style="fill: #262626" transform="translate(275.151641 468.093594) scale(0.11 -0.11)">
       <use xlink:href="#ArialMT-30"/>
      </g>
     </g>
    </g>
    <g id="xtick_4">
     <g id="line2d_4">
      <path d="M 366.914156 450.72 
L 366.914156 7.2 
" clip-path="url(#p166c2dbcea)" style="fill: none; stroke: #ffffff; stroke-linecap: round"/>
     </g>
     <g id="text_4">
      <!-- 200 -->
      <g style="fill: #262626" transform="translate(357.738609 468.093594) scale(0.11 -0.11)">
       <use xlink:href="#ArialMT-32"/>
       <use xlink:href="#ArialMT-30" x="55.615234"/>
       <use xlink:href="#ArialMT-30" x="111.230469"/>
      </g>
     </g>
    </g>
    <g id="xtick_5">
     <g id="line2d_5">
      <path d="M 455.618156 450.72 
L 455.618156 7.2 
" clip-path="url(#p166c2dbcea)" style="fill: none; stroke: #ffffff; stroke-linecap: round"/>
     </g>
     <g id="text_5">
      <!-- 400 -->
      <g style="fill: #262626" transform="translate(446.442609 468.093594) scale(0.11 -0.11)">
       <use xlink:href="#ArialMT-34"/>
       <use xlink:href="#ArialMT-30" x="55.615234"/>
       <use xlink:href="#ArialMT-30" x="111.230469"/>
      </g>
     </g>
    </g>
    <g id="text_6">
     <!-- x -->
     <g style="fill: #262626" transform="translate(275.210156 482.869219) scale(0.12 -0.12)">
      <defs>
       <path id="ArialMT-78" d="M 47 0 
L 1259 1725 
L 138 3319 
L 841 3319 
L 1350 2541 
Q 1494 2319 1581 2169 
Q 1719 2375 1834 2534 
L 2394 3319 
L 3066 3319 
L 1919 1756 
L 3153 0 
L 2463 0 
L 1781 1031 
L 1600 1309 
L 728 0 
L 47 0 
z
" transform="scale(0.015625)"/>
      </defs>
      <use xlink:href="#ArialMT-78"/>
     </g>
    </g>
   </g>
   <g id="matplotlib.axis_2">
    <g id="ytick_1">
     <g id="line2d_6">
      <path d="M 56.450156 406.368 
L 499.970156 406.368 
" clip-path="url(#p166c2dbcea)" style="fill: none; stroke: #ffffff; stroke-linecap: round"/>
     </g>
     <g id="text_7">
      <!-- −400 -->
      <g style="fill: #262626" transform="translate(22.174375 410.304797) scale(0.11 -0.11)">
       <use xlink:href="#ArialMT-2212"/>
       <use xlink:href="#ArialMT-34" x="58.398438"/>
       <use xlink:href="#ArialMT-30" x="114.013672"/>
       <use xlink:href="#ArialMT-30" x="169.628906"/>
      </g>
     </g>
    </g>
    <g id="ytick_2">
     <g id="line2d_7">
      <path d="M 56.450156 317.664 
L 499.970156 317.664 
" clip-path="url(#p166c2dbcea)" style="fill: none; stroke: #ffffff; stroke-linecap: round"/>
     </g>
     <g id="text_8">
      <!-- −200 -->
      <g style="fill: #262626" transform="translate(22.174375 321.600797) scale(0.11 -0.11)">
       <use xlink:href="#ArialMT-2212"/>
       <use xlink:href="#ArialMT-32" x="58.398438"/>
       <use xlink:href="#ArialMT-30" x="114.013672"/>
       <use xlink:href="#ArialMT-30" x="169.628906"/>
      </g>
     </g>
    </g>
    <g id="ytick_3">
     <g id="line2d_8">
      <path d="M 56.450156 228.96 
L 499.970156 228.96 
" clip-path="url(#p166c2dbcea)" style="fill: none; stroke: #ffffff; stroke-linecap: round"/>
     </g>
     <g id="text_9">
      <!-- 0 -->
      <g style="fill: #262626" transform="translate(40.833125 232.896797) scale(0.11 -0.11)">
       <use xlink:href="#ArialMT-30"/>
      </g>
     </g>
    </g>
    <g id="ytick_4">
     <g id="line2d_9">
      <path d="M 56.450156 140.256 
L 499.970156 140.256 
" clip-path="url(#p166c2dbcea)" style="fill: none; stroke: #ffffff; stroke-linecap: round"/>
     </g>
     <g id="text_10">
      <!-- 200 -->
      <g style="fill: #262626" transform="translate(28.599063 144.192797) scale(0.11 -0.11)">
       <use xlink:href="#ArialMT-32"/>
       <use xlink:href="#ArialMT-30" x="55.615234"/>
       <use xlink:href="#ArialMT-30" x="111.230469"/>
      </g>
     </g>
    </g>
    <g id="ytick_5">
     <g id="line2d_10">
      <path d="M 56.450156 51.552 
L 499.970156 51.552 
" clip-path="url(#p166c2dbcea)" style="fill: none; stroke: #ffffff; stroke-linecap: round"/>
     </g>
     <g id="text_11">
      <!-- 400 -->
      <g style="fill: #262626" transform="translate(28.599063 55.488797) scale(0.11 -0.11)">
       <use xlink:href="#ArialMT-34"/>
       <use xlink:href="#ArialMT-30" x="55.615234"/>
       <use xlink:href="#ArialMT-30" x="111.230469"/>
      </g>
     </g>
    </g>
    <g id="text_12">
     <!-- y -->
     <g style="fill: #262626" transform="translate(15.64875 231.96) rotate(-90) scale(0.12 -0.12)">
      <defs>
       <path id="ArialMT-79" d="M 397 -1278 
L 334 -750 
Q 519 -800 656 -800 
Q 844 -800 956 -737 
Q 1069 -675 1141 -563 
Q 1194 -478 1313 -144 
Q 1328 -97 1363 -6 
L 103 3319 
L 709 3319 
L 1400 1397 
Q 1534 1031 1641 628 
Q 1738 1016 1872 1384 
L 2581 3319 
L 3144 3319 
L 1881 -56 
Q 1678 -603 1566 -809 
Q 1416 -1088 1222 -1217 
Q 1028 -1347 759 -1347 
Q 597 -1347 397 -1278 
z
" transform="scale(0.015625)"/>
      </defs>
      <use xlink:href="#ArialMT-79"/>
     </g>
    </g>
   </g>
   <g id="patch_3">
    <path d="M 278.210156 317.664 
C 301.734732 317.664 324.298969 308.317587 340.933356 291.6832 
C 357.567743 275.048813 366.914156 252.484576 366.914156 228.96 
C 366.914156 205.435424 357.567743 182.871187 340.933356 166.2368 
C 324.298969 149.602413 301.734732 140.256 278.210156 140.256 
C 254.68558 140.256 232.121343 149.602413 215.486956 166.2368 
C 198.852569 182.871187 189.506156 205.435424 189.506156 228.96 
C 189.506156 252.484576 198.852569 275.048813 215.486956 291.6832 
C 232.121343 308.317587 254.68558 317.664 278.210156 317.664 
z
" clip-path="url(#p166c2dbcea)" style="fill: #228b22; opacity: 0.12; stroke: #228b22; stroke-width: 1.5; stroke-linejoin: miter"/>
   </g>
   <g id="PathCollection_1">
    <defs>
     <path id="m4995288590" d="M 0 2.236068 
C 0.593012 2.236068 1.161816 2.000462 1.581139 1.581139 
C 2.000462 1.161816 2.236068 0.593012 2.236068 0 
C 2.236068 -0.593012 2.000462 -1.161816 1.581139 -1.581139 
C 1.161816 -2.000462 0.593012 -2.236068 0 -2.236068 
C -0.593012 -2.236068 -1.161816 -2.000462 -1.581139 -1.581139 
C -2.000462 -1.161816 -2.236068 -0.593012 -2.236068 0 
C -2.236068 0.593012 -2.000462 1.161816 -1.581139 1.581139 
C -1.161816 2.000462 -0.593012 2.236068 0 2.236068 
z
" style="stroke: #4169e1"/>
    </defs>
    <g clip-path="url(#p166c2dbcea)">
     <use xlink:href="#m4995288590" x="200.107601" y="261.872458" style="fill: #4169e1; stroke: #4169e1"/>
     <use xlink:href="#m4995288590" x="288.075678" y="344.304734" style="fill: #4169e1; stroke: #4169e1"/>
     <use xlink:href="#m4995288590" x="279.206062" y="266.623954" style="fill: #4169e1; stroke: #4169e1"/>
     <use xlink:href="#m4995288590" x="331.096181" y="123.525816" style="fill: #4169e1; stroke: #4169e1"/>
     <use xlink:href="#m4995288590" x="338.445865" y="287.756861" style="fill: #4169e1; stroke: #4169e1"/>
     <use xlink:href="#m4995288590" x="257.777204" y="284.744967" style="fill: #4169e1; stroke: #4169e1"/>
     <use xlink:href="#m4995288590" x="405.792688" y="279.070678" style="fill: #4169e1; stroke: #4169e1"/>
     <use xlink:href="#m4995288590" x="259.749233" y="228.621982" style="fill: #4169e1; stroke: #4169e1"/>
     <use xlink:href="#m4995288590" x="227.193753" y="249.972273" style="fill: #4169e1; stroke: #4169e1"/>
     <use xlink:href="#m4995288590" x="203.30359" y="181.069447" style="fill: #4169e1; stroke: #4169e1"/>
     <use xlink:href="#m4995288590" x="316.411375" y="203.698174" style="fill: #4169e1; stroke: #4169e1"/>
     <use xlink:href="#m4995288590" x="257.867041" y="301.12969" style="fill: #4169e1; stroke: #4169e1"/>
     <use xlink:href="#m4995288590" x="389.531917" y="217.106712" style="fill: #4169e1; stroke: #4169e1"/>
     <use xlink:href="#m4995288590" x="405.051029" y="307.681958" style="fill: #4169e1; stroke: #4169e1"/>
     <use xlink:href="#m4995288590" x="417.000745" y="126.737113" style="fill: #4169e1; stroke: #4169e1"/>
     <use xlink:href="#m4995288590" x="344.208302" y="261.328907" style="fill: #4169e1; stroke: #4169e1"/>
     <use xlink:href="#m4995288590" x="185.48229" y="239.509333" style="fill: #4169e1; stroke: #4169e1"/>
     <use xlink:href="#m4995288590" x="270.334218" y="255.983593" style="fill: #4169e1; stroke: #4169e1"/>
     <use xlink:href="#m4995288590" x="404.088395" y="262.569512" style="fill: #4169e1; stroke: #4169e1"/>
     <use xlink:href="#m4995288590" x="255.166742" y="336.985896" style="fill: #4169e1; stroke: #4169e1"/>
     <use xlink:href="#m4995288590" x="292.893449" y="280.930077" style="fill: #4169e1; stroke: #4169e1"/>
     <use xlink:href="#m4995288590" x="390.704142" y="298.798016" style="fill: #4169e1; stroke: #4169e1"/>
     <use xlink:href="#m4995288590" x="229.103604" y="265.435635" style="fill: #4169e1; stroke: #4169e1"/>
     <use xlink:href="#m4995288590" x="200.768103" y="263.585559" style="fill: #4169e1; stroke: #4169e1"/>
     <use xlink:href="#m4995288590" x="437.154444" y="131.271593" style="fill: #4169e1; stroke: #4169e1"/>
     <use xlink:href="#m4995288590" x="360.204657" y="259.880533" style="fill: #4169e1; stroke: #4169e1"/>
     <use xlink:href="#m4995288590" x="403.402271" y="90.302449" style="fill: #4169e1; stroke: #4169e1"/>
     <use xlink:href="#m4995288590" x="338.991102" y="337.645626" style="fill: #4169e1; stroke: #4169e1"/>
     <use xlink:href="#m4995288590" x="324.119349" y="257.178199" style="fill: #4169e1; stroke: #4169e1"/>
     <use xlink:href="#m4995288590" x="318.678873" y="217.545974" style="fill: #4169e1; stroke: #4169e1"/>
     <use xlink:href="#m4995288590" x="242.708159" y="210.649175" style="fill: #4169e1; stroke: #4169e1"/>
     <use xlink:href="#m4995288590" x="318.242614" y="352.260387" style="fill: #4169e1; stroke: #4169e1"/>
     <use xlink:href="#m4995288590" x="331.588857" y="329.408827" style="fill: #4169e1; stroke: #4169e1"/>
     <use xlink:href="#m4995288590" x="301.971536" y="272.508431" style="fill: #4169e1; stroke: #4169e1"/>
     <use xlink:href="#m4995288590" x="390.051958" y="228.478366" style="fill: #4169e1; stroke: #4169e1"/>
     <use xlink:href="#m4995288590" x="230.24276" y="212.095495" style="fill: #4169e1; stroke: #4169e1"/>
     <use xlink:href="#m4995288590" x="474.513356" y="236.430839" style="fill: #4169e1; stroke: #4169e1"/>
     <use xlink:href="#m4995288590" x="375.816838" y="201.28148" style="fill: #4169e1; stroke: #4169e1"/>
     <use xlink:href="#m4995288590" x="324.805679" y="124.341106" style="fill: #4169e1; stroke: #4169e1"/>
     <use xlink:href="#m4995288590" x="394.017264" y="156.553506" style="fill: #4169e1; stroke: #4169e1"/>
     <use xlink:href="#m4995288590" x="229.71537" y="350.092908" style="fill: #4169e1; stroke: #4169e1"/>
     <use xlink:href="#m4995288590" x="461.631109" y="206.924233" style="fill: #4169e1; stroke: #4169e1"/>
     <use xlink:href="#m4995288590" x="349.205421" y="218.59319" style="fill: #4169e1; stroke: #4169e1"/>
     <use xlink:href="#m4995288590" x="353.751318" y="83.305828" style="fill: #4169e1; stroke: #4169e1"/>
     <use xlink:href="#m4995288590" x="442.380056" y="155.877398" style="fill: #4169e1; stroke: #4169e1"/>
     <use xlink:href="#m4995288590" x="315.798601" y="169.719166" style="fill: #4169e1; stroke: #4169e1"/>
     <use xlink:href="#m4995288590" x="434.834031" y="228.745714" style="fill: #4169e1; stroke: #4169e1"/>
     <use xlink:href="#m4995288590" x="317.289756" y="152.045954" style="fill: #4169e1; stroke: #4169e1"/>
     <use xlink:href="#m4995288590" x="291.638973" y="300.882091" style="fill: #4169e1; stroke: #4169e1"/>
     <use xlink:href="#m4995288590" x="202.554433" y="244.221323" style="fill: #4169e1; stroke: #4169e1"/>
     <use xlink:href="#m4995288590" x="331.908808" y="284.554693" style="fill: #4169e1; stroke: #4169e1"/>
     <use xlink:href="#m4995288590" x="372.607036" y="213.241719" style="fill: #4169e1; stroke: #4169e1"/>
     <use xlink:href="#m4995288590" x="258.724671" y="213.193255" style="fill: #4169e1; stroke: #4169e1"/>
     <use xlink:href="#m4995288590" x="179.382807" y="197.412935" style="fill: #4169e1; stroke: #4169e1"/>
     <use xlink:href="#m4995288590" x="272.453365" y="96.275892" style="fill: #4169e1; stroke: #4169e1"/>
     <use xlink:href="#m4995288590" x="483.611445" y="195.806427" style="fill: #4169e1; stroke: #4169e1"/>
     <use xlink:href="#m4995288590" x="188.187074" y="182.1036" style="fill: #4169e1; stroke: #4169e1"/>
     <use xlink:href="#m4995288590" x="418.436446" y="275.218863" style="fill: #4169e1; stroke: #4169e1"/>
     <use xlink:href="#m4995288590" x="306.015008" y="96.287871" style="fill: #4169e1; stroke: #4169e1"/>
     <use xlink:href="#m4995288590" x="371.507068" y="323.361651" style="fill: #4169e1; stroke: #4169e1"/>
     <use xlink:href="#m4995288590" x="298.2359" y="219.896433" style="fill: #4169e1; stroke: #4169e1"/>
     <use xlink:href="#m4995288590" x="259.751841" y="205.873267" style="fill: #4169e1; stroke: #4169e1"/>
     <use xlink:href="#m4995288590" x="248.740571" y="161.227642" style="fill: #4169e1; stroke: #4169e1"/>
     <use xlink:href="#m4995288590" x="240.183223" y="255.653979" style="fill: #4169e1; stroke: #4169e1"/>
     <use xlink:href="#m4995288590" x="215.832577" y="190.113915" style="fill: #4169e1; stroke: #4169e1"/>
     <use xlink:href="#m4995288590" x="360.870695" y="163.708365" style="fill: #4169e1; stroke: #4169e1"/>
     <use xlink:href="#m4995288590" x="309.744573" y="245.422137" style="fill: #4169e1; stroke: #4169e1"/>
     <use xlink:href="#m4995288590" x="351.871197" y="142.399434" style="fill: #4169e1; stroke: #4169e1"/>
     <use xlink:href="#m4995288590" x="363.077082" y="112.736496" style="fill: #4169e1; stroke: #4169e1"/>
     <use xlink:href="#m4995288590" x="314.213252" y="267.164278" style="fill: #4169e1; stroke: #4169e1"/>
     <use xlink:href="#m4995288590" x="245.550565" y="279.582117" style="fill: #4169e1; stroke: #4169e1"/>
     <use xlink:href="#m4995288590" x="328.484444" y="244.217962" style="fill: #4169e1; stroke: #4169e1"/>
     <use xlink:href="#m4995288590" x="319.471102" y="131.545849" style="fill: #4169e1; stroke: #4169e1"/>
     <use xlink:href="#m4995288590" x="228.475759" y="301.083718" style="fill: #4169e1; stroke: #4169e1"/>
     <use xlink:href="#m4995288590" x="237.018676" y="331.35812" style="fill: #4169e1; stroke: #4169e1"/>
     <use xlink:href="#m4995288590" x="378.785395" y="236.016311" style="fill: #4169e1; stroke: #4169e1"/>
     <use xlink:href="#m4995288590" x="416.545598" y="181.050998" style="fill: #4169e1; stroke: #4169e1"/>
     <use xlink:href="#m4995288590" x="281.412972" y="201.242866" style="fill: #4169e1; stroke: #4169e1"/>
     <use xlink:href="#m4995288590" x="415.208934" y="244.288103" style="fill: #4169e1; stroke: #4169e1"/>
     <use xlink:href="#m4995288590" x="352.484299" y="184.996943" style="fill: #4169e1; stroke: #4169e1"/>
     <use xlink:href="#m4995288590" x="312.335926" y="150.221611" style="fill: #4169e1; stroke: #4169e1"/>
     <use xlink:href="#m4995288590" x="370.885588" y="180.148024" style="fill: #4169e1; stroke: #4169e1"/>
     <use xlink:href="#m4995288590" x="291.153864" y="99.694372" style="fill: #4169e1; stroke: #4169e1"/>
     <use xlink:href="#m4995288590" x="455.16952" y="216.812654" style="fill: #4169e1; stroke: #4169e1"/>
     <use xlink:href="#m4995288590" x="380.700139" y="174.156633" style="fill: #4169e1; stroke: #4169e1"/>
     <use xlink:href="#m4995288590" x="417.355325" y="156.664805" style="fill: #4169e1; stroke: #4169e1"/>
     <use xlink:href="#m4995288590" x="232.872174" y="255.93625" style="fill: #4169e1; stroke: #4169e1"/>
     <use xlink:href="#m4995288590" x="462.575416" y="191.29949" style="fill: #4169e1; stroke: #4169e1"/>
     <use xlink:href="#m4995288590" x="361.174093" y="197.637287" style="fill: #4169e1; stroke: #4169e1"/>
     <use xlink:href="#m4995288590" x="253.040768" y="253.21747" style="fill: #4169e1; stroke: #4169e1"/>
     <use xlink:href="#m4995288590" x="306.52326" y="256.761656" style="fill: #4169e1; stroke: #4169e1"/>
     <use xlink:href="#m4995288590" x="208.078326" y="247.203235" style="fill: #4169e1; stroke: #4169e1"/>
     <use xlink:href="#m4995288590" x="237.32271" y="256.327047" style="fill: #4169e1; stroke: #4169e1"/>
     <use xlink:href="#m4995288590" x="227.447849" y="259.7918" style="fill: #4169e1; stroke: #4169e1"/>
     <use xlink:href="#m4995288590" x="320.907801" y="167.467924" style="fill: #4169e1; stroke: #4169e1"/>
     <use xlink:href="#m4995288590" x="332.188359" y="360.158855" style="fill: #4169e1; stroke: #4169e1"/>
     <use xlink:href="#m4995288590" x="327.903931" y="160.523042" style="fill: #4169e1; stroke: #4169e1"/>
     <use xlink:href="#m4995288590" x="212.12058" y="249.2801" style="fill: #4169e1; stroke: #4169e1"/>
     <use xlink:href="#m4995288590" x="319.246882" y="68.007569" style="fill: #4169e1; stroke: #4169e1"/>
     <use xlink:href="#m4995288590" x="283.581282" y="313.642847" style="fill: #4169e1; stroke: #4169e1"/>
     <use xlink:href="#m4995288590" x="375.584547" y="251.778" style="fill: #4169e1; stroke: #4169e1"/>
     <use xlink:href="#m4995288590" x="256.151601" y="246.732694" style="fill: #4169e1; stroke: #4169e1"/>
     <use xlink:href="#m4995288590" x="215.063089" y="286.764531" style="fill: #4169e1; stroke: #4169e1"/>
     <use xlink:href="#m4995288590" x="237.882821" y="276.865033" style="fill: #4169e1; stroke: #4169e1"/>
     <use xlink:href="#m4995288590" x="371.466171" y="137.051565" style="fill: #4169e1; stroke: #4169e1"/>
     <use xlink:href="#m4995288590" x="363.517549" y="297.119886" style="fill: #4169e1; stroke: #4169e1"/>
     <use xlink:href="#m4995288590" x="369.84468" y="187.60307" style="fill: #4169e1; stroke: #4169e1"/>
     <use xlink:href="#m4995288590" x="465.312915" y="244.394195" style="fill: #4169e1; stroke: #4169e1"/>
     <use xlink:href="#m4995288590" x="199.7391" y="210.698157" style="fill: #4169e1; stroke: #4169e1"/>
     <use xlink:href="#m4995288590" x="201.724917" y="261.290051" style="fill: #4169e1; stroke: #4169e1"/>
     <use xlink:href="#m4995288590" x="164.52578" y="175.543526" style="fill: #4169e1; stroke: #4169e1"/>
     <use xlink:href="#m4995288590" x="335.645732" y="310.644431" style="fill: #4169e1; stroke: #4169e1"/>
     <use xlink:href="#m4995288590" x="393.473097" y="286.869977" style="fill: #4169e1; stroke: #4169e1"/>
     <use xlink:href="#m4995288590" x="257.867517" y="283.295274" style="fill: #4169e1; stroke: #4169e1"/>
     <use xlink:href="#m4995288590" x="258.977007" y="271.463027" style="fill: #4169e1; stroke: #4169e1"/>
     <use xlink:href="#m4995288590" x="400.715123" y="267.387821" style="fill: #4169e1; stroke: #4169e1"/>
     <use xlink:href="#m4995288590" x="349.745074" y="227.125981" style="fill: #4169e1; stroke: #4169e1"/>
     <use xlink:href="#m4995288590" x="174.00581" y="188.769533" style="fill: #4169e1; stroke: #4169e1"/>
     <use xlink:href="#m4995288590" x="181.251355" y="205.272685" style="fill: #4169e1; stroke: #4169e1"/>
     <use xlink:href="#m4995288590" x="149.036716" y="193.243768" style="fill: #4169e1; stroke: #4169e1"/>
     <use xlink:href="#m4995288590" x="339.261791" y="134.445242" style="fill: #4169e1; stroke: #4169e1"/>
     <use xlink:href="#m4995288590" x="259.47828" y="301.428722" style="fill: #4169e1; stroke: #4169e1"/>
     <use xlink:href="#m4995288590" x="157.182755" y="248.551369" style="fill: #4169e1; stroke: #4169e1"/>
     <use xlink:href="#m4995288590" x="321.312452" y="185.674056" style="fill: #4169e1; stroke: #4169e1"/>
     <use xlink:href="#m4995288590" x="403.522003" y="158.883197" style="fill: #4169e1; stroke: #4169e1"/>
     <use xlink:href="#m4995288590" x="329.387029" y="211.768465" style="fill: #4169e1; stroke: #4169e1"/>
     <use xlink:href="#m4995288590" x="190.432556" y="264.588477" style="fill: #4169e1; stroke: #4169e1"/>
     <use xlink:href="#m4995288590" x="326.702679" y="158.876836" style="fill: #4169e1; stroke: #4169e1"/>
     <use xlink:href="#m4995288590" x="305.367984" y="371.27291" style="fill: #4169e1; stroke: #4169e1"/>
     <use xlink:href="#m4995288590" x="263.665282" y="267.807621" style="fill: #4169e1; stroke: #4169e1"/>
     <use xlink:href="#m4995288590" x="218.646299" y="246.602361" style="fill: #4169e1; stroke: #4169e1"/>
     <use xlink:href="#m4995288590" x="277.81451" y="275.98114" style="fill: #4169e1; stroke: #4169e1"/>
     <use xlink:href="#m4995288590" x="363.637396" y="215.255069" style="fill: #4169e1; stroke: #4169e1"/>
     <use xlink:href="#m4995288590" x="398.793496" y="98.295418" style="fill: #4169e1; stroke: #4169e1"/>
     <use xlink:href="#m4995288590" x="415.317797" y="303.249864" style="fill: #4169e1; stroke: #4169e1"/>
     <use xlink:href="#m4995288590" x="416.864987" y="267.001156" style="fill: #4169e1; stroke: #4169e1"/>
     <use xlink:href="#m4995288590" x="334.540482" y="334.331482" style="fill: #4169e1; stroke: #4169e1"/>
     <use xlink:href="#m4995288590" x="422.942529" y="219.275762" style="fill: #4169e1; stroke: #4169e1"/>
     <use xlink:href="#m4995288590" x="315.48643" y="272.469183" style="fill: #4169e1; stroke: #4169e1"/>
     <use xlink:href="#m4995288590" x="171.505881" y="228.759218" style="fill: #4169e1; stroke: #4169e1"/>
     <use xlink:href="#m4995288590" x="267.548317" y="277.099211" style="fill: #4169e1; stroke: #4169e1"/>
     <use xlink:href="#m4995288590" x="224.944738" y="156.455159" style="fill: #4169e1; stroke: #4169e1"/>
     <use xlink:href="#m4995288590" x="303.112316" y="343.457677" style="fill: #4169e1; stroke: #4169e1"/>
     <use xlink:href="#m4995288590" x="429.617947" y="154.662056" style="fill: #4169e1; stroke: #4169e1"/>
     <use xlink:href="#m4995288590" x="243.22711" y="262.924586" style="fill: #4169e1; stroke: #4169e1"/>
     <use xlink:href="#m4995288590" x="318.520379" y="165.938465" style="fill: #4169e1; stroke: #4169e1"/>
     <use xlink:href="#m4995288590" x="323.510291" y="102.596675" style="fill: #4169e1; stroke: #4169e1"/>
     <use xlink:href="#m4995288590" x="384.107669" y="167.604426" style="fill: #4169e1; stroke: #4169e1"/>
     <use xlink:href="#m4995288590" x="242.72771" y="304.914587" style="fill: #4169e1; stroke: #4169e1"/>
     <use xlink:href="#m4995288590" x="405.977917" y="237.724564" style="fill: #4169e1; stroke: #4169e1"/>
     <use xlink:href="#m4995288590" x="307.821353" y="319.489141" style="fill: #4169e1; stroke: #4169e1"/>
     <use xlink:href="#m4995288590" x="344.71045" y="125.636657" style="fill: #4169e1; stroke: #4169e1"/>
     <use xlink:href="#m4995288590" x="393.118016" y="197.834311" style="fill: #4169e1; stroke: #4169e1"/>
     <use xlink:href="#m4995288590" x="241.192404" y="333.435211" style="fill: #4169e1; stroke: #4169e1"/>
     <use xlink:href="#m4995288590" x="406.017994" y="196.666816" style="fill: #4169e1; stroke: #4169e1"/>
     <use xlink:href="#m4995288590" x="426.528764" y="342.984663" style="fill: #4169e1; stroke: #4169e1"/>
     <use xlink:href="#m4995288590" x="371.352463" y="76.32361" style="fill: #4169e1; stroke: #4169e1"/>
     <use xlink:href="#m4995288590" x="270.296824" y="304.163419" style="fill: #4169e1; stroke: #4169e1"/>
    </g>
   </g>
   <g id="PathCollection_2">
    <defs>
     <path id="m46c5d2a15c" d="M 0 2.5 
C 0.663008 2.5 1.29895 2.236584 1.767767 1.767767 
C 2.236584 1.29895 2.5 0.663008 2.5 0 
C 2.5 -0.663008 2.236584 -1.29895 1.767767 -1.767767 
C 1.29895 -2.236584 0.663008 -2.5 0 -2.5 
C -0.663008 -2.5 -1.29895 -2.236584 -1.767767 -1.767767 
C -2.236584 -1.29895 -2.5 -0.663008 -2.5 0 
C -2.5 0.663008 -2.236584 1.29895 -1.767767 1.767767 
C -1.29895 2.236584 -0.663008 2.5 0 2.5 
z
" style="stroke: #b22222"/>
    </defs>
    <g clip-path="url(#p166c2dbcea)">
     <use xlink:href="#m46c5d2a15c" x="303.963814" y="199.044313" style="fill: #b22222; stroke: #b22222"/>
     <use xlink:href="#m46c5d2a15c" x="312.883971" y="223.616846" style="fill: #b22222; stroke: #b22222"/>
     <use xlink:href="#m46c5d2a15c" x="297.630725" y="197.402462" style="fill: #b22222; stroke: #b22222"/>
     <use xlink:href="#m46c5d2a15c" x="308.431632" y="230.87169" style="fill: #b22222; stroke: #b22222"/>
     <use xlink:href="#m46c5d2a15c" x="285.048974" y="211.983842" style="fill: #b22222; stroke: #b22222"/>
     <use xlink:href="#m46c5d2a15c" x="288.474108" y="197.607394" style="fill: #b22222; stroke: #b22222"/>
     <use xlink:href="#m46c5d2a15c" x="300.786244" y="225.696021" style="fill: #b22222; stroke: #b22222"/>
     <use xlink:href="#m46c5d2a15c" x="269.964853" y="187.007739" style="fill: #b22222; stroke: #b22222"/>
     <use xlink:href="#m46c5d2a15c" x="263.756418" y="186.901126" style="fill: #b22222; stroke: #b22222"/>
     <use xlink:href="#m46c5d2a15c" x="309.046558" y="217.866955" style="fill: #b22222; stroke: #b22222"/>
     <use xlink:href="#m46c5d2a15c" x="271.697446" y="281.277165" style="fill: #b22222; stroke: #b22222"/>
     <use xlink:href="#m46c5d2a15c" x="250.475227" y="171.627582" style="fill: #b22222; stroke: #b22222"/>
     <use xlink:href="#m46c5d2a15c" x="246.544029" y="172.946394" style="fill: #b22222; stroke: #b22222"/>
     <use xlink:href="#m46c5d2a15c" x="59.944243" y="237.298078" style="fill: #b22222; stroke: #b22222"/>
     <use xlink:href="#m46c5d2a15c" x="311.557546" y="222.014394" style="fill: #b22222; stroke: #b22222"/>
     <use xlink:href="#m46c5d2a15c" x="241.408994" y="169.627323" style="fill: #b22222; stroke: #b22222"/>
     <use xlink:href="#m46c5d2a15c" x="310.655286" y="221.384811" style="fill: #b22222; stroke: #b22222"/>
     <use xlink:href="#m46c5d2a15c" x="260.266608" y="182.360964" style="fill: #b22222; stroke: #b22222"/>
     <use xlink:href="#m46c5d2a15c" x="261.378521" y="178.344255" style="fill: #b22222; stroke: #b22222"/>
     <use xlink:href="#m46c5d2a15c" x="310.024396" y="224.353252" style="fill: #b22222; stroke: #b22222"/>
     <use xlink:href="#m46c5d2a15c" x="256.363802" y="203.482813" style="fill: #b22222; stroke: #b22222"/>
     <use xlink:href="#m46c5d2a15c" x="256.021841" y="200.433711" style="fill: #b22222; stroke: #b22222"/>
     <use xlink:href="#m46c5d2a15c" x="262.088021" y="182.451528" style="fill: #b22222; stroke: #b22222"/>
     <use xlink:href="#m46c5d2a15c" x="324.414182" y="225.120827" style="fill: #b22222; stroke: #b22222"/>
     <use xlink:href="#m46c5d2a15c" x="252.199873" y="176.640578" style="fill: #b22222; stroke: #b22222"/>
     <use xlink:href="#m46c5d2a15c" x="301.997694" y="234.355006" style="fill: #b22222; stroke: #b22222"/>
     <use xlink:href="#m46c5d2a15c" x="259.557036" y="194.689844" style="fill: #b22222; stroke: #b22222"/>
     <use xlink:href="#m46c5d2a15c" x="298.666812" y="210.823841" style="fill: #b22222; stroke: #b22222"/>
     <use xlink:href="#m46c5d2a15c" x="270.854692" y="230.321246" style="fill: #b22222; stroke: #b22222"/>
     <use xlink:href="#m46c5d2a15c" x="324.965452" y="240.111502" style="fill: #b22222; stroke: #b22222"/>
     <use xlink:href="#m46c5d2a15c" x="307.964504" y="221.788034" style="fill: #b22222; stroke: #b22222"/>
     <use xlink:href="#m46c5d2a15c" x="255.165766" y="177.505214" style="fill: #b22222; stroke: #b22222"/>
     <use xlink:href="#m46c5d2a15c" x="254.600304" y="194.33618" style="fill: #b22222; stroke: #b22222"/>
     <use xlink:href="#m46c5d2a15c" x="303.978174" y="226.484134" style="fill: #b22222; stroke: #b22222"/>
     <use xlink:href="#m46c5d2a15c" x="253.323956" y="165.871297" style="fill: #b22222; stroke: #b22222"/>
     <use xlink:href="#m46c5d2a15c" x="297.936567" y="211.649275" style="fill: #b22222; stroke: #b22222"/>
     <use xlink:href="#m46c5d2a15c" x="281.920308" y="206.306556" style="fill: #b22222; stroke: #b22222"/>
     <use xlink:href="#m46c5d2a15c" x="285.152197" y="218.100712" style="fill: #b22222; stroke: #b22222"/>
     <use xlink:href="#m46c5d2a15c" x="232.058529" y="204.133735" style="fill: #b22222; stroke: #b22222"/>
     <use xlink:href="#m46c5d2a15c" x="252.644588" y="171.320381" style="fill: #b22222; stroke: #b22222"/>
     <use xlink:href="#m46c5d2a15c" x="298.662586" y="234.244645" style="fill: #b22222; stroke: #b22222"/>
     <use xlink:href="#m46c5d2a15c" x="311.151184" y="227.282881" style="fill: #b22222; stroke: #b22222"/>
     <use xlink:href="#m46c5d2a15c" x="251.786895" y="187.367683" style="fill: #b22222; stroke: #b22222"/>
     <use xlink:href="#m46c5d2a15c" x="259.2231" y="205.056545" style="fill: #b22222; stroke: #b22222"/>
     <use xlink:href="#m46c5d2a15c" x="311.09863" y="225.787982" style="fill: #b22222; stroke: #b22222"/>
     <use xlink:href="#m46c5d2a15c" x="251.740558" y="170.000054" style="fill: #b22222; stroke: #b22222"/>
     <use xlink:href="#m46c5d2a15c" x="278.640189" y="185.648813" style="fill: #b22222; stroke: #b22222"/>
     <use xlink:href="#m46c5d2a15c" x="252.485127" y="206.25467" style="fill: #b22222; stroke: #b22222"/>
     <use xlink:href="#m46c5d2a15c" x="257.31186" y="172.760299" style="fill: #b22222; stroke: #b22222"/>
     <use xlink:href="#m46c5d2a15c" x="314.232733" y="218.623441" style="fill: #b22222; stroke: #b22222"/>
     <use xlink:href="#m46c5d2a15c" x="305.337315" y="224.683763" style="fill: #b22222; stroke: #b22222"/>
     <use xlink:href="#m46c5d2a15c" x="312.501996" y="222.640135" style="fill: #b22222; stroke: #b22222"/>
     <use xlink:href="#m46c5d2a15c" x="256.044856" y="181.175451" style="fill: #b22222; stroke: #b22222"/>
     <use xlink:href="#m46c5d2a15c" x="299.59785" y="219.063187" style="fill: #b22222; stroke: #b22222"/>
     <use xlink:href="#m46c5d2a15c" x="260.438603" y="181.818337" style="fill: #b22222; stroke: #b22222"/>
     <use xlink:href="#m46c5d2a15c" x="304.925562" y="210.830678" style="fill: #b22222; stroke: #b22222"/>
     <use xlink:href="#m46c5d2a15c" x="266.204002" y="189.408883" style="fill: #b22222; stroke: #b22222"/>
     <use xlink:href="#m46c5d2a15c" x="290.41825" y="225.164878" style="fill: #b22222; stroke: #b22222"/>
     <use xlink:href="#m46c5d2a15c" x="312.929578" y="234.821676" style="fill: #b22222; stroke: #b22222"/>
     <use xlink:href="#m46c5d2a15c" x="307.60029" y="226.812172" style="fill: #b22222; stroke: #b22222"/>
     <use xlink:href="#m46c5d2a15c" x="247.864143" y="162.502187" style="fill: #b22222; stroke: #b22222"/>
     <use xlink:href="#m46c5d2a15c" x="263.161215" y="191.623958" style="fill: #b22222; stroke: #b22222"/>
     <use xlink:href="#m46c5d2a15c" x="260.801785" y="199.391994" style="fill: #b22222; stroke: #b22222"/>
     <use xlink:href="#m46c5d2a15c" x="294.934843" y="224.356873" style="fill: #b22222; stroke: #b22222"/>
     <use xlink:href="#m46c5d2a15c" x="274.762485" y="190.536128" style="fill: #b22222; stroke: #b22222"/>
     <use xlink:href="#m46c5d2a15c" x="325.325923" y="235.033574" style="fill: #b22222; stroke: #b22222"/>
     <use xlink:href="#m46c5d2a15c" x="294.674513" y="232.200118" style="fill: #b22222; stroke: #b22222"/>
     <use xlink:href="#m46c5d2a15c" x="247.836772" y="168.828424" style="fill: #b22222; stroke: #b22222"/>
     <use xlink:href="#m46c5d2a15c" x="268.044403" y="201.37209" style="fill: #b22222; stroke: #b22222"/>
     <use xlink:href="#m46c5d2a15c" x="310.947848" y="218.199451" style="fill: #b22222; stroke: #b22222"/>
     <use xlink:href="#m46c5d2a15c" x="257.481026" y="166.64207" style="fill: #b22222; stroke: #b22222"/>
     <use xlink:href="#m46c5d2a15c" x="301.140142" y="219.800692" style="fill: #b22222; stroke: #b22222"/>
     <use xlink:href="#m46c5d2a15c" x="254.928642" y="208.874397" style="fill: #b22222; stroke: #b22222"/>
     <use xlink:href="#m46c5d2a15c" x="250.531988" y="184.733237" style="fill: #b22222; stroke: #b22222"/>
     <use xlink:href="#m46c5d2a15c" x="258.9629" y="177.683367" style="fill: #b22222; stroke: #b22222"/>
     <use xlink:href="#m46c5d2a15c" x="306.003975" y="226.182109" style="fill: #b22222; stroke: #b22222"/>
     <use xlink:href="#m46c5d2a15c" x="326.24109" y="225.800196" style="fill: #b22222; stroke: #b22222"/>
     <use xlink:href="#m46c5d2a15c" x="282.568979" y="277.800897" style="fill: #b22222; stroke: #b22222"/>
     <use xlink:href="#m46c5d2a15c" x="307.968283" y="225.480756" style="fill: #b22222; stroke: #b22222"/>
     <use xlink:href="#m46c5d2a15c" x="300.74756" y="229.184705" style="fill: #b22222; stroke: #b22222"/>
     <use xlink:href="#m46c5d2a15c" x="280.436306" y="216.41215" style="fill: #b22222; stroke: #b22222"/>
     <use xlink:href="#m46c5d2a15c" x="293.946163" y="231.479338" style="fill: #b22222; stroke: #b22222"/>
     <use xlink:href="#m46c5d2a15c" x="293.773496" y="202.358156" style="fill: #b22222; stroke: #b22222"/>
     <use xlink:href="#m46c5d2a15c" x="308.902209" y="218.119101" style="fill: #b22222; stroke: #b22222"/>
     <use xlink:href="#m46c5d2a15c" x="317.072896" y="247.715644" style="fill: #b22222; stroke: #b22222"/>
     <use xlink:href="#m46c5d2a15c" x="275.046576" y="216.759852" style="fill: #b22222; stroke: #b22222"/>
     <use xlink:href="#m46c5d2a15c" x="258.788182" y="176.190693" style="fill: #b22222; stroke: #b22222"/>
     <use xlink:href="#m46c5d2a15c" x="248.502617" y="169.313449" style="fill: #b22222; stroke: #b22222"/>
     <use xlink:href="#m46c5d2a15c" x="306.951309" y="216.924478" style="fill: #b22222; stroke: #b22222"/>
     <use xlink:href="#m46c5d2a15c" x="275.29943" y="181.205323" style="fill: #b22222; stroke: #b22222"/>
     <use xlink:href="#m46c5d2a15c" x="310.532884" y="227.881626" style="fill: #b22222; stroke: #b22222"/>
     <use xlink:href="#m46c5d2a15c" x="353.087304" y="183.395382" style="fill: #b22222; stroke: #b22222"/>
     <use xlink:href="#m46c5d2a15c" x="261.567812" y="189.484287" style="fill: #b22222; stroke: #b22222"/>
     <use xlink:href="#m46c5d2a15c" x="255.356947" y="170.076528" style="fill: #b22222; stroke: #b22222"/>
     <use xlink:href="#m46c5d2a15c" x="248.426221" y="170.543727" style="fill: #b22222; stroke: #b22222"/>
     <use xlink:href="#m46c5d2a15c" x="259.612615" y="180.3228" style="fill: #b22222; stroke: #b22222"/>
     <use xlink:href="#m46c5d2a15c" x="296.687247" y="232.097227" style="fill: #b22222; stroke: #b22222"/>
     <use xlink:href="#m46c5d2a15c" x="254.800587" y="227.243501" style="fill: #b22222; stroke: #b22222"/>
     <use xlink:href="#m46c5d2a15c" x="242.886552" y="171.898921" style="fill: #b22222; stroke: #b22222"/>
     <use xlink:href="#m46c5d2a15c" x="279.968316" y="177.479026" style="fill: #b22222; stroke: #b22222"/>
     <use xlink:href="#m46c5d2a15c" x="271.020465" y="185.376678" style="fill: #b22222; stroke: #b22222"/>
     <use xlink:href="#m46c5d2a15c" x="250.32208" y="165.400131" style="fill: #b22222; stroke: #b22222"/>
     <use xlink:href="#m46c5d2a15c" x="383.083809" y="216.089796" style="fill: #b22222; stroke: #b22222"/>
     <use xlink:href="#m46c5d2a15c" x="252.285581" y="170.356753" style="fill: #b22222; stroke: #b22222"/>
     <use xlink:href="#m46c5d2a15c" x="252.208431" y="161.564004" style="fill: #b22222; stroke: #b22222"/>
     <use xlink:href="#m46c5d2a15c" x="292.986425" y="229.476425" style="fill: #b22222; stroke: #b22222"/>
     <use xlink:href="#m46c5d2a15c" x="259.412641" y="192.224185" style="fill: #b22222; stroke: #b22222"/>
    </g>
   </g>
   <g id="patch_4">
    <path d="M 56.450156 450.72 
L 56.450156 7.2 
" style="fill: none; stroke: #ffffff; stroke-width: 1.25; stroke-linejoin: miter; stroke-linecap: square"/>
   </g>
   <g id="patch_5">
    <path d="M 499.970156 450.72 
L 499.970156 7.2 
" style="fill: none; stroke: #ffffff; stroke-width: 1.25; stroke-linejoin: miter; stroke-linecap: square"/>
   </g>
   <g id="patch_6">
    <path d="M 56.450156 450.72 
L 499.970156 450.72 
" style="fill: none; stroke: #ffffff; stroke-width: 1.25; stroke-linejoin: miter; stroke-linecap: square"/>
   </g>
   <g id="patch_7">
    <path d="M 56.450156 7.2 
L 499.970156 7.2 
" style="fill: none; stroke: #ffffff; stroke-width: 1.25; stroke-linejoin: miter; stroke-linecap: square"/>
   </g>
   <g id="text_13">
    <!-- t = 1000 -->
    <g style="fill: #262626" transform="translate(65.320556 24.659775) scale(0.12 -0.12)">
     <defs>
      <path id="ArialMT-74" d="M 1650 503 
L 1731 6 
Q 1494 -44 1306 -44 
Q 1000 -44 831 53 
Q 663 150 594 308 
Q 525 466 525 972 
L 525 2881 
L 113 2881 
L 113 3319 
L 525 3319 
L 525 4141 
L 1084 4478 
L 1084 3319 
L 1650 3319 
L 1650 2881 
L 1084 2881 
L 1084 941 
Q 1084 700 1114 631 
Q 1144 563 1211 522 
Q 1278 481 1403 481 
Q 1497 481 1650 503 
z
" transform="scale(0.015625)"/>
      <path id="ArialMT-20" transform="scale(0.015625)"/>
      <path id="ArialMT-3d" d="M 3381 2694 
L 356 2694 
L 356 3219 
L 3381 3219 
L 3381 2694 
z
M 3381 1303 
L 356 1303 
L 356 1828 
L 3381 1828 
L 3381 1303 
z
" transform="scale(0.015625)"/>
      <path id="ArialMT-31" d="M 2384 0 
L 1822 0 
L 1822 3584 
Q 1619 3391 1289 3197 
Q 959 3003 697 2906 
L 697 3450 
Q 1169 3672 1522 3987 
Q 1875 4303 2022 4600 
L 2384 4600 
L 2384 0 
z
" transform="scale(0.015625)"/>
     </defs>
     <use xlink:href="#ArialMT-74"/>
     <use xlink:href="#ArialMT-20" x="27.783203"/>
     <use xlink:href="#ArialMT-3d" x="55.566406"/>
     <use xlink:href="#ArialMT-20" x="113.964844"/>
     <use xlink:href="#ArialMT-31" x="141.748047"/>
     <use xlink:href="#ArialMT-30" x="197.363281"/>
     <use xlink:href="#ArialMT-30" x="252.978516"/>
     <use xlink:href="#ArialMT-30" x="308.59375"/>
    </g>
   </g>
   <g id="legend_1">
    <g id="patch_8">
     <path d="M 328.111406 94.59 
L 483.170156 94.59 
Q 487.970156 94.59 487.970156 89.79 
L 487.970156 24 
Q 487.970156 19.2 483.170156 19.2 
L 328.111406 19.2 
Q 323.311406 19.2 323.311406 24 
L 323.311406 89.79 
Q 323.311406 94.59 328.111406 94.59 
z
" style="fill: #eaeaf2; opacity: 0.8; stroke: #cccccc; stroke-linejoin: miter"/>
    </g>
    <g id="PathCollection_3">
     <g>
      <use xlink:href="#m4995288590" x="356.911406" y="39.97125" style="fill: #4169e1; stroke: #4169e1"/>
     </g>
    </g>
    <g id="text_14">
     <!-- Sheep -->
     <g style="fill: #262626" transform="translate(400.111406 46.27125) scale(0.24 -0.24)">
      <defs>
       <path id="ArialMT-53" d="M 288 1472 
L 859 1522 
Q 900 1178 1048 958 
Q 1197 738 1509 602 
Q 1822 466 2213 466 
Q 2559 466 2825 569 
Q 3091 672 3220 851 
Q 3350 1031 3350 1244 
Q 3350 1459 3225 1620 
Q 3100 1781 2813 1891 
Q 2628 1963 1997 2114 
Q 1366 2266 1113 2400 
Q 784 2572 623 2826 
Q 463 3081 463 3397 
Q 463 3744 659 4045 
Q 856 4347 1234 4503 
Q 1613 4659 2075 4659 
Q 2584 4659 2973 4495 
Q 3363 4331 3572 4012 
Q 3781 3694 3797 3291 
L 3216 3247 
Q 3169 3681 2898 3903 
Q 2628 4125 2100 4125 
Q 1550 4125 1298 3923 
Q 1047 3722 1047 3438 
Q 1047 3191 1225 3031 
Q 1400 2872 2139 2705 
Q 2878 2538 3153 2413 
Q 3553 2228 3743 1945 
Q 3934 1663 3934 1294 
Q 3934 928 3725 604 
Q 3516 281 3123 101 
Q 2731 -78 2241 -78 
Q 1619 -78 1198 103 
Q 778 284 539 648 
Q 300 1013 288 1472 
z
" transform="scale(0.015625)"/>
       <path id="ArialMT-68" d="M 422 0 
L 422 4581 
L 984 4581 
L 984 2938 
Q 1378 3394 1978 3394 
Q 2347 3394 2619 3248 
Q 2891 3103 3008 2847 
Q 3125 2591 3125 2103 
L 3125 0 
L 2563 0 
L 2563 2103 
Q 2563 2525 2380 2717 
Q 2197 2909 1863 2909 
Q 1613 2909 1392 2779 
Q 1172 2650 1078 2428 
Q 984 2206 984 1816 
L 984 0 
L 422 0 
z
" transform="scale(0.015625)"/>
       <path id="ArialMT-65" d="M 2694 1069 
L 3275 997 
Q 3138 488 2766 206 
Q 2394 -75 1816 -75 
Q 1088 -75 661 373 
Q 234 822 234 1631 
Q 234 2469 665 2931 
Q 1097 3394 1784 3394 
Q 2450 3394 2872 2941 
Q 3294 2488 3294 1666 
Q 3294 1616 3291 1516 
L 816 1516 
Q 847 969 1125 678 
Q 1403 388 1819 388 
Q 2128 388 2347 550 
Q 2566 713 2694 1069 
z
M 847 1978 
L 2700 1978 
Q 2663 2397 2488 2606 
Q 2219 2931 1791 2931 
Q 1403 2931 1139 2672 
Q 875 2413 847 1978 
z
" transform="scale(0.015625)"/>
       <path id="ArialMT-70" d="M 422 -1272 
L 422 3319 
L 934 3319 
L 934 2888 
Q 1116 3141 1344 3267 
Q 1572 3394 1897 3394 
Q 2322 3394 2647 3175 
Q 2972 2956 3137 2557 
Q 3303 2159 3303 1684 
Q 3303 1175 3120 767 
Q 2938 359 2589 142 
Q 2241 -75 1856 -75 
Q 1575 -75 1351 44 
Q 1128 163 984 344 
L 984 -1272 
L 422 -1272 
z
M 931 1641 
Q 931 1000 1190 694 
Q 1450 388 1819 388 
Q 2194 388 2461 705 
Q 2728 1022 2728 1688 
Q 2728 2322 2467 2637 
Q 2206 2953 1844 2953 
Q 1484 2953 1207 2617 
Q 931 2281 931 1641 
z
" transform="scale(0.015625)"/>
      </defs>
      <use xlink:href="#ArialMT-53"/>
      <use xlink:href="#ArialMT-68" x="66.699219"/>
      <use xlink:href="#ArialMT-65" x="122.314453"/>
      <use xlink:href="#ArialMT-65" x="177.929688"/>
      <use xlink:href="#ArialMT-70" x="233.544922"/>
     </g>
    </g>
    <g id="PathCollection_4">
     <g>
      <use xlink:href="#m46c5d2a15c" x="356.911406" y="73.92" style="fill: #b22222; stroke: #b22222"/>
     </g>
    </g>
    <g id="text_15">
     <!-- Wolves -->
     <g style="fill: #262626" transform="translate(400.111406 80.22) scale(0.24 -0.24)">
      <defs>
       <path id="ArialMT-57" d="M 1294 0 
L 78 4581 
L 700 4581 
L 1397 1578 
Q 1509 1106 1591 641 
Q 1766 1375 1797 1488 
L 2669 4581 
L 3400 4581 
L 4056 2263 
Q 4303 1400 4413 641 
Q 4500 1075 4641 1638 
L 5359 4581 
L 5969 4581 
L 4713 0 
L 4128 0 
L 3163 3491 
Q 3041 3928 3019 4028 
Q 2947 3713 2884 3491 
L 1913 0 
L 1294 0 
z
" transform="scale(0.015625)"/>
       <path id="ArialMT-6f" d="M 213 1659 
Q 213 2581 725 3025 
Q 1153 3394 1769 3394 
Q 2453 3394 2887 2945 
Q 3322 2497 3322 1706 
Q 3322 1066 3130 698 
Q 2938 331 2570 128 
Q 2203 -75 1769 -75 
Q 1072 -75 642 372 
Q 213 819 213 1659 
z
M 791 1659 
Q 791 1022 1069 705 
Q 1347 388 1769 388 
Q 2188 388 2466 706 
Q 2744 1025 2744 1678 
Q 2744 2294 2464 2611 
Q 2184 2928 1769 2928 
Q 1347 2928 1069 2612 
Q 791 2297 791 1659 
z
" transform="scale(0.015625)"/>
       <path id="ArialMT-6c" d="M 409 0 
L 409 4581 
L 972 4581 
L 972 0 
L 409 0 
z
" transform="scale(0.015625)"/>
       <path id="ArialMT-76" d="M 1344 0 
L 81 3319 
L 675 3319 
L 1388 1331 
Q 1503 1009 1600 663 
Q 1675 925 1809 1294 
L 2547 3319 
L 3125 3319 
L 1869 0 
L 1344 0 
z
" transform="scale(0.015625)"/>
       <path id="ArialMT-73" d="M 197 991 
L 753 1078 
Q 800 744 1014 566 
Q 1228 388 1613 388 
Q 2000 388 2187 545 
Q 2375 703 2375 916 
Q 2375 1106 2209 1216 
Q 2094 1291 1634 1406 
Q 1016 1563 777 1677 
Q 538 1791 414 1992 
Q 291 2194 291 2438 
Q 291 2659 392 2848 
Q 494 3038 669 3163 
Q 800 3259 1026 3326 
Q 1253 3394 1513 3394 
Q 1903 3394 2198 3281 
Q 2494 3169 2634 2976 
Q 2775 2784 2828 2463 
L 2278 2388 
Q 2241 2644 2061 2787 
Q 1881 2931 1553 2931 
Q 1166 2931 1000 2803 
Q 834 2675 834 2503 
Q 834 2394 903 2306 
Q 972 2216 1119 2156 
Q 1203 2125 1616 2013 
Q 2213 1853 2448 1751 
Q 2684 1650 2818 1456 
Q 2953 1263 2953 975 
Q 2953 694 2789 445 
Q 2625 197 2315 61 
Q 2006 -75 1616 -75 
Q 969 -75 630 194 
Q 291 463 197 991 
z
" transform="scale(0.015625)"/>
      </defs>
      <use xlink:href="#ArialMT-57"/>
      <use xlink:href="#ArialMT-6f" x="92.634766"/>
      <use xlink:href="#ArialMT-6c" x="148.25"/>
      <use xlink:href="#ArialMT-76" x="170.466797"/>
      <use xlink:href="#ArialMT-65" x="220.466797"/>
      <use xlink:href="#ArialMT-73" x="276.082031"/>
     </g>
    </g>
   </g>
  </g>
 </g>
 <defs>
  <clipPath id="p166c2dbcea">
   <rect x="56.450156" y="7.2" width="443.52" height="443.52"/>
  </clipPath>
 </defs>
</svg>
