<?xml version="1.0" encoding="utf-8" standalone="no"?>
<!DOCTYPE svg PUBLIC "-//W3C//DTD SVG 1.1//EN"
  "http://www.w3.org/Graphics/SVG/1.1/DTD/svg11.dtd">
<svg xmlns:xlink="http://www.w3.org/1999/xlink" width="507.170156pt" height="492.454219pt" viewBox="0 0 507.170156 492.454219" xmlns="http://www.w3.org/2000/svg" version="1.1">
 <metadata>
  <rdf:RDF xmlns:dc="http://purl.org/dc/elements/1.1/" xmlns:cc="http://creativecommons.org/ns#" xmlns:rdf="http://www.w3.org/1999/02/22-rdf-syntax-ns#">
   <cc:Work>
    <dc:type rdf:resource="http://purl.org/dc/dcmitype/StillImage"/>
    <dc:date>2026-05-12T10:49:55.727181</dc:date>
    <dc:format>image/svg+xml</dc:format>
    <dc:creator>
     <cc:Agent>
      <dc:title>Matplotlib v3.7.1, https://matplotlib.org/</dc:title>
     </cc:Agent>
    </dc:creator>
   </cc:Work>
  </rdf:RDF>
 </metadata>
 <defs>
  <style type="text/css">*{stroke-linejoin: round; stroke-linecap: butt}</style>
 </defs>
 <g id="figure_1">
  <g id="patch_1">
   <path d="M 0 492.454219 
L 507.170156 492.454219 
L 507.170156 0 
L 0 0 
z
" style="fill: #ffffff"/>
  </g>
  <g id="axes_1">
   <g id="patch_2">
    <path d="M 56.450156 450.72 
L 499.970156 450.72 
L 499.970156 7.2 
L 56.450156 7.2 
z
" style="fill: #eaeaf2"/>
   </g>
   <g id="matplotlib.axis_1">
    <g id="xtick_1">
     <g id="line2d_1">
      <path d="M 100.802156 450.72 
L 100.802156 7.2 
" clip-path="url(#p22069567f5)" style="fill: none; stroke: #ffffff; stroke-linecap: round"/>
     </g>
     <g id="text_1">
      <!-- −400 -->
      <g style="fill: #262626" transform="translate(88.414266 468.093594) scale(0.11 -0.11)">
       <defs>
        <path id="ArialMT-2212" d="M 3381 1997 
L 356 1997 
L 356 2522 
L 3381 2522 
L 3381 1997 
z
" transform="scale(0.015625)"/>
        <path id="ArialMT-34" d="M 2069 0 
L 2069 1097 
L 81 1097 
L 81 1613 
L 2172 4581 
L 2631 4581 
L 2631 1613 
L 3250 1613 
L 3250 1097 
L 2631 1097 
L 2631 0 
L 2069 0 
z
M 2069 1613 
L 2069 3678 
L 634 1613 
L 2069 1613 
z
" transform="scale(0.015625)"/>
        <path id="ArialMT-30" d="M 266 2259 
Q 266 3072 433 3567 
Q 600 4063 929 4331 
Q 1259 4600 1759 4600 
Q 2128 4600 2406 4451 
Q 2684 4303 2865 4023 
Q 3047 3744 3150 3342 
Q 3253 2941 3253 2259 
Q 3253 1453 3087 958 
Q 2922 463 2592 192 
Q 2263 -78 1759 -78 
Q 1097 -78 719 397 
Q 266 969 266 2259 
z
M 844 2259 
Q 844 1131 1108 757 
Q 1372 384 1759 384 
Q 2147 384 2411 759 
Q 2675 1134 2675 2259 
Q 2675 3391 2411 3762 
Q 2147 4134 1753 4134 
Q 1366 4134 1134 3806 
Q 844 3388 844 2259 
z
" transform="scale(0.015625)"/>
       </defs>
       <use xlink:href="#ArialMT-2212"/>
       <use xlink:href="#ArialMT-34" x="58.398438"/>
       <use xlink:href="#ArialMT-30" x="114.013672"/>
       <use xlink:href="#ArialMT-30" x="169.628906"/>
      </g>
     </g>
    </g>
    <g id="xtick_2">
     <g id="line2d_2">
      <path d="M 189.506156 450.72 
L 189.506156 7.2 
" clip-path="url(#p22069567f5)" style="fill: none; stroke: #ffffff; stroke-linecap: round"/>
     </g>
     <g id="text_2">
      <!-- −200 -->
      <g style="fill: #262626" transform="translate(177.118266 468.093594) scale(0.11 -0.11)">
       <defs>
        <path id="ArialMT-32" d="M 3222 541 
L 3222 0 
L 194 0 
Q 188 203 259 391 
Q 375 700 629 1000 
Q 884 1300 1366 1694 
Q 2113 2306 2375 2664 
Q 2638 3022 2638 3341 
Q 2638 3675 2398 3904 
Q 2159 4134 1775 4134 
Q 1369 4134 1125 3890 
Q 881 3647 878 3216 
L 300 3275 
Q 359 3922 746 4261 
Q 1134 4600 1788 4600 
Q 2447 4600 2831 4234 
Q 3216 3869 3216 3328 
Q 3216 3053 3103 2787 
Q 2991 2522 2730 2228 
Q 2469 1934 1863 1422 
Q 1356 997 1212 845 
Q 1069 694 975 541 
L 3222 541 
z
" transform="scale(0.015625)"/>
       </defs>
       <use xlink:href="#ArialMT-2212"/>
       <use xlink:href="#ArialMT-32" x="58.398438"/>
       <use xlink:href="#ArialMT-30" x="114.013672"/>
       <use xlink:href="#ArialMT-30" x="169.628906"/>
      </g>
     </g>
    </g>
    <g id="xtick_3">
     <g id="line2d_3">
      <path d="M 278.210156 450.72 
L 278.210156 7.2 
" clip-path="url(#p22069567f5)" style="fill: none; stroke: #ffffff; stroke-linecap: round"/>
     </g>
     <g id="text_3">
      <!-- 0 -->
      <g style="fill: #262626" transform="translate(275.151641 468.093594) scale(0.11 -0.11)">
       <use xlink:href="#ArialMT-30"/>
      </g>
     </g>
    </g>
    <g id="xtick_4">
     <g id="line2d_4">
      <path d="M 366.914156 450.72 
L 366.914156 7.2 
" clip-path="url(#p22069567f5)" style="fill: none; stroke: #ffffff; stroke-linecap: round"/>
     </g>
     <g id="text_4">
      <!-- 200 -->
      <g style="fill: #262626" transform="translate(357.738609 468.093594) scale(0.11 -0.11)">
       <use xlink:href="#ArialMT-32"/>
       <use xlink:href="#ArialMT-30" x="55.615234"/>
       <use xlink:href="#ArialMT-30" x="111.230469"/>
      </g>
     </g>
    </g>
    <g id="xtick_5">
     <g id="line2d_5">
      <path d="M 455.618156 450.72 
L 455.618156 7.2 
" clip-path="url(#p22069567f5)" style="fill: none; stroke: #ffffff; stroke-linecap: round"/>
     </g>
     <g id="text_5">
      <!-- 400 -->
      <g style="fill: #262626" transform="translate(446.442609 468.093594) scale(0.11 -0.11)">
       <use xlink:href="#ArialMT-34"/>
       <use xlink:href="#ArialMT-30" x="55.615234"/>
       <use xlink:href="#ArialMT-30" x="111.230469"/>
      </g>
     </g>
    </g>
    <g id="text_6">
     <!-- x -->
     <g style="fill: #262626" transform="translate(275.210156 482.869219) scale(0.12 -0.12)">
      <defs>
       <path id="ArialMT-78" d="M 47 0 
L 1259 1725 
L 138 3319 
L 841 3319 
L 1350 2541 
Q 1494 2319 1581 2169 
Q 1719 2375 1834 2534 
L 2394 3319 
L 3066 3319 
L 1919 1756 
L 3153 0 
L 2463 0 
L 1781 1031 
L 1600 1309 
L 728 0 
L 47 0 
z
" transform="scale(0.015625)"/>
      </defs>
      <use xlink:href="#ArialMT-78"/>
     </g>
    </g>
   </g>
   <g id="matplotlib.axis_2">
    <g id="ytick_1">
     <g id="line2d_6">
      <path d="M 56.450156 406.368 
L 499.970156 406.368 
" clip-path="url(#p22069567f5)" style="fill: none; stroke: #ffffff; stroke-linecap: round"/>
     </g>
     <g id="text_7">
      <!-- −400 -->
      <g style="fill: #262626" transform="translate(22.174375 410.304797) scale(0.11 -0.11)">
       <use xlink:href="#ArialMT-2212"/>
       <use xlink:href="#ArialMT-34" x="58.398438"/>
       <use xlink:href="#ArialMT-30" x="114.013672"/>
       <use xlink:href="#ArialMT-30" x="169.628906"/>
      </g>
     </g>
    </g>
    <g id="ytick_2">
     <g id="line2d_7">
      <path d="M 56.450156 317.664 
L 499.970156 317.664 
" clip-path="url(#p22069567f5)" style="fill: none; stroke: #ffffff; stroke-linecap: round"/>
     </g>
     <g id="text_8">
      <!-- −200 -->
      <g style="fill: #262626" transform="translate(22.174375 321.600797) scale(0.11 -0.11)">
       <use xlink:href="#ArialMT-2212"/>
       <use xlink:href="#ArialMT-32" x="58.398438"/>
       <use xlink:href="#ArialMT-30" x="114.013672"/>
       <use xlink:href="#ArialMT-30" x="169.628906"/>
      </g>
     </g>
    </g>
    <g id="ytick_3">
     <g id="line2d_8">
      <path d="M 56.450156 228.96 
L 499.970156 228.96 
" clip-path="url(#p22069567f5)" style="fill: none; stroke: #ffffff; stroke-linecap: round"/>
     </g>
     <g id="text_9">
      <!-- 0 -->
      <g style="fill: #262626" transform="translate(40.833125 232.896797) scale(0.11 -0.11)">
       <use xlink:href="#ArialMT-30"/>
      </g>
     </g>
    </g>
    <g id="ytick_4">
     <g id="line2d_9">
      <path d="M 56.450156 140.256 
L 499.970156 140.256 
" clip-path="url(#p22069567f5)" style="fill: none; stroke: #ffffff; stroke-linecap: round"/>
     </g>
     <g id="text_10">
      <!-- 200 -->
      <g style="fill: #262626" transform="translate(28.599063 144.192797) scale(0.11 -0.11)">
       <use xlink:href="#ArialMT-32"/>
       <use xlink:href="#ArialMT-30" x="55.615234"/>
       <use xlink:href="#ArialMT-30" x="111.230469"/>
      </g>
     </g>
    </g>
    <g id="ytick_5">
     <g id="line2d_10">
      <path d="M 56.450156 51.552 
L 499.970156 51.552 
" clip-path="url(#p22069567f5)" style="fill: none; stroke: #ffffff; stroke-linecap: round"/>
     </g>
     <g id="text_11">
      <!-- 400 -->
      <g style="fill: #262626" transform="translate(28.599063 55.488797) scale(0.11 -0.11)">
       <use xlink:href="#ArialMT-34"/>
       <use xlink:href="#ArialMT-30" x="55.615234"/>
       <use xlink:href="#ArialMT-30" x="111.230469"/>
      </g>
     </g>
    </g>
    <g id="text_12">
     <!-- y -->
     <g style="fill: #262626" transform="translate(15.64875 231.96) rotate(-90) scale(0.12 -0.12)">
      <defs>
       <path id="ArialMT-79" d="M 397 -1278 
L 334 -750 
Q 519 -800 656 -800 
Q 844 -800 956 -737 
Q 1069 -675 1141 -563 
Q 1194 -478 1313 -144 
Q 1328 -97 1363 -6 
L 103 3319 
L 709 3319 
L 1400 1397 
Q 1534 1031 1641 628 
Q 1738 1016 1872 1384 
L 2581 3319 
L 3144 3319 
L 1881 -56 
Q 1678 -603 1566 -809 
Q 1416 -1088 1222 -1217 
Q 1028 -1347 759 -1347 
Q 597 -1347 397 -1278 
z
" transform="scale(0.015625)"/>
      </defs>
      <use xlink:href="#ArialMT-79"/>
     </g>
    </g>
   </g>
   <g id="patch_3">
    <path d="M 278.210156 317.664 
C 301.734732 317.664 324.298969 308.317587 340.933356 291.6832 
C 357.567743 275.048813 366.914156 252.484576 366.914156 228.96 
C 366.914156 205.435424 357.567743 182.871187 340.933356 166.2368 
C 324.298969 149.602413 301.734732 140.256 278.210156 140.256 
C 254.68558 140.256 232.121343 149.602413 215.486956 166.2368 
C 198.852569 182.871187 189.506156 205.435424 189.506156 228.96 
C 189.506156 252.484576 198.852569 275.048813 215.486956 291.6832 
C 232.121343 308.317587 254.68558 317.664 278.210156 317.664 
z
" clip-path="url(#p22069567f5)" style="fill: #228b22; opacity: 0.12; stroke: #228b22; stroke-width: 1.5; stroke-linejoin: miter"/>
   </g>
   <g id="PathCollection_1">
    <defs>
     <path id="m359df659f1" d="M 0 2.236068 
C 0.593012 2.236068 1.161816 2.000462 1.581139 1.581139 
C 2.000462 1.161816 2.236068 0.593012 2.236068 0 
C 2.236068 -0.593012 2.000462 -1.161816 1.581139 -1.581139 
C 1.161816 -2.000462 0.593012 -2.236068 0 -2.236068 
C -0.593012 -2.236068 -1.161816 -2.000462 -1.581139 -1.581139 
C -2.000462 -1.161816 -2.236068 -0.593012 -2.236068 0 
C -2.236068 0.593012 -2.000462 1.161816 -1.581139 1.581139 
C -1.161816 2.000462 -0.593012 2.236068 0 2.236068 
z
" style="stroke: #4169e1"/>
    </defs>
    <g clip-path="url(#p22069567f5)">
     <use xlink:href="#m359df659f1" x="352.492677" y="156.986522" style="fill: #4169e1; stroke: #4169e1"/>
     <use xlink:href="#m359df659f1" x="239.547273" y="245.998305" style="fill: #4169e1; stroke: #4169e1"/>
     <use xlink:href="#m359df659f1" x="380.366694" y="264.326544" style="fill: #4169e1; stroke: #4169e1"/>
     <use xlink:href="#m359df659f1" x="287.674425" y="335.302867" style="fill: #4169e1; stroke: #4169e1"/>
     <use xlink:href="#m359df659f1" x="204.262387" y="264.573426" style="fill: #4169e1; stroke: #4169e1"/>
     <use xlink:href="#m359df659f1" x="282.552194" y="226.729183" style="fill: #4169e1; stroke: #4169e1"/>
     <use xlink:href="#m359df659f1" x="171.421421" y="123.08457" style="fill: #4169e1; stroke: #4169e1"/>
     <use xlink:href="#m359df659f1" x="367.167196" y="251.784104" style="fill: #4169e1; stroke: #4169e1"/>
     <use xlink:href="#m359df659f1" x="319.748657" y="248.594226" style="fill: #4169e1; stroke: #4169e1"/>
     <use xlink:href="#m359df659f1" x="306.605804" y="328.809348" style="fill: #4169e1; stroke: #4169e1"/>
     <use xlink:href="#m359df659f1" x="176.76347" y="335.015008" style="fill: #4169e1; stroke: #4169e1"/>
     <use xlink:href="#m359df659f1" x="247.396263" y="119.575296" style="fill: #4169e1; stroke: #4169e1"/>
     <use xlink:href="#m359df659f1" x="322.388771" y="129.180655" style="fill: #4169e1; stroke: #4169e1"/>
     <use xlink:href="#m359df659f1" x="249.629828" y="235.699053" style="fill: #4169e1; stroke: #4169e1"/>
     <use xlink:href="#m359df659f1" x="222.216853" y="166.025435" style="fill: #4169e1; stroke: #4169e1"/>
     <use xlink:href="#m359df659f1" x="252.417806" y="210.384528" style="fill: #4169e1; stroke: #4169e1"/>
     <use xlink:href="#m359df659f1" x="385.535757" y="317.365509" style="fill: #4169e1; stroke: #4169e1"/>
     <use xlink:href="#m359df659f1" x="331.062695" y="248.007112" style="fill: #4169e1; stroke: #4169e1"/>
     <use xlink:href="#m359df659f1" x="269.693687" y="189.043741" style="fill: #4169e1; stroke: #4169e1"/>
     <use xlink:href="#m359df659f1" x="384.357562" y="215.088739" style="fill: #4169e1; stroke: #4169e1"/>
     <use xlink:href="#m359df659f1" x="265.342053" y="265.26227" style="fill: #4169e1; stroke: #4169e1"/>
     <use xlink:href="#m359df659f1" x="299.953965" y="240.041726" style="fill: #4169e1; stroke: #4169e1"/>
     <use xlink:href="#m359df659f1" x="333.770998" y="134.10258" style="fill: #4169e1; stroke: #4169e1"/>
     <use xlink:href="#m359df659f1" x="266.94111" y="259.653904" style="fill: #4169e1; stroke: #4169e1"/>
     <use xlink:href="#m359df659f1" x="266.011834" y="335.534737" style="fill: #4169e1; stroke: #4169e1"/>
     <use xlink:href="#m359df659f1" x="357.84977" y="133.173784" style="fill: #4169e1; stroke: #4169e1"/>
     <use xlink:href="#m359df659f1" x="251.939027" y="119.088315" style="fill: #4169e1; stroke: #4169e1"/>
     <use xlink:href="#m359df659f1" x="208.002272" y="328.857358" style="fill: #4169e1; stroke: #4169e1"/>
     <use xlink:href="#m359df659f1" x="235.811015" y="183.927818" style="fill: #4169e1; stroke: #4169e1"/>
     <use xlink:href="#m359df659f1" x="272.5256" y="209.729318" style="fill: #4169e1; stroke: #4169e1"/>
     <use xlink:href="#m359df659f1" x="340.717511" y="211.374367" style="fill: #4169e1; stroke: #4169e1"/>
     <use xlink:href="#m359df659f1" x="337.151769" y="147.187015" style="fill: #4169e1; stroke: #4169e1"/>
     <use xlink:href="#m359df659f1" x="192.335566" y="187.957545" style="fill: #4169e1; stroke: #4169e1"/>
     <use xlink:href="#m359df659f1" x="231.113599" y="240.757344" style="fill: #4169e1; stroke: #4169e1"/>
     <use xlink:href="#m359df659f1" x="254.007659" y="237.13989" style="fill: #4169e1; stroke: #4169e1"/>
     <use xlink:href="#m359df659f1" x="368.957559" y="122.563304" style="fill: #4169e1; stroke: #4169e1"/>
     <use xlink:href="#m359df659f1" x="374.895906" y="331.682903" style="fill: #4169e1; stroke: #4169e1"/>
     <use xlink:href="#m359df659f1" x="185.761046" y="173.118385" style="fill: #4169e1; stroke: #4169e1"/>
     <use xlink:href="#m359df659f1" x="258.272952" y="334.359981" style="fill: #4169e1; stroke: #4169e1"/>
     <use xlink:href="#m359df659f1" x="264.451115" y="319.1108" style="fill: #4169e1; stroke: #4169e1"/>
     <use xlink:href="#m359df659f1" x="341.173267" y="282.62523" style="fill: #4169e1; stroke: #4169e1"/>
     <use xlink:href="#m359df659f1" x="211.774899" y="310.614661" style="fill: #4169e1; stroke: #4169e1"/>
     <use xlink:href="#m359df659f1" x="343.399137" y="322.048565" style="fill: #4169e1; stroke: #4169e1"/>
     <use xlink:href="#m359df659f1" x="193.894728" y="253.153936" style="fill: #4169e1; stroke: #4169e1"/>
     <use xlink:href="#m359df659f1" x="244.001795" y="165.095286" style="fill: #4169e1; stroke: #4169e1"/>
     <use xlink:href="#m359df659f1" x="242.388309" y="191.990548" style="fill: #4169e1; stroke: #4169e1"/>
     <use xlink:href="#m359df659f1" x="281.740531" y="246.012449" style="fill: #4169e1; stroke: #4169e1"/>
     <use xlink:href="#m359df659f1" x="268.572144" y="276.149239" style="fill: #4169e1; stroke: #4169e1"/>
     <use xlink:href="#m359df659f1" x="376.808504" y="281.674067" style="fill: #4169e1; stroke: #4169e1"/>
     <use xlink:href="#m359df659f1" x="305.229211" y="230.180066" style="fill: #4169e1; stroke: #4169e1"/>
     <use xlink:href="#m359df659f1" x="183.76501" y="178.775661" style="fill: #4169e1; stroke: #4169e1"/>
     <use xlink:href="#m359df659f1" x="307.890318" y="183.060485" style="fill: #4169e1; stroke: #4169e1"/>
     <use xlink:href="#m359df659f1" x="241.826201" y="236.274723" style="fill: #4169e1; stroke: #4169e1"/>
     <use xlink:href="#m359df659f1" x="259.690543" y="151.550479" style="fill: #4169e1; stroke: #4169e1"/>
     <use xlink:href="#m359df659f1" x="179.258676" y="282.832751" style="fill: #4169e1; stroke: #4169e1"/>
     <use xlink:href="#m359df659f1" x="346.899491" y="325.092547" style="fill: #4169e1; stroke: #4169e1"/>
     <use xlink:href="#m359df659f1" x="186.908624" y="133.146267" style="fill: #4169e1; stroke: #4169e1"/>
     <use xlink:href="#m359df659f1" x="227.466192" y="188.187318" style="fill: #4169e1; stroke: #4169e1"/>
     <use xlink:href="#m359df659f1" x="372.593156" y="208.512101" style="fill: #4169e1; stroke: #4169e1"/>
     <use xlink:href="#m359df659f1" x="237.505157" y="180.308707" style="fill: #4169e1; stroke: #4169e1"/>
     <use xlink:href="#m359df659f1" x="349.049225" y="147.551639" style="fill: #4169e1; stroke: #4169e1"/>
     <use xlink:href="#m359df659f1" x="292.564853" y="153.271487" style="fill: #4169e1; stroke: #4169e1"/>
     <use xlink:href="#m359df659f1" x="186.42567" y="122.321133" style="fill: #4169e1; stroke: #4169e1"/>
     <use xlink:href="#m359df659f1" x="244.332932" y="266.459814" style="fill: #4169e1; stroke: #4169e1"/>
     <use xlink:href="#m359df659f1" x="181.384724" y="315.445601" style="fill: #4169e1; stroke: #4169e1"/>
     <use xlink:href="#m359df659f1" x="180.470363" y="169.219312" style="fill: #4169e1; stroke: #4169e1"/>
     <use xlink:href="#m359df659f1" x="258.441878" y="235.351714" style="fill: #4169e1; stroke: #4169e1"/>
     <use xlink:href="#m359df659f1" x="299.970465" y="238.089118" style="fill: #4169e1; stroke: #4169e1"/>
     <use xlink:href="#m359df659f1" x="340.712341" y="323.4208" style="fill: #4169e1; stroke: #4169e1"/>
     <use xlink:href="#m359df659f1" x="184.195198" y="274.743248" style="fill: #4169e1; stroke: #4169e1"/>
     <use xlink:href="#m359df659f1" x="194.786857" y="231.783109" style="fill: #4169e1; stroke: #4169e1"/>
     <use xlink:href="#m359df659f1" x="288.508637" y="236.833367" style="fill: #4169e1; stroke: #4169e1"/>
     <use xlink:href="#m359df659f1" x="238.710767" y="210.610348" style="fill: #4169e1; stroke: #4169e1"/>
     <use xlink:href="#m359df659f1" x="247.608704" y="283.936658" style="fill: #4169e1; stroke: #4169e1"/>
     <use xlink:href="#m359df659f1" x="261.944729" y="147.613264" style="fill: #4169e1; stroke: #4169e1"/>
     <use xlink:href="#m359df659f1" x="339.617996" y="316.547505" style="fill: #4169e1; stroke: #4169e1"/>
     <use xlink:href="#m359df659f1" x="204.613353" y="212.542383" style="fill: #4169e1; stroke: #4169e1"/>
     <use xlink:href="#m359df659f1" x="181.458849" y="127.704525" style="fill: #4169e1; stroke: #4169e1"/>
     <use xlink:href="#m359df659f1" x="254.815566" y="182.045375" style="fill: #4169e1; stroke: #4169e1"/>
     <use xlink:href="#m359df659f1" x="297.024267" y="322.016581" style="fill: #4169e1; stroke: #4169e1"/>
     <use xlink:href="#m359df659f1" x="194.727478" y="227.409825" style="fill: #4169e1; stroke: #4169e1"/>
     <use xlink:href="#m359df659f1" x="274.128352" y="148.925065" style="fill: #4169e1; stroke: #4169e1"/>
     <use xlink:href="#m359df659f1" x="184.541353" y="120.181198" style="fill: #4169e1; stroke: #4169e1"/>
     <use xlink:href="#m359df659f1" x="361.942815" y="210.448156" style="fill: #4169e1; stroke: #4169e1"/>
     <use xlink:href="#m359df659f1" x="280.863419" y="183.314377" style="fill: #4169e1; stroke: #4169e1"/>
     <use xlink:href="#m359df659f1" x="217.800453" y="243.133874" style="fill: #4169e1; stroke: #4169e1"/>
     <use xlink:href="#m359df659f1" x="260.873712" y="206.208269" style="fill: #4169e1; stroke: #4169e1"/>
     <use xlink:href="#m359df659f1" x="385.58405" y="235.311873" style="fill: #4169e1; stroke: #4169e1"/>
     <use xlink:href="#m359df659f1" x="248.374598" y="336.341744" style="fill: #4169e1; stroke: #4169e1"/>
     <use xlink:href="#m359df659f1" x="272.864433" y="140.720716" style="fill: #4169e1; stroke: #4169e1"/>
     <use xlink:href="#m359df659f1" x="315.82782" y="254.909615" style="fill: #4169e1; stroke: #4169e1"/>
     <use xlink:href="#m359df659f1" x="335.135856" y="214.724562" style="fill: #4169e1; stroke: #4169e1"/>
     <use xlink:href="#m359df659f1" x="258.925042" y="256.890005" style="fill: #4169e1; stroke: #4169e1"/>
     <use xlink:href="#m359df659f1" x="247.722718" y="158.960354" style="fill: #4169e1; stroke: #4169e1"/>
     <use xlink:href="#m359df659f1" x="323.650748" y="311.893286" style="fill: #4169e1; stroke: #4169e1"/>
     <use xlink:href="#m359df659f1" x="352.141034" y="195.222378" style="fill: #4169e1; stroke: #4169e1"/>
     <use xlink:href="#m359df659f1" x="301.623919" y="186.080733" style="fill: #4169e1; stroke: #4169e1"/>
     <use xlink:href="#m359df659f1" x="306.415013" y="290.178266" style="fill: #4169e1; stroke: #4169e1"/>
     <use xlink:href="#m359df659f1" x="277.609134" y="244.267233" style="fill: #4169e1; stroke: #4169e1"/>
     <use xlink:href="#m359df659f1" x="240.942795" y="296.888266" style="fill: #4169e1; stroke: #4169e1"/>
     <use xlink:href="#m359df659f1" x="301.020495" y="309.27135" style="fill: #4169e1; stroke: #4169e1"/>
     <use xlink:href="#m359df659f1" x="317.060183" y="292.710877" style="fill: #4169e1; stroke: #4169e1"/>
     <use xlink:href="#m359df659f1" x="291.439662" y="288.033371" style="fill: #4169e1; stroke: #4169e1"/>
     <use xlink:href="#m359df659f1" x="343.917574" y="332.001899" style="fill: #4169e1; stroke: #4169e1"/>
     <use xlink:href="#m359df659f1" x="355.998147" y="173.772756" style="fill: #4169e1; stroke: #4169e1"/>
     <use xlink:href="#m359df659f1" x="347.484832" y="275.676328" style="fill: #4169e1; stroke: #4169e1"/>
     <use xlink:href="#m359df659f1" x="306.337822" y="308.613095" style="fill: #4169e1; stroke: #4169e1"/>
     <use xlink:href="#m359df659f1" x="230.652246" y="241.197974" style="fill: #4169e1; stroke: #4169e1"/>
     <use xlink:href="#m359df659f1" x="338.535793" y="174.047682" style="fill: #4169e1; stroke: #4169e1"/>
     <use xlink:href="#m359df659f1" x="237.813982" y="323.092883" style="fill: #4169e1; stroke: #4169e1"/>
     <use xlink:href="#m359df659f1" x="256.072325" y="171.233885" style="fill: #4169e1; stroke: #4169e1"/>
     <use xlink:href="#m359df659f1" x="271.071363" y="262.049227" style="fill: #4169e1; stroke: #4169e1"/>
     <use xlink:href="#m359df659f1" x="367.242194" y="222.459822" style="fill: #4169e1; stroke: #4169e1"/>
     <use xlink:href="#m359df659f1" x="323.647946" y="223.920564" style="fill: #4169e1; stroke: #4169e1"/>
     <use xlink:href="#m359df659f1" x="249.269854" y="334.16837" style="fill: #4169e1; stroke: #4169e1"/>
     <use xlink:href="#m359df659f1" x="225.005995" y="307.351341" style="fill: #4169e1; stroke: #4169e1"/>
     <use xlink:href="#m359df659f1" x="321.354387" y="138.036261" style="fill: #4169e1; stroke: #4169e1"/>
     <use xlink:href="#m359df659f1" x="367.23498" y="321.670325" style="fill: #4169e1; stroke: #4169e1"/>
     <use xlink:href="#m359df659f1" x="209.972301" y="181.912595" style="fill: #4169e1; stroke: #4169e1"/>
     <use xlink:href="#m359df659f1" x="378.401633" y="129.642272" style="fill: #4169e1; stroke: #4169e1"/>
     <use xlink:href="#m359df659f1" x="288.933276" y="234.006712" style="fill: #4169e1; stroke: #4169e1"/>
     <use xlink:href="#m359df659f1" x="203.940189" y="332.098209" style="fill: #4169e1; stroke: #4169e1"/>
     <use xlink:href="#m359df659f1" x="317.241798" y="266.294746" style="fill: #4169e1; stroke: #4169e1"/>
     <use xlink:href="#m359df659f1" x="206.037346" y="134.998309" style="fill: #4169e1; stroke: #4169e1"/>
     <use xlink:href="#m359df659f1" x="360.129835" y="248.517319" style="fill: #4169e1; stroke: #4169e1"/>
     <use xlink:href="#m359df659f1" x="248.999198" y="179.153318" style="fill: #4169e1; stroke: #4169e1"/>
     <use xlink:href="#m359df659f1" x="219.643061" y="258.612935" style="fill: #4169e1; stroke: #4169e1"/>
     <use xlink:href="#m359df659f1" x="361.418477" y="319.932113" style="fill: #4169e1; stroke: #4169e1"/>
     <use xlink:href="#m359df659f1" x="280.526096" y="223.191113" style="fill: #4169e1; stroke: #4169e1"/>
     <use xlink:href="#m359df659f1" x="384.282076" y="277.101587" style="fill: #4169e1; stroke: #4169e1"/>
     <use xlink:href="#m359df659f1" x="308.957619" y="249.248644" style="fill: #4169e1; stroke: #4169e1"/>
     <use xlink:href="#m359df659f1" x="300.831842" y="253.597422" style="fill: #4169e1; stroke: #4169e1"/>
     <use xlink:href="#m359df659f1" x="245.227383" y="276.76781" style="fill: #4169e1; stroke: #4169e1"/>
     <use xlink:href="#m359df659f1" x="276.054019" y="173.362261" style="fill: #4169e1; stroke: #4169e1"/>
     <use xlink:href="#m359df659f1" x="239.257323" y="203.524396" style="fill: #4169e1; stroke: #4169e1"/>
     <use xlink:href="#m359df659f1" x="316.685476" y="189.092062" style="fill: #4169e1; stroke: #4169e1"/>
     <use xlink:href="#m359df659f1" x="332.238277" y="331.277004" style="fill: #4169e1; stroke: #4169e1"/>
     <use xlink:href="#m359df659f1" x="252.745005" y="328.54655" style="fill: #4169e1; stroke: #4169e1"/>
     <use xlink:href="#m359df659f1" x="339.127685" y="206.031161" style="fill: #4169e1; stroke: #4169e1"/>
     <use xlink:href="#m359df659f1" x="253.584367" y="206.754683" style="fill: #4169e1; stroke: #4169e1"/>
     <use xlink:href="#m359df659f1" x="230.054527" y="191.012105" style="fill: #4169e1; stroke: #4169e1"/>
     <use xlink:href="#m359df659f1" x="192.591698" y="126.536481" style="fill: #4169e1; stroke: #4169e1"/>
     <use xlink:href="#m359df659f1" x="223.26403" y="144.427765" style="fill: #4169e1; stroke: #4169e1"/>
     <use xlink:href="#m359df659f1" x="296.344328" y="221.264424" style="fill: #4169e1; stroke: #4169e1"/>
     <use xlink:href="#m359df659f1" x="368.835512" y="120.670873" style="fill: #4169e1; stroke: #4169e1"/>
     <use xlink:href="#m359df659f1" x="173.923997" y="191.591315" style="fill: #4169e1; stroke: #4169e1"/>
     <use xlink:href="#m359df659f1" x="331.960035" y="253.161333" style="fill: #4169e1; stroke: #4169e1"/>
     <use xlink:href="#m359df659f1" x="372.362287" y="178.758579" style="fill: #4169e1; stroke: #4169e1"/>
     <use xlink:href="#m359df659f1" x="188.818726" y="123.92245" style="fill: #4169e1; stroke: #4169e1"/>
     <use xlink:href="#m359df659f1" x="339.502419" y="164.814458" style="fill: #4169e1; stroke: #4169e1"/>
    </g>
   </g>
   <g id="PathCollection_2">
    <defs>
     <path id="m77eda0b382" d="M 0 2.5 
C 0.663008 2.5 1.29895 2.236584 1.767767 1.767767 
C 2.236584 1.29895 2.5 0.663008 2.5 0 
C 2.5 -0.663008 2.236584 -1.29895 1.767767 -1.767767 
C 1.29895 -2.236584 0.663008 -2.5 0 -2.5 
C -0.663008 -2.5 -1.29895 -2.236584 -1.767767 -1.767767 
C -2.236584 -1.29895 -2.5 -0.663008 -2.5 0 
C -2.5 0.663008 -2.236584 1.29895 -1.767767 1.767767 
C -1.29895 2.236584 -0.663008 2.5 0 2.5 
z
" style="stroke: #b22222"/>
    </defs>
    <g clip-path="url(#p22069567f5)">
     <use xlink:href="#m77eda0b382" x="357.737929" y="287.177191" style="fill: #b22222; stroke: #b22222"/>
     <use xlink:href="#m77eda0b382" x="167.464554" y="132.325941" style="fill: #b22222; stroke: #b22222"/>
     <use xlink:href="#m77eda0b382" x="167.800794" y="331.002572" style="fill: #b22222; stroke: #b22222"/>
     <use xlink:href="#m77eda0b382" x="219.575914" y="129.34952" style="fill: #b22222; stroke: #b22222"/>
     <use xlink:href="#m77eda0b382" x="301.043247" y="251.430816" style="fill: #b22222; stroke: #b22222"/>
     <use xlink:href="#m77eda0b382" x="244.9124" y="124.664488" style="fill: #b22222; stroke: #b22222"/>
     <use xlink:href="#m77eda0b382" x="323.038039" y="147.86824" style="fill: #b22222; stroke: #b22222"/>
     <use xlink:href="#m77eda0b382" x="283.296303" y="321.173273" style="fill: #b22222; stroke: #b22222"/>
     <use xlink:href="#m77eda0b382" x="306.685635" y="277.196387" style="fill: #b22222; stroke: #b22222"/>
     <use xlink:href="#m77eda0b382" x="268.365022" y="288.503291" style="fill: #b22222; stroke: #b22222"/>
     <use xlink:href="#m77eda0b382" x="229.900091" y="154.802814" style="fill: #b22222; stroke: #b22222"/>
     <use xlink:href="#m77eda0b382" x="198.945534" y="182.337789" style="fill: #b22222; stroke: #b22222"/>
     <use xlink:href="#m77eda0b382" x="230.650683" y="151.527699" style="fill: #b22222; stroke: #b22222"/>
     <use xlink:href="#m77eda0b382" x="376.055002" y="119.705626" style="fill: #b22222; stroke: #b22222"/>
     <use xlink:href="#m77eda0b382" x="340.894185" y="191.130484" style="fill: #b22222; stroke: #b22222"/>
     <use xlink:href="#m77eda0b382" x="245.325465" y="253.156894" style="fill: #b22222; stroke: #b22222"/>
     <use xlink:href="#m77eda0b382" x="192.494495" y="234.617668" style="fill: #b22222; stroke: #b22222"/>
     <use xlink:href="#m77eda0b382" x="367.790896" y="265.005258" style="fill: #b22222; stroke: #b22222"/>
     <use xlink:href="#m77eda0b382" x="274.694217" y="118.798663" style="fill: #b22222; stroke: #b22222"/>
     <use xlink:href="#m77eda0b382" x="349.555291" y="293.492431" style="fill: #b22222; stroke: #b22222"/>
     <use xlink:href="#m77eda0b382" x="340.69373" y="128.020016" style="fill: #b22222; stroke: #b22222"/>
     <use xlink:href="#m77eda0b382" x="212.145668" y="169.39596" style="fill: #b22222; stroke: #b22222"/>
     <use xlink:href="#m77eda0b382" x="317.451065" y="323.494289" style="fill: #b22222; stroke: #b22222"/>
     <use xlink:href="#m77eda0b382" x="321.012394" y="307.765009" style="fill: #b22222; stroke: #b22222"/>
     <use xlink:href="#m77eda0b382" x="194.503492" y="195.432809" style="fill: #b22222; stroke: #b22222"/>
     <use xlink:href="#m77eda0b382" x="283.028252" y="294.106209" style="fill: #b22222; stroke: #b22222"/>
     <use xlink:href="#m77eda0b382" x="350.745668" y="119.995441" style="fill: #b22222; stroke: #b22222"/>
     <use xlink:href="#m77eda0b382" x="335.077195" y="291.825915" style="fill: #b22222; stroke: #b22222"/>
     <use xlink:href="#m77eda0b382" x="180.557787" y="245.97943" style="fill: #b22222; stroke: #b22222"/>
     <use xlink:href="#m77eda0b382" x="279.21366" y="259.152494" style="fill: #b22222; stroke: #b22222"/>
     <use xlink:href="#m77eda0b382" x="369.859772" y="241.807638" style="fill: #b22222; stroke: #b22222"/>
     <use xlink:href="#m77eda0b382" x="330.896253" y="303.750279" style="fill: #b22222; stroke: #b22222"/>
     <use xlink:href="#m77eda0b382" x="321.811469" y="143.045014" style="fill: #b22222; stroke: #b22222"/>
     <use xlink:href="#m77eda0b382" x="260.874396" y="240.899226" style="fill: #b22222; stroke: #b22222"/>
     <use xlink:href="#m77eda0b382" x="249.174018" y="159.510369" style="fill: #b22222; stroke: #b22222"/>
     <use xlink:href="#m77eda0b382" x="250.504591" y="328.133782" style="fill: #b22222; stroke: #b22222"/>
     <use xlink:href="#m77eda0b382" x="357.531248" y="209.493698" style="fill: #b22222; stroke: #b22222"/>
     <use xlink:href="#m77eda0b382" x="378.147267" y="125.341273" style="fill: #b22222; stroke: #b22222"/>
     <use xlink:href="#m77eda0b382" x="173.894788" y="237.711961" style="fill: #b22222; stroke: #b22222"/>
     <use xlink:href="#m77eda0b382" x="211.771921" y="183.721014" style="fill: #b22222; stroke: #b22222"/>
     <use xlink:href="#m77eda0b382" x="302.168993" y="194.446935" style="fill: #b22222; stroke: #b22222"/>
     <use xlink:href="#m77eda0b382" x="290.557873" y="165.017702" style="fill: #b22222; stroke: #b22222"/>
     <use xlink:href="#m77eda0b382" x="368.110691" y="292.920882" style="fill: #b22222; stroke: #b22222"/>
     <use xlink:href="#m77eda0b382" x="184.991126" y="157.400211" style="fill: #b22222; stroke: #b22222"/>
     <use xlink:href="#m77eda0b382" x="186.934084" y="153.311592" style="fill: #b22222; stroke: #b22222"/>
     <use xlink:href="#m77eda0b382" x="253.812083" y="210.774272" style="fill: #b22222; stroke: #b22222"/>
     <use xlink:href="#m77eda0b382" x="215.199828" y="139.001968" style="fill: #b22222; stroke: #b22222"/>
     <use xlink:href="#m77eda0b382" x="272.451292" y="294.919618" style="fill: #b22222; stroke: #b22222"/>
     <use xlink:href="#m77eda0b382" x="322.496105" y="307.192411" style="fill: #b22222; stroke: #b22222"/>
     <use xlink:href="#m77eda0b382" x="178.875726" y="175.660937" style="fill: #b22222; stroke: #b22222"/>
     <use xlink:href="#m77eda0b382" x="169.017686" y="128.410288" style="fill: #b22222; stroke: #b22222"/>
     <use xlink:href="#m77eda0b382" x="188.475691" y="253.255206" style="fill: #b22222; stroke: #b22222"/>
     <use xlink:href="#m77eda0b382" x="310.783593" y="122.548686" style="fill: #b22222; stroke: #b22222"/>
     <use xlink:href="#m77eda0b382" x="251.98349" y="285.431633" style="fill: #b22222; stroke: #b22222"/>
     <use xlink:href="#m77eda0b382" x="362.212354" y="226.152227" style="fill: #b22222; stroke: #b22222"/>
     <use xlink:href="#m77eda0b382" x="260.462447" y="266.903983" style="fill: #b22222; stroke: #b22222"/>
     <use xlink:href="#m77eda0b382" x="246.339519" y="225.876123" style="fill: #b22222; stroke: #b22222"/>
     <use xlink:href="#m77eda0b382" x="200.399846" y="169.220124" style="fill: #b22222; stroke: #b22222"/>
     <use xlink:href="#m77eda0b382" x="268.143702" y="142.794722" style="fill: #b22222; stroke: #b22222"/>
     <use xlink:href="#m77eda0b382" x="313.014538" y="272.441189" style="fill: #b22222; stroke: #b22222"/>
     <use xlink:href="#m77eda0b382" x="178.937771" y="206.488785" style="fill: #b22222; stroke: #b22222"/>
     <use xlink:href="#m77eda0b382" x="311.407347" y="154.559913" style="fill: #b22222; stroke: #b22222"/>
     <use xlink:href="#m77eda0b382" x="223.676511" y="284.07764" style="fill: #b22222; stroke: #b22222"/>
     <use xlink:href="#m77eda0b382" x="299.745619" y="204.879874" style="fill: #b22222; stroke: #b22222"/>
     <use xlink:href="#m77eda0b382" x="293.558076" y="283.082092" style="fill: #b22222; stroke: #b22222"/>
     <use xlink:href="#m77eda0b382" x="232.524537" y="268.187766" style="fill: #b22222; stroke: #b22222"/>
     <use xlink:href="#m77eda0b382" x="236.220772" y="278.504857" style="fill: #b22222; stroke: #b22222"/>
     <use xlink:href="#m77eda0b382" x="317.861031" y="211.282247" style="fill: #b22222; stroke: #b22222"/>
     <use xlink:href="#m77eda0b382" x="212.625191" y="147.66306" style="fill: #b22222; stroke: #b22222"/>
     <use xlink:href="#m77eda0b382" x="193.589679" y="148.712089" style="fill: #b22222; stroke: #b22222"/>
     <use xlink:href="#m77eda0b382" x="200.709516" y="161.00553" style="fill: #b22222; stroke: #b22222"/>
     <use xlink:href="#m77eda0b382" x="252.145966" y="291.36019" style="fill: #b22222; stroke: #b22222"/>
     <use xlink:href="#m77eda0b382" x="170.085434" y="151.914426" style="fill: #b22222; stroke: #b22222"/>
     <use xlink:href="#m77eda0b382" x="274.232695" y="202.665996" style="fill: #b22222; stroke: #b22222"/>
     <use xlink:href="#m77eda0b382" x="337.009758" y="145.614663" style="fill: #b22222; stroke: #b22222"/>
     <use xlink:href="#m77eda0b382" x="326.490776" y="146.213567" style="fill: #b22222; stroke: #b22222"/>
     <use xlink:href="#m77eda0b382" x="385.338536" y="224.76088" style="fill: #b22222; stroke: #b22222"/>
     <use xlink:href="#m77eda0b382" x="258.994383" y="133.683734" style="fill: #b22222; stroke: #b22222"/>
     <use xlink:href="#m77eda0b382" x="292.211003" y="298.792047" style="fill: #b22222; stroke: #b22222"/>
     <use xlink:href="#m77eda0b382" x="203.816498" y="245.6926" style="fill: #b22222; stroke: #b22222"/>
    </g>
   </g>
   <g id="patch_4">
    <path d="M 56.450156 450.72 
L 56.450156 7.2 
" style="fill: none; stroke: #ffffff; stroke-width: 1.25; stroke-linejoin: miter; stroke-linecap: square"/>
   </g>
   <g id="patch_5">
    <path d="M 499.970156 450.72 
L 499.970156 7.2 
" style="fill: none; stroke: #ffffff; stroke-width: 1.25; stroke-linejoin: miter; stroke-linecap: square"/>
   </g>
   <g id="patch_6">
    <path d="M 56.450156 450.72 
L 499.970156 450.72 
" style="fill: none; stroke: #ffffff; stroke-width: 1.25; stroke-linejoin: miter; stroke-linecap: square"/>
   </g>
   <g id="patch_7">
    <path d="M 56.450156 7.2 
L 499.970156 7.2 
" style="fill: none; stroke: #ffffff; stroke-width: 1.25; stroke-linejoin: miter; stroke-linecap: square"/>
   </g>
   <g id="text_13">
    <!-- t = 0 -->
    <g style="fill: #262626" transform="translate(65.320556 24.659775) scale(0.12 -0.12)">
     <defs>
      <path id="ArialMT-74" d="M 1650 503 
L 1731 6 
Q 1494 -44 1306 -44 
Q 1000 -44 831 53 
Q 663 150 594 308 
Q 525 466 525 972 
L 525 2881 
L 113 2881 
L 113 3319 
L 525 3319 
L 525 4141 
L 1084 4478 
L 1084 3319 
L 1650 3319 
L 1650 2881 
L 1084 2881 
L 1084 941 
Q 1084 700 1114 631 
Q 1144 563 1211 522 
Q 1278 481 1403 481 
Q 1497 481 1650 503 
z
" transform="scale(0.015625)"/>
      <path id="ArialMT-20" transform="scale(0.015625)"/>
      <path id="ArialMT-3d" d="M 3381 2694 
L 356 2694 
L 356 3219 
L 3381 3219 
L 3381 2694 
z
M 3381 1303 
L 356 1303 
L 356 1828 
L 3381 1828 
L 3381 1303 
z
" transform="scale(0.015625)"/>
     </defs>
     <use xlink:href="#ArialMT-74"/>
     <use xlink:href="#ArialMT-20" x="27.783203"/>
     <use xlink:href="#ArialMT-3d" x="55.566406"/>
     <use xlink:href="#ArialMT-20" x="113.964844"/>
     <use xlink:href="#ArialMT-30" x="141.748047"/>
    </g>
   </g>
   <g id="legend_1">
    <g id="patch_8">
     <path d="M 328.111406 94.59 
L 483.170156 94.59 
Q 487.970156 94.59 487.970156 89.79 
L 487.970156 24 
Q 487.970156 19.2 483.170156 19.2 
L 328.111406 19.2 
Q 323.311406 19.2 323.311406 24 
L 323.311406 89.79 
Q 323.311406 94.59 328.111406 94.59 
z
" style="fill: #eaeaf2; opacity: 0.8; stroke: #cccccc; stroke-linejoin: miter"/>
    </g>
    <g id="PathCollection_3">
     <g>
      <use xlink:href="#m359df659f1" x="356.911406" y="39.97125" style="fill: #4169e1; stroke: #4169e1"/>
     </g>
    </g>
    <g id="text_14">
     <!-- Sheep -->
     <g style="fill: #262626" transform="translate(400.111406 46.27125) scale(0.24 -0.24)">
      <defs>
       <path id="ArialMT-53" d="M 288 1472 
L 859 1522 
Q 900 1178 1048 958 
Q 1197 738 1509 602 
Q 1822 466 2213 466 
Q 2559 466 2825 569 
Q 3091 672 3220 851 
Q 3350 1031 3350 1244 
Q 3350 1459 3225 1620 
Q 3100 1781 2813 1891 
Q 2628 1963 1997 2114 
Q 1366 2266 1113 2400 
Q 784 2572 623 2826 
Q 463 3081 463 3397 
Q 463 3744 659 4045 
Q 856 4347 1234 4503 
Q 1613 4659 2075 4659 
Q 2584 4659 2973 4495 
Q 3363 4331 3572 4012 
Q 3781 3694 3797 3291 
L 3216 3247 
Q 3169 3681 2898 3903 
Q 2628 4125 2100 4125 
Q 1550 4125 1298 3923 
Q 1047 3722 1047 3438 
Q 1047 3191 1225 3031 
Q 1400 2872 2139 2705 
Q 2878 2538 3153 2413 
Q 3553 2228 3743 1945 
Q 3934 1663 3934 1294 
Q 3934 928 3725 604 
Q 3516 281 3123 101 
Q 2731 -78 2241 -78 
Q 1619 -78 1198 103 
Q 778 284 539 648 
Q 300 1013 288 1472 
z
" transform="scale(0.015625)"/>
       <path id="ArialMT-68" d="M 422 0 
L 422 4581 
L 984 4581 
L 984 2938 
Q 1378 3394 1978 3394 
Q 2347 3394 2619 3248 
Q 2891 3103 3008 2847 
Q 3125 2591 3125 2103 
L 3125 0 
L 2563 0 
L 2563 2103 
Q 2563 2525 2380 2717 
Q 2197 2909 1863 2909 
Q 1613 2909 1392 2779 
Q 1172 2650 1078 2428 
Q 984 2206 984 1816 
L 984 0 
L 422 0 
z
" transform="scale(0.015625)"/>
       <path id="ArialMT-65" d="M 2694 1069 
L 3275 997 
Q 3138 488 2766 206 
Q 2394 -75 1816 -75 
Q 1088 -75 661 373 
Q 234 822 234 1631 
Q 234 2469 665 2931 
Q 1097 3394 1784 3394 
Q 2450 3394 2872 2941 
Q 3294 2488 3294 1666 
Q 3294 1616 3291 1516 
L 816 1516 
Q 847 969 1125 678 
Q 1403 388 1819 388 
Q 2128 388 2347 550 
Q 2566 713 2694 1069 
z
M 847 1978 
L 2700 1978 
Q 2663 2397 2488 2606 
Q 2219 2931 1791 2931 
Q 1403 2931 1139 2672 
Q 875 2413 847 1978 
z
" transform="scale(0.015625)"/>
       <path id="ArialMT-70" d="M 422 -1272 
L 422 3319 
L 934 3319 
L 934 2888 
Q 1116 3141 1344 3267 
Q 1572 3394 1897 3394 
Q 2322 3394 2647 3175 
Q 2972 2956 3137 2557 
Q 3303 2159 3303 1684 
Q 3303 1175 3120 767 
Q 2938 359 2589 142 
Q 2241 -75 1856 -75 
Q 1575 -75 1351 44 
Q 1128 163 984 344 
L 984 -1272 
L 422 -1272 
z
M 931 1641 
Q 931 1000 1190 694 
Q 1450 388 1819 388 
Q 2194 388 2461 705 
Q 2728 1022 2728 1688 
Q 2728 2322 2467 2637 
Q 2206 2953 1844 2953 
Q 1484 2953 1207 2617 
Q 931 2281 931 1641 
z
" transform="scale(0.015625)"/>
      </defs>
      <use xlink:href="#ArialMT-53"/>
      <use xlink:href="#ArialMT-68" x="66.699219"/>
      <use xlink:href="#ArialMT-65" x="122.314453"/>
      <use xlink:href="#ArialMT-65" x="177.929688"/>
      <use xlink:href="#ArialMT-70" x="233.544922"/>
     </g>
    </g>
    <g id="PathCollection_4">
     <g>
      <use xlink:href="#m77eda0b382" x="356.911406" y="73.92" style="fill: #b22222; stroke: #b22222"/>
     </g>
    </g>
    <g id="text_15">
     <!-- Wolves -->
     <g style="fill: #262626" transform="translate(400.111406 80.22) scale(0.24 -0.24)">
      <defs>
       <path id="ArialMT-57" d="M 1294 0 
L 78 4581 
L 700 4581 
L 1397 1578 
Q 1509 1106 1591 641 
Q 1766 1375 1797 1488 
L 2669 4581 
L 3400 4581 
L 4056 2263 
Q 4303 1400 4413 641 
Q 4500 1075 4641 1638 
L 5359 4581 
L 5969 4581 
L 4713 0 
L 4128 0 
L 3163 3491 
Q 3041 3928 3019 4028 
Q 2947 3713 2884 3491 
L 1913 0 
L 1294 0 
z
" transform="scale(0.015625)"/>
       <path id="ArialMT-6f" d="M 213 1659 
Q 213 2581 725 3025 
Q 1153 3394 1769 3394 
Q 2453 3394 2887 2945 
Q 3322 2497 3322 1706 
Q 3322 1066 3130 698 
Q 2938 331 2570 128 
Q 2203 -75 1769 -75 
Q 1072 -75 642 372 
Q 213 819 213 1659 
z
M 791 1659 
Q 791 1022 1069 705 
Q 1347 388 1769 388 
Q 2188 388 2466 706 
Q 2744 1025 2744 1678 
Q 2744 2294 2464 2611 
Q 2184 2928 1769 2928 
Q 1347 2928 1069 2612 
Q 791 2297 791 1659 
z
" transform="scale(0.015625)"/>
       <path id="ArialMT-6c" d="M 409 0 
L 409 4581 
L 972 4581 
L 972 0 
L 409 0 
z
" transform="scale(0.015625)"/>
       <path id="ArialMT-76" d="M 1344 0 
L 81 3319 
L 675 3319 
L 1388 1331 
Q 1503 1009 1600 663 
Q 1675 925 1809 1294 
L 2547 3319 
L 3125 3319 
L 1869 0 
L 1344 0 
z
" transform="scale(0.015625)"/>
       <path id="ArialMT-73" d="M 197 991 
L 753 1078 
Q 800 744 1014 566 
Q 1228 388 1613 388 
Q 2000 388 2187 545 
Q 2375 703 2375 916 
Q 2375 1106 2209 1216 
Q 2094 1291 1634 1406 
Q 1016 1563 777 1677 
Q 538 1791 414 1992 
Q 291 2194 291 2438 
Q 291 2659 392 2848 
Q 494 3038 669 3163 
Q 800 3259 1026 3326 
Q 1253 3394 1513 3394 
Q 1903 3394 2198 3281 
Q 2494 3169 2634 2976 
Q 2775 2784 2828 2463 
L 2278 2388 
Q 2241 2644 2061 2787 
Q 1881 2931 1553 2931 
Q 1166 2931 1000 2803 
Q 834 2675 834 2503 
Q 834 2394 903 2306 
Q 972 2216 1119 2156 
Q 1203 2125 1616 2013 
Q 2213 1853 2448 1751 
Q 2684 1650 2818 1456 
Q 2953 1263 2953 975 
Q 2953 694 2789 445 
Q 2625 197 2315 61 
Q 2006 -75 1616 -75 
Q 969 -75 630 194 
Q 291 463 197 991 
z
" transform="scale(0.015625)"/>
      </defs>
      <use xlink:href="#ArialMT-57"/>
      <use xlink:href="#ArialMT-6f" x="92.634766"/>
      <use xlink:href="#ArialMT-6c" x="148.25"/>
      <use xlink:href="#ArialMT-76" x="170.466797"/>
      <use xlink:href="#ArialMT-65" x="220.466797"/>
      <use xlink:href="#ArialMT-73" x="276.082031"/>
     </g>
    </g>
   </g>
  </g>
 </g>
 <defs>
  <clipPath id="p22069567f5">
   <rect x="56.450156" y="7.2" width="443.52" height="443.52"/>
  </clipPath>
 </defs>
</svg>
