<?xml version="1.0" encoding="utf-8" standalone="no"?>
<!DOCTYPE svg PUBLIC "-//W3C//DTD SVG 1.1//EN"
  "http://www.w3.org/Graphics/SVG/1.1/DTD/svg11.dtd">
<svg xmlns:xlink="http://www.w3.org/1999/xlink" width="507.170156pt" height="492.454219pt" viewBox="0 0 507.170156 492.454219" xmlns="http://www.w3.org/2000/svg" version="1.1">
 <metadata>
  <rdf:RDF xmlns:dc="http://purl.org/dc/elements/1.1/" xmlns:cc="http://creativecommons.org/ns#" xmlns:rdf="http://www.w3.org/1999/02/22-rdf-syntax-ns#">
   <cc:Work>
    <dc:type rdf:resource="http://purl.org/dc/dcmitype/StillImage"/>
    <dc:date>2026-05-12T10:49:55.893862</dc:date>
    <dc:format>image/svg+xml</dc:format>
    <dc:creator>
     <cc:Agent>
      <dc:title>Matplotlib v3.7.1, https://matplotlib.org/</dc:title>
     </cc:Agent>
    </dc:creator>
   </cc:Work>
  </rdf:RDF>
 </metadata>
 <defs>
  <style type="text/css">*{stroke-linejoin: round; stroke-linecap: butt}</style>
 </defs>
 <g id="figure_1">
  <g id="patch_1">
   <path d="M 0 492.454219 
L 507.170156 492.454219 
L 507.170156 0 
L 0 0 
z
" style="fill: #ffffff"/>
  </g>
  <g id="axes_1">
   <g id="patch_2">
    <path d="M 56.450156 450.72 
L 499.970156 450.72 
L 499.970156 7.2 
L 56.450156 7.2 
z
" style="fill: #eaeaf2"/>
   </g>
   <g id="matplotlib.axis_1">
    <g id="xtick_1">
     <g id="line2d_1">
      <path d="M 100.802156 450.72 
L 100.802156 7.2 
" clip-path="url(#p6449a6bcfe)" style="fill: none; stroke: #ffffff; stroke-linecap: round"/>
     </g>
     <g id="text_1">
      <!-- −400 -->
      <g style="fill: #262626" transform="translate(88.414266 468.093594) scale(0.11 -0.11)">
       <defs>
        <path id="ArialMT-2212" d="M 3381 1997 
L 356 1997 
L 356 2522 
L 3381 2522 
L 3381 1997 
z
" transform="scale(0.015625)"/>
        <path id="ArialMT-34" d="M 2069 0 
L 2069 1097 
L 81 1097 
L 81 1613 
L 2172 4581 
L 2631 4581 
L 2631 1613 
L 3250 1613 
L 3250 1097 
L 2631 1097 
L 2631 0 
L 2069 0 
z
M 2069 1613 
L 2069 3678 
L 634 1613 
L 2069 1613 
z
" transform="scale(0.015625)"/>
        <path id="ArialMT-30" d="M 266 2259 
Q 266 3072 433 3567 
Q 600 4063 929 4331 
Q 1259 4600 1759 4600 
Q 2128 4600 2406 4451 
Q 2684 4303 2865 4023 
Q 3047 3744 3150 3342 
Q 3253 2941 3253 2259 
Q 3253 1453 3087 958 
Q 2922 463 2592 192 
Q 2263 -78 1759 -78 
Q 1097 -78 719 397 
Q 266 969 266 2259 
z
M 844 2259 
Q 844 1131 1108 757 
Q 1372 384 1759 384 
Q 2147 384 2411 759 
Q 2675 1134 2675 2259 
Q 2675 3391 2411 3762 
Q 2147 4134 1753 4134 
Q 1366 4134 1134 3806 
Q 844 3388 844 2259 
z
" transform="scale(0.015625)"/>
       </defs>
       <use xlink:href="#ArialMT-2212"/>
       <use xlink:href="#ArialMT-34" x="58.398438"/>
       <use xlink:href="#ArialMT-30" x="114.013672"/>
       <use xlink:href="#ArialMT-30" x="169.628906"/>
      </g>
     </g>
    </g>
    <g id="xtick_2">
     <g id="line2d_2">
      <path d="M 189.506156 450.72 
L 189.506156 7.2 
" clip-path="url(#p6449a6bcfe)" style="fill: none; stroke: #ffffff; stroke-linecap: round"/>
     </g>
     <g id="text_2">
      <!-- −200 -->
      <g style="fill: #262626" transform="translate(177.118266 468.093594) scale(0.11 -0.11)">
       <defs>
        <path id="ArialMT-32" d="M 3222 541 
L 3222 0 
L 194 0 
Q 188 203 259 391 
Q 375 700 629 1000 
Q 884 1300 1366 1694 
Q 2113 2306 2375 2664 
Q 2638 3022 2638 3341 
Q 2638 3675 2398 3904 
Q 2159 4134 1775 4134 
Q 1369 4134 1125 3890 
Q 881 3647 878 3216 
L 300 3275 
Q 359 3922 746 4261 
Q 1134 4600 1788 4600 
Q 2447 4600 2831 4234 
Q 3216 3869 3216 3328 
Q 3216 3053 3103 2787 
Q 2991 2522 2730 2228 
Q 2469 1934 1863 1422 
Q 1356 997 1212 845 
Q 1069 694 975 541 
L 3222 541 
z
" transform="scale(0.015625)"/>
       </defs>
       <use xlink:href="#ArialMT-2212"/>
       <use xlink:href="#ArialMT-32" x="58.398438"/>
       <use xlink:href="#ArialMT-30" x="114.013672"/>
       <use xlink:href="#ArialMT-30" x="169.628906"/>
      </g>
     </g>
    </g>
    <g id="xtick_3">
     <g id="line2d_3">
      <path d="M 278.210156 450.72 
L 278.210156 7.2 
" clip-path="url(#p6449a6bcfe)" style="fill: none; stroke: #ffffff; stroke-linecap: round"/>
     </g>
     <g id="text_3">
      <!-- 0 -->
      <g style="fill: #262626" transform="translate(275.151641 468.093594) scale(0.11 -0.11)">
       <use xlink:href="#ArialMT-30"/>
      </g>
     </g>
    </g>
    <g id="xtick_4">
     <g id="line2d_4">
      <path d="M 366.914156 450.72 
L 366.914156 7.2 
" clip-path="url(#p6449a6bcfe)" style="fill: none; stroke: #ffffff; stroke-linecap: round"/>
     </g>
     <g id="text_4">
      <!-- 200 -->
      <g style="fill: #262626" transform="translate(357.738609 468.093594) scale(0.11 -0.11)">
       <use xlink:href="#ArialMT-32"/>
       <use xlink:href="#ArialMT-30" x="55.615234"/>
       <use xlink:href="#ArialMT-30" x="111.230469"/>
      </g>
     </g>
    </g>
    <g id="xtick_5">
     <g id="line2d_5">
      <path d="M 455.618156 450.72 
L 455.618156 7.2 
" clip-path="url(#p6449a6bcfe)" style="fill: none; stroke: #ffffff; stroke-linecap: round"/>
     </g>
     <g id="text_5">
      <!-- 400 -->
      <g style="fill: #262626" transform="translate(446.442609 468.093594) scale(0.11 -0.11)">
       <use xlink:href="#ArialMT-34"/>
       <use xlink:href="#ArialMT-30" x="55.615234"/>
       <use xlink:href="#ArialMT-30" x="111.230469"/>
      </g>
     </g>
    </g>
    <g id="text_6">
     <!-- x -->
     <g style="fill: #262626" transform="translate(275.210156 482.869219) scale(0.12 -0.12)">
      <defs>
       <path id="ArialMT-78" d="M 47 0 
L 1259 1725 
L 138 3319 
L 841 3319 
L 1350 2541 
Q 1494 2319 1581 2169 
Q 1719 2375 1834 2534 
L 2394 3319 
L 3066 3319 
L 1919 1756 
L 3153 0 
L 2463 0 
L 1781 1031 
L 1600 1309 
L 728 0 
L 47 0 
z
" transform="scale(0.015625)"/>
      </defs>
      <use xlink:href="#ArialMT-78"/>
     </g>
    </g>
   </g>
   <g id="matplotlib.axis_2">
    <g id="ytick_1">
     <g id="line2d_6">
      <path d="M 56.450156 406.368 
L 499.970156 406.368 
" clip-path="url(#p6449a6bcfe)" style="fill: none; stroke: #ffffff; stroke-linecap: round"/>
     </g>
     <g id="text_7">
      <!-- −400 -->
      <g style="fill: #262626" transform="translate(22.174375 410.304797) scale(0.11 -0.11)">
       <use xlink:href="#ArialMT-2212"/>
       <use xlink:href="#ArialMT-34" x="58.398438"/>
       <use xlink:href="#ArialMT-30" x="114.013672"/>
       <use xlink:href="#ArialMT-30" x="169.628906"/>
      </g>
     </g>
    </g>
    <g id="ytick_2">
     <g id="line2d_7">
      <path d="M 56.450156 317.664 
L 499.970156 317.664 
" clip-path="url(#p6449a6bcfe)" style="fill: none; stroke: #ffffff; stroke-linecap: round"/>
     </g>
     <g id="text_8">
      <!-- −200 -->
      <g style="fill: #262626" transform="translate(22.174375 321.600797) scale(0.11 -0.11)">
       <use xlink:href="#ArialMT-2212"/>
       <use xlink:href="#ArialMT-32" x="58.398438"/>
       <use xlink:href="#ArialMT-30" x="114.013672"/>
       <use xlink:href="#ArialMT-30" x="169.628906"/>
      </g>
     </g>
    </g>
    <g id="ytick_3">
     <g id="line2d_8">
      <path d="M 56.450156 228.96 
L 499.970156 228.96 
" clip-path="url(#p6449a6bcfe)" style="fill: none; stroke: #ffffff; stroke-linecap: round"/>
     </g>
     <g id="text_9">
      <!-- 0 -->
      <g style="fill: #262626" transform="translate(40.833125 232.896797) scale(0.11 -0.11)">
       <use xlink:href="#ArialMT-30"/>
      </g>
     </g>
    </g>
    <g id="ytick_4">
     <g id="line2d_9">
      <path d="M 56.450156 140.256 
L 499.970156 140.256 
" clip-path="url(#p6449a6bcfe)" style="fill: none; stroke: #ffffff; stroke-linecap: round"/>
     </g>
     <g id="text_10">
      <!-- 200 -->
      <g style="fill: #262626" transform="translate(28.599063 144.192797) scale(0.11 -0.11)">
       <use xlink:href="#ArialMT-32"/>
       <use xlink:href="#ArialMT-30" x="55.615234"/>
       <use xlink:href="#ArialMT-30" x="111.230469"/>
      </g>
     </g>
    </g>
    <g id="ytick_5">
     <g id="line2d_10">
      <path d="M 56.450156 51.552 
L 499.970156 51.552 
" clip-path="url(#p6449a6bcfe)" style="fill: none; stroke: #ffffff; stroke-linecap: round"/>
     </g>
     <g id="text_11">
      <!-- 400 -->
      <g style="fill: #262626" transform="translate(28.599063 55.488797) scale(0.11 -0.11)">
       <use xlink:href="#ArialMT-34"/>
       <use xlink:href="#ArialMT-30" x="55.615234"/>
       <use xlink:href="#ArialMT-30" x="111.230469"/>
      </g>
     </g>
    </g>
    <g id="text_12">
     <!-- y -->
     <g style="fill: #262626" transform="translate(15.64875 231.96) rotate(-90) scale(0.12 -0.12)">
      <defs>
       <path id="ArialMT-79" d="M 397 -1278 
L 334 -750 
Q 519 -800 656 -800 
Q 844 -800 956 -737 
Q 1069 -675 1141 -563 
Q 1194 -478 1313 -144 
Q 1328 -97 1363 -6 
L 103 3319 
L 709 3319 
L 1400 1397 
Q 1534 1031 1641 628 
Q 1738 1016 1872 1384 
L 2581 3319 
L 3144 3319 
L 1881 -56 
Q 1678 -603 1566 -809 
Q 1416 -1088 1222 -1217 
Q 1028 -1347 759 -1347 
Q 597 -1347 397 -1278 
z
" transform="scale(0.015625)"/>
      </defs>
      <use xlink:href="#ArialMT-79"/>
     </g>
    </g>
   </g>
   <g id="patch_3">
    <path d="M 278.210156 317.664 
C 301.734732 317.664 324.298969 308.317587 340.933356 291.6832 
C 357.567743 275.048813 366.914156 252.484576 366.914156 228.96 
C 366.914156 205.435424 357.567743 182.871187 340.933356 166.2368 
C 324.298969 149.602413 301.734732 140.256 278.210156 140.256 
C 254.68558 140.256 232.121343 149.602413 215.486956 166.2368 
C 198.852569 182.871187 189.506156 205.435424 189.506156 228.96 
C 189.506156 252.484576 198.852569 275.048813 215.486956 291.6832 
C 232.121343 308.317587 254.68558 317.664 278.210156 317.664 
z
" clip-path="url(#p6449a6bcfe)" style="fill: #228b22; opacity: 0.12; stroke: #228b22; stroke-width: 1.5; stroke-linejoin: miter"/>
   </g>
   <g id="PathCollection_1">
    <defs>
     <path id="me9b10db07f" d="M 0 2.236068 
C 0.593012 2.236068 1.161816 2.000462 1.581139 1.581139 
C 2.000462 1.161816 2.236068 0.593012 2.236068 0 
C 2.236068 -0.593012 2.000462 -1.161816 1.581139 -1.581139 
C 1.161816 -2.000462 0.593012 -2.236068 0 -2.236068 
C -0.593012 -2.236068 -1.161816 -2.000462 -1.581139 -1.581139 
C -2.000462 -1.161816 -2.236068 -0.593012 -2.236068 0 
C -2.236068 0.593012 -2.000462 1.161816 -1.581139 1.581139 
C -1.161816 2.000462 -0.593012 2.236068 0 2.236068 
z
" style="stroke: #4169e1"/>
    </defs>
    <g clip-path="url(#p6449a6bcfe)">
     <use xlink:href="#me9b10db07f" x="212.014817" y="157.851392" style="fill: #4169e1; stroke: #4169e1"/>
     <use xlink:href="#me9b10db07f" x="212.962832" y="341.002941" style="fill: #4169e1; stroke: #4169e1"/>
     <use xlink:href="#me9b10db07f" x="342.919315" y="246.673341" style="fill: #4169e1; stroke: #4169e1"/>
     <use xlink:href="#me9b10db07f" x="317.796614" y="172.543685" style="fill: #4169e1; stroke: #4169e1"/>
     <use xlink:href="#me9b10db07f" x="201.60505" y="198.366392" style="fill: #4169e1; stroke: #4169e1"/>
     <use xlink:href="#me9b10db07f" x="283.049647" y="311.473906" style="fill: #4169e1; stroke: #4169e1"/>
     <use xlink:href="#me9b10db07f" x="324.949355" y="308.615552" style="fill: #4169e1; stroke: #4169e1"/>
     <use xlink:href="#me9b10db07f" x="318.918279" y="272.502692" style="fill: #4169e1; stroke: #4169e1"/>
     <use xlink:href="#me9b10db07f" x="220.498943" y="256.013619" style="fill: #4169e1; stroke: #4169e1"/>
     <use xlink:href="#me9b10db07f" x="127.409905" y="243.433863" style="fill: #4169e1; stroke: #4169e1"/>
     <use xlink:href="#me9b10db07f" x="285.568371" y="308.203203" style="fill: #4169e1; stroke: #4169e1"/>
     <use xlink:href="#me9b10db07f" x="238.553059" y="187.384301" style="fill: #4169e1; stroke: #4169e1"/>
     <use xlink:href="#me9b10db07f" x="216.038934" y="120.564195" style="fill: #4169e1; stroke: #4169e1"/>
     <use xlink:href="#me9b10db07f" x="331.312215" y="243.685387" style="fill: #4169e1; stroke: #4169e1"/>
     <use xlink:href="#me9b10db07f" x="156.271771" y="210.748742" style="fill: #4169e1; stroke: #4169e1"/>
     <use xlink:href="#me9b10db07f" x="187.709195" y="228.427863" style="fill: #4169e1; stroke: #4169e1"/>
     <use xlink:href="#me9b10db07f" x="346.157114" y="207.873086" style="fill: #4169e1; stroke: #4169e1"/>
     <use xlink:href="#me9b10db07f" x="306.461677" y="328.686686" style="fill: #4169e1; stroke: #4169e1"/>
     <use xlink:href="#me9b10db07f" x="309.430639" y="116.387077" style="fill: #4169e1; stroke: #4169e1"/>
     <use xlink:href="#me9b10db07f" x="332.441734" y="179.546721" style="fill: #4169e1; stroke: #4169e1"/>
     <use xlink:href="#me9b10db07f" x="220.483865" y="247.428538" style="fill: #4169e1; stroke: #4169e1"/>
     <use xlink:href="#me9b10db07f" x="200.669134" y="127.633797" style="fill: #4169e1; stroke: #4169e1"/>
     <use xlink:href="#me9b10db07f" x="367.908307" y="212.602501" style="fill: #4169e1; stroke: #4169e1"/>
     <use xlink:href="#me9b10db07f" x="441.42641" y="200.538716" style="fill: #4169e1; stroke: #4169e1"/>
     <use xlink:href="#me9b10db07f" x="296.607657" y="327.999046" style="fill: #4169e1; stroke: #4169e1"/>
     <use xlink:href="#me9b10db07f" x="339.427847" y="142.291762" style="fill: #4169e1; stroke: #4169e1"/>
     <use xlink:href="#me9b10db07f" x="208.288798" y="89.846747" style="fill: #4169e1; stroke: #4169e1"/>
     <use xlink:href="#me9b10db07f" x="220.323162" y="145.487385" style="fill: #4169e1; stroke: #4169e1"/>
     <use xlink:href="#me9b10db07f" x="214.461262" y="136.970422" style="fill: #4169e1; stroke: #4169e1"/>
     <use xlink:href="#me9b10db07f" x="412.296574" y="176.830743" style="fill: #4169e1; stroke: #4169e1"/>
     <use xlink:href="#me9b10db07f" x="296.622943" y="249.099702" style="fill: #4169e1; stroke: #4169e1"/>
     <use xlink:href="#me9b10db07f" x="332.500284" y="188.139752" style="fill: #4169e1; stroke: #4169e1"/>
     <use xlink:href="#me9b10db07f" x="292.307751" y="197.199485" style="fill: #4169e1; stroke: #4169e1"/>
     <use xlink:href="#me9b10db07f" x="246.23295" y="212.26945" style="fill: #4169e1; stroke: #4169e1"/>
     <use xlink:href="#me9b10db07f" x="398.079869" y="142.631481" style="fill: #4169e1; stroke: #4169e1"/>
     <use xlink:href="#me9b10db07f" x="355.328035" y="326.92715" style="fill: #4169e1; stroke: #4169e1"/>
     <use xlink:href="#me9b10db07f" x="295.441325" y="162.280643" style="fill: #4169e1; stroke: #4169e1"/>
     <use xlink:href="#me9b10db07f" x="211.713043" y="300.665109" style="fill: #4169e1; stroke: #4169e1"/>
     <use xlink:href="#me9b10db07f" x="314.207277" y="305.608351" style="fill: #4169e1; stroke: #4169e1"/>
     <use xlink:href="#me9b10db07f" x="299.279977" y="140.54771" style="fill: #4169e1; stroke: #4169e1"/>
     <use xlink:href="#me9b10db07f" x="387.506644" y="271.369824" style="fill: #4169e1; stroke: #4169e1"/>
     <use xlink:href="#me9b10db07f" x="353.28757" y="239.521933" style="fill: #4169e1; stroke: #4169e1"/>
     <use xlink:href="#me9b10db07f" x="264.909121" y="207.255181" style="fill: #4169e1; stroke: #4169e1"/>
     <use xlink:href="#me9b10db07f" x="263.500686" y="109.964374" style="fill: #4169e1; stroke: #4169e1"/>
     <use xlink:href="#me9b10db07f" x="290.622029" y="150.642629" style="fill: #4169e1; stroke: #4169e1"/>
     <use xlink:href="#me9b10db07f" x="379.55453" y="225.205885" style="fill: #4169e1; stroke: #4169e1"/>
     <use xlink:href="#me9b10db07f" x="378.236599" y="148.203363" style="fill: #4169e1; stroke: #4169e1"/>
     <use xlink:href="#me9b10db07f" x="267.620071" y="144.6255" style="fill: #4169e1; stroke: #4169e1"/>
     <use xlink:href="#me9b10db07f" x="263.426419" y="207.127631" style="fill: #4169e1; stroke: #4169e1"/>
     <use xlink:href="#me9b10db07f" x="261.325758" y="205.506" style="fill: #4169e1; stroke: #4169e1"/>
     <use xlink:href="#me9b10db07f" x="313.03747" y="237.832377" style="fill: #4169e1; stroke: #4169e1"/>
     <use xlink:href="#me9b10db07f" x="276.512373" y="231.498698" style="fill: #4169e1; stroke: #4169e1"/>
     <use xlink:href="#me9b10db07f" x="278.063521" y="300.893183" style="fill: #4169e1; stroke: #4169e1"/>
     <use xlink:href="#me9b10db07f" x="408.286486" y="110.04545" style="fill: #4169e1; stroke: #4169e1"/>
     <use xlink:href="#me9b10db07f" x="353.372341" y="102.894786" style="fill: #4169e1; stroke: #4169e1"/>
     <use xlink:href="#me9b10db07f" x="263.594734" y="160.379671" style="fill: #4169e1; stroke: #4169e1"/>
     <use xlink:href="#me9b10db07f" x="201.713013" y="267.410696" style="fill: #4169e1; stroke: #4169e1"/>
     <use xlink:href="#me9b10db07f" x="257.341808" y="273.51299" style="fill: #4169e1; stroke: #4169e1"/>
     <use xlink:href="#me9b10db07f" x="378.925531" y="158.767153" style="fill: #4169e1; stroke: #4169e1"/>
     <use xlink:href="#me9b10db07f" x="296.430871" y="145.15195" style="fill: #4169e1; stroke: #4169e1"/>
     <use xlink:href="#me9b10db07f" x="374.476817" y="245.933445" style="fill: #4169e1; stroke: #4169e1"/>
     <use xlink:href="#me9b10db07f" x="188.872122" y="265.576208" style="fill: #4169e1; stroke: #4169e1"/>
     <use xlink:href="#me9b10db07f" x="223.272195" y="256.818216" style="fill: #4169e1; stroke: #4169e1"/>
     <use xlink:href="#me9b10db07f" x="140.202049" y="253.043098" style="fill: #4169e1; stroke: #4169e1"/>
     <use xlink:href="#me9b10db07f" x="328.452893" y="350.618776" style="fill: #4169e1; stroke: #4169e1"/>
     <use xlink:href="#me9b10db07f" x="290.863917" y="153.798431" style="fill: #4169e1; stroke: #4169e1"/>
     <use xlink:href="#me9b10db07f" x="310.010854" y="193.690655" style="fill: #4169e1; stroke: #4169e1"/>
     <use xlink:href="#me9b10db07f" x="259.240895" y="180.579501" style="fill: #4169e1; stroke: #4169e1"/>
     <use xlink:href="#me9b10db07f" x="239.806593" y="226.167613" style="fill: #4169e1; stroke: #4169e1"/>
     <use xlink:href="#me9b10db07f" x="319.119097" y="128.340447" style="fill: #4169e1; stroke: #4169e1"/>
     <use xlink:href="#me9b10db07f" x="207.144333" y="296.924202" style="fill: #4169e1; stroke: #4169e1"/>
     <use xlink:href="#me9b10db07f" x="190.926691" y="159.344705" style="fill: #4169e1; stroke: #4169e1"/>
     <use xlink:href="#me9b10db07f" x="359.79863" y="118.552208" style="fill: #4169e1; stroke: #4169e1"/>
     <use xlink:href="#me9b10db07f" x="301.469982" y="240.811467" style="fill: #4169e1; stroke: #4169e1"/>
     <use xlink:href="#me9b10db07f" x="370.054035" y="172.80709" style="fill: #4169e1; stroke: #4169e1"/>
     <use xlink:href="#me9b10db07f" x="402.617692" y="243.614449" style="fill: #4169e1; stroke: #4169e1"/>
     <use xlink:href="#me9b10db07f" x="164.709885" y="262.240692" style="fill: #4169e1; stroke: #4169e1"/>
     <use xlink:href="#me9b10db07f" x="282.336135" y="161.604799" style="fill: #4169e1; stroke: #4169e1"/>
     <use xlink:href="#me9b10db07f" x="360.949653" y="226.376086" style="fill: #4169e1; stroke: #4169e1"/>
     <use xlink:href="#me9b10db07f" x="380.134437" y="137.567471" style="fill: #4169e1; stroke: #4169e1"/>
     <use xlink:href="#me9b10db07f" x="300.598154" y="324.650381" style="fill: #4169e1; stroke: #4169e1"/>
     <use xlink:href="#me9b10db07f" x="407.581386" y="225.350409" style="fill: #4169e1; stroke: #4169e1"/>
     <use xlink:href="#me9b10db07f" x="355.491662" y="214.119194" style="fill: #4169e1; stroke: #4169e1"/>
     <use xlink:href="#me9b10db07f" x="322.044102" y="297.419731" style="fill: #4169e1; stroke: #4169e1"/>
     <use xlink:href="#me9b10db07f" x="319.621836" y="190.721624" style="fill: #4169e1; stroke: #4169e1"/>
     <use xlink:href="#me9b10db07f" x="297.190418" y="326.579648" style="fill: #4169e1; stroke: #4169e1"/>
     <use xlink:href="#me9b10db07f" x="364.34538" y="232.343756" style="fill: #4169e1; stroke: #4169e1"/>
     <use xlink:href="#me9b10db07f" x="371.368867" y="207.170743" style="fill: #4169e1; stroke: #4169e1"/>
     <use xlink:href="#me9b10db07f" x="321.903847" y="246.823574" style="fill: #4169e1; stroke: #4169e1"/>
     <use xlink:href="#me9b10db07f" x="283.307199" y="138.020148" style="fill: #4169e1; stroke: #4169e1"/>
     <use xlink:href="#me9b10db07f" x="358.093471" y="273.52887" style="fill: #4169e1; stroke: #4169e1"/>
     <use xlink:href="#me9b10db07f" x="199.371573" y="272.354276" style="fill: #4169e1; stroke: #4169e1"/>
     <use xlink:href="#me9b10db07f" x="301.225635" y="121.646899" style="fill: #4169e1; stroke: #4169e1"/>
     <use xlink:href="#me9b10db07f" x="254.069412" y="322.106374" style="fill: #4169e1; stroke: #4169e1"/>
     <use xlink:href="#me9b10db07f" x="383.06086" y="237.46588" style="fill: #4169e1; stroke: #4169e1"/>
     <use xlink:href="#me9b10db07f" x="368.658547" y="173.698864" style="fill: #4169e1; stroke: #4169e1"/>
     <use xlink:href="#me9b10db07f" x="342.128416" y="159.162265" style="fill: #4169e1; stroke: #4169e1"/>
     <use xlink:href="#me9b10db07f" x="358.538067" y="202.628971" style="fill: #4169e1; stroke: #4169e1"/>
     <use xlink:href="#me9b10db07f" x="386.950938" y="171.939202" style="fill: #4169e1; stroke: #4169e1"/>
     <use xlink:href="#me9b10db07f" x="236.748196" y="341.78509" style="fill: #4169e1; stroke: #4169e1"/>
     <use xlink:href="#me9b10db07f" x="291.579088" y="189.010411" style="fill: #4169e1; stroke: #4169e1"/>
     <use xlink:href="#me9b10db07f" x="332.511278" y="230.544179" style="fill: #4169e1; stroke: #4169e1"/>
     <use xlink:href="#me9b10db07f" x="330.332307" y="125.902995" style="fill: #4169e1; stroke: #4169e1"/>
     <use xlink:href="#me9b10db07f" x="223.654049" y="295.337942" style="fill: #4169e1; stroke: #4169e1"/>
     <use xlink:href="#me9b10db07f" x="337.71969" y="182.576532" style="fill: #4169e1; stroke: #4169e1"/>
     <use xlink:href="#me9b10db07f" x="326.183535" y="201.819448" style="fill: #4169e1; stroke: #4169e1"/>
     <use xlink:href="#me9b10db07f" x="279.763934" y="348.231526" style="fill: #4169e1; stroke: #4169e1"/>
     <use xlink:href="#me9b10db07f" x="353.949311" y="331.446904" style="fill: #4169e1; stroke: #4169e1"/>
     <use xlink:href="#me9b10db07f" x="222.709982" y="144.495685" style="fill: #4169e1; stroke: #4169e1"/>
     <use xlink:href="#me9b10db07f" x="235.814216" y="303.965204" style="fill: #4169e1; stroke: #4169e1"/>
     <use xlink:href="#me9b10db07f" x="184.227615" y="172.175539" style="fill: #4169e1; stroke: #4169e1"/>
     <use xlink:href="#me9b10db07f" x="326.664645" y="156.293143" style="fill: #4169e1; stroke: #4169e1"/>
     <use xlink:href="#me9b10db07f" x="389.517752" y="141.495225" style="fill: #4169e1; stroke: #4169e1"/>
     <use xlink:href="#me9b10db07f" x="264.545152" y="333.876085" style="fill: #4169e1; stroke: #4169e1"/>
     <use xlink:href="#me9b10db07f" x="274.681348" y="203.951359" style="fill: #4169e1; stroke: #4169e1"/>
     <use xlink:href="#me9b10db07f" x="314.498117" y="314.856829" style="fill: #4169e1; stroke: #4169e1"/>
     <use xlink:href="#me9b10db07f" x="335.660966" y="293.539425" style="fill: #4169e1; stroke: #4169e1"/>
     <use xlink:href="#me9b10db07f" x="300.730112" y="99.900079" style="fill: #4169e1; stroke: #4169e1"/>
     <use xlink:href="#me9b10db07f" x="370.543622" y="109.113988" style="fill: #4169e1; stroke: #4169e1"/>
     <use xlink:href="#me9b10db07f" x="290.500354" y="192.507253" style="fill: #4169e1; stroke: #4169e1"/>
     <use xlink:href="#me9b10db07f" x="383.23141" y="248.847833" style="fill: #4169e1; stroke: #4169e1"/>
     <use xlink:href="#me9b10db07f" x="357.101831" y="198.551789" style="fill: #4169e1; stroke: #4169e1"/>
     <use xlink:href="#me9b10db07f" x="301.946303" y="222.392202" style="fill: #4169e1; stroke: #4169e1"/>
    </g>
   </g>
   <g id="PathCollection_2">
    <defs>
     <path id="m03b9cdb04f" d="M 0 2.5 
C 0.663008 2.5 1.29895 2.236584 1.767767 1.767767 
C 2.236584 1.29895 2.5 0.663008 2.5 0 
C 2.5 -0.663008 2.236584 -1.29895 1.767767 -1.767767 
C 1.29895 -2.236584 0.663008 -2.5 0 -2.5 
C -0.663008 -2.5 -1.29895 -2.236584 -1.767767 -1.767767 
C -2.236584 -1.29895 -2.5 -0.663008 -2.5 0 
C -2.5 0.663008 -2.236584 1.29895 -1.767767 1.767767 
C -1.29895 2.236584 -0.663008 2.5 0 2.5 
z
" style="stroke: #b22222"/>
    </defs>
    <g clip-path="url(#p6449a6bcfe)">
     <use xlink:href="#m03b9cdb04f" x="283.853992" y="258.151857" style="fill: #b22222; stroke: #b22222"/>
     <use xlink:href="#m03b9cdb04f" x="307.309768" y="245.754205" style="fill: #b22222; stroke: #b22222"/>
     <use xlink:href="#m03b9cdb04f" x="233.59953" y="231.812399" style="fill: #b22222; stroke: #b22222"/>
     <use xlink:href="#m03b9cdb04f" x="234.556956" y="225.433582" style="fill: #b22222; stroke: #b22222"/>
     <use xlink:href="#m03b9cdb04f" x="256.31338" y="256.897138" style="fill: #b22222; stroke: #b22222"/>
     <use xlink:href="#m03b9cdb04f" x="237.550885" y="238.113912" style="fill: #b22222; stroke: #b22222"/>
     <use xlink:href="#m03b9cdb04f" x="244.191473" y="236.913576" style="fill: #b22222; stroke: #b22222"/>
     <use xlink:href="#m03b9cdb04f" x="236.46164" y="240.784187" style="fill: #b22222; stroke: #b22222"/>
     <use xlink:href="#m03b9cdb04f" x="229.528375" y="228.856417" style="fill: #b22222; stroke: #b22222"/>
     <use xlink:href="#m03b9cdb04f" x="265.567365" y="260.31287" style="fill: #b22222; stroke: #b22222"/>
     <use xlink:href="#m03b9cdb04f" x="240.48841" y="228.670112" style="fill: #b22222; stroke: #b22222"/>
     <use xlink:href="#m03b9cdb04f" x="240.389803" y="238.444855" style="fill: #b22222; stroke: #b22222"/>
     <use xlink:href="#m03b9cdb04f" x="261.227293" y="249.170508" style="fill: #b22222; stroke: #b22222"/>
     <use xlink:href="#m03b9cdb04f" x="251.753117" y="254.203938" style="fill: #b22222; stroke: #b22222"/>
     <use xlink:href="#m03b9cdb04f" x="256.725263" y="253.060388" style="fill: #b22222; stroke: #b22222"/>
     <use xlink:href="#m03b9cdb04f" x="251.376716" y="243.541172" style="fill: #b22222; stroke: #b22222"/>
     <use xlink:href="#m03b9cdb04f" x="252.091996" y="261.558422" style="fill: #b22222; stroke: #b22222"/>
     <use xlink:href="#m03b9cdb04f" x="241.838698" y="235.023086" style="fill: #b22222; stroke: #b22222"/>
     <use xlink:href="#m03b9cdb04f" x="250.941335" y="259.42693" style="fill: #b22222; stroke: #b22222"/>
     <use xlink:href="#m03b9cdb04f" x="253.754213" y="247.815659" style="fill: #b22222; stroke: #b22222"/>
     <use xlink:href="#m03b9cdb04f" x="247.35717" y="245.279869" style="fill: #b22222; stroke: #b22222"/>
     <use xlink:href="#m03b9cdb04f" x="228.369278" y="227.328101" style="fill: #b22222; stroke: #b22222"/>
     <use xlink:href="#m03b9cdb04f" x="252.191333" y="267.70204" style="fill: #b22222; stroke: #b22222"/>
     <use xlink:href="#m03b9cdb04f" x="243.744082" y="228.597747" style="fill: #b22222; stroke: #b22222"/>
     <use xlink:href="#m03b9cdb04f" x="231.029583" y="240.301184" style="fill: #b22222; stroke: #b22222"/>
     <use xlink:href="#m03b9cdb04f" x="273.805134" y="199.888782" style="fill: #b22222; stroke: #b22222"/>
     <use xlink:href="#m03b9cdb04f" x="245.45943" y="237.718926" style="fill: #b22222; stroke: #b22222"/>
     <use xlink:href="#m03b9cdb04f" x="258.992476" y="247.63701" style="fill: #b22222; stroke: #b22222"/>
     <use xlink:href="#m03b9cdb04f" x="238.605602" y="230.445496" style="fill: #b22222; stroke: #b22222"/>
     <use xlink:href="#m03b9cdb04f" x="252.079605" y="264.361018" style="fill: #b22222; stroke: #b22222"/>
     <use xlink:href="#m03b9cdb04f" x="269.286582" y="267.387418" style="fill: #b22222; stroke: #b22222"/>
     <use xlink:href="#m03b9cdb04f" x="246.739971" y="247.078236" style="fill: #b22222; stroke: #b22222"/>
     <use xlink:href="#m03b9cdb04f" x="234.698706" y="248.052047" style="fill: #b22222; stroke: #b22222"/>
     <use xlink:href="#m03b9cdb04f" x="225.936574" y="221.793253" style="fill: #b22222; stroke: #b22222"/>
     <use xlink:href="#m03b9cdb04f" x="232.450449" y="239.531001" style="fill: #b22222; stroke: #b22222"/>
     <use xlink:href="#m03b9cdb04f" x="237.014768" y="229.362468" style="fill: #b22222; stroke: #b22222"/>
     <use xlink:href="#m03b9cdb04f" x="254.949535" y="248.113212" style="fill: #b22222; stroke: #b22222"/>
     <use xlink:href="#m03b9cdb04f" x="232.009" y="224.953411" style="fill: #b22222; stroke: #b22222"/>
     <use xlink:href="#m03b9cdb04f" x="246.097335" y="224.630488" style="fill: #b22222; stroke: #b22222"/>
     <use xlink:href="#m03b9cdb04f" x="249.378301" y="251.182106" style="fill: #b22222; stroke: #b22222"/>
     <use xlink:href="#m03b9cdb04f" x="282.363429" y="260.664787" style="fill: #b22222; stroke: #b22222"/>
     <use xlink:href="#m03b9cdb04f" x="279.276308" y="278.632964" style="fill: #b22222; stroke: #b22222"/>
     <use xlink:href="#m03b9cdb04f" x="232.156926" y="222.163135" style="fill: #b22222; stroke: #b22222"/>
     <use xlink:href="#m03b9cdb04f" x="245.387467" y="257.259051" style="fill: #b22222; stroke: #b22222"/>
     <use xlink:href="#m03b9cdb04f" x="260.180436" y="259.516546" style="fill: #b22222; stroke: #b22222"/>
     <use xlink:href="#m03b9cdb04f" x="242.386398" y="229.541515" style="fill: #b22222; stroke: #b22222"/>
     <use xlink:href="#m03b9cdb04f" x="233.74237" y="231.008148" style="fill: #b22222; stroke: #b22222"/>
     <use xlink:href="#m03b9cdb04f" x="242.162936" y="237.121979" style="fill: #b22222; stroke: #b22222"/>
     <use xlink:href="#m03b9cdb04f" x="289.203884" y="262.910946" style="fill: #b22222; stroke: #b22222"/>
     <use xlink:href="#m03b9cdb04f" x="238.497751" y="242.342699" style="fill: #b22222; stroke: #b22222"/>
     <use xlink:href="#m03b9cdb04f" x="243.601889" y="243.41745" style="fill: #b22222; stroke: #b22222"/>
     <use xlink:href="#m03b9cdb04f" x="226.496094" y="219.903473" style="fill: #b22222; stroke: #b22222"/>
     <use xlink:href="#m03b9cdb04f" x="240.323643" y="238.468001" style="fill: #b22222; stroke: #b22222"/>
     <use xlink:href="#m03b9cdb04f" x="246.850769" y="242.614291" style="fill: #b22222; stroke: #b22222"/>
     <use xlink:href="#m03b9cdb04f" x="239.230771" y="237.88855" style="fill: #b22222; stroke: #b22222"/>
     <use xlink:href="#m03b9cdb04f" x="222.953212" y="215.234226" style="fill: #b22222; stroke: #b22222"/>
     <use xlink:href="#m03b9cdb04f" x="264.665102" y="259.7589" style="fill: #b22222; stroke: #b22222"/>
     <use xlink:href="#m03b9cdb04f" x="262.920647" y="264.167577" style="fill: #b22222; stroke: #b22222"/>
     <use xlink:href="#m03b9cdb04f" x="233.341733" y="246.33204" style="fill: #b22222; stroke: #b22222"/>
     <use xlink:href="#m03b9cdb04f" x="233.023375" y="226.181176" style="fill: #b22222; stroke: #b22222"/>
     <use xlink:href="#m03b9cdb04f" x="245.581649" y="244.15125" style="fill: #b22222; stroke: #b22222"/>
     <use xlink:href="#m03b9cdb04f" x="238.929123" y="232.139191" style="fill: #b22222; stroke: #b22222"/>
     <use xlink:href="#m03b9cdb04f" x="251.395765" y="243.441969" style="fill: #b22222; stroke: #b22222"/>
     <use xlink:href="#m03b9cdb04f" x="250.697217" y="253.936395" style="fill: #b22222; stroke: #b22222"/>
     <use xlink:href="#m03b9cdb04f" x="240.804084" y="221.25495" style="fill: #b22222; stroke: #b22222"/>
     <use xlink:href="#m03b9cdb04f" x="231.209702" y="237.792634" style="fill: #b22222; stroke: #b22222"/>
     <use xlink:href="#m03b9cdb04f" x="235.115024" y="222.9234" style="fill: #b22222; stroke: #b22222"/>
     <use xlink:href="#m03b9cdb04f" x="240.420765" y="245.16539" style="fill: #b22222; stroke: #b22222"/>
     <use xlink:href="#m03b9cdb04f" x="225.281144" y="225.450032" style="fill: #b22222; stroke: #b22222"/>
     <use xlink:href="#m03b9cdb04f" x="243.099683" y="223.74981" style="fill: #b22222; stroke: #b22222"/>
     <use xlink:href="#m03b9cdb04f" x="247.842148" y="240.912506" style="fill: #b22222; stroke: #b22222"/>
     <use xlink:href="#m03b9cdb04f" x="238.501331" y="235.522243" style="fill: #b22222; stroke: #b22222"/>
     <use xlink:href="#m03b9cdb04f" x="230.253101" y="227.652137" style="fill: #b22222; stroke: #b22222"/>
     <use xlink:href="#m03b9cdb04f" x="245.627973" y="246.186584" style="fill: #b22222; stroke: #b22222"/>
     <use xlink:href="#m03b9cdb04f" x="240.135708" y="233.668946" style="fill: #b22222; stroke: #b22222"/>
     <use xlink:href="#m03b9cdb04f" x="234.534095" y="223.518992" style="fill: #b22222; stroke: #b22222"/>
     <use xlink:href="#m03b9cdb04f" x="227.292902" y="220.451149" style="fill: #b22222; stroke: #b22222"/>
     <use xlink:href="#m03b9cdb04f" x="233.450687" y="220.38522" style="fill: #b22222; stroke: #b22222"/>
     <use xlink:href="#m03b9cdb04f" x="227.638583" y="255.011723" style="fill: #b22222; stroke: #b22222"/>
     <use xlink:href="#m03b9cdb04f" x="236.246435" y="228.299794" style="fill: #b22222; stroke: #b22222"/>
     <use xlink:href="#m03b9cdb04f" x="244.168098" y="233.212688" style="fill: #b22222; stroke: #b22222"/>
     <use xlink:href="#m03b9cdb04f" x="253.177353" y="250.202929" style="fill: #b22222; stroke: #b22222"/>
     <use xlink:href="#m03b9cdb04f" x="252.059507" y="256.765507" style="fill: #b22222; stroke: #b22222"/>
     <use xlink:href="#m03b9cdb04f" x="245.762394" y="239.136433" style="fill: #b22222; stroke: #b22222"/>
     <use xlink:href="#m03b9cdb04f" x="234.238944" y="246.000982" style="fill: #b22222; stroke: #b22222"/>
     <use xlink:href="#m03b9cdb04f" x="237.416312" y="224.02353" style="fill: #b22222; stroke: #b22222"/>
     <use xlink:href="#m03b9cdb04f" x="281.775812" y="269.576615" style="fill: #b22222; stroke: #b22222"/>
     <use xlink:href="#m03b9cdb04f" x="251.089397" y="248.841576" style="fill: #b22222; stroke: #b22222"/>
     <use xlink:href="#m03b9cdb04f" x="243.793265" y="256.363296" style="fill: #b22222; stroke: #b22222"/>
     <use xlink:href="#m03b9cdb04f" x="242.116896" y="243.026294" style="fill: #b22222; stroke: #b22222"/>
     <use xlink:href="#m03b9cdb04f" x="240.392063" y="249.8855" style="fill: #b22222; stroke: #b22222"/>
     <use xlink:href="#m03b9cdb04f" x="230.401687" y="215.996796" style="fill: #b22222; stroke: #b22222"/>
     <use xlink:href="#m03b9cdb04f" x="239.744125" y="245.356363" style="fill: #b22222; stroke: #b22222"/>
     <use xlink:href="#m03b9cdb04f" x="253.536903" y="260.434544" style="fill: #b22222; stroke: #b22222"/>
     <use xlink:href="#m03b9cdb04f" x="218.933373" y="222.262916" style="fill: #b22222; stroke: #b22222"/>
     <use xlink:href="#m03b9cdb04f" x="281.807334" y="255.253682" style="fill: #b22222; stroke: #b22222"/>
     <use xlink:href="#m03b9cdb04f" x="296.373722" y="230.830424" style="fill: #b22222; stroke: #b22222"/>
     <use xlink:href="#m03b9cdb04f" x="244.75324" y="235.033966" style="fill: #b22222; stroke: #b22222"/>
     <use xlink:href="#m03b9cdb04f" x="275.960589" y="261.476782" style="fill: #b22222; stroke: #b22222"/>
     <use xlink:href="#m03b9cdb04f" x="252.026297" y="256.111182" style="fill: #b22222; stroke: #b22222"/>
     <use xlink:href="#m03b9cdb04f" x="237.653005" y="230.951667" style="fill: #b22222; stroke: #b22222"/>
     <use xlink:href="#m03b9cdb04f" x="252.064048" y="249.644857" style="fill: #b22222; stroke: #b22222"/>
     <use xlink:href="#m03b9cdb04f" x="275.117008" y="251.075801" style="fill: #b22222; stroke: #b22222"/>
     <use xlink:href="#m03b9cdb04f" x="256.256478" y="248.862033" style="fill: #b22222; stroke: #b22222"/>
     <use xlink:href="#m03b9cdb04f" x="243.507752" y="228.046487" style="fill: #b22222; stroke: #b22222"/>
     <use xlink:href="#m03b9cdb04f" x="251.005898" y="254.281388" style="fill: #b22222; stroke: #b22222"/>
     <use xlink:href="#m03b9cdb04f" x="250.455119" y="244.339913" style="fill: #b22222; stroke: #b22222"/>
     <use xlink:href="#m03b9cdb04f" x="239.131731" y="232.147604" style="fill: #b22222; stroke: #b22222"/>
     <use xlink:href="#m03b9cdb04f" x="282.298151" y="259.873701" style="fill: #b22222; stroke: #b22222"/>
     <use xlink:href="#m03b9cdb04f" x="235.787109" y="229.213706" style="fill: #b22222; stroke: #b22222"/>
     <use xlink:href="#m03b9cdb04f" x="244.941385" y="245.572098" style="fill: #b22222; stroke: #b22222"/>
     <use xlink:href="#m03b9cdb04f" x="273.057091" y="265.439452" style="fill: #b22222; stroke: #b22222"/>
     <use xlink:href="#m03b9cdb04f" x="248.06623" y="244.584587" style="fill: #b22222; stroke: #b22222"/>
     <use xlink:href="#m03b9cdb04f" x="251.209367" y="250.98274" style="fill: #b22222; stroke: #b22222"/>
     <use xlink:href="#m03b9cdb04f" x="276.12993" y="260.224286" style="fill: #b22222; stroke: #b22222"/>
     <use xlink:href="#m03b9cdb04f" x="252.740083" y="252.683043" style="fill: #b22222; stroke: #b22222"/>
     <use xlink:href="#m03b9cdb04f" x="243.800818" y="236.31779" style="fill: #b22222; stroke: #b22222"/>
     <use xlink:href="#m03b9cdb04f" x="231.73178" y="226.3159" style="fill: #b22222; stroke: #b22222"/>
     <use xlink:href="#m03b9cdb04f" x="238.760032" y="237.207768" style="fill: #b22222; stroke: #b22222"/>
     <use xlink:href="#m03b9cdb04f" x="245.559397" y="242.187841" style="fill: #b22222; stroke: #b22222"/>
    </g>
   </g>
   <g id="patch_4">
    <path d="M 56.450156 450.72 
L 56.450156 7.2 
" style="fill: none; stroke: #ffffff; stroke-width: 1.25; stroke-linejoin: miter; stroke-linecap: square"/>
   </g>
   <g id="patch_5">
    <path d="M 499.970156 450.72 
L 499.970156 7.2 
" style="fill: none; stroke: #ffffff; stroke-width: 1.25; stroke-linejoin: miter; stroke-linecap: square"/>
   </g>
   <g id="patch_6">
    <path d="M 56.450156 450.72 
L 499.970156 450.72 
" style="fill: none; stroke: #ffffff; stroke-width: 1.25; stroke-linejoin: miter; stroke-linecap: square"/>
   </g>
   <g id="patch_7">
    <path d="M 56.450156 7.2 
L 499.970156 7.2 
" style="fill: none; stroke: #ffffff; stroke-width: 1.25; stroke-linejoin: miter; stroke-linecap: square"/>
   </g>
   <g id="text_13">
    <!-- t = 300 -->
    <g style="fill: #262626" transform="translate(65.320556 24.659775) scale(0.12 -0.12)">
     <defs>
      <path id="ArialMT-74" d="M 1650 503 
L 1731 6 
Q 1494 -44 1306 -44 
Q 1000 -44 831 53 
Q 663 150 594 308 
Q 525 466 525 972 
L 525 2881 
L 113 2881 
L 113 3319 
L 525 3319 
L 525 4141 
L 1084 4478 
L 1084 3319 
L 1650 3319 
L 1650 2881 
L 1084 2881 
L 1084 941 
Q 1084 700 1114 631 
Q 1144 563 1211 522 
Q 1278 481 1403 481 
Q 1497 481 1650 503 
z
" transform="scale(0.015625)"/>
      <path id="ArialMT-20" transform="scale(0.015625)"/>
      <path id="ArialMT-3d" d="M 3381 2694 
L 356 2694 
L 356 3219 
L 3381 3219 
L 3381 2694 
z
M 3381 1303 
L 356 1303 
L 356 1828 
L 3381 1828 
L 3381 1303 
z
" transform="scale(0.015625)"/>
      <path id="ArialMT-33" d="M 269 1209 
L 831 1284 
Q 928 806 1161 595 
Q 1394 384 1728 384 
Q 2125 384 2398 659 
Q 2672 934 2672 1341 
Q 2672 1728 2419 1979 
Q 2166 2231 1775 2231 
Q 1616 2231 1378 2169 
L 1441 2663 
Q 1497 2656 1531 2656 
Q 1891 2656 2178 2843 
Q 2466 3031 2466 3422 
Q 2466 3731 2256 3934 
Q 2047 4138 1716 4138 
Q 1388 4138 1169 3931 
Q 950 3725 888 3313 
L 325 3413 
Q 428 3978 793 4289 
Q 1159 4600 1703 4600 
Q 2078 4600 2393 4439 
Q 2709 4278 2876 4000 
Q 3044 3722 3044 3409 
Q 3044 3113 2884 2869 
Q 2725 2625 2413 2481 
Q 2819 2388 3044 2092 
Q 3269 1797 3269 1353 
Q 3269 753 2831 336 
Q 2394 -81 1725 -81 
Q 1122 -81 723 278 
Q 325 638 269 1209 
z
" transform="scale(0.015625)"/>
     </defs>
     <use xlink:href="#ArialMT-74"/>
     <use xlink:href="#ArialMT-20" x="27.783203"/>
     <use xlink:href="#ArialMT-3d" x="55.566406"/>
     <use xlink:href="#ArialMT-20" x="113.964844"/>
     <use xlink:href="#ArialMT-33" x="141.748047"/>
     <use xlink:href="#ArialMT-30" x="197.363281"/>
     <use xlink:href="#ArialMT-30" x="252.978516"/>
    </g>
   </g>
   <g id="legend_1">
    <g id="patch_8">
     <path d="M 328.111406 94.59 
L 483.170156 94.59 
Q 487.970156 94.59 487.970156 89.79 
L 487.970156 24 
Q 487.970156 19.2 483.170156 19.2 
L 328.111406 19.2 
Q 323.311406 19.2 323.311406 24 
L 323.311406 89.79 
Q 323.311406 94.59 328.111406 94.59 
z
" style="fill: #eaeaf2; opacity: 0.8; stroke: #cccccc; stroke-linejoin: miter"/>
    </g>
    <g id="PathCollection_3">
     <g>
      <use xlink:href="#me9b10db07f" x="356.911406" y="39.97125" style="fill: #4169e1; stroke: #4169e1"/>
     </g>
    </g>
    <g id="text_14">
     <!-- Sheep -->
     <g style="fill: #262626" transform="translate(400.111406 46.27125) scale(0.24 -0.24)">
      <defs>
       <path id="ArialMT-53" d="M 288 1472 
L 859 1522 
Q 900 1178 1048 958 
Q 1197 738 1509 602 
Q 1822 466 2213 466 
Q 2559 466 2825 569 
Q 3091 672 3220 851 
Q 3350 1031 3350 1244 
Q 3350 1459 3225 1620 
Q 3100 1781 2813 1891 
Q 2628 1963 1997 2114 
Q 1366 2266 1113 2400 
Q 784 2572 623 2826 
Q 463 3081 463 3397 
Q 463 3744 659 4045 
Q 856 4347 1234 4503 
Q 1613 4659 2075 4659 
Q 2584 4659 2973 4495 
Q 3363 4331 3572 4012 
Q 3781 3694 3797 3291 
L 3216 3247 
Q 3169 3681 2898 3903 
Q 2628 4125 2100 4125 
Q 1550 4125 1298 3923 
Q 1047 3722 1047 3438 
Q 1047 3191 1225 3031 
Q 1400 2872 2139 2705 
Q 2878 2538 3153 2413 
Q 3553 2228 3743 1945 
Q 3934 1663 3934 1294 
Q 3934 928 3725 604 
Q 3516 281 3123 101 
Q 2731 -78 2241 -78 
Q 1619 -78 1198 103 
Q 778 284 539 648 
Q 300 1013 288 1472 
z
" transform="scale(0.015625)"/>
       <path id="ArialMT-68" d="M 422 0 
L 422 4581 
L 984 4581 
L 984 2938 
Q 1378 3394 1978 3394 
Q 2347 3394 2619 3248 
Q 2891 3103 3008 2847 
Q 3125 2591 3125 2103 
L 3125 0 
L 2563 0 
L 2563 2103 
Q 2563 2525 2380 2717 
Q 2197 2909 1863 2909 
Q 1613 2909 1392 2779 
Q 1172 2650 1078 2428 
Q 984 2206 984 1816 
L 984 0 
L 422 0 
z
" transform="scale(0.015625)"/>
       <path id="ArialMT-65" d="M 2694 1069 
L 3275 997 
Q 3138 488 2766 206 
Q 2394 -75 1816 -75 
Q 1088 -75 661 373 
Q 234 822 234 1631 
Q 234 2469 665 2931 
Q 1097 3394 1784 3394 
Q 2450 3394 2872 2941 
Q 3294 2488 3294 1666 
Q 3294 1616 3291 1516 
L 816 1516 
Q 847 969 1125 678 
Q 1403 388 1819 388 
Q 2128 388 2347 550 
Q 2566 713 2694 1069 
z
M 847 1978 
L 2700 1978 
Q 2663 2397 2488 2606 
Q 2219 2931 1791 2931 
Q 1403 2931 1139 2672 
Q 875 2413 847 1978 
z
" transform="scale(0.015625)"/>
       <path id="ArialMT-70" d="M 422 -1272 
L 422 3319 
L 934 3319 
L 934 2888 
Q 1116 3141 1344 3267 
Q 1572 3394 1897 3394 
Q 2322 3394 2647 3175 
Q 2972 2956 3137 2557 
Q 3303 2159 3303 1684 
Q 3303 1175 3120 767 
Q 2938 359 2589 142 
Q 2241 -75 1856 -75 
Q 1575 -75 1351 44 
Q 1128 163 984 344 
L 984 -1272 
L 422 -1272 
z
M 931 1641 
Q 931 1000 1190 694 
Q 1450 388 1819 388 
Q 2194 388 2461 705 
Q 2728 1022 2728 1688 
Q 2728 2322 2467 2637 
Q 2206 2953 1844 2953 
Q 1484 2953 1207 2617 
Q 931 2281 931 1641 
z
" transform="scale(0.015625)"/>
      </defs>
      <use xlink:href="#ArialMT-53"/>
      <use xlink:href="#ArialMT-68" x="66.699219"/>
      <use xlink:href="#ArialMT-65" x="122.314453"/>
      <use xlink:href="#ArialMT-65" x="177.929688"/>
      <use xlink:href="#ArialMT-70" x="233.544922"/>
     </g>
    </g>
    <g id="PathCollection_4">
     <g>
      <use xlink:href="#m03b9cdb04f" x="356.911406" y="73.92" style="fill: #b22222; stroke: #b22222"/>
     </g>
    </g>
    <g id="text_15">
     <!-- Wolves -->
     <g style="fill: #262626" transform="translate(400.111406 80.22) scale(0.24 -0.24)">
      <defs>
       <path id="ArialMT-57" d="M 1294 0 
L 78 4581 
L 700 4581 
L 1397 1578 
Q 1509 1106 1591 641 
Q 1766 1375 1797 1488 
L 2669 4581 
L 3400 4581 
L 4056 2263 
Q 4303 1400 4413 641 
Q 4500 1075 4641 1638 
L 5359 4581 
L 5969 4581 
L 4713 0 
L 4128 0 
L 3163 3491 
Q 3041 3928 3019 4028 
Q 2947 3713 2884 3491 
L 1913 0 
L 1294 0 
z
" transform="scale(0.015625)"/>
       <path id="ArialMT-6f" d="M 213 1659 
Q 213 2581 725 3025 
Q 1153 3394 1769 3394 
Q 2453 3394 2887 2945 
Q 3322 2497 3322 1706 
Q 3322 1066 3130 698 
Q 2938 331 2570 128 
Q 2203 -75 1769 -75 
Q 1072 -75 642 372 
Q 213 819 213 1659 
z
M 791 1659 
Q 791 1022 1069 705 
Q 1347 388 1769 388 
Q 2188 388 2466 706 
Q 2744 1025 2744 1678 
Q 2744 2294 2464 2611 
Q 2184 2928 1769 2928 
Q 1347 2928 1069 2612 
Q 791 2297 791 1659 
z
" transform="scale(0.015625)"/>
       <path id="ArialMT-6c" d="M 409 0 
L 409 4581 
L 972 4581 
L 972 0 
L 409 0 
z
" transform="scale(0.015625)"/>
       <path id="ArialMT-76" d="M 1344 0 
L 81 3319 
L 675 3319 
L 1388 1331 
Q 1503 1009 1600 663 
Q 1675 925 1809 1294 
L 2547 3319 
L 3125 3319 
L 1869 0 
L 1344 0 
z
" transform="scale(0.015625)"/>
       <path id="ArialMT-73" d="M 197 991 
L 753 1078 
Q 800 744 1014 566 
Q 1228 388 1613 388 
Q 2000 388 2187 545 
Q 2375 703 2375 916 
Q 2375 1106 2209 1216 
Q 2094 1291 1634 1406 
Q 1016 1563 777 1677 
Q 538 1791 414 1992 
Q 291 2194 291 2438 
Q 291 2659 392 2848 
Q 494 3038 669 3163 
Q 800 3259 1026 3326 
Q 1253 3394 1513 3394 
Q 1903 3394 2198 3281 
Q 2494 3169 2634 2976 
Q 2775 2784 2828 2463 
L 2278 2388 
Q 2241 2644 2061 2787 
Q 1881 2931 1553 2931 
Q 1166 2931 1000 2803 
Q 834 2675 834 2503 
Q 834 2394 903 2306 
Q 972 2216 1119 2156 
Q 1203 2125 1616 2013 
Q 2213 1853 2448 1751 
Q 2684 1650 2818 1456 
Q 2953 1263 2953 975 
Q 2953 694 2789 445 
Q 2625 197 2315 61 
Q 2006 -75 1616 -75 
Q 969 -75 630 194 
Q 291 463 197 991 
z
" transform="scale(0.015625)"/>
      </defs>
      <use xlink:href="#ArialMT-57"/>
      <use xlink:href="#ArialMT-6f" x="92.634766"/>
      <use xlink:href="#ArialMT-6c" x="148.25"/>
      <use xlink:href="#ArialMT-76" x="170.466797"/>
      <use xlink:href="#ArialMT-65" x="220.466797"/>
      <use xlink:href="#ArialMT-73" x="276.082031"/>
     </g>
    </g>
   </g>
  </g>
 </g>
 <defs>
  <clipPath id="p6449a6bcfe">
   <rect x="56.450156" y="7.2" width="443.52" height="443.52"/>
  </clipPath>
 </defs>
</svg>
