<?xml version="1.0" encoding="utf-8" standalone="no"?>
<!DOCTYPE svg PUBLIC "-//W3C//DTD SVG 1.1//EN"
  "http://www.w3.org/Graphics/SVG/1.1/DTD/svg11.dtd">
<svg xmlns:xlink="http://www.w3.org/1999/xlink" width="507.170156pt" height="492.454219pt" viewBox="0 0 507.170156 492.454219" xmlns="http://www.w3.org/2000/svg" version="1.1">
 <metadata>
  <rdf:RDF xmlns:dc="http://purl.org/dc/elements/1.1/" xmlns:cc="http://creativecommons.org/ns#" xmlns:rdf="http://www.w3.org/1999/02/22-rdf-syntax-ns#">
   <cc:Work>
    <dc:type rdf:resource="http://purl.org/dc/dcmitype/StillImage"/>
    <dc:date>2026-05-12T10:49:56.152578</dc:date>
    <dc:format>image/svg+xml</dc:format>
    <dc:creator>
     <cc:Agent>
      <dc:title>Matplotlib v3.7.1, https://matplotlib.org/</dc:title>
     </cc:Agent>
    </dc:creator>
   </cc:Work>
  </rdf:RDF>
 </metadata>
 <defs>
  <style type="text/css">*{stroke-linejoin: round; stroke-linecap: butt}</style>
 </defs>
 <g id="figure_1">
  <g id="patch_1">
   <path d="M 0 492.454219 
L 507.170156 492.454219 
L 507.170156 0 
L 0 0 
z
" style="fill: #ffffff"/>
  </g>
  <g id="axes_1">
   <g id="patch_2">
    <path d="M 56.450156 450.72 
L 499.970156 450.72 
L 499.970156 7.2 
L 56.450156 7.2 
z
" style="fill: #eaeaf2"/>
   </g>
   <g id="matplotlib.axis_1">
    <g id="xtick_1">
     <g id="line2d_1">
      <path d="M 100.802156 450.72 
L 100.802156 7.2 
" clip-path="url(#paf4a9142c3)" style="fill: none; stroke: #ffffff; stroke-linecap: round"/>
     </g>
     <g id="text_1">
      <!-- −400 -->
      <g style="fill: #262626" transform="translate(88.414266 468.093594) scale(0.11 -0.11)">
       <defs>
        <path id="ArialMT-2212" d="M 3381 1997 
L 356 1997 
L 356 2522 
L 3381 2522 
L 3381 1997 
z
" transform="scale(0.015625)"/>
        <path id="ArialMT-34" d="M 2069 0 
L 2069 1097 
L 81 1097 
L 81 1613 
L 2172 4581 
L 2631 4581 
L 2631 1613 
L 3250 1613 
L 3250 1097 
L 2631 1097 
L 2631 0 
L 2069 0 
z
M 2069 1613 
L 2069 3678 
L 634 1613 
L 2069 1613 
z
" transform="scale(0.015625)"/>
        <path id="ArialMT-30" d="M 266 2259 
Q 266 3072 433 3567 
Q 600 4063 929 4331 
Q 1259 4600 1759 4600 
Q 2128 4600 2406 4451 
Q 2684 4303 2865 4023 
Q 3047 3744 3150 3342 
Q 3253 2941 3253 2259 
Q 3253 1453 3087 958 
Q 2922 463 2592 192 
Q 2263 -78 1759 -78 
Q 1097 -78 719 397 
Q 266 969 266 2259 
z
M 844 2259 
Q 844 1131 1108 757 
Q 1372 384 1759 384 
Q 2147 384 2411 759 
Q 2675 1134 2675 2259 
Q 2675 3391 2411 3762 
Q 2147 4134 1753 4134 
Q 1366 4134 1134 3806 
Q 844 3388 844 2259 
z
" transform="scale(0.015625)"/>
       </defs>
       <use xlink:href="#ArialMT-2212"/>
       <use xlink:href="#ArialMT-34" x="58.398438"/>
       <use xlink:href="#ArialMT-30" x="114.013672"/>
       <use xlink:href="#ArialMT-30" x="169.628906"/>
      </g>
     </g>
    </g>
    <g id="xtick_2">
     <g id="line2d_2">
      <path d="M 189.506156 450.72 
L 189.506156 7.2 
" clip-path="url(#paf4a9142c3)" style="fill: none; stroke: #ffffff; stroke-linecap: round"/>
     </g>
     <g id="text_2">
      <!-- −200 -->
      <g style="fill: #262626" transform="translate(177.118266 468.093594) scale(0.11 -0.11)">
       <defs>
        <path id="ArialMT-32" d="M 3222 541 
L 3222 0 
L 194 0 
Q 188 203 259 391 
Q 375 700 629 1000 
Q 884 1300 1366 1694 
Q 2113 2306 2375 2664 
Q 2638 3022 2638 3341 
Q 2638 3675 2398 3904 
Q 2159 4134 1775 4134 
Q 1369 4134 1125 3890 
Q 881 3647 878 3216 
L 300 3275 
Q 359 3922 746 4261 
Q 1134 4600 1788 4600 
Q 2447 4600 2831 4234 
Q 3216 3869 3216 3328 
Q 3216 3053 3103 2787 
Q 2991 2522 2730 2228 
Q 2469 1934 1863 1422 
Q 1356 997 1212 845 
Q 1069 694 975 541 
L 3222 541 
z
" transform="scale(0.015625)"/>
       </defs>
       <use xlink:href="#ArialMT-2212"/>
       <use xlink:href="#ArialMT-32" x="58.398438"/>
       <use xlink:href="#ArialMT-30" x="114.013672"/>
       <use xlink:href="#ArialMT-30" x="169.628906"/>
      </g>
     </g>
    </g>
    <g id="xtick_3">
     <g id="line2d_3">
      <path d="M 278.210156 450.72 
L 278.210156 7.2 
" clip-path="url(#paf4a9142c3)" style="fill: none; stroke: #ffffff; stroke-linecap: round"/>
     </g>
     <g id="text_3">
      <!-- 0 -->
      <g style="fill: #262626" transform="translate(275.151641 468.093594) scale(0.11 -0.11)">
       <use xlink:href="#ArialMT-30"/>
      </g>
     </g>
    </g>
    <g id="xtick_4">
     <g id="line2d_4">
      <path d="M 366.914156 450.72 
L 366.914156 7.2 
" clip-path="url(#paf4a9142c3)" style="fill: none; stroke: #ffffff; stroke-linecap: round"/>
     </g>
     <g id="text_4">
      <!-- 200 -->
      <g style="fill: #262626" transform="translate(357.738609 468.093594) scale(0.11 -0.11)">
       <use xlink:href="#ArialMT-32"/>
       <use xlink:href="#ArialMT-30" x="55.615234"/>
       <use xlink:href="#ArialMT-30" x="111.230469"/>
      </g>
     </g>
    </g>
    <g id="xtick_5">
     <g id="line2d_5">
      <path d="M 455.618156 450.72 
L 455.618156 7.2 
" clip-path="url(#paf4a9142c3)" style="fill: none; stroke: #ffffff; stroke-linecap: round"/>
     </g>
     <g id="text_5">
      <!-- 400 -->
      <g style="fill: #262626" transform="translate(446.442609 468.093594) scale(0.11 -0.11)">
       <use xlink:href="#ArialMT-34"/>
       <use xlink:href="#ArialMT-30" x="55.615234"/>
       <use xlink:href="#ArialMT-30" x="111.230469"/>
      </g>
     </g>
    </g>
    <g id="text_6">
     <!-- x -->
     <g style="fill: #262626" transform="translate(275.210156 482.869219) scale(0.12 -0.12)">
      <defs>
       <path id="ArialMT-78" d="M 47 0 
L 1259 1725 
L 138 3319 
L 841 3319 
L 1350 2541 
Q 1494 2319 1581 2169 
Q 1719 2375 1834 2534 
L 2394 3319 
L 3066 3319 
L 1919 1756 
L 3153 0 
L 2463 0 
L 1781 1031 
L 1600 1309 
L 728 0 
L 47 0 
z
" transform="scale(0.015625)"/>
      </defs>
      <use xlink:href="#ArialMT-78"/>
     </g>
    </g>
   </g>
   <g id="matplotlib.axis_2">
    <g id="ytick_1">
     <g id="line2d_6">
      <path d="M 56.450156 406.368 
L 499.970156 406.368 
" clip-path="url(#paf4a9142c3)" style="fill: none; stroke: #ffffff; stroke-linecap: round"/>
     </g>
     <g id="text_7">
      <!-- −400 -->
      <g style="fill: #262626" transform="translate(22.174375 410.304797) scale(0.11 -0.11)">
       <use xlink:href="#ArialMT-2212"/>
       <use xlink:href="#ArialMT-34" x="58.398438"/>
       <use xlink:href="#ArialMT-30" x="114.013672"/>
       <use xlink:href="#ArialMT-30" x="169.628906"/>
      </g>
     </g>
    </g>
    <g id="ytick_2">
     <g id="line2d_7">
      <path d="M 56.450156 317.664 
L 499.970156 317.664 
" clip-path="url(#paf4a9142c3)" style="fill: none; stroke: #ffffff; stroke-linecap: round"/>
     </g>
     <g id="text_8">
      <!-- −200 -->
      <g style="fill: #262626" transform="translate(22.174375 321.600797) scale(0.11 -0.11)">
       <use xlink:href="#ArialMT-2212"/>
       <use xlink:href="#ArialMT-32" x="58.398438"/>
       <use xlink:href="#ArialMT-30" x="114.013672"/>
       <use xlink:href="#ArialMT-30" x="169.628906"/>
      </g>
     </g>
    </g>
    <g id="ytick_3">
     <g id="line2d_8">
      <path d="M 56.450156 228.96 
L 499.970156 228.96 
" clip-path="url(#paf4a9142c3)" style="fill: none; stroke: #ffffff; stroke-linecap: round"/>
     </g>
     <g id="text_9">
      <!-- 0 -->
      <g style="fill: #262626" transform="translate(40.833125 232.896797) scale(0.11 -0.11)">
       <use xlink:href="#ArialMT-30"/>
      </g>
     </g>
    </g>
    <g id="ytick_4">
     <g id="line2d_9">
      <path d="M 56.450156 140.256 
L 499.970156 140.256 
" clip-path="url(#paf4a9142c3)" style="fill: none; stroke: #ffffff; stroke-linecap: round"/>
     </g>
     <g id="text_10">
      <!-- 200 -->
      <g style="fill: #262626" transform="translate(28.599063 144.192797) scale(0.11 -0.11)">
       <use xlink:href="#ArialMT-32"/>
       <use xlink:href="#ArialMT-30" x="55.615234"/>
       <use xlink:href="#ArialMT-30" x="111.230469"/>
      </g>
     </g>
    </g>
    <g id="ytick_5">
     <g id="line2d_10">
      <path d="M 56.450156 51.552 
L 499.970156 51.552 
" clip-path="url(#paf4a9142c3)" style="fill: none; stroke: #ffffff; stroke-linecap: round"/>
     </g>
     <g id="text_11">
      <!-- 400 -->
      <g style="fill: #262626" transform="translate(28.599063 55.488797) scale(0.11 -0.11)">
       <use xlink:href="#ArialMT-34"/>
       <use xlink:href="#ArialMT-30" x="55.615234"/>
       <use xlink:href="#ArialMT-30" x="111.230469"/>
      </g>
     </g>
    </g>
    <g id="text_12">
     <!-- y -->
     <g style="fill: #262626" transform="translate(15.64875 231.96) rotate(-90) scale(0.12 -0.12)">
      <defs>
       <path id="ArialMT-79" d="M 397 -1278 
L 334 -750 
Q 519 -800 656 -800 
Q 844 -800 956 -737 
Q 1069 -675 1141 -563 
Q 1194 -478 1313 -144 
Q 1328 -97 1363 -6 
L 103 3319 
L 709 3319 
L 1400 1397 
Q 1534 1031 1641 628 
Q 1738 1016 1872 1384 
L 2581 3319 
L 3144 3319 
L 1881 -56 
Q 1678 -603 1566 -809 
Q 1416 -1088 1222 -1217 
Q 1028 -1347 759 -1347 
Q 597 -1347 397 -1278 
z
" transform="scale(0.015625)"/>
      </defs>
      <use xlink:href="#ArialMT-79"/>
     </g>
    </g>
   </g>
   <g id="patch_3">
    <path d="M 278.210156 317.664 
C 301.734732 317.664 324.298969 308.317587 340.933356 291.6832 
C 357.567743 275.048813 366.914156 252.484576 366.914156 228.96 
C 366.914156 205.435424 357.567743 182.871187 340.933356 166.2368 
C 324.298969 149.602413 301.734732 140.256 278.210156 140.256 
C 254.68558 140.256 232.121343 149.602413 215.486956 166.2368 
C 198.852569 182.871187 189.506156 205.435424 189.506156 228.96 
C 189.506156 252.484576 198.852569 275.048813 215.486956 291.6832 
C 232.121343 308.317587 254.68558 317.664 278.210156 317.664 
z
" clip-path="url(#paf4a9142c3)" style="fill: #228b22; opacity: 0.12; stroke: #228b22; stroke-width: 1.5; stroke-linejoin: miter"/>
   </g>
   <g id="PathCollection_1">
    <defs>
     <path id="m1623c0dc8c" d="M 0 2.236068 
C 0.593012 2.236068 1.161816 2.000462 1.581139 1.581139 
C 2.000462 1.161816 2.236068 0.593012 2.236068 0 
C 2.236068 -0.593012 2.000462 -1.161816 1.581139 -1.581139 
C 1.161816 -2.000462 0.593012 -2.236068 0 -2.236068 
C -0.593012 -2.236068 -1.161816 -2.000462 -1.581139 -1.581139 
C -2.000462 -1.161816 -2.236068 -0.593012 -2.236068 0 
C -2.236068 0.593012 -2.000462 1.161816 -1.581139 1.581139 
C -1.161816 2.000462 -0.593012 2.236068 0 2.236068 
z
" style="stroke: #4169e1"/>
    </defs>
    <g clip-path="url(#paf4a9142c3)">
     <use xlink:href="#m1623c0dc8c" x="229.586363" y="239.133712" style="fill: #4169e1; stroke: #4169e1"/>
     <use xlink:href="#m1623c0dc8c" x="407.767779" y="298.71089" style="fill: #4169e1; stroke: #4169e1"/>
     <use xlink:href="#m1623c0dc8c" x="242.56649" y="288.473229" style="fill: #4169e1; stroke: #4169e1"/>
     <use xlink:href="#m1623c0dc8c" x="314.674987" y="165.072425" style="fill: #4169e1; stroke: #4169e1"/>
     <use xlink:href="#m1623c0dc8c" x="298.856692" y="304.948743" style="fill: #4169e1; stroke: #4169e1"/>
     <use xlink:href="#m1623c0dc8c" x="331.107591" y="78.199555" style="fill: #4169e1; stroke: #4169e1"/>
     <use xlink:href="#m1623c0dc8c" x="398.490024" y="209.717774" style="fill: #4169e1; stroke: #4169e1"/>
     <use xlink:href="#m1623c0dc8c" x="273.55629" y="202.952815" style="fill: #4169e1; stroke: #4169e1"/>
     <use xlink:href="#m1623c0dc8c" x="270.532325" y="218.879786" style="fill: #4169e1; stroke: #4169e1"/>
     <use xlink:href="#m1623c0dc8c" x="323.701979" y="200.409226" style="fill: #4169e1; stroke: #4169e1"/>
     <use xlink:href="#m1623c0dc8c" x="318.350716" y="215.232225" style="fill: #4169e1; stroke: #4169e1"/>
     <use xlink:href="#m1623c0dc8c" x="265.40098" y="184.617329" style="fill: #4169e1; stroke: #4169e1"/>
     <use xlink:href="#m1623c0dc8c" x="310.206399" y="173.538208" style="fill: #4169e1; stroke: #4169e1"/>
     <use xlink:href="#m1623c0dc8c" x="315.012612" y="266.876967" style="fill: #4169e1; stroke: #4169e1"/>
     <use xlink:href="#m1623c0dc8c" x="496.02658" y="80.606309" style="fill: #4169e1; stroke: #4169e1"/>
     <use xlink:href="#m1623c0dc8c" x="270.250396" y="181.531195" style="fill: #4169e1; stroke: #4169e1"/>
     <use xlink:href="#m1623c0dc8c" x="258.485564" y="259.480136" style="fill: #4169e1; stroke: #4169e1"/>
     <use xlink:href="#m1623c0dc8c" x="264.565482" y="244.657135" style="fill: #4169e1; stroke: #4169e1"/>
     <use xlink:href="#m1623c0dc8c" x="343.819058" y="284.769337" style="fill: #4169e1; stroke: #4169e1"/>
     <use xlink:href="#m1623c0dc8c" x="423.36507" y="203.072946" style="fill: #4169e1; stroke: #4169e1"/>
     <use xlink:href="#m1623c0dc8c" x="308.614083" y="213.473649" style="fill: #4169e1; stroke: #4169e1"/>
     <use xlink:href="#m1623c0dc8c" x="231.275763" y="274.55088" style="fill: #4169e1; stroke: #4169e1"/>
     <use xlink:href="#m1623c0dc8c" x="275.666546" y="273.275428" style="fill: #4169e1; stroke: #4169e1"/>
     <use xlink:href="#m1623c0dc8c" x="414.160704" y="246.01336" style="fill: #4169e1; stroke: #4169e1"/>
     <use xlink:href="#m1623c0dc8c" x="232.340446" y="261.320359" style="fill: #4169e1; stroke: #4169e1"/>
     <use xlink:href="#m1623c0dc8c" x="414.848926" y="286.72515" style="fill: #4169e1; stroke: #4169e1"/>
     <use xlink:href="#m1623c0dc8c" x="432.756506" y="263.298543" style="fill: #4169e1; stroke: #4169e1"/>
     <use xlink:href="#m1623c0dc8c" x="270.256904" y="124.062099" style="fill: #4169e1; stroke: #4169e1"/>
     <use xlink:href="#m1623c0dc8c" x="323.744459" y="172.059022" style="fill: #4169e1; stroke: #4169e1"/>
     <use xlink:href="#m1623c0dc8c" x="267.37064" y="159.313825" style="fill: #4169e1; stroke: #4169e1"/>
     <use xlink:href="#m1623c0dc8c" x="289.147287" y="270.748776" style="fill: #4169e1; stroke: #4169e1"/>
     <use xlink:href="#m1623c0dc8c" x="474.631775" y="182.448513" style="fill: #4169e1; stroke: #4169e1"/>
     <use xlink:href="#m1623c0dc8c" x="307.239767" y="198.096375" style="fill: #4169e1; stroke: #4169e1"/>
     <use xlink:href="#m1623c0dc8c" x="283.209414" y="266.332617" style="fill: #4169e1; stroke: #4169e1"/>
     <use xlink:href="#m1623c0dc8c" x="412.245357" y="105.671943" style="fill: #4169e1; stroke: #4169e1"/>
     <use xlink:href="#m1623c0dc8c" x="314.630352" y="257.228886" style="fill: #4169e1; stroke: #4169e1"/>
     <use xlink:href="#m1623c0dc8c" x="385.167039" y="242.661106" style="fill: #4169e1; stroke: #4169e1"/>
     <use xlink:href="#m1623c0dc8c" x="234.050792" y="204.965362" style="fill: #4169e1; stroke: #4169e1"/>
     <use xlink:href="#m1623c0dc8c" x="350.403891" y="276.634488" style="fill: #4169e1; stroke: #4169e1"/>
     <use xlink:href="#m1623c0dc8c" x="397.915823" y="305.923964" style="fill: #4169e1; stroke: #4169e1"/>
     <use xlink:href="#m1623c0dc8c" x="410.902101" y="75.445097" style="fill: #4169e1; stroke: #4169e1"/>
     <use xlink:href="#m1623c0dc8c" x="413.850153" y="144.259686" style="fill: #4169e1; stroke: #4169e1"/>
     <use xlink:href="#m1623c0dc8c" x="417.124822" y="307.916698" style="fill: #4169e1; stroke: #4169e1"/>
     <use xlink:href="#m1623c0dc8c" x="439.362515" y="151.691163" style="fill: #4169e1; stroke: #4169e1"/>
     <use xlink:href="#m1623c0dc8c" x="281.157136" y="239.933474" style="fill: #4169e1; stroke: #4169e1"/>
     <use xlink:href="#m1623c0dc8c" x="444.072587" y="154.817453" style="fill: #4169e1; stroke: #4169e1"/>
     <use xlink:href="#m1623c0dc8c" x="320.501121" y="204.001444" style="fill: #4169e1; stroke: #4169e1"/>
     <use xlink:href="#m1623c0dc8c" x="321.878905" y="178.80716" style="fill: #4169e1; stroke: #4169e1"/>
     <use xlink:href="#m1623c0dc8c" x="433.190863" y="298.473375" style="fill: #4169e1; stroke: #4169e1"/>
     <use xlink:href="#m1623c0dc8c" x="292.968133" y="157.786904" style="fill: #4169e1; stroke: #4169e1"/>
     <use xlink:href="#m1623c0dc8c" x="264.606182" y="213.219405" style="fill: #4169e1; stroke: #4169e1"/>
     <use xlink:href="#m1623c0dc8c" x="443.154213" y="183.357121" style="fill: #4169e1; stroke: #4169e1"/>
     <use xlink:href="#m1623c0dc8c" x="352.267655" y="132.592117" style="fill: #4169e1; stroke: #4169e1"/>
     <use xlink:href="#m1623c0dc8c" x="415.907348" y="319.975845" style="fill: #4169e1; stroke: #4169e1"/>
     <use xlink:href="#m1623c0dc8c" x="264.322908" y="181.140801" style="fill: #4169e1; stroke: #4169e1"/>
     <use xlink:href="#m1623c0dc8c" x="329.888374" y="268.107607" style="fill: #4169e1; stroke: #4169e1"/>
     <use xlink:href="#m1623c0dc8c" x="420.465122" y="68.370366" style="fill: #4169e1; stroke: #4169e1"/>
     <use xlink:href="#m1623c0dc8c" x="409.073474" y="209.993964" style="fill: #4169e1; stroke: #4169e1"/>
     <use xlink:href="#m1623c0dc8c" x="330.503733" y="208.055274" style="fill: #4169e1; stroke: #4169e1"/>
     <use xlink:href="#m1623c0dc8c" x="222.622494" y="206.508424" style="fill: #4169e1; stroke: #4169e1"/>
     <use xlink:href="#m1623c0dc8c" x="300.177681" y="260.168003" style="fill: #4169e1; stroke: #4169e1"/>
     <use xlink:href="#m1623c0dc8c" x="326.354707" y="142.801144" style="fill: #4169e1; stroke: #4169e1"/>
     <use xlink:href="#m1623c0dc8c" x="371.397988" y="244.382544" style="fill: #4169e1; stroke: #4169e1"/>
     <use xlink:href="#m1623c0dc8c" x="281.55189" y="70.20132" style="fill: #4169e1; stroke: #4169e1"/>
     <use xlink:href="#m1623c0dc8c" x="313.629714" y="298.853821" style="fill: #4169e1; stroke: #4169e1"/>
     <use xlink:href="#m1623c0dc8c" x="387.35208" y="151.195445" style="fill: #4169e1; stroke: #4169e1"/>
     <use xlink:href="#m1623c0dc8c" x="271.771643" y="339.826323" style="fill: #4169e1; stroke: #4169e1"/>
     <use xlink:href="#m1623c0dc8c" x="360.868807" y="314.864402" style="fill: #4169e1; stroke: #4169e1"/>
     <use xlink:href="#m1623c0dc8c" x="233.825394" y="232.789993" style="fill: #4169e1; stroke: #4169e1"/>
     <use xlink:href="#m1623c0dc8c" x="385.573493" y="260.772524" style="fill: #4169e1; stroke: #4169e1"/>
     <use xlink:href="#m1623c0dc8c" x="358.316666" y="223.175963" style="fill: #4169e1; stroke: #4169e1"/>
     <use xlink:href="#m1623c0dc8c" x="304.515736" y="165.231415" style="fill: #4169e1; stroke: #4169e1"/>
     <use xlink:href="#m1623c0dc8c" x="383.297712" y="100.604746" style="fill: #4169e1; stroke: #4169e1"/>
     <use xlink:href="#m1623c0dc8c" x="304.97762" y="302.159309" style="fill: #4169e1; stroke: #4169e1"/>
     <use xlink:href="#m1623c0dc8c" x="272.124179" y="295.7549" style="fill: #4169e1; stroke: #4169e1"/>
     <use xlink:href="#m1623c0dc8c" x="262.046232" y="137.230852" style="fill: #4169e1; stroke: #4169e1"/>
     <use xlink:href="#m1623c0dc8c" x="357.14335" y="272.220356" style="fill: #4169e1; stroke: #4169e1"/>
     <use xlink:href="#m1623c0dc8c" x="235.433716" y="270.608194" style="fill: #4169e1; stroke: #4169e1"/>
     <use xlink:href="#m1623c0dc8c" x="304.009457" y="50.394595" style="fill: #4169e1; stroke: #4169e1"/>
     <use xlink:href="#m1623c0dc8c" x="362.608725" y="141.616622" style="fill: #4169e1; stroke: #4169e1"/>
     <use xlink:href="#m1623c0dc8c" x="343.894889" y="140.599779" style="fill: #4169e1; stroke: #4169e1"/>
     <use xlink:href="#m1623c0dc8c" x="334.418043" y="252.553586" style="fill: #4169e1; stroke: #4169e1"/>
     <use xlink:href="#m1623c0dc8c" x="331.362485" y="200.452318" style="fill: #4169e1; stroke: #4169e1"/>
     <use xlink:href="#m1623c0dc8c" x="391.70996" y="151.774898" style="fill: #4169e1; stroke: #4169e1"/>
     <use xlink:href="#m1623c0dc8c" x="405.526844" y="272.663652" style="fill: #4169e1; stroke: #4169e1"/>
     <use xlink:href="#m1623c0dc8c" x="430.663524" y="153.291168" style="fill: #4169e1; stroke: #4169e1"/>
     <use xlink:href="#m1623c0dc8c" x="280.914721" y="112.820062" style="fill: #4169e1; stroke: #4169e1"/>
     <use xlink:href="#m1623c0dc8c" x="396.875037" y="294.034114" style="fill: #4169e1; stroke: #4169e1"/>
     <use xlink:href="#m1623c0dc8c" x="349.556198" y="192.506234" style="fill: #4169e1; stroke: #4169e1"/>
     <use xlink:href="#m1623c0dc8c" x="289.978636" y="200.358804" style="fill: #4169e1; stroke: #4169e1"/>
     <use xlink:href="#m1623c0dc8c" x="319.89683" y="302.547937" style="fill: #4169e1; stroke: #4169e1"/>
     <use xlink:href="#m1623c0dc8c" x="376.84176" y="246.519008" style="fill: #4169e1; stroke: #4169e1"/>
     <use xlink:href="#m1623c0dc8c" x="347.496993" y="119.829994" style="fill: #4169e1; stroke: #4169e1"/>
     <use xlink:href="#m1623c0dc8c" x="302.985336" y="312.962367" style="fill: #4169e1; stroke: #4169e1"/>
     <use xlink:href="#m1623c0dc8c" x="200.020245" y="244.223005" style="fill: #4169e1; stroke: #4169e1"/>
     <use xlink:href="#m1623c0dc8c" x="294.941614" y="240.332719" style="fill: #4169e1; stroke: #4169e1"/>
     <use xlink:href="#m1623c0dc8c" x="265.530551" y="173.266784" style="fill: #4169e1; stroke: #4169e1"/>
     <use xlink:href="#m1623c0dc8c" x="367.655152" y="213.046927" style="fill: #4169e1; stroke: #4169e1"/>
     <use xlink:href="#m1623c0dc8c" x="267.677874" y="286.629612" style="fill: #4169e1; stroke: #4169e1"/>
     <use xlink:href="#m1623c0dc8c" x="476.703845" y="193.046635" style="fill: #4169e1; stroke: #4169e1"/>
     <use xlink:href="#m1623c0dc8c" x="389.105613" y="238.278037" style="fill: #4169e1; stroke: #4169e1"/>
     <use xlink:href="#m1623c0dc8c" x="432.565417" y="153.824311" style="fill: #4169e1; stroke: #4169e1"/>
     <use xlink:href="#m1623c0dc8c" x="241.717636" y="318.526453" style="fill: #4169e1; stroke: #4169e1"/>
     <use xlink:href="#m1623c0dc8c" x="285.082444" y="191.56307" style="fill: #4169e1; stroke: #4169e1"/>
     <use xlink:href="#m1623c0dc8c" x="469.318888" y="215.060066" style="fill: #4169e1; stroke: #4169e1"/>
     <use xlink:href="#m1623c0dc8c" x="362.700229" y="275.010148" style="fill: #4169e1; stroke: #4169e1"/>
     <use xlink:href="#m1623c0dc8c" x="188.70476" y="321.923263" style="fill: #4169e1; stroke: #4169e1"/>
     <use xlink:href="#m1623c0dc8c" x="423.957423" y="213.586621" style="fill: #4169e1; stroke: #4169e1"/>
     <use xlink:href="#m1623c0dc8c" x="330.882816" y="312.127498" style="fill: #4169e1; stroke: #4169e1"/>
     <use xlink:href="#m1623c0dc8c" x="406.400159" y="278.843098" style="fill: #4169e1; stroke: #4169e1"/>
     <use xlink:href="#m1623c0dc8c" x="396.866618" y="160.199281" style="fill: #4169e1; stroke: #4169e1"/>
     <use xlink:href="#m1623c0dc8c" x="391.640559" y="152.972327" style="fill: #4169e1; stroke: #4169e1"/>
     <use xlink:href="#m1623c0dc8c" x="279.7594" y="292.833763" style="fill: #4169e1; stroke: #4169e1"/>
     <use xlink:href="#m1623c0dc8c" x="269.791954" y="267.404811" style="fill: #4169e1; stroke: #4169e1"/>
     <use xlink:href="#m1623c0dc8c" x="445.419633" y="249.397162" style="fill: #4169e1; stroke: #4169e1"/>
     <use xlink:href="#m1623c0dc8c" x="333.111535" y="240.240206" style="fill: #4169e1; stroke: #4169e1"/>
     <use xlink:href="#m1623c0dc8c" x="330.233531" y="228.31853" style="fill: #4169e1; stroke: #4169e1"/>
     <use xlink:href="#m1623c0dc8c" x="216.466523" y="229.178995" style="fill: #4169e1; stroke: #4169e1"/>
     <use xlink:href="#m1623c0dc8c" x="335.066962" y="274.587374" style="fill: #4169e1; stroke: #4169e1"/>
     <use xlink:href="#m1623c0dc8c" x="378.89325" y="139.21204" style="fill: #4169e1; stroke: #4169e1"/>
     <use xlink:href="#m1623c0dc8c" x="263.244804" y="282.925121" style="fill: #4169e1; stroke: #4169e1"/>
     <use xlink:href="#m1623c0dc8c" x="212.714219" y="311.051501" style="fill: #4169e1; stroke: #4169e1"/>
     <use xlink:href="#m1623c0dc8c" x="260.089201" y="173.483905" style="fill: #4169e1; stroke: #4169e1"/>
     <use xlink:href="#m1623c0dc8c" x="459.608753" y="249.577936" style="fill: #4169e1; stroke: #4169e1"/>
     <use xlink:href="#m1623c0dc8c" x="340.295877" y="177.257635" style="fill: #4169e1; stroke: #4169e1"/>
     <use xlink:href="#m1623c0dc8c" x="455.933945" y="127.431575" style="fill: #4169e1; stroke: #4169e1"/>
     <use xlink:href="#m1623c0dc8c" x="269.648941" y="320.174914" style="fill: #4169e1; stroke: #4169e1"/>
     <use xlink:href="#m1623c0dc8c" x="325.914676" y="185.73108" style="fill: #4169e1; stroke: #4169e1"/>
     <use xlink:href="#m1623c0dc8c" x="340.272753" y="167.748021" style="fill: #4169e1; stroke: #4169e1"/>
     <use xlink:href="#m1623c0dc8c" x="254.227389" y="234.791783" style="fill: #4169e1; stroke: #4169e1"/>
     <use xlink:href="#m1623c0dc8c" x="407.354645" y="286.216804" style="fill: #4169e1; stroke: #4169e1"/>
     <use xlink:href="#m1623c0dc8c" x="437.204009" y="270.992162" style="fill: #4169e1; stroke: #4169e1"/>
     <use xlink:href="#m1623c0dc8c" x="342.258725" y="202.552159" style="fill: #4169e1; stroke: #4169e1"/>
     <use xlink:href="#m1623c0dc8c" x="266.089832" y="284.089537" style="fill: #4169e1; stroke: #4169e1"/>
     <use xlink:href="#m1623c0dc8c" x="404.214597" y="104.355067" style="fill: #4169e1; stroke: #4169e1"/>
     <use xlink:href="#m1623c0dc8c" x="304.695911" y="287.035545" style="fill: #4169e1; stroke: #4169e1"/>
     <use xlink:href="#m1623c0dc8c" x="380.238035" y="353.691622" style="fill: #4169e1; stroke: #4169e1"/>
     <use xlink:href="#m1623c0dc8c" x="365.604048" y="273.115473" style="fill: #4169e1; stroke: #4169e1"/>
     <use xlink:href="#m1623c0dc8c" x="321.164306" y="324.137344" style="fill: #4169e1; stroke: #4169e1"/>
     <use xlink:href="#m1623c0dc8c" x="380.317568" y="299.438946" style="fill: #4169e1; stroke: #4169e1"/>
     <use xlink:href="#m1623c0dc8c" x="455.074557" y="121.844932" style="fill: #4169e1; stroke: #4169e1"/>
     <use xlink:href="#m1623c0dc8c" x="446.094157" y="226.204453" style="fill: #4169e1; stroke: #4169e1"/>
     <use xlink:href="#m1623c0dc8c" x="337.925865" y="270.455111" style="fill: #4169e1; stroke: #4169e1"/>
     <use xlink:href="#m1623c0dc8c" x="338.314067" y="151.478851" style="fill: #4169e1; stroke: #4169e1"/>
     <use xlink:href="#m1623c0dc8c" x="448.838153" y="203.476323" style="fill: #4169e1; stroke: #4169e1"/>
     <use xlink:href="#m1623c0dc8c" x="289.954468" y="325.176431" style="fill: #4169e1; stroke: #4169e1"/>
     <use xlink:href="#m1623c0dc8c" x="225.0969" y="258.666227" style="fill: #4169e1; stroke: #4169e1"/>
     <use xlink:href="#m1623c0dc8c" x="385.378789" y="134.625273" style="fill: #4169e1; stroke: #4169e1"/>
     <use xlink:href="#m1623c0dc8c" x="181.878432" y="239.588443" style="fill: #4169e1; stroke: #4169e1"/>
     <use xlink:href="#m1623c0dc8c" x="436.021862" y="117.504066" style="fill: #4169e1; stroke: #4169e1"/>
     <use xlink:href="#m1623c0dc8c" x="433.624299" y="164.951014" style="fill: #4169e1; stroke: #4169e1"/>
     <use xlink:href="#m1623c0dc8c" x="410.887822" y="183.818897" style="fill: #4169e1; stroke: #4169e1"/>
     <use xlink:href="#m1623c0dc8c" x="302.685717" y="78.48979" style="fill: #4169e1; stroke: #4169e1"/>
     <use xlink:href="#m1623c0dc8c" x="374.401365" y="236.245761" style="fill: #4169e1; stroke: #4169e1"/>
     <use xlink:href="#m1623c0dc8c" x="184.777182" y="221.75127" style="fill: #4169e1; stroke: #4169e1"/>
     <use xlink:href="#m1623c0dc8c" x="230.917342" y="213.109158" style="fill: #4169e1; stroke: #4169e1"/>
     <use xlink:href="#m1623c0dc8c" x="287.922907" y="286.233032" style="fill: #4169e1; stroke: #4169e1"/>
     <use xlink:href="#m1623c0dc8c" x="438.623157" y="105.883823" style="fill: #4169e1; stroke: #4169e1"/>
     <use xlink:href="#m1623c0dc8c" x="288.043087" y="205.6401" style="fill: #4169e1; stroke: #4169e1"/>
     <use xlink:href="#m1623c0dc8c" x="152.670459" y="185.142226" style="fill: #4169e1; stroke: #4169e1"/>
     <use xlink:href="#m1623c0dc8c" x="421.788766" y="128.087983" style="fill: #4169e1; stroke: #4169e1"/>
     <use xlink:href="#m1623c0dc8c" x="298.308611" y="170.114135" style="fill: #4169e1; stroke: #4169e1"/>
     <use xlink:href="#m1623c0dc8c" x="333.869067" y="167.710061" style="fill: #4169e1; stroke: #4169e1"/>
     <use xlink:href="#m1623c0dc8c" x="342.769102" y="120.27725" style="fill: #4169e1; stroke: #4169e1"/>
     <use xlink:href="#m1623c0dc8c" x="328.396147" y="118.164615" style="fill: #4169e1; stroke: #4169e1"/>
     <use xlink:href="#m1623c0dc8c" x="238.429571" y="253.293308" style="fill: #4169e1; stroke: #4169e1"/>
     <use xlink:href="#m1623c0dc8c" x="317.088265" y="290.43894" style="fill: #4169e1; stroke: #4169e1"/>
     <use xlink:href="#m1623c0dc8c" x="309.28544" y="332.439017" style="fill: #4169e1; stroke: #4169e1"/>
     <use xlink:href="#m1623c0dc8c" x="309.769586" y="119.88335" style="fill: #4169e1; stroke: #4169e1"/>
     <use xlink:href="#m1623c0dc8c" x="401.385885" y="173.278594" style="fill: #4169e1; stroke: #4169e1"/>
     <use xlink:href="#m1623c0dc8c" x="256.875904" y="323.185247" style="fill: #4169e1; stroke: #4169e1"/>
     <use xlink:href="#m1623c0dc8c" x="321.434326" y="159.994467" style="fill: #4169e1; stroke: #4169e1"/>
     <use xlink:href="#m1623c0dc8c" x="388.500633" y="339.621049" style="fill: #4169e1; stroke: #4169e1"/>
     <use xlink:href="#m1623c0dc8c" x="422.848257" y="96.072093" style="fill: #4169e1; stroke: #4169e1"/>
     <use xlink:href="#m1623c0dc8c" x="355.804128" y="155.642481" style="fill: #4169e1; stroke: #4169e1"/>
     <use xlink:href="#m1623c0dc8c" x="388.911316" y="251.768562" style="fill: #4169e1; stroke: #4169e1"/>
     <use xlink:href="#m1623c0dc8c" x="292.178542" y="295.223422" style="fill: #4169e1; stroke: #4169e1"/>
     <use xlink:href="#m1623c0dc8c" x="300.070329" y="309.358896" style="fill: #4169e1; stroke: #4169e1"/>
    </g>
   </g>
   <g id="PathCollection_2">
    <defs>
     <path id="m7d63c76154" d="M 0 2.5 
C 0.663008 2.5 1.29895 2.236584 1.767767 1.767767 
C 2.236584 1.29895 2.5 0.663008 2.5 0 
C 2.5 -0.663008 2.236584 -1.29895 1.767767 -1.767767 
C 1.29895 -2.236584 0.663008 -2.5 0 -2.5 
C -0.663008 -2.5 -1.29895 -2.236584 -1.767767 -1.767767 
C -2.236584 -1.29895 -2.5 -0.663008 -2.5 0 
C -2.5 0.663008 -2.236584 1.29895 -1.767767 1.767767 
C -1.29895 2.236584 -0.663008 2.5 0 2.5 
z
" style="stroke: #b22222"/>
    </defs>
    <g clip-path="url(#paf4a9142c3)">
     <use xlink:href="#m7d63c76154" x="238.072797" y="165.854594" style="fill: #b22222; stroke: #b22222"/>
     <use xlink:href="#m7d63c76154" x="341.702356" y="234.377451" style="fill: #b22222; stroke: #b22222"/>
     <use xlink:href="#m7d63c76154" x="206.040879" y="175.597159" style="fill: #b22222; stroke: #b22222"/>
     <use xlink:href="#m7d63c76154" x="343.69488" y="239.626711" style="fill: #b22222; stroke: #b22222"/>
     <use xlink:href="#m7d63c76154" x="223.455698" y="171.346653" style="fill: #b22222; stroke: #b22222"/>
     <use xlink:href="#m7d63c76154" x="295.209957" y="9.106995" style="fill: #b22222; stroke: #b22222"/>
     <use xlink:href="#m7d63c76154" x="242.112196" y="168.00952" style="fill: #b22222; stroke: #b22222"/>
     <use xlink:href="#m7d63c76154" x="196.096173" y="159.823938" style="fill: #b22222; stroke: #b22222"/>
     <use xlink:href="#m7d63c76154" x="246.287081" y="174.101887" style="fill: #b22222; stroke: #b22222"/>
     <use xlink:href="#m7d63c76154" x="362.264553" y="248.481803" style="fill: #b22222; stroke: #b22222"/>
     <use xlink:href="#m7d63c76154" x="187.095721" y="156.152127" style="fill: #b22222; stroke: #b22222"/>
     <use xlink:href="#m7d63c76154" x="254.459094" y="171.115919" style="fill: #b22222; stroke: #b22222"/>
     <use xlink:href="#m7d63c76154" x="56.450156" y="148.179054" style="fill: #b22222; stroke: #b22222"/>
     <use xlink:href="#m7d63c76154" x="228.330808" y="171.938052" style="fill: #b22222; stroke: #b22222"/>
     <use xlink:href="#m7d63c76154" x="247.504575" y="174.477274" style="fill: #b22222; stroke: #b22222"/>
     <use xlink:href="#m7d63c76154" x="271.648965" y="259.584039" style="fill: #b22222; stroke: #b22222"/>
     <use xlink:href="#m7d63c76154" x="200.384537" y="159.022406" style="fill: #b22222; stroke: #b22222"/>
     <use xlink:href="#m7d63c76154" x="206.932392" y="167.832852" style="fill: #b22222; stroke: #b22222"/>
     <use xlink:href="#m7d63c76154" x="195.077342" y="159.636814" style="fill: #b22222; stroke: #b22222"/>
     <use xlink:href="#m7d63c76154" x="190.085177" y="155.300766" style="fill: #b22222; stroke: #b22222"/>
     <use xlink:href="#m7d63c76154" x="207.24117" y="172.409359" style="fill: #b22222; stroke: #b22222"/>
     <use xlink:href="#m7d63c76154" x="172.377159" y="162.643588" style="fill: #b22222; stroke: #b22222"/>
     <use xlink:href="#m7d63c76154" x="173.714547" y="163.513689" style="fill: #b22222; stroke: #b22222"/>
     <use xlink:href="#m7d63c76154" x="302.47804" y="238.73332" style="fill: #b22222; stroke: #b22222"/>
     <use xlink:href="#m7d63c76154" x="230.156528" y="168.50046" style="fill: #b22222; stroke: #b22222"/>
     <use xlink:href="#m7d63c76154" x="297.186816" y="193.943789" style="fill: #b22222; stroke: #b22222"/>
     <use xlink:href="#m7d63c76154" x="333.852311" y="228.802519" style="fill: #b22222; stroke: #b22222"/>
     <use xlink:href="#m7d63c76154" x="237.340508" y="170.72049" style="fill: #b22222; stroke: #b22222"/>
     <use xlink:href="#m7d63c76154" x="227.7379" y="175.240765" style="fill: #b22222; stroke: #b22222"/>
     <use xlink:href="#m7d63c76154" x="325.965429" y="224.360117" style="fill: #b22222; stroke: #b22222"/>
     <use xlink:href="#m7d63c76154" x="201.148868" y="162.170494" style="fill: #b22222; stroke: #b22222"/>
     <use xlink:href="#m7d63c76154" x="176.667959" y="154.356093" style="fill: #b22222; stroke: #b22222"/>
     <use xlink:href="#m7d63c76154" x="181.466801" y="165.411751" style="fill: #b22222; stroke: #b22222"/>
     <use xlink:href="#m7d63c76154" x="327.846329" y="238.222588" style="fill: #b22222; stroke: #b22222"/>
     <use xlink:href="#m7d63c76154" x="245.02865" y="171.249613" style="fill: #b22222; stroke: #b22222"/>
     <use xlink:href="#m7d63c76154" x="272.560392" y="173.587595" style="fill: #b22222; stroke: #b22222"/>
     <use xlink:href="#m7d63c76154" x="199.756499" y="156.411522" style="fill: #b22222; stroke: #b22222"/>
     <use xlink:href="#m7d63c76154" x="172.956619" y="161.944328" style="fill: #b22222; stroke: #b22222"/>
     <use xlink:href="#m7d63c76154" x="245.218162" y="175.498535" style="fill: #b22222; stroke: #b22222"/>
     <use xlink:href="#m7d63c76154" x="158.777386" y="143.82204" style="fill: #b22222; stroke: #b22222"/>
     <use xlink:href="#m7d63c76154" x="222.628419" y="158.565574" style="fill: #b22222; stroke: #b22222"/>
     <use xlink:href="#m7d63c76154" x="245.721832" y="165.273956" style="fill: #b22222; stroke: #b22222"/>
     <use xlink:href="#m7d63c76154" x="182.967965" y="139.017391" style="fill: #b22222; stroke: #b22222"/>
     <use xlink:href="#m7d63c76154" x="210.239573" y="167.467491" style="fill: #b22222; stroke: #b22222"/>
     <use xlink:href="#m7d63c76154" x="238.665647" y="166.290453" style="fill: #b22222; stroke: #b22222"/>
     <use xlink:href="#m7d63c76154" x="173.888887" y="155.29519" style="fill: #b22222; stroke: #b22222"/>
     <use xlink:href="#m7d63c76154" x="252.564837" y="170.480308" style="fill: #b22222; stroke: #b22222"/>
     <use xlink:href="#m7d63c76154" x="357.359818" y="250.103137" style="fill: #b22222; stroke: #b22222"/>
     <use xlink:href="#m7d63c76154" x="234.616169" y="169.561853" style="fill: #b22222; stroke: #b22222"/>
     <use xlink:href="#m7d63c76154" x="328.57182" y="268.127731" style="fill: #b22222; stroke: #b22222"/>
     <use xlink:href="#m7d63c76154" x="234.217525" y="167.048991" style="fill: #b22222; stroke: #b22222"/>
     <use xlink:href="#m7d63c76154" x="315.165193" y="223.077307" style="fill: #b22222; stroke: #b22222"/>
     <use xlink:href="#m7d63c76154" x="217.810415" y="159.902503" style="fill: #b22222; stroke: #b22222"/>
     <use xlink:href="#m7d63c76154" x="239.257306" y="168.099664" style="fill: #b22222; stroke: #b22222"/>
     <use xlink:href="#m7d63c76154" x="332.26242" y="231.151316" style="fill: #b22222; stroke: #b22222"/>
     <use xlink:href="#m7d63c76154" x="219.984215" y="167.631158" style="fill: #b22222; stroke: #b22222"/>
     <use xlink:href="#m7d63c76154" x="197.530264" y="157.461613" style="fill: #b22222; stroke: #b22222"/>
     <use xlink:href="#m7d63c76154" x="251.536837" y="174.239776" style="fill: #b22222; stroke: #b22222"/>
     <use xlink:href="#m7d63c76154" x="244.153494" y="170.385684" style="fill: #b22222; stroke: #b22222"/>
     <use xlink:href="#m7d63c76154" x="182.172856" y="152.155534" style="fill: #b22222; stroke: #b22222"/>
     <use xlink:href="#m7d63c76154" x="327.095598" y="227.623995" style="fill: #b22222; stroke: #b22222"/>
     <use xlink:href="#m7d63c76154" x="355.459536" y="187.255196" style="fill: #b22222; stroke: #b22222"/>
     <use xlink:href="#m7d63c76154" x="200.453485" y="165.591647" style="fill: #b22222; stroke: #b22222"/>
     <use xlink:href="#m7d63c76154" x="195.640763" y="166.821884" style="fill: #b22222; stroke: #b22222"/>
     <use xlink:href="#m7d63c76154" x="239.485384" y="157.986825" style="fill: #b22222; stroke: #b22222"/>
     <use xlink:href="#m7d63c76154" x="175.045168" y="154.75241" style="fill: #b22222; stroke: #b22222"/>
     <use xlink:href="#m7d63c76154" x="247.374999" y="178.884744" style="fill: #b22222; stroke: #b22222"/>
     <use xlink:href="#m7d63c76154" x="326.112604" y="225.849546" style="fill: #b22222; stroke: #b22222"/>
     <use xlink:href="#m7d63c76154" x="258.199154" y="241.380103" style="fill: #b22222; stroke: #b22222"/>
     <use xlink:href="#m7d63c76154" x="330.737306" y="224.039161" style="fill: #b22222; stroke: #b22222"/>
     <use xlink:href="#m7d63c76154" x="365.42736" y="152.560993" style="fill: #b22222; stroke: #b22222"/>
     <use xlink:href="#m7d63c76154" x="347.755819" y="253.527315" style="fill: #b22222; stroke: #b22222"/>
     <use xlink:href="#m7d63c76154" x="197.258722" y="165.589359" style="fill: #b22222; stroke: #b22222"/>
     <use xlink:href="#m7d63c76154" x="276.462816" y="178.295876" style="fill: #b22222; stroke: #b22222"/>
     <use xlink:href="#m7d63c76154" x="223.594471" y="169.305437" style="fill: #b22222; stroke: #b22222"/>
     <use xlink:href="#m7d63c76154" x="223.129213" y="157.444728" style="fill: #b22222; stroke: #b22222"/>
     <use xlink:href="#m7d63c76154" x="218.694883" y="172.314018" style="fill: #b22222; stroke: #b22222"/>
     <use xlink:href="#m7d63c76154" x="219.327395" y="168.203133" style="fill: #b22222; stroke: #b22222"/>
     <use xlink:href="#m7d63c76154" x="229.337566" y="164.120342" style="fill: #b22222; stroke: #b22222"/>
     <use xlink:href="#m7d63c76154" x="236.456385" y="168.373913" style="fill: #b22222; stroke: #b22222"/>
     <use xlink:href="#m7d63c76154" x="219.078158" y="161.973801" style="fill: #b22222; stroke: #b22222"/>
     <use xlink:href="#m7d63c76154" x="218.745261" y="157.813135" style="fill: #b22222; stroke: #b22222"/>
     <use xlink:href="#m7d63c76154" x="219.774413" y="167.567008" style="fill: #b22222; stroke: #b22222"/>
     <use xlink:href="#m7d63c76154" x="246.527222" y="166.903244" style="fill: #b22222; stroke: #b22222"/>
     <use xlink:href="#m7d63c76154" x="220.755469" y="170.311072" style="fill: #b22222; stroke: #b22222"/>
     <use xlink:href="#m7d63c76154" x="241.292229" y="172.719626" style="fill: #b22222; stroke: #b22222"/>
     <use xlink:href="#m7d63c76154" x="206.962522" y="160.586806" style="fill: #b22222; stroke: #b22222"/>
     <use xlink:href="#m7d63c76154" x="199.82113" y="156.859982" style="fill: #b22222; stroke: #b22222"/>
     <use xlink:href="#m7d63c76154" x="184.235966" y="159.958552" style="fill: #b22222; stroke: #b22222"/>
     <use xlink:href="#m7d63c76154" x="193.510925" y="152.278582" style="fill: #b22222; stroke: #b22222"/>
     <use xlink:href="#m7d63c76154" x="236.570673" y="169.401996" style="fill: #b22222; stroke: #b22222"/>
     <use xlink:href="#m7d63c76154" x="365.953377" y="252.407631" style="fill: #b22222; stroke: #b22222"/>
     <use xlink:href="#m7d63c76154" x="221.502186" y="172.740673" style="fill: #b22222; stroke: #b22222"/>
     <use xlink:href="#m7d63c76154" x="189.782619" y="156.478203" style="fill: #b22222; stroke: #b22222"/>
     <use xlink:href="#m7d63c76154" x="206.061094" y="168.252977" style="fill: #b22222; stroke: #b22222"/>
     <use xlink:href="#m7d63c76154" x="186.609755" y="154.329287" style="fill: #b22222; stroke: #b22222"/>
     <use xlink:href="#m7d63c76154" x="189.301721" y="166.479932" style="fill: #b22222; stroke: #b22222"/>
     <use xlink:href="#m7d63c76154" x="345.356862" y="237.712217" style="fill: #b22222; stroke: #b22222"/>
     <use xlink:href="#m7d63c76154" x="275.832552" y="186.198411" style="fill: #b22222; stroke: #b22222"/>
     <use xlink:href="#m7d63c76154" x="205.479955" y="174.974627" style="fill: #b22222; stroke: #b22222"/>
     <use xlink:href="#m7d63c76154" x="358.733379" y="242.264946" style="fill: #b22222; stroke: #b22222"/>
     <use xlink:href="#m7d63c76154" x="130.122824" y="100.18984" style="fill: #b22222; stroke: #b22222"/>
     <use xlink:href="#m7d63c76154" x="184.044802" y="167.434722" style="fill: #b22222; stroke: #b22222"/>
    </g>
   </g>
   <g id="patch_4">
    <path d="M 56.450156 450.72 
L 56.450156 7.2 
" style="fill: none; stroke: #ffffff; stroke-width: 1.25; stroke-linejoin: miter; stroke-linecap: square"/>
   </g>
   <g id="patch_5">
    <path d="M 499.970156 450.72 
L 499.970156 7.2 
" style="fill: none; stroke: #ffffff; stroke-width: 1.25; stroke-linejoin: miter; stroke-linecap: square"/>
   </g>
   <g id="patch_6">
    <path d="M 56.450156 450.72 
L 499.970156 450.72 
" style="fill: none; stroke: #ffffff; stroke-width: 1.25; stroke-linejoin: miter; stroke-linecap: square"/>
   </g>
   <g id="patch_7">
    <path d="M 56.450156 7.2 
L 499.970156 7.2 
" style="fill: none; stroke: #ffffff; stroke-width: 1.25; stroke-linejoin: miter; stroke-linecap: square"/>
   </g>
   <g id="text_13">
    <!-- t = 800 -->
    <g style="fill: #262626" transform="translate(65.320556 24.659775) scale(0.12 -0.12)">
     <defs>
      <path id="ArialMT-74" d="M 1650 503 
L 1731 6 
Q 1494 -44 1306 -44 
Q 1000 -44 831 53 
Q 663 150 594 308 
Q 525 466 525 972 
L 525 2881 
L 113 2881 
L 113 3319 
L 525 3319 
L 525 4141 
L 1084 4478 
L 1084 3319 
L 1650 3319 
L 1650 2881 
L 1084 2881 
L 1084 941 
Q 1084 700 1114 631 
Q 1144 563 1211 522 
Q 1278 481 1403 481 
Q 1497 481 1650 503 
z
" transform="scale(0.015625)"/>
      <path id="ArialMT-20" transform="scale(0.015625)"/>
      <path id="ArialMT-3d" d="M 3381 2694 
L 356 2694 
L 356 3219 
L 3381 3219 
L 3381 2694 
z
M 3381 1303 
L 356 1303 
L 356 1828 
L 3381 1828 
L 3381 1303 
z
" transform="scale(0.015625)"/>
      <path id="ArialMT-38" d="M 1131 2484 
Q 781 2613 612 2850 
Q 444 3088 444 3419 
Q 444 3919 803 4259 
Q 1163 4600 1759 4600 
Q 2359 4600 2725 4251 
Q 3091 3903 3091 3403 
Q 3091 3084 2923 2848 
Q 2756 2613 2416 2484 
Q 2838 2347 3058 2040 
Q 3278 1734 3278 1309 
Q 3278 722 2862 322 
Q 2447 -78 1769 -78 
Q 1091 -78 675 323 
Q 259 725 259 1325 
Q 259 1772 486 2073 
Q 713 2375 1131 2484 
z
M 1019 3438 
Q 1019 3113 1228 2906 
Q 1438 2700 1772 2700 
Q 2097 2700 2305 2904 
Q 2513 3109 2513 3406 
Q 2513 3716 2298 3927 
Q 2084 4138 1766 4138 
Q 1444 4138 1231 3931 
Q 1019 3725 1019 3438 
z
M 838 1322 
Q 838 1081 952 856 
Q 1066 631 1291 507 
Q 1516 384 1775 384 
Q 2178 384 2440 643 
Q 2703 903 2703 1303 
Q 2703 1709 2433 1975 
Q 2163 2241 1756 2241 
Q 1359 2241 1098 1978 
Q 838 1716 838 1322 
z
" transform="scale(0.015625)"/>
     </defs>
     <use xlink:href="#ArialMT-74"/>
     <use xlink:href="#ArialMT-20" x="27.783203"/>
     <use xlink:href="#ArialMT-3d" x="55.566406"/>
     <use xlink:href="#ArialMT-20" x="113.964844"/>
     <use xlink:href="#ArialMT-38" x="141.748047"/>
     <use xlink:href="#ArialMT-30" x="197.363281"/>
     <use xlink:href="#ArialMT-30" x="252.978516"/>
    </g>
   </g>
   <g id="legend_1">
    <g id="patch_8">
     <path d="M 328.111406 94.59 
L 483.170156 94.59 
Q 487.970156 94.59 487.970156 89.79 
L 487.970156 24 
Q 487.970156 19.2 483.170156 19.2 
L 328.111406 19.2 
Q 323.311406 19.2 323.311406 24 
L 323.311406 89.79 
Q 323.311406 94.59 328.111406 94.59 
z
" style="fill: #eaeaf2; opacity: 0.8; stroke: #cccccc; stroke-linejoin: miter"/>
    </g>
    <g id="PathCollection_3">
     <g>
      <use xlink:href="#m1623c0dc8c" x="356.911406" y="39.97125" style="fill: #4169e1; stroke: #4169e1"/>
     </g>
    </g>
    <g id="text_14">
     <!-- Sheep -->
     <g style="fill: #262626" transform="translate(400.111406 46.27125) scale(0.24 -0.24)">
      <defs>
       <path id="ArialMT-53" d="M 288 1472 
L 859 1522 
Q 900 1178 1048 958 
Q 1197 738 1509 602 
Q 1822 466 2213 466 
Q 2559 466 2825 569 
Q 3091 672 3220 851 
Q 3350 1031 3350 1244 
Q 3350 1459 3225 1620 
Q 3100 1781 2813 1891 
Q 2628 1963 1997 2114 
Q 1366 2266 1113 2400 
Q 784 2572 623 2826 
Q 463 3081 463 3397 
Q 463 3744 659 4045 
Q 856 4347 1234 4503 
Q 1613 4659 2075 4659 
Q 2584 4659 2973 4495 
Q 3363 4331 3572 4012 
Q 3781 3694 3797 3291 
L 3216 3247 
Q 3169 3681 2898 3903 
Q 2628 4125 2100 4125 
Q 1550 4125 1298 3923 
Q 1047 3722 1047 3438 
Q 1047 3191 1225 3031 
Q 1400 2872 2139 2705 
Q 2878 2538 3153 2413 
Q 3553 2228 3743 1945 
Q 3934 1663 3934 1294 
Q 3934 928 3725 604 
Q 3516 281 3123 101 
Q 2731 -78 2241 -78 
Q 1619 -78 1198 103 
Q 778 284 539 648 
Q 300 1013 288 1472 
z
" transform="scale(0.015625)"/>
       <path id="ArialMT-68" d="M 422 0 
L 422 4581 
L 984 4581 
L 984 2938 
Q 1378 3394 1978 3394 
Q 2347 3394 2619 3248 
Q 2891 3103 3008 2847 
Q 3125 2591 3125 2103 
L 3125 0 
L 2563 0 
L 2563 2103 
Q 2563 2525 2380 2717 
Q 2197 2909 1863 2909 
Q 1613 2909 1392 2779 
Q 1172 2650 1078 2428 
Q 984 2206 984 1816 
L 984 0 
L 422 0 
z
" transform="scale(0.015625)"/>
       <path id="ArialMT-65" d="M 2694 1069 
L 3275 997 
Q 3138 488 2766 206 
Q 2394 -75 1816 -75 
Q 1088 -75 661 373 
Q 234 822 234 1631 
Q 234 2469 665 2931 
Q 1097 3394 1784 3394 
Q 2450 3394 2872 2941 
Q 3294 2488 3294 1666 
Q 3294 1616 3291 1516 
L 816 1516 
Q 847 969 1125 678 
Q 1403 388 1819 388 
Q 2128 388 2347 550 
Q 2566 713 2694 1069 
z
M 847 1978 
L 2700 1978 
Q 2663 2397 2488 2606 
Q 2219 2931 1791 2931 
Q 1403 2931 1139 2672 
Q 875 2413 847 1978 
z
" transform="scale(0.015625)"/>
       <path id="ArialMT-70" d="M 422 -1272 
L 422 3319 
L 934 3319 
L 934 2888 
Q 1116 3141 1344 3267 
Q 1572 3394 1897 3394 
Q 2322 3394 2647 3175 
Q 2972 2956 3137 2557 
Q 3303 2159 3303 1684 
Q 3303 1175 3120 767 
Q 2938 359 2589 142 
Q 2241 -75 1856 -75 
Q 1575 -75 1351 44 
Q 1128 163 984 344 
L 984 -1272 
L 422 -1272 
z
M 931 1641 
Q 931 1000 1190 694 
Q 1450 388 1819 388 
Q 2194 388 2461 705 
Q 2728 1022 2728 1688 
Q 2728 2322 2467 2637 
Q 2206 2953 1844 2953 
Q 1484 2953 1207 2617 
Q 931 2281 931 1641 
z
" transform="scale(0.015625)"/>
      </defs>
      <use xlink:href="#ArialMT-53"/>
      <use xlink:href="#ArialMT-68" x="66.699219"/>
      <use xlink:href="#ArialMT-65" x="122.314453"/>
      <use xlink:href="#ArialMT-65" x="177.929688"/>
      <use xlink:href="#ArialMT-70" x="233.544922"/>
     </g>
    </g>
    <g id="PathCollection_4">
     <g>
      <use xlink:href="#m7d63c76154" x="356.911406" y="73.92" style="fill: #b22222; stroke: #b22222"/>
     </g>
    </g>
    <g id="text_15">
     <!-- Wolves -->
     <g style="fill: #262626" transform="translate(400.111406 80.22) scale(0.24 -0.24)">
      <defs>
       <path id="ArialMT-57" d="M 1294 0 
L 78 4581 
L 700 4581 
L 1397 1578 
Q 1509 1106 1591 641 
Q 1766 1375 1797 1488 
L 2669 4581 
L 3400 4581 
L 4056 2263 
Q 4303 1400 4413 641 
Q 4500 1075 4641 1638 
L 5359 4581 
L 5969 4581 
L 4713 0 
L 4128 0 
L 3163 3491 
Q 3041 3928 3019 4028 
Q 2947 3713 2884 3491 
L 1913 0 
L 1294 0 
z
" transform="scale(0.015625)"/>
       <path id="ArialMT-6f" d="M 213 1659 
Q 213 2581 725 3025 
Q 1153 3394 1769 3394 
Q 2453 3394 2887 2945 
Q 3322 2497 3322 1706 
Q 3322 1066 3130 698 
Q 2938 331 2570 128 
Q 2203 -75 1769 -75 
Q 1072 -75 642 372 
Q 213 819 213 1659 
z
M 791 1659 
Q 791 1022 1069 705 
Q 1347 388 1769 388 
Q 2188 388 2466 706 
Q 2744 1025 2744 1678 
Q 2744 2294 2464 2611 
Q 2184 2928 1769 2928 
Q 1347 2928 1069 2612 
Q 791 2297 791 1659 
z
" transform="scale(0.015625)"/>
       <path id="ArialMT-6c" d="M 409 0 
L 409 4581 
L 972 4581 
L 972 0 
L 409 0 
z
" transform="scale(0.015625)"/>
       <path id="ArialMT-76" d="M 1344 0 
L 81 3319 
L 675 3319 
L 1388 1331 
Q 1503 1009 1600 663 
Q 1675 925 1809 1294 
L 2547 3319 
L 3125 3319 
L 1869 0 
L 1344 0 
z
" transform="scale(0.015625)"/>
       <path id="ArialMT-73" d="M 197 991 
L 753 1078 
Q 800 744 1014 566 
Q 1228 388 1613 388 
Q 2000 388 2187 545 
Q 2375 703 2375 916 
Q 2375 1106 2209 1216 
Q 2094 1291 1634 1406 
Q 1016 1563 777 1677 
Q 538 1791 414 1992 
Q 291 2194 291 2438 
Q 291 2659 392 2848 
Q 494 3038 669 3163 
Q 800 3259 1026 3326 
Q 1253 3394 1513 3394 
Q 1903 3394 2198 3281 
Q 2494 3169 2634 2976 
Q 2775 2784 2828 2463 
L 2278 2388 
Q 2241 2644 2061 2787 
Q 1881 2931 1553 2931 
Q 1166 2931 1000 2803 
Q 834 2675 834 2503 
Q 834 2394 903 2306 
Q 972 2216 1119 2156 
Q 1203 2125 1616 2013 
Q 2213 1853 2448 1751 
Q 2684 1650 2818 1456 
Q 2953 1263 2953 975 
Q 2953 694 2789 445 
Q 2625 197 2315 61 
Q 2006 -75 1616 -75 
Q 969 -75 630 194 
Q 291 463 197 991 
z
" transform="scale(0.015625)"/>
      </defs>
      <use xlink:href="#ArialMT-57"/>
      <use xlink:href="#ArialMT-6f" x="92.634766"/>
      <use xlink:href="#ArialMT-6c" x="148.25"/>
      <use xlink:href="#ArialMT-76" x="170.466797"/>
      <use xlink:href="#ArialMT-65" x="220.466797"/>
      <use xlink:href="#ArialMT-73" x="276.082031"/>
     </g>
    </g>
   </g>
  </g>
 </g>
 <defs>
  <clipPath id="paf4a9142c3">
   <rect x="56.450156" y="7.2" width="443.52" height="443.52"/>
  </clipPath>
 </defs>
</svg>
