<?xml version="1.0" encoding="utf-8" standalone="no"?>
<!DOCTYPE svg PUBLIC "-//W3C//DTD SVG 1.1//EN"
  "http://www.w3.org/Graphics/SVG/1.1/DTD/svg11.dtd">
<svg xmlns:xlink="http://www.w3.org/1999/xlink" width="507.170156pt" height="492.454219pt" viewBox="0 0 507.170156 492.454219" xmlns="http://www.w3.org/2000/svg" version="1.1">
 <metadata>
  <rdf:RDF xmlns:dc="http://purl.org/dc/elements/1.1/" xmlns:cc="http://creativecommons.org/ns#" xmlns:rdf="http://www.w3.org/1999/02/22-rdf-syntax-ns#">
   <cc:Work>
    <dc:type rdf:resource="http://purl.org/dc/dcmitype/StillImage"/>
    <dc:date>2026-05-12T10:49:55.776476</dc:date>
    <dc:format>image/svg+xml</dc:format>
    <dc:creator>
     <cc:Agent>
      <dc:title>Matplotlib v3.7.1, https://matplotlib.org/</dc:title>
     </cc:Agent>
    </dc:creator>
   </cc:Work>
  </rdf:RDF>
 </metadata>
 <defs>
  <style type="text/css">*{stroke-linejoin: round; stroke-linecap: butt}</style>
 </defs>
 <g id="figure_1">
  <g id="patch_1">
   <path d="M 0 492.454219 
L 507.170156 492.454219 
L 507.170156 0 
L 0 0 
z
" style="fill: #ffffff"/>
  </g>
  <g id="axes_1">
   <g id="patch_2">
    <path d="M 56.450156 450.72 
L 499.970156 450.72 
L 499.970156 7.2 
L 56.450156 7.2 
z
" style="fill: #eaeaf2"/>
   </g>
   <g id="matplotlib.axis_1">
    <g id="xtick_1">
     <g id="line2d_1">
      <path d="M 100.802156 450.72 
L 100.802156 7.2 
" clip-path="url(#p6db7cb0d29)" style="fill: none; stroke: #ffffff; stroke-linecap: round"/>
     </g>
     <g id="text_1">
      <!-- −400 -->
      <g style="fill: #262626" transform="translate(88.414266 468.093594) scale(0.11 -0.11)">
       <defs>
        <path id="ArialMT-2212" d="M 3381 1997 
L 356 1997 
L 356 2522 
L 3381 2522 
L 3381 1997 
z
" transform="scale(0.015625)"/>
        <path id="ArialMT-34" d="M 2069 0 
L 2069 1097 
L 81 1097 
L 81 1613 
L 2172 4581 
L 2631 4581 
L 2631 1613 
L 3250 1613 
L 3250 1097 
L 2631 1097 
L 2631 0 
L 2069 0 
z
M 2069 1613 
L 2069 3678 
L 634 1613 
L 2069 1613 
z
" transform="scale(0.015625)"/>
        <path id="ArialMT-30" d="M 266 2259 
Q 266 3072 433 3567 
Q 600 4063 929 4331 
Q 1259 4600 1759 4600 
Q 2128 4600 2406 4451 
Q 2684 4303 2865 4023 
Q 3047 3744 3150 3342 
Q 3253 2941 3253 2259 
Q 3253 1453 3087 958 
Q 2922 463 2592 192 
Q 2263 -78 1759 -78 
Q 1097 -78 719 397 
Q 266 969 266 2259 
z
M 844 2259 
Q 844 1131 1108 757 
Q 1372 384 1759 384 
Q 2147 384 2411 759 
Q 2675 1134 2675 2259 
Q 2675 3391 2411 3762 
Q 2147 4134 1753 4134 
Q 1366 4134 1134 3806 
Q 844 3388 844 2259 
z
" transform="scale(0.015625)"/>
       </defs>
       <use xlink:href="#ArialMT-2212"/>
       <use xlink:href="#ArialMT-34" x="58.398438"/>
       <use xlink:href="#ArialMT-30" x="114.013672"/>
       <use xlink:href="#ArialMT-30" x="169.628906"/>
      </g>
     </g>
    </g>
    <g id="xtick_2">
     <g id="line2d_2">
      <path d="M 189.506156 450.72 
L 189.506156 7.2 
" clip-path="url(#p6db7cb0d29)" style="fill: none; stroke: #ffffff; stroke-linecap: round"/>
     </g>
     <g id="text_2">
      <!-- −200 -->
      <g style="fill: #262626" transform="translate(177.118266 468.093594) scale(0.11 -0.11)">
       <defs>
        <path id="ArialMT-32" d="M 3222 541 
L 3222 0 
L 194 0 
Q 188 203 259 391 
Q 375 700 629 1000 
Q 884 1300 1366 1694 
Q 2113 2306 2375 2664 
Q 2638 3022 2638 3341 
Q 2638 3675 2398 3904 
Q 2159 4134 1775 4134 
Q 1369 4134 1125 3890 
Q 881 3647 878 3216 
L 300 3275 
Q 359 3922 746 4261 
Q 1134 4600 1788 4600 
Q 2447 4600 2831 4234 
Q 3216 3869 3216 3328 
Q 3216 3053 3103 2787 
Q 2991 2522 2730 2228 
Q 2469 1934 1863 1422 
Q 1356 997 1212 845 
Q 1069 694 975 541 
L 3222 541 
z
" transform="scale(0.015625)"/>
       </defs>
       <use xlink:href="#ArialMT-2212"/>
       <use xlink:href="#ArialMT-32" x="58.398438"/>
       <use xlink:href="#ArialMT-30" x="114.013672"/>
       <use xlink:href="#ArialMT-30" x="169.628906"/>
      </g>
     </g>
    </g>
    <g id="xtick_3">
     <g id="line2d_3">
      <path d="M 278.210156 450.72 
L 278.210156 7.2 
" clip-path="url(#p6db7cb0d29)" style="fill: none; stroke: #ffffff; stroke-linecap: round"/>
     </g>
     <g id="text_3">
      <!-- 0 -->
      <g style="fill: #262626" transform="translate(275.151641 468.093594) scale(0.11 -0.11)">
       <use xlink:href="#ArialMT-30"/>
      </g>
     </g>
    </g>
    <g id="xtick_4">
     <g id="line2d_4">
      <path d="M 366.914156 450.72 
L 366.914156 7.2 
" clip-path="url(#p6db7cb0d29)" style="fill: none; stroke: #ffffff; stroke-linecap: round"/>
     </g>
     <g id="text_4">
      <!-- 200 -->
      <g style="fill: #262626" transform="translate(357.738609 468.093594) scale(0.11 -0.11)">
       <use xlink:href="#ArialMT-32"/>
       <use xlink:href="#ArialMT-30" x="55.615234"/>
       <use xlink:href="#ArialMT-30" x="111.230469"/>
      </g>
     </g>
    </g>
    <g id="xtick_5">
     <g id="line2d_5">
      <path d="M 455.618156 450.72 
L 455.618156 7.2 
" clip-path="url(#p6db7cb0d29)" style="fill: none; stroke: #ffffff; stroke-linecap: round"/>
     </g>
     <g id="text_5">
      <!-- 400 -->
      <g style="fill: #262626" transform="translate(446.442609 468.093594) scale(0.11 -0.11)">
       <use xlink:href="#ArialMT-34"/>
       <use xlink:href="#ArialMT-30" x="55.615234"/>
       <use xlink:href="#ArialMT-30" x="111.230469"/>
      </g>
     </g>
    </g>
    <g id="text_6">
     <!-- x -->
     <g style="fill: #262626" transform="translate(275.210156 482.869219) scale(0.12 -0.12)">
      <defs>
       <path id="ArialMT-78" d="M 47 0 
L 1259 1725 
L 138 3319 
L 841 3319 
L 1350 2541 
Q 1494 2319 1581 2169 
Q 1719 2375 1834 2534 
L 2394 3319 
L 3066 3319 
L 1919 1756 
L 3153 0 
L 2463 0 
L 1781 1031 
L 1600 1309 
L 728 0 
L 47 0 
z
" transform="scale(0.015625)"/>
      </defs>
      <use xlink:href="#ArialMT-78"/>
     </g>
    </g>
   </g>
   <g id="matplotlib.axis_2">
    <g id="ytick_1">
     <g id="line2d_6">
      <path d="M 56.450156 406.368 
L 499.970156 406.368 
" clip-path="url(#p6db7cb0d29)" style="fill: none; stroke: #ffffff; stroke-linecap: round"/>
     </g>
     <g id="text_7">
      <!-- −400 -->
      <g style="fill: #262626" transform="translate(22.174375 410.304797) scale(0.11 -0.11)">
       <use xlink:href="#ArialMT-2212"/>
       <use xlink:href="#ArialMT-34" x="58.398438"/>
       <use xlink:href="#ArialMT-30" x="114.013672"/>
       <use xlink:href="#ArialMT-30" x="169.628906"/>
      </g>
     </g>
    </g>
    <g id="ytick_2">
     <g id="line2d_7">
      <path d="M 56.450156 317.664 
L 499.970156 317.664 
" clip-path="url(#p6db7cb0d29)" style="fill: none; stroke: #ffffff; stroke-linecap: round"/>
     </g>
     <g id="text_8">
      <!-- −200 -->
      <g style="fill: #262626" transform="translate(22.174375 321.600797) scale(0.11 -0.11)">
       <use xlink:href="#ArialMT-2212"/>
       <use xlink:href="#ArialMT-32" x="58.398438"/>
       <use xlink:href="#ArialMT-30" x="114.013672"/>
       <use xlink:href="#ArialMT-30" x="169.628906"/>
      </g>
     </g>
    </g>
    <g id="ytick_3">
     <g id="line2d_8">
      <path d="M 56.450156 228.96 
L 499.970156 228.96 
" clip-path="url(#p6db7cb0d29)" style="fill: none; stroke: #ffffff; stroke-linecap: round"/>
     </g>
     <g id="text_9">
      <!-- 0 -->
      <g style="fill: #262626" transform="translate(40.833125 232.896797) scale(0.11 -0.11)">
       <use xlink:href="#ArialMT-30"/>
      </g>
     </g>
    </g>
    <g id="ytick_4">
     <g id="line2d_9">
      <path d="M 56.450156 140.256 
L 499.970156 140.256 
" clip-path="url(#p6db7cb0d29)" style="fill: none; stroke: #ffffff; stroke-linecap: round"/>
     </g>
     <g id="text_10">
      <!-- 200 -->
      <g style="fill: #262626" transform="translate(28.599063 144.192797) scale(0.11 -0.11)">
       <use xlink:href="#ArialMT-32"/>
       <use xlink:href="#ArialMT-30" x="55.615234"/>
       <use xlink:href="#ArialMT-30" x="111.230469"/>
      </g>
     </g>
    </g>
    <g id="ytick_5">
     <g id="line2d_10">
      <path d="M 56.450156 51.552 
L 499.970156 51.552 
" clip-path="url(#p6db7cb0d29)" style="fill: none; stroke: #ffffff; stroke-linecap: round"/>
     </g>
     <g id="text_11">
      <!-- 400 -->
      <g style="fill: #262626" transform="translate(28.599063 55.488797) scale(0.11 -0.11)">
       <use xlink:href="#ArialMT-34"/>
       <use xlink:href="#ArialMT-30" x="55.615234"/>
       <use xlink:href="#ArialMT-30" x="111.230469"/>
      </g>
     </g>
    </g>
    <g id="text_12">
     <!-- y -->
     <g style="fill: #262626" transform="translate(15.64875 231.96) rotate(-90) scale(0.12 -0.12)">
      <defs>
       <path id="ArialMT-79" d="M 397 -1278 
L 334 -750 
Q 519 -800 656 -800 
Q 844 -800 956 -737 
Q 1069 -675 1141 -563 
Q 1194 -478 1313 -144 
Q 1328 -97 1363 -6 
L 103 3319 
L 709 3319 
L 1400 1397 
Q 1534 1031 1641 628 
Q 1738 1016 1872 1384 
L 2581 3319 
L 3144 3319 
L 1881 -56 
Q 1678 -603 1566 -809 
Q 1416 -1088 1222 -1217 
Q 1028 -1347 759 -1347 
Q 597 -1347 397 -1278 
z
" transform="scale(0.015625)"/>
      </defs>
      <use xlink:href="#ArialMT-79"/>
     </g>
    </g>
   </g>
   <g id="patch_3">
    <path d="M 278.210156 317.664 
C 301.734732 317.664 324.298969 308.317587 340.933356 291.6832 
C 357.567743 275.048813 366.914156 252.484576 366.914156 228.96 
C 366.914156 205.435424 357.567743 182.871187 340.933356 166.2368 
C 324.298969 149.602413 301.734732 140.256 278.210156 140.256 
C 254.68558 140.256 232.121343 149.602413 215.486956 166.2368 
C 198.852569 182.871187 189.506156 205.435424 189.506156 228.96 
C 189.506156 252.484576 198.852569 275.048813 215.486956 291.6832 
C 232.121343 308.317587 254.68558 317.664 278.210156 317.664 
z
" clip-path="url(#p6db7cb0d29)" style="fill: #228b22; opacity: 0.12; stroke: #228b22; stroke-width: 1.5; stroke-linejoin: miter"/>
   </g>
   <g id="PathCollection_1">
    <defs>
     <path id="md08bee381e" d="M 0 2.236068 
C 0.593012 2.236068 1.161816 2.000462 1.581139 1.581139 
C 2.000462 1.161816 2.236068 0.593012 2.236068 0 
C 2.236068 -0.593012 2.000462 -1.161816 1.581139 -1.581139 
C 1.161816 -2.000462 0.593012 -2.236068 0 -2.236068 
C -0.593012 -2.236068 -1.161816 -2.000462 -1.581139 -1.581139 
C -2.000462 -1.161816 -2.236068 -0.593012 -2.236068 0 
C -2.236068 0.593012 -2.000462 1.161816 -1.581139 1.581139 
C -1.161816 2.000462 -0.593012 2.236068 0 2.236068 
z
" style="stroke: #4169e1"/>
    </defs>
    <g clip-path="url(#p6db7cb0d29)">
     <use xlink:href="#md08bee381e" x="255.222526" y="100.770214" style="fill: #4169e1; stroke: #4169e1"/>
     <use xlink:href="#md08bee381e" x="177.058956" y="276.753351" style="fill: #4169e1; stroke: #4169e1"/>
     <use xlink:href="#md08bee381e" x="358.861435" y="293.841164" style="fill: #4169e1; stroke: #4169e1"/>
     <use xlink:href="#md08bee381e" x="397.547639" y="268.273541" style="fill: #4169e1; stroke: #4169e1"/>
     <use xlink:href="#md08bee381e" x="186.164143" y="255.625276" style="fill: #4169e1; stroke: #4169e1"/>
     <use xlink:href="#md08bee381e" x="272.335587" y="221.476053" style="fill: #4169e1; stroke: #4169e1"/>
     <use xlink:href="#md08bee381e" x="306.486693" y="190.024996" style="fill: #4169e1; stroke: #4169e1"/>
     <use xlink:href="#md08bee381e" x="266.484536" y="292.662841" style="fill: #4169e1; stroke: #4169e1"/>
     <use xlink:href="#md08bee381e" x="206.780731" y="143.527434" style="fill: #4169e1; stroke: #4169e1"/>
     <use xlink:href="#md08bee381e" x="223.315366" y="182.177235" style="fill: #4169e1; stroke: #4169e1"/>
     <use xlink:href="#md08bee381e" x="450.357758" y="190.022414" style="fill: #4169e1; stroke: #4169e1"/>
     <use xlink:href="#md08bee381e" x="177.61293" y="257.914271" style="fill: #4169e1; stroke: #4169e1"/>
     <use xlink:href="#md08bee381e" x="378.13411" y="182.14696" style="fill: #4169e1; stroke: #4169e1"/>
     <use xlink:href="#md08bee381e" x="249.110592" y="160.324177" style="fill: #4169e1; stroke: #4169e1"/>
     <use xlink:href="#md08bee381e" x="394.394949" y="177.15178" style="fill: #4169e1; stroke: #4169e1"/>
     <use xlink:href="#md08bee381e" x="246.761992" y="275.593401" style="fill: #4169e1; stroke: #4169e1"/>
     <use xlink:href="#md08bee381e" x="247.39339" y="277.883012" style="fill: #4169e1; stroke: #4169e1"/>
     <use xlink:href="#md08bee381e" x="373.25805" y="140.904178" style="fill: #4169e1; stroke: #4169e1"/>
     <use xlink:href="#md08bee381e" x="316.689008" y="295.791905" style="fill: #4169e1; stroke: #4169e1"/>
     <use xlink:href="#md08bee381e" x="298.022297" y="273.895589" style="fill: #4169e1; stroke: #4169e1"/>
     <use xlink:href="#md08bee381e" x="407.439037" y="159.576894" style="fill: #4169e1; stroke: #4169e1"/>
     <use xlink:href="#md08bee381e" x="293.41448" y="359.33899" style="fill: #4169e1; stroke: #4169e1"/>
     <use xlink:href="#md08bee381e" x="251.400969" y="144.762476" style="fill: #4169e1; stroke: #4169e1"/>
     <use xlink:href="#md08bee381e" x="339.657289" y="188.427137" style="fill: #4169e1; stroke: #4169e1"/>
     <use xlink:href="#md08bee381e" x="307.279469" y="171.021721" style="fill: #4169e1; stroke: #4169e1"/>
     <use xlink:href="#md08bee381e" x="330.324748" y="184.648345" style="fill: #4169e1; stroke: #4169e1"/>
     <use xlink:href="#md08bee381e" x="230.073452" y="129.13471" style="fill: #4169e1; stroke: #4169e1"/>
     <use xlink:href="#md08bee381e" x="230.257514" y="258.18493" style="fill: #4169e1; stroke: #4169e1"/>
     <use xlink:href="#md08bee381e" x="226.89065" y="224.872273" style="fill: #4169e1; stroke: #4169e1"/>
     <use xlink:href="#md08bee381e" x="323.855836" y="157.481808" style="fill: #4169e1; stroke: #4169e1"/>
     <use xlink:href="#md08bee381e" x="359.706746" y="204.135466" style="fill: #4169e1; stroke: #4169e1"/>
     <use xlink:href="#md08bee381e" x="205.993411" y="114.556054" style="fill: #4169e1; stroke: #4169e1"/>
     <use xlink:href="#md08bee381e" x="227.326631" y="268.699855" style="fill: #4169e1; stroke: #4169e1"/>
     <use xlink:href="#md08bee381e" x="246.15382" y="276.899185" style="fill: #4169e1; stroke: #4169e1"/>
     <use xlink:href="#md08bee381e" x="373.379014" y="244.466523" style="fill: #4169e1; stroke: #4169e1"/>
     <use xlink:href="#md08bee381e" x="347.28305" y="305.05609" style="fill: #4169e1; stroke: #4169e1"/>
     <use xlink:href="#md08bee381e" x="383.052434" y="309.160118" style="fill: #4169e1; stroke: #4169e1"/>
     <use xlink:href="#md08bee381e" x="166.53012" y="218.052298" style="fill: #4169e1; stroke: #4169e1"/>
     <use xlink:href="#md08bee381e" x="286.847587" y="170.63779" style="fill: #4169e1; stroke: #4169e1"/>
     <use xlink:href="#md08bee381e" x="197.759739" y="140.238113" style="fill: #4169e1; stroke: #4169e1"/>
     <use xlink:href="#md08bee381e" x="317.609497" y="277.112645" style="fill: #4169e1; stroke: #4169e1"/>
     <use xlink:href="#md08bee381e" x="278.769736" y="293.742574" style="fill: #4169e1; stroke: #4169e1"/>
     <use xlink:href="#md08bee381e" x="296.538548" y="229.297706" style="fill: #4169e1; stroke: #4169e1"/>
     <use xlink:href="#md08bee381e" x="133.070618" y="254.272805" style="fill: #4169e1; stroke: #4169e1"/>
     <use xlink:href="#md08bee381e" x="314.064707" y="228.645194" style="fill: #4169e1; stroke: #4169e1"/>
     <use xlink:href="#md08bee381e" x="248.560439" y="206.386522" style="fill: #4169e1; stroke: #4169e1"/>
     <use xlink:href="#md08bee381e" x="241.025326" y="202.06075" style="fill: #4169e1; stroke: #4169e1"/>
     <use xlink:href="#md08bee381e" x="225.782514" y="310.734332" style="fill: #4169e1; stroke: #4169e1"/>
     <use xlink:href="#md08bee381e" x="239.502164" y="267.217058" style="fill: #4169e1; stroke: #4169e1"/>
     <use xlink:href="#md08bee381e" x="204.578209" y="307.116141" style="fill: #4169e1; stroke: #4169e1"/>
     <use xlink:href="#md08bee381e" x="167.262413" y="204.390159" style="fill: #4169e1; stroke: #4169e1"/>
     <use xlink:href="#md08bee381e" x="390.249158" y="171.994689" style="fill: #4169e1; stroke: #4169e1"/>
     <use xlink:href="#md08bee381e" x="277.267699" y="131.531164" style="fill: #4169e1; stroke: #4169e1"/>
     <use xlink:href="#md08bee381e" x="265.68664" y="96.618291" style="fill: #4169e1; stroke: #4169e1"/>
     <use xlink:href="#md08bee381e" x="223.412234" y="302.069788" style="fill: #4169e1; stroke: #4169e1"/>
     <use xlink:href="#md08bee381e" x="232.158509" y="317.081217" style="fill: #4169e1; stroke: #4169e1"/>
     <use xlink:href="#md08bee381e" x="245.14044" y="220.823173" style="fill: #4169e1; stroke: #4169e1"/>
     <use xlink:href="#md08bee381e" x="295.30048" y="164.520502" style="fill: #4169e1; stroke: #4169e1"/>
     <use xlink:href="#md08bee381e" x="310.008309" y="293.895244" style="fill: #4169e1; stroke: #4169e1"/>
     <use xlink:href="#md08bee381e" x="214.173166" y="224.145058" style="fill: #4169e1; stroke: #4169e1"/>
     <use xlink:href="#md08bee381e" x="303.067875" y="269.670996" style="fill: #4169e1; stroke: #4169e1"/>
     <use xlink:href="#md08bee381e" x="218.80131" y="271.6215" style="fill: #4169e1; stroke: #4169e1"/>
     <use xlink:href="#md08bee381e" x="203.076233" y="293.641378" style="fill: #4169e1; stroke: #4169e1"/>
     <use xlink:href="#md08bee381e" x="217.739714" y="145.06498" style="fill: #4169e1; stroke: #4169e1"/>
     <use xlink:href="#md08bee381e" x="431.027051" y="156.899173" style="fill: #4169e1; stroke: #4169e1"/>
     <use xlink:href="#md08bee381e" x="244.869737" y="180.490761" style="fill: #4169e1; stroke: #4169e1"/>
     <use xlink:href="#md08bee381e" x="240.209065" y="180.531627" style="fill: #4169e1; stroke: #4169e1"/>
     <use xlink:href="#md08bee381e" x="267.557453" y="174.522109" style="fill: #4169e1; stroke: #4169e1"/>
     <use xlink:href="#md08bee381e" x="245.310211" y="339.603162" style="fill: #4169e1; stroke: #4169e1"/>
     <use xlink:href="#md08bee381e" x="189.698674" y="179.663059" style="fill: #4169e1; stroke: #4169e1"/>
     <use xlink:href="#md08bee381e" x="301.316497" y="168.872352" style="fill: #4169e1; stroke: #4169e1"/>
     <use xlink:href="#md08bee381e" x="152.724058" y="198.529027" style="fill: #4169e1; stroke: #4169e1"/>
     <use xlink:href="#md08bee381e" x="380.268117" y="197.215582" style="fill: #4169e1; stroke: #4169e1"/>
     <use xlink:href="#md08bee381e" x="349.925559" y="240.213721" style="fill: #4169e1; stroke: #4169e1"/>
     <use xlink:href="#md08bee381e" x="239.905864" y="317.942784" style="fill: #4169e1; stroke: #4169e1"/>
     <use xlink:href="#md08bee381e" x="287.645734" y="194.071873" style="fill: #4169e1; stroke: #4169e1"/>
     <use xlink:href="#md08bee381e" x="457.488241" y="172.015006" style="fill: #4169e1; stroke: #4169e1"/>
     <use xlink:href="#md08bee381e" x="342.829097" y="300.584447" style="fill: #4169e1; stroke: #4169e1"/>
     <use xlink:href="#md08bee381e" x="354.625547" y="163.120899" style="fill: #4169e1; stroke: #4169e1"/>
     <use xlink:href="#md08bee381e" x="378.364093" y="366.896601" style="fill: #4169e1; stroke: #4169e1"/>
     <use xlink:href="#md08bee381e" x="366.787115" y="329.588283" style="fill: #4169e1; stroke: #4169e1"/>
     <use xlink:href="#md08bee381e" x="241.261088" y="301.565732" style="fill: #4169e1; stroke: #4169e1"/>
     <use xlink:href="#md08bee381e" x="264.55703" y="278.753001" style="fill: #4169e1; stroke: #4169e1"/>
     <use xlink:href="#md08bee381e" x="437.246645" y="144.734296" style="fill: #4169e1; stroke: #4169e1"/>
     <use xlink:href="#md08bee381e" x="372.474189" y="260.011154" style="fill: #4169e1; stroke: #4169e1"/>
     <use xlink:href="#md08bee381e" x="384.289676" y="309.538358" style="fill: #4169e1; stroke: #4169e1"/>
     <use xlink:href="#md08bee381e" x="316.333186" y="226.960645" style="fill: #4169e1; stroke: #4169e1"/>
     <use xlink:href="#md08bee381e" x="356.780933" y="360.270926" style="fill: #4169e1; stroke: #4169e1"/>
     <use xlink:href="#md08bee381e" x="346.674861" y="310.05243" style="fill: #4169e1; stroke: #4169e1"/>
     <use xlink:href="#md08bee381e" x="225.159683" y="276.604366" style="fill: #4169e1; stroke: #4169e1"/>
     <use xlink:href="#md08bee381e" x="366.319476" y="261.07784" style="fill: #4169e1; stroke: #4169e1"/>
     <use xlink:href="#md08bee381e" x="275.819621" y="74.718367" style="fill: #4169e1; stroke: #4169e1"/>
     <use xlink:href="#md08bee381e" x="367.634809" y="266.147964" style="fill: #4169e1; stroke: #4169e1"/>
     <use xlink:href="#md08bee381e" x="259.534605" y="283.342972" style="fill: #4169e1; stroke: #4169e1"/>
     <use xlink:href="#md08bee381e" x="316.583813" y="143.195538" style="fill: #4169e1; stroke: #4169e1"/>
     <use xlink:href="#md08bee381e" x="326.450252" y="188.239486" style="fill: #4169e1; stroke: #4169e1"/>
     <use xlink:href="#md08bee381e" x="230.571286" y="286.250784" style="fill: #4169e1; stroke: #4169e1"/>
     <use xlink:href="#md08bee381e" x="291.555508" y="175.054085" style="fill: #4169e1; stroke: #4169e1"/>
     <use xlink:href="#md08bee381e" x="202.17622" y="313.232292" style="fill: #4169e1; stroke: #4169e1"/>
     <use xlink:href="#md08bee381e" x="421.780171" y="256.845389" style="fill: #4169e1; stroke: #4169e1"/>
     <use xlink:href="#md08bee381e" x="305.624025" y="237.484898" style="fill: #4169e1; stroke: #4169e1"/>
     <use xlink:href="#md08bee381e" x="326.916338" y="314.561438" style="fill: #4169e1; stroke: #4169e1"/>
     <use xlink:href="#md08bee381e" x="311.065225" y="179.076801" style="fill: #4169e1; stroke: #4169e1"/>
     <use xlink:href="#md08bee381e" x="397.577728" y="220.747061" style="fill: #4169e1; stroke: #4169e1"/>
     <use xlink:href="#md08bee381e" x="200.139287" y="293.178665" style="fill: #4169e1; stroke: #4169e1"/>
     <use xlink:href="#md08bee381e" x="363.870655" y="190.938487" style="fill: #4169e1; stroke: #4169e1"/>
     <use xlink:href="#md08bee381e" x="290.31724" y="251.321677" style="fill: #4169e1; stroke: #4169e1"/>
     <use xlink:href="#md08bee381e" x="271.333951" y="271.435774" style="fill: #4169e1; stroke: #4169e1"/>
     <use xlink:href="#md08bee381e" x="372.431878" y="332.86082" style="fill: #4169e1; stroke: #4169e1"/>
     <use xlink:href="#md08bee381e" x="199.444264" y="132.703714" style="fill: #4169e1; stroke: #4169e1"/>
     <use xlink:href="#md08bee381e" x="398.712962" y="206.527516" style="fill: #4169e1; stroke: #4169e1"/>
     <use xlink:href="#md08bee381e" x="304.733063" y="275.39905" style="fill: #4169e1; stroke: #4169e1"/>
     <use xlink:href="#md08bee381e" x="211.631305" y="256.297579" style="fill: #4169e1; stroke: #4169e1"/>
     <use xlink:href="#md08bee381e" x="336.470308" y="170.145171" style="fill: #4169e1; stroke: #4169e1"/>
     <use xlink:href="#md08bee381e" x="309.350703" y="242.839647" style="fill: #4169e1; stroke: #4169e1"/>
     <use xlink:href="#md08bee381e" x="327.762769" y="189.546816" style="fill: #4169e1; stroke: #4169e1"/>
     <use xlink:href="#md08bee381e" x="200.368106" y="289.503884" style="fill: #4169e1; stroke: #4169e1"/>
     <use xlink:href="#md08bee381e" x="216.918638" y="297.381819" style="fill: #4169e1; stroke: #4169e1"/>
     <use xlink:href="#md08bee381e" x="289.797502" y="209.693118" style="fill: #4169e1; stroke: #4169e1"/>
     <use xlink:href="#md08bee381e" x="232.916559" y="265.715417" style="fill: #4169e1; stroke: #4169e1"/>
     <use xlink:href="#md08bee381e" x="360.808474" y="158.703694" style="fill: #4169e1; stroke: #4169e1"/>
     <use xlink:href="#md08bee381e" x="369.672012" y="287.879923" style="fill: #4169e1; stroke: #4169e1"/>
     <use xlink:href="#md08bee381e" x="216.394265" y="316.303581" style="fill: #4169e1; stroke: #4169e1"/>
     <use xlink:href="#md08bee381e" x="374.903005" y="229.111844" style="fill: #4169e1; stroke: #4169e1"/>
     <use xlink:href="#md08bee381e" x="287.965516" y="282.005313" style="fill: #4169e1; stroke: #4169e1"/>
     <use xlink:href="#md08bee381e" x="224.66251" y="209.836205" style="fill: #4169e1; stroke: #4169e1"/>
     <use xlink:href="#md08bee381e" x="243.18577" y="111.788156" style="fill: #4169e1; stroke: #4169e1"/>
     <use xlink:href="#md08bee381e" x="327.109062" y="233.693766" style="fill: #4169e1; stroke: #4169e1"/>
     <use xlink:href="#md08bee381e" x="357.554948" y="142.657083" style="fill: #4169e1; stroke: #4169e1"/>
     <use xlink:href="#md08bee381e" x="386.927834" y="255.433688" style="fill: #4169e1; stroke: #4169e1"/>
     <use xlink:href="#md08bee381e" x="328.185452" y="235.731538" style="fill: #4169e1; stroke: #4169e1"/>
     <use xlink:href="#md08bee381e" x="277.656115" y="96.736994" style="fill: #4169e1; stroke: #4169e1"/>
    </g>
   </g>
   <g id="PathCollection_2">
    <defs>
     <path id="m6a78e3c5ee" d="M 0 2.5 
C 0.663008 2.5 1.29895 2.236584 1.767767 1.767767 
C 2.236584 1.29895 2.5 0.663008 2.5 0 
C 2.5 -0.663008 2.236584 -1.29895 1.767767 -1.767767 
C 1.29895 -2.236584 0.663008 -2.5 0 -2.5 
C -0.663008 -2.5 -1.29895 -2.236584 -1.767767 -1.767767 
C -2.236584 -1.29895 -2.5 -0.663008 -2.5 0 
C -2.5 0.663008 -2.236584 1.29895 -1.767767 1.767767 
C -1.29895 2.236584 -0.663008 2.5 0 2.5 
z
" style="stroke: #b22222"/>
    </defs>
    <g clip-path="url(#p6db7cb0d29)">
     <use xlink:href="#m6a78e3c5ee" x="252.492424" y="208.800931" style="fill: #b22222; stroke: #b22222"/>
     <use xlink:href="#m6a78e3c5ee" x="297.657543" y="251.303296" style="fill: #b22222; stroke: #b22222"/>
     <use xlink:href="#m6a78e3c5ee" x="263.703981" y="236.819578" style="fill: #b22222; stroke: #b22222"/>
     <use xlink:href="#m6a78e3c5ee" x="279.555362" y="241.303602" style="fill: #b22222; stroke: #b22222"/>
     <use xlink:href="#m6a78e3c5ee" x="289.856539" y="254.20992" style="fill: #b22222; stroke: #b22222"/>
     <use xlink:href="#m6a78e3c5ee" x="246.355024" y="202.671678" style="fill: #b22222; stroke: #b22222"/>
     <use xlink:href="#m6a78e3c5ee" x="244.516561" y="228.553686" style="fill: #b22222; stroke: #b22222"/>
     <use xlink:href="#m6a78e3c5ee" x="293.789201" y="253.898857" style="fill: #b22222; stroke: #b22222"/>
     <use xlink:href="#m6a78e3c5ee" x="288.185264" y="242.892604" style="fill: #b22222; stroke: #b22222"/>
     <use xlink:href="#m6a78e3c5ee" x="242.253513" y="204.044995" style="fill: #b22222; stroke: #b22222"/>
     <use xlink:href="#m6a78e3c5ee" x="339.613699" y="194.821967" style="fill: #b22222; stroke: #b22222"/>
     <use xlink:href="#m6a78e3c5ee" x="244.662195" y="217.606243" style="fill: #b22222; stroke: #b22222"/>
     <use xlink:href="#m6a78e3c5ee" x="303.518562" y="270.567229" style="fill: #b22222; stroke: #b22222"/>
     <use xlink:href="#m6a78e3c5ee" x="294.117853" y="239.98247" style="fill: #b22222; stroke: #b22222"/>
     <use xlink:href="#m6a78e3c5ee" x="274.4888" y="236.338899" style="fill: #b22222; stroke: #b22222"/>
     <use xlink:href="#m6a78e3c5ee" x="256.237006" y="204.60248" style="fill: #b22222; stroke: #b22222"/>
     <use xlink:href="#m6a78e3c5ee" x="288.228476" y="241.11949" style="fill: #b22222; stroke: #b22222"/>
     <use xlink:href="#m6a78e3c5ee" x="249.281155" y="209.463624" style="fill: #b22222; stroke: #b22222"/>
     <use xlink:href="#m6a78e3c5ee" x="287.344507" y="231.425811" style="fill: #b22222; stroke: #b22222"/>
     <use xlink:href="#m6a78e3c5ee" x="292.541352" y="248.819502" style="fill: #b22222; stroke: #b22222"/>
     <use xlink:href="#m6a78e3c5ee" x="235.523752" y="204.211468" style="fill: #b22222; stroke: #b22222"/>
     <use xlink:href="#m6a78e3c5ee" x="299.348693" y="266.106637" style="fill: #b22222; stroke: #b22222"/>
     <use xlink:href="#m6a78e3c5ee" x="305.643806" y="252.683997" style="fill: #b22222; stroke: #b22222"/>
     <use xlink:href="#m6a78e3c5ee" x="259.610815" y="236.796933" style="fill: #b22222; stroke: #b22222"/>
     <use xlink:href="#m6a78e3c5ee" x="291.372064" y="254.748075" style="fill: #b22222; stroke: #b22222"/>
     <use xlink:href="#m6a78e3c5ee" x="365.246084" y="281.992292" style="fill: #b22222; stroke: #b22222"/>
     <use xlink:href="#m6a78e3c5ee" x="301.586307" y="257.669552" style="fill: #b22222; stroke: #b22222"/>
     <use xlink:href="#m6a78e3c5ee" x="270.387634" y="238.087302" style="fill: #b22222; stroke: #b22222"/>
     <use xlink:href="#m6a78e3c5ee" x="293.864101" y="253.946164" style="fill: #b22222; stroke: #b22222"/>
     <use xlink:href="#m6a78e3c5ee" x="292.935987" y="240.644753" style="fill: #b22222; stroke: #b22222"/>
     <use xlink:href="#m6a78e3c5ee" x="295.922661" y="232.285236" style="fill: #b22222; stroke: #b22222"/>
     <use xlink:href="#m6a78e3c5ee" x="291.773019" y="248.72648" style="fill: #b22222; stroke: #b22222"/>
     <use xlink:href="#m6a78e3c5ee" x="258.351722" y="197.028797" style="fill: #b22222; stroke: #b22222"/>
     <use xlink:href="#m6a78e3c5ee" x="254.970007" y="196.589107" style="fill: #b22222; stroke: #b22222"/>
     <use xlink:href="#m6a78e3c5ee" x="297.275011" y="245.720303" style="fill: #b22222; stroke: #b22222"/>
     <use xlink:href="#m6a78e3c5ee" x="264.183875" y="225.231596" style="fill: #b22222; stroke: #b22222"/>
     <use xlink:href="#m6a78e3c5ee" x="240.549247" y="202.879803" style="fill: #b22222; stroke: #b22222"/>
     <use xlink:href="#m6a78e3c5ee" x="249.177419" y="200.896752" style="fill: #b22222; stroke: #b22222"/>
     <use xlink:href="#m6a78e3c5ee" x="266.29139" y="211.478258" style="fill: #b22222; stroke: #b22222"/>
     <use xlink:href="#m6a78e3c5ee" x="292.067783" y="239.173157" style="fill: #b22222; stroke: #b22222"/>
     <use xlink:href="#m6a78e3c5ee" x="263.295932" y="204.648826" style="fill: #b22222; stroke: #b22222"/>
     <use xlink:href="#m6a78e3c5ee" x="243.037648" y="218.342662" style="fill: #b22222; stroke: #b22222"/>
     <use xlink:href="#m6a78e3c5ee" x="243.057647" y="207.829677" style="fill: #b22222; stroke: #b22222"/>
     <use xlink:href="#m6a78e3c5ee" x="248.490489" y="216.251643" style="fill: #b22222; stroke: #b22222"/>
     <use xlink:href="#m6a78e3c5ee" x="245.979176" y="197.376163" style="fill: #b22222; stroke: #b22222"/>
     <use xlink:href="#m6a78e3c5ee" x="297.439247" y="264.393435" style="fill: #b22222; stroke: #b22222"/>
     <use xlink:href="#m6a78e3c5ee" x="245.543595" y="213.763984" style="fill: #b22222; stroke: #b22222"/>
     <use xlink:href="#m6a78e3c5ee" x="259.715954" y="208.551169" style="fill: #b22222; stroke: #b22222"/>
     <use xlink:href="#m6a78e3c5ee" x="249.411127" y="231.462545" style="fill: #b22222; stroke: #b22222"/>
     <use xlink:href="#m6a78e3c5ee" x="284.277383" y="242.311838" style="fill: #b22222; stroke: #b22222"/>
     <use xlink:href="#m6a78e3c5ee" x="281.140727" y="263.344684" style="fill: #b22222; stroke: #b22222"/>
     <use xlink:href="#m6a78e3c5ee" x="295.325026" y="270.519075" style="fill: #b22222; stroke: #b22222"/>
     <use xlink:href="#m6a78e3c5ee" x="295.535385" y="234.969726" style="fill: #b22222; stroke: #b22222"/>
     <use xlink:href="#m6a78e3c5ee" x="250.576756" y="223.647967" style="fill: #b22222; stroke: #b22222"/>
     <use xlink:href="#m6a78e3c5ee" x="251.748317" y="223.148236" style="fill: #b22222; stroke: #b22222"/>
     <use xlink:href="#m6a78e3c5ee" x="259.942769" y="218.039628" style="fill: #b22222; stroke: #b22222"/>
     <use xlink:href="#m6a78e3c5ee" x="285.888397" y="237.785204" style="fill: #b22222; stroke: #b22222"/>
     <use xlink:href="#m6a78e3c5ee" x="248.340252" y="203.120155" style="fill: #b22222; stroke: #b22222"/>
     <use xlink:href="#m6a78e3c5ee" x="277.483517" y="249.760686" style="fill: #b22222; stroke: #b22222"/>
     <use xlink:href="#m6a78e3c5ee" x="248.945754" y="205.764341" style="fill: #b22222; stroke: #b22222"/>
     <use xlink:href="#m6a78e3c5ee" x="245.288102" y="198.52655" style="fill: #b22222; stroke: #b22222"/>
     <use xlink:href="#m6a78e3c5ee" x="289.744633" y="249.816848" style="fill: #b22222; stroke: #b22222"/>
     <use xlink:href="#m6a78e3c5ee" x="247.827077" y="199.942608" style="fill: #b22222; stroke: #b22222"/>
     <use xlink:href="#m6a78e3c5ee" x="251.716414" y="201.221986" style="fill: #b22222; stroke: #b22222"/>
     <use xlink:href="#m6a78e3c5ee" x="245.643745" y="208.739475" style="fill: #b22222; stroke: #b22222"/>
     <use xlink:href="#m6a78e3c5ee" x="245.330924" y="217.19588" style="fill: #b22222; stroke: #b22222"/>
     <use xlink:href="#m6a78e3c5ee" x="252.037864" y="206.810822" style="fill: #b22222; stroke: #b22222"/>
     <use xlink:href="#m6a78e3c5ee" x="269.132687" y="242.130387" style="fill: #b22222; stroke: #b22222"/>
     <use xlink:href="#m6a78e3c5ee" x="256.405128" y="206.077685" style="fill: #b22222; stroke: #b22222"/>
     <use xlink:href="#m6a78e3c5ee" x="243.064275" y="198.891853" style="fill: #b22222; stroke: #b22222"/>
     <use xlink:href="#m6a78e3c5ee" x="255.657414" y="226.656773" style="fill: #b22222; stroke: #b22222"/>
     <use xlink:href="#m6a78e3c5ee" x="288.805804" y="231.252622" style="fill: #b22222; stroke: #b22222"/>
     <use xlink:href="#m6a78e3c5ee" x="314.473357" y="199.915121" style="fill: #b22222; stroke: #b22222"/>
     <use xlink:href="#m6a78e3c5ee" x="316.227344" y="230.949872" style="fill: #b22222; stroke: #b22222"/>
     <use xlink:href="#m6a78e3c5ee" x="255.322759" y="212.195332" style="fill: #b22222; stroke: #b22222"/>
     <use xlink:href="#m6a78e3c5ee" x="272.256665" y="244.930002" style="fill: #b22222; stroke: #b22222"/>
     <use xlink:href="#m6a78e3c5ee" x="245.032659" y="231.132925" style="fill: #b22222; stroke: #b22222"/>
    </g>
   </g>
   <g id="patch_4">
    <path d="M 56.450156 450.72 
L 56.450156 7.2 
" style="fill: none; stroke: #ffffff; stroke-width: 1.25; stroke-linejoin: miter; stroke-linecap: square"/>
   </g>
   <g id="patch_5">
    <path d="M 499.970156 450.72 
L 499.970156 7.2 
" style="fill: none; stroke: #ffffff; stroke-width: 1.25; stroke-linejoin: miter; stroke-linecap: square"/>
   </g>
   <g id="patch_6">
    <path d="M 56.450156 450.72 
L 499.970156 450.72 
" style="fill: none; stroke: #ffffff; stroke-width: 1.25; stroke-linejoin: miter; stroke-linecap: square"/>
   </g>
   <g id="patch_7">
    <path d="M 56.450156 7.2 
L 499.970156 7.2 
" style="fill: none; stroke: #ffffff; stroke-width: 1.25; stroke-linejoin: miter; stroke-linecap: square"/>
   </g>
   <g id="text_13">
    <!-- t = 100 -->
    <g style="fill: #262626" transform="translate(65.320556 24.659775) scale(0.12 -0.12)">
     <defs>
      <path id="ArialMT-74" d="M 1650 503 
L 1731 6 
Q 1494 -44 1306 -44 
Q 1000 -44 831 53 
Q 663 150 594 308 
Q 525 466 525 972 
L 525 2881 
L 113 2881 
L 113 3319 
L 525 3319 
L 525 4141 
L 1084 4478 
L 1084 3319 
L 1650 3319 
L 1650 2881 
L 1084 2881 
L 1084 941 
Q 1084 700 1114 631 
Q 1144 563 1211 522 
Q 1278 481 1403 481 
Q 1497 481 1650 503 
z
" transform="scale(0.015625)"/>
      <path id="ArialMT-20" transform="scale(0.015625)"/>
      <path id="ArialMT-3d" d="M 3381 2694 
L 356 2694 
L 356 3219 
L 3381 3219 
L 3381 2694 
z
M 3381 1303 
L 356 1303 
L 356 1828 
L 3381 1828 
L 3381 1303 
z
" transform="scale(0.015625)"/>
      <path id="ArialMT-31" d="M 2384 0 
L 1822 0 
L 1822 3584 
Q 1619 3391 1289 3197 
Q 959 3003 697 2906 
L 697 3450 
Q 1169 3672 1522 3987 
Q 1875 4303 2022 4600 
L 2384 4600 
L 2384 0 
z
" transform="scale(0.015625)"/>
     </defs>
     <use xlink:href="#ArialMT-74"/>
     <use xlink:href="#ArialMT-20" x="27.783203"/>
     <use xlink:href="#ArialMT-3d" x="55.566406"/>
     <use xlink:href="#ArialMT-20" x="113.964844"/>
     <use xlink:href="#ArialMT-31" x="141.748047"/>
     <use xlink:href="#ArialMT-30" x="197.363281"/>
     <use xlink:href="#ArialMT-30" x="252.978516"/>
    </g>
   </g>
   <g id="legend_1">
    <g id="patch_8">
     <path d="M 328.111406 94.59 
L 483.170156 94.59 
Q 487.970156 94.59 487.970156 89.79 
L 487.970156 24 
Q 487.970156 19.2 483.170156 19.2 
L 328.111406 19.2 
Q 323.311406 19.2 323.311406 24 
L 323.311406 89.79 
Q 323.311406 94.59 328.111406 94.59 
z
" style="fill: #eaeaf2; opacity: 0.8; stroke: #cccccc; stroke-linejoin: miter"/>
    </g>
    <g id="PathCollection_3">
     <g>
      <use xlink:href="#md08bee381e" x="356.911406" y="39.97125" style="fill: #4169e1; stroke: #4169e1"/>
     </g>
    </g>
    <g id="text_14">
     <!-- Sheep -->
     <g style="fill: #262626" transform="translate(400.111406 46.27125) scale(0.24 -0.24)">
      <defs>
       <path id="ArialMT-53" d="M 288 1472 
L 859 1522 
Q 900 1178 1048 958 
Q 1197 738 1509 602 
Q 1822 466 2213 466 
Q 2559 466 2825 569 
Q 3091 672 3220 851 
Q 3350 1031 3350 1244 
Q 3350 1459 3225 1620 
Q 3100 1781 2813 1891 
Q 2628 1963 1997 2114 
Q 1366 2266 1113 2400 
Q 784 2572 623 2826 
Q 463 3081 463 3397 
Q 463 3744 659 4045 
Q 856 4347 1234 4503 
Q 1613 4659 2075 4659 
Q 2584 4659 2973 4495 
Q 3363 4331 3572 4012 
Q 3781 3694 3797 3291 
L 3216 3247 
Q 3169 3681 2898 3903 
Q 2628 4125 2100 4125 
Q 1550 4125 1298 3923 
Q 1047 3722 1047 3438 
Q 1047 3191 1225 3031 
Q 1400 2872 2139 2705 
Q 2878 2538 3153 2413 
Q 3553 2228 3743 1945 
Q 3934 1663 3934 1294 
Q 3934 928 3725 604 
Q 3516 281 3123 101 
Q 2731 -78 2241 -78 
Q 1619 -78 1198 103 
Q 778 284 539 648 
Q 300 1013 288 1472 
z
" transform="scale(0.015625)"/>
       <path id="ArialMT-68" d="M 422 0 
L 422 4581 
L 984 4581 
L 984 2938 
Q 1378 3394 1978 3394 
Q 2347 3394 2619 3248 
Q 2891 3103 3008 2847 
Q 3125 2591 3125 2103 
L 3125 0 
L 2563 0 
L 2563 2103 
Q 2563 2525 2380 2717 
Q 2197 2909 1863 2909 
Q 1613 2909 1392 2779 
Q 1172 2650 1078 2428 
Q 984 2206 984 1816 
L 984 0 
L 422 0 
z
" transform="scale(0.015625)"/>
       <path id="ArialMT-65" d="M 2694 1069 
L 3275 997 
Q 3138 488 2766 206 
Q 2394 -75 1816 -75 
Q 1088 -75 661 373 
Q 234 822 234 1631 
Q 234 2469 665 2931 
Q 1097 3394 1784 3394 
Q 2450 3394 2872 2941 
Q 3294 2488 3294 1666 
Q 3294 1616 3291 1516 
L 816 1516 
Q 847 969 1125 678 
Q 1403 388 1819 388 
Q 2128 388 2347 550 
Q 2566 713 2694 1069 
z
M 847 1978 
L 2700 1978 
Q 2663 2397 2488 2606 
Q 2219 2931 1791 2931 
Q 1403 2931 1139 2672 
Q 875 2413 847 1978 
z
" transform="scale(0.015625)"/>
       <path id="ArialMT-70" d="M 422 -1272 
L 422 3319 
L 934 3319 
L 934 2888 
Q 1116 3141 1344 3267 
Q 1572 3394 1897 3394 
Q 2322 3394 2647 3175 
Q 2972 2956 3137 2557 
Q 3303 2159 3303 1684 
Q 3303 1175 3120 767 
Q 2938 359 2589 142 
Q 2241 -75 1856 -75 
Q 1575 -75 1351 44 
Q 1128 163 984 344 
L 984 -1272 
L 422 -1272 
z
M 931 1641 
Q 931 1000 1190 694 
Q 1450 388 1819 388 
Q 2194 388 2461 705 
Q 2728 1022 2728 1688 
Q 2728 2322 2467 2637 
Q 2206 2953 1844 2953 
Q 1484 2953 1207 2617 
Q 931 2281 931 1641 
z
" transform="scale(0.015625)"/>
      </defs>
      <use xlink:href="#ArialMT-53"/>
      <use xlink:href="#ArialMT-68" x="66.699219"/>
      <use xlink:href="#ArialMT-65" x="122.314453"/>
      <use xlink:href="#ArialMT-65" x="177.929688"/>
      <use xlink:href="#ArialMT-70" x="233.544922"/>
     </g>
    </g>
    <g id="PathCollection_4">
     <g>
      <use xlink:href="#m6a78e3c5ee" x="356.911406" y="73.92" style="fill: #b22222; stroke: #b22222"/>
     </g>
    </g>
    <g id="text_15">
     <!-- Wolves -->
     <g style="fill: #262626" transform="translate(400.111406 80.22) scale(0.24 -0.24)">
      <defs>
       <path id="ArialMT-57" d="M 1294 0 
L 78 4581 
L 700 4581 
L 1397 1578 
Q 1509 1106 1591 641 
Q 1766 1375 1797 1488 
L 2669 4581 
L 3400 4581 
L 4056 2263 
Q 4303 1400 4413 641 
Q 4500 1075 4641 1638 
L 5359 4581 
L 5969 4581 
L 4713 0 
L 4128 0 
L 3163 3491 
Q 3041 3928 3019 4028 
Q 2947 3713 2884 3491 
L 1913 0 
L 1294 0 
z
" transform="scale(0.015625)"/>
       <path id="ArialMT-6f" d="M 213 1659 
Q 213 2581 725 3025 
Q 1153 3394 1769 3394 
Q 2453 3394 2887 2945 
Q 3322 2497 3322 1706 
Q 3322 1066 3130 698 
Q 2938 331 2570 128 
Q 2203 -75 1769 -75 
Q 1072 -75 642 372 
Q 213 819 213 1659 
z
M 791 1659 
Q 791 1022 1069 705 
Q 1347 388 1769 388 
Q 2188 388 2466 706 
Q 2744 1025 2744 1678 
Q 2744 2294 2464 2611 
Q 2184 2928 1769 2928 
Q 1347 2928 1069 2612 
Q 791 2297 791 1659 
z
" transform="scale(0.015625)"/>
       <path id="ArialMT-6c" d="M 409 0 
L 409 4581 
L 972 4581 
L 972 0 
L 409 0 
z
" transform="scale(0.015625)"/>
       <path id="ArialMT-76" d="M 1344 0 
L 81 3319 
L 675 3319 
L 1388 1331 
Q 1503 1009 1600 663 
Q 1675 925 1809 1294 
L 2547 3319 
L 3125 3319 
L 1869 0 
L 1344 0 
z
" transform="scale(0.015625)"/>
       <path id="ArialMT-73" d="M 197 991 
L 753 1078 
Q 800 744 1014 566 
Q 1228 388 1613 388 
Q 2000 388 2187 545 
Q 2375 703 2375 916 
Q 2375 1106 2209 1216 
Q 2094 1291 1634 1406 
Q 1016 1563 777 1677 
Q 538 1791 414 1992 
Q 291 2194 291 2438 
Q 291 2659 392 2848 
Q 494 3038 669 3163 
Q 800 3259 1026 3326 
Q 1253 3394 1513 3394 
Q 1903 3394 2198 3281 
Q 2494 3169 2634 2976 
Q 2775 2784 2828 2463 
L 2278 2388 
Q 2241 2644 2061 2787 
Q 1881 2931 1553 2931 
Q 1166 2931 1000 2803 
Q 834 2675 834 2503 
Q 834 2394 903 2306 
Q 972 2216 1119 2156 
Q 1203 2125 1616 2013 
Q 2213 1853 2448 1751 
Q 2684 1650 2818 1456 
Q 2953 1263 2953 975 
Q 2953 694 2789 445 
Q 2625 197 2315 61 
Q 2006 -75 1616 -75 
Q 969 -75 630 194 
Q 291 463 197 991 
z
" transform="scale(0.015625)"/>
      </defs>
      <use xlink:href="#ArialMT-57"/>
      <use xlink:href="#ArialMT-6f" x="92.634766"/>
      <use xlink:href="#ArialMT-6c" x="148.25"/>
      <use xlink:href="#ArialMT-76" x="170.466797"/>
      <use xlink:href="#ArialMT-65" x="220.466797"/>
      <use xlink:href="#ArialMT-73" x="276.082031"/>
     </g>
    </g>
   </g>
  </g>
 </g>
 <defs>
  <clipPath id="p6db7cb0d29">
   <rect x="56.450156" y="7.2" width="443.52" height="443.52"/>
  </clipPath>
 </defs>
</svg>
