<?xml version="1.0" encoding="utf-8" standalone="no"?>
<!DOCTYPE svg PUBLIC "-//W3C//DTD SVG 1.1//EN"
  "http://www.w3.org/Graphics/SVG/1.1/DTD/svg11.dtd">
<svg xmlns:xlink="http://www.w3.org/1999/xlink" width="507.170156pt" height="492.454219pt" viewBox="0 0 507.170156 492.454219" xmlns="http://www.w3.org/2000/svg" version="1.1">
 <metadata>
  <rdf:RDF xmlns:dc="http://purl.org/dc/elements/1.1/" xmlns:cc="http://creativecommons.org/ns#" xmlns:rdf="http://www.w3.org/1999/02/22-rdf-syntax-ns#">
   <cc:Work>
    <dc:type rdf:resource="http://purl.org/dc/dcmitype/StillImage"/>
    <dc:date>2026-05-12T10:49:56.759442</dc:date>
    <dc:format>image/svg+xml</dc:format>
    <dc:creator>
     <cc:Agent>
      <dc:title>Matplotlib v3.7.1, https://matplotlib.org/</dc:title>
     </cc:Agent>
    </dc:creator>
   </cc:Work>
  </rdf:RDF>
 </metadata>
 <defs>
  <style type="text/css">*{stroke-linejoin: round; stroke-linecap: butt}</style>
 </defs>
 <g id="figure_1">
  <g id="patch_1">
   <path d="M 0 492.454219 
L 507.170156 492.454219 
L 507.170156 0 
L 0 0 
z
" style="fill: #ffffff"/>
  </g>
  <g id="axes_1">
   <g id="patch_2">
    <path d="M 56.450156 450.72 
L 499.970156 450.72 
L 499.970156 7.2 
L 56.450156 7.2 
z
" style="fill: #eaeaf2"/>
   </g>
   <g id="matplotlib.axis_1">
    <g id="xtick_1">
     <g id="line2d_1">
      <path d="M 100.802156 450.72 
L 100.802156 7.2 
" clip-path="url(#p422db73b88)" style="fill: none; stroke: #ffffff; stroke-linecap: round"/>
     </g>
     <g id="text_1">
      <!-- −400 -->
      <g style="fill: #262626" transform="translate(88.414266 468.093594) scale(0.11 -0.11)">
       <defs>
        <path id="ArialMT-2212" d="M 3381 1997 
L 356 1997 
L 356 2522 
L 3381 2522 
L 3381 1997 
z
" transform="scale(0.015625)"/>
        <path id="ArialMT-34" d="M 2069 0 
L 2069 1097 
L 81 1097 
L 81 1613 
L 2172 4581 
L 2631 4581 
L 2631 1613 
L 3250 1613 
L 3250 1097 
L 2631 1097 
L 2631 0 
L 2069 0 
z
M 2069 1613 
L 2069 3678 
L 634 1613 
L 2069 1613 
z
" transform="scale(0.015625)"/>
        <path id="ArialMT-30" d="M 266 2259 
Q 266 3072 433 3567 
Q 600 4063 929 4331 
Q 1259 4600 1759 4600 
Q 2128 4600 2406 4451 
Q 2684 4303 2865 4023 
Q 3047 3744 3150 3342 
Q 3253 2941 3253 2259 
Q 3253 1453 3087 958 
Q 2922 463 2592 192 
Q 2263 -78 1759 -78 
Q 1097 -78 719 397 
Q 266 969 266 2259 
z
M 844 2259 
Q 844 1131 1108 757 
Q 1372 384 1759 384 
Q 2147 384 2411 759 
Q 2675 1134 2675 2259 
Q 2675 3391 2411 3762 
Q 2147 4134 1753 4134 
Q 1366 4134 1134 3806 
Q 844 3388 844 2259 
z
" transform="scale(0.015625)"/>
       </defs>
       <use xlink:href="#ArialMT-2212"/>
       <use xlink:href="#ArialMT-34" x="58.398438"/>
       <use xlink:href="#ArialMT-30" x="114.013672"/>
       <use xlink:href="#ArialMT-30" x="169.628906"/>
      </g>
     </g>
    </g>
    <g id="xtick_2">
     <g id="line2d_2">
      <path d="M 189.506156 450.72 
L 189.506156 7.2 
" clip-path="url(#p422db73b88)" style="fill: none; stroke: #ffffff; stroke-linecap: round"/>
     </g>
     <g id="text_2">
      <!-- −200 -->
      <g style="fill: #262626" transform="translate(177.118266 468.093594) scale(0.11 -0.11)">
       <defs>
        <path id="ArialMT-32" d="M 3222 541 
L 3222 0 
L 194 0 
Q 188 203 259 391 
Q 375 700 629 1000 
Q 884 1300 1366 1694 
Q 2113 2306 2375 2664 
Q 2638 3022 2638 3341 
Q 2638 3675 2398 3904 
Q 2159 4134 1775 4134 
Q 1369 4134 1125 3890 
Q 881 3647 878 3216 
L 300 3275 
Q 359 3922 746 4261 
Q 1134 4600 1788 4600 
Q 2447 4600 2831 4234 
Q 3216 3869 3216 3328 
Q 3216 3053 3103 2787 
Q 2991 2522 2730 2228 
Q 2469 1934 1863 1422 
Q 1356 997 1212 845 
Q 1069 694 975 541 
L 3222 541 
z
" transform="scale(0.015625)"/>
       </defs>
       <use xlink:href="#ArialMT-2212"/>
       <use xlink:href="#ArialMT-32" x="58.398438"/>
       <use xlink:href="#ArialMT-30" x="114.013672"/>
       <use xlink:href="#ArialMT-30" x="169.628906"/>
      </g>
     </g>
    </g>
    <g id="xtick_3">
     <g id="line2d_3">
      <path d="M 278.210156 450.72 
L 278.210156 7.2 
" clip-path="url(#p422db73b88)" style="fill: none; stroke: #ffffff; stroke-linecap: round"/>
     </g>
     <g id="text_3">
      <!-- 0 -->
      <g style="fill: #262626" transform="translate(275.151641 468.093594) scale(0.11 -0.11)">
       <use xlink:href="#ArialMT-30"/>
      </g>
     </g>
    </g>
    <g id="xtick_4">
     <g id="line2d_4">
      <path d="M 366.914156 450.72 
L 366.914156 7.2 
" clip-path="url(#p422db73b88)" style="fill: none; stroke: #ffffff; stroke-linecap: round"/>
     </g>
     <g id="text_4">
      <!-- 200 -->
      <g style="fill: #262626" transform="translate(357.738609 468.093594) scale(0.11 -0.11)">
       <use xlink:href="#ArialMT-32"/>
       <use xlink:href="#ArialMT-30" x="55.615234"/>
       <use xlink:href="#ArialMT-30" x="111.230469"/>
      </g>
     </g>
    </g>
    <g id="xtick_5">
     <g id="line2d_5">
      <path d="M 455.618156 450.72 
L 455.618156 7.2 
" clip-path="url(#p422db73b88)" style="fill: none; stroke: #ffffff; stroke-linecap: round"/>
     </g>
     <g id="text_5">
      <!-- 400 -->
      <g style="fill: #262626" transform="translate(446.442609 468.093594) scale(0.11 -0.11)">
       <use xlink:href="#ArialMT-34"/>
       <use xlink:href="#ArialMT-30" x="55.615234"/>
       <use xlink:href="#ArialMT-30" x="111.230469"/>
      </g>
     </g>
    </g>
    <g id="text_6">
     <!-- x -->
     <g style="fill: #262626" transform="translate(275.210156 482.869219) scale(0.12 -0.12)">
      <defs>
       <path id="ArialMT-78" d="M 47 0 
L 1259 1725 
L 138 3319 
L 841 3319 
L 1350 2541 
Q 1494 2319 1581 2169 
Q 1719 2375 1834 2534 
L 2394 3319 
L 3066 3319 
L 1919 1756 
L 3153 0 
L 2463 0 
L 1781 1031 
L 1600 1309 
L 728 0 
L 47 0 
z
" transform="scale(0.015625)"/>
      </defs>
      <use xlink:href="#ArialMT-78"/>
     </g>
    </g>
   </g>
   <g id="matplotlib.axis_2">
    <g id="ytick_1">
     <g id="line2d_6">
      <path d="M 56.450156 406.368 
L 499.970156 406.368 
" clip-path="url(#p422db73b88)" style="fill: none; stroke: #ffffff; stroke-linecap: round"/>
     </g>
     <g id="text_7">
      <!-- −400 -->
      <g style="fill: #262626" transform="translate(22.174375 410.304797) scale(0.11 -0.11)">
       <use xlink:href="#ArialMT-2212"/>
       <use xlink:href="#ArialMT-34" x="58.398438"/>
       <use xlink:href="#ArialMT-30" x="114.013672"/>
       <use xlink:href="#ArialMT-30" x="169.628906"/>
      </g>
     </g>
    </g>
    <g id="ytick_2">
     <g id="line2d_7">
      <path d="M 56.450156 317.664 
L 499.970156 317.664 
" clip-path="url(#p422db73b88)" style="fill: none; stroke: #ffffff; stroke-linecap: round"/>
     </g>
     <g id="text_8">
      <!-- −200 -->
      <g style="fill: #262626" transform="translate(22.174375 321.600797) scale(0.11 -0.11)">
       <use xlink:href="#ArialMT-2212"/>
       <use xlink:href="#ArialMT-32" x="58.398438"/>
       <use xlink:href="#ArialMT-30" x="114.013672"/>
       <use xlink:href="#ArialMT-30" x="169.628906"/>
      </g>
     </g>
    </g>
    <g id="ytick_3">
     <g id="line2d_8">
      <path d="M 56.450156 228.96 
L 499.970156 228.96 
" clip-path="url(#p422db73b88)" style="fill: none; stroke: #ffffff; stroke-linecap: round"/>
     </g>
     <g id="text_9">
      <!-- 0 -->
      <g style="fill: #262626" transform="translate(40.833125 232.896797) scale(0.11 -0.11)">
       <use xlink:href="#ArialMT-30"/>
      </g>
     </g>
    </g>
    <g id="ytick_4">
     <g id="line2d_9">
      <path d="M 56.450156 140.256 
L 499.970156 140.256 
" clip-path="url(#p422db73b88)" style="fill: none; stroke: #ffffff; stroke-linecap: round"/>
     </g>
     <g id="text_10">
      <!-- 200 -->
      <g style="fill: #262626" transform="translate(28.599063 144.192797) scale(0.11 -0.11)">
       <use xlink:href="#ArialMT-32"/>
       <use xlink:href="#ArialMT-30" x="55.615234"/>
       <use xlink:href="#ArialMT-30" x="111.230469"/>
      </g>
     </g>
    </g>
    <g id="ytick_5">
     <g id="line2d_10">
      <path d="M 56.450156 51.552 
L 499.970156 51.552 
" clip-path="url(#p422db73b88)" style="fill: none; stroke: #ffffff; stroke-linecap: round"/>
     </g>
     <g id="text_11">
      <!-- 400 -->
      <g style="fill: #262626" transform="translate(28.599063 55.488797) scale(0.11 -0.11)">
       <use xlink:href="#ArialMT-34"/>
       <use xlink:href="#ArialMT-30" x="55.615234"/>
       <use xlink:href="#ArialMT-30" x="111.230469"/>
      </g>
     </g>
    </g>
    <g id="text_12">
     <!-- y -->
     <g style="fill: #262626" transform="translate(15.64875 231.96) rotate(-90) scale(0.12 -0.12)">
      <defs>
       <path id="ArialMT-79" d="M 397 -1278 
L 334 -750 
Q 519 -800 656 -800 
Q 844 -800 956 -737 
Q 1069 -675 1141 -563 
Q 1194 -478 1313 -144 
Q 1328 -97 1363 -6 
L 103 3319 
L 709 3319 
L 1400 1397 
Q 1534 1031 1641 628 
Q 1738 1016 1872 1384 
L 2581 3319 
L 3144 3319 
L 1881 -56 
Q 1678 -603 1566 -809 
Q 1416 -1088 1222 -1217 
Q 1028 -1347 759 -1347 
Q 597 -1347 397 -1278 
z
" transform="scale(0.015625)"/>
      </defs>
      <use xlink:href="#ArialMT-79"/>
     </g>
    </g>
   </g>
   <g id="patch_3">
    <path d="M 278.210156 317.664 
C 301.734732 317.664 324.298969 308.317587 340.933356 291.6832 
C 357.567743 275.048813 366.914156 252.484576 366.914156 228.96 
C 366.914156 205.435424 357.567743 182.871187 340.933356 166.2368 
C 324.298969 149.602413 301.734732 140.256 278.210156 140.256 
C 254.68558 140.256 232.121343 149.602413 215.486956 166.2368 
C 198.852569 182.871187 189.506156 205.435424 189.506156 228.96 
C 189.506156 252.484576 198.852569 275.048813 215.486956 291.6832 
C 232.121343 308.317587 254.68558 317.664 278.210156 317.664 
z
" clip-path="url(#p422db73b88)" style="fill: #228b22; opacity: 0.12; stroke: #228b22; stroke-width: 1.5; stroke-linejoin: miter"/>
   </g>
   <g id="PathCollection_1">
    <defs>
     <path id="mc8fb32910b" d="M 0 2.236068 
C 0.593012 2.236068 1.161816 2.000462 1.581139 1.581139 
C 2.000462 1.161816 2.236068 0.593012 2.236068 0 
C 2.236068 -0.593012 2.000462 -1.161816 1.581139 -1.581139 
C 1.161816 -2.000462 0.593012 -2.236068 0 -2.236068 
C -0.593012 -2.236068 -1.161816 -2.000462 -1.581139 -1.581139 
C -2.000462 -1.161816 -2.236068 -0.593012 -2.236068 0 
C -2.236068 0.593012 -2.000462 1.161816 -1.581139 1.581139 
C -1.161816 2.000462 -0.593012 2.236068 0 2.236068 
z
" style="stroke: #4169e1"/>
    </defs>
    <g clip-path="url(#p422db73b88)">
     <use xlink:href="#mc8fb32910b" x="206.863025" y="189.533163" style="fill: #4169e1; stroke: #4169e1"/>
     <use xlink:href="#mc8fb32910b" x="400.914618" y="191.652396" style="fill: #4169e1; stroke: #4169e1"/>
     <use xlink:href="#mc8fb32910b" x="356.93612" y="153.64857" style="fill: #4169e1; stroke: #4169e1"/>
     <use xlink:href="#mc8fb32910b" x="340.47957" y="328.954824" style="fill: #4169e1; stroke: #4169e1"/>
     <use xlink:href="#mc8fb32910b" x="210.900291" y="225.639896" style="fill: #4169e1; stroke: #4169e1"/>
     <use xlink:href="#mc8fb32910b" x="349.688044" y="252.397219" style="fill: #4169e1; stroke: #4169e1"/>
     <use xlink:href="#mc8fb32910b" x="229.161366" y="138.004988" style="fill: #4169e1; stroke: #4169e1"/>
     <use xlink:href="#mc8fb32910b" x="301.92389" y="276.588168" style="fill: #4169e1; stroke: #4169e1"/>
     <use xlink:href="#mc8fb32910b" x="400.633926" y="179.122238" style="fill: #4169e1; stroke: #4169e1"/>
     <use xlink:href="#mc8fb32910b" x="209.789339" y="100.822865" style="fill: #4169e1; stroke: #4169e1"/>
     <use xlink:href="#mc8fb32910b" x="294.495086" y="300.466873" style="fill: #4169e1; stroke: #4169e1"/>
     <use xlink:href="#mc8fb32910b" x="218.097759" y="291.282025" style="fill: #4169e1; stroke: #4169e1"/>
     <use xlink:href="#mc8fb32910b" x="294.385428" y="317.854852" style="fill: #4169e1; stroke: #4169e1"/>
     <use xlink:href="#mc8fb32910b" x="283.761643" y="165.651689" style="fill: #4169e1; stroke: #4169e1"/>
     <use xlink:href="#mc8fb32910b" x="172.177495" y="218.017745" style="fill: #4169e1; stroke: #4169e1"/>
     <use xlink:href="#mc8fb32910b" x="287.198512" y="251.517482" style="fill: #4169e1; stroke: #4169e1"/>
     <use xlink:href="#mc8fb32910b" x="324.826263" y="149.836326" style="fill: #4169e1; stroke: #4169e1"/>
     <use xlink:href="#mc8fb32910b" x="369.487914" y="207.76675" style="fill: #4169e1; stroke: #4169e1"/>
     <use xlink:href="#mc8fb32910b" x="290.688632" y="165.50894" style="fill: #4169e1; stroke: #4169e1"/>
     <use xlink:href="#mc8fb32910b" x="353.98574" y="278.633915" style="fill: #4169e1; stroke: #4169e1"/>
     <use xlink:href="#mc8fb32910b" x="412.332984" y="179.087006" style="fill: #4169e1; stroke: #4169e1"/>
     <use xlink:href="#mc8fb32910b" x="192.933468" y="113.484787" style="fill: #4169e1; stroke: #4169e1"/>
     <use xlink:href="#mc8fb32910b" x="244.255853" y="277.811698" style="fill: #4169e1; stroke: #4169e1"/>
     <use xlink:href="#mc8fb32910b" x="377.49023" y="243.648429" style="fill: #4169e1; stroke: #4169e1"/>
     <use xlink:href="#mc8fb32910b" x="207.853744" y="321.420547" style="fill: #4169e1; stroke: #4169e1"/>
     <use xlink:href="#mc8fb32910b" x="350.119443" y="79.368939" style="fill: #4169e1; stroke: #4169e1"/>
     <use xlink:href="#mc8fb32910b" x="378.902061" y="175.721872" style="fill: #4169e1; stroke: #4169e1"/>
     <use xlink:href="#mc8fb32910b" x="331.160554" y="239.668819" style="fill: #4169e1; stroke: #4169e1"/>
     <use xlink:href="#mc8fb32910b" x="222.697716" y="232.678752" style="fill: #4169e1; stroke: #4169e1"/>
     <use xlink:href="#mc8fb32910b" x="290.743389" y="152.331248" style="fill: #4169e1; stroke: #4169e1"/>
     <use xlink:href="#mc8fb32910b" x="298.149864" y="147.929121" style="fill: #4169e1; stroke: #4169e1"/>
     <use xlink:href="#mc8fb32910b" x="420.736746" y="198.808105" style="fill: #4169e1; stroke: #4169e1"/>
     <use xlink:href="#mc8fb32910b" x="274.308855" y="293.059807" style="fill: #4169e1; stroke: #4169e1"/>
     <use xlink:href="#mc8fb32910b" x="273.318968" y="101.637655" style="fill: #4169e1; stroke: #4169e1"/>
     <use xlink:href="#mc8fb32910b" x="277.597413" y="156.956143" style="fill: #4169e1; stroke: #4169e1"/>
     <use xlink:href="#mc8fb32910b" x="437.763092" y="297.987544" style="fill: #4169e1; stroke: #4169e1"/>
     <use xlink:href="#mc8fb32910b" x="346.343927" y="172.493396" style="fill: #4169e1; stroke: #4169e1"/>
     <use xlink:href="#mc8fb32910b" x="217.538385" y="281.801967" style="fill: #4169e1; stroke: #4169e1"/>
     <use xlink:href="#mc8fb32910b" x="239.702955" y="218.326203" style="fill: #4169e1; stroke: #4169e1"/>
     <use xlink:href="#mc8fb32910b" x="241.814483" y="239.71458" style="fill: #4169e1; stroke: #4169e1"/>
     <use xlink:href="#mc8fb32910b" x="241.699911" y="275.331056" style="fill: #4169e1; stroke: #4169e1"/>
     <use xlink:href="#mc8fb32910b" x="279.150382" y="197.700364" style="fill: #4169e1; stroke: #4169e1"/>
     <use xlink:href="#mc8fb32910b" x="170.967127" y="229.755974" style="fill: #4169e1; stroke: #4169e1"/>
     <use xlink:href="#mc8fb32910b" x="307.73892" y="321.023818" style="fill: #4169e1; stroke: #4169e1"/>
     <use xlink:href="#mc8fb32910b" x="279.44328" y="346.538373" style="fill: #4169e1; stroke: #4169e1"/>
     <use xlink:href="#mc8fb32910b" x="293.911966" y="135.724809" style="fill: #4169e1; stroke: #4169e1"/>
     <use xlink:href="#mc8fb32910b" x="374.5432" y="120.601776" style="fill: #4169e1; stroke: #4169e1"/>
     <use xlink:href="#mc8fb32910b" x="251.13793" y="165.076533" style="fill: #4169e1; stroke: #4169e1"/>
     <use xlink:href="#mc8fb32910b" x="264.677507" y="310.894466" style="fill: #4169e1; stroke: #4169e1"/>
     <use xlink:href="#mc8fb32910b" x="250.360242" y="154.222129" style="fill: #4169e1; stroke: #4169e1"/>
     <use xlink:href="#mc8fb32910b" x="306.751514" y="193.401131" style="fill: #4169e1; stroke: #4169e1"/>
     <use xlink:href="#mc8fb32910b" x="295.451902" y="150.933303" style="fill: #4169e1; stroke: #4169e1"/>
     <use xlink:href="#mc8fb32910b" x="303.951283" y="269.378227" style="fill: #4169e1; stroke: #4169e1"/>
     <use xlink:href="#mc8fb32910b" x="309.667084" y="328.80231" style="fill: #4169e1; stroke: #4169e1"/>
     <use xlink:href="#mc8fb32910b" x="405.826025" y="196.153353" style="fill: #4169e1; stroke: #4169e1"/>
     <use xlink:href="#mc8fb32910b" x="375.667423" y="315.737338" style="fill: #4169e1; stroke: #4169e1"/>
     <use xlink:href="#mc8fb32910b" x="210.915187" y="245.62914" style="fill: #4169e1; stroke: #4169e1"/>
     <use xlink:href="#mc8fb32910b" x="308.523262" y="298.166898" style="fill: #4169e1; stroke: #4169e1"/>
     <use xlink:href="#mc8fb32910b" x="262.751377" y="302.283027" style="fill: #4169e1; stroke: #4169e1"/>
     <use xlink:href="#mc8fb32910b" x="241.700382" y="270.362124" style="fill: #4169e1; stroke: #4169e1"/>
     <use xlink:href="#mc8fb32910b" x="331.943566" y="278.5477" style="fill: #4169e1; stroke: #4169e1"/>
     <use xlink:href="#mc8fb32910b" x="321.857925" y="302.570643" style="fill: #4169e1; stroke: #4169e1"/>
     <use xlink:href="#mc8fb32910b" x="415.799121" y="236.353202" style="fill: #4169e1; stroke: #4169e1"/>
     <use xlink:href="#mc8fb32910b" x="414.327078" y="220.318258" style="fill: #4169e1; stroke: #4169e1"/>
     <use xlink:href="#mc8fb32910b" x="317.523471" y="112.365349" style="fill: #4169e1; stroke: #4169e1"/>
     <use xlink:href="#mc8fb32910b" x="304.227576" y="248.485086" style="fill: #4169e1; stroke: #4169e1"/>
     <use xlink:href="#mc8fb32910b" x="427.350673" y="272.058242" style="fill: #4169e1; stroke: #4169e1"/>
     <use xlink:href="#mc8fb32910b" x="242.769497" y="303.264319" style="fill: #4169e1; stroke: #4169e1"/>
     <use xlink:href="#mc8fb32910b" x="255.890453" y="291.208319" style="fill: #4169e1; stroke: #4169e1"/>
     <use xlink:href="#mc8fb32910b" x="312.623728" y="294.565417" style="fill: #4169e1; stroke: #4169e1"/>
     <use xlink:href="#mc8fb32910b" x="204.090172" y="229.213368" style="fill: #4169e1; stroke: #4169e1"/>
     <use xlink:href="#mc8fb32910b" x="272.357408" y="206.314614" style="fill: #4169e1; stroke: #4169e1"/>
     <use xlink:href="#mc8fb32910b" x="371.81215" y="219.744717" style="fill: #4169e1; stroke: #4169e1"/>
     <use xlink:href="#mc8fb32910b" x="228.449636" y="289.341821" style="fill: #4169e1; stroke: #4169e1"/>
     <use xlink:href="#mc8fb32910b" x="327.014867" y="338.159306" style="fill: #4169e1; stroke: #4169e1"/>
     <use xlink:href="#mc8fb32910b" x="254.618639" y="218.033277" style="fill: #4169e1; stroke: #4169e1"/>
     <use xlink:href="#mc8fb32910b" x="235.233304" y="262.486494" style="fill: #4169e1; stroke: #4169e1"/>
     <use xlink:href="#mc8fb32910b" x="386.115413" y="263.8633" style="fill: #4169e1; stroke: #4169e1"/>
     <use xlink:href="#mc8fb32910b" x="351.886871" y="251.323986" style="fill: #4169e1; stroke: #4169e1"/>
     <use xlink:href="#mc8fb32910b" x="391.210188" y="204.695512" style="fill: #4169e1; stroke: #4169e1"/>
     <use xlink:href="#mc8fb32910b" x="382.091919" y="203.385977" style="fill: #4169e1; stroke: #4169e1"/>
     <use xlink:href="#mc8fb32910b" x="344.466133" y="164.050013" style="fill: #4169e1; stroke: #4169e1"/>
     <use xlink:href="#mc8fb32910b" x="335.606034" y="289.804148" style="fill: #4169e1; stroke: #4169e1"/>
     <use xlink:href="#mc8fb32910b" x="314.540563" y="301.913098" style="fill: #4169e1; stroke: #4169e1"/>
     <use xlink:href="#mc8fb32910b" x="223.546076" y="159.015855" style="fill: #4169e1; stroke: #4169e1"/>
     <use xlink:href="#mc8fb32910b" x="331.673567" y="81.614096" style="fill: #4169e1; stroke: #4169e1"/>
     <use xlink:href="#mc8fb32910b" x="282.437745" y="334.506871" style="fill: #4169e1; stroke: #4169e1"/>
     <use xlink:href="#mc8fb32910b" x="266.114134" y="94.861766" style="fill: #4169e1; stroke: #4169e1"/>
     <use xlink:href="#mc8fb32910b" x="393.490828" y="240.225432" style="fill: #4169e1; stroke: #4169e1"/>
     <use xlink:href="#mc8fb32910b" x="386.349869" y="248.849574" style="fill: #4169e1; stroke: #4169e1"/>
     <use xlink:href="#mc8fb32910b" x="274.755322" y="297.400822" style="fill: #4169e1; stroke: #4169e1"/>
     <use xlink:href="#mc8fb32910b" x="320.336384" y="314.745495" style="fill: #4169e1; stroke: #4169e1"/>
     <use xlink:href="#mc8fb32910b" x="350.696941" y="254.448156" style="fill: #4169e1; stroke: #4169e1"/>
     <use xlink:href="#mc8fb32910b" x="296.500616" y="259.140218" style="fill: #4169e1; stroke: #4169e1"/>
     <use xlink:href="#mc8fb32910b" x="349.408868" y="202.472708" style="fill: #4169e1; stroke: #4169e1"/>
     <use xlink:href="#mc8fb32910b" x="402.606634" y="62.299672" style="fill: #4169e1; stroke: #4169e1"/>
     <use xlink:href="#mc8fb32910b" x="281.795467" y="301.051409" style="fill: #4169e1; stroke: #4169e1"/>
     <use xlink:href="#mc8fb32910b" x="385.683919" y="88.705787" style="fill: #4169e1; stroke: #4169e1"/>
     <use xlink:href="#mc8fb32910b" x="374.06685" y="73.268373" style="fill: #4169e1; stroke: #4169e1"/>
     <use xlink:href="#mc8fb32910b" x="305.43595" y="228.589745" style="fill: #4169e1; stroke: #4169e1"/>
     <use xlink:href="#mc8fb32910b" x="361.10484" y="314.784274" style="fill: #4169e1; stroke: #4169e1"/>
     <use xlink:href="#mc8fb32910b" x="306.423514" y="270.272407" style="fill: #4169e1; stroke: #4169e1"/>
     <use xlink:href="#mc8fb32910b" x="413.159156" y="245.786084" style="fill: #4169e1; stroke: #4169e1"/>
     <use xlink:href="#mc8fb32910b" x="451.723388" y="238.980274" style="fill: #4169e1; stroke: #4169e1"/>
     <use xlink:href="#mc8fb32910b" x="350.63872" y="138.371778" style="fill: #4169e1; stroke: #4169e1"/>
     <use xlink:href="#mc8fb32910b" x="206.086046" y="236.460959" style="fill: #4169e1; stroke: #4169e1"/>
     <use xlink:href="#mc8fb32910b" x="402.083419" y="86.858766" style="fill: #4169e1; stroke: #4169e1"/>
     <use xlink:href="#mc8fb32910b" x="381.877299" y="267.492935" style="fill: #4169e1; stroke: #4169e1"/>
     <use xlink:href="#mc8fb32910b" x="350.330064" y="311.762056" style="fill: #4169e1; stroke: #4169e1"/>
     <use xlink:href="#mc8fb32910b" x="407.819537" y="200.898168" style="fill: #4169e1; stroke: #4169e1"/>
     <use xlink:href="#mc8fb32910b" x="228.625502" y="244.318748" style="fill: #4169e1; stroke: #4169e1"/>
     <use xlink:href="#mc8fb32910b" x="236.270987" y="271.797748" style="fill: #4169e1; stroke: #4169e1"/>
     <use xlink:href="#mc8fb32910b" x="322.556319" y="264.792949" style="fill: #4169e1; stroke: #4169e1"/>
     <use xlink:href="#mc8fb32910b" x="237.815514" y="241.050974" style="fill: #4169e1; stroke: #4169e1"/>
     <use xlink:href="#mc8fb32910b" x="333.2865" y="189.225427" style="fill: #4169e1; stroke: #4169e1"/>
     <use xlink:href="#mc8fb32910b" x="243.644616" y="275.415384" style="fill: #4169e1; stroke: #4169e1"/>
     <use xlink:href="#mc8fb32910b" x="392.160674" y="66.887102" style="fill: #4169e1; stroke: #4169e1"/>
     <use xlink:href="#mc8fb32910b" x="344.382919" y="119.103853" style="fill: #4169e1; stroke: #4169e1"/>
     <use xlink:href="#mc8fb32910b" x="286.732157" y="301.419985" style="fill: #4169e1; stroke: #4169e1"/>
     <use xlink:href="#mc8fb32910b" x="204.116647" y="141.80315" style="fill: #4169e1; stroke: #4169e1"/>
     <use xlink:href="#mc8fb32910b" x="245.220771" y="228.543361" style="fill: #4169e1; stroke: #4169e1"/>
     <use xlink:href="#mc8fb32910b" x="296.657889" y="330.906939" style="fill: #4169e1; stroke: #4169e1"/>
     <use xlink:href="#mc8fb32910b" x="273.60733" y="124.237711" style="fill: #4169e1; stroke: #4169e1"/>
     <use xlink:href="#mc8fb32910b" x="232.814132" y="237.972118" style="fill: #4169e1; stroke: #4169e1"/>
     <use xlink:href="#mc8fb32910b" x="262.857511" y="175.884731" style="fill: #4169e1; stroke: #4169e1"/>
     <use xlink:href="#mc8fb32910b" x="422.740436" y="184.631771" style="fill: #4169e1; stroke: #4169e1"/>
     <use xlink:href="#mc8fb32910b" x="408.102354" y="179.839074" style="fill: #4169e1; stroke: #4169e1"/>
     <use xlink:href="#mc8fb32910b" x="219.42365" y="215.761006" style="fill: #4169e1; stroke: #4169e1"/>
     <use xlink:href="#mc8fb32910b" x="352.912673" y="272.18931" style="fill: #4169e1; stroke: #4169e1"/>
     <use xlink:href="#mc8fb32910b" x="303.347225" y="272.499248" style="fill: #4169e1; stroke: #4169e1"/>
     <use xlink:href="#mc8fb32910b" x="304.177758" y="170.935063" style="fill: #4169e1; stroke: #4169e1"/>
     <use xlink:href="#mc8fb32910b" x="330.378279" y="306.107278" style="fill: #4169e1; stroke: #4169e1"/>
     <use xlink:href="#mc8fb32910b" x="168.186004" y="204.401449" style="fill: #4169e1; stroke: #4169e1"/>
     <use xlink:href="#mc8fb32910b" x="174.793117" y="166.303995" style="fill: #4169e1; stroke: #4169e1"/>
     <use xlink:href="#mc8fb32910b" x="250.537497" y="294.305792" style="fill: #4169e1; stroke: #4169e1"/>
     <use xlink:href="#mc8fb32910b" x="247.707507" y="240.662745" style="fill: #4169e1; stroke: #4169e1"/>
     <use xlink:href="#mc8fb32910b" x="243.041767" y="245.245175" style="fill: #4169e1; stroke: #4169e1"/>
     <use xlink:href="#mc8fb32910b" x="310.894236" y="288.952374" style="fill: #4169e1; stroke: #4169e1"/>
     <use xlink:href="#mc8fb32910b" x="304.983765" y="100.415958" style="fill: #4169e1; stroke: #4169e1"/>
     <use xlink:href="#mc8fb32910b" x="214.77588" y="268.487231" style="fill: #4169e1; stroke: #4169e1"/>
     <use xlink:href="#mc8fb32910b" x="324.288809" y="88.448227" style="fill: #4169e1; stroke: #4169e1"/>
     <use xlink:href="#mc8fb32910b" x="197.177957" y="251.812758" style="fill: #4169e1; stroke: #4169e1"/>
     <use xlink:href="#mc8fb32910b" x="251.189127" y="207.03234" style="fill: #4169e1; stroke: #4169e1"/>
     <use xlink:href="#mc8fb32910b" x="235.710547" y="279.530288" style="fill: #4169e1; stroke: #4169e1"/>
     <use xlink:href="#mc8fb32910b" x="277.126675" y="276.361048" style="fill: #4169e1; stroke: #4169e1"/>
     <use xlink:href="#mc8fb32910b" x="212.744111" y="291.216521" style="fill: #4169e1; stroke: #4169e1"/>
     <use xlink:href="#mc8fb32910b" x="314.395425" y="296.596719" style="fill: #4169e1; stroke: #4169e1"/>
     <use xlink:href="#mc8fb32910b" x="343.405289" y="330.973234" style="fill: #4169e1; stroke: #4169e1"/>
     <use xlink:href="#mc8fb32910b" x="298.790871" y="327.084178" style="fill: #4169e1; stroke: #4169e1"/>
     <use xlink:href="#mc8fb32910b" x="249.556342" y="267.47339" style="fill: #4169e1; stroke: #4169e1"/>
     <use xlink:href="#mc8fb32910b" x="284.929207" y="284.011615" style="fill: #4169e1; stroke: #4169e1"/>
     <use xlink:href="#mc8fb32910b" x="234.093465" y="127.328897" style="fill: #4169e1; stroke: #4169e1"/>
     <use xlink:href="#mc8fb32910b" x="357.81418" y="300.952562" style="fill: #4169e1; stroke: #4169e1"/>
     <use xlink:href="#mc8fb32910b" x="376.639051" y="162.181085" style="fill: #4169e1; stroke: #4169e1"/>
    </g>
   </g>
   <g id="PathCollection_2">
    <defs>
     <path id="m6c123b63b6" d="M 0 2.5 
C 0.663008 2.5 1.29895 2.236584 1.767767 1.767767 
C 2.236584 1.29895 2.5 0.663008 2.5 0 
C 2.5 -0.663008 2.236584 -1.29895 1.767767 -1.767767 
C 1.29895 -2.236584 0.663008 -2.5 0 -2.5 
C -0.663008 -2.5 -1.29895 -2.236584 -1.767767 -1.767767 
C -2.236584 -1.29895 -2.5 -0.663008 -2.5 0 
C -2.5 0.663008 -2.236584 1.29895 -1.767767 1.767767 
C -1.29895 2.236584 -0.663008 2.5 0 2.5 
z
" style="stroke: #b22222"/>
    </defs>
    <g clip-path="url(#p422db73b88)">
     <use xlink:href="#m6c123b63b6" x="237.858022" y="196.397453" style="fill: #b22222; stroke: #b22222"/>
     <use xlink:href="#m6c123b63b6" x="264.841468" y="194.218174" style="fill: #b22222; stroke: #b22222"/>
     <use xlink:href="#m6c123b63b6" x="298.63166" y="225.158738" style="fill: #b22222; stroke: #b22222"/>
     <use xlink:href="#m6c123b63b6" x="296.216496" y="194.510929" style="fill: #b22222; stroke: #b22222"/>
     <use xlink:href="#m6c123b63b6" x="301.70023" y="200.770344" style="fill: #b22222; stroke: #b22222"/>
     <use xlink:href="#m6c123b63b6" x="283.620955" y="196.707212" style="fill: #b22222; stroke: #b22222"/>
     <use xlink:href="#m6c123b63b6" x="290.771617" y="251.121299" style="fill: #b22222; stroke: #b22222"/>
     <use xlink:href="#m6c123b63b6" x="289.466789" y="242.365946" style="fill: #b22222; stroke: #b22222"/>
     <use xlink:href="#m6c123b63b6" x="300.433551" y="207.265821" style="fill: #b22222; stroke: #b22222"/>
     <use xlink:href="#m6c123b63b6" x="320.738507" y="209.920265" style="fill: #b22222; stroke: #b22222"/>
     <use xlink:href="#m6c123b63b6" x="288.051092" y="193.578567" style="fill: #b22222; stroke: #b22222"/>
     <use xlink:href="#m6c123b63b6" x="300.93912" y="188.163117" style="fill: #b22222; stroke: #b22222"/>
     <use xlink:href="#m6c123b63b6" x="306.421418" y="216.028778" style="fill: #b22222; stroke: #b22222"/>
     <use xlink:href="#m6c123b63b6" x="248.80106" y="199.984039" style="fill: #b22222; stroke: #b22222"/>
     <use xlink:href="#m6c123b63b6" x="326.337825" y="230.092973" style="fill: #b22222; stroke: #b22222"/>
     <use xlink:href="#m6c123b63b6" x="298.975823" y="179.825248" style="fill: #b22222; stroke: #b22222"/>
     <use xlink:href="#m6c123b63b6" x="247.705613" y="196.525116" style="fill: #b22222; stroke: #b22222"/>
     <use xlink:href="#m6c123b63b6" x="246.826934" y="188.447572" style="fill: #b22222; stroke: #b22222"/>
     <use xlink:href="#m6c123b63b6" x="317.513194" y="227.728604" style="fill: #b22222; stroke: #b22222"/>
     <use xlink:href="#m6c123b63b6" x="298.30955" y="194.35359" style="fill: #b22222; stroke: #b22222"/>
     <use xlink:href="#m6c123b63b6" x="321.884583" y="214.334551" style="fill: #b22222; stroke: #b22222"/>
     <use xlink:href="#m6c123b63b6" x="292.252603" y="192.036913" style="fill: #b22222; stroke: #b22222"/>
     <use xlink:href="#m6c123b63b6" x="308.318025" y="214.531696" style="fill: #b22222; stroke: #b22222"/>
     <use xlink:href="#m6c123b63b6" x="317.903728" y="225.670581" style="fill: #b22222; stroke: #b22222"/>
     <use xlink:href="#m6c123b63b6" x="301.491826" y="207.007748" style="fill: #b22222; stroke: #b22222"/>
     <use xlink:href="#m6c123b63b6" x="269.694772" y="182.455941" style="fill: #b22222; stroke: #b22222"/>
     <use xlink:href="#m6c123b63b6" x="242.698292" y="199.85333" style="fill: #b22222; stroke: #b22222"/>
     <use xlink:href="#m6c123b63b6" x="300.487641" y="222.024623" style="fill: #b22222; stroke: #b22222"/>
     <use xlink:href="#m6c123b63b6" x="286.197435" y="177.861824" style="fill: #b22222; stroke: #b22222"/>
     <use xlink:href="#m6c123b63b6" x="294.34029" y="261.056055" style="fill: #b22222; stroke: #b22222"/>
     <use xlink:href="#m6c123b63b6" x="233.503806" y="197.661339" style="fill: #b22222; stroke: #b22222"/>
     <use xlink:href="#m6c123b63b6" x="299.711725" y="202.151618" style="fill: #b22222; stroke: #b22222"/>
     <use xlink:href="#m6c123b63b6" x="244.748076" y="205.141096" style="fill: #b22222; stroke: #b22222"/>
     <use xlink:href="#m6c123b63b6" x="240.745727" y="181.508832" style="fill: #b22222; stroke: #b22222"/>
     <use xlink:href="#m6c123b63b6" x="313.308606" y="221.477552" style="fill: #b22222; stroke: #b22222"/>
     <use xlink:href="#m6c123b63b6" x="281.775884" y="187.57178" style="fill: #b22222; stroke: #b22222"/>
     <use xlink:href="#m6c123b63b6" x="332.965423" y="227.48257" style="fill: #b22222; stroke: #b22222"/>
     <use xlink:href="#m6c123b63b6" x="286.223283" y="178.563663" style="fill: #b22222; stroke: #b22222"/>
     <use xlink:href="#m6c123b63b6" x="280.070237" y="178.787054" style="fill: #b22222; stroke: #b22222"/>
     <use xlink:href="#m6c123b63b6" x="254.655345" y="187.398178" style="fill: #b22222; stroke: #b22222"/>
     <use xlink:href="#m6c123b63b6" x="298.625063" y="228.707145" style="fill: #b22222; stroke: #b22222"/>
     <use xlink:href="#m6c123b63b6" x="320.062166" y="215.746825" style="fill: #b22222; stroke: #b22222"/>
     <use xlink:href="#m6c123b63b6" x="280.789866" y="251.959059" style="fill: #b22222; stroke: #b22222"/>
     <use xlink:href="#m6c123b63b6" x="316.295599" y="219.69345" style="fill: #b22222; stroke: #b22222"/>
     <use xlink:href="#m6c123b63b6" x="328.9389" y="252.891591" style="fill: #b22222; stroke: #b22222"/>
     <use xlink:href="#m6c123b63b6" x="334.029621" y="234.363945" style="fill: #b22222; stroke: #b22222"/>
     <use xlink:href="#m6c123b63b6" x="310.176087" y="222.292159" style="fill: #b22222; stroke: #b22222"/>
     <use xlink:href="#m6c123b63b6" x="302.646829" y="189.856747" style="fill: #b22222; stroke: #b22222"/>
     <use xlink:href="#m6c123b63b6" x="262.732467" y="183.64516" style="fill: #b22222; stroke: #b22222"/>
     <use xlink:href="#m6c123b63b6" x="337.814856" y="220.033001" style="fill: #b22222; stroke: #b22222"/>
     <use xlink:href="#m6c123b63b6" x="320.0202" y="221.398527" style="fill: #b22222; stroke: #b22222"/>
     <use xlink:href="#m6c123b63b6" x="250.569459" y="191.70698" style="fill: #b22222; stroke: #b22222"/>
     <use xlink:href="#m6c123b63b6" x="305.509548" y="231.709797" style="fill: #b22222; stroke: #b22222"/>
     <use xlink:href="#m6c123b63b6" x="286.139704" y="193.51821" style="fill: #b22222; stroke: #b22222"/>
     <use xlink:href="#m6c123b63b6" x="301.729018" y="195.126562" style="fill: #b22222; stroke: #b22222"/>
     <use xlink:href="#m6c123b63b6" x="229.547398" y="194.320023" style="fill: #b22222; stroke: #b22222"/>
     <use xlink:href="#m6c123b63b6" x="291.790008" y="194.848977" style="fill: #b22222; stroke: #b22222"/>
     <use xlink:href="#m6c123b63b6" x="293.264644" y="186.423186" style="fill: #b22222; stroke: #b22222"/>
     <use xlink:href="#m6c123b63b6" x="248.767385" y="206.812842" style="fill: #b22222; stroke: #b22222"/>
     <use xlink:href="#m6c123b63b6" x="296.365465" y="210.49938" style="fill: #b22222; stroke: #b22222"/>
     <use xlink:href="#m6c123b63b6" x="236.162825" y="211.823587" style="fill: #b22222; stroke: #b22222"/>
     <use xlink:href="#m6c123b63b6" x="329.277323" y="215.835787" style="fill: #b22222; stroke: #b22222"/>
     <use xlink:href="#m6c123b63b6" x="297.842503" y="235.547232" style="fill: #b22222; stroke: #b22222"/>
     <use xlink:href="#m6c123b63b6" x="265.94394" y="270.006485" style="fill: #b22222; stroke: #b22222"/>
     <use xlink:href="#m6c123b63b6" x="284.427425" y="198.861731" style="fill: #b22222; stroke: #b22222"/>
     <use xlink:href="#m6c123b63b6" x="304.801141" y="195.954197" style="fill: #b22222; stroke: #b22222"/>
     <use xlink:href="#m6c123b63b6" x="304.020706" y="199.489972" style="fill: #b22222; stroke: #b22222"/>
     <use xlink:href="#m6c123b63b6" x="281.358216" y="244.966403" style="fill: #b22222; stroke: #b22222"/>
     <use xlink:href="#m6c123b63b6" x="236.40799" y="208.494438" style="fill: #b22222; stroke: #b22222"/>
     <use xlink:href="#m6c123b63b6" x="242.589479" y="195.33207" style="fill: #b22222; stroke: #b22222"/>
     <use xlink:href="#m6c123b63b6" x="299.699956" y="190.471812" style="fill: #b22222; stroke: #b22222"/>
     <use xlink:href="#m6c123b63b6" x="238.358254" y="197.715076" style="fill: #b22222; stroke: #b22222"/>
     <use xlink:href="#m6c123b63b6" x="294.820121" y="176.605369" style="fill: #b22222; stroke: #b22222"/>
     <use xlink:href="#m6c123b63b6" x="289.719039" y="200.506834" style="fill: #b22222; stroke: #b22222"/>
     <use xlink:href="#m6c123b63b6" x="347.986749" y="266.546036" style="fill: #b22222; stroke: #b22222"/>
     <use xlink:href="#m6c123b63b6" x="300.859824" y="210.114565" style="fill: #b22222; stroke: #b22222"/>
     <use xlink:href="#m6c123b63b6" x="274.986866" y="200.649568" style="fill: #b22222; stroke: #b22222"/>
     <use xlink:href="#m6c123b63b6" x="239.545527" y="198.212023" style="fill: #b22222; stroke: #b22222"/>
     <use xlink:href="#m6c123b63b6" x="237.726568" y="226.201007" style="fill: #b22222; stroke: #b22222"/>
     <use xlink:href="#m6c123b63b6" x="298.369168" y="191.961309" style="fill: #b22222; stroke: #b22222"/>
     <use xlink:href="#m6c123b63b6" x="242.122269" y="194.027427" style="fill: #b22222; stroke: #b22222"/>
     <use xlink:href="#m6c123b63b6" x="296.475322" y="192.431114" style="fill: #b22222; stroke: #b22222"/>
     <use xlink:href="#m6c123b63b6" x="280.382721" y="162.107346" style="fill: #b22222; stroke: #b22222"/>
     <use xlink:href="#m6c123b63b6" x="287.506783" y="202.137648" style="fill: #b22222; stroke: #b22222"/>
     <use xlink:href="#m6c123b63b6" x="306.446646" y="214.622082" style="fill: #b22222; stroke: #b22222"/>
     <use xlink:href="#m6c123b63b6" x="239.930782" y="199.203335" style="fill: #b22222; stroke: #b22222"/>
     <use xlink:href="#m6c123b63b6" x="250.046778" y="202.194849" style="fill: #b22222; stroke: #b22222"/>
     <use xlink:href="#m6c123b63b6" x="280.928324" y="177.32256" style="fill: #b22222; stroke: #b22222"/>
     <use xlink:href="#m6c123b63b6" x="291.13075" y="198.780869" style="fill: #b22222; stroke: #b22222"/>
     <use xlink:href="#m6c123b63b6" x="232.262618" y="195.435523" style="fill: #b22222; stroke: #b22222"/>
     <use xlink:href="#m6c123b63b6" x="259.715049" y="205.101611" style="fill: #b22222; stroke: #b22222"/>
     <use xlink:href="#m6c123b63b6" x="319.270284" y="239.576014" style="fill: #b22222; stroke: #b22222"/>
     <use xlink:href="#m6c123b63b6" x="242.396583" y="193.447411" style="fill: #b22222; stroke: #b22222"/>
     <use xlink:href="#m6c123b63b6" x="321.74375" y="223.131301" style="fill: #b22222; stroke: #b22222"/>
     <use xlink:href="#m6c123b63b6" x="241.965769" y="202.335627" style="fill: #b22222; stroke: #b22222"/>
     <use xlink:href="#m6c123b63b6" x="287.361857" y="199.858436" style="fill: #b22222; stroke: #b22222"/>
     <use xlink:href="#m6c123b63b6" x="303.719107" y="210.003058" style="fill: #b22222; stroke: #b22222"/>
     <use xlink:href="#m6c123b63b6" x="275.863289" y="271.457521" style="fill: #b22222; stroke: #b22222"/>
     <use xlink:href="#m6c123b63b6" x="247.669342" y="189.301322" style="fill: #b22222; stroke: #b22222"/>
    </g>
   </g>
   <g id="patch_4">
    <path d="M 56.450156 450.72 
L 56.450156 7.2 
" style="fill: none; stroke: #ffffff; stroke-width: 1.25; stroke-linejoin: miter; stroke-linecap: square"/>
   </g>
   <g id="patch_5">
    <path d="M 499.970156 450.72 
L 499.970156 7.2 
" style="fill: none; stroke: #ffffff; stroke-width: 1.25; stroke-linejoin: miter; stroke-linecap: square"/>
   </g>
   <g id="patch_6">
    <path d="M 56.450156 450.72 
L 499.970156 450.72 
" style="fill: none; stroke: #ffffff; stroke-width: 1.25; stroke-linejoin: miter; stroke-linecap: square"/>
   </g>
   <g id="patch_7">
    <path d="M 56.450156 7.2 
L 499.970156 7.2 
" style="fill: none; stroke: #ffffff; stroke-width: 1.25; stroke-linejoin: miter; stroke-linecap: square"/>
   </g>
   <g id="text_13">
    <!-- t = 2000 -->
    <g style="fill: #262626" transform="translate(65.320556 24.659775) scale(0.12 -0.12)">
     <defs>
      <path id="ArialMT-74" d="M 1650 503 
L 1731 6 
Q 1494 -44 1306 -44 
Q 1000 -44 831 53 
Q 663 150 594 308 
Q 525 466 525 972 
L 525 2881 
L 113 2881 
L 113 3319 
L 525 3319 
L 525 4141 
L 1084 4478 
L 1084 3319 
L 1650 3319 
L 1650 2881 
L 1084 2881 
L 1084 941 
Q 1084 700 1114 631 
Q 1144 563 1211 522 
Q 1278 481 1403 481 
Q 1497 481 1650 503 
z
" transform="scale(0.015625)"/>
      <path id="ArialMT-20" transform="scale(0.015625)"/>
      <path id="ArialMT-3d" d="M 3381 2694 
L 356 2694 
L 356 3219 
L 3381 3219 
L 3381 2694 
z
M 3381 1303 
L 356 1303 
L 356 1828 
L 3381 1828 
L 3381 1303 
z
" transform="scale(0.015625)"/>
     </defs>
     <use xlink:href="#ArialMT-74"/>
     <use xlink:href="#ArialMT-20" x="27.783203"/>
     <use xlink:href="#ArialMT-3d" x="55.566406"/>
     <use xlink:href="#ArialMT-20" x="113.964844"/>
     <use xlink:href="#ArialMT-32" x="141.748047"/>
     <use xlink:href="#ArialMT-30" x="197.363281"/>
     <use xlink:href="#ArialMT-30" x="252.978516"/>
     <use xlink:href="#ArialMT-30" x="308.59375"/>
    </g>
   </g>
   <g id="legend_1">
    <g id="patch_8">
     <path d="M 328.111406 94.59 
L 483.170156 94.59 
Q 487.970156 94.59 487.970156 89.79 
L 487.970156 24 
Q 487.970156 19.2 483.170156 19.2 
L 328.111406 19.2 
Q 323.311406 19.2 323.311406 24 
L 323.311406 89.79 
Q 323.311406 94.59 328.111406 94.59 
z
" style="fill: #eaeaf2; opacity: 0.8; stroke: #cccccc; stroke-linejoin: miter"/>
    </g>
    <g id="PathCollection_3">
     <g>
      <use xlink:href="#mc8fb32910b" x="356.911406" y="39.97125" style="fill: #4169e1; stroke: #4169e1"/>
     </g>
    </g>
    <g id="text_14">
     <!-- Sheep -->
     <g style="fill: #262626" transform="translate(400.111406 46.27125) scale(0.24 -0.24)">
      <defs>
       <path id="ArialMT-53" d="M 288 1472 
L 859 1522 
Q 900 1178 1048 958 
Q 1197 738 1509 602 
Q 1822 466 2213 466 
Q 2559 466 2825 569 
Q 3091 672 3220 851 
Q 3350 1031 3350 1244 
Q 3350 1459 3225 1620 
Q 3100 1781 2813 1891 
Q 2628 1963 1997 2114 
Q 1366 2266 1113 2400 
Q 784 2572 623 2826 
Q 463 3081 463 3397 
Q 463 3744 659 4045 
Q 856 4347 1234 4503 
Q 1613 4659 2075 4659 
Q 2584 4659 2973 4495 
Q 3363 4331 3572 4012 
Q 3781 3694 3797 3291 
L 3216 3247 
Q 3169 3681 2898 3903 
Q 2628 4125 2100 4125 
Q 1550 4125 1298 3923 
Q 1047 3722 1047 3438 
Q 1047 3191 1225 3031 
Q 1400 2872 2139 2705 
Q 2878 2538 3153 2413 
Q 3553 2228 3743 1945 
Q 3934 1663 3934 1294 
Q 3934 928 3725 604 
Q 3516 281 3123 101 
Q 2731 -78 2241 -78 
Q 1619 -78 1198 103 
Q 778 284 539 648 
Q 300 1013 288 1472 
z
" transform="scale(0.015625)"/>
       <path id="ArialMT-68" d="M 422 0 
L 422 4581 
L 984 4581 
L 984 2938 
Q 1378 3394 1978 3394 
Q 2347 3394 2619 3248 
Q 2891 3103 3008 2847 
Q 3125 2591 3125 2103 
L 3125 0 
L 2563 0 
L 2563 2103 
Q 2563 2525 2380 2717 
Q 2197 2909 1863 2909 
Q 1613 2909 1392 2779 
Q 1172 2650 1078 2428 
Q 984 2206 984 1816 
L 984 0 
L 422 0 
z
" transform="scale(0.015625)"/>
       <path id="ArialMT-65" d="M 2694 1069 
L 3275 997 
Q 3138 488 2766 206 
Q 2394 -75 1816 -75 
Q 1088 -75 661 373 
Q 234 822 234 1631 
Q 234 2469 665 2931 
Q 1097 3394 1784 3394 
Q 2450 3394 2872 2941 
Q 3294 2488 3294 1666 
Q 3294 1616 3291 1516 
L 816 1516 
Q 847 969 1125 678 
Q 1403 388 1819 388 
Q 2128 388 2347 550 
Q 2566 713 2694 1069 
z
M 847 1978 
L 2700 1978 
Q 2663 2397 2488 2606 
Q 2219 2931 1791 2931 
Q 1403 2931 1139 2672 
Q 875 2413 847 1978 
z
" transform="scale(0.015625)"/>
       <path id="ArialMT-70" d="M 422 -1272 
L 422 3319 
L 934 3319 
L 934 2888 
Q 1116 3141 1344 3267 
Q 1572 3394 1897 3394 
Q 2322 3394 2647 3175 
Q 2972 2956 3137 2557 
Q 3303 2159 3303 1684 
Q 3303 1175 3120 767 
Q 2938 359 2589 142 
Q 2241 -75 1856 -75 
Q 1575 -75 1351 44 
Q 1128 163 984 344 
L 984 -1272 
L 422 -1272 
z
M 931 1641 
Q 931 1000 1190 694 
Q 1450 388 1819 388 
Q 2194 388 2461 705 
Q 2728 1022 2728 1688 
Q 2728 2322 2467 2637 
Q 2206 2953 1844 2953 
Q 1484 2953 1207 2617 
Q 931 2281 931 1641 
z
" transform="scale(0.015625)"/>
      </defs>
      <use xlink:href="#ArialMT-53"/>
      <use xlink:href="#ArialMT-68" x="66.699219"/>
      <use xlink:href="#ArialMT-65" x="122.314453"/>
      <use xlink:href="#ArialMT-65" x="177.929688"/>
      <use xlink:href="#ArialMT-70" x="233.544922"/>
     </g>
    </g>
    <g id="PathCollection_4">
     <g>
      <use xlink:href="#m6c123b63b6" x="356.911406" y="73.92" style="fill: #b22222; stroke: #b22222"/>
     </g>
    </g>
    <g id="text_15">
     <!-- Wolves -->
     <g style="fill: #262626" transform="translate(400.111406 80.22) scale(0.24 -0.24)">
      <defs>
       <path id="ArialMT-57" d="M 1294 0 
L 78 4581 
L 700 4581 
L 1397 1578 
Q 1509 1106 1591 641 
Q 1766 1375 1797 1488 
L 2669 4581 
L 3400 4581 
L 4056 2263 
Q 4303 1400 4413 641 
Q 4500 1075 4641 1638 
L 5359 4581 
L 5969 4581 
L 4713 0 
L 4128 0 
L 3163 3491 
Q 3041 3928 3019 4028 
Q 2947 3713 2884 3491 
L 1913 0 
L 1294 0 
z
" transform="scale(0.015625)"/>
       <path id="ArialMT-6f" d="M 213 1659 
Q 213 2581 725 3025 
Q 1153 3394 1769 3394 
Q 2453 3394 2887 2945 
Q 3322 2497 3322 1706 
Q 3322 1066 3130 698 
Q 2938 331 2570 128 
Q 2203 -75 1769 -75 
Q 1072 -75 642 372 
Q 213 819 213 1659 
z
M 791 1659 
Q 791 1022 1069 705 
Q 1347 388 1769 388 
Q 2188 388 2466 706 
Q 2744 1025 2744 1678 
Q 2744 2294 2464 2611 
Q 2184 2928 1769 2928 
Q 1347 2928 1069 2612 
Q 791 2297 791 1659 
z
" transform="scale(0.015625)"/>
       <path id="ArialMT-6c" d="M 409 0 
L 409 4581 
L 972 4581 
L 972 0 
L 409 0 
z
" transform="scale(0.015625)"/>
       <path id="ArialMT-76" d="M 1344 0 
L 81 3319 
L 675 3319 
L 1388 1331 
Q 1503 1009 1600 663 
Q 1675 925 1809 1294 
L 2547 3319 
L 3125 3319 
L 1869 0 
L 1344 0 
z
" transform="scale(0.015625)"/>
       <path id="ArialMT-73" d="M 197 991 
L 753 1078 
Q 800 744 1014 566 
Q 1228 388 1613 388 
Q 2000 388 2187 545 
Q 2375 703 2375 916 
Q 2375 1106 2209 1216 
Q 2094 1291 1634 1406 
Q 1016 1563 777 1677 
Q 538 1791 414 1992 
Q 291 2194 291 2438 
Q 291 2659 392 2848 
Q 494 3038 669 3163 
Q 800 3259 1026 3326 
Q 1253 3394 1513 3394 
Q 1903 3394 2198 3281 
Q 2494 3169 2634 2976 
Q 2775 2784 2828 2463 
L 2278 2388 
Q 2241 2644 2061 2787 
Q 1881 2931 1553 2931 
Q 1166 2931 1000 2803 
Q 834 2675 834 2503 
Q 834 2394 903 2306 
Q 972 2216 1119 2156 
Q 1203 2125 1616 2013 
Q 2213 1853 2448 1751 
Q 2684 1650 2818 1456 
Q 2953 1263 2953 975 
Q 2953 694 2789 445 
Q 2625 197 2315 61 
Q 2006 -75 1616 -75 
Q 969 -75 630 194 
Q 291 463 197 991 
z
" transform="scale(0.015625)"/>
      </defs>
      <use xlink:href="#ArialMT-57"/>
      <use xlink:href="#ArialMT-6f" x="92.634766"/>
      <use xlink:href="#ArialMT-6c" x="148.25"/>
      <use xlink:href="#ArialMT-76" x="170.466797"/>
      <use xlink:href="#ArialMT-65" x="220.466797"/>
      <use xlink:href="#ArialMT-73" x="276.082031"/>
     </g>
    </g>
   </g>
  </g>
 </g>
 <defs>
  <clipPath id="p422db73b88">
   <rect x="56.450156" y="7.2" width="443.52" height="443.52"/>
  </clipPath>
 </defs>
</svg>
