<?xml version="1.0" encoding="utf-8" standalone="no"?>
<!DOCTYPE svg PUBLIC "-//W3C//DTD SVG 1.1//EN"
  "http://www.w3.org/Graphics/SVG/1.1/DTD/svg11.dtd">
<svg xmlns:xlink="http://www.w3.org/1999/xlink" width="507.170156pt" height="492.454219pt" viewBox="0 0 507.170156 492.454219" xmlns="http://www.w3.org/2000/svg" version="1.1">
 <metadata>
  <rdf:RDF xmlns:dc="http://purl.org/dc/elements/1.1/" xmlns:cc="http://creativecommons.org/ns#" xmlns:rdf="http://www.w3.org/1999/02/22-rdf-syntax-ns#">
   <cc:Work>
    <dc:type rdf:resource="http://purl.org/dc/dcmitype/StillImage"/>
    <dc:date>2026-05-12T10:49:57.193068</dc:date>
    <dc:format>image/svg+xml</dc:format>
    <dc:creator>
     <cc:Agent>
      <dc:title>Matplotlib v3.7.1, https://matplotlib.org/</dc:title>
     </cc:Agent>
    </dc:creator>
   </cc:Work>
  </rdf:RDF>
 </metadata>
 <defs>
  <style type="text/css">*{stroke-linejoin: round; stroke-linecap: butt}</style>
 </defs>
 <g id="figure_1">
  <g id="patch_1">
   <path d="M 0 492.454219 
L 507.170156 492.454219 
L 507.170156 0 
L 0 0 
z
" style="fill: #ffffff"/>
  </g>
  <g id="axes_1">
   <g id="patch_2">
    <path d="M 56.450156 450.72 
L 499.970156 450.72 
L 499.970156 7.2 
L 56.450156 7.2 
z
" style="fill: #eaeaf2"/>
   </g>
   <g id="matplotlib.axis_1">
    <g id="xtick_1">
     <g id="line2d_1">
      <path d="M 100.802156 450.72 
L 100.802156 7.2 
" clip-path="url(#pba7ccb1c77)" style="fill: none; stroke: #ffffff; stroke-linecap: round"/>
     </g>
     <g id="text_1">
      <!-- −400 -->
      <g style="fill: #262626" transform="translate(88.414266 468.093594) scale(0.11 -0.11)">
       <defs>
        <path id="ArialMT-2212" d="M 3381 1997 
L 356 1997 
L 356 2522 
L 3381 2522 
L 3381 1997 
z
" transform="scale(0.015625)"/>
        <path id="ArialMT-34" d="M 2069 0 
L 2069 1097 
L 81 1097 
L 81 1613 
L 2172 4581 
L 2631 4581 
L 2631 1613 
L 3250 1613 
L 3250 1097 
L 2631 1097 
L 2631 0 
L 2069 0 
z
M 2069 1613 
L 2069 3678 
L 634 1613 
L 2069 1613 
z
" transform="scale(0.015625)"/>
        <path id="ArialMT-30" d="M 266 2259 
Q 266 3072 433 3567 
Q 600 4063 929 4331 
Q 1259 4600 1759 4600 
Q 2128 4600 2406 4451 
Q 2684 4303 2865 4023 
Q 3047 3744 3150 3342 
Q 3253 2941 3253 2259 
Q 3253 1453 3087 958 
Q 2922 463 2592 192 
Q 2263 -78 1759 -78 
Q 1097 -78 719 397 
Q 266 969 266 2259 
z
M 844 2259 
Q 844 1131 1108 757 
Q 1372 384 1759 384 
Q 2147 384 2411 759 
Q 2675 1134 2675 2259 
Q 2675 3391 2411 3762 
Q 2147 4134 1753 4134 
Q 1366 4134 1134 3806 
Q 844 3388 844 2259 
z
" transform="scale(0.015625)"/>
       </defs>
       <use xlink:href="#ArialMT-2212"/>
       <use xlink:href="#ArialMT-34" x="58.398438"/>
       <use xlink:href="#ArialMT-30" x="114.013672"/>
       <use xlink:href="#ArialMT-30" x="169.628906"/>
      </g>
     </g>
    </g>
    <g id="xtick_2">
     <g id="line2d_2">
      <path d="M 189.506156 450.72 
L 189.506156 7.2 
" clip-path="url(#pba7ccb1c77)" style="fill: none; stroke: #ffffff; stroke-linecap: round"/>
     </g>
     <g id="text_2">
      <!-- −200 -->
      <g style="fill: #262626" transform="translate(177.118266 468.093594) scale(0.11 -0.11)">
       <defs>
        <path id="ArialMT-32" d="M 3222 541 
L 3222 0 
L 194 0 
Q 188 203 259 391 
Q 375 700 629 1000 
Q 884 1300 1366 1694 
Q 2113 2306 2375 2664 
Q 2638 3022 2638 3341 
Q 2638 3675 2398 3904 
Q 2159 4134 1775 4134 
Q 1369 4134 1125 3890 
Q 881 3647 878 3216 
L 300 3275 
Q 359 3922 746 4261 
Q 1134 4600 1788 4600 
Q 2447 4600 2831 4234 
Q 3216 3869 3216 3328 
Q 3216 3053 3103 2787 
Q 2991 2522 2730 2228 
Q 2469 1934 1863 1422 
Q 1356 997 1212 845 
Q 1069 694 975 541 
L 3222 541 
z
" transform="scale(0.015625)"/>
       </defs>
       <use xlink:href="#ArialMT-2212"/>
       <use xlink:href="#ArialMT-32" x="58.398438"/>
       <use xlink:href="#ArialMT-30" x="114.013672"/>
       <use xlink:href="#ArialMT-30" x="169.628906"/>
      </g>
     </g>
    </g>
    <g id="xtick_3">
     <g id="line2d_3">
      <path d="M 278.210156 450.72 
L 278.210156 7.2 
" clip-path="url(#pba7ccb1c77)" style="fill: none; stroke: #ffffff; stroke-linecap: round"/>
     </g>
     <g id="text_3">
      <!-- 0 -->
      <g style="fill: #262626" transform="translate(275.151641 468.093594) scale(0.11 -0.11)">
       <use xlink:href="#ArialMT-30"/>
      </g>
     </g>
    </g>
    <g id="xtick_4">
     <g id="line2d_4">
      <path d="M 366.914156 450.72 
L 366.914156 7.2 
" clip-path="url(#pba7ccb1c77)" style="fill: none; stroke: #ffffff; stroke-linecap: round"/>
     </g>
     <g id="text_4">
      <!-- 200 -->
      <g style="fill: #262626" transform="translate(357.738609 468.093594) scale(0.11 -0.11)">
       <use xlink:href="#ArialMT-32"/>
       <use xlink:href="#ArialMT-30" x="55.615234"/>
       <use xlink:href="#ArialMT-30" x="111.230469"/>
      </g>
     </g>
    </g>
    <g id="xtick_5">
     <g id="line2d_5">
      <path d="M 455.618156 450.72 
L 455.618156 7.2 
" clip-path="url(#pba7ccb1c77)" style="fill: none; stroke: #ffffff; stroke-linecap: round"/>
     </g>
     <g id="text_5">
      <!-- 400 -->
      <g style="fill: #262626" transform="translate(446.442609 468.093594) scale(0.11 -0.11)">
       <use xlink:href="#ArialMT-34"/>
       <use xlink:href="#ArialMT-30" x="55.615234"/>
       <use xlink:href="#ArialMT-30" x="111.230469"/>
      </g>
     </g>
    </g>
    <g id="text_6">
     <!-- x -->
     <g style="fill: #262626" transform="translate(275.210156 482.869219) scale(0.12 -0.12)">
      <defs>
       <path id="ArialMT-78" d="M 47 0 
L 1259 1725 
L 138 3319 
L 841 3319 
L 1350 2541 
Q 1494 2319 1581 2169 
Q 1719 2375 1834 2534 
L 2394 3319 
L 3066 3319 
L 1919 1756 
L 3153 0 
L 2463 0 
L 1781 1031 
L 1600 1309 
L 728 0 
L 47 0 
z
" transform="scale(0.015625)"/>
      </defs>
      <use xlink:href="#ArialMT-78"/>
     </g>
    </g>
   </g>
   <g id="matplotlib.axis_2">
    <g id="ytick_1">
     <g id="line2d_6">
      <path d="M 56.450156 406.368 
L 499.970156 406.368 
" clip-path="url(#pba7ccb1c77)" style="fill: none; stroke: #ffffff; stroke-linecap: round"/>
     </g>
     <g id="text_7">
      <!-- −400 -->
      <g style="fill: #262626" transform="translate(22.174375 410.304797) scale(0.11 -0.11)">
       <use xlink:href="#ArialMT-2212"/>
       <use xlink:href="#ArialMT-34" x="58.398438"/>
       <use xlink:href="#ArialMT-30" x="114.013672"/>
       <use xlink:href="#ArialMT-30" x="169.628906"/>
      </g>
     </g>
    </g>
    <g id="ytick_2">
     <g id="line2d_7">
      <path d="M 56.450156 317.664 
L 499.970156 317.664 
" clip-path="url(#pba7ccb1c77)" style="fill: none; stroke: #ffffff; stroke-linecap: round"/>
     </g>
     <g id="text_8">
      <!-- −200 -->
      <g style="fill: #262626" transform="translate(22.174375 321.600797) scale(0.11 -0.11)">
       <use xlink:href="#ArialMT-2212"/>
       <use xlink:href="#ArialMT-32" x="58.398438"/>
       <use xlink:href="#ArialMT-30" x="114.013672"/>
       <use xlink:href="#ArialMT-30" x="169.628906"/>
      </g>
     </g>
    </g>
    <g id="ytick_3">
     <g id="line2d_8">
      <path d="M 56.450156 228.96 
L 499.970156 228.96 
" clip-path="url(#pba7ccb1c77)" style="fill: none; stroke: #ffffff; stroke-linecap: round"/>
     </g>
     <g id="text_9">
      <!-- 0 -->
      <g style="fill: #262626" transform="translate(40.833125 232.896797) scale(0.11 -0.11)">
       <use xlink:href="#ArialMT-30"/>
      </g>
     </g>
    </g>
    <g id="ytick_4">
     <g id="line2d_9">
      <path d="M 56.450156 140.256 
L 499.970156 140.256 
" clip-path="url(#pba7ccb1c77)" style="fill: none; stroke: #ffffff; stroke-linecap: round"/>
     </g>
     <g id="text_10">
      <!-- 200 -->
      <g style="fill: #262626" transform="translate(28.599063 144.192797) scale(0.11 -0.11)">
       <use xlink:href="#ArialMT-32"/>
       <use xlink:href="#ArialMT-30" x="55.615234"/>
       <use xlink:href="#ArialMT-30" x="111.230469"/>
      </g>
     </g>
    </g>
    <g id="ytick_5">
     <g id="line2d_10">
      <path d="M 56.450156 51.552 
L 499.970156 51.552 
" clip-path="url(#pba7ccb1c77)" style="fill: none; stroke: #ffffff; stroke-linecap: round"/>
     </g>
     <g id="text_11">
      <!-- 400 -->
      <g style="fill: #262626" transform="translate(28.599063 55.488797) scale(0.11 -0.11)">
       <use xlink:href="#ArialMT-34"/>
       <use xlink:href="#ArialMT-30" x="55.615234"/>
       <use xlink:href="#ArialMT-30" x="111.230469"/>
      </g>
     </g>
    </g>
    <g id="text_12">
     <!-- y -->
     <g style="fill: #262626" transform="translate(15.64875 231.96) rotate(-90) scale(0.12 -0.12)">
      <defs>
       <path id="ArialMT-79" d="M 397 -1278 
L 334 -750 
Q 519 -800 656 -800 
Q 844 -800 956 -737 
Q 1069 -675 1141 -563 
Q 1194 -478 1313 -144 
Q 1328 -97 1363 -6 
L 103 3319 
L 709 3319 
L 1400 1397 
Q 1534 1031 1641 628 
Q 1738 1016 1872 1384 
L 2581 3319 
L 3144 3319 
L 1881 -56 
Q 1678 -603 1566 -809 
Q 1416 -1088 1222 -1217 
Q 1028 -1347 759 -1347 
Q 597 -1347 397 -1278 
z
" transform="scale(0.015625)"/>
      </defs>
      <use xlink:href="#ArialMT-79"/>
     </g>
    </g>
   </g>
   <g id="patch_3">
    <path d="M 278.210156 317.664 
C 301.734732 317.664 324.298969 308.317587 340.933356 291.6832 
C 357.567743 275.048813 366.914156 252.484576 366.914156 228.96 
C 366.914156 205.435424 357.567743 182.871187 340.933356 166.2368 
C 324.298969 149.602413 301.734732 140.256 278.210156 140.256 
C 254.68558 140.256 232.121343 149.602413 215.486956 166.2368 
C 198.852569 182.871187 189.506156 205.435424 189.506156 228.96 
C 189.506156 252.484576 198.852569 275.048813 215.486956 291.6832 
C 232.121343 308.317587 254.68558 317.664 278.210156 317.664 
z
" clip-path="url(#pba7ccb1c77)" style="fill: #228b22; opacity: 0.12; stroke: #228b22; stroke-width: 1.5; stroke-linejoin: miter"/>
   </g>
   <g id="PathCollection_1">
    <defs>
     <path id="m348ddfb49f" d="M 0 2.236068 
C 0.593012 2.236068 1.161816 2.000462 1.581139 1.581139 
C 2.000462 1.161816 2.236068 0.593012 2.236068 0 
C 2.236068 -0.593012 2.000462 -1.161816 1.581139 -1.581139 
C 1.161816 -2.000462 0.593012 -2.236068 0 -2.236068 
C -0.593012 -2.236068 -1.161816 -2.000462 -1.581139 -1.581139 
C -2.000462 -1.161816 -2.236068 -0.593012 -2.236068 0 
C -2.236068 0.593012 -2.000462 1.161816 -1.581139 1.581139 
C -1.161816 2.000462 -0.593012 2.236068 0 2.236068 
z
" style="stroke: #4169e1"/>
    </defs>
    <g clip-path="url(#pba7ccb1c77)">
     <use xlink:href="#m348ddfb49f" x="385.414658" y="114.714483" style="fill: #4169e1; stroke: #4169e1"/>
     <use xlink:href="#m348ddfb49f" x="236.257625" y="278.229546" style="fill: #4169e1; stroke: #4169e1"/>
     <use xlink:href="#m348ddfb49f" x="287.618677" y="302.542754" style="fill: #4169e1; stroke: #4169e1"/>
     <use xlink:href="#m348ddfb49f" x="299.422171" y="106.376638" style="fill: #4169e1; stroke: #4169e1"/>
     <use xlink:href="#m348ddfb49f" x="267.021419" y="307.509878" style="fill: #4169e1; stroke: #4169e1"/>
     <use xlink:href="#m348ddfb49f" x="396.769422" y="200.450535" style="fill: #4169e1; stroke: #4169e1"/>
     <use xlink:href="#m348ddfb49f" x="300.145224" y="105.974007" style="fill: #4169e1; stroke: #4169e1"/>
     <use xlink:href="#m348ddfb49f" x="334.058695" y="303.467949" style="fill: #4169e1; stroke: #4169e1"/>
     <use xlink:href="#m348ddfb49f" x="182.339481" y="213.150498" style="fill: #4169e1; stroke: #4169e1"/>
     <use xlink:href="#m348ddfb49f" x="273.916496" y="154.989288" style="fill: #4169e1; stroke: #4169e1"/>
     <use xlink:href="#m348ddfb49f" x="308.450632" y="305.177954" style="fill: #4169e1; stroke: #4169e1"/>
     <use xlink:href="#m348ddfb49f" x="206.247581" y="303.104814" style="fill: #4169e1; stroke: #4169e1"/>
     <use xlink:href="#m348ddfb49f" x="344.606114" y="177.028597" style="fill: #4169e1; stroke: #4169e1"/>
     <use xlink:href="#m348ddfb49f" x="152.254496" y="208.919352" style="fill: #4169e1; stroke: #4169e1"/>
     <use xlink:href="#m348ddfb49f" x="196.822362" y="322.611357" style="fill: #4169e1; stroke: #4169e1"/>
     <use xlink:href="#m348ddfb49f" x="408.002343" y="221.428297" style="fill: #4169e1; stroke: #4169e1"/>
     <use xlink:href="#m348ddfb49f" x="321.308709" y="243.038022" style="fill: #4169e1; stroke: #4169e1"/>
     <use xlink:href="#m348ddfb49f" x="236.858261" y="287.597924" style="fill: #4169e1; stroke: #4169e1"/>
     <use xlink:href="#m348ddfb49f" x="179.355215" y="228.720783" style="fill: #4169e1; stroke: #4169e1"/>
     <use xlink:href="#m348ddfb49f" x="258.079164" y="278.058857" style="fill: #4169e1; stroke: #4169e1"/>
     <use xlink:href="#m348ddfb49f" x="236.939543" y="234.945377" style="fill: #4169e1; stroke: #4169e1"/>
     <use xlink:href="#m348ddfb49f" x="236.430804" y="329.689296" style="fill: #4169e1; stroke: #4169e1"/>
     <use xlink:href="#m348ddfb49f" x="304.470638" y="336.866015" style="fill: #4169e1; stroke: #4169e1"/>
     <use xlink:href="#m348ddfb49f" x="386.78717" y="162.113694" style="fill: #4169e1; stroke: #4169e1"/>
     <use xlink:href="#m348ddfb49f" x="348.566914" y="290.0088" style="fill: #4169e1; stroke: #4169e1"/>
     <use xlink:href="#m348ddfb49f" x="197.577305" y="247.911735" style="fill: #4169e1; stroke: #4169e1"/>
     <use xlink:href="#m348ddfb49f" x="306.851149" y="284.450767" style="fill: #4169e1; stroke: #4169e1"/>
     <use xlink:href="#m348ddfb49f" x="221.305185" y="242.647723" style="fill: #4169e1; stroke: #4169e1"/>
     <use xlink:href="#m348ddfb49f" x="303.491603" y="300.714655" style="fill: #4169e1; stroke: #4169e1"/>
     <use xlink:href="#m348ddfb49f" x="297.569433" y="280.395204" style="fill: #4169e1; stroke: #4169e1"/>
     <use xlink:href="#m348ddfb49f" x="252.781344" y="209.72278" style="fill: #4169e1; stroke: #4169e1"/>
     <use xlink:href="#m348ddfb49f" x="225.609044" y="232.034081" style="fill: #4169e1; stroke: #4169e1"/>
     <use xlink:href="#m348ddfb49f" x="262.521824" y="320.923692" style="fill: #4169e1; stroke: #4169e1"/>
     <use xlink:href="#m348ddfb49f" x="275.313409" y="315.07886" style="fill: #4169e1; stroke: #4169e1"/>
     <use xlink:href="#m348ddfb49f" x="197.654422" y="248.269795" style="fill: #4169e1; stroke: #4169e1"/>
     <use xlink:href="#m348ddfb49f" x="338.217216" y="269.904345" style="fill: #4169e1; stroke: #4169e1"/>
     <use xlink:href="#m348ddfb49f" x="177.26044" y="197.726185" style="fill: #4169e1; stroke: #4169e1"/>
     <use xlink:href="#m348ddfb49f" x="256.061809" y="226.571915" style="fill: #4169e1; stroke: #4169e1"/>
     <use xlink:href="#m348ddfb49f" x="425.023519" y="234.432561" style="fill: #4169e1; stroke: #4169e1"/>
     <use xlink:href="#m348ddfb49f" x="266.331288" y="329.431634" style="fill: #4169e1; stroke: #4169e1"/>
     <use xlink:href="#m348ddfb49f" x="285.158495" y="357.739676" style="fill: #4169e1; stroke: #4169e1"/>
     <use xlink:href="#m348ddfb49f" x="260.420679" y="341.912104" style="fill: #4169e1; stroke: #4169e1"/>
     <use xlink:href="#m348ddfb49f" x="341.021091" y="248.637148" style="fill: #4169e1; stroke: #4169e1"/>
     <use xlink:href="#m348ddfb49f" x="305.897912" y="144.366857" style="fill: #4169e1; stroke: #4169e1"/>
     <use xlink:href="#m348ddfb49f" x="244.050748" y="290.627099" style="fill: #4169e1; stroke: #4169e1"/>
     <use xlink:href="#m348ddfb49f" x="253.283884" y="206.810196" style="fill: #4169e1; stroke: #4169e1"/>
     <use xlink:href="#m348ddfb49f" x="338.694519" y="237.08154" style="fill: #4169e1; stroke: #4169e1"/>
     <use xlink:href="#m348ddfb49f" x="341.030126" y="278.07781" style="fill: #4169e1; stroke: #4169e1"/>
     <use xlink:href="#m348ddfb49f" x="306.777457" y="283.560627" style="fill: #4169e1; stroke: #4169e1"/>
     <use xlink:href="#m348ddfb49f" x="374.190927" y="189.825979" style="fill: #4169e1; stroke: #4169e1"/>
     <use xlink:href="#m348ddfb49f" x="262.393122" y="234.344421" style="fill: #4169e1; stroke: #4169e1"/>
     <use xlink:href="#m348ddfb49f" x="223.989931" y="241.703625" style="fill: #4169e1; stroke: #4169e1"/>
     <use xlink:href="#m348ddfb49f" x="436.664254" y="197.597791" style="fill: #4169e1; stroke: #4169e1"/>
     <use xlink:href="#m348ddfb49f" x="290.935197" y="158.050237" style="fill: #4169e1; stroke: #4169e1"/>
     <use xlink:href="#m348ddfb49f" x="221.516212" y="218.590128" style="fill: #4169e1; stroke: #4169e1"/>
     <use xlink:href="#m348ddfb49f" x="199.295153" y="204.71806" style="fill: #4169e1; stroke: #4169e1"/>
     <use xlink:href="#m348ddfb49f" x="311.845571" y="284.460912" style="fill: #4169e1; stroke: #4169e1"/>
     <use xlink:href="#m348ddfb49f" x="369.487487" y="211.852782" style="fill: #4169e1; stroke: #4169e1"/>
     <use xlink:href="#m348ddfb49f" x="236.171622" y="192.930493" style="fill: #4169e1; stroke: #4169e1"/>
     <use xlink:href="#m348ddfb49f" x="341.468597" y="260.362811" style="fill: #4169e1; stroke: #4169e1"/>
     <use xlink:href="#m348ddfb49f" x="425.891989" y="241.191425" style="fill: #4169e1; stroke: #4169e1"/>
     <use xlink:href="#m348ddfb49f" x="238.997381" y="145.094615" style="fill: #4169e1; stroke: #4169e1"/>
     <use xlink:href="#m348ddfb49f" x="188.556002" y="179.085832" style="fill: #4169e1; stroke: #4169e1"/>
     <use xlink:href="#m348ddfb49f" x="248.886606" y="327.154527" style="fill: #4169e1; stroke: #4169e1"/>
     <use xlink:href="#m348ddfb49f" x="351.026793" y="330.883097" style="fill: #4169e1; stroke: #4169e1"/>
     <use xlink:href="#m348ddfb49f" x="263.421098" y="251.162564" style="fill: #4169e1; stroke: #4169e1"/>
     <use xlink:href="#m348ddfb49f" x="246.474529" y="224.235413" style="fill: #4169e1; stroke: #4169e1"/>
     <use xlink:href="#m348ddfb49f" x="197.956317" y="189.49207" style="fill: #4169e1; stroke: #4169e1"/>
     <use xlink:href="#m348ddfb49f" x="244.659292" y="244.679573" style="fill: #4169e1; stroke: #4169e1"/>
     <use xlink:href="#m348ddfb49f" x="337.490534" y="306.228011" style="fill: #4169e1; stroke: #4169e1"/>
     <use xlink:href="#m348ddfb49f" x="238.818118" y="227.317018" style="fill: #4169e1; stroke: #4169e1"/>
     <use xlink:href="#m348ddfb49f" x="328.464977" y="177.036403" style="fill: #4169e1; stroke: #4169e1"/>
     <use xlink:href="#m348ddfb49f" x="309.381438" y="298.531752" style="fill: #4169e1; stroke: #4169e1"/>
     <use xlink:href="#m348ddfb49f" x="309.367643" y="228.201107" style="fill: #4169e1; stroke: #4169e1"/>
     <use xlink:href="#m348ddfb49f" x="247.438929" y="353.426157" style="fill: #4169e1; stroke: #4169e1"/>
     <use xlink:href="#m348ddfb49f" x="359.051307" y="128.102357" style="fill: #4169e1; stroke: #4169e1"/>
     <use xlink:href="#m348ddfb49f" x="361.326756" y="130.83208" style="fill: #4169e1; stroke: #4169e1"/>
     <use xlink:href="#m348ddfb49f" x="382.588266" y="132.546192" style="fill: #4169e1; stroke: #4169e1"/>
     <use xlink:href="#m348ddfb49f" x="312.706982" y="338.26266" style="fill: #4169e1; stroke: #4169e1"/>
     <use xlink:href="#m348ddfb49f" x="215.185061" y="233.880002" style="fill: #4169e1; stroke: #4169e1"/>
     <use xlink:href="#m348ddfb49f" x="290.07485" y="307.097848" style="fill: #4169e1; stroke: #4169e1"/>
     <use xlink:href="#m348ddfb49f" x="344.904869" y="252.721534" style="fill: #4169e1; stroke: #4169e1"/>
     <use xlink:href="#m348ddfb49f" x="231.694128" y="278.142454" style="fill: #4169e1; stroke: #4169e1"/>
     <use xlink:href="#m348ddfb49f" x="263.357835" y="324.614032" style="fill: #4169e1; stroke: #4169e1"/>
     <use xlink:href="#m348ddfb49f" x="302.808435" y="104.012141" style="fill: #4169e1; stroke: #4169e1"/>
     <use xlink:href="#m348ddfb49f" x="239.928992" y="246.447188" style="fill: #4169e1; stroke: #4169e1"/>
     <use xlink:href="#m348ddfb49f" x="292.915543" y="281.303647" style="fill: #4169e1; stroke: #4169e1"/>
     <use xlink:href="#m348ddfb49f" x="248.112344" y="236.329042" style="fill: #4169e1; stroke: #4169e1"/>
     <use xlink:href="#m348ddfb49f" x="408.225023" y="242.439254" style="fill: #4169e1; stroke: #4169e1"/>
     <use xlink:href="#m348ddfb49f" x="360.287371" y="144.698252" style="fill: #4169e1; stroke: #4169e1"/>
     <use xlink:href="#m348ddfb49f" x="361.753932" y="278.389027" style="fill: #4169e1; stroke: #4169e1"/>
     <use xlink:href="#m348ddfb49f" x="179.958498" y="202.25961" style="fill: #4169e1; stroke: #4169e1"/>
     <use xlink:href="#m348ddfb49f" x="318.998647" y="164.022902" style="fill: #4169e1; stroke: #4169e1"/>
     <use xlink:href="#m348ddfb49f" x="263.7619" y="222.809049" style="fill: #4169e1; stroke: #4169e1"/>
     <use xlink:href="#m348ddfb49f" x="312.356557" y="229.937006" style="fill: #4169e1; stroke: #4169e1"/>
     <use xlink:href="#m348ddfb49f" x="313.636837" y="323.780212" style="fill: #4169e1; stroke: #4169e1"/>
     <use xlink:href="#m348ddfb49f" x="425.406388" y="119.714533" style="fill: #4169e1; stroke: #4169e1"/>
     <use xlink:href="#m348ddfb49f" x="388.621928" y="207.188466" style="fill: #4169e1; stroke: #4169e1"/>
     <use xlink:href="#m348ddfb49f" x="268.09954" y="159.334777" style="fill: #4169e1; stroke: #4169e1"/>
     <use xlink:href="#m348ddfb49f" x="259.145555" y="191.037703" style="fill: #4169e1; stroke: #4169e1"/>
     <use xlink:href="#m348ddfb49f" x="192.876749" y="143.863992" style="fill: #4169e1; stroke: #4169e1"/>
     <use xlink:href="#m348ddfb49f" x="304.870754" y="288.696979" style="fill: #4169e1; stroke: #4169e1"/>
     <use xlink:href="#m348ddfb49f" x="388.679736" y="223.29485" style="fill: #4169e1; stroke: #4169e1"/>
     <use xlink:href="#m348ddfb49f" x="233.473819" y="250.872674" style="fill: #4169e1; stroke: #4169e1"/>
     <use xlink:href="#m348ddfb49f" x="272.296137" y="262.26333" style="fill: #4169e1; stroke: #4169e1"/>
     <use xlink:href="#m348ddfb49f" x="228.988001" y="234.594545" style="fill: #4169e1; stroke: #4169e1"/>
     <use xlink:href="#m348ddfb49f" x="300.17681" y="297.455524" style="fill: #4169e1; stroke: #4169e1"/>
     <use xlink:href="#m348ddfb49f" x="249.381177" y="83.606959" style="fill: #4169e1; stroke: #4169e1"/>
     <use xlink:href="#m348ddfb49f" x="400.508604" y="116.712854" style="fill: #4169e1; stroke: #4169e1"/>
     <use xlink:href="#m348ddfb49f" x="379.886209" y="169.762877" style="fill: #4169e1; stroke: #4169e1"/>
     <use xlink:href="#m348ddfb49f" x="243.650358" y="299.738729" style="fill: #4169e1; stroke: #4169e1"/>
     <use xlink:href="#m348ddfb49f" x="261.028443" y="229.257106" style="fill: #4169e1; stroke: #4169e1"/>
     <use xlink:href="#m348ddfb49f" x="308.50077" y="259.130831" style="fill: #4169e1; stroke: #4169e1"/>
     <use xlink:href="#m348ddfb49f" x="185.743275" y="318.143307" style="fill: #4169e1; stroke: #4169e1"/>
     <use xlink:href="#m348ddfb49f" x="394.011295" y="232.759118" style="fill: #4169e1; stroke: #4169e1"/>
     <use xlink:href="#m348ddfb49f" x="161.632086" y="183.466431" style="fill: #4169e1; stroke: #4169e1"/>
     <use xlink:href="#m348ddfb49f" x="376.495369" y="267.238241" style="fill: #4169e1; stroke: #4169e1"/>
     <use xlink:href="#m348ddfb49f" x="322.753178" y="96.723933" style="fill: #4169e1; stroke: #4169e1"/>
     <use xlink:href="#m348ddfb49f" x="258.016566" y="207.836194" style="fill: #4169e1; stroke: #4169e1"/>
     <use xlink:href="#m348ddfb49f" x="315.111361" y="123.115965" style="fill: #4169e1; stroke: #4169e1"/>
     <use xlink:href="#m348ddfb49f" x="325.844147" y="253.854181" style="fill: #4169e1; stroke: #4169e1"/>
     <use xlink:href="#m348ddfb49f" x="416.883057" y="177.301777" style="fill: #4169e1; stroke: #4169e1"/>
     <use xlink:href="#m348ddfb49f" x="425.554382" y="202.803461" style="fill: #4169e1; stroke: #4169e1"/>
     <use xlink:href="#m348ddfb49f" x="324.571254" y="191.995231" style="fill: #4169e1; stroke: #4169e1"/>
     <use xlink:href="#m348ddfb49f" x="358.539258" y="208.572492" style="fill: #4169e1; stroke: #4169e1"/>
     <use xlink:href="#m348ddfb49f" x="317.943142" y="226.681378" style="fill: #4169e1; stroke: #4169e1"/>
     <use xlink:href="#m348ddfb49f" x="352.754292" y="166.194922" style="fill: #4169e1; stroke: #4169e1"/>
     <use xlink:href="#m348ddfb49f" x="306.271092" y="301.846228" style="fill: #4169e1; stroke: #4169e1"/>
     <use xlink:href="#m348ddfb49f" x="310.608451" y="279.212888" style="fill: #4169e1; stroke: #4169e1"/>
     <use xlink:href="#m348ddfb49f" x="222.073867" y="140.60453" style="fill: #4169e1; stroke: #4169e1"/>
     <use xlink:href="#m348ddfb49f" x="348.902139" y="271.621669" style="fill: #4169e1; stroke: #4169e1"/>
     <use xlink:href="#m348ddfb49f" x="257.264052" y="129.022863" style="fill: #4169e1; stroke: #4169e1"/>
     <use xlink:href="#m348ddfb49f" x="165.594814" y="262.503251" style="fill: #4169e1; stroke: #4169e1"/>
     <use xlink:href="#m348ddfb49f" x="230.366952" y="343.475638" style="fill: #4169e1; stroke: #4169e1"/>
     <use xlink:href="#m348ddfb49f" x="395.218631" y="179.013159" style="fill: #4169e1; stroke: #4169e1"/>
     <use xlink:href="#m348ddfb49f" x="300.784037" y="353.357114" style="fill: #4169e1; stroke: #4169e1"/>
     <use xlink:href="#m348ddfb49f" x="420.682592" y="264.070057" style="fill: #4169e1; stroke: #4169e1"/>
     <use xlink:href="#m348ddfb49f" x="344.240259" y="290.131096" style="fill: #4169e1; stroke: #4169e1"/>
     <use xlink:href="#m348ddfb49f" x="268.235816" y="169.746358" style="fill: #4169e1; stroke: #4169e1"/>
    </g>
   </g>
   <g id="PathCollection_2">
    <defs>
     <path id="m469229480c" d="M 0 2.5 
C 0.663008 2.5 1.29895 2.236584 1.767767 1.767767 
C 2.236584 1.29895 2.5 0.663008 2.5 0 
C 2.5 -0.663008 2.236584 -1.29895 1.767767 -1.767767 
C 1.29895 -2.236584 0.663008 -2.5 0 -2.5 
C -0.663008 -2.5 -1.29895 -2.236584 -1.767767 -1.767767 
C -2.236584 -1.29895 -2.5 -0.663008 -2.5 0 
C -2.5 0.663008 -2.236584 1.29895 -1.767767 1.767767 
C -1.29895 2.236584 -0.663008 2.5 0 2.5 
z
" style="stroke: #b22222"/>
    </defs>
    <g clip-path="url(#pba7ccb1c77)">
     <use xlink:href="#m469229480c" x="278.636323" y="255.235836" style="fill: #b22222; stroke: #b22222"/>
     <use xlink:href="#m469229480c" x="257.055749" y="160.238026" style="fill: #b22222; stroke: #b22222"/>
     <use xlink:href="#m469229480c" x="295.995834" y="200.238578" style="fill: #b22222; stroke: #b22222"/>
     <use xlink:href="#m469229480c" x="251.973213" y="157.90493" style="fill: #b22222; stroke: #b22222"/>
     <use xlink:href="#m469229480c" x="227.082152" y="151.407811" style="fill: #b22222; stroke: #b22222"/>
     <use xlink:href="#m469229480c" x="275.207926" y="189.060451" style="fill: #b22222; stroke: #b22222"/>
     <use xlink:href="#m469229480c" x="255.19454" y="171.727857" style="fill: #b22222; stroke: #b22222"/>
     <use xlink:href="#m469229480c" x="282.998044" y="209.908667" style="fill: #b22222; stroke: #b22222"/>
     <use xlink:href="#m469229480c" x="244.019401" y="144.902897" style="fill: #b22222; stroke: #b22222"/>
     <use xlink:href="#m469229480c" x="267.183854" y="184.067832" style="fill: #b22222; stroke: #b22222"/>
     <use xlink:href="#m469229480c" x="271.175282" y="198.272935" style="fill: #b22222; stroke: #b22222"/>
     <use xlink:href="#m469229480c" x="234.723801" y="149.876674" style="fill: #b22222; stroke: #b22222"/>
     <use xlink:href="#m469229480c" x="291.911638" y="189.606141" style="fill: #b22222; stroke: #b22222"/>
     <use xlink:href="#m469229480c" x="219.542394" y="141.969179" style="fill: #b22222; stroke: #b22222"/>
     <use xlink:href="#m469229480c" x="258.322466" y="173.988303" style="fill: #b22222; stroke: #b22222"/>
     <use xlink:href="#m469229480c" x="292.858138" y="187.967903" style="fill: #b22222; stroke: #b22222"/>
     <use xlink:href="#m469229480c" x="313.046038" y="201.141302" style="fill: #b22222; stroke: #b22222"/>
     <use xlink:href="#m469229480c" x="228.336131" y="128.841214" style="fill: #b22222; stroke: #b22222"/>
     <use xlink:href="#m469229480c" x="263.507166" y="201.133175" style="fill: #b22222; stroke: #b22222"/>
     <use xlink:href="#m469229480c" x="214.915428" y="139.959776" style="fill: #b22222; stroke: #b22222"/>
     <use xlink:href="#m469229480c" x="251.952012" y="139.763347" style="fill: #b22222; stroke: #b22222"/>
     <use xlink:href="#m469229480c" x="283.084106" y="209.039158" style="fill: #b22222; stroke: #b22222"/>
     <use xlink:href="#m469229480c" x="277.881816" y="199.67138" style="fill: #b22222; stroke: #b22222"/>
     <use xlink:href="#m469229480c" x="276.61146" y="195.184351" style="fill: #b22222; stroke: #b22222"/>
     <use xlink:href="#m469229480c" x="251.304309" y="174.589853" style="fill: #b22222; stroke: #b22222"/>
     <use xlink:href="#m469229480c" x="276.341007" y="193.452017" style="fill: #b22222; stroke: #b22222"/>
     <use xlink:href="#m469229480c" x="267.490608" y="177.182055" style="fill: #b22222; stroke: #b22222"/>
     <use xlink:href="#m469229480c" x="277.772549" y="188.01977" style="fill: #b22222; stroke: #b22222"/>
     <use xlink:href="#m469229480c" x="230.451466" y="156.357469" style="fill: #b22222; stroke: #b22222"/>
     <use xlink:href="#m469229480c" x="281.795141" y="209.711213" style="fill: #b22222; stroke: #b22222"/>
     <use xlink:href="#m469229480c" x="311.447556" y="201.125902" style="fill: #b22222; stroke: #b22222"/>
     <use xlink:href="#m469229480c" x="327.240556" y="243.139787" style="fill: #b22222; stroke: #b22222"/>
     <use xlink:href="#m469229480c" x="294.39575" y="202.133139" style="fill: #b22222; stroke: #b22222"/>
     <use xlink:href="#m469229480c" x="295.005717" y="199.387254" style="fill: #b22222; stroke: #b22222"/>
     <use xlink:href="#m469229480c" x="269.829167" y="183.879206" style="fill: #b22222; stroke: #b22222"/>
     <use xlink:href="#m469229480c" x="231.363607" y="132.942718" style="fill: #b22222; stroke: #b22222"/>
     <use xlink:href="#m469229480c" x="271.331686" y="187.923426" style="fill: #b22222; stroke: #b22222"/>
     <use xlink:href="#m469229480c" x="253.378059" y="167.962986" style="fill: #b22222; stroke: #b22222"/>
     <use xlink:href="#m469229480c" x="269.963356" y="221.863659" style="fill: #b22222; stroke: #b22222"/>
     <use xlink:href="#m469229480c" x="302.612962" y="199.514125" style="fill: #b22222; stroke: #b22222"/>
     <use xlink:href="#m469229480c" x="213.243064" y="135.07619" style="fill: #b22222; stroke: #b22222"/>
     <use xlink:href="#m469229480c" x="209.493413" y="130.721856" style="fill: #b22222; stroke: #b22222"/>
     <use xlink:href="#m469229480c" x="318.093162" y="216.140059" style="fill: #b22222; stroke: #b22222"/>
     <use xlink:href="#m469229480c" x="205.077413" y="128.982359" style="fill: #b22222; stroke: #b22222"/>
     <use xlink:href="#m469229480c" x="236.620922" y="151.877407" style="fill: #b22222; stroke: #b22222"/>
     <use xlink:href="#m469229480c" x="292.542691" y="208.223095" style="fill: #b22222; stroke: #b22222"/>
     <use xlink:href="#m469229480c" x="298.969188" y="197.49156" style="fill: #b22222; stroke: #b22222"/>
     <use xlink:href="#m469229480c" x="243.662607" y="152.790705" style="fill: #b22222; stroke: #b22222"/>
     <use xlink:href="#m469229480c" x="300.894601" y="210.36827" style="fill: #b22222; stroke: #b22222"/>
     <use xlink:href="#m469229480c" x="294.597085" y="211.679319" style="fill: #b22222; stroke: #b22222"/>
     <use xlink:href="#m469229480c" x="208.623705" y="132.001477" style="fill: #b22222; stroke: #b22222"/>
     <use xlink:href="#m469229480c" x="305.867544" y="219.114905" style="fill: #b22222; stroke: #b22222"/>
     <use xlink:href="#m469229480c" x="219.584623" y="132.889606" style="fill: #b22222; stroke: #b22222"/>
     <use xlink:href="#m469229480c" x="328.86935" y="220.437668" style="fill: #b22222; stroke: #b22222"/>
     <use xlink:href="#m469229480c" x="305.538819" y="198.722603" style="fill: #b22222; stroke: #b22222"/>
     <use xlink:href="#m469229480c" x="280.142578" y="179.290169" style="fill: #b22222; stroke: #b22222"/>
     <use xlink:href="#m469229480c" x="236.013769" y="139.133929" style="fill: #b22222; stroke: #b22222"/>
     <use xlink:href="#m469229480c" x="242.770099" y="143.267261" style="fill: #b22222; stroke: #b22222"/>
     <use xlink:href="#m469229480c" x="291.305833" y="193.581585" style="fill: #b22222; stroke: #b22222"/>
     <use xlink:href="#m469229480c" x="297.030877" y="210.732872" style="fill: #b22222; stroke: #b22222"/>
     <use xlink:href="#m469229480c" x="271.631431" y="178.582287" style="fill: #b22222; stroke: #b22222"/>
     <use xlink:href="#m469229480c" x="225.10042" y="147.504523" style="fill: #b22222; stroke: #b22222"/>
     <use xlink:href="#m469229480c" x="301.674285" y="197.611099" style="fill: #b22222; stroke: #b22222"/>
     <use xlink:href="#m469229480c" x="254.257254" y="196.831755" style="fill: #b22222; stroke: #b22222"/>
     <use xlink:href="#m469229480c" x="238.567846" y="144.590904" style="fill: #b22222; stroke: #b22222"/>
     <use xlink:href="#m469229480c" x="259.090009" y="159.502072" style="fill: #b22222; stroke: #b22222"/>
     <use xlink:href="#m469229480c" x="268.113205" y="173.721603" style="fill: #b22222; stroke: #b22222"/>
     <use xlink:href="#m469229480c" x="274.169258" y="195.18449" style="fill: #b22222; stroke: #b22222"/>
     <use xlink:href="#m469229480c" x="267.443807" y="177.682243" style="fill: #b22222; stroke: #b22222"/>
     <use xlink:href="#m469229480c" x="272.569104" y="192.12345" style="fill: #b22222; stroke: #b22222"/>
     <use xlink:href="#m469229480c" x="282.494199" y="192.093097" style="fill: #b22222; stroke: #b22222"/>
     <use xlink:href="#m469229480c" x="204.404127" y="129.455108" style="fill: #b22222; stroke: #b22222"/>
     <use xlink:href="#m469229480c" x="299.626529" y="207.200336" style="fill: #b22222; stroke: #b22222"/>
     <use xlink:href="#m469229480c" x="308.178021" y="187.445439" style="fill: #b22222; stroke: #b22222"/>
     <use xlink:href="#m469229480c" x="261.500106" y="179.317107" style="fill: #b22222; stroke: #b22222"/>
     <use xlink:href="#m469229480c" x="258.085045" y="203.942128" style="fill: #b22222; stroke: #b22222"/>
     <use xlink:href="#m469229480c" x="212.54639" y="126.800633" style="fill: #b22222; stroke: #b22222"/>
     <use xlink:href="#m469229480c" x="306.02519" y="211.857619" style="fill: #b22222; stroke: #b22222"/>
     <use xlink:href="#m469229480c" x="282.817874" y="199.704832" style="fill: #b22222; stroke: #b22222"/>
     <use xlink:href="#m469229480c" x="313.906339" y="232.97886" style="fill: #b22222; stroke: #b22222"/>
     <use xlink:href="#m469229480c" x="302.120192" y="201.631694" style="fill: #b22222; stroke: #b22222"/>
     <use xlink:href="#m469229480c" x="276.068592" y="204.577404" style="fill: #b22222; stroke: #b22222"/>
     <use xlink:href="#m469229480c" x="205.532093" y="136.727161" style="fill: #b22222; stroke: #b22222"/>
     <use xlink:href="#m469229480c" x="268.219862" y="177.581471" style="fill: #b22222; stroke: #b22222"/>
     <use xlink:href="#m469229480c" x="293.291215" y="194.951055" style="fill: #b22222; stroke: #b22222"/>
     <use xlink:href="#m469229480c" x="263.489882" y="173.796192" style="fill: #b22222; stroke: #b22222"/>
     <use xlink:href="#m469229480c" x="276.846122" y="197.358953" style="fill: #b22222; stroke: #b22222"/>
     <use xlink:href="#m469229480c" x="302.762811" y="219.017493" style="fill: #b22222; stroke: #b22222"/>
     <use xlink:href="#m469229480c" x="250.905171" y="154.933679" style="fill: #b22222; stroke: #b22222"/>
     <use xlink:href="#m469229480c" x="210.880753" y="128.535103" style="fill: #b22222; stroke: #b22222"/>
     <use xlink:href="#m469229480c" x="252.510928" y="169.480385" style="fill: #b22222; stroke: #b22222"/>
     <use xlink:href="#m469229480c" x="213.849737" y="138.20139" style="fill: #b22222; stroke: #b22222"/>
     <use xlink:href="#m469229480c" x="269.150507" y="171.452633" style="fill: #b22222; stroke: #b22222"/>
     <use xlink:href="#m469229480c" x="213.462341" y="125.739464" style="fill: #b22222; stroke: #b22222"/>
     <use xlink:href="#m469229480c" x="301.023963" y="205.028423" style="fill: #b22222; stroke: #b22222"/>
     <use xlink:href="#m469229480c" x="315.361666" y="205.268423" style="fill: #b22222; stroke: #b22222"/>
     <use xlink:href="#m469229480c" x="290.650861" y="188.047842" style="fill: #b22222; stroke: #b22222"/>
     <use xlink:href="#m469229480c" x="213.278932" y="133.024938" style="fill: #b22222; stroke: #b22222"/>
     <use xlink:href="#m469229480c" x="224.053448" y="105.770127" style="fill: #b22222; stroke: #b22222"/>
     <use xlink:href="#m469229480c" x="269.674859" y="229.044539" style="fill: #b22222; stroke: #b22222"/>
     <use xlink:href="#m469229480c" x="239.350256" y="143.275084" style="fill: #b22222; stroke: #b22222"/>
     <use xlink:href="#m469229480c" x="239.295107" y="157.067436" style="fill: #b22222; stroke: #b22222"/>
     <use xlink:href="#m469229480c" x="271.258008" y="189.208129" style="fill: #b22222; stroke: #b22222"/>
     <use xlink:href="#m469229480c" x="206.819381" y="130.816338" style="fill: #b22222; stroke: #b22222"/>
     <use xlink:href="#m469229480c" x="205.470981" y="126.8194" style="fill: #b22222; stroke: #b22222"/>
     <use xlink:href="#m469229480c" x="359.20447" y="226.925435" style="fill: #b22222; stroke: #b22222"/>
     <use xlink:href="#m469229480c" x="240.198524" y="160.499985" style="fill: #b22222; stroke: #b22222"/>
     <use xlink:href="#m469229480c" x="284.010546" y="192.002774" style="fill: #b22222; stroke: #b22222"/>
     <use xlink:href="#m469229480c" x="227.637503" y="142.561897" style="fill: #b22222; stroke: #b22222"/>
     <use xlink:href="#m469229480c" x="278.65777" y="175.515688" style="fill: #b22222; stroke: #b22222"/>
     <use xlink:href="#m469229480c" x="259.888756" y="185.399989" style="fill: #b22222; stroke: #b22222"/>
     <use xlink:href="#m469229480c" x="269.815206" y="192.621019" style="fill: #b22222; stroke: #b22222"/>
     <use xlink:href="#m469229480c" x="216.908134" y="125.959045" style="fill: #b22222; stroke: #b22222"/>
     <use xlink:href="#m469229480c" x="301.164998" y="228.517307" style="fill: #b22222; stroke: #b22222"/>
     <use xlink:href="#m469229480c" x="221.928652" y="134.745675" style="fill: #b22222; stroke: #b22222"/>
     <use xlink:href="#m469229480c" x="257.091814" y="163.234181" style="fill: #b22222; stroke: #b22222"/>
     <use xlink:href="#m469229480c" x="264.587071" y="7.2" style="fill: #b22222; stroke: #b22222"/>
     <use xlink:href="#m469229480c" x="214.936759" y="128.363477" style="fill: #b22222; stroke: #b22222"/>
     <use xlink:href="#m469229480c" x="237.452397" y="152.42552" style="fill: #b22222; stroke: #b22222"/>
     <use xlink:href="#m469229480c" x="266.739572" y="191.962456" style="fill: #b22222; stroke: #b22222"/>
     <use xlink:href="#m469229480c" x="295.29418" y="202.448607" style="fill: #b22222; stroke: #b22222"/>
     <use xlink:href="#m469229480c" x="278.546666" y="204.603537" style="fill: #b22222; stroke: #b22222"/>
     <use xlink:href="#m469229480c" x="272.590099" y="196.642453" style="fill: #b22222; stroke: #b22222"/>
     <use xlink:href="#m469229480c" x="225.851834" y="138.516414" style="fill: #b22222; stroke: #b22222"/>
     <use xlink:href="#m469229480c" x="200.678027" y="132.204775" style="fill: #b22222; stroke: #b22222"/>
     <use xlink:href="#m469229480c" x="318.328715" y="231.817316" style="fill: #b22222; stroke: #b22222"/>
     <use xlink:href="#m469229480c" x="284.656076" y="211.120889" style="fill: #b22222; stroke: #b22222"/>
     <use xlink:href="#m469229480c" x="288.544172" y="195.3209" style="fill: #b22222; stroke: #b22222"/>
     <use xlink:href="#m469229480c" x="291.110268" y="187.707311" style="fill: #b22222; stroke: #b22222"/>
     <use xlink:href="#m469229480c" x="233.835803" y="145.384884" style="fill: #b22222; stroke: #b22222"/>
     <use xlink:href="#m469229480c" x="266.110759" y="184.123847" style="fill: #b22222; stroke: #b22222"/>
     <use xlink:href="#m469229480c" x="289.58933" y="199.025763" style="fill: #b22222; stroke: #b22222"/>
    </g>
   </g>
   <g id="patch_4">
    <path d="M 56.450156 450.72 
L 56.450156 7.2 
" style="fill: none; stroke: #ffffff; stroke-width: 1.25; stroke-linejoin: miter; stroke-linecap: square"/>
   </g>
   <g id="patch_5">
    <path d="M 499.970156 450.72 
L 499.970156 7.2 
" style="fill: none; stroke: #ffffff; stroke-width: 1.25; stroke-linejoin: miter; stroke-linecap: square"/>
   </g>
   <g id="patch_6">
    <path d="M 56.450156 450.72 
L 499.970156 450.72 
" style="fill: none; stroke: #ffffff; stroke-width: 1.25; stroke-linejoin: miter; stroke-linecap: square"/>
   </g>
   <g id="patch_7">
    <path d="M 56.450156 7.2 
L 499.970156 7.2 
" style="fill: none; stroke: #ffffff; stroke-width: 1.25; stroke-linejoin: miter; stroke-linecap: square"/>
   </g>
   <g id="text_13">
    <!-- t = 2900 -->
    <g style="fill: #262626" transform="translate(65.320556 24.659775) scale(0.12 -0.12)">
     <defs>
      <path id="ArialMT-74" d="M 1650 503 
L 1731 6 
Q 1494 -44 1306 -44 
Q 1000 -44 831 53 
Q 663 150 594 308 
Q 525 466 525 972 
L 525 2881 
L 113 2881 
L 113 3319 
L 525 3319 
L 525 4141 
L 1084 4478 
L 1084 3319 
L 1650 3319 
L 1650 2881 
L 1084 2881 
L 1084 941 
Q 1084 700 1114 631 
Q 1144 563 1211 522 
Q 1278 481 1403 481 
Q 1497 481 1650 503 
z
" transform="scale(0.015625)"/>
      <path id="ArialMT-20" transform="scale(0.015625)"/>
      <path id="ArialMT-3d" d="M 3381 2694 
L 356 2694 
L 356 3219 
L 3381 3219 
L 3381 2694 
z
M 3381 1303 
L 356 1303 
L 356 1828 
L 3381 1828 
L 3381 1303 
z
" transform="scale(0.015625)"/>
      <path id="ArialMT-39" d="M 350 1059 
L 891 1109 
Q 959 728 1153 556 
Q 1347 384 1650 384 
Q 1909 384 2104 503 
Q 2300 622 2425 820 
Q 2550 1019 2634 1356 
Q 2719 1694 2719 2044 
Q 2719 2081 2716 2156 
Q 2547 1888 2255 1720 
Q 1963 1553 1622 1553 
Q 1053 1553 659 1965 
Q 266 2378 266 3053 
Q 266 3750 677 4175 
Q 1088 4600 1706 4600 
Q 2153 4600 2523 4359 
Q 2894 4119 3086 3673 
Q 3278 3228 3278 2384 
Q 3278 1506 3087 986 
Q 2897 466 2520 194 
Q 2144 -78 1638 -78 
Q 1100 -78 759 220 
Q 419 519 350 1059 
z
M 2653 3081 
Q 2653 3566 2395 3850 
Q 2138 4134 1775 4134 
Q 1400 4134 1122 3828 
Q 844 3522 844 3034 
Q 844 2597 1108 2323 
Q 1372 2050 1759 2050 
Q 2150 2050 2401 2323 
Q 2653 2597 2653 3081 
z
" transform="scale(0.015625)"/>
     </defs>
     <use xlink:href="#ArialMT-74"/>
     <use xlink:href="#ArialMT-20" x="27.783203"/>
     <use xlink:href="#ArialMT-3d" x="55.566406"/>
     <use xlink:href="#ArialMT-20" x="113.964844"/>
     <use xlink:href="#ArialMT-32" x="141.748047"/>
     <use xlink:href="#ArialMT-39" x="197.363281"/>
     <use xlink:href="#ArialMT-30" x="252.978516"/>
     <use xlink:href="#ArialMT-30" x="308.59375"/>
    </g>
   </g>
   <g id="legend_1">
    <g id="patch_8">
     <path d="M 328.111406 94.59 
L 483.170156 94.59 
Q 487.970156 94.59 487.970156 89.79 
L 487.970156 24 
Q 487.970156 19.2 483.170156 19.2 
L 328.111406 19.2 
Q 323.311406 19.2 323.311406 24 
L 323.311406 89.79 
Q 323.311406 94.59 328.111406 94.59 
z
" style="fill: #eaeaf2; opacity: 0.8; stroke: #cccccc; stroke-linejoin: miter"/>
    </g>
    <g id="PathCollection_3">
     <g>
      <use xlink:href="#m348ddfb49f" x="356.911406" y="39.97125" style="fill: #4169e1; stroke: #4169e1"/>
     </g>
    </g>
    <g id="text_14">
     <!-- Sheep -->
     <g style="fill: #262626" transform="translate(400.111406 46.27125) scale(0.24 -0.24)">
      <defs>
       <path id="ArialMT-53" d="M 288 1472 
L 859 1522 
Q 900 1178 1048 958 
Q 1197 738 1509 602 
Q 1822 466 2213 466 
Q 2559 466 2825 569 
Q 3091 672 3220 851 
Q 3350 1031 3350 1244 
Q 3350 1459 3225 1620 
Q 3100 1781 2813 1891 
Q 2628 1963 1997 2114 
Q 1366 2266 1113 2400 
Q 784 2572 623 2826 
Q 463 3081 463 3397 
Q 463 3744 659 4045 
Q 856 4347 1234 4503 
Q 1613 4659 2075 4659 
Q 2584 4659 2973 4495 
Q 3363 4331 3572 4012 
Q 3781 3694 3797 3291 
L 3216 3247 
Q 3169 3681 2898 3903 
Q 2628 4125 2100 4125 
Q 1550 4125 1298 3923 
Q 1047 3722 1047 3438 
Q 1047 3191 1225 3031 
Q 1400 2872 2139 2705 
Q 2878 2538 3153 2413 
Q 3553 2228 3743 1945 
Q 3934 1663 3934 1294 
Q 3934 928 3725 604 
Q 3516 281 3123 101 
Q 2731 -78 2241 -78 
Q 1619 -78 1198 103 
Q 778 284 539 648 
Q 300 1013 288 1472 
z
" transform="scale(0.015625)"/>
       <path id="ArialMT-68" d="M 422 0 
L 422 4581 
L 984 4581 
L 984 2938 
Q 1378 3394 1978 3394 
Q 2347 3394 2619 3248 
Q 2891 3103 3008 2847 
Q 3125 2591 3125 2103 
L 3125 0 
L 2563 0 
L 2563 2103 
Q 2563 2525 2380 2717 
Q 2197 2909 1863 2909 
Q 1613 2909 1392 2779 
Q 1172 2650 1078 2428 
Q 984 2206 984 1816 
L 984 0 
L 422 0 
z
" transform="scale(0.015625)"/>
       <path id="ArialMT-65" d="M 2694 1069 
L 3275 997 
Q 3138 488 2766 206 
Q 2394 -75 1816 -75 
Q 1088 -75 661 373 
Q 234 822 234 1631 
Q 234 2469 665 2931 
Q 1097 3394 1784 3394 
Q 2450 3394 2872 2941 
Q 3294 2488 3294 1666 
Q 3294 1616 3291 1516 
L 816 1516 
Q 847 969 1125 678 
Q 1403 388 1819 388 
Q 2128 388 2347 550 
Q 2566 713 2694 1069 
z
M 847 1978 
L 2700 1978 
Q 2663 2397 2488 2606 
Q 2219 2931 1791 2931 
Q 1403 2931 1139 2672 
Q 875 2413 847 1978 
z
" transform="scale(0.015625)"/>
       <path id="ArialMT-70" d="M 422 -1272 
L 422 3319 
L 934 3319 
L 934 2888 
Q 1116 3141 1344 3267 
Q 1572 3394 1897 3394 
Q 2322 3394 2647 3175 
Q 2972 2956 3137 2557 
Q 3303 2159 3303 1684 
Q 3303 1175 3120 767 
Q 2938 359 2589 142 
Q 2241 -75 1856 -75 
Q 1575 -75 1351 44 
Q 1128 163 984 344 
L 984 -1272 
L 422 -1272 
z
M 931 1641 
Q 931 1000 1190 694 
Q 1450 388 1819 388 
Q 2194 388 2461 705 
Q 2728 1022 2728 1688 
Q 2728 2322 2467 2637 
Q 2206 2953 1844 2953 
Q 1484 2953 1207 2617 
Q 931 2281 931 1641 
z
" transform="scale(0.015625)"/>
      </defs>
      <use xlink:href="#ArialMT-53"/>
      <use xlink:href="#ArialMT-68" x="66.699219"/>
      <use xlink:href="#ArialMT-65" x="122.314453"/>
      <use xlink:href="#ArialMT-65" x="177.929688"/>
      <use xlink:href="#ArialMT-70" x="233.544922"/>
     </g>
    </g>
    <g id="PathCollection_4">
     <g>
      <use xlink:href="#m469229480c" x="356.911406" y="73.92" style="fill: #b22222; stroke: #b22222"/>
     </g>
    </g>
    <g id="text_15">
     <!-- Wolves -->
     <g style="fill: #262626" transform="translate(400.111406 80.22) scale(0.24 -0.24)">
      <defs>
       <path id="ArialMT-57" d="M 1294 0 
L 78 4581 
L 700 4581 
L 1397 1578 
Q 1509 1106 1591 641 
Q 1766 1375 1797 1488 
L 2669 4581 
L 3400 4581 
L 4056 2263 
Q 4303 1400 4413 641 
Q 4500 1075 4641 1638 
L 5359 4581 
L 5969 4581 
L 4713 0 
L 4128 0 
L 3163 3491 
Q 3041 3928 3019 4028 
Q 2947 3713 2884 3491 
L 1913 0 
L 1294 0 
z
" transform="scale(0.015625)"/>
       <path id="ArialMT-6f" d="M 213 1659 
Q 213 2581 725 3025 
Q 1153 3394 1769 3394 
Q 2453 3394 2887 2945 
Q 3322 2497 3322 1706 
Q 3322 1066 3130 698 
Q 2938 331 2570 128 
Q 2203 -75 1769 -75 
Q 1072 -75 642 372 
Q 213 819 213 1659 
z
M 791 1659 
Q 791 1022 1069 705 
Q 1347 388 1769 388 
Q 2188 388 2466 706 
Q 2744 1025 2744 1678 
Q 2744 2294 2464 2611 
Q 2184 2928 1769 2928 
Q 1347 2928 1069 2612 
Q 791 2297 791 1659 
z
" transform="scale(0.015625)"/>
       <path id="ArialMT-6c" d="M 409 0 
L 409 4581 
L 972 4581 
L 972 0 
L 409 0 
z
" transform="scale(0.015625)"/>
       <path id="ArialMT-76" d="M 1344 0 
L 81 3319 
L 675 3319 
L 1388 1331 
Q 1503 1009 1600 663 
Q 1675 925 1809 1294 
L 2547 3319 
L 3125 3319 
L 1869 0 
L 1344 0 
z
" transform="scale(0.015625)"/>
       <path id="ArialMT-73" d="M 197 991 
L 753 1078 
Q 800 744 1014 566 
Q 1228 388 1613 388 
Q 2000 388 2187 545 
Q 2375 703 2375 916 
Q 2375 1106 2209 1216 
Q 2094 1291 1634 1406 
Q 1016 1563 777 1677 
Q 538 1791 414 1992 
Q 291 2194 291 2438 
Q 291 2659 392 2848 
Q 494 3038 669 3163 
Q 800 3259 1026 3326 
Q 1253 3394 1513 3394 
Q 1903 3394 2198 3281 
Q 2494 3169 2634 2976 
Q 2775 2784 2828 2463 
L 2278 2388 
Q 2241 2644 2061 2787 
Q 1881 2931 1553 2931 
Q 1166 2931 1000 2803 
Q 834 2675 834 2503 
Q 834 2394 903 2306 
Q 972 2216 1119 2156 
Q 1203 2125 1616 2013 
Q 2213 1853 2448 1751 
Q 2684 1650 2818 1456 
Q 2953 1263 2953 975 
Q 2953 694 2789 445 
Q 2625 197 2315 61 
Q 2006 -75 1616 -75 
Q 969 -75 630 194 
Q 291 463 197 991 
z
" transform="scale(0.015625)"/>
      </defs>
      <use xlink:href="#ArialMT-57"/>
      <use xlink:href="#ArialMT-6f" x="92.634766"/>
      <use xlink:href="#ArialMT-6c" x="148.25"/>
      <use xlink:href="#ArialMT-76" x="170.466797"/>
      <use xlink:href="#ArialMT-65" x="220.466797"/>
      <use xlink:href="#ArialMT-73" x="276.082031"/>
     </g>
    </g>
   </g>
  </g>
 </g>
 <defs>
  <clipPath id="pba7ccb1c77">
   <rect x="56.450156" y="7.2" width="443.52" height="443.52"/>
  </clipPath>
 </defs>
</svg>
