<?xml version="1.0" encoding="utf-8" standalone="no"?>
<!DOCTYPE svg PUBLIC "-//W3C//DTD SVG 1.1//EN"
  "http://www.w3.org/Graphics/SVG/1.1/DTD/svg11.dtd">
<svg xmlns:xlink="http://www.w3.org/1999/xlink" width="507.170156pt" height="492.454219pt" viewBox="0 0 507.170156 492.454219" xmlns="http://www.w3.org/2000/svg" version="1.1">
 <metadata>
  <rdf:RDF xmlns:dc="http://purl.org/dc/elements/1.1/" xmlns:cc="http://creativecommons.org/ns#" xmlns:rdf="http://www.w3.org/1999/02/22-rdf-syntax-ns#">
   <cc:Work>
    <dc:type rdf:resource="http://purl.org/dc/dcmitype/StillImage"/>
    <dc:date>2026-05-12T10:49:57.918196</dc:date>
    <dc:format>image/svg+xml</dc:format>
    <dc:creator>
     <cc:Agent>
      <dc:title>Matplotlib v3.7.1, https://matplotlib.org/</dc:title>
     </cc:Agent>
    </dc:creator>
   </cc:Work>
  </rdf:RDF>
 </metadata>
 <defs>
  <style type="text/css">*{stroke-linejoin: round; stroke-linecap: butt}</style>
 </defs>
 <g id="figure_1">
  <g id="patch_1">
   <path d="M 0 492.454219 
L 507.170156 492.454219 
L 507.170156 0 
L 0 0 
z
" style="fill: #ffffff"/>
  </g>
  <g id="axes_1">
   <g id="patch_2">
    <path d="M 56.450156 450.72 
L 499.970156 450.72 
L 499.970156 7.2 
L 56.450156 7.2 
z
" style="fill: #eaeaf2"/>
   </g>
   <g id="matplotlib.axis_1">
    <g id="xtick_1">
     <g id="line2d_1">
      <path d="M 100.802156 450.72 
L 100.802156 7.2 
" clip-path="url(#p6a81822eb5)" style="fill: none; stroke: #ffffff; stroke-linecap: round"/>
     </g>
     <g id="text_1">
      <!-- −400 -->
      <g style="fill: #262626" transform="translate(88.414266 468.093594) scale(0.11 -0.11)">
       <defs>
        <path id="ArialMT-2212" d="M 3381 1997 
L 356 1997 
L 356 2522 
L 3381 2522 
L 3381 1997 
z
" transform="scale(0.015625)"/>
        <path id="ArialMT-34" d="M 2069 0 
L 2069 1097 
L 81 1097 
L 81 1613 
L 2172 4581 
L 2631 4581 
L 2631 1613 
L 3250 1613 
L 3250 1097 
L 2631 1097 
L 2631 0 
L 2069 0 
z
M 2069 1613 
L 2069 3678 
L 634 1613 
L 2069 1613 
z
" transform="scale(0.015625)"/>
        <path id="ArialMT-30" d="M 266 2259 
Q 266 3072 433 3567 
Q 600 4063 929 4331 
Q 1259 4600 1759 4600 
Q 2128 4600 2406 4451 
Q 2684 4303 2865 4023 
Q 3047 3744 3150 3342 
Q 3253 2941 3253 2259 
Q 3253 1453 3087 958 
Q 2922 463 2592 192 
Q 2263 -78 1759 -78 
Q 1097 -78 719 397 
Q 266 969 266 2259 
z
M 844 2259 
Q 844 1131 1108 757 
Q 1372 384 1759 384 
Q 2147 384 2411 759 
Q 2675 1134 2675 2259 
Q 2675 3391 2411 3762 
Q 2147 4134 1753 4134 
Q 1366 4134 1134 3806 
Q 844 3388 844 2259 
z
" transform="scale(0.015625)"/>
       </defs>
       <use xlink:href="#ArialMT-2212"/>
       <use xlink:href="#ArialMT-34" x="58.398438"/>
       <use xlink:href="#ArialMT-30" x="114.013672"/>
       <use xlink:href="#ArialMT-30" x="169.628906"/>
      </g>
     </g>
    </g>
    <g id="xtick_2">
     <g id="line2d_2">
      <path d="M 189.506156 450.72 
L 189.506156 7.2 
" clip-path="url(#p6a81822eb5)" style="fill: none; stroke: #ffffff; stroke-linecap: round"/>
     </g>
     <g id="text_2">
      <!-- −200 -->
      <g style="fill: #262626" transform="translate(177.118266 468.093594) scale(0.11 -0.11)">
       <defs>
        <path id="ArialMT-32" d="M 3222 541 
L 3222 0 
L 194 0 
Q 188 203 259 391 
Q 375 700 629 1000 
Q 884 1300 1366 1694 
Q 2113 2306 2375 2664 
Q 2638 3022 2638 3341 
Q 2638 3675 2398 3904 
Q 2159 4134 1775 4134 
Q 1369 4134 1125 3890 
Q 881 3647 878 3216 
L 300 3275 
Q 359 3922 746 4261 
Q 1134 4600 1788 4600 
Q 2447 4600 2831 4234 
Q 3216 3869 3216 3328 
Q 3216 3053 3103 2787 
Q 2991 2522 2730 2228 
Q 2469 1934 1863 1422 
Q 1356 997 1212 845 
Q 1069 694 975 541 
L 3222 541 
z
" transform="scale(0.015625)"/>
       </defs>
       <use xlink:href="#ArialMT-2212"/>
       <use xlink:href="#ArialMT-32" x="58.398438"/>
       <use xlink:href="#ArialMT-30" x="114.013672"/>
       <use xlink:href="#ArialMT-30" x="169.628906"/>
      </g>
     </g>
    </g>
    <g id="xtick_3">
     <g id="line2d_3">
      <path d="M 278.210156 450.72 
L 278.210156 7.2 
" clip-path="url(#p6a81822eb5)" style="fill: none; stroke: #ffffff; stroke-linecap: round"/>
     </g>
     <g id="text_3">
      <!-- 0 -->
      <g style="fill: #262626" transform="translate(275.151641 468.093594) scale(0.11 -0.11)">
       <use xlink:href="#ArialMT-30"/>
      </g>
     </g>
    </g>
    <g id="xtick_4">
     <g id="line2d_4">
      <path d="M 366.914156 450.72 
L 366.914156 7.2 
" clip-path="url(#p6a81822eb5)" style="fill: none; stroke: #ffffff; stroke-linecap: round"/>
     </g>
     <g id="text_4">
      <!-- 200 -->
      <g style="fill: #262626" transform="translate(357.738609 468.093594) scale(0.11 -0.11)">
       <use xlink:href="#ArialMT-32"/>
       <use xlink:href="#ArialMT-30" x="55.615234"/>
       <use xlink:href="#ArialMT-30" x="111.230469"/>
      </g>
     </g>
    </g>
    <g id="xtick_5">
     <g id="line2d_5">
      <path d="M 455.618156 450.72 
L 455.618156 7.2 
" clip-path="url(#p6a81822eb5)" style="fill: none; stroke: #ffffff; stroke-linecap: round"/>
     </g>
     <g id="text_5">
      <!-- 400 -->
      <g style="fill: #262626" transform="translate(446.442609 468.093594) scale(0.11 -0.11)">
       <use xlink:href="#ArialMT-34"/>
       <use xlink:href="#ArialMT-30" x="55.615234"/>
       <use xlink:href="#ArialMT-30" x="111.230469"/>
      </g>
     </g>
    </g>
    <g id="text_6">
     <!-- x -->
     <g style="fill: #262626" transform="translate(275.210156 482.869219) scale(0.12 -0.12)">
      <defs>
       <path id="ArialMT-78" d="M 47 0 
L 1259 1725 
L 138 3319 
L 841 3319 
L 1350 2541 
Q 1494 2319 1581 2169 
Q 1719 2375 1834 2534 
L 2394 3319 
L 3066 3319 
L 1919 1756 
L 3153 0 
L 2463 0 
L 1781 1031 
L 1600 1309 
L 728 0 
L 47 0 
z
" transform="scale(0.015625)"/>
      </defs>
      <use xlink:href="#ArialMT-78"/>
     </g>
    </g>
   </g>
   <g id="matplotlib.axis_2">
    <g id="ytick_1">
     <g id="line2d_6">
      <path d="M 56.450156 406.368 
L 499.970156 406.368 
" clip-path="url(#p6a81822eb5)" style="fill: none; stroke: #ffffff; stroke-linecap: round"/>
     </g>
     <g id="text_7">
      <!-- −400 -->
      <g style="fill: #262626" transform="translate(22.174375 410.304797) scale(0.11 -0.11)">
       <use xlink:href="#ArialMT-2212"/>
       <use xlink:href="#ArialMT-34" x="58.398438"/>
       <use xlink:href="#ArialMT-30" x="114.013672"/>
       <use xlink:href="#ArialMT-30" x="169.628906"/>
      </g>
     </g>
    </g>
    <g id="ytick_2">
     <g id="line2d_7">
      <path d="M 56.450156 317.664 
L 499.970156 317.664 
" clip-path="url(#p6a81822eb5)" style="fill: none; stroke: #ffffff; stroke-linecap: round"/>
     </g>
     <g id="text_8">
      <!-- −200 -->
      <g style="fill: #262626" transform="translate(22.174375 321.600797) scale(0.11 -0.11)">
       <use xlink:href="#ArialMT-2212"/>
       <use xlink:href="#ArialMT-32" x="58.398438"/>
       <use xlink:href="#ArialMT-30" x="114.013672"/>
       <use xlink:href="#ArialMT-30" x="169.628906"/>
      </g>
     </g>
    </g>
    <g id="ytick_3">
     <g id="line2d_8">
      <path d="M 56.450156 228.96 
L 499.970156 228.96 
" clip-path="url(#p6a81822eb5)" style="fill: none; stroke: #ffffff; stroke-linecap: round"/>
     </g>
     <g id="text_9">
      <!-- 0 -->
      <g style="fill: #262626" transform="translate(40.833125 232.896797) scale(0.11 -0.11)">
       <use xlink:href="#ArialMT-30"/>
      </g>
     </g>
    </g>
    <g id="ytick_4">
     <g id="line2d_9">
      <path d="M 56.450156 140.256 
L 499.970156 140.256 
" clip-path="url(#p6a81822eb5)" style="fill: none; stroke: #ffffff; stroke-linecap: round"/>
     </g>
     <g id="text_10">
      <!-- 200 -->
      <g style="fill: #262626" transform="translate(28.599063 144.192797) scale(0.11 -0.11)">
       <use xlink:href="#ArialMT-32"/>
       <use xlink:href="#ArialMT-30" x="55.615234"/>
       <use xlink:href="#ArialMT-30" x="111.230469"/>
      </g>
     </g>
    </g>
    <g id="ytick_5">
     <g id="line2d_10">
      <path d="M 56.450156 51.552 
L 499.970156 51.552 
" clip-path="url(#p6a81822eb5)" style="fill: none; stroke: #ffffff; stroke-linecap: round"/>
     </g>
     <g id="text_11">
      <!-- 400 -->
      <g style="fill: #262626" transform="translate(28.599063 55.488797) scale(0.11 -0.11)">
       <use xlink:href="#ArialMT-34"/>
       <use xlink:href="#ArialMT-30" x="55.615234"/>
       <use xlink:href="#ArialMT-30" x="111.230469"/>
      </g>
     </g>
    </g>
    <g id="text_12">
     <!-- y -->
     <g style="fill: #262626" transform="translate(15.64875 231.96) rotate(-90) scale(0.12 -0.12)">
      <defs>
       <path id="ArialMT-79" d="M 397 -1278 
L 334 -750 
Q 519 -800 656 -800 
Q 844 -800 956 -737 
Q 1069 -675 1141 -563 
Q 1194 -478 1313 -144 
Q 1328 -97 1363 -6 
L 103 3319 
L 709 3319 
L 1400 1397 
Q 1534 1031 1641 628 
Q 1738 1016 1872 1384 
L 2581 3319 
L 3144 3319 
L 1881 -56 
Q 1678 -603 1566 -809 
Q 1416 -1088 1222 -1217 
Q 1028 -1347 759 -1347 
Q 597 -1347 397 -1278 
z
" transform="scale(0.015625)"/>
      </defs>
      <use xlink:href="#ArialMT-79"/>
     </g>
    </g>
   </g>
   <g id="patch_3">
    <path d="M 278.210156 317.664 
C 301.734732 317.664 324.298969 308.317587 340.933356 291.6832 
C 357.567743 275.048813 366.914156 252.484576 366.914156 228.96 
C 366.914156 205.435424 357.567743 182.871187 340.933356 166.2368 
C 324.298969 149.602413 301.734732 140.256 278.210156 140.256 
C 254.68558 140.256 232.121343 149.602413 215.486956 166.2368 
C 198.852569 182.871187 189.506156 205.435424 189.506156 228.96 
C 189.506156 252.484576 198.852569 275.048813 215.486956 291.6832 
C 232.121343 308.317587 254.68558 317.664 278.210156 317.664 
z
" clip-path="url(#p6a81822eb5)" style="fill: #228b22; opacity: 0.12; stroke: #228b22; stroke-width: 1.5; stroke-linejoin: miter"/>
   </g>
   <g id="PathCollection_1">
    <defs>
     <path id="m2f94954de3" d="M 0 2.236068 
C 0.593012 2.236068 1.161816 2.000462 1.581139 1.581139 
C 2.000462 1.161816 2.236068 0.593012 2.236068 0 
C 2.236068 -0.593012 2.000462 -1.161816 1.581139 -1.581139 
C 1.161816 -2.000462 0.593012 -2.236068 0 -2.236068 
C -0.593012 -2.236068 -1.161816 -2.000462 -1.581139 -1.581139 
C -2.000462 -1.161816 -2.236068 -0.593012 -2.236068 0 
C -2.236068 0.593012 -2.000462 1.161816 -1.581139 1.581139 
C -1.161816 2.000462 -0.593012 2.236068 0 2.236068 
z
" style="stroke: #4169e1"/>
    </defs>
    <g clip-path="url(#p6a81822eb5)">
     <use xlink:href="#m2f94954de3" x="389.101472" y="182.277006" style="fill: #4169e1; stroke: #4169e1"/>
     <use xlink:href="#m2f94954de3" x="425.963333" y="242.705601" style="fill: #4169e1; stroke: #4169e1"/>
     <use xlink:href="#m2f94954de3" x="276.20257" y="148.454407" style="fill: #4169e1; stroke: #4169e1"/>
     <use xlink:href="#m2f94954de3" x="334.562439" y="213.874365" style="fill: #4169e1; stroke: #4169e1"/>
     <use xlink:href="#m2f94954de3" x="258.234565" y="264.100264" style="fill: #4169e1; stroke: #4169e1"/>
     <use xlink:href="#m2f94954de3" x="306.405411" y="146.768921" style="fill: #4169e1; stroke: #4169e1"/>
     <use xlink:href="#m2f94954de3" x="381.168063" y="205.251375" style="fill: #4169e1; stroke: #4169e1"/>
     <use xlink:href="#m2f94954de3" x="337.351879" y="279.708349" style="fill: #4169e1; stroke: #4169e1"/>
     <use xlink:href="#m2f94954de3" x="394.498723" y="203.67581" style="fill: #4169e1; stroke: #4169e1"/>
     <use xlink:href="#m2f94954de3" x="383.669841" y="140.827305" style="fill: #4169e1; stroke: #4169e1"/>
     <use xlink:href="#m2f94954de3" x="323.671166" y="214.026449" style="fill: #4169e1; stroke: #4169e1"/>
     <use xlink:href="#m2f94954de3" x="382.952355" y="252.21063" style="fill: #4169e1; stroke: #4169e1"/>
     <use xlink:href="#m2f94954de3" x="371.544032" y="226.929768" style="fill: #4169e1; stroke: #4169e1"/>
     <use xlink:href="#m2f94954de3" x="293.841429" y="257.378292" style="fill: #4169e1; stroke: #4169e1"/>
     <use xlink:href="#m2f94954de3" x="393.001803" y="105.164456" style="fill: #4169e1; stroke: #4169e1"/>
     <use xlink:href="#m2f94954de3" x="292.873468" y="335.654178" style="fill: #4169e1; stroke: #4169e1"/>
     <use xlink:href="#m2f94954de3" x="442.692651" y="248.324496" style="fill: #4169e1; stroke: #4169e1"/>
     <use xlink:href="#m2f94954de3" x="428.694159" y="265.063019" style="fill: #4169e1; stroke: #4169e1"/>
     <use xlink:href="#m2f94954de3" x="277.684201" y="285.148311" style="fill: #4169e1; stroke: #4169e1"/>
     <use xlink:href="#m2f94954de3" x="367.406166" y="189.805331" style="fill: #4169e1; stroke: #4169e1"/>
     <use xlink:href="#m2f94954de3" x="220.538128" y="312.884885" style="fill: #4169e1; stroke: #4169e1"/>
     <use xlink:href="#m2f94954de3" x="270.125102" y="154.193496" style="fill: #4169e1; stroke: #4169e1"/>
     <use xlink:href="#m2f94954de3" x="346.398839" y="129.259186" style="fill: #4169e1; stroke: #4169e1"/>
     <use xlink:href="#m2f94954de3" x="358.193232" y="166.836218" style="fill: #4169e1; stroke: #4169e1"/>
     <use xlink:href="#m2f94954de3" x="284.905678" y="191.705636" style="fill: #4169e1; stroke: #4169e1"/>
     <use xlink:href="#m2f94954de3" x="303.752883" y="170.872483" style="fill: #4169e1; stroke: #4169e1"/>
     <use xlink:href="#m2f94954de3" x="287.519513" y="132.899426" style="fill: #4169e1; stroke: #4169e1"/>
     <use xlink:href="#m2f94954de3" x="274.750002" y="170.735764" style="fill: #4169e1; stroke: #4169e1"/>
     <use xlink:href="#m2f94954de3" x="338.390567" y="256.605274" style="fill: #4169e1; stroke: #4169e1"/>
     <use xlink:href="#m2f94954de3" x="332.17299" y="296.811745" style="fill: #4169e1; stroke: #4169e1"/>
     <use xlink:href="#m2f94954de3" x="359.405596" y="165.966286" style="fill: #4169e1; stroke: #4169e1"/>
     <use xlink:href="#m2f94954de3" x="290.208676" y="320.564685" style="fill: #4169e1; stroke: #4169e1"/>
     <use xlink:href="#m2f94954de3" x="367.653446" y="164.628932" style="fill: #4169e1; stroke: #4169e1"/>
     <use xlink:href="#m2f94954de3" x="357.545466" y="270.152005" style="fill: #4169e1; stroke: #4169e1"/>
     <use xlink:href="#m2f94954de3" x="345.601395" y="141.858982" style="fill: #4169e1; stroke: #4169e1"/>
     <use xlink:href="#m2f94954de3" x="283.180025" y="190.894955" style="fill: #4169e1; stroke: #4169e1"/>
     <use xlink:href="#m2f94954de3" x="337.591939" y="217.316691" style="fill: #4169e1; stroke: #4169e1"/>
     <use xlink:href="#m2f94954de3" x="275.839379" y="283.452979" style="fill: #4169e1; stroke: #4169e1"/>
     <use xlink:href="#m2f94954de3" x="296.506305" y="257.258543" style="fill: #4169e1; stroke: #4169e1"/>
     <use xlink:href="#m2f94954de3" x="343.923719" y="218.423241" style="fill: #4169e1; stroke: #4169e1"/>
     <use xlink:href="#m2f94954de3" x="359.771648" y="113.031509" style="fill: #4169e1; stroke: #4169e1"/>
     <use xlink:href="#m2f94954de3" x="273.482075" y="205.713476" style="fill: #4169e1; stroke: #4169e1"/>
     <use xlink:href="#m2f94954de3" x="389.186202" y="161.745835" style="fill: #4169e1; stroke: #4169e1"/>
     <use xlink:href="#m2f94954de3" x="272.147816" y="323.493856" style="fill: #4169e1; stroke: #4169e1"/>
     <use xlink:href="#m2f94954de3" x="366.644644" y="207.781211" style="fill: #4169e1; stroke: #4169e1"/>
     <use xlink:href="#m2f94954de3" x="270.428984" y="224.865382" style="fill: #4169e1; stroke: #4169e1"/>
     <use xlink:href="#m2f94954de3" x="260.204373" y="233.911779" style="fill: #4169e1; stroke: #4169e1"/>
     <use xlink:href="#m2f94954de3" x="238.909876" y="159.824073" style="fill: #4169e1; stroke: #4169e1"/>
     <use xlink:href="#m2f94954de3" x="285.25909" y="275.732739" style="fill: #4169e1; stroke: #4169e1"/>
     <use xlink:href="#m2f94954de3" x="296.864617" y="215.375331" style="fill: #4169e1; stroke: #4169e1"/>
     <use xlink:href="#m2f94954de3" x="255.314255" y="281.480717" style="fill: #4169e1; stroke: #4169e1"/>
     <use xlink:href="#m2f94954de3" x="325.85416" y="183.869908" style="fill: #4169e1; stroke: #4169e1"/>
     <use xlink:href="#m2f94954de3" x="372.983706" y="250.668167" style="fill: #4169e1; stroke: #4169e1"/>
     <use xlink:href="#m2f94954de3" x="323.024994" y="233.252928" style="fill: #4169e1; stroke: #4169e1"/>
     <use xlink:href="#m2f94954de3" x="279.903458" y="179.780138" style="fill: #4169e1; stroke: #4169e1"/>
     <use xlink:href="#m2f94954de3" x="316.851383" y="177.128713" style="fill: #4169e1; stroke: #4169e1"/>
     <use xlink:href="#m2f94954de3" x="335.73658" y="155.953073" style="fill: #4169e1; stroke: #4169e1"/>
     <use xlink:href="#m2f94954de3" x="259.178804" y="296.506514" style="fill: #4169e1; stroke: #4169e1"/>
     <use xlink:href="#m2f94954de3" x="219.886105" y="206.67557" style="fill: #4169e1; stroke: #4169e1"/>
     <use xlink:href="#m2f94954de3" x="275.625746" y="324.988442" style="fill: #4169e1; stroke: #4169e1"/>
     <use xlink:href="#m2f94954de3" x="279.511351" y="203.024436" style="fill: #4169e1; stroke: #4169e1"/>
     <use xlink:href="#m2f94954de3" x="361.588871" y="151.203092" style="fill: #4169e1; stroke: #4169e1"/>
     <use xlink:href="#m2f94954de3" x="241.473573" y="192.329989" style="fill: #4169e1; stroke: #4169e1"/>
     <use xlink:href="#m2f94954de3" x="269.338835" y="280.62695" style="fill: #4169e1; stroke: #4169e1"/>
     <use xlink:href="#m2f94954de3" x="305.737514" y="211.957991" style="fill: #4169e1; stroke: #4169e1"/>
     <use xlink:href="#m2f94954de3" x="271.610564" y="116.187677" style="fill: #4169e1; stroke: #4169e1"/>
     <use xlink:href="#m2f94954de3" x="474.248554" y="205.020498" style="fill: #4169e1; stroke: #4169e1"/>
     <use xlink:href="#m2f94954de3" x="332.447855" y="168.245417" style="fill: #4169e1; stroke: #4169e1"/>
     <use xlink:href="#m2f94954de3" x="372.10275" y="228.205705" style="fill: #4169e1; stroke: #4169e1"/>
     <use xlink:href="#m2f94954de3" x="269.968644" y="318.098722" style="fill: #4169e1; stroke: #4169e1"/>
     <use xlink:href="#m2f94954de3" x="431.921698" y="156.498228" style="fill: #4169e1; stroke: #4169e1"/>
     <use xlink:href="#m2f94954de3" x="289.768156" y="322.907208" style="fill: #4169e1; stroke: #4169e1"/>
     <use xlink:href="#m2f94954de3" x="323.322967" y="189.681427" style="fill: #4169e1; stroke: #4169e1"/>
     <use xlink:href="#m2f94954de3" x="274.1925" y="250.481917" style="fill: #4169e1; stroke: #4169e1"/>
     <use xlink:href="#m2f94954de3" x="330.310746" y="248.188067" style="fill: #4169e1; stroke: #4169e1"/>
     <use xlink:href="#m2f94954de3" x="342.932783" y="227.209407" style="fill: #4169e1; stroke: #4169e1"/>
     <use xlink:href="#m2f94954de3" x="392.063532" y="236.958713" style="fill: #4169e1; stroke: #4169e1"/>
     <use xlink:href="#m2f94954de3" x="305.644426" y="308.67223" style="fill: #4169e1; stroke: #4169e1"/>
     <use xlink:href="#m2f94954de3" x="407.680626" y="186.598879" style="fill: #4169e1; stroke: #4169e1"/>
     <use xlink:href="#m2f94954de3" x="327.662931" y="254.991117" style="fill: #4169e1; stroke: #4169e1"/>
     <use xlink:href="#m2f94954de3" x="253.993435" y="195.814463" style="fill: #4169e1; stroke: #4169e1"/>
     <use xlink:href="#m2f94954de3" x="331.804529" y="111.132012" style="fill: #4169e1; stroke: #4169e1"/>
     <use xlink:href="#m2f94954de3" x="415.449223" y="195.482493" style="fill: #4169e1; stroke: #4169e1"/>
     <use xlink:href="#m2f94954de3" x="374.12001" y="298.32212" style="fill: #4169e1; stroke: #4169e1"/>
     <use xlink:href="#m2f94954de3" x="243.982876" y="294.888014" style="fill: #4169e1; stroke: #4169e1"/>
     <use xlink:href="#m2f94954de3" x="278.9843" y="219.925583" style="fill: #4169e1; stroke: #4169e1"/>
     <use xlink:href="#m2f94954de3" x="304.637419" y="250.969431" style="fill: #4169e1; stroke: #4169e1"/>
     <use xlink:href="#m2f94954de3" x="428.729567" y="225.970979" style="fill: #4169e1; stroke: #4169e1"/>
     <use xlink:href="#m2f94954de3" x="459.542391" y="224.222784" style="fill: #4169e1; stroke: #4169e1"/>
     <use xlink:href="#m2f94954de3" x="232.029492" y="148.169607" style="fill: #4169e1; stroke: #4169e1"/>
     <use xlink:href="#m2f94954de3" x="436.873332" y="201.355188" style="fill: #4169e1; stroke: #4169e1"/>
     <use xlink:href="#m2f94954de3" x="322.925135" y="231.040728" style="fill: #4169e1; stroke: #4169e1"/>
     <use xlink:href="#m2f94954de3" x="243.633432" y="173.132624" style="fill: #4169e1; stroke: #4169e1"/>
     <use xlink:href="#m2f94954de3" x="236.365456" y="170.737503" style="fill: #4169e1; stroke: #4169e1"/>
     <use xlink:href="#m2f94954de3" x="329.04395" y="223.797418" style="fill: #4169e1; stroke: #4169e1"/>
     <use xlink:href="#m2f94954de3" x="325.294021" y="130.349369" style="fill: #4169e1; stroke: #4169e1"/>
     <use xlink:href="#m2f94954de3" x="457.477034" y="174.26752" style="fill: #4169e1; stroke: #4169e1"/>
     <use xlink:href="#m2f94954de3" x="316.214222" y="166.627059" style="fill: #4169e1; stroke: #4169e1"/>
     <use xlink:href="#m2f94954de3" x="279.113615" y="154.139646" style="fill: #4169e1; stroke: #4169e1"/>
     <use xlink:href="#m2f94954de3" x="359.194894" y="218.436149" style="fill: #4169e1; stroke: #4169e1"/>
     <use xlink:href="#m2f94954de3" x="368.868396" y="210.456145" style="fill: #4169e1; stroke: #4169e1"/>
     <use xlink:href="#m2f94954de3" x="310.913256" y="330.335214" style="fill: #4169e1; stroke: #4169e1"/>
     <use xlink:href="#m2f94954de3" x="255.20596" y="111.665148" style="fill: #4169e1; stroke: #4169e1"/>
     <use xlink:href="#m2f94954de3" x="312.433041" y="317.784037" style="fill: #4169e1; stroke: #4169e1"/>
     <use xlink:href="#m2f94954de3" x="333.493717" y="263.745429" style="fill: #4169e1; stroke: #4169e1"/>
     <use xlink:href="#m2f94954de3" x="244.049408" y="156.20078" style="fill: #4169e1; stroke: #4169e1"/>
     <use xlink:href="#m2f94954de3" x="280.773288" y="164.322997" style="fill: #4169e1; stroke: #4169e1"/>
     <use xlink:href="#m2f94954de3" x="397.458253" y="253.67889" style="fill: #4169e1; stroke: #4169e1"/>
     <use xlink:href="#m2f94954de3" x="276.316627" y="159.483454" style="fill: #4169e1; stroke: #4169e1"/>
     <use xlink:href="#m2f94954de3" x="370.301789" y="249.406539" style="fill: #4169e1; stroke: #4169e1"/>
     <use xlink:href="#m2f94954de3" x="366.20869" y="202.160516" style="fill: #4169e1; stroke: #4169e1"/>
     <use xlink:href="#m2f94954de3" x="356.325854" y="153.469757" style="fill: #4169e1; stroke: #4169e1"/>
     <use xlink:href="#m2f94954de3" x="297.566066" y="266.34312" style="fill: #4169e1; stroke: #4169e1"/>
     <use xlink:href="#m2f94954de3" x="302.842427" y="229.13544" style="fill: #4169e1; stroke: #4169e1"/>
    </g>
   </g>
   <g id="PathCollection_2">
    <defs>
     <path id="m58de5b85d6" d="M 0 2.5 
C 0.663008 2.5 1.29895 2.236584 1.767767 1.767767 
C 2.236584 1.29895 2.5 0.663008 2.5 0 
C 2.5 -0.663008 2.236584 -1.29895 1.767767 -1.767767 
C 1.29895 -2.236584 0.663008 -2.5 0 -2.5 
C -0.663008 -2.5 -1.29895 -2.236584 -1.767767 -1.767767 
C -2.236584 -1.29895 -2.5 -0.663008 -2.5 0 
C -2.5 0.663008 -2.236584 1.29895 -1.767767 1.767767 
C -1.29895 2.236584 -0.663008 2.5 0 2.5 
z
" style="stroke: #b22222"/>
    </defs>
    <g clip-path="url(#p6a81822eb5)">
     <use xlink:href="#m58de5b85d6" x="228.063059" y="246.641782" style="fill: #b22222; stroke: #b22222"/>
     <use xlink:href="#m58de5b85d6" x="208.602123" y="212.111747" style="fill: #b22222; stroke: #b22222"/>
     <use xlink:href="#m58de5b85d6" x="245.162885" y="250.727492" style="fill: #b22222; stroke: #b22222"/>
     <use xlink:href="#m58de5b85d6" x="172.438372" y="249.193028" style="fill: #b22222; stroke: #b22222"/>
     <use xlink:href="#m58de5b85d6" x="170.656143" y="241.762877" style="fill: #b22222; stroke: #b22222"/>
     <use xlink:href="#m58de5b85d6" x="196.789952" y="216.81632" style="fill: #b22222; stroke: #b22222"/>
     <use xlink:href="#m58de5b85d6" x="166.779167" y="214.075436" style="fill: #b22222; stroke: #b22222"/>
     <use xlink:href="#m58de5b85d6" x="198.782049" y="202.249564" style="fill: #b22222; stroke: #b22222"/>
     <use xlink:href="#m58de5b85d6" x="162.395211" y="222.030246" style="fill: #b22222; stroke: #b22222"/>
     <use xlink:href="#m58de5b85d6" x="212.541909" y="250.179009" style="fill: #b22222; stroke: #b22222"/>
     <use xlink:href="#m58de5b85d6" x="184.856275" y="257.706178" style="fill: #b22222; stroke: #b22222"/>
     <use xlink:href="#m58de5b85d6" x="172.887461" y="246.152667" style="fill: #b22222; stroke: #b22222"/>
     <use xlink:href="#m58de5b85d6" x="190.848397" y="248.554215" style="fill: #b22222; stroke: #b22222"/>
     <use xlink:href="#m58de5b85d6" x="213.972697" y="251.638104" style="fill: #b22222; stroke: #b22222"/>
     <use xlink:href="#m58de5b85d6" x="207.435812" y="236.165555" style="fill: #b22222; stroke: #b22222"/>
     <use xlink:href="#m58de5b85d6" x="198.89726" y="214.0398" style="fill: #b22222; stroke: #b22222"/>
     <use xlink:href="#m58de5b85d6" x="162.903348" y="209.064357" style="fill: #b22222; stroke: #b22222"/>
     <use xlink:href="#m58de5b85d6" x="189.635505" y="199.390729" style="fill: #b22222; stroke: #b22222"/>
     <use xlink:href="#m58de5b85d6" x="154.123052" y="228.443152" style="fill: #b22222; stroke: #b22222"/>
     <use xlink:href="#m58de5b85d6" x="158.273269" y="209.131203" style="fill: #b22222; stroke: #b22222"/>
     <use xlink:href="#m58de5b85d6" x="172.983047" y="197.590594" style="fill: #b22222; stroke: #b22222"/>
     <use xlink:href="#m58de5b85d6" x="181.599541" y="248.505877" style="fill: #b22222; stroke: #b22222"/>
     <use xlink:href="#m58de5b85d6" x="177.26442" y="238.555981" style="fill: #b22222; stroke: #b22222"/>
     <use xlink:href="#m58de5b85d6" x="177.469403" y="219.310422" style="fill: #b22222; stroke: #b22222"/>
     <use xlink:href="#m58de5b85d6" x="181.812381" y="231.338818" style="fill: #b22222; stroke: #b22222"/>
     <use xlink:href="#m58de5b85d6" x="203.188981" y="231.64009" style="fill: #b22222; stroke: #b22222"/>
     <use xlink:href="#m58de5b85d6" x="198.711315" y="247.844294" style="fill: #b22222; stroke: #b22222"/>
     <use xlink:href="#m58de5b85d6" x="214.195384" y="257.736883" style="fill: #b22222; stroke: #b22222"/>
     <use xlink:href="#m58de5b85d6" x="196.457373" y="246.627477" style="fill: #b22222; stroke: #b22222"/>
     <use xlink:href="#m58de5b85d6" x="165.355174" y="231.525622" style="fill: #b22222; stroke: #b22222"/>
     <use xlink:href="#m58de5b85d6" x="147.912662" y="225.286924" style="fill: #b22222; stroke: #b22222"/>
     <use xlink:href="#m58de5b85d6" x="189.609524" y="206.708066" style="fill: #b22222; stroke: #b22222"/>
     <use xlink:href="#m58de5b85d6" x="274.924996" y="222.761486" style="fill: #b22222; stroke: #b22222"/>
     <use xlink:href="#m58de5b85d6" x="196.351927" y="211.796632" style="fill: #b22222; stroke: #b22222"/>
     <use xlink:href="#m58de5b85d6" x="203.714172" y="226.741071" style="fill: #b22222; stroke: #b22222"/>
     <use xlink:href="#m58de5b85d6" x="200.28324" y="207.547628" style="fill: #b22222; stroke: #b22222"/>
     <use xlink:href="#m58de5b85d6" x="170.687653" y="228.179528" style="fill: #b22222; stroke: #b22222"/>
     <use xlink:href="#m58de5b85d6" x="235.06467" y="243.526187" style="fill: #b22222; stroke: #b22222"/>
     <use xlink:href="#m58de5b85d6" x="186.243886" y="241.592767" style="fill: #b22222; stroke: #b22222"/>
     <use xlink:href="#m58de5b85d6" x="152.652768" y="225.52442" style="fill: #b22222; stroke: #b22222"/>
     <use xlink:href="#m58de5b85d6" x="160.008557" y="227.010221" style="fill: #b22222; stroke: #b22222"/>
     <use xlink:href="#m58de5b85d6" x="153.651879" y="218.685734" style="fill: #b22222; stroke: #b22222"/>
     <use xlink:href="#m58de5b85d6" x="306.212786" y="226.780888" style="fill: #b22222; stroke: #b22222"/>
     <use xlink:href="#m58de5b85d6" x="182.265518" y="205.573827" style="fill: #b22222; stroke: #b22222"/>
     <use xlink:href="#m58de5b85d6" x="195.646522" y="208.795943" style="fill: #b22222; stroke: #b22222"/>
     <use xlink:href="#m58de5b85d6" x="229.190263" y="254.954408" style="fill: #b22222; stroke: #b22222"/>
     <use xlink:href="#m58de5b85d6" x="306.997782" y="236.696469" style="fill: #b22222; stroke: #b22222"/>
     <use xlink:href="#m58de5b85d6" x="168.306474" y="244.802378" style="fill: #b22222; stroke: #b22222"/>
     <use xlink:href="#m58de5b85d6" x="178.113101" y="198.391716" style="fill: #b22222; stroke: #b22222"/>
     <use xlink:href="#m58de5b85d6" x="260.204976" y="233.782286" style="fill: #b22222; stroke: #b22222"/>
     <use xlink:href="#m58de5b85d6" x="233.644981" y="259.952682" style="fill: #b22222; stroke: #b22222"/>
     <use xlink:href="#m58de5b85d6" x="154.226907" y="232.08229" style="fill: #b22222; stroke: #b22222"/>
     <use xlink:href="#m58de5b85d6" x="180.488047" y="229.619222" style="fill: #b22222; stroke: #b22222"/>
     <use xlink:href="#m58de5b85d6" x="206.963293" y="259.878635" style="fill: #b22222; stroke: #b22222"/>
     <use xlink:href="#m58de5b85d6" x="186.664179" y="202.980623" style="fill: #b22222; stroke: #b22222"/>
     <use xlink:href="#m58de5b85d6" x="230.32345" y="256.370395" style="fill: #b22222; stroke: #b22222"/>
     <use xlink:href="#m58de5b85d6" x="179.951608" y="200.68227" style="fill: #b22222; stroke: #b22222"/>
     <use xlink:href="#m58de5b85d6" x="188.633667" y="201.344107" style="fill: #b22222; stroke: #b22222"/>
     <use xlink:href="#m58de5b85d6" x="179.643927" y="255.819546" style="fill: #b22222; stroke: #b22222"/>
     <use xlink:href="#m58de5b85d6" x="164.318516" y="228.769218" style="fill: #b22222; stroke: #b22222"/>
     <use xlink:href="#m58de5b85d6" x="212.319642" y="262.831691" style="fill: #b22222; stroke: #b22222"/>
     <use xlink:href="#m58de5b85d6" x="167.787022" y="198.443725" style="fill: #b22222; stroke: #b22222"/>
     <use xlink:href="#m58de5b85d6" x="172.290182" y="213.141229" style="fill: #b22222; stroke: #b22222"/>
     <use xlink:href="#m58de5b85d6" x="187.210445" y="196.376869" style="fill: #b22222; stroke: #b22222"/>
     <use xlink:href="#m58de5b85d6" x="303.270787" y="248.035018" style="fill: #b22222; stroke: #b22222"/>
     <use xlink:href="#m58de5b85d6" x="164.88857" y="190.590817" style="fill: #b22222; stroke: #b22222"/>
     <use xlink:href="#m58de5b85d6" x="208.444885" y="248.101418" style="fill: #b22222; stroke: #b22222"/>
     <use xlink:href="#m58de5b85d6" x="208.982671" y="251.154968" style="fill: #b22222; stroke: #b22222"/>
     <use xlink:href="#m58de5b85d6" x="162.494789" y="202.221062" style="fill: #b22222; stroke: #b22222"/>
     <use xlink:href="#m58de5b85d6" x="181.350507" y="226.523929" style="fill: #b22222; stroke: #b22222"/>
     <use xlink:href="#m58de5b85d6" x="162.638167" y="211.650841" style="fill: #b22222; stroke: #b22222"/>
     <use xlink:href="#m58de5b85d6" x="189.144456" y="202.394752" style="fill: #b22222; stroke: #b22222"/>
     <use xlink:href="#m58de5b85d6" x="290.115006" y="253.456647" style="fill: #b22222; stroke: #b22222"/>
     <use xlink:href="#m58de5b85d6" x="204.094693" y="219.308977" style="fill: #b22222; stroke: #b22222"/>
     <use xlink:href="#m58de5b85d6" x="165.035446" y="222.684847" style="fill: #b22222; stroke: #b22222"/>
     <use xlink:href="#m58de5b85d6" x="208.537885" y="250.733898" style="fill: #b22222; stroke: #b22222"/>
     <use xlink:href="#m58de5b85d6" x="208.266749" y="257.28748" style="fill: #b22222; stroke: #b22222"/>
     <use xlink:href="#m58de5b85d6" x="156.068987" y="233.600767" style="fill: #b22222; stroke: #b22222"/>
     <use xlink:href="#m58de5b85d6" x="180.402586" y="245.100542" style="fill: #b22222; stroke: #b22222"/>
     <use xlink:href="#m58de5b85d6" x="212.763284" y="249.214732" style="fill: #b22222; stroke: #b22222"/>
     <use xlink:href="#m58de5b85d6" x="198.783037" y="258.715417" style="fill: #b22222; stroke: #b22222"/>
     <use xlink:href="#m58de5b85d6" x="141.002125" y="221.421552" style="fill: #b22222; stroke: #b22222"/>
     <use xlink:href="#m58de5b85d6" x="165.635385" y="205.977575" style="fill: #b22222; stroke: #b22222"/>
     <use xlink:href="#m58de5b85d6" x="183.255926" y="194.787764" style="fill: #b22222; stroke: #b22222"/>
     <use xlink:href="#m58de5b85d6" x="252.811366" y="257.454113" style="fill: #b22222; stroke: #b22222"/>
     <use xlink:href="#m58de5b85d6" x="209.303454" y="228.991673" style="fill: #b22222; stroke: #b22222"/>
     <use xlink:href="#m58de5b85d6" x="211.522773" y="223.030786" style="fill: #b22222; stroke: #b22222"/>
     <use xlink:href="#m58de5b85d6" x="196.947372" y="214.965543" style="fill: #b22222; stroke: #b22222"/>
     <use xlink:href="#m58de5b85d6" x="212.772515" y="241.190028" style="fill: #b22222; stroke: #b22222"/>
     <use xlink:href="#m58de5b85d6" x="201.509126" y="197.488204" style="fill: #b22222; stroke: #b22222"/>
     <use xlink:href="#m58de5b85d6" x="156.99333" y="211.545773" style="fill: #b22222; stroke: #b22222"/>
     <use xlink:href="#m58de5b85d6" x="212.686045" y="248.120783" style="fill: #b22222; stroke: #b22222"/>
     <use xlink:href="#m58de5b85d6" x="170.065848" y="232.384043" style="fill: #b22222; stroke: #b22222"/>
     <use xlink:href="#m58de5b85d6" x="171.947336" y="198.754695" style="fill: #b22222; stroke: #b22222"/>
     <use xlink:href="#m58de5b85d6" x="192.872783" y="201.243724" style="fill: #b22222; stroke: #b22222"/>
     <use xlink:href="#m58de5b85d6" x="227.203079" y="248.435999" style="fill: #b22222; stroke: #b22222"/>
     <use xlink:href="#m58de5b85d6" x="204.896529" y="244.182958" style="fill: #b22222; stroke: #b22222"/>
     <use xlink:href="#m58de5b85d6" x="204.459458" y="212.168184" style="fill: #b22222; stroke: #b22222"/>
     <use xlink:href="#m58de5b85d6" x="188.528877" y="213.064208" style="fill: #b22222; stroke: #b22222"/>
     <use xlink:href="#m58de5b85d6" x="199.802377" y="200.810572" style="fill: #b22222; stroke: #b22222"/>
     <use xlink:href="#m58de5b85d6" x="195.478842" y="232.287837" style="fill: #b22222; stroke: #b22222"/>
     <use xlink:href="#m58de5b85d6" x="179.43376" y="200.60353" style="fill: #b22222; stroke: #b22222"/>
     <use xlink:href="#m58de5b85d6" x="146.062311" y="226.31864" style="fill: #b22222; stroke: #b22222"/>
     <use xlink:href="#m58de5b85d6" x="163.943511" y="208.834815" style="fill: #b22222; stroke: #b22222"/>
     <use xlink:href="#m58de5b85d6" x="185.375125" y="194.923014" style="fill: #b22222; stroke: #b22222"/>
     <use xlink:href="#m58de5b85d6" x="186.218169" y="258.204712" style="fill: #b22222; stroke: #b22222"/>
     <use xlink:href="#m58de5b85d6" x="172.749112" y="241.116805" style="fill: #b22222; stroke: #b22222"/>
     <use xlink:href="#m58de5b85d6" x="242.810654" y="235.257473" style="fill: #b22222; stroke: #b22222"/>
     <use xlink:href="#m58de5b85d6" x="183.662962" y="203.963202" style="fill: #b22222; stroke: #b22222"/>
     <use xlink:href="#m58de5b85d6" x="169.022206" y="247.699656" style="fill: #b22222; stroke: #b22222"/>
     <use xlink:href="#m58de5b85d6" x="176.797944" y="232.856698" style="fill: #b22222; stroke: #b22222"/>
     <use xlink:href="#m58de5b85d6" x="198.135055" y="229.737334" style="fill: #b22222; stroke: #b22222"/>
     <use xlink:href="#m58de5b85d6" x="201.584354" y="234.639164" style="fill: #b22222; stroke: #b22222"/>
     <use xlink:href="#m58de5b85d6" x="186.860243" y="259.941435" style="fill: #b22222; stroke: #b22222"/>
     <use xlink:href="#m58de5b85d6" x="250.218937" y="240.746113" style="fill: #b22222; stroke: #b22222"/>
     <use xlink:href="#m58de5b85d6" x="196.664176" y="231.194196" style="fill: #b22222; stroke: #b22222"/>
     <use xlink:href="#m58de5b85d6" x="210.986984" y="247.169003" style="fill: #b22222; stroke: #b22222"/>
     <use xlink:href="#m58de5b85d6" x="150.529386" y="218.768487" style="fill: #b22222; stroke: #b22222"/>
     <use xlink:href="#m58de5b85d6" x="155.462815" y="228.063692" style="fill: #b22222; stroke: #b22222"/>
     <use xlink:href="#m58de5b85d6" x="215.850687" y="247.647114" style="fill: #b22222; stroke: #b22222"/>
     <use xlink:href="#m58de5b85d6" x="173.123393" y="255.155715" style="fill: #b22222; stroke: #b22222"/>
     <use xlink:href="#m58de5b85d6" x="201.197378" y="213.500535" style="fill: #b22222; stroke: #b22222"/>
     <use xlink:href="#m58de5b85d6" x="166.535453" y="236.673878" style="fill: #b22222; stroke: #b22222"/>
     <use xlink:href="#m58de5b85d6" x="207.790257" y="259.983519" style="fill: #b22222; stroke: #b22222"/>
     <use xlink:href="#m58de5b85d6" x="170.891946" y="210.302831" style="fill: #b22222; stroke: #b22222"/>
     <use xlink:href="#m58de5b85d6" x="177.306297" y="194.091306" style="fill: #b22222; stroke: #b22222"/>
     <use xlink:href="#m58de5b85d6" x="170.274168" y="226.016838" style="fill: #b22222; stroke: #b22222"/>
     <use xlink:href="#m58de5b85d6" x="181.024154" y="255.151021" style="fill: #b22222; stroke: #b22222"/>
     <use xlink:href="#m58de5b85d6" x="189.246491" y="201.904314" style="fill: #b22222; stroke: #b22222"/>
     <use xlink:href="#m58de5b85d6" x="192.977091" y="193.588593" style="fill: #b22222; stroke: #b22222"/>
     <use xlink:href="#m58de5b85d6" x="156.291871" y="228.788694" style="fill: #b22222; stroke: #b22222"/>
     <use xlink:href="#m58de5b85d6" x="211.067721" y="248.063856" style="fill: #b22222; stroke: #b22222"/>
     <use xlink:href="#m58de5b85d6" x="207.834734" y="219.626008" style="fill: #b22222; stroke: #b22222"/>
     <use xlink:href="#m58de5b85d6" x="200.514949" y="258.21597" style="fill: #b22222; stroke: #b22222"/>
     <use xlink:href="#m58de5b85d6" x="191.432595" y="197.822079" style="fill: #b22222; stroke: #b22222"/>
     <use xlink:href="#m58de5b85d6" x="209.168306" y="241.877901" style="fill: #b22222; stroke: #b22222"/>
     <use xlink:href="#m58de5b85d6" x="194.252861" y="196.248495" style="fill: #b22222; stroke: #b22222"/>
     <use xlink:href="#m58de5b85d6" x="150.433652" y="224.285048" style="fill: #b22222; stroke: #b22222"/>
     <use xlink:href="#m58de5b85d6" x="202.233893" y="235.136674" style="fill: #b22222; stroke: #b22222"/>
     <use xlink:href="#m58de5b85d6" x="157.199999" y="221.791767" style="fill: #b22222; stroke: #b22222"/>
     <use xlink:href="#m58de5b85d6" x="165.787798" y="241.344301" style="fill: #b22222; stroke: #b22222"/>
     <use xlink:href="#m58de5b85d6" x="203.600517" y="240.365295" style="fill: #b22222; stroke: #b22222"/>
     <use xlink:href="#m58de5b85d6" x="205.453386" y="224.844895" style="fill: #b22222; stroke: #b22222"/>
     <use xlink:href="#m58de5b85d6" x="187.640382" y="201.429512" style="fill: #b22222; stroke: #b22222"/>
     <use xlink:href="#m58de5b85d6" x="205.601636" y="256.741768" style="fill: #b22222; stroke: #b22222"/>
     <use xlink:href="#m58de5b85d6" x="213.991755" y="255.319521" style="fill: #b22222; stroke: #b22222"/>
     <use xlink:href="#m58de5b85d6" x="314.500773" y="223.082823" style="fill: #b22222; stroke: #b22222"/>
     <use xlink:href="#m58de5b85d6" x="200.085146" y="257.449423" style="fill: #b22222; stroke: #b22222"/>
     <use xlink:href="#m58de5b85d6" x="204.205505" y="247.957103" style="fill: #b22222; stroke: #b22222"/>
     <use xlink:href="#m58de5b85d6" x="194.800859" y="234.765217" style="fill: #b22222; stroke: #b22222"/>
     <use xlink:href="#m58de5b85d6" x="158.65737" y="202.014791" style="fill: #b22222; stroke: #b22222"/>
     <use xlink:href="#m58de5b85d6" x="199.465602" y="229.768183" style="fill: #b22222; stroke: #b22222"/>
     <use xlink:href="#m58de5b85d6" x="178.331423" y="198.423229" style="fill: #b22222; stroke: #b22222"/>
     <use xlink:href="#m58de5b85d6" x="299.836688" y="231.363091" style="fill: #b22222; stroke: #b22222"/>
     <use xlink:href="#m58de5b85d6" x="201.148665" y="254.158422" style="fill: #b22222; stroke: #b22222"/>
     <use xlink:href="#m58de5b85d6" x="179.170278" y="248.159643" style="fill: #b22222; stroke: #b22222"/>
     <use xlink:href="#m58de5b85d6" x="177.022336" y="250.08823" style="fill: #b22222; stroke: #b22222"/>
     <use xlink:href="#m58de5b85d6" x="177.156869" y="244.454996" style="fill: #b22222; stroke: #b22222"/>
     <use xlink:href="#m58de5b85d6" x="200.56488" y="255.8589" style="fill: #b22222; stroke: #b22222"/>
     <use xlink:href="#m58de5b85d6" x="229.130888" y="258.248819" style="fill: #b22222; stroke: #b22222"/>
     <use xlink:href="#m58de5b85d6" x="194.712535" y="196.502611" style="fill: #b22222; stroke: #b22222"/>
     <use xlink:href="#m58de5b85d6" x="200.502016" y="248.584951" style="fill: #b22222; stroke: #b22222"/>
     <use xlink:href="#m58de5b85d6" x="214.277604" y="216.042728" style="fill: #b22222; stroke: #b22222"/>
     <use xlink:href="#m58de5b85d6" x="149.017712" y="217.809759" style="fill: #b22222; stroke: #b22222"/>
     <use xlink:href="#m58de5b85d6" x="171.689654" y="232.978737" style="fill: #b22222; stroke: #b22222"/>
     <use xlink:href="#m58de5b85d6" x="171.883904" y="238.112561" style="fill: #b22222; stroke: #b22222"/>
     <use xlink:href="#m58de5b85d6" x="197.332427" y="212.278563" style="fill: #b22222; stroke: #b22222"/>
     <use xlink:href="#m58de5b85d6" x="217.790653" y="257.229404" style="fill: #b22222; stroke: #b22222"/>
     <use xlink:href="#m58de5b85d6" x="213.00626" y="262.58165" style="fill: #b22222; stroke: #b22222"/>
     <use xlink:href="#m58de5b85d6" x="212.204931" y="205.805058" style="fill: #b22222; stroke: #b22222"/>
     <use xlink:href="#m58de5b85d6" x="190.732651" y="213.862171" style="fill: #b22222; stroke: #b22222"/>
    </g>
   </g>
   <g id="patch_4">
    <path d="M 56.450156 450.72 
L 56.450156 7.2 
" style="fill: none; stroke: #ffffff; stroke-width: 1.25; stroke-linejoin: miter; stroke-linecap: square"/>
   </g>
   <g id="patch_5">
    <path d="M 499.970156 450.72 
L 499.970156 7.2 
" style="fill: none; stroke: #ffffff; stroke-width: 1.25; stroke-linejoin: miter; stroke-linecap: square"/>
   </g>
   <g id="patch_6">
    <path d="M 56.450156 450.72 
L 499.970156 450.72 
" style="fill: none; stroke: #ffffff; stroke-width: 1.25; stroke-linejoin: miter; stroke-linecap: square"/>
   </g>
   <g id="patch_7">
    <path d="M 56.450156 7.2 
L 499.970156 7.2 
" style="fill: none; stroke: #ffffff; stroke-width: 1.25; stroke-linejoin: miter; stroke-linecap: square"/>
   </g>
   <g id="text_13">
    <!-- t = 4400 -->
    <g style="fill: #262626" transform="translate(65.320556 24.659775) scale(0.12 -0.12)">
     <defs>
      <path id="ArialMT-74" d="M 1650 503 
L 1731 6 
Q 1494 -44 1306 -44 
Q 1000 -44 831 53 
Q 663 150 594 308 
Q 525 466 525 972 
L 525 2881 
L 113 2881 
L 113 3319 
L 525 3319 
L 525 4141 
L 1084 4478 
L 1084 3319 
L 1650 3319 
L 1650 2881 
L 1084 2881 
L 1084 941 
Q 1084 700 1114 631 
Q 1144 563 1211 522 
Q 1278 481 1403 481 
Q 1497 481 1650 503 
z
" transform="scale(0.015625)"/>
      <path id="ArialMT-20" transform="scale(0.015625)"/>
      <path id="ArialMT-3d" d="M 3381 2694 
L 356 2694 
L 356 3219 
L 3381 3219 
L 3381 2694 
z
M 3381 1303 
L 356 1303 
L 356 1828 
L 3381 1828 
L 3381 1303 
z
" transform="scale(0.015625)"/>
     </defs>
     <use xlink:href="#ArialMT-74"/>
     <use xlink:href="#ArialMT-20" x="27.783203"/>
     <use xlink:href="#ArialMT-3d" x="55.566406"/>
     <use xlink:href="#ArialMT-20" x="113.964844"/>
     <use xlink:href="#ArialMT-34" x="141.748047"/>
     <use xlink:href="#ArialMT-34" x="197.363281"/>
     <use xlink:href="#ArialMT-30" x="252.978516"/>
     <use xlink:href="#ArialMT-30" x="308.59375"/>
    </g>
   </g>
   <g id="legend_1">
    <g id="patch_8">
     <path d="M 328.111406 94.59 
L 483.170156 94.59 
Q 487.970156 94.59 487.970156 89.79 
L 487.970156 24 
Q 487.970156 19.2 483.170156 19.2 
L 328.111406 19.2 
Q 323.311406 19.2 323.311406 24 
L 323.311406 89.79 
Q 323.311406 94.59 328.111406 94.59 
z
" style="fill: #eaeaf2; opacity: 0.8; stroke: #cccccc; stroke-linejoin: miter"/>
    </g>
    <g id="PathCollection_3">
     <g>
      <use xlink:href="#m2f94954de3" x="356.911406" y="39.97125" style="fill: #4169e1; stroke: #4169e1"/>
     </g>
    </g>
    <g id="text_14">
     <!-- Sheep -->
     <g style="fill: #262626" transform="translate(400.111406 46.27125) scale(0.24 -0.24)">
      <defs>
       <path id="ArialMT-53" d="M 288 1472 
L 859 1522 
Q 900 1178 1048 958 
Q 1197 738 1509 602 
Q 1822 466 2213 466 
Q 2559 466 2825 569 
Q 3091 672 3220 851 
Q 3350 1031 3350 1244 
Q 3350 1459 3225 1620 
Q 3100 1781 2813 1891 
Q 2628 1963 1997 2114 
Q 1366 2266 1113 2400 
Q 784 2572 623 2826 
Q 463 3081 463 3397 
Q 463 3744 659 4045 
Q 856 4347 1234 4503 
Q 1613 4659 2075 4659 
Q 2584 4659 2973 4495 
Q 3363 4331 3572 4012 
Q 3781 3694 3797 3291 
L 3216 3247 
Q 3169 3681 2898 3903 
Q 2628 4125 2100 4125 
Q 1550 4125 1298 3923 
Q 1047 3722 1047 3438 
Q 1047 3191 1225 3031 
Q 1400 2872 2139 2705 
Q 2878 2538 3153 2413 
Q 3553 2228 3743 1945 
Q 3934 1663 3934 1294 
Q 3934 928 3725 604 
Q 3516 281 3123 101 
Q 2731 -78 2241 -78 
Q 1619 -78 1198 103 
Q 778 284 539 648 
Q 300 1013 288 1472 
z
" transform="scale(0.015625)"/>
       <path id="ArialMT-68" d="M 422 0 
L 422 4581 
L 984 4581 
L 984 2938 
Q 1378 3394 1978 3394 
Q 2347 3394 2619 3248 
Q 2891 3103 3008 2847 
Q 3125 2591 3125 2103 
L 3125 0 
L 2563 0 
L 2563 2103 
Q 2563 2525 2380 2717 
Q 2197 2909 1863 2909 
Q 1613 2909 1392 2779 
Q 1172 2650 1078 2428 
Q 984 2206 984 1816 
L 984 0 
L 422 0 
z
" transform="scale(0.015625)"/>
       <path id="ArialMT-65" d="M 2694 1069 
L 3275 997 
Q 3138 488 2766 206 
Q 2394 -75 1816 -75 
Q 1088 -75 661 373 
Q 234 822 234 1631 
Q 234 2469 665 2931 
Q 1097 3394 1784 3394 
Q 2450 3394 2872 2941 
Q 3294 2488 3294 1666 
Q 3294 1616 3291 1516 
L 816 1516 
Q 847 969 1125 678 
Q 1403 388 1819 388 
Q 2128 388 2347 550 
Q 2566 713 2694 1069 
z
M 847 1978 
L 2700 1978 
Q 2663 2397 2488 2606 
Q 2219 2931 1791 2931 
Q 1403 2931 1139 2672 
Q 875 2413 847 1978 
z
" transform="scale(0.015625)"/>
       <path id="ArialMT-70" d="M 422 -1272 
L 422 3319 
L 934 3319 
L 934 2888 
Q 1116 3141 1344 3267 
Q 1572 3394 1897 3394 
Q 2322 3394 2647 3175 
Q 2972 2956 3137 2557 
Q 3303 2159 3303 1684 
Q 3303 1175 3120 767 
Q 2938 359 2589 142 
Q 2241 -75 1856 -75 
Q 1575 -75 1351 44 
Q 1128 163 984 344 
L 984 -1272 
L 422 -1272 
z
M 931 1641 
Q 931 1000 1190 694 
Q 1450 388 1819 388 
Q 2194 388 2461 705 
Q 2728 1022 2728 1688 
Q 2728 2322 2467 2637 
Q 2206 2953 1844 2953 
Q 1484 2953 1207 2617 
Q 931 2281 931 1641 
z
" transform="scale(0.015625)"/>
      </defs>
      <use xlink:href="#ArialMT-53"/>
      <use xlink:href="#ArialMT-68" x="66.699219"/>
      <use xlink:href="#ArialMT-65" x="122.314453"/>
      <use xlink:href="#ArialMT-65" x="177.929688"/>
      <use xlink:href="#ArialMT-70" x="233.544922"/>
     </g>
    </g>
    <g id="PathCollection_4">
     <g>
      <use xlink:href="#m58de5b85d6" x="356.911406" y="73.92" style="fill: #b22222; stroke: #b22222"/>
     </g>
    </g>
    <g id="text_15">
     <!-- Wolves -->
     <g style="fill: #262626" transform="translate(400.111406 80.22) scale(0.24 -0.24)">
      <defs>
       <path id="ArialMT-57" d="M 1294 0 
L 78 4581 
L 700 4581 
L 1397 1578 
Q 1509 1106 1591 641 
Q 1766 1375 1797 1488 
L 2669 4581 
L 3400 4581 
L 4056 2263 
Q 4303 1400 4413 641 
Q 4500 1075 4641 1638 
L 5359 4581 
L 5969 4581 
L 4713 0 
L 4128 0 
L 3163 3491 
Q 3041 3928 3019 4028 
Q 2947 3713 2884 3491 
L 1913 0 
L 1294 0 
z
" transform="scale(0.015625)"/>
       <path id="ArialMT-6f" d="M 213 1659 
Q 213 2581 725 3025 
Q 1153 3394 1769 3394 
Q 2453 3394 2887 2945 
Q 3322 2497 3322 1706 
Q 3322 1066 3130 698 
Q 2938 331 2570 128 
Q 2203 -75 1769 -75 
Q 1072 -75 642 372 
Q 213 819 213 1659 
z
M 791 1659 
Q 791 1022 1069 705 
Q 1347 388 1769 388 
Q 2188 388 2466 706 
Q 2744 1025 2744 1678 
Q 2744 2294 2464 2611 
Q 2184 2928 1769 2928 
Q 1347 2928 1069 2612 
Q 791 2297 791 1659 
z
" transform="scale(0.015625)"/>
       <path id="ArialMT-6c" d="M 409 0 
L 409 4581 
L 972 4581 
L 972 0 
L 409 0 
z
" transform="scale(0.015625)"/>
       <path id="ArialMT-76" d="M 1344 0 
L 81 3319 
L 675 3319 
L 1388 1331 
Q 1503 1009 1600 663 
Q 1675 925 1809 1294 
L 2547 3319 
L 3125 3319 
L 1869 0 
L 1344 0 
z
" transform="scale(0.015625)"/>
       <path id="ArialMT-73" d="M 197 991 
L 753 1078 
Q 800 744 1014 566 
Q 1228 388 1613 388 
Q 2000 388 2187 545 
Q 2375 703 2375 916 
Q 2375 1106 2209 1216 
Q 2094 1291 1634 1406 
Q 1016 1563 777 1677 
Q 538 1791 414 1992 
Q 291 2194 291 2438 
Q 291 2659 392 2848 
Q 494 3038 669 3163 
Q 800 3259 1026 3326 
Q 1253 3394 1513 3394 
Q 1903 3394 2198 3281 
Q 2494 3169 2634 2976 
Q 2775 2784 2828 2463 
L 2278 2388 
Q 2241 2644 2061 2787 
Q 1881 2931 1553 2931 
Q 1166 2931 1000 2803 
Q 834 2675 834 2503 
Q 834 2394 903 2306 
Q 972 2216 1119 2156 
Q 1203 2125 1616 2013 
Q 2213 1853 2448 1751 
Q 2684 1650 2818 1456 
Q 2953 1263 2953 975 
Q 2953 694 2789 445 
Q 2625 197 2315 61 
Q 2006 -75 1616 -75 
Q 969 -75 630 194 
Q 291 463 197 991 
z
" transform="scale(0.015625)"/>
      </defs>
      <use xlink:href="#ArialMT-57"/>
      <use xlink:href="#ArialMT-6f" x="92.634766"/>
      <use xlink:href="#ArialMT-6c" x="148.25"/>
      <use xlink:href="#ArialMT-76" x="170.466797"/>
      <use xlink:href="#ArialMT-65" x="220.466797"/>
      <use xlink:href="#ArialMT-73" x="276.082031"/>
     </g>
    </g>
   </g>
  </g>
 </g>
 <defs>
  <clipPath id="p6a81822eb5">
   <rect x="56.450156" y="7.2" width="443.52" height="443.52"/>
  </clipPath>
 </defs>
</svg>
