<?xml version="1.0" encoding="utf-8" standalone="no"?>
<!DOCTYPE svg PUBLIC "-//W3C//DTD SVG 1.1//EN"
  "http://www.w3.org/Graphics/SVG/1.1/DTD/svg11.dtd">
<svg xmlns:xlink="http://www.w3.org/1999/xlink" width="507.170156pt" height="492.454219pt" viewBox="0 0 507.170156 492.454219" xmlns="http://www.w3.org/2000/svg" version="1.1">
 <metadata>
  <rdf:RDF xmlns:dc="http://purl.org/dc/elements/1.1/" xmlns:cc="http://creativecommons.org/ns#" xmlns:rdf="http://www.w3.org/1999/02/22-rdf-syntax-ns#">
   <cc:Work>
    <dc:type rdf:resource="http://purl.org/dc/dcmitype/StillImage"/>
    <dc:date>2026-05-12T10:49:58.064280</dc:date>
    <dc:format>image/svg+xml</dc:format>
    <dc:creator>
     <cc:Agent>
      <dc:title>Matplotlib v3.7.1, https://matplotlib.org/</dc:title>
     </cc:Agent>
    </dc:creator>
   </cc:Work>
  </rdf:RDF>
 </metadata>
 <defs>
  <style type="text/css">*{stroke-linejoin: round; stroke-linecap: butt}</style>
 </defs>
 <g id="figure_1">
  <g id="patch_1">
   <path d="M 0 492.454219 
L 507.170156 492.454219 
L 507.170156 0 
L 0 0 
z
" style="fill: #ffffff"/>
  </g>
  <g id="axes_1">
   <g id="patch_2">
    <path d="M 56.450156 450.72 
L 499.970156 450.72 
L 499.970156 7.2 
L 56.450156 7.2 
z
" style="fill: #eaeaf2"/>
   </g>
   <g id="matplotlib.axis_1">
    <g id="xtick_1">
     <g id="line2d_1">
      <path d="M 100.802156 450.72 
L 100.802156 7.2 
" clip-path="url(#p8c769d094c)" style="fill: none; stroke: #ffffff; stroke-linecap: round"/>
     </g>
     <g id="text_1">
      <!-- −400 -->
      <g style="fill: #262626" transform="translate(88.414266 468.093594) scale(0.11 -0.11)">
       <defs>
        <path id="ArialMT-2212" d="M 3381 1997 
L 356 1997 
L 356 2522 
L 3381 2522 
L 3381 1997 
z
" transform="scale(0.015625)"/>
        <path id="ArialMT-34" d="M 2069 0 
L 2069 1097 
L 81 1097 
L 81 1613 
L 2172 4581 
L 2631 4581 
L 2631 1613 
L 3250 1613 
L 3250 1097 
L 2631 1097 
L 2631 0 
L 2069 0 
z
M 2069 1613 
L 2069 3678 
L 634 1613 
L 2069 1613 
z
" transform="scale(0.015625)"/>
        <path id="ArialMT-30" d="M 266 2259 
Q 266 3072 433 3567 
Q 600 4063 929 4331 
Q 1259 4600 1759 4600 
Q 2128 4600 2406 4451 
Q 2684 4303 2865 4023 
Q 3047 3744 3150 3342 
Q 3253 2941 3253 2259 
Q 3253 1453 3087 958 
Q 2922 463 2592 192 
Q 2263 -78 1759 -78 
Q 1097 -78 719 397 
Q 266 969 266 2259 
z
M 844 2259 
Q 844 1131 1108 757 
Q 1372 384 1759 384 
Q 2147 384 2411 759 
Q 2675 1134 2675 2259 
Q 2675 3391 2411 3762 
Q 2147 4134 1753 4134 
Q 1366 4134 1134 3806 
Q 844 3388 844 2259 
z
" transform="scale(0.015625)"/>
       </defs>
       <use xlink:href="#ArialMT-2212"/>
       <use xlink:href="#ArialMT-34" x="58.398438"/>
       <use xlink:href="#ArialMT-30" x="114.013672"/>
       <use xlink:href="#ArialMT-30" x="169.628906"/>
      </g>
     </g>
    </g>
    <g id="xtick_2">
     <g id="line2d_2">
      <path d="M 189.506156 450.72 
L 189.506156 7.2 
" clip-path="url(#p8c769d094c)" style="fill: none; stroke: #ffffff; stroke-linecap: round"/>
     </g>
     <g id="text_2">
      <!-- −200 -->
      <g style="fill: #262626" transform="translate(177.118266 468.093594) scale(0.11 -0.11)">
       <defs>
        <path id="ArialMT-32" d="M 3222 541 
L 3222 0 
L 194 0 
Q 188 203 259 391 
Q 375 700 629 1000 
Q 884 1300 1366 1694 
Q 2113 2306 2375 2664 
Q 2638 3022 2638 3341 
Q 2638 3675 2398 3904 
Q 2159 4134 1775 4134 
Q 1369 4134 1125 3890 
Q 881 3647 878 3216 
L 300 3275 
Q 359 3922 746 4261 
Q 1134 4600 1788 4600 
Q 2447 4600 2831 4234 
Q 3216 3869 3216 3328 
Q 3216 3053 3103 2787 
Q 2991 2522 2730 2228 
Q 2469 1934 1863 1422 
Q 1356 997 1212 845 
Q 1069 694 975 541 
L 3222 541 
z
" transform="scale(0.015625)"/>
       </defs>
       <use xlink:href="#ArialMT-2212"/>
       <use xlink:href="#ArialMT-32" x="58.398438"/>
       <use xlink:href="#ArialMT-30" x="114.013672"/>
       <use xlink:href="#ArialMT-30" x="169.628906"/>
      </g>
     </g>
    </g>
    <g id="xtick_3">
     <g id="line2d_3">
      <path d="M 278.210156 450.72 
L 278.210156 7.2 
" clip-path="url(#p8c769d094c)" style="fill: none; stroke: #ffffff; stroke-linecap: round"/>
     </g>
     <g id="text_3">
      <!-- 0 -->
      <g style="fill: #262626" transform="translate(275.151641 468.093594) scale(0.11 -0.11)">
       <use xlink:href="#ArialMT-30"/>
      </g>
     </g>
    </g>
    <g id="xtick_4">
     <g id="line2d_4">
      <path d="M 366.914156 450.72 
L 366.914156 7.2 
" clip-path="url(#p8c769d094c)" style="fill: none; stroke: #ffffff; stroke-linecap: round"/>
     </g>
     <g id="text_4">
      <!-- 200 -->
      <g style="fill: #262626" transform="translate(357.738609 468.093594) scale(0.11 -0.11)">
       <use xlink:href="#ArialMT-32"/>
       <use xlink:href="#ArialMT-30" x="55.615234"/>
       <use xlink:href="#ArialMT-30" x="111.230469"/>
      </g>
     </g>
    </g>
    <g id="xtick_5">
     <g id="line2d_5">
      <path d="M 455.618156 450.72 
L 455.618156 7.2 
" clip-path="url(#p8c769d094c)" style="fill: none; stroke: #ffffff; stroke-linecap: round"/>
     </g>
     <g id="text_5">
      <!-- 400 -->
      <g style="fill: #262626" transform="translate(446.442609 468.093594) scale(0.11 -0.11)">
       <use xlink:href="#ArialMT-34"/>
       <use xlink:href="#ArialMT-30" x="55.615234"/>
       <use xlink:href="#ArialMT-30" x="111.230469"/>
      </g>
     </g>
    </g>
    <g id="text_6">
     <!-- x -->
     <g style="fill: #262626" transform="translate(275.210156 482.869219) scale(0.12 -0.12)">
      <defs>
       <path id="ArialMT-78" d="M 47 0 
L 1259 1725 
L 138 3319 
L 841 3319 
L 1350 2541 
Q 1494 2319 1581 2169 
Q 1719 2375 1834 2534 
L 2394 3319 
L 3066 3319 
L 1919 1756 
L 3153 0 
L 2463 0 
L 1781 1031 
L 1600 1309 
L 728 0 
L 47 0 
z
" transform="scale(0.015625)"/>
      </defs>
      <use xlink:href="#ArialMT-78"/>
     </g>
    </g>
   </g>
   <g id="matplotlib.axis_2">
    <g id="ytick_1">
     <g id="line2d_6">
      <path d="M 56.450156 406.368 
L 499.970156 406.368 
" clip-path="url(#p8c769d094c)" style="fill: none; stroke: #ffffff; stroke-linecap: round"/>
     </g>
     <g id="text_7">
      <!-- −400 -->
      <g style="fill: #262626" transform="translate(22.174375 410.304797) scale(0.11 -0.11)">
       <use xlink:href="#ArialMT-2212"/>
       <use xlink:href="#ArialMT-34" x="58.398438"/>
       <use xlink:href="#ArialMT-30" x="114.013672"/>
       <use xlink:href="#ArialMT-30" x="169.628906"/>
      </g>
     </g>
    </g>
    <g id="ytick_2">
     <g id="line2d_7">
      <path d="M 56.450156 317.664 
L 499.970156 317.664 
" clip-path="url(#p8c769d094c)" style="fill: none; stroke: #ffffff; stroke-linecap: round"/>
     </g>
     <g id="text_8">
      <!-- −200 -->
      <g style="fill: #262626" transform="translate(22.174375 321.600797) scale(0.11 -0.11)">
       <use xlink:href="#ArialMT-2212"/>
       <use xlink:href="#ArialMT-32" x="58.398438"/>
       <use xlink:href="#ArialMT-30" x="114.013672"/>
       <use xlink:href="#ArialMT-30" x="169.628906"/>
      </g>
     </g>
    </g>
    <g id="ytick_3">
     <g id="line2d_8">
      <path d="M 56.450156 228.96 
L 499.970156 228.96 
" clip-path="url(#p8c769d094c)" style="fill: none; stroke: #ffffff; stroke-linecap: round"/>
     </g>
     <g id="text_9">
      <!-- 0 -->
      <g style="fill: #262626" transform="translate(40.833125 232.896797) scale(0.11 -0.11)">
       <use xlink:href="#ArialMT-30"/>
      </g>
     </g>
    </g>
    <g id="ytick_4">
     <g id="line2d_9">
      <path d="M 56.450156 140.256 
L 499.970156 140.256 
" clip-path="url(#p8c769d094c)" style="fill: none; stroke: #ffffff; stroke-linecap: round"/>
     </g>
     <g id="text_10">
      <!-- 200 -->
      <g style="fill: #262626" transform="translate(28.599063 144.192797) scale(0.11 -0.11)">
       <use xlink:href="#ArialMT-32"/>
       <use xlink:href="#ArialMT-30" x="55.615234"/>
       <use xlink:href="#ArialMT-30" x="111.230469"/>
      </g>
     </g>
    </g>
    <g id="ytick_5">
     <g id="line2d_10">
      <path d="M 56.450156 51.552 
L 499.970156 51.552 
" clip-path="url(#p8c769d094c)" style="fill: none; stroke: #ffffff; stroke-linecap: round"/>
     </g>
     <g id="text_11">
      <!-- 400 -->
      <g style="fill: #262626" transform="translate(28.599063 55.488797) scale(0.11 -0.11)">
       <use xlink:href="#ArialMT-34"/>
       <use xlink:href="#ArialMT-30" x="55.615234"/>
       <use xlink:href="#ArialMT-30" x="111.230469"/>
      </g>
     </g>
    </g>
    <g id="text_12">
     <!-- y -->
     <g style="fill: #262626" transform="translate(15.64875 231.96) rotate(-90) scale(0.12 -0.12)">
      <defs>
       <path id="ArialMT-79" d="M 397 -1278 
L 334 -750 
Q 519 -800 656 -800 
Q 844 -800 956 -737 
Q 1069 -675 1141 -563 
Q 1194 -478 1313 -144 
Q 1328 -97 1363 -6 
L 103 3319 
L 709 3319 
L 1400 1397 
Q 1534 1031 1641 628 
Q 1738 1016 1872 1384 
L 2581 3319 
L 3144 3319 
L 1881 -56 
Q 1678 -603 1566 -809 
Q 1416 -1088 1222 -1217 
Q 1028 -1347 759 -1347 
Q 597 -1347 397 -1278 
z
" transform="scale(0.015625)"/>
      </defs>
      <use xlink:href="#ArialMT-79"/>
     </g>
    </g>
   </g>
   <g id="patch_3">
    <path d="M 278.210156 317.664 
C 301.734732 317.664 324.298969 308.317587 340.933356 291.6832 
C 357.567743 275.048813 366.914156 252.484576 366.914156 228.96 
C 366.914156 205.435424 357.567743 182.871187 340.933356 166.2368 
C 324.298969 149.602413 301.734732 140.256 278.210156 140.256 
C 254.68558 140.256 232.121343 149.602413 215.486956 166.2368 
C 198.852569 182.871187 189.506156 205.435424 189.506156 228.96 
C 189.506156 252.484576 198.852569 275.048813 215.486956 291.6832 
C 232.121343 308.317587 254.68558 317.664 278.210156 317.664 
z
" clip-path="url(#p8c769d094c)" style="fill: #228b22; opacity: 0.12; stroke: #228b22; stroke-width: 1.5; stroke-linejoin: miter"/>
   </g>
   <g id="PathCollection_1">
    <defs>
     <path id="m2bdd69c032" d="M 0 2.236068 
C 0.593012 2.236068 1.161816 2.000462 1.581139 1.581139 
C 2.000462 1.161816 2.236068 0.593012 2.236068 0 
C 2.236068 -0.593012 2.000462 -1.161816 1.581139 -1.581139 
C 1.161816 -2.000462 0.593012 -2.236068 0 -2.236068 
C -0.593012 -2.236068 -1.161816 -2.000462 -1.581139 -1.581139 
C -2.000462 -1.161816 -2.236068 -0.593012 -2.236068 0 
C -2.236068 0.593012 -2.000462 1.161816 -1.581139 1.581139 
C -1.161816 2.000462 -0.593012 2.236068 0 2.236068 
z
" style="stroke: #4169e1"/>
    </defs>
    <g clip-path="url(#p8c769d094c)">
     <use xlink:href="#m2bdd69c032" x="355.173159" y="190.489232" style="fill: #4169e1; stroke: #4169e1"/>
     <use xlink:href="#m2bdd69c032" x="399.547689" y="198.328199" style="fill: #4169e1; stroke: #4169e1"/>
     <use xlink:href="#m2bdd69c032" x="305.895312" y="121.893794" style="fill: #4169e1; stroke: #4169e1"/>
     <use xlink:href="#m2bdd69c032" x="298.768998" y="168.648413" style="fill: #4169e1; stroke: #4169e1"/>
     <use xlink:href="#m2bdd69c032" x="248.348685" y="280.390004" style="fill: #4169e1; stroke: #4169e1"/>
     <use xlink:href="#m2bdd69c032" x="304.402529" y="250.908085" style="fill: #4169e1; stroke: #4169e1"/>
     <use xlink:href="#m2bdd69c032" x="403.091829" y="202.042625" style="fill: #4169e1; stroke: #4169e1"/>
     <use xlink:href="#m2bdd69c032" x="372.849261" y="207.445829" style="fill: #4169e1; stroke: #4169e1"/>
     <use xlink:href="#m2bdd69c032" x="408.049256" y="163.324745" style="fill: #4169e1; stroke: #4169e1"/>
     <use xlink:href="#m2bdd69c032" x="292.93891" y="171.314852" style="fill: #4169e1; stroke: #4169e1"/>
     <use xlink:href="#m2bdd69c032" x="323.281976" y="157.714829" style="fill: #4169e1; stroke: #4169e1"/>
     <use xlink:href="#m2bdd69c032" x="430.093301" y="174.75712" style="fill: #4169e1; stroke: #4169e1"/>
     <use xlink:href="#m2bdd69c032" x="410.692063" y="200.129407" style="fill: #4169e1; stroke: #4169e1"/>
     <use xlink:href="#m2bdd69c032" x="230.045766" y="243.126927" style="fill: #4169e1; stroke: #4169e1"/>
     <use xlink:href="#m2bdd69c032" x="298.497877" y="186.256068" style="fill: #4169e1; stroke: #4169e1"/>
     <use xlink:href="#m2bdd69c032" x="317.174149" y="209.271635" style="fill: #4169e1; stroke: #4169e1"/>
     <use xlink:href="#m2bdd69c032" x="402.711829" y="174.872128" style="fill: #4169e1; stroke: #4169e1"/>
     <use xlink:href="#m2bdd69c032" x="300.106571" y="303.261003" style="fill: #4169e1; stroke: #4169e1"/>
     <use xlink:href="#m2bdd69c032" x="185.92495" y="256.624815" style="fill: #4169e1; stroke: #4169e1"/>
     <use xlink:href="#m2bdd69c032" x="309.633673" y="113.823613" style="fill: #4169e1; stroke: #4169e1"/>
     <use xlink:href="#m2bdd69c032" x="258.736959" y="344.453485" style="fill: #4169e1; stroke: #4169e1"/>
     <use xlink:href="#m2bdd69c032" x="296.47869" y="135.573689" style="fill: #4169e1; stroke: #4169e1"/>
     <use xlink:href="#m2bdd69c032" x="361.261415" y="73.59143" style="fill: #4169e1; stroke: #4169e1"/>
     <use xlink:href="#m2bdd69c032" x="391.84494" y="201.145976" style="fill: #4169e1; stroke: #4169e1"/>
     <use xlink:href="#m2bdd69c032" x="265.706044" y="265.865634" style="fill: #4169e1; stroke: #4169e1"/>
     <use xlink:href="#m2bdd69c032" x="325.621866" y="93.850879" style="fill: #4169e1; stroke: #4169e1"/>
     <use xlink:href="#m2bdd69c032" x="374.704985" y="120.956674" style="fill: #4169e1; stroke: #4169e1"/>
     <use xlink:href="#m2bdd69c032" x="279.527992" y="156.987294" style="fill: #4169e1; stroke: #4169e1"/>
     <use xlink:href="#m2bdd69c032" x="380.908527" y="306.557836" style="fill: #4169e1; stroke: #4169e1"/>
     <use xlink:href="#m2bdd69c032" x="424.62966" y="186.336423" style="fill: #4169e1; stroke: #4169e1"/>
     <use xlink:href="#m2bdd69c032" x="450.116427" y="159.742476" style="fill: #4169e1; stroke: #4169e1"/>
     <use xlink:href="#m2bdd69c032" x="311.263766" y="294.432082" style="fill: #4169e1; stroke: #4169e1"/>
     <use xlink:href="#m2bdd69c032" x="324.530652" y="213.869771" style="fill: #4169e1; stroke: #4169e1"/>
     <use xlink:href="#m2bdd69c032" x="345.962533" y="212.249823" style="fill: #4169e1; stroke: #4169e1"/>
     <use xlink:href="#m2bdd69c032" x="356.110076" y="208.698604" style="fill: #4169e1; stroke: #4169e1"/>
     <use xlink:href="#m2bdd69c032" x="318.635861" y="91.839122" style="fill: #4169e1; stroke: #4169e1"/>
     <use xlink:href="#m2bdd69c032" x="300.84547" y="113.246271" style="fill: #4169e1; stroke: #4169e1"/>
     <use xlink:href="#m2bdd69c032" x="221.038631" y="271.337356" style="fill: #4169e1; stroke: #4169e1"/>
     <use xlink:href="#m2bdd69c032" x="278.601075" y="339.424938" style="fill: #4169e1; stroke: #4169e1"/>
     <use xlink:href="#m2bdd69c032" x="176.468079" y="176.688695" style="fill: #4169e1; stroke: #4169e1"/>
     <use xlink:href="#m2bdd69c032" x="391.26707" y="141.211129" style="fill: #4169e1; stroke: #4169e1"/>
     <use xlink:href="#m2bdd69c032" x="282.495871" y="135.103146" style="fill: #4169e1; stroke: #4169e1"/>
     <use xlink:href="#m2bdd69c032" x="249.698441" y="241.675801" style="fill: #4169e1; stroke: #4169e1"/>
     <use xlink:href="#m2bdd69c032" x="172.681889" y="324.246126" style="fill: #4169e1; stroke: #4169e1"/>
     <use xlink:href="#m2bdd69c032" x="404.630208" y="256.912052" style="fill: #4169e1; stroke: #4169e1"/>
     <use xlink:href="#m2bdd69c032" x="446.90854" y="213.442285" style="fill: #4169e1; stroke: #4169e1"/>
     <use xlink:href="#m2bdd69c032" x="177.750623" y="233.483176" style="fill: #4169e1; stroke: #4169e1"/>
     <use xlink:href="#m2bdd69c032" x="197.866288" y="241.192841" style="fill: #4169e1; stroke: #4169e1"/>
     <use xlink:href="#m2bdd69c032" x="241.919306" y="268.554413" style="fill: #4169e1; stroke: #4169e1"/>
     <use xlink:href="#m2bdd69c032" x="235.502265" y="310.877148" style="fill: #4169e1; stroke: #4169e1"/>
     <use xlink:href="#m2bdd69c032" x="286.613515" y="270.701735" style="fill: #4169e1; stroke: #4169e1"/>
     <use xlink:href="#m2bdd69c032" x="319.513081" y="283.177596" style="fill: #4169e1; stroke: #4169e1"/>
     <use xlink:href="#m2bdd69c032" x="342.392446" y="253.89706" style="fill: #4169e1; stroke: #4169e1"/>
     <use xlink:href="#m2bdd69c032" x="406.672108" y="216.591496" style="fill: #4169e1; stroke: #4169e1"/>
     <use xlink:href="#m2bdd69c032" x="410.98208" y="261.938439" style="fill: #4169e1; stroke: #4169e1"/>
     <use xlink:href="#m2bdd69c032" x="286.195143" y="169.239879" style="fill: #4169e1; stroke: #4169e1"/>
     <use xlink:href="#m2bdd69c032" x="372.711683" y="146.166322" style="fill: #4169e1; stroke: #4169e1"/>
     <use xlink:href="#m2bdd69c032" x="287.617118" y="82.326465" style="fill: #4169e1; stroke: #4169e1"/>
     <use xlink:href="#m2bdd69c032" x="379.159243" y="262.176715" style="fill: #4169e1; stroke: #4169e1"/>
     <use xlink:href="#m2bdd69c032" x="251.894319" y="201.35896" style="fill: #4169e1; stroke: #4169e1"/>
     <use xlink:href="#m2bdd69c032" x="236.157803" y="303.541648" style="fill: #4169e1; stroke: #4169e1"/>
     <use xlink:href="#m2bdd69c032" x="280.02015" y="206.972107" style="fill: #4169e1; stroke: #4169e1"/>
     <use xlink:href="#m2bdd69c032" x="341.949366" y="241.379347" style="fill: #4169e1; stroke: #4169e1"/>
     <use xlink:href="#m2bdd69c032" x="285.877756" y="221.447932" style="fill: #4169e1; stroke: #4169e1"/>
     <use xlink:href="#m2bdd69c032" x="353.380414" y="165.173817" style="fill: #4169e1; stroke: #4169e1"/>
     <use xlink:href="#m2bdd69c032" x="286.833311" y="92.118596" style="fill: #4169e1; stroke: #4169e1"/>
     <use xlink:href="#m2bdd69c032" x="213.703781" y="305.42832" style="fill: #4169e1; stroke: #4169e1"/>
     <use xlink:href="#m2bdd69c032" x="423.379864" y="116.162001" style="fill: #4169e1; stroke: #4169e1"/>
     <use xlink:href="#m2bdd69c032" x="379.922633" y="255.922505" style="fill: #4169e1; stroke: #4169e1"/>
     <use xlink:href="#m2bdd69c032" x="403.652509" y="157.401659" style="fill: #4169e1; stroke: #4169e1"/>
     <use xlink:href="#m2bdd69c032" x="426.136055" y="244.416289" style="fill: #4169e1; stroke: #4169e1"/>
     <use xlink:href="#m2bdd69c032" x="344.606351" y="246.853867" style="fill: #4169e1; stroke: #4169e1"/>
     <use xlink:href="#m2bdd69c032" x="405.815048" y="288.95343" style="fill: #4169e1; stroke: #4169e1"/>
     <use xlink:href="#m2bdd69c032" x="299.386955" y="216.478835" style="fill: #4169e1; stroke: #4169e1"/>
     <use xlink:href="#m2bdd69c032" x="398.751429" y="192.464925" style="fill: #4169e1; stroke: #4169e1"/>
     <use xlink:href="#m2bdd69c032" x="305.935789" y="112.817829" style="fill: #4169e1; stroke: #4169e1"/>
     <use xlink:href="#m2bdd69c032" x="457.22685" y="252.87557" style="fill: #4169e1; stroke: #4169e1"/>
     <use xlink:href="#m2bdd69c032" x="366.224263" y="176.368836" style="fill: #4169e1; stroke: #4169e1"/>
     <use xlink:href="#m2bdd69c032" x="400.374213" y="313.932939" style="fill: #4169e1; stroke: #4169e1"/>
     <use xlink:href="#m2bdd69c032" x="299.392029" y="385.794143" style="fill: #4169e1; stroke: #4169e1"/>
     <use xlink:href="#m2bdd69c032" x="458.792299" y="128.894096" style="fill: #4169e1; stroke: #4169e1"/>
     <use xlink:href="#m2bdd69c032" x="337.932172" y="137.586806" style="fill: #4169e1; stroke: #4169e1"/>
     <use xlink:href="#m2bdd69c032" x="165.21765" y="119.368249" style="fill: #4169e1; stroke: #4169e1"/>
     <use xlink:href="#m2bdd69c032" x="298.740236" y="350.255452" style="fill: #4169e1; stroke: #4169e1"/>
     <use xlink:href="#m2bdd69c032" x="415.102967" y="165.302956" style="fill: #4169e1; stroke: #4169e1"/>
     <use xlink:href="#m2bdd69c032" x="290.08795" y="263.03864" style="fill: #4169e1; stroke: #4169e1"/>
     <use xlink:href="#m2bdd69c032" x="228.405651" y="163.671759" style="fill: #4169e1; stroke: #4169e1"/>
     <use xlink:href="#m2bdd69c032" x="449.266013" y="213.337125" style="fill: #4169e1; stroke: #4169e1"/>
     <use xlink:href="#m2bdd69c032" x="205.88936" y="215.641643" style="fill: #4169e1; stroke: #4169e1"/>
     <use xlink:href="#m2bdd69c032" x="415.388004" y="104.508759" style="fill: #4169e1; stroke: #4169e1"/>
     <use xlink:href="#m2bdd69c032" x="272.036753" y="241.376699" style="fill: #4169e1; stroke: #4169e1"/>
     <use xlink:href="#m2bdd69c032" x="202.281212" y="242.617215" style="fill: #4169e1; stroke: #4169e1"/>
     <use xlink:href="#m2bdd69c032" x="292.355426" y="227.670495" style="fill: #4169e1; stroke: #4169e1"/>
     <use xlink:href="#m2bdd69c032" x="389.045937" y="256.211807" style="fill: #4169e1; stroke: #4169e1"/>
     <use xlink:href="#m2bdd69c032" x="330.868661" y="283.859247" style="fill: #4169e1; stroke: #4169e1"/>
     <use xlink:href="#m2bdd69c032" x="257.324674" y="299.677422" style="fill: #4169e1; stroke: #4169e1"/>
     <use xlink:href="#m2bdd69c032" x="386.110074" y="67.230394" style="fill: #4169e1; stroke: #4169e1"/>
     <use xlink:href="#m2bdd69c032" x="389.496177" y="284.650421" style="fill: #4169e1; stroke: #4169e1"/>
     <use xlink:href="#m2bdd69c032" x="282.328329" y="373.774153" style="fill: #4169e1; stroke: #4169e1"/>
     <use xlink:href="#m2bdd69c032" x="306.624063" y="159.910015" style="fill: #4169e1; stroke: #4169e1"/>
     <use xlink:href="#m2bdd69c032" x="351.389" y="294.848085" style="fill: #4169e1; stroke: #4169e1"/>
     <use xlink:href="#m2bdd69c032" x="297.91287" y="346.010705" style="fill: #4169e1; stroke: #4169e1"/>
     <use xlink:href="#m2bdd69c032" x="287.087333" y="174.539833" style="fill: #4169e1; stroke: #4169e1"/>
     <use xlink:href="#m2bdd69c032" x="374.165718" y="144.11532" style="fill: #4169e1; stroke: #4169e1"/>
     <use xlink:href="#m2bdd69c032" x="380.485411" y="308.5258" style="fill: #4169e1; stroke: #4169e1"/>
     <use xlink:href="#m2bdd69c032" x="233.281274" y="141.926509" style="fill: #4169e1; stroke: #4169e1"/>
     <use xlink:href="#m2bdd69c032" x="263.397748" y="244.90571" style="fill: #4169e1; stroke: #4169e1"/>
     <use xlink:href="#m2bdd69c032" x="384.897472" y="238.720325" style="fill: #4169e1; stroke: #4169e1"/>
     <use xlink:href="#m2bdd69c032" x="370.984421" y="228.437135" style="fill: #4169e1; stroke: #4169e1"/>
     <use xlink:href="#m2bdd69c032" x="348.856884" y="184.281833" style="fill: #4169e1; stroke: #4169e1"/>
     <use xlink:href="#m2bdd69c032" x="242.185126" y="288.496354" style="fill: #4169e1; stroke: #4169e1"/>
     <use xlink:href="#m2bdd69c032" x="480.281945" y="226.105231" style="fill: #4169e1; stroke: #4169e1"/>
     <use xlink:href="#m2bdd69c032" x="379.632804" y="325.029643" style="fill: #4169e1; stroke: #4169e1"/>
     <use xlink:href="#m2bdd69c032" x="279.193632" y="184.039178" style="fill: #4169e1; stroke: #4169e1"/>
     <use xlink:href="#m2bdd69c032" x="352.871445" y="188.13802" style="fill: #4169e1; stroke: #4169e1"/>
     <use xlink:href="#m2bdd69c032" x="287.668366" y="232.938919" style="fill: #4169e1; stroke: #4169e1"/>
     <use xlink:href="#m2bdd69c032" x="323.36877" y="146.047504" style="fill: #4169e1; stroke: #4169e1"/>
     <use xlink:href="#m2bdd69c032" x="423.324749" y="209.285612" style="fill: #4169e1; stroke: #4169e1"/>
     <use xlink:href="#m2bdd69c032" x="403.850163" y="249.911057" style="fill: #4169e1; stroke: #4169e1"/>
     <use xlink:href="#m2bdd69c032" x="302.152354" y="342.902207" style="fill: #4169e1; stroke: #4169e1"/>
     <use xlink:href="#m2bdd69c032" x="186.542512" y="108.523462" style="fill: #4169e1; stroke: #4169e1"/>
     <use xlink:href="#m2bdd69c032" x="423.476505" y="147.576185" style="fill: #4169e1; stroke: #4169e1"/>
     <use xlink:href="#m2bdd69c032" x="236.648138" y="216.574333" style="fill: #4169e1; stroke: #4169e1"/>
     <use xlink:href="#m2bdd69c032" x="275.122321" y="176.568422" style="fill: #4169e1; stroke: #4169e1"/>
     <use xlink:href="#m2bdd69c032" x="307.351774" y="322.575062" style="fill: #4169e1; stroke: #4169e1"/>
     <use xlink:href="#m2bdd69c032" x="169.070737" y="147.539498" style="fill: #4169e1; stroke: #4169e1"/>
     <use xlink:href="#m2bdd69c032" x="227.676312" y="269.357332" style="fill: #4169e1; stroke: #4169e1"/>
     <use xlink:href="#m2bdd69c032" x="274.273621" y="145.987678" style="fill: #4169e1; stroke: #4169e1"/>
     <use xlink:href="#m2bdd69c032" x="350.220477" y="213.129841" style="fill: #4169e1; stroke: #4169e1"/>
     <use xlink:href="#m2bdd69c032" x="337.448148" y="236.747474" style="fill: #4169e1; stroke: #4169e1"/>
     <use xlink:href="#m2bdd69c032" x="235.987348" y="131.381194" style="fill: #4169e1; stroke: #4169e1"/>
     <use xlink:href="#m2bdd69c032" x="373.901302" y="192.329928" style="fill: #4169e1; stroke: #4169e1"/>
     <use xlink:href="#m2bdd69c032" x="389.293366" y="154.173206" style="fill: #4169e1; stroke: #4169e1"/>
     <use xlink:href="#m2bdd69c032" x="266.444598" y="177.886573" style="fill: #4169e1; stroke: #4169e1"/>
     <use xlink:href="#m2bdd69c032" x="298.840252" y="147.344612" style="fill: #4169e1; stroke: #4169e1"/>
     <use xlink:href="#m2bdd69c032" x="367.765599" y="92.283684" style="fill: #4169e1; stroke: #4169e1"/>
     <use xlink:href="#m2bdd69c032" x="254.114404" y="205.768398" style="fill: #4169e1; stroke: #4169e1"/>
     <use xlink:href="#m2bdd69c032" x="420.927727" y="202.312133" style="fill: #4169e1; stroke: #4169e1"/>
     <use xlink:href="#m2bdd69c032" x="305.604673" y="231.174683" style="fill: #4169e1; stroke: #4169e1"/>
     <use xlink:href="#m2bdd69c032" x="306.964303" y="192.962981" style="fill: #4169e1; stroke: #4169e1"/>
     <use xlink:href="#m2bdd69c032" x="261.105504" y="310.615141" style="fill: #4169e1; stroke: #4169e1"/>
     <use xlink:href="#m2bdd69c032" x="397.634305" y="328.816718" style="fill: #4169e1; stroke: #4169e1"/>
     <use xlink:href="#m2bdd69c032" x="439.491153" y="262.655189" style="fill: #4169e1; stroke: #4169e1"/>
     <use xlink:href="#m2bdd69c032" x="408.689523" y="159.912221" style="fill: #4169e1; stroke: #4169e1"/>
     <use xlink:href="#m2bdd69c032" x="204.720917" y="324.964728" style="fill: #4169e1; stroke: #4169e1"/>
     <use xlink:href="#m2bdd69c032" x="318.716087" y="366.993364" style="fill: #4169e1; stroke: #4169e1"/>
     <use xlink:href="#m2bdd69c032" x="239.960888" y="177.184099" style="fill: #4169e1; stroke: #4169e1"/>
     <use xlink:href="#m2bdd69c032" x="250.49982" y="265.084337" style="fill: #4169e1; stroke: #4169e1"/>
     <use xlink:href="#m2bdd69c032" x="325.205792" y="296.44212" style="fill: #4169e1; stroke: #4169e1"/>
     <use xlink:href="#m2bdd69c032" x="310.30232" y="230.706799" style="fill: #4169e1; stroke: #4169e1"/>
     <use xlink:href="#m2bdd69c032" x="343.628767" y="188.337287" style="fill: #4169e1; stroke: #4169e1"/>
     <use xlink:href="#m2bdd69c032" x="280.730932" y="127.389853" style="fill: #4169e1; stroke: #4169e1"/>
     <use xlink:href="#m2bdd69c032" x="370.564182" y="205.956356" style="fill: #4169e1; stroke: #4169e1"/>
     <use xlink:href="#m2bdd69c032" x="359.151223" y="46.973991" style="fill: #4169e1; stroke: #4169e1"/>
     <use xlink:href="#m2bdd69c032" x="355.775751" y="354.019348" style="fill: #4169e1; stroke: #4169e1"/>
     <use xlink:href="#m2bdd69c032" x="281.988154" y="321.605641" style="fill: #4169e1; stroke: #4169e1"/>
     <use xlink:href="#m2bdd69c032" x="358.622621" y="347.334795" style="fill: #4169e1; stroke: #4169e1"/>
     <use xlink:href="#m2bdd69c032" x="263.391986" y="265.980564" style="fill: #4169e1; stroke: #4169e1"/>
     <use xlink:href="#m2bdd69c032" x="421.796833" y="293.53441" style="fill: #4169e1; stroke: #4169e1"/>
     <use xlink:href="#m2bdd69c032" x="189.488195" y="350.599948" style="fill: #4169e1; stroke: #4169e1"/>
     <use xlink:href="#m2bdd69c032" x="273.094624" y="218.424192" style="fill: #4169e1; stroke: #4169e1"/>
     <use xlink:href="#m2bdd69c032" x="218.13649" y="285.162665" style="fill: #4169e1; stroke: #4169e1"/>
     <use xlink:href="#m2bdd69c032" x="160.509331" y="252.602593" style="fill: #4169e1; stroke: #4169e1"/>
     <use xlink:href="#m2bdd69c032" x="194.482729" y="258.810684" style="fill: #4169e1; stroke: #4169e1"/>
     <use xlink:href="#m2bdd69c032" x="404.893981" y="224.862609" style="fill: #4169e1; stroke: #4169e1"/>
     <use xlink:href="#m2bdd69c032" x="346.916653" y="269.058178" style="fill: #4169e1; stroke: #4169e1"/>
     <use xlink:href="#m2bdd69c032" x="244.213255" y="234.637589" style="fill: #4169e1; stroke: #4169e1"/>
     <use xlink:href="#m2bdd69c032" x="179.728887" y="176.806451" style="fill: #4169e1; stroke: #4169e1"/>
     <use xlink:href="#m2bdd69c032" x="393.024325" y="184.874585" style="fill: #4169e1; stroke: #4169e1"/>
     <use xlink:href="#m2bdd69c032" x="210.101575" y="258.990336" style="fill: #4169e1; stroke: #4169e1"/>
     <use xlink:href="#m2bdd69c032" x="349.523795" y="369.479204" style="fill: #4169e1; stroke: #4169e1"/>
     <use xlink:href="#m2bdd69c032" x="254.71169" y="304.507869" style="fill: #4169e1; stroke: #4169e1"/>
     <use xlink:href="#m2bdd69c032" x="331.369093" y="257.453761" style="fill: #4169e1; stroke: #4169e1"/>
     <use xlink:href="#m2bdd69c032" x="426.482447" y="229.560575" style="fill: #4169e1; stroke: #4169e1"/>
     <use xlink:href="#m2bdd69c032" x="275.856175" y="155.978255" style="fill: #4169e1; stroke: #4169e1"/>
     <use xlink:href="#m2bdd69c032" x="245.93203" y="257.440916" style="fill: #4169e1; stroke: #4169e1"/>
     <use xlink:href="#m2bdd69c032" x="381.72092" y="197.178529" style="fill: #4169e1; stroke: #4169e1"/>
     <use xlink:href="#m2bdd69c032" x="224.084241" y="275.88865" style="fill: #4169e1; stroke: #4169e1"/>
     <use xlink:href="#m2bdd69c032" x="325.319416" y="62.733528" style="fill: #4169e1; stroke: #4169e1"/>
     <use xlink:href="#m2bdd69c032" x="445.716729" y="221.856518" style="fill: #4169e1; stroke: #4169e1"/>
     <use xlink:href="#m2bdd69c032" x="263.458538" y="148.981032" style="fill: #4169e1; stroke: #4169e1"/>
     <use xlink:href="#m2bdd69c032" x="227.899987" y="288.664109" style="fill: #4169e1; stroke: #4169e1"/>
     <use xlink:href="#m2bdd69c032" x="251.781334" y="245.695172" style="fill: #4169e1; stroke: #4169e1"/>
    </g>
   </g>
   <g id="PathCollection_2">
    <defs>
     <path id="med091fb8da" d="M 0 2.5 
C 0.663008 2.5 1.29895 2.236584 1.767767 1.767767 
C 2.236584 1.29895 2.5 0.663008 2.5 0 
C 2.5 -0.663008 2.236584 -1.29895 1.767767 -1.767767 
C 1.29895 -2.236584 0.663008 -2.5 0 -2.5 
C -0.663008 -2.5 -1.29895 -2.236584 -1.767767 -1.767767 
C -2.236584 -1.29895 -2.5 -0.663008 -2.5 0 
C -2.5 0.663008 -2.236584 1.29895 -1.767767 1.767767 
C -1.29895 2.236584 -0.663008 2.5 0 2.5 
z
" style="stroke: #b22222"/>
    </defs>
    <g clip-path="url(#p8c769d094c)">
     <use xlink:href="#med091fb8da" x="228.452049" y="190.184495" style="fill: #b22222; stroke: #b22222"/>
     <use xlink:href="#med091fb8da" x="246.033168" y="176.544492" style="fill: #b22222; stroke: #b22222"/>
     <use xlink:href="#med091fb8da" x="206.279396" y="175.319645" style="fill: #b22222; stroke: #b22222"/>
     <use xlink:href="#med091fb8da" x="293.098767" y="270.77294" style="fill: #b22222; stroke: #b22222"/>
     <use xlink:href="#med091fb8da" x="239.976297" y="172.984025" style="fill: #b22222; stroke: #b22222"/>
     <use xlink:href="#med091fb8da" x="343.684702" y="187.481531" style="fill: #b22222; stroke: #b22222"/>
     <use xlink:href="#med091fb8da" x="290.827932" y="231.672476" style="fill: #b22222; stroke: #b22222"/>
     <use xlink:href="#med091fb8da" x="299.17994" y="256.242715" style="fill: #b22222; stroke: #b22222"/>
     <use xlink:href="#med091fb8da" x="284.340322" y="235.645976" style="fill: #b22222; stroke: #b22222"/>
     <use xlink:href="#med091fb8da" x="232.169223" y="188.137157" style="fill: #b22222; stroke: #b22222"/>
     <use xlink:href="#med091fb8da" x="179.521075" y="185.686231" style="fill: #b22222; stroke: #b22222"/>
     <use xlink:href="#med091fb8da" x="279.412286" y="255.857514" style="fill: #b22222; stroke: #b22222"/>
     <use xlink:href="#med091fb8da" x="288.678334" y="231.656403" style="fill: #b22222; stroke: #b22222"/>
     <use xlink:href="#med091fb8da" x="286.883498" y="238.183084" style="fill: #b22222; stroke: #b22222"/>
     <use xlink:href="#med091fb8da" x="293.588542" y="232.396568" style="fill: #b22222; stroke: #b22222"/>
     <use xlink:href="#med091fb8da" x="303.021614" y="257.697631" style="fill: #b22222; stroke: #b22222"/>
     <use xlink:href="#med091fb8da" x="282.393418" y="227.729771" style="fill: #b22222; stroke: #b22222"/>
     <use xlink:href="#med091fb8da" x="193.736339" y="186.222934" style="fill: #b22222; stroke: #b22222"/>
     <use xlink:href="#med091fb8da" x="243.579999" y="193.336433" style="fill: #b22222; stroke: #b22222"/>
     <use xlink:href="#med091fb8da" x="204.499726" y="183.785942" style="fill: #b22222; stroke: #b22222"/>
     <use xlink:href="#med091fb8da" x="346.756309" y="184.800544" style="fill: #b22222; stroke: #b22222"/>
     <use xlink:href="#med091fb8da" x="230.374613" y="182.765551" style="fill: #b22222; stroke: #b22222"/>
     <use xlink:href="#med091fb8da" x="214.118004" y="186.339082" style="fill: #b22222; stroke: #b22222"/>
     <use xlink:href="#med091fb8da" x="228.449416" y="183.118503" style="fill: #b22222; stroke: #b22222"/>
     <use xlink:href="#med091fb8da" x="251.392657" y="200.378071" style="fill: #b22222; stroke: #b22222"/>
     <use xlink:href="#med091fb8da" x="287.285546" y="231.914485" style="fill: #b22222; stroke: #b22222"/>
     <use xlink:href="#med091fb8da" x="348.68159" y="183.011095" style="fill: #b22222; stroke: #b22222"/>
     <use xlink:href="#med091fb8da" x="200.25663" y="162.175482" style="fill: #b22222; stroke: #b22222"/>
     <use xlink:href="#med091fb8da" x="201.746979" y="176.344516" style="fill: #b22222; stroke: #b22222"/>
     <use xlink:href="#med091fb8da" x="236.089007" y="183.197197" style="fill: #b22222; stroke: #b22222"/>
     <use xlink:href="#med091fb8da" x="178.954812" y="182.85023" style="fill: #b22222; stroke: #b22222"/>
     <use xlink:href="#med091fb8da" x="287.371841" y="224.218318" style="fill: #b22222; stroke: #b22222"/>
     <use xlink:href="#med091fb8da" x="228.016731" y="192.029022" style="fill: #b22222; stroke: #b22222"/>
     <use xlink:href="#med091fb8da" x="318.671516" y="222.815301" style="fill: #b22222; stroke: #b22222"/>
     <use xlink:href="#med091fb8da" x="280.798175" y="191.535232" style="fill: #b22222; stroke: #b22222"/>
     <use xlink:href="#med091fb8da" x="196.238922" y="178.364219" style="fill: #b22222; stroke: #b22222"/>
     <use xlink:href="#med091fb8da" x="210.137233" y="179.366254" style="fill: #b22222; stroke: #b22222"/>
     <use xlink:href="#med091fb8da" x="201.280402" y="179.408003" style="fill: #b22222; stroke: #b22222"/>
     <use xlink:href="#med091fb8da" x="212.751082" y="183.977336" style="fill: #b22222; stroke: #b22222"/>
     <use xlink:href="#med091fb8da" x="217.842141" y="183.817767" style="fill: #b22222; stroke: #b22222"/>
     <use xlink:href="#med091fb8da" x="206.237464" y="175.822533" style="fill: #b22222; stroke: #b22222"/>
     <use xlink:href="#med091fb8da" x="213.322529" y="184.740002" style="fill: #b22222; stroke: #b22222"/>
     <use xlink:href="#med091fb8da" x="198.79459" y="181.838216" style="fill: #b22222; stroke: #b22222"/>
     <use xlink:href="#med091fb8da" x="210.358519" y="182.795744" style="fill: #b22222; stroke: #b22222"/>
     <use xlink:href="#med091fb8da" x="226.122764" y="174.647306" style="fill: #b22222; stroke: #b22222"/>
     <use xlink:href="#med091fb8da" x="91.886468" y="19.064404" style="fill: #b22222; stroke: #b22222"/>
     <use xlink:href="#med091fb8da" x="242.545199" y="212.457789" style="fill: #b22222; stroke: #b22222"/>
     <use xlink:href="#med091fb8da" x="189.820334" y="181.070015" style="fill: #b22222; stroke: #b22222"/>
     <use xlink:href="#med091fb8da" x="216.34516" y="277.148022" style="fill: #b22222; stroke: #b22222"/>
     <use xlink:href="#med091fb8da" x="298.917861" y="270.374864" style="fill: #b22222; stroke: #b22222"/>
     <use xlink:href="#med091fb8da" x="212.411897" y="181.117317" style="fill: #b22222; stroke: #b22222"/>
     <use xlink:href="#med091fb8da" x="218.282751" y="184.4211" style="fill: #b22222; stroke: #b22222"/>
     <use xlink:href="#med091fb8da" x="192.086092" y="180.415918" style="fill: #b22222; stroke: #b22222"/>
     <use xlink:href="#med091fb8da" x="210.392256" y="181.559006" style="fill: #b22222; stroke: #b22222"/>
    </g>
   </g>
   <g id="patch_4">
    <path d="M 56.450156 450.72 
L 56.450156 7.2 
" style="fill: none; stroke: #ffffff; stroke-width: 1.25; stroke-linejoin: miter; stroke-linecap: square"/>
   </g>
   <g id="patch_5">
    <path d="M 499.970156 450.72 
L 499.970156 7.2 
" style="fill: none; stroke: #ffffff; stroke-width: 1.25; stroke-linejoin: miter; stroke-linecap: square"/>
   </g>
   <g id="patch_6">
    <path d="M 56.450156 450.72 
L 499.970156 450.72 
" style="fill: none; stroke: #ffffff; stroke-width: 1.25; stroke-linejoin: miter; stroke-linecap: square"/>
   </g>
   <g id="patch_7">
    <path d="M 56.450156 7.2 
L 499.970156 7.2 
" style="fill: none; stroke: #ffffff; stroke-width: 1.25; stroke-linejoin: miter; stroke-linecap: square"/>
   </g>
   <g id="text_13">
    <!-- t = 4700 -->
    <g style="fill: #262626" transform="translate(65.320556 24.659775) scale(0.12 -0.12)">
     <defs>
      <path id="ArialMT-74" d="M 1650 503 
L 1731 6 
Q 1494 -44 1306 -44 
Q 1000 -44 831 53 
Q 663 150 594 308 
Q 525 466 525 972 
L 525 2881 
L 113 2881 
L 113 3319 
L 525 3319 
L 525 4141 
L 1084 4478 
L 1084 3319 
L 1650 3319 
L 1650 2881 
L 1084 2881 
L 1084 941 
Q 1084 700 1114 631 
Q 1144 563 1211 522 
Q 1278 481 1403 481 
Q 1497 481 1650 503 
z
" transform="scale(0.015625)"/>
      <path id="ArialMT-20" transform="scale(0.015625)"/>
      <path id="ArialMT-3d" d="M 3381 2694 
L 356 2694 
L 356 3219 
L 3381 3219 
L 3381 2694 
z
M 3381 1303 
L 356 1303 
L 356 1828 
L 3381 1828 
L 3381 1303 
z
" transform="scale(0.015625)"/>
      <path id="ArialMT-37" d="M 303 3981 
L 303 4522 
L 3269 4522 
L 3269 4084 
Q 2831 3619 2401 2847 
Q 1972 2075 1738 1259 
Q 1569 684 1522 0 
L 944 0 
Q 953 541 1156 1306 
Q 1359 2072 1739 2783 
Q 2119 3494 2547 3981 
L 303 3981 
z
" transform="scale(0.015625)"/>
     </defs>
     <use xlink:href="#ArialMT-74"/>
     <use xlink:href="#ArialMT-20" x="27.783203"/>
     <use xlink:href="#ArialMT-3d" x="55.566406"/>
     <use xlink:href="#ArialMT-20" x="113.964844"/>
     <use xlink:href="#ArialMT-34" x="141.748047"/>
     <use xlink:href="#ArialMT-37" x="197.363281"/>
     <use xlink:href="#ArialMT-30" x="252.978516"/>
     <use xlink:href="#ArialMT-30" x="308.59375"/>
    </g>
   </g>
   <g id="legend_1">
    <g id="patch_8">
     <path d="M 328.111406 94.59 
L 483.170156 94.59 
Q 487.970156 94.59 487.970156 89.79 
L 487.970156 24 
Q 487.970156 19.2 483.170156 19.2 
L 328.111406 19.2 
Q 323.311406 19.2 323.311406 24 
L 323.311406 89.79 
Q 323.311406 94.59 328.111406 94.59 
z
" style="fill: #eaeaf2; opacity: 0.8; stroke: #cccccc; stroke-linejoin: miter"/>
    </g>
    <g id="PathCollection_3">
     <g>
      <use xlink:href="#m2bdd69c032" x="356.911406" y="39.97125" style="fill: #4169e1; stroke: #4169e1"/>
     </g>
    </g>
    <g id="text_14">
     <!-- Sheep -->
     <g style="fill: #262626" transform="translate(400.111406 46.27125) scale(0.24 -0.24)">
      <defs>
       <path id="ArialMT-53" d="M 288 1472 
L 859 1522 
Q 900 1178 1048 958 
Q 1197 738 1509 602 
Q 1822 466 2213 466 
Q 2559 466 2825 569 
Q 3091 672 3220 851 
Q 3350 1031 3350 1244 
Q 3350 1459 3225 1620 
Q 3100 1781 2813 1891 
Q 2628 1963 1997 2114 
Q 1366 2266 1113 2400 
Q 784 2572 623 2826 
Q 463 3081 463 3397 
Q 463 3744 659 4045 
Q 856 4347 1234 4503 
Q 1613 4659 2075 4659 
Q 2584 4659 2973 4495 
Q 3363 4331 3572 4012 
Q 3781 3694 3797 3291 
L 3216 3247 
Q 3169 3681 2898 3903 
Q 2628 4125 2100 4125 
Q 1550 4125 1298 3923 
Q 1047 3722 1047 3438 
Q 1047 3191 1225 3031 
Q 1400 2872 2139 2705 
Q 2878 2538 3153 2413 
Q 3553 2228 3743 1945 
Q 3934 1663 3934 1294 
Q 3934 928 3725 604 
Q 3516 281 3123 101 
Q 2731 -78 2241 -78 
Q 1619 -78 1198 103 
Q 778 284 539 648 
Q 300 1013 288 1472 
z
" transform="scale(0.015625)"/>
       <path id="ArialMT-68" d="M 422 0 
L 422 4581 
L 984 4581 
L 984 2938 
Q 1378 3394 1978 3394 
Q 2347 3394 2619 3248 
Q 2891 3103 3008 2847 
Q 3125 2591 3125 2103 
L 3125 0 
L 2563 0 
L 2563 2103 
Q 2563 2525 2380 2717 
Q 2197 2909 1863 2909 
Q 1613 2909 1392 2779 
Q 1172 2650 1078 2428 
Q 984 2206 984 1816 
L 984 0 
L 422 0 
z
" transform="scale(0.015625)"/>
       <path id="ArialMT-65" d="M 2694 1069 
L 3275 997 
Q 3138 488 2766 206 
Q 2394 -75 1816 -75 
Q 1088 -75 661 373 
Q 234 822 234 1631 
Q 234 2469 665 2931 
Q 1097 3394 1784 3394 
Q 2450 3394 2872 2941 
Q 3294 2488 3294 1666 
Q 3294 1616 3291 1516 
L 816 1516 
Q 847 969 1125 678 
Q 1403 388 1819 388 
Q 2128 388 2347 550 
Q 2566 713 2694 1069 
z
M 847 1978 
L 2700 1978 
Q 2663 2397 2488 2606 
Q 2219 2931 1791 2931 
Q 1403 2931 1139 2672 
Q 875 2413 847 1978 
z
" transform="scale(0.015625)"/>
       <path id="ArialMT-70" d="M 422 -1272 
L 422 3319 
L 934 3319 
L 934 2888 
Q 1116 3141 1344 3267 
Q 1572 3394 1897 3394 
Q 2322 3394 2647 3175 
Q 2972 2956 3137 2557 
Q 3303 2159 3303 1684 
Q 3303 1175 3120 767 
Q 2938 359 2589 142 
Q 2241 -75 1856 -75 
Q 1575 -75 1351 44 
Q 1128 163 984 344 
L 984 -1272 
L 422 -1272 
z
M 931 1641 
Q 931 1000 1190 694 
Q 1450 388 1819 388 
Q 2194 388 2461 705 
Q 2728 1022 2728 1688 
Q 2728 2322 2467 2637 
Q 2206 2953 1844 2953 
Q 1484 2953 1207 2617 
Q 931 2281 931 1641 
z
" transform="scale(0.015625)"/>
      </defs>
      <use xlink:href="#ArialMT-53"/>
      <use xlink:href="#ArialMT-68" x="66.699219"/>
      <use xlink:href="#ArialMT-65" x="122.314453"/>
      <use xlink:href="#ArialMT-65" x="177.929688"/>
      <use xlink:href="#ArialMT-70" x="233.544922"/>
     </g>
    </g>
    <g id="PathCollection_4">
     <g>
      <use xlink:href="#med091fb8da" x="356.911406" y="73.92" style="fill: #b22222; stroke: #b22222"/>
     </g>
    </g>
    <g id="text_15">
     <!-- Wolves -->
     <g style="fill: #262626" transform="translate(400.111406 80.22) scale(0.24 -0.24)">
      <defs>
       <path id="ArialMT-57" d="M 1294 0 
L 78 4581 
L 700 4581 
L 1397 1578 
Q 1509 1106 1591 641 
Q 1766 1375 1797 1488 
L 2669 4581 
L 3400 4581 
L 4056 2263 
Q 4303 1400 4413 641 
Q 4500 1075 4641 1638 
L 5359 4581 
L 5969 4581 
L 4713 0 
L 4128 0 
L 3163 3491 
Q 3041 3928 3019 4028 
Q 2947 3713 2884 3491 
L 1913 0 
L 1294 0 
z
" transform="scale(0.015625)"/>
       <path id="ArialMT-6f" d="M 213 1659 
Q 213 2581 725 3025 
Q 1153 3394 1769 3394 
Q 2453 3394 2887 2945 
Q 3322 2497 3322 1706 
Q 3322 1066 3130 698 
Q 2938 331 2570 128 
Q 2203 -75 1769 -75 
Q 1072 -75 642 372 
Q 213 819 213 1659 
z
M 791 1659 
Q 791 1022 1069 705 
Q 1347 388 1769 388 
Q 2188 388 2466 706 
Q 2744 1025 2744 1678 
Q 2744 2294 2464 2611 
Q 2184 2928 1769 2928 
Q 1347 2928 1069 2612 
Q 791 2297 791 1659 
z
" transform="scale(0.015625)"/>
       <path id="ArialMT-6c" d="M 409 0 
L 409 4581 
L 972 4581 
L 972 0 
L 409 0 
z
" transform="scale(0.015625)"/>
       <path id="ArialMT-76" d="M 1344 0 
L 81 3319 
L 675 3319 
L 1388 1331 
Q 1503 1009 1600 663 
Q 1675 925 1809 1294 
L 2547 3319 
L 3125 3319 
L 1869 0 
L 1344 0 
z
" transform="scale(0.015625)"/>
       <path id="ArialMT-73" d="M 197 991 
L 753 1078 
Q 800 744 1014 566 
Q 1228 388 1613 388 
Q 2000 388 2187 545 
Q 2375 703 2375 916 
Q 2375 1106 2209 1216 
Q 2094 1291 1634 1406 
Q 1016 1563 777 1677 
Q 538 1791 414 1992 
Q 291 2194 291 2438 
Q 291 2659 392 2848 
Q 494 3038 669 3163 
Q 800 3259 1026 3326 
Q 1253 3394 1513 3394 
Q 1903 3394 2198 3281 
Q 2494 3169 2634 2976 
Q 2775 2784 2828 2463 
L 2278 2388 
Q 2241 2644 2061 2787 
Q 1881 2931 1553 2931 
Q 1166 2931 1000 2803 
Q 834 2675 834 2503 
Q 834 2394 903 2306 
Q 972 2216 1119 2156 
Q 1203 2125 1616 2013 
Q 2213 1853 2448 1751 
Q 2684 1650 2818 1456 
Q 2953 1263 2953 975 
Q 2953 694 2789 445 
Q 2625 197 2315 61 
Q 2006 -75 1616 -75 
Q 969 -75 630 194 
Q 291 463 197 991 
z
" transform="scale(0.015625)"/>
      </defs>
      <use xlink:href="#ArialMT-57"/>
      <use xlink:href="#ArialMT-6f" x="92.634766"/>
      <use xlink:href="#ArialMT-6c" x="148.25"/>
      <use xlink:href="#ArialMT-76" x="170.466797"/>
      <use xlink:href="#ArialMT-65" x="220.466797"/>
      <use xlink:href="#ArialMT-73" x="276.082031"/>
     </g>
    </g>
   </g>
  </g>
 </g>
 <defs>
  <clipPath id="p8c769d094c">
   <rect x="56.450156" y="7.2" width="443.52" height="443.52"/>
  </clipPath>
 </defs>
</svg>
