<?xml version="1.0" encoding="utf-8" standalone="no"?>
<!DOCTYPE svg PUBLIC "-//W3C//DTD SVG 1.1//EN"
  "http://www.w3.org/Graphics/SVG/1.1/DTD/svg11.dtd">
<svg xmlns:xlink="http://www.w3.org/1999/xlink" width="507.170156pt" height="492.454219pt" viewBox="0 0 507.170156 492.454219" xmlns="http://www.w3.org/2000/svg" version="1.1">
 <metadata>
  <rdf:RDF xmlns:dc="http://purl.org/dc/elements/1.1/" xmlns:cc="http://creativecommons.org/ns#" xmlns:rdf="http://www.w3.org/1999/02/22-rdf-syntax-ns#">
   <cc:Work>
    <dc:type rdf:resource="http://purl.org/dc/dcmitype/StillImage"/>
    <dc:date>2026-05-12T10:49:58.166279</dc:date>
    <dc:format>image/svg+xml</dc:format>
    <dc:creator>
     <cc:Agent>
      <dc:title>Matplotlib v3.7.1, https://matplotlib.org/</dc:title>
     </cc:Agent>
    </dc:creator>
   </cc:Work>
  </rdf:RDF>
 </metadata>
 <defs>
  <style type="text/css">*{stroke-linejoin: round; stroke-linecap: butt}</style>
 </defs>
 <g id="figure_1">
  <g id="patch_1">
   <path d="M 0 492.454219 
L 507.170156 492.454219 
L 507.170156 0 
L 0 0 
z
" style="fill: #ffffff"/>
  </g>
  <g id="axes_1">
   <g id="patch_2">
    <path d="M 56.450156 450.72 
L 499.970156 450.72 
L 499.970156 7.2 
L 56.450156 7.2 
z
" style="fill: #eaeaf2"/>
   </g>
   <g id="matplotlib.axis_1">
    <g id="xtick_1">
     <g id="line2d_1">
      <path d="M 100.802156 450.72 
L 100.802156 7.2 
" clip-path="url(#p2f0fc6c349)" style="fill: none; stroke: #ffffff; stroke-linecap: round"/>
     </g>
     <g id="text_1">
      <!-- −400 -->
      <g style="fill: #262626" transform="translate(88.414266 468.093594) scale(0.11 -0.11)">
       <defs>
        <path id="ArialMT-2212" d="M 3381 1997 
L 356 1997 
L 356 2522 
L 3381 2522 
L 3381 1997 
z
" transform="scale(0.015625)"/>
        <path id="ArialMT-34" d="M 2069 0 
L 2069 1097 
L 81 1097 
L 81 1613 
L 2172 4581 
L 2631 4581 
L 2631 1613 
L 3250 1613 
L 3250 1097 
L 2631 1097 
L 2631 0 
L 2069 0 
z
M 2069 1613 
L 2069 3678 
L 634 1613 
L 2069 1613 
z
" transform="scale(0.015625)"/>
        <path id="ArialMT-30" d="M 266 2259 
Q 266 3072 433 3567 
Q 600 4063 929 4331 
Q 1259 4600 1759 4600 
Q 2128 4600 2406 4451 
Q 2684 4303 2865 4023 
Q 3047 3744 3150 3342 
Q 3253 2941 3253 2259 
Q 3253 1453 3087 958 
Q 2922 463 2592 192 
Q 2263 -78 1759 -78 
Q 1097 -78 719 397 
Q 266 969 266 2259 
z
M 844 2259 
Q 844 1131 1108 757 
Q 1372 384 1759 384 
Q 2147 384 2411 759 
Q 2675 1134 2675 2259 
Q 2675 3391 2411 3762 
Q 2147 4134 1753 4134 
Q 1366 4134 1134 3806 
Q 844 3388 844 2259 
z
" transform="scale(0.015625)"/>
       </defs>
       <use xlink:href="#ArialMT-2212"/>
       <use xlink:href="#ArialMT-34" x="58.398438"/>
       <use xlink:href="#ArialMT-30" x="114.013672"/>
       <use xlink:href="#ArialMT-30" x="169.628906"/>
      </g>
     </g>
    </g>
    <g id="xtick_2">
     <g id="line2d_2">
      <path d="M 189.506156 450.72 
L 189.506156 7.2 
" clip-path="url(#p2f0fc6c349)" style="fill: none; stroke: #ffffff; stroke-linecap: round"/>
     </g>
     <g id="text_2">
      <!-- −200 -->
      <g style="fill: #262626" transform="translate(177.118266 468.093594) scale(0.11 -0.11)">
       <defs>
        <path id="ArialMT-32" d="M 3222 541 
L 3222 0 
L 194 0 
Q 188 203 259 391 
Q 375 700 629 1000 
Q 884 1300 1366 1694 
Q 2113 2306 2375 2664 
Q 2638 3022 2638 3341 
Q 2638 3675 2398 3904 
Q 2159 4134 1775 4134 
Q 1369 4134 1125 3890 
Q 881 3647 878 3216 
L 300 3275 
Q 359 3922 746 4261 
Q 1134 4600 1788 4600 
Q 2447 4600 2831 4234 
Q 3216 3869 3216 3328 
Q 3216 3053 3103 2787 
Q 2991 2522 2730 2228 
Q 2469 1934 1863 1422 
Q 1356 997 1212 845 
Q 1069 694 975 541 
L 3222 541 
z
" transform="scale(0.015625)"/>
       </defs>
       <use xlink:href="#ArialMT-2212"/>
       <use xlink:href="#ArialMT-32" x="58.398438"/>
       <use xlink:href="#ArialMT-30" x="114.013672"/>
       <use xlink:href="#ArialMT-30" x="169.628906"/>
      </g>
     </g>
    </g>
    <g id="xtick_3">
     <g id="line2d_3">
      <path d="M 278.210156 450.72 
L 278.210156 7.2 
" clip-path="url(#p2f0fc6c349)" style="fill: none; stroke: #ffffff; stroke-linecap: round"/>
     </g>
     <g id="text_3">
      <!-- 0 -->
      <g style="fill: #262626" transform="translate(275.151641 468.093594) scale(0.11 -0.11)">
       <use xlink:href="#ArialMT-30"/>
      </g>
     </g>
    </g>
    <g id="xtick_4">
     <g id="line2d_4">
      <path d="M 366.914156 450.72 
L 366.914156 7.2 
" clip-path="url(#p2f0fc6c349)" style="fill: none; stroke: #ffffff; stroke-linecap: round"/>
     </g>
     <g id="text_4">
      <!-- 200 -->
      <g style="fill: #262626" transform="translate(357.738609 468.093594) scale(0.11 -0.11)">
       <use xlink:href="#ArialMT-32"/>
       <use xlink:href="#ArialMT-30" x="55.615234"/>
       <use xlink:href="#ArialMT-30" x="111.230469"/>
      </g>
     </g>
    </g>
    <g id="xtick_5">
     <g id="line2d_5">
      <path d="M 455.618156 450.72 
L 455.618156 7.2 
" clip-path="url(#p2f0fc6c349)" style="fill: none; stroke: #ffffff; stroke-linecap: round"/>
     </g>
     <g id="text_5">
      <!-- 400 -->
      <g style="fill: #262626" transform="translate(446.442609 468.093594) scale(0.11 -0.11)">
       <use xlink:href="#ArialMT-34"/>
       <use xlink:href="#ArialMT-30" x="55.615234"/>
       <use xlink:href="#ArialMT-30" x="111.230469"/>
      </g>
     </g>
    </g>
    <g id="text_6">
     <!-- x -->
     <g style="fill: #262626" transform="translate(275.210156 482.869219) scale(0.12 -0.12)">
      <defs>
       <path id="ArialMT-78" d="M 47 0 
L 1259 1725 
L 138 3319 
L 841 3319 
L 1350 2541 
Q 1494 2319 1581 2169 
Q 1719 2375 1834 2534 
L 2394 3319 
L 3066 3319 
L 1919 1756 
L 3153 0 
L 2463 0 
L 1781 1031 
L 1600 1309 
L 728 0 
L 47 0 
z
" transform="scale(0.015625)"/>
      </defs>
      <use xlink:href="#ArialMT-78"/>
     </g>
    </g>
   </g>
   <g id="matplotlib.axis_2">
    <g id="ytick_1">
     <g id="line2d_6">
      <path d="M 56.450156 406.368 
L 499.970156 406.368 
" clip-path="url(#p2f0fc6c349)" style="fill: none; stroke: #ffffff; stroke-linecap: round"/>
     </g>
     <g id="text_7">
      <!-- −400 -->
      <g style="fill: #262626" transform="translate(22.174375 410.304797) scale(0.11 -0.11)">
       <use xlink:href="#ArialMT-2212"/>
       <use xlink:href="#ArialMT-34" x="58.398438"/>
       <use xlink:href="#ArialMT-30" x="114.013672"/>
       <use xlink:href="#ArialMT-30" x="169.628906"/>
      </g>
     </g>
    </g>
    <g id="ytick_2">
     <g id="line2d_7">
      <path d="M 56.450156 317.664 
L 499.970156 317.664 
" clip-path="url(#p2f0fc6c349)" style="fill: none; stroke: #ffffff; stroke-linecap: round"/>
     </g>
     <g id="text_8">
      <!-- −200 -->
      <g style="fill: #262626" transform="translate(22.174375 321.600797) scale(0.11 -0.11)">
       <use xlink:href="#ArialMT-2212"/>
       <use xlink:href="#ArialMT-32" x="58.398438"/>
       <use xlink:href="#ArialMT-30" x="114.013672"/>
       <use xlink:href="#ArialMT-30" x="169.628906"/>
      </g>
     </g>
    </g>
    <g id="ytick_3">
     <g id="line2d_8">
      <path d="M 56.450156 228.96 
L 499.970156 228.96 
" clip-path="url(#p2f0fc6c349)" style="fill: none; stroke: #ffffff; stroke-linecap: round"/>
     </g>
     <g id="text_9">
      <!-- 0 -->
      <g style="fill: #262626" transform="translate(40.833125 232.896797) scale(0.11 -0.11)">
       <use xlink:href="#ArialMT-30"/>
      </g>
     </g>
    </g>
    <g id="ytick_4">
     <g id="line2d_9">
      <path d="M 56.450156 140.256 
L 499.970156 140.256 
" clip-path="url(#p2f0fc6c349)" style="fill: none; stroke: #ffffff; stroke-linecap: round"/>
     </g>
     <g id="text_10">
      <!-- 200 -->
      <g style="fill: #262626" transform="translate(28.599063 144.192797) scale(0.11 -0.11)">
       <use xlink:href="#ArialMT-32"/>
       <use xlink:href="#ArialMT-30" x="55.615234"/>
       <use xlink:href="#ArialMT-30" x="111.230469"/>
      </g>
     </g>
    </g>
    <g id="ytick_5">
     <g id="line2d_10">
      <path d="M 56.450156 51.552 
L 499.970156 51.552 
" clip-path="url(#p2f0fc6c349)" style="fill: none; stroke: #ffffff; stroke-linecap: round"/>
     </g>
     <g id="text_11">
      <!-- 400 -->
      <g style="fill: #262626" transform="translate(28.599063 55.488797) scale(0.11 -0.11)">
       <use xlink:href="#ArialMT-34"/>
       <use xlink:href="#ArialMT-30" x="55.615234"/>
       <use xlink:href="#ArialMT-30" x="111.230469"/>
      </g>
     </g>
    </g>
    <g id="text_12">
     <!-- y -->
     <g style="fill: #262626" transform="translate(15.64875 231.96) rotate(-90) scale(0.12 -0.12)">
      <defs>
       <path id="ArialMT-79" d="M 397 -1278 
L 334 -750 
Q 519 -800 656 -800 
Q 844 -800 956 -737 
Q 1069 -675 1141 -563 
Q 1194 -478 1313 -144 
Q 1328 -97 1363 -6 
L 103 3319 
L 709 3319 
L 1400 1397 
Q 1534 1031 1641 628 
Q 1738 1016 1872 1384 
L 2581 3319 
L 3144 3319 
L 1881 -56 
Q 1678 -603 1566 -809 
Q 1416 -1088 1222 -1217 
Q 1028 -1347 759 -1347 
Q 597 -1347 397 -1278 
z
" transform="scale(0.015625)"/>
      </defs>
      <use xlink:href="#ArialMT-79"/>
     </g>
    </g>
   </g>
   <g id="patch_3">
    <path d="M 278.210156 317.664 
C 301.734732 317.664 324.298969 308.317587 340.933356 291.6832 
C 357.567743 275.048813 366.914156 252.484576 366.914156 228.96 
C 366.914156 205.435424 357.567743 182.871187 340.933356 166.2368 
C 324.298969 149.602413 301.734732 140.256 278.210156 140.256 
C 254.68558 140.256 232.121343 149.602413 215.486956 166.2368 
C 198.852569 182.871187 189.506156 205.435424 189.506156 228.96 
C 189.506156 252.484576 198.852569 275.048813 215.486956 291.6832 
C 232.121343 308.317587 254.68558 317.664 278.210156 317.664 
z
" clip-path="url(#p2f0fc6c349)" style="fill: #228b22; opacity: 0.12; stroke: #228b22; stroke-width: 1.5; stroke-linejoin: miter"/>
   </g>
   <g id="PathCollection_1">
    <defs>
     <path id="m0495c8c1b4" d="M 0 2.236068 
C 0.593012 2.236068 1.161816 2.000462 1.581139 1.581139 
C 2.000462 1.161816 2.236068 0.593012 2.236068 0 
C 2.236068 -0.593012 2.000462 -1.161816 1.581139 -1.581139 
C 1.161816 -2.000462 0.593012 -2.236068 0 -2.236068 
C -0.593012 -2.236068 -1.161816 -2.000462 -1.581139 -1.581139 
C -2.000462 -1.161816 -2.236068 -0.593012 -2.236068 0 
C -2.236068 0.593012 -2.000462 1.161816 -1.581139 1.581139 
C -1.161816 2.000462 -0.593012 2.236068 0 2.236068 
z
" style="stroke: #4169e1"/>
    </defs>
    <g clip-path="url(#p2f0fc6c349)">
     <use xlink:href="#m0495c8c1b4" x="318.847669" y="104.690252" style="fill: #4169e1; stroke: #4169e1"/>
     <use xlink:href="#m0495c8c1b4" x="407.846052" y="143.126861" style="fill: #4169e1; stroke: #4169e1"/>
     <use xlink:href="#m0495c8c1b4" x="218.856757" y="174.943154" style="fill: #4169e1; stroke: #4169e1"/>
     <use xlink:href="#m0495c8c1b4" x="342.808138" y="110.323787" style="fill: #4169e1; stroke: #4169e1"/>
     <use xlink:href="#m0495c8c1b4" x="257.915968" y="284.907555" style="fill: #4169e1; stroke: #4169e1"/>
     <use xlink:href="#m0495c8c1b4" x="203.727037" y="241.889029" style="fill: #4169e1; stroke: #4169e1"/>
     <use xlink:href="#m0495c8c1b4" x="340.949301" y="314.837961" style="fill: #4169e1; stroke: #4169e1"/>
     <use xlink:href="#m0495c8c1b4" x="372.734666" y="192.40112" style="fill: #4169e1; stroke: #4169e1"/>
     <use xlink:href="#m0495c8c1b4" x="436.750582" y="188.358717" style="fill: #4169e1; stroke: #4169e1"/>
     <use xlink:href="#m0495c8c1b4" x="445.48873" y="272.241312" style="fill: #4169e1; stroke: #4169e1"/>
     <use xlink:href="#m0495c8c1b4" x="318.908134" y="161.500152" style="fill: #4169e1; stroke: #4169e1"/>
     <use xlink:href="#m0495c8c1b4" x="279.090974" y="165.437996" style="fill: #4169e1; stroke: #4169e1"/>
     <use xlink:href="#m0495c8c1b4" x="249.216836" y="100.199517" style="fill: #4169e1; stroke: #4169e1"/>
     <use xlink:href="#m0495c8c1b4" x="206.08633" y="214.019913" style="fill: #4169e1; stroke: #4169e1"/>
     <use xlink:href="#m0495c8c1b4" x="330.768477" y="207.010705" style="fill: #4169e1; stroke: #4169e1"/>
     <use xlink:href="#m0495c8c1b4" x="347.661709" y="206.021891" style="fill: #4169e1; stroke: #4169e1"/>
     <use xlink:href="#m0495c8c1b4" x="290.25963" y="137.099547" style="fill: #4169e1; stroke: #4169e1"/>
     <use xlink:href="#m0495c8c1b4" x="409.21895" y="154.246695" style="fill: #4169e1; stroke: #4169e1"/>
     <use xlink:href="#m0495c8c1b4" x="257.494121" y="240.972532" style="fill: #4169e1; stroke: #4169e1"/>
     <use xlink:href="#m0495c8c1b4" x="253.962323" y="323.652576" style="fill: #4169e1; stroke: #4169e1"/>
     <use xlink:href="#m0495c8c1b4" x="279.639534" y="334.474725" style="fill: #4169e1; stroke: #4169e1"/>
     <use xlink:href="#m0495c8c1b4" x="266.323193" y="54.272891" style="fill: #4169e1; stroke: #4169e1"/>
     <use xlink:href="#m0495c8c1b4" x="252.391876" y="353.658718" style="fill: #4169e1; stroke: #4169e1"/>
     <use xlink:href="#m0495c8c1b4" x="437.894776" y="345.143561" style="fill: #4169e1; stroke: #4169e1"/>
     <use xlink:href="#m0495c8c1b4" x="189.056667" y="264.325502" style="fill: #4169e1; stroke: #4169e1"/>
     <use xlink:href="#m0495c8c1b4" x="351.816948" y="112.619783" style="fill: #4169e1; stroke: #4169e1"/>
     <use xlink:href="#m0495c8c1b4" x="337.784382" y="90.884826" style="fill: #4169e1; stroke: #4169e1"/>
     <use xlink:href="#m0495c8c1b4" x="287.688835" y="105.394446" style="fill: #4169e1; stroke: #4169e1"/>
     <use xlink:href="#m0495c8c1b4" x="392.270837" y="349.116536" style="fill: #4169e1; stroke: #4169e1"/>
     <use xlink:href="#m0495c8c1b4" x="420.550894" y="154.005465" style="fill: #4169e1; stroke: #4169e1"/>
     <use xlink:href="#m0495c8c1b4" x="446.175882" y="300.582761" style="fill: #4169e1; stroke: #4169e1"/>
     <use xlink:href="#m0495c8c1b4" x="293.47148" y="177.089867" style="fill: #4169e1; stroke: #4169e1"/>
     <use xlink:href="#m0495c8c1b4" x="387.764313" y="335.243759" style="fill: #4169e1; stroke: #4169e1"/>
     <use xlink:href="#m0495c8c1b4" x="328.208949" y="281.454845" style="fill: #4169e1; stroke: #4169e1"/>
     <use xlink:href="#m0495c8c1b4" x="258.1093" y="236.834608" style="fill: #4169e1; stroke: #4169e1"/>
     <use xlink:href="#m0495c8c1b4" x="345.497343" y="128.27692" style="fill: #4169e1; stroke: #4169e1"/>
     <use xlink:href="#m0495c8c1b4" x="336.989273" y="131.014297" style="fill: #4169e1; stroke: #4169e1"/>
     <use xlink:href="#m0495c8c1b4" x="206.041407" y="323.88827" style="fill: #4169e1; stroke: #4169e1"/>
     <use xlink:href="#m0495c8c1b4" x="420.348666" y="311.131656" style="fill: #4169e1; stroke: #4169e1"/>
     <use xlink:href="#m0495c8c1b4" x="238.212839" y="268.534963" style="fill: #4169e1; stroke: #4169e1"/>
     <use xlink:href="#m0495c8c1b4" x="354.838557" y="94.094783" style="fill: #4169e1; stroke: #4169e1"/>
     <use xlink:href="#m0495c8c1b4" x="288.101261" y="238.131354" style="fill: #4169e1; stroke: #4169e1"/>
     <use xlink:href="#m0495c8c1b4" x="286.500629" y="204.260856" style="fill: #4169e1; stroke: #4169e1"/>
     <use xlink:href="#m0495c8c1b4" x="235.033306" y="287.917097" style="fill: #4169e1; stroke: #4169e1"/>
     <use xlink:href="#m0495c8c1b4" x="367.784" y="113.73891" style="fill: #4169e1; stroke: #4169e1"/>
     <use xlink:href="#m0495c8c1b4" x="251.858237" y="250.716304" style="fill: #4169e1; stroke: #4169e1"/>
     <use xlink:href="#m0495c8c1b4" x="211.599693" y="296.821754" style="fill: #4169e1; stroke: #4169e1"/>
     <use xlink:href="#m0495c8c1b4" x="159.735688" y="253.694517" style="fill: #4169e1; stroke: #4169e1"/>
     <use xlink:href="#m0495c8c1b4" x="307.879395" y="222.689421" style="fill: #4169e1; stroke: #4169e1"/>
     <use xlink:href="#m0495c8c1b4" x="237.187456" y="292.99211" style="fill: #4169e1; stroke: #4169e1"/>
     <use xlink:href="#m0495c8c1b4" x="289.943668" y="276.009215" style="fill: #4169e1; stroke: #4169e1"/>
     <use xlink:href="#m0495c8c1b4" x="335.265834" y="301.338544" style="fill: #4169e1; stroke: #4169e1"/>
     <use xlink:href="#m0495c8c1b4" x="413.690709" y="271.493667" style="fill: #4169e1; stroke: #4169e1"/>
     <use xlink:href="#m0495c8c1b4" x="385.299155" y="157.276967" style="fill: #4169e1; stroke: #4169e1"/>
     <use xlink:href="#m0495c8c1b4" x="202.30613" y="186.770228" style="fill: #4169e1; stroke: #4169e1"/>
     <use xlink:href="#m0495c8c1b4" x="301.62699" y="229.304259" style="fill: #4169e1; stroke: #4169e1"/>
     <use xlink:href="#m0495c8c1b4" x="444.845755" y="159.62512" style="fill: #4169e1; stroke: #4169e1"/>
     <use xlink:href="#m0495c8c1b4" x="393.779371" y="134.319487" style="fill: #4169e1; stroke: #4169e1"/>
     <use xlink:href="#m0495c8c1b4" x="430.988584" y="210.620489" style="fill: #4169e1; stroke: #4169e1"/>
     <use xlink:href="#m0495c8c1b4" x="347.393273" y="282.165911" style="fill: #4169e1; stroke: #4169e1"/>
     <use xlink:href="#m0495c8c1b4" x="238.998419" y="235.515561" style="fill: #4169e1; stroke: #4169e1"/>
     <use xlink:href="#m0495c8c1b4" x="245.067316" y="284.926484" style="fill: #4169e1; stroke: #4169e1"/>
     <use xlink:href="#m0495c8c1b4" x="404.516986" y="199.345955" style="fill: #4169e1; stroke: #4169e1"/>
     <use xlink:href="#m0495c8c1b4" x="320.92311" y="218.738357" style="fill: #4169e1; stroke: #4169e1"/>
     <use xlink:href="#m0495c8c1b4" x="344.170059" y="165.855562" style="fill: #4169e1; stroke: #4169e1"/>
     <use xlink:href="#m0495c8c1b4" x="340.350411" y="211.236542" style="fill: #4169e1; stroke: #4169e1"/>
     <use xlink:href="#m0495c8c1b4" x="228.465452" y="234.865769" style="fill: #4169e1; stroke: #4169e1"/>
     <use xlink:href="#m0495c8c1b4" x="232.003139" y="192.566029" style="fill: #4169e1; stroke: #4169e1"/>
     <use xlink:href="#m0495c8c1b4" x="404.964323" y="105.050977" style="fill: #4169e1; stroke: #4169e1"/>
     <use xlink:href="#m0495c8c1b4" x="318.74355" y="123.507571" style="fill: #4169e1; stroke: #4169e1"/>
     <use xlink:href="#m0495c8c1b4" x="375.120156" y="300.287925" style="fill: #4169e1; stroke: #4169e1"/>
     <use xlink:href="#m0495c8c1b4" x="355.586435" y="150.68567" style="fill: #4169e1; stroke: #4169e1"/>
     <use xlink:href="#m0495c8c1b4" x="321.068674" y="332.336448" style="fill: #4169e1; stroke: #4169e1"/>
     <use xlink:href="#m0495c8c1b4" x="459.285818" y="206.685053" style="fill: #4169e1; stroke: #4169e1"/>
     <use xlink:href="#m0495c8c1b4" x="277.90843" y="120.894609" style="fill: #4169e1; stroke: #4169e1"/>
     <use xlink:href="#m0495c8c1b4" x="267.400393" y="131.124838" style="fill: #4169e1; stroke: #4169e1"/>
     <use xlink:href="#m0495c8c1b4" x="429.670544" y="319.404885" style="fill: #4169e1; stroke: #4169e1"/>
     <use xlink:href="#m0495c8c1b4" x="276.61056" y="284.006469" style="fill: #4169e1; stroke: #4169e1"/>
     <use xlink:href="#m0495c8c1b4" x="387.742095" y="84.808677" style="fill: #4169e1; stroke: #4169e1"/>
     <use xlink:href="#m0495c8c1b4" x="291.17623" y="50.309797" style="fill: #4169e1; stroke: #4169e1"/>
     <use xlink:href="#m0495c8c1b4" x="359.261697" y="323.523504" style="fill: #4169e1; stroke: #4169e1"/>
     <use xlink:href="#m0495c8c1b4" x="263.066252" y="96.26551" style="fill: #4169e1; stroke: #4169e1"/>
     <use xlink:href="#m0495c8c1b4" x="306.268796" y="243.112826" style="fill: #4169e1; stroke: #4169e1"/>
     <use xlink:href="#m0495c8c1b4" x="306.657952" y="246.76831" style="fill: #4169e1; stroke: #4169e1"/>
     <use xlink:href="#m0495c8c1b4" x="351.631767" y="149.302147" style="fill: #4169e1; stroke: #4169e1"/>
     <use xlink:href="#m0495c8c1b4" x="356.395804" y="197.48395" style="fill: #4169e1; stroke: #4169e1"/>
     <use xlink:href="#m0495c8c1b4" x="409.509767" y="97.317152" style="fill: #4169e1; stroke: #4169e1"/>
     <use xlink:href="#m0495c8c1b4" x="439.999425" y="248.762384" style="fill: #4169e1; stroke: #4169e1"/>
     <use xlink:href="#m0495c8c1b4" x="290.071225" y="214.274557" style="fill: #4169e1; stroke: #4169e1"/>
     <use xlink:href="#m0495c8c1b4" x="220.1267" y="241.229186" style="fill: #4169e1; stroke: #4169e1"/>
     <use xlink:href="#m0495c8c1b4" x="375.708137" y="104.496077" style="fill: #4169e1; stroke: #4169e1"/>
     <use xlink:href="#m0495c8c1b4" x="371.963758" y="285.723136" style="fill: #4169e1; stroke: #4169e1"/>
     <use xlink:href="#m0495c8c1b4" x="169.220618" y="249.905825" style="fill: #4169e1; stroke: #4169e1"/>
     <use xlink:href="#m0495c8c1b4" x="354.163971" y="149.247986" style="fill: #4169e1; stroke: #4169e1"/>
     <use xlink:href="#m0495c8c1b4" x="477.006194" y="232.546444" style="fill: #4169e1; stroke: #4169e1"/>
     <use xlink:href="#m0495c8c1b4" x="427.671145" y="287.529985" style="fill: #4169e1; stroke: #4169e1"/>
     <use xlink:href="#m0495c8c1b4" x="257.542891" y="96.209434" style="fill: #4169e1; stroke: #4169e1"/>
     <use xlink:href="#m0495c8c1b4" x="354.712287" y="223.816239" style="fill: #4169e1; stroke: #4169e1"/>
     <use xlink:href="#m0495c8c1b4" x="380.786358" y="285.110156" style="fill: #4169e1; stroke: #4169e1"/>
     <use xlink:href="#m0495c8c1b4" x="377.136651" y="115.406279" style="fill: #4169e1; stroke: #4169e1"/>
     <use xlink:href="#m0495c8c1b4" x="345.77143" y="214.217697" style="fill: #4169e1; stroke: #4169e1"/>
     <use xlink:href="#m0495c8c1b4" x="286.373202" y="171.355336" style="fill: #4169e1; stroke: #4169e1"/>
     <use xlink:href="#m0495c8c1b4" x="388.016737" y="114.94829" style="fill: #4169e1; stroke: #4169e1"/>
     <use xlink:href="#m0495c8c1b4" x="298.196616" y="253.469603" style="fill: #4169e1; stroke: #4169e1"/>
     <use xlink:href="#m0495c8c1b4" x="373.042266" y="145.66029" style="fill: #4169e1; stroke: #4169e1"/>
     <use xlink:href="#m0495c8c1b4" x="360.483028" y="190.473007" style="fill: #4169e1; stroke: #4169e1"/>
     <use xlink:href="#m0495c8c1b4" x="320.723642" y="366.031448" style="fill: #4169e1; stroke: #4169e1"/>
     <use xlink:href="#m0495c8c1b4" x="286.931519" y="317.684864" style="fill: #4169e1; stroke: #4169e1"/>
     <use xlink:href="#m0495c8c1b4" x="292.510458" y="326.675876" style="fill: #4169e1; stroke: #4169e1"/>
     <use xlink:href="#m0495c8c1b4" x="284.896521" y="357.746173" style="fill: #4169e1; stroke: #4169e1"/>
     <use xlink:href="#m0495c8c1b4" x="257.875589" y="149.695411" style="fill: #4169e1; stroke: #4169e1"/>
     <use xlink:href="#m0495c8c1b4" x="286.354039" y="267.461578" style="fill: #4169e1; stroke: #4169e1"/>
     <use xlink:href="#m0495c8c1b4" x="283.058107" y="225.625807" style="fill: #4169e1; stroke: #4169e1"/>
     <use xlink:href="#m0495c8c1b4" x="379.72709" y="197.460636" style="fill: #4169e1; stroke: #4169e1"/>
     <use xlink:href="#m0495c8c1b4" x="377.432786" y="252.309885" style="fill: #4169e1; stroke: #4169e1"/>
     <use xlink:href="#m0495c8c1b4" x="427.117773" y="179.132833" style="fill: #4169e1; stroke: #4169e1"/>
     <use xlink:href="#m0495c8c1b4" x="214.988565" y="243.521522" style="fill: #4169e1; stroke: #4169e1"/>
     <use xlink:href="#m0495c8c1b4" x="160.290048" y="262.181953" style="fill: #4169e1; stroke: #4169e1"/>
     <use xlink:href="#m0495c8c1b4" x="212.647558" y="111.972071" style="fill: #4169e1; stroke: #4169e1"/>
     <use xlink:href="#m0495c8c1b4" x="382.70073" y="202.966067" style="fill: #4169e1; stroke: #4169e1"/>
     <use xlink:href="#m0495c8c1b4" x="283.727977" y="105.756538" style="fill: #4169e1; stroke: #4169e1"/>
     <use xlink:href="#m0495c8c1b4" x="211.64172" y="270.705731" style="fill: #4169e1; stroke: #4169e1"/>
     <use xlink:href="#m0495c8c1b4" x="248.339149" y="153.727588" style="fill: #4169e1; stroke: #4169e1"/>
     <use xlink:href="#m0495c8c1b4" x="287.84138" y="206.436265" style="fill: #4169e1; stroke: #4169e1"/>
     <use xlink:href="#m0495c8c1b4" x="276.072489" y="113.566188" style="fill: #4169e1; stroke: #4169e1"/>
     <use xlink:href="#m0495c8c1b4" x="277.222246" y="315.30554" style="fill: #4169e1; stroke: #4169e1"/>
     <use xlink:href="#m0495c8c1b4" x="255.160971" y="123.471208" style="fill: #4169e1; stroke: #4169e1"/>
     <use xlink:href="#m0495c8c1b4" x="325.576794" y="123.330538" style="fill: #4169e1; stroke: #4169e1"/>
     <use xlink:href="#m0495c8c1b4" x="397.066194" y="279.906206" style="fill: #4169e1; stroke: #4169e1"/>
     <use xlink:href="#m0495c8c1b4" x="252.500721" y="224.936326" style="fill: #4169e1; stroke: #4169e1"/>
     <use xlink:href="#m0495c8c1b4" x="380.738748" y="165.659573" style="fill: #4169e1; stroke: #4169e1"/>
     <use xlink:href="#m0495c8c1b4" x="342.962107" y="176.414632" style="fill: #4169e1; stroke: #4169e1"/>
     <use xlink:href="#m0495c8c1b4" x="279.025386" y="231.046642" style="fill: #4169e1; stroke: #4169e1"/>
     <use xlink:href="#m0495c8c1b4" x="324.727375" y="279.960624" style="fill: #4169e1; stroke: #4169e1"/>
     <use xlink:href="#m0495c8c1b4" x="398.993356" y="344.262666" style="fill: #4169e1; stroke: #4169e1"/>
     <use xlink:href="#m0495c8c1b4" x="334.443431" y="119.52722" style="fill: #4169e1; stroke: #4169e1"/>
     <use xlink:href="#m0495c8c1b4" x="230.120105" y="235.555186" style="fill: #4169e1; stroke: #4169e1"/>
     <use xlink:href="#m0495c8c1b4" x="206.90208" y="318.092002" style="fill: #4169e1; stroke: #4169e1"/>
     <use xlink:href="#m0495c8c1b4" x="484.409017" y="245.431048" style="fill: #4169e1; stroke: #4169e1"/>
     <use xlink:href="#m0495c8c1b4" x="286.328912" y="236.142113" style="fill: #4169e1; stroke: #4169e1"/>
     <use xlink:href="#m0495c8c1b4" x="274.707342" y="325.55568" style="fill: #4169e1; stroke: #4169e1"/>
     <use xlink:href="#m0495c8c1b4" x="294.182625" y="262.168245" style="fill: #4169e1; stroke: #4169e1"/>
     <use xlink:href="#m0495c8c1b4" x="355.591328" y="136.476186" style="fill: #4169e1; stroke: #4169e1"/>
     <use xlink:href="#m0495c8c1b4" x="271.138509" y="67.366571" style="fill: #4169e1; stroke: #4169e1"/>
     <use xlink:href="#m0495c8c1b4" x="190.195427" y="153.832087" style="fill: #4169e1; stroke: #4169e1"/>
     <use xlink:href="#m0495c8c1b4" x="345.19716" y="227.031858" style="fill: #4169e1; stroke: #4169e1"/>
     <use xlink:href="#m0495c8c1b4" x="275.810573" y="149.446019" style="fill: #4169e1; stroke: #4169e1"/>
     <use xlink:href="#m0495c8c1b4" x="255.716248" y="313.251268" style="fill: #4169e1; stroke: #4169e1"/>
     <use xlink:href="#m0495c8c1b4" x="440.643428" y="326.233155" style="fill: #4169e1; stroke: #4169e1"/>
     <use xlink:href="#m0495c8c1b4" x="356.39665" y="241.634522" style="fill: #4169e1; stroke: #4169e1"/>
     <use xlink:href="#m0495c8c1b4" x="406.732204" y="289.666719" style="fill: #4169e1; stroke: #4169e1"/>
     <use xlink:href="#m0495c8c1b4" x="330.130102" y="311.54747" style="fill: #4169e1; stroke: #4169e1"/>
     <use xlink:href="#m0495c8c1b4" x="283.681093" y="311.291777" style="fill: #4169e1; stroke: #4169e1"/>
     <use xlink:href="#m0495c8c1b4" x="316.909733" y="281.975008" style="fill: #4169e1; stroke: #4169e1"/>
     <use xlink:href="#m0495c8c1b4" x="262.842605" y="311.619666" style="fill: #4169e1; stroke: #4169e1"/>
     <use xlink:href="#m0495c8c1b4" x="356.517444" y="98.225861" style="fill: #4169e1; stroke: #4169e1"/>
     <use xlink:href="#m0495c8c1b4" x="443.986842" y="315.695934" style="fill: #4169e1; stroke: #4169e1"/>
     <use xlink:href="#m0495c8c1b4" x="472.687464" y="196.467061" style="fill: #4169e1; stroke: #4169e1"/>
     <use xlink:href="#m0495c8c1b4" x="320.449166" y="171.855575" style="fill: #4169e1; stroke: #4169e1"/>
     <use xlink:href="#m0495c8c1b4" x="310.953875" y="325.460067" style="fill: #4169e1; stroke: #4169e1"/>
     <use xlink:href="#m0495c8c1b4" x="426.032579" y="234.048151" style="fill: #4169e1; stroke: #4169e1"/>
     <use xlink:href="#m0495c8c1b4" x="269.225511" y="326.980559" style="fill: #4169e1; stroke: #4169e1"/>
     <use xlink:href="#m0495c8c1b4" x="212.869257" y="274.00324" style="fill: #4169e1; stroke: #4169e1"/>
     <use xlink:href="#m0495c8c1b4" x="373.245429" y="220.307568" style="fill: #4169e1; stroke: #4169e1"/>
     <use xlink:href="#m0495c8c1b4" x="294.803901" y="145.963058" style="fill: #4169e1; stroke: #4169e1"/>
     <use xlink:href="#m0495c8c1b4" x="264.94292" y="338.898765" style="fill: #4169e1; stroke: #4169e1"/>
     <use xlink:href="#m0495c8c1b4" x="322.216279" y="282.30085" style="fill: #4169e1; stroke: #4169e1"/>
     <use xlink:href="#m0495c8c1b4" x="319.438445" y="306.237851" style="fill: #4169e1; stroke: #4169e1"/>
     <use xlink:href="#m0495c8c1b4" x="366.120604" y="340.68167" style="fill: #4169e1; stroke: #4169e1"/>
     <use xlink:href="#m0495c8c1b4" x="296.751072" y="125.457154" style="fill: #4169e1; stroke: #4169e1"/>
     <use xlink:href="#m0495c8c1b4" x="228.59293" y="380.354946" style="fill: #4169e1; stroke: #4169e1"/>
     <use xlink:href="#m0495c8c1b4" x="394.859923" y="246.719641" style="fill: #4169e1; stroke: #4169e1"/>
     <use xlink:href="#m0495c8c1b4" x="267.123117" y="305.323842" style="fill: #4169e1; stroke: #4169e1"/>
     <use xlink:href="#m0495c8c1b4" x="438.750956" y="146.427808" style="fill: #4169e1; stroke: #4169e1"/>
     <use xlink:href="#m0495c8c1b4" x="381.079381" y="199.279175" style="fill: #4169e1; stroke: #4169e1"/>
     <use xlink:href="#m0495c8c1b4" x="239.116361" y="256.254264" style="fill: #4169e1; stroke: #4169e1"/>
     <use xlink:href="#m0495c8c1b4" x="346.173113" y="317.553952" style="fill: #4169e1; stroke: #4169e1"/>
     <use xlink:href="#m0495c8c1b4" x="147.566067" y="205.095503" style="fill: #4169e1; stroke: #4169e1"/>
    </g>
   </g>
   <g id="PathCollection_2">
    <defs>
     <path id="madfe124cb0" d="M 0 2.5 
C 0.663008 2.5 1.29895 2.236584 1.767767 1.767767 
C 2.236584 1.29895 2.5 0.663008 2.5 0 
C 2.5 -0.663008 2.236584 -1.29895 1.767767 -1.767767 
C 1.29895 -2.236584 0.663008 -2.5 0 -2.5 
C -0.663008 -2.5 -1.29895 -2.236584 -1.767767 -1.767767 
C -2.236584 -1.29895 -2.5 -0.663008 -2.5 0 
C -2.5 0.663008 -2.236584 1.29895 -1.767767 1.767767 
C -1.29895 2.236584 -0.663008 2.5 0 2.5 
z
" style="stroke: #b22222"/>
    </defs>
    <g clip-path="url(#p2f0fc6c349)">
     <use xlink:href="#madfe124cb0" x="233.390117" y="201.075242" style="fill: #b22222; stroke: #b22222"/>
     <use xlink:href="#madfe124cb0" x="241.975447" y="171.779277" style="fill: #b22222; stroke: #b22222"/>
     <use xlink:href="#madfe124cb0" x="279.936086" y="184.347594" style="fill: #b22222; stroke: #b22222"/>
     <use xlink:href="#madfe124cb0" x="311.50171" y="225.170008" style="fill: #b22222; stroke: #b22222"/>
     <use xlink:href="#madfe124cb0" x="290.980393" y="188.898739" style="fill: #b22222; stroke: #b22222"/>
     <use xlink:href="#madfe124cb0" x="309.289748" y="208.972405" style="fill: #b22222; stroke: #b22222"/>
     <use xlink:href="#madfe124cb0" x="255.792933" y="180.248011" style="fill: #b22222; stroke: #b22222"/>
     <use xlink:href="#madfe124cb0" x="298.73955" y="249.834238" style="fill: #b22222; stroke: #b22222"/>
     <use xlink:href="#madfe124cb0" x="271.538265" y="242.737224" style="fill: #b22222; stroke: #b22222"/>
     <use xlink:href="#madfe124cb0" x="298.694874" y="193.007319" style="fill: #b22222; stroke: #b22222"/>
     <use xlink:href="#madfe124cb0" x="258.371502" y="176.624484" style="fill: #b22222; stroke: #b22222"/>
     <use xlink:href="#madfe124cb0" x="251.414164" y="179.616025" style="fill: #b22222; stroke: #b22222"/>
     <use xlink:href="#madfe124cb0" x="307.363698" y="199.518156" style="fill: #b22222; stroke: #b22222"/>
     <use xlink:href="#madfe124cb0" x="284.271861" y="185.923269" style="fill: #b22222; stroke: #b22222"/>
     <use xlink:href="#madfe124cb0" x="302.956557" y="202.304692" style="fill: #b22222; stroke: #b22222"/>
     <use xlink:href="#madfe124cb0" x="306.121137" y="192.662078" style="fill: #b22222; stroke: #b22222"/>
     <use xlink:href="#madfe124cb0" x="345.344585" y="204.232291" style="fill: #b22222; stroke: #b22222"/>
     <use xlink:href="#madfe124cb0" x="241.340421" y="181.292831" style="fill: #b22222; stroke: #b22222"/>
     <use xlink:href="#madfe124cb0" x="247.135623" y="173.494331" style="fill: #b22222; stroke: #b22222"/>
     <use xlink:href="#madfe124cb0" x="236.619819" y="195.11587" style="fill: #b22222; stroke: #b22222"/>
     <use xlink:href="#madfe124cb0" x="297.630441" y="211.440376" style="fill: #b22222; stroke: #b22222"/>
     <use xlink:href="#madfe124cb0" x="308.423325" y="226.045423" style="fill: #b22222; stroke: #b22222"/>
     <use xlink:href="#madfe124cb0" x="257.670997" y="178.07366" style="fill: #b22222; stroke: #b22222"/>
     <use xlink:href="#madfe124cb0" x="342.129174" y="225.186415" style="fill: #b22222; stroke: #b22222"/>
     <use xlink:href="#madfe124cb0" x="287.631133" y="192.226916" style="fill: #b22222; stroke: #b22222"/>
     <use xlink:href="#madfe124cb0" x="306.170086" y="210.530902" style="fill: #b22222; stroke: #b22222"/>
     <use xlink:href="#madfe124cb0" x="238.872776" y="182.234742" style="fill: #b22222; stroke: #b22222"/>
     <use xlink:href="#madfe124cb0" x="309.564139" y="203.793103" style="fill: #b22222; stroke: #b22222"/>
     <use xlink:href="#madfe124cb0" x="300.581716" y="213.285935" style="fill: #b22222; stroke: #b22222"/>
     <use xlink:href="#madfe124cb0" x="289.351366" y="184.811278" style="fill: #b22222; stroke: #b22222"/>
     <use xlink:href="#madfe124cb0" x="305.491959" y="215.410485" style="fill: #b22222; stroke: #b22222"/>
     <use xlink:href="#madfe124cb0" x="302.504527" y="201.297225" style="fill: #b22222; stroke: #b22222"/>
     <use xlink:href="#madfe124cb0" x="315.352432" y="201.534471" style="fill: #b22222; stroke: #b22222"/>
     <use xlink:href="#madfe124cb0" x="308.748934" y="197.540997" style="fill: #b22222; stroke: #b22222"/>
     <use xlink:href="#madfe124cb0" x="325.859273" y="177.014371" style="fill: #b22222; stroke: #b22222"/>
     <use xlink:href="#madfe124cb0" x="286.518852" y="187.504124" style="fill: #b22222; stroke: #b22222"/>
     <use xlink:href="#madfe124cb0" x="314.475235" y="206.182731" style="fill: #b22222; stroke: #b22222"/>
     <use xlink:href="#madfe124cb0" x="284.928416" y="254.850857" style="fill: #b22222; stroke: #b22222"/>
     <use xlink:href="#madfe124cb0" x="286.580255" y="194.41192" style="fill: #b22222; stroke: #b22222"/>
     <use xlink:href="#madfe124cb0" x="314.603528" y="190.878736" style="fill: #b22222; stroke: #b22222"/>
     <use xlink:href="#madfe124cb0" x="246.980006" y="186.645677" style="fill: #b22222; stroke: #b22222"/>
     <use xlink:href="#madfe124cb0" x="255.377715" y="171.311841" style="fill: #b22222; stroke: #b22222"/>
     <use xlink:href="#madfe124cb0" x="240.420088" y="196.212109" style="fill: #b22222; stroke: #b22222"/>
     <use xlink:href="#madfe124cb0" x="240.031223" y="191.588155" style="fill: #b22222; stroke: #b22222"/>
     <use xlink:href="#madfe124cb0" x="278.673643" y="179.33895" style="fill: #b22222; stroke: #b22222"/>
     <use xlink:href="#madfe124cb0" x="241.486821" y="188.479383" style="fill: #b22222; stroke: #b22222"/>
     <use xlink:href="#madfe124cb0" x="236.113127" y="196.058959" style="fill: #b22222; stroke: #b22222"/>
     <use xlink:href="#madfe124cb0" x="252.4935" y="181.664523" style="fill: #b22222; stroke: #b22222"/>
     <use xlink:href="#madfe124cb0" x="344.892403" y="266.735782" style="fill: #b22222; stroke: #b22222"/>
     <use xlink:href="#madfe124cb0" x="262.942091" y="179.796709" style="fill: #b22222; stroke: #b22222"/>
     <use xlink:href="#madfe124cb0" x="254.610183" y="179.787935" style="fill: #b22222; stroke: #b22222"/>
     <use xlink:href="#madfe124cb0" x="248.846687" y="176.062535" style="fill: #b22222; stroke: #b22222"/>
     <use xlink:href="#madfe124cb0" x="260.903322" y="179.30344" style="fill: #b22222; stroke: #b22222"/>
     <use xlink:href="#madfe124cb0" x="261.135766" y="179.659838" style="fill: #b22222; stroke: #b22222"/>
     <use xlink:href="#madfe124cb0" x="251.704554" y="171.061718" style="fill: #b22222; stroke: #b22222"/>
     <use xlink:href="#madfe124cb0" x="284.453711" y="192.986519" style="fill: #b22222; stroke: #b22222"/>
     <use xlink:href="#madfe124cb0" x="242.802814" y="193.851043" style="fill: #b22222; stroke: #b22222"/>
     <use xlink:href="#madfe124cb0" x="305.370378" y="216.730529" style="fill: #b22222; stroke: #b22222"/>
     <use xlink:href="#madfe124cb0" x="273.574202" y="169.110727" style="fill: #b22222; stroke: #b22222"/>
     <use xlink:href="#madfe124cb0" x="296.658469" y="206.791329" style="fill: #b22222; stroke: #b22222"/>
     <use xlink:href="#madfe124cb0" x="300.115037" y="212.011778" style="fill: #b22222; stroke: #b22222"/>
     <use xlink:href="#madfe124cb0" x="277.414398" y="196.958844" style="fill: #b22222; stroke: #b22222"/>
     <use xlink:href="#madfe124cb0" x="332.542818" y="202.711065" style="fill: #b22222; stroke: #b22222"/>
     <use xlink:href="#madfe124cb0" x="274.809463" y="179.678875" style="fill: #b22222; stroke: #b22222"/>
     <use xlink:href="#madfe124cb0" x="275.152073" y="174.443274" style="fill: #b22222; stroke: #b22222"/>
     <use xlink:href="#madfe124cb0" x="279.160762" y="178.500965" style="fill: #b22222; stroke: #b22222"/>
     <use xlink:href="#madfe124cb0" x="233.409862" y="184.692767" style="fill: #b22222; stroke: #b22222"/>
     <use xlink:href="#madfe124cb0" x="266.626836" y="178.527988" style="fill: #b22222; stroke: #b22222"/>
     <use xlink:href="#madfe124cb0" x="246.651031" y="192.603291" style="fill: #b22222; stroke: #b22222"/>
     <use xlink:href="#madfe124cb0" x="288.579195" y="200.848536" style="fill: #b22222; stroke: #b22222"/>
     <use xlink:href="#madfe124cb0" x="241.798881" y="178.355756" style="fill: #b22222; stroke: #b22222"/>
     <use xlink:href="#madfe124cb0" x="253.474574" y="178.560837" style="fill: #b22222; stroke: #b22222"/>
     <use xlink:href="#madfe124cb0" x="243.958922" y="177.090984" style="fill: #b22222; stroke: #b22222"/>
     <use xlink:href="#madfe124cb0" x="287.388603" y="189.340084" style="fill: #b22222; stroke: #b22222"/>
     <use xlink:href="#madfe124cb0" x="251.121338" y="183.855689" style="fill: #b22222; stroke: #b22222"/>
     <use xlink:href="#madfe124cb0" x="239.694225" y="184.186549" style="fill: #b22222; stroke: #b22222"/>
     <use xlink:href="#madfe124cb0" x="249.054634" y="179.384699" style="fill: #b22222; stroke: #b22222"/>
     <use xlink:href="#madfe124cb0" x="499.970156" y="7.2" style="fill: #b22222; stroke: #b22222"/>
     <use xlink:href="#madfe124cb0" x="235.667394" y="193.352469" style="fill: #b22222; stroke: #b22222"/>
     <use xlink:href="#madfe124cb0" x="307.572729" y="220.477807" style="fill: #b22222; stroke: #b22222"/>
     <use xlink:href="#madfe124cb0" x="312.139406" y="212.598602" style="fill: #b22222; stroke: #b22222"/>
     <use xlink:href="#madfe124cb0" x="312.689387" y="209.919549" style="fill: #b22222; stroke: #b22222"/>
     <use xlink:href="#madfe124cb0" x="234.840277" y="190.694841" style="fill: #b22222; stroke: #b22222"/>
     <use xlink:href="#madfe124cb0" x="244.588889" y="208.886301" style="fill: #b22222; stroke: #b22222"/>
     <use xlink:href="#madfe124cb0" x="268.762368" y="184.278301" style="fill: #b22222; stroke: #b22222"/>
     <use xlink:href="#madfe124cb0" x="248.336175" y="169.508613" style="fill: #b22222; stroke: #b22222"/>
    </g>
   </g>
   <g id="patch_4">
    <path d="M 56.450156 450.72 
L 56.450156 7.2 
" style="fill: none; stroke: #ffffff; stroke-width: 1.25; stroke-linejoin: miter; stroke-linecap: square"/>
   </g>
   <g id="patch_5">
    <path d="M 499.970156 450.72 
L 499.970156 7.2 
" style="fill: none; stroke: #ffffff; stroke-width: 1.25; stroke-linejoin: miter; stroke-linecap: square"/>
   </g>
   <g id="patch_6">
    <path d="M 56.450156 450.72 
L 499.970156 450.72 
" style="fill: none; stroke: #ffffff; stroke-width: 1.25; stroke-linejoin: miter; stroke-linecap: square"/>
   </g>
   <g id="patch_7">
    <path d="M 56.450156 7.2 
L 499.970156 7.2 
" style="fill: none; stroke: #ffffff; stroke-width: 1.25; stroke-linejoin: miter; stroke-linecap: square"/>
   </g>
   <g id="text_13">
    <!-- t = 4900 -->
    <g style="fill: #262626" transform="translate(65.320556 24.659775) scale(0.12 -0.12)">
     <defs>
      <path id="ArialMT-74" d="M 1650 503 
L 1731 6 
Q 1494 -44 1306 -44 
Q 1000 -44 831 53 
Q 663 150 594 308 
Q 525 466 525 972 
L 525 2881 
L 113 2881 
L 113 3319 
L 525 3319 
L 525 4141 
L 1084 4478 
L 1084 3319 
L 1650 3319 
L 1650 2881 
L 1084 2881 
L 1084 941 
Q 1084 700 1114 631 
Q 1144 563 1211 522 
Q 1278 481 1403 481 
Q 1497 481 1650 503 
z
" transform="scale(0.015625)"/>
      <path id="ArialMT-20" transform="scale(0.015625)"/>
      <path id="ArialMT-3d" d="M 3381 2694 
L 356 2694 
L 356 3219 
L 3381 3219 
L 3381 2694 
z
M 3381 1303 
L 356 1303 
L 356 1828 
L 3381 1828 
L 3381 1303 
z
" transform="scale(0.015625)"/>
      <path id="ArialMT-39" d="M 350 1059 
L 891 1109 
Q 959 728 1153 556 
Q 1347 384 1650 384 
Q 1909 384 2104 503 
Q 2300 622 2425 820 
Q 2550 1019 2634 1356 
Q 2719 1694 2719 2044 
Q 2719 2081 2716 2156 
Q 2547 1888 2255 1720 
Q 1963 1553 1622 1553 
Q 1053 1553 659 1965 
Q 266 2378 266 3053 
Q 266 3750 677 4175 
Q 1088 4600 1706 4600 
Q 2153 4600 2523 4359 
Q 2894 4119 3086 3673 
Q 3278 3228 3278 2384 
Q 3278 1506 3087 986 
Q 2897 466 2520 194 
Q 2144 -78 1638 -78 
Q 1100 -78 759 220 
Q 419 519 350 1059 
z
M 2653 3081 
Q 2653 3566 2395 3850 
Q 2138 4134 1775 4134 
Q 1400 4134 1122 3828 
Q 844 3522 844 3034 
Q 844 2597 1108 2323 
Q 1372 2050 1759 2050 
Q 2150 2050 2401 2323 
Q 2653 2597 2653 3081 
z
" transform="scale(0.015625)"/>
     </defs>
     <use xlink:href="#ArialMT-74"/>
     <use xlink:href="#ArialMT-20" x="27.783203"/>
     <use xlink:href="#ArialMT-3d" x="55.566406"/>
     <use xlink:href="#ArialMT-20" x="113.964844"/>
     <use xlink:href="#ArialMT-34" x="141.748047"/>
     <use xlink:href="#ArialMT-39" x="197.363281"/>
     <use xlink:href="#ArialMT-30" x="252.978516"/>
     <use xlink:href="#ArialMT-30" x="308.59375"/>
    </g>
   </g>
   <g id="legend_1">
    <g id="patch_8">
     <path d="M 328.111406 94.59 
L 483.170156 94.59 
Q 487.970156 94.59 487.970156 89.79 
L 487.970156 24 
Q 487.970156 19.2 483.170156 19.2 
L 328.111406 19.2 
Q 323.311406 19.2 323.311406 24 
L 323.311406 89.79 
Q 323.311406 94.59 328.111406 94.59 
z
" style="fill: #eaeaf2; opacity: 0.8; stroke: #cccccc; stroke-linejoin: miter"/>
    </g>
    <g id="PathCollection_3">
     <g>
      <use xlink:href="#m0495c8c1b4" x="356.911406" y="39.97125" style="fill: #4169e1; stroke: #4169e1"/>
     </g>
    </g>
    <g id="text_14">
     <!-- Sheep -->
     <g style="fill: #262626" transform="translate(400.111406 46.27125) scale(0.24 -0.24)">
      <defs>
       <path id="ArialMT-53" d="M 288 1472 
L 859 1522 
Q 900 1178 1048 958 
Q 1197 738 1509 602 
Q 1822 466 2213 466 
Q 2559 466 2825 569 
Q 3091 672 3220 851 
Q 3350 1031 3350 1244 
Q 3350 1459 3225 1620 
Q 3100 1781 2813 1891 
Q 2628 1963 1997 2114 
Q 1366 2266 1113 2400 
Q 784 2572 623 2826 
Q 463 3081 463 3397 
Q 463 3744 659 4045 
Q 856 4347 1234 4503 
Q 1613 4659 2075 4659 
Q 2584 4659 2973 4495 
Q 3363 4331 3572 4012 
Q 3781 3694 3797 3291 
L 3216 3247 
Q 3169 3681 2898 3903 
Q 2628 4125 2100 4125 
Q 1550 4125 1298 3923 
Q 1047 3722 1047 3438 
Q 1047 3191 1225 3031 
Q 1400 2872 2139 2705 
Q 2878 2538 3153 2413 
Q 3553 2228 3743 1945 
Q 3934 1663 3934 1294 
Q 3934 928 3725 604 
Q 3516 281 3123 101 
Q 2731 -78 2241 -78 
Q 1619 -78 1198 103 
Q 778 284 539 648 
Q 300 1013 288 1472 
z
" transform="scale(0.015625)"/>
       <path id="ArialMT-68" d="M 422 0 
L 422 4581 
L 984 4581 
L 984 2938 
Q 1378 3394 1978 3394 
Q 2347 3394 2619 3248 
Q 2891 3103 3008 2847 
Q 3125 2591 3125 2103 
L 3125 0 
L 2563 0 
L 2563 2103 
Q 2563 2525 2380 2717 
Q 2197 2909 1863 2909 
Q 1613 2909 1392 2779 
Q 1172 2650 1078 2428 
Q 984 2206 984 1816 
L 984 0 
L 422 0 
z
" transform="scale(0.015625)"/>
       <path id="ArialMT-65" d="M 2694 1069 
L 3275 997 
Q 3138 488 2766 206 
Q 2394 -75 1816 -75 
Q 1088 -75 661 373 
Q 234 822 234 1631 
Q 234 2469 665 2931 
Q 1097 3394 1784 3394 
Q 2450 3394 2872 2941 
Q 3294 2488 3294 1666 
Q 3294 1616 3291 1516 
L 816 1516 
Q 847 969 1125 678 
Q 1403 388 1819 388 
Q 2128 388 2347 550 
Q 2566 713 2694 1069 
z
M 847 1978 
L 2700 1978 
Q 2663 2397 2488 2606 
Q 2219 2931 1791 2931 
Q 1403 2931 1139 2672 
Q 875 2413 847 1978 
z
" transform="scale(0.015625)"/>
       <path id="ArialMT-70" d="M 422 -1272 
L 422 3319 
L 934 3319 
L 934 2888 
Q 1116 3141 1344 3267 
Q 1572 3394 1897 3394 
Q 2322 3394 2647 3175 
Q 2972 2956 3137 2557 
Q 3303 2159 3303 1684 
Q 3303 1175 3120 767 
Q 2938 359 2589 142 
Q 2241 -75 1856 -75 
Q 1575 -75 1351 44 
Q 1128 163 984 344 
L 984 -1272 
L 422 -1272 
z
M 931 1641 
Q 931 1000 1190 694 
Q 1450 388 1819 388 
Q 2194 388 2461 705 
Q 2728 1022 2728 1688 
Q 2728 2322 2467 2637 
Q 2206 2953 1844 2953 
Q 1484 2953 1207 2617 
Q 931 2281 931 1641 
z
" transform="scale(0.015625)"/>
      </defs>
      <use xlink:href="#ArialMT-53"/>
      <use xlink:href="#ArialMT-68" x="66.699219"/>
      <use xlink:href="#ArialMT-65" x="122.314453"/>
      <use xlink:href="#ArialMT-65" x="177.929688"/>
      <use xlink:href="#ArialMT-70" x="233.544922"/>
     </g>
    </g>
    <g id="PathCollection_4">
     <g>
      <use xlink:href="#madfe124cb0" x="356.911406" y="73.92" style="fill: #b22222; stroke: #b22222"/>
     </g>
    </g>
    <g id="text_15">
     <!-- Wolves -->
     <g style="fill: #262626" transform="translate(400.111406 80.22) scale(0.24 -0.24)">
      <defs>
       <path id="ArialMT-57" d="M 1294 0 
L 78 4581 
L 700 4581 
L 1397 1578 
Q 1509 1106 1591 641 
Q 1766 1375 1797 1488 
L 2669 4581 
L 3400 4581 
L 4056 2263 
Q 4303 1400 4413 641 
Q 4500 1075 4641 1638 
L 5359 4581 
L 5969 4581 
L 4713 0 
L 4128 0 
L 3163 3491 
Q 3041 3928 3019 4028 
Q 2947 3713 2884 3491 
L 1913 0 
L 1294 0 
z
" transform="scale(0.015625)"/>
       <path id="ArialMT-6f" d="M 213 1659 
Q 213 2581 725 3025 
Q 1153 3394 1769 3394 
Q 2453 3394 2887 2945 
Q 3322 2497 3322 1706 
Q 3322 1066 3130 698 
Q 2938 331 2570 128 
Q 2203 -75 1769 -75 
Q 1072 -75 642 372 
Q 213 819 213 1659 
z
M 791 1659 
Q 791 1022 1069 705 
Q 1347 388 1769 388 
Q 2188 388 2466 706 
Q 2744 1025 2744 1678 
Q 2744 2294 2464 2611 
Q 2184 2928 1769 2928 
Q 1347 2928 1069 2612 
Q 791 2297 791 1659 
z
" transform="scale(0.015625)"/>
       <path id="ArialMT-6c" d="M 409 0 
L 409 4581 
L 972 4581 
L 972 0 
L 409 0 
z
" transform="scale(0.015625)"/>
       <path id="ArialMT-76" d="M 1344 0 
L 81 3319 
L 675 3319 
L 1388 1331 
Q 1503 1009 1600 663 
Q 1675 925 1809 1294 
L 2547 3319 
L 3125 3319 
L 1869 0 
L 1344 0 
z
" transform="scale(0.015625)"/>
       <path id="ArialMT-73" d="M 197 991 
L 753 1078 
Q 800 744 1014 566 
Q 1228 388 1613 388 
Q 2000 388 2187 545 
Q 2375 703 2375 916 
Q 2375 1106 2209 1216 
Q 2094 1291 1634 1406 
Q 1016 1563 777 1677 
Q 538 1791 414 1992 
Q 291 2194 291 2438 
Q 291 2659 392 2848 
Q 494 3038 669 3163 
Q 800 3259 1026 3326 
Q 1253 3394 1513 3394 
Q 1903 3394 2198 3281 
Q 2494 3169 2634 2976 
Q 2775 2784 2828 2463 
L 2278 2388 
Q 2241 2644 2061 2787 
Q 1881 2931 1553 2931 
Q 1166 2931 1000 2803 
Q 834 2675 834 2503 
Q 834 2394 903 2306 
Q 972 2216 1119 2156 
Q 1203 2125 1616 2013 
Q 2213 1853 2448 1751 
Q 2684 1650 2818 1456 
Q 2953 1263 2953 975 
Q 2953 694 2789 445 
Q 2625 197 2315 61 
Q 2006 -75 1616 -75 
Q 969 -75 630 194 
Q 291 463 197 991 
z
" transform="scale(0.015625)"/>
      </defs>
      <use xlink:href="#ArialMT-57"/>
      <use xlink:href="#ArialMT-6f" x="92.634766"/>
      <use xlink:href="#ArialMT-6c" x="148.25"/>
      <use xlink:href="#ArialMT-76" x="170.466797"/>
      <use xlink:href="#ArialMT-65" x="220.466797"/>
      <use xlink:href="#ArialMT-73" x="276.082031"/>
     </g>
    </g>
   </g>
  </g>
 </g>
 <defs>
  <clipPath id="p2f0fc6c349">
   <rect x="56.450156" y="7.2" width="443.52" height="443.52"/>
  </clipPath>
 </defs>
</svg>
