<?xml version="1.0" encoding="utf-8" standalone="no"?>
<!DOCTYPE svg PUBLIC "-//W3C//DTD SVG 1.1//EN"
  "http://www.w3.org/Graphics/SVG/1.1/DTD/svg11.dtd">
<svg xmlns:xlink="http://www.w3.org/1999/xlink" width="507.170156pt" height="492.454219pt" viewBox="0 0 507.170156 492.454219" xmlns="http://www.w3.org/2000/svg" version="1.1">
 <metadata>
  <rdf:RDF xmlns:dc="http://purl.org/dc/elements/1.1/" xmlns:cc="http://creativecommons.org/ns#" xmlns:rdf="http://www.w3.org/1999/02/22-rdf-syntax-ns#">
   <cc:Work>
    <dc:type rdf:resource="http://purl.org/dc/dcmitype/StillImage"/>
    <dc:date>2026-05-12T10:43:19.503562</dc:date>
    <dc:format>image/svg+xml</dc:format>
    <dc:creator>
     <cc:Agent>
      <dc:title>Matplotlib v3.7.1, https://matplotlib.org/</dc:title>
     </cc:Agent>
    </dc:creator>
   </cc:Work>
  </rdf:RDF>
 </metadata>
 <defs>
  <style type="text/css">*{stroke-linejoin: round; stroke-linecap: butt}</style>
 </defs>
 <g id="figure_1">
  <g id="patch_1">
   <path d="M 0 492.454219 
L 507.170156 492.454219 
L 507.170156 0 
L 0 0 
z
" style="fill: #ffffff"/>
  </g>
  <g id="axes_1">
   <g id="patch_2">
    <path d="M 56.450156 450.72 
L 499.970156 450.72 
L 499.970156 7.2 
L 56.450156 7.2 
z
" style="fill: #eaeaf2"/>
   </g>
   <g id="matplotlib.axis_1">
    <g id="xtick_1">
     <g id="line2d_1">
      <path d="M 100.802156 450.72 
L 100.802156 7.2 
" clip-path="url(#p083848e89c)" style="fill: none; stroke: #ffffff; stroke-linecap: round"/>
     </g>
     <g id="text_1">
      <!-- −400 -->
      <g style="fill: #262626" transform="translate(88.414266 468.093594) scale(0.11 -0.11)">
       <defs>
        <path id="ArialMT-2212" d="M 3381 1997 
L 356 1997 
L 356 2522 
L 3381 2522 
L 3381 1997 
z
" transform="scale(0.015625)"/>
        <path id="ArialMT-34" d="M 2069 0 
L 2069 1097 
L 81 1097 
L 81 1613 
L 2172 4581 
L 2631 4581 
L 2631 1613 
L 3250 1613 
L 3250 1097 
L 2631 1097 
L 2631 0 
L 2069 0 
z
M 2069 1613 
L 2069 3678 
L 634 1613 
L 2069 1613 
z
" transform="scale(0.015625)"/>
        <path id="ArialMT-30" d="M 266 2259 
Q 266 3072 433 3567 
Q 600 4063 929 4331 
Q 1259 4600 1759 4600 
Q 2128 4600 2406 4451 
Q 2684 4303 2865 4023 
Q 3047 3744 3150 3342 
Q 3253 2941 3253 2259 
Q 3253 1453 3087 958 
Q 2922 463 2592 192 
Q 2263 -78 1759 -78 
Q 1097 -78 719 397 
Q 266 969 266 2259 
z
M 844 2259 
Q 844 1131 1108 757 
Q 1372 384 1759 384 
Q 2147 384 2411 759 
Q 2675 1134 2675 2259 
Q 2675 3391 2411 3762 
Q 2147 4134 1753 4134 
Q 1366 4134 1134 3806 
Q 844 3388 844 2259 
z
" transform="scale(0.015625)"/>
       </defs>
       <use xlink:href="#ArialMT-2212"/>
       <use xlink:href="#ArialMT-34" x="58.398438"/>
       <use xlink:href="#ArialMT-30" x="114.013672"/>
       <use xlink:href="#ArialMT-30" x="169.628906"/>
      </g>
     </g>
    </g>
    <g id="xtick_2">
     <g id="line2d_2">
      <path d="M 189.506156 450.72 
L 189.506156 7.2 
" clip-path="url(#p083848e89c)" style="fill: none; stroke: #ffffff; stroke-linecap: round"/>
     </g>
     <g id="text_2">
      <!-- −200 -->
      <g style="fill: #262626" transform="translate(177.118266 468.093594) scale(0.11 -0.11)">
       <defs>
        <path id="ArialMT-32" d="M 3222 541 
L 3222 0 
L 194 0 
Q 188 203 259 391 
Q 375 700 629 1000 
Q 884 1300 1366 1694 
Q 2113 2306 2375 2664 
Q 2638 3022 2638 3341 
Q 2638 3675 2398 3904 
Q 2159 4134 1775 4134 
Q 1369 4134 1125 3890 
Q 881 3647 878 3216 
L 300 3275 
Q 359 3922 746 4261 
Q 1134 4600 1788 4600 
Q 2447 4600 2831 4234 
Q 3216 3869 3216 3328 
Q 3216 3053 3103 2787 
Q 2991 2522 2730 2228 
Q 2469 1934 1863 1422 
Q 1356 997 1212 845 
Q 1069 694 975 541 
L 3222 541 
z
" transform="scale(0.015625)"/>
       </defs>
       <use xlink:href="#ArialMT-2212"/>
       <use xlink:href="#ArialMT-32" x="58.398438"/>
       <use xlink:href="#ArialMT-30" x="114.013672"/>
       <use xlink:href="#ArialMT-30" x="169.628906"/>
      </g>
     </g>
    </g>
    <g id="xtick_3">
     <g id="line2d_3">
      <path d="M 278.210156 450.72 
L 278.210156 7.2 
" clip-path="url(#p083848e89c)" style="fill: none; stroke: #ffffff; stroke-linecap: round"/>
     </g>
     <g id="text_3">
      <!-- 0 -->
      <g style="fill: #262626" transform="translate(275.151641 468.093594) scale(0.11 -0.11)">
       <use xlink:href="#ArialMT-30"/>
      </g>
     </g>
    </g>
    <g id="xtick_4">
     <g id="line2d_4">
      <path d="M 366.914156 450.72 
L 366.914156 7.2 
" clip-path="url(#p083848e89c)" style="fill: none; stroke: #ffffff; stroke-linecap: round"/>
     </g>
     <g id="text_4">
      <!-- 200 -->
      <g style="fill: #262626" transform="translate(357.738609 468.093594) scale(0.11 -0.11)">
       <use xlink:href="#ArialMT-32"/>
       <use xlink:href="#ArialMT-30" x="55.615234"/>
       <use xlink:href="#ArialMT-30" x="111.230469"/>
      </g>
     </g>
    </g>
    <g id="xtick_5">
     <g id="line2d_5">
      <path d="M 455.618156 450.72 
L 455.618156 7.2 
" clip-path="url(#p083848e89c)" style="fill: none; stroke: #ffffff; stroke-linecap: round"/>
     </g>
     <g id="text_5">
      <!-- 400 -->
      <g style="fill: #262626" transform="translate(446.442609 468.093594) scale(0.11 -0.11)">
       <use xlink:href="#ArialMT-34"/>
       <use xlink:href="#ArialMT-30" x="55.615234"/>
       <use xlink:href="#ArialMT-30" x="111.230469"/>
      </g>
     </g>
    </g>
    <g id="text_6">
     <!-- x -->
     <g style="fill: #262626" transform="translate(275.210156 482.869219) scale(0.12 -0.12)">
      <defs>
       <path id="ArialMT-78" d="M 47 0 
L 1259 1725 
L 138 3319 
L 841 3319 
L 1350 2541 
Q 1494 2319 1581 2169 
Q 1719 2375 1834 2534 
L 2394 3319 
L 3066 3319 
L 1919 1756 
L 3153 0 
L 2463 0 
L 1781 1031 
L 1600 1309 
L 728 0 
L 47 0 
z
" transform="scale(0.015625)"/>
      </defs>
      <use xlink:href="#ArialMT-78"/>
     </g>
    </g>
   </g>
   <g id="matplotlib.axis_2">
    <g id="ytick_1">
     <g id="line2d_6">
      <path d="M 56.450156 406.368 
L 499.970156 406.368 
" clip-path="url(#p083848e89c)" style="fill: none; stroke: #ffffff; stroke-linecap: round"/>
     </g>
     <g id="text_7">
      <!-- −400 -->
      <g style="fill: #262626" transform="translate(22.174375 410.304797) scale(0.11 -0.11)">
       <use xlink:href="#ArialMT-2212"/>
       <use xlink:href="#ArialMT-34" x="58.398438"/>
       <use xlink:href="#ArialMT-30" x="114.013672"/>
       <use xlink:href="#ArialMT-30" x="169.628906"/>
      </g>
     </g>
    </g>
    <g id="ytick_2">
     <g id="line2d_7">
      <path d="M 56.450156 317.664 
L 499.970156 317.664 
" clip-path="url(#p083848e89c)" style="fill: none; stroke: #ffffff; stroke-linecap: round"/>
     </g>
     <g id="text_8">
      <!-- −200 -->
      <g style="fill: #262626" transform="translate(22.174375 321.600797) scale(0.11 -0.11)">
       <use xlink:href="#ArialMT-2212"/>
       <use xlink:href="#ArialMT-32" x="58.398438"/>
       <use xlink:href="#ArialMT-30" x="114.013672"/>
       <use xlink:href="#ArialMT-30" x="169.628906"/>
      </g>
     </g>
    </g>
    <g id="ytick_3">
     <g id="line2d_8">
      <path d="M 56.450156 228.96 
L 499.970156 228.96 
" clip-path="url(#p083848e89c)" style="fill: none; stroke: #ffffff; stroke-linecap: round"/>
     </g>
     <g id="text_9">
      <!-- 0 -->
      <g style="fill: #262626" transform="translate(40.833125 232.896797) scale(0.11 -0.11)">
       <use xlink:href="#ArialMT-30"/>
      </g>
     </g>
    </g>
    <g id="ytick_4">
     <g id="line2d_9">
      <path d="M 56.450156 140.256 
L 499.970156 140.256 
" clip-path="url(#p083848e89c)" style="fill: none; stroke: #ffffff; stroke-linecap: round"/>
     </g>
     <g id="text_10">
      <!-- 200 -->
      <g style="fill: #262626" transform="translate(28.599063 144.192797) scale(0.11 -0.11)">
       <use xlink:href="#ArialMT-32"/>
       <use xlink:href="#ArialMT-30" x="55.615234"/>
       <use xlink:href="#ArialMT-30" x="111.230469"/>
      </g>
     </g>
    </g>
    <g id="ytick_5">
     <g id="line2d_10">
      <path d="M 56.450156 51.552 
L 499.970156 51.552 
" clip-path="url(#p083848e89c)" style="fill: none; stroke: #ffffff; stroke-linecap: round"/>
     </g>
     <g id="text_11">
      <!-- 400 -->
      <g style="fill: #262626" transform="translate(28.599063 55.488797) scale(0.11 -0.11)">
       <use xlink:href="#ArialMT-34"/>
       <use xlink:href="#ArialMT-30" x="55.615234"/>
       <use xlink:href="#ArialMT-30" x="111.230469"/>
      </g>
     </g>
    </g>
    <g id="text_12">
     <!-- y -->
     <g style="fill: #262626" transform="translate(15.64875 231.96) rotate(-90) scale(0.12 -0.12)">
      <defs>
       <path id="ArialMT-79" d="M 397 -1278 
L 334 -750 
Q 519 -800 656 -800 
Q 844 -800 956 -737 
Q 1069 -675 1141 -563 
Q 1194 -478 1313 -144 
Q 1328 -97 1363 -6 
L 103 3319 
L 709 3319 
L 1400 1397 
Q 1534 1031 1641 628 
Q 1738 1016 1872 1384 
L 2581 3319 
L 3144 3319 
L 1881 -56 
Q 1678 -603 1566 -809 
Q 1416 -1088 1222 -1217 
Q 1028 -1347 759 -1347 
Q 597 -1347 397 -1278 
z
" transform="scale(0.015625)"/>
      </defs>
      <use xlink:href="#ArialMT-79"/>
     </g>
    </g>
   </g>
   <g id="patch_3">
    <path d="M 278.210156 317.664 
C 301.734732 317.664 324.298969 308.317587 340.933356 291.6832 
C 357.567743 275.048813 366.914156 252.484576 366.914156 228.96 
C 366.914156 205.435424 357.567743 182.871187 340.933356 166.2368 
C 324.298969 149.602413 301.734732 140.256 278.210156 140.256 
C 254.68558 140.256 232.121343 149.602413 215.486956 166.2368 
C 198.852569 182.871187 189.506156 205.435424 189.506156 228.96 
C 189.506156 252.484576 198.852569 275.048813 215.486956 291.6832 
C 232.121343 308.317587 254.68558 317.664 278.210156 317.664 
z
" clip-path="url(#p083848e89c)" style="fill: #228b22; opacity: 0.12; stroke: #228b22; stroke-width: 1.5; stroke-linejoin: miter"/>
   </g>
   <g id="PathCollection_1">
    <defs>
     <path id="m19e8cced51" d="M 0 2.236068 
C 0.593012 2.236068 1.161816 2.000462 1.581139 1.581139 
C 2.000462 1.161816 2.236068 0.593012 2.236068 0 
C 2.236068 -0.593012 2.000462 -1.161816 1.581139 -1.581139 
C 1.161816 -2.000462 0.593012 -2.236068 0 -2.236068 
C -0.593012 -2.236068 -1.161816 -2.000462 -1.581139 -1.581139 
C -2.000462 -1.161816 -2.236068 -0.593012 -2.236068 0 
C -2.236068 0.593012 -2.000462 1.161816 -1.581139 1.581139 
C -1.161816 2.000462 -0.593012 2.236068 0 2.236068 
z
" style="stroke: #4169e1"/>
    </defs>
    <g clip-path="url(#p083848e89c)">
     <use xlink:href="#m19e8cced51" x="365.495401" y="104.240289" style="fill: #4169e1; stroke: #4169e1"/>
     <use xlink:href="#m19e8cced51" x="316.548764" y="121.726919" style="fill: #4169e1; stroke: #4169e1"/>
     <use xlink:href="#m19e8cced51" x="295.864027" y="163.976673" style="fill: #4169e1; stroke: #4169e1"/>
     <use xlink:href="#m19e8cced51" x="371.909732" y="166.858145" style="fill: #4169e1; stroke: #4169e1"/>
     <use xlink:href="#m19e8cced51" x="385.520617" y="266.958036" style="fill: #4169e1; stroke: #4169e1"/>
     <use xlink:href="#m19e8cced51" x="403.700072" y="251.58244" style="fill: #4169e1; stroke: #4169e1"/>
     <use xlink:href="#m19e8cced51" x="475.05636" y="143.175452" style="fill: #4169e1; stroke: #4169e1"/>
     <use xlink:href="#m19e8cced51" x="186.503504" y="252.868096" style="fill: #4169e1; stroke: #4169e1"/>
     <use xlink:href="#m19e8cced51" x="300.837368" y="242.109584" style="fill: #4169e1; stroke: #4169e1"/>
     <use xlink:href="#m19e8cced51" x="325.974714" y="158.240961" style="fill: #4169e1; stroke: #4169e1"/>
     <use xlink:href="#m19e8cced51" x="314.683805" y="266.752948" style="fill: #4169e1; stroke: #4169e1"/>
     <use xlink:href="#m19e8cced51" x="413.869779" y="212.208065" style="fill: #4169e1; stroke: #4169e1"/>
     <use xlink:href="#m19e8cced51" x="492.929939" y="191.468094" style="fill: #4169e1; stroke: #4169e1"/>
     <use xlink:href="#m19e8cced51" x="445.306898" y="80.391439" style="fill: #4169e1; stroke: #4169e1"/>
     <use xlink:href="#m19e8cced51" x="464.427107" y="186.658343" style="fill: #4169e1; stroke: #4169e1"/>
     <use xlink:href="#m19e8cced51" x="245.158262" y="133.322156" style="fill: #4169e1; stroke: #4169e1"/>
     <use xlink:href="#m19e8cced51" x="419.433703" y="76.020625" style="fill: #4169e1; stroke: #4169e1"/>
     <use xlink:href="#m19e8cced51" x="470.729536" y="139.089046" style="fill: #4169e1; stroke: #4169e1"/>
     <use xlink:href="#m19e8cced51" x="350.410605" y="172.251583" style="fill: #4169e1; stroke: #4169e1"/>
     <use xlink:href="#m19e8cced51" x="322.473822" y="282.428104" style="fill: #4169e1; stroke: #4169e1"/>
     <use xlink:href="#m19e8cced51" x="273.523774" y="115.747541" style="fill: #4169e1; stroke: #4169e1"/>
     <use xlink:href="#m19e8cced51" x="327.3647" y="180.646744" style="fill: #4169e1; stroke: #4169e1"/>
     <use xlink:href="#m19e8cced51" x="349.626852" y="90.614014" style="fill: #4169e1; stroke: #4169e1"/>
     <use xlink:href="#m19e8cced51" x="292.792284" y="150.052408" style="fill: #4169e1; stroke: #4169e1"/>
     <use xlink:href="#m19e8cced51" x="356.712506" y="242.445029" style="fill: #4169e1; stroke: #4169e1"/>
     <use xlink:href="#m19e8cced51" x="440.478231" y="125.534359" style="fill: #4169e1; stroke: #4169e1"/>
     <use xlink:href="#m19e8cced51" x="439.777015" y="161.640376" style="fill: #4169e1; stroke: #4169e1"/>
     <use xlink:href="#m19e8cced51" x="401.669338" y="79.013898" style="fill: #4169e1; stroke: #4169e1"/>
     <use xlink:href="#m19e8cced51" x="198.214412" y="216.073739" style="fill: #4169e1; stroke: #4169e1"/>
     <use xlink:href="#m19e8cced51" x="490.144174" y="135.533442" style="fill: #4169e1; stroke: #4169e1"/>
     <use xlink:href="#m19e8cced51" x="339.369646" y="248.502593" style="fill: #4169e1; stroke: #4169e1"/>
     <use xlink:href="#m19e8cced51" x="209.264351" y="258.716686" style="fill: #4169e1; stroke: #4169e1"/>
     <use xlink:href="#m19e8cced51" x="405.335782" y="283.444022" style="fill: #4169e1; stroke: #4169e1"/>
     <use xlink:href="#m19e8cced51" x="429.697574" y="158.00555" style="fill: #4169e1; stroke: #4169e1"/>
     <use xlink:href="#m19e8cced51" x="394.722405" y="148.249302" style="fill: #4169e1; stroke: #4169e1"/>
     <use xlink:href="#m19e8cced51" x="239.240533" y="158.094449" style="fill: #4169e1; stroke: #4169e1"/>
     <use xlink:href="#m19e8cced51" x="383.37315" y="274.845689" style="fill: #4169e1; stroke: #4169e1"/>
     <use xlink:href="#m19e8cced51" x="280.986665" y="311.991382" style="fill: #4169e1; stroke: #4169e1"/>
     <use xlink:href="#m19e8cced51" x="358.455814" y="272.461407" style="fill: #4169e1; stroke: #4169e1"/>
     <use xlink:href="#m19e8cced51" x="357.831302" y="238.030601" style="fill: #4169e1; stroke: #4169e1"/>
     <use xlink:href="#m19e8cced51" x="328.611515" y="157.30135" style="fill: #4169e1; stroke: #4169e1"/>
     <use xlink:href="#m19e8cced51" x="475.951548" y="245.147196" style="fill: #4169e1; stroke: #4169e1"/>
     <use xlink:href="#m19e8cced51" x="397.113418" y="189.928484" style="fill: #4169e1; stroke: #4169e1"/>
     <use xlink:href="#m19e8cced51" x="344.738779" y="118.065443" style="fill: #4169e1; stroke: #4169e1"/>
     <use xlink:href="#m19e8cced51" x="220.177991" y="223.499561" style="fill: #4169e1; stroke: #4169e1"/>
     <use xlink:href="#m19e8cced51" x="227.815142" y="179.021226" style="fill: #4169e1; stroke: #4169e1"/>
     <use xlink:href="#m19e8cced51" x="255.991426" y="288.186798" style="fill: #4169e1; stroke: #4169e1"/>
     <use xlink:href="#m19e8cced51" x="456.009958" y="191.576074" style="fill: #4169e1; stroke: #4169e1"/>
     <use xlink:href="#m19e8cced51" x="300.480728" y="227.303694" style="fill: #4169e1; stroke: #4169e1"/>
     <use xlink:href="#m19e8cced51" x="294.816456" y="289.847257" style="fill: #4169e1; stroke: #4169e1"/>
     <use xlink:href="#m19e8cced51" x="266.671013" y="110.916248" style="fill: #4169e1; stroke: #4169e1"/>
     <use xlink:href="#m19e8cced51" x="399.27237" y="282.679512" style="fill: #4169e1; stroke: #4169e1"/>
     <use xlink:href="#m19e8cced51" x="345.633534" y="181.952473" style="fill: #4169e1; stroke: #4169e1"/>
     <use xlink:href="#m19e8cced51" x="243.724761" y="307.299718" style="fill: #4169e1; stroke: #4169e1"/>
     <use xlink:href="#m19e8cced51" x="342.953668" y="136.210937" style="fill: #4169e1; stroke: #4169e1"/>
     <use xlink:href="#m19e8cced51" x="336.781636" y="201.763624" style="fill: #4169e1; stroke: #4169e1"/>
     <use xlink:href="#m19e8cced51" x="310.676783" y="296.761279" style="fill: #4169e1; stroke: #4169e1"/>
     <use xlink:href="#m19e8cced51" x="307.008489" y="169.735516" style="fill: #4169e1; stroke: #4169e1"/>
     <use xlink:href="#m19e8cced51" x="208.368107" y="262.927551" style="fill: #4169e1; stroke: #4169e1"/>
     <use xlink:href="#m19e8cced51" x="343.228675" y="316.949811" style="fill: #4169e1; stroke: #4169e1"/>
     <use xlink:href="#m19e8cced51" x="375.5903" y="273.963873" style="fill: #4169e1; stroke: #4169e1"/>
     <use xlink:href="#m19e8cced51" x="378.559595" y="211.1224" style="fill: #4169e1; stroke: #4169e1"/>
     <use xlink:href="#m19e8cced51" x="389.529995" y="257.61914" style="fill: #4169e1; stroke: #4169e1"/>
     <use xlink:href="#m19e8cced51" x="311.291114" y="283.64934" style="fill: #4169e1; stroke: #4169e1"/>
     <use xlink:href="#m19e8cced51" x="205.84039" y="121.450362" style="fill: #4169e1; stroke: #4169e1"/>
     <use xlink:href="#m19e8cced51" x="252.59738" y="99.252124" style="fill: #4169e1; stroke: #4169e1"/>
     <use xlink:href="#m19e8cced51" x="265.069585" y="223.975379" style="fill: #4169e1; stroke: #4169e1"/>
     <use xlink:href="#m19e8cced51" x="337.263725" y="117.057893" style="fill: #4169e1; stroke: #4169e1"/>
     <use xlink:href="#m19e8cced51" x="461.624355" y="115.747067" style="fill: #4169e1; stroke: #4169e1"/>
     <use xlink:href="#m19e8cced51" x="248.351669" y="245.281336" style="fill: #4169e1; stroke: #4169e1"/>
     <use xlink:href="#m19e8cced51" x="372.145467" y="110.422499" style="fill: #4169e1; stroke: #4169e1"/>
     <use xlink:href="#m19e8cced51" x="352.889819" y="136.835625" style="fill: #4169e1; stroke: #4169e1"/>
     <use xlink:href="#m19e8cced51" x="384.852935" y="179.227867" style="fill: #4169e1; stroke: #4169e1"/>
     <use xlink:href="#m19e8cced51" x="349.649902" y="158.921312" style="fill: #4169e1; stroke: #4169e1"/>
     <use xlink:href="#m19e8cced51" x="364.934856" y="84.560456" style="fill: #4169e1; stroke: #4169e1"/>
     <use xlink:href="#m19e8cced51" x="255.849609" y="197.521605" style="fill: #4169e1; stroke: #4169e1"/>
     <use xlink:href="#m19e8cced51" x="401.732006" y="265.726056" style="fill: #4169e1; stroke: #4169e1"/>
     <use xlink:href="#m19e8cced51" x="256.705835" y="196.982212" style="fill: #4169e1; stroke: #4169e1"/>
     <use xlink:href="#m19e8cced51" x="372.954457" y="224.877963" style="fill: #4169e1; stroke: #4169e1"/>
     <use xlink:href="#m19e8cced51" x="499.970156" y="164.135636" style="fill: #4169e1; stroke: #4169e1"/>
     <use xlink:href="#m19e8cced51" x="498.798594" y="207.428979" style="fill: #4169e1; stroke: #4169e1"/>
     <use xlink:href="#m19e8cced51" x="451.882101" y="165.154556" style="fill: #4169e1; stroke: #4169e1"/>
     <use xlink:href="#m19e8cced51" x="243.662123" y="221.54661" style="fill: #4169e1; stroke: #4169e1"/>
     <use xlink:href="#m19e8cced51" x="231.176273" y="202.481754" style="fill: #4169e1; stroke: #4169e1"/>
     <use xlink:href="#m19e8cced51" x="224.471962" y="146.925604" style="fill: #4169e1; stroke: #4169e1"/>
     <use xlink:href="#m19e8cced51" x="274.996167" y="264.344363" style="fill: #4169e1; stroke: #4169e1"/>
     <use xlink:href="#m19e8cced51" x="334.547534" y="153.351054" style="fill: #4169e1; stroke: #4169e1"/>
     <use xlink:href="#m19e8cced51" x="261.000562" y="289.369162" style="fill: #4169e1; stroke: #4169e1"/>
     <use xlink:href="#m19e8cced51" x="446.68923" y="245.993475" style="fill: #4169e1; stroke: #4169e1"/>
     <use xlink:href="#m19e8cced51" x="317.858737" y="117.171825" style="fill: #4169e1; stroke: #4169e1"/>
     <use xlink:href="#m19e8cced51" x="307.957834" y="225.852857" style="fill: #4169e1; stroke: #4169e1"/>
     <use xlink:href="#m19e8cced51" x="337.128637" y="188.59031" style="fill: #4169e1; stroke: #4169e1"/>
     <use xlink:href="#m19e8cced51" x="398.010095" y="195.585164" style="fill: #4169e1; stroke: #4169e1"/>
     <use xlink:href="#m19e8cced51" x="385.311357" y="69.835736" style="fill: #4169e1; stroke: #4169e1"/>
     <use xlink:href="#m19e8cced51" x="435.621303" y="182.760265" style="fill: #4169e1; stroke: #4169e1"/>
     <use xlink:href="#m19e8cced51" x="316.159662" y="173.779733" style="fill: #4169e1; stroke: #4169e1"/>
     <use xlink:href="#m19e8cced51" x="434.43676" y="213.630307" style="fill: #4169e1; stroke: #4169e1"/>
     <use xlink:href="#m19e8cced51" x="217.928468" y="236.143392" style="fill: #4169e1; stroke: #4169e1"/>
     <use xlink:href="#m19e8cced51" x="404.121678" y="186.299735" style="fill: #4169e1; stroke: #4169e1"/>
     <use xlink:href="#m19e8cced51" x="441.235997" y="277.886243" style="fill: #4169e1; stroke: #4169e1"/>
     <use xlink:href="#m19e8cced51" x="269.665876" y="110.50375" style="fill: #4169e1; stroke: #4169e1"/>
     <use xlink:href="#m19e8cced51" x="460.48464" y="199.283662" style="fill: #4169e1; stroke: #4169e1"/>
     <use xlink:href="#m19e8cced51" x="413.507592" y="259.76965" style="fill: #4169e1; stroke: #4169e1"/>
     <use xlink:href="#m19e8cced51" x="200.105368" y="295.290211" style="fill: #4169e1; stroke: #4169e1"/>
     <use xlink:href="#m19e8cced51" x="340.986069" y="149.345412" style="fill: #4169e1; stroke: #4169e1"/>
     <use xlink:href="#m19e8cced51" x="219.67024" y="199.102795" style="fill: #4169e1; stroke: #4169e1"/>
     <use xlink:href="#m19e8cced51" x="297.69061" y="280.563487" style="fill: #4169e1; stroke: #4169e1"/>
     <use xlink:href="#m19e8cced51" x="392.059973" y="202.759382" style="fill: #4169e1; stroke: #4169e1"/>
     <use xlink:href="#m19e8cced51" x="403.480247" y="144.77438" style="fill: #4169e1; stroke: #4169e1"/>
     <use xlink:href="#m19e8cced51" x="425.772582" y="225.154598" style="fill: #4169e1; stroke: #4169e1"/>
     <use xlink:href="#m19e8cced51" x="376.049615" y="225.889748" style="fill: #4169e1; stroke: #4169e1"/>
     <use xlink:href="#m19e8cced51" x="499.970156" y="221.70398" style="fill: #4169e1; stroke: #4169e1"/>
     <use xlink:href="#m19e8cced51" x="473.388125" y="120.252176" style="fill: #4169e1; stroke: #4169e1"/>
     <use xlink:href="#m19e8cced51" x="273.879955" y="159.593522" style="fill: #4169e1; stroke: #4169e1"/>
     <use xlink:href="#m19e8cced51" x="209.988665" y="231.310445" style="fill: #4169e1; stroke: #4169e1"/>
     <use xlink:href="#m19e8cced51" x="393.816403" y="313.514175" style="fill: #4169e1; stroke: #4169e1"/>
     <use xlink:href="#m19e8cced51" x="275.458561" y="262.766567" style="fill: #4169e1; stroke: #4169e1"/>
     <use xlink:href="#m19e8cced51" x="283.081383" y="197.34285" style="fill: #4169e1; stroke: #4169e1"/>
     <use xlink:href="#m19e8cced51" x="316.635325" y="119.218205" style="fill: #4169e1; stroke: #4169e1"/>
     <use xlink:href="#m19e8cced51" x="245.523793" y="147.047671" style="fill: #4169e1; stroke: #4169e1"/>
     <use xlink:href="#m19e8cced51" x="300.890412" y="230.108604" style="fill: #4169e1; stroke: #4169e1"/>
     <use xlink:href="#m19e8cced51" x="314.264696" y="243.969905" style="fill: #4169e1; stroke: #4169e1"/>
     <use xlink:href="#m19e8cced51" x="297.088107" y="182.179966" style="fill: #4169e1; stroke: #4169e1"/>
     <use xlink:href="#m19e8cced51" x="497.322341" y="174.833154" style="fill: #4169e1; stroke: #4169e1"/>
     <use xlink:href="#m19e8cced51" x="351.704329" y="257.779698" style="fill: #4169e1; stroke: #4169e1"/>
     <use xlink:href="#m19e8cced51" x="499.17165" y="244.727499" style="fill: #4169e1; stroke: #4169e1"/>
     <use xlink:href="#m19e8cced51" x="286.814331" y="197.690585" style="fill: #4169e1; stroke: #4169e1"/>
     <use xlink:href="#m19e8cced51" x="271.879487" y="155.591488" style="fill: #4169e1; stroke: #4169e1"/>
     <use xlink:href="#m19e8cced51" x="237.680095" y="289.323697" style="fill: #4169e1; stroke: #4169e1"/>
     <use xlink:href="#m19e8cced51" x="340.412462" y="283.471769" style="fill: #4169e1; stroke: #4169e1"/>
     <use xlink:href="#m19e8cced51" x="239.643661" y="256.528185" style="fill: #4169e1; stroke: #4169e1"/>
     <use xlink:href="#m19e8cced51" x="312.485192" y="143.756848" style="fill: #4169e1; stroke: #4169e1"/>
     <use xlink:href="#m19e8cced51" x="484.645896" y="137.590244" style="fill: #4169e1; stroke: #4169e1"/>
     <use xlink:href="#m19e8cced51" x="499.970156" y="156.530733" style="fill: #4169e1; stroke: #4169e1"/>
     <use xlink:href="#m19e8cced51" x="312.100103" y="216.914683" style="fill: #4169e1; stroke: #4169e1"/>
     <use xlink:href="#m19e8cced51" x="450.744999" y="236.868066" style="fill: #4169e1; stroke: #4169e1"/>
     <use xlink:href="#m19e8cced51" x="346.211417" y="273.149507" style="fill: #4169e1; stroke: #4169e1"/>
     <use xlink:href="#m19e8cced51" x="209.728086" y="113.685568" style="fill: #4169e1; stroke: #4169e1"/>
     <use xlink:href="#m19e8cced51" x="380.475029" y="132.040106" style="fill: #4169e1; stroke: #4169e1"/>
     <use xlink:href="#m19e8cced51" x="404.947864" y="203.07356" style="fill: #4169e1; stroke: #4169e1"/>
     <use xlink:href="#m19e8cced51" x="352.659092" y="174.363227" style="fill: #4169e1; stroke: #4169e1"/>
     <use xlink:href="#m19e8cced51" x="276.766217" y="156.365678" style="fill: #4169e1; stroke: #4169e1"/>
     <use xlink:href="#m19e8cced51" x="354.833657" y="160.880086" style="fill: #4169e1; stroke: #4169e1"/>
     <use xlink:href="#m19e8cced51" x="411.823493" y="213.432039" style="fill: #4169e1; stroke: #4169e1"/>
     <use xlink:href="#m19e8cced51" x="215.404209" y="217.192992" style="fill: #4169e1; stroke: #4169e1"/>
     <use xlink:href="#m19e8cced51" x="337.712246" y="134.831746" style="fill: #4169e1; stroke: #4169e1"/>
     <use xlink:href="#m19e8cced51" x="445.136085" y="130.384404" style="fill: #4169e1; stroke: #4169e1"/>
     <use xlink:href="#m19e8cced51" x="417.771152" y="84.321209" style="fill: #4169e1; stroke: #4169e1"/>
     <use xlink:href="#m19e8cced51" x="386.05508" y="203.083131" style="fill: #4169e1; stroke: #4169e1"/>
     <use xlink:href="#m19e8cced51" x="425.697787" y="189.994782" style="fill: #4169e1; stroke: #4169e1"/>
     <use xlink:href="#m19e8cced51" x="332.140161" y="254.857339" style="fill: #4169e1; stroke: #4169e1"/>
    </g>
   </g>
   <g id="PathCollection_2">
    <defs>
     <path id="m1f3c209a4b" d="M 0 2.5 
C 0.663008 2.5 1.29895 2.236584 1.767767 1.767767 
C 2.236584 1.29895 2.5 0.663008 2.5 0 
C 2.5 -0.663008 2.236584 -1.29895 1.767767 -1.767767 
C 1.29895 -2.236584 0.663008 -2.5 0 -2.5 
C -0.663008 -2.5 -1.29895 -2.236584 -1.767767 -1.767767 
C -2.236584 -1.29895 -2.5 -0.663008 -2.5 0 
C -2.5 0.663008 -2.236584 1.29895 -1.767767 1.767767 
C -1.29895 2.236584 -0.663008 2.5 0 2.5 
z
" style="stroke: #b22222"/>
    </defs>
    <g clip-path="url(#p083848e89c)">
     <use xlink:href="#m1f3c209a4b" x="252.338779" y="229.761602" style="fill: #b22222; stroke: #b22222"/>
     <use xlink:href="#m1f3c209a4b" x="248.168373" y="233.041624" style="fill: #b22222; stroke: #b22222"/>
     <use xlink:href="#m1f3c209a4b" x="246.691423" y="218.123168" style="fill: #b22222; stroke: #b22222"/>
     <use xlink:href="#m1f3c209a4b" x="260.255841" y="238.619874" style="fill: #b22222; stroke: #b22222"/>
     <use xlink:href="#m1f3c209a4b" x="262.123637" y="231.04157" style="fill: #b22222; stroke: #b22222"/>
     <use xlink:href="#m1f3c209a4b" x="290.716356" y="231.749017" style="fill: #b22222; stroke: #b22222"/>
     <use xlink:href="#m1f3c209a4b" x="253.602337" y="232.616731" style="fill: #b22222; stroke: #b22222"/>
     <use xlink:href="#m1f3c209a4b" x="246.097457" y="237.829318" style="fill: #b22222; stroke: #b22222"/>
     <use xlink:href="#m1f3c209a4b" x="354.681082" y="200.738609" style="fill: #b22222; stroke: #b22222"/>
     <use xlink:href="#m1f3c209a4b" x="302.18159" y="239.270471" style="fill: #b22222; stroke: #b22222"/>
     <use xlink:href="#m1f3c209a4b" x="334.904117" y="216.049214" style="fill: #b22222; stroke: #b22222"/>
     <use xlink:href="#m1f3c209a4b" x="250.943664" y="223.096444" style="fill: #b22222; stroke: #b22222"/>
     <use xlink:href="#m1f3c209a4b" x="258.445223" y="217.370784" style="fill: #b22222; stroke: #b22222"/>
     <use xlink:href="#m1f3c209a4b" x="320.76575" y="232.654611" style="fill: #b22222; stroke: #b22222"/>
     <use xlink:href="#m1f3c209a4b" x="258.882542" y="228.863614" style="fill: #b22222; stroke: #b22222"/>
     <use xlink:href="#m1f3c209a4b" x="252.563069" y="228.809376" style="fill: #b22222; stroke: #b22222"/>
     <use xlink:href="#m1f3c209a4b" x="255.84754" y="206.940059" style="fill: #b22222; stroke: #b22222"/>
     <use xlink:href="#m1f3c209a4b" x="278.624511" y="225.348445" style="fill: #b22222; stroke: #b22222"/>
     <use xlink:href="#m1f3c209a4b" x="288.360303" y="234.268689" style="fill: #b22222; stroke: #b22222"/>
     <use xlink:href="#m1f3c209a4b" x="248.474403" y="227.398376" style="fill: #b22222; stroke: #b22222"/>
     <use xlink:href="#m1f3c209a4b" x="254.804098" y="232.043709" style="fill: #b22222; stroke: #b22222"/>
     <use xlink:href="#m1f3c209a4b" x="265.886597" y="206.265913" style="fill: #b22222; stroke: #b22222"/>
     <use xlink:href="#m1f3c209a4b" x="357.952394" y="285.58036" style="fill: #b22222; stroke: #b22222"/>
     <use xlink:href="#m1f3c209a4b" x="256.496693" y="229.32699" style="fill: #b22222; stroke: #b22222"/>
     <use xlink:href="#m1f3c209a4b" x="259.488269" y="236.981037" style="fill: #b22222; stroke: #b22222"/>
     <use xlink:href="#m1f3c209a4b" x="291.385087" y="232.008431" style="fill: #b22222; stroke: #b22222"/>
     <use xlink:href="#m1f3c209a4b" x="243.057904" y="226.583123" style="fill: #b22222; stroke: #b22222"/>
     <use xlink:href="#m1f3c209a4b" x="266.384788" y="201.918003" style="fill: #b22222; stroke: #b22222"/>
     <use xlink:href="#m1f3c209a4b" x="298.399938" y="235.119665" style="fill: #b22222; stroke: #b22222"/>
     <use xlink:href="#m1f3c209a4b" x="268.03942" y="227.382161" style="fill: #b22222; stroke: #b22222"/>
     <use xlink:href="#m1f3c209a4b" x="262.690619" y="243.724796" style="fill: #b22222; stroke: #b22222"/>
     <use xlink:href="#m1f3c209a4b" x="269.003674" y="229.228336" style="fill: #b22222; stroke: #b22222"/>
     <use xlink:href="#m1f3c209a4b" x="348.389576" y="221.60421" style="fill: #b22222; stroke: #b22222"/>
     <use xlink:href="#m1f3c209a4b" x="258.012648" y="235.865468" style="fill: #b22222; stroke: #b22222"/>
     <use xlink:href="#m1f3c209a4b" x="248.137272" y="228.554046" style="fill: #b22222; stroke: #b22222"/>
     <use xlink:href="#m1f3c209a4b" x="243.449182" y="221.273664" style="fill: #b22222; stroke: #b22222"/>
     <use xlink:href="#m1f3c209a4b" x="291.755195" y="237.325446" style="fill: #b22222; stroke: #b22222"/>
     <use xlink:href="#m1f3c209a4b" x="276.799314" y="232.289577" style="fill: #b22222; stroke: #b22222"/>
     <use xlink:href="#m1f3c209a4b" x="348.532588" y="199.921151" style="fill: #b22222; stroke: #b22222"/>
     <use xlink:href="#m1f3c209a4b" x="341.262978" y="228.406972" style="fill: #b22222; stroke: #b22222"/>
     <use xlink:href="#m1f3c209a4b" x="250.476868" y="219.643285" style="fill: #b22222; stroke: #b22222"/>
     <use xlink:href="#m1f3c209a4b" x="270.786702" y="218.037489" style="fill: #b22222; stroke: #b22222"/>
     <use xlink:href="#m1f3c209a4b" x="297.685212" y="245.263852" style="fill: #b22222; stroke: #b22222"/>
     <use xlink:href="#m1f3c209a4b" x="281.066124" y="230.908052" style="fill: #b22222; stroke: #b22222"/>
     <use xlink:href="#m1f3c209a4b" x="236.365517" y="228.170328" style="fill: #b22222; stroke: #b22222"/>
     <use xlink:href="#m1f3c209a4b" x="323.753629" y="230.848004" style="fill: #b22222; stroke: #b22222"/>
     <use xlink:href="#m1f3c209a4b" x="361.404461" y="247.460904" style="fill: #b22222; stroke: #b22222"/>
     <use xlink:href="#m1f3c209a4b" x="247.301784" y="215.316817" style="fill: #b22222; stroke: #b22222"/>
     <use xlink:href="#m1f3c209a4b" x="287.66631" y="243.27579" style="fill: #b22222; stroke: #b22222"/>
     <use xlink:href="#m1f3c209a4b" x="267.304016" y="235.835791" style="fill: #b22222; stroke: #b22222"/>
     <use xlink:href="#m1f3c209a4b" x="290.370231" y="240.638541" style="fill: #b22222; stroke: #b22222"/>
     <use xlink:href="#m1f3c209a4b" x="260.871922" y="241.78383" style="fill: #b22222; stroke: #b22222"/>
     <use xlink:href="#m1f3c209a4b" x="258.749214" y="233.180912" style="fill: #b22222; stroke: #b22222"/>
     <use xlink:href="#m1f3c209a4b" x="260.104144" y="239.425728" style="fill: #b22222; stroke: #b22222"/>
     <use xlink:href="#m1f3c209a4b" x="286.155538" y="231.87132" style="fill: #b22222; stroke: #b22222"/>
     <use xlink:href="#m1f3c209a4b" x="252.274965" y="239.70922" style="fill: #b22222; stroke: #b22222"/>
     <use xlink:href="#m1f3c209a4b" x="291.668093" y="232.064945" style="fill: #b22222; stroke: #b22222"/>
     <use xlink:href="#m1f3c209a4b" x="307.515955" y="231.23945" style="fill: #b22222; stroke: #b22222"/>
     <use xlink:href="#m1f3c209a4b" x="277.259982" y="225.600834" style="fill: #b22222; stroke: #b22222"/>
     <use xlink:href="#m1f3c209a4b" x="279.900147" y="238.214116" style="fill: #b22222; stroke: #b22222"/>
     <use xlink:href="#m1f3c209a4b" x="255.631743" y="228.664429" style="fill: #b22222; stroke: #b22222"/>
     <use xlink:href="#m1f3c209a4b" x="308.055612" y="220.244113" style="fill: #b22222; stroke: #b22222"/>
     <use xlink:href="#m1f3c209a4b" x="250.382828" y="221.0755" style="fill: #b22222; stroke: #b22222"/>
     <use xlink:href="#m1f3c209a4b" x="270.18209" y="208.497564" style="fill: #b22222; stroke: #b22222"/>
     <use xlink:href="#m1f3c209a4b" x="323.338939" y="235.365118" style="fill: #b22222; stroke: #b22222"/>
    </g>
   </g>
   <g id="patch_4">
    <path d="M 56.450156 450.72 
L 56.450156 7.2 
" style="fill: none; stroke: #ffffff; stroke-width: 1.25; stroke-linejoin: miter; stroke-linecap: square"/>
   </g>
   <g id="patch_5">
    <path d="M 499.970156 450.72 
L 499.970156 7.2 
" style="fill: none; stroke: #ffffff; stroke-width: 1.25; stroke-linejoin: miter; stroke-linecap: square"/>
   </g>
   <g id="patch_6">
    <path d="M 56.450156 450.72 
L 499.970156 450.72 
" style="fill: none; stroke: #ffffff; stroke-width: 1.25; stroke-linejoin: miter; stroke-linecap: square"/>
   </g>
   <g id="patch_7">
    <path d="M 56.450156 7.2 
L 499.970156 7.2 
" style="fill: none; stroke: #ffffff; stroke-width: 1.25; stroke-linejoin: miter; stroke-linecap: square"/>
   </g>
   <g id="text_13">
    <!-- t = 1000 -->
    <g style="fill: #262626" transform="translate(65.320556 24.659775) scale(0.12 -0.12)">
     <defs>
      <path id="ArialMT-74" d="M 1650 503 
L 1731 6 
Q 1494 -44 1306 -44 
Q 1000 -44 831 53 
Q 663 150 594 308 
Q 525 466 525 972 
L 525 2881 
L 113 2881 
L 113 3319 
L 525 3319 
L 525 4141 
L 1084 4478 
L 1084 3319 
L 1650 3319 
L 1650 2881 
L 1084 2881 
L 1084 941 
Q 1084 700 1114 631 
Q 1144 563 1211 522 
Q 1278 481 1403 481 
Q 1497 481 1650 503 
z
" transform="scale(0.015625)"/>
      <path id="ArialMT-20" transform="scale(0.015625)"/>
      <path id="ArialMT-3d" d="M 3381 2694 
L 356 2694 
L 356 3219 
L 3381 3219 
L 3381 2694 
z
M 3381 1303 
L 356 1303 
L 356 1828 
L 3381 1828 
L 3381 1303 
z
" transform="scale(0.015625)"/>
      <path id="ArialMT-31" d="M 2384 0 
L 1822 0 
L 1822 3584 
Q 1619 3391 1289 3197 
Q 959 3003 697 2906 
L 697 3450 
Q 1169 3672 1522 3987 
Q 1875 4303 2022 4600 
L 2384 4600 
L 2384 0 
z
" transform="scale(0.015625)"/>
     </defs>
     <use xlink:href="#ArialMT-74"/>
     <use xlink:href="#ArialMT-20" x="27.783203"/>
     <use xlink:href="#ArialMT-3d" x="55.566406"/>
     <use xlink:href="#ArialMT-20" x="113.964844"/>
     <use xlink:href="#ArialMT-31" x="141.748047"/>
     <use xlink:href="#ArialMT-30" x="197.363281"/>
     <use xlink:href="#ArialMT-30" x="252.978516"/>
     <use xlink:href="#ArialMT-30" x="308.59375"/>
    </g>
   </g>
   <g id="legend_1">
    <g id="patch_8">
     <path d="M 328.111406 94.59 
L 483.170156 94.59 
Q 487.970156 94.59 487.970156 89.79 
L 487.970156 24 
Q 487.970156 19.2 483.170156 19.2 
L 328.111406 19.2 
Q 323.311406 19.2 323.311406 24 
L 323.311406 89.79 
Q 323.311406 94.59 328.111406 94.59 
z
" style="fill: #eaeaf2; opacity: 0.8; stroke: #cccccc; stroke-linejoin: miter"/>
    </g>
    <g id="PathCollection_3">
     <g>
      <use xlink:href="#m19e8cced51" x="356.911406" y="39.97125" style="fill: #4169e1; stroke: #4169e1"/>
     </g>
    </g>
    <g id="text_14">
     <!-- Sheep -->
     <g style="fill: #262626" transform="translate(400.111406 46.27125) scale(0.24 -0.24)">
      <defs>
       <path id="ArialMT-53" d="M 288 1472 
L 859 1522 
Q 900 1178 1048 958 
Q 1197 738 1509 602 
Q 1822 466 2213 466 
Q 2559 466 2825 569 
Q 3091 672 3220 851 
Q 3350 1031 3350 1244 
Q 3350 1459 3225 1620 
Q 3100 1781 2813 1891 
Q 2628 1963 1997 2114 
Q 1366 2266 1113 2400 
Q 784 2572 623 2826 
Q 463 3081 463 3397 
Q 463 3744 659 4045 
Q 856 4347 1234 4503 
Q 1613 4659 2075 4659 
Q 2584 4659 2973 4495 
Q 3363 4331 3572 4012 
Q 3781 3694 3797 3291 
L 3216 3247 
Q 3169 3681 2898 3903 
Q 2628 4125 2100 4125 
Q 1550 4125 1298 3923 
Q 1047 3722 1047 3438 
Q 1047 3191 1225 3031 
Q 1400 2872 2139 2705 
Q 2878 2538 3153 2413 
Q 3553 2228 3743 1945 
Q 3934 1663 3934 1294 
Q 3934 928 3725 604 
Q 3516 281 3123 101 
Q 2731 -78 2241 -78 
Q 1619 -78 1198 103 
Q 778 284 539 648 
Q 300 1013 288 1472 
z
" transform="scale(0.015625)"/>
       <path id="ArialMT-68" d="M 422 0 
L 422 4581 
L 984 4581 
L 984 2938 
Q 1378 3394 1978 3394 
Q 2347 3394 2619 3248 
Q 2891 3103 3008 2847 
Q 3125 2591 3125 2103 
L 3125 0 
L 2563 0 
L 2563 2103 
Q 2563 2525 2380 2717 
Q 2197 2909 1863 2909 
Q 1613 2909 1392 2779 
Q 1172 2650 1078 2428 
Q 984 2206 984 1816 
L 984 0 
L 422 0 
z
" transform="scale(0.015625)"/>
       <path id="ArialMT-65" d="M 2694 1069 
L 3275 997 
Q 3138 488 2766 206 
Q 2394 -75 1816 -75 
Q 1088 -75 661 373 
Q 234 822 234 1631 
Q 234 2469 665 2931 
Q 1097 3394 1784 3394 
Q 2450 3394 2872 2941 
Q 3294 2488 3294 1666 
Q 3294 1616 3291 1516 
L 816 1516 
Q 847 969 1125 678 
Q 1403 388 1819 388 
Q 2128 388 2347 550 
Q 2566 713 2694 1069 
z
M 847 1978 
L 2700 1978 
Q 2663 2397 2488 2606 
Q 2219 2931 1791 2931 
Q 1403 2931 1139 2672 
Q 875 2413 847 1978 
z
" transform="scale(0.015625)"/>
       <path id="ArialMT-70" d="M 422 -1272 
L 422 3319 
L 934 3319 
L 934 2888 
Q 1116 3141 1344 3267 
Q 1572 3394 1897 3394 
Q 2322 3394 2647 3175 
Q 2972 2956 3137 2557 
Q 3303 2159 3303 1684 
Q 3303 1175 3120 767 
Q 2938 359 2589 142 
Q 2241 -75 1856 -75 
Q 1575 -75 1351 44 
Q 1128 163 984 344 
L 984 -1272 
L 422 -1272 
z
M 931 1641 
Q 931 1000 1190 694 
Q 1450 388 1819 388 
Q 2194 388 2461 705 
Q 2728 1022 2728 1688 
Q 2728 2322 2467 2637 
Q 2206 2953 1844 2953 
Q 1484 2953 1207 2617 
Q 931 2281 931 1641 
z
" transform="scale(0.015625)"/>
      </defs>
      <use xlink:href="#ArialMT-53"/>
      <use xlink:href="#ArialMT-68" x="66.699219"/>
      <use xlink:href="#ArialMT-65" x="122.314453"/>
      <use xlink:href="#ArialMT-65" x="177.929688"/>
      <use xlink:href="#ArialMT-70" x="233.544922"/>
     </g>
    </g>
    <g id="PathCollection_4">
     <g>
      <use xlink:href="#m1f3c209a4b" x="356.911406" y="73.92" style="fill: #b22222; stroke: #b22222"/>
     </g>
    </g>
    <g id="text_15">
     <!-- Wolves -->
     <g style="fill: #262626" transform="translate(400.111406 80.22) scale(0.24 -0.24)">
      <defs>
       <path id="ArialMT-57" d="M 1294 0 
L 78 4581 
L 700 4581 
L 1397 1578 
Q 1509 1106 1591 641 
Q 1766 1375 1797 1488 
L 2669 4581 
L 3400 4581 
L 4056 2263 
Q 4303 1400 4413 641 
Q 4500 1075 4641 1638 
L 5359 4581 
L 5969 4581 
L 4713 0 
L 4128 0 
L 3163 3491 
Q 3041 3928 3019 4028 
Q 2947 3713 2884 3491 
L 1913 0 
L 1294 0 
z
" transform="scale(0.015625)"/>
       <path id="ArialMT-6f" d="M 213 1659 
Q 213 2581 725 3025 
Q 1153 3394 1769 3394 
Q 2453 3394 2887 2945 
Q 3322 2497 3322 1706 
Q 3322 1066 3130 698 
Q 2938 331 2570 128 
Q 2203 -75 1769 -75 
Q 1072 -75 642 372 
Q 213 819 213 1659 
z
M 791 1659 
Q 791 1022 1069 705 
Q 1347 388 1769 388 
Q 2188 388 2466 706 
Q 2744 1025 2744 1678 
Q 2744 2294 2464 2611 
Q 2184 2928 1769 2928 
Q 1347 2928 1069 2612 
Q 791 2297 791 1659 
z
" transform="scale(0.015625)"/>
       <path id="ArialMT-6c" d="M 409 0 
L 409 4581 
L 972 4581 
L 972 0 
L 409 0 
z
" transform="scale(0.015625)"/>
       <path id="ArialMT-76" d="M 1344 0 
L 81 3319 
L 675 3319 
L 1388 1331 
Q 1503 1009 1600 663 
Q 1675 925 1809 1294 
L 2547 3319 
L 3125 3319 
L 1869 0 
L 1344 0 
z
" transform="scale(0.015625)"/>
       <path id="ArialMT-73" d="M 197 991 
L 753 1078 
Q 800 744 1014 566 
Q 1228 388 1613 388 
Q 2000 388 2187 545 
Q 2375 703 2375 916 
Q 2375 1106 2209 1216 
Q 2094 1291 1634 1406 
Q 1016 1563 777 1677 
Q 538 1791 414 1992 
Q 291 2194 291 2438 
Q 291 2659 392 2848 
Q 494 3038 669 3163 
Q 800 3259 1026 3326 
Q 1253 3394 1513 3394 
Q 1903 3394 2198 3281 
Q 2494 3169 2634 2976 
Q 2775 2784 2828 2463 
L 2278 2388 
Q 2241 2644 2061 2787 
Q 1881 2931 1553 2931 
Q 1166 2931 1000 2803 
Q 834 2675 834 2503 
Q 834 2394 903 2306 
Q 972 2216 1119 2156 
Q 1203 2125 1616 2013 
Q 2213 1853 2448 1751 
Q 2684 1650 2818 1456 
Q 2953 1263 2953 975 
Q 2953 694 2789 445 
Q 2625 197 2315 61 
Q 2006 -75 1616 -75 
Q 969 -75 630 194 
Q 291 463 197 991 
z
" transform="scale(0.015625)"/>
      </defs>
      <use xlink:href="#ArialMT-57"/>
      <use xlink:href="#ArialMT-6f" x="92.634766"/>
      <use xlink:href="#ArialMT-6c" x="148.25"/>
      <use xlink:href="#ArialMT-76" x="170.466797"/>
      <use xlink:href="#ArialMT-65" x="220.466797"/>
      <use xlink:href="#ArialMT-73" x="276.082031"/>
     </g>
    </g>
   </g>
  </g>
 </g>
 <defs>
  <clipPath id="p083848e89c">
   <rect x="56.450156" y="7.2" width="443.52" height="443.52"/>
  </clipPath>
 </defs>
</svg>
