<?xml version="1.0" encoding="utf-8" standalone="no"?>
<!DOCTYPE svg PUBLIC "-//W3C//DTD SVG 1.1//EN"
  "http://www.w3.org/Graphics/SVG/1.1/DTD/svg11.dtd">
<svg xmlns:xlink="http://www.w3.org/1999/xlink" width="507.170156pt" height="492.454219pt" viewBox="0 0 507.170156 492.454219" xmlns="http://www.w3.org/2000/svg" version="1.1">
 <metadata>
  <rdf:RDF xmlns:dc="http://purl.org/dc/elements/1.1/" xmlns:cc="http://creativecommons.org/ns#" xmlns:rdf="http://www.w3.org/1999/02/22-rdf-syntax-ns#">
   <cc:Work>
    <dc:type rdf:resource="http://purl.org/dc/dcmitype/StillImage"/>
    <dc:date>2026-05-12T10:43:20.192086</dc:date>
    <dc:format>image/svg+xml</dc:format>
    <dc:creator>
     <cc:Agent>
      <dc:title>Matplotlib v3.7.1, https://matplotlib.org/</dc:title>
     </cc:Agent>
    </dc:creator>
   </cc:Work>
  </rdf:RDF>
 </metadata>
 <defs>
  <style type="text/css">*{stroke-linejoin: round; stroke-linecap: butt}</style>
 </defs>
 <g id="figure_1">
  <g id="patch_1">
   <path d="M 0 492.454219 
L 507.170156 492.454219 
L 507.170156 0 
L 0 0 
z
" style="fill: #ffffff"/>
  </g>
  <g id="axes_1">
   <g id="patch_2">
    <path d="M 56.450156 450.72 
L 499.970156 450.72 
L 499.970156 7.2 
L 56.450156 7.2 
z
" style="fill: #eaeaf2"/>
   </g>
   <g id="matplotlib.axis_1">
    <g id="xtick_1">
     <g id="line2d_1">
      <path d="M 100.802156 450.72 
L 100.802156 7.2 
" clip-path="url(#p0dd2cfdd3d)" style="fill: none; stroke: #ffffff; stroke-linecap: round"/>
     </g>
     <g id="text_1">
      <!-- −400 -->
      <g style="fill: #262626" transform="translate(88.414266 468.093594) scale(0.11 -0.11)">
       <defs>
        <path id="ArialMT-2212" d="M 3381 1997 
L 356 1997 
L 356 2522 
L 3381 2522 
L 3381 1997 
z
" transform="scale(0.015625)"/>
        <path id="ArialMT-34" d="M 2069 0 
L 2069 1097 
L 81 1097 
L 81 1613 
L 2172 4581 
L 2631 4581 
L 2631 1613 
L 3250 1613 
L 3250 1097 
L 2631 1097 
L 2631 0 
L 2069 0 
z
M 2069 1613 
L 2069 3678 
L 634 1613 
L 2069 1613 
z
" transform="scale(0.015625)"/>
        <path id="ArialMT-30" d="M 266 2259 
Q 266 3072 433 3567 
Q 600 4063 929 4331 
Q 1259 4600 1759 4600 
Q 2128 4600 2406 4451 
Q 2684 4303 2865 4023 
Q 3047 3744 3150 3342 
Q 3253 2941 3253 2259 
Q 3253 1453 3087 958 
Q 2922 463 2592 192 
Q 2263 -78 1759 -78 
Q 1097 -78 719 397 
Q 266 969 266 2259 
z
M 844 2259 
Q 844 1131 1108 757 
Q 1372 384 1759 384 
Q 2147 384 2411 759 
Q 2675 1134 2675 2259 
Q 2675 3391 2411 3762 
Q 2147 4134 1753 4134 
Q 1366 4134 1134 3806 
Q 844 3388 844 2259 
z
" transform="scale(0.015625)"/>
       </defs>
       <use xlink:href="#ArialMT-2212"/>
       <use xlink:href="#ArialMT-34" x="58.398438"/>
       <use xlink:href="#ArialMT-30" x="114.013672"/>
       <use xlink:href="#ArialMT-30" x="169.628906"/>
      </g>
     </g>
    </g>
    <g id="xtick_2">
     <g id="line2d_2">
      <path d="M 189.506156 450.72 
L 189.506156 7.2 
" clip-path="url(#p0dd2cfdd3d)" style="fill: none; stroke: #ffffff; stroke-linecap: round"/>
     </g>
     <g id="text_2">
      <!-- −200 -->
      <g style="fill: #262626" transform="translate(177.118266 468.093594) scale(0.11 -0.11)">
       <defs>
        <path id="ArialMT-32" d="M 3222 541 
L 3222 0 
L 194 0 
Q 188 203 259 391 
Q 375 700 629 1000 
Q 884 1300 1366 1694 
Q 2113 2306 2375 2664 
Q 2638 3022 2638 3341 
Q 2638 3675 2398 3904 
Q 2159 4134 1775 4134 
Q 1369 4134 1125 3890 
Q 881 3647 878 3216 
L 300 3275 
Q 359 3922 746 4261 
Q 1134 4600 1788 4600 
Q 2447 4600 2831 4234 
Q 3216 3869 3216 3328 
Q 3216 3053 3103 2787 
Q 2991 2522 2730 2228 
Q 2469 1934 1863 1422 
Q 1356 997 1212 845 
Q 1069 694 975 541 
L 3222 541 
z
" transform="scale(0.015625)"/>
       </defs>
       <use xlink:href="#ArialMT-2212"/>
       <use xlink:href="#ArialMT-32" x="58.398438"/>
       <use xlink:href="#ArialMT-30" x="114.013672"/>
       <use xlink:href="#ArialMT-30" x="169.628906"/>
      </g>
     </g>
    </g>
    <g id="xtick_3">
     <g id="line2d_3">
      <path d="M 278.210156 450.72 
L 278.210156 7.2 
" clip-path="url(#p0dd2cfdd3d)" style="fill: none; stroke: #ffffff; stroke-linecap: round"/>
     </g>
     <g id="text_3">
      <!-- 0 -->
      <g style="fill: #262626" transform="translate(275.151641 468.093594) scale(0.11 -0.11)">
       <use xlink:href="#ArialMT-30"/>
      </g>
     </g>
    </g>
    <g id="xtick_4">
     <g id="line2d_4">
      <path d="M 366.914156 450.72 
L 366.914156 7.2 
" clip-path="url(#p0dd2cfdd3d)" style="fill: none; stroke: #ffffff; stroke-linecap: round"/>
     </g>
     <g id="text_4">
      <!-- 200 -->
      <g style="fill: #262626" transform="translate(357.738609 468.093594) scale(0.11 -0.11)">
       <use xlink:href="#ArialMT-32"/>
       <use xlink:href="#ArialMT-30" x="55.615234"/>
       <use xlink:href="#ArialMT-30" x="111.230469"/>
      </g>
     </g>
    </g>
    <g id="xtick_5">
     <g id="line2d_5">
      <path d="M 455.618156 450.72 
L 455.618156 7.2 
" clip-path="url(#p0dd2cfdd3d)" style="fill: none; stroke: #ffffff; stroke-linecap: round"/>
     </g>
     <g id="text_5">
      <!-- 400 -->
      <g style="fill: #262626" transform="translate(446.442609 468.093594) scale(0.11 -0.11)">
       <use xlink:href="#ArialMT-34"/>
       <use xlink:href="#ArialMT-30" x="55.615234"/>
       <use xlink:href="#ArialMT-30" x="111.230469"/>
      </g>
     </g>
    </g>
    <g id="text_6">
     <!-- x -->
     <g style="fill: #262626" transform="translate(275.210156 482.869219) scale(0.12 -0.12)">
      <defs>
       <path id="ArialMT-78" d="M 47 0 
L 1259 1725 
L 138 3319 
L 841 3319 
L 1350 2541 
Q 1494 2319 1581 2169 
Q 1719 2375 1834 2534 
L 2394 3319 
L 3066 3319 
L 1919 1756 
L 3153 0 
L 2463 0 
L 1781 1031 
L 1600 1309 
L 728 0 
L 47 0 
z
" transform="scale(0.015625)"/>
      </defs>
      <use xlink:href="#ArialMT-78"/>
     </g>
    </g>
   </g>
   <g id="matplotlib.axis_2">
    <g id="ytick_1">
     <g id="line2d_6">
      <path d="M 56.450156 406.368 
L 499.970156 406.368 
" clip-path="url(#p0dd2cfdd3d)" style="fill: none; stroke: #ffffff; stroke-linecap: round"/>
     </g>
     <g id="text_7">
      <!-- −400 -->
      <g style="fill: #262626" transform="translate(22.174375 410.304797) scale(0.11 -0.11)">
       <use xlink:href="#ArialMT-2212"/>
       <use xlink:href="#ArialMT-34" x="58.398438"/>
       <use xlink:href="#ArialMT-30" x="114.013672"/>
       <use xlink:href="#ArialMT-30" x="169.628906"/>
      </g>
     </g>
    </g>
    <g id="ytick_2">
     <g id="line2d_7">
      <path d="M 56.450156 317.664 
L 499.970156 317.664 
" clip-path="url(#p0dd2cfdd3d)" style="fill: none; stroke: #ffffff; stroke-linecap: round"/>
     </g>
     <g id="text_8">
      <!-- −200 -->
      <g style="fill: #262626" transform="translate(22.174375 321.600797) scale(0.11 -0.11)">
       <use xlink:href="#ArialMT-2212"/>
       <use xlink:href="#ArialMT-32" x="58.398438"/>
       <use xlink:href="#ArialMT-30" x="114.013672"/>
       <use xlink:href="#ArialMT-30" x="169.628906"/>
      </g>
     </g>
    </g>
    <g id="ytick_3">
     <g id="line2d_8">
      <path d="M 56.450156 228.96 
L 499.970156 228.96 
" clip-path="url(#p0dd2cfdd3d)" style="fill: none; stroke: #ffffff; stroke-linecap: round"/>
     </g>
     <g id="text_9">
      <!-- 0 -->
      <g style="fill: #262626" transform="translate(40.833125 232.896797) scale(0.11 -0.11)">
       <use xlink:href="#ArialMT-30"/>
      </g>
     </g>
    </g>
    <g id="ytick_4">
     <g id="line2d_9">
      <path d="M 56.450156 140.256 
L 499.970156 140.256 
" clip-path="url(#p0dd2cfdd3d)" style="fill: none; stroke: #ffffff; stroke-linecap: round"/>
     </g>
     <g id="text_10">
      <!-- 200 -->
      <g style="fill: #262626" transform="translate(28.599063 144.192797) scale(0.11 -0.11)">
       <use xlink:href="#ArialMT-32"/>
       <use xlink:href="#ArialMT-30" x="55.615234"/>
       <use xlink:href="#ArialMT-30" x="111.230469"/>
      </g>
     </g>
    </g>
    <g id="ytick_5">
     <g id="line2d_10">
      <path d="M 56.450156 51.552 
L 499.970156 51.552 
" clip-path="url(#p0dd2cfdd3d)" style="fill: none; stroke: #ffffff; stroke-linecap: round"/>
     </g>
     <g id="text_11">
      <!-- 400 -->
      <g style="fill: #262626" transform="translate(28.599063 55.488797) scale(0.11 -0.11)">
       <use xlink:href="#ArialMT-34"/>
       <use xlink:href="#ArialMT-30" x="55.615234"/>
       <use xlink:href="#ArialMT-30" x="111.230469"/>
      </g>
     </g>
    </g>
    <g id="text_12">
     <!-- y -->
     <g style="fill: #262626" transform="translate(15.64875 231.96) rotate(-90) scale(0.12 -0.12)">
      <defs>
       <path id="ArialMT-79" d="M 397 -1278 
L 334 -750 
Q 519 -800 656 -800 
Q 844 -800 956 -737 
Q 1069 -675 1141 -563 
Q 1194 -478 1313 -144 
Q 1328 -97 1363 -6 
L 103 3319 
L 709 3319 
L 1400 1397 
Q 1534 1031 1641 628 
Q 1738 1016 1872 1384 
L 2581 3319 
L 3144 3319 
L 1881 -56 
Q 1678 -603 1566 -809 
Q 1416 -1088 1222 -1217 
Q 1028 -1347 759 -1347 
Q 597 -1347 397 -1278 
z
" transform="scale(0.015625)"/>
      </defs>
      <use xlink:href="#ArialMT-79"/>
     </g>
    </g>
   </g>
   <g id="patch_3">
    <path d="M 278.210156 317.664 
C 301.734732 317.664 324.298969 308.317587 340.933356 291.6832 
C 357.567743 275.048813 366.914156 252.484576 366.914156 228.96 
C 366.914156 205.435424 357.567743 182.871187 340.933356 166.2368 
C 324.298969 149.602413 301.734732 140.256 278.210156 140.256 
C 254.68558 140.256 232.121343 149.602413 215.486956 166.2368 
C 198.852569 182.871187 189.506156 205.435424 189.506156 228.96 
C 189.506156 252.484576 198.852569 275.048813 215.486956 291.6832 
C 232.121343 308.317587 254.68558 317.664 278.210156 317.664 
z
" clip-path="url(#p0dd2cfdd3d)" style="fill: #228b22; opacity: 0.12; stroke: #228b22; stroke-width: 1.5; stroke-linejoin: miter"/>
   </g>
   <g id="PathCollection_1">
    <defs>
     <path id="m51c5535f3d" d="M 0 2.236068 
C 0.593012 2.236068 1.161816 2.000462 1.581139 1.581139 
C 2.000462 1.161816 2.236068 0.593012 2.236068 0 
C 2.236068 -0.593012 2.000462 -1.161816 1.581139 -1.581139 
C 1.161816 -2.000462 0.593012 -2.236068 0 -2.236068 
C -0.593012 -2.236068 -1.161816 -2.000462 -1.581139 -1.581139 
C -2.000462 -1.161816 -2.236068 -0.593012 -2.236068 0 
C -2.236068 0.593012 -2.000462 1.161816 -1.581139 1.581139 
C -1.161816 2.000462 -0.593012 2.236068 0 2.236068 
z
" style="stroke: #4169e1"/>
    </defs>
    <g clip-path="url(#p0dd2cfdd3d)">
     <use xlink:href="#m51c5535f3d" x="323.273324" y="103.64527" style="fill: #4169e1; stroke: #4169e1"/>
     <use xlink:href="#m51c5535f3d" x="323.157622" y="175.250798" style="fill: #4169e1; stroke: #4169e1"/>
     <use xlink:href="#m51c5535f3d" x="247.950677" y="314.957111" style="fill: #4169e1; stroke: #4169e1"/>
     <use xlink:href="#m51c5535f3d" x="201.785135" y="266.352751" style="fill: #4169e1; stroke: #4169e1"/>
     <use xlink:href="#m51c5535f3d" x="212.398098" y="170.299032" style="fill: #4169e1; stroke: #4169e1"/>
     <use xlink:href="#m51c5535f3d" x="316.055028" y="182.659053" style="fill: #4169e1; stroke: #4169e1"/>
     <use xlink:href="#m51c5535f3d" x="449.047095" y="220.332669" style="fill: #4169e1; stroke: #4169e1"/>
     <use xlink:href="#m51c5535f3d" x="321.310019" y="147.825726" style="fill: #4169e1; stroke: #4169e1"/>
     <use xlink:href="#m51c5535f3d" x="260.216951" y="222.875026" style="fill: #4169e1; stroke: #4169e1"/>
     <use xlink:href="#m51c5535f3d" x="462.146406" y="122.402236" style="fill: #4169e1; stroke: #4169e1"/>
     <use xlink:href="#m51c5535f3d" x="324.926728" y="311.907721" style="fill: #4169e1; stroke: #4169e1"/>
     <use xlink:href="#m51c5535f3d" x="331.870486" y="143.666271" style="fill: #4169e1; stroke: #4169e1"/>
     <use xlink:href="#m51c5535f3d" x="376.521931" y="147.450531" style="fill: #4169e1; stroke: #4169e1"/>
     <use xlink:href="#m51c5535f3d" x="287.145632" y="236.842315" style="fill: #4169e1; stroke: #4169e1"/>
     <use xlink:href="#m51c5535f3d" x="304.02824" y="269.671879" style="fill: #4169e1; stroke: #4169e1"/>
     <use xlink:href="#m51c5535f3d" x="351.180106" y="233.969154" style="fill: #4169e1; stroke: #4169e1"/>
     <use xlink:href="#m51c5535f3d" x="372.499493" y="295.110565" style="fill: #4169e1; stroke: #4169e1"/>
     <use xlink:href="#m51c5535f3d" x="337.217597" y="165.215268" style="fill: #4169e1; stroke: #4169e1"/>
     <use xlink:href="#m51c5535f3d" x="296.146285" y="180.351366" style="fill: #4169e1; stroke: #4169e1"/>
     <use xlink:href="#m51c5535f3d" x="351.144664" y="232.454356" style="fill: #4169e1; stroke: #4169e1"/>
     <use xlink:href="#m51c5535f3d" x="432.519248" y="97.713718" style="fill: #4169e1; stroke: #4169e1"/>
     <use xlink:href="#m51c5535f3d" x="275.985243" y="216.710442" style="fill: #4169e1; stroke: #4169e1"/>
     <use xlink:href="#m51c5535f3d" x="235.670287" y="88.027784" style="fill: #4169e1; stroke: #4169e1"/>
     <use xlink:href="#m51c5535f3d" x="364.072565" y="199.526067" style="fill: #4169e1; stroke: #4169e1"/>
     <use xlink:href="#m51c5535f3d" x="312.273746" y="285.818775" style="fill: #4169e1; stroke: #4169e1"/>
     <use xlink:href="#m51c5535f3d" x="443.776302" y="133.026704" style="fill: #4169e1; stroke: #4169e1"/>
     <use xlink:href="#m51c5535f3d" x="474.080515" y="205.433415" style="fill: #4169e1; stroke: #4169e1"/>
     <use xlink:href="#m51c5535f3d" x="326.540325" y="149.721358" style="fill: #4169e1; stroke: #4169e1"/>
     <use xlink:href="#m51c5535f3d" x="336.584145" y="186.53299" style="fill: #4169e1; stroke: #4169e1"/>
     <use xlink:href="#m51c5535f3d" x="323.819149" y="237.791364" style="fill: #4169e1; stroke: #4169e1"/>
     <use xlink:href="#m51c5535f3d" x="424.226285" y="158.237841" style="fill: #4169e1; stroke: #4169e1"/>
     <use xlink:href="#m51c5535f3d" x="412.271033" y="54.776426" style="fill: #4169e1; stroke: #4169e1"/>
     <use xlink:href="#m51c5535f3d" x="323.499662" y="106.811685" style="fill: #4169e1; stroke: #4169e1"/>
     <use xlink:href="#m51c5535f3d" x="420.771788" y="229.764899" style="fill: #4169e1; stroke: #4169e1"/>
     <use xlink:href="#m51c5535f3d" x="255.135588" y="341.011387" style="fill: #4169e1; stroke: #4169e1"/>
     <use xlink:href="#m51c5535f3d" x="411.098672" y="275.647647" style="fill: #4169e1; stroke: #4169e1"/>
     <use xlink:href="#m51c5535f3d" x="286.679052" y="290.153538" style="fill: #4169e1; stroke: #4169e1"/>
     <use xlink:href="#m51c5535f3d" x="256.007861" y="241.855983" style="fill: #4169e1; stroke: #4169e1"/>
     <use xlink:href="#m51c5535f3d" x="418.007544" y="279.000752" style="fill: #4169e1; stroke: #4169e1"/>
     <use xlink:href="#m51c5535f3d" x="330.281252" y="195.162187" style="fill: #4169e1; stroke: #4169e1"/>
     <use xlink:href="#m51c5535f3d" x="348.266623" y="218.82611" style="fill: #4169e1; stroke: #4169e1"/>
     <use xlink:href="#m51c5535f3d" x="312.54255" y="201.995021" style="fill: #4169e1; stroke: #4169e1"/>
     <use xlink:href="#m51c5535f3d" x="415.809489" y="208.257938" style="fill: #4169e1; stroke: #4169e1"/>
     <use xlink:href="#m51c5535f3d" x="487.961955" y="179.683017" style="fill: #4169e1; stroke: #4169e1"/>
     <use xlink:href="#m51c5535f3d" x="351.394293" y="243.268591" style="fill: #4169e1; stroke: #4169e1"/>
     <use xlink:href="#m51c5535f3d" x="312.880879" y="181.688863" style="fill: #4169e1; stroke: #4169e1"/>
     <use xlink:href="#m51c5535f3d" x="268.895378" y="259.803302" style="fill: #4169e1; stroke: #4169e1"/>
     <use xlink:href="#m51c5535f3d" x="203.58238" y="172.041934" style="fill: #4169e1; stroke: #4169e1"/>
     <use xlink:href="#m51c5535f3d" x="398.406404" y="193.113086" style="fill: #4169e1; stroke: #4169e1"/>
     <use xlink:href="#m51c5535f3d" x="218.898838" y="286.52056" style="fill: #4169e1; stroke: #4169e1"/>
     <use xlink:href="#m51c5535f3d" x="196.802905" y="127.890586" style="fill: #4169e1; stroke: #4169e1"/>
     <use xlink:href="#m51c5535f3d" x="277.301214" y="228.46382" style="fill: #4169e1; stroke: #4169e1"/>
     <use xlink:href="#m51c5535f3d" x="372.153778" y="113.753352" style="fill: #4169e1; stroke: #4169e1"/>
     <use xlink:href="#m51c5535f3d" x="386.916112" y="103.189893" style="fill: #4169e1; stroke: #4169e1"/>
     <use xlink:href="#m51c5535f3d" x="388.958676" y="237.293321" style="fill: #4169e1; stroke: #4169e1"/>
     <use xlink:href="#m51c5535f3d" x="354.784822" y="307.162499" style="fill: #4169e1; stroke: #4169e1"/>
     <use xlink:href="#m51c5535f3d" x="419.450825" y="287.63453" style="fill: #4169e1; stroke: #4169e1"/>
     <use xlink:href="#m51c5535f3d" x="261.244719" y="266.179362" style="fill: #4169e1; stroke: #4169e1"/>
     <use xlink:href="#m51c5535f3d" x="307.788185" y="298.975489" style="fill: #4169e1; stroke: #4169e1"/>
     <use xlink:href="#m51c5535f3d" x="267.026532" y="163.754608" style="fill: #4169e1; stroke: #4169e1"/>
     <use xlink:href="#m51c5535f3d" x="465.74535" y="168.879729" style="fill: #4169e1; stroke: #4169e1"/>
     <use xlink:href="#m51c5535f3d" x="466.343942" y="197.418278" style="fill: #4169e1; stroke: #4169e1"/>
     <use xlink:href="#m51c5535f3d" x="335.453641" y="125.812899" style="fill: #4169e1; stroke: #4169e1"/>
     <use xlink:href="#m51c5535f3d" x="306.264588" y="128.078515" style="fill: #4169e1; stroke: #4169e1"/>
     <use xlink:href="#m51c5535f3d" x="464.123879" y="182.175631" style="fill: #4169e1; stroke: #4169e1"/>
     <use xlink:href="#m51c5535f3d" x="481.123642" y="181.747697" style="fill: #4169e1; stroke: #4169e1"/>
     <use xlink:href="#m51c5535f3d" x="275.430573" y="208.216492" style="fill: #4169e1; stroke: #4169e1"/>
     <use xlink:href="#m51c5535f3d" x="365.885606" y="186.534009" style="fill: #4169e1; stroke: #4169e1"/>
     <use xlink:href="#m51c5535f3d" x="394.497614" y="259.789726" style="fill: #4169e1; stroke: #4169e1"/>
     <use xlink:href="#m51c5535f3d" x="308.446254" y="331.874838" style="fill: #4169e1; stroke: #4169e1"/>
     <use xlink:href="#m51c5535f3d" x="335.070644" y="108.631094" style="fill: #4169e1; stroke: #4169e1"/>
     <use xlink:href="#m51c5535f3d" x="373.262449" y="273.111866" style="fill: #4169e1; stroke: #4169e1"/>
     <use xlink:href="#m51c5535f3d" x="291.288152" y="244.142777" style="fill: #4169e1; stroke: #4169e1"/>
     <use xlink:href="#m51c5535f3d" x="383.107969" y="86.214913" style="fill: #4169e1; stroke: #4169e1"/>
     <use xlink:href="#m51c5535f3d" x="346.879059" y="69.694266" style="fill: #4169e1; stroke: #4169e1"/>
     <use xlink:href="#m51c5535f3d" x="227.002735" y="148.792535" style="fill: #4169e1; stroke: #4169e1"/>
     <use xlink:href="#m51c5535f3d" x="183.224815" y="211.867233" style="fill: #4169e1; stroke: #4169e1"/>
     <use xlink:href="#m51c5535f3d" x="356.991445" y="113.631793" style="fill: #4169e1; stroke: #4169e1"/>
     <use xlink:href="#m51c5535f3d" x="444.495696" y="86.267632" style="fill: #4169e1; stroke: #4169e1"/>
     <use xlink:href="#m51c5535f3d" x="289.860027" y="188.735265" style="fill: #4169e1; stroke: #4169e1"/>
     <use xlink:href="#m51c5535f3d" x="350.6253" y="82.209359" style="fill: #4169e1; stroke: #4169e1"/>
     <use xlink:href="#m51c5535f3d" x="251.092828" y="320.929194" style="fill: #4169e1; stroke: #4169e1"/>
     <use xlink:href="#m51c5535f3d" x="382.549522" y="178.4725" style="fill: #4169e1; stroke: #4169e1"/>
     <use xlink:href="#m51c5535f3d" x="260.220176" y="280.468646" style="fill: #4169e1; stroke: #4169e1"/>
     <use xlink:href="#m51c5535f3d" x="312.618148" y="224.659716" style="fill: #4169e1; stroke: #4169e1"/>
     <use xlink:href="#m51c5535f3d" x="344.855364" y="185.545946" style="fill: #4169e1; stroke: #4169e1"/>
     <use xlink:href="#m51c5535f3d" x="325.13499" y="300.018697" style="fill: #4169e1; stroke: #4169e1"/>
     <use xlink:href="#m51c5535f3d" x="406.165216" y="143.711119" style="fill: #4169e1; stroke: #4169e1"/>
     <use xlink:href="#m51c5535f3d" x="185.337653" y="216.391137" style="fill: #4169e1; stroke: #4169e1"/>
     <use xlink:href="#m51c5535f3d" x="446.393622" y="205.819965" style="fill: #4169e1; stroke: #4169e1"/>
     <use xlink:href="#m51c5535f3d" x="220.675347" y="313.839168" style="fill: #4169e1; stroke: #4169e1"/>
     <use xlink:href="#m51c5535f3d" x="348.46073" y="192.818964" style="fill: #4169e1; stroke: #4169e1"/>
     <use xlink:href="#m51c5535f3d" x="436.490409" y="176.224855" style="fill: #4169e1; stroke: #4169e1"/>
     <use xlink:href="#m51c5535f3d" x="447.745121" y="235.279859" style="fill: #4169e1; stroke: #4169e1"/>
     <use xlink:href="#m51c5535f3d" x="213.028112" y="260.130375" style="fill: #4169e1; stroke: #4169e1"/>
     <use xlink:href="#m51c5535f3d" x="461.245546" y="136.896622" style="fill: #4169e1; stroke: #4169e1"/>
     <use xlink:href="#m51c5535f3d" x="225.27102" y="303.48342" style="fill: #4169e1; stroke: #4169e1"/>
     <use xlink:href="#m51c5535f3d" x="260.439452" y="232.126554" style="fill: #4169e1; stroke: #4169e1"/>
     <use xlink:href="#m51c5535f3d" x="314.184994" y="109.097448" style="fill: #4169e1; stroke: #4169e1"/>
     <use xlink:href="#m51c5535f3d" x="398.449636" y="134.55058" style="fill: #4169e1; stroke: #4169e1"/>
     <use xlink:href="#m51c5535f3d" x="407.902088" y="217.76881" style="fill: #4169e1; stroke: #4169e1"/>
     <use xlink:href="#m51c5535f3d" x="294.462064" y="110.699767" style="fill: #4169e1; stroke: #4169e1"/>
     <use xlink:href="#m51c5535f3d" x="394.827452" y="81.804468" style="fill: #4169e1; stroke: #4169e1"/>
     <use xlink:href="#m51c5535f3d" x="239.104065" y="120.941494" style="fill: #4169e1; stroke: #4169e1"/>
     <use xlink:href="#m51c5535f3d" x="313.387263" y="105.136114" style="fill: #4169e1; stroke: #4169e1"/>
     <use xlink:href="#m51c5535f3d" x="310.537368" y="230.799564" style="fill: #4169e1; stroke: #4169e1"/>
     <use xlink:href="#m51c5535f3d" x="385.286926" y="146.448266" style="fill: #4169e1; stroke: #4169e1"/>
     <use xlink:href="#m51c5535f3d" x="469.148386" y="228.929216" style="fill: #4169e1; stroke: #4169e1"/>
     <use xlink:href="#m51c5535f3d" x="166.000923" y="252.065953" style="fill: #4169e1; stroke: #4169e1"/>
     <use xlink:href="#m51c5535f3d" x="315.364922" y="275.912922" style="fill: #4169e1; stroke: #4169e1"/>
     <use xlink:href="#m51c5535f3d" x="374.100065" y="233.084609" style="fill: #4169e1; stroke: #4169e1"/>
     <use xlink:href="#m51c5535f3d" x="372.500102" y="218.09515" style="fill: #4169e1; stroke: #4169e1"/>
     <use xlink:href="#m51c5535f3d" x="293.027846" y="104.090658" style="fill: #4169e1; stroke: #4169e1"/>
     <use xlink:href="#m51c5535f3d" x="204.864376" y="235.879484" style="fill: #4169e1; stroke: #4169e1"/>
     <use xlink:href="#m51c5535f3d" x="298.467651" y="276.763624" style="fill: #4169e1; stroke: #4169e1"/>
     <use xlink:href="#m51c5535f3d" x="335.540869" y="98.495455" style="fill: #4169e1; stroke: #4169e1"/>
     <use xlink:href="#m51c5535f3d" x="478.085" y="70.590253" style="fill: #4169e1; stroke: #4169e1"/>
     <use xlink:href="#m51c5535f3d" x="243.677222" y="152.77424" style="fill: #4169e1; stroke: #4169e1"/>
     <use xlink:href="#m51c5535f3d" x="375.888296" y="230.283502" style="fill: #4169e1; stroke: #4169e1"/>
     <use xlink:href="#m51c5535f3d" x="326.443904" y="251.991513" style="fill: #4169e1; stroke: #4169e1"/>
     <use xlink:href="#m51c5535f3d" x="455.289929" y="212.92334" style="fill: #4169e1; stroke: #4169e1"/>
     <use xlink:href="#m51c5535f3d" x="381.629314" y="261.159446" style="fill: #4169e1; stroke: #4169e1"/>
     <use xlink:href="#m51c5535f3d" x="220.175183" y="120.379474" style="fill: #4169e1; stroke: #4169e1"/>
     <use xlink:href="#m51c5535f3d" x="414.839586" y="73.75124" style="fill: #4169e1; stroke: #4169e1"/>
     <use xlink:href="#m51c5535f3d" x="242.606097" y="231.63053" style="fill: #4169e1; stroke: #4169e1"/>
     <use xlink:href="#m51c5535f3d" x="343.671897" y="180.001574" style="fill: #4169e1; stroke: #4169e1"/>
     <use xlink:href="#m51c5535f3d" x="434.373267" y="277.558337" style="fill: #4169e1; stroke: #4169e1"/>
     <use xlink:href="#m51c5535f3d" x="189.724133" y="106.242883" style="fill: #4169e1; stroke: #4169e1"/>
     <use xlink:href="#m51c5535f3d" x="367.971326" y="241.195495" style="fill: #4169e1; stroke: #4169e1"/>
     <use xlink:href="#m51c5535f3d" x="342.307966" y="177.627023" style="fill: #4169e1; stroke: #4169e1"/>
     <use xlink:href="#m51c5535f3d" x="271.343503" y="206.793891" style="fill: #4169e1; stroke: #4169e1"/>
     <use xlink:href="#m51c5535f3d" x="338.277434" y="157.355261" style="fill: #4169e1; stroke: #4169e1"/>
     <use xlink:href="#m51c5535f3d" x="314.942631" y="260.973802" style="fill: #4169e1; stroke: #4169e1"/>
     <use xlink:href="#m51c5535f3d" x="273.874879" y="221.146479" style="fill: #4169e1; stroke: #4169e1"/>
     <use xlink:href="#m51c5535f3d" x="415.301731" y="220.287272" style="fill: #4169e1; stroke: #4169e1"/>
     <use xlink:href="#m51c5535f3d" x="412.591722" y="159.264679" style="fill: #4169e1; stroke: #4169e1"/>
     <use xlink:href="#m51c5535f3d" x="238.50083" y="272.911356" style="fill: #4169e1; stroke: #4169e1"/>
     <use xlink:href="#m51c5535f3d" x="299.421397" y="244.744483" style="fill: #4169e1; stroke: #4169e1"/>
     <use xlink:href="#m51c5535f3d" x="364.314323" y="237.823266" style="fill: #4169e1; stroke: #4169e1"/>
     <use xlink:href="#m51c5535f3d" x="428.675061" y="224.925956" style="fill: #4169e1; stroke: #4169e1"/>
     <use xlink:href="#m51c5535f3d" x="327.128421" y="258.494137" style="fill: #4169e1; stroke: #4169e1"/>
     <use xlink:href="#m51c5535f3d" x="346.162555" y="130.036774" style="fill: #4169e1; stroke: #4169e1"/>
     <use xlink:href="#m51c5535f3d" x="251.627534" y="292.258024" style="fill: #4169e1; stroke: #4169e1"/>
     <use xlink:href="#m51c5535f3d" x="413.051051" y="231.130294" style="fill: #4169e1; stroke: #4169e1"/>
     <use xlink:href="#m51c5535f3d" x="345.253609" y="104.127866" style="fill: #4169e1; stroke: #4169e1"/>
     <use xlink:href="#m51c5535f3d" x="293.968799" y="171.878328" style="fill: #4169e1; stroke: #4169e1"/>
     <use xlink:href="#m51c5535f3d" x="315.124625" y="146.559708" style="fill: #4169e1; stroke: #4169e1"/>
     <use xlink:href="#m51c5535f3d" x="462.219306" y="204.963806" style="fill: #4169e1; stroke: #4169e1"/>
     <use xlink:href="#m51c5535f3d" x="465.997415" y="190.381722" style="fill: #4169e1; stroke: #4169e1"/>
     <use xlink:href="#m51c5535f3d" x="313.591166" y="311.131636" style="fill: #4169e1; stroke: #4169e1"/>
     <use xlink:href="#m51c5535f3d" x="229.999283" y="262.543978" style="fill: #4169e1; stroke: #4169e1"/>
     <use xlink:href="#m51c5535f3d" x="352.960486" y="136.917791" style="fill: #4169e1; stroke: #4169e1"/>
    </g>
   </g>
   <g id="PathCollection_2">
    <defs>
     <path id="m9abcae25e5" d="M 0 2.5 
C 0.663008 2.5 1.29895 2.236584 1.767767 1.767767 
C 2.236584 1.29895 2.5 0.663008 2.5 0 
C 2.5 -0.663008 2.236584 -1.29895 1.767767 -1.767767 
C 1.29895 -2.236584 0.663008 -2.5 0 -2.5 
C -0.663008 -2.5 -1.29895 -2.236584 -1.767767 -1.767767 
C -2.236584 -1.29895 -2.5 -0.663008 -2.5 0 
C -2.5 0.663008 -2.236584 1.29895 -1.767767 1.767767 
C -1.29895 2.236584 -0.663008 2.5 0 2.5 
z
" style="stroke: #b22222"/>
    </defs>
    <g clip-path="url(#p0dd2cfdd3d)">
     <use xlink:href="#m9abcae25e5" x="202.125463" y="192.233528" style="fill: #b22222; stroke: #b22222"/>
     <use xlink:href="#m9abcae25e5" x="203.455136" y="175.739431" style="fill: #b22222; stroke: #b22222"/>
     <use xlink:href="#m9abcae25e5" x="210.715448" y="168.459476" style="fill: #b22222; stroke: #b22222"/>
     <use xlink:href="#m9abcae25e5" x="222.756712" y="191.944586" style="fill: #b22222; stroke: #b22222"/>
     <use xlink:href="#m9abcae25e5" x="250.583397" y="236.191156" style="fill: #b22222; stroke: #b22222"/>
     <use xlink:href="#m9abcae25e5" x="256.11755" y="206.285578" style="fill: #b22222; stroke: #b22222"/>
     <use xlink:href="#m9abcae25e5" x="257.202947" y="225.423864" style="fill: #b22222; stroke: #b22222"/>
     <use xlink:href="#m9abcae25e5" x="198.273709" y="178.686261" style="fill: #b22222; stroke: #b22222"/>
     <use xlink:href="#m9abcae25e5" x="220.621667" y="192.064081" style="fill: #b22222; stroke: #b22222"/>
     <use xlink:href="#m9abcae25e5" x="241.530698" y="212.725049" style="fill: #b22222; stroke: #b22222"/>
     <use xlink:href="#m9abcae25e5" x="208.97191" y="185.423165" style="fill: #b22222; stroke: #b22222"/>
     <use xlink:href="#m9abcae25e5" x="204.654419" y="190.725102" style="fill: #b22222; stroke: #b22222"/>
     <use xlink:href="#m9abcae25e5" x="231.498018" y="197.095775" style="fill: #b22222; stroke: #b22222"/>
     <use xlink:href="#m9abcae25e5" x="219.60473" y="191.280169" style="fill: #b22222; stroke: #b22222"/>
     <use xlink:href="#m9abcae25e5" x="201.07458" y="167.150721" style="fill: #b22222; stroke: #b22222"/>
     <use xlink:href="#m9abcae25e5" x="230.320642" y="194.251322" style="fill: #b22222; stroke: #b22222"/>
     <use xlink:href="#m9abcae25e5" x="206.537552" y="178.051929" style="fill: #b22222; stroke: #b22222"/>
     <use xlink:href="#m9abcae25e5" x="214.210266" y="204.612125" style="fill: #b22222; stroke: #b22222"/>
     <use xlink:href="#m9abcae25e5" x="209.98122" y="188.425283" style="fill: #b22222; stroke: #b22222"/>
     <use xlink:href="#m9abcae25e5" x="212.056918" y="177.438583" style="fill: #b22222; stroke: #b22222"/>
     <use xlink:href="#m9abcae25e5" x="224.382376" y="178.002604" style="fill: #b22222; stroke: #b22222"/>
     <use xlink:href="#m9abcae25e5" x="229.933655" y="201.239406" style="fill: #b22222; stroke: #b22222"/>
     <use xlink:href="#m9abcae25e5" x="222.557685" y="187.095349" style="fill: #b22222; stroke: #b22222"/>
     <use xlink:href="#m9abcae25e5" x="198.823142" y="180.826467" style="fill: #b22222; stroke: #b22222"/>
     <use xlink:href="#m9abcae25e5" x="235.238028" y="193.300839" style="fill: #b22222; stroke: #b22222"/>
     <use xlink:href="#m9abcae25e5" x="258.515861" y="212.470911" style="fill: #b22222; stroke: #b22222"/>
     <use xlink:href="#m9abcae25e5" x="209.759697" y="176.946127" style="fill: #b22222; stroke: #b22222"/>
     <use xlink:href="#m9abcae25e5" x="208.514598" y="184.389113" style="fill: #b22222; stroke: #b22222"/>
     <use xlink:href="#m9abcae25e5" x="200.539291" y="175.755575" style="fill: #b22222; stroke: #b22222"/>
     <use xlink:href="#m9abcae25e5" x="203.156361" y="179.040638" style="fill: #b22222; stroke: #b22222"/>
     <use xlink:href="#m9abcae25e5" x="325.784904" y="228.441192" style="fill: #b22222; stroke: #b22222"/>
     <use xlink:href="#m9abcae25e5" x="248.161561" y="217.256" style="fill: #b22222; stroke: #b22222"/>
     <use xlink:href="#m9abcae25e5" x="250.947504" y="218.554465" style="fill: #b22222; stroke: #b22222"/>
     <use xlink:href="#m9abcae25e5" x="228.883404" y="202.480067" style="fill: #b22222; stroke: #b22222"/>
     <use xlink:href="#m9abcae25e5" x="242.684628" y="222.673356" style="fill: #b22222; stroke: #b22222"/>
     <use xlink:href="#m9abcae25e5" x="219.918908" y="178.956957" style="fill: #b22222; stroke: #b22222"/>
     <use xlink:href="#m9abcae25e5" x="216.654492" y="170.585768" style="fill: #b22222; stroke: #b22222"/>
     <use xlink:href="#m9abcae25e5" x="258.534695" y="207.79979" style="fill: #b22222; stroke: #b22222"/>
     <use xlink:href="#m9abcae25e5" x="205.053185" y="172.153389" style="fill: #b22222; stroke: #b22222"/>
     <use xlink:href="#m9abcae25e5" x="218.30637" y="186.891608" style="fill: #b22222; stroke: #b22222"/>
     <use xlink:href="#m9abcae25e5" x="233.314896" y="201.175688" style="fill: #b22222; stroke: #b22222"/>
     <use xlink:href="#m9abcae25e5" x="204.712221" y="177.990973" style="fill: #b22222; stroke: #b22222"/>
     <use xlink:href="#m9abcae25e5" x="230.27249" y="243.455425" style="fill: #b22222; stroke: #b22222"/>
     <use xlink:href="#m9abcae25e5" x="204.331382" y="176.274354" style="fill: #b22222; stroke: #b22222"/>
     <use xlink:href="#m9abcae25e5" x="204.195767" y="189.313159" style="fill: #b22222; stroke: #b22222"/>
     <use xlink:href="#m9abcae25e5" x="250.987113" y="209.973233" style="fill: #b22222; stroke: #b22222"/>
     <use xlink:href="#m9abcae25e5" x="208.80823" y="192.404602" style="fill: #b22222; stroke: #b22222"/>
     <use xlink:href="#m9abcae25e5" x="214.361542" y="171.670651" style="fill: #b22222; stroke: #b22222"/>
     <use xlink:href="#m9abcae25e5" x="216.182569" y="172.080374" style="fill: #b22222; stroke: #b22222"/>
     <use xlink:href="#m9abcae25e5" x="230.292962" y="202.988603" style="fill: #b22222; stroke: #b22222"/>
     <use xlink:href="#m9abcae25e5" x="202.626568" y="179.988136" style="fill: #b22222; stroke: #b22222"/>
     <use xlink:href="#m9abcae25e5" x="235.65912" y="161.459134" style="fill: #b22222; stroke: #b22222"/>
     <use xlink:href="#m9abcae25e5" x="220.744674" y="197.655928" style="fill: #b22222; stroke: #b22222"/>
     <use xlink:href="#m9abcae25e5" x="348.473068" y="233.70122" style="fill: #b22222; stroke: #b22222"/>
     <use xlink:href="#m9abcae25e5" x="245.072301" y="193.452409" style="fill: #b22222; stroke: #b22222"/>
     <use xlink:href="#m9abcae25e5" x="203.845436" y="177.855591" style="fill: #b22222; stroke: #b22222"/>
     <use xlink:href="#m9abcae25e5" x="254.395814" y="202.35495" style="fill: #b22222; stroke: #b22222"/>
     <use xlink:href="#m9abcae25e5" x="202.127486" y="183.106186" style="fill: #b22222; stroke: #b22222"/>
     <use xlink:href="#m9abcae25e5" x="207.776688" y="186.901536" style="fill: #b22222; stroke: #b22222"/>
     <use xlink:href="#m9abcae25e5" x="225.958721" y="210.149787" style="fill: #b22222; stroke: #b22222"/>
     <use xlink:href="#m9abcae25e5" x="237.895338" y="214.832813" style="fill: #b22222; stroke: #b22222"/>
     <use xlink:href="#m9abcae25e5" x="240.48213" y="203.238202" style="fill: #b22222; stroke: #b22222"/>
     <use xlink:href="#m9abcae25e5" x="241.362406" y="205.372588" style="fill: #b22222; stroke: #b22222"/>
     <use xlink:href="#m9abcae25e5" x="222.782913" y="203.480146" style="fill: #b22222; stroke: #b22222"/>
     <use xlink:href="#m9abcae25e5" x="232.223455" y="185.61601" style="fill: #b22222; stroke: #b22222"/>
     <use xlink:href="#m9abcae25e5" x="207.078647" y="194.253579" style="fill: #b22222; stroke: #b22222"/>
     <use xlink:href="#m9abcae25e5" x="215.059029" y="185.804393" style="fill: #b22222; stroke: #b22222"/>
     <use xlink:href="#m9abcae25e5" x="214.947005" y="187.722531" style="fill: #b22222; stroke: #b22222"/>
     <use xlink:href="#m9abcae25e5" x="221.761523" y="201.065484" style="fill: #b22222; stroke: #b22222"/>
     <use xlink:href="#m9abcae25e5" x="224.337203" y="271.28466" style="fill: #b22222; stroke: #b22222"/>
     <use xlink:href="#m9abcae25e5" x="198.143657" y="177.399599" style="fill: #b22222; stroke: #b22222"/>
     <use xlink:href="#m9abcae25e5" x="258.703839" y="218.683518" style="fill: #b22222; stroke: #b22222"/>
     <use xlink:href="#m9abcae25e5" x="252.325056" y="236.126666" style="fill: #b22222; stroke: #b22222"/>
     <use xlink:href="#m9abcae25e5" x="253.979824" y="237.361737" style="fill: #b22222; stroke: #b22222"/>
     <use xlink:href="#m9abcae25e5" x="258.602378" y="223.639914" style="fill: #b22222; stroke: #b22222"/>
     <use xlink:href="#m9abcae25e5" x="224.024825" y="196.192253" style="fill: #b22222; stroke: #b22222"/>
     <use xlink:href="#m9abcae25e5" x="235.77734" y="196.74646" style="fill: #b22222; stroke: #b22222"/>
     <use xlink:href="#m9abcae25e5" x="260.202746" y="209.530967" style="fill: #b22222; stroke: #b22222"/>
     <use xlink:href="#m9abcae25e5" x="213.675411" y="187.323132" style="fill: #b22222; stroke: #b22222"/>
     <use xlink:href="#m9abcae25e5" x="205.11858" y="187.083942" style="fill: #b22222; stroke: #b22222"/>
     <use xlink:href="#m9abcae25e5" x="256.941919" y="194.585718" style="fill: #b22222; stroke: #b22222"/>
    </g>
   </g>
   <g id="patch_4">
    <path d="M 56.450156 450.72 
L 56.450156 7.2 
" style="fill: none; stroke: #ffffff; stroke-width: 1.25; stroke-linejoin: miter; stroke-linecap: square"/>
   </g>
   <g id="patch_5">
    <path d="M 499.970156 450.72 
L 499.970156 7.2 
" style="fill: none; stroke: #ffffff; stroke-width: 1.25; stroke-linejoin: miter; stroke-linecap: square"/>
   </g>
   <g id="patch_6">
    <path d="M 56.450156 450.72 
L 499.970156 450.72 
" style="fill: none; stroke: #ffffff; stroke-width: 1.25; stroke-linejoin: miter; stroke-linecap: square"/>
   </g>
   <g id="patch_7">
    <path d="M 56.450156 7.2 
L 499.970156 7.2 
" style="fill: none; stroke: #ffffff; stroke-width: 1.25; stroke-linejoin: miter; stroke-linecap: square"/>
   </g>
   <g id="text_13">
    <!-- t = 1900 -->
    <g style="fill: #262626" transform="translate(65.320556 24.659775) scale(0.12 -0.12)">
     <defs>
      <path id="ArialMT-74" d="M 1650 503 
L 1731 6 
Q 1494 -44 1306 -44 
Q 1000 -44 831 53 
Q 663 150 594 308 
Q 525 466 525 972 
L 525 2881 
L 113 2881 
L 113 3319 
L 525 3319 
L 525 4141 
L 1084 4478 
L 1084 3319 
L 1650 3319 
L 1650 2881 
L 1084 2881 
L 1084 941 
Q 1084 700 1114 631 
Q 1144 563 1211 522 
Q 1278 481 1403 481 
Q 1497 481 1650 503 
z
" transform="scale(0.015625)"/>
      <path id="ArialMT-20" transform="scale(0.015625)"/>
      <path id="ArialMT-3d" d="M 3381 2694 
L 356 2694 
L 356 3219 
L 3381 3219 
L 3381 2694 
z
M 3381 1303 
L 356 1303 
L 356 1828 
L 3381 1828 
L 3381 1303 
z
" transform="scale(0.015625)"/>
      <path id="ArialMT-31" d="M 2384 0 
L 1822 0 
L 1822 3584 
Q 1619 3391 1289 3197 
Q 959 3003 697 2906 
L 697 3450 
Q 1169 3672 1522 3987 
Q 1875 4303 2022 4600 
L 2384 4600 
L 2384 0 
z
" transform="scale(0.015625)"/>
      <path id="ArialMT-39" d="M 350 1059 
L 891 1109 
Q 959 728 1153 556 
Q 1347 384 1650 384 
Q 1909 384 2104 503 
Q 2300 622 2425 820 
Q 2550 1019 2634 1356 
Q 2719 1694 2719 2044 
Q 2719 2081 2716 2156 
Q 2547 1888 2255 1720 
Q 1963 1553 1622 1553 
Q 1053 1553 659 1965 
Q 266 2378 266 3053 
Q 266 3750 677 4175 
Q 1088 4600 1706 4600 
Q 2153 4600 2523 4359 
Q 2894 4119 3086 3673 
Q 3278 3228 3278 2384 
Q 3278 1506 3087 986 
Q 2897 466 2520 194 
Q 2144 -78 1638 -78 
Q 1100 -78 759 220 
Q 419 519 350 1059 
z
M 2653 3081 
Q 2653 3566 2395 3850 
Q 2138 4134 1775 4134 
Q 1400 4134 1122 3828 
Q 844 3522 844 3034 
Q 844 2597 1108 2323 
Q 1372 2050 1759 2050 
Q 2150 2050 2401 2323 
Q 2653 2597 2653 3081 
z
" transform="scale(0.015625)"/>
     </defs>
     <use xlink:href="#ArialMT-74"/>
     <use xlink:href="#ArialMT-20" x="27.783203"/>
     <use xlink:href="#ArialMT-3d" x="55.566406"/>
     <use xlink:href="#ArialMT-20" x="113.964844"/>
     <use xlink:href="#ArialMT-31" x="141.748047"/>
     <use xlink:href="#ArialMT-39" x="197.363281"/>
     <use xlink:href="#ArialMT-30" x="252.978516"/>
     <use xlink:href="#ArialMT-30" x="308.59375"/>
    </g>
   </g>
   <g id="legend_1">
    <g id="patch_8">
     <path d="M 328.111406 94.59 
L 483.170156 94.59 
Q 487.970156 94.59 487.970156 89.79 
L 487.970156 24 
Q 487.970156 19.2 483.170156 19.2 
L 328.111406 19.2 
Q 323.311406 19.2 323.311406 24 
L 323.311406 89.79 
Q 323.311406 94.59 328.111406 94.59 
z
" style="fill: #eaeaf2; opacity: 0.8; stroke: #cccccc; stroke-linejoin: miter"/>
    </g>
    <g id="PathCollection_3">
     <g>
      <use xlink:href="#m51c5535f3d" x="356.911406" y="39.97125" style="fill: #4169e1; stroke: #4169e1"/>
     </g>
    </g>
    <g id="text_14">
     <!-- Sheep -->
     <g style="fill: #262626" transform="translate(400.111406 46.27125) scale(0.24 -0.24)">
      <defs>
       <path id="ArialMT-53" d="M 288 1472 
L 859 1522 
Q 900 1178 1048 958 
Q 1197 738 1509 602 
Q 1822 466 2213 466 
Q 2559 466 2825 569 
Q 3091 672 3220 851 
Q 3350 1031 3350 1244 
Q 3350 1459 3225 1620 
Q 3100 1781 2813 1891 
Q 2628 1963 1997 2114 
Q 1366 2266 1113 2400 
Q 784 2572 623 2826 
Q 463 3081 463 3397 
Q 463 3744 659 4045 
Q 856 4347 1234 4503 
Q 1613 4659 2075 4659 
Q 2584 4659 2973 4495 
Q 3363 4331 3572 4012 
Q 3781 3694 3797 3291 
L 3216 3247 
Q 3169 3681 2898 3903 
Q 2628 4125 2100 4125 
Q 1550 4125 1298 3923 
Q 1047 3722 1047 3438 
Q 1047 3191 1225 3031 
Q 1400 2872 2139 2705 
Q 2878 2538 3153 2413 
Q 3553 2228 3743 1945 
Q 3934 1663 3934 1294 
Q 3934 928 3725 604 
Q 3516 281 3123 101 
Q 2731 -78 2241 -78 
Q 1619 -78 1198 103 
Q 778 284 539 648 
Q 300 1013 288 1472 
z
" transform="scale(0.015625)"/>
       <path id="ArialMT-68" d="M 422 0 
L 422 4581 
L 984 4581 
L 984 2938 
Q 1378 3394 1978 3394 
Q 2347 3394 2619 3248 
Q 2891 3103 3008 2847 
Q 3125 2591 3125 2103 
L 3125 0 
L 2563 0 
L 2563 2103 
Q 2563 2525 2380 2717 
Q 2197 2909 1863 2909 
Q 1613 2909 1392 2779 
Q 1172 2650 1078 2428 
Q 984 2206 984 1816 
L 984 0 
L 422 0 
z
" transform="scale(0.015625)"/>
       <path id="ArialMT-65" d="M 2694 1069 
L 3275 997 
Q 3138 488 2766 206 
Q 2394 -75 1816 -75 
Q 1088 -75 661 373 
Q 234 822 234 1631 
Q 234 2469 665 2931 
Q 1097 3394 1784 3394 
Q 2450 3394 2872 2941 
Q 3294 2488 3294 1666 
Q 3294 1616 3291 1516 
L 816 1516 
Q 847 969 1125 678 
Q 1403 388 1819 388 
Q 2128 388 2347 550 
Q 2566 713 2694 1069 
z
M 847 1978 
L 2700 1978 
Q 2663 2397 2488 2606 
Q 2219 2931 1791 2931 
Q 1403 2931 1139 2672 
Q 875 2413 847 1978 
z
" transform="scale(0.015625)"/>
       <path id="ArialMT-70" d="M 422 -1272 
L 422 3319 
L 934 3319 
L 934 2888 
Q 1116 3141 1344 3267 
Q 1572 3394 1897 3394 
Q 2322 3394 2647 3175 
Q 2972 2956 3137 2557 
Q 3303 2159 3303 1684 
Q 3303 1175 3120 767 
Q 2938 359 2589 142 
Q 2241 -75 1856 -75 
Q 1575 -75 1351 44 
Q 1128 163 984 344 
L 984 -1272 
L 422 -1272 
z
M 931 1641 
Q 931 1000 1190 694 
Q 1450 388 1819 388 
Q 2194 388 2461 705 
Q 2728 1022 2728 1688 
Q 2728 2322 2467 2637 
Q 2206 2953 1844 2953 
Q 1484 2953 1207 2617 
Q 931 2281 931 1641 
z
" transform="scale(0.015625)"/>
      </defs>
      <use xlink:href="#ArialMT-53"/>
      <use xlink:href="#ArialMT-68" x="66.699219"/>
      <use xlink:href="#ArialMT-65" x="122.314453"/>
      <use xlink:href="#ArialMT-65" x="177.929688"/>
      <use xlink:href="#ArialMT-70" x="233.544922"/>
     </g>
    </g>
    <g id="PathCollection_4">
     <g>
      <use xlink:href="#m9abcae25e5" x="356.911406" y="73.92" style="fill: #b22222; stroke: #b22222"/>
     </g>
    </g>
    <g id="text_15">
     <!-- Wolves -->
     <g style="fill: #262626" transform="translate(400.111406 80.22) scale(0.24 -0.24)">
      <defs>
       <path id="ArialMT-57" d="M 1294 0 
L 78 4581 
L 700 4581 
L 1397 1578 
Q 1509 1106 1591 641 
Q 1766 1375 1797 1488 
L 2669 4581 
L 3400 4581 
L 4056 2263 
Q 4303 1400 4413 641 
Q 4500 1075 4641 1638 
L 5359 4581 
L 5969 4581 
L 4713 0 
L 4128 0 
L 3163 3491 
Q 3041 3928 3019 4028 
Q 2947 3713 2884 3491 
L 1913 0 
L 1294 0 
z
" transform="scale(0.015625)"/>
       <path id="ArialMT-6f" d="M 213 1659 
Q 213 2581 725 3025 
Q 1153 3394 1769 3394 
Q 2453 3394 2887 2945 
Q 3322 2497 3322 1706 
Q 3322 1066 3130 698 
Q 2938 331 2570 128 
Q 2203 -75 1769 -75 
Q 1072 -75 642 372 
Q 213 819 213 1659 
z
M 791 1659 
Q 791 1022 1069 705 
Q 1347 388 1769 388 
Q 2188 388 2466 706 
Q 2744 1025 2744 1678 
Q 2744 2294 2464 2611 
Q 2184 2928 1769 2928 
Q 1347 2928 1069 2612 
Q 791 2297 791 1659 
z
" transform="scale(0.015625)"/>
       <path id="ArialMT-6c" d="M 409 0 
L 409 4581 
L 972 4581 
L 972 0 
L 409 0 
z
" transform="scale(0.015625)"/>
       <path id="ArialMT-76" d="M 1344 0 
L 81 3319 
L 675 3319 
L 1388 1331 
Q 1503 1009 1600 663 
Q 1675 925 1809 1294 
L 2547 3319 
L 3125 3319 
L 1869 0 
L 1344 0 
z
" transform="scale(0.015625)"/>
       <path id="ArialMT-73" d="M 197 991 
L 753 1078 
Q 800 744 1014 566 
Q 1228 388 1613 388 
Q 2000 388 2187 545 
Q 2375 703 2375 916 
Q 2375 1106 2209 1216 
Q 2094 1291 1634 1406 
Q 1016 1563 777 1677 
Q 538 1791 414 1992 
Q 291 2194 291 2438 
Q 291 2659 392 2848 
Q 494 3038 669 3163 
Q 800 3259 1026 3326 
Q 1253 3394 1513 3394 
Q 1903 3394 2198 3281 
Q 2494 3169 2634 2976 
Q 2775 2784 2828 2463 
L 2278 2388 
Q 2241 2644 2061 2787 
Q 1881 2931 1553 2931 
Q 1166 2931 1000 2803 
Q 834 2675 834 2503 
Q 834 2394 903 2306 
Q 972 2216 1119 2156 
Q 1203 2125 1616 2013 
Q 2213 1853 2448 1751 
Q 2684 1650 2818 1456 
Q 2953 1263 2953 975 
Q 2953 694 2789 445 
Q 2625 197 2315 61 
Q 2006 -75 1616 -75 
Q 969 -75 630 194 
Q 291 463 197 991 
z
" transform="scale(0.015625)"/>
      </defs>
      <use xlink:href="#ArialMT-57"/>
      <use xlink:href="#ArialMT-6f" x="92.634766"/>
      <use xlink:href="#ArialMT-6c" x="148.25"/>
      <use xlink:href="#ArialMT-76" x="170.466797"/>
      <use xlink:href="#ArialMT-65" x="220.466797"/>
      <use xlink:href="#ArialMT-73" x="276.082031"/>
     </g>
    </g>
   </g>
  </g>
 </g>
 <defs>
  <clipPath id="p0dd2cfdd3d">
   <rect x="56.450156" y="7.2" width="443.52" height="443.52"/>
  </clipPath>
 </defs>
</svg>
