<?xml version="1.0" encoding="utf-8" standalone="no"?>
<!DOCTYPE svg PUBLIC "-//W3C//DTD SVG 1.1//EN"
  "http://www.w3.org/Graphics/SVG/1.1/DTD/svg11.dtd">
<svg xmlns:xlink="http://www.w3.org/1999/xlink" width="507.170156pt" height="492.454219pt" viewBox="0 0 507.170156 492.454219" xmlns="http://www.w3.org/2000/svg" version="1.1">
 <metadata>
  <rdf:RDF xmlns:dc="http://purl.org/dc/elements/1.1/" xmlns:cc="http://creativecommons.org/ns#" xmlns:rdf="http://www.w3.org/1999/02/22-rdf-syntax-ns#">
   <cc:Work>
    <dc:type rdf:resource="http://purl.org/dc/dcmitype/StillImage"/>
    <dc:date>2026-05-12T10:43:21.315936</dc:date>
    <dc:format>image/svg+xml</dc:format>
    <dc:creator>
     <cc:Agent>
      <dc:title>Matplotlib v3.7.1, https://matplotlib.org/</dc:title>
     </cc:Agent>
    </dc:creator>
   </cc:Work>
  </rdf:RDF>
 </metadata>
 <defs>
  <style type="text/css">*{stroke-linejoin: round; stroke-linecap: butt}</style>
 </defs>
 <g id="figure_1">
  <g id="patch_1">
   <path d="M 0 492.454219 
L 507.170156 492.454219 
L 507.170156 0 
L 0 0 
z
" style="fill: #ffffff"/>
  </g>
  <g id="axes_1">
   <g id="patch_2">
    <path d="M 56.450156 450.72 
L 499.970156 450.72 
L 499.970156 7.2 
L 56.450156 7.2 
z
" style="fill: #eaeaf2"/>
   </g>
   <g id="matplotlib.axis_1">
    <g id="xtick_1">
     <g id="line2d_1">
      <path d="M 100.802156 450.72 
L 100.802156 7.2 
" clip-path="url(#p206f9d9b56)" style="fill: none; stroke: #ffffff; stroke-linecap: round"/>
     </g>
     <g id="text_1">
      <!-- −400 -->
      <g style="fill: #262626" transform="translate(88.414266 468.093594) scale(0.11 -0.11)">
       <defs>
        <path id="ArialMT-2212" d="M 3381 1997 
L 356 1997 
L 356 2522 
L 3381 2522 
L 3381 1997 
z
" transform="scale(0.015625)"/>
        <path id="ArialMT-34" d="M 2069 0 
L 2069 1097 
L 81 1097 
L 81 1613 
L 2172 4581 
L 2631 4581 
L 2631 1613 
L 3250 1613 
L 3250 1097 
L 2631 1097 
L 2631 0 
L 2069 0 
z
M 2069 1613 
L 2069 3678 
L 634 1613 
L 2069 1613 
z
" transform="scale(0.015625)"/>
        <path id="ArialMT-30" d="M 266 2259 
Q 266 3072 433 3567 
Q 600 4063 929 4331 
Q 1259 4600 1759 4600 
Q 2128 4600 2406 4451 
Q 2684 4303 2865 4023 
Q 3047 3744 3150 3342 
Q 3253 2941 3253 2259 
Q 3253 1453 3087 958 
Q 2922 463 2592 192 
Q 2263 -78 1759 -78 
Q 1097 -78 719 397 
Q 266 969 266 2259 
z
M 844 2259 
Q 844 1131 1108 757 
Q 1372 384 1759 384 
Q 2147 384 2411 759 
Q 2675 1134 2675 2259 
Q 2675 3391 2411 3762 
Q 2147 4134 1753 4134 
Q 1366 4134 1134 3806 
Q 844 3388 844 2259 
z
" transform="scale(0.015625)"/>
       </defs>
       <use xlink:href="#ArialMT-2212"/>
       <use xlink:href="#ArialMT-34" x="58.398438"/>
       <use xlink:href="#ArialMT-30" x="114.013672"/>
       <use xlink:href="#ArialMT-30" x="169.628906"/>
      </g>
     </g>
    </g>
    <g id="xtick_2">
     <g id="line2d_2">
      <path d="M 189.506156 450.72 
L 189.506156 7.2 
" clip-path="url(#p206f9d9b56)" style="fill: none; stroke: #ffffff; stroke-linecap: round"/>
     </g>
     <g id="text_2">
      <!-- −200 -->
      <g style="fill: #262626" transform="translate(177.118266 468.093594) scale(0.11 -0.11)">
       <defs>
        <path id="ArialMT-32" d="M 3222 541 
L 3222 0 
L 194 0 
Q 188 203 259 391 
Q 375 700 629 1000 
Q 884 1300 1366 1694 
Q 2113 2306 2375 2664 
Q 2638 3022 2638 3341 
Q 2638 3675 2398 3904 
Q 2159 4134 1775 4134 
Q 1369 4134 1125 3890 
Q 881 3647 878 3216 
L 300 3275 
Q 359 3922 746 4261 
Q 1134 4600 1788 4600 
Q 2447 4600 2831 4234 
Q 3216 3869 3216 3328 
Q 3216 3053 3103 2787 
Q 2991 2522 2730 2228 
Q 2469 1934 1863 1422 
Q 1356 997 1212 845 
Q 1069 694 975 541 
L 3222 541 
z
" transform="scale(0.015625)"/>
       </defs>
       <use xlink:href="#ArialMT-2212"/>
       <use xlink:href="#ArialMT-32" x="58.398438"/>
       <use xlink:href="#ArialMT-30" x="114.013672"/>
       <use xlink:href="#ArialMT-30" x="169.628906"/>
      </g>
     </g>
    </g>
    <g id="xtick_3">
     <g id="line2d_3">
      <path d="M 278.210156 450.72 
L 278.210156 7.2 
" clip-path="url(#p206f9d9b56)" style="fill: none; stroke: #ffffff; stroke-linecap: round"/>
     </g>
     <g id="text_3">
      <!-- 0 -->
      <g style="fill: #262626" transform="translate(275.151641 468.093594) scale(0.11 -0.11)">
       <use xlink:href="#ArialMT-30"/>
      </g>
     </g>
    </g>
    <g id="xtick_4">
     <g id="line2d_4">
      <path d="M 366.914156 450.72 
L 366.914156 7.2 
" clip-path="url(#p206f9d9b56)" style="fill: none; stroke: #ffffff; stroke-linecap: round"/>
     </g>
     <g id="text_4">
      <!-- 200 -->
      <g style="fill: #262626" transform="translate(357.738609 468.093594) scale(0.11 -0.11)">
       <use xlink:href="#ArialMT-32"/>
       <use xlink:href="#ArialMT-30" x="55.615234"/>
       <use xlink:href="#ArialMT-30" x="111.230469"/>
      </g>
     </g>
    </g>
    <g id="xtick_5">
     <g id="line2d_5">
      <path d="M 455.618156 450.72 
L 455.618156 7.2 
" clip-path="url(#p206f9d9b56)" style="fill: none; stroke: #ffffff; stroke-linecap: round"/>
     </g>
     <g id="text_5">
      <!-- 400 -->
      <g style="fill: #262626" transform="translate(446.442609 468.093594) scale(0.11 -0.11)">
       <use xlink:href="#ArialMT-34"/>
       <use xlink:href="#ArialMT-30" x="55.615234"/>
       <use xlink:href="#ArialMT-30" x="111.230469"/>
      </g>
     </g>
    </g>
    <g id="text_6">
     <!-- x -->
     <g style="fill: #262626" transform="translate(275.210156 482.869219) scale(0.12 -0.12)">
      <defs>
       <path id="ArialMT-78" d="M 47 0 
L 1259 1725 
L 138 3319 
L 841 3319 
L 1350 2541 
Q 1494 2319 1581 2169 
Q 1719 2375 1834 2534 
L 2394 3319 
L 3066 3319 
L 1919 1756 
L 3153 0 
L 2463 0 
L 1781 1031 
L 1600 1309 
L 728 0 
L 47 0 
z
" transform="scale(0.015625)"/>
      </defs>
      <use xlink:href="#ArialMT-78"/>
     </g>
    </g>
   </g>
   <g id="matplotlib.axis_2">
    <g id="ytick_1">
     <g id="line2d_6">
      <path d="M 56.450156 406.368 
L 499.970156 406.368 
" clip-path="url(#p206f9d9b56)" style="fill: none; stroke: #ffffff; stroke-linecap: round"/>
     </g>
     <g id="text_7">
      <!-- −400 -->
      <g style="fill: #262626" transform="translate(22.174375 410.304797) scale(0.11 -0.11)">
       <use xlink:href="#ArialMT-2212"/>
       <use xlink:href="#ArialMT-34" x="58.398438"/>
       <use xlink:href="#ArialMT-30" x="114.013672"/>
       <use xlink:href="#ArialMT-30" x="169.628906"/>
      </g>
     </g>
    </g>
    <g id="ytick_2">
     <g id="line2d_7">
      <path d="M 56.450156 317.664 
L 499.970156 317.664 
" clip-path="url(#p206f9d9b56)" style="fill: none; stroke: #ffffff; stroke-linecap: round"/>
     </g>
     <g id="text_8">
      <!-- −200 -->
      <g style="fill: #262626" transform="translate(22.174375 321.600797) scale(0.11 -0.11)">
       <use xlink:href="#ArialMT-2212"/>
       <use xlink:href="#ArialMT-32" x="58.398438"/>
       <use xlink:href="#ArialMT-30" x="114.013672"/>
       <use xlink:href="#ArialMT-30" x="169.628906"/>
      </g>
     </g>
    </g>
    <g id="ytick_3">
     <g id="line2d_8">
      <path d="M 56.450156 228.96 
L 499.970156 228.96 
" clip-path="url(#p206f9d9b56)" style="fill: none; stroke: #ffffff; stroke-linecap: round"/>
     </g>
     <g id="text_9">
      <!-- 0 -->
      <g style="fill: #262626" transform="translate(40.833125 232.896797) scale(0.11 -0.11)">
       <use xlink:href="#ArialMT-30"/>
      </g>
     </g>
    </g>
    <g id="ytick_4">
     <g id="line2d_9">
      <path d="M 56.450156 140.256 
L 499.970156 140.256 
" clip-path="url(#p206f9d9b56)" style="fill: none; stroke: #ffffff; stroke-linecap: round"/>
     </g>
     <g id="text_10">
      <!-- 200 -->
      <g style="fill: #262626" transform="translate(28.599063 144.192797) scale(0.11 -0.11)">
       <use xlink:href="#ArialMT-32"/>
       <use xlink:href="#ArialMT-30" x="55.615234"/>
       <use xlink:href="#ArialMT-30" x="111.230469"/>
      </g>
     </g>
    </g>
    <g id="ytick_5">
     <g id="line2d_10">
      <path d="M 56.450156 51.552 
L 499.970156 51.552 
" clip-path="url(#p206f9d9b56)" style="fill: none; stroke: #ffffff; stroke-linecap: round"/>
     </g>
     <g id="text_11">
      <!-- 400 -->
      <g style="fill: #262626" transform="translate(28.599063 55.488797) scale(0.11 -0.11)">
       <use xlink:href="#ArialMT-34"/>
       <use xlink:href="#ArialMT-30" x="55.615234"/>
       <use xlink:href="#ArialMT-30" x="111.230469"/>
      </g>
     </g>
    </g>
    <g id="text_12">
     <!-- y -->
     <g style="fill: #262626" transform="translate(15.64875 231.96) rotate(-90) scale(0.12 -0.12)">
      <defs>
       <path id="ArialMT-79" d="M 397 -1278 
L 334 -750 
Q 519 -800 656 -800 
Q 844 -800 956 -737 
Q 1069 -675 1141 -563 
Q 1194 -478 1313 -144 
Q 1328 -97 1363 -6 
L 103 3319 
L 709 3319 
L 1400 1397 
Q 1534 1031 1641 628 
Q 1738 1016 1872 1384 
L 2581 3319 
L 3144 3319 
L 1881 -56 
Q 1678 -603 1566 -809 
Q 1416 -1088 1222 -1217 
Q 1028 -1347 759 -1347 
Q 597 -1347 397 -1278 
z
" transform="scale(0.015625)"/>
      </defs>
      <use xlink:href="#ArialMT-79"/>
     </g>
    </g>
   </g>
   <g id="patch_3">
    <path d="M 278.210156 317.664 
C 301.734732 317.664 324.298969 308.317587 340.933356 291.6832 
C 357.567743 275.048813 366.914156 252.484576 366.914156 228.96 
C 366.914156 205.435424 357.567743 182.871187 340.933356 166.2368 
C 324.298969 149.602413 301.734732 140.256 278.210156 140.256 
C 254.68558 140.256 232.121343 149.602413 215.486956 166.2368 
C 198.852569 182.871187 189.506156 205.435424 189.506156 228.96 
C 189.506156 252.484576 198.852569 275.048813 215.486956 291.6832 
C 232.121343 308.317587 254.68558 317.664 278.210156 317.664 
z
" clip-path="url(#p206f9d9b56)" style="fill: #228b22; opacity: 0.12; stroke: #228b22; stroke-width: 1.5; stroke-linejoin: miter"/>
   </g>
   <g id="PathCollection_1">
    <defs>
     <path id="m1b104012ec" d="M 0 2.236068 
C 0.593012 2.236068 1.161816 2.000462 1.581139 1.581139 
C 2.000462 1.161816 2.236068 0.593012 2.236068 0 
C 2.236068 -0.593012 2.000462 -1.161816 1.581139 -1.581139 
C 1.161816 -2.000462 0.593012 -2.236068 0 -2.236068 
C -0.593012 -2.236068 -1.161816 -2.000462 -1.581139 -1.581139 
C -2.000462 -1.161816 -2.236068 -0.593012 -2.236068 0 
C -2.236068 0.593012 -2.000462 1.161816 -1.581139 1.581139 
C -1.161816 2.000462 -0.593012 2.236068 0 2.236068 
z
" style="stroke: #4169e1"/>
    </defs>
    <g clip-path="url(#p206f9d9b56)">
     <use xlink:href="#m1b104012ec" x="186.935336" y="228.115477" style="fill: #4169e1; stroke: #4169e1"/>
     <use xlink:href="#m1b104012ec" x="408.475518" y="265.07784" style="fill: #4169e1; stroke: #4169e1"/>
     <use xlink:href="#m1b104012ec" x="330.869632" y="284.707258" style="fill: #4169e1; stroke: #4169e1"/>
     <use xlink:href="#m1b104012ec" x="344.093835" y="210.137565" style="fill: #4169e1; stroke: #4169e1"/>
     <use xlink:href="#m1b104012ec" x="192.225613" y="227.496968" style="fill: #4169e1; stroke: #4169e1"/>
     <use xlink:href="#m1b104012ec" x="306.832285" y="191.127793" style="fill: #4169e1; stroke: #4169e1"/>
     <use xlink:href="#m1b104012ec" x="255.94533" y="198.740696" style="fill: #4169e1; stroke: #4169e1"/>
     <use xlink:href="#m1b104012ec" x="380.218511" y="181.228123" style="fill: #4169e1; stroke: #4169e1"/>
     <use xlink:href="#m1b104012ec" x="406.600926" y="222.617867" style="fill: #4169e1; stroke: #4169e1"/>
     <use xlink:href="#m1b104012ec" x="335.67329" y="90.097188" style="fill: #4169e1; stroke: #4169e1"/>
     <use xlink:href="#m1b104012ec" x="380.956163" y="283.335457" style="fill: #4169e1; stroke: #4169e1"/>
     <use xlink:href="#m1b104012ec" x="435.109309" y="272.900799" style="fill: #4169e1; stroke: #4169e1"/>
     <use xlink:href="#m1b104012ec" x="424.679442" y="154.069283" style="fill: #4169e1; stroke: #4169e1"/>
     <use xlink:href="#m1b104012ec" x="305.98643" y="298.993951" style="fill: #4169e1; stroke: #4169e1"/>
     <use xlink:href="#m1b104012ec" x="356.46842" y="159.166034" style="fill: #4169e1; stroke: #4169e1"/>
     <use xlink:href="#m1b104012ec" x="372.597765" y="165.522069" style="fill: #4169e1; stroke: #4169e1"/>
     <use xlink:href="#m1b104012ec" x="342.95136" y="87.442484" style="fill: #4169e1; stroke: #4169e1"/>
     <use xlink:href="#m1b104012ec" x="418.930425" y="238.443505" style="fill: #4169e1; stroke: #4169e1"/>
     <use xlink:href="#m1b104012ec" x="419.403465" y="280.826665" style="fill: #4169e1; stroke: #4169e1"/>
     <use xlink:href="#m1b104012ec" x="320.969745" y="255.051792" style="fill: #4169e1; stroke: #4169e1"/>
     <use xlink:href="#m1b104012ec" x="424.343973" y="140.87432" style="fill: #4169e1; stroke: #4169e1"/>
     <use xlink:href="#m1b104012ec" x="308.703046" y="242.17237" style="fill: #4169e1; stroke: #4169e1"/>
     <use xlink:href="#m1b104012ec" x="356.813363" y="197.087593" style="fill: #4169e1; stroke: #4169e1"/>
     <use xlink:href="#m1b104012ec" x="219.464607" y="191.654213" style="fill: #4169e1; stroke: #4169e1"/>
     <use xlink:href="#m1b104012ec" x="247.881478" y="182.925519" style="fill: #4169e1; stroke: #4169e1"/>
     <use xlink:href="#m1b104012ec" x="330.726167" y="275.989843" style="fill: #4169e1; stroke: #4169e1"/>
     <use xlink:href="#m1b104012ec" x="277.560729" y="302.834335" style="fill: #4169e1; stroke: #4169e1"/>
     <use xlink:href="#m1b104012ec" x="241.104737" y="313.531365" style="fill: #4169e1; stroke: #4169e1"/>
     <use xlink:href="#m1b104012ec" x="254.660483" y="264.175127" style="fill: #4169e1; stroke: #4169e1"/>
     <use xlink:href="#m1b104012ec" x="221.61178" y="330.335573" style="fill: #4169e1; stroke: #4169e1"/>
     <use xlink:href="#m1b104012ec" x="319.055431" y="279.539211" style="fill: #4169e1; stroke: #4169e1"/>
     <use xlink:href="#m1b104012ec" x="445.655577" y="104.152229" style="fill: #4169e1; stroke: #4169e1"/>
     <use xlink:href="#m1b104012ec" x="248.029035" y="135.101968" style="fill: #4169e1; stroke: #4169e1"/>
     <use xlink:href="#m1b104012ec" x="262.22123" y="165.768139" style="fill: #4169e1; stroke: #4169e1"/>
     <use xlink:href="#m1b104012ec" x="334.411373" y="174.731349" style="fill: #4169e1; stroke: #4169e1"/>
     <use xlink:href="#m1b104012ec" x="296.502497" y="299.930428" style="fill: #4169e1; stroke: #4169e1"/>
     <use xlink:href="#m1b104012ec" x="364.120906" y="246.468009" style="fill: #4169e1; stroke: #4169e1"/>
     <use xlink:href="#m1b104012ec" x="294.442873" y="316.22616" style="fill: #4169e1; stroke: #4169e1"/>
     <use xlink:href="#m1b104012ec" x="332.499573" y="322.281451" style="fill: #4169e1; stroke: #4169e1"/>
     <use xlink:href="#m1b104012ec" x="246.307996" y="296.487977" style="fill: #4169e1; stroke: #4169e1"/>
     <use xlink:href="#m1b104012ec" x="205.131608" y="57.180635" style="fill: #4169e1; stroke: #4169e1"/>
     <use xlink:href="#m1b104012ec" x="309.114065" y="143.874448" style="fill: #4169e1; stroke: #4169e1"/>
     <use xlink:href="#m1b104012ec" x="232.310905" y="114.848305" style="fill: #4169e1; stroke: #4169e1"/>
     <use xlink:href="#m1b104012ec" x="431.720254" y="162.721977" style="fill: #4169e1; stroke: #4169e1"/>
     <use xlink:href="#m1b104012ec" x="151.855818" y="200.171281" style="fill: #4169e1; stroke: #4169e1"/>
     <use xlink:href="#m1b104012ec" x="299.931081" y="146.878529" style="fill: #4169e1; stroke: #4169e1"/>
     <use xlink:href="#m1b104012ec" x="286.292188" y="281.712189" style="fill: #4169e1; stroke: #4169e1"/>
     <use xlink:href="#m1b104012ec" x="221.325292" y="306.092836" style="fill: #4169e1; stroke: #4169e1"/>
     <use xlink:href="#m1b104012ec" x="360.223938" y="73.883153" style="fill: #4169e1; stroke: #4169e1"/>
     <use xlink:href="#m1b104012ec" x="312.199289" y="113.094745" style="fill: #4169e1; stroke: #4169e1"/>
     <use xlink:href="#m1b104012ec" x="345.371229" y="302.066242" style="fill: #4169e1; stroke: #4169e1"/>
     <use xlink:href="#m1b104012ec" x="344.445925" y="255.194151" style="fill: #4169e1; stroke: #4169e1"/>
     <use xlink:href="#m1b104012ec" x="412.407725" y="257.218846" style="fill: #4169e1; stroke: #4169e1"/>
     <use xlink:href="#m1b104012ec" x="442.1438" y="179.366044" style="fill: #4169e1; stroke: #4169e1"/>
     <use xlink:href="#m1b104012ec" x="351.80162" y="266.995048" style="fill: #4169e1; stroke: #4169e1"/>
     <use xlink:href="#m1b104012ec" x="222.842119" y="176.150801" style="fill: #4169e1; stroke: #4169e1"/>
     <use xlink:href="#m1b104012ec" x="184.126954" y="246.040599" style="fill: #4169e1; stroke: #4169e1"/>
     <use xlink:href="#m1b104012ec" x="376.972902" y="128.521351" style="fill: #4169e1; stroke: #4169e1"/>
     <use xlink:href="#m1b104012ec" x="146.599413" y="249.918968" style="fill: #4169e1; stroke: #4169e1"/>
     <use xlink:href="#m1b104012ec" x="391.602342" y="135.836704" style="fill: #4169e1; stroke: #4169e1"/>
     <use xlink:href="#m1b104012ec" x="413.843155" y="268.553147" style="fill: #4169e1; stroke: #4169e1"/>
     <use xlink:href="#m1b104012ec" x="317.194337" y="256.840496" style="fill: #4169e1; stroke: #4169e1"/>
     <use xlink:href="#m1b104012ec" x="336.772561" y="201.78156" style="fill: #4169e1; stroke: #4169e1"/>
     <use xlink:href="#m1b104012ec" x="298.079613" y="185.563531" style="fill: #4169e1; stroke: #4169e1"/>
     <use xlink:href="#m1b104012ec" x="188.574938" y="238.832048" style="fill: #4169e1; stroke: #4169e1"/>
     <use xlink:href="#m1b104012ec" x="283.277687" y="201.737678" style="fill: #4169e1; stroke: #4169e1"/>
     <use xlink:href="#m1b104012ec" x="306.93992" y="171.123905" style="fill: #4169e1; stroke: #4169e1"/>
     <use xlink:href="#m1b104012ec" x="383.818409" y="110.49414" style="fill: #4169e1; stroke: #4169e1"/>
     <use xlink:href="#m1b104012ec" x="404.295307" y="156.396024" style="fill: #4169e1; stroke: #4169e1"/>
     <use xlink:href="#m1b104012ec" x="169.541415" y="173.305177" style="fill: #4169e1; stroke: #4169e1"/>
     <use xlink:href="#m1b104012ec" x="348.561154" y="346.606022" style="fill: #4169e1; stroke: #4169e1"/>
     <use xlink:href="#m1b104012ec" x="369.550297" y="142.043669" style="fill: #4169e1; stroke: #4169e1"/>
     <use xlink:href="#m1b104012ec" x="343.198722" y="218.382786" style="fill: #4169e1; stroke: #4169e1"/>
     <use xlink:href="#m1b104012ec" x="169.456563" y="245.317015" style="fill: #4169e1; stroke: #4169e1"/>
     <use xlink:href="#m1b104012ec" x="320.869609" y="123.754858" style="fill: #4169e1; stroke: #4169e1"/>
     <use xlink:href="#m1b104012ec" x="310.108012" y="210.103013" style="fill: #4169e1; stroke: #4169e1"/>
     <use xlink:href="#m1b104012ec" x="301.964795" y="251.765581" style="fill: #4169e1; stroke: #4169e1"/>
     <use xlink:href="#m1b104012ec" x="287.073078" y="161.47947" style="fill: #4169e1; stroke: #4169e1"/>
     <use xlink:href="#m1b104012ec" x="230.834514" y="239.303615" style="fill: #4169e1; stroke: #4169e1"/>
     <use xlink:href="#m1b104012ec" x="306.771058" y="316.002228" style="fill: #4169e1; stroke: #4169e1"/>
     <use xlink:href="#m1b104012ec" x="343.933051" y="282.198182" style="fill: #4169e1; stroke: #4169e1"/>
     <use xlink:href="#m1b104012ec" x="212.826094" y="214.641109" style="fill: #4169e1; stroke: #4169e1"/>
     <use xlink:href="#m1b104012ec" x="304.124949" y="75.241988" style="fill: #4169e1; stroke: #4169e1"/>
     <use xlink:href="#m1b104012ec" x="181.995985" y="192.835815" style="fill: #4169e1; stroke: #4169e1"/>
     <use xlink:href="#m1b104012ec" x="298.779359" y="188.598963" style="fill: #4169e1; stroke: #4169e1"/>
     <use xlink:href="#m1b104012ec" x="185.815458" y="226.696431" style="fill: #4169e1; stroke: #4169e1"/>
     <use xlink:href="#m1b104012ec" x="307.931346" y="150.556545" style="fill: #4169e1; stroke: #4169e1"/>
     <use xlink:href="#m1b104012ec" x="348.905577" y="171.479101" style="fill: #4169e1; stroke: #4169e1"/>
     <use xlink:href="#m1b104012ec" x="255.084865" y="288.075681" style="fill: #4169e1; stroke: #4169e1"/>
     <use xlink:href="#m1b104012ec" x="398.824965" y="219.488801" style="fill: #4169e1; stroke: #4169e1"/>
     <use xlink:href="#m1b104012ec" x="208.558547" y="154.405503" style="fill: #4169e1; stroke: #4169e1"/>
     <use xlink:href="#m1b104012ec" x="248.170268" y="194.523081" style="fill: #4169e1; stroke: #4169e1"/>
     <use xlink:href="#m1b104012ec" x="291.114119" y="80.478605" style="fill: #4169e1; stroke: #4169e1"/>
     <use xlink:href="#m1b104012ec" x="302.606475" y="281.158486" style="fill: #4169e1; stroke: #4169e1"/>
     <use xlink:href="#m1b104012ec" x="362.183423" y="201.539802" style="fill: #4169e1; stroke: #4169e1"/>
     <use xlink:href="#m1b104012ec" x="338.99615" y="73.633809" style="fill: #4169e1; stroke: #4169e1"/>
     <use xlink:href="#m1b104012ec" x="362.299582" y="165.984525" style="fill: #4169e1; stroke: #4169e1"/>
     <use xlink:href="#m1b104012ec" x="240.359708" y="250.319417" style="fill: #4169e1; stroke: #4169e1"/>
     <use xlink:href="#m1b104012ec" x="158.426717" y="235.863666" style="fill: #4169e1; stroke: #4169e1"/>
     <use xlink:href="#m1b104012ec" x="210.981211" y="182.680029" style="fill: #4169e1; stroke: #4169e1"/>
     <use xlink:href="#m1b104012ec" x="158.614436" y="155.36834" style="fill: #4169e1; stroke: #4169e1"/>
     <use xlink:href="#m1b104012ec" x="319.622374" y="64.854988" style="fill: #4169e1; stroke: #4169e1"/>
     <use xlink:href="#m1b104012ec" x="477.487436" y="208.359122" style="fill: #4169e1; stroke: #4169e1"/>
     <use xlink:href="#m1b104012ec" x="344.448504" y="150.877788" style="fill: #4169e1; stroke: #4169e1"/>
     <use xlink:href="#m1b104012ec" x="370.885317" y="255.063843" style="fill: #4169e1; stroke: #4169e1"/>
     <use xlink:href="#m1b104012ec" x="308.210583" y="270.777786" style="fill: #4169e1; stroke: #4169e1"/>
     <use xlink:href="#m1b104012ec" x="401.712529" y="235.518364" style="fill: #4169e1; stroke: #4169e1"/>
     <use xlink:href="#m1b104012ec" x="224.510628" y="137.593012" style="fill: #4169e1; stroke: #4169e1"/>
     <use xlink:href="#m1b104012ec" x="344.349562" y="354.817138" style="fill: #4169e1; stroke: #4169e1"/>
     <use xlink:href="#m1b104012ec" x="314.174383" y="89.982274" style="fill: #4169e1; stroke: #4169e1"/>
     <use xlink:href="#m1b104012ec" x="167.450565" y="233.885184" style="fill: #4169e1; stroke: #4169e1"/>
     <use xlink:href="#m1b104012ec" x="349.011767" y="230.486814" style="fill: #4169e1; stroke: #4169e1"/>
     <use xlink:href="#m1b104012ec" x="394.863306" y="80.395526" style="fill: #4169e1; stroke: #4169e1"/>
     <use xlink:href="#m1b104012ec" x="332.910284" y="133.572861" style="fill: #4169e1; stroke: #4169e1"/>
     <use xlink:href="#m1b104012ec" x="384.730855" y="131.655579" style="fill: #4169e1; stroke: #4169e1"/>
     <use xlink:href="#m1b104012ec" x="365.48211" y="158.271394" style="fill: #4169e1; stroke: #4169e1"/>
     <use xlink:href="#m1b104012ec" x="399.099675" y="238.09952" style="fill: #4169e1; stroke: #4169e1"/>
     <use xlink:href="#m1b104012ec" x="355.120636" y="224.267811" style="fill: #4169e1; stroke: #4169e1"/>
     <use xlink:href="#m1b104012ec" x="355.00464" y="143.87254" style="fill: #4169e1; stroke: #4169e1"/>
     <use xlink:href="#m1b104012ec" x="204.004562" y="114.122239" style="fill: #4169e1; stroke: #4169e1"/>
     <use xlink:href="#m1b104012ec" x="369.517542" y="114.602845" style="fill: #4169e1; stroke: #4169e1"/>
     <use xlink:href="#m1b104012ec" x="263.937415" y="257.484157" style="fill: #4169e1; stroke: #4169e1"/>
     <use xlink:href="#m1b104012ec" x="318.487925" y="184.575096" style="fill: #4169e1; stroke: #4169e1"/>
     <use xlink:href="#m1b104012ec" x="440.695836" y="239.888962" style="fill: #4169e1; stroke: #4169e1"/>
     <use xlink:href="#m1b104012ec" x="337.824872" y="260.567371" style="fill: #4169e1; stroke: #4169e1"/>
     <use xlink:href="#m1b104012ec" x="357.388452" y="312.040055" style="fill: #4169e1; stroke: #4169e1"/>
     <use xlink:href="#m1b104012ec" x="255.235188" y="210.436795" style="fill: #4169e1; stroke: #4169e1"/>
     <use xlink:href="#m1b104012ec" x="302.792854" y="251.151922" style="fill: #4169e1; stroke: #4169e1"/>
     <use xlink:href="#m1b104012ec" x="235.996285" y="130.521414" style="fill: #4169e1; stroke: #4169e1"/>
     <use xlink:href="#m1b104012ec" x="371.12673" y="93.78859" style="fill: #4169e1; stroke: #4169e1"/>
     <use xlink:href="#m1b104012ec" x="174.351349" y="206.935677" style="fill: #4169e1; stroke: #4169e1"/>
     <use xlink:href="#m1b104012ec" x="337.588988" y="238.24543" style="fill: #4169e1; stroke: #4169e1"/>
     <use xlink:href="#m1b104012ec" x="320.903436" y="143.751962" style="fill: #4169e1; stroke: #4169e1"/>
     <use xlink:href="#m1b104012ec" x="350.062663" y="271.055222" style="fill: #4169e1; stroke: #4169e1"/>
     <use xlink:href="#m1b104012ec" x="476.352743" y="219.165785" style="fill: #4169e1; stroke: #4169e1"/>
     <use xlink:href="#m1b104012ec" x="369.752607" y="263.437897" style="fill: #4169e1; stroke: #4169e1"/>
     <use xlink:href="#m1b104012ec" x="260.659721" y="278.310181" style="fill: #4169e1; stroke: #4169e1"/>
     <use xlink:href="#m1b104012ec" x="327.505429" y="316.512957" style="fill: #4169e1; stroke: #4169e1"/>
     <use xlink:href="#m1b104012ec" x="395.764369" y="230.902808" style="fill: #4169e1; stroke: #4169e1"/>
     <use xlink:href="#m1b104012ec" x="452.471165" y="190.078616" style="fill: #4169e1; stroke: #4169e1"/>
     <use xlink:href="#m1b104012ec" x="253.626524" y="297.151917" style="fill: #4169e1; stroke: #4169e1"/>
     <use xlink:href="#m1b104012ec" x="283.514762" y="181.025603" style="fill: #4169e1; stroke: #4169e1"/>
     <use xlink:href="#m1b104012ec" x="210.432178" y="108.16409" style="fill: #4169e1; stroke: #4169e1"/>
     <use xlink:href="#m1b104012ec" x="265.395297" y="283.630059" style="fill: #4169e1; stroke: #4169e1"/>
     <use xlink:href="#m1b104012ec" x="440.830064" y="123.184216" style="fill: #4169e1; stroke: #4169e1"/>
     <use xlink:href="#m1b104012ec" x="297.274202" y="56.414464" style="fill: #4169e1; stroke: #4169e1"/>
     <use xlink:href="#m1b104012ec" x="197.187222" y="284.663875" style="fill: #4169e1; stroke: #4169e1"/>
     <use xlink:href="#m1b104012ec" x="386.806058" y="234.689247" style="fill: #4169e1; stroke: #4169e1"/>
     <use xlink:href="#m1b104012ec" x="313.835009" y="38.177114" style="fill: #4169e1; stroke: #4169e1"/>
     <use xlink:href="#m1b104012ec" x="339.22614" y="220.441191" style="fill: #4169e1; stroke: #4169e1"/>
     <use xlink:href="#m1b104012ec" x="236.058458" y="310.083176" style="fill: #4169e1; stroke: #4169e1"/>
     <use xlink:href="#m1b104012ec" x="334.239673" y="262.458446" style="fill: #4169e1; stroke: #4169e1"/>
     <use xlink:href="#m1b104012ec" x="293.758792" y="257.127437" style="fill: #4169e1; stroke: #4169e1"/>
    </g>
   </g>
   <g id="PathCollection_2">
    <defs>
     <path id="m4dc7ac05d4" d="M 0 2.5 
C 0.663008 2.5 1.29895 2.236584 1.767767 1.767767 
C 2.236584 1.29895 2.5 0.663008 2.5 0 
C 2.5 -0.663008 2.236584 -1.29895 1.767767 -1.767767 
C 1.29895 -2.236584 0.663008 -2.5 0 -2.5 
C -0.663008 -2.5 -1.29895 -2.236584 -1.767767 -1.767767 
C -2.236584 -1.29895 -2.5 -0.663008 -2.5 0 
C -2.5 0.663008 -2.236584 1.29895 -1.767767 1.767767 
C -1.29895 2.236584 -0.663008 2.5 0 2.5 
z
" style="stroke: #b22222"/>
    </defs>
    <g clip-path="url(#p206f9d9b56)">
     <use xlink:href="#m4dc7ac05d4" x="284.308358" y="209.060339" style="fill: #b22222; stroke: #b22222"/>
     <use xlink:href="#m4dc7ac05d4" x="329.243411" y="218.966219" style="fill: #b22222; stroke: #b22222"/>
     <use xlink:href="#m4dc7ac05d4" x="287.090156" y="232.869382" style="fill: #b22222; stroke: #b22222"/>
     <use xlink:href="#m4dc7ac05d4" x="306.05417" y="230.520446" style="fill: #b22222; stroke: #b22222"/>
     <use xlink:href="#m4dc7ac05d4" x="273.993572" y="231.005848" style="fill: #b22222; stroke: #b22222"/>
     <use xlink:href="#m4dc7ac05d4" x="314.510237" y="247.49507" style="fill: #b22222; stroke: #b22222"/>
     <use xlink:href="#m4dc7ac05d4" x="270.783485" y="237.683258" style="fill: #b22222; stroke: #b22222"/>
     <use xlink:href="#m4dc7ac05d4" x="269.809859" y="221.602767" style="fill: #b22222; stroke: #b22222"/>
     <use xlink:href="#m4dc7ac05d4" x="299.287222" y="217.924511" style="fill: #b22222; stroke: #b22222"/>
     <use xlink:href="#m4dc7ac05d4" x="294.946573" y="179.145441" style="fill: #b22222; stroke: #b22222"/>
     <use xlink:href="#m4dc7ac05d4" x="290.410351" y="246.63091" style="fill: #b22222; stroke: #b22222"/>
     <use xlink:href="#m4dc7ac05d4" x="316.2843" y="174.410711" style="fill: #b22222; stroke: #b22222"/>
     <use xlink:href="#m4dc7ac05d4" x="266.187516" y="229.037698" style="fill: #b22222; stroke: #b22222"/>
     <use xlink:href="#m4dc7ac05d4" x="282.280627" y="243.640071" style="fill: #b22222; stroke: #b22222"/>
     <use xlink:href="#m4dc7ac05d4" x="272.463961" y="226.319602" style="fill: #b22222; stroke: #b22222"/>
     <use xlink:href="#m4dc7ac05d4" x="277.318151" y="230.721333" style="fill: #b22222; stroke: #b22222"/>
     <use xlink:href="#m4dc7ac05d4" x="283.612386" y="206.520403" style="fill: #b22222; stroke: #b22222"/>
     <use xlink:href="#m4dc7ac05d4" x="278.833133" y="211.672826" style="fill: #b22222; stroke: #b22222"/>
     <use xlink:href="#m4dc7ac05d4" x="272.974517" y="229.094414" style="fill: #b22222; stroke: #b22222"/>
     <use xlink:href="#m4dc7ac05d4" x="278.211018" y="243.362474" style="fill: #b22222; stroke: #b22222"/>
     <use xlink:href="#m4dc7ac05d4" x="271.984308" y="234.053299" style="fill: #b22222; stroke: #b22222"/>
     <use xlink:href="#m4dc7ac05d4" x="288.569412" y="228.37783" style="fill: #b22222; stroke: #b22222"/>
     <use xlink:href="#m4dc7ac05d4" x="301.884581" y="192.356024" style="fill: #b22222; stroke: #b22222"/>
     <use xlink:href="#m4dc7ac05d4" x="279.777919" y="244.907519" style="fill: #b22222; stroke: #b22222"/>
     <use xlink:href="#m4dc7ac05d4" x="277.067656" y="204.401041" style="fill: #b22222; stroke: #b22222"/>
     <use xlink:href="#m4dc7ac05d4" x="278.761189" y="229.262384" style="fill: #b22222; stroke: #b22222"/>
     <use xlink:href="#m4dc7ac05d4" x="278.790085" y="228.471762" style="fill: #b22222; stroke: #b22222"/>
     <use xlink:href="#m4dc7ac05d4" x="275.90413" y="243.30061" style="fill: #b22222; stroke: #b22222"/>
     <use xlink:href="#m4dc7ac05d4" x="281.226293" y="222.123013" style="fill: #b22222; stroke: #b22222"/>
     <use xlink:href="#m4dc7ac05d4" x="279.183348" y="211.210989" style="fill: #b22222; stroke: #b22222"/>
     <use xlink:href="#m4dc7ac05d4" x="272.483185" y="229.843865" style="fill: #b22222; stroke: #b22222"/>
     <use xlink:href="#m4dc7ac05d4" x="276.131035" y="238.393303" style="fill: #b22222; stroke: #b22222"/>
     <use xlink:href="#m4dc7ac05d4" x="281.956559" y="201.665696" style="fill: #b22222; stroke: #b22222"/>
     <use xlink:href="#m4dc7ac05d4" x="279.309719" y="229.922733" style="fill: #b22222; stroke: #b22222"/>
     <use xlink:href="#m4dc7ac05d4" x="273.194845" y="229.156918" style="fill: #b22222; stroke: #b22222"/>
     <use xlink:href="#m4dc7ac05d4" x="250.484754" y="236.215011" style="fill: #b22222; stroke: #b22222"/>
     <use xlink:href="#m4dc7ac05d4" x="262.128594" y="242.654602" style="fill: #b22222; stroke: #b22222"/>
     <use xlink:href="#m4dc7ac05d4" x="278.791182" y="206.692" style="fill: #b22222; stroke: #b22222"/>
     <use xlink:href="#m4dc7ac05d4" x="278.92793" y="215.750382" style="fill: #b22222; stroke: #b22222"/>
     <use xlink:href="#m4dc7ac05d4" x="258.393938" y="208.284198" style="fill: #b22222; stroke: #b22222"/>
     <use xlink:href="#m4dc7ac05d4" x="256.557581" y="232.975229" style="fill: #b22222; stroke: #b22222"/>
     <use xlink:href="#m4dc7ac05d4" x="301.131121" y="236.817354" style="fill: #b22222; stroke: #b22222"/>
     <use xlink:href="#m4dc7ac05d4" x="262.011718" y="232.281678" style="fill: #b22222; stroke: #b22222"/>
     <use xlink:href="#m4dc7ac05d4" x="281.348631" y="204.865502" style="fill: #b22222; stroke: #b22222"/>
     <use xlink:href="#m4dc7ac05d4" x="326.000228" y="255.151854" style="fill: #b22222; stroke: #b22222"/>
     <use xlink:href="#m4dc7ac05d4" x="275.573009" y="233.238373" style="fill: #b22222; stroke: #b22222"/>
     <use xlink:href="#m4dc7ac05d4" x="302.670339" y="237.375879" style="fill: #b22222; stroke: #b22222"/>
     <use xlink:href="#m4dc7ac05d4" x="293.408722" y="178.960236" style="fill: #b22222; stroke: #b22222"/>
     <use xlink:href="#m4dc7ac05d4" x="263.474465" y="237.724234" style="fill: #b22222; stroke: #b22222"/>
     <use xlink:href="#m4dc7ac05d4" x="275.485037" y="190.139077" style="fill: #b22222; stroke: #b22222"/>
     <use xlink:href="#m4dc7ac05d4" x="269.258859" y="226.660735" style="fill: #b22222; stroke: #b22222"/>
     <use xlink:href="#m4dc7ac05d4" x="291.632077" y="231.886529" style="fill: #b22222; stroke: #b22222"/>
     <use xlink:href="#m4dc7ac05d4" x="272.078242" y="230.264378" style="fill: #b22222; stroke: #b22222"/>
     <use xlink:href="#m4dc7ac05d4" x="272.780604" y="232.067088" style="fill: #b22222; stroke: #b22222"/>
     <use xlink:href="#m4dc7ac05d4" x="278.246265" y="232.966132" style="fill: #b22222; stroke: #b22222"/>
     <use xlink:href="#m4dc7ac05d4" x="299.019429" y="232.541045" style="fill: #b22222; stroke: #b22222"/>
     <use xlink:href="#m4dc7ac05d4" x="281.421217" y="192.578782" style="fill: #b22222; stroke: #b22222"/>
     <use xlink:href="#m4dc7ac05d4" x="299.962384" y="225.857955" style="fill: #b22222; stroke: #b22222"/>
     <use xlink:href="#m4dc7ac05d4" x="289.287391" y="223.506591" style="fill: #b22222; stroke: #b22222"/>
     <use xlink:href="#m4dc7ac05d4" x="272.737234" y="231.707911" style="fill: #b22222; stroke: #b22222"/>
    </g>
   </g>
   <g id="patch_4">
    <path d="M 56.450156 450.72 
L 56.450156 7.2 
" style="fill: none; stroke: #ffffff; stroke-width: 1.25; stroke-linejoin: miter; stroke-linecap: square"/>
   </g>
   <g id="patch_5">
    <path d="M 499.970156 450.72 
L 499.970156 7.2 
" style="fill: none; stroke: #ffffff; stroke-width: 1.25; stroke-linejoin: miter; stroke-linecap: square"/>
   </g>
   <g id="patch_6">
    <path d="M 56.450156 450.72 
L 499.970156 450.72 
" style="fill: none; stroke: #ffffff; stroke-width: 1.25; stroke-linejoin: miter; stroke-linecap: square"/>
   </g>
   <g id="patch_7">
    <path d="M 56.450156 7.2 
L 499.970156 7.2 
" style="fill: none; stroke: #ffffff; stroke-width: 1.25; stroke-linejoin: miter; stroke-linecap: square"/>
   </g>
   <g id="text_13">
    <!-- t = 4200 -->
    <g style="fill: #262626" transform="translate(65.320556 24.659775) scale(0.12 -0.12)">
     <defs>
      <path id="ArialMT-74" d="M 1650 503 
L 1731 6 
Q 1494 -44 1306 -44 
Q 1000 -44 831 53 
Q 663 150 594 308 
Q 525 466 525 972 
L 525 2881 
L 113 2881 
L 113 3319 
L 525 3319 
L 525 4141 
L 1084 4478 
L 1084 3319 
L 1650 3319 
L 1650 2881 
L 1084 2881 
L 1084 941 
Q 1084 700 1114 631 
Q 1144 563 1211 522 
Q 1278 481 1403 481 
Q 1497 481 1650 503 
z
" transform="scale(0.015625)"/>
      <path id="ArialMT-20" transform="scale(0.015625)"/>
      <path id="ArialMT-3d" d="M 3381 2694 
L 356 2694 
L 356 3219 
L 3381 3219 
L 3381 2694 
z
M 3381 1303 
L 356 1303 
L 356 1828 
L 3381 1828 
L 3381 1303 
z
" transform="scale(0.015625)"/>
     </defs>
     <use xlink:href="#ArialMT-74"/>
     <use xlink:href="#ArialMT-20" x="27.783203"/>
     <use xlink:href="#ArialMT-3d" x="55.566406"/>
     <use xlink:href="#ArialMT-20" x="113.964844"/>
     <use xlink:href="#ArialMT-34" x="141.748047"/>
     <use xlink:href="#ArialMT-32" x="197.363281"/>
     <use xlink:href="#ArialMT-30" x="252.978516"/>
     <use xlink:href="#ArialMT-30" x="308.59375"/>
    </g>
   </g>
   <g id="legend_1">
    <g id="patch_8">
     <path d="M 328.111406 94.59 
L 483.170156 94.59 
Q 487.970156 94.59 487.970156 89.79 
L 487.970156 24 
Q 487.970156 19.2 483.170156 19.2 
L 328.111406 19.2 
Q 323.311406 19.2 323.311406 24 
L 323.311406 89.79 
Q 323.311406 94.59 328.111406 94.59 
z
" style="fill: #eaeaf2; opacity: 0.8; stroke: #cccccc; stroke-linejoin: miter"/>
    </g>
    <g id="PathCollection_3">
     <g>
      <use xlink:href="#m1b104012ec" x="356.911406" y="39.97125" style="fill: #4169e1; stroke: #4169e1"/>
     </g>
    </g>
    <g id="text_14">
     <!-- Sheep -->
     <g style="fill: #262626" transform="translate(400.111406 46.27125) scale(0.24 -0.24)">
      <defs>
       <path id="ArialMT-53" d="M 288 1472 
L 859 1522 
Q 900 1178 1048 958 
Q 1197 738 1509 602 
Q 1822 466 2213 466 
Q 2559 466 2825 569 
Q 3091 672 3220 851 
Q 3350 1031 3350 1244 
Q 3350 1459 3225 1620 
Q 3100 1781 2813 1891 
Q 2628 1963 1997 2114 
Q 1366 2266 1113 2400 
Q 784 2572 623 2826 
Q 463 3081 463 3397 
Q 463 3744 659 4045 
Q 856 4347 1234 4503 
Q 1613 4659 2075 4659 
Q 2584 4659 2973 4495 
Q 3363 4331 3572 4012 
Q 3781 3694 3797 3291 
L 3216 3247 
Q 3169 3681 2898 3903 
Q 2628 4125 2100 4125 
Q 1550 4125 1298 3923 
Q 1047 3722 1047 3438 
Q 1047 3191 1225 3031 
Q 1400 2872 2139 2705 
Q 2878 2538 3153 2413 
Q 3553 2228 3743 1945 
Q 3934 1663 3934 1294 
Q 3934 928 3725 604 
Q 3516 281 3123 101 
Q 2731 -78 2241 -78 
Q 1619 -78 1198 103 
Q 778 284 539 648 
Q 300 1013 288 1472 
z
" transform="scale(0.015625)"/>
       <path id="ArialMT-68" d="M 422 0 
L 422 4581 
L 984 4581 
L 984 2938 
Q 1378 3394 1978 3394 
Q 2347 3394 2619 3248 
Q 2891 3103 3008 2847 
Q 3125 2591 3125 2103 
L 3125 0 
L 2563 0 
L 2563 2103 
Q 2563 2525 2380 2717 
Q 2197 2909 1863 2909 
Q 1613 2909 1392 2779 
Q 1172 2650 1078 2428 
Q 984 2206 984 1816 
L 984 0 
L 422 0 
z
" transform="scale(0.015625)"/>
       <path id="ArialMT-65" d="M 2694 1069 
L 3275 997 
Q 3138 488 2766 206 
Q 2394 -75 1816 -75 
Q 1088 -75 661 373 
Q 234 822 234 1631 
Q 234 2469 665 2931 
Q 1097 3394 1784 3394 
Q 2450 3394 2872 2941 
Q 3294 2488 3294 1666 
Q 3294 1616 3291 1516 
L 816 1516 
Q 847 969 1125 678 
Q 1403 388 1819 388 
Q 2128 388 2347 550 
Q 2566 713 2694 1069 
z
M 847 1978 
L 2700 1978 
Q 2663 2397 2488 2606 
Q 2219 2931 1791 2931 
Q 1403 2931 1139 2672 
Q 875 2413 847 1978 
z
" transform="scale(0.015625)"/>
       <path id="ArialMT-70" d="M 422 -1272 
L 422 3319 
L 934 3319 
L 934 2888 
Q 1116 3141 1344 3267 
Q 1572 3394 1897 3394 
Q 2322 3394 2647 3175 
Q 2972 2956 3137 2557 
Q 3303 2159 3303 1684 
Q 3303 1175 3120 767 
Q 2938 359 2589 142 
Q 2241 -75 1856 -75 
Q 1575 -75 1351 44 
Q 1128 163 984 344 
L 984 -1272 
L 422 -1272 
z
M 931 1641 
Q 931 1000 1190 694 
Q 1450 388 1819 388 
Q 2194 388 2461 705 
Q 2728 1022 2728 1688 
Q 2728 2322 2467 2637 
Q 2206 2953 1844 2953 
Q 1484 2953 1207 2617 
Q 931 2281 931 1641 
z
" transform="scale(0.015625)"/>
      </defs>
      <use xlink:href="#ArialMT-53"/>
      <use xlink:href="#ArialMT-68" x="66.699219"/>
      <use xlink:href="#ArialMT-65" x="122.314453"/>
      <use xlink:href="#ArialMT-65" x="177.929688"/>
      <use xlink:href="#ArialMT-70" x="233.544922"/>
     </g>
    </g>
    <g id="PathCollection_4">
     <g>
      <use xlink:href="#m4dc7ac05d4" x="356.911406" y="73.92" style="fill: #b22222; stroke: #b22222"/>
     </g>
    </g>
    <g id="text_15">
     <!-- Wolves -->
     <g style="fill: #262626" transform="translate(400.111406 80.22) scale(0.24 -0.24)">
      <defs>
       <path id="ArialMT-57" d="M 1294 0 
L 78 4581 
L 700 4581 
L 1397 1578 
Q 1509 1106 1591 641 
Q 1766 1375 1797 1488 
L 2669 4581 
L 3400 4581 
L 4056 2263 
Q 4303 1400 4413 641 
Q 4500 1075 4641 1638 
L 5359 4581 
L 5969 4581 
L 4713 0 
L 4128 0 
L 3163 3491 
Q 3041 3928 3019 4028 
Q 2947 3713 2884 3491 
L 1913 0 
L 1294 0 
z
" transform="scale(0.015625)"/>
       <path id="ArialMT-6f" d="M 213 1659 
Q 213 2581 725 3025 
Q 1153 3394 1769 3394 
Q 2453 3394 2887 2945 
Q 3322 2497 3322 1706 
Q 3322 1066 3130 698 
Q 2938 331 2570 128 
Q 2203 -75 1769 -75 
Q 1072 -75 642 372 
Q 213 819 213 1659 
z
M 791 1659 
Q 791 1022 1069 705 
Q 1347 388 1769 388 
Q 2188 388 2466 706 
Q 2744 1025 2744 1678 
Q 2744 2294 2464 2611 
Q 2184 2928 1769 2928 
Q 1347 2928 1069 2612 
Q 791 2297 791 1659 
z
" transform="scale(0.015625)"/>
       <path id="ArialMT-6c" d="M 409 0 
L 409 4581 
L 972 4581 
L 972 0 
L 409 0 
z
" transform="scale(0.015625)"/>
       <path id="ArialMT-76" d="M 1344 0 
L 81 3319 
L 675 3319 
L 1388 1331 
Q 1503 1009 1600 663 
Q 1675 925 1809 1294 
L 2547 3319 
L 3125 3319 
L 1869 0 
L 1344 0 
z
" transform="scale(0.015625)"/>
       <path id="ArialMT-73" d="M 197 991 
L 753 1078 
Q 800 744 1014 566 
Q 1228 388 1613 388 
Q 2000 388 2187 545 
Q 2375 703 2375 916 
Q 2375 1106 2209 1216 
Q 2094 1291 1634 1406 
Q 1016 1563 777 1677 
Q 538 1791 414 1992 
Q 291 2194 291 2438 
Q 291 2659 392 2848 
Q 494 3038 669 3163 
Q 800 3259 1026 3326 
Q 1253 3394 1513 3394 
Q 1903 3394 2198 3281 
Q 2494 3169 2634 2976 
Q 2775 2784 2828 2463 
L 2278 2388 
Q 2241 2644 2061 2787 
Q 1881 2931 1553 2931 
Q 1166 2931 1000 2803 
Q 834 2675 834 2503 
Q 834 2394 903 2306 
Q 972 2216 1119 2156 
Q 1203 2125 1616 2013 
Q 2213 1853 2448 1751 
Q 2684 1650 2818 1456 
Q 2953 1263 2953 975 
Q 2953 694 2789 445 
Q 2625 197 2315 61 
Q 2006 -75 1616 -75 
Q 969 -75 630 194 
Q 291 463 197 991 
z
" transform="scale(0.015625)"/>
      </defs>
      <use xlink:href="#ArialMT-57"/>
      <use xlink:href="#ArialMT-6f" x="92.634766"/>
      <use xlink:href="#ArialMT-6c" x="148.25"/>
      <use xlink:href="#ArialMT-76" x="170.466797"/>
      <use xlink:href="#ArialMT-65" x="220.466797"/>
      <use xlink:href="#ArialMT-73" x="276.082031"/>
     </g>
    </g>
   </g>
  </g>
 </g>
 <defs>
  <clipPath id="p206f9d9b56">
   <rect x="56.450156" y="7.2" width="443.52" height="443.52"/>
  </clipPath>
 </defs>
</svg>
