<?xml version="1.0" encoding="utf-8" standalone="no"?>
<!DOCTYPE svg PUBLIC "-//W3C//DTD SVG 1.1//EN"
  "http://www.w3.org/Graphics/SVG/1.1/DTD/svg11.dtd">
<svg xmlns:xlink="http://www.w3.org/1999/xlink" width="507.170156pt" height="492.454219pt" viewBox="0 0 507.170156 492.454219" xmlns="http://www.w3.org/2000/svg" version="1.1">
 <metadata>
  <rdf:RDF xmlns:dc="http://purl.org/dc/elements/1.1/" xmlns:cc="http://creativecommons.org/ns#" xmlns:rdf="http://www.w3.org/1999/02/22-rdf-syntax-ns#">
   <cc:Work>
    <dc:type rdf:resource="http://purl.org/dc/dcmitype/StillImage"/>
    <dc:date>2026-05-12T10:43:20.085151</dc:date>
    <dc:format>image/svg+xml</dc:format>
    <dc:creator>
     <cc:Agent>
      <dc:title>Matplotlib v3.7.1, https://matplotlib.org/</dc:title>
     </cc:Agent>
    </dc:creator>
   </cc:Work>
  </rdf:RDF>
 </metadata>
 <defs>
  <style type="text/css">*{stroke-linejoin: round; stroke-linecap: butt}</style>
 </defs>
 <g id="figure_1">
  <g id="patch_1">
   <path d="M 0 492.454219 
L 507.170156 492.454219 
L 507.170156 0 
L 0 0 
z
" style="fill: #ffffff"/>
  </g>
  <g id="axes_1">
   <g id="patch_2">
    <path d="M 56.450156 450.72 
L 499.970156 450.72 
L 499.970156 7.2 
L 56.450156 7.2 
z
" style="fill: #eaeaf2"/>
   </g>
   <g id="matplotlib.axis_1">
    <g id="xtick_1">
     <g id="line2d_1">
      <path d="M 100.802156 450.72 
L 100.802156 7.2 
" clip-path="url(#p557fda6637)" style="fill: none; stroke: #ffffff; stroke-linecap: round"/>
     </g>
     <g id="text_1">
      <!-- −400 -->
      <g style="fill: #262626" transform="translate(88.414266 468.093594) scale(0.11 -0.11)">
       <defs>
        <path id="ArialMT-2212" d="M 3381 1997 
L 356 1997 
L 356 2522 
L 3381 2522 
L 3381 1997 
z
" transform="scale(0.015625)"/>
        <path id="ArialMT-34" d="M 2069 0 
L 2069 1097 
L 81 1097 
L 81 1613 
L 2172 4581 
L 2631 4581 
L 2631 1613 
L 3250 1613 
L 3250 1097 
L 2631 1097 
L 2631 0 
L 2069 0 
z
M 2069 1613 
L 2069 3678 
L 634 1613 
L 2069 1613 
z
" transform="scale(0.015625)"/>
        <path id="ArialMT-30" d="M 266 2259 
Q 266 3072 433 3567 
Q 600 4063 929 4331 
Q 1259 4600 1759 4600 
Q 2128 4600 2406 4451 
Q 2684 4303 2865 4023 
Q 3047 3744 3150 3342 
Q 3253 2941 3253 2259 
Q 3253 1453 3087 958 
Q 2922 463 2592 192 
Q 2263 -78 1759 -78 
Q 1097 -78 719 397 
Q 266 969 266 2259 
z
M 844 2259 
Q 844 1131 1108 757 
Q 1372 384 1759 384 
Q 2147 384 2411 759 
Q 2675 1134 2675 2259 
Q 2675 3391 2411 3762 
Q 2147 4134 1753 4134 
Q 1366 4134 1134 3806 
Q 844 3388 844 2259 
z
" transform="scale(0.015625)"/>
       </defs>
       <use xlink:href="#ArialMT-2212"/>
       <use xlink:href="#ArialMT-34" x="58.398438"/>
       <use xlink:href="#ArialMT-30" x="114.013672"/>
       <use xlink:href="#ArialMT-30" x="169.628906"/>
      </g>
     </g>
    </g>
    <g id="xtick_2">
     <g id="line2d_2">
      <path d="M 189.506156 450.72 
L 189.506156 7.2 
" clip-path="url(#p557fda6637)" style="fill: none; stroke: #ffffff; stroke-linecap: round"/>
     </g>
     <g id="text_2">
      <!-- −200 -->
      <g style="fill: #262626" transform="translate(177.118266 468.093594) scale(0.11 -0.11)">
       <defs>
        <path id="ArialMT-32" d="M 3222 541 
L 3222 0 
L 194 0 
Q 188 203 259 391 
Q 375 700 629 1000 
Q 884 1300 1366 1694 
Q 2113 2306 2375 2664 
Q 2638 3022 2638 3341 
Q 2638 3675 2398 3904 
Q 2159 4134 1775 4134 
Q 1369 4134 1125 3890 
Q 881 3647 878 3216 
L 300 3275 
Q 359 3922 746 4261 
Q 1134 4600 1788 4600 
Q 2447 4600 2831 4234 
Q 3216 3869 3216 3328 
Q 3216 3053 3103 2787 
Q 2991 2522 2730 2228 
Q 2469 1934 1863 1422 
Q 1356 997 1212 845 
Q 1069 694 975 541 
L 3222 541 
z
" transform="scale(0.015625)"/>
       </defs>
       <use xlink:href="#ArialMT-2212"/>
       <use xlink:href="#ArialMT-32" x="58.398438"/>
       <use xlink:href="#ArialMT-30" x="114.013672"/>
       <use xlink:href="#ArialMT-30" x="169.628906"/>
      </g>
     </g>
    </g>
    <g id="xtick_3">
     <g id="line2d_3">
      <path d="M 278.210156 450.72 
L 278.210156 7.2 
" clip-path="url(#p557fda6637)" style="fill: none; stroke: #ffffff; stroke-linecap: round"/>
     </g>
     <g id="text_3">
      <!-- 0 -->
      <g style="fill: #262626" transform="translate(275.151641 468.093594) scale(0.11 -0.11)">
       <use xlink:href="#ArialMT-30"/>
      </g>
     </g>
    </g>
    <g id="xtick_4">
     <g id="line2d_4">
      <path d="M 366.914156 450.72 
L 366.914156 7.2 
" clip-path="url(#p557fda6637)" style="fill: none; stroke: #ffffff; stroke-linecap: round"/>
     </g>
     <g id="text_4">
      <!-- 200 -->
      <g style="fill: #262626" transform="translate(357.738609 468.093594) scale(0.11 -0.11)">
       <use xlink:href="#ArialMT-32"/>
       <use xlink:href="#ArialMT-30" x="55.615234"/>
       <use xlink:href="#ArialMT-30" x="111.230469"/>
      </g>
     </g>
    </g>
    <g id="xtick_5">
     <g id="line2d_5">
      <path d="M 455.618156 450.72 
L 455.618156 7.2 
" clip-path="url(#p557fda6637)" style="fill: none; stroke: #ffffff; stroke-linecap: round"/>
     </g>
     <g id="text_5">
      <!-- 400 -->
      <g style="fill: #262626" transform="translate(446.442609 468.093594) scale(0.11 -0.11)">
       <use xlink:href="#ArialMT-34"/>
       <use xlink:href="#ArialMT-30" x="55.615234"/>
       <use xlink:href="#ArialMT-30" x="111.230469"/>
      </g>
     </g>
    </g>
    <g id="text_6">
     <!-- x -->
     <g style="fill: #262626" transform="translate(275.210156 482.869219) scale(0.12 -0.12)">
      <defs>
       <path id="ArialMT-78" d="M 47 0 
L 1259 1725 
L 138 3319 
L 841 3319 
L 1350 2541 
Q 1494 2319 1581 2169 
Q 1719 2375 1834 2534 
L 2394 3319 
L 3066 3319 
L 1919 1756 
L 3153 0 
L 2463 0 
L 1781 1031 
L 1600 1309 
L 728 0 
L 47 0 
z
" transform="scale(0.015625)"/>
      </defs>
      <use xlink:href="#ArialMT-78"/>
     </g>
    </g>
   </g>
   <g id="matplotlib.axis_2">
    <g id="ytick_1">
     <g id="line2d_6">
      <path d="M 56.450156 406.368 
L 499.970156 406.368 
" clip-path="url(#p557fda6637)" style="fill: none; stroke: #ffffff; stroke-linecap: round"/>
     </g>
     <g id="text_7">
      <!-- −400 -->
      <g style="fill: #262626" transform="translate(22.174375 410.304797) scale(0.11 -0.11)">
       <use xlink:href="#ArialMT-2212"/>
       <use xlink:href="#ArialMT-34" x="58.398438"/>
       <use xlink:href="#ArialMT-30" x="114.013672"/>
       <use xlink:href="#ArialMT-30" x="169.628906"/>
      </g>
     </g>
    </g>
    <g id="ytick_2">
     <g id="line2d_7">
      <path d="M 56.450156 317.664 
L 499.970156 317.664 
" clip-path="url(#p557fda6637)" style="fill: none; stroke: #ffffff; stroke-linecap: round"/>
     </g>
     <g id="text_8">
      <!-- −200 -->
      <g style="fill: #262626" transform="translate(22.174375 321.600797) scale(0.11 -0.11)">
       <use xlink:href="#ArialMT-2212"/>
       <use xlink:href="#ArialMT-32" x="58.398438"/>
       <use xlink:href="#ArialMT-30" x="114.013672"/>
       <use xlink:href="#ArialMT-30" x="169.628906"/>
      </g>
     </g>
    </g>
    <g id="ytick_3">
     <g id="line2d_8">
      <path d="M 56.450156 228.96 
L 499.970156 228.96 
" clip-path="url(#p557fda6637)" style="fill: none; stroke: #ffffff; stroke-linecap: round"/>
     </g>
     <g id="text_9">
      <!-- 0 -->
      <g style="fill: #262626" transform="translate(40.833125 232.896797) scale(0.11 -0.11)">
       <use xlink:href="#ArialMT-30"/>
      </g>
     </g>
    </g>
    <g id="ytick_4">
     <g id="line2d_9">
      <path d="M 56.450156 140.256 
L 499.970156 140.256 
" clip-path="url(#p557fda6637)" style="fill: none; stroke: #ffffff; stroke-linecap: round"/>
     </g>
     <g id="text_10">
      <!-- 200 -->
      <g style="fill: #262626" transform="translate(28.599063 144.192797) scale(0.11 -0.11)">
       <use xlink:href="#ArialMT-32"/>
       <use xlink:href="#ArialMT-30" x="55.615234"/>
       <use xlink:href="#ArialMT-30" x="111.230469"/>
      </g>
     </g>
    </g>
    <g id="ytick_5">
     <g id="line2d_10">
      <path d="M 56.450156 51.552 
L 499.970156 51.552 
" clip-path="url(#p557fda6637)" style="fill: none; stroke: #ffffff; stroke-linecap: round"/>
     </g>
     <g id="text_11">
      <!-- 400 -->
      <g style="fill: #262626" transform="translate(28.599063 55.488797) scale(0.11 -0.11)">
       <use xlink:href="#ArialMT-34"/>
       <use xlink:href="#ArialMT-30" x="55.615234"/>
       <use xlink:href="#ArialMT-30" x="111.230469"/>
      </g>
     </g>
    </g>
    <g id="text_12">
     <!-- y -->
     <g style="fill: #262626" transform="translate(15.64875 231.96) rotate(-90) scale(0.12 -0.12)">
      <defs>
       <path id="ArialMT-79" d="M 397 -1278 
L 334 -750 
Q 519 -800 656 -800 
Q 844 -800 956 -737 
Q 1069 -675 1141 -563 
Q 1194 -478 1313 -144 
Q 1328 -97 1363 -6 
L 103 3319 
L 709 3319 
L 1400 1397 
Q 1534 1031 1641 628 
Q 1738 1016 1872 1384 
L 2581 3319 
L 3144 3319 
L 1881 -56 
Q 1678 -603 1566 -809 
Q 1416 -1088 1222 -1217 
Q 1028 -1347 759 -1347 
Q 597 -1347 397 -1278 
z
" transform="scale(0.015625)"/>
      </defs>
      <use xlink:href="#ArialMT-79"/>
     </g>
    </g>
   </g>
   <g id="patch_3">
    <path d="M 278.210156 317.664 
C 301.734732 317.664 324.298969 308.317587 340.933356 291.6832 
C 357.567743 275.048813 366.914156 252.484576 366.914156 228.96 
C 366.914156 205.435424 357.567743 182.871187 340.933356 166.2368 
C 324.298969 149.602413 301.734732 140.256 278.210156 140.256 
C 254.68558 140.256 232.121343 149.602413 215.486956 166.2368 
C 198.852569 182.871187 189.506156 205.435424 189.506156 228.96 
C 189.506156 252.484576 198.852569 275.048813 215.486956 291.6832 
C 232.121343 308.317587 254.68558 317.664 278.210156 317.664 
z
" clip-path="url(#p557fda6637)" style="fill: #228b22; opacity: 0.12; stroke: #228b22; stroke-width: 1.5; stroke-linejoin: miter"/>
   </g>
   <g id="PathCollection_1">
    <defs>
     <path id="mf4168f5446" d="M 0 2.236068 
C 0.593012 2.236068 1.161816 2.000462 1.581139 1.581139 
C 2.000462 1.161816 2.236068 0.593012 2.236068 0 
C 2.236068 -0.593012 2.000462 -1.161816 1.581139 -1.581139 
C 1.161816 -2.000462 0.593012 -2.236068 0 -2.236068 
C -0.593012 -2.236068 -1.161816 -2.000462 -1.581139 -1.581139 
C -2.000462 -1.161816 -2.236068 -0.593012 -2.236068 0 
C -2.236068 0.593012 -2.000462 1.161816 -1.581139 1.581139 
C -1.161816 2.000462 -0.593012 2.236068 0 2.236068 
z
" style="stroke: #4169e1"/>
    </defs>
    <g clip-path="url(#p557fda6637)">
     <use xlink:href="#mf4168f5446" x="395.785186" y="259.75336" style="fill: #4169e1; stroke: #4169e1"/>
     <use xlink:href="#mf4168f5446" x="381.55814" y="84.130742" style="fill: #4169e1; stroke: #4169e1"/>
     <use xlink:href="#mf4168f5446" x="322.974369" y="158.057221" style="fill: #4169e1; stroke: #4169e1"/>
     <use xlink:href="#mf4168f5446" x="266.86109" y="262.247771" style="fill: #4169e1; stroke: #4169e1"/>
     <use xlink:href="#mf4168f5446" x="332.613214" y="135.740834" style="fill: #4169e1; stroke: #4169e1"/>
     <use xlink:href="#mf4168f5446" x="253.26283" y="198.160454" style="fill: #4169e1; stroke: #4169e1"/>
     <use xlink:href="#mf4168f5446" x="340.166853" y="304.658637" style="fill: #4169e1; stroke: #4169e1"/>
     <use xlink:href="#mf4168f5446" x="404.485923" y="156.867156" style="fill: #4169e1; stroke: #4169e1"/>
     <use xlink:href="#mf4168f5446" x="403.654025" y="53.437799" style="fill: #4169e1; stroke: #4169e1"/>
     <use xlink:href="#mf4168f5446" x="382.145173" y="160.931641" style="fill: #4169e1; stroke: #4169e1"/>
     <use xlink:href="#mf4168f5446" x="231.837121" y="265.644077" style="fill: #4169e1; stroke: #4169e1"/>
     <use xlink:href="#mf4168f5446" x="314.033343" y="132.159676" style="fill: #4169e1; stroke: #4169e1"/>
     <use xlink:href="#mf4168f5446" x="307.011196" y="133.575236" style="fill: #4169e1; stroke: #4169e1"/>
     <use xlink:href="#mf4168f5446" x="334.240421" y="140.504749" style="fill: #4169e1; stroke: #4169e1"/>
     <use xlink:href="#mf4168f5446" x="347.104426" y="245.897248" style="fill: #4169e1; stroke: #4169e1"/>
     <use xlink:href="#mf4168f5446" x="280.522923" y="344.662089" style="fill: #4169e1; stroke: #4169e1"/>
     <use xlink:href="#mf4168f5446" x="391.675107" y="317.004175" style="fill: #4169e1; stroke: #4169e1"/>
     <use xlink:href="#mf4168f5446" x="351.833123" y="195.806978" style="fill: #4169e1; stroke: #4169e1"/>
     <use xlink:href="#mf4168f5446" x="459.419627" y="158.027931" style="fill: #4169e1; stroke: #4169e1"/>
     <use xlink:href="#mf4168f5446" x="271.757464" y="162.755294" style="fill: #4169e1; stroke: #4169e1"/>
     <use xlink:href="#mf4168f5446" x="310.094447" y="336.530864" style="fill: #4169e1; stroke: #4169e1"/>
     <use xlink:href="#mf4168f5446" x="303.748935" y="191.285505" style="fill: #4169e1; stroke: #4169e1"/>
     <use xlink:href="#mf4168f5446" x="481.134917" y="173.865519" style="fill: #4169e1; stroke: #4169e1"/>
     <use xlink:href="#mf4168f5446" x="390.551141" y="115.876111" style="fill: #4169e1; stroke: #4169e1"/>
     <use xlink:href="#mf4168f5446" x="327.970987" y="97.125385" style="fill: #4169e1; stroke: #4169e1"/>
     <use xlink:href="#mf4168f5446" x="465.555776" y="142.706567" style="fill: #4169e1; stroke: #4169e1"/>
     <use xlink:href="#mf4168f5446" x="320.242741" y="253.897725" style="fill: #4169e1; stroke: #4169e1"/>
     <use xlink:href="#mf4168f5446" x="477.626374" y="119.140534" style="fill: #4169e1; stroke: #4169e1"/>
     <use xlink:href="#mf4168f5446" x="296.24908" y="304.364795" style="fill: #4169e1; stroke: #4169e1"/>
     <use xlink:href="#mf4168f5446" x="315.508377" y="258.724093" style="fill: #4169e1; stroke: #4169e1"/>
     <use xlink:href="#mf4168f5446" x="384.679211" y="202.210818" style="fill: #4169e1; stroke: #4169e1"/>
     <use xlink:href="#mf4168f5446" x="360.270215" y="266.019332" style="fill: #4169e1; stroke: #4169e1"/>
     <use xlink:href="#mf4168f5446" x="432.814071" y="181.058486" style="fill: #4169e1; stroke: #4169e1"/>
     <use xlink:href="#mf4168f5446" x="423.644679" y="221.621898" style="fill: #4169e1; stroke: #4169e1"/>
     <use xlink:href="#mf4168f5446" x="364.55487" y="262.079238" style="fill: #4169e1; stroke: #4169e1"/>
     <use xlink:href="#mf4168f5446" x="353.864533" y="143.449106" style="fill: #4169e1; stroke: #4169e1"/>
     <use xlink:href="#mf4168f5446" x="248.080259" y="202.134225" style="fill: #4169e1; stroke: #4169e1"/>
     <use xlink:href="#mf4168f5446" x="276.798942" y="263.764839" style="fill: #4169e1; stroke: #4169e1"/>
     <use xlink:href="#mf4168f5446" x="383.597793" y="79.660405" style="fill: #4169e1; stroke: #4169e1"/>
     <use xlink:href="#mf4168f5446" x="243.719083" y="209.544155" style="fill: #4169e1; stroke: #4169e1"/>
     <use xlink:href="#mf4168f5446" x="457.73519" y="244.55314" style="fill: #4169e1; stroke: #4169e1"/>
     <use xlink:href="#mf4168f5446" x="357.362302" y="236.673049" style="fill: #4169e1; stroke: #4169e1"/>
     <use xlink:href="#mf4168f5446" x="377.195292" y="290.001037" style="fill: #4169e1; stroke: #4169e1"/>
     <use xlink:href="#mf4168f5446" x="459.546641" y="263.836007" style="fill: #4169e1; stroke: #4169e1"/>
     <use xlink:href="#mf4168f5446" x="335.66416" y="268.560294" style="fill: #4169e1; stroke: #4169e1"/>
     <use xlink:href="#mf4168f5446" x="455.680053" y="290.171986" style="fill: #4169e1; stroke: #4169e1"/>
     <use xlink:href="#mf4168f5446" x="247.8371" y="295.682175" style="fill: #4169e1; stroke: #4169e1"/>
     <use xlink:href="#mf4168f5446" x="343.64524" y="100.462749" style="fill: #4169e1; stroke: #4169e1"/>
     <use xlink:href="#mf4168f5446" x="454.262529" y="160.916766" style="fill: #4169e1; stroke: #4169e1"/>
     <use xlink:href="#mf4168f5446" x="288.564813" y="168.435194" style="fill: #4169e1; stroke: #4169e1"/>
     <use xlink:href="#mf4168f5446" x="305.894122" y="53.8389" style="fill: #4169e1; stroke: #4169e1"/>
     <use xlink:href="#mf4168f5446" x="257.943317" y="268.756872" style="fill: #4169e1; stroke: #4169e1"/>
     <use xlink:href="#mf4168f5446" x="405.232508" y="221.738623" style="fill: #4169e1; stroke: #4169e1"/>
     <use xlink:href="#mf4168f5446" x="499.970156" y="172.82052" style="fill: #4169e1; stroke: #4169e1"/>
     <use xlink:href="#mf4168f5446" x="387.174654" y="170.414277" style="fill: #4169e1; stroke: #4169e1"/>
     <use xlink:href="#mf4168f5446" x="323.674946" y="320.330202" style="fill: #4169e1; stroke: #4169e1"/>
     <use xlink:href="#mf4168f5446" x="298.713988" y="169.208775" style="fill: #4169e1; stroke: #4169e1"/>
     <use xlink:href="#mf4168f5446" x="294.74159" y="146.069952" style="fill: #4169e1; stroke: #4169e1"/>
     <use xlink:href="#mf4168f5446" x="259.309896" y="250.771167" style="fill: #4169e1; stroke: #4169e1"/>
     <use xlink:href="#mf4168f5446" x="499.970156" y="217.95418" style="fill: #4169e1; stroke: #4169e1"/>
     <use xlink:href="#mf4168f5446" x="364.371462" y="207.634463" style="fill: #4169e1; stroke: #4169e1"/>
     <use xlink:href="#mf4168f5446" x="499.970156" y="216.879239" style="fill: #4169e1; stroke: #4169e1"/>
     <use xlink:href="#mf4168f5446" x="467.634803" y="166.997483" style="fill: #4169e1; stroke: #4169e1"/>
     <use xlink:href="#mf4168f5446" x="380.811073" y="60.877587" style="fill: #4169e1; stroke: #4169e1"/>
     <use xlink:href="#mf4168f5446" x="442.338287" y="280.511032" style="fill: #4169e1; stroke: #4169e1"/>
     <use xlink:href="#mf4168f5446" x="382.895921" y="104.875237" style="fill: #4169e1; stroke: #4169e1"/>
     <use xlink:href="#mf4168f5446" x="280.718404" y="144.936511" style="fill: #4169e1; stroke: #4169e1"/>
     <use xlink:href="#mf4168f5446" x="306.203758" y="172.023377" style="fill: #4169e1; stroke: #4169e1"/>
     <use xlink:href="#mf4168f5446" x="366.358768" y="114.316699" style="fill: #4169e1; stroke: #4169e1"/>
     <use xlink:href="#mf4168f5446" x="283.834719" y="302.88635" style="fill: #4169e1; stroke: #4169e1"/>
     <use xlink:href="#mf4168f5446" x="282.581418" y="163.643383" style="fill: #4169e1; stroke: #4169e1"/>
     <use xlink:href="#mf4168f5446" x="439.528158" y="288.907166" style="fill: #4169e1; stroke: #4169e1"/>
     <use xlink:href="#mf4168f5446" x="295.206296" y="206.24997" style="fill: #4169e1; stroke: #4169e1"/>
     <use xlink:href="#mf4168f5446" x="444.756978" y="119.732223" style="fill: #4169e1; stroke: #4169e1"/>
     <use xlink:href="#mf4168f5446" x="485.709299" y="176.672683" style="fill: #4169e1; stroke: #4169e1"/>
     <use xlink:href="#mf4168f5446" x="330.888978" y="101.529143" style="fill: #4169e1; stroke: #4169e1"/>
     <use xlink:href="#mf4168f5446" x="181.448393" y="210.115354" style="fill: #4169e1; stroke: #4169e1"/>
     <use xlink:href="#mf4168f5446" x="236.275356" y="94.786226" style="fill: #4169e1; stroke: #4169e1"/>
     <use xlink:href="#mf4168f5446" x="383.59717" y="152.859349" style="fill: #4169e1; stroke: #4169e1"/>
     <use xlink:href="#mf4168f5446" x="240.708641" y="191.609361" style="fill: #4169e1; stroke: #4169e1"/>
     <use xlink:href="#mf4168f5446" x="357.713275" y="171.597013" style="fill: #4169e1; stroke: #4169e1"/>
     <use xlink:href="#mf4168f5446" x="185.12444" y="190.122121" style="fill: #4169e1; stroke: #4169e1"/>
     <use xlink:href="#mf4168f5446" x="334.789556" y="169.916921" style="fill: #4169e1; stroke: #4169e1"/>
     <use xlink:href="#mf4168f5446" x="349.047141" y="161.021312" style="fill: #4169e1; stroke: #4169e1"/>
     <use xlink:href="#mf4168f5446" x="371.680237" y="257.827395" style="fill: #4169e1; stroke: #4169e1"/>
     <use xlink:href="#mf4168f5446" x="330.542278" y="179.060576" style="fill: #4169e1; stroke: #4169e1"/>
     <use xlink:href="#mf4168f5446" x="450.548983" y="108.504391" style="fill: #4169e1; stroke: #4169e1"/>
     <use xlink:href="#mf4168f5446" x="339.936519" y="267.498353" style="fill: #4169e1; stroke: #4169e1"/>
     <use xlink:href="#mf4168f5446" x="212.025015" y="125.266803" style="fill: #4169e1; stroke: #4169e1"/>
     <use xlink:href="#mf4168f5446" x="328.61833" y="273.245329" style="fill: #4169e1; stroke: #4169e1"/>
     <use xlink:href="#mf4168f5446" x="224.024798" y="285.452213" style="fill: #4169e1; stroke: #4169e1"/>
     <use xlink:href="#mf4168f5446" x="309.105697" y="96.439248" style="fill: #4169e1; stroke: #4169e1"/>
     <use xlink:href="#mf4168f5446" x="386.157541" y="189.914194" style="fill: #4169e1; stroke: #4169e1"/>
     <use xlink:href="#mf4168f5446" x="290.254764" y="265.869505" style="fill: #4169e1; stroke: #4169e1"/>
     <use xlink:href="#mf4168f5446" x="405.467452" y="176.29691" style="fill: #4169e1; stroke: #4169e1"/>
     <use xlink:href="#mf4168f5446" x="422.505547" y="140.10779" style="fill: #4169e1; stroke: #4169e1"/>
     <use xlink:href="#mf4168f5446" x="316.572636" y="279.917948" style="fill: #4169e1; stroke: #4169e1"/>
     <use xlink:href="#mf4168f5446" x="397.903492" y="122.475522" style="fill: #4169e1; stroke: #4169e1"/>
     <use xlink:href="#mf4168f5446" x="406.209462" y="104.805842" style="fill: #4169e1; stroke: #4169e1"/>
     <use xlink:href="#mf4168f5446" x="413.076429" y="155.859944" style="fill: #4169e1; stroke: #4169e1"/>
     <use xlink:href="#mf4168f5446" x="412.494783" y="191.006752" style="fill: #4169e1; stroke: #4169e1"/>
     <use xlink:href="#mf4168f5446" x="243.049136" y="151.234406" style="fill: #4169e1; stroke: #4169e1"/>
     <use xlink:href="#mf4168f5446" x="411.06344" y="215.683536" style="fill: #4169e1; stroke: #4169e1"/>
     <use xlink:href="#mf4168f5446" x="427.286827" y="135.531269" style="fill: #4169e1; stroke: #4169e1"/>
     <use xlink:href="#mf4168f5446" x="374.721052" y="99.714038" style="fill: #4169e1; stroke: #4169e1"/>
     <use xlink:href="#mf4168f5446" x="253.425603" y="238.073444" style="fill: #4169e1; stroke: #4169e1"/>
     <use xlink:href="#mf4168f5446" x="347.342354" y="206.11147" style="fill: #4169e1; stroke: #4169e1"/>
     <use xlink:href="#mf4168f5446" x="344.025165" y="224.698821" style="fill: #4169e1; stroke: #4169e1"/>
     <use xlink:href="#mf4168f5446" x="214.801766" y="130.419657" style="fill: #4169e1; stroke: #4169e1"/>
     <use xlink:href="#mf4168f5446" x="340.175719" y="265.035472" style="fill: #4169e1; stroke: #4169e1"/>
     <use xlink:href="#mf4168f5446" x="255.977437" y="185.865379" style="fill: #4169e1; stroke: #4169e1"/>
     <use xlink:href="#mf4168f5446" x="432.674862" y="110.746355" style="fill: #4169e1; stroke: #4169e1"/>
     <use xlink:href="#mf4168f5446" x="298.123371" y="78.131501" style="fill: #4169e1; stroke: #4169e1"/>
     <use xlink:href="#mf4168f5446" x="179.850277" y="184.925724" style="fill: #4169e1; stroke: #4169e1"/>
     <use xlink:href="#mf4168f5446" x="221.971396" y="237.801916" style="fill: #4169e1; stroke: #4169e1"/>
     <use xlink:href="#mf4168f5446" x="499.311617" y="167.257128" style="fill: #4169e1; stroke: #4169e1"/>
     <use xlink:href="#mf4168f5446" x="471.717819" y="193.629534" style="fill: #4169e1; stroke: #4169e1"/>
     <use xlink:href="#mf4168f5446" x="209.426577" y="177.727799" style="fill: #4169e1; stroke: #4169e1"/>
     <use xlink:href="#mf4168f5446" x="462.657791" y="233.783917" style="fill: #4169e1; stroke: #4169e1"/>
     <use xlink:href="#mf4168f5446" x="270.825315" y="256.283352" style="fill: #4169e1; stroke: #4169e1"/>
     <use xlink:href="#mf4168f5446" x="394.928113" y="136.123453" style="fill: #4169e1; stroke: #4169e1"/>
     <use xlink:href="#mf4168f5446" x="319.338793" y="217.031604" style="fill: #4169e1; stroke: #4169e1"/>
     <use xlink:href="#mf4168f5446" x="358.792819" y="105.36701" style="fill: #4169e1; stroke: #4169e1"/>
     <use xlink:href="#mf4168f5446" x="379.106185" y="238.010431" style="fill: #4169e1; stroke: #4169e1"/>
     <use xlink:href="#mf4168f5446" x="219.296588" y="177.638816" style="fill: #4169e1; stroke: #4169e1"/>
     <use xlink:href="#mf4168f5446" x="343.443112" y="301.477185" style="fill: #4169e1; stroke: #4169e1"/>
     <use xlink:href="#mf4168f5446" x="291.880035" y="201.050618" style="fill: #4169e1; stroke: #4169e1"/>
     <use xlink:href="#mf4168f5446" x="277.134103" y="137.115512" style="fill: #4169e1; stroke: #4169e1"/>
     <use xlink:href="#mf4168f5446" x="451.320054" y="113.018285" style="fill: #4169e1; stroke: #4169e1"/>
     <use xlink:href="#mf4168f5446" x="345.934657" y="171.831719" style="fill: #4169e1; stroke: #4169e1"/>
     <use xlink:href="#mf4168f5446" x="288.422523" y="149.556967" style="fill: #4169e1; stroke: #4169e1"/>
     <use xlink:href="#mf4168f5446" x="291.471669" y="164.093907" style="fill: #4169e1; stroke: #4169e1"/>
     <use xlink:href="#mf4168f5446" x="272.72327" y="153.030203" style="fill: #4169e1; stroke: #4169e1"/>
     <use xlink:href="#mf4168f5446" x="266.944517" y="218.403671" style="fill: #4169e1; stroke: #4169e1"/>
     <use xlink:href="#mf4168f5446" x="367.711445" y="228.382154" style="fill: #4169e1; stroke: #4169e1"/>
     <use xlink:href="#mf4168f5446" x="255.664616" y="133.59049" style="fill: #4169e1; stroke: #4169e1"/>
     <use xlink:href="#mf4168f5446" x="303.957962" y="237.285398" style="fill: #4169e1; stroke: #4169e1"/>
     <use xlink:href="#mf4168f5446" x="280.923922" y="320.750862" style="fill: #4169e1; stroke: #4169e1"/>
     <use xlink:href="#mf4168f5446" x="294.906372" y="261.282014" style="fill: #4169e1; stroke: #4169e1"/>
     <use xlink:href="#mf4168f5446" x="327.977755" y="246.386229" style="fill: #4169e1; stroke: #4169e1"/>
     <use xlink:href="#mf4168f5446" x="351.729951" y="139.178277" style="fill: #4169e1; stroke: #4169e1"/>
     <use xlink:href="#mf4168f5446" x="473.489855" y="116.399198" style="fill: #4169e1; stroke: #4169e1"/>
     <use xlink:href="#mf4168f5446" x="338.14326" y="255.385087" style="fill: #4169e1; stroke: #4169e1"/>
     <use xlink:href="#mf4168f5446" x="464.204981" y="227.412788" style="fill: #4169e1; stroke: #4169e1"/>
     <use xlink:href="#mf4168f5446" x="304.523173" y="255.953463" style="fill: #4169e1; stroke: #4169e1"/>
     <use xlink:href="#mf4168f5446" x="428.361492" y="56.078183" style="fill: #4169e1; stroke: #4169e1"/>
     <use xlink:href="#mf4168f5446" x="434.478679" y="256.621883" style="fill: #4169e1; stroke: #4169e1"/>
     <use xlink:href="#mf4168f5446" x="301.950717" y="234.581928" style="fill: #4169e1; stroke: #4169e1"/>
     <use xlink:href="#mf4168f5446" x="348.184363" y="235.622335" style="fill: #4169e1; stroke: #4169e1"/>
     <use xlink:href="#mf4168f5446" x="362.855119" y="223.017574" style="fill: #4169e1; stroke: #4169e1"/>
     <use xlink:href="#mf4168f5446" x="222.80884" y="311.93668" style="fill: #4169e1; stroke: #4169e1"/>
     <use xlink:href="#mf4168f5446" x="307.775458" y="117.125548" style="fill: #4169e1; stroke: #4169e1"/>
    </g>
   </g>
   <g id="PathCollection_2">
    <defs>
     <path id="m7349e533de" d="M 0 2.5 
C 0.663008 2.5 1.29895 2.236584 1.767767 1.767767 
C 2.236584 1.29895 2.5 0.663008 2.5 0 
C 2.5 -0.663008 2.236584 -1.29895 1.767767 -1.767767 
C 1.29895 -2.236584 0.663008 -2.5 0 -2.5 
C -0.663008 -2.5 -1.29895 -2.236584 -1.767767 -1.767767 
C -2.236584 -1.29895 -2.5 -0.663008 -2.5 0 
C -2.5 0.663008 -2.236584 1.29895 -1.767767 1.767767 
C -1.29895 2.236584 -0.663008 2.5 0 2.5 
z
" style="stroke: #b22222"/>
    </defs>
    <g clip-path="url(#p557fda6637)">
     <use xlink:href="#m7349e533de" x="221.73111" y="219.042855" style="fill: #b22222; stroke: #b22222"/>
     <use xlink:href="#m7349e533de" x="199.561776" y="216.733168" style="fill: #b22222; stroke: #b22222"/>
     <use xlink:href="#m7349e533de" x="206.749106" y="201.075225" style="fill: #b22222; stroke: #b22222"/>
     <use xlink:href="#m7349e533de" x="220.221074" y="219.433742" style="fill: #b22222; stroke: #b22222"/>
     <use xlink:href="#m7349e533de" x="203.00001" y="206.032548" style="fill: #b22222; stroke: #b22222"/>
     <use xlink:href="#m7349e533de" x="241.122623" y="221.643444" style="fill: #b22222; stroke: #b22222"/>
     <use xlink:href="#m7349e533de" x="212.438271" y="211.141485" style="fill: #b22222; stroke: #b22222"/>
     <use xlink:href="#m7349e533de" x="222.540427" y="218.584509" style="fill: #b22222; stroke: #b22222"/>
     <use xlink:href="#m7349e533de" x="204.125018" y="215.272861" style="fill: #b22222; stroke: #b22222"/>
     <use xlink:href="#m7349e533de" x="224.518066" y="221.998068" style="fill: #b22222; stroke: #b22222"/>
     <use xlink:href="#m7349e533de" x="225.368196" y="224.661279" style="fill: #b22222; stroke: #b22222"/>
     <use xlink:href="#m7349e533de" x="208.242596" y="201.676458" style="fill: #b22222; stroke: #b22222"/>
     <use xlink:href="#m7349e533de" x="219.468749" y="236.992887" style="fill: #b22222; stroke: #b22222"/>
     <use xlink:href="#m7349e533de" x="206.694654" y="196.127609" style="fill: #b22222; stroke: #b22222"/>
     <use xlink:href="#m7349e533de" x="228.217624" y="232.09345" style="fill: #b22222; stroke: #b22222"/>
     <use xlink:href="#m7349e533de" x="231.027109" y="222.121472" style="fill: #b22222; stroke: #b22222"/>
     <use xlink:href="#m7349e533de" x="228.734034" y="225.480078" style="fill: #b22222; stroke: #b22222"/>
     <use xlink:href="#m7349e533de" x="232.776718" y="223.704795" style="fill: #b22222; stroke: #b22222"/>
     <use xlink:href="#m7349e533de" x="209.926707" y="213.749592" style="fill: #b22222; stroke: #b22222"/>
     <use xlink:href="#m7349e533de" x="214.546554" y="208.380632" style="fill: #b22222; stroke: #b22222"/>
     <use xlink:href="#m7349e533de" x="224.668509" y="224.128442" style="fill: #b22222; stroke: #b22222"/>
     <use xlink:href="#m7349e533de" x="211.469011" y="200.499942" style="fill: #b22222; stroke: #b22222"/>
     <use xlink:href="#m7349e533de" x="249.689789" y="222.677444" style="fill: #b22222; stroke: #b22222"/>
     <use xlink:href="#m7349e533de" x="237.184106" y="228.630781" style="fill: #b22222; stroke: #b22222"/>
     <use xlink:href="#m7349e533de" x="222.341823" y="223.092875" style="fill: #b22222; stroke: #b22222"/>
     <use xlink:href="#m7349e533de" x="208.893251" y="200.328272" style="fill: #b22222; stroke: #b22222"/>
     <use xlink:href="#m7349e533de" x="232.091246" y="221.865466" style="fill: #b22222; stroke: #b22222"/>
     <use xlink:href="#m7349e533de" x="214.507674" y="191.630205" style="fill: #b22222; stroke: #b22222"/>
     <use xlink:href="#m7349e533de" x="208.81185" y="210.355853" style="fill: #b22222; stroke: #b22222"/>
     <use xlink:href="#m7349e533de" x="211.614" y="215.41241" style="fill: #b22222; stroke: #b22222"/>
     <use xlink:href="#m7349e533de" x="198.945263" y="199.25824" style="fill: #b22222; stroke: #b22222"/>
     <use xlink:href="#m7349e533de" x="220.342964" y="217.633123" style="fill: #b22222; stroke: #b22222"/>
     <use xlink:href="#m7349e533de" x="199.308086" y="207.602748" style="fill: #b22222; stroke: #b22222"/>
     <use xlink:href="#m7349e533de" x="187.240615" y="209.97737" style="fill: #b22222; stroke: #b22222"/>
     <use xlink:href="#m7349e533de" x="222.195904" y="228.246477" style="fill: #b22222; stroke: #b22222"/>
     <use xlink:href="#m7349e533de" x="207.350581" y="223.942776" style="fill: #b22222; stroke: #b22222"/>
     <use xlink:href="#m7349e533de" x="329.498494" y="166.167412" style="fill: #b22222; stroke: #b22222"/>
     <use xlink:href="#m7349e533de" x="301.241321" y="242.252554" style="fill: #b22222; stroke: #b22222"/>
     <use xlink:href="#m7349e533de" x="214.889048" y="209.224" style="fill: #b22222; stroke: #b22222"/>
     <use xlink:href="#m7349e533de" x="272.214961" y="243.748561" style="fill: #b22222; stroke: #b22222"/>
     <use xlink:href="#m7349e533de" x="203.14462" y="224.516703" style="fill: #b22222; stroke: #b22222"/>
     <use xlink:href="#m7349e533de" x="196.42769" y="207.296834" style="fill: #b22222; stroke: #b22222"/>
     <use xlink:href="#m7349e533de" x="226.681377" y="220.111621" style="fill: #b22222; stroke: #b22222"/>
     <use xlink:href="#m7349e533de" x="216.31838" y="222.556831" style="fill: #b22222; stroke: #b22222"/>
     <use xlink:href="#m7349e533de" x="194.715107" y="205.371524" style="fill: #b22222; stroke: #b22222"/>
     <use xlink:href="#m7349e533de" x="200.109692" y="214.964414" style="fill: #b22222; stroke: #b22222"/>
     <use xlink:href="#m7349e533de" x="231.73914" y="227.810341" style="fill: #b22222; stroke: #b22222"/>
     <use xlink:href="#m7349e533de" x="202.292561" y="207.190846" style="fill: #b22222; stroke: #b22222"/>
     <use xlink:href="#m7349e533de" x="237.467891" y="233.111699" style="fill: #b22222; stroke: #b22222"/>
     <use xlink:href="#m7349e533de" x="228.478426" y="221.679193" style="fill: #b22222; stroke: #b22222"/>
     <use xlink:href="#m7349e533de" x="401.643242" y="162.589536" style="fill: #b22222; stroke: #b22222"/>
     <use xlink:href="#m7349e533de" x="194.8814" y="206.254694" style="fill: #b22222; stroke: #b22222"/>
     <use xlink:href="#m7349e533de" x="210.624309" y="208.998357" style="fill: #b22222; stroke: #b22222"/>
     <use xlink:href="#m7349e533de" x="242.359327" y="219.439938" style="fill: #b22222; stroke: #b22222"/>
     <use xlink:href="#m7349e533de" x="212.358813" y="203.984537" style="fill: #b22222; stroke: #b22222"/>
     <use xlink:href="#m7349e533de" x="202.527755" y="209.791674" style="fill: #b22222; stroke: #b22222"/>
     <use xlink:href="#m7349e533de" x="199.853946" y="208.507173" style="fill: #b22222; stroke: #b22222"/>
     <use xlink:href="#m7349e533de" x="221.408811" y="216.84174" style="fill: #b22222; stroke: #b22222"/>
     <use xlink:href="#m7349e533de" x="212.084083" y="221.625059" style="fill: #b22222; stroke: #b22222"/>
     <use xlink:href="#m7349e533de" x="200.190267" y="212.457075" style="fill: #b22222; stroke: #b22222"/>
     <use xlink:href="#m7349e533de" x="207.577742" y="213.278232" style="fill: #b22222; stroke: #b22222"/>
     <use xlink:href="#m7349e533de" x="229.890735" y="231.342784" style="fill: #b22222; stroke: #b22222"/>
     <use xlink:href="#m7349e533de" x="256.006399" y="223.111803" style="fill: #b22222; stroke: #b22222"/>
     <use xlink:href="#m7349e533de" x="231.582785" y="243.979575" style="fill: #b22222; stroke: #b22222"/>
     <use xlink:href="#m7349e533de" x="210.114582" y="198.123662" style="fill: #b22222; stroke: #b22222"/>
     <use xlink:href="#m7349e533de" x="249.542753" y="224.251651" style="fill: #b22222; stroke: #b22222"/>
     <use xlink:href="#m7349e533de" x="219.762367" y="222.922866" style="fill: #b22222; stroke: #b22222"/>
     <use xlink:href="#m7349e533de" x="195.200978" y="221.466656" style="fill: #b22222; stroke: #b22222"/>
     <use xlink:href="#m7349e533de" x="209.87304" y="205.859994" style="fill: #b22222; stroke: #b22222"/>
     <use xlink:href="#m7349e533de" x="210.732848" y="203.839334" style="fill: #b22222; stroke: #b22222"/>
     <use xlink:href="#m7349e533de" x="207.984189" y="200.829081" style="fill: #b22222; stroke: #b22222"/>
     <use xlink:href="#m7349e533de" x="205.18386" y="199.431385" style="fill: #b22222; stroke: #b22222"/>
     <use xlink:href="#m7349e533de" x="197.323859" y="209.374115" style="fill: #b22222; stroke: #b22222"/>
     <use xlink:href="#m7349e533de" x="222.899126" y="223.864264" style="fill: #b22222; stroke: #b22222"/>
     <use xlink:href="#m7349e533de" x="207.371777" y="217.442383" style="fill: #b22222; stroke: #b22222"/>
     <use xlink:href="#m7349e533de" x="216.749062" y="236.415614" style="fill: #b22222; stroke: #b22222"/>
     <use xlink:href="#m7349e533de" x="207.900725" y="211.521789" style="fill: #b22222; stroke: #b22222"/>
     <use xlink:href="#m7349e533de" x="233.110335" y="230.824288" style="fill: #b22222; stroke: #b22222"/>
     <use xlink:href="#m7349e533de" x="235.809296" y="230.427186" style="fill: #b22222; stroke: #b22222"/>
     <use xlink:href="#m7349e533de" x="333.316887" y="253.07328" style="fill: #b22222; stroke: #b22222"/>
     <use xlink:href="#m7349e533de" x="208.415412" y="213.315667" style="fill: #b22222; stroke: #b22222"/>
     <use xlink:href="#m7349e533de" x="217.667964" y="215.261515" style="fill: #b22222; stroke: #b22222"/>
     <use xlink:href="#m7349e533de" x="232.401066" y="233.346824" style="fill: #b22222; stroke: #b22222"/>
     <use xlink:href="#m7349e533de" x="217.499384" y="229.133943" style="fill: #b22222; stroke: #b22222"/>
     <use xlink:href="#m7349e533de" x="212.519272" y="205.867304" style="fill: #b22222; stroke: #b22222"/>
     <use xlink:href="#m7349e533de" x="200.376998" y="215.873975" style="fill: #b22222; stroke: #b22222"/>
     <use xlink:href="#m7349e533de" x="236.741764" y="249.872481" style="fill: #b22222; stroke: #b22222"/>
     <use xlink:href="#m7349e533de" x="218.378973" y="192.994102" style="fill: #b22222; stroke: #b22222"/>
     <use xlink:href="#m7349e533de" x="207.884787" y="192.016931" style="fill: #b22222; stroke: #b22222"/>
     <use xlink:href="#m7349e533de" x="227.531892" y="233.461151" style="fill: #b22222; stroke: #b22222"/>
     <use xlink:href="#m7349e533de" x="217.334295" y="214.86132" style="fill: #b22222; stroke: #b22222"/>
     <use xlink:href="#m7349e533de" x="210.884645" y="214.506316" style="fill: #b22222; stroke: #b22222"/>
     <use xlink:href="#m7349e533de" x="231.927549" y="233.106912" style="fill: #b22222; stroke: #b22222"/>
     <use xlink:href="#m7349e533de" x="208.340042" y="200.067175" style="fill: #b22222; stroke: #b22222"/>
    </g>
   </g>
   <g id="patch_4">
    <path d="M 56.450156 450.72 
L 56.450156 7.2 
" style="fill: none; stroke: #ffffff; stroke-width: 1.25; stroke-linejoin: miter; stroke-linecap: square"/>
   </g>
   <g id="patch_5">
    <path d="M 499.970156 450.72 
L 499.970156 7.2 
" style="fill: none; stroke: #ffffff; stroke-width: 1.25; stroke-linejoin: miter; stroke-linecap: square"/>
   </g>
   <g id="patch_6">
    <path d="M 56.450156 450.72 
L 499.970156 450.72 
" style="fill: none; stroke: #ffffff; stroke-width: 1.25; stroke-linejoin: miter; stroke-linecap: square"/>
   </g>
   <g id="patch_7">
    <path d="M 56.450156 7.2 
L 499.970156 7.2 
" style="fill: none; stroke: #ffffff; stroke-width: 1.25; stroke-linejoin: miter; stroke-linecap: square"/>
   </g>
   <g id="text_13">
    <!-- t = 1700 -->
    <g style="fill: #262626" transform="translate(65.320556 24.659775) scale(0.12 -0.12)">
     <defs>
      <path id="ArialMT-74" d="M 1650 503 
L 1731 6 
Q 1494 -44 1306 -44 
Q 1000 -44 831 53 
Q 663 150 594 308 
Q 525 466 525 972 
L 525 2881 
L 113 2881 
L 113 3319 
L 525 3319 
L 525 4141 
L 1084 4478 
L 1084 3319 
L 1650 3319 
L 1650 2881 
L 1084 2881 
L 1084 941 
Q 1084 700 1114 631 
Q 1144 563 1211 522 
Q 1278 481 1403 481 
Q 1497 481 1650 503 
z
" transform="scale(0.015625)"/>
      <path id="ArialMT-20" transform="scale(0.015625)"/>
      <path id="ArialMT-3d" d="M 3381 2694 
L 356 2694 
L 356 3219 
L 3381 3219 
L 3381 2694 
z
M 3381 1303 
L 356 1303 
L 356 1828 
L 3381 1828 
L 3381 1303 
z
" transform="scale(0.015625)"/>
      <path id="ArialMT-31" d="M 2384 0 
L 1822 0 
L 1822 3584 
Q 1619 3391 1289 3197 
Q 959 3003 697 2906 
L 697 3450 
Q 1169 3672 1522 3987 
Q 1875 4303 2022 4600 
L 2384 4600 
L 2384 0 
z
" transform="scale(0.015625)"/>
      <path id="ArialMT-37" d="M 303 3981 
L 303 4522 
L 3269 4522 
L 3269 4084 
Q 2831 3619 2401 2847 
Q 1972 2075 1738 1259 
Q 1569 684 1522 0 
L 944 0 
Q 953 541 1156 1306 
Q 1359 2072 1739 2783 
Q 2119 3494 2547 3981 
L 303 3981 
z
" transform="scale(0.015625)"/>
     </defs>
     <use xlink:href="#ArialMT-74"/>
     <use xlink:href="#ArialMT-20" x="27.783203"/>
     <use xlink:href="#ArialMT-3d" x="55.566406"/>
     <use xlink:href="#ArialMT-20" x="113.964844"/>
     <use xlink:href="#ArialMT-31" x="141.748047"/>
     <use xlink:href="#ArialMT-37" x="197.363281"/>
     <use xlink:href="#ArialMT-30" x="252.978516"/>
     <use xlink:href="#ArialMT-30" x="308.59375"/>
    </g>
   </g>
   <g id="legend_1">
    <g id="patch_8">
     <path d="M 328.111406 94.59 
L 483.170156 94.59 
Q 487.970156 94.59 487.970156 89.79 
L 487.970156 24 
Q 487.970156 19.2 483.170156 19.2 
L 328.111406 19.2 
Q 323.311406 19.2 323.311406 24 
L 323.311406 89.79 
Q 323.311406 94.59 328.111406 94.59 
z
" style="fill: #eaeaf2; opacity: 0.8; stroke: #cccccc; stroke-linejoin: miter"/>
    </g>
    <g id="PathCollection_3">
     <g>
      <use xlink:href="#mf4168f5446" x="356.911406" y="39.97125" style="fill: #4169e1; stroke: #4169e1"/>
     </g>
    </g>
    <g id="text_14">
     <!-- Sheep -->
     <g style="fill: #262626" transform="translate(400.111406 46.27125) scale(0.24 -0.24)">
      <defs>
       <path id="ArialMT-53" d="M 288 1472 
L 859 1522 
Q 900 1178 1048 958 
Q 1197 738 1509 602 
Q 1822 466 2213 466 
Q 2559 466 2825 569 
Q 3091 672 3220 851 
Q 3350 1031 3350 1244 
Q 3350 1459 3225 1620 
Q 3100 1781 2813 1891 
Q 2628 1963 1997 2114 
Q 1366 2266 1113 2400 
Q 784 2572 623 2826 
Q 463 3081 463 3397 
Q 463 3744 659 4045 
Q 856 4347 1234 4503 
Q 1613 4659 2075 4659 
Q 2584 4659 2973 4495 
Q 3363 4331 3572 4012 
Q 3781 3694 3797 3291 
L 3216 3247 
Q 3169 3681 2898 3903 
Q 2628 4125 2100 4125 
Q 1550 4125 1298 3923 
Q 1047 3722 1047 3438 
Q 1047 3191 1225 3031 
Q 1400 2872 2139 2705 
Q 2878 2538 3153 2413 
Q 3553 2228 3743 1945 
Q 3934 1663 3934 1294 
Q 3934 928 3725 604 
Q 3516 281 3123 101 
Q 2731 -78 2241 -78 
Q 1619 -78 1198 103 
Q 778 284 539 648 
Q 300 1013 288 1472 
z
" transform="scale(0.015625)"/>
       <path id="ArialMT-68" d="M 422 0 
L 422 4581 
L 984 4581 
L 984 2938 
Q 1378 3394 1978 3394 
Q 2347 3394 2619 3248 
Q 2891 3103 3008 2847 
Q 3125 2591 3125 2103 
L 3125 0 
L 2563 0 
L 2563 2103 
Q 2563 2525 2380 2717 
Q 2197 2909 1863 2909 
Q 1613 2909 1392 2779 
Q 1172 2650 1078 2428 
Q 984 2206 984 1816 
L 984 0 
L 422 0 
z
" transform="scale(0.015625)"/>
       <path id="ArialMT-65" d="M 2694 1069 
L 3275 997 
Q 3138 488 2766 206 
Q 2394 -75 1816 -75 
Q 1088 -75 661 373 
Q 234 822 234 1631 
Q 234 2469 665 2931 
Q 1097 3394 1784 3394 
Q 2450 3394 2872 2941 
Q 3294 2488 3294 1666 
Q 3294 1616 3291 1516 
L 816 1516 
Q 847 969 1125 678 
Q 1403 388 1819 388 
Q 2128 388 2347 550 
Q 2566 713 2694 1069 
z
M 847 1978 
L 2700 1978 
Q 2663 2397 2488 2606 
Q 2219 2931 1791 2931 
Q 1403 2931 1139 2672 
Q 875 2413 847 1978 
z
" transform="scale(0.015625)"/>
       <path id="ArialMT-70" d="M 422 -1272 
L 422 3319 
L 934 3319 
L 934 2888 
Q 1116 3141 1344 3267 
Q 1572 3394 1897 3394 
Q 2322 3394 2647 3175 
Q 2972 2956 3137 2557 
Q 3303 2159 3303 1684 
Q 3303 1175 3120 767 
Q 2938 359 2589 142 
Q 2241 -75 1856 -75 
Q 1575 -75 1351 44 
Q 1128 163 984 344 
L 984 -1272 
L 422 -1272 
z
M 931 1641 
Q 931 1000 1190 694 
Q 1450 388 1819 388 
Q 2194 388 2461 705 
Q 2728 1022 2728 1688 
Q 2728 2322 2467 2637 
Q 2206 2953 1844 2953 
Q 1484 2953 1207 2617 
Q 931 2281 931 1641 
z
" transform="scale(0.015625)"/>
      </defs>
      <use xlink:href="#ArialMT-53"/>
      <use xlink:href="#ArialMT-68" x="66.699219"/>
      <use xlink:href="#ArialMT-65" x="122.314453"/>
      <use xlink:href="#ArialMT-65" x="177.929688"/>
      <use xlink:href="#ArialMT-70" x="233.544922"/>
     </g>
    </g>
    <g id="PathCollection_4">
     <g>
      <use xlink:href="#m7349e533de" x="356.911406" y="73.92" style="fill: #b22222; stroke: #b22222"/>
     </g>
    </g>
    <g id="text_15">
     <!-- Wolves -->
     <g style="fill: #262626" transform="translate(400.111406 80.22) scale(0.24 -0.24)">
      <defs>
       <path id="ArialMT-57" d="M 1294 0 
L 78 4581 
L 700 4581 
L 1397 1578 
Q 1509 1106 1591 641 
Q 1766 1375 1797 1488 
L 2669 4581 
L 3400 4581 
L 4056 2263 
Q 4303 1400 4413 641 
Q 4500 1075 4641 1638 
L 5359 4581 
L 5969 4581 
L 4713 0 
L 4128 0 
L 3163 3491 
Q 3041 3928 3019 4028 
Q 2947 3713 2884 3491 
L 1913 0 
L 1294 0 
z
" transform="scale(0.015625)"/>
       <path id="ArialMT-6f" d="M 213 1659 
Q 213 2581 725 3025 
Q 1153 3394 1769 3394 
Q 2453 3394 2887 2945 
Q 3322 2497 3322 1706 
Q 3322 1066 3130 698 
Q 2938 331 2570 128 
Q 2203 -75 1769 -75 
Q 1072 -75 642 372 
Q 213 819 213 1659 
z
M 791 1659 
Q 791 1022 1069 705 
Q 1347 388 1769 388 
Q 2188 388 2466 706 
Q 2744 1025 2744 1678 
Q 2744 2294 2464 2611 
Q 2184 2928 1769 2928 
Q 1347 2928 1069 2612 
Q 791 2297 791 1659 
z
" transform="scale(0.015625)"/>
       <path id="ArialMT-6c" d="M 409 0 
L 409 4581 
L 972 4581 
L 972 0 
L 409 0 
z
" transform="scale(0.015625)"/>
       <path id="ArialMT-76" d="M 1344 0 
L 81 3319 
L 675 3319 
L 1388 1331 
Q 1503 1009 1600 663 
Q 1675 925 1809 1294 
L 2547 3319 
L 3125 3319 
L 1869 0 
L 1344 0 
z
" transform="scale(0.015625)"/>
       <path id="ArialMT-73" d="M 197 991 
L 753 1078 
Q 800 744 1014 566 
Q 1228 388 1613 388 
Q 2000 388 2187 545 
Q 2375 703 2375 916 
Q 2375 1106 2209 1216 
Q 2094 1291 1634 1406 
Q 1016 1563 777 1677 
Q 538 1791 414 1992 
Q 291 2194 291 2438 
Q 291 2659 392 2848 
Q 494 3038 669 3163 
Q 800 3259 1026 3326 
Q 1253 3394 1513 3394 
Q 1903 3394 2198 3281 
Q 2494 3169 2634 2976 
Q 2775 2784 2828 2463 
L 2278 2388 
Q 2241 2644 2061 2787 
Q 1881 2931 1553 2931 
Q 1166 2931 1000 2803 
Q 834 2675 834 2503 
Q 834 2394 903 2306 
Q 972 2216 1119 2156 
Q 1203 2125 1616 2013 
Q 2213 1853 2448 1751 
Q 2684 1650 2818 1456 
Q 2953 1263 2953 975 
Q 2953 694 2789 445 
Q 2625 197 2315 61 
Q 2006 -75 1616 -75 
Q 969 -75 630 194 
Q 291 463 197 991 
z
" transform="scale(0.015625)"/>
      </defs>
      <use xlink:href="#ArialMT-57"/>
      <use xlink:href="#ArialMT-6f" x="92.634766"/>
      <use xlink:href="#ArialMT-6c" x="148.25"/>
      <use xlink:href="#ArialMT-76" x="170.466797"/>
      <use xlink:href="#ArialMT-65" x="220.466797"/>
      <use xlink:href="#ArialMT-73" x="276.082031"/>
     </g>
    </g>
   </g>
  </g>
 </g>
 <defs>
  <clipPath id="p557fda6637">
   <rect x="56.450156" y="7.2" width="443.52" height="443.52"/>
  </clipPath>
 </defs>
</svg>
