<?xml version="1.0" encoding="utf-8" standalone="no"?>
<!DOCTYPE svg PUBLIC "-//W3C//DTD SVG 1.1//EN"
  "http://www.w3.org/Graphics/SVG/1.1/DTD/svg11.dtd">
<svg xmlns:xlink="http://www.w3.org/1999/xlink" width="507.170156pt" height="492.454219pt" viewBox="0 0 507.170156 492.454219" xmlns="http://www.w3.org/2000/svg" version="1.1">
 <metadata>
  <rdf:RDF xmlns:dc="http://purl.org/dc/elements/1.1/" xmlns:cc="http://creativecommons.org/ns#" xmlns:rdf="http://www.w3.org/1999/02/22-rdf-syntax-ns#">
   <cc:Work>
    <dc:type rdf:resource="http://purl.org/dc/dcmitype/StillImage"/>
    <dc:date>2026-05-12T10:43:20.011238</dc:date>
    <dc:format>image/svg+xml</dc:format>
    <dc:creator>
     <cc:Agent>
      <dc:title>Matplotlib v3.7.1, https://matplotlib.org/</dc:title>
     </cc:Agent>
    </dc:creator>
   </cc:Work>
  </rdf:RDF>
 </metadata>
 <defs>
  <style type="text/css">*{stroke-linejoin: round; stroke-linecap: butt}</style>
 </defs>
 <g id="figure_1">
  <g id="patch_1">
   <path d="M 0 492.454219 
L 507.170156 492.454219 
L 507.170156 0 
L 0 0 
z
" style="fill: #ffffff"/>
  </g>
  <g id="axes_1">
   <g id="patch_2">
    <path d="M 56.450156 450.72 
L 499.970156 450.72 
L 499.970156 7.2 
L 56.450156 7.2 
z
" style="fill: #eaeaf2"/>
   </g>
   <g id="matplotlib.axis_1">
    <g id="xtick_1">
     <g id="line2d_1">
      <path d="M 100.802156 450.72 
L 100.802156 7.2 
" clip-path="url(#p8485dc8b86)" style="fill: none; stroke: #ffffff; stroke-linecap: round"/>
     </g>
     <g id="text_1">
      <!-- −400 -->
      <g style="fill: #262626" transform="translate(88.414266 468.093594) scale(0.11 -0.11)">
       <defs>
        <path id="ArialMT-2212" d="M 3381 1997 
L 356 1997 
L 356 2522 
L 3381 2522 
L 3381 1997 
z
" transform="scale(0.015625)"/>
        <path id="ArialMT-34" d="M 2069 0 
L 2069 1097 
L 81 1097 
L 81 1613 
L 2172 4581 
L 2631 4581 
L 2631 1613 
L 3250 1613 
L 3250 1097 
L 2631 1097 
L 2631 0 
L 2069 0 
z
M 2069 1613 
L 2069 3678 
L 634 1613 
L 2069 1613 
z
" transform="scale(0.015625)"/>
        <path id="ArialMT-30" d="M 266 2259 
Q 266 3072 433 3567 
Q 600 4063 929 4331 
Q 1259 4600 1759 4600 
Q 2128 4600 2406 4451 
Q 2684 4303 2865 4023 
Q 3047 3744 3150 3342 
Q 3253 2941 3253 2259 
Q 3253 1453 3087 958 
Q 2922 463 2592 192 
Q 2263 -78 1759 -78 
Q 1097 -78 719 397 
Q 266 969 266 2259 
z
M 844 2259 
Q 844 1131 1108 757 
Q 1372 384 1759 384 
Q 2147 384 2411 759 
Q 2675 1134 2675 2259 
Q 2675 3391 2411 3762 
Q 2147 4134 1753 4134 
Q 1366 4134 1134 3806 
Q 844 3388 844 2259 
z
" transform="scale(0.015625)"/>
       </defs>
       <use xlink:href="#ArialMT-2212"/>
       <use xlink:href="#ArialMT-34" x="58.398438"/>
       <use xlink:href="#ArialMT-30" x="114.013672"/>
       <use xlink:href="#ArialMT-30" x="169.628906"/>
      </g>
     </g>
    </g>
    <g id="xtick_2">
     <g id="line2d_2">
      <path d="M 189.506156 450.72 
L 189.506156 7.2 
" clip-path="url(#p8485dc8b86)" style="fill: none; stroke: #ffffff; stroke-linecap: round"/>
     </g>
     <g id="text_2">
      <!-- −200 -->
      <g style="fill: #262626" transform="translate(177.118266 468.093594) scale(0.11 -0.11)">
       <defs>
        <path id="ArialMT-32" d="M 3222 541 
L 3222 0 
L 194 0 
Q 188 203 259 391 
Q 375 700 629 1000 
Q 884 1300 1366 1694 
Q 2113 2306 2375 2664 
Q 2638 3022 2638 3341 
Q 2638 3675 2398 3904 
Q 2159 4134 1775 4134 
Q 1369 4134 1125 3890 
Q 881 3647 878 3216 
L 300 3275 
Q 359 3922 746 4261 
Q 1134 4600 1788 4600 
Q 2447 4600 2831 4234 
Q 3216 3869 3216 3328 
Q 3216 3053 3103 2787 
Q 2991 2522 2730 2228 
Q 2469 1934 1863 1422 
Q 1356 997 1212 845 
Q 1069 694 975 541 
L 3222 541 
z
" transform="scale(0.015625)"/>
       </defs>
       <use xlink:href="#ArialMT-2212"/>
       <use xlink:href="#ArialMT-32" x="58.398438"/>
       <use xlink:href="#ArialMT-30" x="114.013672"/>
       <use xlink:href="#ArialMT-30" x="169.628906"/>
      </g>
     </g>
    </g>
    <g id="xtick_3">
     <g id="line2d_3">
      <path d="M 278.210156 450.72 
L 278.210156 7.2 
" clip-path="url(#p8485dc8b86)" style="fill: none; stroke: #ffffff; stroke-linecap: round"/>
     </g>
     <g id="text_3">
      <!-- 0 -->
      <g style="fill: #262626" transform="translate(275.151641 468.093594) scale(0.11 -0.11)">
       <use xlink:href="#ArialMT-30"/>
      </g>
     </g>
    </g>
    <g id="xtick_4">
     <g id="line2d_4">
      <path d="M 366.914156 450.72 
L 366.914156 7.2 
" clip-path="url(#p8485dc8b86)" style="fill: none; stroke: #ffffff; stroke-linecap: round"/>
     </g>
     <g id="text_4">
      <!-- 200 -->
      <g style="fill: #262626" transform="translate(357.738609 468.093594) scale(0.11 -0.11)">
       <use xlink:href="#ArialMT-32"/>
       <use xlink:href="#ArialMT-30" x="55.615234"/>
       <use xlink:href="#ArialMT-30" x="111.230469"/>
      </g>
     </g>
    </g>
    <g id="xtick_5">
     <g id="line2d_5">
      <path d="M 455.618156 450.72 
L 455.618156 7.2 
" clip-path="url(#p8485dc8b86)" style="fill: none; stroke: #ffffff; stroke-linecap: round"/>
     </g>
     <g id="text_5">
      <!-- 400 -->
      <g style="fill: #262626" transform="translate(446.442609 468.093594) scale(0.11 -0.11)">
       <use xlink:href="#ArialMT-34"/>
       <use xlink:href="#ArialMT-30" x="55.615234"/>
       <use xlink:href="#ArialMT-30" x="111.230469"/>
      </g>
     </g>
    </g>
    <g id="text_6">
     <!-- x -->
     <g style="fill: #262626" transform="translate(275.210156 482.869219) scale(0.12 -0.12)">
      <defs>
       <path id="ArialMT-78" d="M 47 0 
L 1259 1725 
L 138 3319 
L 841 3319 
L 1350 2541 
Q 1494 2319 1581 2169 
Q 1719 2375 1834 2534 
L 2394 3319 
L 3066 3319 
L 1919 1756 
L 3153 0 
L 2463 0 
L 1781 1031 
L 1600 1309 
L 728 0 
L 47 0 
z
" transform="scale(0.015625)"/>
      </defs>
      <use xlink:href="#ArialMT-78"/>
     </g>
    </g>
   </g>
   <g id="matplotlib.axis_2">
    <g id="ytick_1">
     <g id="line2d_6">
      <path d="M 56.450156 406.368 
L 499.970156 406.368 
" clip-path="url(#p8485dc8b86)" style="fill: none; stroke: #ffffff; stroke-linecap: round"/>
     </g>
     <g id="text_7">
      <!-- −400 -->
      <g style="fill: #262626" transform="translate(22.174375 410.304797) scale(0.11 -0.11)">
       <use xlink:href="#ArialMT-2212"/>
       <use xlink:href="#ArialMT-34" x="58.398438"/>
       <use xlink:href="#ArialMT-30" x="114.013672"/>
       <use xlink:href="#ArialMT-30" x="169.628906"/>
      </g>
     </g>
    </g>
    <g id="ytick_2">
     <g id="line2d_7">
      <path d="M 56.450156 317.664 
L 499.970156 317.664 
" clip-path="url(#p8485dc8b86)" style="fill: none; stroke: #ffffff; stroke-linecap: round"/>
     </g>
     <g id="text_8">
      <!-- −200 -->
      <g style="fill: #262626" transform="translate(22.174375 321.600797) scale(0.11 -0.11)">
       <use xlink:href="#ArialMT-2212"/>
       <use xlink:href="#ArialMT-32" x="58.398438"/>
       <use xlink:href="#ArialMT-30" x="114.013672"/>
       <use xlink:href="#ArialMT-30" x="169.628906"/>
      </g>
     </g>
    </g>
    <g id="ytick_3">
     <g id="line2d_8">
      <path d="M 56.450156 228.96 
L 499.970156 228.96 
" clip-path="url(#p8485dc8b86)" style="fill: none; stroke: #ffffff; stroke-linecap: round"/>
     </g>
     <g id="text_9">
      <!-- 0 -->
      <g style="fill: #262626" transform="translate(40.833125 232.896797) scale(0.11 -0.11)">
       <use xlink:href="#ArialMT-30"/>
      </g>
     </g>
    </g>
    <g id="ytick_4">
     <g id="line2d_9">
      <path d="M 56.450156 140.256 
L 499.970156 140.256 
" clip-path="url(#p8485dc8b86)" style="fill: none; stroke: #ffffff; stroke-linecap: round"/>
     </g>
     <g id="text_10">
      <!-- 200 -->
      <g style="fill: #262626" transform="translate(28.599063 144.192797) scale(0.11 -0.11)">
       <use xlink:href="#ArialMT-32"/>
       <use xlink:href="#ArialMT-30" x="55.615234"/>
       <use xlink:href="#ArialMT-30" x="111.230469"/>
      </g>
     </g>
    </g>
    <g id="ytick_5">
     <g id="line2d_10">
      <path d="M 56.450156 51.552 
L 499.970156 51.552 
" clip-path="url(#p8485dc8b86)" style="fill: none; stroke: #ffffff; stroke-linecap: round"/>
     </g>
     <g id="text_11">
      <!-- 400 -->
      <g style="fill: #262626" transform="translate(28.599063 55.488797) scale(0.11 -0.11)">
       <use xlink:href="#ArialMT-34"/>
       <use xlink:href="#ArialMT-30" x="55.615234"/>
       <use xlink:href="#ArialMT-30" x="111.230469"/>
      </g>
     </g>
    </g>
    <g id="text_12">
     <!-- y -->
     <g style="fill: #262626" transform="translate(15.64875 231.96) rotate(-90) scale(0.12 -0.12)">
      <defs>
       <path id="ArialMT-79" d="M 397 -1278 
L 334 -750 
Q 519 -800 656 -800 
Q 844 -800 956 -737 
Q 1069 -675 1141 -563 
Q 1194 -478 1313 -144 
Q 1328 -97 1363 -6 
L 103 3319 
L 709 3319 
L 1400 1397 
Q 1534 1031 1641 628 
Q 1738 1016 1872 1384 
L 2581 3319 
L 3144 3319 
L 1881 -56 
Q 1678 -603 1566 -809 
Q 1416 -1088 1222 -1217 
Q 1028 -1347 759 -1347 
Q 597 -1347 397 -1278 
z
" transform="scale(0.015625)"/>
      </defs>
      <use xlink:href="#ArialMT-79"/>
     </g>
    </g>
   </g>
   <g id="patch_3">
    <path d="M 278.210156 317.664 
C 301.734732 317.664 324.298969 308.317587 340.933356 291.6832 
C 357.567743 275.048813 366.914156 252.484576 366.914156 228.96 
C 366.914156 205.435424 357.567743 182.871187 340.933356 166.2368 
C 324.298969 149.602413 301.734732 140.256 278.210156 140.256 
C 254.68558 140.256 232.121343 149.602413 215.486956 166.2368 
C 198.852569 182.871187 189.506156 205.435424 189.506156 228.96 
C 189.506156 252.484576 198.852569 275.048813 215.486956 291.6832 
C 232.121343 308.317587 254.68558 317.664 278.210156 317.664 
z
" clip-path="url(#p8485dc8b86)" style="fill: #228b22; opacity: 0.12; stroke: #228b22; stroke-width: 1.5; stroke-linejoin: miter"/>
   </g>
   <g id="PathCollection_1">
    <defs>
     <path id="mdc9ca85742" d="M 0 2.236068 
C 0.593012 2.236068 1.161816 2.000462 1.581139 1.581139 
C 2.000462 1.161816 2.236068 0.593012 2.236068 0 
C 2.236068 -0.593012 2.000462 -1.161816 1.581139 -1.581139 
C 1.161816 -2.000462 0.593012 -2.236068 0 -2.236068 
C -0.593012 -2.236068 -1.161816 -2.000462 -1.581139 -1.581139 
C -2.000462 -1.161816 -2.236068 -0.593012 -2.236068 0 
C -2.236068 0.593012 -2.000462 1.161816 -1.581139 1.581139 
C -1.161816 2.000462 -0.593012 2.236068 0 2.236068 
z
" style="stroke: #4169e1"/>
    </defs>
    <g clip-path="url(#p8485dc8b86)">
     <use xlink:href="#mdc9ca85742" x="383.840065" y="213.684138" style="fill: #4169e1; stroke: #4169e1"/>
     <use xlink:href="#mdc9ca85742" x="355.146082" y="146.900774" style="fill: #4169e1; stroke: #4169e1"/>
     <use xlink:href="#mdc9ca85742" x="257.867527" y="105.289792" style="fill: #4169e1; stroke: #4169e1"/>
     <use xlink:href="#mdc9ca85742" x="367.12764" y="70.737908" style="fill: #4169e1; stroke: #4169e1"/>
     <use xlink:href="#mdc9ca85742" x="259.842198" y="114.198929" style="fill: #4169e1; stroke: #4169e1"/>
     <use xlink:href="#mdc9ca85742" x="209.865393" y="139.507215" style="fill: #4169e1; stroke: #4169e1"/>
     <use xlink:href="#mdc9ca85742" x="309.123776" y="236.863633" style="fill: #4169e1; stroke: #4169e1"/>
     <use xlink:href="#mdc9ca85742" x="322.203075" y="285.916161" style="fill: #4169e1; stroke: #4169e1"/>
     <use xlink:href="#mdc9ca85742" x="415.297007" y="157.214563" style="fill: #4169e1; stroke: #4169e1"/>
     <use xlink:href="#mdc9ca85742" x="371.877051" y="128.730402" style="fill: #4169e1; stroke: #4169e1"/>
     <use xlink:href="#mdc9ca85742" x="312.701751" y="286.361312" style="fill: #4169e1; stroke: #4169e1"/>
     <use xlink:href="#mdc9ca85742" x="269.753528" y="160.756578" style="fill: #4169e1; stroke: #4169e1"/>
     <use xlink:href="#mdc9ca85742" x="253.029341" y="138.555944" style="fill: #4169e1; stroke: #4169e1"/>
     <use xlink:href="#mdc9ca85742" x="340.419149" y="110.11701" style="fill: #4169e1; stroke: #4169e1"/>
     <use xlink:href="#mdc9ca85742" x="340.460573" y="188.95782" style="fill: #4169e1; stroke: #4169e1"/>
     <use xlink:href="#mdc9ca85742" x="269.295858" y="273.051272" style="fill: #4169e1; stroke: #4169e1"/>
     <use xlink:href="#mdc9ca85742" x="386.927617" y="117.918255" style="fill: #4169e1; stroke: #4169e1"/>
     <use xlink:href="#mdc9ca85742" x="401.05403" y="196.791004" style="fill: #4169e1; stroke: #4169e1"/>
     <use xlink:href="#mdc9ca85742" x="473.545552" y="259.900789" style="fill: #4169e1; stroke: #4169e1"/>
     <use xlink:href="#mdc9ca85742" x="286.857717" y="165.766054" style="fill: #4169e1; stroke: #4169e1"/>
     <use xlink:href="#mdc9ca85742" x="335.627358" y="286.839766" style="fill: #4169e1; stroke: #4169e1"/>
     <use xlink:href="#mdc9ca85742" x="273.810363" y="203.106999" style="fill: #4169e1; stroke: #4169e1"/>
     <use xlink:href="#mdc9ca85742" x="362.327099" y="193.206029" style="fill: #4169e1; stroke: #4169e1"/>
     <use xlink:href="#mdc9ca85742" x="435.576799" y="191.703098" style="fill: #4169e1; stroke: #4169e1"/>
     <use xlink:href="#mdc9ca85742" x="455.346492" y="150.124218" style="fill: #4169e1; stroke: #4169e1"/>
     <use xlink:href="#mdc9ca85742" x="426.195582" y="116.804352" style="fill: #4169e1; stroke: #4169e1"/>
     <use xlink:href="#mdc9ca85742" x="308.793062" y="215.530399" style="fill: #4169e1; stroke: #4169e1"/>
     <use xlink:href="#mdc9ca85742" x="463.517287" y="247.765085" style="fill: #4169e1; stroke: #4169e1"/>
     <use xlink:href="#mdc9ca85742" x="260.70678" y="283.67572" style="fill: #4169e1; stroke: #4169e1"/>
     <use xlink:href="#mdc9ca85742" x="398.927345" y="173.471541" style="fill: #4169e1; stroke: #4169e1"/>
     <use xlink:href="#mdc9ca85742" x="394.973171" y="272.296623" style="fill: #4169e1; stroke: #4169e1"/>
     <use xlink:href="#mdc9ca85742" x="328.119414" y="280.2601" style="fill: #4169e1; stroke: #4169e1"/>
     <use xlink:href="#mdc9ca85742" x="499.970156" y="200.566227" style="fill: #4169e1; stroke: #4169e1"/>
     <use xlink:href="#mdc9ca85742" x="350.542579" y="295.448606" style="fill: #4169e1; stroke: #4169e1"/>
     <use xlink:href="#mdc9ca85742" x="274.483689" y="108.367646" style="fill: #4169e1; stroke: #4169e1"/>
     <use xlink:href="#mdc9ca85742" x="310.747762" y="78.846279" style="fill: #4169e1; stroke: #4169e1"/>
     <use xlink:href="#mdc9ca85742" x="349.45593" y="115.075804" style="fill: #4169e1; stroke: #4169e1"/>
     <use xlink:href="#mdc9ca85742" x="329.365413" y="187.492653" style="fill: #4169e1; stroke: #4169e1"/>
     <use xlink:href="#mdc9ca85742" x="447.978725" y="107.513442" style="fill: #4169e1; stroke: #4169e1"/>
     <use xlink:href="#mdc9ca85742" x="432.900371" y="162.96894" style="fill: #4169e1; stroke: #4169e1"/>
     <use xlink:href="#mdc9ca85742" x="489.038826" y="219.032483" style="fill: #4169e1; stroke: #4169e1"/>
     <use xlink:href="#mdc9ca85742" x="338.914581" y="247.127499" style="fill: #4169e1; stroke: #4169e1"/>
     <use xlink:href="#mdc9ca85742" x="366.775793" y="291.987761" style="fill: #4169e1; stroke: #4169e1"/>
     <use xlink:href="#mdc9ca85742" x="315.564792" y="255.510879" style="fill: #4169e1; stroke: #4169e1"/>
     <use xlink:href="#mdc9ca85742" x="303.698219" y="268.427467" style="fill: #4169e1; stroke: #4169e1"/>
     <use xlink:href="#mdc9ca85742" x="366.711562" y="259.306121" style="fill: #4169e1; stroke: #4169e1"/>
     <use xlink:href="#mdc9ca85742" x="300.160282" y="284.460722" style="fill: #4169e1; stroke: #4169e1"/>
     <use xlink:href="#mdc9ca85742" x="457.72868" y="61.673373" style="fill: #4169e1; stroke: #4169e1"/>
     <use xlink:href="#mdc9ca85742" x="316.616514" y="132.59207" style="fill: #4169e1; stroke: #4169e1"/>
     <use xlink:href="#mdc9ca85742" x="359.606931" y="242.651602" style="fill: #4169e1; stroke: #4169e1"/>
     <use xlink:href="#mdc9ca85742" x="339.719855" y="206.68361" style="fill: #4169e1; stroke: #4169e1"/>
     <use xlink:href="#mdc9ca85742" x="238.118299" y="166.146893" style="fill: #4169e1; stroke: #4169e1"/>
     <use xlink:href="#mdc9ca85742" x="332.785537" y="245.115356" style="fill: #4169e1; stroke: #4169e1"/>
     <use xlink:href="#mdc9ca85742" x="448.705116" y="133.276603" style="fill: #4169e1; stroke: #4169e1"/>
     <use xlink:href="#mdc9ca85742" x="451.124038" y="77.913977" style="fill: #4169e1; stroke: #4169e1"/>
     <use xlink:href="#mdc9ca85742" x="282.394298" y="226.74905" style="fill: #4169e1; stroke: #4169e1"/>
     <use xlink:href="#mdc9ca85742" x="482.018817" y="237.775544" style="fill: #4169e1; stroke: #4169e1"/>
     <use xlink:href="#mdc9ca85742" x="306.46379" y="156.826923" style="fill: #4169e1; stroke: #4169e1"/>
     <use xlink:href="#mdc9ca85742" x="240.132804" y="207.320209" style="fill: #4169e1; stroke: #4169e1"/>
     <use xlink:href="#mdc9ca85742" x="432.884995" y="225.975607" style="fill: #4169e1; stroke: #4169e1"/>
     <use xlink:href="#mdc9ca85742" x="401.654625" y="174.686037" style="fill: #4169e1; stroke: #4169e1"/>
     <use xlink:href="#mdc9ca85742" x="335.853138" y="219.274598" style="fill: #4169e1; stroke: #4169e1"/>
     <use xlink:href="#mdc9ca85742" x="444.458203" y="134.519462" style="fill: #4169e1; stroke: #4169e1"/>
     <use xlink:href="#mdc9ca85742" x="428.489128" y="83.75816" style="fill: #4169e1; stroke: #4169e1"/>
     <use xlink:href="#mdc9ca85742" x="318.526528" y="158.654988" style="fill: #4169e1; stroke: #4169e1"/>
     <use xlink:href="#mdc9ca85742" x="412.344705" y="186.859986" style="fill: #4169e1; stroke: #4169e1"/>
     <use xlink:href="#mdc9ca85742" x="378.010521" y="118.793851" style="fill: #4169e1; stroke: #4169e1"/>
     <use xlink:href="#mdc9ca85742" x="265.311508" y="181.055411" style="fill: #4169e1; stroke: #4169e1"/>
     <use xlink:href="#mdc9ca85742" x="405.025448" y="218.301032" style="fill: #4169e1; stroke: #4169e1"/>
     <use xlink:href="#mdc9ca85742" x="289.782816" y="349.274004" style="fill: #4169e1; stroke: #4169e1"/>
     <use xlink:href="#mdc9ca85742" x="290.089356" y="72.486366" style="fill: #4169e1; stroke: #4169e1"/>
     <use xlink:href="#mdc9ca85742" x="441.541012" y="229.587541" style="fill: #4169e1; stroke: #4169e1"/>
     <use xlink:href="#mdc9ca85742" x="348.201661" y="128.295977" style="fill: #4169e1; stroke: #4169e1"/>
     <use xlink:href="#mdc9ca85742" x="429.366626" y="294.79142" style="fill: #4169e1; stroke: #4169e1"/>
     <use xlink:href="#mdc9ca85742" x="420.480525" y="95.216319" style="fill: #4169e1; stroke: #4169e1"/>
     <use xlink:href="#mdc9ca85742" x="371.097711" y="72.139717" style="fill: #4169e1; stroke: #4169e1"/>
     <use xlink:href="#mdc9ca85742" x="244.785521" y="158.036796" style="fill: #4169e1; stroke: #4169e1"/>
     <use xlink:href="#mdc9ca85742" x="190.522247" y="186.860088" style="fill: #4169e1; stroke: #4169e1"/>
     <use xlink:href="#mdc9ca85742" x="491.512321" y="177.160179" style="fill: #4169e1; stroke: #4169e1"/>
     <use xlink:href="#mdc9ca85742" x="175.619918" y="190.961304" style="fill: #4169e1; stroke: #4169e1"/>
     <use xlink:href="#mdc9ca85742" x="411.308264" y="156.591147" style="fill: #4169e1; stroke: #4169e1"/>
     <use xlink:href="#mdc9ca85742" x="318.910943" y="84.016262" style="fill: #4169e1; stroke: #4169e1"/>
     <use xlink:href="#mdc9ca85742" x="287.144237" y="148.037023" style="fill: #4169e1; stroke: #4169e1"/>
     <use xlink:href="#mdc9ca85742" x="324.59356" y="173.479276" style="fill: #4169e1; stroke: #4169e1"/>
     <use xlink:href="#mdc9ca85742" x="436.863749" y="98.777189" style="fill: #4169e1; stroke: #4169e1"/>
     <use xlink:href="#mdc9ca85742" x="409.592223" y="100.39843" style="fill: #4169e1; stroke: #4169e1"/>
     <use xlink:href="#mdc9ca85742" x="334.316022" y="220.922391" style="fill: #4169e1; stroke: #4169e1"/>
     <use xlink:href="#mdc9ca85742" x="418.457601" y="247.248033" style="fill: #4169e1; stroke: #4169e1"/>
     <use xlink:href="#mdc9ca85742" x="185.005047" y="165.548788" style="fill: #4169e1; stroke: #4169e1"/>
     <use xlink:href="#mdc9ca85742" x="319.587264" y="310.528597" style="fill: #4169e1; stroke: #4169e1"/>
     <use xlink:href="#mdc9ca85742" x="242.022312" y="281.069235" style="fill: #4169e1; stroke: #4169e1"/>
     <use xlink:href="#mdc9ca85742" x="288.962017" y="98.065646" style="fill: #4169e1; stroke: #4169e1"/>
     <use xlink:href="#mdc9ca85742" x="401.5881" y="98.319633" style="fill: #4169e1; stroke: #4169e1"/>
     <use xlink:href="#mdc9ca85742" x="349.650687" y="173.636538" style="fill: #4169e1; stroke: #4169e1"/>
     <use xlink:href="#mdc9ca85742" x="346.127926" y="210.309996" style="fill: #4169e1; stroke: #4169e1"/>
     <use xlink:href="#mdc9ca85742" x="361.804019" y="123.697645" style="fill: #4169e1; stroke: #4169e1"/>
     <use xlink:href="#mdc9ca85742" x="302.913024" y="184.124649" style="fill: #4169e1; stroke: #4169e1"/>
     <use xlink:href="#mdc9ca85742" x="325.946358" y="215.574951" style="fill: #4169e1; stroke: #4169e1"/>
     <use xlink:href="#mdc9ca85742" x="362.622185" y="346.34907" style="fill: #4169e1; stroke: #4169e1"/>
     <use xlink:href="#mdc9ca85742" x="331.152223" y="177.891612" style="fill: #4169e1; stroke: #4169e1"/>
     <use xlink:href="#mdc9ca85742" x="252.425135" y="355.673696" style="fill: #4169e1; stroke: #4169e1"/>
     <use xlink:href="#mdc9ca85742" x="372.569767" y="128.502754" style="fill: #4169e1; stroke: #4169e1"/>
     <use xlink:href="#mdc9ca85742" x="404.605695" y="143.42835" style="fill: #4169e1; stroke: #4169e1"/>
     <use xlink:href="#mdc9ca85742" x="499.418328" y="248.860894" style="fill: #4169e1; stroke: #4169e1"/>
     <use xlink:href="#mdc9ca85742" x="410.713056" y="80.504119" style="fill: #4169e1; stroke: #4169e1"/>
     <use xlink:href="#mdc9ca85742" x="277.755482" y="107.886701" style="fill: #4169e1; stroke: #4169e1"/>
     <use xlink:href="#mdc9ca85742" x="338.675712" y="216.819772" style="fill: #4169e1; stroke: #4169e1"/>
     <use xlink:href="#mdc9ca85742" x="252.230694" y="239.350639" style="fill: #4169e1; stroke: #4169e1"/>
     <use xlink:href="#mdc9ca85742" x="266.488034" y="86.822249" style="fill: #4169e1; stroke: #4169e1"/>
     <use xlink:href="#mdc9ca85742" x="330.022311" y="217.868856" style="fill: #4169e1; stroke: #4169e1"/>
     <use xlink:href="#mdc9ca85742" x="239.963172" y="174.824018" style="fill: #4169e1; stroke: #4169e1"/>
     <use xlink:href="#mdc9ca85742" x="437.922117" y="258.478619" style="fill: #4169e1; stroke: #4169e1"/>
     <use xlink:href="#mdc9ca85742" x="390.65905" y="109.833665" style="fill: #4169e1; stroke: #4169e1"/>
     <use xlink:href="#mdc9ca85742" x="164.193167" y="170.521076" style="fill: #4169e1; stroke: #4169e1"/>
     <use xlink:href="#mdc9ca85742" x="173.598808" y="159.201334" style="fill: #4169e1; stroke: #4169e1"/>
     <use xlink:href="#mdc9ca85742" x="431.672408" y="232.52716" style="fill: #4169e1; stroke: #4169e1"/>
     <use xlink:href="#mdc9ca85742" x="481.082617" y="158.125601" style="fill: #4169e1; stroke: #4169e1"/>
     <use xlink:href="#mdc9ca85742" x="296.138511" y="60.9415" style="fill: #4169e1; stroke: #4169e1"/>
     <use xlink:href="#mdc9ca85742" x="419.552893" y="314.803345" style="fill: #4169e1; stroke: #4169e1"/>
     <use xlink:href="#mdc9ca85742" x="271.3656" y="206.373778" style="fill: #4169e1; stroke: #4169e1"/>
     <use xlink:href="#mdc9ca85742" x="484.552869" y="226.566187" style="fill: #4169e1; stroke: #4169e1"/>
     <use xlink:href="#mdc9ca85742" x="334.041187" y="175.733458" style="fill: #4169e1; stroke: #4169e1"/>
     <use xlink:href="#mdc9ca85742" x="417.108403" y="229.924109" style="fill: #4169e1; stroke: #4169e1"/>
     <use xlink:href="#mdc9ca85742" x="429.699591" y="263.878175" style="fill: #4169e1; stroke: #4169e1"/>
     <use xlink:href="#mdc9ca85742" x="192.344242" y="198.843665" style="fill: #4169e1; stroke: #4169e1"/>
     <use xlink:href="#mdc9ca85742" x="334.328271" y="263.870992" style="fill: #4169e1; stroke: #4169e1"/>
     <use xlink:href="#mdc9ca85742" x="337.053409" y="275.134888" style="fill: #4169e1; stroke: #4169e1"/>
     <use xlink:href="#mdc9ca85742" x="342.569533" y="70.472375" style="fill: #4169e1; stroke: #4169e1"/>
     <use xlink:href="#mdc9ca85742" x="372.522387" y="175.172433" style="fill: #4169e1; stroke: #4169e1"/>
     <use xlink:href="#mdc9ca85742" x="453.042375" y="210.052747" style="fill: #4169e1; stroke: #4169e1"/>
     <use xlink:href="#mdc9ca85742" x="311.480805" y="227.359646" style="fill: #4169e1; stroke: #4169e1"/>
     <use xlink:href="#mdc9ca85742" x="420.676203" y="210.272922" style="fill: #4169e1; stroke: #4169e1"/>
     <use xlink:href="#mdc9ca85742" x="246.648794" y="158.710211" style="fill: #4169e1; stroke: #4169e1"/>
     <use xlink:href="#mdc9ca85742" x="347.101422" y="212.234722" style="fill: #4169e1; stroke: #4169e1"/>
     <use xlink:href="#mdc9ca85742" x="352.32474" y="203.10643" style="fill: #4169e1; stroke: #4169e1"/>
     <use xlink:href="#mdc9ca85742" x="453.51976" y="130.464912" style="fill: #4169e1; stroke: #4169e1"/>
     <use xlink:href="#mdc9ca85742" x="196.509943" y="170.286641" style="fill: #4169e1; stroke: #4169e1"/>
     <use xlink:href="#mdc9ca85742" x="315.354246" y="257.381202" style="fill: #4169e1; stroke: #4169e1"/>
     <use xlink:href="#mdc9ca85742" x="276.819722" y="168.004383" style="fill: #4169e1; stroke: #4169e1"/>
     <use xlink:href="#mdc9ca85742" x="352.109531" y="200.450048" style="fill: #4169e1; stroke: #4169e1"/>
     <use xlink:href="#mdc9ca85742" x="313.908776" y="110.774454" style="fill: #4169e1; stroke: #4169e1"/>
     <use xlink:href="#mdc9ca85742" x="273.82246" y="120.978621" style="fill: #4169e1; stroke: #4169e1"/>
     <use xlink:href="#mdc9ca85742" x="296.102264" y="270.209844" style="fill: #4169e1; stroke: #4169e1"/>
     <use xlink:href="#mdc9ca85742" x="385.455466" y="149.940364" style="fill: #4169e1; stroke: #4169e1"/>
     <use xlink:href="#mdc9ca85742" x="453.480901" y="173.385193" style="fill: #4169e1; stroke: #4169e1"/>
     <use xlink:href="#mdc9ca85742" x="357.373434" y="212.390593" style="fill: #4169e1; stroke: #4169e1"/>
     <use xlink:href="#mdc9ca85742" x="301.243668" y="192.171087" style="fill: #4169e1; stroke: #4169e1"/>
     <use xlink:href="#mdc9ca85742" x="307.57597" y="152.708743" style="fill: #4169e1; stroke: #4169e1"/>
     <use xlink:href="#mdc9ca85742" x="373.790056" y="267.298662" style="fill: #4169e1; stroke: #4169e1"/>
     <use xlink:href="#mdc9ca85742" x="372.541397" y="164.728307" style="fill: #4169e1; stroke: #4169e1"/>
     <use xlink:href="#mdc9ca85742" x="215.953283" y="300.148905" style="fill: #4169e1; stroke: #4169e1"/>
     <use xlink:href="#mdc9ca85742" x="285.523194" y="155.966716" style="fill: #4169e1; stroke: #4169e1"/>
    </g>
   </g>
   <g id="PathCollection_2">
    <defs>
     <path id="mdc77a556c7" d="M 0 2.5 
C 0.663008 2.5 1.29895 2.236584 1.767767 1.767767 
C 2.236584 1.29895 2.5 0.663008 2.5 0 
C 2.5 -0.663008 2.236584 -1.29895 1.767767 -1.767767 
C 1.29895 -2.236584 0.663008 -2.5 0 -2.5 
C -0.663008 -2.5 -1.29895 -2.236584 -1.767767 -1.767767 
C -2.236584 -1.29895 -2.5 -0.663008 -2.5 0 
C -2.5 0.663008 -2.236584 1.29895 -1.767767 1.767767 
C -1.29895 2.236584 -0.663008 2.5 0 2.5 
z
" style="stroke: #b22222"/>
    </defs>
    <g clip-path="url(#p8485dc8b86)">
     <use xlink:href="#mdc77a556c7" x="240.117919" y="245.167399" style="fill: #b22222; stroke: #b22222"/>
     <use xlink:href="#mdc77a556c7" x="223.81994" y="220.674778" style="fill: #b22222; stroke: #b22222"/>
     <use xlink:href="#mdc77a556c7" x="223.987857" y="213.005665" style="fill: #b22222; stroke: #b22222"/>
     <use xlink:href="#mdc77a556c7" x="222.768387" y="221.621676" style="fill: #b22222; stroke: #b22222"/>
     <use xlink:href="#mdc77a556c7" x="218.805601" y="212.438877" style="fill: #b22222; stroke: #b22222"/>
     <use xlink:href="#mdc77a556c7" x="216.893205" y="222.091231" style="fill: #b22222; stroke: #b22222"/>
     <use xlink:href="#mdc77a556c7" x="219.565288" y="210.470418" style="fill: #b22222; stroke: #b22222"/>
     <use xlink:href="#mdc77a556c7" x="249.930943" y="238.94946" style="fill: #b22222; stroke: #b22222"/>
     <use xlink:href="#mdc77a556c7" x="221.814185" y="220.617238" style="fill: #b22222; stroke: #b22222"/>
     <use xlink:href="#mdc77a556c7" x="226.498063" y="218.427018" style="fill: #b22222; stroke: #b22222"/>
     <use xlink:href="#mdc77a556c7" x="220.614249" y="223.410824" style="fill: #b22222; stroke: #b22222"/>
     <use xlink:href="#mdc77a556c7" x="244.699424" y="222.385441" style="fill: #b22222; stroke: #b22222"/>
     <use xlink:href="#mdc77a556c7" x="236.834415" y="213.084862" style="fill: #b22222; stroke: #b22222"/>
     <use xlink:href="#mdc77a556c7" x="215.002066" y="227.676711" style="fill: #b22222; stroke: #b22222"/>
     <use xlink:href="#mdc77a556c7" x="238.185017" y="234.445262" style="fill: #b22222; stroke: #b22222"/>
     <use xlink:href="#mdc77a556c7" x="214.415507" y="232.936385" style="fill: #b22222; stroke: #b22222"/>
     <use xlink:href="#mdc77a556c7" x="261.72295" y="251.513086" style="fill: #b22222; stroke: #b22222"/>
     <use xlink:href="#mdc77a556c7" x="220.423688" y="217.782539" style="fill: #b22222; stroke: #b22222"/>
     <use xlink:href="#mdc77a556c7" x="223.41469" y="219.47961" style="fill: #b22222; stroke: #b22222"/>
     <use xlink:href="#mdc77a556c7" x="219.033519" y="222.021845" style="fill: #b22222; stroke: #b22222"/>
     <use xlink:href="#mdc77a556c7" x="243.412738" y="228.305267" style="fill: #b22222; stroke: #b22222"/>
     <use xlink:href="#mdc77a556c7" x="220.844117" y="215.54711" style="fill: #b22222; stroke: #b22222"/>
     <use xlink:href="#mdc77a556c7" x="224.088812" y="209.636407" style="fill: #b22222; stroke: #b22222"/>
     <use xlink:href="#mdc77a556c7" x="262.900116" y="230.317045" style="fill: #b22222; stroke: #b22222"/>
     <use xlink:href="#mdc77a556c7" x="226.507382" y="225.710935" style="fill: #b22222; stroke: #b22222"/>
     <use xlink:href="#mdc77a556c7" x="214.709402" y="217.911189" style="fill: #b22222; stroke: #b22222"/>
     <use xlink:href="#mdc77a556c7" x="243.832863" y="198.311503" style="fill: #b22222; stroke: #b22222"/>
     <use xlink:href="#mdc77a556c7" x="218.527494" y="206.065784" style="fill: #b22222; stroke: #b22222"/>
     <use xlink:href="#mdc77a556c7" x="234.957935" y="233.451528" style="fill: #b22222; stroke: #b22222"/>
     <use xlink:href="#mdc77a556c7" x="215.216301" y="235.697628" style="fill: #b22222; stroke: #b22222"/>
     <use xlink:href="#mdc77a556c7" x="244.229321" y="225.784649" style="fill: #b22222; stroke: #b22222"/>
     <use xlink:href="#mdc77a556c7" x="237.051878" y="229.132833" style="fill: #b22222; stroke: #b22222"/>
     <use xlink:href="#mdc77a556c7" x="222.452845" y="225.696205" style="fill: #b22222; stroke: #b22222"/>
     <use xlink:href="#mdc77a556c7" x="234.297247" y="217.614549" style="fill: #b22222; stroke: #b22222"/>
     <use xlink:href="#mdc77a556c7" x="239.469433" y="235.445557" style="fill: #b22222; stroke: #b22222"/>
     <use xlink:href="#mdc77a556c7" x="227.806554" y="233.912306" style="fill: #b22222; stroke: #b22222"/>
     <use xlink:href="#mdc77a556c7" x="323.558259" y="238.60099" style="fill: #b22222; stroke: #b22222"/>
     <use xlink:href="#mdc77a556c7" x="284.101055" y="215.076731" style="fill: #b22222; stroke: #b22222"/>
     <use xlink:href="#mdc77a556c7" x="236.670532" y="227.158466" style="fill: #b22222; stroke: #b22222"/>
     <use xlink:href="#mdc77a556c7" x="227.700249" y="223.604639" style="fill: #b22222; stroke: #b22222"/>
     <use xlink:href="#mdc77a556c7" x="222.068433" y="226.000907" style="fill: #b22222; stroke: #b22222"/>
     <use xlink:href="#mdc77a556c7" x="213.664387" y="213.075746" style="fill: #b22222; stroke: #b22222"/>
     <use xlink:href="#mdc77a556c7" x="213.375655" y="218.507574" style="fill: #b22222; stroke: #b22222"/>
     <use xlink:href="#mdc77a556c7" x="221.768737" y="219.134802" style="fill: #b22222; stroke: #b22222"/>
     <use xlink:href="#mdc77a556c7" x="216.078436" y="218.847041" style="fill: #b22222; stroke: #b22222"/>
     <use xlink:href="#mdc77a556c7" x="231.098453" y="229.135286" style="fill: #b22222; stroke: #b22222"/>
     <use xlink:href="#mdc77a556c7" x="245.278028" y="236.375224" style="fill: #b22222; stroke: #b22222"/>
     <use xlink:href="#mdc77a556c7" x="229.58014" y="214.515982" style="fill: #b22222; stroke: #b22222"/>
     <use xlink:href="#mdc77a556c7" x="237.391851" y="233.835235" style="fill: #b22222; stroke: #b22222"/>
     <use xlink:href="#mdc77a556c7" x="219.741719" y="215.754022" style="fill: #b22222; stroke: #b22222"/>
     <use xlink:href="#mdc77a556c7" x="336.966256" y="196.477385" style="fill: #b22222; stroke: #b22222"/>
     <use xlink:href="#mdc77a556c7" x="223.71292" y="220.910302" style="fill: #b22222; stroke: #b22222"/>
     <use xlink:href="#mdc77a556c7" x="216.356482" y="226.407615" style="fill: #b22222; stroke: #b22222"/>
     <use xlink:href="#mdc77a556c7" x="232.062765" y="219.248908" style="fill: #b22222; stroke: #b22222"/>
     <use xlink:href="#mdc77a556c7" x="208.848808" y="219.016062" style="fill: #b22222; stroke: #b22222"/>
     <use xlink:href="#mdc77a556c7" x="226.889974" y="222.439535" style="fill: #b22222; stroke: #b22222"/>
     <use xlink:href="#mdc77a556c7" x="225.859089" y="223.661551" style="fill: #b22222; stroke: #b22222"/>
     <use xlink:href="#mdc77a556c7" x="253.248325" y="231.599967" style="fill: #b22222; stroke: #b22222"/>
     <use xlink:href="#mdc77a556c7" x="246.504631" y="237.68117" style="fill: #b22222; stroke: #b22222"/>
     <use xlink:href="#mdc77a556c7" x="242.682811" y="229.22596" style="fill: #b22222; stroke: #b22222"/>
     <use xlink:href="#mdc77a556c7" x="246.474451" y="227.79817" style="fill: #b22222; stroke: #b22222"/>
     <use xlink:href="#mdc77a556c7" x="241.981673" y="239.084698" style="fill: #b22222; stroke: #b22222"/>
     <use xlink:href="#mdc77a556c7" x="220.385065" y="222.333761" style="fill: #b22222; stroke: #b22222"/>
     <use xlink:href="#mdc77a556c7" x="234.837049" y="223.114073" style="fill: #b22222; stroke: #b22222"/>
     <use xlink:href="#mdc77a556c7" x="249.847923" y="239.11234" style="fill: #b22222; stroke: #b22222"/>
     <use xlink:href="#mdc77a556c7" x="219.410541" y="215.611504" style="fill: #b22222; stroke: #b22222"/>
     <use xlink:href="#mdc77a556c7" x="234.331251" y="233.764011" style="fill: #b22222; stroke: #b22222"/>
     <use xlink:href="#mdc77a556c7" x="213.432062" y="228.746613" style="fill: #b22222; stroke: #b22222"/>
     <use xlink:href="#mdc77a556c7" x="227.961308" y="220.159898" style="fill: #b22222; stroke: #b22222"/>
     <use xlink:href="#mdc77a556c7" x="235.949737" y="231.691581" style="fill: #b22222; stroke: #b22222"/>
     <use xlink:href="#mdc77a556c7" x="250.71774" y="230.420174" style="fill: #b22222; stroke: #b22222"/>
     <use xlink:href="#mdc77a556c7" x="226.872706" y="228.444946" style="fill: #b22222; stroke: #b22222"/>
     <use xlink:href="#mdc77a556c7" x="221.935112" y="220.626444" style="fill: #b22222; stroke: #b22222"/>
     <use xlink:href="#mdc77a556c7" x="250.447456" y="227.241471" style="fill: #b22222; stroke: #b22222"/>
     <use xlink:href="#mdc77a556c7" x="221.830644" y="214.850457" style="fill: #b22222; stroke: #b22222"/>
     <use xlink:href="#mdc77a556c7" x="224.645175" y="218.926436" style="fill: #b22222; stroke: #b22222"/>
     <use xlink:href="#mdc77a556c7" x="216.911755" y="232.957742" style="fill: #b22222; stroke: #b22222"/>
     <use xlink:href="#mdc77a556c7" x="261.924259" y="246.373132" style="fill: #b22222; stroke: #b22222"/>
     <use xlink:href="#mdc77a556c7" x="217.620896" y="221.22563" style="fill: #b22222; stroke: #b22222"/>
     <use xlink:href="#mdc77a556c7" x="389.919421" y="213.858219" style="fill: #b22222; stroke: #b22222"/>
     <use xlink:href="#mdc77a556c7" x="242.974564" y="227.467395" style="fill: #b22222; stroke: #b22222"/>
     <use xlink:href="#mdc77a556c7" x="221.497263" y="220.228785" style="fill: #b22222; stroke: #b22222"/>
     <use xlink:href="#mdc77a556c7" x="210.301834" y="208.18273" style="fill: #b22222; stroke: #b22222"/>
     <use xlink:href="#mdc77a556c7" x="227.331568" y="223.682309" style="fill: #b22222; stroke: #b22222"/>
     <use xlink:href="#mdc77a556c7" x="225.234262" y="231.829689" style="fill: #b22222; stroke: #b22222"/>
     <use xlink:href="#mdc77a556c7" x="220.720061" y="229.009163" style="fill: #b22222; stroke: #b22222"/>
     <use xlink:href="#mdc77a556c7" x="237.422355" y="237.412901" style="fill: #b22222; stroke: #b22222"/>
     <use xlink:href="#mdc77a556c7" x="219.583006" y="214.964297" style="fill: #b22222; stroke: #b22222"/>
     <use xlink:href="#mdc77a556c7" x="226.599895" y="218.504796" style="fill: #b22222; stroke: #b22222"/>
     <use xlink:href="#mdc77a556c7" x="229.095412" y="227.786225" style="fill: #b22222; stroke: #b22222"/>
     <use xlink:href="#mdc77a556c7" x="229.249327" y="214.184152" style="fill: #b22222; stroke: #b22222"/>
     <use xlink:href="#mdc77a556c7" x="231.551316" y="220.260445" style="fill: #b22222; stroke: #b22222"/>
     <use xlink:href="#mdc77a556c7" x="253.076505" y="235.230318" style="fill: #b22222; stroke: #b22222"/>
     <use xlink:href="#mdc77a556c7" x="216.318414" y="214.257002" style="fill: #b22222; stroke: #b22222"/>
    </g>
   </g>
   <g id="patch_4">
    <path d="M 56.450156 450.72 
L 56.450156 7.2 
" style="fill: none; stroke: #ffffff; stroke-width: 1.25; stroke-linejoin: miter; stroke-linecap: square"/>
   </g>
   <g id="patch_5">
    <path d="M 499.970156 450.72 
L 499.970156 7.2 
" style="fill: none; stroke: #ffffff; stroke-width: 1.25; stroke-linejoin: miter; stroke-linecap: square"/>
   </g>
   <g id="patch_6">
    <path d="M 56.450156 450.72 
L 499.970156 450.72 
" style="fill: none; stroke: #ffffff; stroke-width: 1.25; stroke-linejoin: miter; stroke-linecap: square"/>
   </g>
   <g id="patch_7">
    <path d="M 56.450156 7.2 
L 499.970156 7.2 
" style="fill: none; stroke: #ffffff; stroke-width: 1.25; stroke-linejoin: miter; stroke-linecap: square"/>
   </g>
   <g id="text_13">
    <!-- t = 1600 -->
    <g style="fill: #262626" transform="translate(65.320556 24.659775) scale(0.12 -0.12)">
     <defs>
      <path id="ArialMT-74" d="M 1650 503 
L 1731 6 
Q 1494 -44 1306 -44 
Q 1000 -44 831 53 
Q 663 150 594 308 
Q 525 466 525 972 
L 525 2881 
L 113 2881 
L 113 3319 
L 525 3319 
L 525 4141 
L 1084 4478 
L 1084 3319 
L 1650 3319 
L 1650 2881 
L 1084 2881 
L 1084 941 
Q 1084 700 1114 631 
Q 1144 563 1211 522 
Q 1278 481 1403 481 
Q 1497 481 1650 503 
z
" transform="scale(0.015625)"/>
      <path id="ArialMT-20" transform="scale(0.015625)"/>
      <path id="ArialMT-3d" d="M 3381 2694 
L 356 2694 
L 356 3219 
L 3381 3219 
L 3381 2694 
z
M 3381 1303 
L 356 1303 
L 356 1828 
L 3381 1828 
L 3381 1303 
z
" transform="scale(0.015625)"/>
      <path id="ArialMT-31" d="M 2384 0 
L 1822 0 
L 1822 3584 
Q 1619 3391 1289 3197 
Q 959 3003 697 2906 
L 697 3450 
Q 1169 3672 1522 3987 
Q 1875 4303 2022 4600 
L 2384 4600 
L 2384 0 
z
" transform="scale(0.015625)"/>
      <path id="ArialMT-36" d="M 3184 3459 
L 2625 3416 
Q 2550 3747 2413 3897 
Q 2184 4138 1850 4138 
Q 1581 4138 1378 3988 
Q 1113 3794 959 3422 
Q 806 3050 800 2363 
Q 1003 2672 1297 2822 
Q 1591 2972 1913 2972 
Q 2475 2972 2870 2558 
Q 3266 2144 3266 1488 
Q 3266 1056 3080 686 
Q 2894 316 2569 119 
Q 2244 -78 1831 -78 
Q 1128 -78 684 439 
Q 241 956 241 2144 
Q 241 3472 731 4075 
Q 1159 4600 1884 4600 
Q 2425 4600 2770 4297 
Q 3116 3994 3184 3459 
z
M 888 1484 
Q 888 1194 1011 928 
Q 1134 663 1356 523 
Q 1578 384 1822 384 
Q 2178 384 2434 671 
Q 2691 959 2691 1453 
Q 2691 1928 2437 2201 
Q 2184 2475 1800 2475 
Q 1419 2475 1153 2201 
Q 888 1928 888 1484 
z
" transform="scale(0.015625)"/>
     </defs>
     <use xlink:href="#ArialMT-74"/>
     <use xlink:href="#ArialMT-20" x="27.783203"/>
     <use xlink:href="#ArialMT-3d" x="55.566406"/>
     <use xlink:href="#ArialMT-20" x="113.964844"/>
     <use xlink:href="#ArialMT-31" x="141.748047"/>
     <use xlink:href="#ArialMT-36" x="197.363281"/>
     <use xlink:href="#ArialMT-30" x="252.978516"/>
     <use xlink:href="#ArialMT-30" x="308.59375"/>
    </g>
   </g>
   <g id="legend_1">
    <g id="patch_8">
     <path d="M 328.111406 94.59 
L 483.170156 94.59 
Q 487.970156 94.59 487.970156 89.79 
L 487.970156 24 
Q 487.970156 19.2 483.170156 19.2 
L 328.111406 19.2 
Q 323.311406 19.2 323.311406 24 
L 323.311406 89.79 
Q 323.311406 94.59 328.111406 94.59 
z
" style="fill: #eaeaf2; opacity: 0.8; stroke: #cccccc; stroke-linejoin: miter"/>
    </g>
    <g id="PathCollection_3">
     <g>
      <use xlink:href="#mdc9ca85742" x="356.911406" y="39.97125" style="fill: #4169e1; stroke: #4169e1"/>
     </g>
    </g>
    <g id="text_14">
     <!-- Sheep -->
     <g style="fill: #262626" transform="translate(400.111406 46.27125) scale(0.24 -0.24)">
      <defs>
       <path id="ArialMT-53" d="M 288 1472 
L 859 1522 
Q 900 1178 1048 958 
Q 1197 738 1509 602 
Q 1822 466 2213 466 
Q 2559 466 2825 569 
Q 3091 672 3220 851 
Q 3350 1031 3350 1244 
Q 3350 1459 3225 1620 
Q 3100 1781 2813 1891 
Q 2628 1963 1997 2114 
Q 1366 2266 1113 2400 
Q 784 2572 623 2826 
Q 463 3081 463 3397 
Q 463 3744 659 4045 
Q 856 4347 1234 4503 
Q 1613 4659 2075 4659 
Q 2584 4659 2973 4495 
Q 3363 4331 3572 4012 
Q 3781 3694 3797 3291 
L 3216 3247 
Q 3169 3681 2898 3903 
Q 2628 4125 2100 4125 
Q 1550 4125 1298 3923 
Q 1047 3722 1047 3438 
Q 1047 3191 1225 3031 
Q 1400 2872 2139 2705 
Q 2878 2538 3153 2413 
Q 3553 2228 3743 1945 
Q 3934 1663 3934 1294 
Q 3934 928 3725 604 
Q 3516 281 3123 101 
Q 2731 -78 2241 -78 
Q 1619 -78 1198 103 
Q 778 284 539 648 
Q 300 1013 288 1472 
z
" transform="scale(0.015625)"/>
       <path id="ArialMT-68" d="M 422 0 
L 422 4581 
L 984 4581 
L 984 2938 
Q 1378 3394 1978 3394 
Q 2347 3394 2619 3248 
Q 2891 3103 3008 2847 
Q 3125 2591 3125 2103 
L 3125 0 
L 2563 0 
L 2563 2103 
Q 2563 2525 2380 2717 
Q 2197 2909 1863 2909 
Q 1613 2909 1392 2779 
Q 1172 2650 1078 2428 
Q 984 2206 984 1816 
L 984 0 
L 422 0 
z
" transform="scale(0.015625)"/>
       <path id="ArialMT-65" d="M 2694 1069 
L 3275 997 
Q 3138 488 2766 206 
Q 2394 -75 1816 -75 
Q 1088 -75 661 373 
Q 234 822 234 1631 
Q 234 2469 665 2931 
Q 1097 3394 1784 3394 
Q 2450 3394 2872 2941 
Q 3294 2488 3294 1666 
Q 3294 1616 3291 1516 
L 816 1516 
Q 847 969 1125 678 
Q 1403 388 1819 388 
Q 2128 388 2347 550 
Q 2566 713 2694 1069 
z
M 847 1978 
L 2700 1978 
Q 2663 2397 2488 2606 
Q 2219 2931 1791 2931 
Q 1403 2931 1139 2672 
Q 875 2413 847 1978 
z
" transform="scale(0.015625)"/>
       <path id="ArialMT-70" d="M 422 -1272 
L 422 3319 
L 934 3319 
L 934 2888 
Q 1116 3141 1344 3267 
Q 1572 3394 1897 3394 
Q 2322 3394 2647 3175 
Q 2972 2956 3137 2557 
Q 3303 2159 3303 1684 
Q 3303 1175 3120 767 
Q 2938 359 2589 142 
Q 2241 -75 1856 -75 
Q 1575 -75 1351 44 
Q 1128 163 984 344 
L 984 -1272 
L 422 -1272 
z
M 931 1641 
Q 931 1000 1190 694 
Q 1450 388 1819 388 
Q 2194 388 2461 705 
Q 2728 1022 2728 1688 
Q 2728 2322 2467 2637 
Q 2206 2953 1844 2953 
Q 1484 2953 1207 2617 
Q 931 2281 931 1641 
z
" transform="scale(0.015625)"/>
      </defs>
      <use xlink:href="#ArialMT-53"/>
      <use xlink:href="#ArialMT-68" x="66.699219"/>
      <use xlink:href="#ArialMT-65" x="122.314453"/>
      <use xlink:href="#ArialMT-65" x="177.929688"/>
      <use xlink:href="#ArialMT-70" x="233.544922"/>
     </g>
    </g>
    <g id="PathCollection_4">
     <g>
      <use xlink:href="#mdc77a556c7" x="356.911406" y="73.92" style="fill: #b22222; stroke: #b22222"/>
     </g>
    </g>
    <g id="text_15">
     <!-- Wolves -->
     <g style="fill: #262626" transform="translate(400.111406 80.22) scale(0.24 -0.24)">
      <defs>
       <path id="ArialMT-57" d="M 1294 0 
L 78 4581 
L 700 4581 
L 1397 1578 
Q 1509 1106 1591 641 
Q 1766 1375 1797 1488 
L 2669 4581 
L 3400 4581 
L 4056 2263 
Q 4303 1400 4413 641 
Q 4500 1075 4641 1638 
L 5359 4581 
L 5969 4581 
L 4713 0 
L 4128 0 
L 3163 3491 
Q 3041 3928 3019 4028 
Q 2947 3713 2884 3491 
L 1913 0 
L 1294 0 
z
" transform="scale(0.015625)"/>
       <path id="ArialMT-6f" d="M 213 1659 
Q 213 2581 725 3025 
Q 1153 3394 1769 3394 
Q 2453 3394 2887 2945 
Q 3322 2497 3322 1706 
Q 3322 1066 3130 698 
Q 2938 331 2570 128 
Q 2203 -75 1769 -75 
Q 1072 -75 642 372 
Q 213 819 213 1659 
z
M 791 1659 
Q 791 1022 1069 705 
Q 1347 388 1769 388 
Q 2188 388 2466 706 
Q 2744 1025 2744 1678 
Q 2744 2294 2464 2611 
Q 2184 2928 1769 2928 
Q 1347 2928 1069 2612 
Q 791 2297 791 1659 
z
" transform="scale(0.015625)"/>
       <path id="ArialMT-6c" d="M 409 0 
L 409 4581 
L 972 4581 
L 972 0 
L 409 0 
z
" transform="scale(0.015625)"/>
       <path id="ArialMT-76" d="M 1344 0 
L 81 3319 
L 675 3319 
L 1388 1331 
Q 1503 1009 1600 663 
Q 1675 925 1809 1294 
L 2547 3319 
L 3125 3319 
L 1869 0 
L 1344 0 
z
" transform="scale(0.015625)"/>
       <path id="ArialMT-73" d="M 197 991 
L 753 1078 
Q 800 744 1014 566 
Q 1228 388 1613 388 
Q 2000 388 2187 545 
Q 2375 703 2375 916 
Q 2375 1106 2209 1216 
Q 2094 1291 1634 1406 
Q 1016 1563 777 1677 
Q 538 1791 414 1992 
Q 291 2194 291 2438 
Q 291 2659 392 2848 
Q 494 3038 669 3163 
Q 800 3259 1026 3326 
Q 1253 3394 1513 3394 
Q 1903 3394 2198 3281 
Q 2494 3169 2634 2976 
Q 2775 2784 2828 2463 
L 2278 2388 
Q 2241 2644 2061 2787 
Q 1881 2931 1553 2931 
Q 1166 2931 1000 2803 
Q 834 2675 834 2503 
Q 834 2394 903 2306 
Q 972 2216 1119 2156 
Q 1203 2125 1616 2013 
Q 2213 1853 2448 1751 
Q 2684 1650 2818 1456 
Q 2953 1263 2953 975 
Q 2953 694 2789 445 
Q 2625 197 2315 61 
Q 2006 -75 1616 -75 
Q 969 -75 630 194 
Q 291 463 197 991 
z
" transform="scale(0.015625)"/>
      </defs>
      <use xlink:href="#ArialMT-57"/>
      <use xlink:href="#ArialMT-6f" x="92.634766"/>
      <use xlink:href="#ArialMT-6c" x="148.25"/>
      <use xlink:href="#ArialMT-76" x="170.466797"/>
      <use xlink:href="#ArialMT-65" x="220.466797"/>
      <use xlink:href="#ArialMT-73" x="276.082031"/>
     </g>
    </g>
   </g>
  </g>
 </g>
 <defs>
  <clipPath id="p8485dc8b86">
   <rect x="56.450156" y="7.2" width="443.52" height="443.52"/>
  </clipPath>
 </defs>
</svg>
