<?xml version="1.0" encoding="utf-8" standalone="no"?>
<!DOCTYPE svg PUBLIC "-//W3C//DTD SVG 1.1//EN"
  "http://www.w3.org/Graphics/SVG/1.1/DTD/svg11.dtd">
<svg xmlns:xlink="http://www.w3.org/1999/xlink" width="507.170156pt" height="492.454219pt" viewBox="0 0 507.170156 492.454219" xmlns="http://www.w3.org/2000/svg" version="1.1">
 <metadata>
  <rdf:RDF xmlns:dc="http://purl.org/dc/elements/1.1/" xmlns:cc="http://creativecommons.org/ns#" xmlns:rdf="http://www.w3.org/1999/02/22-rdf-syntax-ns#">
   <cc:Work>
    <dc:type rdf:resource="http://purl.org/dc/dcmitype/StillImage"/>
    <dc:date>2026-05-12T10:43:20.644949</dc:date>
    <dc:format>image/svg+xml</dc:format>
    <dc:creator>
     <cc:Agent>
      <dc:title>Matplotlib v3.7.1, https://matplotlib.org/</dc:title>
     </cc:Agent>
    </dc:creator>
   </cc:Work>
  </rdf:RDF>
 </metadata>
 <defs>
  <style type="text/css">*{stroke-linejoin: round; stroke-linecap: butt}</style>
 </defs>
 <g id="figure_1">
  <g id="patch_1">
   <path d="M 0 492.454219 
L 507.170156 492.454219 
L 507.170156 0 
L 0 0 
z
" style="fill: #ffffff"/>
  </g>
  <g id="axes_1">
   <g id="patch_2">
    <path d="M 56.450156 450.72 
L 499.970156 450.72 
L 499.970156 7.2 
L 56.450156 7.2 
z
" style="fill: #eaeaf2"/>
   </g>
   <g id="matplotlib.axis_1">
    <g id="xtick_1">
     <g id="line2d_1">
      <path d="M 100.802156 450.72 
L 100.802156 7.2 
" clip-path="url(#p59e5a1ebc8)" style="fill: none; stroke: #ffffff; stroke-linecap: round"/>
     </g>
     <g id="text_1">
      <!-- −400 -->
      <g style="fill: #262626" transform="translate(88.414266 468.093594) scale(0.11 -0.11)">
       <defs>
        <path id="ArialMT-2212" d="M 3381 1997 
L 356 1997 
L 356 2522 
L 3381 2522 
L 3381 1997 
z
" transform="scale(0.015625)"/>
        <path id="ArialMT-34" d="M 2069 0 
L 2069 1097 
L 81 1097 
L 81 1613 
L 2172 4581 
L 2631 4581 
L 2631 1613 
L 3250 1613 
L 3250 1097 
L 2631 1097 
L 2631 0 
L 2069 0 
z
M 2069 1613 
L 2069 3678 
L 634 1613 
L 2069 1613 
z
" transform="scale(0.015625)"/>
        <path id="ArialMT-30" d="M 266 2259 
Q 266 3072 433 3567 
Q 600 4063 929 4331 
Q 1259 4600 1759 4600 
Q 2128 4600 2406 4451 
Q 2684 4303 2865 4023 
Q 3047 3744 3150 3342 
Q 3253 2941 3253 2259 
Q 3253 1453 3087 958 
Q 2922 463 2592 192 
Q 2263 -78 1759 -78 
Q 1097 -78 719 397 
Q 266 969 266 2259 
z
M 844 2259 
Q 844 1131 1108 757 
Q 1372 384 1759 384 
Q 2147 384 2411 759 
Q 2675 1134 2675 2259 
Q 2675 3391 2411 3762 
Q 2147 4134 1753 4134 
Q 1366 4134 1134 3806 
Q 844 3388 844 2259 
z
" transform="scale(0.015625)"/>
       </defs>
       <use xlink:href="#ArialMT-2212"/>
       <use xlink:href="#ArialMT-34" x="58.398438"/>
       <use xlink:href="#ArialMT-30" x="114.013672"/>
       <use xlink:href="#ArialMT-30" x="169.628906"/>
      </g>
     </g>
    </g>
    <g id="xtick_2">
     <g id="line2d_2">
      <path d="M 189.506156 450.72 
L 189.506156 7.2 
" clip-path="url(#p59e5a1ebc8)" style="fill: none; stroke: #ffffff; stroke-linecap: round"/>
     </g>
     <g id="text_2">
      <!-- −200 -->
      <g style="fill: #262626" transform="translate(177.118266 468.093594) scale(0.11 -0.11)">
       <defs>
        <path id="ArialMT-32" d="M 3222 541 
L 3222 0 
L 194 0 
Q 188 203 259 391 
Q 375 700 629 1000 
Q 884 1300 1366 1694 
Q 2113 2306 2375 2664 
Q 2638 3022 2638 3341 
Q 2638 3675 2398 3904 
Q 2159 4134 1775 4134 
Q 1369 4134 1125 3890 
Q 881 3647 878 3216 
L 300 3275 
Q 359 3922 746 4261 
Q 1134 4600 1788 4600 
Q 2447 4600 2831 4234 
Q 3216 3869 3216 3328 
Q 3216 3053 3103 2787 
Q 2991 2522 2730 2228 
Q 2469 1934 1863 1422 
Q 1356 997 1212 845 
Q 1069 694 975 541 
L 3222 541 
z
" transform="scale(0.015625)"/>
       </defs>
       <use xlink:href="#ArialMT-2212"/>
       <use xlink:href="#ArialMT-32" x="58.398438"/>
       <use xlink:href="#ArialMT-30" x="114.013672"/>
       <use xlink:href="#ArialMT-30" x="169.628906"/>
      </g>
     </g>
    </g>
    <g id="xtick_3">
     <g id="line2d_3">
      <path d="M 278.210156 450.72 
L 278.210156 7.2 
" clip-path="url(#p59e5a1ebc8)" style="fill: none; stroke: #ffffff; stroke-linecap: round"/>
     </g>
     <g id="text_3">
      <!-- 0 -->
      <g style="fill: #262626" transform="translate(275.151641 468.093594) scale(0.11 -0.11)">
       <use xlink:href="#ArialMT-30"/>
      </g>
     </g>
    </g>
    <g id="xtick_4">
     <g id="line2d_4">
      <path d="M 366.914156 450.72 
L 366.914156 7.2 
" clip-path="url(#p59e5a1ebc8)" style="fill: none; stroke: #ffffff; stroke-linecap: round"/>
     </g>
     <g id="text_4">
      <!-- 200 -->
      <g style="fill: #262626" transform="translate(357.738609 468.093594) scale(0.11 -0.11)">
       <use xlink:href="#ArialMT-32"/>
       <use xlink:href="#ArialMT-30" x="55.615234"/>
       <use xlink:href="#ArialMT-30" x="111.230469"/>
      </g>
     </g>
    </g>
    <g id="xtick_5">
     <g id="line2d_5">
      <path d="M 455.618156 450.72 
L 455.618156 7.2 
" clip-path="url(#p59e5a1ebc8)" style="fill: none; stroke: #ffffff; stroke-linecap: round"/>
     </g>
     <g id="text_5">
      <!-- 400 -->
      <g style="fill: #262626" transform="translate(446.442609 468.093594) scale(0.11 -0.11)">
       <use xlink:href="#ArialMT-34"/>
       <use xlink:href="#ArialMT-30" x="55.615234"/>
       <use xlink:href="#ArialMT-30" x="111.230469"/>
      </g>
     </g>
    </g>
    <g id="text_6">
     <!-- x -->
     <g style="fill: #262626" transform="translate(275.210156 482.869219) scale(0.12 -0.12)">
      <defs>
       <path id="ArialMT-78" d="M 47 0 
L 1259 1725 
L 138 3319 
L 841 3319 
L 1350 2541 
Q 1494 2319 1581 2169 
Q 1719 2375 1834 2534 
L 2394 3319 
L 3066 3319 
L 1919 1756 
L 3153 0 
L 2463 0 
L 1781 1031 
L 1600 1309 
L 728 0 
L 47 0 
z
" transform="scale(0.015625)"/>
      </defs>
      <use xlink:href="#ArialMT-78"/>
     </g>
    </g>
   </g>
   <g id="matplotlib.axis_2">
    <g id="ytick_1">
     <g id="line2d_6">
      <path d="M 56.450156 406.368 
L 499.970156 406.368 
" clip-path="url(#p59e5a1ebc8)" style="fill: none; stroke: #ffffff; stroke-linecap: round"/>
     </g>
     <g id="text_7">
      <!-- −400 -->
      <g style="fill: #262626" transform="translate(22.174375 410.304797) scale(0.11 -0.11)">
       <use xlink:href="#ArialMT-2212"/>
       <use xlink:href="#ArialMT-34" x="58.398438"/>
       <use xlink:href="#ArialMT-30" x="114.013672"/>
       <use xlink:href="#ArialMT-30" x="169.628906"/>
      </g>
     </g>
    </g>
    <g id="ytick_2">
     <g id="line2d_7">
      <path d="M 56.450156 317.664 
L 499.970156 317.664 
" clip-path="url(#p59e5a1ebc8)" style="fill: none; stroke: #ffffff; stroke-linecap: round"/>
     </g>
     <g id="text_8">
      <!-- −200 -->
      <g style="fill: #262626" transform="translate(22.174375 321.600797) scale(0.11 -0.11)">
       <use xlink:href="#ArialMT-2212"/>
       <use xlink:href="#ArialMT-32" x="58.398438"/>
       <use xlink:href="#ArialMT-30" x="114.013672"/>
       <use xlink:href="#ArialMT-30" x="169.628906"/>
      </g>
     </g>
    </g>
    <g id="ytick_3">
     <g id="line2d_8">
      <path d="M 56.450156 228.96 
L 499.970156 228.96 
" clip-path="url(#p59e5a1ebc8)" style="fill: none; stroke: #ffffff; stroke-linecap: round"/>
     </g>
     <g id="text_9">
      <!-- 0 -->
      <g style="fill: #262626" transform="translate(40.833125 232.896797) scale(0.11 -0.11)">
       <use xlink:href="#ArialMT-30"/>
      </g>
     </g>
    </g>
    <g id="ytick_4">
     <g id="line2d_9">
      <path d="M 56.450156 140.256 
L 499.970156 140.256 
" clip-path="url(#p59e5a1ebc8)" style="fill: none; stroke: #ffffff; stroke-linecap: round"/>
     </g>
     <g id="text_10">
      <!-- 200 -->
      <g style="fill: #262626" transform="translate(28.599063 144.192797) scale(0.11 -0.11)">
       <use xlink:href="#ArialMT-32"/>
       <use xlink:href="#ArialMT-30" x="55.615234"/>
       <use xlink:href="#ArialMT-30" x="111.230469"/>
      </g>
     </g>
    </g>
    <g id="ytick_5">
     <g id="line2d_10">
      <path d="M 56.450156 51.552 
L 499.970156 51.552 
" clip-path="url(#p59e5a1ebc8)" style="fill: none; stroke: #ffffff; stroke-linecap: round"/>
     </g>
     <g id="text_11">
      <!-- 400 -->
      <g style="fill: #262626" transform="translate(28.599063 55.488797) scale(0.11 -0.11)">
       <use xlink:href="#ArialMT-34"/>
       <use xlink:href="#ArialMT-30" x="55.615234"/>
       <use xlink:href="#ArialMT-30" x="111.230469"/>
      </g>
     </g>
    </g>
    <g id="text_12">
     <!-- y -->
     <g style="fill: #262626" transform="translate(15.64875 231.96) rotate(-90) scale(0.12 -0.12)">
      <defs>
       <path id="ArialMT-79" d="M 397 -1278 
L 334 -750 
Q 519 -800 656 -800 
Q 844 -800 956 -737 
Q 1069 -675 1141 -563 
Q 1194 -478 1313 -144 
Q 1328 -97 1363 -6 
L 103 3319 
L 709 3319 
L 1400 1397 
Q 1534 1031 1641 628 
Q 1738 1016 1872 1384 
L 2581 3319 
L 3144 3319 
L 1881 -56 
Q 1678 -603 1566 -809 
Q 1416 -1088 1222 -1217 
Q 1028 -1347 759 -1347 
Q 597 -1347 397 -1278 
z
" transform="scale(0.015625)"/>
      </defs>
      <use xlink:href="#ArialMT-79"/>
     </g>
    </g>
   </g>
   <g id="patch_3">
    <path d="M 278.210156 317.664 
C 301.734732 317.664 324.298969 308.317587 340.933356 291.6832 
C 357.567743 275.048813 366.914156 252.484576 366.914156 228.96 
C 366.914156 205.435424 357.567743 182.871187 340.933356 166.2368 
C 324.298969 149.602413 301.734732 140.256 278.210156 140.256 
C 254.68558 140.256 232.121343 149.602413 215.486956 166.2368 
C 198.852569 182.871187 189.506156 205.435424 189.506156 228.96 
C 189.506156 252.484576 198.852569 275.048813 215.486956 291.6832 
C 232.121343 308.317587 254.68558 317.664 278.210156 317.664 
z
" clip-path="url(#p59e5a1ebc8)" style="fill: #228b22; opacity: 0.12; stroke: #228b22; stroke-width: 1.5; stroke-linejoin: miter"/>
   </g>
   <g id="PathCollection_1">
    <defs>
     <path id="mc59ce1be64" d="M 0 2.236068 
C 0.593012 2.236068 1.161816 2.000462 1.581139 1.581139 
C 2.000462 1.161816 2.236068 0.593012 2.236068 0 
C 2.236068 -0.593012 2.000462 -1.161816 1.581139 -1.581139 
C 1.161816 -2.000462 0.593012 -2.236068 0 -2.236068 
C -0.593012 -2.236068 -1.161816 -2.000462 -1.581139 -1.581139 
C -2.000462 -1.161816 -2.236068 -0.593012 -2.236068 0 
C -2.236068 0.593012 -2.000462 1.161816 -1.581139 1.581139 
C -1.161816 2.000462 -0.593012 2.236068 0 2.236068 
z
" style="stroke: #4169e1"/>
    </defs>
    <g clip-path="url(#p59e5a1ebc8)">
     <use xlink:href="#mc59ce1be64" x="289.735199" y="267.691692" style="fill: #4169e1; stroke: #4169e1"/>
     <use xlink:href="#mc59ce1be64" x="268.865795" y="172.848819" style="fill: #4169e1; stroke: #4169e1"/>
     <use xlink:href="#mc59ce1be64" x="283.040414" y="64.866046" style="fill: #4169e1; stroke: #4169e1"/>
     <use xlink:href="#mc59ce1be64" x="333.41499" y="263.807576" style="fill: #4169e1; stroke: #4169e1"/>
     <use xlink:href="#mc59ce1be64" x="372.008214" y="98.446714" style="fill: #4169e1; stroke: #4169e1"/>
     <use xlink:href="#mc59ce1be64" x="351.740407" y="163.414415" style="fill: #4169e1; stroke: #4169e1"/>
     <use xlink:href="#mc59ce1be64" x="406.538637" y="287.544833" style="fill: #4169e1; stroke: #4169e1"/>
     <use xlink:href="#mc59ce1be64" x="339.106476" y="157.088009" style="fill: #4169e1; stroke: #4169e1"/>
     <use xlink:href="#mc59ce1be64" x="369.831449" y="195.320105" style="fill: #4169e1; stroke: #4169e1"/>
     <use xlink:href="#mc59ce1be64" x="358.120433" y="198.219197" style="fill: #4169e1; stroke: #4169e1"/>
     <use xlink:href="#mc59ce1be64" x="411.297274" y="235.509155" style="fill: #4169e1; stroke: #4169e1"/>
     <use xlink:href="#mc59ce1be64" x="233.735995" y="217.330115" style="fill: #4169e1; stroke: #4169e1"/>
     <use xlink:href="#mc59ce1be64" x="403.04321" y="206.910872" style="fill: #4169e1; stroke: #4169e1"/>
     <use xlink:href="#mc59ce1be64" x="192.533301" y="153.375715" style="fill: #4169e1; stroke: #4169e1"/>
     <use xlink:href="#mc59ce1be64" x="392.252456" y="107.33111" style="fill: #4169e1; stroke: #4169e1"/>
     <use xlink:href="#mc59ce1be64" x="317.004652" y="94.000186" style="fill: #4169e1; stroke: #4169e1"/>
     <use xlink:href="#mc59ce1be64" x="384.26086" y="117.26517" style="fill: #4169e1; stroke: #4169e1"/>
     <use xlink:href="#mc59ce1be64" x="396.72703" y="274.801703" style="fill: #4169e1; stroke: #4169e1"/>
     <use xlink:href="#mc59ce1be64" x="410.856325" y="197.020263" style="fill: #4169e1; stroke: #4169e1"/>
     <use xlink:href="#mc59ce1be64" x="282.640419" y="184.254496" style="fill: #4169e1; stroke: #4169e1"/>
     <use xlink:href="#mc59ce1be64" x="282.396249" y="333.357858" style="fill: #4169e1; stroke: #4169e1"/>
     <use xlink:href="#mc59ce1be64" x="224.238968" y="290.162918" style="fill: #4169e1; stroke: #4169e1"/>
     <use xlink:href="#mc59ce1be64" x="258.41484" y="210.849377" style="fill: #4169e1; stroke: #4169e1"/>
     <use xlink:href="#mc59ce1be64" x="285.93602" y="235.138373" style="fill: #4169e1; stroke: #4169e1"/>
     <use xlink:href="#mc59ce1be64" x="164.644998" y="236.424839" style="fill: #4169e1; stroke: #4169e1"/>
     <use xlink:href="#mc59ce1be64" x="180.277697" y="168.027806" style="fill: #4169e1; stroke: #4169e1"/>
     <use xlink:href="#mc59ce1be64" x="240.050209" y="209.056823" style="fill: #4169e1; stroke: #4169e1"/>
     <use xlink:href="#mc59ce1be64" x="233.59147" y="241.075031" style="fill: #4169e1; stroke: #4169e1"/>
     <use xlink:href="#mc59ce1be64" x="251.80591" y="183.34226" style="fill: #4169e1; stroke: #4169e1"/>
     <use xlink:href="#mc59ce1be64" x="392.258818" y="318.290745" style="fill: #4169e1; stroke: #4169e1"/>
     <use xlink:href="#mc59ce1be64" x="438.461195" y="209.465671" style="fill: #4169e1; stroke: #4169e1"/>
     <use xlink:href="#mc59ce1be64" x="358.539326" y="162.151673" style="fill: #4169e1; stroke: #4169e1"/>
     <use xlink:href="#mc59ce1be64" x="315.895104" y="224.470222" style="fill: #4169e1; stroke: #4169e1"/>
     <use xlink:href="#mc59ce1be64" x="332.632465" y="95.9313" style="fill: #4169e1; stroke: #4169e1"/>
     <use xlink:href="#mc59ce1be64" x="440.495881" y="263.261886" style="fill: #4169e1; stroke: #4169e1"/>
     <use xlink:href="#mc59ce1be64" x="239.641062" y="191.472053" style="fill: #4169e1; stroke: #4169e1"/>
     <use xlink:href="#mc59ce1be64" x="283.663258" y="270.102473" style="fill: #4169e1; stroke: #4169e1"/>
     <use xlink:href="#mc59ce1be64" x="361.58902" y="222.158864" style="fill: #4169e1; stroke: #4169e1"/>
     <use xlink:href="#mc59ce1be64" x="230.389387" y="245.38713" style="fill: #4169e1; stroke: #4169e1"/>
     <use xlink:href="#mc59ce1be64" x="360.745969" y="70.605318" style="fill: #4169e1; stroke: #4169e1"/>
     <use xlink:href="#mc59ce1be64" x="258.697088" y="171.206348" style="fill: #4169e1; stroke: #4169e1"/>
     <use xlink:href="#mc59ce1be64" x="202.211993" y="237.592465" style="fill: #4169e1; stroke: #4169e1"/>
     <use xlink:href="#mc59ce1be64" x="387.464442" y="140.25688" style="fill: #4169e1; stroke: #4169e1"/>
     <use xlink:href="#mc59ce1be64" x="243.761874" y="116.357293" style="fill: #4169e1; stroke: #4169e1"/>
     <use xlink:href="#mc59ce1be64" x="340.769973" y="186.675773" style="fill: #4169e1; stroke: #4169e1"/>
     <use xlink:href="#mc59ce1be64" x="223.154074" y="119.978908" style="fill: #4169e1; stroke: #4169e1"/>
     <use xlink:href="#mc59ce1be64" x="445.603115" y="265.966159" style="fill: #4169e1; stroke: #4169e1"/>
     <use xlink:href="#mc59ce1be64" x="360.490046" y="294.054972" style="fill: #4169e1; stroke: #4169e1"/>
     <use xlink:href="#mc59ce1be64" x="290.030967" y="137.412595" style="fill: #4169e1; stroke: #4169e1"/>
     <use xlink:href="#mc59ce1be64" x="275.032786" y="136.315672" style="fill: #4169e1; stroke: #4169e1"/>
     <use xlink:href="#mc59ce1be64" x="333.562107" y="142.625167" style="fill: #4169e1; stroke: #4169e1"/>
     <use xlink:href="#mc59ce1be64" x="265.084489" y="234.696624" style="fill: #4169e1; stroke: #4169e1"/>
     <use xlink:href="#mc59ce1be64" x="438.748398" y="146.201446" style="fill: #4169e1; stroke: #4169e1"/>
     <use xlink:href="#mc59ce1be64" x="217.918588" y="286.477471" style="fill: #4169e1; stroke: #4169e1"/>
     <use xlink:href="#mc59ce1be64" x="204.133911" y="154.358631" style="fill: #4169e1; stroke: #4169e1"/>
     <use xlink:href="#mc59ce1be64" x="272.106128" y="274.424965" style="fill: #4169e1; stroke: #4169e1"/>
     <use xlink:href="#mc59ce1be64" x="378.579106" y="238.269283" style="fill: #4169e1; stroke: #4169e1"/>
     <use xlink:href="#mc59ce1be64" x="465.951571" y="146.153301" style="fill: #4169e1; stroke: #4169e1"/>
     <use xlink:href="#mc59ce1be64" x="366.460959" y="191.684806" style="fill: #4169e1; stroke: #4169e1"/>
     <use xlink:href="#mc59ce1be64" x="281.152393" y="83.532461" style="fill: #4169e1; stroke: #4169e1"/>
     <use xlink:href="#mc59ce1be64" x="162.740737" y="177.23649" style="fill: #4169e1; stroke: #4169e1"/>
     <use xlink:href="#mc59ce1be64" x="471.54201" y="202.101591" style="fill: #4169e1; stroke: #4169e1"/>
     <use xlink:href="#mc59ce1be64" x="370.535325" y="106.993313" style="fill: #4169e1; stroke: #4169e1"/>
     <use xlink:href="#mc59ce1be64" x="229.992137" y="217.188334" style="fill: #4169e1; stroke: #4169e1"/>
     <use xlink:href="#mc59ce1be64" x="348.189337" y="58.581835" style="fill: #4169e1; stroke: #4169e1"/>
     <use xlink:href="#mc59ce1be64" x="301.971279" y="170.075397" style="fill: #4169e1; stroke: #4169e1"/>
     <use xlink:href="#mc59ce1be64" x="333.031725" y="302.404397" style="fill: #4169e1; stroke: #4169e1"/>
     <use xlink:href="#mc59ce1be64" x="413.739544" y="232.900669" style="fill: #4169e1; stroke: #4169e1"/>
     <use xlink:href="#mc59ce1be64" x="308.058329" y="250.098276" style="fill: #4169e1; stroke: #4169e1"/>
     <use xlink:href="#mc59ce1be64" x="199.636375" y="134.920394" style="fill: #4169e1; stroke: #4169e1"/>
     <use xlink:href="#mc59ce1be64" x="423.927469" y="187.592603" style="fill: #4169e1; stroke: #4169e1"/>
     <use xlink:href="#mc59ce1be64" x="327.835409" y="254.644597" style="fill: #4169e1; stroke: #4169e1"/>
     <use xlink:href="#mc59ce1be64" x="288.872125" y="153.322623" style="fill: #4169e1; stroke: #4169e1"/>
     <use xlink:href="#mc59ce1be64" x="165.278017" y="258.934152" style="fill: #4169e1; stroke: #4169e1"/>
     <use xlink:href="#mc59ce1be64" x="420.691092" y="192.628436" style="fill: #4169e1; stroke: #4169e1"/>
     <use xlink:href="#mc59ce1be64" x="232.146443" y="159.250859" style="fill: #4169e1; stroke: #4169e1"/>
     <use xlink:href="#mc59ce1be64" x="356.826824" y="104.378158" style="fill: #4169e1; stroke: #4169e1"/>
     <use xlink:href="#mc59ce1be64" x="295.026234" y="292.024875" style="fill: #4169e1; stroke: #4169e1"/>
     <use xlink:href="#mc59ce1be64" x="241.589972" y="188.978949" style="fill: #4169e1; stroke: #4169e1"/>
     <use xlink:href="#mc59ce1be64" x="236.573481" y="271.070334" style="fill: #4169e1; stroke: #4169e1"/>
     <use xlink:href="#mc59ce1be64" x="350.270631" y="261.009352" style="fill: #4169e1; stroke: #4169e1"/>
     <use xlink:href="#mc59ce1be64" x="414.034055" y="186.914749" style="fill: #4169e1; stroke: #4169e1"/>
     <use xlink:href="#mc59ce1be64" x="262.942121" y="257.841821" style="fill: #4169e1; stroke: #4169e1"/>
     <use xlink:href="#mc59ce1be64" x="237.006342" y="232.5152" style="fill: #4169e1; stroke: #4169e1"/>
     <use xlink:href="#mc59ce1be64" x="292.604348" y="278.362237" style="fill: #4169e1; stroke: #4169e1"/>
     <use xlink:href="#mc59ce1be64" x="419.283083" y="233.034876" style="fill: #4169e1; stroke: #4169e1"/>
     <use xlink:href="#mc59ce1be64" x="309.203343" y="261.832513" style="fill: #4169e1; stroke: #4169e1"/>
     <use xlink:href="#mc59ce1be64" x="234.715016" y="246.450413" style="fill: #4169e1; stroke: #4169e1"/>
     <use xlink:href="#mc59ce1be64" x="432.474596" y="151.854011" style="fill: #4169e1; stroke: #4169e1"/>
     <use xlink:href="#mc59ce1be64" x="413.913755" y="152.081856" style="fill: #4169e1; stroke: #4169e1"/>
     <use xlink:href="#mc59ce1be64" x="389.507147" y="173.636964" style="fill: #4169e1; stroke: #4169e1"/>
     <use xlink:href="#mc59ce1be64" x="328.918743" y="217.401183" style="fill: #4169e1; stroke: #4169e1"/>
     <use xlink:href="#mc59ce1be64" x="378.265577" y="152.581438" style="fill: #4169e1; stroke: #4169e1"/>
     <use xlink:href="#mc59ce1be64" x="188.111507" y="206.20079" style="fill: #4169e1; stroke: #4169e1"/>
     <use xlink:href="#mc59ce1be64" x="413.405117" y="167.179443" style="fill: #4169e1; stroke: #4169e1"/>
     <use xlink:href="#mc59ce1be64" x="191.973656" y="283.537442" style="fill: #4169e1; stroke: #4169e1"/>
     <use xlink:href="#mc59ce1be64" x="245.466434" y="173.682368" style="fill: #4169e1; stroke: #4169e1"/>
     <use xlink:href="#mc59ce1be64" x="393.453458" y="181.707372" style="fill: #4169e1; stroke: #4169e1"/>
     <use xlink:href="#mc59ce1be64" x="349.144702" y="233.785444" style="fill: #4169e1; stroke: #4169e1"/>
     <use xlink:href="#mc59ce1be64" x="172.874048" y="177.292644" style="fill: #4169e1; stroke: #4169e1"/>
     <use xlink:href="#mc59ce1be64" x="404.759712" y="218.306023" style="fill: #4169e1; stroke: #4169e1"/>
     <use xlink:href="#mc59ce1be64" x="446.918029" y="231.087937" style="fill: #4169e1; stroke: #4169e1"/>
     <use xlink:href="#mc59ce1be64" x="383.256517" y="291.947954" style="fill: #4169e1; stroke: #4169e1"/>
     <use xlink:href="#mc59ce1be64" x="374.167403" y="88.398512" style="fill: #4169e1; stroke: #4169e1"/>
     <use xlink:href="#mc59ce1be64" x="290.567031" y="161.532494" style="fill: #4169e1; stroke: #4169e1"/>
     <use xlink:href="#mc59ce1be64" x="226.344216" y="186.225055" style="fill: #4169e1; stroke: #4169e1"/>
     <use xlink:href="#mc59ce1be64" x="325.681986" y="82.91427" style="fill: #4169e1; stroke: #4169e1"/>
     <use xlink:href="#mc59ce1be64" x="277.122657" y="236.357078" style="fill: #4169e1; stroke: #4169e1"/>
     <use xlink:href="#mc59ce1be64" x="242.997324" y="125.89616" style="fill: #4169e1; stroke: #4169e1"/>
     <use xlink:href="#mc59ce1be64" x="429.224168" y="219.844475" style="fill: #4169e1; stroke: #4169e1"/>
     <use xlink:href="#mc59ce1be64" x="218.488005" y="278.781306" style="fill: #4169e1; stroke: #4169e1"/>
     <use xlink:href="#mc59ce1be64" x="321.468607" y="129.177319" style="fill: #4169e1; stroke: #4169e1"/>
     <use xlink:href="#mc59ce1be64" x="282.123721" y="308.414846" style="fill: #4169e1; stroke: #4169e1"/>
     <use xlink:href="#mc59ce1be64" x="226.636974" y="152.184012" style="fill: #4169e1; stroke: #4169e1"/>
     <use xlink:href="#mc59ce1be64" x="296.282177" y="248.530312" style="fill: #4169e1; stroke: #4169e1"/>
     <use xlink:href="#mc59ce1be64" x="303.708284" y="240.189605" style="fill: #4169e1; stroke: #4169e1"/>
     <use xlink:href="#mc59ce1be64" x="317.75031" y="259.720639" style="fill: #4169e1; stroke: #4169e1"/>
     <use xlink:href="#mc59ce1be64" x="223.047309" y="120.458594" style="fill: #4169e1; stroke: #4169e1"/>
     <use xlink:href="#mc59ce1be64" x="338.009126" y="282.318026" style="fill: #4169e1; stroke: #4169e1"/>
     <use xlink:href="#mc59ce1be64" x="332.983418" y="257.42845" style="fill: #4169e1; stroke: #4169e1"/>
     <use xlink:href="#mc59ce1be64" x="382.97278" y="227.111601" style="fill: #4169e1; stroke: #4169e1"/>
     <use xlink:href="#mc59ce1be64" x="394.42382" y="177.340846" style="fill: #4169e1; stroke: #4169e1"/>
     <use xlink:href="#mc59ce1be64" x="379.189771" y="226.593789" style="fill: #4169e1; stroke: #4169e1"/>
     <use xlink:href="#mc59ce1be64" x="421.122078" y="246.156249" style="fill: #4169e1; stroke: #4169e1"/>
     <use xlink:href="#mc59ce1be64" x="353.585425" y="65.652912" style="fill: #4169e1; stroke: #4169e1"/>
     <use xlink:href="#mc59ce1be64" x="195.169002" y="174.729891" style="fill: #4169e1; stroke: #4169e1"/>
     <use xlink:href="#mc59ce1be64" x="296.432111" y="316.892422" style="fill: #4169e1; stroke: #4169e1"/>
     <use xlink:href="#mc59ce1be64" x="430.938667" y="203.072362" style="fill: #4169e1; stroke: #4169e1"/>
     <use xlink:href="#mc59ce1be64" x="465.430969" y="211.660299" style="fill: #4169e1; stroke: #4169e1"/>
     <use xlink:href="#mc59ce1be64" x="173.182568" y="221.280856" style="fill: #4169e1; stroke: #4169e1"/>
     <use xlink:href="#mc59ce1be64" x="280.509491" y="205.534196" style="fill: #4169e1; stroke: #4169e1"/>
     <use xlink:href="#mc59ce1be64" x="297.765175" y="257.545066" style="fill: #4169e1; stroke: #4169e1"/>
     <use xlink:href="#mc59ce1be64" x="323.851231" y="256.542909" style="fill: #4169e1; stroke: #4169e1"/>
     <use xlink:href="#mc59ce1be64" x="197.495492" y="308.851348" style="fill: #4169e1; stroke: #4169e1"/>
     <use xlink:href="#mc59ce1be64" x="288.110143" y="251.077931" style="fill: #4169e1; stroke: #4169e1"/>
     <use xlink:href="#mc59ce1be64" x="336.200214" y="274.636892" style="fill: #4169e1; stroke: #4169e1"/>
     <use xlink:href="#mc59ce1be64" x="254.351702" y="177.389376" style="fill: #4169e1; stroke: #4169e1"/>
     <use xlink:href="#mc59ce1be64" x="244.76513" y="249.727552" style="fill: #4169e1; stroke: #4169e1"/>
     <use xlink:href="#mc59ce1be64" x="394.52153" y="212.527429" style="fill: #4169e1; stroke: #4169e1"/>
     <use xlink:href="#mc59ce1be64" x="294.430897" y="173.416822" style="fill: #4169e1; stroke: #4169e1"/>
     <use xlink:href="#mc59ce1be64" x="343.82791" y="180.275995" style="fill: #4169e1; stroke: #4169e1"/>
     <use xlink:href="#mc59ce1be64" x="368.524562" y="227.633911" style="fill: #4169e1; stroke: #4169e1"/>
     <use xlink:href="#mc59ce1be64" x="242.06218" y="181.42979" style="fill: #4169e1; stroke: #4169e1"/>
     <use xlink:href="#mc59ce1be64" x="272.771281" y="113.600256" style="fill: #4169e1; stroke: #4169e1"/>
     <use xlink:href="#mc59ce1be64" x="312.268971" y="175.869534" style="fill: #4169e1; stroke: #4169e1"/>
     <use xlink:href="#mc59ce1be64" x="311.158161" y="111.724012" style="fill: #4169e1; stroke: #4169e1"/>
     <use xlink:href="#mc59ce1be64" x="415.825447" y="276.667193" style="fill: #4169e1; stroke: #4169e1"/>
     <use xlink:href="#mc59ce1be64" x="260.852794" y="110.814112" style="fill: #4169e1; stroke: #4169e1"/>
     <use xlink:href="#mc59ce1be64" x="185.144804" y="255.481098" style="fill: #4169e1; stroke: #4169e1"/>
     <use xlink:href="#mc59ce1be64" x="343.708902" y="307.468258" style="fill: #4169e1; stroke: #4169e1"/>
    </g>
   </g>
   <g id="PathCollection_2">
    <defs>
     <path id="md4d3906bc4" d="M 0 2.5 
C 0.663008 2.5 1.29895 2.236584 1.767767 1.767767 
C 2.236584 1.29895 2.5 0.663008 2.5 0 
C 2.5 -0.663008 2.236584 -1.29895 1.767767 -1.767767 
C 1.29895 -2.236584 0.663008 -2.5 0 -2.5 
C -0.663008 -2.5 -1.29895 -2.236584 -1.767767 -1.767767 
C -2.236584 -1.29895 -2.5 -0.663008 -2.5 0 
C -2.5 0.663008 -2.236584 1.29895 -1.767767 1.767767 
C -1.29895 2.236584 -0.663008 2.5 0 2.5 
z
" style="stroke: #b22222"/>
    </defs>
    <g clip-path="url(#p59e5a1ebc8)">
     <use xlink:href="#md4d3906bc4" x="347.662623" y="197.940034" style="fill: #b22222; stroke: #b22222"/>
     <use xlink:href="#md4d3906bc4" x="314.65928" y="197.620083" style="fill: #b22222; stroke: #b22222"/>
     <use xlink:href="#md4d3906bc4" x="309.873702" y="188.780632" style="fill: #b22222; stroke: #b22222"/>
     <use xlink:href="#md4d3906bc4" x="273.092803" y="187.380711" style="fill: #b22222; stroke: #b22222"/>
     <use xlink:href="#md4d3906bc4" x="311.910929" y="182.411072" style="fill: #b22222; stroke: #b22222"/>
     <use xlink:href="#md4d3906bc4" x="320.362724" y="201.019143" style="fill: #b22222; stroke: #b22222"/>
     <use xlink:href="#md4d3906bc4" x="329.96989" y="206.241452" style="fill: #b22222; stroke: #b22222"/>
     <use xlink:href="#md4d3906bc4" x="314.719213" y="232.874725" style="fill: #b22222; stroke: #b22222"/>
     <use xlink:href="#md4d3906bc4" x="260.762866" y="212.133229" style="fill: #b22222; stroke: #b22222"/>
     <use xlink:href="#md4d3906bc4" x="328.119894" y="219.836192" style="fill: #b22222; stroke: #b22222"/>
     <use xlink:href="#md4d3906bc4" x="325.970383" y="210.443358" style="fill: #b22222; stroke: #b22222"/>
     <use xlink:href="#md4d3906bc4" x="318.577559" y="189.599085" style="fill: #b22222; stroke: #b22222"/>
     <use xlink:href="#md4d3906bc4" x="347.033062" y="211.525572" style="fill: #b22222; stroke: #b22222"/>
     <use xlink:href="#md4d3906bc4" x="293.683743" y="177.421214" style="fill: #b22222; stroke: #b22222"/>
     <use xlink:href="#md4d3906bc4" x="324.201152" y="203.702833" style="fill: #b22222; stroke: #b22222"/>
     <use xlink:href="#md4d3906bc4" x="330.656816" y="223.346903" style="fill: #b22222; stroke: #b22222"/>
     <use xlink:href="#md4d3906bc4" x="327.234824" y="212.058128" style="fill: #b22222; stroke: #b22222"/>
     <use xlink:href="#md4d3906bc4" x="315.120084" y="197.575932" style="fill: #b22222; stroke: #b22222"/>
     <use xlink:href="#md4d3906bc4" x="335.258904" y="198.411031" style="fill: #b22222; stroke: #b22222"/>
     <use xlink:href="#md4d3906bc4" x="316.661346" y="200.089315" style="fill: #b22222; stroke: #b22222"/>
     <use xlink:href="#md4d3906bc4" x="341.948303" y="220.094843" style="fill: #b22222; stroke: #b22222"/>
     <use xlink:href="#md4d3906bc4" x="317.859265" y="198.109342" style="fill: #b22222; stroke: #b22222"/>
     <use xlink:href="#md4d3906bc4" x="352.23915" y="222.561159" style="fill: #b22222; stroke: #b22222"/>
     <use xlink:href="#md4d3906bc4" x="319.651472" y="195.668808" style="fill: #b22222; stroke: #b22222"/>
     <use xlink:href="#md4d3906bc4" x="309.902359" y="180.664471" style="fill: #b22222; stroke: #b22222"/>
     <use xlink:href="#md4d3906bc4" x="321.237396" y="201.833165" style="fill: #b22222; stroke: #b22222"/>
     <use xlink:href="#md4d3906bc4" x="296.385668" y="238.990049" style="fill: #b22222; stroke: #b22222"/>
     <use xlink:href="#md4d3906bc4" x="320.703549" y="196.677742" style="fill: #b22222; stroke: #b22222"/>
     <use xlink:href="#md4d3906bc4" x="251.403167" y="197.890932" style="fill: #b22222; stroke: #b22222"/>
     <use xlink:href="#md4d3906bc4" x="317.706179" y="187.920526" style="fill: #b22222; stroke: #b22222"/>
     <use xlink:href="#md4d3906bc4" x="313.069017" y="187.942074" style="fill: #b22222; stroke: #b22222"/>
     <use xlink:href="#md4d3906bc4" x="347.350475" y="215.68533" style="fill: #b22222; stroke: #b22222"/>
     <use xlink:href="#md4d3906bc4" x="334.944743" y="210.568279" style="fill: #b22222; stroke: #b22222"/>
     <use xlink:href="#md4d3906bc4" x="242.880038" y="182.68143" style="fill: #b22222; stroke: #b22222"/>
     <use xlink:href="#md4d3906bc4" x="287.01097" y="180.822528" style="fill: #b22222; stroke: #b22222"/>
     <use xlink:href="#md4d3906bc4" x="323.980444" y="212.809515" style="fill: #b22222; stroke: #b22222"/>
     <use xlink:href="#md4d3906bc4" x="317.063912" y="185.521532" style="fill: #b22222; stroke: #b22222"/>
     <use xlink:href="#md4d3906bc4" x="320.804078" y="184.543129" style="fill: #b22222; stroke: #b22222"/>
     <use xlink:href="#md4d3906bc4" x="318.992919" y="201.918832" style="fill: #b22222; stroke: #b22222"/>
    </g>
   </g>
   <g id="patch_4">
    <path d="M 56.450156 450.72 
L 56.450156 7.2 
" style="fill: none; stroke: #ffffff; stroke-width: 1.25; stroke-linejoin: miter; stroke-linecap: square"/>
   </g>
   <g id="patch_5">
    <path d="M 499.970156 450.72 
L 499.970156 7.2 
" style="fill: none; stroke: #ffffff; stroke-width: 1.25; stroke-linejoin: miter; stroke-linecap: square"/>
   </g>
   <g id="patch_6">
    <path d="M 56.450156 450.72 
L 499.970156 450.72 
" style="fill: none; stroke: #ffffff; stroke-width: 1.25; stroke-linejoin: miter; stroke-linecap: square"/>
   </g>
   <g id="patch_7">
    <path d="M 56.450156 7.2 
L 499.970156 7.2 
" style="fill: none; stroke: #ffffff; stroke-width: 1.25; stroke-linejoin: miter; stroke-linecap: square"/>
   </g>
   <g id="text_13">
    <!-- t = 2800 -->
    <g style="fill: #262626" transform="translate(65.320556 24.659775) scale(0.12 -0.12)">
     <defs>
      <path id="ArialMT-74" d="M 1650 503 
L 1731 6 
Q 1494 -44 1306 -44 
Q 1000 -44 831 53 
Q 663 150 594 308 
Q 525 466 525 972 
L 525 2881 
L 113 2881 
L 113 3319 
L 525 3319 
L 525 4141 
L 1084 4478 
L 1084 3319 
L 1650 3319 
L 1650 2881 
L 1084 2881 
L 1084 941 
Q 1084 700 1114 631 
Q 1144 563 1211 522 
Q 1278 481 1403 481 
Q 1497 481 1650 503 
z
" transform="scale(0.015625)"/>
      <path id="ArialMT-20" transform="scale(0.015625)"/>
      <path id="ArialMT-3d" d="M 3381 2694 
L 356 2694 
L 356 3219 
L 3381 3219 
L 3381 2694 
z
M 3381 1303 
L 356 1303 
L 356 1828 
L 3381 1828 
L 3381 1303 
z
" transform="scale(0.015625)"/>
      <path id="ArialMT-38" d="M 1131 2484 
Q 781 2613 612 2850 
Q 444 3088 444 3419 
Q 444 3919 803 4259 
Q 1163 4600 1759 4600 
Q 2359 4600 2725 4251 
Q 3091 3903 3091 3403 
Q 3091 3084 2923 2848 
Q 2756 2613 2416 2484 
Q 2838 2347 3058 2040 
Q 3278 1734 3278 1309 
Q 3278 722 2862 322 
Q 2447 -78 1769 -78 
Q 1091 -78 675 323 
Q 259 725 259 1325 
Q 259 1772 486 2073 
Q 713 2375 1131 2484 
z
M 1019 3438 
Q 1019 3113 1228 2906 
Q 1438 2700 1772 2700 
Q 2097 2700 2305 2904 
Q 2513 3109 2513 3406 
Q 2513 3716 2298 3927 
Q 2084 4138 1766 4138 
Q 1444 4138 1231 3931 
Q 1019 3725 1019 3438 
z
M 838 1322 
Q 838 1081 952 856 
Q 1066 631 1291 507 
Q 1516 384 1775 384 
Q 2178 384 2440 643 
Q 2703 903 2703 1303 
Q 2703 1709 2433 1975 
Q 2163 2241 1756 2241 
Q 1359 2241 1098 1978 
Q 838 1716 838 1322 
z
" transform="scale(0.015625)"/>
     </defs>
     <use xlink:href="#ArialMT-74"/>
     <use xlink:href="#ArialMT-20" x="27.783203"/>
     <use xlink:href="#ArialMT-3d" x="55.566406"/>
     <use xlink:href="#ArialMT-20" x="113.964844"/>
     <use xlink:href="#ArialMT-32" x="141.748047"/>
     <use xlink:href="#ArialMT-38" x="197.363281"/>
     <use xlink:href="#ArialMT-30" x="252.978516"/>
     <use xlink:href="#ArialMT-30" x="308.59375"/>
    </g>
   </g>
   <g id="legend_1">
    <g id="patch_8">
     <path d="M 328.111406 94.59 
L 483.170156 94.59 
Q 487.970156 94.59 487.970156 89.79 
L 487.970156 24 
Q 487.970156 19.2 483.170156 19.2 
L 328.111406 19.2 
Q 323.311406 19.2 323.311406 24 
L 323.311406 89.79 
Q 323.311406 94.59 328.111406 94.59 
z
" style="fill: #eaeaf2; opacity: 0.8; stroke: #cccccc; stroke-linejoin: miter"/>
    </g>
    <g id="PathCollection_3">
     <g>
      <use xlink:href="#mc59ce1be64" x="356.911406" y="39.97125" style="fill: #4169e1; stroke: #4169e1"/>
     </g>
    </g>
    <g id="text_14">
     <!-- Sheep -->
     <g style="fill: #262626" transform="translate(400.111406 46.27125) scale(0.24 -0.24)">
      <defs>
       <path id="ArialMT-53" d="M 288 1472 
L 859 1522 
Q 900 1178 1048 958 
Q 1197 738 1509 602 
Q 1822 466 2213 466 
Q 2559 466 2825 569 
Q 3091 672 3220 851 
Q 3350 1031 3350 1244 
Q 3350 1459 3225 1620 
Q 3100 1781 2813 1891 
Q 2628 1963 1997 2114 
Q 1366 2266 1113 2400 
Q 784 2572 623 2826 
Q 463 3081 463 3397 
Q 463 3744 659 4045 
Q 856 4347 1234 4503 
Q 1613 4659 2075 4659 
Q 2584 4659 2973 4495 
Q 3363 4331 3572 4012 
Q 3781 3694 3797 3291 
L 3216 3247 
Q 3169 3681 2898 3903 
Q 2628 4125 2100 4125 
Q 1550 4125 1298 3923 
Q 1047 3722 1047 3438 
Q 1047 3191 1225 3031 
Q 1400 2872 2139 2705 
Q 2878 2538 3153 2413 
Q 3553 2228 3743 1945 
Q 3934 1663 3934 1294 
Q 3934 928 3725 604 
Q 3516 281 3123 101 
Q 2731 -78 2241 -78 
Q 1619 -78 1198 103 
Q 778 284 539 648 
Q 300 1013 288 1472 
z
" transform="scale(0.015625)"/>
       <path id="ArialMT-68" d="M 422 0 
L 422 4581 
L 984 4581 
L 984 2938 
Q 1378 3394 1978 3394 
Q 2347 3394 2619 3248 
Q 2891 3103 3008 2847 
Q 3125 2591 3125 2103 
L 3125 0 
L 2563 0 
L 2563 2103 
Q 2563 2525 2380 2717 
Q 2197 2909 1863 2909 
Q 1613 2909 1392 2779 
Q 1172 2650 1078 2428 
Q 984 2206 984 1816 
L 984 0 
L 422 0 
z
" transform="scale(0.015625)"/>
       <path id="ArialMT-65" d="M 2694 1069 
L 3275 997 
Q 3138 488 2766 206 
Q 2394 -75 1816 -75 
Q 1088 -75 661 373 
Q 234 822 234 1631 
Q 234 2469 665 2931 
Q 1097 3394 1784 3394 
Q 2450 3394 2872 2941 
Q 3294 2488 3294 1666 
Q 3294 1616 3291 1516 
L 816 1516 
Q 847 969 1125 678 
Q 1403 388 1819 388 
Q 2128 388 2347 550 
Q 2566 713 2694 1069 
z
M 847 1978 
L 2700 1978 
Q 2663 2397 2488 2606 
Q 2219 2931 1791 2931 
Q 1403 2931 1139 2672 
Q 875 2413 847 1978 
z
" transform="scale(0.015625)"/>
       <path id="ArialMT-70" d="M 422 -1272 
L 422 3319 
L 934 3319 
L 934 2888 
Q 1116 3141 1344 3267 
Q 1572 3394 1897 3394 
Q 2322 3394 2647 3175 
Q 2972 2956 3137 2557 
Q 3303 2159 3303 1684 
Q 3303 1175 3120 767 
Q 2938 359 2589 142 
Q 2241 -75 1856 -75 
Q 1575 -75 1351 44 
Q 1128 163 984 344 
L 984 -1272 
L 422 -1272 
z
M 931 1641 
Q 931 1000 1190 694 
Q 1450 388 1819 388 
Q 2194 388 2461 705 
Q 2728 1022 2728 1688 
Q 2728 2322 2467 2637 
Q 2206 2953 1844 2953 
Q 1484 2953 1207 2617 
Q 931 2281 931 1641 
z
" transform="scale(0.015625)"/>
      </defs>
      <use xlink:href="#ArialMT-53"/>
      <use xlink:href="#ArialMT-68" x="66.699219"/>
      <use xlink:href="#ArialMT-65" x="122.314453"/>
      <use xlink:href="#ArialMT-65" x="177.929688"/>
      <use xlink:href="#ArialMT-70" x="233.544922"/>
     </g>
    </g>
    <g id="PathCollection_4">
     <g>
      <use xlink:href="#md4d3906bc4" x="356.911406" y="73.92" style="fill: #b22222; stroke: #b22222"/>
     </g>
    </g>
    <g id="text_15">
     <!-- Wolves -->
     <g style="fill: #262626" transform="translate(400.111406 80.22) scale(0.24 -0.24)">
      <defs>
       <path id="ArialMT-57" d="M 1294 0 
L 78 4581 
L 700 4581 
L 1397 1578 
Q 1509 1106 1591 641 
Q 1766 1375 1797 1488 
L 2669 4581 
L 3400 4581 
L 4056 2263 
Q 4303 1400 4413 641 
Q 4500 1075 4641 1638 
L 5359 4581 
L 5969 4581 
L 4713 0 
L 4128 0 
L 3163 3491 
Q 3041 3928 3019 4028 
Q 2947 3713 2884 3491 
L 1913 0 
L 1294 0 
z
" transform="scale(0.015625)"/>
       <path id="ArialMT-6f" d="M 213 1659 
Q 213 2581 725 3025 
Q 1153 3394 1769 3394 
Q 2453 3394 2887 2945 
Q 3322 2497 3322 1706 
Q 3322 1066 3130 698 
Q 2938 331 2570 128 
Q 2203 -75 1769 -75 
Q 1072 -75 642 372 
Q 213 819 213 1659 
z
M 791 1659 
Q 791 1022 1069 705 
Q 1347 388 1769 388 
Q 2188 388 2466 706 
Q 2744 1025 2744 1678 
Q 2744 2294 2464 2611 
Q 2184 2928 1769 2928 
Q 1347 2928 1069 2612 
Q 791 2297 791 1659 
z
" transform="scale(0.015625)"/>
       <path id="ArialMT-6c" d="M 409 0 
L 409 4581 
L 972 4581 
L 972 0 
L 409 0 
z
" transform="scale(0.015625)"/>
       <path id="ArialMT-76" d="M 1344 0 
L 81 3319 
L 675 3319 
L 1388 1331 
Q 1503 1009 1600 663 
Q 1675 925 1809 1294 
L 2547 3319 
L 3125 3319 
L 1869 0 
L 1344 0 
z
" transform="scale(0.015625)"/>
       <path id="ArialMT-73" d="M 197 991 
L 753 1078 
Q 800 744 1014 566 
Q 1228 388 1613 388 
Q 2000 388 2187 545 
Q 2375 703 2375 916 
Q 2375 1106 2209 1216 
Q 2094 1291 1634 1406 
Q 1016 1563 777 1677 
Q 538 1791 414 1992 
Q 291 2194 291 2438 
Q 291 2659 392 2848 
Q 494 3038 669 3163 
Q 800 3259 1026 3326 
Q 1253 3394 1513 3394 
Q 1903 3394 2198 3281 
Q 2494 3169 2634 2976 
Q 2775 2784 2828 2463 
L 2278 2388 
Q 2241 2644 2061 2787 
Q 1881 2931 1553 2931 
Q 1166 2931 1000 2803 
Q 834 2675 834 2503 
Q 834 2394 903 2306 
Q 972 2216 1119 2156 
Q 1203 2125 1616 2013 
Q 2213 1853 2448 1751 
Q 2684 1650 2818 1456 
Q 2953 1263 2953 975 
Q 2953 694 2789 445 
Q 2625 197 2315 61 
Q 2006 -75 1616 -75 
Q 969 -75 630 194 
Q 291 463 197 991 
z
" transform="scale(0.015625)"/>
      </defs>
      <use xlink:href="#ArialMT-57"/>
      <use xlink:href="#ArialMT-6f" x="92.634766"/>
      <use xlink:href="#ArialMT-6c" x="148.25"/>
      <use xlink:href="#ArialMT-76" x="170.466797"/>
      <use xlink:href="#ArialMT-65" x="220.466797"/>
      <use xlink:href="#ArialMT-73" x="276.082031"/>
     </g>
    </g>
   </g>
  </g>
 </g>
 <defs>
  <clipPath id="p59e5a1ebc8">
   <rect x="56.450156" y="7.2" width="443.52" height="443.52"/>
  </clipPath>
 </defs>
</svg>
