<?xml version="1.0" encoding="utf-8" standalone="no"?>
<!DOCTYPE svg PUBLIC "-//W3C//DTD SVG 1.1//EN"
  "http://www.w3.org/Graphics/SVG/1.1/DTD/svg11.dtd">
<svg xmlns:xlink="http://www.w3.org/1999/xlink" width="507.170156pt" height="492.454219pt" viewBox="0 0 507.170156 492.454219" xmlns="http://www.w3.org/2000/svg" version="1.1">
 <metadata>
  <rdf:RDF xmlns:dc="http://purl.org/dc/elements/1.1/" xmlns:cc="http://creativecommons.org/ns#" xmlns:rdf="http://www.w3.org/1999/02/22-rdf-syntax-ns#">
   <cc:Work>
    <dc:type rdf:resource="http://purl.org/dc/dcmitype/StillImage"/>
    <dc:date>2026-05-12T10:43:19.409921</dc:date>
    <dc:format>image/svg+xml</dc:format>
    <dc:creator>
     <cc:Agent>
      <dc:title>Matplotlib v3.7.1, https://matplotlib.org/</dc:title>
     </cc:Agent>
    </dc:creator>
   </cc:Work>
  </rdf:RDF>
 </metadata>
 <defs>
  <style type="text/css">*{stroke-linejoin: round; stroke-linecap: butt}</style>
 </defs>
 <g id="figure_1">
  <g id="patch_1">
   <path d="M 0 492.454219 
L 507.170156 492.454219 
L 507.170156 0 
L 0 0 
z
" style="fill: #ffffff"/>
  </g>
  <g id="axes_1">
   <g id="patch_2">
    <path d="M 56.450156 450.72 
L 499.970156 450.72 
L 499.970156 7.2 
L 56.450156 7.2 
z
" style="fill: #eaeaf2"/>
   </g>
   <g id="matplotlib.axis_1">
    <g id="xtick_1">
     <g id="line2d_1">
      <path d="M 100.802156 450.72 
L 100.802156 7.2 
" clip-path="url(#p9ca103e367)" style="fill: none; stroke: #ffffff; stroke-linecap: round"/>
     </g>
     <g id="text_1">
      <!-- −400 -->
      <g style="fill: #262626" transform="translate(88.414266 468.093594) scale(0.11 -0.11)">
       <defs>
        <path id="ArialMT-2212" d="M 3381 1997 
L 356 1997 
L 356 2522 
L 3381 2522 
L 3381 1997 
z
" transform="scale(0.015625)"/>
        <path id="ArialMT-34" d="M 2069 0 
L 2069 1097 
L 81 1097 
L 81 1613 
L 2172 4581 
L 2631 4581 
L 2631 1613 
L 3250 1613 
L 3250 1097 
L 2631 1097 
L 2631 0 
L 2069 0 
z
M 2069 1613 
L 2069 3678 
L 634 1613 
L 2069 1613 
z
" transform="scale(0.015625)"/>
        <path id="ArialMT-30" d="M 266 2259 
Q 266 3072 433 3567 
Q 600 4063 929 4331 
Q 1259 4600 1759 4600 
Q 2128 4600 2406 4451 
Q 2684 4303 2865 4023 
Q 3047 3744 3150 3342 
Q 3253 2941 3253 2259 
Q 3253 1453 3087 958 
Q 2922 463 2592 192 
Q 2263 -78 1759 -78 
Q 1097 -78 719 397 
Q 266 969 266 2259 
z
M 844 2259 
Q 844 1131 1108 757 
Q 1372 384 1759 384 
Q 2147 384 2411 759 
Q 2675 1134 2675 2259 
Q 2675 3391 2411 3762 
Q 2147 4134 1753 4134 
Q 1366 4134 1134 3806 
Q 844 3388 844 2259 
z
" transform="scale(0.015625)"/>
       </defs>
       <use xlink:href="#ArialMT-2212"/>
       <use xlink:href="#ArialMT-34" x="58.398438"/>
       <use xlink:href="#ArialMT-30" x="114.013672"/>
       <use xlink:href="#ArialMT-30" x="169.628906"/>
      </g>
     </g>
    </g>
    <g id="xtick_2">
     <g id="line2d_2">
      <path d="M 189.506156 450.72 
L 189.506156 7.2 
" clip-path="url(#p9ca103e367)" style="fill: none; stroke: #ffffff; stroke-linecap: round"/>
     </g>
     <g id="text_2">
      <!-- −200 -->
      <g style="fill: #262626" transform="translate(177.118266 468.093594) scale(0.11 -0.11)">
       <defs>
        <path id="ArialMT-32" d="M 3222 541 
L 3222 0 
L 194 0 
Q 188 203 259 391 
Q 375 700 629 1000 
Q 884 1300 1366 1694 
Q 2113 2306 2375 2664 
Q 2638 3022 2638 3341 
Q 2638 3675 2398 3904 
Q 2159 4134 1775 4134 
Q 1369 4134 1125 3890 
Q 881 3647 878 3216 
L 300 3275 
Q 359 3922 746 4261 
Q 1134 4600 1788 4600 
Q 2447 4600 2831 4234 
Q 3216 3869 3216 3328 
Q 3216 3053 3103 2787 
Q 2991 2522 2730 2228 
Q 2469 1934 1863 1422 
Q 1356 997 1212 845 
Q 1069 694 975 541 
L 3222 541 
z
" transform="scale(0.015625)"/>
       </defs>
       <use xlink:href="#ArialMT-2212"/>
       <use xlink:href="#ArialMT-32" x="58.398438"/>
       <use xlink:href="#ArialMT-30" x="114.013672"/>
       <use xlink:href="#ArialMT-30" x="169.628906"/>
      </g>
     </g>
    </g>
    <g id="xtick_3">
     <g id="line2d_3">
      <path d="M 278.210156 450.72 
L 278.210156 7.2 
" clip-path="url(#p9ca103e367)" style="fill: none; stroke: #ffffff; stroke-linecap: round"/>
     </g>
     <g id="text_3">
      <!-- 0 -->
      <g style="fill: #262626" transform="translate(275.151641 468.093594) scale(0.11 -0.11)">
       <use xlink:href="#ArialMT-30"/>
      </g>
     </g>
    </g>
    <g id="xtick_4">
     <g id="line2d_4">
      <path d="M 366.914156 450.72 
L 366.914156 7.2 
" clip-path="url(#p9ca103e367)" style="fill: none; stroke: #ffffff; stroke-linecap: round"/>
     </g>
     <g id="text_4">
      <!-- 200 -->
      <g style="fill: #262626" transform="translate(357.738609 468.093594) scale(0.11 -0.11)">
       <use xlink:href="#ArialMT-32"/>
       <use xlink:href="#ArialMT-30" x="55.615234"/>
       <use xlink:href="#ArialMT-30" x="111.230469"/>
      </g>
     </g>
    </g>
    <g id="xtick_5">
     <g id="line2d_5">
      <path d="M 455.618156 450.72 
L 455.618156 7.2 
" clip-path="url(#p9ca103e367)" style="fill: none; stroke: #ffffff; stroke-linecap: round"/>
     </g>
     <g id="text_5">
      <!-- 400 -->
      <g style="fill: #262626" transform="translate(446.442609 468.093594) scale(0.11 -0.11)">
       <use xlink:href="#ArialMT-34"/>
       <use xlink:href="#ArialMT-30" x="55.615234"/>
       <use xlink:href="#ArialMT-30" x="111.230469"/>
      </g>
     </g>
    </g>
    <g id="text_6">
     <!-- x -->
     <g style="fill: #262626" transform="translate(275.210156 482.869219) scale(0.12 -0.12)">
      <defs>
       <path id="ArialMT-78" d="M 47 0 
L 1259 1725 
L 138 3319 
L 841 3319 
L 1350 2541 
Q 1494 2319 1581 2169 
Q 1719 2375 1834 2534 
L 2394 3319 
L 3066 3319 
L 1919 1756 
L 3153 0 
L 2463 0 
L 1781 1031 
L 1600 1309 
L 728 0 
L 47 0 
z
" transform="scale(0.015625)"/>
      </defs>
      <use xlink:href="#ArialMT-78"/>
     </g>
    </g>
   </g>
   <g id="matplotlib.axis_2">
    <g id="ytick_1">
     <g id="line2d_6">
      <path d="M 56.450156 406.368 
L 499.970156 406.368 
" clip-path="url(#p9ca103e367)" style="fill: none; stroke: #ffffff; stroke-linecap: round"/>
     </g>
     <g id="text_7">
      <!-- −400 -->
      <g style="fill: #262626" transform="translate(22.174375 410.304797) scale(0.11 -0.11)">
       <use xlink:href="#ArialMT-2212"/>
       <use xlink:href="#ArialMT-34" x="58.398438"/>
       <use xlink:href="#ArialMT-30" x="114.013672"/>
       <use xlink:href="#ArialMT-30" x="169.628906"/>
      </g>
     </g>
    </g>
    <g id="ytick_2">
     <g id="line2d_7">
      <path d="M 56.450156 317.664 
L 499.970156 317.664 
" clip-path="url(#p9ca103e367)" style="fill: none; stroke: #ffffff; stroke-linecap: round"/>
     </g>
     <g id="text_8">
      <!-- −200 -->
      <g style="fill: #262626" transform="translate(22.174375 321.600797) scale(0.11 -0.11)">
       <use xlink:href="#ArialMT-2212"/>
       <use xlink:href="#ArialMT-32" x="58.398438"/>
       <use xlink:href="#ArialMT-30" x="114.013672"/>
       <use xlink:href="#ArialMT-30" x="169.628906"/>
      </g>
     </g>
    </g>
    <g id="ytick_3">
     <g id="line2d_8">
      <path d="M 56.450156 228.96 
L 499.970156 228.96 
" clip-path="url(#p9ca103e367)" style="fill: none; stroke: #ffffff; stroke-linecap: round"/>
     </g>
     <g id="text_9">
      <!-- 0 -->
      <g style="fill: #262626" transform="translate(40.833125 232.896797) scale(0.11 -0.11)">
       <use xlink:href="#ArialMT-30"/>
      </g>
     </g>
    </g>
    <g id="ytick_4">
     <g id="line2d_9">
      <path d="M 56.450156 140.256 
L 499.970156 140.256 
" clip-path="url(#p9ca103e367)" style="fill: none; stroke: #ffffff; stroke-linecap: round"/>
     </g>
     <g id="text_10">
      <!-- 200 -->
      <g style="fill: #262626" transform="translate(28.599063 144.192797) scale(0.11 -0.11)">
       <use xlink:href="#ArialMT-32"/>
       <use xlink:href="#ArialMT-30" x="55.615234"/>
       <use xlink:href="#ArialMT-30" x="111.230469"/>
      </g>
     </g>
    </g>
    <g id="ytick_5">
     <g id="line2d_10">
      <path d="M 56.450156 51.552 
L 499.970156 51.552 
" clip-path="url(#p9ca103e367)" style="fill: none; stroke: #ffffff; stroke-linecap: round"/>
     </g>
     <g id="text_11">
      <!-- 400 -->
      <g style="fill: #262626" transform="translate(28.599063 55.488797) scale(0.11 -0.11)">
       <use xlink:href="#ArialMT-34"/>
       <use xlink:href="#ArialMT-30" x="55.615234"/>
       <use xlink:href="#ArialMT-30" x="111.230469"/>
      </g>
     </g>
    </g>
    <g id="text_12">
     <!-- y -->
     <g style="fill: #262626" transform="translate(15.64875 231.96) rotate(-90) scale(0.12 -0.12)">
      <defs>
       <path id="ArialMT-79" d="M 397 -1278 
L 334 -750 
Q 519 -800 656 -800 
Q 844 -800 956 -737 
Q 1069 -675 1141 -563 
Q 1194 -478 1313 -144 
Q 1328 -97 1363 -6 
L 103 3319 
L 709 3319 
L 1400 1397 
Q 1534 1031 1641 628 
Q 1738 1016 1872 1384 
L 2581 3319 
L 3144 3319 
L 1881 -56 
Q 1678 -603 1566 -809 
Q 1416 -1088 1222 -1217 
Q 1028 -1347 759 -1347 
Q 597 -1347 397 -1278 
z
" transform="scale(0.015625)"/>
      </defs>
      <use xlink:href="#ArialMT-79"/>
     </g>
    </g>
   </g>
   <g id="patch_3">
    <path d="M 278.210156 317.664 
C 301.734732 317.664 324.298969 308.317587 340.933356 291.6832 
C 357.567743 275.048813 366.914156 252.484576 366.914156 228.96 
C 366.914156 205.435424 357.567743 182.871187 340.933356 166.2368 
C 324.298969 149.602413 301.734732 140.256 278.210156 140.256 
C 254.68558 140.256 232.121343 149.602413 215.486956 166.2368 
C 198.852569 182.871187 189.506156 205.435424 189.506156 228.96 
C 189.506156 252.484576 198.852569 275.048813 215.486956 291.6832 
C 232.121343 308.317587 254.68558 317.664 278.210156 317.664 
z
" clip-path="url(#p9ca103e367)" style="fill: #228b22; opacity: 0.12; stroke: #228b22; stroke-width: 1.5; stroke-linejoin: miter"/>
   </g>
   <g id="PathCollection_1">
    <defs>
     <path id="m224c17e9aa" d="M 0 2.236068 
C 0.593012 2.236068 1.161816 2.000462 1.581139 1.581139 
C 2.000462 1.161816 2.236068 0.593012 2.236068 0 
C 2.236068 -0.593012 2.000462 -1.161816 1.581139 -1.581139 
C 1.161816 -2.000462 0.593012 -2.236068 0 -2.236068 
C -0.593012 -2.236068 -1.161816 -2.000462 -1.581139 -1.581139 
C -2.000462 -1.161816 -2.236068 -0.593012 -2.236068 0 
C -2.236068 0.593012 -2.000462 1.161816 -1.581139 1.581139 
C -1.161816 2.000462 -0.593012 2.236068 0 2.236068 
z
" style="stroke: #4169e1"/>
    </defs>
    <g clip-path="url(#p9ca103e367)">
     <use xlink:href="#m224c17e9aa" x="302.199424" y="117.150744" style="fill: #4169e1; stroke: #4169e1"/>
     <use xlink:href="#m224c17e9aa" x="275.793454" y="196.685626" style="fill: #4169e1; stroke: #4169e1"/>
     <use xlink:href="#m224c17e9aa" x="235.870279" y="146.54729" style="fill: #4169e1; stroke: #4169e1"/>
     <use xlink:href="#m224c17e9aa" x="256.317628" y="164.16224" style="fill: #4169e1; stroke: #4169e1"/>
     <use xlink:href="#m224c17e9aa" x="326.768088" y="156.618732" style="fill: #4169e1; stroke: #4169e1"/>
     <use xlink:href="#m224c17e9aa" x="380.459883" y="265.869965" style="fill: #4169e1; stroke: #4169e1"/>
     <use xlink:href="#m224c17e9aa" x="465.475134" y="194.028574" style="fill: #4169e1; stroke: #4169e1"/>
     <use xlink:href="#m224c17e9aa" x="198.478435" y="271.269761" style="fill: #4169e1; stroke: #4169e1"/>
     <use xlink:href="#m224c17e9aa" x="296.672343" y="145.104198" style="fill: #4169e1; stroke: #4169e1"/>
     <use xlink:href="#m224c17e9aa" x="383.171699" y="144.743886" style="fill: #4169e1; stroke: #4169e1"/>
     <use xlink:href="#m224c17e9aa" x="260.364195" y="214.445661" style="fill: #4169e1; stroke: #4169e1"/>
     <use xlink:href="#m224c17e9aa" x="325.735592" y="282.073997" style="fill: #4169e1; stroke: #4169e1"/>
     <use xlink:href="#m224c17e9aa" x="329.691197" y="298.160956" style="fill: #4169e1; stroke: #4169e1"/>
     <use xlink:href="#m224c17e9aa" x="420.264044" y="214.761998" style="fill: #4169e1; stroke: #4169e1"/>
     <use xlink:href="#m224c17e9aa" x="437.901016" y="272.496121" style="fill: #4169e1; stroke: #4169e1"/>
     <use xlink:href="#m224c17e9aa" x="249.042216" y="119.520465" style="fill: #4169e1; stroke: #4169e1"/>
     <use xlink:href="#m224c17e9aa" x="461.930845" y="72.045296" style="fill: #4169e1; stroke: #4169e1"/>
     <use xlink:href="#m224c17e9aa" x="433.004172" y="142.044461" style="fill: #4169e1; stroke: #4169e1"/>
     <use xlink:href="#m224c17e9aa" x="322.682487" y="150.582505" style="fill: #4169e1; stroke: #4169e1"/>
     <use xlink:href="#m224c17e9aa" x="300.053496" y="227.509767" style="fill: #4169e1; stroke: #4169e1"/>
     <use xlink:href="#m224c17e9aa" x="427.137372" y="284.661719" style="fill: #4169e1; stroke: #4169e1"/>
     <use xlink:href="#m224c17e9aa" x="341.741324" y="153.55783" style="fill: #4169e1; stroke: #4169e1"/>
     <use xlink:href="#m224c17e9aa" x="372.432744" y="327.533775" style="fill: #4169e1; stroke: #4169e1"/>
     <use xlink:href="#m224c17e9aa" x="277.113608" y="152.242558" style="fill: #4169e1; stroke: #4169e1"/>
     <use xlink:href="#m224c17e9aa" x="365.333088" y="261.457321" style="fill: #4169e1; stroke: #4169e1"/>
     <use xlink:href="#m224c17e9aa" x="376.818223" y="276.637869" style="fill: #4169e1; stroke: #4169e1"/>
     <use xlink:href="#m224c17e9aa" x="446.562095" y="156.581469" style="fill: #4169e1; stroke: #4169e1"/>
     <use xlink:href="#m224c17e9aa" x="457.870203" y="223.286872" style="fill: #4169e1; stroke: #4169e1"/>
     <use xlink:href="#m224c17e9aa" x="243.601462" y="209.129133" style="fill: #4169e1; stroke: #4169e1"/>
     <use xlink:href="#m224c17e9aa" x="468.414076" y="234.992637" style="fill: #4169e1; stroke: #4169e1"/>
     <use xlink:href="#m224c17e9aa" x="303.499932" y="180.003908" style="fill: #4169e1; stroke: #4169e1"/>
     <use xlink:href="#m224c17e9aa" x="264.045136" y="226.711278" style="fill: #4169e1; stroke: #4169e1"/>
     <use xlink:href="#m224c17e9aa" x="329.574978" y="276.041655" style="fill: #4169e1; stroke: #4169e1"/>
     <use xlink:href="#m224c17e9aa" x="417.998854" y="182.574976" style="fill: #4169e1; stroke: #4169e1"/>
     <use xlink:href="#m224c17e9aa" x="387.199308" y="216.560898" style="fill: #4169e1; stroke: #4169e1"/>
     <use xlink:href="#m224c17e9aa" x="412.132758" y="115.295331" style="fill: #4169e1; stroke: #4169e1"/>
     <use xlink:href="#m224c17e9aa" x="348.080365" y="310.984712" style="fill: #4169e1; stroke: #4169e1"/>
     <use xlink:href="#m224c17e9aa" x="275.791569" y="298.505507" style="fill: #4169e1; stroke: #4169e1"/>
     <use xlink:href="#m224c17e9aa" x="310.956995" y="338.532558" style="fill: #4169e1; stroke: #4169e1"/>
     <use xlink:href="#m224c17e9aa" x="353.675014" y="187.458578" style="fill: #4169e1; stroke: #4169e1"/>
     <use xlink:href="#m224c17e9aa" x="328.202889" y="88.090926" style="fill: #4169e1; stroke: #4169e1"/>
     <use xlink:href="#m224c17e9aa" x="441.590821" y="188.493723" style="fill: #4169e1; stroke: #4169e1"/>
     <use xlink:href="#m224c17e9aa" x="402.979243" y="265.788203" style="fill: #4169e1; stroke: #4169e1"/>
     <use xlink:href="#m224c17e9aa" x="383.932213" y="177.922645" style="fill: #4169e1; stroke: #4169e1"/>
     <use xlink:href="#m224c17e9aa" x="254.202762" y="195.946766" style="fill: #4169e1; stroke: #4169e1"/>
     <use xlink:href="#m224c17e9aa" x="240.87534" y="181.479254" style="fill: #4169e1; stroke: #4169e1"/>
     <use xlink:href="#m224c17e9aa" x="238.025648" y="256.540265" style="fill: #4169e1; stroke: #4169e1"/>
     <use xlink:href="#m224c17e9aa" x="457.195882" y="148.389357" style="fill: #4169e1; stroke: #4169e1"/>
     <use xlink:href="#m224c17e9aa" x="345.452975" y="286.230143" style="fill: #4169e1; stroke: #4169e1"/>
     <use xlink:href="#m224c17e9aa" x="333.789325" y="195.075552" style="fill: #4169e1; stroke: #4169e1"/>
     <use xlink:href="#m224c17e9aa" x="247.961447" y="220.906652" style="fill: #4169e1; stroke: #4169e1"/>
     <use xlink:href="#m224c17e9aa" x="408.282304" y="311.761291" style="fill: #4169e1; stroke: #4169e1"/>
     <use xlink:href="#m224c17e9aa" x="363.338567" y="189.010465" style="fill: #4169e1; stroke: #4169e1"/>
     <use xlink:href="#m224c17e9aa" x="276.255952" y="295.133257" style="fill: #4169e1; stroke: #4169e1"/>
     <use xlink:href="#m224c17e9aa" x="287.232267" y="199.901552" style="fill: #4169e1; stroke: #4169e1"/>
     <use xlink:href="#m224c17e9aa" x="305.03486" y="143.786551" style="fill: #4169e1; stroke: #4169e1"/>
     <use xlink:href="#m224c17e9aa" x="351.450484" y="196.965456" style="fill: #4169e1; stroke: #4169e1"/>
     <use xlink:href="#m224c17e9aa" x="288.835049" y="179.139587" style="fill: #4169e1; stroke: #4169e1"/>
     <use xlink:href="#m224c17e9aa" x="203.300057" y="258.639701" style="fill: #4169e1; stroke: #4169e1"/>
     <use xlink:href="#m224c17e9aa" x="240.637392" y="309.629849" style="fill: #4169e1; stroke: #4169e1"/>
     <use xlink:href="#m224c17e9aa" x="378.298387" y="137.847243" style="fill: #4169e1; stroke: #4169e1"/>
     <use xlink:href="#m224c17e9aa" x="412.895721" y="318.655728" style="fill: #4169e1; stroke: #4169e1"/>
     <use xlink:href="#m224c17e9aa" x="357.017345" y="198.065657" style="fill: #4169e1; stroke: #4169e1"/>
     <use xlink:href="#m224c17e9aa" x="291.629408" y="244.715663" style="fill: #4169e1; stroke: #4169e1"/>
     <use xlink:href="#m224c17e9aa" x="228.804745" y="181.123526" style="fill: #4169e1; stroke: #4169e1"/>
     <use xlink:href="#m224c17e9aa" x="270.647791" y="133.388302" style="fill: #4169e1; stroke: #4169e1"/>
     <use xlink:href="#m224c17e9aa" x="299.821331" y="202.278245" style="fill: #4169e1; stroke: #4169e1"/>
     <use xlink:href="#m224c17e9aa" x="272.477616" y="160.384395" style="fill: #4169e1; stroke: #4169e1"/>
     <use xlink:href="#m224c17e9aa" x="417.572294" y="191.099214" style="fill: #4169e1; stroke: #4169e1"/>
     <use xlink:href="#m224c17e9aa" x="223.853798" y="227.065927" style="fill: #4169e1; stroke: #4169e1"/>
     <use xlink:href="#m224c17e9aa" x="432.942411" y="253.748764" style="fill: #4169e1; stroke: #4169e1"/>
     <use xlink:href="#m224c17e9aa" x="323.499033" y="166.339924" style="fill: #4169e1; stroke: #4169e1"/>
     <use xlink:href="#m224c17e9aa" x="345.434154" y="346.392031" style="fill: #4169e1; stroke: #4169e1"/>
     <use xlink:href="#m224c17e9aa" x="349.328726" y="189.854863" style="fill: #4169e1; stroke: #4169e1"/>
     <use xlink:href="#m224c17e9aa" x="481.962673" y="180.802699" style="fill: #4169e1; stroke: #4169e1"/>
     <use xlink:href="#m224c17e9aa" x="316.147081" y="173.174096" style="fill: #4169e1; stroke: #4169e1"/>
     <use xlink:href="#m224c17e9aa" x="312.001256" y="289.95026" style="fill: #4169e1; stroke: #4169e1"/>
     <use xlink:href="#m224c17e9aa" x="262.244556" y="199.860612" style="fill: #4169e1; stroke: #4169e1"/>
     <use xlink:href="#m224c17e9aa" x="360.747065" y="282.627148" style="fill: #4169e1; stroke: #4169e1"/>
     <use xlink:href="#m224c17e9aa" x="394.745131" y="128.274646" style="fill: #4169e1; stroke: #4169e1"/>
     <use xlink:href="#m224c17e9aa" x="381.373574" y="319.002397" style="fill: #4169e1; stroke: #4169e1"/>
     <use xlink:href="#m224c17e9aa" x="433.923114" y="177.094838" style="fill: #4169e1; stroke: #4169e1"/>
     <use xlink:href="#m224c17e9aa" x="260.68497" y="188.270488" style="fill: #4169e1; stroke: #4169e1"/>
     <use xlink:href="#m224c17e9aa" x="168.775643" y="178.247082" style="fill: #4169e1; stroke: #4169e1"/>
     <use xlink:href="#m224c17e9aa" x="208.376966" y="174.758846" style="fill: #4169e1; stroke: #4169e1"/>
     <use xlink:href="#m224c17e9aa" x="294.813411" y="234.685451" style="fill: #4169e1; stroke: #4169e1"/>
     <use xlink:href="#m224c17e9aa" x="322.818086" y="233.758893" style="fill: #4169e1; stroke: #4169e1"/>
     <use xlink:href="#m224c17e9aa" x="220.809941" y="264.606729" style="fill: #4169e1; stroke: #4169e1"/>
     <use xlink:href="#m224c17e9aa" x="414.634001" y="242.531987" style="fill: #4169e1; stroke: #4169e1"/>
     <use xlink:href="#m224c17e9aa" x="393.068964" y="154.63286" style="fill: #4169e1; stroke: #4169e1"/>
     <use xlink:href="#m224c17e9aa" x="316.424301" y="112.714326" style="fill: #4169e1; stroke: #4169e1"/>
     <use xlink:href="#m224c17e9aa" x="280.907523" y="178.548355" style="fill: #4169e1; stroke: #4169e1"/>
     <use xlink:href="#m224c17e9aa" x="467.239509" y="235.58718" style="fill: #4169e1; stroke: #4169e1"/>
     <use xlink:href="#m224c17e9aa" x="327.013406" y="326.446171" style="fill: #4169e1; stroke: #4169e1"/>
     <use xlink:href="#m224c17e9aa" x="435.160241" y="273.218618" style="fill: #4169e1; stroke: #4169e1"/>
     <use xlink:href="#m224c17e9aa" x="363.146909" y="207.632125" style="fill: #4169e1; stroke: #4169e1"/>
     <use xlink:href="#m224c17e9aa" x="323.062592" y="266.643675" style="fill: #4169e1; stroke: #4169e1"/>
     <use xlink:href="#m224c17e9aa" x="213.616256" y="205.663269" style="fill: #4169e1; stroke: #4169e1"/>
     <use xlink:href="#m224c17e9aa" x="369.611469" y="108.52713" style="fill: #4169e1; stroke: #4169e1"/>
     <use xlink:href="#m224c17e9aa" x="394.457671" y="223.108019" style="fill: #4169e1; stroke: #4169e1"/>
     <use xlink:href="#m224c17e9aa" x="224.603889" y="127.920512" style="fill: #4169e1; stroke: #4169e1"/>
     <use xlink:href="#m224c17e9aa" x="450.872879" y="299.083025" style="fill: #4169e1; stroke: #4169e1"/>
     <use xlink:href="#m224c17e9aa" x="348.312412" y="172.995807" style="fill: #4169e1; stroke: #4169e1"/>
     <use xlink:href="#m224c17e9aa" x="269.695634" y="275.590752" style="fill: #4169e1; stroke: #4169e1"/>
     <use xlink:href="#m224c17e9aa" x="394.59282" y="197.097153" style="fill: #4169e1; stroke: #4169e1"/>
     <use xlink:href="#m224c17e9aa" x="326.377622" y="167.727941" style="fill: #4169e1; stroke: #4169e1"/>
     <use xlink:href="#m224c17e9aa" x="275.361409" y="307.491687" style="fill: #4169e1; stroke: #4169e1"/>
     <use xlink:href="#m224c17e9aa" x="347.763995" y="309.996523" style="fill: #4169e1; stroke: #4169e1"/>
     <use xlink:href="#m224c17e9aa" x="404.411331" y="251.531335" style="fill: #4169e1; stroke: #4169e1"/>
     <use xlink:href="#m224c17e9aa" x="478.024755" y="209.045247" style="fill: #4169e1; stroke: #4169e1"/>
     <use xlink:href="#m224c17e9aa" x="278.340223" y="352.229107" style="fill: #4169e1; stroke: #4169e1"/>
     <use xlink:href="#m224c17e9aa" x="427.620672" y="249.590341" style="fill: #4169e1; stroke: #4169e1"/>
     <use xlink:href="#m224c17e9aa" x="435.342059" y="312.192359" style="fill: #4169e1; stroke: #4169e1"/>
     <use xlink:href="#m224c17e9aa" x="278.138907" y="97.697801" style="fill: #4169e1; stroke: #4169e1"/>
     <use xlink:href="#m224c17e9aa" x="197.210327" y="240.758491" style="fill: #4169e1; stroke: #4169e1"/>
     <use xlink:href="#m224c17e9aa" x="374.38695" y="242.358499" style="fill: #4169e1; stroke: #4169e1"/>
     <use xlink:href="#m224c17e9aa" x="266.016199" y="255.119718" style="fill: #4169e1; stroke: #4169e1"/>
     <use xlink:href="#m224c17e9aa" x="248.165442" y="153.993426" style="fill: #4169e1; stroke: #4169e1"/>
     <use xlink:href="#m224c17e9aa" x="280.861571" y="171.372539" style="fill: #4169e1; stroke: #4169e1"/>
     <use xlink:href="#m224c17e9aa" x="279.8047" y="99.549803" style="fill: #4169e1; stroke: #4169e1"/>
     <use xlink:href="#m224c17e9aa" x="352.872278" y="165.524005" style="fill: #4169e1; stroke: #4169e1"/>
     <use xlink:href="#m224c17e9aa" x="420.426845" y="284.726705" style="fill: #4169e1; stroke: #4169e1"/>
     <use xlink:href="#m224c17e9aa" x="357.935184" y="84.974415" style="fill: #4169e1; stroke: #4169e1"/>
     <use xlink:href="#m224c17e9aa" x="355.524444" y="232.764309" style="fill: #4169e1; stroke: #4169e1"/>
     <use xlink:href="#m224c17e9aa" x="343.938059" y="193.9454" style="fill: #4169e1; stroke: #4169e1"/>
     <use xlink:href="#m224c17e9aa" x="339.117148" y="194.062192" style="fill: #4169e1; stroke: #4169e1"/>
     <use xlink:href="#m224c17e9aa" x="446.584089" y="70.837703" style="fill: #4169e1; stroke: #4169e1"/>
     <use xlink:href="#m224c17e9aa" x="272.025831" y="171.439064" style="fill: #4169e1; stroke: #4169e1"/>
     <use xlink:href="#m224c17e9aa" x="342.453896" y="227.118086" style="fill: #4169e1; stroke: #4169e1"/>
     <use xlink:href="#m224c17e9aa" x="388.905022" y="90.352962" style="fill: #4169e1; stroke: #4169e1"/>
     <use xlink:href="#m224c17e9aa" x="151.183148" y="215.049786" style="fill: #4169e1; stroke: #4169e1"/>
     <use xlink:href="#m224c17e9aa" x="398.734185" y="86.609286" style="fill: #4169e1; stroke: #4169e1"/>
     <use xlink:href="#m224c17e9aa" x="443.763769" y="275.983062" style="fill: #4169e1; stroke: #4169e1"/>
     <use xlink:href="#m224c17e9aa" x="370.013497" y="261.29179" style="fill: #4169e1; stroke: #4169e1"/>
     <use xlink:href="#m224c17e9aa" x="362.517626" y="156.173912" style="fill: #4169e1; stroke: #4169e1"/>
     <use xlink:href="#m224c17e9aa" x="329.577939" y="328.908751" style="fill: #4169e1; stroke: #4169e1"/>
     <use xlink:href="#m224c17e9aa" x="322.854252" y="207.783165" style="fill: #4169e1; stroke: #4169e1"/>
     <use xlink:href="#m224c17e9aa" x="236.290634" y="224.253358" style="fill: #4169e1; stroke: #4169e1"/>
     <use xlink:href="#m224c17e9aa" x="380.200191" y="145.148519" style="fill: #4169e1; stroke: #4169e1"/>
     <use xlink:href="#m224c17e9aa" x="408.163371" y="193.650686" style="fill: #4169e1; stroke: #4169e1"/>
     <use xlink:href="#m224c17e9aa" x="357.502539" y="148.438814" style="fill: #4169e1; stroke: #4169e1"/>
     <use xlink:href="#m224c17e9aa" x="479.749973" y="154.567059" style="fill: #4169e1; stroke: #4169e1"/>
     <use xlink:href="#m224c17e9aa" x="418.523504" y="173.785895" style="fill: #4169e1; stroke: #4169e1"/>
     <use xlink:href="#m224c17e9aa" x="383.75495" y="261.368744" style="fill: #4169e1; stroke: #4169e1"/>
     <use xlink:href="#m224c17e9aa" x="223.297401" y="211.8523" style="fill: #4169e1; stroke: #4169e1"/>
     <use xlink:href="#m224c17e9aa" x="471.779958" y="110.793267" style="fill: #4169e1; stroke: #4169e1"/>
     <use xlink:href="#m224c17e9aa" x="376.677734" y="190.964059" style="fill: #4169e1; stroke: #4169e1"/>
     <use xlink:href="#m224c17e9aa" x="394.040328" y="138.430581" style="fill: #4169e1; stroke: #4169e1"/>
     <use xlink:href="#m224c17e9aa" x="347.963056" y="112.16538" style="fill: #4169e1; stroke: #4169e1"/>
     <use xlink:href="#m224c17e9aa" x="385.73854" y="94.706436" style="fill: #4169e1; stroke: #4169e1"/>
     <use xlink:href="#m224c17e9aa" x="329.43361" y="132.617902" style="fill: #4169e1; stroke: #4169e1"/>
    </g>
   </g>
   <g id="PathCollection_2">
    <defs>
     <path id="m1852ab7b63" d="M 0 2.5 
C 0.663008 2.5 1.29895 2.236584 1.767767 1.767767 
C 2.236584 1.29895 2.5 0.663008 2.5 0 
C 2.5 -0.663008 2.236584 -1.29895 1.767767 -1.767767 
C 1.29895 -2.236584 0.663008 -2.5 0 -2.5 
C -0.663008 -2.5 -1.29895 -2.236584 -1.767767 -1.767767 
C -2.236584 -1.29895 -2.5 -0.663008 -2.5 0 
C -2.5 0.663008 -2.236584 1.29895 -1.767767 1.767767 
C -1.29895 2.236584 -0.663008 2.5 0 2.5 
z
" style="stroke: #b22222"/>
    </defs>
    <g clip-path="url(#p9ca103e367)">
     <use xlink:href="#m1852ab7b63" x="250.7609" y="228.909388" style="fill: #b22222; stroke: #b22222"/>
     <use xlink:href="#m1852ab7b63" x="244.328682" y="222.041832" style="fill: #b22222; stroke: #b22222"/>
     <use xlink:href="#m1852ab7b63" x="262.698534" y="240.755476" style="fill: #b22222; stroke: #b22222"/>
     <use xlink:href="#m1852ab7b63" x="275.185597" y="194.838277" style="fill: #b22222; stroke: #b22222"/>
     <use xlink:href="#m1852ab7b63" x="249.573017" y="242.759415" style="fill: #b22222; stroke: #b22222"/>
     <use xlink:href="#m1852ab7b63" x="267.828565" y="244.522063" style="fill: #b22222; stroke: #b22222"/>
     <use xlink:href="#m1852ab7b63" x="335.274991" y="222.206929" style="fill: #b22222; stroke: #b22222"/>
     <use xlink:href="#m1852ab7b63" x="266.261339" y="245.015198" style="fill: #b22222; stroke: #b22222"/>
     <use xlink:href="#m1852ab7b63" x="328.055755" y="230.85624" style="fill: #b22222; stroke: #b22222"/>
     <use xlink:href="#m1852ab7b63" x="273.302744" y="249.527174" style="fill: #b22222; stroke: #b22222"/>
     <use xlink:href="#m1852ab7b63" x="331.345109" y="250.791784" style="fill: #b22222; stroke: #b22222"/>
     <use xlink:href="#m1852ab7b63" x="269.642374" y="242.772498" style="fill: #b22222; stroke: #b22222"/>
     <use xlink:href="#m1852ab7b63" x="261.799431" y="236.714543" style="fill: #b22222; stroke: #b22222"/>
     <use xlink:href="#m1852ab7b63" x="249.515077" y="233.860549" style="fill: #b22222; stroke: #b22222"/>
     <use xlink:href="#m1852ab7b63" x="263.896388" y="249.49092" style="fill: #b22222; stroke: #b22222"/>
     <use xlink:href="#m1852ab7b63" x="251.878" y="245.037734" style="fill: #b22222; stroke: #b22222"/>
     <use xlink:href="#m1852ab7b63" x="270.394607" y="250.630479" style="fill: #b22222; stroke: #b22222"/>
     <use xlink:href="#m1852ab7b63" x="260.859147" y="244.993063" style="fill: #b22222; stroke: #b22222"/>
     <use xlink:href="#m1852ab7b63" x="267.117487" y="237.086396" style="fill: #b22222; stroke: #b22222"/>
     <use xlink:href="#m1852ab7b63" x="263.188605" y="242.69814" style="fill: #b22222; stroke: #b22222"/>
     <use xlink:href="#m1852ab7b63" x="292.407747" y="225.399026" style="fill: #b22222; stroke: #b22222"/>
     <use xlink:href="#m1852ab7b63" x="268.008541" y="243.456939" style="fill: #b22222; stroke: #b22222"/>
     <use xlink:href="#m1852ab7b63" x="363.613575" y="189.293221" style="fill: #b22222; stroke: #b22222"/>
     <use xlink:href="#m1852ab7b63" x="244.733431" y="230.248611" style="fill: #b22222; stroke: #b22222"/>
     <use xlink:href="#m1852ab7b63" x="244.518557" y="234.447451" style="fill: #b22222; stroke: #b22222"/>
     <use xlink:href="#m1852ab7b63" x="260.159919" y="241.909098" style="fill: #b22222; stroke: #b22222"/>
     <use xlink:href="#m1852ab7b63" x="268.130828" y="258.372047" style="fill: #b22222; stroke: #b22222"/>
     <use xlink:href="#m1852ab7b63" x="260.611865" y="245.716045" style="fill: #b22222; stroke: #b22222"/>
     <use xlink:href="#m1852ab7b63" x="267.090474" y="244.959275" style="fill: #b22222; stroke: #b22222"/>
     <use xlink:href="#m1852ab7b63" x="324.053852" y="200.3854" style="fill: #b22222; stroke: #b22222"/>
     <use xlink:href="#m1852ab7b63" x="250.819142" y="220.860332" style="fill: #b22222; stroke: #b22222"/>
     <use xlink:href="#m1852ab7b63" x="265.549206" y="255.350259" style="fill: #b22222; stroke: #b22222"/>
     <use xlink:href="#m1852ab7b63" x="261.49503" y="243.331514" style="fill: #b22222; stroke: #b22222"/>
     <use xlink:href="#m1852ab7b63" x="274.151745" y="239.417796" style="fill: #b22222; stroke: #b22222"/>
     <use xlink:href="#m1852ab7b63" x="251.82742" y="232.780273" style="fill: #b22222; stroke: #b22222"/>
     <use xlink:href="#m1852ab7b63" x="338.181117" y="253.700208" style="fill: #b22222; stroke: #b22222"/>
     <use xlink:href="#m1852ab7b63" x="236.725515" y="212.972444" style="fill: #b22222; stroke: #b22222"/>
     <use xlink:href="#m1852ab7b63" x="267.310043" y="238.833066" style="fill: #b22222; stroke: #b22222"/>
     <use xlink:href="#m1852ab7b63" x="267.625077" y="244.53874" style="fill: #b22222; stroke: #b22222"/>
     <use xlink:href="#m1852ab7b63" x="346.536999" y="220.633842" style="fill: #b22222; stroke: #b22222"/>
     <use xlink:href="#m1852ab7b63" x="312.407189" y="216.070082" style="fill: #b22222; stroke: #b22222"/>
     <use xlink:href="#m1852ab7b63" x="283.439751" y="250.494217" style="fill: #b22222; stroke: #b22222"/>
     <use xlink:href="#m1852ab7b63" x="275.159706" y="235.219361" style="fill: #b22222; stroke: #b22222"/>
     <use xlink:href="#m1852ab7b63" x="273.64071" y="234.676914" style="fill: #b22222; stroke: #b22222"/>
     <use xlink:href="#m1852ab7b63" x="272.867315" y="248.456093" style="fill: #b22222; stroke: #b22222"/>
     <use xlink:href="#m1852ab7b63" x="250.593924" y="228.26798" style="fill: #b22222; stroke: #b22222"/>
     <use xlink:href="#m1852ab7b63" x="267.807431" y="200.433734" style="fill: #b22222; stroke: #b22222"/>
     <use xlink:href="#m1852ab7b63" x="343.284683" y="185.464863" style="fill: #b22222; stroke: #b22222"/>
     <use xlink:href="#m1852ab7b63" x="314.5527" y="220.882838" style="fill: #b22222; stroke: #b22222"/>
     <use xlink:href="#m1852ab7b63" x="293.828256" y="231.701152" style="fill: #b22222; stroke: #b22222"/>
     <use xlink:href="#m1852ab7b63" x="258.121589" y="222.797405" style="fill: #b22222; stroke: #b22222"/>
     <use xlink:href="#m1852ab7b63" x="297.139037" y="234.804838" style="fill: #b22222; stroke: #b22222"/>
     <use xlink:href="#m1852ab7b63" x="306.769502" y="229.022185" style="fill: #b22222; stroke: #b22222"/>
     <use xlink:href="#m1852ab7b63" x="264.118055" y="248.519226" style="fill: #b22222; stroke: #b22222"/>
     <use xlink:href="#m1852ab7b63" x="254.738495" y="226.075208" style="fill: #b22222; stroke: #b22222"/>
     <use xlink:href="#m1852ab7b63" x="265.277678" y="245.94734" style="fill: #b22222; stroke: #b22222"/>
     <use xlink:href="#m1852ab7b63" x="228.686691" y="225.602007" style="fill: #b22222; stroke: #b22222"/>
     <use xlink:href="#m1852ab7b63" x="285.681178" y="230.424192" style="fill: #b22222; stroke: #b22222"/>
     <use xlink:href="#m1852ab7b63" x="253.206271" y="227.110359" style="fill: #b22222; stroke: #b22222"/>
     <use xlink:href="#m1852ab7b63" x="267.981925" y="240.445599" style="fill: #b22222; stroke: #b22222"/>
     <use xlink:href="#m1852ab7b63" x="250.350228" y="234.644918" style="fill: #b22222; stroke: #b22222"/>
     <use xlink:href="#m1852ab7b63" x="251.236378" y="228.932958" style="fill: #b22222; stroke: #b22222"/>
     <use xlink:href="#m1852ab7b63" x="255.802954" y="227.476824" style="fill: #b22222; stroke: #b22222"/>
     <use xlink:href="#m1852ab7b63" x="260.031973" y="242.418637" style="fill: #b22222; stroke: #b22222"/>
     <use xlink:href="#m1852ab7b63" x="289.876546" y="236.03669" style="fill: #b22222; stroke: #b22222"/>
     <use xlink:href="#m1852ab7b63" x="224.614748" y="215.37798" style="fill: #b22222; stroke: #b22222"/>
    </g>
   </g>
   <g id="patch_4">
    <path d="M 56.450156 450.72 
L 56.450156 7.2 
" style="fill: none; stroke: #ffffff; stroke-width: 1.25; stroke-linejoin: miter; stroke-linecap: square"/>
   </g>
   <g id="patch_5">
    <path d="M 499.970156 450.72 
L 499.970156 7.2 
" style="fill: none; stroke: #ffffff; stroke-width: 1.25; stroke-linejoin: miter; stroke-linecap: square"/>
   </g>
   <g id="patch_6">
    <path d="M 56.450156 450.72 
L 499.970156 450.72 
" style="fill: none; stroke: #ffffff; stroke-width: 1.25; stroke-linejoin: miter; stroke-linecap: square"/>
   </g>
   <g id="patch_7">
    <path d="M 56.450156 7.2 
L 499.970156 7.2 
" style="fill: none; stroke: #ffffff; stroke-width: 1.25; stroke-linejoin: miter; stroke-linecap: square"/>
   </g>
   <g id="text_13">
    <!-- t = 900 -->
    <g style="fill: #262626" transform="translate(65.320556 24.659775) scale(0.12 -0.12)">
     <defs>
      <path id="ArialMT-74" d="M 1650 503 
L 1731 6 
Q 1494 -44 1306 -44 
Q 1000 -44 831 53 
Q 663 150 594 308 
Q 525 466 525 972 
L 525 2881 
L 113 2881 
L 113 3319 
L 525 3319 
L 525 4141 
L 1084 4478 
L 1084 3319 
L 1650 3319 
L 1650 2881 
L 1084 2881 
L 1084 941 
Q 1084 700 1114 631 
Q 1144 563 1211 522 
Q 1278 481 1403 481 
Q 1497 481 1650 503 
z
" transform="scale(0.015625)"/>
      <path id="ArialMT-20" transform="scale(0.015625)"/>
      <path id="ArialMT-3d" d="M 3381 2694 
L 356 2694 
L 356 3219 
L 3381 3219 
L 3381 2694 
z
M 3381 1303 
L 356 1303 
L 356 1828 
L 3381 1828 
L 3381 1303 
z
" transform="scale(0.015625)"/>
      <path id="ArialMT-39" d="M 350 1059 
L 891 1109 
Q 959 728 1153 556 
Q 1347 384 1650 384 
Q 1909 384 2104 503 
Q 2300 622 2425 820 
Q 2550 1019 2634 1356 
Q 2719 1694 2719 2044 
Q 2719 2081 2716 2156 
Q 2547 1888 2255 1720 
Q 1963 1553 1622 1553 
Q 1053 1553 659 1965 
Q 266 2378 266 3053 
Q 266 3750 677 4175 
Q 1088 4600 1706 4600 
Q 2153 4600 2523 4359 
Q 2894 4119 3086 3673 
Q 3278 3228 3278 2384 
Q 3278 1506 3087 986 
Q 2897 466 2520 194 
Q 2144 -78 1638 -78 
Q 1100 -78 759 220 
Q 419 519 350 1059 
z
M 2653 3081 
Q 2653 3566 2395 3850 
Q 2138 4134 1775 4134 
Q 1400 4134 1122 3828 
Q 844 3522 844 3034 
Q 844 2597 1108 2323 
Q 1372 2050 1759 2050 
Q 2150 2050 2401 2323 
Q 2653 2597 2653 3081 
z
" transform="scale(0.015625)"/>
     </defs>
     <use xlink:href="#ArialMT-74"/>
     <use xlink:href="#ArialMT-20" x="27.783203"/>
     <use xlink:href="#ArialMT-3d" x="55.566406"/>
     <use xlink:href="#ArialMT-20" x="113.964844"/>
     <use xlink:href="#ArialMT-39" x="141.748047"/>
     <use xlink:href="#ArialMT-30" x="197.363281"/>
     <use xlink:href="#ArialMT-30" x="252.978516"/>
    </g>
   </g>
   <g id="legend_1">
    <g id="patch_8">
     <path d="M 328.111406 94.59 
L 483.170156 94.59 
Q 487.970156 94.59 487.970156 89.79 
L 487.970156 24 
Q 487.970156 19.2 483.170156 19.2 
L 328.111406 19.2 
Q 323.311406 19.2 323.311406 24 
L 323.311406 89.79 
Q 323.311406 94.59 328.111406 94.59 
z
" style="fill: #eaeaf2; opacity: 0.8; stroke: #cccccc; stroke-linejoin: miter"/>
    </g>
    <g id="PathCollection_3">
     <g>
      <use xlink:href="#m224c17e9aa" x="356.911406" y="39.97125" style="fill: #4169e1; stroke: #4169e1"/>
     </g>
    </g>
    <g id="text_14">
     <!-- Sheep -->
     <g style="fill: #262626" transform="translate(400.111406 46.27125) scale(0.24 -0.24)">
      <defs>
       <path id="ArialMT-53" d="M 288 1472 
L 859 1522 
Q 900 1178 1048 958 
Q 1197 738 1509 602 
Q 1822 466 2213 466 
Q 2559 466 2825 569 
Q 3091 672 3220 851 
Q 3350 1031 3350 1244 
Q 3350 1459 3225 1620 
Q 3100 1781 2813 1891 
Q 2628 1963 1997 2114 
Q 1366 2266 1113 2400 
Q 784 2572 623 2826 
Q 463 3081 463 3397 
Q 463 3744 659 4045 
Q 856 4347 1234 4503 
Q 1613 4659 2075 4659 
Q 2584 4659 2973 4495 
Q 3363 4331 3572 4012 
Q 3781 3694 3797 3291 
L 3216 3247 
Q 3169 3681 2898 3903 
Q 2628 4125 2100 4125 
Q 1550 4125 1298 3923 
Q 1047 3722 1047 3438 
Q 1047 3191 1225 3031 
Q 1400 2872 2139 2705 
Q 2878 2538 3153 2413 
Q 3553 2228 3743 1945 
Q 3934 1663 3934 1294 
Q 3934 928 3725 604 
Q 3516 281 3123 101 
Q 2731 -78 2241 -78 
Q 1619 -78 1198 103 
Q 778 284 539 648 
Q 300 1013 288 1472 
z
" transform="scale(0.015625)"/>
       <path id="ArialMT-68" d="M 422 0 
L 422 4581 
L 984 4581 
L 984 2938 
Q 1378 3394 1978 3394 
Q 2347 3394 2619 3248 
Q 2891 3103 3008 2847 
Q 3125 2591 3125 2103 
L 3125 0 
L 2563 0 
L 2563 2103 
Q 2563 2525 2380 2717 
Q 2197 2909 1863 2909 
Q 1613 2909 1392 2779 
Q 1172 2650 1078 2428 
Q 984 2206 984 1816 
L 984 0 
L 422 0 
z
" transform="scale(0.015625)"/>
       <path id="ArialMT-65" d="M 2694 1069 
L 3275 997 
Q 3138 488 2766 206 
Q 2394 -75 1816 -75 
Q 1088 -75 661 373 
Q 234 822 234 1631 
Q 234 2469 665 2931 
Q 1097 3394 1784 3394 
Q 2450 3394 2872 2941 
Q 3294 2488 3294 1666 
Q 3294 1616 3291 1516 
L 816 1516 
Q 847 969 1125 678 
Q 1403 388 1819 388 
Q 2128 388 2347 550 
Q 2566 713 2694 1069 
z
M 847 1978 
L 2700 1978 
Q 2663 2397 2488 2606 
Q 2219 2931 1791 2931 
Q 1403 2931 1139 2672 
Q 875 2413 847 1978 
z
" transform="scale(0.015625)"/>
       <path id="ArialMT-70" d="M 422 -1272 
L 422 3319 
L 934 3319 
L 934 2888 
Q 1116 3141 1344 3267 
Q 1572 3394 1897 3394 
Q 2322 3394 2647 3175 
Q 2972 2956 3137 2557 
Q 3303 2159 3303 1684 
Q 3303 1175 3120 767 
Q 2938 359 2589 142 
Q 2241 -75 1856 -75 
Q 1575 -75 1351 44 
Q 1128 163 984 344 
L 984 -1272 
L 422 -1272 
z
M 931 1641 
Q 931 1000 1190 694 
Q 1450 388 1819 388 
Q 2194 388 2461 705 
Q 2728 1022 2728 1688 
Q 2728 2322 2467 2637 
Q 2206 2953 1844 2953 
Q 1484 2953 1207 2617 
Q 931 2281 931 1641 
z
" transform="scale(0.015625)"/>
      </defs>
      <use xlink:href="#ArialMT-53"/>
      <use xlink:href="#ArialMT-68" x="66.699219"/>
      <use xlink:href="#ArialMT-65" x="122.314453"/>
      <use xlink:href="#ArialMT-65" x="177.929688"/>
      <use xlink:href="#ArialMT-70" x="233.544922"/>
     </g>
    </g>
    <g id="PathCollection_4">
     <g>
      <use xlink:href="#m1852ab7b63" x="356.911406" y="73.92" style="fill: #b22222; stroke: #b22222"/>
     </g>
    </g>
    <g id="text_15">
     <!-- Wolves -->
     <g style="fill: #262626" transform="translate(400.111406 80.22) scale(0.24 -0.24)">
      <defs>
       <path id="ArialMT-57" d="M 1294 0 
L 78 4581 
L 700 4581 
L 1397 1578 
Q 1509 1106 1591 641 
Q 1766 1375 1797 1488 
L 2669 4581 
L 3400 4581 
L 4056 2263 
Q 4303 1400 4413 641 
Q 4500 1075 4641 1638 
L 5359 4581 
L 5969 4581 
L 4713 0 
L 4128 0 
L 3163 3491 
Q 3041 3928 3019 4028 
Q 2947 3713 2884 3491 
L 1913 0 
L 1294 0 
z
" transform="scale(0.015625)"/>
       <path id="ArialMT-6f" d="M 213 1659 
Q 213 2581 725 3025 
Q 1153 3394 1769 3394 
Q 2453 3394 2887 2945 
Q 3322 2497 3322 1706 
Q 3322 1066 3130 698 
Q 2938 331 2570 128 
Q 2203 -75 1769 -75 
Q 1072 -75 642 372 
Q 213 819 213 1659 
z
M 791 1659 
Q 791 1022 1069 705 
Q 1347 388 1769 388 
Q 2188 388 2466 706 
Q 2744 1025 2744 1678 
Q 2744 2294 2464 2611 
Q 2184 2928 1769 2928 
Q 1347 2928 1069 2612 
Q 791 2297 791 1659 
z
" transform="scale(0.015625)"/>
       <path id="ArialMT-6c" d="M 409 0 
L 409 4581 
L 972 4581 
L 972 0 
L 409 0 
z
" transform="scale(0.015625)"/>
       <path id="ArialMT-76" d="M 1344 0 
L 81 3319 
L 675 3319 
L 1388 1331 
Q 1503 1009 1600 663 
Q 1675 925 1809 1294 
L 2547 3319 
L 3125 3319 
L 1869 0 
L 1344 0 
z
" transform="scale(0.015625)"/>
       <path id="ArialMT-73" d="M 197 991 
L 753 1078 
Q 800 744 1014 566 
Q 1228 388 1613 388 
Q 2000 388 2187 545 
Q 2375 703 2375 916 
Q 2375 1106 2209 1216 
Q 2094 1291 1634 1406 
Q 1016 1563 777 1677 
Q 538 1791 414 1992 
Q 291 2194 291 2438 
Q 291 2659 392 2848 
Q 494 3038 669 3163 
Q 800 3259 1026 3326 
Q 1253 3394 1513 3394 
Q 1903 3394 2198 3281 
Q 2494 3169 2634 2976 
Q 2775 2784 2828 2463 
L 2278 2388 
Q 2241 2644 2061 2787 
Q 1881 2931 1553 2931 
Q 1166 2931 1000 2803 
Q 834 2675 834 2503 
Q 834 2394 903 2306 
Q 972 2216 1119 2156 
Q 1203 2125 1616 2013 
Q 2213 1853 2448 1751 
Q 2684 1650 2818 1456 
Q 2953 1263 2953 975 
Q 2953 694 2789 445 
Q 2625 197 2315 61 
Q 2006 -75 1616 -75 
Q 969 -75 630 194 
Q 291 463 197 991 
z
" transform="scale(0.015625)"/>
      </defs>
      <use xlink:href="#ArialMT-57"/>
      <use xlink:href="#ArialMT-6f" x="92.634766"/>
      <use xlink:href="#ArialMT-6c" x="148.25"/>
      <use xlink:href="#ArialMT-76" x="170.466797"/>
      <use xlink:href="#ArialMT-65" x="220.466797"/>
      <use xlink:href="#ArialMT-73" x="276.082031"/>
     </g>
    </g>
   </g>
  </g>
 </g>
 <defs>
  <clipPath id="p9ca103e367">
   <rect x="56.450156" y="7.2" width="443.52" height="443.52"/>
  </clipPath>
 </defs>
</svg>
