<?xml version="1.0" encoding="utf-8" standalone="no"?>
<!DOCTYPE svg PUBLIC "-//W3C//DTD SVG 1.1//EN"
  "http://www.w3.org/Graphics/SVG/1.1/DTD/svg11.dtd">
<svg xmlns:xlink="http://www.w3.org/1999/xlink" width="507.170156pt" height="492.454219pt" viewBox="0 0 507.170156 492.454219" xmlns="http://www.w3.org/2000/svg" version="1.1">
 <metadata>
  <rdf:RDF xmlns:dc="http://purl.org/dc/elements/1.1/" xmlns:cc="http://creativecommons.org/ns#" xmlns:rdf="http://www.w3.org/1999/02/22-rdf-syntax-ns#">
   <cc:Work>
    <dc:type rdf:resource="http://purl.org/dc/dcmitype/StillImage"/>
    <dc:date>2026-05-12T10:43:21.461630</dc:date>
    <dc:format>image/svg+xml</dc:format>
    <dc:creator>
     <cc:Agent>
      <dc:title>Matplotlib v3.7.1, https://matplotlib.org/</dc:title>
     </cc:Agent>
    </dc:creator>
   </cc:Work>
  </rdf:RDF>
 </metadata>
 <defs>
  <style type="text/css">*{stroke-linejoin: round; stroke-linecap: butt}</style>
 </defs>
 <g id="figure_1">
  <g id="patch_1">
   <path d="M 0 492.454219 
L 507.170156 492.454219 
L 507.170156 0 
L 0 0 
z
" style="fill: #ffffff"/>
  </g>
  <g id="axes_1">
   <g id="patch_2">
    <path d="M 56.450156 450.72 
L 499.970156 450.72 
L 499.970156 7.2 
L 56.450156 7.2 
z
" style="fill: #eaeaf2"/>
   </g>
   <g id="matplotlib.axis_1">
    <g id="xtick_1">
     <g id="line2d_1">
      <path d="M 100.802156 450.72 
L 100.802156 7.2 
" clip-path="url(#p3214ef72a9)" style="fill: none; stroke: #ffffff; stroke-linecap: round"/>
     </g>
     <g id="text_1">
      <!-- −400 -->
      <g style="fill: #262626" transform="translate(88.414266 468.093594) scale(0.11 -0.11)">
       <defs>
        <path id="ArialMT-2212" d="M 3381 1997 
L 356 1997 
L 356 2522 
L 3381 2522 
L 3381 1997 
z
" transform="scale(0.015625)"/>
        <path id="ArialMT-34" d="M 2069 0 
L 2069 1097 
L 81 1097 
L 81 1613 
L 2172 4581 
L 2631 4581 
L 2631 1613 
L 3250 1613 
L 3250 1097 
L 2631 1097 
L 2631 0 
L 2069 0 
z
M 2069 1613 
L 2069 3678 
L 634 1613 
L 2069 1613 
z
" transform="scale(0.015625)"/>
        <path id="ArialMT-30" d="M 266 2259 
Q 266 3072 433 3567 
Q 600 4063 929 4331 
Q 1259 4600 1759 4600 
Q 2128 4600 2406 4451 
Q 2684 4303 2865 4023 
Q 3047 3744 3150 3342 
Q 3253 2941 3253 2259 
Q 3253 1453 3087 958 
Q 2922 463 2592 192 
Q 2263 -78 1759 -78 
Q 1097 -78 719 397 
Q 266 969 266 2259 
z
M 844 2259 
Q 844 1131 1108 757 
Q 1372 384 1759 384 
Q 2147 384 2411 759 
Q 2675 1134 2675 2259 
Q 2675 3391 2411 3762 
Q 2147 4134 1753 4134 
Q 1366 4134 1134 3806 
Q 844 3388 844 2259 
z
" transform="scale(0.015625)"/>
       </defs>
       <use xlink:href="#ArialMT-2212"/>
       <use xlink:href="#ArialMT-34" x="58.398438"/>
       <use xlink:href="#ArialMT-30" x="114.013672"/>
       <use xlink:href="#ArialMT-30" x="169.628906"/>
      </g>
     </g>
    </g>
    <g id="xtick_2">
     <g id="line2d_2">
      <path d="M 189.506156 450.72 
L 189.506156 7.2 
" clip-path="url(#p3214ef72a9)" style="fill: none; stroke: #ffffff; stroke-linecap: round"/>
     </g>
     <g id="text_2">
      <!-- −200 -->
      <g style="fill: #262626" transform="translate(177.118266 468.093594) scale(0.11 -0.11)">
       <defs>
        <path id="ArialMT-32" d="M 3222 541 
L 3222 0 
L 194 0 
Q 188 203 259 391 
Q 375 700 629 1000 
Q 884 1300 1366 1694 
Q 2113 2306 2375 2664 
Q 2638 3022 2638 3341 
Q 2638 3675 2398 3904 
Q 2159 4134 1775 4134 
Q 1369 4134 1125 3890 
Q 881 3647 878 3216 
L 300 3275 
Q 359 3922 746 4261 
Q 1134 4600 1788 4600 
Q 2447 4600 2831 4234 
Q 3216 3869 3216 3328 
Q 3216 3053 3103 2787 
Q 2991 2522 2730 2228 
Q 2469 1934 1863 1422 
Q 1356 997 1212 845 
Q 1069 694 975 541 
L 3222 541 
z
" transform="scale(0.015625)"/>
       </defs>
       <use xlink:href="#ArialMT-2212"/>
       <use xlink:href="#ArialMT-32" x="58.398438"/>
       <use xlink:href="#ArialMT-30" x="114.013672"/>
       <use xlink:href="#ArialMT-30" x="169.628906"/>
      </g>
     </g>
    </g>
    <g id="xtick_3">
     <g id="line2d_3">
      <path d="M 278.210156 450.72 
L 278.210156 7.2 
" clip-path="url(#p3214ef72a9)" style="fill: none; stroke: #ffffff; stroke-linecap: round"/>
     </g>
     <g id="text_3">
      <!-- 0 -->
      <g style="fill: #262626" transform="translate(275.151641 468.093594) scale(0.11 -0.11)">
       <use xlink:href="#ArialMT-30"/>
      </g>
     </g>
    </g>
    <g id="xtick_4">
     <g id="line2d_4">
      <path d="M 366.914156 450.72 
L 366.914156 7.2 
" clip-path="url(#p3214ef72a9)" style="fill: none; stroke: #ffffff; stroke-linecap: round"/>
     </g>
     <g id="text_4">
      <!-- 200 -->
      <g style="fill: #262626" transform="translate(357.738609 468.093594) scale(0.11 -0.11)">
       <use xlink:href="#ArialMT-32"/>
       <use xlink:href="#ArialMT-30" x="55.615234"/>
       <use xlink:href="#ArialMT-30" x="111.230469"/>
      </g>
     </g>
    </g>
    <g id="xtick_5">
     <g id="line2d_5">
      <path d="M 455.618156 450.72 
L 455.618156 7.2 
" clip-path="url(#p3214ef72a9)" style="fill: none; stroke: #ffffff; stroke-linecap: round"/>
     </g>
     <g id="text_5">
      <!-- 400 -->
      <g style="fill: #262626" transform="translate(446.442609 468.093594) scale(0.11 -0.11)">
       <use xlink:href="#ArialMT-34"/>
       <use xlink:href="#ArialMT-30" x="55.615234"/>
       <use xlink:href="#ArialMT-30" x="111.230469"/>
      </g>
     </g>
    </g>
    <g id="text_6">
     <!-- x -->
     <g style="fill: #262626" transform="translate(275.210156 482.869219) scale(0.12 -0.12)">
      <defs>
       <path id="ArialMT-78" d="M 47 0 
L 1259 1725 
L 138 3319 
L 841 3319 
L 1350 2541 
Q 1494 2319 1581 2169 
Q 1719 2375 1834 2534 
L 2394 3319 
L 3066 3319 
L 1919 1756 
L 3153 0 
L 2463 0 
L 1781 1031 
L 1600 1309 
L 728 0 
L 47 0 
z
" transform="scale(0.015625)"/>
      </defs>
      <use xlink:href="#ArialMT-78"/>
     </g>
    </g>
   </g>
   <g id="matplotlib.axis_2">
    <g id="ytick_1">
     <g id="line2d_6">
      <path d="M 56.450156 406.368 
L 499.970156 406.368 
" clip-path="url(#p3214ef72a9)" style="fill: none; stroke: #ffffff; stroke-linecap: round"/>
     </g>
     <g id="text_7">
      <!-- −400 -->
      <g style="fill: #262626" transform="translate(22.174375 410.304797) scale(0.11 -0.11)">
       <use xlink:href="#ArialMT-2212"/>
       <use xlink:href="#ArialMT-34" x="58.398438"/>
       <use xlink:href="#ArialMT-30" x="114.013672"/>
       <use xlink:href="#ArialMT-30" x="169.628906"/>
      </g>
     </g>
    </g>
    <g id="ytick_2">
     <g id="line2d_7">
      <path d="M 56.450156 317.664 
L 499.970156 317.664 
" clip-path="url(#p3214ef72a9)" style="fill: none; stroke: #ffffff; stroke-linecap: round"/>
     </g>
     <g id="text_8">
      <!-- −200 -->
      <g style="fill: #262626" transform="translate(22.174375 321.600797) scale(0.11 -0.11)">
       <use xlink:href="#ArialMT-2212"/>
       <use xlink:href="#ArialMT-32" x="58.398438"/>
       <use xlink:href="#ArialMT-30" x="114.013672"/>
       <use xlink:href="#ArialMT-30" x="169.628906"/>
      </g>
     </g>
    </g>
    <g id="ytick_3">
     <g id="line2d_8">
      <path d="M 56.450156 228.96 
L 499.970156 228.96 
" clip-path="url(#p3214ef72a9)" style="fill: none; stroke: #ffffff; stroke-linecap: round"/>
     </g>
     <g id="text_9">
      <!-- 0 -->
      <g style="fill: #262626" transform="translate(40.833125 232.896797) scale(0.11 -0.11)">
       <use xlink:href="#ArialMT-30"/>
      </g>
     </g>
    </g>
    <g id="ytick_4">
     <g id="line2d_9">
      <path d="M 56.450156 140.256 
L 499.970156 140.256 
" clip-path="url(#p3214ef72a9)" style="fill: none; stroke: #ffffff; stroke-linecap: round"/>
     </g>
     <g id="text_10">
      <!-- 200 -->
      <g style="fill: #262626" transform="translate(28.599063 144.192797) scale(0.11 -0.11)">
       <use xlink:href="#ArialMT-32"/>
       <use xlink:href="#ArialMT-30" x="55.615234"/>
       <use xlink:href="#ArialMT-30" x="111.230469"/>
      </g>
     </g>
    </g>
    <g id="ytick_5">
     <g id="line2d_10">
      <path d="M 56.450156 51.552 
L 499.970156 51.552 
" clip-path="url(#p3214ef72a9)" style="fill: none; stroke: #ffffff; stroke-linecap: round"/>
     </g>
     <g id="text_11">
      <!-- 400 -->
      <g style="fill: #262626" transform="translate(28.599063 55.488797) scale(0.11 -0.11)">
       <use xlink:href="#ArialMT-34"/>
       <use xlink:href="#ArialMT-30" x="55.615234"/>
       <use xlink:href="#ArialMT-30" x="111.230469"/>
      </g>
     </g>
    </g>
    <g id="text_12">
     <!-- y -->
     <g style="fill: #262626" transform="translate(15.64875 231.96) rotate(-90) scale(0.12 -0.12)">
      <defs>
       <path id="ArialMT-79" d="M 397 -1278 
L 334 -750 
Q 519 -800 656 -800 
Q 844 -800 956 -737 
Q 1069 -675 1141 -563 
Q 1194 -478 1313 -144 
Q 1328 -97 1363 -6 
L 103 3319 
L 709 3319 
L 1400 1397 
Q 1534 1031 1641 628 
Q 1738 1016 1872 1384 
L 2581 3319 
L 3144 3319 
L 1881 -56 
Q 1678 -603 1566 -809 
Q 1416 -1088 1222 -1217 
Q 1028 -1347 759 -1347 
Q 597 -1347 397 -1278 
z
" transform="scale(0.015625)"/>
      </defs>
      <use xlink:href="#ArialMT-79"/>
     </g>
    </g>
   </g>
   <g id="patch_3">
    <path d="M 278.210156 317.664 
C 301.734732 317.664 324.298969 308.317587 340.933356 291.6832 
C 357.567743 275.048813 366.914156 252.484576 366.914156 228.96 
C 366.914156 205.435424 357.567743 182.871187 340.933356 166.2368 
C 324.298969 149.602413 301.734732 140.256 278.210156 140.256 
C 254.68558 140.256 232.121343 149.602413 215.486956 166.2368 
C 198.852569 182.871187 189.506156 205.435424 189.506156 228.96 
C 189.506156 252.484576 198.852569 275.048813 215.486956 291.6832 
C 232.121343 308.317587 254.68558 317.664 278.210156 317.664 
z
" clip-path="url(#p3214ef72a9)" style="fill: #228b22; opacity: 0.12; stroke: #228b22; stroke-width: 1.5; stroke-linejoin: miter"/>
   </g>
   <g id="PathCollection_1">
    <defs>
     <path id="m1a9c352d0d" d="M 0 2.236068 
C 0.593012 2.236068 1.161816 2.000462 1.581139 1.581139 
C 2.000462 1.161816 2.236068 0.593012 2.236068 0 
C 2.236068 -0.593012 2.000462 -1.161816 1.581139 -1.581139 
C 1.161816 -2.000462 0.593012 -2.236068 0 -2.236068 
C -0.593012 -2.236068 -1.161816 -2.000462 -1.581139 -1.581139 
C -2.000462 -1.161816 -2.236068 -0.593012 -2.236068 0 
C -2.236068 0.593012 -2.000462 1.161816 -1.581139 1.581139 
C -1.161816 2.000462 -0.593012 2.236068 0 2.236068 
z
" style="stroke: #4169e1"/>
    </defs>
    <g clip-path="url(#p3214ef72a9)">
     <use xlink:href="#m1a9c352d0d" x="297.025607" y="143.430055" style="fill: #4169e1; stroke: #4169e1"/>
     <use xlink:href="#m1a9c352d0d" x="382.040052" y="172.394687" style="fill: #4169e1; stroke: #4169e1"/>
     <use xlink:href="#m1a9c352d0d" x="408.839966" y="311.340497" style="fill: #4169e1; stroke: #4169e1"/>
     <use xlink:href="#m1a9c352d0d" x="340.304716" y="86.831466" style="fill: #4169e1; stroke: #4169e1"/>
     <use xlink:href="#m1a9c352d0d" x="211.37748" y="289.631311" style="fill: #4169e1; stroke: #4169e1"/>
     <use xlink:href="#m1a9c352d0d" x="304.814431" y="155.486245" style="fill: #4169e1; stroke: #4169e1"/>
     <use xlink:href="#m1a9c352d0d" x="207.592637" y="199.946218" style="fill: #4169e1; stroke: #4169e1"/>
     <use xlink:href="#m1a9c352d0d" x="345.145686" y="254.357851" style="fill: #4169e1; stroke: #4169e1"/>
     <use xlink:href="#m1a9c352d0d" x="385.63907" y="314.396519" style="fill: #4169e1; stroke: #4169e1"/>
     <use xlink:href="#m1a9c352d0d" x="330.304167" y="144.542577" style="fill: #4169e1; stroke: #4169e1"/>
     <use xlink:href="#m1a9c352d0d" x="186.041806" y="172.599139" style="fill: #4169e1; stroke: #4169e1"/>
     <use xlink:href="#m1a9c352d0d" x="197.062394" y="133.227667" style="fill: #4169e1; stroke: #4169e1"/>
     <use xlink:href="#m1a9c352d0d" x="365.120044" y="193.996928" style="fill: #4169e1; stroke: #4169e1"/>
     <use xlink:href="#m1a9c352d0d" x="386.444899" y="117.527536" style="fill: #4169e1; stroke: #4169e1"/>
     <use xlink:href="#m1a9c352d0d" x="294.583592" y="260.091516" style="fill: #4169e1; stroke: #4169e1"/>
     <use xlink:href="#m1a9c352d0d" x="324.665036" y="209.295673" style="fill: #4169e1; stroke: #4169e1"/>
     <use xlink:href="#m1a9c352d0d" x="210.428307" y="254.097644" style="fill: #4169e1; stroke: #4169e1"/>
     <use xlink:href="#m1a9c352d0d" x="383.573518" y="202.59658" style="fill: #4169e1; stroke: #4169e1"/>
     <use xlink:href="#m1a9c352d0d" x="230.299835" y="140.919967" style="fill: #4169e1; stroke: #4169e1"/>
     <use xlink:href="#m1a9c352d0d" x="402.181955" y="108.922722" style="fill: #4169e1; stroke: #4169e1"/>
     <use xlink:href="#m1a9c352d0d" x="345.13473" y="226.444723" style="fill: #4169e1; stroke: #4169e1"/>
     <use xlink:href="#m1a9c352d0d" x="253.145551" y="284.651504" style="fill: #4169e1; stroke: #4169e1"/>
     <use xlink:href="#m1a9c352d0d" x="402.233998" y="241.27087" style="fill: #4169e1; stroke: #4169e1"/>
     <use xlink:href="#m1a9c352d0d" x="244.413142" y="108.318824" style="fill: #4169e1; stroke: #4169e1"/>
     <use xlink:href="#m1a9c352d0d" x="406.61258" y="197.396283" style="fill: #4169e1; stroke: #4169e1"/>
     <use xlink:href="#m1a9c352d0d" x="335.677323" y="142.139349" style="fill: #4169e1; stroke: #4169e1"/>
     <use xlink:href="#m1a9c352d0d" x="335.413469" y="191.42956" style="fill: #4169e1; stroke: #4169e1"/>
     <use xlink:href="#m1a9c352d0d" x="249.845719" y="311.550664" style="fill: #4169e1; stroke: #4169e1"/>
     <use xlink:href="#m1a9c352d0d" x="316.243935" y="303.682008" style="fill: #4169e1; stroke: #4169e1"/>
     <use xlink:href="#m1a9c352d0d" x="239.431287" y="264.450344" style="fill: #4169e1; stroke: #4169e1"/>
     <use xlink:href="#m1a9c352d0d" x="379.329021" y="228.324596" style="fill: #4169e1; stroke: #4169e1"/>
     <use xlink:href="#m1a9c352d0d" x="388.789764" y="92.556837" style="fill: #4169e1; stroke: #4169e1"/>
     <use xlink:href="#m1a9c352d0d" x="228.876427" y="135.790969" style="fill: #4169e1; stroke: #4169e1"/>
     <use xlink:href="#m1a9c352d0d" x="318.457925" y="83.709988" style="fill: #4169e1; stroke: #4169e1"/>
     <use xlink:href="#m1a9c352d0d" x="377.84012" y="180.577897" style="fill: #4169e1; stroke: #4169e1"/>
     <use xlink:href="#m1a9c352d0d" x="300.095754" y="319.509092" style="fill: #4169e1; stroke: #4169e1"/>
     <use xlink:href="#m1a9c352d0d" x="306.764967" y="168.248131" style="fill: #4169e1; stroke: #4169e1"/>
     <use xlink:href="#m1a9c352d0d" x="370.904205" y="170.672325" style="fill: #4169e1; stroke: #4169e1"/>
     <use xlink:href="#m1a9c352d0d" x="338.453519" y="107.37116" style="fill: #4169e1; stroke: #4169e1"/>
     <use xlink:href="#m1a9c352d0d" x="219.382266" y="343.228621" style="fill: #4169e1; stroke: #4169e1"/>
     <use xlink:href="#m1a9c352d0d" x="227.877032" y="312.690791" style="fill: #4169e1; stroke: #4169e1"/>
     <use xlink:href="#m1a9c352d0d" x="395.934736" y="197.269188" style="fill: #4169e1; stroke: #4169e1"/>
     <use xlink:href="#m1a9c352d0d" x="226.85128" y="205.842845" style="fill: #4169e1; stroke: #4169e1"/>
     <use xlink:href="#m1a9c352d0d" x="300.72148" y="129.630916" style="fill: #4169e1; stroke: #4169e1"/>
     <use xlink:href="#m1a9c352d0d" x="242.805131" y="223.726438" style="fill: #4169e1; stroke: #4169e1"/>
     <use xlink:href="#m1a9c352d0d" x="278.427804" y="118.296759" style="fill: #4169e1; stroke: #4169e1"/>
     <use xlink:href="#m1a9c352d0d" x="366.480131" y="199.447495" style="fill: #4169e1; stroke: #4169e1"/>
     <use xlink:href="#m1a9c352d0d" x="238.38549" y="323.077826" style="fill: #4169e1; stroke: #4169e1"/>
     <use xlink:href="#m1a9c352d0d" x="343.620179" y="216.277298" style="fill: #4169e1; stroke: #4169e1"/>
     <use xlink:href="#m1a9c352d0d" x="352.430774" y="265.800432" style="fill: #4169e1; stroke: #4169e1"/>
     <use xlink:href="#m1a9c352d0d" x="415.719994" y="253.960183" style="fill: #4169e1; stroke: #4169e1"/>
     <use xlink:href="#m1a9c352d0d" x="396.066988" y="83.847641" style="fill: #4169e1; stroke: #4169e1"/>
     <use xlink:href="#m1a9c352d0d" x="259.953878" y="312.790369" style="fill: #4169e1; stroke: #4169e1"/>
     <use xlink:href="#m1a9c352d0d" x="269.34151" y="142.477992" style="fill: #4169e1; stroke: #4169e1"/>
     <use xlink:href="#m1a9c352d0d" x="300.278498" y="77.903921" style="fill: #4169e1; stroke: #4169e1"/>
     <use xlink:href="#m1a9c352d0d" x="202.014299" y="265.384855" style="fill: #4169e1; stroke: #4169e1"/>
     <use xlink:href="#m1a9c352d0d" x="167.106698" y="275.364326" style="fill: #4169e1; stroke: #4169e1"/>
     <use xlink:href="#m1a9c352d0d" x="337.774291" y="160.345136" style="fill: #4169e1; stroke: #4169e1"/>
     <use xlink:href="#m1a9c352d0d" x="208.323922" y="338.013959" style="fill: #4169e1; stroke: #4169e1"/>
     <use xlink:href="#m1a9c352d0d" x="263.432635" y="136.242217" style="fill: #4169e1; stroke: #4169e1"/>
     <use xlink:href="#m1a9c352d0d" x="250.662102" y="105.849118" style="fill: #4169e1; stroke: #4169e1"/>
     <use xlink:href="#m1a9c352d0d" x="437.056219" y="168.158373" style="fill: #4169e1; stroke: #4169e1"/>
     <use xlink:href="#m1a9c352d0d" x="256.260266" y="159.746327" style="fill: #4169e1; stroke: #4169e1"/>
     <use xlink:href="#m1a9c352d0d" x="435.643243" y="218.412408" style="fill: #4169e1; stroke: #4169e1"/>
     <use xlink:href="#m1a9c352d0d" x="216.091639" y="311.757529" style="fill: #4169e1; stroke: #4169e1"/>
     <use xlink:href="#m1a9c352d0d" x="335.014967" y="205.626228" style="fill: #4169e1; stroke: #4169e1"/>
     <use xlink:href="#m1a9c352d0d" x="257.091245" y="263.26999" style="fill: #4169e1; stroke: #4169e1"/>
     <use xlink:href="#m1a9c352d0d" x="375.234488" y="39.502043" style="fill: #4169e1; stroke: #4169e1"/>
     <use xlink:href="#m1a9c352d0d" x="404.600322" y="93.690082" style="fill: #4169e1; stroke: #4169e1"/>
     <use xlink:href="#m1a9c352d0d" x="267.3645" y="188.959624" style="fill: #4169e1; stroke: #4169e1"/>
     <use xlink:href="#m1a9c352d0d" x="351.400918" y="130.553127" style="fill: #4169e1; stroke: #4169e1"/>
     <use xlink:href="#m1a9c352d0d" x="298.193123" y="83.984116" style="fill: #4169e1; stroke: #4169e1"/>
     <use xlink:href="#m1a9c352d0d" x="353.710016" y="247.058203" style="fill: #4169e1; stroke: #4169e1"/>
     <use xlink:href="#m1a9c352d0d" x="372.206808" y="267.795152" style="fill: #4169e1; stroke: #4169e1"/>
     <use xlink:href="#m1a9c352d0d" x="219.532161" y="245.333118" style="fill: #4169e1; stroke: #4169e1"/>
     <use xlink:href="#m1a9c352d0d" x="316.786654" y="287.753843" style="fill: #4169e1; stroke: #4169e1"/>
     <use xlink:href="#m1a9c352d0d" x="409.316309" y="213.761936" style="fill: #4169e1; stroke: #4169e1"/>
     <use xlink:href="#m1a9c352d0d" x="307.678218" y="147.744521" style="fill: #4169e1; stroke: #4169e1"/>
     <use xlink:href="#m1a9c352d0d" x="323.717551" y="184.024933" style="fill: #4169e1; stroke: #4169e1"/>
     <use xlink:href="#m1a9c352d0d" x="252.194985" y="146.314174" style="fill: #4169e1; stroke: #4169e1"/>
     <use xlink:href="#m1a9c352d0d" x="396.723903" y="237.506785" style="fill: #4169e1; stroke: #4169e1"/>
     <use xlink:href="#m1a9c352d0d" x="253.124299" y="129.272857" style="fill: #4169e1; stroke: #4169e1"/>
     <use xlink:href="#m1a9c352d0d" x="348.778549" y="192.485038" style="fill: #4169e1; stroke: #4169e1"/>
     <use xlink:href="#m1a9c352d0d" x="231.059458" y="314.233488" style="fill: #4169e1; stroke: #4169e1"/>
     <use xlink:href="#m1a9c352d0d" x="327.43824" y="178.527967" style="fill: #4169e1; stroke: #4169e1"/>
     <use xlink:href="#m1a9c352d0d" x="311.880966" y="323.792096" style="fill: #4169e1; stroke: #4169e1"/>
     <use xlink:href="#m1a9c352d0d" x="389.366246" y="178.289329" style="fill: #4169e1; stroke: #4169e1"/>
     <use xlink:href="#m1a9c352d0d" x="219.283703" y="208.500246" style="fill: #4169e1; stroke: #4169e1"/>
     <use xlink:href="#m1a9c352d0d" x="333.872096" y="236.320393" style="fill: #4169e1; stroke: #4169e1"/>
     <use xlink:href="#m1a9c352d0d" x="180.511172" y="265.434877" style="fill: #4169e1; stroke: #4169e1"/>
     <use xlink:href="#m1a9c352d0d" x="326.526214" y="262.999893" style="fill: #4169e1; stroke: #4169e1"/>
     <use xlink:href="#m1a9c352d0d" x="244.950775" y="178.60665" style="fill: #4169e1; stroke: #4169e1"/>
     <use xlink:href="#m1a9c352d0d" x="417.061396" y="206.172945" style="fill: #4169e1; stroke: #4169e1"/>
     <use xlink:href="#m1a9c352d0d" x="195.11323" y="248.93863" style="fill: #4169e1; stroke: #4169e1"/>
     <use xlink:href="#m1a9c352d0d" x="294.511898" y="180.76856" style="fill: #4169e1; stroke: #4169e1"/>
     <use xlink:href="#m1a9c352d0d" x="373.513655" y="159.512825" style="fill: #4169e1; stroke: #4169e1"/>
     <use xlink:href="#m1a9c352d0d" x="270.707798" y="181.986809" style="fill: #4169e1; stroke: #4169e1"/>
     <use xlink:href="#m1a9c352d0d" x="146.901355" y="114.589716" style="fill: #4169e1; stroke: #4169e1"/>
     <use xlink:href="#m1a9c352d0d" x="313.305652" y="267.072513" style="fill: #4169e1; stroke: #4169e1"/>
     <use xlink:href="#m1a9c352d0d" x="267.020408" y="218.648666" style="fill: #4169e1; stroke: #4169e1"/>
     <use xlink:href="#m1a9c352d0d" x="306.133194" y="250.208001" style="fill: #4169e1; stroke: #4169e1"/>
     <use xlink:href="#m1a9c352d0d" x="166.119741" y="208.310354" style="fill: #4169e1; stroke: #4169e1"/>
     <use xlink:href="#m1a9c352d0d" x="247.834474" y="218.961116" style="fill: #4169e1; stroke: #4169e1"/>
     <use xlink:href="#m1a9c352d0d" x="342.630854" y="128.371212" style="fill: #4169e1; stroke: #4169e1"/>
     <use xlink:href="#m1a9c352d0d" x="349.569517" y="150.429321" style="fill: #4169e1; stroke: #4169e1"/>
     <use xlink:href="#m1a9c352d0d" x="322.856224" y="181.087371" style="fill: #4169e1; stroke: #4169e1"/>
     <use xlink:href="#m1a9c352d0d" x="373.19815" y="217.701021" style="fill: #4169e1; stroke: #4169e1"/>
     <use xlink:href="#m1a9c352d0d" x="300.186029" y="166.330477" style="fill: #4169e1; stroke: #4169e1"/>
     <use xlink:href="#m1a9c352d0d" x="247.789605" y="302.738235" style="fill: #4169e1; stroke: #4169e1"/>
     <use xlink:href="#m1a9c352d0d" x="280.388046" y="167.062215" style="fill: #4169e1; stroke: #4169e1"/>
     <use xlink:href="#m1a9c352d0d" x="235.780321" y="248.293697" style="fill: #4169e1; stroke: #4169e1"/>
     <use xlink:href="#m1a9c352d0d" x="337.746043" y="308.772648" style="fill: #4169e1; stroke: #4169e1"/>
     <use xlink:href="#m1a9c352d0d" x="422.992826" y="190.328329" style="fill: #4169e1; stroke: #4169e1"/>
     <use xlink:href="#m1a9c352d0d" x="283.841531" y="102.769031" style="fill: #4169e1; stroke: #4169e1"/>
     <use xlink:href="#m1a9c352d0d" x="396.096048" y="294.445942" style="fill: #4169e1; stroke: #4169e1"/>
     <use xlink:href="#m1a9c352d0d" x="189.724451" y="207.860896" style="fill: #4169e1; stroke: #4169e1"/>
     <use xlink:href="#m1a9c352d0d" x="398.592066" y="147.484849" style="fill: #4169e1; stroke: #4169e1"/>
     <use xlink:href="#m1a9c352d0d" x="365.071521" y="273.669876" style="fill: #4169e1; stroke: #4169e1"/>
     <use xlink:href="#m1a9c352d0d" x="363.374408" y="201.287564" style="fill: #4169e1; stroke: #4169e1"/>
     <use xlink:href="#m1a9c352d0d" x="253.62542" y="209.676808" style="fill: #4169e1; stroke: #4169e1"/>
     <use xlink:href="#m1a9c352d0d" x="227.242622" y="221.870868" style="fill: #4169e1; stroke: #4169e1"/>
     <use xlink:href="#m1a9c352d0d" x="168.680877" y="275.850681" style="fill: #4169e1; stroke: #4169e1"/>
     <use xlink:href="#m1a9c352d0d" x="329.796657" y="142.262472" style="fill: #4169e1; stroke: #4169e1"/>
     <use xlink:href="#m1a9c352d0d" x="347.735185" y="102.681729" style="fill: #4169e1; stroke: #4169e1"/>
     <use xlink:href="#m1a9c352d0d" x="163.35193" y="244.89341" style="fill: #4169e1; stroke: #4169e1"/>
     <use xlink:href="#m1a9c352d0d" x="297.920843" y="175.114309" style="fill: #4169e1; stroke: #4169e1"/>
     <use xlink:href="#m1a9c352d0d" x="265.938443" y="310.095723" style="fill: #4169e1; stroke: #4169e1"/>
     <use xlink:href="#m1a9c352d0d" x="429.340314" y="118.202168" style="fill: #4169e1; stroke: #4169e1"/>
     <use xlink:href="#m1a9c352d0d" x="268.833998" y="206.904163" style="fill: #4169e1; stroke: #4169e1"/>
     <use xlink:href="#m1a9c352d0d" x="363.209564" y="77.424938" style="fill: #4169e1; stroke: #4169e1"/>
     <use xlink:href="#m1a9c352d0d" x="294.571392" y="270.320416" style="fill: #4169e1; stroke: #4169e1"/>
     <use xlink:href="#m1a9c352d0d" x="435.970821" y="177.540652" style="fill: #4169e1; stroke: #4169e1"/>
     <use xlink:href="#m1a9c352d0d" x="313.300066" y="291.371783" style="fill: #4169e1; stroke: #4169e1"/>
     <use xlink:href="#m1a9c352d0d" x="299.722705" y="134.55506" style="fill: #4169e1; stroke: #4169e1"/>
     <use xlink:href="#m1a9c352d0d" x="378.98355" y="279.581816" style="fill: #4169e1; stroke: #4169e1"/>
     <use xlink:href="#m1a9c352d0d" x="387.192785" y="128.438455" style="fill: #4169e1; stroke: #4169e1"/>
     <use xlink:href="#m1a9c352d0d" x="379.261663" y="204.661312" style="fill: #4169e1; stroke: #4169e1"/>
     <use xlink:href="#m1a9c352d0d" x="326.97501" y="172.39111" style="fill: #4169e1; stroke: #4169e1"/>
     <use xlink:href="#m1a9c352d0d" x="346.420089" y="168.883512" style="fill: #4169e1; stroke: #4169e1"/>
     <use xlink:href="#m1a9c352d0d" x="297.249627" y="226.566817" style="fill: #4169e1; stroke: #4169e1"/>
     <use xlink:href="#m1a9c352d0d" x="317.525972" y="312.57826" style="fill: #4169e1; stroke: #4169e1"/>
     <use xlink:href="#m1a9c352d0d" x="256.157154" y="286.876257" style="fill: #4169e1; stroke: #4169e1"/>
     <use xlink:href="#m1a9c352d0d" x="262.695443" y="218.836635" style="fill: #4169e1; stroke: #4169e1"/>
     <use xlink:href="#m1a9c352d0d" x="423.017108" y="194.47294" style="fill: #4169e1; stroke: #4169e1"/>
     <use xlink:href="#m1a9c352d0d" x="369.460579" y="224.759889" style="fill: #4169e1; stroke: #4169e1"/>
     <use xlink:href="#m1a9c352d0d" x="465.049034" y="138.06034" style="fill: #4169e1; stroke: #4169e1"/>
     <use xlink:href="#m1a9c352d0d" x="277.767408" y="143.178836" style="fill: #4169e1; stroke: #4169e1"/>
     <use xlink:href="#m1a9c352d0d" x="374.172722" y="145.57778" style="fill: #4169e1; stroke: #4169e1"/>
     <use xlink:href="#m1a9c352d0d" x="382.927667" y="105.941564" style="fill: #4169e1; stroke: #4169e1"/>
     <use xlink:href="#m1a9c352d0d" x="431.362033" y="207.079102" style="fill: #4169e1; stroke: #4169e1"/>
     <use xlink:href="#m1a9c352d0d" x="320.338784" y="231.628357" style="fill: #4169e1; stroke: #4169e1"/>
     <use xlink:href="#m1a9c352d0d" x="334.576979" y="246.555603" style="fill: #4169e1; stroke: #4169e1"/>
     <use xlink:href="#m1a9c352d0d" x="316.778652" y="303.559183" style="fill: #4169e1; stroke: #4169e1"/>
     <use xlink:href="#m1a9c352d0d" x="383.590091" y="233.594066" style="fill: #4169e1; stroke: #4169e1"/>
    </g>
   </g>
   <g id="PathCollection_2">
    <defs>
     <path id="m2859ed7386" d="M 0 2.5 
C 0.663008 2.5 1.29895 2.236584 1.767767 1.767767 
C 2.236584 1.29895 2.5 0.663008 2.5 0 
C 2.5 -0.663008 2.236584 -1.29895 1.767767 -1.767767 
C 1.29895 -2.236584 0.663008 -2.5 0 -2.5 
C -0.663008 -2.5 -1.29895 -2.236584 -1.767767 -1.767767 
C -2.236584 -1.29895 -2.5 -0.663008 -2.5 0 
C -2.5 0.663008 -2.236584 1.29895 -1.767767 1.767767 
C -1.29895 2.236584 -0.663008 2.5 0 2.5 
z
" style="stroke: #b22222"/>
    </defs>
    <g clip-path="url(#p3214ef72a9)">
     <use xlink:href="#m2859ed7386" x="323.644329" y="241.363171" style="fill: #b22222; stroke: #b22222"/>
     <use xlink:href="#m2859ed7386" x="244.593667" y="251.610573" style="fill: #b22222; stroke: #b22222"/>
     <use xlink:href="#m2859ed7386" x="254.073115" y="252.857567" style="fill: #b22222; stroke: #b22222"/>
     <use xlink:href="#m2859ed7386" x="252.45638" y="247.097483" style="fill: #b22222; stroke: #b22222"/>
     <use xlink:href="#m2859ed7386" x="264.198711" y="249.934499" style="fill: #b22222; stroke: #b22222"/>
     <use xlink:href="#m2859ed7386" x="242.848491" y="228.833203" style="fill: #b22222; stroke: #b22222"/>
     <use xlink:href="#m2859ed7386" x="261.254436" y="237.443068" style="fill: #b22222; stroke: #b22222"/>
     <use xlink:href="#m2859ed7386" x="265.042335" y="235.147488" style="fill: #b22222; stroke: #b22222"/>
     <use xlink:href="#m2859ed7386" x="252.932" y="255.529058" style="fill: #b22222; stroke: #b22222"/>
     <use xlink:href="#m2859ed7386" x="296.246197" y="241.283922" style="fill: #b22222; stroke: #b22222"/>
     <use xlink:href="#m2859ed7386" x="277.551438" y="241.274267" style="fill: #b22222; stroke: #b22222"/>
     <use xlink:href="#m2859ed7386" x="243.167116" y="239.651019" style="fill: #b22222; stroke: #b22222"/>
     <use xlink:href="#m2859ed7386" x="263.411958" y="240.677738" style="fill: #b22222; stroke: #b22222"/>
     <use xlink:href="#m2859ed7386" x="356.739346" y="222.501289" style="fill: #b22222; stroke: #b22222"/>
     <use xlink:href="#m2859ed7386" x="249.88211" y="240.181616" style="fill: #b22222; stroke: #b22222"/>
     <use xlink:href="#m2859ed7386" x="261.965634" y="242.371449" style="fill: #b22222; stroke: #b22222"/>
     <use xlink:href="#m2859ed7386" x="270.842027" y="250.833872" style="fill: #b22222; stroke: #b22222"/>
     <use xlink:href="#m2859ed7386" x="258.770302" y="237.593737" style="fill: #b22222; stroke: #b22222"/>
     <use xlink:href="#m2859ed7386" x="273.376834" y="253.291252" style="fill: #b22222; stroke: #b22222"/>
     <use xlink:href="#m2859ed7386" x="278.224167" y="247.132022" style="fill: #b22222; stroke: #b22222"/>
     <use xlink:href="#m2859ed7386" x="261.194602" y="264.051449" style="fill: #b22222; stroke: #b22222"/>
     <use xlink:href="#m2859ed7386" x="271.882804" y="248.93884" style="fill: #b22222; stroke: #b22222"/>
     <use xlink:href="#m2859ed7386" x="336.092474" y="200.324482" style="fill: #b22222; stroke: #b22222"/>
     <use xlink:href="#m2859ed7386" x="298.729988" y="213.623978" style="fill: #b22222; stroke: #b22222"/>
     <use xlink:href="#m2859ed7386" x="279.503578" y="228.065755" style="fill: #b22222; stroke: #b22222"/>
     <use xlink:href="#m2859ed7386" x="285.013122" y="238.447248" style="fill: #b22222; stroke: #b22222"/>
     <use xlink:href="#m2859ed7386" x="250.181032" y="254.655817" style="fill: #b22222; stroke: #b22222"/>
     <use xlink:href="#m2859ed7386" x="350.314783" y="223.899199" style="fill: #b22222; stroke: #b22222"/>
     <use xlink:href="#m2859ed7386" x="254.813613" y="244.659727" style="fill: #b22222; stroke: #b22222"/>
     <use xlink:href="#m2859ed7386" x="280.442797" y="239.407633" style="fill: #b22222; stroke: #b22222"/>
     <use xlink:href="#m2859ed7386" x="259.119683" y="253.371784" style="fill: #b22222; stroke: #b22222"/>
     <use xlink:href="#m2859ed7386" x="245.264256" y="242.693516" style="fill: #b22222; stroke: #b22222"/>
     <use xlink:href="#m2859ed7386" x="257.863492" y="240.256701" style="fill: #b22222; stroke: #b22222"/>
     <use xlink:href="#m2859ed7386" x="254.666686" y="245.537731" style="fill: #b22222; stroke: #b22222"/>
     <use xlink:href="#m2859ed7386" x="267.624447" y="246.872079" style="fill: #b22222; stroke: #b22222"/>
     <use xlink:href="#m2859ed7386" x="245.961364" y="244.560508" style="fill: #b22222; stroke: #b22222"/>
     <use xlink:href="#m2859ed7386" x="256.710412" y="242.418963" style="fill: #b22222; stroke: #b22222"/>
     <use xlink:href="#m2859ed7386" x="265.715237" y="249.781569" style="fill: #b22222; stroke: #b22222"/>
     <use xlink:href="#m2859ed7386" x="260.024564" y="238.818786" style="fill: #b22222; stroke: #b22222"/>
     <use xlink:href="#m2859ed7386" x="255.244766" y="250.85894" style="fill: #b22222; stroke: #b22222"/>
     <use xlink:href="#m2859ed7386" x="242.577494" y="242.596767" style="fill: #b22222; stroke: #b22222"/>
     <use xlink:href="#m2859ed7386" x="272.053672" y="238.206473" style="fill: #b22222; stroke: #b22222"/>
     <use xlink:href="#m2859ed7386" x="297.533101" y="240.419111" style="fill: #b22222; stroke: #b22222"/>
     <use xlink:href="#m2859ed7386" x="278.993244" y="255.369815" style="fill: #b22222; stroke: #b22222"/>
     <use xlink:href="#m2859ed7386" x="240.338728" y="242.475035" style="fill: #b22222; stroke: #b22222"/>
     <use xlink:href="#m2859ed7386" x="248.714713" y="247.538855" style="fill: #b22222; stroke: #b22222"/>
     <use xlink:href="#m2859ed7386" x="292.131693" y="240.019493" style="fill: #b22222; stroke: #b22222"/>
     <use xlink:href="#m2859ed7386" x="261.393256" y="250.42252" style="fill: #b22222; stroke: #b22222"/>
     <use xlink:href="#m2859ed7386" x="300.424045" y="220.597977" style="fill: #b22222; stroke: #b22222"/>
     <use xlink:href="#m2859ed7386" x="254.045896" y="240.22539" style="fill: #b22222; stroke: #b22222"/>
     <use xlink:href="#m2859ed7386" x="270.315754" y="248.718031" style="fill: #b22222; stroke: #b22222"/>
     <use xlink:href="#m2859ed7386" x="247.161679" y="246.619263" style="fill: #b22222; stroke: #b22222"/>
     <use xlink:href="#m2859ed7386" x="281.822799" y="231.151996" style="fill: #b22222; stroke: #b22222"/>
     <use xlink:href="#m2859ed7386" x="256.773208" y="242.247847" style="fill: #b22222; stroke: #b22222"/>
     <use xlink:href="#m2859ed7386" x="279.555639" y="247.173365" style="fill: #b22222; stroke: #b22222"/>
     <use xlink:href="#m2859ed7386" x="256.507589" y="246.473044" style="fill: #b22222; stroke: #b22222"/>
     <use xlink:href="#m2859ed7386" x="249.798916" y="220.160534" style="fill: #b22222; stroke: #b22222"/>
     <use xlink:href="#m2859ed7386" x="275.704983" y="243.936877" style="fill: #b22222; stroke: #b22222"/>
     <use xlink:href="#m2859ed7386" x="287.664476" y="244.776871" style="fill: #b22222; stroke: #b22222"/>
     <use xlink:href="#m2859ed7386" x="245.846085" y="239.814279" style="fill: #b22222; stroke: #b22222"/>
     <use xlink:href="#m2859ed7386" x="269.502964" y="235.478798" style="fill: #b22222; stroke: #b22222"/>
     <use xlink:href="#m2859ed7386" x="276.658228" y="246.860567" style="fill: #b22222; stroke: #b22222"/>
     <use xlink:href="#m2859ed7386" x="273.796567" y="246.873135" style="fill: #b22222; stroke: #b22222"/>
     <use xlink:href="#m2859ed7386" x="279.080995" y="248.274027" style="fill: #b22222; stroke: #b22222"/>
     <use xlink:href="#m2859ed7386" x="257.057675" y="224.447152" style="fill: #b22222; stroke: #b22222"/>
     <use xlink:href="#m2859ed7386" x="266.860676" y="248.642943" style="fill: #b22222; stroke: #b22222"/>
     <use xlink:href="#m2859ed7386" x="255.310387" y="242.614752" style="fill: #b22222; stroke: #b22222"/>
     <use xlink:href="#m2859ed7386" x="257.75584" y="242.031751" style="fill: #b22222; stroke: #b22222"/>
    </g>
   </g>
   <g id="patch_4">
    <path d="M 56.450156 450.72 
L 56.450156 7.2 
" style="fill: none; stroke: #ffffff; stroke-width: 1.25; stroke-linejoin: miter; stroke-linecap: square"/>
   </g>
   <g id="patch_5">
    <path d="M 499.970156 450.72 
L 499.970156 7.2 
" style="fill: none; stroke: #ffffff; stroke-width: 1.25; stroke-linejoin: miter; stroke-linecap: square"/>
   </g>
   <g id="patch_6">
    <path d="M 56.450156 450.72 
L 499.970156 450.72 
" style="fill: none; stroke: #ffffff; stroke-width: 1.25; stroke-linejoin: miter; stroke-linecap: square"/>
   </g>
   <g id="patch_7">
    <path d="M 56.450156 7.2 
L 499.970156 7.2 
" style="fill: none; stroke: #ffffff; stroke-width: 1.25; stroke-linejoin: miter; stroke-linecap: square"/>
   </g>
   <g id="text_13">
    <!-- t = 4500 -->
    <g style="fill: #262626" transform="translate(65.320556 24.659775) scale(0.12 -0.12)">
     <defs>
      <path id="ArialMT-74" d="M 1650 503 
L 1731 6 
Q 1494 -44 1306 -44 
Q 1000 -44 831 53 
Q 663 150 594 308 
Q 525 466 525 972 
L 525 2881 
L 113 2881 
L 113 3319 
L 525 3319 
L 525 4141 
L 1084 4478 
L 1084 3319 
L 1650 3319 
L 1650 2881 
L 1084 2881 
L 1084 941 
Q 1084 700 1114 631 
Q 1144 563 1211 522 
Q 1278 481 1403 481 
Q 1497 481 1650 503 
z
" transform="scale(0.015625)"/>
      <path id="ArialMT-20" transform="scale(0.015625)"/>
      <path id="ArialMT-3d" d="M 3381 2694 
L 356 2694 
L 356 3219 
L 3381 3219 
L 3381 2694 
z
M 3381 1303 
L 356 1303 
L 356 1828 
L 3381 1828 
L 3381 1303 
z
" transform="scale(0.015625)"/>
      <path id="ArialMT-35" d="M 266 1200 
L 856 1250 
Q 922 819 1161 601 
Q 1400 384 1738 384 
Q 2144 384 2425 690 
Q 2706 997 2706 1503 
Q 2706 1984 2436 2262 
Q 2166 2541 1728 2541 
Q 1456 2541 1237 2417 
Q 1019 2294 894 2097 
L 366 2166 
L 809 4519 
L 3088 4519 
L 3088 3981 
L 1259 3981 
L 1013 2750 
Q 1425 3038 1878 3038 
Q 2478 3038 2890 2622 
Q 3303 2206 3303 1553 
Q 3303 931 2941 478 
Q 2500 -78 1738 -78 
Q 1113 -78 717 272 
Q 322 622 266 1200 
z
" transform="scale(0.015625)"/>
     </defs>
     <use xlink:href="#ArialMT-74"/>
     <use xlink:href="#ArialMT-20" x="27.783203"/>
     <use xlink:href="#ArialMT-3d" x="55.566406"/>
     <use xlink:href="#ArialMT-20" x="113.964844"/>
     <use xlink:href="#ArialMT-34" x="141.748047"/>
     <use xlink:href="#ArialMT-35" x="197.363281"/>
     <use xlink:href="#ArialMT-30" x="252.978516"/>
     <use xlink:href="#ArialMT-30" x="308.59375"/>
    </g>
   </g>
   <g id="legend_1">
    <g id="patch_8">
     <path d="M 328.111406 94.59 
L 483.170156 94.59 
Q 487.970156 94.59 487.970156 89.79 
L 487.970156 24 
Q 487.970156 19.2 483.170156 19.2 
L 328.111406 19.2 
Q 323.311406 19.2 323.311406 24 
L 323.311406 89.79 
Q 323.311406 94.59 328.111406 94.59 
z
" style="fill: #eaeaf2; opacity: 0.8; stroke: #cccccc; stroke-linejoin: miter"/>
    </g>
    <g id="PathCollection_3">
     <g>
      <use xlink:href="#m1a9c352d0d" x="356.911406" y="39.97125" style="fill: #4169e1; stroke: #4169e1"/>
     </g>
    </g>
    <g id="text_14">
     <!-- Sheep -->
     <g style="fill: #262626" transform="translate(400.111406 46.27125) scale(0.24 -0.24)">
      <defs>
       <path id="ArialMT-53" d="M 288 1472 
L 859 1522 
Q 900 1178 1048 958 
Q 1197 738 1509 602 
Q 1822 466 2213 466 
Q 2559 466 2825 569 
Q 3091 672 3220 851 
Q 3350 1031 3350 1244 
Q 3350 1459 3225 1620 
Q 3100 1781 2813 1891 
Q 2628 1963 1997 2114 
Q 1366 2266 1113 2400 
Q 784 2572 623 2826 
Q 463 3081 463 3397 
Q 463 3744 659 4045 
Q 856 4347 1234 4503 
Q 1613 4659 2075 4659 
Q 2584 4659 2973 4495 
Q 3363 4331 3572 4012 
Q 3781 3694 3797 3291 
L 3216 3247 
Q 3169 3681 2898 3903 
Q 2628 4125 2100 4125 
Q 1550 4125 1298 3923 
Q 1047 3722 1047 3438 
Q 1047 3191 1225 3031 
Q 1400 2872 2139 2705 
Q 2878 2538 3153 2413 
Q 3553 2228 3743 1945 
Q 3934 1663 3934 1294 
Q 3934 928 3725 604 
Q 3516 281 3123 101 
Q 2731 -78 2241 -78 
Q 1619 -78 1198 103 
Q 778 284 539 648 
Q 300 1013 288 1472 
z
" transform="scale(0.015625)"/>
       <path id="ArialMT-68" d="M 422 0 
L 422 4581 
L 984 4581 
L 984 2938 
Q 1378 3394 1978 3394 
Q 2347 3394 2619 3248 
Q 2891 3103 3008 2847 
Q 3125 2591 3125 2103 
L 3125 0 
L 2563 0 
L 2563 2103 
Q 2563 2525 2380 2717 
Q 2197 2909 1863 2909 
Q 1613 2909 1392 2779 
Q 1172 2650 1078 2428 
Q 984 2206 984 1816 
L 984 0 
L 422 0 
z
" transform="scale(0.015625)"/>
       <path id="ArialMT-65" d="M 2694 1069 
L 3275 997 
Q 3138 488 2766 206 
Q 2394 -75 1816 -75 
Q 1088 -75 661 373 
Q 234 822 234 1631 
Q 234 2469 665 2931 
Q 1097 3394 1784 3394 
Q 2450 3394 2872 2941 
Q 3294 2488 3294 1666 
Q 3294 1616 3291 1516 
L 816 1516 
Q 847 969 1125 678 
Q 1403 388 1819 388 
Q 2128 388 2347 550 
Q 2566 713 2694 1069 
z
M 847 1978 
L 2700 1978 
Q 2663 2397 2488 2606 
Q 2219 2931 1791 2931 
Q 1403 2931 1139 2672 
Q 875 2413 847 1978 
z
" transform="scale(0.015625)"/>
       <path id="ArialMT-70" d="M 422 -1272 
L 422 3319 
L 934 3319 
L 934 2888 
Q 1116 3141 1344 3267 
Q 1572 3394 1897 3394 
Q 2322 3394 2647 3175 
Q 2972 2956 3137 2557 
Q 3303 2159 3303 1684 
Q 3303 1175 3120 767 
Q 2938 359 2589 142 
Q 2241 -75 1856 -75 
Q 1575 -75 1351 44 
Q 1128 163 984 344 
L 984 -1272 
L 422 -1272 
z
M 931 1641 
Q 931 1000 1190 694 
Q 1450 388 1819 388 
Q 2194 388 2461 705 
Q 2728 1022 2728 1688 
Q 2728 2322 2467 2637 
Q 2206 2953 1844 2953 
Q 1484 2953 1207 2617 
Q 931 2281 931 1641 
z
" transform="scale(0.015625)"/>
      </defs>
      <use xlink:href="#ArialMT-53"/>
      <use xlink:href="#ArialMT-68" x="66.699219"/>
      <use xlink:href="#ArialMT-65" x="122.314453"/>
      <use xlink:href="#ArialMT-65" x="177.929688"/>
      <use xlink:href="#ArialMT-70" x="233.544922"/>
     </g>
    </g>
    <g id="PathCollection_4">
     <g>
      <use xlink:href="#m2859ed7386" x="356.911406" y="73.92" style="fill: #b22222; stroke: #b22222"/>
     </g>
    </g>
    <g id="text_15">
     <!-- Wolves -->
     <g style="fill: #262626" transform="translate(400.111406 80.22) scale(0.24 -0.24)">
      <defs>
       <path id="ArialMT-57" d="M 1294 0 
L 78 4581 
L 700 4581 
L 1397 1578 
Q 1509 1106 1591 641 
Q 1766 1375 1797 1488 
L 2669 4581 
L 3400 4581 
L 4056 2263 
Q 4303 1400 4413 641 
Q 4500 1075 4641 1638 
L 5359 4581 
L 5969 4581 
L 4713 0 
L 4128 0 
L 3163 3491 
Q 3041 3928 3019 4028 
Q 2947 3713 2884 3491 
L 1913 0 
L 1294 0 
z
" transform="scale(0.015625)"/>
       <path id="ArialMT-6f" d="M 213 1659 
Q 213 2581 725 3025 
Q 1153 3394 1769 3394 
Q 2453 3394 2887 2945 
Q 3322 2497 3322 1706 
Q 3322 1066 3130 698 
Q 2938 331 2570 128 
Q 2203 -75 1769 -75 
Q 1072 -75 642 372 
Q 213 819 213 1659 
z
M 791 1659 
Q 791 1022 1069 705 
Q 1347 388 1769 388 
Q 2188 388 2466 706 
Q 2744 1025 2744 1678 
Q 2744 2294 2464 2611 
Q 2184 2928 1769 2928 
Q 1347 2928 1069 2612 
Q 791 2297 791 1659 
z
" transform="scale(0.015625)"/>
       <path id="ArialMT-6c" d="M 409 0 
L 409 4581 
L 972 4581 
L 972 0 
L 409 0 
z
" transform="scale(0.015625)"/>
       <path id="ArialMT-76" d="M 1344 0 
L 81 3319 
L 675 3319 
L 1388 1331 
Q 1503 1009 1600 663 
Q 1675 925 1809 1294 
L 2547 3319 
L 3125 3319 
L 1869 0 
L 1344 0 
z
" transform="scale(0.015625)"/>
       <path id="ArialMT-73" d="M 197 991 
L 753 1078 
Q 800 744 1014 566 
Q 1228 388 1613 388 
Q 2000 388 2187 545 
Q 2375 703 2375 916 
Q 2375 1106 2209 1216 
Q 2094 1291 1634 1406 
Q 1016 1563 777 1677 
Q 538 1791 414 1992 
Q 291 2194 291 2438 
Q 291 2659 392 2848 
Q 494 3038 669 3163 
Q 800 3259 1026 3326 
Q 1253 3394 1513 3394 
Q 1903 3394 2198 3281 
Q 2494 3169 2634 2976 
Q 2775 2784 2828 2463 
L 2278 2388 
Q 2241 2644 2061 2787 
Q 1881 2931 1553 2931 
Q 1166 2931 1000 2803 
Q 834 2675 834 2503 
Q 834 2394 903 2306 
Q 972 2216 1119 2156 
Q 1203 2125 1616 2013 
Q 2213 1853 2448 1751 
Q 2684 1650 2818 1456 
Q 2953 1263 2953 975 
Q 2953 694 2789 445 
Q 2625 197 2315 61 
Q 2006 -75 1616 -75 
Q 969 -75 630 194 
Q 291 463 197 991 
z
" transform="scale(0.015625)"/>
      </defs>
      <use xlink:href="#ArialMT-57"/>
      <use xlink:href="#ArialMT-6f" x="92.634766"/>
      <use xlink:href="#ArialMT-6c" x="148.25"/>
      <use xlink:href="#ArialMT-76" x="170.466797"/>
      <use xlink:href="#ArialMT-65" x="220.466797"/>
      <use xlink:href="#ArialMT-73" x="276.082031"/>
     </g>
    </g>
   </g>
  </g>
 </g>
 <defs>
  <clipPath id="p3214ef72a9">
   <rect x="56.450156" y="7.2" width="443.52" height="443.52"/>
  </clipPath>
 </defs>
</svg>
