<?xml version="1.0" encoding="utf-8" standalone="no"?>
<!DOCTYPE svg PUBLIC "-//W3C//DTD SVG 1.1//EN"
  "http://www.w3.org/Graphics/SVG/1.1/DTD/svg11.dtd">
<svg xmlns:xlink="http://www.w3.org/1999/xlink" width="507.170156pt" height="492.454219pt" viewBox="0 0 507.170156 492.454219" xmlns="http://www.w3.org/2000/svg" version="1.1">
 <metadata>
  <rdf:RDF xmlns:dc="http://purl.org/dc/elements/1.1/" xmlns:cc="http://creativecommons.org/ns#" xmlns:rdf="http://www.w3.org/1999/02/22-rdf-syntax-ns#">
   <cc:Work>
    <dc:type rdf:resource="http://purl.org/dc/dcmitype/StillImage"/>
    <dc:date>2026-05-12T10:43:21.657706</dc:date>
    <dc:format>image/svg+xml</dc:format>
    <dc:creator>
     <cc:Agent>
      <dc:title>Matplotlib v3.7.1, https://matplotlib.org/</dc:title>
     </cc:Agent>
    </dc:creator>
   </cc:Work>
  </rdf:RDF>
 </metadata>
 <defs>
  <style type="text/css">*{stroke-linejoin: round; stroke-linecap: butt}</style>
 </defs>
 <g id="figure_1">
  <g id="patch_1">
   <path d="M 0 492.454219 
L 507.170156 492.454219 
L 507.170156 0 
L 0 0 
z
" style="fill: #ffffff"/>
  </g>
  <g id="axes_1">
   <g id="patch_2">
    <path d="M 56.450156 450.72 
L 499.970156 450.72 
L 499.970156 7.2 
L 56.450156 7.2 
z
" style="fill: #eaeaf2"/>
   </g>
   <g id="matplotlib.axis_1">
    <g id="xtick_1">
     <g id="line2d_1">
      <path d="M 100.802156 450.72 
L 100.802156 7.2 
" clip-path="url(#pd2599862f9)" style="fill: none; stroke: #ffffff; stroke-linecap: round"/>
     </g>
     <g id="text_1">
      <!-- −400 -->
      <g style="fill: #262626" transform="translate(88.414266 468.093594) scale(0.11 -0.11)">
       <defs>
        <path id="ArialMT-2212" d="M 3381 1997 
L 356 1997 
L 356 2522 
L 3381 2522 
L 3381 1997 
z
" transform="scale(0.015625)"/>
        <path id="ArialMT-34" d="M 2069 0 
L 2069 1097 
L 81 1097 
L 81 1613 
L 2172 4581 
L 2631 4581 
L 2631 1613 
L 3250 1613 
L 3250 1097 
L 2631 1097 
L 2631 0 
L 2069 0 
z
M 2069 1613 
L 2069 3678 
L 634 1613 
L 2069 1613 
z
" transform="scale(0.015625)"/>
        <path id="ArialMT-30" d="M 266 2259 
Q 266 3072 433 3567 
Q 600 4063 929 4331 
Q 1259 4600 1759 4600 
Q 2128 4600 2406 4451 
Q 2684 4303 2865 4023 
Q 3047 3744 3150 3342 
Q 3253 2941 3253 2259 
Q 3253 1453 3087 958 
Q 2922 463 2592 192 
Q 2263 -78 1759 -78 
Q 1097 -78 719 397 
Q 266 969 266 2259 
z
M 844 2259 
Q 844 1131 1108 757 
Q 1372 384 1759 384 
Q 2147 384 2411 759 
Q 2675 1134 2675 2259 
Q 2675 3391 2411 3762 
Q 2147 4134 1753 4134 
Q 1366 4134 1134 3806 
Q 844 3388 844 2259 
z
" transform="scale(0.015625)"/>
       </defs>
       <use xlink:href="#ArialMT-2212"/>
       <use xlink:href="#ArialMT-34" x="58.398438"/>
       <use xlink:href="#ArialMT-30" x="114.013672"/>
       <use xlink:href="#ArialMT-30" x="169.628906"/>
      </g>
     </g>
    </g>
    <g id="xtick_2">
     <g id="line2d_2">
      <path d="M 189.506156 450.72 
L 189.506156 7.2 
" clip-path="url(#pd2599862f9)" style="fill: none; stroke: #ffffff; stroke-linecap: round"/>
     </g>
     <g id="text_2">
      <!-- −200 -->
      <g style="fill: #262626" transform="translate(177.118266 468.093594) scale(0.11 -0.11)">
       <defs>
        <path id="ArialMT-32" d="M 3222 541 
L 3222 0 
L 194 0 
Q 188 203 259 391 
Q 375 700 629 1000 
Q 884 1300 1366 1694 
Q 2113 2306 2375 2664 
Q 2638 3022 2638 3341 
Q 2638 3675 2398 3904 
Q 2159 4134 1775 4134 
Q 1369 4134 1125 3890 
Q 881 3647 878 3216 
L 300 3275 
Q 359 3922 746 4261 
Q 1134 4600 1788 4600 
Q 2447 4600 2831 4234 
Q 3216 3869 3216 3328 
Q 3216 3053 3103 2787 
Q 2991 2522 2730 2228 
Q 2469 1934 1863 1422 
Q 1356 997 1212 845 
Q 1069 694 975 541 
L 3222 541 
z
" transform="scale(0.015625)"/>
       </defs>
       <use xlink:href="#ArialMT-2212"/>
       <use xlink:href="#ArialMT-32" x="58.398438"/>
       <use xlink:href="#ArialMT-30" x="114.013672"/>
       <use xlink:href="#ArialMT-30" x="169.628906"/>
      </g>
     </g>
    </g>
    <g id="xtick_3">
     <g id="line2d_3">
      <path d="M 278.210156 450.72 
L 278.210156 7.2 
" clip-path="url(#pd2599862f9)" style="fill: none; stroke: #ffffff; stroke-linecap: round"/>
     </g>
     <g id="text_3">
      <!-- 0 -->
      <g style="fill: #262626" transform="translate(275.151641 468.093594) scale(0.11 -0.11)">
       <use xlink:href="#ArialMT-30"/>
      </g>
     </g>
    </g>
    <g id="xtick_4">
     <g id="line2d_4">
      <path d="M 366.914156 450.72 
L 366.914156 7.2 
" clip-path="url(#pd2599862f9)" style="fill: none; stroke: #ffffff; stroke-linecap: round"/>
     </g>
     <g id="text_4">
      <!-- 200 -->
      <g style="fill: #262626" transform="translate(357.738609 468.093594) scale(0.11 -0.11)">
       <use xlink:href="#ArialMT-32"/>
       <use xlink:href="#ArialMT-30" x="55.615234"/>
       <use xlink:href="#ArialMT-30" x="111.230469"/>
      </g>
     </g>
    </g>
    <g id="xtick_5">
     <g id="line2d_5">
      <path d="M 455.618156 450.72 
L 455.618156 7.2 
" clip-path="url(#pd2599862f9)" style="fill: none; stroke: #ffffff; stroke-linecap: round"/>
     </g>
     <g id="text_5">
      <!-- 400 -->
      <g style="fill: #262626" transform="translate(446.442609 468.093594) scale(0.11 -0.11)">
       <use xlink:href="#ArialMT-34"/>
       <use xlink:href="#ArialMT-30" x="55.615234"/>
       <use xlink:href="#ArialMT-30" x="111.230469"/>
      </g>
     </g>
    </g>
    <g id="text_6">
     <!-- x -->
     <g style="fill: #262626" transform="translate(275.210156 482.869219) scale(0.12 -0.12)">
      <defs>
       <path id="ArialMT-78" d="M 47 0 
L 1259 1725 
L 138 3319 
L 841 3319 
L 1350 2541 
Q 1494 2319 1581 2169 
Q 1719 2375 1834 2534 
L 2394 3319 
L 3066 3319 
L 1919 1756 
L 3153 0 
L 2463 0 
L 1781 1031 
L 1600 1309 
L 728 0 
L 47 0 
z
" transform="scale(0.015625)"/>
      </defs>
      <use xlink:href="#ArialMT-78"/>
     </g>
    </g>
   </g>
   <g id="matplotlib.axis_2">
    <g id="ytick_1">
     <g id="line2d_6">
      <path d="M 56.450156 406.368 
L 499.970156 406.368 
" clip-path="url(#pd2599862f9)" style="fill: none; stroke: #ffffff; stroke-linecap: round"/>
     </g>
     <g id="text_7">
      <!-- −400 -->
      <g style="fill: #262626" transform="translate(22.174375 410.304797) scale(0.11 -0.11)">
       <use xlink:href="#ArialMT-2212"/>
       <use xlink:href="#ArialMT-34" x="58.398438"/>
       <use xlink:href="#ArialMT-30" x="114.013672"/>
       <use xlink:href="#ArialMT-30" x="169.628906"/>
      </g>
     </g>
    </g>
    <g id="ytick_2">
     <g id="line2d_7">
      <path d="M 56.450156 317.664 
L 499.970156 317.664 
" clip-path="url(#pd2599862f9)" style="fill: none; stroke: #ffffff; stroke-linecap: round"/>
     </g>
     <g id="text_8">
      <!-- −200 -->
      <g style="fill: #262626" transform="translate(22.174375 321.600797) scale(0.11 -0.11)">
       <use xlink:href="#ArialMT-2212"/>
       <use xlink:href="#ArialMT-32" x="58.398438"/>
       <use xlink:href="#ArialMT-30" x="114.013672"/>
       <use xlink:href="#ArialMT-30" x="169.628906"/>
      </g>
     </g>
    </g>
    <g id="ytick_3">
     <g id="line2d_8">
      <path d="M 56.450156 228.96 
L 499.970156 228.96 
" clip-path="url(#pd2599862f9)" style="fill: none; stroke: #ffffff; stroke-linecap: round"/>
     </g>
     <g id="text_9">
      <!-- 0 -->
      <g style="fill: #262626" transform="translate(40.833125 232.896797) scale(0.11 -0.11)">
       <use xlink:href="#ArialMT-30"/>
      </g>
     </g>
    </g>
    <g id="ytick_4">
     <g id="line2d_9">
      <path d="M 56.450156 140.256 
L 499.970156 140.256 
" clip-path="url(#pd2599862f9)" style="fill: none; stroke: #ffffff; stroke-linecap: round"/>
     </g>
     <g id="text_10">
      <!-- 200 -->
      <g style="fill: #262626" transform="translate(28.599063 144.192797) scale(0.11 -0.11)">
       <use xlink:href="#ArialMT-32"/>
       <use xlink:href="#ArialMT-30" x="55.615234"/>
       <use xlink:href="#ArialMT-30" x="111.230469"/>
      </g>
     </g>
    </g>
    <g id="ytick_5">
     <g id="line2d_10">
      <path d="M 56.450156 51.552 
L 499.970156 51.552 
" clip-path="url(#pd2599862f9)" style="fill: none; stroke: #ffffff; stroke-linecap: round"/>
     </g>
     <g id="text_11">
      <!-- 400 -->
      <g style="fill: #262626" transform="translate(28.599063 55.488797) scale(0.11 -0.11)">
       <use xlink:href="#ArialMT-34"/>
       <use xlink:href="#ArialMT-30" x="55.615234"/>
       <use xlink:href="#ArialMT-30" x="111.230469"/>
      </g>
     </g>
    </g>
    <g id="text_12">
     <!-- y -->
     <g style="fill: #262626" transform="translate(15.64875 231.96) rotate(-90) scale(0.12 -0.12)">
      <defs>
       <path id="ArialMT-79" d="M 397 -1278 
L 334 -750 
Q 519 -800 656 -800 
Q 844 -800 956 -737 
Q 1069 -675 1141 -563 
Q 1194 -478 1313 -144 
Q 1328 -97 1363 -6 
L 103 3319 
L 709 3319 
L 1400 1397 
Q 1534 1031 1641 628 
Q 1738 1016 1872 1384 
L 2581 3319 
L 3144 3319 
L 1881 -56 
Q 1678 -603 1566 -809 
Q 1416 -1088 1222 -1217 
Q 1028 -1347 759 -1347 
Q 597 -1347 397 -1278 
z
" transform="scale(0.015625)"/>
      </defs>
      <use xlink:href="#ArialMT-79"/>
     </g>
    </g>
   </g>
   <g id="patch_3">
    <path d="M 278.210156 317.664 
C 301.734732 317.664 324.298969 308.317587 340.933356 291.6832 
C 357.567743 275.048813 366.914156 252.484576 366.914156 228.96 
C 366.914156 205.435424 357.567743 182.871187 340.933356 166.2368 
C 324.298969 149.602413 301.734732 140.256 278.210156 140.256 
C 254.68558 140.256 232.121343 149.602413 215.486956 166.2368 
C 198.852569 182.871187 189.506156 205.435424 189.506156 228.96 
C 189.506156 252.484576 198.852569 275.048813 215.486956 291.6832 
C 232.121343 308.317587 254.68558 317.664 278.210156 317.664 
z
" clip-path="url(#pd2599862f9)" style="fill: #228b22; opacity: 0.12; stroke: #228b22; stroke-width: 1.5; stroke-linejoin: miter"/>
   </g>
   <g id="PathCollection_1">
    <defs>
     <path id="mf64b849d53" d="M 0 2.236068 
C 0.593012 2.236068 1.161816 2.000462 1.581139 1.581139 
C 2.000462 1.161816 2.236068 0.593012 2.236068 0 
C 2.236068 -0.593012 2.000462 -1.161816 1.581139 -1.581139 
C 1.161816 -2.000462 0.593012 -2.236068 0 -2.236068 
C -0.593012 -2.236068 -1.161816 -2.000462 -1.581139 -1.581139 
C -2.000462 -1.161816 -2.236068 -0.593012 -2.236068 0 
C -2.236068 0.593012 -2.000462 1.161816 -1.581139 1.581139 
C -1.161816 2.000462 -0.593012 2.236068 0 2.236068 
z
" style="stroke: #4169e1"/>
    </defs>
    <g clip-path="url(#pd2599862f9)">
     <use xlink:href="#mf64b849d53" x="409.765365" y="186.899844" style="fill: #4169e1; stroke: #4169e1"/>
     <use xlink:href="#mf64b849d53" x="332.622056" y="73.712475" style="fill: #4169e1; stroke: #4169e1"/>
     <use xlink:href="#mf64b849d53" x="342.440164" y="157.092963" style="fill: #4169e1; stroke: #4169e1"/>
     <use xlink:href="#mf64b849d53" x="299.14379" y="153.621669" style="fill: #4169e1; stroke: #4169e1"/>
     <use xlink:href="#mf64b849d53" x="252.290721" y="161.891095" style="fill: #4169e1; stroke: #4169e1"/>
     <use xlink:href="#mf64b849d53" x="435.047913" y="175.766267" style="fill: #4169e1; stroke: #4169e1"/>
     <use xlink:href="#mf64b849d53" x="161.465833" y="175.42082" style="fill: #4169e1; stroke: #4169e1"/>
     <use xlink:href="#mf64b849d53" x="310.690258" y="106.02563" style="fill: #4169e1; stroke: #4169e1"/>
     <use xlink:href="#mf64b849d53" x="353.756292" y="258.508498" style="fill: #4169e1; stroke: #4169e1"/>
     <use xlink:href="#mf64b849d53" x="275.29271" y="321.8837" style="fill: #4169e1; stroke: #4169e1"/>
     <use xlink:href="#mf64b849d53" x="286.121257" y="307.737154" style="fill: #4169e1; stroke: #4169e1"/>
     <use xlink:href="#mf64b849d53" x="438.880284" y="144.011113" style="fill: #4169e1; stroke: #4169e1"/>
     <use xlink:href="#mf64b849d53" x="416.939363" y="136.63856" style="fill: #4169e1; stroke: #4169e1"/>
     <use xlink:href="#mf64b849d53" x="456.4938" y="198.785542" style="fill: #4169e1; stroke: #4169e1"/>
     <use xlink:href="#mf64b849d53" x="406.895438" y="337.875447" style="fill: #4169e1; stroke: #4169e1"/>
     <use xlink:href="#mf64b849d53" x="214.117341" y="132.232853" style="fill: #4169e1; stroke: #4169e1"/>
     <use xlink:href="#mf64b849d53" x="192.940621" y="161.423455" style="fill: #4169e1; stroke: #4169e1"/>
     <use xlink:href="#mf64b849d53" x="404.126632" y="182.190381" style="fill: #4169e1; stroke: #4169e1"/>
     <use xlink:href="#mf64b849d53" x="174.91318" y="116.348292" style="fill: #4169e1; stroke: #4169e1"/>
     <use xlink:href="#mf64b849d53" x="375.236085" y="308.99572" style="fill: #4169e1; stroke: #4169e1"/>
     <use xlink:href="#mf64b849d53" x="191.355262" y="179.276675" style="fill: #4169e1; stroke: #4169e1"/>
     <use xlink:href="#mf64b849d53" x="283.421394" y="344.939533" style="fill: #4169e1; stroke: #4169e1"/>
     <use xlink:href="#mf64b849d53" x="269.861616" y="266.123049" style="fill: #4169e1; stroke: #4169e1"/>
     <use xlink:href="#mf64b849d53" x="280.720264" y="236.01876" style="fill: #4169e1; stroke: #4169e1"/>
     <use xlink:href="#mf64b849d53" x="244.287272" y="145.77431" style="fill: #4169e1; stroke: #4169e1"/>
     <use xlink:href="#mf64b849d53" x="289.670085" y="339.690416" style="fill: #4169e1; stroke: #4169e1"/>
     <use xlink:href="#mf64b849d53" x="291.636754" y="140.012618" style="fill: #4169e1; stroke: #4169e1"/>
     <use xlink:href="#mf64b849d53" x="298.969856" y="296.217951" style="fill: #4169e1; stroke: #4169e1"/>
     <use xlink:href="#mf64b849d53" x="442.184108" y="266.04019" style="fill: #4169e1; stroke: #4169e1"/>
     <use xlink:href="#mf64b849d53" x="400.847307" y="221.996779" style="fill: #4169e1; stroke: #4169e1"/>
     <use xlink:href="#mf64b849d53" x="339.992148" y="237.9604" style="fill: #4169e1; stroke: #4169e1"/>
     <use xlink:href="#mf64b849d53" x="328.934687" y="71.687183" style="fill: #4169e1; stroke: #4169e1"/>
     <use xlink:href="#mf64b849d53" x="309.356358" y="79.748451" style="fill: #4169e1; stroke: #4169e1"/>
     <use xlink:href="#mf64b849d53" x="356.882663" y="205.505928" style="fill: #4169e1; stroke: #4169e1"/>
     <use xlink:href="#mf64b849d53" x="390.684293" y="195.852324" style="fill: #4169e1; stroke: #4169e1"/>
     <use xlink:href="#mf64b849d53" x="383.306279" y="187.522979" style="fill: #4169e1; stroke: #4169e1"/>
     <use xlink:href="#mf64b849d53" x="228.770338" y="200.350432" style="fill: #4169e1; stroke: #4169e1"/>
     <use xlink:href="#mf64b849d53" x="374.305394" y="168.501868" style="fill: #4169e1; stroke: #4169e1"/>
     <use xlink:href="#mf64b849d53" x="270.092129" y="167.715414" style="fill: #4169e1; stroke: #4169e1"/>
     <use xlink:href="#mf64b849d53" x="484.537479" y="250.599037" style="fill: #4169e1; stroke: #4169e1"/>
     <use xlink:href="#mf64b849d53" x="299.79476" y="139.838136" style="fill: #4169e1; stroke: #4169e1"/>
     <use xlink:href="#mf64b849d53" x="458.612079" y="202.057901" style="fill: #4169e1; stroke: #4169e1"/>
     <use xlink:href="#mf64b849d53" x="314.148994" y="140.002825" style="fill: #4169e1; stroke: #4169e1"/>
     <use xlink:href="#mf64b849d53" x="248.119673" y="226.906518" style="fill: #4169e1; stroke: #4169e1"/>
     <use xlink:href="#mf64b849d53" x="384.506401" y="235.883795" style="fill: #4169e1; stroke: #4169e1"/>
     <use xlink:href="#mf64b849d53" x="292.611092" y="149.222973" style="fill: #4169e1; stroke: #4169e1"/>
     <use xlink:href="#mf64b849d53" x="416.360112" y="196.139493" style="fill: #4169e1; stroke: #4169e1"/>
     <use xlink:href="#mf64b849d53" x="462.117034" y="193.805653" style="fill: #4169e1; stroke: #4169e1"/>
     <use xlink:href="#mf64b849d53" x="375.811437" y="202.442199" style="fill: #4169e1; stroke: #4169e1"/>
     <use xlink:href="#mf64b849d53" x="326.719551" y="233.998397" style="fill: #4169e1; stroke: #4169e1"/>
     <use xlink:href="#mf64b849d53" x="421.814672" y="231.14166" style="fill: #4169e1; stroke: #4169e1"/>
     <use xlink:href="#mf64b849d53" x="451.591664" y="166.721568" style="fill: #4169e1; stroke: #4169e1"/>
     <use xlink:href="#mf64b849d53" x="344.960728" y="180.798063" style="fill: #4169e1; stroke: #4169e1"/>
     <use xlink:href="#mf64b849d53" x="491.147075" y="228.970927" style="fill: #4169e1; stroke: #4169e1"/>
     <use xlink:href="#mf64b849d53" x="316.20002" y="200.788679" style="fill: #4169e1; stroke: #4169e1"/>
     <use xlink:href="#mf64b849d53" x="407.105666" y="197.982152" style="fill: #4169e1; stroke: #4169e1"/>
     <use xlink:href="#mf64b849d53" x="484.807046" y="232.302944" style="fill: #4169e1; stroke: #4169e1"/>
     <use xlink:href="#mf64b849d53" x="400.204672" y="130.847002" style="fill: #4169e1; stroke: #4169e1"/>
     <use xlink:href="#mf64b849d53" x="279.773326" y="259.108586" style="fill: #4169e1; stroke: #4169e1"/>
     <use xlink:href="#mf64b849d53" x="252.952913" y="123.322065" style="fill: #4169e1; stroke: #4169e1"/>
     <use xlink:href="#mf64b849d53" x="228.94903" y="190.657044" style="fill: #4169e1; stroke: #4169e1"/>
     <use xlink:href="#mf64b849d53" x="413.210806" y="290.326531" style="fill: #4169e1; stroke: #4169e1"/>
     <use xlink:href="#mf64b849d53" x="231.055844" y="251.548447" style="fill: #4169e1; stroke: #4169e1"/>
     <use xlink:href="#mf64b849d53" x="425.897917" y="213.460082" style="fill: #4169e1; stroke: #4169e1"/>
     <use xlink:href="#mf64b849d53" x="320.642032" y="273.938959" style="fill: #4169e1; stroke: #4169e1"/>
     <use xlink:href="#mf64b849d53" x="331.846252" y="164.2311" style="fill: #4169e1; stroke: #4169e1"/>
     <use xlink:href="#mf64b849d53" x="375.651594" y="214.531743" style="fill: #4169e1; stroke: #4169e1"/>
     <use xlink:href="#mf64b849d53" x="235.860381" y="161.282256" style="fill: #4169e1; stroke: #4169e1"/>
     <use xlink:href="#mf64b849d53" x="390.123004" y="220.65738" style="fill: #4169e1; stroke: #4169e1"/>
     <use xlink:href="#mf64b849d53" x="245.342973" y="216.938591" style="fill: #4169e1; stroke: #4169e1"/>
     <use xlink:href="#mf64b849d53" x="267.705321" y="206.005292" style="fill: #4169e1; stroke: #4169e1"/>
     <use xlink:href="#mf64b849d53" x="289.096584" y="122.513393" style="fill: #4169e1; stroke: #4169e1"/>
     <use xlink:href="#mf64b849d53" x="185.656724" y="163.419471" style="fill: #4169e1; stroke: #4169e1"/>
     <use xlink:href="#mf64b849d53" x="329.287721" y="246.3865" style="fill: #4169e1; stroke: #4169e1"/>
     <use xlink:href="#mf64b849d53" x="284.110352" y="231.370243" style="fill: #4169e1; stroke: #4169e1"/>
     <use xlink:href="#mf64b849d53" x="263.575213" y="125.981005" style="fill: #4169e1; stroke: #4169e1"/>
     <use xlink:href="#mf64b849d53" x="404.131911" y="247.66406" style="fill: #4169e1; stroke: #4169e1"/>
     <use xlink:href="#mf64b849d53" x="158.811873" y="277.591742" style="fill: #4169e1; stroke: #4169e1"/>
     <use xlink:href="#mf64b849d53" x="495.669496" y="167.841217" style="fill: #4169e1; stroke: #4169e1"/>
     <use xlink:href="#mf64b849d53" x="165.088565" y="238.328139" style="fill: #4169e1; stroke: #4169e1"/>
     <use xlink:href="#mf64b849d53" x="332.891974" y="279.2128" style="fill: #4169e1; stroke: #4169e1"/>
     <use xlink:href="#mf64b849d53" x="256.163818" y="326.671146" style="fill: #4169e1; stroke: #4169e1"/>
     <use xlink:href="#mf64b849d53" x="251.260978" y="211.71994" style="fill: #4169e1; stroke: #4169e1"/>
     <use xlink:href="#mf64b849d53" x="355.109673" y="265.366427" style="fill: #4169e1; stroke: #4169e1"/>
     <use xlink:href="#mf64b849d53" x="363.436575" y="286.722423" style="fill: #4169e1; stroke: #4169e1"/>
     <use xlink:href="#mf64b849d53" x="314.333333" y="120.675508" style="fill: #4169e1; stroke: #4169e1"/>
     <use xlink:href="#mf64b849d53" x="272.982759" y="187.60174" style="fill: #4169e1; stroke: #4169e1"/>
     <use xlink:href="#mf64b849d53" x="407.934315" y="152.943585" style="fill: #4169e1; stroke: #4169e1"/>
     <use xlink:href="#mf64b849d53" x="441.17272" y="313.826066" style="fill: #4169e1; stroke: #4169e1"/>
     <use xlink:href="#mf64b849d53" x="338.671334" y="305.224088" style="fill: #4169e1; stroke: #4169e1"/>
     <use xlink:href="#mf64b849d53" x="404.805366" y="152.828658" style="fill: #4169e1; stroke: #4169e1"/>
     <use xlink:href="#mf64b849d53" x="221.395945" y="261.775689" style="fill: #4169e1; stroke: #4169e1"/>
     <use xlink:href="#mf64b849d53" x="464.354477" y="140.506455" style="fill: #4169e1; stroke: #4169e1"/>
     <use xlink:href="#mf64b849d53" x="361.834642" y="297.274377" style="fill: #4169e1; stroke: #4169e1"/>
     <use xlink:href="#mf64b849d53" x="311.06752" y="89.69583" style="fill: #4169e1; stroke: #4169e1"/>
     <use xlink:href="#mf64b849d53" x="311.499575" y="158.219934" style="fill: #4169e1; stroke: #4169e1"/>
     <use xlink:href="#mf64b849d53" x="412.445326" y="99.727871" style="fill: #4169e1; stroke: #4169e1"/>
     <use xlink:href="#mf64b849d53" x="145.531977" y="192.156536" style="fill: #4169e1; stroke: #4169e1"/>
     <use xlink:href="#mf64b849d53" x="275.659864" y="126.636838" style="fill: #4169e1; stroke: #4169e1"/>
     <use xlink:href="#mf64b849d53" x="216.573714" y="271.631093" style="fill: #4169e1; stroke: #4169e1"/>
     <use xlink:href="#mf64b849d53" x="352.50695" y="57.835926" style="fill: #4169e1; stroke: #4169e1"/>
     <use xlink:href="#mf64b849d53" x="162.785064" y="212.815311" style="fill: #4169e1; stroke: #4169e1"/>
     <use xlink:href="#mf64b849d53" x="449.245453" y="211.240509" style="fill: #4169e1; stroke: #4169e1"/>
     <use xlink:href="#mf64b849d53" x="236.146924" y="265.672991" style="fill: #4169e1; stroke: #4169e1"/>
     <use xlink:href="#mf64b849d53" x="351.168384" y="218.209014" style="fill: #4169e1; stroke: #4169e1"/>
     <use xlink:href="#mf64b849d53" x="435.312173" y="118.99143" style="fill: #4169e1; stroke: #4169e1"/>
     <use xlink:href="#mf64b849d53" x="211.113179" y="182.755897" style="fill: #4169e1; stroke: #4169e1"/>
     <use xlink:href="#mf64b849d53" x="292.199833" y="301.643248" style="fill: #4169e1; stroke: #4169e1"/>
     <use xlink:href="#mf64b849d53" x="366.346519" y="265.030785" style="fill: #4169e1; stroke: #4169e1"/>
     <use xlink:href="#mf64b849d53" x="436.582055" y="275.270202" style="fill: #4169e1; stroke: #4169e1"/>
     <use xlink:href="#mf64b849d53" x="208.51426" y="249.776806" style="fill: #4169e1; stroke: #4169e1"/>
     <use xlink:href="#mf64b849d53" x="287.380936" y="238.151717" style="fill: #4169e1; stroke: #4169e1"/>
     <use xlink:href="#mf64b849d53" x="336.116918" y="183.988601" style="fill: #4169e1; stroke: #4169e1"/>
     <use xlink:href="#mf64b849d53" x="258.775646" y="168.806064" style="fill: #4169e1; stroke: #4169e1"/>
     <use xlink:href="#mf64b849d53" x="325.343133" y="213.548663" style="fill: #4169e1; stroke: #4169e1"/>
     <use xlink:href="#mf64b849d53" x="280.143446" y="315.494876" style="fill: #4169e1; stroke: #4169e1"/>
     <use xlink:href="#mf64b849d53" x="338.511429" y="91.593202" style="fill: #4169e1; stroke: #4169e1"/>
     <use xlink:href="#mf64b849d53" x="229.048418" y="203.092435" style="fill: #4169e1; stroke: #4169e1"/>
     <use xlink:href="#mf64b849d53" x="431.375785" y="169.84662" style="fill: #4169e1; stroke: #4169e1"/>
     <use xlink:href="#mf64b849d53" x="401.551054" y="202.322132" style="fill: #4169e1; stroke: #4169e1"/>
     <use xlink:href="#mf64b849d53" x="315.013437" y="306.946281" style="fill: #4169e1; stroke: #4169e1"/>
     <use xlink:href="#mf64b849d53" x="245.639383" y="103.19279" style="fill: #4169e1; stroke: #4169e1"/>
     <use xlink:href="#mf64b849d53" x="496.887227" y="171.930824" style="fill: #4169e1; stroke: #4169e1"/>
     <use xlink:href="#mf64b849d53" x="292.230827" y="266.331115" style="fill: #4169e1; stroke: #4169e1"/>
     <use xlink:href="#mf64b849d53" x="399.190943" y="325.816915" style="fill: #4169e1; stroke: #4169e1"/>
     <use xlink:href="#mf64b849d53" x="307.638391" y="161.32745" style="fill: #4169e1; stroke: #4169e1"/>
     <use xlink:href="#mf64b849d53" x="334.328423" y="268.293377" style="fill: #4169e1; stroke: #4169e1"/>
     <use xlink:href="#mf64b849d53" x="379.580362" y="191.192082" style="fill: #4169e1; stroke: #4169e1"/>
     <use xlink:href="#mf64b849d53" x="498.023665" y="212.977383" style="fill: #4169e1; stroke: #4169e1"/>
     <use xlink:href="#mf64b849d53" x="261.566122" y="252.308623" style="fill: #4169e1; stroke: #4169e1"/>
     <use xlink:href="#mf64b849d53" x="460.150485" y="289.363457" style="fill: #4169e1; stroke: #4169e1"/>
     <use xlink:href="#mf64b849d53" x="413.232557" y="301.391798" style="fill: #4169e1; stroke: #4169e1"/>
     <use xlink:href="#mf64b849d53" x="355.346037" y="311.77195" style="fill: #4169e1; stroke: #4169e1"/>
     <use xlink:href="#mf64b849d53" x="362.104005" y="239.19145" style="fill: #4169e1; stroke: #4169e1"/>
     <use xlink:href="#mf64b849d53" x="310.942986" y="132.022057" style="fill: #4169e1; stroke: #4169e1"/>
     <use xlink:href="#mf64b849d53" x="286.022165" y="104.404836" style="fill: #4169e1; stroke: #4169e1"/>
     <use xlink:href="#mf64b849d53" x="485.468942" y="200.449425" style="fill: #4169e1; stroke: #4169e1"/>
     <use xlink:href="#mf64b849d53" x="288.983708" y="221.041843" style="fill: #4169e1; stroke: #4169e1"/>
     <use xlink:href="#mf64b849d53" x="215.583252" y="254.602042" style="fill: #4169e1; stroke: #4169e1"/>
     <use xlink:href="#mf64b849d53" x="461.526834" y="280.604519" style="fill: #4169e1; stroke: #4169e1"/>
     <use xlink:href="#mf64b849d53" x="285.883212" y="317.128712" style="fill: #4169e1; stroke: #4169e1"/>
     <use xlink:href="#mf64b849d53" x="495.790811" y="247.171086" style="fill: #4169e1; stroke: #4169e1"/>
     <use xlink:href="#mf64b849d53" x="483.857784" y="255.328488" style="fill: #4169e1; stroke: #4169e1"/>
     <use xlink:href="#mf64b849d53" x="357.473351" y="125.606724" style="fill: #4169e1; stroke: #4169e1"/>
     <use xlink:href="#mf64b849d53" x="425.829835" y="241.871217" style="fill: #4169e1; stroke: #4169e1"/>
     <use xlink:href="#mf64b849d53" x="445.974899" y="119.903747" style="fill: #4169e1; stroke: #4169e1"/>
     <use xlink:href="#mf64b849d53" x="263.214252" y="345.010376" style="fill: #4169e1; stroke: #4169e1"/>
     <use xlink:href="#mf64b849d53" x="290.159839" y="176.597069" style="fill: #4169e1; stroke: #4169e1"/>
     <use xlink:href="#mf64b849d53" x="289.186453" y="194.508388" style="fill: #4169e1; stroke: #4169e1"/>
     <use xlink:href="#mf64b849d53" x="235.08189" y="112.362642" style="fill: #4169e1; stroke: #4169e1"/>
     <use xlink:href="#mf64b849d53" x="179.142057" y="217.257457" style="fill: #4169e1; stroke: #4169e1"/>
     <use xlink:href="#mf64b849d53" x="387.16742" y="154.804222" style="fill: #4169e1; stroke: #4169e1"/>
     <use xlink:href="#mf64b849d53" x="349.433326" y="249.980189" style="fill: #4169e1; stroke: #4169e1"/>
     <use xlink:href="#mf64b849d53" x="345.017068" y="233.530806" style="fill: #4169e1; stroke: #4169e1"/>
     <use xlink:href="#mf64b849d53" x="335.905533" y="151.137812" style="fill: #4169e1; stroke: #4169e1"/>
     <use xlink:href="#mf64b849d53" x="166.176711" y="265.49719" style="fill: #4169e1; stroke: #4169e1"/>
     <use xlink:href="#mf64b849d53" x="245.509645" y="278.495887" style="fill: #4169e1; stroke: #4169e1"/>
     <use xlink:href="#mf64b849d53" x="281.637194" y="310.237077" style="fill: #4169e1; stroke: #4169e1"/>
    </g>
   </g>
   <g id="PathCollection_2">
    <defs>
     <path id="md561b36f87" d="M 0 2.5 
C 0.663008 2.5 1.29895 2.236584 1.767767 1.767767 
C 2.236584 1.29895 2.5 0.663008 2.5 0 
C 2.5 -0.663008 2.236584 -1.29895 1.767767 -1.767767 
C 1.29895 -2.236584 0.663008 -2.5 0 -2.5 
C -0.663008 -2.5 -1.29895 -2.236584 -1.767767 -1.767767 
C -2.236584 -1.29895 -2.5 -0.663008 -2.5 0 
C -2.5 0.663008 -2.236584 1.29895 -1.767767 1.767767 
C -1.29895 2.236584 -0.663008 2.5 0 2.5 
z
" style="stroke: #b22222"/>
    </defs>
    <g clip-path="url(#pd2599862f9)">
     <use xlink:href="#md561b36f87" x="229.549527" y="249.168069" style="fill: #b22222; stroke: #b22222"/>
     <use xlink:href="#md561b36f87" x="218.214886" y="226.951675" style="fill: #b22222; stroke: #b22222"/>
     <use xlink:href="#md561b36f87" x="290.224922" y="223.430952" style="fill: #b22222; stroke: #b22222"/>
     <use xlink:href="#md561b36f87" x="230.828579" y="225.255859" style="fill: #b22222; stroke: #b22222"/>
     <use xlink:href="#md561b36f87" x="214.221473" y="228.361473" style="fill: #b22222; stroke: #b22222"/>
     <use xlink:href="#md561b36f87" x="229.202908" y="218.025868" style="fill: #b22222; stroke: #b22222"/>
     <use xlink:href="#md561b36f87" x="230.147415" y="212.750662" style="fill: #b22222; stroke: #b22222"/>
     <use xlink:href="#md561b36f87" x="225.575405" y="253.710358" style="fill: #b22222; stroke: #b22222"/>
     <use xlink:href="#md561b36f87" x="223.813521" y="225.326654" style="fill: #b22222; stroke: #b22222"/>
     <use xlink:href="#md561b36f87" x="453.647221" y="198.40337" style="fill: #b22222; stroke: #b22222"/>
     <use xlink:href="#md561b36f87" x="235.559942" y="247.0882" style="fill: #b22222; stroke: #b22222"/>
     <use xlink:href="#md561b36f87" x="219.353077" y="226.748984" style="fill: #b22222; stroke: #b22222"/>
     <use xlink:href="#md561b36f87" x="228.554189" y="256.790608" style="fill: #b22222; stroke: #b22222"/>
     <use xlink:href="#md561b36f87" x="304.985678" y="208.86783" style="fill: #b22222; stroke: #b22222"/>
     <use xlink:href="#md561b36f87" x="236.953734" y="247.887999" style="fill: #b22222; stroke: #b22222"/>
     <use xlink:href="#md561b36f87" x="236.147516" y="276.496931" style="fill: #b22222; stroke: #b22222"/>
     <use xlink:href="#md561b36f87" x="225.753877" y="225.620625" style="fill: #b22222; stroke: #b22222"/>
     <use xlink:href="#md561b36f87" x="217.383881" y="201.444372" style="fill: #b22222; stroke: #b22222"/>
     <use xlink:href="#md561b36f87" x="244.388352" y="228.695392" style="fill: #b22222; stroke: #b22222"/>
     <use xlink:href="#md561b36f87" x="228.971972" y="210.788148" style="fill: #b22222; stroke: #b22222"/>
     <use xlink:href="#md561b36f87" x="234.315093" y="254.002929" style="fill: #b22222; stroke: #b22222"/>
     <use xlink:href="#md561b36f87" x="229.038345" y="256.052862" style="fill: #b22222; stroke: #b22222"/>
     <use xlink:href="#md561b36f87" x="218.517985" y="219.544727" style="fill: #b22222; stroke: #b22222"/>
     <use xlink:href="#md561b36f87" x="220.428737" y="232.016693" style="fill: #b22222; stroke: #b22222"/>
     <use xlink:href="#md561b36f87" x="221.013543" y="224.33414" style="fill: #b22222; stroke: #b22222"/>
     <use xlink:href="#md561b36f87" x="225.993804" y="208.310539" style="fill: #b22222; stroke: #b22222"/>
     <use xlink:href="#md561b36f87" x="221.266123" y="210.999499" style="fill: #b22222; stroke: #b22222"/>
     <use xlink:href="#md561b36f87" x="231.819491" y="258.637376" style="fill: #b22222; stroke: #b22222"/>
     <use xlink:href="#md561b36f87" x="223.267661" y="216.196456" style="fill: #b22222; stroke: #b22222"/>
     <use xlink:href="#md561b36f87" x="218.307317" y="215.248971" style="fill: #b22222; stroke: #b22222"/>
     <use xlink:href="#md561b36f87" x="226.093328" y="222.040389" style="fill: #b22222; stroke: #b22222"/>
     <use xlink:href="#md561b36f87" x="238.291377" y="224.258317" style="fill: #b22222; stroke: #b22222"/>
     <use xlink:href="#md561b36f87" x="216.477459" y="213.532336" style="fill: #b22222; stroke: #b22222"/>
     <use xlink:href="#md561b36f87" x="222.971116" y="224.650802" style="fill: #b22222; stroke: #b22222"/>
     <use xlink:href="#md561b36f87" x="239.707783" y="258.417836" style="fill: #b22222; stroke: #b22222"/>
     <use xlink:href="#md561b36f87" x="234.567216" y="227.182001" style="fill: #b22222; stroke: #b22222"/>
     <use xlink:href="#md561b36f87" x="243.961095" y="260.810662" style="fill: #b22222; stroke: #b22222"/>
     <use xlink:href="#md561b36f87" x="218.7108" y="218.270505" style="fill: #b22222; stroke: #b22222"/>
     <use xlink:href="#md561b36f87" x="242.93247" y="243.502153" style="fill: #b22222; stroke: #b22222"/>
     <use xlink:href="#md561b36f87" x="217.88523" y="216.535182" style="fill: #b22222; stroke: #b22222"/>
     <use xlink:href="#md561b36f87" x="235.614674" y="251.509427" style="fill: #b22222; stroke: #b22222"/>
     <use xlink:href="#md561b36f87" x="221.40094" y="212.734226" style="fill: #b22222; stroke: #b22222"/>
     <use xlink:href="#md561b36f87" x="221.719865" y="205.195441" style="fill: #b22222; stroke: #b22222"/>
     <use xlink:href="#md561b36f87" x="253.021586" y="234.977204" style="fill: #b22222; stroke: #b22222"/>
     <use xlink:href="#md561b36f87" x="250.19256" y="245.681769" style="fill: #b22222; stroke: #b22222"/>
     <use xlink:href="#md561b36f87" x="228.888981" y="229.122942" style="fill: #b22222; stroke: #b22222"/>
     <use xlink:href="#md561b36f87" x="236.796889" y="250.519751" style="fill: #b22222; stroke: #b22222"/>
     <use xlink:href="#md561b36f87" x="245.178626" y="251.062074" style="fill: #b22222; stroke: #b22222"/>
     <use xlink:href="#md561b36f87" x="237.913069" y="228.375578" style="fill: #b22222; stroke: #b22222"/>
     <use xlink:href="#md561b36f87" x="228.991161" y="207.804267" style="fill: #b22222; stroke: #b22222"/>
     <use xlink:href="#md561b36f87" x="226.177283" y="224.460213" style="fill: #b22222; stroke: #b22222"/>
     <use xlink:href="#md561b36f87" x="226.53138" y="212.843767" style="fill: #b22222; stroke: #b22222"/>
     <use xlink:href="#md561b36f87" x="343.940712" y="226.191611" style="fill: #b22222; stroke: #b22222"/>
     <use xlink:href="#md561b36f87" x="233.669825" y="264.099655" style="fill: #b22222; stroke: #b22222"/>
     <use xlink:href="#md561b36f87" x="212.000117" y="228.077284" style="fill: #b22222; stroke: #b22222"/>
     <use xlink:href="#md561b36f87" x="310.65174" y="224.125914" style="fill: #b22222; stroke: #b22222"/>
     <use xlink:href="#md561b36f87" x="239.899049" y="243.120658" style="fill: #b22222; stroke: #b22222"/>
     <use xlink:href="#md561b36f87" x="229.709617" y="232.400308" style="fill: #b22222; stroke: #b22222"/>
     <use xlink:href="#md561b36f87" x="226.841125" y="214.41416" style="fill: #b22222; stroke: #b22222"/>
     <use xlink:href="#md561b36f87" x="220.237498" y="169.90256" style="fill: #b22222; stroke: #b22222"/>
     <use xlink:href="#md561b36f87" x="227.483118" y="214.410074" style="fill: #b22222; stroke: #b22222"/>
     <use xlink:href="#md561b36f87" x="231.255102" y="209.027102" style="fill: #b22222; stroke: #b22222"/>
     <use xlink:href="#md561b36f87" x="237.265811" y="231.119741" style="fill: #b22222; stroke: #b22222"/>
     <use xlink:href="#md561b36f87" x="220.919318" y="210.48727" style="fill: #b22222; stroke: #b22222"/>
     <use xlink:href="#md561b36f87" x="230.671923" y="230.543216" style="fill: #b22222; stroke: #b22222"/>
     <use xlink:href="#md561b36f87" x="219.042087" y="203.882306" style="fill: #b22222; stroke: #b22222"/>
     <use xlink:href="#md561b36f87" x="224.362033" y="222.200257" style="fill: #b22222; stroke: #b22222"/>
     <use xlink:href="#md561b36f87" x="339.469725" y="228.591157" style="fill: #b22222; stroke: #b22222"/>
     <use xlink:href="#md561b36f87" x="216.963804" y="214.971424" style="fill: #b22222; stroke: #b22222"/>
     <use xlink:href="#md561b36f87" x="228.826675" y="225.791699" style="fill: #b22222; stroke: #b22222"/>
     <use xlink:href="#md561b36f87" x="234.750911" y="231.713284" style="fill: #b22222; stroke: #b22222"/>
     <use xlink:href="#md561b36f87" x="278.633641" y="219.218734" style="fill: #b22222; stroke: #b22222"/>
     <use xlink:href="#md561b36f87" x="220.611177" y="214.257169" style="fill: #b22222; stroke: #b22222"/>
     <use xlink:href="#md561b36f87" x="244.371223" y="256.178509" style="fill: #b22222; stroke: #b22222"/>
     <use xlink:href="#md561b36f87" x="214.59725" y="200.455763" style="fill: #b22222; stroke: #b22222"/>
    </g>
   </g>
   <g id="patch_4">
    <path d="M 56.450156 450.72 
L 56.450156 7.2 
" style="fill: none; stroke: #ffffff; stroke-width: 1.25; stroke-linejoin: miter; stroke-linecap: square"/>
   </g>
   <g id="patch_5">
    <path d="M 499.970156 450.72 
L 499.970156 7.2 
" style="fill: none; stroke: #ffffff; stroke-width: 1.25; stroke-linejoin: miter; stroke-linecap: square"/>
   </g>
   <g id="patch_6">
    <path d="M 56.450156 450.72 
L 499.970156 450.72 
" style="fill: none; stroke: #ffffff; stroke-width: 1.25; stroke-linejoin: miter; stroke-linecap: square"/>
   </g>
   <g id="patch_7">
    <path d="M 56.450156 7.2 
L 499.970156 7.2 
" style="fill: none; stroke: #ffffff; stroke-width: 1.25; stroke-linejoin: miter; stroke-linecap: square"/>
   </g>
   <g id="text_13">
    <!-- t = 4900 -->
    <g style="fill: #262626" transform="translate(65.320556 24.659775) scale(0.12 -0.12)">
     <defs>
      <path id="ArialMT-74" d="M 1650 503 
L 1731 6 
Q 1494 -44 1306 -44 
Q 1000 -44 831 53 
Q 663 150 594 308 
Q 525 466 525 972 
L 525 2881 
L 113 2881 
L 113 3319 
L 525 3319 
L 525 4141 
L 1084 4478 
L 1084 3319 
L 1650 3319 
L 1650 2881 
L 1084 2881 
L 1084 941 
Q 1084 700 1114 631 
Q 1144 563 1211 522 
Q 1278 481 1403 481 
Q 1497 481 1650 503 
z
" transform="scale(0.015625)"/>
      <path id="ArialMT-20" transform="scale(0.015625)"/>
      <path id="ArialMT-3d" d="M 3381 2694 
L 356 2694 
L 356 3219 
L 3381 3219 
L 3381 2694 
z
M 3381 1303 
L 356 1303 
L 356 1828 
L 3381 1828 
L 3381 1303 
z
" transform="scale(0.015625)"/>
      <path id="ArialMT-39" d="M 350 1059 
L 891 1109 
Q 959 728 1153 556 
Q 1347 384 1650 384 
Q 1909 384 2104 503 
Q 2300 622 2425 820 
Q 2550 1019 2634 1356 
Q 2719 1694 2719 2044 
Q 2719 2081 2716 2156 
Q 2547 1888 2255 1720 
Q 1963 1553 1622 1553 
Q 1053 1553 659 1965 
Q 266 2378 266 3053 
Q 266 3750 677 4175 
Q 1088 4600 1706 4600 
Q 2153 4600 2523 4359 
Q 2894 4119 3086 3673 
Q 3278 3228 3278 2384 
Q 3278 1506 3087 986 
Q 2897 466 2520 194 
Q 2144 -78 1638 -78 
Q 1100 -78 759 220 
Q 419 519 350 1059 
z
M 2653 3081 
Q 2653 3566 2395 3850 
Q 2138 4134 1775 4134 
Q 1400 4134 1122 3828 
Q 844 3522 844 3034 
Q 844 2597 1108 2323 
Q 1372 2050 1759 2050 
Q 2150 2050 2401 2323 
Q 2653 2597 2653 3081 
z
" transform="scale(0.015625)"/>
     </defs>
     <use xlink:href="#ArialMT-74"/>
     <use xlink:href="#ArialMT-20" x="27.783203"/>
     <use xlink:href="#ArialMT-3d" x="55.566406"/>
     <use xlink:href="#ArialMT-20" x="113.964844"/>
     <use xlink:href="#ArialMT-34" x="141.748047"/>
     <use xlink:href="#ArialMT-39" x="197.363281"/>
     <use xlink:href="#ArialMT-30" x="252.978516"/>
     <use xlink:href="#ArialMT-30" x="308.59375"/>
    </g>
   </g>
   <g id="legend_1">
    <g id="patch_8">
     <path d="M 328.111406 94.59 
L 483.170156 94.59 
Q 487.970156 94.59 487.970156 89.79 
L 487.970156 24 
Q 487.970156 19.2 483.170156 19.2 
L 328.111406 19.2 
Q 323.311406 19.2 323.311406 24 
L 323.311406 89.79 
Q 323.311406 94.59 328.111406 94.59 
z
" style="fill: #eaeaf2; opacity: 0.8; stroke: #cccccc; stroke-linejoin: miter"/>
    </g>
    <g id="PathCollection_3">
     <g>
      <use xlink:href="#mf64b849d53" x="356.911406" y="39.97125" style="fill: #4169e1; stroke: #4169e1"/>
     </g>
    </g>
    <g id="text_14">
     <!-- Sheep -->
     <g style="fill: #262626" transform="translate(400.111406 46.27125) scale(0.24 -0.24)">
      <defs>
       <path id="ArialMT-53" d="M 288 1472 
L 859 1522 
Q 900 1178 1048 958 
Q 1197 738 1509 602 
Q 1822 466 2213 466 
Q 2559 466 2825 569 
Q 3091 672 3220 851 
Q 3350 1031 3350 1244 
Q 3350 1459 3225 1620 
Q 3100 1781 2813 1891 
Q 2628 1963 1997 2114 
Q 1366 2266 1113 2400 
Q 784 2572 623 2826 
Q 463 3081 463 3397 
Q 463 3744 659 4045 
Q 856 4347 1234 4503 
Q 1613 4659 2075 4659 
Q 2584 4659 2973 4495 
Q 3363 4331 3572 4012 
Q 3781 3694 3797 3291 
L 3216 3247 
Q 3169 3681 2898 3903 
Q 2628 4125 2100 4125 
Q 1550 4125 1298 3923 
Q 1047 3722 1047 3438 
Q 1047 3191 1225 3031 
Q 1400 2872 2139 2705 
Q 2878 2538 3153 2413 
Q 3553 2228 3743 1945 
Q 3934 1663 3934 1294 
Q 3934 928 3725 604 
Q 3516 281 3123 101 
Q 2731 -78 2241 -78 
Q 1619 -78 1198 103 
Q 778 284 539 648 
Q 300 1013 288 1472 
z
" transform="scale(0.015625)"/>
       <path id="ArialMT-68" d="M 422 0 
L 422 4581 
L 984 4581 
L 984 2938 
Q 1378 3394 1978 3394 
Q 2347 3394 2619 3248 
Q 2891 3103 3008 2847 
Q 3125 2591 3125 2103 
L 3125 0 
L 2563 0 
L 2563 2103 
Q 2563 2525 2380 2717 
Q 2197 2909 1863 2909 
Q 1613 2909 1392 2779 
Q 1172 2650 1078 2428 
Q 984 2206 984 1816 
L 984 0 
L 422 0 
z
" transform="scale(0.015625)"/>
       <path id="ArialMT-65" d="M 2694 1069 
L 3275 997 
Q 3138 488 2766 206 
Q 2394 -75 1816 -75 
Q 1088 -75 661 373 
Q 234 822 234 1631 
Q 234 2469 665 2931 
Q 1097 3394 1784 3394 
Q 2450 3394 2872 2941 
Q 3294 2488 3294 1666 
Q 3294 1616 3291 1516 
L 816 1516 
Q 847 969 1125 678 
Q 1403 388 1819 388 
Q 2128 388 2347 550 
Q 2566 713 2694 1069 
z
M 847 1978 
L 2700 1978 
Q 2663 2397 2488 2606 
Q 2219 2931 1791 2931 
Q 1403 2931 1139 2672 
Q 875 2413 847 1978 
z
" transform="scale(0.015625)"/>
       <path id="ArialMT-70" d="M 422 -1272 
L 422 3319 
L 934 3319 
L 934 2888 
Q 1116 3141 1344 3267 
Q 1572 3394 1897 3394 
Q 2322 3394 2647 3175 
Q 2972 2956 3137 2557 
Q 3303 2159 3303 1684 
Q 3303 1175 3120 767 
Q 2938 359 2589 142 
Q 2241 -75 1856 -75 
Q 1575 -75 1351 44 
Q 1128 163 984 344 
L 984 -1272 
L 422 -1272 
z
M 931 1641 
Q 931 1000 1190 694 
Q 1450 388 1819 388 
Q 2194 388 2461 705 
Q 2728 1022 2728 1688 
Q 2728 2322 2467 2637 
Q 2206 2953 1844 2953 
Q 1484 2953 1207 2617 
Q 931 2281 931 1641 
z
" transform="scale(0.015625)"/>
      </defs>
      <use xlink:href="#ArialMT-53"/>
      <use xlink:href="#ArialMT-68" x="66.699219"/>
      <use xlink:href="#ArialMT-65" x="122.314453"/>
      <use xlink:href="#ArialMT-65" x="177.929688"/>
      <use xlink:href="#ArialMT-70" x="233.544922"/>
     </g>
    </g>
    <g id="PathCollection_4">
     <g>
      <use xlink:href="#md561b36f87" x="356.911406" y="73.92" style="fill: #b22222; stroke: #b22222"/>
     </g>
    </g>
    <g id="text_15">
     <!-- Wolves -->
     <g style="fill: #262626" transform="translate(400.111406 80.22) scale(0.24 -0.24)">
      <defs>
       <path id="ArialMT-57" d="M 1294 0 
L 78 4581 
L 700 4581 
L 1397 1578 
Q 1509 1106 1591 641 
Q 1766 1375 1797 1488 
L 2669 4581 
L 3400 4581 
L 4056 2263 
Q 4303 1400 4413 641 
Q 4500 1075 4641 1638 
L 5359 4581 
L 5969 4581 
L 4713 0 
L 4128 0 
L 3163 3491 
Q 3041 3928 3019 4028 
Q 2947 3713 2884 3491 
L 1913 0 
L 1294 0 
z
" transform="scale(0.015625)"/>
       <path id="ArialMT-6f" d="M 213 1659 
Q 213 2581 725 3025 
Q 1153 3394 1769 3394 
Q 2453 3394 2887 2945 
Q 3322 2497 3322 1706 
Q 3322 1066 3130 698 
Q 2938 331 2570 128 
Q 2203 -75 1769 -75 
Q 1072 -75 642 372 
Q 213 819 213 1659 
z
M 791 1659 
Q 791 1022 1069 705 
Q 1347 388 1769 388 
Q 2188 388 2466 706 
Q 2744 1025 2744 1678 
Q 2744 2294 2464 2611 
Q 2184 2928 1769 2928 
Q 1347 2928 1069 2612 
Q 791 2297 791 1659 
z
" transform="scale(0.015625)"/>
       <path id="ArialMT-6c" d="M 409 0 
L 409 4581 
L 972 4581 
L 972 0 
L 409 0 
z
" transform="scale(0.015625)"/>
       <path id="ArialMT-76" d="M 1344 0 
L 81 3319 
L 675 3319 
L 1388 1331 
Q 1503 1009 1600 663 
Q 1675 925 1809 1294 
L 2547 3319 
L 3125 3319 
L 1869 0 
L 1344 0 
z
" transform="scale(0.015625)"/>
       <path id="ArialMT-73" d="M 197 991 
L 753 1078 
Q 800 744 1014 566 
Q 1228 388 1613 388 
Q 2000 388 2187 545 
Q 2375 703 2375 916 
Q 2375 1106 2209 1216 
Q 2094 1291 1634 1406 
Q 1016 1563 777 1677 
Q 538 1791 414 1992 
Q 291 2194 291 2438 
Q 291 2659 392 2848 
Q 494 3038 669 3163 
Q 800 3259 1026 3326 
Q 1253 3394 1513 3394 
Q 1903 3394 2198 3281 
Q 2494 3169 2634 2976 
Q 2775 2784 2828 2463 
L 2278 2388 
Q 2241 2644 2061 2787 
Q 1881 2931 1553 2931 
Q 1166 2931 1000 2803 
Q 834 2675 834 2503 
Q 834 2394 903 2306 
Q 972 2216 1119 2156 
Q 1203 2125 1616 2013 
Q 2213 1853 2448 1751 
Q 2684 1650 2818 1456 
Q 2953 1263 2953 975 
Q 2953 694 2789 445 
Q 2625 197 2315 61 
Q 2006 -75 1616 -75 
Q 969 -75 630 194 
Q 291 463 197 991 
z
" transform="scale(0.015625)"/>
      </defs>
      <use xlink:href="#ArialMT-57"/>
      <use xlink:href="#ArialMT-6f" x="92.634766"/>
      <use xlink:href="#ArialMT-6c" x="148.25"/>
      <use xlink:href="#ArialMT-76" x="170.466797"/>
      <use xlink:href="#ArialMT-65" x="220.466797"/>
      <use xlink:href="#ArialMT-73" x="276.082031"/>
     </g>
    </g>
   </g>
  </g>
 </g>
 <defs>
  <clipPath id="pd2599862f9">
   <rect x="56.450156" y="7.2" width="443.52" height="443.52"/>
  </clipPath>
 </defs>
</svg>
