<?xml version="1.0" encoding="utf-8" standalone="no"?>
<!DOCTYPE svg PUBLIC "-//W3C//DTD SVG 1.1//EN"
  "http://www.w3.org/Graphics/SVG/1.1/DTD/svg11.dtd">
<svg xmlns:xlink="http://www.w3.org/1999/xlink" width="507.170156pt" height="492.454219pt" viewBox="0 0 507.170156 492.454219" xmlns="http://www.w3.org/2000/svg" version="1.1">
 <metadata>
  <rdf:RDF xmlns:dc="http://purl.org/dc/elements/1.1/" xmlns:cc="http://creativecommons.org/ns#" xmlns:rdf="http://www.w3.org/1999/02/22-rdf-syntax-ns#">
   <cc:Work>
    <dc:type rdf:resource="http://purl.org/dc/dcmitype/StillImage"/>
    <dc:date>2026-05-12T10:43:18.943132</dc:date>
    <dc:format>image/svg+xml</dc:format>
    <dc:creator>
     <cc:Agent>
      <dc:title>Matplotlib v3.7.1, https://matplotlib.org/</dc:title>
     </cc:Agent>
    </dc:creator>
   </cc:Work>
  </rdf:RDF>
 </metadata>
 <defs>
  <style type="text/css">*{stroke-linejoin: round; stroke-linecap: butt}</style>
 </defs>
 <g id="figure_1">
  <g id="patch_1">
   <path d="M 0 492.454219 
L 507.170156 492.454219 
L 507.170156 0 
L 0 0 
z
" style="fill: #ffffff"/>
  </g>
  <g id="axes_1">
   <g id="patch_2">
    <path d="M 56.450156 450.72 
L 499.970156 450.72 
L 499.970156 7.2 
L 56.450156 7.2 
z
" style="fill: #eaeaf2"/>
   </g>
   <g id="matplotlib.axis_1">
    <g id="xtick_1">
     <g id="line2d_1">
      <path d="M 100.802156 450.72 
L 100.802156 7.2 
" clip-path="url(#p287ba77c3c)" style="fill: none; stroke: #ffffff; stroke-linecap: round"/>
     </g>
     <g id="text_1">
      <!-- −400 -->
      <g style="fill: #262626" transform="translate(88.414266 468.093594) scale(0.11 -0.11)">
       <defs>
        <path id="ArialMT-2212" d="M 3381 1997 
L 356 1997 
L 356 2522 
L 3381 2522 
L 3381 1997 
z
" transform="scale(0.015625)"/>
        <path id="ArialMT-34" d="M 2069 0 
L 2069 1097 
L 81 1097 
L 81 1613 
L 2172 4581 
L 2631 4581 
L 2631 1613 
L 3250 1613 
L 3250 1097 
L 2631 1097 
L 2631 0 
L 2069 0 
z
M 2069 1613 
L 2069 3678 
L 634 1613 
L 2069 1613 
z
" transform="scale(0.015625)"/>
        <path id="ArialMT-30" d="M 266 2259 
Q 266 3072 433 3567 
Q 600 4063 929 4331 
Q 1259 4600 1759 4600 
Q 2128 4600 2406 4451 
Q 2684 4303 2865 4023 
Q 3047 3744 3150 3342 
Q 3253 2941 3253 2259 
Q 3253 1453 3087 958 
Q 2922 463 2592 192 
Q 2263 -78 1759 -78 
Q 1097 -78 719 397 
Q 266 969 266 2259 
z
M 844 2259 
Q 844 1131 1108 757 
Q 1372 384 1759 384 
Q 2147 384 2411 759 
Q 2675 1134 2675 2259 
Q 2675 3391 2411 3762 
Q 2147 4134 1753 4134 
Q 1366 4134 1134 3806 
Q 844 3388 844 2259 
z
" transform="scale(0.015625)"/>
       </defs>
       <use xlink:href="#ArialMT-2212"/>
       <use xlink:href="#ArialMT-34" x="58.398438"/>
       <use xlink:href="#ArialMT-30" x="114.013672"/>
       <use xlink:href="#ArialMT-30" x="169.628906"/>
      </g>
     </g>
    </g>
    <g id="xtick_2">
     <g id="line2d_2">
      <path d="M 189.506156 450.72 
L 189.506156 7.2 
" clip-path="url(#p287ba77c3c)" style="fill: none; stroke: #ffffff; stroke-linecap: round"/>
     </g>
     <g id="text_2">
      <!-- −200 -->
      <g style="fill: #262626" transform="translate(177.118266 468.093594) scale(0.11 -0.11)">
       <defs>
        <path id="ArialMT-32" d="M 3222 541 
L 3222 0 
L 194 0 
Q 188 203 259 391 
Q 375 700 629 1000 
Q 884 1300 1366 1694 
Q 2113 2306 2375 2664 
Q 2638 3022 2638 3341 
Q 2638 3675 2398 3904 
Q 2159 4134 1775 4134 
Q 1369 4134 1125 3890 
Q 881 3647 878 3216 
L 300 3275 
Q 359 3922 746 4261 
Q 1134 4600 1788 4600 
Q 2447 4600 2831 4234 
Q 3216 3869 3216 3328 
Q 3216 3053 3103 2787 
Q 2991 2522 2730 2228 
Q 2469 1934 1863 1422 
Q 1356 997 1212 845 
Q 1069 694 975 541 
L 3222 541 
z
" transform="scale(0.015625)"/>
       </defs>
       <use xlink:href="#ArialMT-2212"/>
       <use xlink:href="#ArialMT-32" x="58.398438"/>
       <use xlink:href="#ArialMT-30" x="114.013672"/>
       <use xlink:href="#ArialMT-30" x="169.628906"/>
      </g>
     </g>
    </g>
    <g id="xtick_3">
     <g id="line2d_3">
      <path d="M 278.210156 450.72 
L 278.210156 7.2 
" clip-path="url(#p287ba77c3c)" style="fill: none; stroke: #ffffff; stroke-linecap: round"/>
     </g>
     <g id="text_3">
      <!-- 0 -->
      <g style="fill: #262626" transform="translate(275.151641 468.093594) scale(0.11 -0.11)">
       <use xlink:href="#ArialMT-30"/>
      </g>
     </g>
    </g>
    <g id="xtick_4">
     <g id="line2d_4">
      <path d="M 366.914156 450.72 
L 366.914156 7.2 
" clip-path="url(#p287ba77c3c)" style="fill: none; stroke: #ffffff; stroke-linecap: round"/>
     </g>
     <g id="text_4">
      <!-- 200 -->
      <g style="fill: #262626" transform="translate(357.738609 468.093594) scale(0.11 -0.11)">
       <use xlink:href="#ArialMT-32"/>
       <use xlink:href="#ArialMT-30" x="55.615234"/>
       <use xlink:href="#ArialMT-30" x="111.230469"/>
      </g>
     </g>
    </g>
    <g id="xtick_5">
     <g id="line2d_5">
      <path d="M 455.618156 450.72 
L 455.618156 7.2 
" clip-path="url(#p287ba77c3c)" style="fill: none; stroke: #ffffff; stroke-linecap: round"/>
     </g>
     <g id="text_5">
      <!-- 400 -->
      <g style="fill: #262626" transform="translate(446.442609 468.093594) scale(0.11 -0.11)">
       <use xlink:href="#ArialMT-34"/>
       <use xlink:href="#ArialMT-30" x="55.615234"/>
       <use xlink:href="#ArialMT-30" x="111.230469"/>
      </g>
     </g>
    </g>
    <g id="text_6">
     <!-- x -->
     <g style="fill: #262626" transform="translate(275.210156 482.869219) scale(0.12 -0.12)">
      <defs>
       <path id="ArialMT-78" d="M 47 0 
L 1259 1725 
L 138 3319 
L 841 3319 
L 1350 2541 
Q 1494 2319 1581 2169 
Q 1719 2375 1834 2534 
L 2394 3319 
L 3066 3319 
L 1919 1756 
L 3153 0 
L 2463 0 
L 1781 1031 
L 1600 1309 
L 728 0 
L 47 0 
z
" transform="scale(0.015625)"/>
      </defs>
      <use xlink:href="#ArialMT-78"/>
     </g>
    </g>
   </g>
   <g id="matplotlib.axis_2">
    <g id="ytick_1">
     <g id="line2d_6">
      <path d="M 56.450156 406.368 
L 499.970156 406.368 
" clip-path="url(#p287ba77c3c)" style="fill: none; stroke: #ffffff; stroke-linecap: round"/>
     </g>
     <g id="text_7">
      <!-- −400 -->
      <g style="fill: #262626" transform="translate(22.174375 410.304797) scale(0.11 -0.11)">
       <use xlink:href="#ArialMT-2212"/>
       <use xlink:href="#ArialMT-34" x="58.398438"/>
       <use xlink:href="#ArialMT-30" x="114.013672"/>
       <use xlink:href="#ArialMT-30" x="169.628906"/>
      </g>
     </g>
    </g>
    <g id="ytick_2">
     <g id="line2d_7">
      <path d="M 56.450156 317.664 
L 499.970156 317.664 
" clip-path="url(#p287ba77c3c)" style="fill: none; stroke: #ffffff; stroke-linecap: round"/>
     </g>
     <g id="text_8">
      <!-- −200 -->
      <g style="fill: #262626" transform="translate(22.174375 321.600797) scale(0.11 -0.11)">
       <use xlink:href="#ArialMT-2212"/>
       <use xlink:href="#ArialMT-32" x="58.398438"/>
       <use xlink:href="#ArialMT-30" x="114.013672"/>
       <use xlink:href="#ArialMT-30" x="169.628906"/>
      </g>
     </g>
    </g>
    <g id="ytick_3">
     <g id="line2d_8">
      <path d="M 56.450156 228.96 
L 499.970156 228.96 
" clip-path="url(#p287ba77c3c)" style="fill: none; stroke: #ffffff; stroke-linecap: round"/>
     </g>
     <g id="text_9">
      <!-- 0 -->
      <g style="fill: #262626" transform="translate(40.833125 232.896797) scale(0.11 -0.11)">
       <use xlink:href="#ArialMT-30"/>
      </g>
     </g>
    </g>
    <g id="ytick_4">
     <g id="line2d_9">
      <path d="M 56.450156 140.256 
L 499.970156 140.256 
" clip-path="url(#p287ba77c3c)" style="fill: none; stroke: #ffffff; stroke-linecap: round"/>
     </g>
     <g id="text_10">
      <!-- 200 -->
      <g style="fill: #262626" transform="translate(28.599063 144.192797) scale(0.11 -0.11)">
       <use xlink:href="#ArialMT-32"/>
       <use xlink:href="#ArialMT-30" x="55.615234"/>
       <use xlink:href="#ArialMT-30" x="111.230469"/>
      </g>
     </g>
    </g>
    <g id="ytick_5">
     <g id="line2d_10">
      <path d="M 56.450156 51.552 
L 499.970156 51.552 
" clip-path="url(#p287ba77c3c)" style="fill: none; stroke: #ffffff; stroke-linecap: round"/>
     </g>
     <g id="text_11">
      <!-- 400 -->
      <g style="fill: #262626" transform="translate(28.599063 55.488797) scale(0.11 -0.11)">
       <use xlink:href="#ArialMT-34"/>
       <use xlink:href="#ArialMT-30" x="55.615234"/>
       <use xlink:href="#ArialMT-30" x="111.230469"/>
      </g>
     </g>
    </g>
    <g id="text_12">
     <!-- y -->
     <g style="fill: #262626" transform="translate(15.64875 231.96) rotate(-90) scale(0.12 -0.12)">
      <defs>
       <path id="ArialMT-79" d="M 397 -1278 
L 334 -750 
Q 519 -800 656 -800 
Q 844 -800 956 -737 
Q 1069 -675 1141 -563 
Q 1194 -478 1313 -144 
Q 1328 -97 1363 -6 
L 103 3319 
L 709 3319 
L 1400 1397 
Q 1534 1031 1641 628 
Q 1738 1016 1872 1384 
L 2581 3319 
L 3144 3319 
L 1881 -56 
Q 1678 -603 1566 -809 
Q 1416 -1088 1222 -1217 
Q 1028 -1347 759 -1347 
Q 597 -1347 397 -1278 
z
" transform="scale(0.015625)"/>
      </defs>
      <use xlink:href="#ArialMT-79"/>
     </g>
    </g>
   </g>
   <g id="patch_3">
    <path d="M 278.210156 317.664 
C 301.734732 317.664 324.298969 308.317587 340.933356 291.6832 
C 357.567743 275.048813 366.914156 252.484576 366.914156 228.96 
C 366.914156 205.435424 357.567743 182.871187 340.933356 166.2368 
C 324.298969 149.602413 301.734732 140.256 278.210156 140.256 
C 254.68558 140.256 232.121343 149.602413 215.486956 166.2368 
C 198.852569 182.871187 189.506156 205.435424 189.506156 228.96 
C 189.506156 252.484576 198.852569 275.048813 215.486956 291.6832 
C 232.121343 308.317587 254.68558 317.664 278.210156 317.664 
z
" clip-path="url(#p287ba77c3c)" style="fill: #228b22; opacity: 0.12; stroke: #228b22; stroke-width: 1.5; stroke-linejoin: miter"/>
   </g>
   <g id="PathCollection_1">
    <defs>
     <path id="m1b7f4ce145" d="M 0 2.236068 
C 0.593012 2.236068 1.161816 2.000462 1.581139 1.581139 
C 2.000462 1.161816 2.236068 0.593012 2.236068 0 
C 2.236068 -0.593012 2.000462 -1.161816 1.581139 -1.581139 
C 1.161816 -2.000462 0.593012 -2.236068 0 -2.236068 
C -0.593012 -2.236068 -1.161816 -2.000462 -1.581139 -1.581139 
C -2.000462 -1.161816 -2.236068 -0.593012 -2.236068 0 
C -2.236068 0.593012 -2.000462 1.161816 -1.581139 1.581139 
C -1.161816 2.000462 -0.593012 2.236068 0 2.236068 
z
" style="stroke: #4169e1"/>
    </defs>
    <g clip-path="url(#p287ba77c3c)">
     <use xlink:href="#m1b7f4ce145" x="442.020684" y="168.727174" style="fill: #4169e1; stroke: #4169e1"/>
     <use xlink:href="#m1b7f4ce145" x="305.786173" y="254.0032" style="fill: #4169e1; stroke: #4169e1"/>
     <use xlink:href="#m1b7f4ce145" x="430.883849" y="262.615362" style="fill: #4169e1; stroke: #4169e1"/>
     <use xlink:href="#m1b7f4ce145" x="317.504732" y="124.256423" style="fill: #4169e1; stroke: #4169e1"/>
     <use xlink:href="#m1b7f4ce145" x="246.215473" y="165.47067" style="fill: #4169e1; stroke: #4169e1"/>
     <use xlink:href="#m1b7f4ce145" x="485.146277" y="255.956515" style="fill: #4169e1; stroke: #4169e1"/>
     <use xlink:href="#m1b7f4ce145" x="359.245421" y="217.619088" style="fill: #4169e1; stroke: #4169e1"/>
     <use xlink:href="#m1b7f4ce145" x="188.269828" y="162.605663" style="fill: #4169e1; stroke: #4169e1"/>
     <use xlink:href="#m1b7f4ce145" x="380.437104" y="154.4093" style="fill: #4169e1; stroke: #4169e1"/>
     <use xlink:href="#m1b7f4ce145" x="349.243543" y="300.089723" style="fill: #4169e1; stroke: #4169e1"/>
     <use xlink:href="#m1b7f4ce145" x="416.614912" y="292.521994" style="fill: #4169e1; stroke: #4169e1"/>
     <use xlink:href="#m1b7f4ce145" x="437.320926" y="293.558807" style="fill: #4169e1; stroke: #4169e1"/>
     <use xlink:href="#m1b7f4ce145" x="339.33189" y="146.88891" style="fill: #4169e1; stroke: #4169e1"/>
     <use xlink:href="#m1b7f4ce145" x="392.106831" y="312.908545" style="fill: #4169e1; stroke: #4169e1"/>
     <use xlink:href="#m1b7f4ce145" x="325.148643" y="285.011119" style="fill: #4169e1; stroke: #4169e1"/>
     <use xlink:href="#m1b7f4ce145" x="401.036366" y="167.303932" style="fill: #4169e1; stroke: #4169e1"/>
     <use xlink:href="#m1b7f4ce145" x="420.252133" y="180.238621" style="fill: #4169e1; stroke: #4169e1"/>
     <use xlink:href="#m1b7f4ce145" x="300.742706" y="217.225006" style="fill: #4169e1; stroke: #4169e1"/>
     <use xlink:href="#m1b7f4ce145" x="213.755079" y="126.583976" style="fill: #4169e1; stroke: #4169e1"/>
     <use xlink:href="#m1b7f4ce145" x="361.921457" y="171.522962" style="fill: #4169e1; stroke: #4169e1"/>
     <use xlink:href="#m1b7f4ce145" x="184.138107" y="294.852362" style="fill: #4169e1; stroke: #4169e1"/>
     <use xlink:href="#m1b7f4ce145" x="398.507363" y="108.297127" style="fill: #4169e1; stroke: #4169e1"/>
     <use xlink:href="#m1b7f4ce145" x="472.43705" y="242.698145" style="fill: #4169e1; stroke: #4169e1"/>
     <use xlink:href="#m1b7f4ce145" x="287.863594" y="115.036228" style="fill: #4169e1; stroke: #4169e1"/>
     <use xlink:href="#m1b7f4ce145" x="226.292978" y="213.951266" style="fill: #4169e1; stroke: #4169e1"/>
     <use xlink:href="#m1b7f4ce145" x="296.515237" y="307.010594" style="fill: #4169e1; stroke: #4169e1"/>
     <use xlink:href="#m1b7f4ce145" x="284.168676" y="285.451265" style="fill: #4169e1; stroke: #4169e1"/>
     <use xlink:href="#m1b7f4ce145" x="466.943779" y="204.320108" style="fill: #4169e1; stroke: #4169e1"/>
     <use xlink:href="#m1b7f4ce145" x="170.138139" y="248.893829" style="fill: #4169e1; stroke: #4169e1"/>
     <use xlink:href="#m1b7f4ce145" x="304.298747" y="290.557955" style="fill: #4169e1; stroke: #4169e1"/>
     <use xlink:href="#m1b7f4ce145" x="310.137174" y="343.506403" style="fill: #4169e1; stroke: #4169e1"/>
     <use xlink:href="#m1b7f4ce145" x="219.66038" y="261.118499" style="fill: #4169e1; stroke: #4169e1"/>
     <use xlink:href="#m1b7f4ce145" x="337.839483" y="246.126351" style="fill: #4169e1; stroke: #4169e1"/>
     <use xlink:href="#m1b7f4ce145" x="450.869049" y="256.299058" style="fill: #4169e1; stroke: #4169e1"/>
     <use xlink:href="#m1b7f4ce145" x="279.798391" y="218.18716" style="fill: #4169e1; stroke: #4169e1"/>
     <use xlink:href="#m1b7f4ce145" x="219.611849" y="155.086356" style="fill: #4169e1; stroke: #4169e1"/>
     <use xlink:href="#m1b7f4ce145" x="358.145141" y="135.611343" style="fill: #4169e1; stroke: #4169e1"/>
     <use xlink:href="#m1b7f4ce145" x="290.689578" y="154.553037" style="fill: #4169e1; stroke: #4169e1"/>
     <use xlink:href="#m1b7f4ce145" x="281.179702" y="77.04276" style="fill: #4169e1; stroke: #4169e1"/>
     <use xlink:href="#m1b7f4ce145" x="379.079257" y="203.532387" style="fill: #4169e1; stroke: #4169e1"/>
     <use xlink:href="#m1b7f4ce145" x="410.884681" y="223.394696" style="fill: #4169e1; stroke: #4169e1"/>
     <use xlink:href="#m1b7f4ce145" x="461.807309" y="188.81248" style="fill: #4169e1; stroke: #4169e1"/>
     <use xlink:href="#m1b7f4ce145" x="310.991378" y="233.889835" style="fill: #4169e1; stroke: #4169e1"/>
     <use xlink:href="#m1b7f4ce145" x="272.604991" y="185.523674" style="fill: #4169e1; stroke: #4169e1"/>
     <use xlink:href="#m1b7f4ce145" x="172.238708" y="281.482595" style="fill: #4169e1; stroke: #4169e1"/>
     <use xlink:href="#m1b7f4ce145" x="257.099478" y="109.273188" style="fill: #4169e1; stroke: #4169e1"/>
     <use xlink:href="#m1b7f4ce145" x="221.689486" y="262.003583" style="fill: #4169e1; stroke: #4169e1"/>
     <use xlink:href="#m1b7f4ce145" x="380.512413" y="222.059755" style="fill: #4169e1; stroke: #4169e1"/>
     <use xlink:href="#m1b7f4ce145" x="451.861447" y="153.594883" style="fill: #4169e1; stroke: #4169e1"/>
     <use xlink:href="#m1b7f4ce145" x="337.783793" y="159.610881" style="fill: #4169e1; stroke: #4169e1"/>
     <use xlink:href="#m1b7f4ce145" x="465.869562" y="194.465218" style="fill: #4169e1; stroke: #4169e1"/>
     <use xlink:href="#m1b7f4ce145" x="337.450733" y="142.986318" style="fill: #4169e1; stroke: #4169e1"/>
     <use xlink:href="#m1b7f4ce145" x="262.386894" y="137.11893" style="fill: #4169e1; stroke: #4169e1"/>
     <use xlink:href="#m1b7f4ce145" x="480.466673" y="262.134079" style="fill: #4169e1; stroke: #4169e1"/>
     <use xlink:href="#m1b7f4ce145" x="240.534176" y="133.176051" style="fill: #4169e1; stroke: #4169e1"/>
     <use xlink:href="#m1b7f4ce145" x="320.678397" y="85.901723" style="fill: #4169e1; stroke: #4169e1"/>
     <use xlink:href="#m1b7f4ce145" x="180.347457" y="166.016739" style="fill: #4169e1; stroke: #4169e1"/>
     <use xlink:href="#m1b7f4ce145" x="346.073041" y="115.510594" style="fill: #4169e1; stroke: #4169e1"/>
     <use xlink:href="#m1b7f4ce145" x="397.244614" y="163.727653" style="fill: #4169e1; stroke: #4169e1"/>
     <use xlink:href="#m1b7f4ce145" x="211.154305" y="253.680606" style="fill: #4169e1; stroke: #4169e1"/>
     <use xlink:href="#m1b7f4ce145" x="382.619986" y="319.08218" style="fill: #4169e1; stroke: #4169e1"/>
     <use xlink:href="#m1b7f4ce145" x="235.276935" y="157.982162" style="fill: #4169e1; stroke: #4169e1"/>
     <use xlink:href="#m1b7f4ce145" x="212.927025" y="163.138088" style="fill: #4169e1; stroke: #4169e1"/>
     <use xlink:href="#m1b7f4ce145" x="301.004753" y="312.621478" style="fill: #4169e1; stroke: #4169e1"/>
     <use xlink:href="#m1b7f4ce145" x="306.445517" y="90.722823" style="fill: #4169e1; stroke: #4169e1"/>
     <use xlink:href="#m1b7f4ce145" x="422.547871" y="114.788385" style="fill: #4169e1; stroke: #4169e1"/>
     <use xlink:href="#m1b7f4ce145" x="402.804829" y="298.792507" style="fill: #4169e1; stroke: #4169e1"/>
     <use xlink:href="#m1b7f4ce145" x="436.30897" y="174.59793" style="fill: #4169e1; stroke: #4169e1"/>
     <use xlink:href="#m1b7f4ce145" x="376.571971" y="205.735541" style="fill: #4169e1; stroke: #4169e1"/>
     <use xlink:href="#m1b7f4ce145" x="267.49228" y="175.818527" style="fill: #4169e1; stroke: #4169e1"/>
     <use xlink:href="#m1b7f4ce145" x="355.854973" y="323.13914" style="fill: #4169e1; stroke: #4169e1"/>
     <use xlink:href="#m1b7f4ce145" x="426.989866" y="238.543612" style="fill: #4169e1; stroke: #4169e1"/>
     <use xlink:href="#m1b7f4ce145" x="211.080701" y="301.840807" style="fill: #4169e1; stroke: #4169e1"/>
     <use xlink:href="#m1b7f4ce145" x="240.705544" y="162.941003" style="fill: #4169e1; stroke: #4169e1"/>
     <use xlink:href="#m1b7f4ce145" x="480.857338" y="116.254757" style="fill: #4169e1; stroke: #4169e1"/>
     <use xlink:href="#m1b7f4ce145" x="290.655584" y="132.866854" style="fill: #4169e1; stroke: #4169e1"/>
     <use xlink:href="#m1b7f4ce145" x="206.656045" y="265.116196" style="fill: #4169e1; stroke: #4169e1"/>
     <use xlink:href="#m1b7f4ce145" x="363.562405" y="240.149473" style="fill: #4169e1; stroke: #4169e1"/>
     <use xlink:href="#m1b7f4ce145" x="322.164896" y="134.547541" style="fill: #4169e1; stroke: #4169e1"/>
     <use xlink:href="#m1b7f4ce145" x="423.176958" y="166.597207" style="fill: #4169e1; stroke: #4169e1"/>
     <use xlink:href="#m1b7f4ce145" x="140.0906" y="287.926605" style="fill: #4169e1; stroke: #4169e1"/>
     <use xlink:href="#m1b7f4ce145" x="331.241843" y="288.615545" style="fill: #4169e1; stroke: #4169e1"/>
     <use xlink:href="#m1b7f4ce145" x="436.968159" y="216.73419" style="fill: #4169e1; stroke: #4169e1"/>
     <use xlink:href="#m1b7f4ce145" x="198.963082" y="235.656561" style="fill: #4169e1; stroke: #4169e1"/>
     <use xlink:href="#m1b7f4ce145" x="440.676061" y="193.494791" style="fill: #4169e1; stroke: #4169e1"/>
     <use xlink:href="#m1b7f4ce145" x="397.798378" y="212.358447" style="fill: #4169e1; stroke: #4169e1"/>
     <use xlink:href="#m1b7f4ce145" x="374.092763" y="176.683772" style="fill: #4169e1; stroke: #4169e1"/>
     <use xlink:href="#m1b7f4ce145" x="190.251652" y="213.674137" style="fill: #4169e1; stroke: #4169e1"/>
     <use xlink:href="#m1b7f4ce145" x="412.383226" y="230.721983" style="fill: #4169e1; stroke: #4169e1"/>
     <use xlink:href="#m1b7f4ce145" x="417.580104" y="259.787641" style="fill: #4169e1; stroke: #4169e1"/>
     <use xlink:href="#m1b7f4ce145" x="359.692839" y="256.871032" style="fill: #4169e1; stroke: #4169e1"/>
     <use xlink:href="#m1b7f4ce145" x="320.822253" y="227.535133" style="fill: #4169e1; stroke: #4169e1"/>
     <use xlink:href="#m1b7f4ce145" x="297.848495" y="270.197158" style="fill: #4169e1; stroke: #4169e1"/>
     <use xlink:href="#m1b7f4ce145" x="376.267349" y="188.685804" style="fill: #4169e1; stroke: #4169e1"/>
     <use xlink:href="#m1b7f4ce145" x="479.346341" y="233.943687" style="fill: #4169e1; stroke: #4169e1"/>
     <use xlink:href="#m1b7f4ce145" x="274.847402" y="285.543179" style="fill: #4169e1; stroke: #4169e1"/>
     <use xlink:href="#m1b7f4ce145" x="160.007569" y="166.047619" style="fill: #4169e1; stroke: #4169e1"/>
     <use xlink:href="#m1b7f4ce145" x="243.431264" y="213.52262" style="fill: #4169e1; stroke: #4169e1"/>
     <use xlink:href="#m1b7f4ce145" x="367.692482" y="179.140419" style="fill: #4169e1; stroke: #4169e1"/>
     <use xlink:href="#m1b7f4ce145" x="350.084232" y="115.77767" style="fill: #4169e1; stroke: #4169e1"/>
     <use xlink:href="#m1b7f4ce145" x="309.32681" y="219.435316" style="fill: #4169e1; stroke: #4169e1"/>
     <use xlink:href="#m1b7f4ce145" x="240.246794" y="218.167797" style="fill: #4169e1; stroke: #4169e1"/>
     <use xlink:href="#m1b7f4ce145" x="330.070862" y="262.974034" style="fill: #4169e1; stroke: #4169e1"/>
     <use xlink:href="#m1b7f4ce145" x="324.613176" y="247.626331" style="fill: #4169e1; stroke: #4169e1"/>
     <use xlink:href="#m1b7f4ce145" x="310.20105" y="176.239923" style="fill: #4169e1; stroke: #4169e1"/>
     <use xlink:href="#m1b7f4ce145" x="387.132837" y="242.583081" style="fill: #4169e1; stroke: #4169e1"/>
     <use xlink:href="#m1b7f4ce145" x="223.731626" y="288.001861" style="fill: #4169e1; stroke: #4169e1"/>
     <use xlink:href="#m1b7f4ce145" x="302.997546" y="268.643681" style="fill: #4169e1; stroke: #4169e1"/>
     <use xlink:href="#m1b7f4ce145" x="455.227816" y="203.252368" style="fill: #4169e1; stroke: #4169e1"/>
     <use xlink:href="#m1b7f4ce145" x="363.217861" y="290.807123" style="fill: #4169e1; stroke: #4169e1"/>
     <use xlink:href="#m1b7f4ce145" x="218.251614" y="304.005816" style="fill: #4169e1; stroke: #4169e1"/>
     <use xlink:href="#m1b7f4ce145" x="372.829669" y="88.539494" style="fill: #4169e1; stroke: #4169e1"/>
     <use xlink:href="#m1b7f4ce145" x="313.457429" y="134.121989" style="fill: #4169e1; stroke: #4169e1"/>
     <use xlink:href="#m1b7f4ce145" x="355.86645" y="151.951329" style="fill: #4169e1; stroke: #4169e1"/>
     <use xlink:href="#m1b7f4ce145" x="313.709981" y="275.510485" style="fill: #4169e1; stroke: #4169e1"/>
     <use xlink:href="#m1b7f4ce145" x="267.768357" y="215.28837" style="fill: #4169e1; stroke: #4169e1"/>
     <use xlink:href="#m1b7f4ce145" x="331.097182" y="149.341162" style="fill: #4169e1; stroke: #4169e1"/>
     <use xlink:href="#m1b7f4ce145" x="305.964118" y="114.368146" style="fill: #4169e1; stroke: #4169e1"/>
     <use xlink:href="#m1b7f4ce145" x="302.425128" y="135.160372" style="fill: #4169e1; stroke: #4169e1"/>
     <use xlink:href="#m1b7f4ce145" x="312.096486" y="144.811142" style="fill: #4169e1; stroke: #4169e1"/>
     <use xlink:href="#m1b7f4ce145" x="321.710389" y="239.557318" style="fill: #4169e1; stroke: #4169e1"/>
     <use xlink:href="#m1b7f4ce145" x="373.637508" y="227.494836" style="fill: #4169e1; stroke: #4169e1"/>
     <use xlink:href="#m1b7f4ce145" x="413.916029" y="179.330213" style="fill: #4169e1; stroke: #4169e1"/>
     <use xlink:href="#m1b7f4ce145" x="327.218605" y="84.979572" style="fill: #4169e1; stroke: #4169e1"/>
     <use xlink:href="#m1b7f4ce145" x="481.789423" y="220.129906" style="fill: #4169e1; stroke: #4169e1"/>
     <use xlink:href="#m1b7f4ce145" x="164.570839" y="196.60742" style="fill: #4169e1; stroke: #4169e1"/>
     <use xlink:href="#m1b7f4ce145" x="423.254677" y="309.366306" style="fill: #4169e1; stroke: #4169e1"/>
     <use xlink:href="#m1b7f4ce145" x="256.626082" y="192.503788" style="fill: #4169e1; stroke: #4169e1"/>
     <use xlink:href="#m1b7f4ce145" x="196.089304" y="285.536618" style="fill: #4169e1; stroke: #4169e1"/>
     <use xlink:href="#m1b7f4ce145" x="413.149072" y="218.081464" style="fill: #4169e1; stroke: #4169e1"/>
     <use xlink:href="#m1b7f4ce145" x="270.876482" y="277.609544" style="fill: #4169e1; stroke: #4169e1"/>
     <use xlink:href="#m1b7f4ce145" x="399.013551" y="225.723348" style="fill: #4169e1; stroke: #4169e1"/>
     <use xlink:href="#m1b7f4ce145" x="332.47722" y="280.075514" style="fill: #4169e1; stroke: #4169e1"/>
     <use xlink:href="#m1b7f4ce145" x="337.552876" y="267.068019" style="fill: #4169e1; stroke: #4169e1"/>
     <use xlink:href="#m1b7f4ce145" x="424.555852" y="274.224154" style="fill: #4169e1; stroke: #4169e1"/>
     <use xlink:href="#m1b7f4ce145" x="255.57099" y="272.558092" style="fill: #4169e1; stroke: #4169e1"/>
     <use xlink:href="#m1b7f4ce145" x="381.471961" y="286.947905" style="fill: #4169e1; stroke: #4169e1"/>
     <use xlink:href="#m1b7f4ce145" x="254.891718" y="186.789657" style="fill: #4169e1; stroke: #4169e1"/>
     <use xlink:href="#m1b7f4ce145" x="461.47605" y="152.664476" style="fill: #4169e1; stroke: #4169e1"/>
     <use xlink:href="#m1b7f4ce145" x="226.157045" y="178.359928" style="fill: #4169e1; stroke: #4169e1"/>
     <use xlink:href="#m1b7f4ce145" x="274.479695" y="206.552038" style="fill: #4169e1; stroke: #4169e1"/>
     <use xlink:href="#m1b7f4ce145" x="411.529185" y="173.836191" style="fill: #4169e1; stroke: #4169e1"/>
     <use xlink:href="#m1b7f4ce145" x="237.497997" y="269.706431" style="fill: #4169e1; stroke: #4169e1"/>
     <use xlink:href="#m1b7f4ce145" x="331.724408" y="261.463182" style="fill: #4169e1; stroke: #4169e1"/>
     <use xlink:href="#m1b7f4ce145" x="322.149828" y="122.112509" style="fill: #4169e1; stroke: #4169e1"/>
     <use xlink:href="#m1b7f4ce145" x="422.880958" y="245.995409" style="fill: #4169e1; stroke: #4169e1"/>
     <use xlink:href="#m1b7f4ce145" x="428.514561" y="214.51351" style="fill: #4169e1; stroke: #4169e1"/>
     <use xlink:href="#m1b7f4ce145" x="401.984653" y="207.242206" style="fill: #4169e1; stroke: #4169e1"/>
     <use xlink:href="#m1b7f4ce145" x="300.581634" y="291.304676" style="fill: #4169e1; stroke: #4169e1"/>
     <use xlink:href="#m1b7f4ce145" x="421.030662" y="177.573874" style="fill: #4169e1; stroke: #4169e1"/>
    </g>
   </g>
   <g id="PathCollection_2">
    <defs>
     <path id="m13f451965b" d="M 0 2.5 
C 0.663008 2.5 1.29895 2.236584 1.767767 1.767767 
C 2.236584 1.29895 2.5 0.663008 2.5 0 
C 2.5 -0.663008 2.236584 -1.29895 1.767767 -1.767767 
C 1.29895 -2.236584 0.663008 -2.5 0 -2.5 
C -0.663008 -2.5 -1.29895 -2.236584 -1.767767 -1.767767 
C -2.236584 -1.29895 -2.5 -0.663008 -2.5 0 
C -2.5 0.663008 -2.236584 1.29895 -1.767767 1.767767 
C -1.29895 2.236584 -0.663008 2.5 0 2.5 
z
" style="stroke: #b22222"/>
    </defs>
    <g clip-path="url(#p287ba77c3c)">
     <use xlink:href="#m13f451965b" x="242.721054" y="244.157839" style="fill: #b22222; stroke: #b22222"/>
     <use xlink:href="#m13f451965b" x="233.304812" y="227.257433" style="fill: #b22222; stroke: #b22222"/>
     <use xlink:href="#m13f451965b" x="236.731853" y="234.361018" style="fill: #b22222; stroke: #b22222"/>
     <use xlink:href="#m13f451965b" x="241.651983" y="234.571027" style="fill: #b22222; stroke: #b22222"/>
     <use xlink:href="#m13f451965b" x="226.418659" y="228.140468" style="fill: #b22222; stroke: #b22222"/>
     <use xlink:href="#m13f451965b" x="232.977677" y="236.165354" style="fill: #b22222; stroke: #b22222"/>
     <use xlink:href="#m13f451965b" x="239.444061" y="236.555844" style="fill: #b22222; stroke: #b22222"/>
     <use xlink:href="#m13f451965b" x="251.936261" y="241.028477" style="fill: #b22222; stroke: #b22222"/>
     <use xlink:href="#m13f451965b" x="232.643065" y="233.40077" style="fill: #b22222; stroke: #b22222"/>
     <use xlink:href="#m13f451965b" x="230.959647" y="237.440357" style="fill: #b22222; stroke: #b22222"/>
     <use xlink:href="#m13f451965b" x="223.631984" y="222.907191" style="fill: #b22222; stroke: #b22222"/>
     <use xlink:href="#m13f451965b" x="228.936587" y="238.169457" style="fill: #b22222; stroke: #b22222"/>
     <use xlink:href="#m13f451965b" x="242.015345" y="239.032065" style="fill: #b22222; stroke: #b22222"/>
     <use xlink:href="#m13f451965b" x="243.026891" y="242.8833" style="fill: #b22222; stroke: #b22222"/>
     <use xlink:href="#m13f451965b" x="228.240555" y="236.344303" style="fill: #b22222; stroke: #b22222"/>
     <use xlink:href="#m13f451965b" x="230.62568" y="242.259837" style="fill: #b22222; stroke: #b22222"/>
     <use xlink:href="#m13f451965b" x="241.847282" y="243.767111" style="fill: #b22222; stroke: #b22222"/>
     <use xlink:href="#m13f451965b" x="223.509876" y="227.857914" style="fill: #b22222; stroke: #b22222"/>
     <use xlink:href="#m13f451965b" x="239.542387" y="231.567373" style="fill: #b22222; stroke: #b22222"/>
     <use xlink:href="#m13f451965b" x="249.753647" y="242.04997" style="fill: #b22222; stroke: #b22222"/>
     <use xlink:href="#m13f451965b" x="238.552368" y="242.423702" style="fill: #b22222; stroke: #b22222"/>
     <use xlink:href="#m13f451965b" x="244.400202" y="249.85811" style="fill: #b22222; stroke: #b22222"/>
     <use xlink:href="#m13f451965b" x="234.810862" y="225.57662" style="fill: #b22222; stroke: #b22222"/>
     <use xlink:href="#m13f451965b" x="238.222243" y="249.351388" style="fill: #b22222; stroke: #b22222"/>
     <use xlink:href="#m13f451965b" x="242.434742" y="251.584609" style="fill: #b22222; stroke: #b22222"/>
     <use xlink:href="#m13f451965b" x="345.189797" y="229.801575" style="fill: #b22222; stroke: #b22222"/>
     <use xlink:href="#m13f451965b" x="241.447345" y="248.150293" style="fill: #b22222; stroke: #b22222"/>
     <use xlink:href="#m13f451965b" x="237.581597" y="219.32847" style="fill: #b22222; stroke: #b22222"/>
     <use xlink:href="#m13f451965b" x="232.019544" y="244.728015" style="fill: #b22222; stroke: #b22222"/>
     <use xlink:href="#m13f451965b" x="238.856547" y="233.445671" style="fill: #b22222; stroke: #b22222"/>
     <use xlink:href="#m13f451965b" x="249.125532" y="254.203836" style="fill: #b22222; stroke: #b22222"/>
     <use xlink:href="#m13f451965b" x="256.319736" y="236.841093" style="fill: #b22222; stroke: #b22222"/>
     <use xlink:href="#m13f451965b" x="222.415457" y="237.230172" style="fill: #b22222; stroke: #b22222"/>
     <use xlink:href="#m13f451965b" x="235.894856" y="241.077557" style="fill: #b22222; stroke: #b22222"/>
     <use xlink:href="#m13f451965b" x="244.975991" y="249.580389" style="fill: #b22222; stroke: #b22222"/>
     <use xlink:href="#m13f451965b" x="231.362872" y="223.962202" style="fill: #b22222; stroke: #b22222"/>
     <use xlink:href="#m13f451965b" x="227.00084" y="234.784228" style="fill: #b22222; stroke: #b22222"/>
     <use xlink:href="#m13f451965b" x="240.165004" y="238.609924" style="fill: #b22222; stroke: #b22222"/>
     <use xlink:href="#m13f451965b" x="272.904007" y="253.226246" style="fill: #b22222; stroke: #b22222"/>
     <use xlink:href="#m13f451965b" x="240.791246" y="236.535106" style="fill: #b22222; stroke: #b22222"/>
     <use xlink:href="#m13f451965b" x="192.314843" y="227.036615" style="fill: #b22222; stroke: #b22222"/>
     <use xlink:href="#m13f451965b" x="239.319463" y="264.06762" style="fill: #b22222; stroke: #b22222"/>
     <use xlink:href="#m13f451965b" x="245.464472" y="216.493054" style="fill: #b22222; stroke: #b22222"/>
     <use xlink:href="#m13f451965b" x="243.028891" y="241.42442" style="fill: #b22222; stroke: #b22222"/>
     <use xlink:href="#m13f451965b" x="241.076161" y="239.384786" style="fill: #b22222; stroke: #b22222"/>
     <use xlink:href="#m13f451965b" x="342.36566" y="215.729562" style="fill: #b22222; stroke: #b22222"/>
     <use xlink:href="#m13f451965b" x="322.850266" y="226.257359" style="fill: #b22222; stroke: #b22222"/>
     <use xlink:href="#m13f451965b" x="236.98628" y="239.925761" style="fill: #b22222; stroke: #b22222"/>
     <use xlink:href="#m13f451965b" x="231.056653" y="227.138408" style="fill: #b22222; stroke: #b22222"/>
     <use xlink:href="#m13f451965b" x="276.690647" y="245.684435" style="fill: #b22222; stroke: #b22222"/>
     <use xlink:href="#m13f451965b" x="246.481432" y="251.287135" style="fill: #b22222; stroke: #b22222"/>
     <use xlink:href="#m13f451965b" x="230.580814" y="234.753952" style="fill: #b22222; stroke: #b22222"/>
     <use xlink:href="#m13f451965b" x="240.032143" y="235.147607" style="fill: #b22222; stroke: #b22222"/>
     <use xlink:href="#m13f451965b" x="224.433654" y="237.051963" style="fill: #b22222; stroke: #b22222"/>
     <use xlink:href="#m13f451965b" x="271.13798" y="230.044687" style="fill: #b22222; stroke: #b22222"/>
     <use xlink:href="#m13f451965b" x="264.05764" y="242.960091" style="fill: #b22222; stroke: #b22222"/>
     <use xlink:href="#m13f451965b" x="232.12769" y="239.928087" style="fill: #b22222; stroke: #b22222"/>
     <use xlink:href="#m13f451965b" x="228.207019" y="233.571783" style="fill: #b22222; stroke: #b22222"/>
     <use xlink:href="#m13f451965b" x="337.757954" y="187.428104" style="fill: #b22222; stroke: #b22222"/>
     <use xlink:href="#m13f451965b" x="235.401354" y="249.463848" style="fill: #b22222; stroke: #b22222"/>
     <use xlink:href="#m13f451965b" x="247.543644" y="246.084392" style="fill: #b22222; stroke: #b22222"/>
     <use xlink:href="#m13f451965b" x="334.671824" y="211.498105" style="fill: #b22222; stroke: #b22222"/>
     <use xlink:href="#m13f451965b" x="243.147006" y="240.09486" style="fill: #b22222; stroke: #b22222"/>
     <use xlink:href="#m13f451965b" x="276.984107" y="248.380438" style="fill: #b22222; stroke: #b22222"/>
     <use xlink:href="#m13f451965b" x="230.133203" y="224.464053" style="fill: #b22222; stroke: #b22222"/>
     <use xlink:href="#m13f451965b" x="253.726273" y="244.545299" style="fill: #b22222; stroke: #b22222"/>
     <use xlink:href="#m13f451965b" x="239.803958" y="241.110071" style="fill: #b22222; stroke: #b22222"/>
     <use xlink:href="#m13f451965b" x="340.471557" y="224.251556" style="fill: #b22222; stroke: #b22222"/>
     <use xlink:href="#m13f451965b" x="331.476576" y="174.494321" style="fill: #b22222; stroke: #b22222"/>
     <use xlink:href="#m13f451965b" x="242.266293" y="244.443133" style="fill: #b22222; stroke: #b22222"/>
     <use xlink:href="#m13f451965b" x="221.176656" y="229.046" style="fill: #b22222; stroke: #b22222"/>
     <use xlink:href="#m13f451965b" x="234.511133" y="241.319633" style="fill: #b22222; stroke: #b22222"/>
     <use xlink:href="#m13f451965b" x="243.115418" y="238.813952" style="fill: #b22222; stroke: #b22222"/>
     <use xlink:href="#m13f451965b" x="236.605546" y="230.797307" style="fill: #b22222; stroke: #b22222"/>
     <use xlink:href="#m13f451965b" x="236.890481" y="238.150769" style="fill: #b22222; stroke: #b22222"/>
    </g>
   </g>
   <g id="patch_4">
    <path d="M 56.450156 450.72 
L 56.450156 7.2 
" style="fill: none; stroke: #ffffff; stroke-width: 1.25; stroke-linejoin: miter; stroke-linecap: square"/>
   </g>
   <g id="patch_5">
    <path d="M 499.970156 450.72 
L 499.970156 7.2 
" style="fill: none; stroke: #ffffff; stroke-width: 1.25; stroke-linejoin: miter; stroke-linecap: square"/>
   </g>
   <g id="patch_6">
    <path d="M 56.450156 450.72 
L 499.970156 450.72 
" style="fill: none; stroke: #ffffff; stroke-width: 1.25; stroke-linejoin: miter; stroke-linecap: square"/>
   </g>
   <g id="patch_7">
    <path d="M 56.450156 7.2 
L 499.970156 7.2 
" style="fill: none; stroke: #ffffff; stroke-width: 1.25; stroke-linejoin: miter; stroke-linecap: square"/>
   </g>
   <g id="text_13">
    <!-- t = 400 -->
    <g style="fill: #262626" transform="translate(65.320556 24.659775) scale(0.12 -0.12)">
     <defs>
      <path id="ArialMT-74" d="M 1650 503 
L 1731 6 
Q 1494 -44 1306 -44 
Q 1000 -44 831 53 
Q 663 150 594 308 
Q 525 466 525 972 
L 525 2881 
L 113 2881 
L 113 3319 
L 525 3319 
L 525 4141 
L 1084 4478 
L 1084 3319 
L 1650 3319 
L 1650 2881 
L 1084 2881 
L 1084 941 
Q 1084 700 1114 631 
Q 1144 563 1211 522 
Q 1278 481 1403 481 
Q 1497 481 1650 503 
z
" transform="scale(0.015625)"/>
      <path id="ArialMT-20" transform="scale(0.015625)"/>
      <path id="ArialMT-3d" d="M 3381 2694 
L 356 2694 
L 356 3219 
L 3381 3219 
L 3381 2694 
z
M 3381 1303 
L 356 1303 
L 356 1828 
L 3381 1828 
L 3381 1303 
z
" transform="scale(0.015625)"/>
     </defs>
     <use xlink:href="#ArialMT-74"/>
     <use xlink:href="#ArialMT-20" x="27.783203"/>
     <use xlink:href="#ArialMT-3d" x="55.566406"/>
     <use xlink:href="#ArialMT-20" x="113.964844"/>
     <use xlink:href="#ArialMT-34" x="141.748047"/>
     <use xlink:href="#ArialMT-30" x="197.363281"/>
     <use xlink:href="#ArialMT-30" x="252.978516"/>
    </g>
   </g>
   <g id="legend_1">
    <g id="patch_8">
     <path d="M 328.111406 94.59 
L 483.170156 94.59 
Q 487.970156 94.59 487.970156 89.79 
L 487.970156 24 
Q 487.970156 19.2 483.170156 19.2 
L 328.111406 19.2 
Q 323.311406 19.2 323.311406 24 
L 323.311406 89.79 
Q 323.311406 94.59 328.111406 94.59 
z
" style="fill: #eaeaf2; opacity: 0.8; stroke: #cccccc; stroke-linejoin: miter"/>
    </g>
    <g id="PathCollection_3">
     <g>
      <use xlink:href="#m1b7f4ce145" x="356.911406" y="39.97125" style="fill: #4169e1; stroke: #4169e1"/>
     </g>
    </g>
    <g id="text_14">
     <!-- Sheep -->
     <g style="fill: #262626" transform="translate(400.111406 46.27125) scale(0.24 -0.24)">
      <defs>
       <path id="ArialMT-53" d="M 288 1472 
L 859 1522 
Q 900 1178 1048 958 
Q 1197 738 1509 602 
Q 1822 466 2213 466 
Q 2559 466 2825 569 
Q 3091 672 3220 851 
Q 3350 1031 3350 1244 
Q 3350 1459 3225 1620 
Q 3100 1781 2813 1891 
Q 2628 1963 1997 2114 
Q 1366 2266 1113 2400 
Q 784 2572 623 2826 
Q 463 3081 463 3397 
Q 463 3744 659 4045 
Q 856 4347 1234 4503 
Q 1613 4659 2075 4659 
Q 2584 4659 2973 4495 
Q 3363 4331 3572 4012 
Q 3781 3694 3797 3291 
L 3216 3247 
Q 3169 3681 2898 3903 
Q 2628 4125 2100 4125 
Q 1550 4125 1298 3923 
Q 1047 3722 1047 3438 
Q 1047 3191 1225 3031 
Q 1400 2872 2139 2705 
Q 2878 2538 3153 2413 
Q 3553 2228 3743 1945 
Q 3934 1663 3934 1294 
Q 3934 928 3725 604 
Q 3516 281 3123 101 
Q 2731 -78 2241 -78 
Q 1619 -78 1198 103 
Q 778 284 539 648 
Q 300 1013 288 1472 
z
" transform="scale(0.015625)"/>
       <path id="ArialMT-68" d="M 422 0 
L 422 4581 
L 984 4581 
L 984 2938 
Q 1378 3394 1978 3394 
Q 2347 3394 2619 3248 
Q 2891 3103 3008 2847 
Q 3125 2591 3125 2103 
L 3125 0 
L 2563 0 
L 2563 2103 
Q 2563 2525 2380 2717 
Q 2197 2909 1863 2909 
Q 1613 2909 1392 2779 
Q 1172 2650 1078 2428 
Q 984 2206 984 1816 
L 984 0 
L 422 0 
z
" transform="scale(0.015625)"/>
       <path id="ArialMT-65" d="M 2694 1069 
L 3275 997 
Q 3138 488 2766 206 
Q 2394 -75 1816 -75 
Q 1088 -75 661 373 
Q 234 822 234 1631 
Q 234 2469 665 2931 
Q 1097 3394 1784 3394 
Q 2450 3394 2872 2941 
Q 3294 2488 3294 1666 
Q 3294 1616 3291 1516 
L 816 1516 
Q 847 969 1125 678 
Q 1403 388 1819 388 
Q 2128 388 2347 550 
Q 2566 713 2694 1069 
z
M 847 1978 
L 2700 1978 
Q 2663 2397 2488 2606 
Q 2219 2931 1791 2931 
Q 1403 2931 1139 2672 
Q 875 2413 847 1978 
z
" transform="scale(0.015625)"/>
       <path id="ArialMT-70" d="M 422 -1272 
L 422 3319 
L 934 3319 
L 934 2888 
Q 1116 3141 1344 3267 
Q 1572 3394 1897 3394 
Q 2322 3394 2647 3175 
Q 2972 2956 3137 2557 
Q 3303 2159 3303 1684 
Q 3303 1175 3120 767 
Q 2938 359 2589 142 
Q 2241 -75 1856 -75 
Q 1575 -75 1351 44 
Q 1128 163 984 344 
L 984 -1272 
L 422 -1272 
z
M 931 1641 
Q 931 1000 1190 694 
Q 1450 388 1819 388 
Q 2194 388 2461 705 
Q 2728 1022 2728 1688 
Q 2728 2322 2467 2637 
Q 2206 2953 1844 2953 
Q 1484 2953 1207 2617 
Q 931 2281 931 1641 
z
" transform="scale(0.015625)"/>
      </defs>
      <use xlink:href="#ArialMT-53"/>
      <use xlink:href="#ArialMT-68" x="66.699219"/>
      <use xlink:href="#ArialMT-65" x="122.314453"/>
      <use xlink:href="#ArialMT-65" x="177.929688"/>
      <use xlink:href="#ArialMT-70" x="233.544922"/>
     </g>
    </g>
    <g id="PathCollection_4">
     <g>
      <use xlink:href="#m13f451965b" x="356.911406" y="73.92" style="fill: #b22222; stroke: #b22222"/>
     </g>
    </g>
    <g id="text_15">
     <!-- Wolves -->
     <g style="fill: #262626" transform="translate(400.111406 80.22) scale(0.24 -0.24)">
      <defs>
       <path id="ArialMT-57" d="M 1294 0 
L 78 4581 
L 700 4581 
L 1397 1578 
Q 1509 1106 1591 641 
Q 1766 1375 1797 1488 
L 2669 4581 
L 3400 4581 
L 4056 2263 
Q 4303 1400 4413 641 
Q 4500 1075 4641 1638 
L 5359 4581 
L 5969 4581 
L 4713 0 
L 4128 0 
L 3163 3491 
Q 3041 3928 3019 4028 
Q 2947 3713 2884 3491 
L 1913 0 
L 1294 0 
z
" transform="scale(0.015625)"/>
       <path id="ArialMT-6f" d="M 213 1659 
Q 213 2581 725 3025 
Q 1153 3394 1769 3394 
Q 2453 3394 2887 2945 
Q 3322 2497 3322 1706 
Q 3322 1066 3130 698 
Q 2938 331 2570 128 
Q 2203 -75 1769 -75 
Q 1072 -75 642 372 
Q 213 819 213 1659 
z
M 791 1659 
Q 791 1022 1069 705 
Q 1347 388 1769 388 
Q 2188 388 2466 706 
Q 2744 1025 2744 1678 
Q 2744 2294 2464 2611 
Q 2184 2928 1769 2928 
Q 1347 2928 1069 2612 
Q 791 2297 791 1659 
z
" transform="scale(0.015625)"/>
       <path id="ArialMT-6c" d="M 409 0 
L 409 4581 
L 972 4581 
L 972 0 
L 409 0 
z
" transform="scale(0.015625)"/>
       <path id="ArialMT-76" d="M 1344 0 
L 81 3319 
L 675 3319 
L 1388 1331 
Q 1503 1009 1600 663 
Q 1675 925 1809 1294 
L 2547 3319 
L 3125 3319 
L 1869 0 
L 1344 0 
z
" transform="scale(0.015625)"/>
       <path id="ArialMT-73" d="M 197 991 
L 753 1078 
Q 800 744 1014 566 
Q 1228 388 1613 388 
Q 2000 388 2187 545 
Q 2375 703 2375 916 
Q 2375 1106 2209 1216 
Q 2094 1291 1634 1406 
Q 1016 1563 777 1677 
Q 538 1791 414 1992 
Q 291 2194 291 2438 
Q 291 2659 392 2848 
Q 494 3038 669 3163 
Q 800 3259 1026 3326 
Q 1253 3394 1513 3394 
Q 1903 3394 2198 3281 
Q 2494 3169 2634 2976 
Q 2775 2784 2828 2463 
L 2278 2388 
Q 2241 2644 2061 2787 
Q 1881 2931 1553 2931 
Q 1166 2931 1000 2803 
Q 834 2675 834 2503 
Q 834 2394 903 2306 
Q 972 2216 1119 2156 
Q 1203 2125 1616 2013 
Q 2213 1853 2448 1751 
Q 2684 1650 2818 1456 
Q 2953 1263 2953 975 
Q 2953 694 2789 445 
Q 2625 197 2315 61 
Q 2006 -75 1616 -75 
Q 969 -75 630 194 
Q 291 463 197 991 
z
" transform="scale(0.015625)"/>
      </defs>
      <use xlink:href="#ArialMT-57"/>
      <use xlink:href="#ArialMT-6f" x="92.634766"/>
      <use xlink:href="#ArialMT-6c" x="148.25"/>
      <use xlink:href="#ArialMT-76" x="170.466797"/>
      <use xlink:href="#ArialMT-65" x="220.466797"/>
      <use xlink:href="#ArialMT-73" x="276.082031"/>
     </g>
    </g>
   </g>
  </g>
 </g>
 <defs>
  <clipPath id="p287ba77c3c">
   <rect x="56.450156" y="7.2" width="443.52" height="443.52"/>
  </clipPath>
 </defs>
</svg>
