<?xml version="1.0" encoding="utf-8" standalone="no"?>
<!DOCTYPE svg PUBLIC "-//W3C//DTD SVG 1.1//EN"
  "http://www.w3.org/Graphics/SVG/1.1/DTD/svg11.dtd">
<svg xmlns:xlink="http://www.w3.org/1999/xlink" width="507.170156pt" height="492.454219pt" viewBox="0 0 507.170156 492.454219" xmlns="http://www.w3.org/2000/svg" version="1.1">
 <metadata>
  <rdf:RDF xmlns:dc="http://purl.org/dc/elements/1.1/" xmlns:cc="http://creativecommons.org/ns#" xmlns:rdf="http://www.w3.org/1999/02/22-rdf-syntax-ns#">
   <cc:Work>
    <dc:type rdf:resource="http://purl.org/dc/dcmitype/StillImage"/>
    <dc:date>2026-05-12T10:43:20.785994</dc:date>
    <dc:format>image/svg+xml</dc:format>
    <dc:creator>
     <cc:Agent>
      <dc:title>Matplotlib v3.7.1, https://matplotlib.org/</dc:title>
     </cc:Agent>
    </dc:creator>
   </cc:Work>
  </rdf:RDF>
 </metadata>
 <defs>
  <style type="text/css">*{stroke-linejoin: round; stroke-linecap: butt}</style>
 </defs>
 <g id="figure_1">
  <g id="patch_1">
   <path d="M 0 492.454219 
L 507.170156 492.454219 
L 507.170156 0 
L 0 0 
z
" style="fill: #ffffff"/>
  </g>
  <g id="axes_1">
   <g id="patch_2">
    <path d="M 56.450156 450.72 
L 499.970156 450.72 
L 499.970156 7.2 
L 56.450156 7.2 
z
" style="fill: #eaeaf2"/>
   </g>
   <g id="matplotlib.axis_1">
    <g id="xtick_1">
     <g id="line2d_1">
      <path d="M 100.802156 450.72 
L 100.802156 7.2 
" clip-path="url(#pefcf196ba7)" style="fill: none; stroke: #ffffff; stroke-linecap: round"/>
     </g>
     <g id="text_1">
      <!-- −400 -->
      <g style="fill: #262626" transform="translate(88.414266 468.093594) scale(0.11 -0.11)">
       <defs>
        <path id="ArialMT-2212" d="M 3381 1997 
L 356 1997 
L 356 2522 
L 3381 2522 
L 3381 1997 
z
" transform="scale(0.015625)"/>
        <path id="ArialMT-34" d="M 2069 0 
L 2069 1097 
L 81 1097 
L 81 1613 
L 2172 4581 
L 2631 4581 
L 2631 1613 
L 3250 1613 
L 3250 1097 
L 2631 1097 
L 2631 0 
L 2069 0 
z
M 2069 1613 
L 2069 3678 
L 634 1613 
L 2069 1613 
z
" transform="scale(0.015625)"/>
        <path id="ArialMT-30" d="M 266 2259 
Q 266 3072 433 3567 
Q 600 4063 929 4331 
Q 1259 4600 1759 4600 
Q 2128 4600 2406 4451 
Q 2684 4303 2865 4023 
Q 3047 3744 3150 3342 
Q 3253 2941 3253 2259 
Q 3253 1453 3087 958 
Q 2922 463 2592 192 
Q 2263 -78 1759 -78 
Q 1097 -78 719 397 
Q 266 969 266 2259 
z
M 844 2259 
Q 844 1131 1108 757 
Q 1372 384 1759 384 
Q 2147 384 2411 759 
Q 2675 1134 2675 2259 
Q 2675 3391 2411 3762 
Q 2147 4134 1753 4134 
Q 1366 4134 1134 3806 
Q 844 3388 844 2259 
z
" transform="scale(0.015625)"/>
       </defs>
       <use xlink:href="#ArialMT-2212"/>
       <use xlink:href="#ArialMT-34" x="58.398438"/>
       <use xlink:href="#ArialMT-30" x="114.013672"/>
       <use xlink:href="#ArialMT-30" x="169.628906"/>
      </g>
     </g>
    </g>
    <g id="xtick_2">
     <g id="line2d_2">
      <path d="M 189.506156 450.72 
L 189.506156 7.2 
" clip-path="url(#pefcf196ba7)" style="fill: none; stroke: #ffffff; stroke-linecap: round"/>
     </g>
     <g id="text_2">
      <!-- −200 -->
      <g style="fill: #262626" transform="translate(177.118266 468.093594) scale(0.11 -0.11)">
       <defs>
        <path id="ArialMT-32" d="M 3222 541 
L 3222 0 
L 194 0 
Q 188 203 259 391 
Q 375 700 629 1000 
Q 884 1300 1366 1694 
Q 2113 2306 2375 2664 
Q 2638 3022 2638 3341 
Q 2638 3675 2398 3904 
Q 2159 4134 1775 4134 
Q 1369 4134 1125 3890 
Q 881 3647 878 3216 
L 300 3275 
Q 359 3922 746 4261 
Q 1134 4600 1788 4600 
Q 2447 4600 2831 4234 
Q 3216 3869 3216 3328 
Q 3216 3053 3103 2787 
Q 2991 2522 2730 2228 
Q 2469 1934 1863 1422 
Q 1356 997 1212 845 
Q 1069 694 975 541 
L 3222 541 
z
" transform="scale(0.015625)"/>
       </defs>
       <use xlink:href="#ArialMT-2212"/>
       <use xlink:href="#ArialMT-32" x="58.398438"/>
       <use xlink:href="#ArialMT-30" x="114.013672"/>
       <use xlink:href="#ArialMT-30" x="169.628906"/>
      </g>
     </g>
    </g>
    <g id="xtick_3">
     <g id="line2d_3">
      <path d="M 278.210156 450.72 
L 278.210156 7.2 
" clip-path="url(#pefcf196ba7)" style="fill: none; stroke: #ffffff; stroke-linecap: round"/>
     </g>
     <g id="text_3">
      <!-- 0 -->
      <g style="fill: #262626" transform="translate(275.151641 468.093594) scale(0.11 -0.11)">
       <use xlink:href="#ArialMT-30"/>
      </g>
     </g>
    </g>
    <g id="xtick_4">
     <g id="line2d_4">
      <path d="M 366.914156 450.72 
L 366.914156 7.2 
" clip-path="url(#pefcf196ba7)" style="fill: none; stroke: #ffffff; stroke-linecap: round"/>
     </g>
     <g id="text_4">
      <!-- 200 -->
      <g style="fill: #262626" transform="translate(357.738609 468.093594) scale(0.11 -0.11)">
       <use xlink:href="#ArialMT-32"/>
       <use xlink:href="#ArialMT-30" x="55.615234"/>
       <use xlink:href="#ArialMT-30" x="111.230469"/>
      </g>
     </g>
    </g>
    <g id="xtick_5">
     <g id="line2d_5">
      <path d="M 455.618156 450.72 
L 455.618156 7.2 
" clip-path="url(#pefcf196ba7)" style="fill: none; stroke: #ffffff; stroke-linecap: round"/>
     </g>
     <g id="text_5">
      <!-- 400 -->
      <g style="fill: #262626" transform="translate(446.442609 468.093594) scale(0.11 -0.11)">
       <use xlink:href="#ArialMT-34"/>
       <use xlink:href="#ArialMT-30" x="55.615234"/>
       <use xlink:href="#ArialMT-30" x="111.230469"/>
      </g>
     </g>
    </g>
    <g id="text_6">
     <!-- x -->
     <g style="fill: #262626" transform="translate(275.210156 482.869219) scale(0.12 -0.12)">
      <defs>
       <path id="ArialMT-78" d="M 47 0 
L 1259 1725 
L 138 3319 
L 841 3319 
L 1350 2541 
Q 1494 2319 1581 2169 
Q 1719 2375 1834 2534 
L 2394 3319 
L 3066 3319 
L 1919 1756 
L 3153 0 
L 2463 0 
L 1781 1031 
L 1600 1309 
L 728 0 
L 47 0 
z
" transform="scale(0.015625)"/>
      </defs>
      <use xlink:href="#ArialMT-78"/>
     </g>
    </g>
   </g>
   <g id="matplotlib.axis_2">
    <g id="ytick_1">
     <g id="line2d_6">
      <path d="M 56.450156 406.368 
L 499.970156 406.368 
" clip-path="url(#pefcf196ba7)" style="fill: none; stroke: #ffffff; stroke-linecap: round"/>
     </g>
     <g id="text_7">
      <!-- −400 -->
      <g style="fill: #262626" transform="translate(22.174375 410.304797) scale(0.11 -0.11)">
       <use xlink:href="#ArialMT-2212"/>
       <use xlink:href="#ArialMT-34" x="58.398438"/>
       <use xlink:href="#ArialMT-30" x="114.013672"/>
       <use xlink:href="#ArialMT-30" x="169.628906"/>
      </g>
     </g>
    </g>
    <g id="ytick_2">
     <g id="line2d_7">
      <path d="M 56.450156 317.664 
L 499.970156 317.664 
" clip-path="url(#pefcf196ba7)" style="fill: none; stroke: #ffffff; stroke-linecap: round"/>
     </g>
     <g id="text_8">
      <!-- −200 -->
      <g style="fill: #262626" transform="translate(22.174375 321.600797) scale(0.11 -0.11)">
       <use xlink:href="#ArialMT-2212"/>
       <use xlink:href="#ArialMT-32" x="58.398438"/>
       <use xlink:href="#ArialMT-30" x="114.013672"/>
       <use xlink:href="#ArialMT-30" x="169.628906"/>
      </g>
     </g>
    </g>
    <g id="ytick_3">
     <g id="line2d_8">
      <path d="M 56.450156 228.96 
L 499.970156 228.96 
" clip-path="url(#pefcf196ba7)" style="fill: none; stroke: #ffffff; stroke-linecap: round"/>
     </g>
     <g id="text_9">
      <!-- 0 -->
      <g style="fill: #262626" transform="translate(40.833125 232.896797) scale(0.11 -0.11)">
       <use xlink:href="#ArialMT-30"/>
      </g>
     </g>
    </g>
    <g id="ytick_4">
     <g id="line2d_9">
      <path d="M 56.450156 140.256 
L 499.970156 140.256 
" clip-path="url(#pefcf196ba7)" style="fill: none; stroke: #ffffff; stroke-linecap: round"/>
     </g>
     <g id="text_10">
      <!-- 200 -->
      <g style="fill: #262626" transform="translate(28.599063 144.192797) scale(0.11 -0.11)">
       <use xlink:href="#ArialMT-32"/>
       <use xlink:href="#ArialMT-30" x="55.615234"/>
       <use xlink:href="#ArialMT-30" x="111.230469"/>
      </g>
     </g>
    </g>
    <g id="ytick_5">
     <g id="line2d_10">
      <path d="M 56.450156 51.552 
L 499.970156 51.552 
" clip-path="url(#pefcf196ba7)" style="fill: none; stroke: #ffffff; stroke-linecap: round"/>
     </g>
     <g id="text_11">
      <!-- 400 -->
      <g style="fill: #262626" transform="translate(28.599063 55.488797) scale(0.11 -0.11)">
       <use xlink:href="#ArialMT-34"/>
       <use xlink:href="#ArialMT-30" x="55.615234"/>
       <use xlink:href="#ArialMT-30" x="111.230469"/>
      </g>
     </g>
    </g>
    <g id="text_12">
     <!-- y -->
     <g style="fill: #262626" transform="translate(15.64875 231.96) rotate(-90) scale(0.12 -0.12)">
      <defs>
       <path id="ArialMT-79" d="M 397 -1278 
L 334 -750 
Q 519 -800 656 -800 
Q 844 -800 956 -737 
Q 1069 -675 1141 -563 
Q 1194 -478 1313 -144 
Q 1328 -97 1363 -6 
L 103 3319 
L 709 3319 
L 1400 1397 
Q 1534 1031 1641 628 
Q 1738 1016 1872 1384 
L 2581 3319 
L 3144 3319 
L 1881 -56 
Q 1678 -603 1566 -809 
Q 1416 -1088 1222 -1217 
Q 1028 -1347 759 -1347 
Q 597 -1347 397 -1278 
z
" transform="scale(0.015625)"/>
      </defs>
      <use xlink:href="#ArialMT-79"/>
     </g>
    </g>
   </g>
   <g id="patch_3">
    <path d="M 278.210156 317.664 
C 301.734732 317.664 324.298969 308.317587 340.933356 291.6832 
C 357.567743 275.048813 366.914156 252.484576 366.914156 228.96 
C 366.914156 205.435424 357.567743 182.871187 340.933356 166.2368 
C 324.298969 149.602413 301.734732 140.256 278.210156 140.256 
C 254.68558 140.256 232.121343 149.602413 215.486956 166.2368 
C 198.852569 182.871187 189.506156 205.435424 189.506156 228.96 
C 189.506156 252.484576 198.852569 275.048813 215.486956 291.6832 
C 232.121343 308.317587 254.68558 317.664 278.210156 317.664 
z
" clip-path="url(#pefcf196ba7)" style="fill: #228b22; opacity: 0.12; stroke: #228b22; stroke-width: 1.5; stroke-linejoin: miter"/>
   </g>
   <g id="PathCollection_1">
    <defs>
     <path id="m5362926d35" d="M 0 2.236068 
C 0.593012 2.236068 1.161816 2.000462 1.581139 1.581139 
C 2.000462 1.161816 2.236068 0.593012 2.236068 0 
C 2.236068 -0.593012 2.000462 -1.161816 1.581139 -1.581139 
C 1.161816 -2.000462 0.593012 -2.236068 0 -2.236068 
C -0.593012 -2.236068 -1.161816 -2.000462 -1.581139 -1.581139 
C -2.000462 -1.161816 -2.236068 -0.593012 -2.236068 0 
C -2.236068 0.593012 -2.000462 1.161816 -1.581139 1.581139 
C -1.161816 2.000462 -0.593012 2.236068 0 2.236068 
z
" style="stroke: #4169e1"/>
    </defs>
    <g clip-path="url(#pefcf196ba7)">
     <use xlink:href="#m5362926d35" x="213.922773" y="201.417661" style="fill: #4169e1; stroke: #4169e1"/>
     <use xlink:href="#m5362926d35" x="226.055376" y="75.062242" style="fill: #4169e1; stroke: #4169e1"/>
     <use xlink:href="#m5362926d35" x="269.743864" y="119.897907" style="fill: #4169e1; stroke: #4169e1"/>
     <use xlink:href="#m5362926d35" x="400.180362" y="225.892277" style="fill: #4169e1; stroke: #4169e1"/>
     <use xlink:href="#m5362926d35" x="373.965986" y="201.920128" style="fill: #4169e1; stroke: #4169e1"/>
     <use xlink:href="#m5362926d35" x="275.832372" y="273.35467" style="fill: #4169e1; stroke: #4169e1"/>
     <use xlink:href="#m5362926d35" x="290.073296" y="104.864531" style="fill: #4169e1; stroke: #4169e1"/>
     <use xlink:href="#m5362926d35" x="286.329813" y="129.782577" style="fill: #4169e1; stroke: #4169e1"/>
     <use xlink:href="#m5362926d35" x="251.700137" y="270.143423" style="fill: #4169e1; stroke: #4169e1"/>
     <use xlink:href="#m5362926d35" x="372.335365" y="122.605757" style="fill: #4169e1; stroke: #4169e1"/>
     <use xlink:href="#m5362926d35" x="290.21204" y="81.398806" style="fill: #4169e1; stroke: #4169e1"/>
     <use xlink:href="#m5362926d35" x="217.900485" y="205.219373" style="fill: #4169e1; stroke: #4169e1"/>
     <use xlink:href="#m5362926d35" x="228.637355" y="244.981454" style="fill: #4169e1; stroke: #4169e1"/>
     <use xlink:href="#m5362926d35" x="232.380902" y="217.541447" style="fill: #4169e1; stroke: #4169e1"/>
     <use xlink:href="#m5362926d35" x="212.879835" y="199.970003" style="fill: #4169e1; stroke: #4169e1"/>
     <use xlink:href="#m5362926d35" x="332.901706" y="226.379721" style="fill: #4169e1; stroke: #4169e1"/>
     <use xlink:href="#m5362926d35" x="390.374284" y="238.676117" style="fill: #4169e1; stroke: #4169e1"/>
     <use xlink:href="#m5362926d35" x="309.883765" y="179.595949" style="fill: #4169e1; stroke: #4169e1"/>
     <use xlink:href="#m5362926d35" x="402.550842" y="274.015077" style="fill: #4169e1; stroke: #4169e1"/>
     <use xlink:href="#m5362926d35" x="399.850511" y="182.243824" style="fill: #4169e1; stroke: #4169e1"/>
     <use xlink:href="#m5362926d35" x="226.525773" y="135.350318" style="fill: #4169e1; stroke: #4169e1"/>
     <use xlink:href="#m5362926d35" x="210.103971" y="299.33773" style="fill: #4169e1; stroke: #4169e1"/>
     <use xlink:href="#m5362926d35" x="209.189062" y="126.829531" style="fill: #4169e1; stroke: #4169e1"/>
     <use xlink:href="#m5362926d35" x="355.374684" y="297.461514" style="fill: #4169e1; stroke: #4169e1"/>
     <use xlink:href="#m5362926d35" x="203.007996" y="228.740026" style="fill: #4169e1; stroke: #4169e1"/>
     <use xlink:href="#m5362926d35" x="212.911737" y="291.189058" style="fill: #4169e1; stroke: #4169e1"/>
     <use xlink:href="#m5362926d35" x="203.498598" y="324.366718" style="fill: #4169e1; stroke: #4169e1"/>
     <use xlink:href="#m5362926d35" x="248.00144" y="277.386766" style="fill: #4169e1; stroke: #4169e1"/>
     <use xlink:href="#m5362926d35" x="292.234544" y="182.042269" style="fill: #4169e1; stroke: #4169e1"/>
     <use xlink:href="#m5362926d35" x="432.957192" y="116.519112" style="fill: #4169e1; stroke: #4169e1"/>
     <use xlink:href="#m5362926d35" x="230.437416" y="186.813912" style="fill: #4169e1; stroke: #4169e1"/>
     <use xlink:href="#m5362926d35" x="304.63464" y="188.997871" style="fill: #4169e1; stroke: #4169e1"/>
     <use xlink:href="#m5362926d35" x="382.533672" y="226.592922" style="fill: #4169e1; stroke: #4169e1"/>
     <use xlink:href="#m5362926d35" x="180.990797" y="220.784632" style="fill: #4169e1; stroke: #4169e1"/>
     <use xlink:href="#m5362926d35" x="253.665741" y="201.618066" style="fill: #4169e1; stroke: #4169e1"/>
     <use xlink:href="#m5362926d35" x="267.871368" y="173.081515" style="fill: #4169e1; stroke: #4169e1"/>
     <use xlink:href="#m5362926d35" x="313.83732" y="231.736586" style="fill: #4169e1; stroke: #4169e1"/>
     <use xlink:href="#m5362926d35" x="243.044981" y="245.597489" style="fill: #4169e1; stroke: #4169e1"/>
     <use xlink:href="#m5362926d35" x="281.061977" y="187.550306" style="fill: #4169e1; stroke: #4169e1"/>
     <use xlink:href="#m5362926d35" x="327.124035" y="164.929785" style="fill: #4169e1; stroke: #4169e1"/>
     <use xlink:href="#m5362926d35" x="370.663022" y="305.472194" style="fill: #4169e1; stroke: #4169e1"/>
     <use xlink:href="#m5362926d35" x="237.576088" y="312.358808" style="fill: #4169e1; stroke: #4169e1"/>
     <use xlink:href="#m5362926d35" x="219.31097" y="232.88045" style="fill: #4169e1; stroke: #4169e1"/>
     <use xlink:href="#m5362926d35" x="242.769693" y="210.509628" style="fill: #4169e1; stroke: #4169e1"/>
     <use xlink:href="#m5362926d35" x="249.938179" y="192.333532" style="fill: #4169e1; stroke: #4169e1"/>
     <use xlink:href="#m5362926d35" x="225.40624" y="180.443622" style="fill: #4169e1; stroke: #4169e1"/>
     <use xlink:href="#m5362926d35" x="305.334312" y="190.143314" style="fill: #4169e1; stroke: #4169e1"/>
     <use xlink:href="#m5362926d35" x="300.908524" y="229.794463" style="fill: #4169e1; stroke: #4169e1"/>
     <use xlink:href="#m5362926d35" x="296.263612" y="103.922538" style="fill: #4169e1; stroke: #4169e1"/>
     <use xlink:href="#m5362926d35" x="266.248609" y="196.497234" style="fill: #4169e1; stroke: #4169e1"/>
     <use xlink:href="#m5362926d35" x="229.370548" y="196.298325" style="fill: #4169e1; stroke: #4169e1"/>
     <use xlink:href="#m5362926d35" x="243.743747" y="296.530918" style="fill: #4169e1; stroke: #4169e1"/>
     <use xlink:href="#m5362926d35" x="278.370522" y="279.105896" style="fill: #4169e1; stroke: #4169e1"/>
     <use xlink:href="#m5362926d35" x="327.22941" y="241.956082" style="fill: #4169e1; stroke: #4169e1"/>
     <use xlink:href="#m5362926d35" x="274.452675" y="272.665009" style="fill: #4169e1; stroke: #4169e1"/>
     <use xlink:href="#m5362926d35" x="363.313805" y="178.843502" style="fill: #4169e1; stroke: #4169e1"/>
     <use xlink:href="#m5362926d35" x="355.043784" y="191.068675" style="fill: #4169e1; stroke: #4169e1"/>
     <use xlink:href="#m5362926d35" x="239.787715" y="256.240644" style="fill: #4169e1; stroke: #4169e1"/>
     <use xlink:href="#m5362926d35" x="329.101217" y="341.864535" style="fill: #4169e1; stroke: #4169e1"/>
     <use xlink:href="#m5362926d35" x="338.350747" y="200.295913" style="fill: #4169e1; stroke: #4169e1"/>
     <use xlink:href="#m5362926d35" x="194.393593" y="303.381602" style="fill: #4169e1; stroke: #4169e1"/>
     <use xlink:href="#m5362926d35" x="247.793723" y="245.057661" style="fill: #4169e1; stroke: #4169e1"/>
     <use xlink:href="#m5362926d35" x="203.075171" y="104.089047" style="fill: #4169e1; stroke: #4169e1"/>
     <use xlink:href="#m5362926d35" x="349.980925" y="352.780354" style="fill: #4169e1; stroke: #4169e1"/>
     <use xlink:href="#m5362926d35" x="327.350428" y="136.4284" style="fill: #4169e1; stroke: #4169e1"/>
     <use xlink:href="#m5362926d35" x="369.662321" y="232.217456" style="fill: #4169e1; stroke: #4169e1"/>
     <use xlink:href="#m5362926d35" x="276.726129" y="159.069278" style="fill: #4169e1; stroke: #4169e1"/>
     <use xlink:href="#m5362926d35" x="443.278249" y="142.943229" style="fill: #4169e1; stroke: #4169e1"/>
     <use xlink:href="#m5362926d35" x="235.476423" y="119.050917" style="fill: #4169e1; stroke: #4169e1"/>
     <use xlink:href="#m5362926d35" x="416.172312" y="266.198291" style="fill: #4169e1; stroke: #4169e1"/>
     <use xlink:href="#m5362926d35" x="378.374197" y="153.885733" style="fill: #4169e1; stroke: #4169e1"/>
     <use xlink:href="#m5362926d35" x="196.335725" y="278.163832" style="fill: #4169e1; stroke: #4169e1"/>
     <use xlink:href="#m5362926d35" x="214.466527" y="133.907118" style="fill: #4169e1; stroke: #4169e1"/>
     <use xlink:href="#m5362926d35" x="405.542829" y="283.640519" style="fill: #4169e1; stroke: #4169e1"/>
     <use xlink:href="#m5362926d35" x="257.844954" y="270.132179" style="fill: #4169e1; stroke: #4169e1"/>
     <use xlink:href="#m5362926d35" x="279.720267" y="55.055792" style="fill: #4169e1; stroke: #4169e1"/>
     <use xlink:href="#m5362926d35" x="290.25056" y="116.779231" style="fill: #4169e1; stroke: #4169e1"/>
     <use xlink:href="#m5362926d35" x="292.993166" y="97.33786" style="fill: #4169e1; stroke: #4169e1"/>
     <use xlink:href="#m5362926d35" x="322.189767" y="303.515681" style="fill: #4169e1; stroke: #4169e1"/>
     <use xlink:href="#m5362926d35" x="252.734243" y="168.823132" style="fill: #4169e1; stroke: #4169e1"/>
     <use xlink:href="#m5362926d35" x="260.253318" y="229.791058" style="fill: #4169e1; stroke: #4169e1"/>
     <use xlink:href="#m5362926d35" x="288.898788" y="270.3739" style="fill: #4169e1; stroke: #4169e1"/>
     <use xlink:href="#m5362926d35" x="284.435855" y="287.116763" style="fill: #4169e1; stroke: #4169e1"/>
     <use xlink:href="#m5362926d35" x="349.584839" y="336.598492" style="fill: #4169e1; stroke: #4169e1"/>
     <use xlink:href="#m5362926d35" x="356.891603" y="328.61899" style="fill: #4169e1; stroke: #4169e1"/>
     <use xlink:href="#m5362926d35" x="274.13232" y="304.92798" style="fill: #4169e1; stroke: #4169e1"/>
     <use xlink:href="#m5362926d35" x="326.830045" y="251.304261" style="fill: #4169e1; stroke: #4169e1"/>
     <use xlink:href="#m5362926d35" x="421.444431" y="205.066642" style="fill: #4169e1; stroke: #4169e1"/>
     <use xlink:href="#m5362926d35" x="182.362856" y="222.666695" style="fill: #4169e1; stroke: #4169e1"/>
     <use xlink:href="#m5362926d35" x="344.221871" y="227.875689" style="fill: #4169e1; stroke: #4169e1"/>
     <use xlink:href="#m5362926d35" x="208.887877" y="248.749678" style="fill: #4169e1; stroke: #4169e1"/>
     <use xlink:href="#m5362926d35" x="462.919453" y="153.197714" style="fill: #4169e1; stroke: #4169e1"/>
     <use xlink:href="#m5362926d35" x="359.174632" y="286.21949" style="fill: #4169e1; stroke: #4169e1"/>
     <use xlink:href="#m5362926d35" x="184.203725" y="202.270662" style="fill: #4169e1; stroke: #4169e1"/>
     <use xlink:href="#m5362926d35" x="356.708662" y="322.445849" style="fill: #4169e1; stroke: #4169e1"/>
     <use xlink:href="#m5362926d35" x="239.578871" y="184.451314" style="fill: #4169e1; stroke: #4169e1"/>
     <use xlink:href="#m5362926d35" x="344.271234" y="231.855306" style="fill: #4169e1; stroke: #4169e1"/>
     <use xlink:href="#m5362926d35" x="347.667286" y="161.215447" style="fill: #4169e1; stroke: #4169e1"/>
     <use xlink:href="#m5362926d35" x="370.745154" y="231.343962" style="fill: #4169e1; stroke: #4169e1"/>
     <use xlink:href="#m5362926d35" x="235.355503" y="207.611052" style="fill: #4169e1; stroke: #4169e1"/>
     <use xlink:href="#m5362926d35" x="377.534625" y="173.198689" style="fill: #4169e1; stroke: #4169e1"/>
     <use xlink:href="#m5362926d35" x="386.242244" y="256.660586" style="fill: #4169e1; stroke: #4169e1"/>
     <use xlink:href="#m5362926d35" x="200.844861" y="182.242704" style="fill: #4169e1; stroke: #4169e1"/>
     <use xlink:href="#m5362926d35" x="383.049775" y="233.581086" style="fill: #4169e1; stroke: #4169e1"/>
     <use xlink:href="#m5362926d35" x="292.40855" y="228.229564" style="fill: #4169e1; stroke: #4169e1"/>
     <use xlink:href="#m5362926d35" x="335.721725" y="312.882821" style="fill: #4169e1; stroke: #4169e1"/>
     <use xlink:href="#m5362926d35" x="438.429171" y="292.915759" style="fill: #4169e1; stroke: #4169e1"/>
     <use xlink:href="#m5362926d35" x="272.985165" y="185.672743" style="fill: #4169e1; stroke: #4169e1"/>
     <use xlink:href="#m5362926d35" x="338.198307" y="87.876028" style="fill: #4169e1; stroke: #4169e1"/>
     <use xlink:href="#m5362926d35" x="195.863897" y="266.520177" style="fill: #4169e1; stroke: #4169e1"/>
     <use xlink:href="#m5362926d35" x="432.130708" y="201.396499" style="fill: #4169e1; stroke: #4169e1"/>
     <use xlink:href="#m5362926d35" x="441.721246" y="182.761497" style="fill: #4169e1; stroke: #4169e1"/>
     <use xlink:href="#m5362926d35" x="302.266579" y="246.438546" style="fill: #4169e1; stroke: #4169e1"/>
     <use xlink:href="#m5362926d35" x="324.635857" y="261.368937" style="fill: #4169e1; stroke: #4169e1"/>
     <use xlink:href="#m5362926d35" x="254.5802" y="347.233444" style="fill: #4169e1; stroke: #4169e1"/>
     <use xlink:href="#m5362926d35" x="325.910747" y="315.685614" style="fill: #4169e1; stroke: #4169e1"/>
     <use xlink:href="#m5362926d35" x="247.909391" y="146.866597" style="fill: #4169e1; stroke: #4169e1"/>
     <use xlink:href="#m5362926d35" x="447.006075" y="213.32525" style="fill: #4169e1; stroke: #4169e1"/>
     <use xlink:href="#m5362926d35" x="412.150936" y="305.951596" style="fill: #4169e1; stroke: #4169e1"/>
     <use xlink:href="#m5362926d35" x="375.203066" y="231.077121" style="fill: #4169e1; stroke: #4169e1"/>
     <use xlink:href="#m5362926d35" x="275.295154" y="146.411938" style="fill: #4169e1; stroke: #4169e1"/>
     <use xlink:href="#m5362926d35" x="273.789323" y="162.186303" style="fill: #4169e1; stroke: #4169e1"/>
     <use xlink:href="#m5362926d35" x="308.868026" y="330.503585" style="fill: #4169e1; stroke: #4169e1"/>
     <use xlink:href="#m5362926d35" x="289.851543" y="167.052165" style="fill: #4169e1; stroke: #4169e1"/>
     <use xlink:href="#m5362926d35" x="195.972557" y="136.69802" style="fill: #4169e1; stroke: #4169e1"/>
     <use xlink:href="#m5362926d35" x="281.380364" y="302.749753" style="fill: #4169e1; stroke: #4169e1"/>
     <use xlink:href="#m5362926d35" x="217.4598" y="167.392933" style="fill: #4169e1; stroke: #4169e1"/>
     <use xlink:href="#m5362926d35" x="405.225335" y="171.287471" style="fill: #4169e1; stroke: #4169e1"/>
     <use xlink:href="#m5362926d35" x="296.810239" y="266.682196" style="fill: #4169e1; stroke: #4169e1"/>
     <use xlink:href="#m5362926d35" x="209.710578" y="151.685424" style="fill: #4169e1; stroke: #4169e1"/>
     <use xlink:href="#m5362926d35" x="460.028506" y="184.987225" style="fill: #4169e1; stroke: #4169e1"/>
     <use xlink:href="#m5362926d35" x="337.354329" y="272.460872" style="fill: #4169e1; stroke: #4169e1"/>
     <use xlink:href="#m5362926d35" x="311.95791" y="166.549483" style="fill: #4169e1; stroke: #4169e1"/>
     <use xlink:href="#m5362926d35" x="389.167631" y="173.903674" style="fill: #4169e1; stroke: #4169e1"/>
     <use xlink:href="#m5362926d35" x="266.649429" y="211.691888" style="fill: #4169e1; stroke: #4169e1"/>
     <use xlink:href="#m5362926d35" x="233.89194" y="199.500276" style="fill: #4169e1; stroke: #4169e1"/>
     <use xlink:href="#m5362926d35" x="326.136253" y="339.340749" style="fill: #4169e1; stroke: #4169e1"/>
     <use xlink:href="#m5362926d35" x="395.66835" y="240.298861" style="fill: #4169e1; stroke: #4169e1"/>
     <use xlink:href="#m5362926d35" x="394.90605" y="114.666921" style="fill: #4169e1; stroke: #4169e1"/>
     <use xlink:href="#m5362926d35" x="144.867766" y="200.398773" style="fill: #4169e1; stroke: #4169e1"/>
     <use xlink:href="#m5362926d35" x="304.705824" y="109.038475" style="fill: #4169e1; stroke: #4169e1"/>
     <use xlink:href="#m5362926d35" x="257.494405" y="272.286658" style="fill: #4169e1; stroke: #4169e1"/>
     <use xlink:href="#m5362926d35" x="406.418824" y="129.07592" style="fill: #4169e1; stroke: #4169e1"/>
     <use xlink:href="#m5362926d35" x="306.477518" y="151.232497" style="fill: #4169e1; stroke: #4169e1"/>
     <use xlink:href="#m5362926d35" x="391.145429" y="248.278683" style="fill: #4169e1; stroke: #4169e1"/>
     <use xlink:href="#m5362926d35" x="328.3704" y="240.826552" style="fill: #4169e1; stroke: #4169e1"/>
     <use xlink:href="#m5362926d35" x="178.394639" y="170.917528" style="fill: #4169e1; stroke: #4169e1"/>
     <use xlink:href="#m5362926d35" x="210.114582" y="223.67069" style="fill: #4169e1; stroke: #4169e1"/>
     <use xlink:href="#m5362926d35" x="352.759949" y="240.912161" style="fill: #4169e1; stroke: #4169e1"/>
    </g>
   </g>
   <g id="PathCollection_2">
    <defs>
     <path id="m747bc1b45f" d="M 0 2.5 
C 0.663008 2.5 1.29895 2.236584 1.767767 1.767767 
C 2.236584 1.29895 2.5 0.663008 2.5 0 
C 2.5 -0.663008 2.236584 -1.29895 1.767767 -1.767767 
C 1.29895 -2.236584 0.663008 -2.5 0 -2.5 
C -0.663008 -2.5 -1.29895 -2.236584 -1.767767 -1.767767 
C -2.236584 -1.29895 -2.5 -0.663008 -2.5 0 
C -2.5 0.663008 -2.236584 1.29895 -1.767767 1.767767 
C -1.29895 2.236584 -0.663008 2.5 0 2.5 
z
" style="stroke: #b22222"/>
    </defs>
    <g clip-path="url(#pefcf196ba7)">
     <use xlink:href="#m747bc1b45f" x="290.846054" y="213.324067" style="fill: #b22222; stroke: #b22222"/>
     <use xlink:href="#m747bc1b45f" x="338.825154" y="259.047289" style="fill: #b22222; stroke: #b22222"/>
     <use xlink:href="#m747bc1b45f" x="295.668319" y="212.983606" style="fill: #b22222; stroke: #b22222"/>
     <use xlink:href="#m747bc1b45f" x="266.546228" y="191.970218" style="fill: #b22222; stroke: #b22222"/>
     <use xlink:href="#m747bc1b45f" x="285.993233" y="189.022342" style="fill: #b22222; stroke: #b22222"/>
     <use xlink:href="#m747bc1b45f" x="279.763609" y="200.080392" style="fill: #b22222; stroke: #b22222"/>
     <use xlink:href="#m747bc1b45f" x="294.277158" y="187.472763" style="fill: #b22222; stroke: #b22222"/>
     <use xlink:href="#m747bc1b45f" x="293.563817" y="205.247701" style="fill: #b22222; stroke: #b22222"/>
     <use xlink:href="#m747bc1b45f" x="283.55173" y="250.397402" style="fill: #b22222; stroke: #b22222"/>
     <use xlink:href="#m747bc1b45f" x="280.013579" y="228.921989" style="fill: #b22222; stroke: #b22222"/>
     <use xlink:href="#m747bc1b45f" x="293.877692" y="213.829433" style="fill: #b22222; stroke: #b22222"/>
     <use xlink:href="#m747bc1b45f" x="279.686815" y="208.069833" style="fill: #b22222; stroke: #b22222"/>
     <use xlink:href="#m747bc1b45f" x="292.080338" y="194.206662" style="fill: #b22222; stroke: #b22222"/>
     <use xlink:href="#m747bc1b45f" x="287.201775" y="204.75384" style="fill: #b22222; stroke: #b22222"/>
     <use xlink:href="#m747bc1b45f" x="295.049001" y="233.768506" style="fill: #b22222; stroke: #b22222"/>
     <use xlink:href="#m747bc1b45f" x="272.458672" y="195.464481" style="fill: #b22222; stroke: #b22222"/>
     <use xlink:href="#m747bc1b45f" x="281.670234" y="201.740956" style="fill: #b22222; stroke: #b22222"/>
     <use xlink:href="#m747bc1b45f" x="278.628399" y="226.533928" style="fill: #b22222; stroke: #b22222"/>
     <use xlink:href="#m747bc1b45f" x="272.085292" y="198.965471" style="fill: #b22222; stroke: #b22222"/>
     <use xlink:href="#m747bc1b45f" x="281.585612" y="199.718889" style="fill: #b22222; stroke: #b22222"/>
     <use xlink:href="#m747bc1b45f" x="269.583228" y="233.008729" style="fill: #b22222; stroke: #b22222"/>
     <use xlink:href="#m747bc1b45f" x="286.583121" y="191.21898" style="fill: #b22222; stroke: #b22222"/>
     <use xlink:href="#m747bc1b45f" x="285.553778" y="210.971672" style="fill: #b22222; stroke: #b22222"/>
     <use xlink:href="#m747bc1b45f" x="299.29282" y="210.800316" style="fill: #b22222; stroke: #b22222"/>
     <use xlink:href="#m747bc1b45f" x="290.83763" y="203.53184" style="fill: #b22222; stroke: #b22222"/>
     <use xlink:href="#m747bc1b45f" x="310.108967" y="179.325323" style="fill: #b22222; stroke: #b22222"/>
     <use xlink:href="#m747bc1b45f" x="307.094214" y="168.725577" style="fill: #b22222; stroke: #b22222"/>
     <use xlink:href="#m747bc1b45f" x="271.241079" y="200.102536" style="fill: #b22222; stroke: #b22222"/>
     <use xlink:href="#m747bc1b45f" x="278.59016" y="207.240214" style="fill: #b22222; stroke: #b22222"/>
     <use xlink:href="#m747bc1b45f" x="340.873341" y="237.546967" style="fill: #b22222; stroke: #b22222"/>
     <use xlink:href="#m747bc1b45f" x="287.090806" y="199.440535" style="fill: #b22222; stroke: #b22222"/>
     <use xlink:href="#m747bc1b45f" x="289.425908" y="197.796859" style="fill: #b22222; stroke: #b22222"/>
     <use xlink:href="#m747bc1b45f" x="284.100926" y="182.42726" style="fill: #b22222; stroke: #b22222"/>
     <use xlink:href="#m747bc1b45f" x="292.537249" y="202.17054" style="fill: #b22222; stroke: #b22222"/>
     <use xlink:href="#m747bc1b45f" x="298.610168" y="200.999617" style="fill: #b22222; stroke: #b22222"/>
     <use xlink:href="#m747bc1b45f" x="249.338457" y="203.249492" style="fill: #b22222; stroke: #b22222"/>
     <use xlink:href="#m747bc1b45f" x="298.298123" y="186.774518" style="fill: #b22222; stroke: #b22222"/>
     <use xlink:href="#m747bc1b45f" x="339.224252" y="252.233681" style="fill: #b22222; stroke: #b22222"/>
     <use xlink:href="#m747bc1b45f" x="266.052601" y="240.439909" style="fill: #b22222; stroke: #b22222"/>
     <use xlink:href="#m747bc1b45f" x="285.938961" y="205.794462" style="fill: #b22222; stroke: #b22222"/>
    </g>
   </g>
   <g id="patch_4">
    <path d="M 56.450156 450.72 
L 56.450156 7.2 
" style="fill: none; stroke: #ffffff; stroke-width: 1.25; stroke-linejoin: miter; stroke-linecap: square"/>
   </g>
   <g id="patch_5">
    <path d="M 499.970156 450.72 
L 499.970156 7.2 
" style="fill: none; stroke: #ffffff; stroke-width: 1.25; stroke-linejoin: miter; stroke-linecap: square"/>
   </g>
   <g id="patch_6">
    <path d="M 56.450156 450.72 
L 499.970156 450.72 
" style="fill: none; stroke: #ffffff; stroke-width: 1.25; stroke-linejoin: miter; stroke-linecap: square"/>
   </g>
   <g id="patch_7">
    <path d="M 56.450156 7.2 
L 499.970156 7.2 
" style="fill: none; stroke: #ffffff; stroke-width: 1.25; stroke-linejoin: miter; stroke-linecap: square"/>
   </g>
   <g id="text_13">
    <!-- t = 3100 -->
    <g style="fill: #262626" transform="translate(65.320556 24.659775) scale(0.12 -0.12)">
     <defs>
      <path id="ArialMT-74" d="M 1650 503 
L 1731 6 
Q 1494 -44 1306 -44 
Q 1000 -44 831 53 
Q 663 150 594 308 
Q 525 466 525 972 
L 525 2881 
L 113 2881 
L 113 3319 
L 525 3319 
L 525 4141 
L 1084 4478 
L 1084 3319 
L 1650 3319 
L 1650 2881 
L 1084 2881 
L 1084 941 
Q 1084 700 1114 631 
Q 1144 563 1211 522 
Q 1278 481 1403 481 
Q 1497 481 1650 503 
z
" transform="scale(0.015625)"/>
      <path id="ArialMT-20" transform="scale(0.015625)"/>
      <path id="ArialMT-3d" d="M 3381 2694 
L 356 2694 
L 356 3219 
L 3381 3219 
L 3381 2694 
z
M 3381 1303 
L 356 1303 
L 356 1828 
L 3381 1828 
L 3381 1303 
z
" transform="scale(0.015625)"/>
      <path id="ArialMT-33" d="M 269 1209 
L 831 1284 
Q 928 806 1161 595 
Q 1394 384 1728 384 
Q 2125 384 2398 659 
Q 2672 934 2672 1341 
Q 2672 1728 2419 1979 
Q 2166 2231 1775 2231 
Q 1616 2231 1378 2169 
L 1441 2663 
Q 1497 2656 1531 2656 
Q 1891 2656 2178 2843 
Q 2466 3031 2466 3422 
Q 2466 3731 2256 3934 
Q 2047 4138 1716 4138 
Q 1388 4138 1169 3931 
Q 950 3725 888 3313 
L 325 3413 
Q 428 3978 793 4289 
Q 1159 4600 1703 4600 
Q 2078 4600 2393 4439 
Q 2709 4278 2876 4000 
Q 3044 3722 3044 3409 
Q 3044 3113 2884 2869 
Q 2725 2625 2413 2481 
Q 2819 2388 3044 2092 
Q 3269 1797 3269 1353 
Q 3269 753 2831 336 
Q 2394 -81 1725 -81 
Q 1122 -81 723 278 
Q 325 638 269 1209 
z
" transform="scale(0.015625)"/>
      <path id="ArialMT-31" d="M 2384 0 
L 1822 0 
L 1822 3584 
Q 1619 3391 1289 3197 
Q 959 3003 697 2906 
L 697 3450 
Q 1169 3672 1522 3987 
Q 1875 4303 2022 4600 
L 2384 4600 
L 2384 0 
z
" transform="scale(0.015625)"/>
     </defs>
     <use xlink:href="#ArialMT-74"/>
     <use xlink:href="#ArialMT-20" x="27.783203"/>
     <use xlink:href="#ArialMT-3d" x="55.566406"/>
     <use xlink:href="#ArialMT-20" x="113.964844"/>
     <use xlink:href="#ArialMT-33" x="141.748047"/>
     <use xlink:href="#ArialMT-31" x="197.363281"/>
     <use xlink:href="#ArialMT-30" x="252.978516"/>
     <use xlink:href="#ArialMT-30" x="308.59375"/>
    </g>
   </g>
   <g id="legend_1">
    <g id="patch_8">
     <path d="M 328.111406 94.59 
L 483.170156 94.59 
Q 487.970156 94.59 487.970156 89.79 
L 487.970156 24 
Q 487.970156 19.2 483.170156 19.2 
L 328.111406 19.2 
Q 323.311406 19.2 323.311406 24 
L 323.311406 89.79 
Q 323.311406 94.59 328.111406 94.59 
z
" style="fill: #eaeaf2; opacity: 0.8; stroke: #cccccc; stroke-linejoin: miter"/>
    </g>
    <g id="PathCollection_3">
     <g>
      <use xlink:href="#m5362926d35" x="356.911406" y="39.97125" style="fill: #4169e1; stroke: #4169e1"/>
     </g>
    </g>
    <g id="text_14">
     <!-- Sheep -->
     <g style="fill: #262626" transform="translate(400.111406 46.27125) scale(0.24 -0.24)">
      <defs>
       <path id="ArialMT-53" d="M 288 1472 
L 859 1522 
Q 900 1178 1048 958 
Q 1197 738 1509 602 
Q 1822 466 2213 466 
Q 2559 466 2825 569 
Q 3091 672 3220 851 
Q 3350 1031 3350 1244 
Q 3350 1459 3225 1620 
Q 3100 1781 2813 1891 
Q 2628 1963 1997 2114 
Q 1366 2266 1113 2400 
Q 784 2572 623 2826 
Q 463 3081 463 3397 
Q 463 3744 659 4045 
Q 856 4347 1234 4503 
Q 1613 4659 2075 4659 
Q 2584 4659 2973 4495 
Q 3363 4331 3572 4012 
Q 3781 3694 3797 3291 
L 3216 3247 
Q 3169 3681 2898 3903 
Q 2628 4125 2100 4125 
Q 1550 4125 1298 3923 
Q 1047 3722 1047 3438 
Q 1047 3191 1225 3031 
Q 1400 2872 2139 2705 
Q 2878 2538 3153 2413 
Q 3553 2228 3743 1945 
Q 3934 1663 3934 1294 
Q 3934 928 3725 604 
Q 3516 281 3123 101 
Q 2731 -78 2241 -78 
Q 1619 -78 1198 103 
Q 778 284 539 648 
Q 300 1013 288 1472 
z
" transform="scale(0.015625)"/>
       <path id="ArialMT-68" d="M 422 0 
L 422 4581 
L 984 4581 
L 984 2938 
Q 1378 3394 1978 3394 
Q 2347 3394 2619 3248 
Q 2891 3103 3008 2847 
Q 3125 2591 3125 2103 
L 3125 0 
L 2563 0 
L 2563 2103 
Q 2563 2525 2380 2717 
Q 2197 2909 1863 2909 
Q 1613 2909 1392 2779 
Q 1172 2650 1078 2428 
Q 984 2206 984 1816 
L 984 0 
L 422 0 
z
" transform="scale(0.015625)"/>
       <path id="ArialMT-65" d="M 2694 1069 
L 3275 997 
Q 3138 488 2766 206 
Q 2394 -75 1816 -75 
Q 1088 -75 661 373 
Q 234 822 234 1631 
Q 234 2469 665 2931 
Q 1097 3394 1784 3394 
Q 2450 3394 2872 2941 
Q 3294 2488 3294 1666 
Q 3294 1616 3291 1516 
L 816 1516 
Q 847 969 1125 678 
Q 1403 388 1819 388 
Q 2128 388 2347 550 
Q 2566 713 2694 1069 
z
M 847 1978 
L 2700 1978 
Q 2663 2397 2488 2606 
Q 2219 2931 1791 2931 
Q 1403 2931 1139 2672 
Q 875 2413 847 1978 
z
" transform="scale(0.015625)"/>
       <path id="ArialMT-70" d="M 422 -1272 
L 422 3319 
L 934 3319 
L 934 2888 
Q 1116 3141 1344 3267 
Q 1572 3394 1897 3394 
Q 2322 3394 2647 3175 
Q 2972 2956 3137 2557 
Q 3303 2159 3303 1684 
Q 3303 1175 3120 767 
Q 2938 359 2589 142 
Q 2241 -75 1856 -75 
Q 1575 -75 1351 44 
Q 1128 163 984 344 
L 984 -1272 
L 422 -1272 
z
M 931 1641 
Q 931 1000 1190 694 
Q 1450 388 1819 388 
Q 2194 388 2461 705 
Q 2728 1022 2728 1688 
Q 2728 2322 2467 2637 
Q 2206 2953 1844 2953 
Q 1484 2953 1207 2617 
Q 931 2281 931 1641 
z
" transform="scale(0.015625)"/>
      </defs>
      <use xlink:href="#ArialMT-53"/>
      <use xlink:href="#ArialMT-68" x="66.699219"/>
      <use xlink:href="#ArialMT-65" x="122.314453"/>
      <use xlink:href="#ArialMT-65" x="177.929688"/>
      <use xlink:href="#ArialMT-70" x="233.544922"/>
     </g>
    </g>
    <g id="PathCollection_4">
     <g>
      <use xlink:href="#m747bc1b45f" x="356.911406" y="73.92" style="fill: #b22222; stroke: #b22222"/>
     </g>
    </g>
    <g id="text_15">
     <!-- Wolves -->
     <g style="fill: #262626" transform="translate(400.111406 80.22) scale(0.24 -0.24)">
      <defs>
       <path id="ArialMT-57" d="M 1294 0 
L 78 4581 
L 700 4581 
L 1397 1578 
Q 1509 1106 1591 641 
Q 1766 1375 1797 1488 
L 2669 4581 
L 3400 4581 
L 4056 2263 
Q 4303 1400 4413 641 
Q 4500 1075 4641 1638 
L 5359 4581 
L 5969 4581 
L 4713 0 
L 4128 0 
L 3163 3491 
Q 3041 3928 3019 4028 
Q 2947 3713 2884 3491 
L 1913 0 
L 1294 0 
z
" transform="scale(0.015625)"/>
       <path id="ArialMT-6f" d="M 213 1659 
Q 213 2581 725 3025 
Q 1153 3394 1769 3394 
Q 2453 3394 2887 2945 
Q 3322 2497 3322 1706 
Q 3322 1066 3130 698 
Q 2938 331 2570 128 
Q 2203 -75 1769 -75 
Q 1072 -75 642 372 
Q 213 819 213 1659 
z
M 791 1659 
Q 791 1022 1069 705 
Q 1347 388 1769 388 
Q 2188 388 2466 706 
Q 2744 1025 2744 1678 
Q 2744 2294 2464 2611 
Q 2184 2928 1769 2928 
Q 1347 2928 1069 2612 
Q 791 2297 791 1659 
z
" transform="scale(0.015625)"/>
       <path id="ArialMT-6c" d="M 409 0 
L 409 4581 
L 972 4581 
L 972 0 
L 409 0 
z
" transform="scale(0.015625)"/>
       <path id="ArialMT-76" d="M 1344 0 
L 81 3319 
L 675 3319 
L 1388 1331 
Q 1503 1009 1600 663 
Q 1675 925 1809 1294 
L 2547 3319 
L 3125 3319 
L 1869 0 
L 1344 0 
z
" transform="scale(0.015625)"/>
       <path id="ArialMT-73" d="M 197 991 
L 753 1078 
Q 800 744 1014 566 
Q 1228 388 1613 388 
Q 2000 388 2187 545 
Q 2375 703 2375 916 
Q 2375 1106 2209 1216 
Q 2094 1291 1634 1406 
Q 1016 1563 777 1677 
Q 538 1791 414 1992 
Q 291 2194 291 2438 
Q 291 2659 392 2848 
Q 494 3038 669 3163 
Q 800 3259 1026 3326 
Q 1253 3394 1513 3394 
Q 1903 3394 2198 3281 
Q 2494 3169 2634 2976 
Q 2775 2784 2828 2463 
L 2278 2388 
Q 2241 2644 2061 2787 
Q 1881 2931 1553 2931 
Q 1166 2931 1000 2803 
Q 834 2675 834 2503 
Q 834 2394 903 2306 
Q 972 2216 1119 2156 
Q 1203 2125 1616 2013 
Q 2213 1853 2448 1751 
Q 2684 1650 2818 1456 
Q 2953 1263 2953 975 
Q 2953 694 2789 445 
Q 2625 197 2315 61 
Q 2006 -75 1616 -75 
Q 969 -75 630 194 
Q 291 463 197 991 
z
" transform="scale(0.015625)"/>
      </defs>
      <use xlink:href="#ArialMT-57"/>
      <use xlink:href="#ArialMT-6f" x="92.634766"/>
      <use xlink:href="#ArialMT-6c" x="148.25"/>
      <use xlink:href="#ArialMT-76" x="170.466797"/>
      <use xlink:href="#ArialMT-65" x="220.466797"/>
      <use xlink:href="#ArialMT-73" x="276.082031"/>
     </g>
    </g>
   </g>
  </g>
 </g>
 <defs>
  <clipPath id="pefcf196ba7">
   <rect x="56.450156" y="7.2" width="443.52" height="443.52"/>
  </clipPath>
 </defs>
</svg>
