<?xml version="1.0" encoding="utf-8" standalone="no"?>
<!DOCTYPE svg PUBLIC "-//W3C//DTD SVG 1.1//EN"
  "http://www.w3.org/Graphics/SVG/1.1/DTD/svg11.dtd">
<svg xmlns:xlink="http://www.w3.org/1999/xlink" width="507.170156pt" height="492.454219pt" viewBox="0 0 507.170156 492.454219" xmlns="http://www.w3.org/2000/svg" version="1.1">
 <metadata>
  <rdf:RDF xmlns:dc="http://purl.org/dc/elements/1.1/" xmlns:cc="http://creativecommons.org/ns#" xmlns:rdf="http://www.w3.org/1999/02/22-rdf-syntax-ns#">
   <cc:Work>
    <dc:type rdf:resource="http://purl.org/dc/dcmitype/StillImage"/>
    <dc:date>2026-05-12T10:43:21.267217</dc:date>
    <dc:format>image/svg+xml</dc:format>
    <dc:creator>
     <cc:Agent>
      <dc:title>Matplotlib v3.7.1, https://matplotlib.org/</dc:title>
     </cc:Agent>
    </dc:creator>
   </cc:Work>
  </rdf:RDF>
 </metadata>
 <defs>
  <style type="text/css">*{stroke-linejoin: round; stroke-linecap: butt}</style>
 </defs>
 <g id="figure_1">
  <g id="patch_1">
   <path d="M 0 492.454219 
L 507.170156 492.454219 
L 507.170156 0 
L 0 0 
z
" style="fill: #ffffff"/>
  </g>
  <g id="axes_1">
   <g id="patch_2">
    <path d="M 56.450156 450.72 
L 499.970156 450.72 
L 499.970156 7.2 
L 56.450156 7.2 
z
" style="fill: #eaeaf2"/>
   </g>
   <g id="matplotlib.axis_1">
    <g id="xtick_1">
     <g id="line2d_1">
      <path d="M 100.802156 450.72 
L 100.802156 7.2 
" clip-path="url(#p7e9fdc0032)" style="fill: none; stroke: #ffffff; stroke-linecap: round"/>
     </g>
     <g id="text_1">
      <!-- −400 -->
      <g style="fill: #262626" transform="translate(88.414266 468.093594) scale(0.11 -0.11)">
       <defs>
        <path id="ArialMT-2212" d="M 3381 1997 
L 356 1997 
L 356 2522 
L 3381 2522 
L 3381 1997 
z
" transform="scale(0.015625)"/>
        <path id="ArialMT-34" d="M 2069 0 
L 2069 1097 
L 81 1097 
L 81 1613 
L 2172 4581 
L 2631 4581 
L 2631 1613 
L 3250 1613 
L 3250 1097 
L 2631 1097 
L 2631 0 
L 2069 0 
z
M 2069 1613 
L 2069 3678 
L 634 1613 
L 2069 1613 
z
" transform="scale(0.015625)"/>
        <path id="ArialMT-30" d="M 266 2259 
Q 266 3072 433 3567 
Q 600 4063 929 4331 
Q 1259 4600 1759 4600 
Q 2128 4600 2406 4451 
Q 2684 4303 2865 4023 
Q 3047 3744 3150 3342 
Q 3253 2941 3253 2259 
Q 3253 1453 3087 958 
Q 2922 463 2592 192 
Q 2263 -78 1759 -78 
Q 1097 -78 719 397 
Q 266 969 266 2259 
z
M 844 2259 
Q 844 1131 1108 757 
Q 1372 384 1759 384 
Q 2147 384 2411 759 
Q 2675 1134 2675 2259 
Q 2675 3391 2411 3762 
Q 2147 4134 1753 4134 
Q 1366 4134 1134 3806 
Q 844 3388 844 2259 
z
" transform="scale(0.015625)"/>
       </defs>
       <use xlink:href="#ArialMT-2212"/>
       <use xlink:href="#ArialMT-34" x="58.398438"/>
       <use xlink:href="#ArialMT-30" x="114.013672"/>
       <use xlink:href="#ArialMT-30" x="169.628906"/>
      </g>
     </g>
    </g>
    <g id="xtick_2">
     <g id="line2d_2">
      <path d="M 189.506156 450.72 
L 189.506156 7.2 
" clip-path="url(#p7e9fdc0032)" style="fill: none; stroke: #ffffff; stroke-linecap: round"/>
     </g>
     <g id="text_2">
      <!-- −200 -->
      <g style="fill: #262626" transform="translate(177.118266 468.093594) scale(0.11 -0.11)">
       <defs>
        <path id="ArialMT-32" d="M 3222 541 
L 3222 0 
L 194 0 
Q 188 203 259 391 
Q 375 700 629 1000 
Q 884 1300 1366 1694 
Q 2113 2306 2375 2664 
Q 2638 3022 2638 3341 
Q 2638 3675 2398 3904 
Q 2159 4134 1775 4134 
Q 1369 4134 1125 3890 
Q 881 3647 878 3216 
L 300 3275 
Q 359 3922 746 4261 
Q 1134 4600 1788 4600 
Q 2447 4600 2831 4234 
Q 3216 3869 3216 3328 
Q 3216 3053 3103 2787 
Q 2991 2522 2730 2228 
Q 2469 1934 1863 1422 
Q 1356 997 1212 845 
Q 1069 694 975 541 
L 3222 541 
z
" transform="scale(0.015625)"/>
       </defs>
       <use xlink:href="#ArialMT-2212"/>
       <use xlink:href="#ArialMT-32" x="58.398438"/>
       <use xlink:href="#ArialMT-30" x="114.013672"/>
       <use xlink:href="#ArialMT-30" x="169.628906"/>
      </g>
     </g>
    </g>
    <g id="xtick_3">
     <g id="line2d_3">
      <path d="M 278.210156 450.72 
L 278.210156 7.2 
" clip-path="url(#p7e9fdc0032)" style="fill: none; stroke: #ffffff; stroke-linecap: round"/>
     </g>
     <g id="text_3">
      <!-- 0 -->
      <g style="fill: #262626" transform="translate(275.151641 468.093594) scale(0.11 -0.11)">
       <use xlink:href="#ArialMT-30"/>
      </g>
     </g>
    </g>
    <g id="xtick_4">
     <g id="line2d_4">
      <path d="M 366.914156 450.72 
L 366.914156 7.2 
" clip-path="url(#p7e9fdc0032)" style="fill: none; stroke: #ffffff; stroke-linecap: round"/>
     </g>
     <g id="text_4">
      <!-- 200 -->
      <g style="fill: #262626" transform="translate(357.738609 468.093594) scale(0.11 -0.11)">
       <use xlink:href="#ArialMT-32"/>
       <use xlink:href="#ArialMT-30" x="55.615234"/>
       <use xlink:href="#ArialMT-30" x="111.230469"/>
      </g>
     </g>
    </g>
    <g id="xtick_5">
     <g id="line2d_5">
      <path d="M 455.618156 450.72 
L 455.618156 7.2 
" clip-path="url(#p7e9fdc0032)" style="fill: none; stroke: #ffffff; stroke-linecap: round"/>
     </g>
     <g id="text_5">
      <!-- 400 -->
      <g style="fill: #262626" transform="translate(446.442609 468.093594) scale(0.11 -0.11)">
       <use xlink:href="#ArialMT-34"/>
       <use xlink:href="#ArialMT-30" x="55.615234"/>
       <use xlink:href="#ArialMT-30" x="111.230469"/>
      </g>
     </g>
    </g>
    <g id="text_6">
     <!-- x -->
     <g style="fill: #262626" transform="translate(275.210156 482.869219) scale(0.12 -0.12)">
      <defs>
       <path id="ArialMT-78" d="M 47 0 
L 1259 1725 
L 138 3319 
L 841 3319 
L 1350 2541 
Q 1494 2319 1581 2169 
Q 1719 2375 1834 2534 
L 2394 3319 
L 3066 3319 
L 1919 1756 
L 3153 0 
L 2463 0 
L 1781 1031 
L 1600 1309 
L 728 0 
L 47 0 
z
" transform="scale(0.015625)"/>
      </defs>
      <use xlink:href="#ArialMT-78"/>
     </g>
    </g>
   </g>
   <g id="matplotlib.axis_2">
    <g id="ytick_1">
     <g id="line2d_6">
      <path d="M 56.450156 406.368 
L 499.970156 406.368 
" clip-path="url(#p7e9fdc0032)" style="fill: none; stroke: #ffffff; stroke-linecap: round"/>
     </g>
     <g id="text_7">
      <!-- −400 -->
      <g style="fill: #262626" transform="translate(22.174375 410.304797) scale(0.11 -0.11)">
       <use xlink:href="#ArialMT-2212"/>
       <use xlink:href="#ArialMT-34" x="58.398438"/>
       <use xlink:href="#ArialMT-30" x="114.013672"/>
       <use xlink:href="#ArialMT-30" x="169.628906"/>
      </g>
     </g>
    </g>
    <g id="ytick_2">
     <g id="line2d_7">
      <path d="M 56.450156 317.664 
L 499.970156 317.664 
" clip-path="url(#p7e9fdc0032)" style="fill: none; stroke: #ffffff; stroke-linecap: round"/>
     </g>
     <g id="text_8">
      <!-- −200 -->
      <g style="fill: #262626" transform="translate(22.174375 321.600797) scale(0.11 -0.11)">
       <use xlink:href="#ArialMT-2212"/>
       <use xlink:href="#ArialMT-32" x="58.398438"/>
       <use xlink:href="#ArialMT-30" x="114.013672"/>
       <use xlink:href="#ArialMT-30" x="169.628906"/>
      </g>
     </g>
    </g>
    <g id="ytick_3">
     <g id="line2d_8">
      <path d="M 56.450156 228.96 
L 499.970156 228.96 
" clip-path="url(#p7e9fdc0032)" style="fill: none; stroke: #ffffff; stroke-linecap: round"/>
     </g>
     <g id="text_9">
      <!-- 0 -->
      <g style="fill: #262626" transform="translate(40.833125 232.896797) scale(0.11 -0.11)">
       <use xlink:href="#ArialMT-30"/>
      </g>
     </g>
    </g>
    <g id="ytick_4">
     <g id="line2d_9">
      <path d="M 56.450156 140.256 
L 499.970156 140.256 
" clip-path="url(#p7e9fdc0032)" style="fill: none; stroke: #ffffff; stroke-linecap: round"/>
     </g>
     <g id="text_10">
      <!-- 200 -->
      <g style="fill: #262626" transform="translate(28.599063 144.192797) scale(0.11 -0.11)">
       <use xlink:href="#ArialMT-32"/>
       <use xlink:href="#ArialMT-30" x="55.615234"/>
       <use xlink:href="#ArialMT-30" x="111.230469"/>
      </g>
     </g>
    </g>
    <g id="ytick_5">
     <g id="line2d_10">
      <path d="M 56.450156 51.552 
L 499.970156 51.552 
" clip-path="url(#p7e9fdc0032)" style="fill: none; stroke: #ffffff; stroke-linecap: round"/>
     </g>
     <g id="text_11">
      <!-- 400 -->
      <g style="fill: #262626" transform="translate(28.599063 55.488797) scale(0.11 -0.11)">
       <use xlink:href="#ArialMT-34"/>
       <use xlink:href="#ArialMT-30" x="55.615234"/>
       <use xlink:href="#ArialMT-30" x="111.230469"/>
      </g>
     </g>
    </g>
    <g id="text_12">
     <!-- y -->
     <g style="fill: #262626" transform="translate(15.64875 231.96) rotate(-90) scale(0.12 -0.12)">
      <defs>
       <path id="ArialMT-79" d="M 397 -1278 
L 334 -750 
Q 519 -800 656 -800 
Q 844 -800 956 -737 
Q 1069 -675 1141 -563 
Q 1194 -478 1313 -144 
Q 1328 -97 1363 -6 
L 103 3319 
L 709 3319 
L 1400 1397 
Q 1534 1031 1641 628 
Q 1738 1016 1872 1384 
L 2581 3319 
L 3144 3319 
L 1881 -56 
Q 1678 -603 1566 -809 
Q 1416 -1088 1222 -1217 
Q 1028 -1347 759 -1347 
Q 597 -1347 397 -1278 
z
" transform="scale(0.015625)"/>
      </defs>
      <use xlink:href="#ArialMT-79"/>
     </g>
    </g>
   </g>
   <g id="patch_3">
    <path d="M 278.210156 317.664 
C 301.734732 317.664 324.298969 308.317587 340.933356 291.6832 
C 357.567743 275.048813 366.914156 252.484576 366.914156 228.96 
C 366.914156 205.435424 357.567743 182.871187 340.933356 166.2368 
C 324.298969 149.602413 301.734732 140.256 278.210156 140.256 
C 254.68558 140.256 232.121343 149.602413 215.486956 166.2368 
C 198.852569 182.871187 189.506156 205.435424 189.506156 228.96 
C 189.506156 252.484576 198.852569 275.048813 215.486956 291.6832 
C 232.121343 308.317587 254.68558 317.664 278.210156 317.664 
z
" clip-path="url(#p7e9fdc0032)" style="fill: #228b22; opacity: 0.12; stroke: #228b22; stroke-width: 1.5; stroke-linejoin: miter"/>
   </g>
   <g id="PathCollection_1">
    <defs>
     <path id="m8b914cde63" d="M 0 2.236068 
C 0.593012 2.236068 1.161816 2.000462 1.581139 1.581139 
C 2.000462 1.161816 2.236068 0.593012 2.236068 0 
C 2.236068 -0.593012 2.000462 -1.161816 1.581139 -1.581139 
C 1.161816 -2.000462 0.593012 -2.236068 0 -2.236068 
C -0.593012 -2.236068 -1.161816 -2.000462 -1.581139 -1.581139 
C -2.000462 -1.161816 -2.236068 -0.593012 -2.236068 0 
C -2.236068 0.593012 -2.000462 1.161816 -1.581139 1.581139 
C -1.161816 2.000462 -0.593012 2.236068 0 2.236068 
z
" style="stroke: #4169e1"/>
    </defs>
    <g clip-path="url(#p7e9fdc0032)">
     <use xlink:href="#m8b914cde63" x="184.157529" y="213.767071" style="fill: #4169e1; stroke: #4169e1"/>
     <use xlink:href="#m8b914cde63" x="415.277746" y="235.014166" style="fill: #4169e1; stroke: #4169e1"/>
     <use xlink:href="#m8b914cde63" x="340.465865" y="265.739293" style="fill: #4169e1; stroke: #4169e1"/>
     <use xlink:href="#m8b914cde63" x="346.657238" y="266.249301" style="fill: #4169e1; stroke: #4169e1"/>
     <use xlink:href="#m8b914cde63" x="221.31263" y="175.178859" style="fill: #4169e1; stroke: #4169e1"/>
     <use xlink:href="#m8b914cde63" x="233.525888" y="103.293911" style="fill: #4169e1; stroke: #4169e1"/>
     <use xlink:href="#m8b914cde63" x="249.03107" y="290.429553" style="fill: #4169e1; stroke: #4169e1"/>
     <use xlink:href="#m8b914cde63" x="349.14925" y="188.911574" style="fill: #4169e1; stroke: #4169e1"/>
     <use xlink:href="#m8b914cde63" x="398.957299" y="219.760661" style="fill: #4169e1; stroke: #4169e1"/>
     <use xlink:href="#m8b914cde63" x="416.468773" y="203.008676" style="fill: #4169e1; stroke: #4169e1"/>
     <use xlink:href="#m8b914cde63" x="351.143412" y="260.436111" style="fill: #4169e1; stroke: #4169e1"/>
     <use xlink:href="#m8b914cde63" x="284.379345" y="185.298371" style="fill: #4169e1; stroke: #4169e1"/>
     <use xlink:href="#m8b914cde63" x="398.99268" y="88.163068" style="fill: #4169e1; stroke: #4169e1"/>
     <use xlink:href="#m8b914cde63" x="348.609143" y="230.440843" style="fill: #4169e1; stroke: #4169e1"/>
     <use xlink:href="#m8b914cde63" x="313.339534" y="199.64921" style="fill: #4169e1; stroke: #4169e1"/>
     <use xlink:href="#m8b914cde63" x="385.796099" y="236.297065" style="fill: #4169e1; stroke: #4169e1"/>
     <use xlink:href="#m8b914cde63" x="248.763761" y="134.127647" style="fill: #4169e1; stroke: #4169e1"/>
     <use xlink:href="#m8b914cde63" x="332.465708" y="148.856028" style="fill: #4169e1; stroke: #4169e1"/>
     <use xlink:href="#m8b914cde63" x="421.010711" y="291.686144" style="fill: #4169e1; stroke: #4169e1"/>
     <use xlink:href="#m8b914cde63" x="353.935918" y="198.641406" style="fill: #4169e1; stroke: #4169e1"/>
     <use xlink:href="#m8b914cde63" x="358.54832" y="135.410746" style="fill: #4169e1; stroke: #4169e1"/>
     <use xlink:href="#m8b914cde63" x="394.515832" y="263.228992" style="fill: #4169e1; stroke: #4169e1"/>
     <use xlink:href="#m8b914cde63" x="379.771465" y="289.661298" style="fill: #4169e1; stroke: #4169e1"/>
     <use xlink:href="#m8b914cde63" x="265.930685" y="215.418503" style="fill: #4169e1; stroke: #4169e1"/>
     <use xlink:href="#m8b914cde63" x="358.601696" y="75.688094" style="fill: #4169e1; stroke: #4169e1"/>
     <use xlink:href="#m8b914cde63" x="374.93178" y="246.636528" style="fill: #4169e1; stroke: #4169e1"/>
     <use xlink:href="#m8b914cde63" x="320.390549" y="305.13366" style="fill: #4169e1; stroke: #4169e1"/>
     <use xlink:href="#m8b914cde63" x="239.07846" y="278.783448" style="fill: #4169e1; stroke: #4169e1"/>
     <use xlink:href="#m8b914cde63" x="231.115128" y="188.083226" style="fill: #4169e1; stroke: #4169e1"/>
     <use xlink:href="#m8b914cde63" x="207.803008" y="218.570758" style="fill: #4169e1; stroke: #4169e1"/>
     <use xlink:href="#m8b914cde63" x="269.342164" y="253.452173" style="fill: #4169e1; stroke: #4169e1"/>
     <use xlink:href="#m8b914cde63" x="262.912763" y="160.343532" style="fill: #4169e1; stroke: #4169e1"/>
     <use xlink:href="#m8b914cde63" x="301.975461" y="151.852171" style="fill: #4169e1; stroke: #4169e1"/>
     <use xlink:href="#m8b914cde63" x="357.250914" y="123.666737" style="fill: #4169e1; stroke: #4169e1"/>
     <use xlink:href="#m8b914cde63" x="377.808651" y="234.991884" style="fill: #4169e1; stroke: #4169e1"/>
     <use xlink:href="#m8b914cde63" x="215.23881" y="299.68377" style="fill: #4169e1; stroke: #4169e1"/>
     <use xlink:href="#m8b914cde63" x="312.621822" y="265.747425" style="fill: #4169e1; stroke: #4169e1"/>
     <use xlink:href="#m8b914cde63" x="326.934692" y="214.476671" style="fill: #4169e1; stroke: #4169e1"/>
     <use xlink:href="#m8b914cde63" x="339.808828" y="294.75987" style="fill: #4169e1; stroke: #4169e1"/>
     <use xlink:href="#m8b914cde63" x="235.842072" y="281.335224" style="fill: #4169e1; stroke: #4169e1"/>
     <use xlink:href="#m8b914cde63" x="198.307317" y="156.196035" style="fill: #4169e1; stroke: #4169e1"/>
     <use xlink:href="#m8b914cde63" x="385.431928" y="95.222924" style="fill: #4169e1; stroke: #4169e1"/>
     <use xlink:href="#m8b914cde63" x="416.871944" y="148.789781" style="fill: #4169e1; stroke: #4169e1"/>
     <use xlink:href="#m8b914cde63" x="406.181093" y="181.112218" style="fill: #4169e1; stroke: #4169e1"/>
     <use xlink:href="#m8b914cde63" x="184.878919" y="214.418038" style="fill: #4169e1; stroke: #4169e1"/>
     <use xlink:href="#m8b914cde63" x="279.651883" y="136.639156" style="fill: #4169e1; stroke: #4169e1"/>
     <use xlink:href="#m8b914cde63" x="224.223111" y="139.901697" style="fill: #4169e1; stroke: #4169e1"/>
     <use xlink:href="#m8b914cde63" x="216.250427" y="265.626495" style="fill: #4169e1; stroke: #4169e1"/>
     <use xlink:href="#m8b914cde63" x="348.805572" y="188.213092" style="fill: #4169e1; stroke: #4169e1"/>
     <use xlink:href="#m8b914cde63" x="274.98773" y="173.446376" style="fill: #4169e1; stroke: #4169e1"/>
     <use xlink:href="#m8b914cde63" x="305.126369" y="220.530344" style="fill: #4169e1; stroke: #4169e1"/>
     <use xlink:href="#m8b914cde63" x="376.368043" y="192.978086" style="fill: #4169e1; stroke: #4169e1"/>
     <use xlink:href="#m8b914cde63" x="315.191205" y="260.381232" style="fill: #4169e1; stroke: #4169e1"/>
     <use xlink:href="#m8b914cde63" x="384.08964" y="287.581296" style="fill: #4169e1; stroke: #4169e1"/>
     <use xlink:href="#m8b914cde63" x="332.203343" y="257.58897" style="fill: #4169e1; stroke: #4169e1"/>
     <use xlink:href="#m8b914cde63" x="354.608716" y="137.609884" style="fill: #4169e1; stroke: #4169e1"/>
     <use xlink:href="#m8b914cde63" x="216.793674" y="229.12038" style="fill: #4169e1; stroke: #4169e1"/>
     <use xlink:href="#m8b914cde63" x="369.303118" y="118.816042" style="fill: #4169e1; stroke: #4169e1"/>
     <use xlink:href="#m8b914cde63" x="184.028086" y="205.260525" style="fill: #4169e1; stroke: #4169e1"/>
     <use xlink:href="#m8b914cde63" x="307.471611" y="238.194436" style="fill: #4169e1; stroke: #4169e1"/>
     <use xlink:href="#m8b914cde63" x="341.161065" y="161.143101" style="fill: #4169e1; stroke: #4169e1"/>
     <use xlink:href="#m8b914cde63" x="324.555996" y="289.277211" style="fill: #4169e1; stroke: #4169e1"/>
     <use xlink:href="#m8b914cde63" x="294.876867" y="205.657636" style="fill: #4169e1; stroke: #4169e1"/>
     <use xlink:href="#m8b914cde63" x="350.679731" y="144.959183" style="fill: #4169e1; stroke: #4169e1"/>
     <use xlink:href="#m8b914cde63" x="226.592258" y="234.799975" style="fill: #4169e1; stroke: #4169e1"/>
     <use xlink:href="#m8b914cde63" x="303.561771" y="205.964387" style="fill: #4169e1; stroke: #4169e1"/>
     <use xlink:href="#m8b914cde63" x="290.885257" y="129.860025" style="fill: #4169e1; stroke: #4169e1"/>
     <use xlink:href="#m8b914cde63" x="430.674041" y="142.355973" style="fill: #4169e1; stroke: #4169e1"/>
     <use xlink:href="#m8b914cde63" x="360.513956" y="324.236672" style="fill: #4169e1; stroke: #4169e1"/>
     <use xlink:href="#m8b914cde63" x="238.782273" y="248.393674" style="fill: #4169e1; stroke: #4169e1"/>
     <use xlink:href="#m8b914cde63" x="291.87202" y="266.022665" style="fill: #4169e1; stroke: #4169e1"/>
     <use xlink:href="#m8b914cde63" x="255.025648" y="187.89618" style="fill: #4169e1; stroke: #4169e1"/>
     <use xlink:href="#m8b914cde63" x="364.234635" y="255.070475" style="fill: #4169e1; stroke: #4169e1"/>
     <use xlink:href="#m8b914cde63" x="278.973099" y="146.313788" style="fill: #4169e1; stroke: #4169e1"/>
     <use xlink:href="#m8b914cde63" x="426.771246" y="110.629641" style="fill: #4169e1; stroke: #4169e1"/>
     <use xlink:href="#m8b914cde63" x="400.428706" y="273.316467" style="fill: #4169e1; stroke: #4169e1"/>
     <use xlink:href="#m8b914cde63" x="298.045848" y="221.124703" style="fill: #4169e1; stroke: #4169e1"/>
     <use xlink:href="#m8b914cde63" x="360.969597" y="74.959794" style="fill: #4169e1; stroke: #4169e1"/>
     <use xlink:href="#m8b914cde63" x="215.11252" y="294.063628" style="fill: #4169e1; stroke: #4169e1"/>
     <use xlink:href="#m8b914cde63" x="259.205528" y="253.55267" style="fill: #4169e1; stroke: #4169e1"/>
     <use xlink:href="#m8b914cde63" x="424.346748" y="246.269695" style="fill: #4169e1; stroke: #4169e1"/>
     <use xlink:href="#m8b914cde63" x="278.105843" y="164.739676" style="fill: #4169e1; stroke: #4169e1"/>
     <use xlink:href="#m8b914cde63" x="365.046352" y="218.879274" style="fill: #4169e1; stroke: #4169e1"/>
     <use xlink:href="#m8b914cde63" x="273.529339" y="205.282356" style="fill: #4169e1; stroke: #4169e1"/>
     <use xlink:href="#m8b914cde63" x="331.441087" y="274.903105" style="fill: #4169e1; stroke: #4169e1"/>
     <use xlink:href="#m8b914cde63" x="167.62326" y="263.382603" style="fill: #4169e1; stroke: #4169e1"/>
     <use xlink:href="#m8b914cde63" x="433.936907" y="228.243232" style="fill: #4169e1; stroke: #4169e1"/>
     <use xlink:href="#m8b914cde63" x="372.945341" y="67.092092" style="fill: #4169e1; stroke: #4169e1"/>
     <use xlink:href="#m8b914cde63" x="192.213695" y="248.539424" style="fill: #4169e1; stroke: #4169e1"/>
     <use xlink:href="#m8b914cde63" x="377.369347" y="290.036675" style="fill: #4169e1; stroke: #4169e1"/>
     <use xlink:href="#m8b914cde63" x="320.564753" y="158.726677" style="fill: #4169e1; stroke: #4169e1"/>
     <use xlink:href="#m8b914cde63" x="407.741683" y="118.408972" style="fill: #4169e1; stroke: #4169e1"/>
     <use xlink:href="#m8b914cde63" x="290.388903" y="124.728272" style="fill: #4169e1; stroke: #4169e1"/>
     <use xlink:href="#m8b914cde63" x="274.377022" y="261.662849" style="fill: #4169e1; stroke: #4169e1"/>
     <use xlink:href="#m8b914cde63" x="380.718405" y="150.924309" style="fill: #4169e1; stroke: #4169e1"/>
     <use xlink:href="#m8b914cde63" x="436.241213" y="185.790093" style="fill: #4169e1; stroke: #4169e1"/>
     <use xlink:href="#m8b914cde63" x="322.191875" y="161.177237" style="fill: #4169e1; stroke: #4169e1"/>
     <use xlink:href="#m8b914cde63" x="212.231602" y="229.829668" style="fill: #4169e1; stroke: #4169e1"/>
     <use xlink:href="#m8b914cde63" x="232.256995" y="260.120082" style="fill: #4169e1; stroke: #4169e1"/>
     <use xlink:href="#m8b914cde63" x="229.864994" y="232.920934" style="fill: #4169e1; stroke: #4169e1"/>
     <use xlink:href="#m8b914cde63" x="278.49661" y="236.789635" style="fill: #4169e1; stroke: #4169e1"/>
     <use xlink:href="#m8b914cde63" x="297.243493" y="182.710659" style="fill: #4169e1; stroke: #4169e1"/>
     <use xlink:href="#m8b914cde63" x="398.582551" y="240.933148" style="fill: #4169e1; stroke: #4169e1"/>
     <use xlink:href="#m8b914cde63" x="332.874852" y="170.998894" style="fill: #4169e1; stroke: #4169e1"/>
     <use xlink:href="#m8b914cde63" x="285.969863" y="279.296512" style="fill: #4169e1; stroke: #4169e1"/>
     <use xlink:href="#m8b914cde63" x="293.934008" y="282.95452" style="fill: #4169e1; stroke: #4169e1"/>
     <use xlink:href="#m8b914cde63" x="349.157189" y="249.883061" style="fill: #4169e1; stroke: #4169e1"/>
     <use xlink:href="#m8b914cde63" x="334.804901" y="185.562723" style="fill: #4169e1; stroke: #4169e1"/>
     <use xlink:href="#m8b914cde63" x="293.262927" y="262.924438" style="fill: #4169e1; stroke: #4169e1"/>
     <use xlink:href="#m8b914cde63" x="369.37972" y="352.27889" style="fill: #4169e1; stroke: #4169e1"/>
     <use xlink:href="#m8b914cde63" x="225.656572" y="242.337861" style="fill: #4169e1; stroke: #4169e1"/>
     <use xlink:href="#m8b914cde63" x="420.981867" y="305.936938" style="fill: #4169e1; stroke: #4169e1"/>
     <use xlink:href="#m8b914cde63" x="257.344041" y="124.239254" style="fill: #4169e1; stroke: #4169e1"/>
     <use xlink:href="#m8b914cde63" x="324.066883" y="43.54406" style="fill: #4169e1; stroke: #4169e1"/>
     <use xlink:href="#m8b914cde63" x="462.572357" y="154.317031" style="fill: #4169e1; stroke: #4169e1"/>
     <use xlink:href="#m8b914cde63" x="272.600113" y="172.438785" style="fill: #4169e1; stroke: #4169e1"/>
     <use xlink:href="#m8b914cde63" x="338.114234" y="171.144905" style="fill: #4169e1; stroke: #4169e1"/>
     <use xlink:href="#m8b914cde63" x="357.879575" y="110.787001" style="fill: #4169e1; stroke: #4169e1"/>
     <use xlink:href="#m8b914cde63" x="376.298513" y="107.775022" style="fill: #4169e1; stroke: #4169e1"/>
     <use xlink:href="#m8b914cde63" x="258.922249" y="154.915833" style="fill: #4169e1; stroke: #4169e1"/>
     <use xlink:href="#m8b914cde63" x="350.222371" y="98.584002" style="fill: #4169e1; stroke: #4169e1"/>
     <use xlink:href="#m8b914cde63" x="187.616919" y="252.951163" style="fill: #4169e1; stroke: #4169e1"/>
     <use xlink:href="#m8b914cde63" x="307.325814" y="82.708739" style="fill: #4169e1; stroke: #4169e1"/>
     <use xlink:href="#m8b914cde63" x="322.651248" y="272.839917" style="fill: #4169e1; stroke: #4169e1"/>
     <use xlink:href="#m8b914cde63" x="269.740916" y="258.538032" style="fill: #4169e1; stroke: #4169e1"/>
     <use xlink:href="#m8b914cde63" x="190.348476" y="190.491367" style="fill: #4169e1; stroke: #4169e1"/>
     <use xlink:href="#m8b914cde63" x="234.335619" y="160.796026" style="fill: #4169e1; stroke: #4169e1"/>
     <use xlink:href="#m8b914cde63" x="238.540867" y="186.6027" style="fill: #4169e1; stroke: #4169e1"/>
     <use xlink:href="#m8b914cde63" x="241.143792" y="221.234986" style="fill: #4169e1; stroke: #4169e1"/>
     <use xlink:href="#m8b914cde63" x="399.480026" y="167.792592" style="fill: #4169e1; stroke: #4169e1"/>
     <use xlink:href="#m8b914cde63" x="224.754539" y="167.878364" style="fill: #4169e1; stroke: #4169e1"/>
     <use xlink:href="#m8b914cde63" x="334.538709" y="288.59916" style="fill: #4169e1; stroke: #4169e1"/>
     <use xlink:href="#m8b914cde63" x="279.218843" y="180.179605" style="fill: #4169e1; stroke: #4169e1"/>
     <use xlink:href="#m8b914cde63" x="327.024295" y="162.483102" style="fill: #4169e1; stroke: #4169e1"/>
     <use xlink:href="#m8b914cde63" x="422.146013" y="257.04875" style="fill: #4169e1; stroke: #4169e1"/>
     <use xlink:href="#m8b914cde63" x="337.783428" y="177.597835" style="fill: #4169e1; stroke: #4169e1"/>
     <use xlink:href="#m8b914cde63" x="329.488888" y="281.977427" style="fill: #4169e1; stroke: #4169e1"/>
     <use xlink:href="#m8b914cde63" x="260.040153" y="319.530119" style="fill: #4169e1; stroke: #4169e1"/>
     <use xlink:href="#m8b914cde63" x="375.15618" y="252.009004" style="fill: #4169e1; stroke: #4169e1"/>
     <use xlink:href="#m8b914cde63" x="451.417967" y="259.877112" style="fill: #4169e1; stroke: #4169e1"/>
     <use xlink:href="#m8b914cde63" x="314.690519" y="287.297931" style="fill: #4169e1; stroke: #4169e1"/>
     <use xlink:href="#m8b914cde63" x="233.557212" y="274.997181" style="fill: #4169e1; stroke: #4169e1"/>
     <use xlink:href="#m8b914cde63" x="222.187255" y="166.456185" style="fill: #4169e1; stroke: #4169e1"/>
     <use xlink:href="#m8b914cde63" x="261.981188" y="243.982922" style="fill: #4169e1; stroke: #4169e1"/>
     <use xlink:href="#m8b914cde63" x="352.191371" y="204.687763" style="fill: #4169e1; stroke: #4169e1"/>
     <use xlink:href="#m8b914cde63" x="423.060136" y="128.720156" style="fill: #4169e1; stroke: #4169e1"/>
     <use xlink:href="#m8b914cde63" x="142.177559" y="238.680343" style="fill: #4169e1; stroke: #4169e1"/>
     <use xlink:href="#m8b914cde63" x="410.699588" y="312.294028" style="fill: #4169e1; stroke: #4169e1"/>
     <use xlink:href="#m8b914cde63" x="382.732558" y="222.872264" style="fill: #4169e1; stroke: #4169e1"/>
     <use xlink:href="#m8b914cde63" x="368.332945" y="176.392773" style="fill: #4169e1; stroke: #4169e1"/>
     <use xlink:href="#m8b914cde63" x="216.67914" y="254.008096" style="fill: #4169e1; stroke: #4169e1"/>
     <use xlink:href="#m8b914cde63" x="286.391789" y="230.164206" style="fill: #4169e1; stroke: #4169e1"/>
     <use xlink:href="#m8b914cde63" x="245.528868" y="351.393163" style="fill: #4169e1; stroke: #4169e1"/>
    </g>
   </g>
   <g id="PathCollection_2">
    <defs>
     <path id="mb040bb90a3" d="M 0 2.5 
C 0.663008 2.5 1.29895 2.236584 1.767767 1.767767 
C 2.236584 1.29895 2.5 0.663008 2.5 0 
C 2.5 -0.663008 2.236584 -1.29895 1.767767 -1.767767 
C 1.29895 -2.236584 0.663008 -2.5 0 -2.5 
C -0.663008 -2.5 -1.29895 -2.236584 -1.767767 -1.767767 
C -2.236584 -1.29895 -2.5 -0.663008 -2.5 0 
C -2.5 0.663008 -2.236584 1.29895 -1.767767 1.767767 
C -1.29895 2.236584 -0.663008 2.5 0 2.5 
z
" style="stroke: #b22222"/>
    </defs>
    <g clip-path="url(#p7e9fdc0032)">
     <use xlink:href="#mb040bb90a3" x="281.725852" y="248.827904" style="fill: #b22222; stroke: #b22222"/>
     <use xlink:href="#mb040bb90a3" x="251.262178" y="169.954975" style="fill: #b22222; stroke: #b22222"/>
     <use xlink:href="#mb040bb90a3" x="264.447916" y="186.187543" style="fill: #b22222; stroke: #b22222"/>
     <use xlink:href="#mb040bb90a3" x="277.806557" y="202.1103" style="fill: #b22222; stroke: #b22222"/>
     <use xlink:href="#mb040bb90a3" x="281.781149" y="224.406405" style="fill: #b22222; stroke: #b22222"/>
     <use xlink:href="#mb040bb90a3" x="278.314985" y="198.574748" style="fill: #b22222; stroke: #b22222"/>
     <use xlink:href="#mb040bb90a3" x="277.860165" y="213.607632" style="fill: #b22222; stroke: #b22222"/>
     <use xlink:href="#mb040bb90a3" x="293.301081" y="188.098165" style="fill: #b22222; stroke: #b22222"/>
     <use xlink:href="#mb040bb90a3" x="282.317925" y="216.810423" style="fill: #b22222; stroke: #b22222"/>
     <use xlink:href="#mb040bb90a3" x="281.8473" y="232.01168" style="fill: #b22222; stroke: #b22222"/>
     <use xlink:href="#mb040bb90a3" x="295.210729" y="220.217695" style="fill: #b22222; stroke: #b22222"/>
     <use xlink:href="#mb040bb90a3" x="284.861999" y="243.989686" style="fill: #b22222; stroke: #b22222"/>
     <use xlink:href="#mb040bb90a3" x="281.168253" y="197.875451" style="fill: #b22222; stroke: #b22222"/>
     <use xlink:href="#mb040bb90a3" x="262.265209" y="201.700498" style="fill: #b22222; stroke: #b22222"/>
     <use xlink:href="#mb040bb90a3" x="271.478107" y="205.290223" style="fill: #b22222; stroke: #b22222"/>
     <use xlink:href="#mb040bb90a3" x="273.204984" y="201.068398" style="fill: #b22222; stroke: #b22222"/>
     <use xlink:href="#mb040bb90a3" x="255.881889" y="182.318704" style="fill: #b22222; stroke: #b22222"/>
     <use xlink:href="#mb040bb90a3" x="260.731148" y="186.066139" style="fill: #b22222; stroke: #b22222"/>
     <use xlink:href="#mb040bb90a3" x="287.840238" y="199.506854" style="fill: #b22222; stroke: #b22222"/>
     <use xlink:href="#mb040bb90a3" x="272.519065" y="194.205529" style="fill: #b22222; stroke: #b22222"/>
     <use xlink:href="#mb040bb90a3" x="267.693294" y="195.084529" style="fill: #b22222; stroke: #b22222"/>
     <use xlink:href="#mb040bb90a3" x="287.716213" y="218.076018" style="fill: #b22222; stroke: #b22222"/>
     <use xlink:href="#mb040bb90a3" x="294.997733" y="217.59023" style="fill: #b22222; stroke: #b22222"/>
     <use xlink:href="#mb040bb90a3" x="287.984331" y="213.323264" style="fill: #b22222; stroke: #b22222"/>
     <use xlink:href="#mb040bb90a3" x="277.290893" y="249.302856" style="fill: #b22222; stroke: #b22222"/>
     <use xlink:href="#mb040bb90a3" x="283.573557" y="187.702428" style="fill: #b22222; stroke: #b22222"/>
     <use xlink:href="#mb040bb90a3" x="255.037221" y="182.12482" style="fill: #b22222; stroke: #b22222"/>
     <use xlink:href="#mb040bb90a3" x="280.565309" y="248.632676" style="fill: #b22222; stroke: #b22222"/>
     <use xlink:href="#mb040bb90a3" x="273.383347" y="214.535757" style="fill: #b22222; stroke: #b22222"/>
     <use xlink:href="#mb040bb90a3" x="262.563206" y="181.734243" style="fill: #b22222; stroke: #b22222"/>
     <use xlink:href="#mb040bb90a3" x="266.30855" y="186.849249" style="fill: #b22222; stroke: #b22222"/>
     <use xlink:href="#mb040bb90a3" x="285.643165" y="200.206679" style="fill: #b22222; stroke: #b22222"/>
     <use xlink:href="#mb040bb90a3" x="277.043891" y="193.632599" style="fill: #b22222; stroke: #b22222"/>
     <use xlink:href="#mb040bb90a3" x="278.406503" y="231.639554" style="fill: #b22222; stroke: #b22222"/>
     <use xlink:href="#mb040bb90a3" x="276.2241" y="193.689136" style="fill: #b22222; stroke: #b22222"/>
     <use xlink:href="#mb040bb90a3" x="259.549568" y="190.829797" style="fill: #b22222; stroke: #b22222"/>
     <use xlink:href="#mb040bb90a3" x="278.77721" y="231.381898" style="fill: #b22222; stroke: #b22222"/>
     <use xlink:href="#mb040bb90a3" x="306.532389" y="221.81913" style="fill: #b22222; stroke: #b22222"/>
     <use xlink:href="#mb040bb90a3" x="271.499833" y="208.666245" style="fill: #b22222; stroke: #b22222"/>
     <use xlink:href="#mb040bb90a3" x="287.031331" y="226.454359" style="fill: #b22222; stroke: #b22222"/>
     <use xlink:href="#mb040bb90a3" x="281.933359" y="191.947912" style="fill: #b22222; stroke: #b22222"/>
     <use xlink:href="#mb040bb90a3" x="283.171372" y="235.786564" style="fill: #b22222; stroke: #b22222"/>
     <use xlink:href="#mb040bb90a3" x="268.3581" y="211.532789" style="fill: #b22222; stroke: #b22222"/>
     <use xlink:href="#mb040bb90a3" x="261.017923" y="200.534473" style="fill: #b22222; stroke: #b22222"/>
     <use xlink:href="#mb040bb90a3" x="284.720379" y="217.339608" style="fill: #b22222; stroke: #b22222"/>
     <use xlink:href="#mb040bb90a3" x="296.961951" y="215.062353" style="fill: #b22222; stroke: #b22222"/>
     <use xlink:href="#mb040bb90a3" x="262.41003" y="188.559728" style="fill: #b22222; stroke: #b22222"/>
     <use xlink:href="#mb040bb90a3" x="269.709855" y="180.937103" style="fill: #b22222; stroke: #b22222"/>
     <use xlink:href="#mb040bb90a3" x="286.284379" y="199.060214" style="fill: #b22222; stroke: #b22222"/>
     <use xlink:href="#mb040bb90a3" x="288.744161" y="213.50131" style="fill: #b22222; stroke: #b22222"/>
     <use xlink:href="#mb040bb90a3" x="279.728374" y="196.888508" style="fill: #b22222; stroke: #b22222"/>
     <use xlink:href="#mb040bb90a3" x="287.725329" y="204.326107" style="fill: #b22222; stroke: #b22222"/>
     <use xlink:href="#mb040bb90a3" x="285.899798" y="226.123436" style="fill: #b22222; stroke: #b22222"/>
     <use xlink:href="#mb040bb90a3" x="296.20648" y="254.400582" style="fill: #b22222; stroke: #b22222"/>
     <use xlink:href="#mb040bb90a3" x="281.419448" y="241.858334" style="fill: #b22222; stroke: #b22222"/>
     <use xlink:href="#mb040bb90a3" x="275.963121" y="200.678125" style="fill: #b22222; stroke: #b22222"/>
    </g>
   </g>
   <g id="patch_4">
    <path d="M 56.450156 450.72 
L 56.450156 7.2 
" style="fill: none; stroke: #ffffff; stroke-width: 1.25; stroke-linejoin: miter; stroke-linecap: square"/>
   </g>
   <g id="patch_5">
    <path d="M 499.970156 450.72 
L 499.970156 7.2 
" style="fill: none; stroke: #ffffff; stroke-width: 1.25; stroke-linejoin: miter; stroke-linecap: square"/>
   </g>
   <g id="patch_6">
    <path d="M 56.450156 450.72 
L 499.970156 450.72 
" style="fill: none; stroke: #ffffff; stroke-width: 1.25; stroke-linejoin: miter; stroke-linecap: square"/>
   </g>
   <g id="patch_7">
    <path d="M 56.450156 7.2 
L 499.970156 7.2 
" style="fill: none; stroke: #ffffff; stroke-width: 1.25; stroke-linejoin: miter; stroke-linecap: square"/>
   </g>
   <g id="text_13">
    <!-- t = 4100 -->
    <g style="fill: #262626" transform="translate(65.320556 24.659775) scale(0.12 -0.12)">
     <defs>
      <path id="ArialMT-74" d="M 1650 503 
L 1731 6 
Q 1494 -44 1306 -44 
Q 1000 -44 831 53 
Q 663 150 594 308 
Q 525 466 525 972 
L 525 2881 
L 113 2881 
L 113 3319 
L 525 3319 
L 525 4141 
L 1084 4478 
L 1084 3319 
L 1650 3319 
L 1650 2881 
L 1084 2881 
L 1084 941 
Q 1084 700 1114 631 
Q 1144 563 1211 522 
Q 1278 481 1403 481 
Q 1497 481 1650 503 
z
" transform="scale(0.015625)"/>
      <path id="ArialMT-20" transform="scale(0.015625)"/>
      <path id="ArialMT-3d" d="M 3381 2694 
L 356 2694 
L 356 3219 
L 3381 3219 
L 3381 2694 
z
M 3381 1303 
L 356 1303 
L 356 1828 
L 3381 1828 
L 3381 1303 
z
" transform="scale(0.015625)"/>
      <path id="ArialMT-31" d="M 2384 0 
L 1822 0 
L 1822 3584 
Q 1619 3391 1289 3197 
Q 959 3003 697 2906 
L 697 3450 
Q 1169 3672 1522 3987 
Q 1875 4303 2022 4600 
L 2384 4600 
L 2384 0 
z
" transform="scale(0.015625)"/>
     </defs>
     <use xlink:href="#ArialMT-74"/>
     <use xlink:href="#ArialMT-20" x="27.783203"/>
     <use xlink:href="#ArialMT-3d" x="55.566406"/>
     <use xlink:href="#ArialMT-20" x="113.964844"/>
     <use xlink:href="#ArialMT-34" x="141.748047"/>
     <use xlink:href="#ArialMT-31" x="197.363281"/>
     <use xlink:href="#ArialMT-30" x="252.978516"/>
     <use xlink:href="#ArialMT-30" x="308.59375"/>
    </g>
   </g>
   <g id="legend_1">
    <g id="patch_8">
     <path d="M 328.111406 94.59 
L 483.170156 94.59 
Q 487.970156 94.59 487.970156 89.79 
L 487.970156 24 
Q 487.970156 19.2 483.170156 19.2 
L 328.111406 19.2 
Q 323.311406 19.2 323.311406 24 
L 323.311406 89.79 
Q 323.311406 94.59 328.111406 94.59 
z
" style="fill: #eaeaf2; opacity: 0.8; stroke: #cccccc; stroke-linejoin: miter"/>
    </g>
    <g id="PathCollection_3">
     <g>
      <use xlink:href="#m8b914cde63" x="356.911406" y="39.97125" style="fill: #4169e1; stroke: #4169e1"/>
     </g>
    </g>
    <g id="text_14">
     <!-- Sheep -->
     <g style="fill: #262626" transform="translate(400.111406 46.27125) scale(0.24 -0.24)">
      <defs>
       <path id="ArialMT-53" d="M 288 1472 
L 859 1522 
Q 900 1178 1048 958 
Q 1197 738 1509 602 
Q 1822 466 2213 466 
Q 2559 466 2825 569 
Q 3091 672 3220 851 
Q 3350 1031 3350 1244 
Q 3350 1459 3225 1620 
Q 3100 1781 2813 1891 
Q 2628 1963 1997 2114 
Q 1366 2266 1113 2400 
Q 784 2572 623 2826 
Q 463 3081 463 3397 
Q 463 3744 659 4045 
Q 856 4347 1234 4503 
Q 1613 4659 2075 4659 
Q 2584 4659 2973 4495 
Q 3363 4331 3572 4012 
Q 3781 3694 3797 3291 
L 3216 3247 
Q 3169 3681 2898 3903 
Q 2628 4125 2100 4125 
Q 1550 4125 1298 3923 
Q 1047 3722 1047 3438 
Q 1047 3191 1225 3031 
Q 1400 2872 2139 2705 
Q 2878 2538 3153 2413 
Q 3553 2228 3743 1945 
Q 3934 1663 3934 1294 
Q 3934 928 3725 604 
Q 3516 281 3123 101 
Q 2731 -78 2241 -78 
Q 1619 -78 1198 103 
Q 778 284 539 648 
Q 300 1013 288 1472 
z
" transform="scale(0.015625)"/>
       <path id="ArialMT-68" d="M 422 0 
L 422 4581 
L 984 4581 
L 984 2938 
Q 1378 3394 1978 3394 
Q 2347 3394 2619 3248 
Q 2891 3103 3008 2847 
Q 3125 2591 3125 2103 
L 3125 0 
L 2563 0 
L 2563 2103 
Q 2563 2525 2380 2717 
Q 2197 2909 1863 2909 
Q 1613 2909 1392 2779 
Q 1172 2650 1078 2428 
Q 984 2206 984 1816 
L 984 0 
L 422 0 
z
" transform="scale(0.015625)"/>
       <path id="ArialMT-65" d="M 2694 1069 
L 3275 997 
Q 3138 488 2766 206 
Q 2394 -75 1816 -75 
Q 1088 -75 661 373 
Q 234 822 234 1631 
Q 234 2469 665 2931 
Q 1097 3394 1784 3394 
Q 2450 3394 2872 2941 
Q 3294 2488 3294 1666 
Q 3294 1616 3291 1516 
L 816 1516 
Q 847 969 1125 678 
Q 1403 388 1819 388 
Q 2128 388 2347 550 
Q 2566 713 2694 1069 
z
M 847 1978 
L 2700 1978 
Q 2663 2397 2488 2606 
Q 2219 2931 1791 2931 
Q 1403 2931 1139 2672 
Q 875 2413 847 1978 
z
" transform="scale(0.015625)"/>
       <path id="ArialMT-70" d="M 422 -1272 
L 422 3319 
L 934 3319 
L 934 2888 
Q 1116 3141 1344 3267 
Q 1572 3394 1897 3394 
Q 2322 3394 2647 3175 
Q 2972 2956 3137 2557 
Q 3303 2159 3303 1684 
Q 3303 1175 3120 767 
Q 2938 359 2589 142 
Q 2241 -75 1856 -75 
Q 1575 -75 1351 44 
Q 1128 163 984 344 
L 984 -1272 
L 422 -1272 
z
M 931 1641 
Q 931 1000 1190 694 
Q 1450 388 1819 388 
Q 2194 388 2461 705 
Q 2728 1022 2728 1688 
Q 2728 2322 2467 2637 
Q 2206 2953 1844 2953 
Q 1484 2953 1207 2617 
Q 931 2281 931 1641 
z
" transform="scale(0.015625)"/>
      </defs>
      <use xlink:href="#ArialMT-53"/>
      <use xlink:href="#ArialMT-68" x="66.699219"/>
      <use xlink:href="#ArialMT-65" x="122.314453"/>
      <use xlink:href="#ArialMT-65" x="177.929688"/>
      <use xlink:href="#ArialMT-70" x="233.544922"/>
     </g>
    </g>
    <g id="PathCollection_4">
     <g>
      <use xlink:href="#mb040bb90a3" x="356.911406" y="73.92" style="fill: #b22222; stroke: #b22222"/>
     </g>
    </g>
    <g id="text_15">
     <!-- Wolves -->
     <g style="fill: #262626" transform="translate(400.111406 80.22) scale(0.24 -0.24)">
      <defs>
       <path id="ArialMT-57" d="M 1294 0 
L 78 4581 
L 700 4581 
L 1397 1578 
Q 1509 1106 1591 641 
Q 1766 1375 1797 1488 
L 2669 4581 
L 3400 4581 
L 4056 2263 
Q 4303 1400 4413 641 
Q 4500 1075 4641 1638 
L 5359 4581 
L 5969 4581 
L 4713 0 
L 4128 0 
L 3163 3491 
Q 3041 3928 3019 4028 
Q 2947 3713 2884 3491 
L 1913 0 
L 1294 0 
z
" transform="scale(0.015625)"/>
       <path id="ArialMT-6f" d="M 213 1659 
Q 213 2581 725 3025 
Q 1153 3394 1769 3394 
Q 2453 3394 2887 2945 
Q 3322 2497 3322 1706 
Q 3322 1066 3130 698 
Q 2938 331 2570 128 
Q 2203 -75 1769 -75 
Q 1072 -75 642 372 
Q 213 819 213 1659 
z
M 791 1659 
Q 791 1022 1069 705 
Q 1347 388 1769 388 
Q 2188 388 2466 706 
Q 2744 1025 2744 1678 
Q 2744 2294 2464 2611 
Q 2184 2928 1769 2928 
Q 1347 2928 1069 2612 
Q 791 2297 791 1659 
z
" transform="scale(0.015625)"/>
       <path id="ArialMT-6c" d="M 409 0 
L 409 4581 
L 972 4581 
L 972 0 
L 409 0 
z
" transform="scale(0.015625)"/>
       <path id="ArialMT-76" d="M 1344 0 
L 81 3319 
L 675 3319 
L 1388 1331 
Q 1503 1009 1600 663 
Q 1675 925 1809 1294 
L 2547 3319 
L 3125 3319 
L 1869 0 
L 1344 0 
z
" transform="scale(0.015625)"/>
       <path id="ArialMT-73" d="M 197 991 
L 753 1078 
Q 800 744 1014 566 
Q 1228 388 1613 388 
Q 2000 388 2187 545 
Q 2375 703 2375 916 
Q 2375 1106 2209 1216 
Q 2094 1291 1634 1406 
Q 1016 1563 777 1677 
Q 538 1791 414 1992 
Q 291 2194 291 2438 
Q 291 2659 392 2848 
Q 494 3038 669 3163 
Q 800 3259 1026 3326 
Q 1253 3394 1513 3394 
Q 1903 3394 2198 3281 
Q 2494 3169 2634 2976 
Q 2775 2784 2828 2463 
L 2278 2388 
Q 2241 2644 2061 2787 
Q 1881 2931 1553 2931 
Q 1166 2931 1000 2803 
Q 834 2675 834 2503 
Q 834 2394 903 2306 
Q 972 2216 1119 2156 
Q 1203 2125 1616 2013 
Q 2213 1853 2448 1751 
Q 2684 1650 2818 1456 
Q 2953 1263 2953 975 
Q 2953 694 2789 445 
Q 2625 197 2315 61 
Q 2006 -75 1616 -75 
Q 969 -75 630 194 
Q 291 463 197 991 
z
" transform="scale(0.015625)"/>
      </defs>
      <use xlink:href="#ArialMT-57"/>
      <use xlink:href="#ArialMT-6f" x="92.634766"/>
      <use xlink:href="#ArialMT-6c" x="148.25"/>
      <use xlink:href="#ArialMT-76" x="170.466797"/>
      <use xlink:href="#ArialMT-65" x="220.466797"/>
      <use xlink:href="#ArialMT-73" x="276.082031"/>
     </g>
    </g>
   </g>
  </g>
 </g>
 <defs>
  <clipPath id="p7e9fdc0032">
   <rect x="56.450156" y="7.2" width="443.52" height="443.52"/>
  </clipPath>
 </defs>
</svg>
