<?xml version="1.0" encoding="utf-8" standalone="no"?>
<!DOCTYPE svg PUBLIC "-//W3C//DTD SVG 1.1//EN"
  "http://www.w3.org/Graphics/SVG/1.1/DTD/svg11.dtd">
<svg xmlns:xlink="http://www.w3.org/1999/xlink" width="507.170156pt" height="492.454219pt" viewBox="0 0 507.170156 492.454219" xmlns="http://www.w3.org/2000/svg" version="1.1">
 <metadata>
  <rdf:RDF xmlns:dc="http://purl.org/dc/elements/1.1/" xmlns:cc="http://creativecommons.org/ns#" xmlns:rdf="http://www.w3.org/1999/02/22-rdf-syntax-ns#">
   <cc:Work>
    <dc:type rdf:resource="http://purl.org/dc/dcmitype/StillImage"/>
    <dc:date>2026-05-12T10:43:19.219562</dc:date>
    <dc:format>image/svg+xml</dc:format>
    <dc:creator>
     <cc:Agent>
      <dc:title>Matplotlib v3.7.1, https://matplotlib.org/</dc:title>
     </cc:Agent>
    </dc:creator>
   </cc:Work>
  </rdf:RDF>
 </metadata>
 <defs>
  <style type="text/css">*{stroke-linejoin: round; stroke-linecap: butt}</style>
 </defs>
 <g id="figure_1">
  <g id="patch_1">
   <path d="M 0 492.454219 
L 507.170156 492.454219 
L 507.170156 0 
L 0 0 
z
" style="fill: #ffffff"/>
  </g>
  <g id="axes_1">
   <g id="patch_2">
    <path d="M 56.450156 450.72 
L 499.970156 450.72 
L 499.970156 7.2 
L 56.450156 7.2 
z
" style="fill: #eaeaf2"/>
   </g>
   <g id="matplotlib.axis_1">
    <g id="xtick_1">
     <g id="line2d_1">
      <path d="M 100.802156 450.72 
L 100.802156 7.2 
" clip-path="url(#p5320898f41)" style="fill: none; stroke: #ffffff; stroke-linecap: round"/>
     </g>
     <g id="text_1">
      <!-- −400 -->
      <g style="fill: #262626" transform="translate(88.414266 468.093594) scale(0.11 -0.11)">
       <defs>
        <path id="ArialMT-2212" d="M 3381 1997 
L 356 1997 
L 356 2522 
L 3381 2522 
L 3381 1997 
z
" transform="scale(0.015625)"/>
        <path id="ArialMT-34" d="M 2069 0 
L 2069 1097 
L 81 1097 
L 81 1613 
L 2172 4581 
L 2631 4581 
L 2631 1613 
L 3250 1613 
L 3250 1097 
L 2631 1097 
L 2631 0 
L 2069 0 
z
M 2069 1613 
L 2069 3678 
L 634 1613 
L 2069 1613 
z
" transform="scale(0.015625)"/>
        <path id="ArialMT-30" d="M 266 2259 
Q 266 3072 433 3567 
Q 600 4063 929 4331 
Q 1259 4600 1759 4600 
Q 2128 4600 2406 4451 
Q 2684 4303 2865 4023 
Q 3047 3744 3150 3342 
Q 3253 2941 3253 2259 
Q 3253 1453 3087 958 
Q 2922 463 2592 192 
Q 2263 -78 1759 -78 
Q 1097 -78 719 397 
Q 266 969 266 2259 
z
M 844 2259 
Q 844 1131 1108 757 
Q 1372 384 1759 384 
Q 2147 384 2411 759 
Q 2675 1134 2675 2259 
Q 2675 3391 2411 3762 
Q 2147 4134 1753 4134 
Q 1366 4134 1134 3806 
Q 844 3388 844 2259 
z
" transform="scale(0.015625)"/>
       </defs>
       <use xlink:href="#ArialMT-2212"/>
       <use xlink:href="#ArialMT-34" x="58.398438"/>
       <use xlink:href="#ArialMT-30" x="114.013672"/>
       <use xlink:href="#ArialMT-30" x="169.628906"/>
      </g>
     </g>
    </g>
    <g id="xtick_2">
     <g id="line2d_2">
      <path d="M 189.506156 450.72 
L 189.506156 7.2 
" clip-path="url(#p5320898f41)" style="fill: none; stroke: #ffffff; stroke-linecap: round"/>
     </g>
     <g id="text_2">
      <!-- −200 -->
      <g style="fill: #262626" transform="translate(177.118266 468.093594) scale(0.11 -0.11)">
       <defs>
        <path id="ArialMT-32" d="M 3222 541 
L 3222 0 
L 194 0 
Q 188 203 259 391 
Q 375 700 629 1000 
Q 884 1300 1366 1694 
Q 2113 2306 2375 2664 
Q 2638 3022 2638 3341 
Q 2638 3675 2398 3904 
Q 2159 4134 1775 4134 
Q 1369 4134 1125 3890 
Q 881 3647 878 3216 
L 300 3275 
Q 359 3922 746 4261 
Q 1134 4600 1788 4600 
Q 2447 4600 2831 4234 
Q 3216 3869 3216 3328 
Q 3216 3053 3103 2787 
Q 2991 2522 2730 2228 
Q 2469 1934 1863 1422 
Q 1356 997 1212 845 
Q 1069 694 975 541 
L 3222 541 
z
" transform="scale(0.015625)"/>
       </defs>
       <use xlink:href="#ArialMT-2212"/>
       <use xlink:href="#ArialMT-32" x="58.398438"/>
       <use xlink:href="#ArialMT-30" x="114.013672"/>
       <use xlink:href="#ArialMT-30" x="169.628906"/>
      </g>
     </g>
    </g>
    <g id="xtick_3">
     <g id="line2d_3">
      <path d="M 278.210156 450.72 
L 278.210156 7.2 
" clip-path="url(#p5320898f41)" style="fill: none; stroke: #ffffff; stroke-linecap: round"/>
     </g>
     <g id="text_3">
      <!-- 0 -->
      <g style="fill: #262626" transform="translate(275.151641 468.093594) scale(0.11 -0.11)">
       <use xlink:href="#ArialMT-30"/>
      </g>
     </g>
    </g>
    <g id="xtick_4">
     <g id="line2d_4">
      <path d="M 366.914156 450.72 
L 366.914156 7.2 
" clip-path="url(#p5320898f41)" style="fill: none; stroke: #ffffff; stroke-linecap: round"/>
     </g>
     <g id="text_4">
      <!-- 200 -->
      <g style="fill: #262626" transform="translate(357.738609 468.093594) scale(0.11 -0.11)">
       <use xlink:href="#ArialMT-32"/>
       <use xlink:href="#ArialMT-30" x="55.615234"/>
       <use xlink:href="#ArialMT-30" x="111.230469"/>
      </g>
     </g>
    </g>
    <g id="xtick_5">
     <g id="line2d_5">
      <path d="M 455.618156 450.72 
L 455.618156 7.2 
" clip-path="url(#p5320898f41)" style="fill: none; stroke: #ffffff; stroke-linecap: round"/>
     </g>
     <g id="text_5">
      <!-- 400 -->
      <g style="fill: #262626" transform="translate(446.442609 468.093594) scale(0.11 -0.11)">
       <use xlink:href="#ArialMT-34"/>
       <use xlink:href="#ArialMT-30" x="55.615234"/>
       <use xlink:href="#ArialMT-30" x="111.230469"/>
      </g>
     </g>
    </g>
    <g id="text_6">
     <!-- x -->
     <g style="fill: #262626" transform="translate(275.210156 482.869219) scale(0.12 -0.12)">
      <defs>
       <path id="ArialMT-78" d="M 47 0 
L 1259 1725 
L 138 3319 
L 841 3319 
L 1350 2541 
Q 1494 2319 1581 2169 
Q 1719 2375 1834 2534 
L 2394 3319 
L 3066 3319 
L 1919 1756 
L 3153 0 
L 2463 0 
L 1781 1031 
L 1600 1309 
L 728 0 
L 47 0 
z
" transform="scale(0.015625)"/>
      </defs>
      <use xlink:href="#ArialMT-78"/>
     </g>
    </g>
   </g>
   <g id="matplotlib.axis_2">
    <g id="ytick_1">
     <g id="line2d_6">
      <path d="M 56.450156 406.368 
L 499.970156 406.368 
" clip-path="url(#p5320898f41)" style="fill: none; stroke: #ffffff; stroke-linecap: round"/>
     </g>
     <g id="text_7">
      <!-- −400 -->
      <g style="fill: #262626" transform="translate(22.174375 410.304797) scale(0.11 -0.11)">
       <use xlink:href="#ArialMT-2212"/>
       <use xlink:href="#ArialMT-34" x="58.398438"/>
       <use xlink:href="#ArialMT-30" x="114.013672"/>
       <use xlink:href="#ArialMT-30" x="169.628906"/>
      </g>
     </g>
    </g>
    <g id="ytick_2">
     <g id="line2d_7">
      <path d="M 56.450156 317.664 
L 499.970156 317.664 
" clip-path="url(#p5320898f41)" style="fill: none; stroke: #ffffff; stroke-linecap: round"/>
     </g>
     <g id="text_8">
      <!-- −200 -->
      <g style="fill: #262626" transform="translate(22.174375 321.600797) scale(0.11 -0.11)">
       <use xlink:href="#ArialMT-2212"/>
       <use xlink:href="#ArialMT-32" x="58.398438"/>
       <use xlink:href="#ArialMT-30" x="114.013672"/>
       <use xlink:href="#ArialMT-30" x="169.628906"/>
      </g>
     </g>
    </g>
    <g id="ytick_3">
     <g id="line2d_8">
      <path d="M 56.450156 228.96 
L 499.970156 228.96 
" clip-path="url(#p5320898f41)" style="fill: none; stroke: #ffffff; stroke-linecap: round"/>
     </g>
     <g id="text_9">
      <!-- 0 -->
      <g style="fill: #262626" transform="translate(40.833125 232.896797) scale(0.11 -0.11)">
       <use xlink:href="#ArialMT-30"/>
      </g>
     </g>
    </g>
    <g id="ytick_4">
     <g id="line2d_9">
      <path d="M 56.450156 140.256 
L 499.970156 140.256 
" clip-path="url(#p5320898f41)" style="fill: none; stroke: #ffffff; stroke-linecap: round"/>
     </g>
     <g id="text_10">
      <!-- 200 -->
      <g style="fill: #262626" transform="translate(28.599063 144.192797) scale(0.11 -0.11)">
       <use xlink:href="#ArialMT-32"/>
       <use xlink:href="#ArialMT-30" x="55.615234"/>
       <use xlink:href="#ArialMT-30" x="111.230469"/>
      </g>
     </g>
    </g>
    <g id="ytick_5">
     <g id="line2d_10">
      <path d="M 56.450156 51.552 
L 499.970156 51.552 
" clip-path="url(#p5320898f41)" style="fill: none; stroke: #ffffff; stroke-linecap: round"/>
     </g>
     <g id="text_11">
      <!-- 400 -->
      <g style="fill: #262626" transform="translate(28.599063 55.488797) scale(0.11 -0.11)">
       <use xlink:href="#ArialMT-34"/>
       <use xlink:href="#ArialMT-30" x="55.615234"/>
       <use xlink:href="#ArialMT-30" x="111.230469"/>
      </g>
     </g>
    </g>
    <g id="text_12">
     <!-- y -->
     <g style="fill: #262626" transform="translate(15.64875 231.96) rotate(-90) scale(0.12 -0.12)">
      <defs>
       <path id="ArialMT-79" d="M 397 -1278 
L 334 -750 
Q 519 -800 656 -800 
Q 844 -800 956 -737 
Q 1069 -675 1141 -563 
Q 1194 -478 1313 -144 
Q 1328 -97 1363 -6 
L 103 3319 
L 709 3319 
L 1400 1397 
Q 1534 1031 1641 628 
Q 1738 1016 1872 1384 
L 2581 3319 
L 3144 3319 
L 1881 -56 
Q 1678 -603 1566 -809 
Q 1416 -1088 1222 -1217 
Q 1028 -1347 759 -1347 
Q 597 -1347 397 -1278 
z
" transform="scale(0.015625)"/>
      </defs>
      <use xlink:href="#ArialMT-79"/>
     </g>
    </g>
   </g>
   <g id="patch_3">
    <path d="M 278.210156 317.664 
C 301.734732 317.664 324.298969 308.317587 340.933356 291.6832 
C 357.567743 275.048813 366.914156 252.484576 366.914156 228.96 
C 366.914156 205.435424 357.567743 182.871187 340.933356 166.2368 
C 324.298969 149.602413 301.734732 140.256 278.210156 140.256 
C 254.68558 140.256 232.121343 149.602413 215.486956 166.2368 
C 198.852569 182.871187 189.506156 205.435424 189.506156 228.96 
C 189.506156 252.484576 198.852569 275.048813 215.486956 291.6832 
C 232.121343 308.317587 254.68558 317.664 278.210156 317.664 
z
" clip-path="url(#p5320898f41)" style="fill: #228b22; opacity: 0.12; stroke: #228b22; stroke-width: 1.5; stroke-linejoin: miter"/>
   </g>
   <g id="PathCollection_1">
    <defs>
     <path id="m3480df268b" d="M 0 2.236068 
C 0.593012 2.236068 1.161816 2.000462 1.581139 1.581139 
C 2.000462 1.161816 2.236068 0.593012 2.236068 0 
C 2.236068 -0.593012 2.000462 -1.161816 1.581139 -1.581139 
C 1.161816 -2.000462 0.593012 -2.236068 0 -2.236068 
C -0.593012 -2.236068 -1.161816 -2.000462 -1.581139 -1.581139 
C -2.000462 -1.161816 -2.236068 -0.593012 -2.236068 0 
C -2.236068 0.593012 -2.000462 1.161816 -1.581139 1.581139 
C -1.161816 2.000462 -0.593012 2.236068 0 2.236068 
z
" style="stroke: #4169e1"/>
    </defs>
    <g clip-path="url(#p5320898f41)">
     <use xlink:href="#m3480df268b" x="482.270557" y="119.237966" style="fill: #4169e1; stroke: #4169e1"/>
     <use xlink:href="#m3480df268b" x="351.54996" y="246.13991" style="fill: #4169e1; stroke: #4169e1"/>
     <use xlink:href="#m3480df268b" x="309.245014" y="145.015408" style="fill: #4169e1; stroke: #4169e1"/>
     <use xlink:href="#m3480df268b" x="265.022675" y="191.205059" style="fill: #4169e1; stroke: #4169e1"/>
     <use xlink:href="#m3480df268b" x="242.329012" y="175.628084" style="fill: #4169e1; stroke: #4169e1"/>
     <use xlink:href="#m3480df268b" x="388.037703" y="209.435617" style="fill: #4169e1; stroke: #4169e1"/>
     <use xlink:href="#m3480df268b" x="393.329408" y="335.910176" style="fill: #4169e1; stroke: #4169e1"/>
     <use xlink:href="#m3480df268b" x="194.441785" y="276.453466" style="fill: #4169e1; stroke: #4169e1"/>
     <use xlink:href="#m3480df268b" x="461.806592" y="281.085467" style="fill: #4169e1; stroke: #4169e1"/>
     <use xlink:href="#m3480df268b" x="402.571889" y="231.70502" style="fill: #4169e1; stroke: #4169e1"/>
     <use xlink:href="#m3480df268b" x="418.36494" y="140.658204" style="fill: #4169e1; stroke: #4169e1"/>
     <use xlink:href="#m3480df268b" x="355.76585" y="215.468867" style="fill: #4169e1; stroke: #4169e1"/>
     <use xlink:href="#m3480df268b" x="384.754737" y="133.952143" style="fill: #4169e1; stroke: #4169e1"/>
     <use xlink:href="#m3480df268b" x="370.577209" y="207.936375" style="fill: #4169e1; stroke: #4169e1"/>
     <use xlink:href="#m3480df268b" x="441.103271" y="164.022861" style="fill: #4169e1; stroke: #4169e1"/>
     <use xlink:href="#m3480df268b" x="427.733501" y="108.026248" style="fill: #4169e1; stroke: #4169e1"/>
     <use xlink:href="#m3480df268b" x="364.475744" y="206.843298" style="fill: #4169e1; stroke: #4169e1"/>
     <use xlink:href="#m3480df268b" x="285.861548" y="350.953351" style="fill: #4169e1; stroke: #4169e1"/>
     <use xlink:href="#m3480df268b" x="283.344274" y="147.019836" style="fill: #4169e1; stroke: #4169e1"/>
     <use xlink:href="#m3480df268b" x="453.174113" y="177.168083" style="fill: #4169e1; stroke: #4169e1"/>
     <use xlink:href="#m3480df268b" x="330.034798" y="310.850849" style="fill: #4169e1; stroke: #4169e1"/>
     <use xlink:href="#m3480df268b" x="317.264574" y="297.894348" style="fill: #4169e1; stroke: #4169e1"/>
     <use xlink:href="#m3480df268b" x="391.608352" y="355.865381" style="fill: #4169e1; stroke: #4169e1"/>
     <use xlink:href="#m3480df268b" x="265.606397" y="167.90894" style="fill: #4169e1; stroke: #4169e1"/>
     <use xlink:href="#m3480df268b" x="285.688212" y="242.775584" style="fill: #4169e1; stroke: #4169e1"/>
     <use xlink:href="#m3480df268b" x="365.895967" y="269.422362" style="fill: #4169e1; stroke: #4169e1"/>
     <use xlink:href="#m3480df268b" x="343.658822" y="241.815111" style="fill: #4169e1; stroke: #4169e1"/>
     <use xlink:href="#m3480df268b" x="306.795631" y="288.534097" style="fill: #4169e1; stroke: #4169e1"/>
     <use xlink:href="#m3480df268b" x="224.02943" y="235.072614" style="fill: #4169e1; stroke: #4169e1"/>
     <use xlink:href="#m3480df268b" x="458.638648" y="251.606472" style="fill: #4169e1; stroke: #4169e1"/>
     <use xlink:href="#m3480df268b" x="310.460238" y="121.410833" style="fill: #4169e1; stroke: #4169e1"/>
     <use xlink:href="#m3480df268b" x="199.155146" y="196.003048" style="fill: #4169e1; stroke: #4169e1"/>
     <use xlink:href="#m3480df268b" x="363.655784" y="247.68743" style="fill: #4169e1; stroke: #4169e1"/>
     <use xlink:href="#m3480df268b" x="433.16654" y="119.822245" style="fill: #4169e1; stroke: #4169e1"/>
     <use xlink:href="#m3480df268b" x="459.499308" y="215.146872" style="fill: #4169e1; stroke: #4169e1"/>
     <use xlink:href="#m3480df268b" x="368.760778" y="264.284162" style="fill: #4169e1; stroke: #4169e1"/>
     <use xlink:href="#m3480df268b" x="330.672459" y="207.708065" style="fill: #4169e1; stroke: #4169e1"/>
     <use xlink:href="#m3480df268b" x="288.597147" y="220.768089" style="fill: #4169e1; stroke: #4169e1"/>
     <use xlink:href="#m3480df268b" x="246.852962" y="332.24426" style="fill: #4169e1; stroke: #4169e1"/>
     <use xlink:href="#m3480df268b" x="376.811726" y="144.426385" style="fill: #4169e1; stroke: #4169e1"/>
     <use xlink:href="#m3480df268b" x="357.797295" y="140.504966" style="fill: #4169e1; stroke: #4169e1"/>
     <use xlink:href="#m3480df268b" x="407.441013" y="145.042945" style="fill: #4169e1; stroke: #4169e1"/>
     <use xlink:href="#m3480df268b" x="272.443341" y="289.694615" style="fill: #4169e1; stroke: #4169e1"/>
     <use xlink:href="#m3480df268b" x="347.927235" y="259.376802" style="fill: #4169e1; stroke: #4169e1"/>
     <use xlink:href="#m3480df268b" x="152.038638" y="232.384302" style="fill: #4169e1; stroke: #4169e1"/>
     <use xlink:href="#m3480df268b" x="223.232815" y="203.088102" style="fill: #4169e1; stroke: #4169e1"/>
     <use xlink:href="#m3480df268b" x="255.601106" y="346.244565" style="fill: #4169e1; stroke: #4169e1"/>
     <use xlink:href="#m3480df268b" x="468.986221" y="164.468405" style="fill: #4169e1; stroke: #4169e1"/>
     <use xlink:href="#m3480df268b" x="354.254264" y="184.59752" style="fill: #4169e1; stroke: #4169e1"/>
     <use xlink:href="#m3480df268b" x="354.298078" y="161.016351" style="fill: #4169e1; stroke: #4169e1"/>
     <use xlink:href="#m3480df268b" x="291.701767" y="102.541045" style="fill: #4169e1; stroke: #4169e1"/>
     <use xlink:href="#m3480df268b" x="424.306061" y="158.400642" style="fill: #4169e1; stroke: #4169e1"/>
     <use xlink:href="#m3480df268b" x="363.37874" y="221.441112" style="fill: #4169e1; stroke: #4169e1"/>
     <use xlink:href="#m3480df268b" x="375.425969" y="261.978127" style="fill: #4169e1; stroke: #4169e1"/>
     <use xlink:href="#m3480df268b" x="245.293499" y="152.977335" style="fill: #4169e1; stroke: #4169e1"/>
     <use xlink:href="#m3480df268b" x="314.338625" y="153.177817" style="fill: #4169e1; stroke: #4169e1"/>
     <use xlink:href="#m3480df268b" x="233.7176" y="309.602975" style="fill: #4169e1; stroke: #4169e1"/>
     <use xlink:href="#m3480df268b" x="314.330551" y="168.533269" style="fill: #4169e1; stroke: #4169e1"/>
     <use xlink:href="#m3480df268b" x="277.970009" y="299.743128" style="fill: #4169e1; stroke: #4169e1"/>
     <use xlink:href="#m3480df268b" x="276.304521" y="266.182894" style="fill: #4169e1; stroke: #4169e1"/>
     <use xlink:href="#m3480df268b" x="407.727444" y="166.781631" style="fill: #4169e1; stroke: #4169e1"/>
     <use xlink:href="#m3480df268b" x="352.653252" y="243.06936" style="fill: #4169e1; stroke: #4169e1"/>
     <use xlink:href="#m3480df268b" x="297.190585" y="248.252733" style="fill: #4169e1; stroke: #4169e1"/>
     <use xlink:href="#m3480df268b" x="352.398899" y="210.649373" style="fill: #4169e1; stroke: #4169e1"/>
     <use xlink:href="#m3480df268b" x="244.277587" y="133.675694" style="fill: #4169e1; stroke: #4169e1"/>
     <use xlink:href="#m3480df268b" x="262.587497" y="180.145933" style="fill: #4169e1; stroke: #4169e1"/>
     <use xlink:href="#m3480df268b" x="376.5757" y="175.279706" style="fill: #4169e1; stroke: #4169e1"/>
     <use xlink:href="#m3480df268b" x="413.071854" y="94.438616" style="fill: #4169e1; stroke: #4169e1"/>
     <use xlink:href="#m3480df268b" x="452.561742" y="271.108798" style="fill: #4169e1; stroke: #4169e1"/>
     <use xlink:href="#m3480df268b" x="339.804815" y="170.373239" style="fill: #4169e1; stroke: #4169e1"/>
     <use xlink:href="#m3480df268b" x="363.45899" y="158.824732" style="fill: #4169e1; stroke: #4169e1"/>
     <use xlink:href="#m3480df268b" x="444.199249" y="109.128511" style="fill: #4169e1; stroke: #4169e1"/>
     <use xlink:href="#m3480df268b" x="325.428026" y="286.525135" style="fill: #4169e1; stroke: #4169e1"/>
     <use xlink:href="#m3480df268b" x="407.008199" y="271.001126" style="fill: #4169e1; stroke: #4169e1"/>
     <use xlink:href="#m3480df268b" x="434.961843" y="105.543481" style="fill: #4169e1; stroke: #4169e1"/>
     <use xlink:href="#m3480df268b" x="355.217325" y="128.83067" style="fill: #4169e1; stroke: #4169e1"/>
     <use xlink:href="#m3480df268b" x="255.588987" y="279.458829" style="fill: #4169e1; stroke: #4169e1"/>
     <use xlink:href="#m3480df268b" x="438.875087" y="144.132205" style="fill: #4169e1; stroke: #4169e1"/>
     <use xlink:href="#m3480df268b" x="291.572829" y="311.512745" style="fill: #4169e1; stroke: #4169e1"/>
     <use xlink:href="#m3480df268b" x="458.891065" y="290.29251" style="fill: #4169e1; stroke: #4169e1"/>
     <use xlink:href="#m3480df268b" x="222.548498" y="323.106141" style="fill: #4169e1; stroke: #4169e1"/>
     <use xlink:href="#m3480df268b" x="321.681454" y="98.245717" style="fill: #4169e1; stroke: #4169e1"/>
     <use xlink:href="#m3480df268b" x="317.040049" y="160.88841" style="fill: #4169e1; stroke: #4169e1"/>
     <use xlink:href="#m3480df268b" x="228.651784" y="253.639525" style="fill: #4169e1; stroke: #4169e1"/>
     <use xlink:href="#m3480df268b" x="290.075438" y="193.378121" style="fill: #4169e1; stroke: #4169e1"/>
     <use xlink:href="#m3480df268b" x="316.019316" y="267.232498" style="fill: #4169e1; stroke: #4169e1"/>
     <use xlink:href="#m3480df268b" x="377.623233" y="241.689183" style="fill: #4169e1; stroke: #4169e1"/>
     <use xlink:href="#m3480df268b" x="171.134049" y="267.212612" style="fill: #4169e1; stroke: #4169e1"/>
     <use xlink:href="#m3480df268b" x="303.52612" y="280.817934" style="fill: #4169e1; stroke: #4169e1"/>
     <use xlink:href="#m3480df268b" x="398.09871" y="221.806195" style="fill: #4169e1; stroke: #4169e1"/>
     <use xlink:href="#m3480df268b" x="423.311809" y="84.779739" style="fill: #4169e1; stroke: #4169e1"/>
     <use xlink:href="#m3480df268b" x="294.415464" y="248.614798" style="fill: #4169e1; stroke: #4169e1"/>
     <use xlink:href="#m3480df268b" x="466.154558" y="157.206144" style="fill: #4169e1; stroke: #4169e1"/>
     <use xlink:href="#m3480df268b" x="296.50615" y="209.316886" style="fill: #4169e1; stroke: #4169e1"/>
     <use xlink:href="#m3480df268b" x="344.940893" y="232.402507" style="fill: #4169e1; stroke: #4169e1"/>
     <use xlink:href="#m3480df268b" x="376.206251" y="124.91277" style="fill: #4169e1; stroke: #4169e1"/>
     <use xlink:href="#m3480df268b" x="215.03629" y="307.634321" style="fill: #4169e1; stroke: #4169e1"/>
     <use xlink:href="#m3480df268b" x="227.248137" y="216.171165" style="fill: #4169e1; stroke: #4169e1"/>
     <use xlink:href="#m3480df268b" x="372.639771" y="170.94315" style="fill: #4169e1; stroke: #4169e1"/>
     <use xlink:href="#m3480df268b" x="309.999163" y="253.067235" style="fill: #4169e1; stroke: #4169e1"/>
     <use xlink:href="#m3480df268b" x="289.807555" y="123.736897" style="fill: #4169e1; stroke: #4169e1"/>
     <use xlink:href="#m3480df268b" x="282.160155" y="240.960555" style="fill: #4169e1; stroke: #4169e1"/>
     <use xlink:href="#m3480df268b" x="384.520715" y="125.621532" style="fill: #4169e1; stroke: #4169e1"/>
     <use xlink:href="#m3480df268b" x="289.639606" y="266.09093" style="fill: #4169e1; stroke: #4169e1"/>
     <use xlink:href="#m3480df268b" x="364.025876" y="337.082354" style="fill: #4169e1; stroke: #4169e1"/>
     <use xlink:href="#m3480df268b" x="346.959952" y="118.515162" style="fill: #4169e1; stroke: #4169e1"/>
     <use xlink:href="#m3480df268b" x="256.267353" y="300.248646" style="fill: #4169e1; stroke: #4169e1"/>
     <use xlink:href="#m3480df268b" x="380.588298" y="295.134922" style="fill: #4169e1; stroke: #4169e1"/>
     <use xlink:href="#m3480df268b" x="412.302706" y="236.381237" style="fill: #4169e1; stroke: #4169e1"/>
     <use xlink:href="#m3480df268b" x="408.789845" y="239.562958" style="fill: #4169e1; stroke: #4169e1"/>
     <use xlink:href="#m3480df268b" x="268.991963" y="286.206192" style="fill: #4169e1; stroke: #4169e1"/>
     <use xlink:href="#m3480df268b" x="353.299765" y="184.156822" style="fill: #4169e1; stroke: #4169e1"/>
     <use xlink:href="#m3480df268b" x="343.342296" y="196.057913" style="fill: #4169e1; stroke: #4169e1"/>
     <use xlink:href="#m3480df268b" x="499.374691" y="235.589983" style="fill: #4169e1; stroke: #4169e1"/>
     <use xlink:href="#m3480df268b" x="331.492456" y="205.63539" style="fill: #4169e1; stroke: #4169e1"/>
     <use xlink:href="#m3480df268b" x="311.910198" y="282.27742" style="fill: #4169e1; stroke: #4169e1"/>
     <use xlink:href="#m3480df268b" x="175.418069" y="224.506786" style="fill: #4169e1; stroke: #4169e1"/>
     <use xlink:href="#m3480df268b" x="271.82394" y="146.115579" style="fill: #4169e1; stroke: #4169e1"/>
     <use xlink:href="#m3480df268b" x="162.113775" y="202.959386" style="fill: #4169e1; stroke: #4169e1"/>
     <use xlink:href="#m3480df268b" x="273.119839" y="98.382544" style="fill: #4169e1; stroke: #4169e1"/>
     <use xlink:href="#m3480df268b" x="338.227496" y="264.474697" style="fill: #4169e1; stroke: #4169e1"/>
     <use xlink:href="#m3480df268b" x="362.69428" y="109.823961" style="fill: #4169e1; stroke: #4169e1"/>
     <use xlink:href="#m3480df268b" x="394.401974" y="135.302458" style="fill: #4169e1; stroke: #4169e1"/>
     <use xlink:href="#m3480df268b" x="264.437482" y="125.090615" style="fill: #4169e1; stroke: #4169e1"/>
     <use xlink:href="#m3480df268b" x="353.0142" y="154.801617" style="fill: #4169e1; stroke: #4169e1"/>
     <use xlink:href="#m3480df268b" x="234.42621" y="208.955685" style="fill: #4169e1; stroke: #4169e1"/>
     <use xlink:href="#m3480df268b" x="455.786479" y="74.598541" style="fill: #4169e1; stroke: #4169e1"/>
     <use xlink:href="#m3480df268b" x="193.395524" y="179.494276" style="fill: #4169e1; stroke: #4169e1"/>
     <use xlink:href="#m3480df268b" x="296.702445" y="267.412807" style="fill: #4169e1; stroke: #4169e1"/>
     <use xlink:href="#m3480df268b" x="470.709287" y="262.658908" style="fill: #4169e1; stroke: #4169e1"/>
     <use xlink:href="#m3480df268b" x="205.597285" y="304.775743" style="fill: #4169e1; stroke: #4169e1"/>
     <use xlink:href="#m3480df268b" x="404.446373" y="107.275683" style="fill: #4169e1; stroke: #4169e1"/>
     <use xlink:href="#m3480df268b" x="331.324309" y="238.760444" style="fill: #4169e1; stroke: #4169e1"/>
     <use xlink:href="#m3480df268b" x="340.740088" y="261.85695" style="fill: #4169e1; stroke: #4169e1"/>
     <use xlink:href="#m3480df268b" x="444.670205" y="120.891712" style="fill: #4169e1; stroke: #4169e1"/>
     <use xlink:href="#m3480df268b" x="258.01606" y="314.368799" style="fill: #4169e1; stroke: #4169e1"/>
     <use xlink:href="#m3480df268b" x="293.043417" y="172.890987" style="fill: #4169e1; stroke: #4169e1"/>
     <use xlink:href="#m3480df268b" x="241.194272" y="156.756134" style="fill: #4169e1; stroke: #4169e1"/>
     <use xlink:href="#m3480df268b" x="366.789166" y="73.074942" style="fill: #4169e1; stroke: #4169e1"/>
     <use xlink:href="#m3480df268b" x="260.765983" y="346.469344" style="fill: #4169e1; stroke: #4169e1"/>
     <use xlink:href="#m3480df268b" x="404.081763" y="301.14244" style="fill: #4169e1; stroke: #4169e1"/>
     <use xlink:href="#m3480df268b" x="400.364833" y="165.865646" style="fill: #4169e1; stroke: #4169e1"/>
     <use xlink:href="#m3480df268b" x="291.420123" y="256.957726" style="fill: #4169e1; stroke: #4169e1"/>
     <use xlink:href="#m3480df268b" x="327.944215" y="195.210876" style="fill: #4169e1; stroke: #4169e1"/>
     <use xlink:href="#m3480df268b" x="368.861581" y="103.974567" style="fill: #4169e1; stroke: #4169e1"/>
     <use xlink:href="#m3480df268b" x="414.658811" y="203.561565" style="fill: #4169e1; stroke: #4169e1"/>
     <use xlink:href="#m3480df268b" x="351.414622" y="301.714558" style="fill: #4169e1; stroke: #4169e1"/>
     <use xlink:href="#m3480df268b" x="440.42673" y="268.819861" style="fill: #4169e1; stroke: #4169e1"/>
     <use xlink:href="#m3480df268b" x="366.688356" y="225.466282" style="fill: #4169e1; stroke: #4169e1"/>
     <use xlink:href="#m3480df268b" x="439.695764" y="75.329723" style="fill: #4169e1; stroke: #4169e1"/>
    </g>
   </g>
   <g id="PathCollection_2">
    <defs>
     <path id="m24c658ebaa" d="M 0 2.5 
C 0.663008 2.5 1.29895 2.236584 1.767767 1.767767 
C 2.236584 1.29895 2.5 0.663008 2.5 0 
C 2.5 -0.663008 2.236584 -1.29895 1.767767 -1.767767 
C 1.29895 -2.236584 0.663008 -2.5 0 -2.5 
C -0.663008 -2.5 -1.29895 -2.236584 -1.767767 -1.767767 
C -2.236584 -1.29895 -2.5 -0.663008 -2.5 0 
C -2.5 0.663008 -2.236584 1.29895 -1.767767 1.767767 
C -1.29895 2.236584 -0.663008 2.5 0 2.5 
z
" style="stroke: #b22222"/>
    </defs>
    <g clip-path="url(#p5320898f41)">
     <use xlink:href="#m24c658ebaa" x="231.948545" y="212.237282" style="fill: #b22222; stroke: #b22222"/>
     <use xlink:href="#m24c658ebaa" x="233.730912" y="225.547955" style="fill: #b22222; stroke: #b22222"/>
     <use xlink:href="#m24c658ebaa" x="249.64651" y="236.738375" style="fill: #b22222; stroke: #b22222"/>
     <use xlink:href="#m24c658ebaa" x="231.358501" y="232.006455" style="fill: #b22222; stroke: #b22222"/>
     <use xlink:href="#m24c658ebaa" x="237.427059" y="234.266279" style="fill: #b22222; stroke: #b22222"/>
     <use xlink:href="#m24c658ebaa" x="227.921197" y="222.31122" style="fill: #b22222; stroke: #b22222"/>
     <use xlink:href="#m24c658ebaa" x="287.078452" y="238.626531" style="fill: #b22222; stroke: #b22222"/>
     <use xlink:href="#m24c658ebaa" x="228.341815" y="231.132268" style="fill: #b22222; stroke: #b22222"/>
     <use xlink:href="#m24c658ebaa" x="231.881269" y="235.649243" style="fill: #b22222; stroke: #b22222"/>
     <use xlink:href="#m24c658ebaa" x="228.150943" y="221.486706" style="fill: #b22222; stroke: #b22222"/>
     <use xlink:href="#m24c658ebaa" x="250.763773" y="252.346672" style="fill: #b22222; stroke: #b22222"/>
     <use xlink:href="#m24c658ebaa" x="225.35619" y="218.788242" style="fill: #b22222; stroke: #b22222"/>
     <use xlink:href="#m24c658ebaa" x="250.242236" y="254.693252" style="fill: #b22222; stroke: #b22222"/>
     <use xlink:href="#m24c658ebaa" x="277.916014" y="253.283699" style="fill: #b22222; stroke: #b22222"/>
     <use xlink:href="#m24c658ebaa" x="258.149921" y="241.253194" style="fill: #b22222; stroke: #b22222"/>
     <use xlink:href="#m24c658ebaa" x="264.537589" y="239.997805" style="fill: #b22222; stroke: #b22222"/>
     <use xlink:href="#m24c658ebaa" x="261.804182" y="253.903368" style="fill: #b22222; stroke: #b22222"/>
     <use xlink:href="#m24c658ebaa" x="213.317948" y="218.823166" style="fill: #b22222; stroke: #b22222"/>
     <use xlink:href="#m24c658ebaa" x="249.036589" y="234.115607" style="fill: #b22222; stroke: #b22222"/>
     <use xlink:href="#m24c658ebaa" x="236.226602" y="239.897553" style="fill: #b22222; stroke: #b22222"/>
     <use xlink:href="#m24c658ebaa" x="232.277487" y="212.031864" style="fill: #b22222; stroke: #b22222"/>
     <use xlink:href="#m24c658ebaa" x="233.85884" y="230.719792" style="fill: #b22222; stroke: #b22222"/>
     <use xlink:href="#m24c658ebaa" x="377.654621" y="206.251573" style="fill: #b22222; stroke: #b22222"/>
     <use xlink:href="#m24c658ebaa" x="243.690889" y="192.375471" style="fill: #b22222; stroke: #b22222"/>
     <use xlink:href="#m24c658ebaa" x="250.903836" y="247.249065" style="fill: #b22222; stroke: #b22222"/>
     <use xlink:href="#m24c658ebaa" x="241.126637" y="234.058581" style="fill: #b22222; stroke: #b22222"/>
     <use xlink:href="#m24c658ebaa" x="252.188345" y="252.369581" style="fill: #b22222; stroke: #b22222"/>
     <use xlink:href="#m24c658ebaa" x="269.131921" y="251.810589" style="fill: #b22222; stroke: #b22222"/>
     <use xlink:href="#m24c658ebaa" x="255.240468" y="259.436665" style="fill: #b22222; stroke: #b22222"/>
     <use xlink:href="#m24c658ebaa" x="236.9291" y="235.249275" style="fill: #b22222; stroke: #b22222"/>
     <use xlink:href="#m24c658ebaa" x="240.600539" y="202.873057" style="fill: #b22222; stroke: #b22222"/>
     <use xlink:href="#m24c658ebaa" x="222.404507" y="220.427117" style="fill: #b22222; stroke: #b22222"/>
     <use xlink:href="#m24c658ebaa" x="252.177714" y="250.439723" style="fill: #b22222; stroke: #b22222"/>
     <use xlink:href="#m24c658ebaa" x="223.555202" y="226.094219" style="fill: #b22222; stroke: #b22222"/>
     <use xlink:href="#m24c658ebaa" x="225.209689" y="232.430315" style="fill: #b22222; stroke: #b22222"/>
     <use xlink:href="#m24c658ebaa" x="246.988747" y="245.893636" style="fill: #b22222; stroke: #b22222"/>
     <use xlink:href="#m24c658ebaa" x="244.105637" y="245.137105" style="fill: #b22222; stroke: #b22222"/>
     <use xlink:href="#m24c658ebaa" x="248.210254" y="247.131284" style="fill: #b22222; stroke: #b22222"/>
     <use xlink:href="#m24c658ebaa" x="234.906661" y="242.383281" style="fill: #b22222; stroke: #b22222"/>
     <use xlink:href="#m24c658ebaa" x="351.872348" y="230.836583" style="fill: #b22222; stroke: #b22222"/>
     <use xlink:href="#m24c658ebaa" x="370.721833" y="196.633479" style="fill: #b22222; stroke: #b22222"/>
     <use xlink:href="#m24c658ebaa" x="227.289931" y="207.611358" style="fill: #b22222; stroke: #b22222"/>
     <use xlink:href="#m24c658ebaa" x="282.789841" y="253.061939" style="fill: #b22222; stroke: #b22222"/>
     <use xlink:href="#m24c658ebaa" x="244.056944" y="239.537153" style="fill: #b22222; stroke: #b22222"/>
     <use xlink:href="#m24c658ebaa" x="242.626423" y="242.011481" style="fill: #b22222; stroke: #b22222"/>
     <use xlink:href="#m24c658ebaa" x="248.107955" y="245.700762" style="fill: #b22222; stroke: #b22222"/>
     <use xlink:href="#m24c658ebaa" x="234.788678" y="225.221492" style="fill: #b22222; stroke: #b22222"/>
     <use xlink:href="#m24c658ebaa" x="388.54226" y="162.663086" style="fill: #b22222; stroke: #b22222"/>
     <use xlink:href="#m24c658ebaa" x="311.912387" y="222.678881" style="fill: #b22222; stroke: #b22222"/>
     <use xlink:href="#m24c658ebaa" x="247.21477" y="247.653834" style="fill: #b22222; stroke: #b22222"/>
     <use xlink:href="#m24c658ebaa" x="236.584171" y="229.479486" style="fill: #b22222; stroke: #b22222"/>
     <use xlink:href="#m24c658ebaa" x="357.767111" y="189.482643" style="fill: #b22222; stroke: #b22222"/>
     <use xlink:href="#m24c658ebaa" x="249.802783" y="250.142814" style="fill: #b22222; stroke: #b22222"/>
     <use xlink:href="#m24c658ebaa" x="245.979846" y="234.648002" style="fill: #b22222; stroke: #b22222"/>
     <use xlink:href="#m24c658ebaa" x="368.744326" y="195.402301" style="fill: #b22222; stroke: #b22222"/>
     <use xlink:href="#m24c658ebaa" x="226.202141" y="228.382951" style="fill: #b22222; stroke: #b22222"/>
     <use xlink:href="#m24c658ebaa" x="354.182501" y="221.550234" style="fill: #b22222; stroke: #b22222"/>
     <use xlink:href="#m24c658ebaa" x="236.717705" y="221.885207" style="fill: #b22222; stroke: #b22222"/>
     <use xlink:href="#m24c658ebaa" x="246.277796" y="243.814335" style="fill: #b22222; stroke: #b22222"/>
     <use xlink:href="#m24c658ebaa" x="230.45106" y="220.669792" style="fill: #b22222; stroke: #b22222"/>
     <use xlink:href="#m24c658ebaa" x="342.130778" y="222.234428" style="fill: #b22222; stroke: #b22222"/>
     <use xlink:href="#m24c658ebaa" x="371.435995" y="256.315832" style="fill: #b22222; stroke: #b22222"/>
     <use xlink:href="#m24c658ebaa" x="228.828915" y="222.777739" style="fill: #b22222; stroke: #b22222"/>
     <use xlink:href="#m24c658ebaa" x="247.927308" y="255.99764" style="fill: #b22222; stroke: #b22222"/>
     <use xlink:href="#m24c658ebaa" x="232.24843" y="230.243384" style="fill: #b22222; stroke: #b22222"/>
     <use xlink:href="#m24c658ebaa" x="264.676463" y="250.064513" style="fill: #b22222; stroke: #b22222"/>
     <use xlink:href="#m24c658ebaa" x="230.115049" y="210.896588" style="fill: #b22222; stroke: #b22222"/>
     <use xlink:href="#m24c658ebaa" x="232.005853" y="226.192021" style="fill: #b22222; stroke: #b22222"/>
    </g>
   </g>
   <g id="patch_4">
    <path d="M 56.450156 450.72 
L 56.450156 7.2 
" style="fill: none; stroke: #ffffff; stroke-width: 1.25; stroke-linejoin: miter; stroke-linecap: square"/>
   </g>
   <g id="patch_5">
    <path d="M 499.970156 450.72 
L 499.970156 7.2 
" style="fill: none; stroke: #ffffff; stroke-width: 1.25; stroke-linejoin: miter; stroke-linecap: square"/>
   </g>
   <g id="patch_6">
    <path d="M 56.450156 450.72 
L 499.970156 450.72 
" style="fill: none; stroke: #ffffff; stroke-width: 1.25; stroke-linejoin: miter; stroke-linecap: square"/>
   </g>
   <g id="patch_7">
    <path d="M 56.450156 7.2 
L 499.970156 7.2 
" style="fill: none; stroke: #ffffff; stroke-width: 1.25; stroke-linejoin: miter; stroke-linecap: square"/>
   </g>
   <g id="text_13">
    <!-- t = 700 -->
    <g style="fill: #262626" transform="translate(65.320556 24.659775) scale(0.12 -0.12)">
     <defs>
      <path id="ArialMT-74" d="M 1650 503 
L 1731 6 
Q 1494 -44 1306 -44 
Q 1000 -44 831 53 
Q 663 150 594 308 
Q 525 466 525 972 
L 525 2881 
L 113 2881 
L 113 3319 
L 525 3319 
L 525 4141 
L 1084 4478 
L 1084 3319 
L 1650 3319 
L 1650 2881 
L 1084 2881 
L 1084 941 
Q 1084 700 1114 631 
Q 1144 563 1211 522 
Q 1278 481 1403 481 
Q 1497 481 1650 503 
z
" transform="scale(0.015625)"/>
      <path id="ArialMT-20" transform="scale(0.015625)"/>
      <path id="ArialMT-3d" d="M 3381 2694 
L 356 2694 
L 356 3219 
L 3381 3219 
L 3381 2694 
z
M 3381 1303 
L 356 1303 
L 356 1828 
L 3381 1828 
L 3381 1303 
z
" transform="scale(0.015625)"/>
      <path id="ArialMT-37" d="M 303 3981 
L 303 4522 
L 3269 4522 
L 3269 4084 
Q 2831 3619 2401 2847 
Q 1972 2075 1738 1259 
Q 1569 684 1522 0 
L 944 0 
Q 953 541 1156 1306 
Q 1359 2072 1739 2783 
Q 2119 3494 2547 3981 
L 303 3981 
z
" transform="scale(0.015625)"/>
     </defs>
     <use xlink:href="#ArialMT-74"/>
     <use xlink:href="#ArialMT-20" x="27.783203"/>
     <use xlink:href="#ArialMT-3d" x="55.566406"/>
     <use xlink:href="#ArialMT-20" x="113.964844"/>
     <use xlink:href="#ArialMT-37" x="141.748047"/>
     <use xlink:href="#ArialMT-30" x="197.363281"/>
     <use xlink:href="#ArialMT-30" x="252.978516"/>
    </g>
   </g>
   <g id="legend_1">
    <g id="patch_8">
     <path d="M 328.111406 94.59 
L 483.170156 94.59 
Q 487.970156 94.59 487.970156 89.79 
L 487.970156 24 
Q 487.970156 19.2 483.170156 19.2 
L 328.111406 19.2 
Q 323.311406 19.2 323.311406 24 
L 323.311406 89.79 
Q 323.311406 94.59 328.111406 94.59 
z
" style="fill: #eaeaf2; opacity: 0.8; stroke: #cccccc; stroke-linejoin: miter"/>
    </g>
    <g id="PathCollection_3">
     <g>
      <use xlink:href="#m3480df268b" x="356.911406" y="39.97125" style="fill: #4169e1; stroke: #4169e1"/>
     </g>
    </g>
    <g id="text_14">
     <!-- Sheep -->
     <g style="fill: #262626" transform="translate(400.111406 46.27125) scale(0.24 -0.24)">
      <defs>
       <path id="ArialMT-53" d="M 288 1472 
L 859 1522 
Q 900 1178 1048 958 
Q 1197 738 1509 602 
Q 1822 466 2213 466 
Q 2559 466 2825 569 
Q 3091 672 3220 851 
Q 3350 1031 3350 1244 
Q 3350 1459 3225 1620 
Q 3100 1781 2813 1891 
Q 2628 1963 1997 2114 
Q 1366 2266 1113 2400 
Q 784 2572 623 2826 
Q 463 3081 463 3397 
Q 463 3744 659 4045 
Q 856 4347 1234 4503 
Q 1613 4659 2075 4659 
Q 2584 4659 2973 4495 
Q 3363 4331 3572 4012 
Q 3781 3694 3797 3291 
L 3216 3247 
Q 3169 3681 2898 3903 
Q 2628 4125 2100 4125 
Q 1550 4125 1298 3923 
Q 1047 3722 1047 3438 
Q 1047 3191 1225 3031 
Q 1400 2872 2139 2705 
Q 2878 2538 3153 2413 
Q 3553 2228 3743 1945 
Q 3934 1663 3934 1294 
Q 3934 928 3725 604 
Q 3516 281 3123 101 
Q 2731 -78 2241 -78 
Q 1619 -78 1198 103 
Q 778 284 539 648 
Q 300 1013 288 1472 
z
" transform="scale(0.015625)"/>
       <path id="ArialMT-68" d="M 422 0 
L 422 4581 
L 984 4581 
L 984 2938 
Q 1378 3394 1978 3394 
Q 2347 3394 2619 3248 
Q 2891 3103 3008 2847 
Q 3125 2591 3125 2103 
L 3125 0 
L 2563 0 
L 2563 2103 
Q 2563 2525 2380 2717 
Q 2197 2909 1863 2909 
Q 1613 2909 1392 2779 
Q 1172 2650 1078 2428 
Q 984 2206 984 1816 
L 984 0 
L 422 0 
z
" transform="scale(0.015625)"/>
       <path id="ArialMT-65" d="M 2694 1069 
L 3275 997 
Q 3138 488 2766 206 
Q 2394 -75 1816 -75 
Q 1088 -75 661 373 
Q 234 822 234 1631 
Q 234 2469 665 2931 
Q 1097 3394 1784 3394 
Q 2450 3394 2872 2941 
Q 3294 2488 3294 1666 
Q 3294 1616 3291 1516 
L 816 1516 
Q 847 969 1125 678 
Q 1403 388 1819 388 
Q 2128 388 2347 550 
Q 2566 713 2694 1069 
z
M 847 1978 
L 2700 1978 
Q 2663 2397 2488 2606 
Q 2219 2931 1791 2931 
Q 1403 2931 1139 2672 
Q 875 2413 847 1978 
z
" transform="scale(0.015625)"/>
       <path id="ArialMT-70" d="M 422 -1272 
L 422 3319 
L 934 3319 
L 934 2888 
Q 1116 3141 1344 3267 
Q 1572 3394 1897 3394 
Q 2322 3394 2647 3175 
Q 2972 2956 3137 2557 
Q 3303 2159 3303 1684 
Q 3303 1175 3120 767 
Q 2938 359 2589 142 
Q 2241 -75 1856 -75 
Q 1575 -75 1351 44 
Q 1128 163 984 344 
L 984 -1272 
L 422 -1272 
z
M 931 1641 
Q 931 1000 1190 694 
Q 1450 388 1819 388 
Q 2194 388 2461 705 
Q 2728 1022 2728 1688 
Q 2728 2322 2467 2637 
Q 2206 2953 1844 2953 
Q 1484 2953 1207 2617 
Q 931 2281 931 1641 
z
" transform="scale(0.015625)"/>
      </defs>
      <use xlink:href="#ArialMT-53"/>
      <use xlink:href="#ArialMT-68" x="66.699219"/>
      <use xlink:href="#ArialMT-65" x="122.314453"/>
      <use xlink:href="#ArialMT-65" x="177.929688"/>
      <use xlink:href="#ArialMT-70" x="233.544922"/>
     </g>
    </g>
    <g id="PathCollection_4">
     <g>
      <use xlink:href="#m24c658ebaa" x="356.911406" y="73.92" style="fill: #b22222; stroke: #b22222"/>
     </g>
    </g>
    <g id="text_15">
     <!-- Wolves -->
     <g style="fill: #262626" transform="translate(400.111406 80.22) scale(0.24 -0.24)">
      <defs>
       <path id="ArialMT-57" d="M 1294 0 
L 78 4581 
L 700 4581 
L 1397 1578 
Q 1509 1106 1591 641 
Q 1766 1375 1797 1488 
L 2669 4581 
L 3400 4581 
L 4056 2263 
Q 4303 1400 4413 641 
Q 4500 1075 4641 1638 
L 5359 4581 
L 5969 4581 
L 4713 0 
L 4128 0 
L 3163 3491 
Q 3041 3928 3019 4028 
Q 2947 3713 2884 3491 
L 1913 0 
L 1294 0 
z
" transform="scale(0.015625)"/>
       <path id="ArialMT-6f" d="M 213 1659 
Q 213 2581 725 3025 
Q 1153 3394 1769 3394 
Q 2453 3394 2887 2945 
Q 3322 2497 3322 1706 
Q 3322 1066 3130 698 
Q 2938 331 2570 128 
Q 2203 -75 1769 -75 
Q 1072 -75 642 372 
Q 213 819 213 1659 
z
M 791 1659 
Q 791 1022 1069 705 
Q 1347 388 1769 388 
Q 2188 388 2466 706 
Q 2744 1025 2744 1678 
Q 2744 2294 2464 2611 
Q 2184 2928 1769 2928 
Q 1347 2928 1069 2612 
Q 791 2297 791 1659 
z
" transform="scale(0.015625)"/>
       <path id="ArialMT-6c" d="M 409 0 
L 409 4581 
L 972 4581 
L 972 0 
L 409 0 
z
" transform="scale(0.015625)"/>
       <path id="ArialMT-76" d="M 1344 0 
L 81 3319 
L 675 3319 
L 1388 1331 
Q 1503 1009 1600 663 
Q 1675 925 1809 1294 
L 2547 3319 
L 3125 3319 
L 1869 0 
L 1344 0 
z
" transform="scale(0.015625)"/>
       <path id="ArialMT-73" d="M 197 991 
L 753 1078 
Q 800 744 1014 566 
Q 1228 388 1613 388 
Q 2000 388 2187 545 
Q 2375 703 2375 916 
Q 2375 1106 2209 1216 
Q 2094 1291 1634 1406 
Q 1016 1563 777 1677 
Q 538 1791 414 1992 
Q 291 2194 291 2438 
Q 291 2659 392 2848 
Q 494 3038 669 3163 
Q 800 3259 1026 3326 
Q 1253 3394 1513 3394 
Q 1903 3394 2198 3281 
Q 2494 3169 2634 2976 
Q 2775 2784 2828 2463 
L 2278 2388 
Q 2241 2644 2061 2787 
Q 1881 2931 1553 2931 
Q 1166 2931 1000 2803 
Q 834 2675 834 2503 
Q 834 2394 903 2306 
Q 972 2216 1119 2156 
Q 1203 2125 1616 2013 
Q 2213 1853 2448 1751 
Q 2684 1650 2818 1456 
Q 2953 1263 2953 975 
Q 2953 694 2789 445 
Q 2625 197 2315 61 
Q 2006 -75 1616 -75 
Q 969 -75 630 194 
Q 291 463 197 991 
z
" transform="scale(0.015625)"/>
      </defs>
      <use xlink:href="#ArialMT-57"/>
      <use xlink:href="#ArialMT-6f" x="92.634766"/>
      <use xlink:href="#ArialMT-6c" x="148.25"/>
      <use xlink:href="#ArialMT-76" x="170.466797"/>
      <use xlink:href="#ArialMT-65" x="220.466797"/>
      <use xlink:href="#ArialMT-73" x="276.082031"/>
     </g>
    </g>
   </g>
  </g>
 </g>
 <defs>
  <clipPath id="p5320898f41">
   <rect x="56.450156" y="7.2" width="443.52" height="443.52"/>
  </clipPath>
 </defs>
</svg>
