<?xml version="1.0" encoding="utf-8" standalone="no"?>
<!DOCTYPE svg PUBLIC "-//W3C//DTD SVG 1.1//EN"
  "http://www.w3.org/Graphics/SVG/1.1/DTD/svg11.dtd">
<svg xmlns:xlink="http://www.w3.org/1999/xlink" width="507.170156pt" height="492.454219pt" viewBox="0 0 507.170156 492.454219" xmlns="http://www.w3.org/2000/svg" version="1.1">
 <metadata>
  <rdf:RDF xmlns:dc="http://purl.org/dc/elements/1.1/" xmlns:cc="http://creativecommons.org/ns#" xmlns:rdf="http://www.w3.org/1999/02/22-rdf-syntax-ns#">
   <cc:Work>
    <dc:type rdf:resource="http://purl.org/dc/dcmitype/StillImage"/>
    <dc:date>2026-05-12T10:43:19.112693</dc:date>
    <dc:format>image/svg+xml</dc:format>
    <dc:creator>
     <cc:Agent>
      <dc:title>Matplotlib v3.7.1, https://matplotlib.org/</dc:title>
     </cc:Agent>
    </dc:creator>
   </cc:Work>
  </rdf:RDF>
 </metadata>
 <defs>
  <style type="text/css">*{stroke-linejoin: round; stroke-linecap: butt}</style>
 </defs>
 <g id="figure_1">
  <g id="patch_1">
   <path d="M 0 492.454219 
L 507.170156 492.454219 
L 507.170156 0 
L 0 0 
z
" style="fill: #ffffff"/>
  </g>
  <g id="axes_1">
   <g id="patch_2">
    <path d="M 56.450156 450.72 
L 499.970156 450.72 
L 499.970156 7.2 
L 56.450156 7.2 
z
" style="fill: #eaeaf2"/>
   </g>
   <g id="matplotlib.axis_1">
    <g id="xtick_1">
     <g id="line2d_1">
      <path d="M 100.802156 450.72 
L 100.802156 7.2 
" clip-path="url(#p9a92cef1fa)" style="fill: none; stroke: #ffffff; stroke-linecap: round"/>
     </g>
     <g id="text_1">
      <!-- −400 -->
      <g style="fill: #262626" transform="translate(88.414266 468.093594) scale(0.11 -0.11)">
       <defs>
        <path id="ArialMT-2212" d="M 3381 1997 
L 356 1997 
L 356 2522 
L 3381 2522 
L 3381 1997 
z
" transform="scale(0.015625)"/>
        <path id="ArialMT-34" d="M 2069 0 
L 2069 1097 
L 81 1097 
L 81 1613 
L 2172 4581 
L 2631 4581 
L 2631 1613 
L 3250 1613 
L 3250 1097 
L 2631 1097 
L 2631 0 
L 2069 0 
z
M 2069 1613 
L 2069 3678 
L 634 1613 
L 2069 1613 
z
" transform="scale(0.015625)"/>
        <path id="ArialMT-30" d="M 266 2259 
Q 266 3072 433 3567 
Q 600 4063 929 4331 
Q 1259 4600 1759 4600 
Q 2128 4600 2406 4451 
Q 2684 4303 2865 4023 
Q 3047 3744 3150 3342 
Q 3253 2941 3253 2259 
Q 3253 1453 3087 958 
Q 2922 463 2592 192 
Q 2263 -78 1759 -78 
Q 1097 -78 719 397 
Q 266 969 266 2259 
z
M 844 2259 
Q 844 1131 1108 757 
Q 1372 384 1759 384 
Q 2147 384 2411 759 
Q 2675 1134 2675 2259 
Q 2675 3391 2411 3762 
Q 2147 4134 1753 4134 
Q 1366 4134 1134 3806 
Q 844 3388 844 2259 
z
" transform="scale(0.015625)"/>
       </defs>
       <use xlink:href="#ArialMT-2212"/>
       <use xlink:href="#ArialMT-34" x="58.398438"/>
       <use xlink:href="#ArialMT-30" x="114.013672"/>
       <use xlink:href="#ArialMT-30" x="169.628906"/>
      </g>
     </g>
    </g>
    <g id="xtick_2">
     <g id="line2d_2">
      <path d="M 189.506156 450.72 
L 189.506156 7.2 
" clip-path="url(#p9a92cef1fa)" style="fill: none; stroke: #ffffff; stroke-linecap: round"/>
     </g>
     <g id="text_2">
      <!-- −200 -->
      <g style="fill: #262626" transform="translate(177.118266 468.093594) scale(0.11 -0.11)">
       <defs>
        <path id="ArialMT-32" d="M 3222 541 
L 3222 0 
L 194 0 
Q 188 203 259 391 
Q 375 700 629 1000 
Q 884 1300 1366 1694 
Q 2113 2306 2375 2664 
Q 2638 3022 2638 3341 
Q 2638 3675 2398 3904 
Q 2159 4134 1775 4134 
Q 1369 4134 1125 3890 
Q 881 3647 878 3216 
L 300 3275 
Q 359 3922 746 4261 
Q 1134 4600 1788 4600 
Q 2447 4600 2831 4234 
Q 3216 3869 3216 3328 
Q 3216 3053 3103 2787 
Q 2991 2522 2730 2228 
Q 2469 1934 1863 1422 
Q 1356 997 1212 845 
Q 1069 694 975 541 
L 3222 541 
z
" transform="scale(0.015625)"/>
       </defs>
       <use xlink:href="#ArialMT-2212"/>
       <use xlink:href="#ArialMT-32" x="58.398438"/>
       <use xlink:href="#ArialMT-30" x="114.013672"/>
       <use xlink:href="#ArialMT-30" x="169.628906"/>
      </g>
     </g>
    </g>
    <g id="xtick_3">
     <g id="line2d_3">
      <path d="M 278.210156 450.72 
L 278.210156 7.2 
" clip-path="url(#p9a92cef1fa)" style="fill: none; stroke: #ffffff; stroke-linecap: round"/>
     </g>
     <g id="text_3">
      <!-- 0 -->
      <g style="fill: #262626" transform="translate(275.151641 468.093594) scale(0.11 -0.11)">
       <use xlink:href="#ArialMT-30"/>
      </g>
     </g>
    </g>
    <g id="xtick_4">
     <g id="line2d_4">
      <path d="M 366.914156 450.72 
L 366.914156 7.2 
" clip-path="url(#p9a92cef1fa)" style="fill: none; stroke: #ffffff; stroke-linecap: round"/>
     </g>
     <g id="text_4">
      <!-- 200 -->
      <g style="fill: #262626" transform="translate(357.738609 468.093594) scale(0.11 -0.11)">
       <use xlink:href="#ArialMT-32"/>
       <use xlink:href="#ArialMT-30" x="55.615234"/>
       <use xlink:href="#ArialMT-30" x="111.230469"/>
      </g>
     </g>
    </g>
    <g id="xtick_5">
     <g id="line2d_5">
      <path d="M 455.618156 450.72 
L 455.618156 7.2 
" clip-path="url(#p9a92cef1fa)" style="fill: none; stroke: #ffffff; stroke-linecap: round"/>
     </g>
     <g id="text_5">
      <!-- 400 -->
      <g style="fill: #262626" transform="translate(446.442609 468.093594) scale(0.11 -0.11)">
       <use xlink:href="#ArialMT-34"/>
       <use xlink:href="#ArialMT-30" x="55.615234"/>
       <use xlink:href="#ArialMT-30" x="111.230469"/>
      </g>
     </g>
    </g>
    <g id="text_6">
     <!-- x -->
     <g style="fill: #262626" transform="translate(275.210156 482.869219) scale(0.12 -0.12)">
      <defs>
       <path id="ArialMT-78" d="M 47 0 
L 1259 1725 
L 138 3319 
L 841 3319 
L 1350 2541 
Q 1494 2319 1581 2169 
Q 1719 2375 1834 2534 
L 2394 3319 
L 3066 3319 
L 1919 1756 
L 3153 0 
L 2463 0 
L 1781 1031 
L 1600 1309 
L 728 0 
L 47 0 
z
" transform="scale(0.015625)"/>
      </defs>
      <use xlink:href="#ArialMT-78"/>
     </g>
    </g>
   </g>
   <g id="matplotlib.axis_2">
    <g id="ytick_1">
     <g id="line2d_6">
      <path d="M 56.450156 406.368 
L 499.970156 406.368 
" clip-path="url(#p9a92cef1fa)" style="fill: none; stroke: #ffffff; stroke-linecap: round"/>
     </g>
     <g id="text_7">
      <!-- −400 -->
      <g style="fill: #262626" transform="translate(22.174375 410.304797) scale(0.11 -0.11)">
       <use xlink:href="#ArialMT-2212"/>
       <use xlink:href="#ArialMT-34" x="58.398438"/>
       <use xlink:href="#ArialMT-30" x="114.013672"/>
       <use xlink:href="#ArialMT-30" x="169.628906"/>
      </g>
     </g>
    </g>
    <g id="ytick_2">
     <g id="line2d_7">
      <path d="M 56.450156 317.664 
L 499.970156 317.664 
" clip-path="url(#p9a92cef1fa)" style="fill: none; stroke: #ffffff; stroke-linecap: round"/>
     </g>
     <g id="text_8">
      <!-- −200 -->
      <g style="fill: #262626" transform="translate(22.174375 321.600797) scale(0.11 -0.11)">
       <use xlink:href="#ArialMT-2212"/>
       <use xlink:href="#ArialMT-32" x="58.398438"/>
       <use xlink:href="#ArialMT-30" x="114.013672"/>
       <use xlink:href="#ArialMT-30" x="169.628906"/>
      </g>
     </g>
    </g>
    <g id="ytick_3">
     <g id="line2d_8">
      <path d="M 56.450156 228.96 
L 499.970156 228.96 
" clip-path="url(#p9a92cef1fa)" style="fill: none; stroke: #ffffff; stroke-linecap: round"/>
     </g>
     <g id="text_9">
      <!-- 0 -->
      <g style="fill: #262626" transform="translate(40.833125 232.896797) scale(0.11 -0.11)">
       <use xlink:href="#ArialMT-30"/>
      </g>
     </g>
    </g>
    <g id="ytick_4">
     <g id="line2d_9">
      <path d="M 56.450156 140.256 
L 499.970156 140.256 
" clip-path="url(#p9a92cef1fa)" style="fill: none; stroke: #ffffff; stroke-linecap: round"/>
     </g>
     <g id="text_10">
      <!-- 200 -->
      <g style="fill: #262626" transform="translate(28.599063 144.192797) scale(0.11 -0.11)">
       <use xlink:href="#ArialMT-32"/>
       <use xlink:href="#ArialMT-30" x="55.615234"/>
       <use xlink:href="#ArialMT-30" x="111.230469"/>
      </g>
     </g>
    </g>
    <g id="ytick_5">
     <g id="line2d_10">
      <path d="M 56.450156 51.552 
L 499.970156 51.552 
" clip-path="url(#p9a92cef1fa)" style="fill: none; stroke: #ffffff; stroke-linecap: round"/>
     </g>
     <g id="text_11">
      <!-- 400 -->
      <g style="fill: #262626" transform="translate(28.599063 55.488797) scale(0.11 -0.11)">
       <use xlink:href="#ArialMT-34"/>
       <use xlink:href="#ArialMT-30" x="55.615234"/>
       <use xlink:href="#ArialMT-30" x="111.230469"/>
      </g>
     </g>
    </g>
    <g id="text_12">
     <!-- y -->
     <g style="fill: #262626" transform="translate(15.64875 231.96) rotate(-90) scale(0.12 -0.12)">
      <defs>
       <path id="ArialMT-79" d="M 397 -1278 
L 334 -750 
Q 519 -800 656 -800 
Q 844 -800 956 -737 
Q 1069 -675 1141 -563 
Q 1194 -478 1313 -144 
Q 1328 -97 1363 -6 
L 103 3319 
L 709 3319 
L 1400 1397 
Q 1534 1031 1641 628 
Q 1738 1016 1872 1384 
L 2581 3319 
L 3144 3319 
L 1881 -56 
Q 1678 -603 1566 -809 
Q 1416 -1088 1222 -1217 
Q 1028 -1347 759 -1347 
Q 597 -1347 397 -1278 
z
" transform="scale(0.015625)"/>
      </defs>
      <use xlink:href="#ArialMT-79"/>
     </g>
    </g>
   </g>
   <g id="patch_3">
    <path d="M 278.210156 317.664 
C 301.734732 317.664 324.298969 308.317587 340.933356 291.6832 
C 357.567743 275.048813 366.914156 252.484576 366.914156 228.96 
C 366.914156 205.435424 357.567743 182.871187 340.933356 166.2368 
C 324.298969 149.602413 301.734732 140.256 278.210156 140.256 
C 254.68558 140.256 232.121343 149.602413 215.486956 166.2368 
C 198.852569 182.871187 189.506156 205.435424 189.506156 228.96 
C 189.506156 252.484576 198.852569 275.048813 215.486956 291.6832 
C 232.121343 308.317587 254.68558 317.664 278.210156 317.664 
z
" clip-path="url(#p9a92cef1fa)" style="fill: #228b22; opacity: 0.12; stroke: #228b22; stroke-width: 1.5; stroke-linejoin: miter"/>
   </g>
   <g id="PathCollection_1">
    <defs>
     <path id="m39e7caf42b" d="M 0 2.236068 
C 0.593012 2.236068 1.161816 2.000462 1.581139 1.581139 
C 2.000462 1.161816 2.236068 0.593012 2.236068 0 
C 2.236068 -0.593012 2.000462 -1.161816 1.581139 -1.581139 
C 1.161816 -2.000462 0.593012 -2.236068 0 -2.236068 
C -0.593012 -2.236068 -1.161816 -2.000462 -1.581139 -1.581139 
C -2.000462 -1.161816 -2.236068 -0.593012 -2.236068 0 
C -2.236068 0.593012 -2.000462 1.161816 -1.581139 1.581139 
C -1.161816 2.000462 -0.593012 2.236068 0 2.236068 
z
" style="stroke: #4169e1"/>
    </defs>
    <g clip-path="url(#p9a92cef1fa)">
     <use xlink:href="#m39e7caf42b" x="499.970156" y="240.580534" style="fill: #4169e1; stroke: #4169e1"/>
     <use xlink:href="#m39e7caf42b" x="348.202364" y="187.058702" style="fill: #4169e1; stroke: #4169e1"/>
     <use xlink:href="#m39e7caf42b" x="446.828196" y="216.300299" style="fill: #4169e1; stroke: #4169e1"/>
     <use xlink:href="#m39e7caf42b" x="253.75277" y="113.288108" style="fill: #4169e1; stroke: #4169e1"/>
     <use xlink:href="#m39e7caf42b" x="265.080523" y="203.452925" style="fill: #4169e1; stroke: #4169e1"/>
     <use xlink:href="#m39e7caf42b" x="497.396176" y="211.264522" style="fill: #4169e1; stroke: #4169e1"/>
     <use xlink:href="#m39e7caf42b" x="343.745853" y="299.000475" style="fill: #4169e1; stroke: #4169e1"/>
     <use xlink:href="#m39e7caf42b" x="226.672873" y="221.46399" style="fill: #4169e1; stroke: #4169e1"/>
     <use xlink:href="#m39e7caf42b" x="365.894052" y="160.111993" style="fill: #4169e1; stroke: #4169e1"/>
     <use xlink:href="#m39e7caf42b" x="451.598012" y="120.488073" style="fill: #4169e1; stroke: #4169e1"/>
     <use xlink:href="#m39e7caf42b" x="439.952945" y="127.990401" style="fill: #4169e1; stroke: #4169e1"/>
     <use xlink:href="#m39e7caf42b" x="361.03931" y="182.792303" style="fill: #4169e1; stroke: #4169e1"/>
     <use xlink:href="#m39e7caf42b" x="369.552754" y="107.965692" style="fill: #4169e1; stroke: #4169e1"/>
     <use xlink:href="#m39e7caf42b" x="342.009347" y="180.764936" style="fill: #4169e1; stroke: #4169e1"/>
     <use xlink:href="#m39e7caf42b" x="376.629495" y="222.872854" style="fill: #4169e1; stroke: #4169e1"/>
     <use xlink:href="#m39e7caf42b" x="417.695234" y="181.498301" style="fill: #4169e1; stroke: #4169e1"/>
     <use xlink:href="#m39e7caf42b" x="335.41847" y="239.093514" style="fill: #4169e1; stroke: #4169e1"/>
     <use xlink:href="#m39e7caf42b" x="288.399204" y="267.019489" style="fill: #4169e1; stroke: #4169e1"/>
     <use xlink:href="#m39e7caf42b" x="217.162047" y="140.276397" style="fill: #4169e1; stroke: #4169e1"/>
     <use xlink:href="#m39e7caf42b" x="497.06604" y="167.485066" style="fill: #4169e1; stroke: #4169e1"/>
     <use xlink:href="#m39e7caf42b" x="312.069243" y="294.426715" style="fill: #4169e1; stroke: #4169e1"/>
     <use xlink:href="#m39e7caf42b" x="276.3042" y="271.818744" style="fill: #4169e1; stroke: #4169e1"/>
     <use xlink:href="#m39e7caf42b" x="281.071244" y="174.870426" style="fill: #4169e1; stroke: #4169e1"/>
     <use xlink:href="#m39e7caf42b" x="227.893676" y="167.227871" style="fill: #4169e1; stroke: #4169e1"/>
     <use xlink:href="#m39e7caf42b" x="309.695599" y="212.298654" style="fill: #4169e1; stroke: #4169e1"/>
     <use xlink:href="#m39e7caf42b" x="321.417711" y="283.780418" style="fill: #4169e1; stroke: #4169e1"/>
     <use xlink:href="#m39e7caf42b" x="385.754694" y="97.37542" style="fill: #4169e1; stroke: #4169e1"/>
     <use xlink:href="#m39e7caf42b" x="413.076335" y="167.973516" style="fill: #4169e1; stroke: #4169e1"/>
     <use xlink:href="#m39e7caf42b" x="169.780838" y="255.42721" style="fill: #4169e1; stroke: #4169e1"/>
     <use xlink:href="#m39e7caf42b" x="353.462735" y="259.56935" style="fill: #4169e1; stroke: #4169e1"/>
     <use xlink:href="#m39e7caf42b" x="441.80109" y="231.928654" style="fill: #4169e1; stroke: #4169e1"/>
     <use xlink:href="#m39e7caf42b" x="250.076904" y="249.523141" style="fill: #4169e1; stroke: #4169e1"/>
     <use xlink:href="#m39e7caf42b" x="334.771534" y="293.868586" style="fill: #4169e1; stroke: #4169e1"/>
     <use xlink:href="#m39e7caf42b" x="450.443138" y="89.925995" style="fill: #4169e1; stroke: #4169e1"/>
     <use xlink:href="#m39e7caf42b" x="340.182764" y="251.143605" style="fill: #4169e1; stroke: #4169e1"/>
     <use xlink:href="#m39e7caf42b" x="353.761402" y="276.646768" style="fill: #4169e1; stroke: #4169e1"/>
     <use xlink:href="#m39e7caf42b" x="345.956354" y="298.717536" style="fill: #4169e1; stroke: #4169e1"/>
     <use xlink:href="#m39e7caf42b" x="329.776439" y="231.826135" style="fill: #4169e1; stroke: #4169e1"/>
     <use xlink:href="#m39e7caf42b" x="283.785746" y="289.096435" style="fill: #4169e1; stroke: #4169e1"/>
     <use xlink:href="#m39e7caf42b" x="356.486976" y="192.179861" style="fill: #4169e1; stroke: #4169e1"/>
     <use xlink:href="#m39e7caf42b" x="460.402238" y="176.73599" style="fill: #4169e1; stroke: #4169e1"/>
     <use xlink:href="#m39e7caf42b" x="484.102514" y="150.422141" style="fill: #4169e1; stroke: #4169e1"/>
     <use xlink:href="#m39e7caf42b" x="290.311072" y="231.233608" style="fill: #4169e1; stroke: #4169e1"/>
     <use xlink:href="#m39e7caf42b" x="293.95249" y="167.471247" style="fill: #4169e1; stroke: #4169e1"/>
     <use xlink:href="#m39e7caf42b" x="219.764519" y="260.041872" style="fill: #4169e1; stroke: #4169e1"/>
     <use xlink:href="#m39e7caf42b" x="223.8262" y="120.020258" style="fill: #4169e1; stroke: #4169e1"/>
     <use xlink:href="#m39e7caf42b" x="212.601511" y="267.949764" style="fill: #4169e1; stroke: #4169e1"/>
     <use xlink:href="#m39e7caf42b" x="434.067941" y="196.560683" style="fill: #4169e1; stroke: #4169e1"/>
     <use xlink:href="#m39e7caf42b" x="451.453849" y="127.127494" style="fill: #4169e1; stroke: #4169e1"/>
     <use xlink:href="#m39e7caf42b" x="408.502331" y="128.702052" style="fill: #4169e1; stroke: #4169e1"/>
     <use xlink:href="#m39e7caf42b" x="363.534401" y="144.061443" style="fill: #4169e1; stroke: #4169e1"/>
     <use xlink:href="#m39e7caf42b" x="405.035572" y="184.386707" style="fill: #4169e1; stroke: #4169e1"/>
     <use xlink:href="#m39e7caf42b" x="381.526589" y="252.099921" style="fill: #4169e1; stroke: #4169e1"/>
     <use xlink:href="#m39e7caf42b" x="342.276802" y="99.196115" style="fill: #4169e1; stroke: #4169e1"/>
     <use xlink:href="#m39e7caf42b" x="287.3017" y="137.816552" style="fill: #4169e1; stroke: #4169e1"/>
     <use xlink:href="#m39e7caf42b" x="282.934525" y="112.872186" style="fill: #4169e1; stroke: #4169e1"/>
     <use xlink:href="#m39e7caf42b" x="237.491804" y="293.95069" style="fill: #4169e1; stroke: #4169e1"/>
     <use xlink:href="#m39e7caf42b" x="353.566516" y="101.584096" style="fill: #4169e1; stroke: #4169e1"/>
     <use xlink:href="#m39e7caf42b" x="262.659884" y="304.060945" style="fill: #4169e1; stroke: #4169e1"/>
     <use xlink:href="#m39e7caf42b" x="245.395266" y="255.923867" style="fill: #4169e1; stroke: #4169e1"/>
     <use xlink:href="#m39e7caf42b" x="348.687214" y="299.950311" style="fill: #4169e1; stroke: #4169e1"/>
     <use xlink:href="#m39e7caf42b" x="345.779436" y="260.541221" style="fill: #4169e1; stroke: #4169e1"/>
     <use xlink:href="#m39e7caf42b" x="346.130071" y="201.370907" style="fill: #4169e1; stroke: #4169e1"/>
     <use xlink:href="#m39e7caf42b" x="338.967219" y="164.402191" style="fill: #4169e1; stroke: #4169e1"/>
     <use xlink:href="#m39e7caf42b" x="299.953349" y="219.079909" style="fill: #4169e1; stroke: #4169e1"/>
     <use xlink:href="#m39e7caf42b" x="285.651384" y="227.599856" style="fill: #4169e1; stroke: #4169e1"/>
     <use xlink:href="#m39e7caf42b" x="483.808002" y="153.714134" style="fill: #4169e1; stroke: #4169e1"/>
     <use xlink:href="#m39e7caf42b" x="389.929573" y="181.239408" style="fill: #4169e1; stroke: #4169e1"/>
     <use xlink:href="#m39e7caf42b" x="362.349614" y="262.180271" style="fill: #4169e1; stroke: #4169e1"/>
     <use xlink:href="#m39e7caf42b" x="380.549973" y="150.660603" style="fill: #4169e1; stroke: #4169e1"/>
     <use xlink:href="#m39e7caf42b" x="433.044886" y="119.600079" style="fill: #4169e1; stroke: #4169e1"/>
     <use xlink:href="#m39e7caf42b" x="484.041132" y="263.931998" style="fill: #4169e1; stroke: #4169e1"/>
     <use xlink:href="#m39e7caf42b" x="295.295956" y="294.078293" style="fill: #4169e1; stroke: #4169e1"/>
     <use xlink:href="#m39e7caf42b" x="277.868626" y="205.509117" style="fill: #4169e1; stroke: #4169e1"/>
     <use xlink:href="#m39e7caf42b" x="393.973438" y="233.25629" style="fill: #4169e1; stroke: #4169e1"/>
     <use xlink:href="#m39e7caf42b" x="364.094506" y="166.216247" style="fill: #4169e1; stroke: #4169e1"/>
     <use xlink:href="#m39e7caf42b" x="207.489797" y="334.230402" style="fill: #4169e1; stroke: #4169e1"/>
     <use xlink:href="#m39e7caf42b" x="497.111233" y="274.705424" style="fill: #4169e1; stroke: #4169e1"/>
     <use xlink:href="#m39e7caf42b" x="307.425043" y="238.51445" style="fill: #4169e1; stroke: #4169e1"/>
     <use xlink:href="#m39e7caf42b" x="450.515497" y="140.486768" style="fill: #4169e1; stroke: #4169e1"/>
     <use xlink:href="#m39e7caf42b" x="304.083817" y="323.16284" style="fill: #4169e1; stroke: #4169e1"/>
     <use xlink:href="#m39e7caf42b" x="431.43385" y="169.287063" style="fill: #4169e1; stroke: #4169e1"/>
     <use xlink:href="#m39e7caf42b" x="248.763145" y="179.694339" style="fill: #4169e1; stroke: #4169e1"/>
     <use xlink:href="#m39e7caf42b" x="174.593581" y="242.513612" style="fill: #4169e1; stroke: #4169e1"/>
     <use xlink:href="#m39e7caf42b" x="394.618131" y="136.402067" style="fill: #4169e1; stroke: #4169e1"/>
     <use xlink:href="#m39e7caf42b" x="313.881292" y="138.325427" style="fill: #4169e1; stroke: #4169e1"/>
     <use xlink:href="#m39e7caf42b" x="343.836146" y="122.993749" style="fill: #4169e1; stroke: #4169e1"/>
     <use xlink:href="#m39e7caf42b" x="165.913587" y="263.331957" style="fill: #4169e1; stroke: #4169e1"/>
     <use xlink:href="#m39e7caf42b" x="290.519124" y="281.521414" style="fill: #4169e1; stroke: #4169e1"/>
     <use xlink:href="#m39e7caf42b" x="417.028045" y="236.962718" style="fill: #4169e1; stroke: #4169e1"/>
     <use xlink:href="#m39e7caf42b" x="411.355813" y="234.577029" style="fill: #4169e1; stroke: #4169e1"/>
     <use xlink:href="#m39e7caf42b" x="335.124778" y="198.958196" style="fill: #4169e1; stroke: #4169e1"/>
     <use xlink:href="#m39e7caf42b" x="397.745009" y="294.921236" style="fill: #4169e1; stroke: #4169e1"/>
     <use xlink:href="#m39e7caf42b" x="353.465436" y="198.436856" style="fill: #4169e1; stroke: #4169e1"/>
     <use xlink:href="#m39e7caf42b" x="356.102632" y="223.505009" style="fill: #4169e1; stroke: #4169e1"/>
     <use xlink:href="#m39e7caf42b" x="427.142191" y="224.102797" style="fill: #4169e1; stroke: #4169e1"/>
     <use xlink:href="#m39e7caf42b" x="244.110262" y="279.082697" style="fill: #4169e1; stroke: #4169e1"/>
     <use xlink:href="#m39e7caf42b" x="228.004303" y="206.032932" style="fill: #4169e1; stroke: #4169e1"/>
     <use xlink:href="#m39e7caf42b" x="414.193987" y="209.611127" style="fill: #4169e1; stroke: #4169e1"/>
     <use xlink:href="#m39e7caf42b" x="399.902635" y="75.506141" style="fill: #4169e1; stroke: #4169e1"/>
     <use xlink:href="#m39e7caf42b" x="351.188145" y="184.439643" style="fill: #4169e1; stroke: #4169e1"/>
     <use xlink:href="#m39e7caf42b" x="306.903669" y="246.860779" style="fill: #4169e1; stroke: #4169e1"/>
     <use xlink:href="#m39e7caf42b" x="460.987214" y="138.495212" style="fill: #4169e1; stroke: #4169e1"/>
     <use xlink:href="#m39e7caf42b" x="317.849147" y="307.138183" style="fill: #4169e1; stroke: #4169e1"/>
     <use xlink:href="#m39e7caf42b" x="320.539706" y="288.907816" style="fill: #4169e1; stroke: #4169e1"/>
     <use xlink:href="#m39e7caf42b" x="291.666824" y="144.098428" style="fill: #4169e1; stroke: #4169e1"/>
     <use xlink:href="#m39e7caf42b" x="189.232536" y="285.192944" style="fill: #4169e1; stroke: #4169e1"/>
     <use xlink:href="#m39e7caf42b" x="281.599855" y="286.704171" style="fill: #4169e1; stroke: #4169e1"/>
     <use xlink:href="#m39e7caf42b" x="395.398311" y="211.310578" style="fill: #4169e1; stroke: #4169e1"/>
     <use xlink:href="#m39e7caf42b" x="418.346424" y="131.628048" style="fill: #4169e1; stroke: #4169e1"/>
     <use xlink:href="#m39e7caf42b" x="319.53243" y="275.461288" style="fill: #4169e1; stroke: #4169e1"/>
     <use xlink:href="#m39e7caf42b" x="451.070032" y="105.339763" style="fill: #4169e1; stroke: #4169e1"/>
     <use xlink:href="#m39e7caf42b" x="367.5408" y="197.162798" style="fill: #4169e1; stroke: #4169e1"/>
     <use xlink:href="#m39e7caf42b" x="475.052367" y="158.190745" style="fill: #4169e1; stroke: #4169e1"/>
     <use xlink:href="#m39e7caf42b" x="289.103512" y="205.688466" style="fill: #4169e1; stroke: #4169e1"/>
     <use xlink:href="#m39e7caf42b" x="293.481893" y="227.30206" style="fill: #4169e1; stroke: #4169e1"/>
     <use xlink:href="#m39e7caf42b" x="290.50736" y="140.691785" style="fill: #4169e1; stroke: #4169e1"/>
     <use xlink:href="#m39e7caf42b" x="350.093808" y="134.537464" style="fill: #4169e1; stroke: #4169e1"/>
     <use xlink:href="#m39e7caf42b" x="170.610043" y="204.458163" style="fill: #4169e1; stroke: #4169e1"/>
     <use xlink:href="#m39e7caf42b" x="264.448934" y="100.872187" style="fill: #4169e1; stroke: #4169e1"/>
     <use xlink:href="#m39e7caf42b" x="349.239083" y="334.55779" style="fill: #4169e1; stroke: #4169e1"/>
     <use xlink:href="#m39e7caf42b" x="367.843439" y="105.411527" style="fill: #4169e1; stroke: #4169e1"/>
     <use xlink:href="#m39e7caf42b" x="389.075159" y="172.498048" style="fill: #4169e1; stroke: #4169e1"/>
     <use xlink:href="#m39e7caf42b" x="323.666402" y="156.123007" style="fill: #4169e1; stroke: #4169e1"/>
     <use xlink:href="#m39e7caf42b" x="499.970156" y="172.433993" style="fill: #4169e1; stroke: #4169e1"/>
     <use xlink:href="#m39e7caf42b" x="208.045747" y="175.435563" style="fill: #4169e1; stroke: #4169e1"/>
     <use xlink:href="#m39e7caf42b" x="448.04081" y="198.41367" style="fill: #4169e1; stroke: #4169e1"/>
     <use xlink:href="#m39e7caf42b" x="252.296059" y="128.624834" style="fill: #4169e1; stroke: #4169e1"/>
     <use xlink:href="#m39e7caf42b" x="219.180876" y="322.428064" style="fill: #4169e1; stroke: #4169e1"/>
     <use xlink:href="#m39e7caf42b" x="449.418337" y="207.816986" style="fill: #4169e1; stroke: #4169e1"/>
     <use xlink:href="#m39e7caf42b" x="286.52676" y="327.899833" style="fill: #4169e1; stroke: #4169e1"/>
     <use xlink:href="#m39e7caf42b" x="494.619709" y="202.289898" style="fill: #4169e1; stroke: #4169e1"/>
     <use xlink:href="#m39e7caf42b" x="361.991691" y="298.346774" style="fill: #4169e1; stroke: #4169e1"/>
     <use xlink:href="#m39e7caf42b" x="262.584155" y="322.074113" style="fill: #4169e1; stroke: #4169e1"/>
     <use xlink:href="#m39e7caf42b" x="395.36921" y="134.447692" style="fill: #4169e1; stroke: #4169e1"/>
     <use xlink:href="#m39e7caf42b" x="209.222047" y="321.788379" style="fill: #4169e1; stroke: #4169e1"/>
     <use xlink:href="#m39e7caf42b" x="302.633483" y="203.000362" style="fill: #4169e1; stroke: #4169e1"/>
     <use xlink:href="#m39e7caf42b" x="225.622948" y="196.366745" style="fill: #4169e1; stroke: #4169e1"/>
     <use xlink:href="#m39e7caf42b" x="499.970156" y="134.924712" style="fill: #4169e1; stroke: #4169e1"/>
     <use xlink:href="#m39e7caf42b" x="190.173236" y="305.007384" style="fill: #4169e1; stroke: #4169e1"/>
     <use xlink:href="#m39e7caf42b" x="334.389924" y="245.982882" style="fill: #4169e1; stroke: #4169e1"/>
     <use xlink:href="#m39e7caf42b" x="441.435654" y="119.102737" style="fill: #4169e1; stroke: #4169e1"/>
     <use xlink:href="#m39e7caf42b" x="277.31658" y="314.155133" style="fill: #4169e1; stroke: #4169e1"/>
     <use xlink:href="#m39e7caf42b" x="397.802587" y="152.338218" style="fill: #4169e1; stroke: #4169e1"/>
     <use xlink:href="#m39e7caf42b" x="261.471746" y="146.729628" style="fill: #4169e1; stroke: #4169e1"/>
     <use xlink:href="#m39e7caf42b" x="436.145777" y="160.206177" style="fill: #4169e1; stroke: #4169e1"/>
     <use xlink:href="#m39e7caf42b" x="373.728349" y="188.054213" style="fill: #4169e1; stroke: #4169e1"/>
     <use xlink:href="#m39e7caf42b" x="401.894522" y="167.317941" style="fill: #4169e1; stroke: #4169e1"/>
     <use xlink:href="#m39e7caf42b" x="309.651093" y="247.131081" style="fill: #4169e1; stroke: #4169e1"/>
     <use xlink:href="#m39e7caf42b" x="384.359132" y="118.163268" style="fill: #4169e1; stroke: #4169e1"/>
    </g>
   </g>
   <g id="PathCollection_2">
    <defs>
     <path id="mfa0f48a421" d="M 0 2.5 
C 0.663008 2.5 1.29895 2.236584 1.767767 1.767767 
C 2.236584 1.29895 2.5 0.663008 2.5 0 
C 2.5 -0.663008 2.236584 -1.29895 1.767767 -1.767767 
C 1.29895 -2.236584 0.663008 -2.5 0 -2.5 
C -0.663008 -2.5 -1.29895 -2.236584 -1.767767 -1.767767 
C -2.236584 -1.29895 -2.5 -0.663008 -2.5 0 
C -2.5 0.663008 -2.236584 1.29895 -1.767767 1.767767 
C -1.29895 2.236584 -0.663008 2.5 0 2.5 
z
" style="stroke: #b22222"/>
    </defs>
    <g clip-path="url(#p9a92cef1fa)">
     <use xlink:href="#mfa0f48a421" x="257.747345" y="238.961134" style="fill: #b22222; stroke: #b22222"/>
     <use xlink:href="#mfa0f48a421" x="243.148911" y="217.267786" style="fill: #b22222; stroke: #b22222"/>
     <use xlink:href="#mfa0f48a421" x="209.287652" y="214.808553" style="fill: #b22222; stroke: #b22222"/>
     <use xlink:href="#mfa0f48a421" x="221.025014" y="211.54745" style="fill: #b22222; stroke: #b22222"/>
     <use xlink:href="#mfa0f48a421" x="244.856692" y="211.492306" style="fill: #b22222; stroke: #b22222"/>
     <use xlink:href="#mfa0f48a421" x="219.133733" y="220.38199" style="fill: #b22222; stroke: #b22222"/>
     <use xlink:href="#mfa0f48a421" x="269.153022" y="240.327647" style="fill: #b22222; stroke: #b22222"/>
     <use xlink:href="#mfa0f48a421" x="247.027034" y="246.877666" style="fill: #b22222; stroke: #b22222"/>
     <use xlink:href="#mfa0f48a421" x="250.337708" y="226.954067" style="fill: #b22222; stroke: #b22222"/>
     <use xlink:href="#mfa0f48a421" x="215.095154" y="219.009936" style="fill: #b22222; stroke: #b22222"/>
     <use xlink:href="#mfa0f48a421" x="231.485778" y="234.035366" style="fill: #b22222; stroke: #b22222"/>
     <use xlink:href="#mfa0f48a421" x="224.043056" y="217.705095" style="fill: #b22222; stroke: #b22222"/>
     <use xlink:href="#mfa0f48a421" x="208.813055" y="225.738038" style="fill: #b22222; stroke: #b22222"/>
     <use xlink:href="#mfa0f48a421" x="247.794088" y="243.394422" style="fill: #b22222; stroke: #b22222"/>
     <use xlink:href="#mfa0f48a421" x="237.404042" y="229.453709" style="fill: #b22222; stroke: #b22222"/>
     <use xlink:href="#mfa0f48a421" x="246.760605" y="237.846564" style="fill: #b22222; stroke: #b22222"/>
     <use xlink:href="#mfa0f48a421" x="213.980284" y="214.052516" style="fill: #b22222; stroke: #b22222"/>
     <use xlink:href="#mfa0f48a421" x="252.519836" y="230.595709" style="fill: #b22222; stroke: #b22222"/>
     <use xlink:href="#mfa0f48a421" x="221.693952" y="228.461585" style="fill: #b22222; stroke: #b22222"/>
     <use xlink:href="#mfa0f48a421" x="225.738968" y="226.772475" style="fill: #b22222; stroke: #b22222"/>
     <use xlink:href="#mfa0f48a421" x="212.841625" y="222.709426" style="fill: #b22222; stroke: #b22222"/>
     <use xlink:href="#mfa0f48a421" x="209.036561" y="218.31462" style="fill: #b22222; stroke: #b22222"/>
     <use xlink:href="#mfa0f48a421" x="250.39517" y="242.541408" style="fill: #b22222; stroke: #b22222"/>
     <use xlink:href="#mfa0f48a421" x="355.28898" y="197.690422" style="fill: #b22222; stroke: #b22222"/>
     <use xlink:href="#mfa0f48a421" x="240.677811" y="225.304395" style="fill: #b22222; stroke: #b22222"/>
     <use xlink:href="#mfa0f48a421" x="247.311628" y="240.668677" style="fill: #b22222; stroke: #b22222"/>
     <use xlink:href="#mfa0f48a421" x="296.298739" y="236.633606" style="fill: #b22222; stroke: #b22222"/>
     <use xlink:href="#mfa0f48a421" x="247.882158" y="237.786506" style="fill: #b22222; stroke: #b22222"/>
     <use xlink:href="#mfa0f48a421" x="240.515859" y="239.027552" style="fill: #b22222; stroke: #b22222"/>
     <use xlink:href="#mfa0f48a421" x="240.743961" y="240.389259" style="fill: #b22222; stroke: #b22222"/>
     <use xlink:href="#mfa0f48a421" x="243.57607" y="235.704504" style="fill: #b22222; stroke: #b22222"/>
     <use xlink:href="#mfa0f48a421" x="237.979564" y="228.685757" style="fill: #b22222; stroke: #b22222"/>
     <use xlink:href="#mfa0f48a421" x="253.866291" y="223.403448" style="fill: #b22222; stroke: #b22222"/>
     <use xlink:href="#mfa0f48a421" x="220.030877" y="224.267325" style="fill: #b22222; stroke: #b22222"/>
     <use xlink:href="#mfa0f48a421" x="222.743147" y="220.22464" style="fill: #b22222; stroke: #b22222"/>
     <use xlink:href="#mfa0f48a421" x="243.8206" y="242.941475" style="fill: #b22222; stroke: #b22222"/>
     <use xlink:href="#mfa0f48a421" x="225.691249" y="219.167744" style="fill: #b22222; stroke: #b22222"/>
     <use xlink:href="#mfa0f48a421" x="291.932517" y="235.116111" style="fill: #b22222; stroke: #b22222"/>
     <use xlink:href="#mfa0f48a421" x="230.890255" y="243.296996" style="fill: #b22222; stroke: #b22222"/>
     <use xlink:href="#mfa0f48a421" x="277.414346" y="234.104227" style="fill: #b22222; stroke: #b22222"/>
     <use xlink:href="#mfa0f48a421" x="236.736448" y="237.286532" style="fill: #b22222; stroke: #b22222"/>
     <use xlink:href="#mfa0f48a421" x="290.755025" y="228.653957" style="fill: #b22222; stroke: #b22222"/>
     <use xlink:href="#mfa0f48a421" x="362.977524" y="184.540977" style="fill: #b22222; stroke: #b22222"/>
     <use xlink:href="#mfa0f48a421" x="238.624206" y="213.883039" style="fill: #b22222; stroke: #b22222"/>
     <use xlink:href="#mfa0f48a421" x="306.85838" y="236.506471" style="fill: #b22222; stroke: #b22222"/>
     <use xlink:href="#mfa0f48a421" x="250.801533" y="239.922285" style="fill: #b22222; stroke: #b22222"/>
     <use xlink:href="#mfa0f48a421" x="217.093965" y="221.938026" style="fill: #b22222; stroke: #b22222"/>
     <use xlink:href="#mfa0f48a421" x="262.944544" y="234.760663" style="fill: #b22222; stroke: #b22222"/>
     <use xlink:href="#mfa0f48a421" x="211.325011" y="223.513665" style="fill: #b22222; stroke: #b22222"/>
     <use xlink:href="#mfa0f48a421" x="356.170917" y="197.205427" style="fill: #b22222; stroke: #b22222"/>
     <use xlink:href="#mfa0f48a421" x="372.360317" y="187.952984" style="fill: #b22222; stroke: #b22222"/>
     <use xlink:href="#mfa0f48a421" x="248.086309" y="243.868797" style="fill: #b22222; stroke: #b22222"/>
     <use xlink:href="#mfa0f48a421" x="244.865378" y="230.438185" style="fill: #b22222; stroke: #b22222"/>
     <use xlink:href="#mfa0f48a421" x="357.848045" y="186.843984" style="fill: #b22222; stroke: #b22222"/>
     <use xlink:href="#mfa0f48a421" x="223.999626" y="222.546356" style="fill: #b22222; stroke: #b22222"/>
     <use xlink:href="#mfa0f48a421" x="211.248097" y="224.876673" style="fill: #b22222; stroke: #b22222"/>
     <use xlink:href="#mfa0f48a421" x="367.639241" y="178.037565" style="fill: #b22222; stroke: #b22222"/>
     <use xlink:href="#mfa0f48a421" x="218.298506" y="218.330477" style="fill: #b22222; stroke: #b22222"/>
     <use xlink:href="#mfa0f48a421" x="303.688421" y="221.851912" style="fill: #b22222; stroke: #b22222"/>
     <use xlink:href="#mfa0f48a421" x="207.347211" y="219.769174" style="fill: #b22222; stroke: #b22222"/>
     <use xlink:href="#mfa0f48a421" x="222.613781" y="220.734679" style="fill: #b22222; stroke: #b22222"/>
     <use xlink:href="#mfa0f48a421" x="220.160098" y="212.434153" style="fill: #b22222; stroke: #b22222"/>
     <use xlink:href="#mfa0f48a421" x="350.076503" y="213.677103" style="fill: #b22222; stroke: #b22222"/>
     <use xlink:href="#mfa0f48a421" x="365.413554" y="198.296814" style="fill: #b22222; stroke: #b22222"/>
     <use xlink:href="#mfa0f48a421" x="232.400592" y="212.229973" style="fill: #b22222; stroke: #b22222"/>
     <use xlink:href="#mfa0f48a421" x="253.891913" y="242.643909" style="fill: #b22222; stroke: #b22222"/>
     <use xlink:href="#mfa0f48a421" x="239.406782" y="226.087267" style="fill: #b22222; stroke: #b22222"/>
     <use xlink:href="#mfa0f48a421" x="236.610747" y="230.60054" style="fill: #b22222; stroke: #b22222"/>
     <use xlink:href="#mfa0f48a421" x="240.535956" y="238.970295" style="fill: #b22222; stroke: #b22222"/>
     <use xlink:href="#mfa0f48a421" x="221.539178" y="226.132418" style="fill: #b22222; stroke: #b22222"/>
    </g>
   </g>
   <g id="patch_4">
    <path d="M 56.450156 450.72 
L 56.450156 7.2 
" style="fill: none; stroke: #ffffff; stroke-width: 1.25; stroke-linejoin: miter; stroke-linecap: square"/>
   </g>
   <g id="patch_5">
    <path d="M 499.970156 450.72 
L 499.970156 7.2 
" style="fill: none; stroke: #ffffff; stroke-width: 1.25; stroke-linejoin: miter; stroke-linecap: square"/>
   </g>
   <g id="patch_6">
    <path d="M 56.450156 450.72 
L 499.970156 450.72 
" style="fill: none; stroke: #ffffff; stroke-width: 1.25; stroke-linejoin: miter; stroke-linecap: square"/>
   </g>
   <g id="patch_7">
    <path d="M 56.450156 7.2 
L 499.970156 7.2 
" style="fill: none; stroke: #ffffff; stroke-width: 1.25; stroke-linejoin: miter; stroke-linecap: square"/>
   </g>
   <g id="text_13">
    <!-- t = 600 -->
    <g style="fill: #262626" transform="translate(65.320556 24.659775) scale(0.12 -0.12)">
     <defs>
      <path id="ArialMT-74" d="M 1650 503 
L 1731 6 
Q 1494 -44 1306 -44 
Q 1000 -44 831 53 
Q 663 150 594 308 
Q 525 466 525 972 
L 525 2881 
L 113 2881 
L 113 3319 
L 525 3319 
L 525 4141 
L 1084 4478 
L 1084 3319 
L 1650 3319 
L 1650 2881 
L 1084 2881 
L 1084 941 
Q 1084 700 1114 631 
Q 1144 563 1211 522 
Q 1278 481 1403 481 
Q 1497 481 1650 503 
z
" transform="scale(0.015625)"/>
      <path id="ArialMT-20" transform="scale(0.015625)"/>
      <path id="ArialMT-3d" d="M 3381 2694 
L 356 2694 
L 356 3219 
L 3381 3219 
L 3381 2694 
z
M 3381 1303 
L 356 1303 
L 356 1828 
L 3381 1828 
L 3381 1303 
z
" transform="scale(0.015625)"/>
      <path id="ArialMT-36" d="M 3184 3459 
L 2625 3416 
Q 2550 3747 2413 3897 
Q 2184 4138 1850 4138 
Q 1581 4138 1378 3988 
Q 1113 3794 959 3422 
Q 806 3050 800 2363 
Q 1003 2672 1297 2822 
Q 1591 2972 1913 2972 
Q 2475 2972 2870 2558 
Q 3266 2144 3266 1488 
Q 3266 1056 3080 686 
Q 2894 316 2569 119 
Q 2244 -78 1831 -78 
Q 1128 -78 684 439 
Q 241 956 241 2144 
Q 241 3472 731 4075 
Q 1159 4600 1884 4600 
Q 2425 4600 2770 4297 
Q 3116 3994 3184 3459 
z
M 888 1484 
Q 888 1194 1011 928 
Q 1134 663 1356 523 
Q 1578 384 1822 384 
Q 2178 384 2434 671 
Q 2691 959 2691 1453 
Q 2691 1928 2437 2201 
Q 2184 2475 1800 2475 
Q 1419 2475 1153 2201 
Q 888 1928 888 1484 
z
" transform="scale(0.015625)"/>
     </defs>
     <use xlink:href="#ArialMT-74"/>
     <use xlink:href="#ArialMT-20" x="27.783203"/>
     <use xlink:href="#ArialMT-3d" x="55.566406"/>
     <use xlink:href="#ArialMT-20" x="113.964844"/>
     <use xlink:href="#ArialMT-36" x="141.748047"/>
     <use xlink:href="#ArialMT-30" x="197.363281"/>
     <use xlink:href="#ArialMT-30" x="252.978516"/>
    </g>
   </g>
   <g id="legend_1">
    <g id="patch_8">
     <path d="M 328.111406 94.59 
L 483.170156 94.59 
Q 487.970156 94.59 487.970156 89.79 
L 487.970156 24 
Q 487.970156 19.2 483.170156 19.2 
L 328.111406 19.2 
Q 323.311406 19.2 323.311406 24 
L 323.311406 89.79 
Q 323.311406 94.59 328.111406 94.59 
z
" style="fill: #eaeaf2; opacity: 0.8; stroke: #cccccc; stroke-linejoin: miter"/>
    </g>
    <g id="PathCollection_3">
     <g>
      <use xlink:href="#m39e7caf42b" x="356.911406" y="39.97125" style="fill: #4169e1; stroke: #4169e1"/>
     </g>
    </g>
    <g id="text_14">
     <!-- Sheep -->
     <g style="fill: #262626" transform="translate(400.111406 46.27125) scale(0.24 -0.24)">
      <defs>
       <path id="ArialMT-53" d="M 288 1472 
L 859 1522 
Q 900 1178 1048 958 
Q 1197 738 1509 602 
Q 1822 466 2213 466 
Q 2559 466 2825 569 
Q 3091 672 3220 851 
Q 3350 1031 3350 1244 
Q 3350 1459 3225 1620 
Q 3100 1781 2813 1891 
Q 2628 1963 1997 2114 
Q 1366 2266 1113 2400 
Q 784 2572 623 2826 
Q 463 3081 463 3397 
Q 463 3744 659 4045 
Q 856 4347 1234 4503 
Q 1613 4659 2075 4659 
Q 2584 4659 2973 4495 
Q 3363 4331 3572 4012 
Q 3781 3694 3797 3291 
L 3216 3247 
Q 3169 3681 2898 3903 
Q 2628 4125 2100 4125 
Q 1550 4125 1298 3923 
Q 1047 3722 1047 3438 
Q 1047 3191 1225 3031 
Q 1400 2872 2139 2705 
Q 2878 2538 3153 2413 
Q 3553 2228 3743 1945 
Q 3934 1663 3934 1294 
Q 3934 928 3725 604 
Q 3516 281 3123 101 
Q 2731 -78 2241 -78 
Q 1619 -78 1198 103 
Q 778 284 539 648 
Q 300 1013 288 1472 
z
" transform="scale(0.015625)"/>
       <path id="ArialMT-68" d="M 422 0 
L 422 4581 
L 984 4581 
L 984 2938 
Q 1378 3394 1978 3394 
Q 2347 3394 2619 3248 
Q 2891 3103 3008 2847 
Q 3125 2591 3125 2103 
L 3125 0 
L 2563 0 
L 2563 2103 
Q 2563 2525 2380 2717 
Q 2197 2909 1863 2909 
Q 1613 2909 1392 2779 
Q 1172 2650 1078 2428 
Q 984 2206 984 1816 
L 984 0 
L 422 0 
z
" transform="scale(0.015625)"/>
       <path id="ArialMT-65" d="M 2694 1069 
L 3275 997 
Q 3138 488 2766 206 
Q 2394 -75 1816 -75 
Q 1088 -75 661 373 
Q 234 822 234 1631 
Q 234 2469 665 2931 
Q 1097 3394 1784 3394 
Q 2450 3394 2872 2941 
Q 3294 2488 3294 1666 
Q 3294 1616 3291 1516 
L 816 1516 
Q 847 969 1125 678 
Q 1403 388 1819 388 
Q 2128 388 2347 550 
Q 2566 713 2694 1069 
z
M 847 1978 
L 2700 1978 
Q 2663 2397 2488 2606 
Q 2219 2931 1791 2931 
Q 1403 2931 1139 2672 
Q 875 2413 847 1978 
z
" transform="scale(0.015625)"/>
       <path id="ArialMT-70" d="M 422 -1272 
L 422 3319 
L 934 3319 
L 934 2888 
Q 1116 3141 1344 3267 
Q 1572 3394 1897 3394 
Q 2322 3394 2647 3175 
Q 2972 2956 3137 2557 
Q 3303 2159 3303 1684 
Q 3303 1175 3120 767 
Q 2938 359 2589 142 
Q 2241 -75 1856 -75 
Q 1575 -75 1351 44 
Q 1128 163 984 344 
L 984 -1272 
L 422 -1272 
z
M 931 1641 
Q 931 1000 1190 694 
Q 1450 388 1819 388 
Q 2194 388 2461 705 
Q 2728 1022 2728 1688 
Q 2728 2322 2467 2637 
Q 2206 2953 1844 2953 
Q 1484 2953 1207 2617 
Q 931 2281 931 1641 
z
" transform="scale(0.015625)"/>
      </defs>
      <use xlink:href="#ArialMT-53"/>
      <use xlink:href="#ArialMT-68" x="66.699219"/>
      <use xlink:href="#ArialMT-65" x="122.314453"/>
      <use xlink:href="#ArialMT-65" x="177.929688"/>
      <use xlink:href="#ArialMT-70" x="233.544922"/>
     </g>
    </g>
    <g id="PathCollection_4">
     <g>
      <use xlink:href="#mfa0f48a421" x="356.911406" y="73.92" style="fill: #b22222; stroke: #b22222"/>
     </g>
    </g>
    <g id="text_15">
     <!-- Wolves -->
     <g style="fill: #262626" transform="translate(400.111406 80.22) scale(0.24 -0.24)">
      <defs>
       <path id="ArialMT-57" d="M 1294 0 
L 78 4581 
L 700 4581 
L 1397 1578 
Q 1509 1106 1591 641 
Q 1766 1375 1797 1488 
L 2669 4581 
L 3400 4581 
L 4056 2263 
Q 4303 1400 4413 641 
Q 4500 1075 4641 1638 
L 5359 4581 
L 5969 4581 
L 4713 0 
L 4128 0 
L 3163 3491 
Q 3041 3928 3019 4028 
Q 2947 3713 2884 3491 
L 1913 0 
L 1294 0 
z
" transform="scale(0.015625)"/>
       <path id="ArialMT-6f" d="M 213 1659 
Q 213 2581 725 3025 
Q 1153 3394 1769 3394 
Q 2453 3394 2887 2945 
Q 3322 2497 3322 1706 
Q 3322 1066 3130 698 
Q 2938 331 2570 128 
Q 2203 -75 1769 -75 
Q 1072 -75 642 372 
Q 213 819 213 1659 
z
M 791 1659 
Q 791 1022 1069 705 
Q 1347 388 1769 388 
Q 2188 388 2466 706 
Q 2744 1025 2744 1678 
Q 2744 2294 2464 2611 
Q 2184 2928 1769 2928 
Q 1347 2928 1069 2612 
Q 791 2297 791 1659 
z
" transform="scale(0.015625)"/>
       <path id="ArialMT-6c" d="M 409 0 
L 409 4581 
L 972 4581 
L 972 0 
L 409 0 
z
" transform="scale(0.015625)"/>
       <path id="ArialMT-76" d="M 1344 0 
L 81 3319 
L 675 3319 
L 1388 1331 
Q 1503 1009 1600 663 
Q 1675 925 1809 1294 
L 2547 3319 
L 3125 3319 
L 1869 0 
L 1344 0 
z
" transform="scale(0.015625)"/>
       <path id="ArialMT-73" d="M 197 991 
L 753 1078 
Q 800 744 1014 566 
Q 1228 388 1613 388 
Q 2000 388 2187 545 
Q 2375 703 2375 916 
Q 2375 1106 2209 1216 
Q 2094 1291 1634 1406 
Q 1016 1563 777 1677 
Q 538 1791 414 1992 
Q 291 2194 291 2438 
Q 291 2659 392 2848 
Q 494 3038 669 3163 
Q 800 3259 1026 3326 
Q 1253 3394 1513 3394 
Q 1903 3394 2198 3281 
Q 2494 3169 2634 2976 
Q 2775 2784 2828 2463 
L 2278 2388 
Q 2241 2644 2061 2787 
Q 1881 2931 1553 2931 
Q 1166 2931 1000 2803 
Q 834 2675 834 2503 
Q 834 2394 903 2306 
Q 972 2216 1119 2156 
Q 1203 2125 1616 2013 
Q 2213 1853 2448 1751 
Q 2684 1650 2818 1456 
Q 2953 1263 2953 975 
Q 2953 694 2789 445 
Q 2625 197 2315 61 
Q 2006 -75 1616 -75 
Q 969 -75 630 194 
Q 291 463 197 991 
z
" transform="scale(0.015625)"/>
      </defs>
      <use xlink:href="#ArialMT-57"/>
      <use xlink:href="#ArialMT-6f" x="92.634766"/>
      <use xlink:href="#ArialMT-6c" x="148.25"/>
      <use xlink:href="#ArialMT-76" x="170.466797"/>
      <use xlink:href="#ArialMT-65" x="220.466797"/>
      <use xlink:href="#ArialMT-73" x="276.082031"/>
     </g>
    </g>
   </g>
  </g>
 </g>
 <defs>
  <clipPath id="p9a92cef1fa">
   <rect x="56.450156" y="7.2" width="443.52" height="443.52"/>
  </clipPath>
 </defs>
</svg>
