<?xml version="1.0" encoding="utf-8" standalone="no"?>
<!DOCTYPE svg PUBLIC "-//W3C//DTD SVG 1.1//EN"
  "http://www.w3.org/Graphics/SVG/1.1/DTD/svg11.dtd">
<svg xmlns:xlink="http://www.w3.org/1999/xlink" width="507.170156pt" height="492.454219pt" viewBox="0 0 507.170156 492.454219" xmlns="http://www.w3.org/2000/svg" version="1.1">
 <metadata>
  <rdf:RDF xmlns:dc="http://purl.org/dc/elements/1.1/" xmlns:cc="http://creativecommons.org/ns#" xmlns:rdf="http://www.w3.org/1999/02/22-rdf-syntax-ns#">
   <cc:Work>
    <dc:type rdf:resource="http://purl.org/dc/dcmitype/StillImage"/>
    <dc:date>2026-05-12T10:43:20.499701</dc:date>
    <dc:format>image/svg+xml</dc:format>
    <dc:creator>
     <cc:Agent>
      <dc:title>Matplotlib v3.7.1, https://matplotlib.org/</dc:title>
     </cc:Agent>
    </dc:creator>
   </cc:Work>
  </rdf:RDF>
 </metadata>
 <defs>
  <style type="text/css">*{stroke-linejoin: round; stroke-linecap: butt}</style>
 </defs>
 <g id="figure_1">
  <g id="patch_1">
   <path d="M 0 492.454219 
L 507.170156 492.454219 
L 507.170156 0 
L 0 0 
z
" style="fill: #ffffff"/>
  </g>
  <g id="axes_1">
   <g id="patch_2">
    <path d="M 56.450156 450.72 
L 499.970156 450.72 
L 499.970156 7.2 
L 56.450156 7.2 
z
" style="fill: #eaeaf2"/>
   </g>
   <g id="matplotlib.axis_1">
    <g id="xtick_1">
     <g id="line2d_1">
      <path d="M 100.802156 450.72 
L 100.802156 7.2 
" clip-path="url(#p3f99edbc9d)" style="fill: none; stroke: #ffffff; stroke-linecap: round"/>
     </g>
     <g id="text_1">
      <!-- −400 -->
      <g style="fill: #262626" transform="translate(88.414266 468.093594) scale(0.11 -0.11)">
       <defs>
        <path id="ArialMT-2212" d="M 3381 1997 
L 356 1997 
L 356 2522 
L 3381 2522 
L 3381 1997 
z
" transform="scale(0.015625)"/>
        <path id="ArialMT-34" d="M 2069 0 
L 2069 1097 
L 81 1097 
L 81 1613 
L 2172 4581 
L 2631 4581 
L 2631 1613 
L 3250 1613 
L 3250 1097 
L 2631 1097 
L 2631 0 
L 2069 0 
z
M 2069 1613 
L 2069 3678 
L 634 1613 
L 2069 1613 
z
" transform="scale(0.015625)"/>
        <path id="ArialMT-30" d="M 266 2259 
Q 266 3072 433 3567 
Q 600 4063 929 4331 
Q 1259 4600 1759 4600 
Q 2128 4600 2406 4451 
Q 2684 4303 2865 4023 
Q 3047 3744 3150 3342 
Q 3253 2941 3253 2259 
Q 3253 1453 3087 958 
Q 2922 463 2592 192 
Q 2263 -78 1759 -78 
Q 1097 -78 719 397 
Q 266 969 266 2259 
z
M 844 2259 
Q 844 1131 1108 757 
Q 1372 384 1759 384 
Q 2147 384 2411 759 
Q 2675 1134 2675 2259 
Q 2675 3391 2411 3762 
Q 2147 4134 1753 4134 
Q 1366 4134 1134 3806 
Q 844 3388 844 2259 
z
" transform="scale(0.015625)"/>
       </defs>
       <use xlink:href="#ArialMT-2212"/>
       <use xlink:href="#ArialMT-34" x="58.398438"/>
       <use xlink:href="#ArialMT-30" x="114.013672"/>
       <use xlink:href="#ArialMT-30" x="169.628906"/>
      </g>
     </g>
    </g>
    <g id="xtick_2">
     <g id="line2d_2">
      <path d="M 189.506156 450.72 
L 189.506156 7.2 
" clip-path="url(#p3f99edbc9d)" style="fill: none; stroke: #ffffff; stroke-linecap: round"/>
     </g>
     <g id="text_2">
      <!-- −200 -->
      <g style="fill: #262626" transform="translate(177.118266 468.093594) scale(0.11 -0.11)">
       <defs>
        <path id="ArialMT-32" d="M 3222 541 
L 3222 0 
L 194 0 
Q 188 203 259 391 
Q 375 700 629 1000 
Q 884 1300 1366 1694 
Q 2113 2306 2375 2664 
Q 2638 3022 2638 3341 
Q 2638 3675 2398 3904 
Q 2159 4134 1775 4134 
Q 1369 4134 1125 3890 
Q 881 3647 878 3216 
L 300 3275 
Q 359 3922 746 4261 
Q 1134 4600 1788 4600 
Q 2447 4600 2831 4234 
Q 3216 3869 3216 3328 
Q 3216 3053 3103 2787 
Q 2991 2522 2730 2228 
Q 2469 1934 1863 1422 
Q 1356 997 1212 845 
Q 1069 694 975 541 
L 3222 541 
z
" transform="scale(0.015625)"/>
       </defs>
       <use xlink:href="#ArialMT-2212"/>
       <use xlink:href="#ArialMT-32" x="58.398438"/>
       <use xlink:href="#ArialMT-30" x="114.013672"/>
       <use xlink:href="#ArialMT-30" x="169.628906"/>
      </g>
     </g>
    </g>
    <g id="xtick_3">
     <g id="line2d_3">
      <path d="M 278.210156 450.72 
L 278.210156 7.2 
" clip-path="url(#p3f99edbc9d)" style="fill: none; stroke: #ffffff; stroke-linecap: round"/>
     </g>
     <g id="text_3">
      <!-- 0 -->
      <g style="fill: #262626" transform="translate(275.151641 468.093594) scale(0.11 -0.11)">
       <use xlink:href="#ArialMT-30"/>
      </g>
     </g>
    </g>
    <g id="xtick_4">
     <g id="line2d_4">
      <path d="M 366.914156 450.72 
L 366.914156 7.2 
" clip-path="url(#p3f99edbc9d)" style="fill: none; stroke: #ffffff; stroke-linecap: round"/>
     </g>
     <g id="text_4">
      <!-- 200 -->
      <g style="fill: #262626" transform="translate(357.738609 468.093594) scale(0.11 -0.11)">
       <use xlink:href="#ArialMT-32"/>
       <use xlink:href="#ArialMT-30" x="55.615234"/>
       <use xlink:href="#ArialMT-30" x="111.230469"/>
      </g>
     </g>
    </g>
    <g id="xtick_5">
     <g id="line2d_5">
      <path d="M 455.618156 450.72 
L 455.618156 7.2 
" clip-path="url(#p3f99edbc9d)" style="fill: none; stroke: #ffffff; stroke-linecap: round"/>
     </g>
     <g id="text_5">
      <!-- 400 -->
      <g style="fill: #262626" transform="translate(446.442609 468.093594) scale(0.11 -0.11)">
       <use xlink:href="#ArialMT-34"/>
       <use xlink:href="#ArialMT-30" x="55.615234"/>
       <use xlink:href="#ArialMT-30" x="111.230469"/>
      </g>
     </g>
    </g>
    <g id="text_6">
     <!-- x -->
     <g style="fill: #262626" transform="translate(275.210156 482.869219) scale(0.12 -0.12)">
      <defs>
       <path id="ArialMT-78" d="M 47 0 
L 1259 1725 
L 138 3319 
L 841 3319 
L 1350 2541 
Q 1494 2319 1581 2169 
Q 1719 2375 1834 2534 
L 2394 3319 
L 3066 3319 
L 1919 1756 
L 3153 0 
L 2463 0 
L 1781 1031 
L 1600 1309 
L 728 0 
L 47 0 
z
" transform="scale(0.015625)"/>
      </defs>
      <use xlink:href="#ArialMT-78"/>
     </g>
    </g>
   </g>
   <g id="matplotlib.axis_2">
    <g id="ytick_1">
     <g id="line2d_6">
      <path d="M 56.450156 406.368 
L 499.970156 406.368 
" clip-path="url(#p3f99edbc9d)" style="fill: none; stroke: #ffffff; stroke-linecap: round"/>
     </g>
     <g id="text_7">
      <!-- −400 -->
      <g style="fill: #262626" transform="translate(22.174375 410.304797) scale(0.11 -0.11)">
       <use xlink:href="#ArialMT-2212"/>
       <use xlink:href="#ArialMT-34" x="58.398438"/>
       <use xlink:href="#ArialMT-30" x="114.013672"/>
       <use xlink:href="#ArialMT-30" x="169.628906"/>
      </g>
     </g>
    </g>
    <g id="ytick_2">
     <g id="line2d_7">
      <path d="M 56.450156 317.664 
L 499.970156 317.664 
" clip-path="url(#p3f99edbc9d)" style="fill: none; stroke: #ffffff; stroke-linecap: round"/>
     </g>
     <g id="text_8">
      <!-- −200 -->
      <g style="fill: #262626" transform="translate(22.174375 321.600797) scale(0.11 -0.11)">
       <use xlink:href="#ArialMT-2212"/>
       <use xlink:href="#ArialMT-32" x="58.398438"/>
       <use xlink:href="#ArialMT-30" x="114.013672"/>
       <use xlink:href="#ArialMT-30" x="169.628906"/>
      </g>
     </g>
    </g>
    <g id="ytick_3">
     <g id="line2d_8">
      <path d="M 56.450156 228.96 
L 499.970156 228.96 
" clip-path="url(#p3f99edbc9d)" style="fill: none; stroke: #ffffff; stroke-linecap: round"/>
     </g>
     <g id="text_9">
      <!-- 0 -->
      <g style="fill: #262626" transform="translate(40.833125 232.896797) scale(0.11 -0.11)">
       <use xlink:href="#ArialMT-30"/>
      </g>
     </g>
    </g>
    <g id="ytick_4">
     <g id="line2d_9">
      <path d="M 56.450156 140.256 
L 499.970156 140.256 
" clip-path="url(#p3f99edbc9d)" style="fill: none; stroke: #ffffff; stroke-linecap: round"/>
     </g>
     <g id="text_10">
      <!-- 200 -->
      <g style="fill: #262626" transform="translate(28.599063 144.192797) scale(0.11 -0.11)">
       <use xlink:href="#ArialMT-32"/>
       <use xlink:href="#ArialMT-30" x="55.615234"/>
       <use xlink:href="#ArialMT-30" x="111.230469"/>
      </g>
     </g>
    </g>
    <g id="ytick_5">
     <g id="line2d_10">
      <path d="M 56.450156 51.552 
L 499.970156 51.552 
" clip-path="url(#p3f99edbc9d)" style="fill: none; stroke: #ffffff; stroke-linecap: round"/>
     </g>
     <g id="text_11">
      <!-- 400 -->
      <g style="fill: #262626" transform="translate(28.599063 55.488797) scale(0.11 -0.11)">
       <use xlink:href="#ArialMT-34"/>
       <use xlink:href="#ArialMT-30" x="55.615234"/>
       <use xlink:href="#ArialMT-30" x="111.230469"/>
      </g>
     </g>
    </g>
    <g id="text_12">
     <!-- y -->
     <g style="fill: #262626" transform="translate(15.64875 231.96) rotate(-90) scale(0.12 -0.12)">
      <defs>
       <path id="ArialMT-79" d="M 397 -1278 
L 334 -750 
Q 519 -800 656 -800 
Q 844 -800 956 -737 
Q 1069 -675 1141 -563 
Q 1194 -478 1313 -144 
Q 1328 -97 1363 -6 
L 103 3319 
L 709 3319 
L 1400 1397 
Q 1534 1031 1641 628 
Q 1738 1016 1872 1384 
L 2581 3319 
L 3144 3319 
L 1881 -56 
Q 1678 -603 1566 -809 
Q 1416 -1088 1222 -1217 
Q 1028 -1347 759 -1347 
Q 597 -1347 397 -1278 
z
" transform="scale(0.015625)"/>
      </defs>
      <use xlink:href="#ArialMT-79"/>
     </g>
    </g>
   </g>
   <g id="patch_3">
    <path d="M 278.210156 317.664 
C 301.734732 317.664 324.298969 308.317587 340.933356 291.6832 
C 357.567743 275.048813 366.914156 252.484576 366.914156 228.96 
C 366.914156 205.435424 357.567743 182.871187 340.933356 166.2368 
C 324.298969 149.602413 301.734732 140.256 278.210156 140.256 
C 254.68558 140.256 232.121343 149.602413 215.486956 166.2368 
C 198.852569 182.871187 189.506156 205.435424 189.506156 228.96 
C 189.506156 252.484576 198.852569 275.048813 215.486956 291.6832 
C 232.121343 308.317587 254.68558 317.664 278.210156 317.664 
z
" clip-path="url(#p3f99edbc9d)" style="fill: #228b22; opacity: 0.12; stroke: #228b22; stroke-width: 1.5; stroke-linejoin: miter"/>
   </g>
   <g id="PathCollection_1">
    <defs>
     <path id="maf775cc4ef" d="M 0 2.236068 
C 0.593012 2.236068 1.161816 2.000462 1.581139 1.581139 
C 2.000462 1.161816 2.236068 0.593012 2.236068 0 
C 2.236068 -0.593012 2.000462 -1.161816 1.581139 -1.581139 
C 1.161816 -2.000462 0.593012 -2.236068 0 -2.236068 
C -0.593012 -2.236068 -1.161816 -2.000462 -1.581139 -1.581139 
C -2.000462 -1.161816 -2.236068 -0.593012 -2.236068 0 
C -2.236068 0.593012 -2.000462 1.161816 -1.581139 1.581139 
C -1.161816 2.000462 -0.593012 2.236068 0 2.236068 
z
" style="stroke: #4169e1"/>
    </defs>
    <g clip-path="url(#p3f99edbc9d)">
     <use xlink:href="#maf775cc4ef" x="245.509019" y="94.039099" style="fill: #4169e1; stroke: #4169e1"/>
     <use xlink:href="#maf775cc4ef" x="426.875277" y="199.238597" style="fill: #4169e1; stroke: #4169e1"/>
     <use xlink:href="#maf775cc4ef" x="320.769198" y="200.543988" style="fill: #4169e1; stroke: #4169e1"/>
     <use xlink:href="#maf775cc4ef" x="234.860191" y="277.446022" style="fill: #4169e1; stroke: #4169e1"/>
     <use xlink:href="#maf775cc4ef" x="266.382539" y="205.417717" style="fill: #4169e1; stroke: #4169e1"/>
     <use xlink:href="#maf775cc4ef" x="442.821735" y="184.218895" style="fill: #4169e1; stroke: #4169e1"/>
     <use xlink:href="#maf775cc4ef" x="362.544108" y="127.864916" style="fill: #4169e1; stroke: #4169e1"/>
     <use xlink:href="#maf775cc4ef" x="255.148861" y="339.510311" style="fill: #4169e1; stroke: #4169e1"/>
     <use xlink:href="#maf775cc4ef" x="346.27956" y="109.767695" style="fill: #4169e1; stroke: #4169e1"/>
     <use xlink:href="#maf775cc4ef" x="338.023054" y="273.531564" style="fill: #4169e1; stroke: #4169e1"/>
     <use xlink:href="#maf775cc4ef" x="358.577941" y="119.057144" style="fill: #4169e1; stroke: #4169e1"/>
     <use xlink:href="#maf775cc4ef" x="240.516939" y="245.425714" style="fill: #4169e1; stroke: #4169e1"/>
     <use xlink:href="#maf775cc4ef" x="316.199225" y="326.79127" style="fill: #4169e1; stroke: #4169e1"/>
     <use xlink:href="#maf775cc4ef" x="428.814892" y="323.752682" style="fill: #4169e1; stroke: #4169e1"/>
     <use xlink:href="#maf775cc4ef" x="331.426283" y="317.501544" style="fill: #4169e1; stroke: #4169e1"/>
     <use xlink:href="#maf775cc4ef" x="384.273887" y="278.368717" style="fill: #4169e1; stroke: #4169e1"/>
     <use xlink:href="#maf775cc4ef" x="294.975679" y="119.829825" style="fill: #4169e1; stroke: #4169e1"/>
     <use xlink:href="#maf775cc4ef" x="320.644309" y="215.714951" style="fill: #4169e1; stroke: #4169e1"/>
     <use xlink:href="#maf775cc4ef" x="381.561936" y="89.656903" style="fill: #4169e1; stroke: #4169e1"/>
     <use xlink:href="#maf775cc4ef" x="485.839913" y="260.466467" style="fill: #4169e1; stroke: #4169e1"/>
     <use xlink:href="#maf775cc4ef" x="250.211863" y="161.395207" style="fill: #4169e1; stroke: #4169e1"/>
     <use xlink:href="#maf775cc4ef" x="357.619916" y="139.586355" style="fill: #4169e1; stroke: #4169e1"/>
     <use xlink:href="#maf775cc4ef" x="294.838781" y="143.238817" style="fill: #4169e1; stroke: #4169e1"/>
     <use xlink:href="#maf775cc4ef" x="299.225178" y="231.098003" style="fill: #4169e1; stroke: #4169e1"/>
     <use xlink:href="#maf775cc4ef" x="181.389103" y="212.344083" style="fill: #4169e1; stroke: #4169e1"/>
     <use xlink:href="#maf775cc4ef" x="210.368542" y="224.006821" style="fill: #4169e1; stroke: #4169e1"/>
     <use xlink:href="#maf775cc4ef" x="231.657245" y="112.060036" style="fill: #4169e1; stroke: #4169e1"/>
     <use xlink:href="#maf775cc4ef" x="189.873994" y="219.746315" style="fill: #4169e1; stroke: #4169e1"/>
     <use xlink:href="#maf775cc4ef" x="265.06375" y="292.722524" style="fill: #4169e1; stroke: #4169e1"/>
     <use xlink:href="#maf775cc4ef" x="398.663193" y="136.199933" style="fill: #4169e1; stroke: #4169e1"/>
     <use xlink:href="#maf775cc4ef" x="371.821151" y="214.003143" style="fill: #4169e1; stroke: #4169e1"/>
     <use xlink:href="#maf775cc4ef" x="324.445797" y="306.760545" style="fill: #4169e1; stroke: #4169e1"/>
     <use xlink:href="#maf775cc4ef" x="374.898552" y="283.024368" style="fill: #4169e1; stroke: #4169e1"/>
     <use xlink:href="#maf775cc4ef" x="444.42289" y="176.305535" style="fill: #4169e1; stroke: #4169e1"/>
     <use xlink:href="#maf775cc4ef" x="402.676421" y="192.605599" style="fill: #4169e1; stroke: #4169e1"/>
     <use xlink:href="#maf775cc4ef" x="332.452055" y="247.368016" style="fill: #4169e1; stroke: #4169e1"/>
     <use xlink:href="#maf775cc4ef" x="314.326663" y="76.150509" style="fill: #4169e1; stroke: #4169e1"/>
     <use xlink:href="#maf775cc4ef" x="212.480961" y="121.535167" style="fill: #4169e1; stroke: #4169e1"/>
     <use xlink:href="#maf775cc4ef" x="487.496468" y="195.090789" style="fill: #4169e1; stroke: #4169e1"/>
     <use xlink:href="#maf775cc4ef" x="318.982334" y="197.676721" style="fill: #4169e1; stroke: #4169e1"/>
     <use xlink:href="#maf775cc4ef" x="171.558999" y="257.188394" style="fill: #4169e1; stroke: #4169e1"/>
     <use xlink:href="#maf775cc4ef" x="293.743758" y="243.968179" style="fill: #4169e1; stroke: #4169e1"/>
     <use xlink:href="#maf775cc4ef" x="349.832796" y="149.661519" style="fill: #4169e1; stroke: #4169e1"/>
     <use xlink:href="#maf775cc4ef" x="412.956048" y="43.598945" style="fill: #4169e1; stroke: #4169e1"/>
     <use xlink:href="#maf775cc4ef" x="308.251696" y="154.856617" style="fill: #4169e1; stroke: #4169e1"/>
     <use xlink:href="#maf775cc4ef" x="278.803813" y="188.717372" style="fill: #4169e1; stroke: #4169e1"/>
     <use xlink:href="#maf775cc4ef" x="404.452044" y="141.413418" style="fill: #4169e1; stroke: #4169e1"/>
     <use xlink:href="#maf775cc4ef" x="438.050471" y="204.517492" style="fill: #4169e1; stroke: #4169e1"/>
     <use xlink:href="#maf775cc4ef" x="343.843665" y="276.097735" style="fill: #4169e1; stroke: #4169e1"/>
     <use xlink:href="#maf775cc4ef" x="216.115502" y="241.46348" style="fill: #4169e1; stroke: #4169e1"/>
     <use xlink:href="#maf775cc4ef" x="374.813991" y="186.364532" style="fill: #4169e1; stroke: #4169e1"/>
     <use xlink:href="#maf775cc4ef" x="223.569861" y="320.614563" style="fill: #4169e1; stroke: #4169e1"/>
     <use xlink:href="#maf775cc4ef" x="252.789463" y="147.500252" style="fill: #4169e1; stroke: #4169e1"/>
     <use xlink:href="#maf775cc4ef" x="330.293586" y="156.350472" style="fill: #4169e1; stroke: #4169e1"/>
     <use xlink:href="#maf775cc4ef" x="231.281215" y="305.869898" style="fill: #4169e1; stroke: #4169e1"/>
     <use xlink:href="#maf775cc4ef" x="279.800891" y="303.663025" style="fill: #4169e1; stroke: #4169e1"/>
     <use xlink:href="#maf775cc4ef" x="374.429802" y="82.538994" style="fill: #4169e1; stroke: #4169e1"/>
     <use xlink:href="#maf775cc4ef" x="358.387265" y="109.082938" style="fill: #4169e1; stroke: #4169e1"/>
     <use xlink:href="#maf775cc4ef" x="247.642166" y="208.39442" style="fill: #4169e1; stroke: #4169e1"/>
     <use xlink:href="#maf775cc4ef" x="325.055227" y="224.672417" style="fill: #4169e1; stroke: #4169e1"/>
     <use xlink:href="#maf775cc4ef" x="371.965037" y="165.076275" style="fill: #4169e1; stroke: #4169e1"/>
     <use xlink:href="#maf775cc4ef" x="208.481261" y="210.010335" style="fill: #4169e1; stroke: #4169e1"/>
     <use xlink:href="#maf775cc4ef" x="384.459407" y="212.971385" style="fill: #4169e1; stroke: #4169e1"/>
     <use xlink:href="#maf775cc4ef" x="351.937689" y="97.505155" style="fill: #4169e1; stroke: #4169e1"/>
     <use xlink:href="#maf775cc4ef" x="219.66197" y="254.605206" style="fill: #4169e1; stroke: #4169e1"/>
     <use xlink:href="#maf775cc4ef" x="321.081139" y="253.664519" style="fill: #4169e1; stroke: #4169e1"/>
     <use xlink:href="#maf775cc4ef" x="251.459405" y="283.76291" style="fill: #4169e1; stroke: #4169e1"/>
     <use xlink:href="#maf775cc4ef" x="412.061455" y="90.784869" style="fill: #4169e1; stroke: #4169e1"/>
     <use xlink:href="#maf775cc4ef" x="352.79663" y="93.197984" style="fill: #4169e1; stroke: #4169e1"/>
     <use xlink:href="#maf775cc4ef" x="209.749092" y="263.953898" style="fill: #4169e1; stroke: #4169e1"/>
     <use xlink:href="#maf775cc4ef" x="214.549417" y="167.812292" style="fill: #4169e1; stroke: #4169e1"/>
     <use xlink:href="#maf775cc4ef" x="225.61439" y="241.450941" style="fill: #4169e1; stroke: #4169e1"/>
     <use xlink:href="#maf775cc4ef" x="260.446533" y="154.45515" style="fill: #4169e1; stroke: #4169e1"/>
     <use xlink:href="#maf775cc4ef" x="336.674418" y="131.29507" style="fill: #4169e1; stroke: #4169e1"/>
     <use xlink:href="#maf775cc4ef" x="384.650354" y="108.0874" style="fill: #4169e1; stroke: #4169e1"/>
     <use xlink:href="#maf775cc4ef" x="213.944916" y="242.153554" style="fill: #4169e1; stroke: #4169e1"/>
     <use xlink:href="#maf775cc4ef" x="284.526299" y="341.703547" style="fill: #4169e1; stroke: #4169e1"/>
     <use xlink:href="#maf775cc4ef" x="212.843615" y="241.198074" style="fill: #4169e1; stroke: #4169e1"/>
     <use xlink:href="#maf775cc4ef" x="355.734496" y="150.875075" style="fill: #4169e1; stroke: #4169e1"/>
     <use xlink:href="#maf775cc4ef" x="316.475836" y="322.024188" style="fill: #4169e1; stroke: #4169e1"/>
     <use xlink:href="#maf775cc4ef" x="337.896175" y="305.155479" style="fill: #4169e1; stroke: #4169e1"/>
     <use xlink:href="#maf775cc4ef" x="382.316291" y="162.97924" style="fill: #4169e1; stroke: #4169e1"/>
     <use xlink:href="#maf775cc4ef" x="216.128008" y="287.739414" style="fill: #4169e1; stroke: #4169e1"/>
     <use xlink:href="#maf775cc4ef" x="337.813191" y="294.860253" style="fill: #4169e1; stroke: #4169e1"/>
     <use xlink:href="#maf775cc4ef" x="208.454678" y="181.65136" style="fill: #4169e1; stroke: #4169e1"/>
     <use xlink:href="#maf775cc4ef" x="173.591039" y="223.165187" style="fill: #4169e1; stroke: #4169e1"/>
     <use xlink:href="#maf775cc4ef" x="335.781659" y="291.293245" style="fill: #4169e1; stroke: #4169e1"/>
     <use xlink:href="#maf775cc4ef" x="429.855651" y="231.29287" style="fill: #4169e1; stroke: #4169e1"/>
     <use xlink:href="#maf775cc4ef" x="294.826848" y="244.813624" style="fill: #4169e1; stroke: #4169e1"/>
     <use xlink:href="#maf775cc4ef" x="376.48341" y="339.307297" style="fill: #4169e1; stroke: #4169e1"/>
     <use xlink:href="#maf775cc4ef" x="338.159299" y="236.193832" style="fill: #4169e1; stroke: #4169e1"/>
     <use xlink:href="#maf775cc4ef" x="323.724187" y="82.543853" style="fill: #4169e1; stroke: #4169e1"/>
     <use xlink:href="#maf775cc4ef" x="401.710593" y="196.524206" style="fill: #4169e1; stroke: #4169e1"/>
     <use xlink:href="#maf775cc4ef" x="253.320019" y="191.218455" style="fill: #4169e1; stroke: #4169e1"/>
     <use xlink:href="#maf775cc4ef" x="485.022106" y="247.460434" style="fill: #4169e1; stroke: #4169e1"/>
     <use xlink:href="#maf775cc4ef" x="482.44198" y="230.533964" style="fill: #4169e1; stroke: #4169e1"/>
     <use xlink:href="#maf775cc4ef" x="404.348243" y="186.5372" style="fill: #4169e1; stroke: #4169e1"/>
     <use xlink:href="#maf775cc4ef" x="216.791319" y="251.881823" style="fill: #4169e1; stroke: #4169e1"/>
     <use xlink:href="#maf775cc4ef" x="319.964259" y="266.155983" style="fill: #4169e1; stroke: #4169e1"/>
     <use xlink:href="#maf775cc4ef" x="332.225419" y="122.43426" style="fill: #4169e1; stroke: #4169e1"/>
     <use xlink:href="#maf775cc4ef" x="242.668856" y="287.023438" style="fill: #4169e1; stroke: #4169e1"/>
     <use xlink:href="#maf775cc4ef" x="323.790824" y="239.581398" style="fill: #4169e1; stroke: #4169e1"/>
     <use xlink:href="#maf775cc4ef" x="363.844498" y="248.469615" style="fill: #4169e1; stroke: #4169e1"/>
     <use xlink:href="#maf775cc4ef" x="176.706365" y="164.637053" style="fill: #4169e1; stroke: #4169e1"/>
     <use xlink:href="#maf775cc4ef" x="446.467457" y="117.779594" style="fill: #4169e1; stroke: #4169e1"/>
     <use xlink:href="#maf775cc4ef" x="301.854656" y="158.90442" style="fill: #4169e1; stroke: #4169e1"/>
     <use xlink:href="#maf775cc4ef" x="289.170747" y="173.917588" style="fill: #4169e1; stroke: #4169e1"/>
     <use xlink:href="#maf775cc4ef" x="423.374463" y="215.708435" style="fill: #4169e1; stroke: #4169e1"/>
     <use xlink:href="#maf775cc4ef" x="189.57616" y="245.783101" style="fill: #4169e1; stroke: #4169e1"/>
     <use xlink:href="#maf775cc4ef" x="319.867794" y="195.845442" style="fill: #4169e1; stroke: #4169e1"/>
     <use xlink:href="#maf775cc4ef" x="297.979704" y="295.83605" style="fill: #4169e1; stroke: #4169e1"/>
     <use xlink:href="#maf775cc4ef" x="333.74697" y="148.572379" style="fill: #4169e1; stroke: #4169e1"/>
     <use xlink:href="#maf775cc4ef" x="267.505121" y="161.784918" style="fill: #4169e1; stroke: #4169e1"/>
     <use xlink:href="#maf775cc4ef" x="408.097522" y="260.277394" style="fill: #4169e1; stroke: #4169e1"/>
     <use xlink:href="#maf775cc4ef" x="174.066373" y="188.598306" style="fill: #4169e1; stroke: #4169e1"/>
     <use xlink:href="#maf775cc4ef" x="330.752875" y="161.221294" style="fill: #4169e1; stroke: #4169e1"/>
     <use xlink:href="#maf775cc4ef" x="323.644712" y="253.398249" style="fill: #4169e1; stroke: #4169e1"/>
     <use xlink:href="#maf775cc4ef" x="316.363576" y="210.450261" style="fill: #4169e1; stroke: #4169e1"/>
     <use xlink:href="#maf775cc4ef" x="382.494813" y="286.072167" style="fill: #4169e1; stroke: #4169e1"/>
     <use xlink:href="#maf775cc4ef" x="312.675882" y="237.410742" style="fill: #4169e1; stroke: #4169e1"/>
     <use xlink:href="#maf775cc4ef" x="359.298898" y="194.411429" style="fill: #4169e1; stroke: #4169e1"/>
     <use xlink:href="#maf775cc4ef" x="252.829552" y="287.046556" style="fill: #4169e1; stroke: #4169e1"/>
     <use xlink:href="#maf775cc4ef" x="339.45956" y="212.527287" style="fill: #4169e1; stroke: #4169e1"/>
     <use xlink:href="#maf775cc4ef" x="490.700401" y="267.838711" style="fill: #4169e1; stroke: #4169e1"/>
     <use xlink:href="#maf775cc4ef" x="195.916515" y="140.756652" style="fill: #4169e1; stroke: #4169e1"/>
     <use xlink:href="#maf775cc4ef" x="323.367468" y="211.170551" style="fill: #4169e1; stroke: #4169e1"/>
     <use xlink:href="#maf775cc4ef" x="355.341205" y="354.856051" style="fill: #4169e1; stroke: #4169e1"/>
     <use xlink:href="#maf775cc4ef" x="340.694143" y="257.77672" style="fill: #4169e1; stroke: #4169e1"/>
     <use xlink:href="#maf775cc4ef" x="403.402623" y="93.728427" style="fill: #4169e1; stroke: #4169e1"/>
     <use xlink:href="#maf775cc4ef" x="193.315003" y="181.178354" style="fill: #4169e1; stroke: #4169e1"/>
     <use xlink:href="#maf775cc4ef" x="422.685768" y="186.989392" style="fill: #4169e1; stroke: #4169e1"/>
     <use xlink:href="#maf775cc4ef" x="261.323071" y="283.004708" style="fill: #4169e1; stroke: #4169e1"/>
     <use xlink:href="#maf775cc4ef" x="278.36301" y="313.343957" style="fill: #4169e1; stroke: #4169e1"/>
     <use xlink:href="#maf775cc4ef" x="314.617009" y="277.872522" style="fill: #4169e1; stroke: #4169e1"/>
     <use xlink:href="#maf775cc4ef" x="178.424687" y="149.261921" style="fill: #4169e1; stroke: #4169e1"/>
     <use xlink:href="#maf775cc4ef" x="436.93738" y="72.027998" style="fill: #4169e1; stroke: #4169e1"/>
     <use xlink:href="#maf775cc4ef" x="370.483154" y="247.80491" style="fill: #4169e1; stroke: #4169e1"/>
     <use xlink:href="#maf775cc4ef" x="473.142258" y="139.064561" style="fill: #4169e1; stroke: #4169e1"/>
     <use xlink:href="#maf775cc4ef" x="436.428039" y="280.45418" style="fill: #4169e1; stroke: #4169e1"/>
     <use xlink:href="#maf775cc4ef" x="248.749728" y="147.209876" style="fill: #4169e1; stroke: #4169e1"/>
     <use xlink:href="#maf775cc4ef" x="439.09931" y="105.978176" style="fill: #4169e1; stroke: #4169e1"/>
     <use xlink:href="#maf775cc4ef" x="458.430816" y="182.320193" style="fill: #4169e1; stroke: #4169e1"/>
     <use xlink:href="#maf775cc4ef" x="472.695828" y="291.897874" style="fill: #4169e1; stroke: #4169e1"/>
     <use xlink:href="#maf775cc4ef" x="314.974442" y="128.667091" style="fill: #4169e1; stroke: #4169e1"/>
     <use xlink:href="#maf775cc4ef" x="296.798298" y="267.2599" style="fill: #4169e1; stroke: #4169e1"/>
     <use xlink:href="#maf775cc4ef" x="244.244937" y="192.465382" style="fill: #4169e1; stroke: #4169e1"/>
     <use xlink:href="#maf775cc4ef" x="190.82536" y="298.314668" style="fill: #4169e1; stroke: #4169e1"/>
     <use xlink:href="#maf775cc4ef" x="204.770117" y="248.910836" style="fill: #4169e1; stroke: #4169e1"/>
    </g>
   </g>
   <g id="PathCollection_2">
    <defs>
     <path id="m51ba111a69" d="M 0 2.5 
C 0.663008 2.5 1.29895 2.236584 1.767767 1.767767 
C 2.236584 1.29895 2.5 0.663008 2.5 0 
C 2.5 -0.663008 2.236584 -1.29895 1.767767 -1.767767 
C 1.29895 -2.236584 0.663008 -2.5 0 -2.5 
C -0.663008 -2.5 -1.29895 -2.236584 -1.767767 -1.767767 
C -2.236584 -1.29895 -2.5 -0.663008 -2.5 0 
C -2.5 0.663008 -2.236584 1.29895 -1.767767 1.767767 
C -1.29895 2.236584 -0.663008 2.5 0 2.5 
z
" style="stroke: #b22222"/>
    </defs>
    <g clip-path="url(#p3f99edbc9d)">
     <use xlink:href="#m51ba111a69" x="267.342793" y="243.920022" style="fill: #b22222; stroke: #b22222"/>
     <use xlink:href="#m51ba111a69" x="261.142828" y="220.961519" style="fill: #b22222; stroke: #b22222"/>
     <use xlink:href="#m51ba111a69" x="310.413853" y="255.896206" style="fill: #b22222; stroke: #b22222"/>
     <use xlink:href="#m51ba111a69" x="258.213115" y="231.153173" style="fill: #b22222; stroke: #b22222"/>
     <use xlink:href="#m51ba111a69" x="270.00149" y="219.462773" style="fill: #b22222; stroke: #b22222"/>
     <use xlink:href="#m51ba111a69" x="292.467817" y="260.98911" style="fill: #b22222; stroke: #b22222"/>
     <use xlink:href="#m51ba111a69" x="267.128698" y="217.290924" style="fill: #b22222; stroke: #b22222"/>
     <use xlink:href="#m51ba111a69" x="279.123051" y="197.035432" style="fill: #b22222; stroke: #b22222"/>
     <use xlink:href="#m51ba111a69" x="290.895569" y="190.275255" style="fill: #b22222; stroke: #b22222"/>
     <use xlink:href="#m51ba111a69" x="313.904905" y="266.470317" style="fill: #b22222; stroke: #b22222"/>
     <use xlink:href="#m51ba111a69" x="305.283908" y="198.231267" style="fill: #b22222; stroke: #b22222"/>
     <use xlink:href="#m51ba111a69" x="296.145094" y="188.336486" style="fill: #b22222; stroke: #b22222"/>
     <use xlink:href="#m51ba111a69" x="288.076734" y="184.80877" style="fill: #b22222; stroke: #b22222"/>
     <use xlink:href="#m51ba111a69" x="280.035442" y="238.772427" style="fill: #b22222; stroke: #b22222"/>
     <use xlink:href="#m51ba111a69" x="312.645062" y="180.833563" style="fill: #b22222; stroke: #b22222"/>
     <use xlink:href="#m51ba111a69" x="267.49398" y="224.778318" style="fill: #b22222; stroke: #b22222"/>
     <use xlink:href="#m51ba111a69" x="255.766252" y="193.83991" style="fill: #b22222; stroke: #b22222"/>
     <use xlink:href="#m51ba111a69" x="302.343419" y="262.330285" style="fill: #b22222; stroke: #b22222"/>
     <use xlink:href="#m51ba111a69" x="273.052544" y="189.137885" style="fill: #b22222; stroke: #b22222"/>
     <use xlink:href="#m51ba111a69" x="277.017184" y="211.807964" style="fill: #b22222; stroke: #b22222"/>
     <use xlink:href="#m51ba111a69" x="269.295207" y="215.340204" style="fill: #b22222; stroke: #b22222"/>
     <use xlink:href="#m51ba111a69" x="272.648657" y="205.063702" style="fill: #b22222; stroke: #b22222"/>
     <use xlink:href="#m51ba111a69" x="248.264381" y="232.942112" style="fill: #b22222; stroke: #b22222"/>
     <use xlink:href="#m51ba111a69" x="293.635646" y="196.148616" style="fill: #b22222; stroke: #b22222"/>
     <use xlink:href="#m51ba111a69" x="310.642884" y="261.549723" style="fill: #b22222; stroke: #b22222"/>
     <use xlink:href="#m51ba111a69" x="256.934855" y="213.381874" style="fill: #b22222; stroke: #b22222"/>
     <use xlink:href="#m51ba111a69" x="262.011115" y="207.428657" style="fill: #b22222; stroke: #b22222"/>
     <use xlink:href="#m51ba111a69" x="271.701638" y="196.298284" style="fill: #b22222; stroke: #b22222"/>
     <use xlink:href="#m51ba111a69" x="262.013298" y="229.772928" style="fill: #b22222; stroke: #b22222"/>
     <use xlink:href="#m51ba111a69" x="275.072415" y="213.213084" style="fill: #b22222; stroke: #b22222"/>
     <use xlink:href="#m51ba111a69" x="259.584852" y="247.36732" style="fill: #b22222; stroke: #b22222"/>
     <use xlink:href="#m51ba111a69" x="300.292358" y="184.037737" style="fill: #b22222; stroke: #b22222"/>
     <use xlink:href="#m51ba111a69" x="251.256305" y="238.934713" style="fill: #b22222; stroke: #b22222"/>
     <use xlink:href="#m51ba111a69" x="260.658984" y="240.733886" style="fill: #b22222; stroke: #b22222"/>
     <use xlink:href="#m51ba111a69" x="272.26893" y="190.032742" style="fill: #b22222; stroke: #b22222"/>
     <use xlink:href="#m51ba111a69" x="282.218243" y="254.67051" style="fill: #b22222; stroke: #b22222"/>
     <use xlink:href="#m51ba111a69" x="257.584248" y="226.787745" style="fill: #b22222; stroke: #b22222"/>
     <use xlink:href="#m51ba111a69" x="262.290583" y="216.704767" style="fill: #b22222; stroke: #b22222"/>
     <use xlink:href="#m51ba111a69" x="315.883298" y="259.439382" style="fill: #b22222; stroke: #b22222"/>
     <use xlink:href="#m51ba111a69" x="238.018833" y="254.325834" style="fill: #b22222; stroke: #b22222"/>
     <use xlink:href="#m51ba111a69" x="279.09246" y="216.892126" style="fill: #b22222; stroke: #b22222"/>
     <use xlink:href="#m51ba111a69" x="270.700777" y="252.183503" style="fill: #b22222; stroke: #b22222"/>
     <use xlink:href="#m51ba111a69" x="290.479831" y="185.484963" style="fill: #b22222; stroke: #b22222"/>
     <use xlink:href="#m51ba111a69" x="270.013369" y="241.381081" style="fill: #b22222; stroke: #b22222"/>
     <use xlink:href="#m51ba111a69" x="278.212684" y="242.901955" style="fill: #b22222; stroke: #b22222"/>
    </g>
   </g>
   <g id="patch_4">
    <path d="M 56.450156 450.72 
L 56.450156 7.2 
" style="fill: none; stroke: #ffffff; stroke-width: 1.25; stroke-linejoin: miter; stroke-linecap: square"/>
   </g>
   <g id="patch_5">
    <path d="M 499.970156 450.72 
L 499.970156 7.2 
" style="fill: none; stroke: #ffffff; stroke-width: 1.25; stroke-linejoin: miter; stroke-linecap: square"/>
   </g>
   <g id="patch_6">
    <path d="M 56.450156 450.72 
L 499.970156 450.72 
" style="fill: none; stroke: #ffffff; stroke-width: 1.25; stroke-linejoin: miter; stroke-linecap: square"/>
   </g>
   <g id="patch_7">
    <path d="M 56.450156 7.2 
L 499.970156 7.2 
" style="fill: none; stroke: #ffffff; stroke-width: 1.25; stroke-linejoin: miter; stroke-linecap: square"/>
   </g>
   <g id="text_13">
    <!-- t = 2500 -->
    <g style="fill: #262626" transform="translate(65.320556 24.659775) scale(0.12 -0.12)">
     <defs>
      <path id="ArialMT-74" d="M 1650 503 
L 1731 6 
Q 1494 -44 1306 -44 
Q 1000 -44 831 53 
Q 663 150 594 308 
Q 525 466 525 972 
L 525 2881 
L 113 2881 
L 113 3319 
L 525 3319 
L 525 4141 
L 1084 4478 
L 1084 3319 
L 1650 3319 
L 1650 2881 
L 1084 2881 
L 1084 941 
Q 1084 700 1114 631 
Q 1144 563 1211 522 
Q 1278 481 1403 481 
Q 1497 481 1650 503 
z
" transform="scale(0.015625)"/>
      <path id="ArialMT-20" transform="scale(0.015625)"/>
      <path id="ArialMT-3d" d="M 3381 2694 
L 356 2694 
L 356 3219 
L 3381 3219 
L 3381 2694 
z
M 3381 1303 
L 356 1303 
L 356 1828 
L 3381 1828 
L 3381 1303 
z
" transform="scale(0.015625)"/>
      <path id="ArialMT-35" d="M 266 1200 
L 856 1250 
Q 922 819 1161 601 
Q 1400 384 1738 384 
Q 2144 384 2425 690 
Q 2706 997 2706 1503 
Q 2706 1984 2436 2262 
Q 2166 2541 1728 2541 
Q 1456 2541 1237 2417 
Q 1019 2294 894 2097 
L 366 2166 
L 809 4519 
L 3088 4519 
L 3088 3981 
L 1259 3981 
L 1013 2750 
Q 1425 3038 1878 3038 
Q 2478 3038 2890 2622 
Q 3303 2206 3303 1553 
Q 3303 931 2941 478 
Q 2500 -78 1738 -78 
Q 1113 -78 717 272 
Q 322 622 266 1200 
z
" transform="scale(0.015625)"/>
     </defs>
     <use xlink:href="#ArialMT-74"/>
     <use xlink:href="#ArialMT-20" x="27.783203"/>
     <use xlink:href="#ArialMT-3d" x="55.566406"/>
     <use xlink:href="#ArialMT-20" x="113.964844"/>
     <use xlink:href="#ArialMT-32" x="141.748047"/>
     <use xlink:href="#ArialMT-35" x="197.363281"/>
     <use xlink:href="#ArialMT-30" x="252.978516"/>
     <use xlink:href="#ArialMT-30" x="308.59375"/>
    </g>
   </g>
   <g id="legend_1">
    <g id="patch_8">
     <path d="M 328.111406 94.59 
L 483.170156 94.59 
Q 487.970156 94.59 487.970156 89.79 
L 487.970156 24 
Q 487.970156 19.2 483.170156 19.2 
L 328.111406 19.2 
Q 323.311406 19.2 323.311406 24 
L 323.311406 89.79 
Q 323.311406 94.59 328.111406 94.59 
z
" style="fill: #eaeaf2; opacity: 0.8; stroke: #cccccc; stroke-linejoin: miter"/>
    </g>
    <g id="PathCollection_3">
     <g>
      <use xlink:href="#maf775cc4ef" x="356.911406" y="39.97125" style="fill: #4169e1; stroke: #4169e1"/>
     </g>
    </g>
    <g id="text_14">
     <!-- Sheep -->
     <g style="fill: #262626" transform="translate(400.111406 46.27125) scale(0.24 -0.24)">
      <defs>
       <path id="ArialMT-53" d="M 288 1472 
L 859 1522 
Q 900 1178 1048 958 
Q 1197 738 1509 602 
Q 1822 466 2213 466 
Q 2559 466 2825 569 
Q 3091 672 3220 851 
Q 3350 1031 3350 1244 
Q 3350 1459 3225 1620 
Q 3100 1781 2813 1891 
Q 2628 1963 1997 2114 
Q 1366 2266 1113 2400 
Q 784 2572 623 2826 
Q 463 3081 463 3397 
Q 463 3744 659 4045 
Q 856 4347 1234 4503 
Q 1613 4659 2075 4659 
Q 2584 4659 2973 4495 
Q 3363 4331 3572 4012 
Q 3781 3694 3797 3291 
L 3216 3247 
Q 3169 3681 2898 3903 
Q 2628 4125 2100 4125 
Q 1550 4125 1298 3923 
Q 1047 3722 1047 3438 
Q 1047 3191 1225 3031 
Q 1400 2872 2139 2705 
Q 2878 2538 3153 2413 
Q 3553 2228 3743 1945 
Q 3934 1663 3934 1294 
Q 3934 928 3725 604 
Q 3516 281 3123 101 
Q 2731 -78 2241 -78 
Q 1619 -78 1198 103 
Q 778 284 539 648 
Q 300 1013 288 1472 
z
" transform="scale(0.015625)"/>
       <path id="ArialMT-68" d="M 422 0 
L 422 4581 
L 984 4581 
L 984 2938 
Q 1378 3394 1978 3394 
Q 2347 3394 2619 3248 
Q 2891 3103 3008 2847 
Q 3125 2591 3125 2103 
L 3125 0 
L 2563 0 
L 2563 2103 
Q 2563 2525 2380 2717 
Q 2197 2909 1863 2909 
Q 1613 2909 1392 2779 
Q 1172 2650 1078 2428 
Q 984 2206 984 1816 
L 984 0 
L 422 0 
z
" transform="scale(0.015625)"/>
       <path id="ArialMT-65" d="M 2694 1069 
L 3275 997 
Q 3138 488 2766 206 
Q 2394 -75 1816 -75 
Q 1088 -75 661 373 
Q 234 822 234 1631 
Q 234 2469 665 2931 
Q 1097 3394 1784 3394 
Q 2450 3394 2872 2941 
Q 3294 2488 3294 1666 
Q 3294 1616 3291 1516 
L 816 1516 
Q 847 969 1125 678 
Q 1403 388 1819 388 
Q 2128 388 2347 550 
Q 2566 713 2694 1069 
z
M 847 1978 
L 2700 1978 
Q 2663 2397 2488 2606 
Q 2219 2931 1791 2931 
Q 1403 2931 1139 2672 
Q 875 2413 847 1978 
z
" transform="scale(0.015625)"/>
       <path id="ArialMT-70" d="M 422 -1272 
L 422 3319 
L 934 3319 
L 934 2888 
Q 1116 3141 1344 3267 
Q 1572 3394 1897 3394 
Q 2322 3394 2647 3175 
Q 2972 2956 3137 2557 
Q 3303 2159 3303 1684 
Q 3303 1175 3120 767 
Q 2938 359 2589 142 
Q 2241 -75 1856 -75 
Q 1575 -75 1351 44 
Q 1128 163 984 344 
L 984 -1272 
L 422 -1272 
z
M 931 1641 
Q 931 1000 1190 694 
Q 1450 388 1819 388 
Q 2194 388 2461 705 
Q 2728 1022 2728 1688 
Q 2728 2322 2467 2637 
Q 2206 2953 1844 2953 
Q 1484 2953 1207 2617 
Q 931 2281 931 1641 
z
" transform="scale(0.015625)"/>
      </defs>
      <use xlink:href="#ArialMT-53"/>
      <use xlink:href="#ArialMT-68" x="66.699219"/>
      <use xlink:href="#ArialMT-65" x="122.314453"/>
      <use xlink:href="#ArialMT-65" x="177.929688"/>
      <use xlink:href="#ArialMT-70" x="233.544922"/>
     </g>
    </g>
    <g id="PathCollection_4">
     <g>
      <use xlink:href="#m51ba111a69" x="356.911406" y="73.92" style="fill: #b22222; stroke: #b22222"/>
     </g>
    </g>
    <g id="text_15">
     <!-- Wolves -->
     <g style="fill: #262626" transform="translate(400.111406 80.22) scale(0.24 -0.24)">
      <defs>
       <path id="ArialMT-57" d="M 1294 0 
L 78 4581 
L 700 4581 
L 1397 1578 
Q 1509 1106 1591 641 
Q 1766 1375 1797 1488 
L 2669 4581 
L 3400 4581 
L 4056 2263 
Q 4303 1400 4413 641 
Q 4500 1075 4641 1638 
L 5359 4581 
L 5969 4581 
L 4713 0 
L 4128 0 
L 3163 3491 
Q 3041 3928 3019 4028 
Q 2947 3713 2884 3491 
L 1913 0 
L 1294 0 
z
" transform="scale(0.015625)"/>
       <path id="ArialMT-6f" d="M 213 1659 
Q 213 2581 725 3025 
Q 1153 3394 1769 3394 
Q 2453 3394 2887 2945 
Q 3322 2497 3322 1706 
Q 3322 1066 3130 698 
Q 2938 331 2570 128 
Q 2203 -75 1769 -75 
Q 1072 -75 642 372 
Q 213 819 213 1659 
z
M 791 1659 
Q 791 1022 1069 705 
Q 1347 388 1769 388 
Q 2188 388 2466 706 
Q 2744 1025 2744 1678 
Q 2744 2294 2464 2611 
Q 2184 2928 1769 2928 
Q 1347 2928 1069 2612 
Q 791 2297 791 1659 
z
" transform="scale(0.015625)"/>
       <path id="ArialMT-6c" d="M 409 0 
L 409 4581 
L 972 4581 
L 972 0 
L 409 0 
z
" transform="scale(0.015625)"/>
       <path id="ArialMT-76" d="M 1344 0 
L 81 3319 
L 675 3319 
L 1388 1331 
Q 1503 1009 1600 663 
Q 1675 925 1809 1294 
L 2547 3319 
L 3125 3319 
L 1869 0 
L 1344 0 
z
" transform="scale(0.015625)"/>
       <path id="ArialMT-73" d="M 197 991 
L 753 1078 
Q 800 744 1014 566 
Q 1228 388 1613 388 
Q 2000 388 2187 545 
Q 2375 703 2375 916 
Q 2375 1106 2209 1216 
Q 2094 1291 1634 1406 
Q 1016 1563 777 1677 
Q 538 1791 414 1992 
Q 291 2194 291 2438 
Q 291 2659 392 2848 
Q 494 3038 669 3163 
Q 800 3259 1026 3326 
Q 1253 3394 1513 3394 
Q 1903 3394 2198 3281 
Q 2494 3169 2634 2976 
Q 2775 2784 2828 2463 
L 2278 2388 
Q 2241 2644 2061 2787 
Q 1881 2931 1553 2931 
Q 1166 2931 1000 2803 
Q 834 2675 834 2503 
Q 834 2394 903 2306 
Q 972 2216 1119 2156 
Q 1203 2125 1616 2013 
Q 2213 1853 2448 1751 
Q 2684 1650 2818 1456 
Q 2953 1263 2953 975 
Q 2953 694 2789 445 
Q 2625 197 2315 61 
Q 2006 -75 1616 -75 
Q 969 -75 630 194 
Q 291 463 197 991 
z
" transform="scale(0.015625)"/>
      </defs>
      <use xlink:href="#ArialMT-57"/>
      <use xlink:href="#ArialMT-6f" x="92.634766"/>
      <use xlink:href="#ArialMT-6c" x="148.25"/>
      <use xlink:href="#ArialMT-76" x="170.466797"/>
      <use xlink:href="#ArialMT-65" x="220.466797"/>
      <use xlink:href="#ArialMT-73" x="276.082031"/>
     </g>
    </g>
   </g>
  </g>
 </g>
 <defs>
  <clipPath id="p3f99edbc9d">
   <rect x="56.450156" y="7.2" width="443.52" height="443.52"/>
  </clipPath>
 </defs>
</svg>
