<?xml version="1.0" encoding="utf-8" standalone="no"?>
<!DOCTYPE svg PUBLIC "-//W3C//DTD SVG 1.1//EN"
  "http://www.w3.org/Graphics/SVG/1.1/DTD/svg11.dtd">
<svg xmlns:xlink="http://www.w3.org/1999/xlink" width="507.170156pt" height="492.454219pt" viewBox="0 0 507.170156 492.454219" xmlns="http://www.w3.org/2000/svg" version="1.1">
 <metadata>
  <rdf:RDF xmlns:dc="http://purl.org/dc/elements/1.1/" xmlns:cc="http://creativecommons.org/ns#" xmlns:rdf="http://www.w3.org/1999/02/22-rdf-syntax-ns#">
   <cc:Work>
    <dc:type rdf:resource="http://purl.org/dc/dcmitype/StillImage"/>
    <dc:date>2026-05-12T10:43:19.703098</dc:date>
    <dc:format>image/svg+xml</dc:format>
    <dc:creator>
     <cc:Agent>
      <dc:title>Matplotlib v3.7.1, https://matplotlib.org/</dc:title>
     </cc:Agent>
    </dc:creator>
   </cc:Work>
  </rdf:RDF>
 </metadata>
 <defs>
  <style type="text/css">*{stroke-linejoin: round; stroke-linecap: butt}</style>
 </defs>
 <g id="figure_1">
  <g id="patch_1">
   <path d="M 0 492.454219 
L 507.170156 492.454219 
L 507.170156 0 
L 0 0 
z
" style="fill: #ffffff"/>
  </g>
  <g id="axes_1">
   <g id="patch_2">
    <path d="M 56.450156 450.72 
L 499.970156 450.72 
L 499.970156 7.2 
L 56.450156 7.2 
z
" style="fill: #eaeaf2"/>
   </g>
   <g id="matplotlib.axis_1">
    <g id="xtick_1">
     <g id="line2d_1">
      <path d="M 100.802156 450.72 
L 100.802156 7.2 
" clip-path="url(#pb9bcaf4301)" style="fill: none; stroke: #ffffff; stroke-linecap: round"/>
     </g>
     <g id="text_1">
      <!-- −400 -->
      <g style="fill: #262626" transform="translate(88.414266 468.093594) scale(0.11 -0.11)">
       <defs>
        <path id="ArialMT-2212" d="M 3381 1997 
L 356 1997 
L 356 2522 
L 3381 2522 
L 3381 1997 
z
" transform="scale(0.015625)"/>
        <path id="ArialMT-34" d="M 2069 0 
L 2069 1097 
L 81 1097 
L 81 1613 
L 2172 4581 
L 2631 4581 
L 2631 1613 
L 3250 1613 
L 3250 1097 
L 2631 1097 
L 2631 0 
L 2069 0 
z
M 2069 1613 
L 2069 3678 
L 634 1613 
L 2069 1613 
z
" transform="scale(0.015625)"/>
        <path id="ArialMT-30" d="M 266 2259 
Q 266 3072 433 3567 
Q 600 4063 929 4331 
Q 1259 4600 1759 4600 
Q 2128 4600 2406 4451 
Q 2684 4303 2865 4023 
Q 3047 3744 3150 3342 
Q 3253 2941 3253 2259 
Q 3253 1453 3087 958 
Q 2922 463 2592 192 
Q 2263 -78 1759 -78 
Q 1097 -78 719 397 
Q 266 969 266 2259 
z
M 844 2259 
Q 844 1131 1108 757 
Q 1372 384 1759 384 
Q 2147 384 2411 759 
Q 2675 1134 2675 2259 
Q 2675 3391 2411 3762 
Q 2147 4134 1753 4134 
Q 1366 4134 1134 3806 
Q 844 3388 844 2259 
z
" transform="scale(0.015625)"/>
       </defs>
       <use xlink:href="#ArialMT-2212"/>
       <use xlink:href="#ArialMT-34" x="58.398438"/>
       <use xlink:href="#ArialMT-30" x="114.013672"/>
       <use xlink:href="#ArialMT-30" x="169.628906"/>
      </g>
     </g>
    </g>
    <g id="xtick_2">
     <g id="line2d_2">
      <path d="M 189.506156 450.72 
L 189.506156 7.2 
" clip-path="url(#pb9bcaf4301)" style="fill: none; stroke: #ffffff; stroke-linecap: round"/>
     </g>
     <g id="text_2">
      <!-- −200 -->
      <g style="fill: #262626" transform="translate(177.118266 468.093594) scale(0.11 -0.11)">
       <defs>
        <path id="ArialMT-32" d="M 3222 541 
L 3222 0 
L 194 0 
Q 188 203 259 391 
Q 375 700 629 1000 
Q 884 1300 1366 1694 
Q 2113 2306 2375 2664 
Q 2638 3022 2638 3341 
Q 2638 3675 2398 3904 
Q 2159 4134 1775 4134 
Q 1369 4134 1125 3890 
Q 881 3647 878 3216 
L 300 3275 
Q 359 3922 746 4261 
Q 1134 4600 1788 4600 
Q 2447 4600 2831 4234 
Q 3216 3869 3216 3328 
Q 3216 3053 3103 2787 
Q 2991 2522 2730 2228 
Q 2469 1934 1863 1422 
Q 1356 997 1212 845 
Q 1069 694 975 541 
L 3222 541 
z
" transform="scale(0.015625)"/>
       </defs>
       <use xlink:href="#ArialMT-2212"/>
       <use xlink:href="#ArialMT-32" x="58.398438"/>
       <use xlink:href="#ArialMT-30" x="114.013672"/>
       <use xlink:href="#ArialMT-30" x="169.628906"/>
      </g>
     </g>
    </g>
    <g id="xtick_3">
     <g id="line2d_3">
      <path d="M 278.210156 450.72 
L 278.210156 7.2 
" clip-path="url(#pb9bcaf4301)" style="fill: none; stroke: #ffffff; stroke-linecap: round"/>
     </g>
     <g id="text_3">
      <!-- 0 -->
      <g style="fill: #262626" transform="translate(275.151641 468.093594) scale(0.11 -0.11)">
       <use xlink:href="#ArialMT-30"/>
      </g>
     </g>
    </g>
    <g id="xtick_4">
     <g id="line2d_4">
      <path d="M 366.914156 450.72 
L 366.914156 7.2 
" clip-path="url(#pb9bcaf4301)" style="fill: none; stroke: #ffffff; stroke-linecap: round"/>
     </g>
     <g id="text_4">
      <!-- 200 -->
      <g style="fill: #262626" transform="translate(357.738609 468.093594) scale(0.11 -0.11)">
       <use xlink:href="#ArialMT-32"/>
       <use xlink:href="#ArialMT-30" x="55.615234"/>
       <use xlink:href="#ArialMT-30" x="111.230469"/>
      </g>
     </g>
    </g>
    <g id="xtick_5">
     <g id="line2d_5">
      <path d="M 455.618156 450.72 
L 455.618156 7.2 
" clip-path="url(#pb9bcaf4301)" style="fill: none; stroke: #ffffff; stroke-linecap: round"/>
     </g>
     <g id="text_5">
      <!-- 400 -->
      <g style="fill: #262626" transform="translate(446.442609 468.093594) scale(0.11 -0.11)">
       <use xlink:href="#ArialMT-34"/>
       <use xlink:href="#ArialMT-30" x="55.615234"/>
       <use xlink:href="#ArialMT-30" x="111.230469"/>
      </g>
     </g>
    </g>
    <g id="text_6">
     <!-- x -->
     <g style="fill: #262626" transform="translate(275.210156 482.869219) scale(0.12 -0.12)">
      <defs>
       <path id="ArialMT-78" d="M 47 0 
L 1259 1725 
L 138 3319 
L 841 3319 
L 1350 2541 
Q 1494 2319 1581 2169 
Q 1719 2375 1834 2534 
L 2394 3319 
L 3066 3319 
L 1919 1756 
L 3153 0 
L 2463 0 
L 1781 1031 
L 1600 1309 
L 728 0 
L 47 0 
z
" transform="scale(0.015625)"/>
      </defs>
      <use xlink:href="#ArialMT-78"/>
     </g>
    </g>
   </g>
   <g id="matplotlib.axis_2">
    <g id="ytick_1">
     <g id="line2d_6">
      <path d="M 56.450156 406.368 
L 499.970156 406.368 
" clip-path="url(#pb9bcaf4301)" style="fill: none; stroke: #ffffff; stroke-linecap: round"/>
     </g>
     <g id="text_7">
      <!-- −400 -->
      <g style="fill: #262626" transform="translate(22.174375 410.304797) scale(0.11 -0.11)">
       <use xlink:href="#ArialMT-2212"/>
       <use xlink:href="#ArialMT-34" x="58.398438"/>
       <use xlink:href="#ArialMT-30" x="114.013672"/>
       <use xlink:href="#ArialMT-30" x="169.628906"/>
      </g>
     </g>
    </g>
    <g id="ytick_2">
     <g id="line2d_7">
      <path d="M 56.450156 317.664 
L 499.970156 317.664 
" clip-path="url(#pb9bcaf4301)" style="fill: none; stroke: #ffffff; stroke-linecap: round"/>
     </g>
     <g id="text_8">
      <!-- −200 -->
      <g style="fill: #262626" transform="translate(22.174375 321.600797) scale(0.11 -0.11)">
       <use xlink:href="#ArialMT-2212"/>
       <use xlink:href="#ArialMT-32" x="58.398438"/>
       <use xlink:href="#ArialMT-30" x="114.013672"/>
       <use xlink:href="#ArialMT-30" x="169.628906"/>
      </g>
     </g>
    </g>
    <g id="ytick_3">
     <g id="line2d_8">
      <path d="M 56.450156 228.96 
L 499.970156 228.96 
" clip-path="url(#pb9bcaf4301)" style="fill: none; stroke: #ffffff; stroke-linecap: round"/>
     </g>
     <g id="text_9">
      <!-- 0 -->
      <g style="fill: #262626" transform="translate(40.833125 232.896797) scale(0.11 -0.11)">
       <use xlink:href="#ArialMT-30"/>
      </g>
     </g>
    </g>
    <g id="ytick_4">
     <g id="line2d_9">
      <path d="M 56.450156 140.256 
L 499.970156 140.256 
" clip-path="url(#pb9bcaf4301)" style="fill: none; stroke: #ffffff; stroke-linecap: round"/>
     </g>
     <g id="text_10">
      <!-- 200 -->
      <g style="fill: #262626" transform="translate(28.599063 144.192797) scale(0.11 -0.11)">
       <use xlink:href="#ArialMT-32"/>
       <use xlink:href="#ArialMT-30" x="55.615234"/>
       <use xlink:href="#ArialMT-30" x="111.230469"/>
      </g>
     </g>
    </g>
    <g id="ytick_5">
     <g id="line2d_10">
      <path d="M 56.450156 51.552 
L 499.970156 51.552 
" clip-path="url(#pb9bcaf4301)" style="fill: none; stroke: #ffffff; stroke-linecap: round"/>
     </g>
     <g id="text_11">
      <!-- 400 -->
      <g style="fill: #262626" transform="translate(28.599063 55.488797) scale(0.11 -0.11)">
       <use xlink:href="#ArialMT-34"/>
       <use xlink:href="#ArialMT-30" x="55.615234"/>
       <use xlink:href="#ArialMT-30" x="111.230469"/>
      </g>
     </g>
    </g>
    <g id="text_12">
     <!-- y -->
     <g style="fill: #262626" transform="translate(15.64875 231.96) rotate(-90) scale(0.12 -0.12)">
      <defs>
       <path id="ArialMT-79" d="M 397 -1278 
L 334 -750 
Q 519 -800 656 -800 
Q 844 -800 956 -737 
Q 1069 -675 1141 -563 
Q 1194 -478 1313 -144 
Q 1328 -97 1363 -6 
L 103 3319 
L 709 3319 
L 1400 1397 
Q 1534 1031 1641 628 
Q 1738 1016 1872 1384 
L 2581 3319 
L 3144 3319 
L 1881 -56 
Q 1678 -603 1566 -809 
Q 1416 -1088 1222 -1217 
Q 1028 -1347 759 -1347 
Q 597 -1347 397 -1278 
z
" transform="scale(0.015625)"/>
      </defs>
      <use xlink:href="#ArialMT-79"/>
     </g>
    </g>
   </g>
   <g id="patch_3">
    <path d="M 278.210156 317.664 
C 301.734732 317.664 324.298969 308.317587 340.933356 291.6832 
C 357.567743 275.048813 366.914156 252.484576 366.914156 228.96 
C 366.914156 205.435424 357.567743 182.871187 340.933356 166.2368 
C 324.298969 149.602413 301.734732 140.256 278.210156 140.256 
C 254.68558 140.256 232.121343 149.602413 215.486956 166.2368 
C 198.852569 182.871187 189.506156 205.435424 189.506156 228.96 
C 189.506156 252.484576 198.852569 275.048813 215.486956 291.6832 
C 232.121343 308.317587 254.68558 317.664 278.210156 317.664 
z
" clip-path="url(#pb9bcaf4301)" style="fill: #228b22; opacity: 0.12; stroke: #228b22; stroke-width: 1.5; stroke-linejoin: miter"/>
   </g>
   <g id="PathCollection_1">
    <defs>
     <path id="m655da0660e" d="M 0 2.236068 
C 0.593012 2.236068 1.161816 2.000462 1.581139 1.581139 
C 2.000462 1.161816 2.236068 0.593012 2.236068 0 
C 2.236068 -0.593012 2.000462 -1.161816 1.581139 -1.581139 
C 1.161816 -2.000462 0.593012 -2.236068 0 -2.236068 
C -0.593012 -2.236068 -1.161816 -2.000462 -1.581139 -1.581139 
C -2.000462 -1.161816 -2.236068 -0.593012 -2.236068 0 
C -2.236068 0.593012 -2.000462 1.161816 -1.581139 1.581139 
C -1.161816 2.000462 -0.593012 2.236068 0 2.236068 
z
" style="stroke: #4169e1"/>
    </defs>
    <g clip-path="url(#pb9bcaf4301)">
     <use xlink:href="#m655da0660e" x="427.638322" y="219.54708" style="fill: #4169e1; stroke: #4169e1"/>
     <use xlink:href="#m655da0660e" x="463.464865" y="237.281158" style="fill: #4169e1; stroke: #4169e1"/>
     <use xlink:href="#m655da0660e" x="291.243574" y="132.978654" style="fill: #4169e1; stroke: #4169e1"/>
     <use xlink:href="#m655da0660e" x="420.395944" y="268.378757" style="fill: #4169e1; stroke: #4169e1"/>
     <use xlink:href="#m655da0660e" x="424.429475" y="211.414304" style="fill: #4169e1; stroke: #4169e1"/>
     <use xlink:href="#m655da0660e" x="302.770814" y="165.213989" style="fill: #4169e1; stroke: #4169e1"/>
     <use xlink:href="#m655da0660e" x="423.609637" y="213.012876" style="fill: #4169e1; stroke: #4169e1"/>
     <use xlink:href="#m655da0660e" x="217.48394" y="206.036372" style="fill: #4169e1; stroke: #4169e1"/>
     <use xlink:href="#m655da0660e" x="316.036857" y="292.404922" style="fill: #4169e1; stroke: #4169e1"/>
     <use xlink:href="#m655da0660e" x="338.359788" y="157.313687" style="fill: #4169e1; stroke: #4169e1"/>
     <use xlink:href="#m655da0660e" x="342.562752" y="270.989364" style="fill: #4169e1; stroke: #4169e1"/>
     <use xlink:href="#m655da0660e" x="412.543956" y="206.013848" style="fill: #4169e1; stroke: #4169e1"/>
     <use xlink:href="#m655da0660e" x="499.970156" y="99.666976" style="fill: #4169e1; stroke: #4169e1"/>
     <use xlink:href="#m655da0660e" x="360.942012" y="163.76057" style="fill: #4169e1; stroke: #4169e1"/>
     <use xlink:href="#m655da0660e" x="499.342111" y="188.298953" style="fill: #4169e1; stroke: #4169e1"/>
     <use xlink:href="#m655da0660e" x="174.265787" y="131.794626" style="fill: #4169e1; stroke: #4169e1"/>
     <use xlink:href="#m655da0660e" x="359.094172" y="191.909378" style="fill: #4169e1; stroke: #4169e1"/>
     <use xlink:href="#m655da0660e" x="268.279523" y="177.693193" style="fill: #4169e1; stroke: #4169e1"/>
     <use xlink:href="#m655da0660e" x="249.611143" y="116.153677" style="fill: #4169e1; stroke: #4169e1"/>
     <use xlink:href="#m655da0660e" x="499.970156" y="176.46795" style="fill: #4169e1; stroke: #4169e1"/>
     <use xlink:href="#m655da0660e" x="254.509377" y="203.449127" style="fill: #4169e1; stroke: #4169e1"/>
     <use xlink:href="#m655da0660e" x="420.03618" y="244.291985" style="fill: #4169e1; stroke: #4169e1"/>
     <use xlink:href="#m655da0660e" x="421.777207" y="79.512371" style="fill: #4169e1; stroke: #4169e1"/>
     <use xlink:href="#m655da0660e" x="319.435014" y="182.525146" style="fill: #4169e1; stroke: #4169e1"/>
     <use xlink:href="#m655da0660e" x="419.8851" y="205.239603" style="fill: #4169e1; stroke: #4169e1"/>
     <use xlink:href="#m655da0660e" x="483.772824" y="187.763779" style="fill: #4169e1; stroke: #4169e1"/>
     <use xlink:href="#m655da0660e" x="277.651443" y="230.809666" style="fill: #4169e1; stroke: #4169e1"/>
     <use xlink:href="#m655da0660e" x="398.30263" y="87.245601" style="fill: #4169e1; stroke: #4169e1"/>
     <use xlink:href="#m655da0660e" x="244.927627" y="326.649056" style="fill: #4169e1; stroke: #4169e1"/>
     <use xlink:href="#m655da0660e" x="476.417089" y="262.657277" style="fill: #4169e1; stroke: #4169e1"/>
     <use xlink:href="#m655da0660e" x="431.526228" y="197.474746" style="fill: #4169e1; stroke: #4169e1"/>
     <use xlink:href="#m655da0660e" x="236.297212" y="239.005407" style="fill: #4169e1; stroke: #4169e1"/>
     <use xlink:href="#m655da0660e" x="462.99012" y="149.660951" style="fill: #4169e1; stroke: #4169e1"/>
     <use xlink:href="#m655da0660e" x="305.251087" y="277.460292" style="fill: #4169e1; stroke: #4169e1"/>
     <use xlink:href="#m655da0660e" x="418.206727" y="193.899567" style="fill: #4169e1; stroke: #4169e1"/>
     <use xlink:href="#m655da0660e" x="336.0817" y="248.663237" style="fill: #4169e1; stroke: #4169e1"/>
     <use xlink:href="#m655da0660e" x="462.244184" y="183.93802" style="fill: #4169e1; stroke: #4169e1"/>
     <use xlink:href="#m655da0660e" x="255.190381" y="275.729379" style="fill: #4169e1; stroke: #4169e1"/>
     <use xlink:href="#m655da0660e" x="361.52263" y="234.408616" style="fill: #4169e1; stroke: #4169e1"/>
     <use xlink:href="#m655da0660e" x="328.126831" y="274.879997" style="fill: #4169e1; stroke: #4169e1"/>
     <use xlink:href="#m655da0660e" x="247.869841" y="147.553872" style="fill: #4169e1; stroke: #4169e1"/>
     <use xlink:href="#m655da0660e" x="338.862031" y="187.693112" style="fill: #4169e1; stroke: #4169e1"/>
     <use xlink:href="#m655da0660e" x="446.54144" y="135.287819" style="fill: #4169e1; stroke: #4169e1"/>
     <use xlink:href="#m655da0660e" x="335.060939" y="174.500027" style="fill: #4169e1; stroke: #4169e1"/>
     <use xlink:href="#m655da0660e" x="291.093225" y="206.005163" style="fill: #4169e1; stroke: #4169e1"/>
     <use xlink:href="#m655da0660e" x="226.911132" y="185.685006" style="fill: #4169e1; stroke: #4169e1"/>
     <use xlink:href="#m655da0660e" x="273.11477" y="252.501894" style="fill: #4169e1; stroke: #4169e1"/>
     <use xlink:href="#m655da0660e" x="420.694976" y="134.7688" style="fill: #4169e1; stroke: #4169e1"/>
     <use xlink:href="#m655da0660e" x="297.012329" y="272.394198" style="fill: #4169e1; stroke: #4169e1"/>
     <use xlink:href="#m655da0660e" x="368.426859" y="297.207574" style="fill: #4169e1; stroke: #4169e1"/>
     <use xlink:href="#m655da0660e" x="310.260929" y="81.871738" style="fill: #4169e1; stroke: #4169e1"/>
     <use xlink:href="#m655da0660e" x="477.842829" y="91.724398" style="fill: #4169e1; stroke: #4169e1"/>
     <use xlink:href="#m655da0660e" x="450.602515" y="218.484185" style="fill: #4169e1; stroke: #4169e1"/>
     <use xlink:href="#m655da0660e" x="295.50701" y="267.052694" style="fill: #4169e1; stroke: #4169e1"/>
     <use xlink:href="#m655da0660e" x="340.670287" y="127.584915" style="fill: #4169e1; stroke: #4169e1"/>
     <use xlink:href="#m655da0660e" x="312.927426" y="262.995125" style="fill: #4169e1; stroke: #4169e1"/>
     <use xlink:href="#m655da0660e" x="428.570759" y="161.493039" style="fill: #4169e1; stroke: #4169e1"/>
     <use xlink:href="#m655da0660e" x="415.266918" y="80.753315" style="fill: #4169e1; stroke: #4169e1"/>
     <use xlink:href="#m655da0660e" x="178.640708" y="232.545177" style="fill: #4169e1; stroke: #4169e1"/>
     <use xlink:href="#m655da0660e" x="415.173824" y="128.002731" style="fill: #4169e1; stroke: #4169e1"/>
     <use xlink:href="#m655da0660e" x="336.164765" y="260.616913" style="fill: #4169e1; stroke: #4169e1"/>
     <use xlink:href="#m655da0660e" x="375.797185" y="196.657717" style="fill: #4169e1; stroke: #4169e1"/>
     <use xlink:href="#m655da0660e" x="444.833682" y="170.075323" style="fill: #4169e1; stroke: #4169e1"/>
     <use xlink:href="#m655da0660e" x="389.107129" y="245.413962" style="fill: #4169e1; stroke: #4169e1"/>
     <use xlink:href="#m655da0660e" x="250.554069" y="193.903228" style="fill: #4169e1; stroke: #4169e1"/>
     <use xlink:href="#m655da0660e" x="348.676" y="247.585355" style="fill: #4169e1; stroke: #4169e1"/>
     <use xlink:href="#m655da0660e" x="269.69509" y="275.487688" style="fill: #4169e1; stroke: #4169e1"/>
     <use xlink:href="#m655da0660e" x="287.612656" y="216.08137" style="fill: #4169e1; stroke: #4169e1"/>
     <use xlink:href="#m655da0660e" x="499.970156" y="199.668227" style="fill: #4169e1; stroke: #4169e1"/>
     <use xlink:href="#m655da0660e" x="276.520696" y="318.868636" style="fill: #4169e1; stroke: #4169e1"/>
     <use xlink:href="#m655da0660e" x="371.025108" y="288.456256" style="fill: #4169e1; stroke: #4169e1"/>
     <use xlink:href="#m655da0660e" x="332.429915" y="313.527907" style="fill: #4169e1; stroke: #4169e1"/>
     <use xlink:href="#m655da0660e" x="487.726403" y="268.384279" style="fill: #4169e1; stroke: #4169e1"/>
     <use xlink:href="#m655da0660e" x="334.607308" y="181.762606" style="fill: #4169e1; stroke: #4169e1"/>
     <use xlink:href="#m655da0660e" x="499.970156" y="216.907067" style="fill: #4169e1; stroke: #4169e1"/>
     <use xlink:href="#m655da0660e" x="295.596883" y="269.163214" style="fill: #4169e1; stroke: #4169e1"/>
     <use xlink:href="#m655da0660e" x="454.121858" y="250.147556" style="fill: #4169e1; stroke: #4169e1"/>
     <use xlink:href="#m655da0660e" x="214.719378" y="134.001614" style="fill: #4169e1; stroke: #4169e1"/>
     <use xlink:href="#m655da0660e" x="312.389739" y="88.894143" style="fill: #4169e1; stroke: #4169e1"/>
     <use xlink:href="#m655da0660e" x="252.864131" y="99.706607" style="fill: #4169e1; stroke: #4169e1"/>
     <use xlink:href="#m655da0660e" x="429.395253" y="123.88713" style="fill: #4169e1; stroke: #4169e1"/>
     <use xlink:href="#m655da0660e" x="408.15682" y="163.090032" style="fill: #4169e1; stroke: #4169e1"/>
     <use xlink:href="#m655da0660e" x="203.352912" y="142.693851" style="fill: #4169e1; stroke: #4169e1"/>
     <use xlink:href="#m655da0660e" x="180.912787" y="180.569874" style="fill: #4169e1; stroke: #4169e1"/>
     <use xlink:href="#m655da0660e" x="205.164708" y="244.824025" style="fill: #4169e1; stroke: #4169e1"/>
     <use xlink:href="#m655da0660e" x="299.320198" y="247.562303" style="fill: #4169e1; stroke: #4169e1"/>
     <use xlink:href="#m655da0660e" x="469.875494" y="207.917679" style="fill: #4169e1; stroke: #4169e1"/>
     <use xlink:href="#m655da0660e" x="266.623607" y="246.052837" style="fill: #4169e1; stroke: #4169e1"/>
     <use xlink:href="#m655da0660e" x="398.790938" y="226.8583" style="fill: #4169e1; stroke: #4169e1"/>
     <use xlink:href="#m655da0660e" x="215.562787" y="166.844062" style="fill: #4169e1; stroke: #4169e1"/>
     <use xlink:href="#m655da0660e" x="320.495483" y="203.695174" style="fill: #4169e1; stroke: #4169e1"/>
     <use xlink:href="#m655da0660e" x="327.415955" y="193.824731" style="fill: #4169e1; stroke: #4169e1"/>
     <use xlink:href="#m655da0660e" x="498.551198" y="229.092427" style="fill: #4169e1; stroke: #4169e1"/>
     <use xlink:href="#m655da0660e" x="375.820343" y="119.693891" style="fill: #4169e1; stroke: #4169e1"/>
     <use xlink:href="#m655da0660e" x="374.200957" y="153.000832" style="fill: #4169e1; stroke: #4169e1"/>
     <use xlink:href="#m655da0660e" x="395.845174" y="111.03468" style="fill: #4169e1; stroke: #4169e1"/>
     <use xlink:href="#m655da0660e" x="330.396278" y="278.60006" style="fill: #4169e1; stroke: #4169e1"/>
     <use xlink:href="#m655da0660e" x="196.259807" y="264.928311" style="fill: #4169e1; stroke: #4169e1"/>
     <use xlink:href="#m655da0660e" x="445.752286" y="87.423873" style="fill: #4169e1; stroke: #4169e1"/>
     <use xlink:href="#m655da0660e" x="298.063804" y="97.115559" style="fill: #4169e1; stroke: #4169e1"/>
     <use xlink:href="#m655da0660e" x="146.346563" y="238.489685" style="fill: #4169e1; stroke: #4169e1"/>
     <use xlink:href="#m655da0660e" x="410.798097" y="276.480912" style="fill: #4169e1; stroke: #4169e1"/>
     <use xlink:href="#m655da0660e" x="376.158857" y="265.126675" style="fill: #4169e1; stroke: #4169e1"/>
     <use xlink:href="#m655da0660e" x="145.262045" y="235.170315" style="fill: #4169e1; stroke: #4169e1"/>
     <use xlink:href="#m655da0660e" x="392.03902" y="223.508476" style="fill: #4169e1; stroke: #4169e1"/>
     <use xlink:href="#m655da0660e" x="206.966075" y="144.808557" style="fill: #4169e1; stroke: #4169e1"/>
     <use xlink:href="#m655da0660e" x="255.156082" y="327.97829" style="fill: #4169e1; stroke: #4169e1"/>
     <use xlink:href="#m655da0660e" x="497.774483" y="205.910517" style="fill: #4169e1; stroke: #4169e1"/>
     <use xlink:href="#m655da0660e" x="321.015162" y="168.94149" style="fill: #4169e1; stroke: #4169e1"/>
     <use xlink:href="#m655da0660e" x="453.295821" y="223.381579" style="fill: #4169e1; stroke: #4169e1"/>
     <use xlink:href="#m655da0660e" x="446.31524" y="121.452548" style="fill: #4169e1; stroke: #4169e1"/>
     <use xlink:href="#m655da0660e" x="458.279006" y="69.198162" style="fill: #4169e1; stroke: #4169e1"/>
     <use xlink:href="#m655da0660e" x="337.750483" y="168.613533" style="fill: #4169e1; stroke: #4169e1"/>
     <use xlink:href="#m655da0660e" x="246.99703" y="224.734991" style="fill: #4169e1; stroke: #4169e1"/>
     <use xlink:href="#m655da0660e" x="176.168539" y="183.518048" style="fill: #4169e1; stroke: #4169e1"/>
     <use xlink:href="#m655da0660e" x="484.444994" y="201.857838" style="fill: #4169e1; stroke: #4169e1"/>
     <use xlink:href="#m655da0660e" x="229.816941" y="285.797417" style="fill: #4169e1; stroke: #4169e1"/>
     <use xlink:href="#m655da0660e" x="423.173169" y="184.909296" style="fill: #4169e1; stroke: #4169e1"/>
     <use xlink:href="#m655da0660e" x="300.051335" y="211.377583" style="fill: #4169e1; stroke: #4169e1"/>
     <use xlink:href="#m655da0660e" x="306.742519" y="176.473638" style="fill: #4169e1; stroke: #4169e1"/>
     <use xlink:href="#m655da0660e" x="218.774416" y="262.820836" style="fill: #4169e1; stroke: #4169e1"/>
     <use xlink:href="#m655da0660e" x="401.113828" y="217.826274" style="fill: #4169e1; stroke: #4169e1"/>
     <use xlink:href="#m655da0660e" x="285.716946" y="161.500213" style="fill: #4169e1; stroke: #4169e1"/>
     <use xlink:href="#m655da0660e" x="336.984116" y="175.844937" style="fill: #4169e1; stroke: #4169e1"/>
     <use xlink:href="#m655da0660e" x="365.209958" y="116.378604" style="fill: #4169e1; stroke: #4169e1"/>
     <use xlink:href="#m655da0660e" x="415.028023" y="257.877059" style="fill: #4169e1; stroke: #4169e1"/>
     <use xlink:href="#m655da0660e" x="312.589135" y="233.594195" style="fill: #4169e1; stroke: #4169e1"/>
     <use xlink:href="#m655da0660e" x="188.746746" y="183.140004" style="fill: #4169e1; stroke: #4169e1"/>
     <use xlink:href="#m655da0660e" x="224.657065" y="238.656816" style="fill: #4169e1; stroke: #4169e1"/>
     <use xlink:href="#m655da0660e" x="386.886518" y="228.800858" style="fill: #4169e1; stroke: #4169e1"/>
     <use xlink:href="#m655da0660e" x="218.474646" y="181.036326" style="fill: #4169e1; stroke: #4169e1"/>
     <use xlink:href="#m655da0660e" x="360.802404" y="123.342029" style="fill: #4169e1; stroke: #4169e1"/>
     <use xlink:href="#m655da0660e" x="393.48115" y="265.606094" style="fill: #4169e1; stroke: #4169e1"/>
     <use xlink:href="#m655da0660e" x="303.664542" y="192.473797" style="fill: #4169e1; stroke: #4169e1"/>
     <use xlink:href="#m655da0660e" x="457.689604" y="180.592539" style="fill: #4169e1; stroke: #4169e1"/>
     <use xlink:href="#m655da0660e" x="421.294272" y="90.03471" style="fill: #4169e1; stroke: #4169e1"/>
     <use xlink:href="#m655da0660e" x="325.323883" y="275.365591" style="fill: #4169e1; stroke: #4169e1"/>
     <use xlink:href="#m655da0660e" x="215.558199" y="227.95177" style="fill: #4169e1; stroke: #4169e1"/>
     <use xlink:href="#m655da0660e" x="448.935904" y="133.348543" style="fill: #4169e1; stroke: #4169e1"/>
     <use xlink:href="#m655da0660e" x="279.458771" y="179.897539" style="fill: #4169e1; stroke: #4169e1"/>
     <use xlink:href="#m655da0660e" x="335.678467" y="149.05597" style="fill: #4169e1; stroke: #4169e1"/>
     <use xlink:href="#m655da0660e" x="268.472632" y="177.471376" style="fill: #4169e1; stroke: #4169e1"/>
     <use xlink:href="#m655da0660e" x="225.803534" y="184.801952" style="fill: #4169e1; stroke: #4169e1"/>
     <use xlink:href="#m655da0660e" x="357.145448" y="315.428933" style="fill: #4169e1; stroke: #4169e1"/>
     <use xlink:href="#m655da0660e" x="288.585128" y="300.959573" style="fill: #4169e1; stroke: #4169e1"/>
     <use xlink:href="#m655da0660e" x="390.818846" y="261.661607" style="fill: #4169e1; stroke: #4169e1"/>
     <use xlink:href="#m655da0660e" x="307.974022" y="179.703881" style="fill: #4169e1; stroke: #4169e1"/>
     <use xlink:href="#m655da0660e" x="368.515778" y="168.261835" style="fill: #4169e1; stroke: #4169e1"/>
     <use xlink:href="#m655da0660e" x="437.019187" y="125.664256" style="fill: #4169e1; stroke: #4169e1"/>
     <use xlink:href="#m655da0660e" x="373.918532" y="246.086131" style="fill: #4169e1; stroke: #4169e1"/>
     <use xlink:href="#m655da0660e" x="248.717738" y="345.114529" style="fill: #4169e1; stroke: #4169e1"/>
    </g>
   </g>
   <g id="PathCollection_2">
    <defs>
     <path id="m7c1bd2f36e" d="M 0 2.5 
C 0.663008 2.5 1.29895 2.236584 1.767767 1.767767 
C 2.236584 1.29895 2.5 0.663008 2.5 0 
C 2.5 -0.663008 2.236584 -1.29895 1.767767 -1.767767 
C 1.29895 -2.236584 0.663008 -2.5 0 -2.5 
C -0.663008 -2.5 -1.29895 -2.236584 -1.767767 -1.767767 
C -2.236584 -1.29895 -2.5 -0.663008 -2.5 0 
C -2.5 0.663008 -2.236584 1.29895 -1.767767 1.767767 
C -1.29895 2.236584 -0.663008 2.5 0 2.5 
z
" style="stroke: #b22222"/>
    </defs>
    <g clip-path="url(#pb9bcaf4301)">
     <use xlink:href="#m7c1bd2f36e" x="293.156806" y="221.295831" style="fill: #b22222; stroke: #b22222"/>
     <use xlink:href="#m7c1bd2f36e" x="272.653431" y="227.659797" style="fill: #b22222; stroke: #b22222"/>
     <use xlink:href="#m7c1bd2f36e" x="253.601298" y="218.904377" style="fill: #b22222; stroke: #b22222"/>
     <use xlink:href="#m7c1bd2f36e" x="268.30548" y="236.14408" style="fill: #b22222; stroke: #b22222"/>
     <use xlink:href="#m7c1bd2f36e" x="259.610908" y="218.990392" style="fill: #b22222; stroke: #b22222"/>
     <use xlink:href="#m7c1bd2f36e" x="276.531641" y="226.845726" style="fill: #b22222; stroke: #b22222"/>
     <use xlink:href="#m7c1bd2f36e" x="248.249587" y="184.287887" style="fill: #b22222; stroke: #b22222"/>
     <use xlink:href="#m7c1bd2f36e" x="275.267976" y="237.761619" style="fill: #b22222; stroke: #b22222"/>
     <use xlink:href="#m7c1bd2f36e" x="283.199534" y="225.354931" style="fill: #b22222; stroke: #b22222"/>
     <use xlink:href="#m7c1bd2f36e" x="276.448036" y="211.829284" style="fill: #b22222; stroke: #b22222"/>
     <use xlink:href="#m7c1bd2f36e" x="273.338329" y="227.59851" style="fill: #b22222; stroke: #b22222"/>
     <use xlink:href="#m7c1bd2f36e" x="269.819275" y="227.679678" style="fill: #b22222; stroke: #b22222"/>
     <use xlink:href="#m7c1bd2f36e" x="266.519091" y="225.401103" style="fill: #b22222; stroke: #b22222"/>
     <use xlink:href="#m7c1bd2f36e" x="271.457849" y="230.305744" style="fill: #b22222; stroke: #b22222"/>
     <use xlink:href="#m7c1bd2f36e" x="275.712748" y="232.664075" style="fill: #b22222; stroke: #b22222"/>
     <use xlink:href="#m7c1bd2f36e" x="260.617103" y="230.309244" style="fill: #b22222; stroke: #b22222"/>
     <use xlink:href="#m7c1bd2f36e" x="294.152454" y="221.764751" style="fill: #b22222; stroke: #b22222"/>
     <use xlink:href="#m7c1bd2f36e" x="313.611317" y="235.894923" style="fill: #b22222; stroke: #b22222"/>
     <use xlink:href="#m7c1bd2f36e" x="271.149984" y="231.936059" style="fill: #b22222; stroke: #b22222"/>
     <use xlink:href="#m7c1bd2f36e" x="267.088827" y="233.263203" style="fill: #b22222; stroke: #b22222"/>
     <use xlink:href="#m7c1bd2f36e" x="333.348772" y="232.407504" style="fill: #b22222; stroke: #b22222"/>
     <use xlink:href="#m7c1bd2f36e" x="255.420998" y="212.598165" style="fill: #b22222; stroke: #b22222"/>
     <use xlink:href="#m7c1bd2f36e" x="276.399313" y="224.484675" style="fill: #b22222; stroke: #b22222"/>
     <use xlink:href="#m7c1bd2f36e" x="282.006216" y="230.524284" style="fill: #b22222; stroke: #b22222"/>
     <use xlink:href="#m7c1bd2f36e" x="255.712498" y="219.241865" style="fill: #b22222; stroke: #b22222"/>
     <use xlink:href="#m7c1bd2f36e" x="261.941003" y="234.550747" style="fill: #b22222; stroke: #b22222"/>
     <use xlink:href="#m7c1bd2f36e" x="292.346118" y="246.091121" style="fill: #b22222; stroke: #b22222"/>
     <use xlink:href="#m7c1bd2f36e" x="359.904048" y="202.012979" style="fill: #b22222; stroke: #b22222"/>
     <use xlink:href="#m7c1bd2f36e" x="288.957789" y="226.11345" style="fill: #b22222; stroke: #b22222"/>
     <use xlink:href="#m7c1bd2f36e" x="254.807435" y="213.947791" style="fill: #b22222; stroke: #b22222"/>
     <use xlink:href="#m7c1bd2f36e" x="245.276255" y="211.648603" style="fill: #b22222; stroke: #b22222"/>
     <use xlink:href="#m7c1bd2f36e" x="305.047498" y="241.909109" style="fill: #b22222; stroke: #b22222"/>
     <use xlink:href="#m7c1bd2f36e" x="267.885932" y="231.621822" style="fill: #b22222; stroke: #b22222"/>
     <use xlink:href="#m7c1bd2f36e" x="247.207431" y="207.75222" style="fill: #b22222; stroke: #b22222"/>
     <use xlink:href="#m7c1bd2f36e" x="260.067239" y="229.627349" style="fill: #b22222; stroke: #b22222"/>
     <use xlink:href="#m7c1bd2f36e" x="269.587957" y="229.493485" style="fill: #b22222; stroke: #b22222"/>
     <use xlink:href="#m7c1bd2f36e" x="306.024813" y="241.668533" style="fill: #b22222; stroke: #b22222"/>
     <use xlink:href="#m7c1bd2f36e" x="272.435624" y="235.102497" style="fill: #b22222; stroke: #b22222"/>
     <use xlink:href="#m7c1bd2f36e" x="253.465426" y="221.651055" style="fill: #b22222; stroke: #b22222"/>
     <use xlink:href="#m7c1bd2f36e" x="277.598022" y="219.611827" style="fill: #b22222; stroke: #b22222"/>
     <use xlink:href="#m7c1bd2f36e" x="265.39727" y="223.932722" style="fill: #b22222; stroke: #b22222"/>
     <use xlink:href="#m7c1bd2f36e" x="270.702593" y="235.232034" style="fill: #b22222; stroke: #b22222"/>
     <use xlink:href="#m7c1bd2f36e" x="261.65429" y="223.984966" style="fill: #b22222; stroke: #b22222"/>
     <use xlink:href="#m7c1bd2f36e" x="295.732726" y="230.107905" style="fill: #b22222; stroke: #b22222"/>
     <use xlink:href="#m7c1bd2f36e" x="265.651382" y="231.064636" style="fill: #b22222; stroke: #b22222"/>
     <use xlink:href="#m7c1bd2f36e" x="286.150723" y="219.757107" style="fill: #b22222; stroke: #b22222"/>
     <use xlink:href="#m7c1bd2f36e" x="276.613695" y="238.676152" style="fill: #b22222; stroke: #b22222"/>
     <use xlink:href="#m7c1bd2f36e" x="270.949475" y="233.077804" style="fill: #b22222; stroke: #b22222"/>
     <use xlink:href="#m7c1bd2f36e" x="246.251703" y="225.715385" style="fill: #b22222; stroke: #b22222"/>
     <use xlink:href="#m7c1bd2f36e" x="233.902088" y="218.920474" style="fill: #b22222; stroke: #b22222"/>
     <use xlink:href="#m7c1bd2f36e" x="255.042618" y="219.960945" style="fill: #b22222; stroke: #b22222"/>
     <use xlink:href="#m7c1bd2f36e" x="278.200924" y="218.814786" style="fill: #b22222; stroke: #b22222"/>
     <use xlink:href="#m7c1bd2f36e" x="236.282807" y="204.439596" style="fill: #b22222; stroke: #b22222"/>
     <use xlink:href="#m7c1bd2f36e" x="266.202471" y="231.938863" style="fill: #b22222; stroke: #b22222"/>
     <use xlink:href="#m7c1bd2f36e" x="278.067095" y="228.127143" style="fill: #b22222; stroke: #b22222"/>
     <use xlink:href="#m7c1bd2f36e" x="262.336973" y="238.603842" style="fill: #b22222; stroke: #b22222"/>
     <use xlink:href="#m7c1bd2f36e" x="271.153622" y="237.223616" style="fill: #b22222; stroke: #b22222"/>
     <use xlink:href="#m7c1bd2f36e" x="262.890481" y="207.900657" style="fill: #b22222; stroke: #b22222"/>
     <use xlink:href="#m7c1bd2f36e" x="271.075713" y="224.487293" style="fill: #b22222; stroke: #b22222"/>
     <use xlink:href="#m7c1bd2f36e" x="251.104097" y="220.069015" style="fill: #b22222; stroke: #b22222"/>
     <use xlink:href="#m7c1bd2f36e" x="255.383978" y="209.599549" style="fill: #b22222; stroke: #b22222"/>
     <use xlink:href="#m7c1bd2f36e" x="259.99198" y="232.185063" style="fill: #b22222; stroke: #b22222"/>
     <use xlink:href="#m7c1bd2f36e" x="319.759885" y="220.953896" style="fill: #b22222; stroke: #b22222"/>
     <use xlink:href="#m7c1bd2f36e" x="296.497518" y="227.686972" style="fill: #b22222; stroke: #b22222"/>
     <use xlink:href="#m7c1bd2f36e" x="275.655421" y="234.830674" style="fill: #b22222; stroke: #b22222"/>
     <use xlink:href="#m7c1bd2f36e" x="281.201953" y="233.830667" style="fill: #b22222; stroke: #b22222"/>
     <use xlink:href="#m7c1bd2f36e" x="261.479023" y="235.024572" style="fill: #b22222; stroke: #b22222"/>
     <use xlink:href="#m7c1bd2f36e" x="303.272884" y="242.061969" style="fill: #b22222; stroke: #b22222"/>
     <use xlink:href="#m7c1bd2f36e" x="257.624737" y="220.971683" style="fill: #b22222; stroke: #b22222"/>
     <use xlink:href="#m7c1bd2f36e" x="337.970389" y="232.348105" style="fill: #b22222; stroke: #b22222"/>
     <use xlink:href="#m7c1bd2f36e" x="339.710644" y="237.808067" style="fill: #b22222; stroke: #b22222"/>
     <use xlink:href="#m7c1bd2f36e" x="262.415052" y="230.060737" style="fill: #b22222; stroke: #b22222"/>
     <use xlink:href="#m7c1bd2f36e" x="271.249784" y="223.102395" style="fill: #b22222; stroke: #b22222"/>
     <use xlink:href="#m7c1bd2f36e" x="262.758515" y="181.048782" style="fill: #b22222; stroke: #b22222"/>
     <use xlink:href="#m7c1bd2f36e" x="306.724453" y="224.780558" style="fill: #b22222; stroke: #b22222"/>
     <use xlink:href="#m7c1bd2f36e" x="250.723519" y="213.205066" style="fill: #b22222; stroke: #b22222"/>
     <use xlink:href="#m7c1bd2f36e" x="283.411189" y="238.176894" style="fill: #b22222; stroke: #b22222"/>
     <use xlink:href="#m7c1bd2f36e" x="269.540246" y="227.59946" style="fill: #b22222; stroke: #b22222"/>
     <use xlink:href="#m7c1bd2f36e" x="282.240846" y="236.965929" style="fill: #b22222; stroke: #b22222"/>
     <use xlink:href="#m7c1bd2f36e" x="305.378849" y="222.535257" style="fill: #b22222; stroke: #b22222"/>
     <use xlink:href="#m7c1bd2f36e" x="297.509805" y="268.439259" style="fill: #b22222; stroke: #b22222"/>
     <use xlink:href="#m7c1bd2f36e" x="255.461477" y="229.204489" style="fill: #b22222; stroke: #b22222"/>
     <use xlink:href="#m7c1bd2f36e" x="270.690395" y="226.230001" style="fill: #b22222; stroke: #b22222"/>
     <use xlink:href="#m7c1bd2f36e" x="262.578599" y="225.854003" style="fill: #b22222; stroke: #b22222"/>
     <use xlink:href="#m7c1bd2f36e" x="262.890667" y="232.61542" style="fill: #b22222; stroke: #b22222"/>
     <use xlink:href="#m7c1bd2f36e" x="281.725704" y="229.270739" style="fill: #b22222; stroke: #b22222"/>
     <use xlink:href="#m7c1bd2f36e" x="279.515047" y="224.036262" style="fill: #b22222; stroke: #b22222"/>
     <use xlink:href="#m7c1bd2f36e" x="300.717581" y="229.04282" style="fill: #b22222; stroke: #b22222"/>
     <use xlink:href="#m7c1bd2f36e" x="267.819357" y="236.308947" style="fill: #b22222; stroke: #b22222"/>
     <use xlink:href="#m7c1bd2f36e" x="275.469166" y="222.166953" style="fill: #b22222; stroke: #b22222"/>
    </g>
   </g>
   <g id="patch_4">
    <path d="M 56.450156 450.72 
L 56.450156 7.2 
" style="fill: none; stroke: #ffffff; stroke-width: 1.25; stroke-linejoin: miter; stroke-linecap: square"/>
   </g>
   <g id="patch_5">
    <path d="M 499.970156 450.72 
L 499.970156 7.2 
" style="fill: none; stroke: #ffffff; stroke-width: 1.25; stroke-linejoin: miter; stroke-linecap: square"/>
   </g>
   <g id="patch_6">
    <path d="M 56.450156 450.72 
L 499.970156 450.72 
" style="fill: none; stroke: #ffffff; stroke-width: 1.25; stroke-linejoin: miter; stroke-linecap: square"/>
   </g>
   <g id="patch_7">
    <path d="M 56.450156 7.2 
L 499.970156 7.2 
" style="fill: none; stroke: #ffffff; stroke-width: 1.25; stroke-linejoin: miter; stroke-linecap: square"/>
   </g>
   <g id="text_13">
    <!-- t = 1200 -->
    <g style="fill: #262626" transform="translate(65.320556 24.659775) scale(0.12 -0.12)">
     <defs>
      <path id="ArialMT-74" d="M 1650 503 
L 1731 6 
Q 1494 -44 1306 -44 
Q 1000 -44 831 53 
Q 663 150 594 308 
Q 525 466 525 972 
L 525 2881 
L 113 2881 
L 113 3319 
L 525 3319 
L 525 4141 
L 1084 4478 
L 1084 3319 
L 1650 3319 
L 1650 2881 
L 1084 2881 
L 1084 941 
Q 1084 700 1114 631 
Q 1144 563 1211 522 
Q 1278 481 1403 481 
Q 1497 481 1650 503 
z
" transform="scale(0.015625)"/>
      <path id="ArialMT-20" transform="scale(0.015625)"/>
      <path id="ArialMT-3d" d="M 3381 2694 
L 356 2694 
L 356 3219 
L 3381 3219 
L 3381 2694 
z
M 3381 1303 
L 356 1303 
L 356 1828 
L 3381 1828 
L 3381 1303 
z
" transform="scale(0.015625)"/>
      <path id="ArialMT-31" d="M 2384 0 
L 1822 0 
L 1822 3584 
Q 1619 3391 1289 3197 
Q 959 3003 697 2906 
L 697 3450 
Q 1169 3672 1522 3987 
Q 1875 4303 2022 4600 
L 2384 4600 
L 2384 0 
z
" transform="scale(0.015625)"/>
     </defs>
     <use xlink:href="#ArialMT-74"/>
     <use xlink:href="#ArialMT-20" x="27.783203"/>
     <use xlink:href="#ArialMT-3d" x="55.566406"/>
     <use xlink:href="#ArialMT-20" x="113.964844"/>
     <use xlink:href="#ArialMT-31" x="141.748047"/>
     <use xlink:href="#ArialMT-32" x="197.363281"/>
     <use xlink:href="#ArialMT-30" x="252.978516"/>
     <use xlink:href="#ArialMT-30" x="308.59375"/>
    </g>
   </g>
   <g id="legend_1">
    <g id="patch_8">
     <path d="M 328.111406 94.59 
L 483.170156 94.59 
Q 487.970156 94.59 487.970156 89.79 
L 487.970156 24 
Q 487.970156 19.2 483.170156 19.2 
L 328.111406 19.2 
Q 323.311406 19.2 323.311406 24 
L 323.311406 89.79 
Q 323.311406 94.59 328.111406 94.59 
z
" style="fill: #eaeaf2; opacity: 0.8; stroke: #cccccc; stroke-linejoin: miter"/>
    </g>
    <g id="PathCollection_3">
     <g>
      <use xlink:href="#m655da0660e" x="356.911406" y="39.97125" style="fill: #4169e1; stroke: #4169e1"/>
     </g>
    </g>
    <g id="text_14">
     <!-- Sheep -->
     <g style="fill: #262626" transform="translate(400.111406 46.27125) scale(0.24 -0.24)">
      <defs>
       <path id="ArialMT-53" d="M 288 1472 
L 859 1522 
Q 900 1178 1048 958 
Q 1197 738 1509 602 
Q 1822 466 2213 466 
Q 2559 466 2825 569 
Q 3091 672 3220 851 
Q 3350 1031 3350 1244 
Q 3350 1459 3225 1620 
Q 3100 1781 2813 1891 
Q 2628 1963 1997 2114 
Q 1366 2266 1113 2400 
Q 784 2572 623 2826 
Q 463 3081 463 3397 
Q 463 3744 659 4045 
Q 856 4347 1234 4503 
Q 1613 4659 2075 4659 
Q 2584 4659 2973 4495 
Q 3363 4331 3572 4012 
Q 3781 3694 3797 3291 
L 3216 3247 
Q 3169 3681 2898 3903 
Q 2628 4125 2100 4125 
Q 1550 4125 1298 3923 
Q 1047 3722 1047 3438 
Q 1047 3191 1225 3031 
Q 1400 2872 2139 2705 
Q 2878 2538 3153 2413 
Q 3553 2228 3743 1945 
Q 3934 1663 3934 1294 
Q 3934 928 3725 604 
Q 3516 281 3123 101 
Q 2731 -78 2241 -78 
Q 1619 -78 1198 103 
Q 778 284 539 648 
Q 300 1013 288 1472 
z
" transform="scale(0.015625)"/>
       <path id="ArialMT-68" d="M 422 0 
L 422 4581 
L 984 4581 
L 984 2938 
Q 1378 3394 1978 3394 
Q 2347 3394 2619 3248 
Q 2891 3103 3008 2847 
Q 3125 2591 3125 2103 
L 3125 0 
L 2563 0 
L 2563 2103 
Q 2563 2525 2380 2717 
Q 2197 2909 1863 2909 
Q 1613 2909 1392 2779 
Q 1172 2650 1078 2428 
Q 984 2206 984 1816 
L 984 0 
L 422 0 
z
" transform="scale(0.015625)"/>
       <path id="ArialMT-65" d="M 2694 1069 
L 3275 997 
Q 3138 488 2766 206 
Q 2394 -75 1816 -75 
Q 1088 -75 661 373 
Q 234 822 234 1631 
Q 234 2469 665 2931 
Q 1097 3394 1784 3394 
Q 2450 3394 2872 2941 
Q 3294 2488 3294 1666 
Q 3294 1616 3291 1516 
L 816 1516 
Q 847 969 1125 678 
Q 1403 388 1819 388 
Q 2128 388 2347 550 
Q 2566 713 2694 1069 
z
M 847 1978 
L 2700 1978 
Q 2663 2397 2488 2606 
Q 2219 2931 1791 2931 
Q 1403 2931 1139 2672 
Q 875 2413 847 1978 
z
" transform="scale(0.015625)"/>
       <path id="ArialMT-70" d="M 422 -1272 
L 422 3319 
L 934 3319 
L 934 2888 
Q 1116 3141 1344 3267 
Q 1572 3394 1897 3394 
Q 2322 3394 2647 3175 
Q 2972 2956 3137 2557 
Q 3303 2159 3303 1684 
Q 3303 1175 3120 767 
Q 2938 359 2589 142 
Q 2241 -75 1856 -75 
Q 1575 -75 1351 44 
Q 1128 163 984 344 
L 984 -1272 
L 422 -1272 
z
M 931 1641 
Q 931 1000 1190 694 
Q 1450 388 1819 388 
Q 2194 388 2461 705 
Q 2728 1022 2728 1688 
Q 2728 2322 2467 2637 
Q 2206 2953 1844 2953 
Q 1484 2953 1207 2617 
Q 931 2281 931 1641 
z
" transform="scale(0.015625)"/>
      </defs>
      <use xlink:href="#ArialMT-53"/>
      <use xlink:href="#ArialMT-68" x="66.699219"/>
      <use xlink:href="#ArialMT-65" x="122.314453"/>
      <use xlink:href="#ArialMT-65" x="177.929688"/>
      <use xlink:href="#ArialMT-70" x="233.544922"/>
     </g>
    </g>
    <g id="PathCollection_4">
     <g>
      <use xlink:href="#m7c1bd2f36e" x="356.911406" y="73.92" style="fill: #b22222; stroke: #b22222"/>
     </g>
    </g>
    <g id="text_15">
     <!-- Wolves -->
     <g style="fill: #262626" transform="translate(400.111406 80.22) scale(0.24 -0.24)">
      <defs>
       <path id="ArialMT-57" d="M 1294 0 
L 78 4581 
L 700 4581 
L 1397 1578 
Q 1509 1106 1591 641 
Q 1766 1375 1797 1488 
L 2669 4581 
L 3400 4581 
L 4056 2263 
Q 4303 1400 4413 641 
Q 4500 1075 4641 1638 
L 5359 4581 
L 5969 4581 
L 4713 0 
L 4128 0 
L 3163 3491 
Q 3041 3928 3019 4028 
Q 2947 3713 2884 3491 
L 1913 0 
L 1294 0 
z
" transform="scale(0.015625)"/>
       <path id="ArialMT-6f" d="M 213 1659 
Q 213 2581 725 3025 
Q 1153 3394 1769 3394 
Q 2453 3394 2887 2945 
Q 3322 2497 3322 1706 
Q 3322 1066 3130 698 
Q 2938 331 2570 128 
Q 2203 -75 1769 -75 
Q 1072 -75 642 372 
Q 213 819 213 1659 
z
M 791 1659 
Q 791 1022 1069 705 
Q 1347 388 1769 388 
Q 2188 388 2466 706 
Q 2744 1025 2744 1678 
Q 2744 2294 2464 2611 
Q 2184 2928 1769 2928 
Q 1347 2928 1069 2612 
Q 791 2297 791 1659 
z
" transform="scale(0.015625)"/>
       <path id="ArialMT-6c" d="M 409 0 
L 409 4581 
L 972 4581 
L 972 0 
L 409 0 
z
" transform="scale(0.015625)"/>
       <path id="ArialMT-76" d="M 1344 0 
L 81 3319 
L 675 3319 
L 1388 1331 
Q 1503 1009 1600 663 
Q 1675 925 1809 1294 
L 2547 3319 
L 3125 3319 
L 1869 0 
L 1344 0 
z
" transform="scale(0.015625)"/>
       <path id="ArialMT-73" d="M 197 991 
L 753 1078 
Q 800 744 1014 566 
Q 1228 388 1613 388 
Q 2000 388 2187 545 
Q 2375 703 2375 916 
Q 2375 1106 2209 1216 
Q 2094 1291 1634 1406 
Q 1016 1563 777 1677 
Q 538 1791 414 1992 
Q 291 2194 291 2438 
Q 291 2659 392 2848 
Q 494 3038 669 3163 
Q 800 3259 1026 3326 
Q 1253 3394 1513 3394 
Q 1903 3394 2198 3281 
Q 2494 3169 2634 2976 
Q 2775 2784 2828 2463 
L 2278 2388 
Q 2241 2644 2061 2787 
Q 1881 2931 1553 2931 
Q 1166 2931 1000 2803 
Q 834 2675 834 2503 
Q 834 2394 903 2306 
Q 972 2216 1119 2156 
Q 1203 2125 1616 2013 
Q 2213 1853 2448 1751 
Q 2684 1650 2818 1456 
Q 2953 1263 2953 975 
Q 2953 694 2789 445 
Q 2625 197 2315 61 
Q 2006 -75 1616 -75 
Q 969 -75 630 194 
Q 291 463 197 991 
z
" transform="scale(0.015625)"/>
      </defs>
      <use xlink:href="#ArialMT-57"/>
      <use xlink:href="#ArialMT-6f" x="92.634766"/>
      <use xlink:href="#ArialMT-6c" x="148.25"/>
      <use xlink:href="#ArialMT-76" x="170.466797"/>
      <use xlink:href="#ArialMT-65" x="220.466797"/>
      <use xlink:href="#ArialMT-73" x="276.082031"/>
     </g>
    </g>
   </g>
  </g>
 </g>
 <defs>
  <clipPath id="pb9bcaf4301">
   <rect x="56.450156" y="7.2" width="443.52" height="443.52"/>
  </clipPath>
 </defs>
</svg>
