<?xml version="1.0" encoding="utf-8" standalone="no"?>
<!DOCTYPE svg PUBLIC "-//W3C//DTD SVG 1.1//EN"
  "http://www.w3.org/Graphics/SVG/1.1/DTD/svg11.dtd">
<svg xmlns:xlink="http://www.w3.org/1999/xlink" width="507.170156pt" height="492.454219pt" viewBox="0 0 507.170156 492.454219" xmlns="http://www.w3.org/2000/svg" version="1.1">
 <metadata>
  <rdf:RDF xmlns:dc="http://purl.org/dc/elements/1.1/" xmlns:cc="http://creativecommons.org/ns#" xmlns:rdf="http://www.w3.org/1999/02/22-rdf-syntax-ns#">
   <cc:Work>
    <dc:type rdf:resource="http://purl.org/dc/dcmitype/StillImage"/>
    <dc:date>2026-05-12T10:43:20.243494</dc:date>
    <dc:format>image/svg+xml</dc:format>
    <dc:creator>
     <cc:Agent>
      <dc:title>Matplotlib v3.7.1, https://matplotlib.org/</dc:title>
     </cc:Agent>
    </dc:creator>
   </cc:Work>
  </rdf:RDF>
 </metadata>
 <defs>
  <style type="text/css">*{stroke-linejoin: round; stroke-linecap: butt}</style>
 </defs>
 <g id="figure_1">
  <g id="patch_1">
   <path d="M 0 492.454219 
L 507.170156 492.454219 
L 507.170156 0 
L 0 0 
z
" style="fill: #ffffff"/>
  </g>
  <g id="axes_1">
   <g id="patch_2">
    <path d="M 56.450156 450.72 
L 499.970156 450.72 
L 499.970156 7.2 
L 56.450156 7.2 
z
" style="fill: #eaeaf2"/>
   </g>
   <g id="matplotlib.axis_1">
    <g id="xtick_1">
     <g id="line2d_1">
      <path d="M 100.802156 450.72 
L 100.802156 7.2 
" clip-path="url(#p15be8d5097)" style="fill: none; stroke: #ffffff; stroke-linecap: round"/>
     </g>
     <g id="text_1">
      <!-- −400 -->
      <g style="fill: #262626" transform="translate(88.414266 468.093594) scale(0.11 -0.11)">
       <defs>
        <path id="ArialMT-2212" d="M 3381 1997 
L 356 1997 
L 356 2522 
L 3381 2522 
L 3381 1997 
z
" transform="scale(0.015625)"/>
        <path id="ArialMT-34" d="M 2069 0 
L 2069 1097 
L 81 1097 
L 81 1613 
L 2172 4581 
L 2631 4581 
L 2631 1613 
L 3250 1613 
L 3250 1097 
L 2631 1097 
L 2631 0 
L 2069 0 
z
M 2069 1613 
L 2069 3678 
L 634 1613 
L 2069 1613 
z
" transform="scale(0.015625)"/>
        <path id="ArialMT-30" d="M 266 2259 
Q 266 3072 433 3567 
Q 600 4063 929 4331 
Q 1259 4600 1759 4600 
Q 2128 4600 2406 4451 
Q 2684 4303 2865 4023 
Q 3047 3744 3150 3342 
Q 3253 2941 3253 2259 
Q 3253 1453 3087 958 
Q 2922 463 2592 192 
Q 2263 -78 1759 -78 
Q 1097 -78 719 397 
Q 266 969 266 2259 
z
M 844 2259 
Q 844 1131 1108 757 
Q 1372 384 1759 384 
Q 2147 384 2411 759 
Q 2675 1134 2675 2259 
Q 2675 3391 2411 3762 
Q 2147 4134 1753 4134 
Q 1366 4134 1134 3806 
Q 844 3388 844 2259 
z
" transform="scale(0.015625)"/>
       </defs>
       <use xlink:href="#ArialMT-2212"/>
       <use xlink:href="#ArialMT-34" x="58.398438"/>
       <use xlink:href="#ArialMT-30" x="114.013672"/>
       <use xlink:href="#ArialMT-30" x="169.628906"/>
      </g>
     </g>
    </g>
    <g id="xtick_2">
     <g id="line2d_2">
      <path d="M 189.506156 450.72 
L 189.506156 7.2 
" clip-path="url(#p15be8d5097)" style="fill: none; stroke: #ffffff; stroke-linecap: round"/>
     </g>
     <g id="text_2">
      <!-- −200 -->
      <g style="fill: #262626" transform="translate(177.118266 468.093594) scale(0.11 -0.11)">
       <defs>
        <path id="ArialMT-32" d="M 3222 541 
L 3222 0 
L 194 0 
Q 188 203 259 391 
Q 375 700 629 1000 
Q 884 1300 1366 1694 
Q 2113 2306 2375 2664 
Q 2638 3022 2638 3341 
Q 2638 3675 2398 3904 
Q 2159 4134 1775 4134 
Q 1369 4134 1125 3890 
Q 881 3647 878 3216 
L 300 3275 
Q 359 3922 746 4261 
Q 1134 4600 1788 4600 
Q 2447 4600 2831 4234 
Q 3216 3869 3216 3328 
Q 3216 3053 3103 2787 
Q 2991 2522 2730 2228 
Q 2469 1934 1863 1422 
Q 1356 997 1212 845 
Q 1069 694 975 541 
L 3222 541 
z
" transform="scale(0.015625)"/>
       </defs>
       <use xlink:href="#ArialMT-2212"/>
       <use xlink:href="#ArialMT-32" x="58.398438"/>
       <use xlink:href="#ArialMT-30" x="114.013672"/>
       <use xlink:href="#ArialMT-30" x="169.628906"/>
      </g>
     </g>
    </g>
    <g id="xtick_3">
     <g id="line2d_3">
      <path d="M 278.210156 450.72 
L 278.210156 7.2 
" clip-path="url(#p15be8d5097)" style="fill: none; stroke: #ffffff; stroke-linecap: round"/>
     </g>
     <g id="text_3">
      <!-- 0 -->
      <g style="fill: #262626" transform="translate(275.151641 468.093594) scale(0.11 -0.11)">
       <use xlink:href="#ArialMT-30"/>
      </g>
     </g>
    </g>
    <g id="xtick_4">
     <g id="line2d_4">
      <path d="M 366.914156 450.72 
L 366.914156 7.2 
" clip-path="url(#p15be8d5097)" style="fill: none; stroke: #ffffff; stroke-linecap: round"/>
     </g>
     <g id="text_4">
      <!-- 200 -->
      <g style="fill: #262626" transform="translate(357.738609 468.093594) scale(0.11 -0.11)">
       <use xlink:href="#ArialMT-32"/>
       <use xlink:href="#ArialMT-30" x="55.615234"/>
       <use xlink:href="#ArialMT-30" x="111.230469"/>
      </g>
     </g>
    </g>
    <g id="xtick_5">
     <g id="line2d_5">
      <path d="M 455.618156 450.72 
L 455.618156 7.2 
" clip-path="url(#p15be8d5097)" style="fill: none; stroke: #ffffff; stroke-linecap: round"/>
     </g>
     <g id="text_5">
      <!-- 400 -->
      <g style="fill: #262626" transform="translate(446.442609 468.093594) scale(0.11 -0.11)">
       <use xlink:href="#ArialMT-34"/>
       <use xlink:href="#ArialMT-30" x="55.615234"/>
       <use xlink:href="#ArialMT-30" x="111.230469"/>
      </g>
     </g>
    </g>
    <g id="text_6">
     <!-- x -->
     <g style="fill: #262626" transform="translate(275.210156 482.869219) scale(0.12 -0.12)">
      <defs>
       <path id="ArialMT-78" d="M 47 0 
L 1259 1725 
L 138 3319 
L 841 3319 
L 1350 2541 
Q 1494 2319 1581 2169 
Q 1719 2375 1834 2534 
L 2394 3319 
L 3066 3319 
L 1919 1756 
L 3153 0 
L 2463 0 
L 1781 1031 
L 1600 1309 
L 728 0 
L 47 0 
z
" transform="scale(0.015625)"/>
      </defs>
      <use xlink:href="#ArialMT-78"/>
     </g>
    </g>
   </g>
   <g id="matplotlib.axis_2">
    <g id="ytick_1">
     <g id="line2d_6">
      <path d="M 56.450156 406.368 
L 499.970156 406.368 
" clip-path="url(#p15be8d5097)" style="fill: none; stroke: #ffffff; stroke-linecap: round"/>
     </g>
     <g id="text_7">
      <!-- −400 -->
      <g style="fill: #262626" transform="translate(22.174375 410.304797) scale(0.11 -0.11)">
       <use xlink:href="#ArialMT-2212"/>
       <use xlink:href="#ArialMT-34" x="58.398438"/>
       <use xlink:href="#ArialMT-30" x="114.013672"/>
       <use xlink:href="#ArialMT-30" x="169.628906"/>
      </g>
     </g>
    </g>
    <g id="ytick_2">
     <g id="line2d_7">
      <path d="M 56.450156 317.664 
L 499.970156 317.664 
" clip-path="url(#p15be8d5097)" style="fill: none; stroke: #ffffff; stroke-linecap: round"/>
     </g>
     <g id="text_8">
      <!-- −200 -->
      <g style="fill: #262626" transform="translate(22.174375 321.600797) scale(0.11 -0.11)">
       <use xlink:href="#ArialMT-2212"/>
       <use xlink:href="#ArialMT-32" x="58.398438"/>
       <use xlink:href="#ArialMT-30" x="114.013672"/>
       <use xlink:href="#ArialMT-30" x="169.628906"/>
      </g>
     </g>
    </g>
    <g id="ytick_3">
     <g id="line2d_8">
      <path d="M 56.450156 228.96 
L 499.970156 228.96 
" clip-path="url(#p15be8d5097)" style="fill: none; stroke: #ffffff; stroke-linecap: round"/>
     </g>
     <g id="text_9">
      <!-- 0 -->
      <g style="fill: #262626" transform="translate(40.833125 232.896797) scale(0.11 -0.11)">
       <use xlink:href="#ArialMT-30"/>
      </g>
     </g>
    </g>
    <g id="ytick_4">
     <g id="line2d_9">
      <path d="M 56.450156 140.256 
L 499.970156 140.256 
" clip-path="url(#p15be8d5097)" style="fill: none; stroke: #ffffff; stroke-linecap: round"/>
     </g>
     <g id="text_10">
      <!-- 200 -->
      <g style="fill: #262626" transform="translate(28.599063 144.192797) scale(0.11 -0.11)">
       <use xlink:href="#ArialMT-32"/>
       <use xlink:href="#ArialMT-30" x="55.615234"/>
       <use xlink:href="#ArialMT-30" x="111.230469"/>
      </g>
     </g>
    </g>
    <g id="ytick_5">
     <g id="line2d_10">
      <path d="M 56.450156 51.552 
L 499.970156 51.552 
" clip-path="url(#p15be8d5097)" style="fill: none; stroke: #ffffff; stroke-linecap: round"/>
     </g>
     <g id="text_11">
      <!-- 400 -->
      <g style="fill: #262626" transform="translate(28.599063 55.488797) scale(0.11 -0.11)">
       <use xlink:href="#ArialMT-34"/>
       <use xlink:href="#ArialMT-30" x="55.615234"/>
       <use xlink:href="#ArialMT-30" x="111.230469"/>
      </g>
     </g>
    </g>
    <g id="text_12">
     <!-- y -->
     <g style="fill: #262626" transform="translate(15.64875 231.96) rotate(-90) scale(0.12 -0.12)">
      <defs>
       <path id="ArialMT-79" d="M 397 -1278 
L 334 -750 
Q 519 -800 656 -800 
Q 844 -800 956 -737 
Q 1069 -675 1141 -563 
Q 1194 -478 1313 -144 
Q 1328 -97 1363 -6 
L 103 3319 
L 709 3319 
L 1400 1397 
Q 1534 1031 1641 628 
Q 1738 1016 1872 1384 
L 2581 3319 
L 3144 3319 
L 1881 -56 
Q 1678 -603 1566 -809 
Q 1416 -1088 1222 -1217 
Q 1028 -1347 759 -1347 
Q 597 -1347 397 -1278 
z
" transform="scale(0.015625)"/>
      </defs>
      <use xlink:href="#ArialMT-79"/>
     </g>
    </g>
   </g>
   <g id="patch_3">
    <path d="M 278.210156 317.664 
C 301.734732 317.664 324.298969 308.317587 340.933356 291.6832 
C 357.567743 275.048813 366.914156 252.484576 366.914156 228.96 
C 366.914156 205.435424 357.567743 182.871187 340.933356 166.2368 
C 324.298969 149.602413 301.734732 140.256 278.210156 140.256 
C 254.68558 140.256 232.121343 149.602413 215.486956 166.2368 
C 198.852569 182.871187 189.506156 205.435424 189.506156 228.96 
C 189.506156 252.484576 198.852569 275.048813 215.486956 291.6832 
C 232.121343 308.317587 254.68558 317.664 278.210156 317.664 
z
" clip-path="url(#p15be8d5097)" style="fill: #228b22; opacity: 0.12; stroke: #228b22; stroke-width: 1.5; stroke-linejoin: miter"/>
   </g>
   <g id="PathCollection_1">
    <defs>
     <path id="m13436beda3" d="M 0 2.236068 
C 0.593012 2.236068 1.161816 2.000462 1.581139 1.581139 
C 2.000462 1.161816 2.236068 0.593012 2.236068 0 
C 2.236068 -0.593012 2.000462 -1.161816 1.581139 -1.581139 
C 1.161816 -2.000462 0.593012 -2.236068 0 -2.236068 
C -0.593012 -2.236068 -1.161816 -2.000462 -1.581139 -1.581139 
C -2.000462 -1.161816 -2.236068 -0.593012 -2.236068 0 
C -2.236068 0.593012 -2.000462 1.161816 -1.581139 1.581139 
C -1.161816 2.000462 -0.593012 2.236068 0 2.236068 
z
" style="stroke: #4169e1"/>
    </defs>
    <g clip-path="url(#p15be8d5097)">
     <use xlink:href="#m13436beda3" x="212.93945" y="152.221437" style="fill: #4169e1; stroke: #4169e1"/>
     <use xlink:href="#m13436beda3" x="437.160995" y="226.415663" style="fill: #4169e1; stroke: #4169e1"/>
     <use xlink:href="#m13436beda3" x="181.786624" y="242.032166" style="fill: #4169e1; stroke: #4169e1"/>
     <use xlink:href="#m13436beda3" x="228.342103" y="257.333367" style="fill: #4169e1; stroke: #4169e1"/>
     <use xlink:href="#m13436beda3" x="249.829375" y="167.014605" style="fill: #4169e1; stroke: #4169e1"/>
     <use xlink:href="#m13436beda3" x="411.855342" y="148.119154" style="fill: #4169e1; stroke: #4169e1"/>
     <use xlink:href="#m13436beda3" x="359.480297" y="151.405274" style="fill: #4169e1; stroke: #4169e1"/>
     <use xlink:href="#m13436beda3" x="303.620989" y="194.100943" style="fill: #4169e1; stroke: #4169e1"/>
     <use xlink:href="#m13436beda3" x="262.891357" y="222.32391" style="fill: #4169e1; stroke: #4169e1"/>
     <use xlink:href="#m13436beda3" x="471.964361" y="42.05028" style="fill: #4169e1; stroke: #4169e1"/>
     <use xlink:href="#m13436beda3" x="349.603585" y="230.224112" style="fill: #4169e1; stroke: #4169e1"/>
     <use xlink:href="#m13436beda3" x="348.817774" y="81.416605" style="fill: #4169e1; stroke: #4169e1"/>
     <use xlink:href="#m13436beda3" x="320.553627" y="205.76806" style="fill: #4169e1; stroke: #4169e1"/>
     <use xlink:href="#m13436beda3" x="304.519937" y="240.134165" style="fill: #4169e1; stroke: #4169e1"/>
     <use xlink:href="#m13436beda3" x="260.592198" y="329.163523" style="fill: #4169e1; stroke: #4169e1"/>
     <use xlink:href="#m13436beda3" x="372.444777" y="222.801834" style="fill: #4169e1; stroke: #4169e1"/>
     <use xlink:href="#m13436beda3" x="390.318729" y="233.868998" style="fill: #4169e1; stroke: #4169e1"/>
     <use xlink:href="#m13436beda3" x="382.047144" y="147.573559" style="fill: #4169e1; stroke: #4169e1"/>
     <use xlink:href="#m13436beda3" x="349.315293" y="197.894018" style="fill: #4169e1; stroke: #4169e1"/>
     <use xlink:href="#m13436beda3" x="466.427765" y="159.359086" style="fill: #4169e1; stroke: #4169e1"/>
     <use xlink:href="#m13436beda3" x="337.522064" y="194.478418" style="fill: #4169e1; stroke: #4169e1"/>
     <use xlink:href="#m13436beda3" x="288.865837" y="170.507595" style="fill: #4169e1; stroke: #4169e1"/>
     <use xlink:href="#m13436beda3" x="247.930956" y="167.121607" style="fill: #4169e1; stroke: #4169e1"/>
     <use xlink:href="#m13436beda3" x="282.896269" y="127.867177" style="fill: #4169e1; stroke: #4169e1"/>
     <use xlink:href="#m13436beda3" x="350.00051" y="266.275631" style="fill: #4169e1; stroke: #4169e1"/>
     <use xlink:href="#m13436beda3" x="391.826396" y="110.258737" style="fill: #4169e1; stroke: #4169e1"/>
     <use xlink:href="#m13436beda3" x="393.182592" y="152.39847" style="fill: #4169e1; stroke: #4169e1"/>
     <use xlink:href="#m13436beda3" x="352.748458" y="120.38543" style="fill: #4169e1; stroke: #4169e1"/>
     <use xlink:href="#m13436beda3" x="310.43331" y="156.892873" style="fill: #4169e1; stroke: #4169e1"/>
     <use xlink:href="#m13436beda3" x="379.275307" y="215.45618" style="fill: #4169e1; stroke: #4169e1"/>
     <use xlink:href="#m13436beda3" x="288.510728" y="160.382493" style="fill: #4169e1; stroke: #4169e1"/>
     <use xlink:href="#m13436beda3" x="396.019696" y="162.043805" style="fill: #4169e1; stroke: #4169e1"/>
     <use xlink:href="#m13436beda3" x="327.406595" y="192.350691" style="fill: #4169e1; stroke: #4169e1"/>
     <use xlink:href="#m13436beda3" x="275.097151" y="317.805693" style="fill: #4169e1; stroke: #4169e1"/>
     <use xlink:href="#m13436beda3" x="470.960838" y="285.137981" style="fill: #4169e1; stroke: #4169e1"/>
     <use xlink:href="#m13436beda3" x="266.038988" y="252.503687" style="fill: #4169e1; stroke: #4169e1"/>
     <use xlink:href="#m13436beda3" x="371.583129" y="293.778178" style="fill: #4169e1; stroke: #4169e1"/>
     <use xlink:href="#m13436beda3" x="468.108182" y="244.881056" style="fill: #4169e1; stroke: #4169e1"/>
     <use xlink:href="#m13436beda3" x="304.880405" y="118.920425" style="fill: #4169e1; stroke: #4169e1"/>
     <use xlink:href="#m13436beda3" x="294.211337" y="218.465725" style="fill: #4169e1; stroke: #4169e1"/>
     <use xlink:href="#m13436beda3" x="252.867596" y="246.527284" style="fill: #4169e1; stroke: #4169e1"/>
     <use xlink:href="#m13436beda3" x="438.573862" y="83.533395" style="fill: #4169e1; stroke: #4169e1"/>
     <use xlink:href="#m13436beda3" x="354.398495" y="107.209713" style="fill: #4169e1; stroke: #4169e1"/>
     <use xlink:href="#m13436beda3" x="378.158284" y="286.925518" style="fill: #4169e1; stroke: #4169e1"/>
     <use xlink:href="#m13436beda3" x="394.750288" y="241.006196" style="fill: #4169e1; stroke: #4169e1"/>
     <use xlink:href="#m13436beda3" x="292.447733" y="329.915597" style="fill: #4169e1; stroke: #4169e1"/>
     <use xlink:href="#m13436beda3" x="193.202662" y="145.032394" style="fill: #4169e1; stroke: #4169e1"/>
     <use xlink:href="#m13436beda3" x="377.888969" y="80.655239" style="fill: #4169e1; stroke: #4169e1"/>
     <use xlink:href="#m13436beda3" x="226.739524" y="314.366734" style="fill: #4169e1; stroke: #4169e1"/>
     <use xlink:href="#m13436beda3" x="225.547949" y="174.466825" style="fill: #4169e1; stroke: #4169e1"/>
     <use xlink:href="#m13436beda3" x="262.196407" y="269.431085" style="fill: #4169e1; stroke: #4169e1"/>
     <use xlink:href="#m13436beda3" x="309.770659" y="121.581775" style="fill: #4169e1; stroke: #4169e1"/>
     <use xlink:href="#m13436beda3" x="305.63613" y="269.026523" style="fill: #4169e1; stroke: #4169e1"/>
     <use xlink:href="#m13436beda3" x="438.503682" y="208.859653" style="fill: #4169e1; stroke: #4169e1"/>
     <use xlink:href="#m13436beda3" x="392.502667" y="217.110967" style="fill: #4169e1; stroke: #4169e1"/>
     <use xlink:href="#m13436beda3" x="374.326143" y="263.712008" style="fill: #4169e1; stroke: #4169e1"/>
     <use xlink:href="#m13436beda3" x="291.159518" y="274.487285" style="fill: #4169e1; stroke: #4169e1"/>
     <use xlink:href="#m13436beda3" x="442.702978" y="171.624462" style="fill: #4169e1; stroke: #4169e1"/>
     <use xlink:href="#m13436beda3" x="290.581907" y="158.396899" style="fill: #4169e1; stroke: #4169e1"/>
     <use xlink:href="#m13436beda3" x="489.360475" y="155.986315" style="fill: #4169e1; stroke: #4169e1"/>
     <use xlink:href="#m13436beda3" x="317.209889" y="195.228367" style="fill: #4169e1; stroke: #4169e1"/>
     <use xlink:href="#m13436beda3" x="282.961507" y="172.020846" style="fill: #4169e1; stroke: #4169e1"/>
     <use xlink:href="#m13436beda3" x="262.466958" y="230.506433" style="fill: #4169e1; stroke: #4169e1"/>
     <use xlink:href="#m13436beda3" x="374.053863" y="144.938508" style="fill: #4169e1; stroke: #4169e1"/>
     <use xlink:href="#m13436beda3" x="475.215262" y="179.827924" style="fill: #4169e1; stroke: #4169e1"/>
     <use xlink:href="#m13436beda3" x="294.764146" y="169.612015" style="fill: #4169e1; stroke: #4169e1"/>
     <use xlink:href="#m13436beda3" x="396.047497" y="127.375986" style="fill: #4169e1; stroke: #4169e1"/>
     <use xlink:href="#m13436beda3" x="434.529747" y="202.519661" style="fill: #4169e1; stroke: #4169e1"/>
     <use xlink:href="#m13436beda3" x="347.274929" y="282.469745" style="fill: #4169e1; stroke: #4169e1"/>
     <use xlink:href="#m13436beda3" x="238.400413" y="124.22515" style="fill: #4169e1; stroke: #4169e1"/>
     <use xlink:href="#m13436beda3" x="338.268338" y="248.368884" style="fill: #4169e1; stroke: #4169e1"/>
     <use xlink:href="#m13436beda3" x="306.210706" y="251.124739" style="fill: #4169e1; stroke: #4169e1"/>
     <use xlink:href="#m13436beda3" x="302.762288" y="144.803691" style="fill: #4169e1; stroke: #4169e1"/>
     <use xlink:href="#m13436beda3" x="303.355336" y="159.330967" style="fill: #4169e1; stroke: #4169e1"/>
     <use xlink:href="#m13436beda3" x="259.445988" y="74.617598" style="fill: #4169e1; stroke: #4169e1"/>
     <use xlink:href="#m13436beda3" x="209.457674" y="244.007492" style="fill: #4169e1; stroke: #4169e1"/>
     <use xlink:href="#m13436beda3" x="315.23558" y="147.582634" style="fill: #4169e1; stroke: #4169e1"/>
     <use xlink:href="#m13436beda3" x="332.555372" y="199.355449" style="fill: #4169e1; stroke: #4169e1"/>
     <use xlink:href="#m13436beda3" x="381.526488" y="142.340022" style="fill: #4169e1; stroke: #4169e1"/>
     <use xlink:href="#m13436beda3" x="281.482328" y="107.961916" style="fill: #4169e1; stroke: #4169e1"/>
     <use xlink:href="#m13436beda3" x="318.264592" y="270.037636" style="fill: #4169e1; stroke: #4169e1"/>
     <use xlink:href="#m13436beda3" x="395.33031" y="199.939234" style="fill: #4169e1; stroke: #4169e1"/>
     <use xlink:href="#m13436beda3" x="335.122098" y="238.951375" style="fill: #4169e1; stroke: #4169e1"/>
     <use xlink:href="#m13436beda3" x="244.025803" y="272.277921" style="fill: #4169e1; stroke: #4169e1"/>
     <use xlink:href="#m13436beda3" x="342.562942" y="177.466784" style="fill: #4169e1; stroke: #4169e1"/>
     <use xlink:href="#m13436beda3" x="485.061452" y="179.634551" style="fill: #4169e1; stroke: #4169e1"/>
     <use xlink:href="#m13436beda3" x="422.946698" y="105.504202" style="fill: #4169e1; stroke: #4169e1"/>
     <use xlink:href="#m13436beda3" x="222.520933" y="227.67103" style="fill: #4169e1; stroke: #4169e1"/>
     <use xlink:href="#m13436beda3" x="441.723994" y="185.355317" style="fill: #4169e1; stroke: #4169e1"/>
     <use xlink:href="#m13436beda3" x="229.820024" y="314.085528" style="fill: #4169e1; stroke: #4169e1"/>
     <use xlink:href="#m13436beda3" x="373.481035" y="280.902113" style="fill: #4169e1; stroke: #4169e1"/>
     <use xlink:href="#m13436beda3" x="459.991541" y="186.508309" style="fill: #4169e1; stroke: #4169e1"/>
     <use xlink:href="#m13436beda3" x="367.372951" y="100.015344" style="fill: #4169e1; stroke: #4169e1"/>
     <use xlink:href="#m13436beda3" x="221.239168" y="261.265129" style="fill: #4169e1; stroke: #4169e1"/>
     <use xlink:href="#m13436beda3" x="257.212219" y="159.344374" style="fill: #4169e1; stroke: #4169e1"/>
     <use xlink:href="#m13436beda3" x="260.359495" y="340.739134" style="fill: #4169e1; stroke: #4169e1"/>
     <use xlink:href="#m13436beda3" x="327.371542" y="204.99574" style="fill: #4169e1; stroke: #4169e1"/>
     <use xlink:href="#m13436beda3" x="351.290674" y="272.16521" style="fill: #4169e1; stroke: #4169e1"/>
     <use xlink:href="#m13436beda3" x="365.606085" y="195.813184" style="fill: #4169e1; stroke: #4169e1"/>
     <use xlink:href="#m13436beda3" x="319.490454" y="163.445587" style="fill: #4169e1; stroke: #4169e1"/>
     <use xlink:href="#m13436beda3" x="302.637371" y="176.598033" style="fill: #4169e1; stroke: #4169e1"/>
     <use xlink:href="#m13436beda3" x="345.534693" y="156.830171" style="fill: #4169e1; stroke: #4169e1"/>
     <use xlink:href="#m13436beda3" x="325.429386" y="170.708437" style="fill: #4169e1; stroke: #4169e1"/>
     <use xlink:href="#m13436beda3" x="217.708766" y="163.867573" style="fill: #4169e1; stroke: #4169e1"/>
     <use xlink:href="#m13436beda3" x="301.619143" y="277.71951" style="fill: #4169e1; stroke: #4169e1"/>
     <use xlink:href="#m13436beda3" x="361.596099" y="148.049448" style="fill: #4169e1; stroke: #4169e1"/>
     <use xlink:href="#m13436beda3" x="434.636647" y="261.215759" style="fill: #4169e1; stroke: #4169e1"/>
     <use xlink:href="#m13436beda3" x="228.25649" y="321.559296" style="fill: #4169e1; stroke: #4169e1"/>
     <use xlink:href="#m13436beda3" x="337.676933" y="266.819405" style="fill: #4169e1; stroke: #4169e1"/>
     <use xlink:href="#m13436beda3" x="347.694871" y="244.539775" style="fill: #4169e1; stroke: #4169e1"/>
     <use xlink:href="#m13436beda3" x="333.708743" y="223.646697" style="fill: #4169e1; stroke: #4169e1"/>
     <use xlink:href="#m13436beda3" x="350.560006" y="174.493773" style="fill: #4169e1; stroke: #4169e1"/>
     <use xlink:href="#m13436beda3" x="162.377345" y="142.955986" style="fill: #4169e1; stroke: #4169e1"/>
     <use xlink:href="#m13436beda3" x="287.693716" y="223.254214" style="fill: #4169e1; stroke: #4169e1"/>
     <use xlink:href="#m13436beda3" x="214.493713" y="102.957224" style="fill: #4169e1; stroke: #4169e1"/>
     <use xlink:href="#m13436beda3" x="303.184264" y="155.769549" style="fill: #4169e1; stroke: #4169e1"/>
     <use xlink:href="#m13436beda3" x="275.14712" y="190.034867" style="fill: #4169e1; stroke: #4169e1"/>
     <use xlink:href="#m13436beda3" x="452.310448" y="136.852984" style="fill: #4169e1; stroke: #4169e1"/>
     <use xlink:href="#m13436beda3" x="311.162526" y="318.515544" style="fill: #4169e1; stroke: #4169e1"/>
     <use xlink:href="#m13436beda3" x="391.914064" y="170.57232" style="fill: #4169e1; stroke: #4169e1"/>
     <use xlink:href="#m13436beda3" x="461.044806" y="246.755893" style="fill: #4169e1; stroke: #4169e1"/>
     <use xlink:href="#m13436beda3" x="230.49783" y="271.434261" style="fill: #4169e1; stroke: #4169e1"/>
     <use xlink:href="#m13436beda3" x="294.166256" y="228.501025" style="fill: #4169e1; stroke: #4169e1"/>
     <use xlink:href="#m13436beda3" x="228.605913" y="314.8218" style="fill: #4169e1; stroke: #4169e1"/>
     <use xlink:href="#m13436beda3" x="365.47991" y="198.490269" style="fill: #4169e1; stroke: #4169e1"/>
     <use xlink:href="#m13436beda3" x="394.209599" y="99.148769" style="fill: #4169e1; stroke: #4169e1"/>
     <use xlink:href="#m13436beda3" x="197.142197" y="162.720468" style="fill: #4169e1; stroke: #4169e1"/>
     <use xlink:href="#m13436beda3" x="343.120664" y="235.594575" style="fill: #4169e1; stroke: #4169e1"/>
     <use xlink:href="#m13436beda3" x="486.683952" y="168.924551" style="fill: #4169e1; stroke: #4169e1"/>
     <use xlink:href="#m13436beda3" x="324.999229" y="193.912567" style="fill: #4169e1; stroke: #4169e1"/>
     <use xlink:href="#m13436beda3" x="401.476949" y="94.86427" style="fill: #4169e1; stroke: #4169e1"/>
     <use xlink:href="#m13436beda3" x="310.605362" y="331.864057" style="fill: #4169e1; stroke: #4169e1"/>
     <use xlink:href="#m13436beda3" x="344.099337" y="211.132287" style="fill: #4169e1; stroke: #4169e1"/>
     <use xlink:href="#m13436beda3" x="356.212274" y="155.328527" style="fill: #4169e1; stroke: #4169e1"/>
     <use xlink:href="#m13436beda3" x="414.319836" y="146.883882" style="fill: #4169e1; stroke: #4169e1"/>
     <use xlink:href="#m13436beda3" x="281.421546" y="276.235059" style="fill: #4169e1; stroke: #4169e1"/>
     <use xlink:href="#m13436beda3" x="295.476693" y="331.104302" style="fill: #4169e1; stroke: #4169e1"/>
     <use xlink:href="#m13436beda3" x="449.745469" y="239.995123" style="fill: #4169e1; stroke: #4169e1"/>
     <use xlink:href="#m13436beda3" x="373.47512" y="199.305745" style="fill: #4169e1; stroke: #4169e1"/>
     <use xlink:href="#m13436beda3" x="293.099897" y="276.441003" style="fill: #4169e1; stroke: #4169e1"/>
     <use xlink:href="#m13436beda3" x="388.244175" y="176.804421" style="fill: #4169e1; stroke: #4169e1"/>
     <use xlink:href="#m13436beda3" x="271.410061" y="276.968844" style="fill: #4169e1; stroke: #4169e1"/>
     <use xlink:href="#m13436beda3" x="471.64726" y="142.291417" style="fill: #4169e1; stroke: #4169e1"/>
     <use xlink:href="#m13436beda3" x="329.823412" y="94.848217" style="fill: #4169e1; stroke: #4169e1"/>
     <use xlink:href="#m13436beda3" x="348.338873" y="256.080888" style="fill: #4169e1; stroke: #4169e1"/>
     <use xlink:href="#m13436beda3" x="348.430141" y="161.724193" style="fill: #4169e1; stroke: #4169e1"/>
     <use xlink:href="#m13436beda3" x="342.847315" y="118.502019" style="fill: #4169e1; stroke: #4169e1"/>
     <use xlink:href="#m13436beda3" x="368.798074" y="217.678659" style="fill: #4169e1; stroke: #4169e1"/>
     <use xlink:href="#m13436beda3" x="255.050336" y="275.855635" style="fill: #4169e1; stroke: #4169e1"/>
     <use xlink:href="#m13436beda3" x="264.464961" y="302.569804" style="fill: #4169e1; stroke: #4169e1"/>
     <use xlink:href="#m13436beda3" x="397.385975" y="125.033571" style="fill: #4169e1; stroke: #4169e1"/>
    </g>
   </g>
   <g id="PathCollection_2">
    <defs>
     <path id="m614a7bd39b" d="M 0 2.5 
C 0.663008 2.5 1.29895 2.236584 1.767767 1.767767 
C 2.236584 1.29895 2.5 0.663008 2.5 0 
C 2.5 -0.663008 2.236584 -1.29895 1.767767 -1.767767 
C 1.29895 -2.236584 0.663008 -2.5 0 -2.5 
C -0.663008 -2.5 -1.29895 -2.236584 -1.767767 -1.767767 
C -2.236584 -1.29895 -2.5 -0.663008 -2.5 0 
C -2.5 0.663008 -2.236584 1.29895 -1.767767 1.767767 
C -1.29895 2.236584 -0.663008 2.5 0 2.5 
z
" style="stroke: #b22222"/>
    </defs>
    <g clip-path="url(#p15be8d5097)">
     <use xlink:href="#m614a7bd39b" x="220.468889" y="175.364162" style="fill: #b22222; stroke: #b22222"/>
     <use xlink:href="#m614a7bd39b" x="224.585407" y="188.62179" style="fill: #b22222; stroke: #b22222"/>
     <use xlink:href="#m614a7bd39b" x="246.14015" y="210.832849" style="fill: #b22222; stroke: #b22222"/>
     <use xlink:href="#m614a7bd39b" x="219.339387" y="177.564565" style="fill: #b22222; stroke: #b22222"/>
     <use xlink:href="#m614a7bd39b" x="217.303435" y="185.587864" style="fill: #b22222; stroke: #b22222"/>
     <use xlink:href="#m614a7bd39b" x="230.120788" y="192.294473" style="fill: #b22222; stroke: #b22222"/>
     <use xlink:href="#m614a7bd39b" x="226.574391" y="164.421539" style="fill: #b22222; stroke: #b22222"/>
     <use xlink:href="#m614a7bd39b" x="232.896175" y="201.512892" style="fill: #b22222; stroke: #b22222"/>
     <use xlink:href="#m614a7bd39b" x="212.885168" y="177.45671" style="fill: #b22222; stroke: #b22222"/>
     <use xlink:href="#m614a7bd39b" x="212.188926" y="173.918884" style="fill: #b22222; stroke: #b22222"/>
     <use xlink:href="#m614a7bd39b" x="221.191321" y="174.852012" style="fill: #b22222; stroke: #b22222"/>
     <use xlink:href="#m614a7bd39b" x="225.820141" y="173.44961" style="fill: #b22222; stroke: #b22222"/>
     <use xlink:href="#m614a7bd39b" x="236.047068" y="191.035913" style="fill: #b22222; stroke: #b22222"/>
     <use xlink:href="#m614a7bd39b" x="221.69559" y="189.320478" style="fill: #b22222; stroke: #b22222"/>
     <use xlink:href="#m614a7bd39b" x="229.012327" y="193.131135" style="fill: #b22222; stroke: #b22222"/>
     <use xlink:href="#m614a7bd39b" x="208.864008" y="172.325705" style="fill: #b22222; stroke: #b22222"/>
     <use xlink:href="#m614a7bd39b" x="262.782494" y="187.101061" style="fill: #b22222; stroke: #b22222"/>
     <use xlink:href="#m614a7bd39b" x="226.635736" y="189.587087" style="fill: #b22222; stroke: #b22222"/>
     <use xlink:href="#m614a7bd39b" x="212.848948" y="176.349122" style="fill: #b22222; stroke: #b22222"/>
     <use xlink:href="#m614a7bd39b" x="206.355362" y="170.765799" style="fill: #b22222; stroke: #b22222"/>
     <use xlink:href="#m614a7bd39b" x="228.947368" y="200.828584" style="fill: #b22222; stroke: #b22222"/>
     <use xlink:href="#m614a7bd39b" x="229.48024" y="180.874642" style="fill: #b22222; stroke: #b22222"/>
     <use xlink:href="#m614a7bd39b" x="216.886681" y="171.57242" style="fill: #b22222; stroke: #b22222"/>
     <use xlink:href="#m614a7bd39b" x="218.847174" y="179.871474" style="fill: #b22222; stroke: #b22222"/>
     <use xlink:href="#m614a7bd39b" x="228.111518" y="164.82287" style="fill: #b22222; stroke: #b22222"/>
     <use xlink:href="#m614a7bd39b" x="214.833784" y="175.583661" style="fill: #b22222; stroke: #b22222"/>
     <use xlink:href="#m614a7bd39b" x="210.239627" y="174.493469" style="fill: #b22222; stroke: #b22222"/>
     <use xlink:href="#m614a7bd39b" x="289.334197" y="187.043076" style="fill: #b22222; stroke: #b22222"/>
     <use xlink:href="#m614a7bd39b" x="270.889303" y="203.209453" style="fill: #b22222; stroke: #b22222"/>
     <use xlink:href="#m614a7bd39b" x="238.985639" y="188.983402" style="fill: #b22222; stroke: #b22222"/>
     <use xlink:href="#m614a7bd39b" x="216.100864" y="193.096384" style="fill: #b22222; stroke: #b22222"/>
     <use xlink:href="#m614a7bd39b" x="242.104981" y="200.728464" style="fill: #b22222; stroke: #b22222"/>
     <use xlink:href="#m614a7bd39b" x="211.667782" y="172.509726" style="fill: #b22222; stroke: #b22222"/>
     <use xlink:href="#m614a7bd39b" x="230.410383" y="195.115802" style="fill: #b22222; stroke: #b22222"/>
     <use xlink:href="#m614a7bd39b" x="220.272534" y="187.638637" style="fill: #b22222; stroke: #b22222"/>
     <use xlink:href="#m614a7bd39b" x="246.057115" y="174.057183" style="fill: #b22222; stroke: #b22222"/>
     <use xlink:href="#m614a7bd39b" x="241.027153" y="197.108221" style="fill: #b22222; stroke: #b22222"/>
     <use xlink:href="#m614a7bd39b" x="217.702993" y="169.665519" style="fill: #b22222; stroke: #b22222"/>
     <use xlink:href="#m614a7bd39b" x="218.238816" y="182.589962" style="fill: #b22222; stroke: #b22222"/>
     <use xlink:href="#m614a7bd39b" x="301.867435" y="226.173313" style="fill: #b22222; stroke: #b22222"/>
     <use xlink:href="#m614a7bd39b" x="231.104544" y="191.018974" style="fill: #b22222; stroke: #b22222"/>
     <use xlink:href="#m614a7bd39b" x="214.096219" y="169.823231" style="fill: #b22222; stroke: #b22222"/>
     <use xlink:href="#m614a7bd39b" x="245.147698" y="191.090724" style="fill: #b22222; stroke: #b22222"/>
     <use xlink:href="#m614a7bd39b" x="212.817912" y="178.353983" style="fill: #b22222; stroke: #b22222"/>
     <use xlink:href="#m614a7bd39b" x="235.301569" y="189.037299" style="fill: #b22222; stroke: #b22222"/>
     <use xlink:href="#m614a7bd39b" x="274.757571" y="149.515556" style="fill: #b22222; stroke: #b22222"/>
     <use xlink:href="#m614a7bd39b" x="204.497438" y="178.239983" style="fill: #b22222; stroke: #b22222"/>
     <use xlink:href="#m614a7bd39b" x="228.973664" y="198.989743" style="fill: #b22222; stroke: #b22222"/>
     <use xlink:href="#m614a7bd39b" x="220.894739" y="194.311584" style="fill: #b22222; stroke: #b22222"/>
     <use xlink:href="#m614a7bd39b" x="214.273394" y="173.016435" style="fill: #b22222; stroke: #b22222"/>
     <use xlink:href="#m614a7bd39b" x="357.07782" y="197.073036" style="fill: #b22222; stroke: #b22222"/>
     <use xlink:href="#m614a7bd39b" x="209.609829" y="177.321491" style="fill: #b22222; stroke: #b22222"/>
     <use xlink:href="#m614a7bd39b" x="221.830881" y="186.50905" style="fill: #b22222; stroke: #b22222"/>
     <use xlink:href="#m614a7bd39b" x="210.208719" y="178.500098" style="fill: #b22222; stroke: #b22222"/>
     <use xlink:href="#m614a7bd39b" x="235.524351" y="188.614487" style="fill: #b22222; stroke: #b22222"/>
     <use xlink:href="#m614a7bd39b" x="217.890259" y="184.693559" style="fill: #b22222; stroke: #b22222"/>
     <use xlink:href="#m614a7bd39b" x="219.645153" y="184.710691" style="fill: #b22222; stroke: #b22222"/>
     <use xlink:href="#m614a7bd39b" x="265.47926" y="200.381245" style="fill: #b22222; stroke: #b22222"/>
     <use xlink:href="#m614a7bd39b" x="231.819565" y="191.682332" style="fill: #b22222; stroke: #b22222"/>
     <use xlink:href="#m614a7bd39b" x="217.372031" y="173.442085" style="fill: #b22222; stroke: #b22222"/>
     <use xlink:href="#m614a7bd39b" x="226.313643" y="191.997255" style="fill: #b22222; stroke: #b22222"/>
     <use xlink:href="#m614a7bd39b" x="234.362422" y="164.804909" style="fill: #b22222; stroke: #b22222"/>
     <use xlink:href="#m614a7bd39b" x="244.240003" y="202.016414" style="fill: #b22222; stroke: #b22222"/>
     <use xlink:href="#m614a7bd39b" x="217.769735" y="166.715261" style="fill: #b22222; stroke: #b22222"/>
     <use xlink:href="#m614a7bd39b" x="224.016676" y="188.681226" style="fill: #b22222; stroke: #b22222"/>
     <use xlink:href="#m614a7bd39b" x="239.245111" y="197.938731" style="fill: #b22222; stroke: #b22222"/>
     <use xlink:href="#m614a7bd39b" x="238.116181" y="191.093272" style="fill: #b22222; stroke: #b22222"/>
     <use xlink:href="#m614a7bd39b" x="264.494306" y="160.753241" style="fill: #b22222; stroke: #b22222"/>
     <use xlink:href="#m614a7bd39b" x="230.611999" y="202.734674" style="fill: #b22222; stroke: #b22222"/>
     <use xlink:href="#m614a7bd39b" x="243.269387" y="197.089715" style="fill: #b22222; stroke: #b22222"/>
     <use xlink:href="#m614a7bd39b" x="231.878643" y="204.823294" style="fill: #b22222; stroke: #b22222"/>
     <use xlink:href="#m614a7bd39b" x="209.588139" y="169.183356" style="fill: #b22222; stroke: #b22222"/>
     <use xlink:href="#m614a7bd39b" x="238.721027" y="189.092319" style="fill: #b22222; stroke: #b22222"/>
     <use xlink:href="#m614a7bd39b" x="331.441743" y="234.9224" style="fill: #b22222; stroke: #b22222"/>
    </g>
   </g>
   <g id="patch_4">
    <path d="M 56.450156 450.72 
L 56.450156 7.2 
" style="fill: none; stroke: #ffffff; stroke-width: 1.25; stroke-linejoin: miter; stroke-linecap: square"/>
   </g>
   <g id="patch_5">
    <path d="M 499.970156 450.72 
L 499.970156 7.2 
" style="fill: none; stroke: #ffffff; stroke-width: 1.25; stroke-linejoin: miter; stroke-linecap: square"/>
   </g>
   <g id="patch_6">
    <path d="M 56.450156 450.72 
L 499.970156 450.72 
" style="fill: none; stroke: #ffffff; stroke-width: 1.25; stroke-linejoin: miter; stroke-linecap: square"/>
   </g>
   <g id="patch_7">
    <path d="M 56.450156 7.2 
L 499.970156 7.2 
" style="fill: none; stroke: #ffffff; stroke-width: 1.25; stroke-linejoin: miter; stroke-linecap: square"/>
   </g>
   <g id="text_13">
    <!-- t = 2000 -->
    <g style="fill: #262626" transform="translate(65.320556 24.659775) scale(0.12 -0.12)">
     <defs>
      <path id="ArialMT-74" d="M 1650 503 
L 1731 6 
Q 1494 -44 1306 -44 
Q 1000 -44 831 53 
Q 663 150 594 308 
Q 525 466 525 972 
L 525 2881 
L 113 2881 
L 113 3319 
L 525 3319 
L 525 4141 
L 1084 4478 
L 1084 3319 
L 1650 3319 
L 1650 2881 
L 1084 2881 
L 1084 941 
Q 1084 700 1114 631 
Q 1144 563 1211 522 
Q 1278 481 1403 481 
Q 1497 481 1650 503 
z
" transform="scale(0.015625)"/>
      <path id="ArialMT-20" transform="scale(0.015625)"/>
      <path id="ArialMT-3d" d="M 3381 2694 
L 356 2694 
L 356 3219 
L 3381 3219 
L 3381 2694 
z
M 3381 1303 
L 356 1303 
L 356 1828 
L 3381 1828 
L 3381 1303 
z
" transform="scale(0.015625)"/>
     </defs>
     <use xlink:href="#ArialMT-74"/>
     <use xlink:href="#ArialMT-20" x="27.783203"/>
     <use xlink:href="#ArialMT-3d" x="55.566406"/>
     <use xlink:href="#ArialMT-20" x="113.964844"/>
     <use xlink:href="#ArialMT-32" x="141.748047"/>
     <use xlink:href="#ArialMT-30" x="197.363281"/>
     <use xlink:href="#ArialMT-30" x="252.978516"/>
     <use xlink:href="#ArialMT-30" x="308.59375"/>
    </g>
   </g>
   <g id="legend_1">
    <g id="patch_8">
     <path d="M 328.111406 94.59 
L 483.170156 94.59 
Q 487.970156 94.59 487.970156 89.79 
L 487.970156 24 
Q 487.970156 19.2 483.170156 19.2 
L 328.111406 19.2 
Q 323.311406 19.2 323.311406 24 
L 323.311406 89.79 
Q 323.311406 94.59 328.111406 94.59 
z
" style="fill: #eaeaf2; opacity: 0.8; stroke: #cccccc; stroke-linejoin: miter"/>
    </g>
    <g id="PathCollection_3">
     <g>
      <use xlink:href="#m13436beda3" x="356.911406" y="39.97125" style="fill: #4169e1; stroke: #4169e1"/>
     </g>
    </g>
    <g id="text_14">
     <!-- Sheep -->
     <g style="fill: #262626" transform="translate(400.111406 46.27125) scale(0.24 -0.24)">
      <defs>
       <path id="ArialMT-53" d="M 288 1472 
L 859 1522 
Q 900 1178 1048 958 
Q 1197 738 1509 602 
Q 1822 466 2213 466 
Q 2559 466 2825 569 
Q 3091 672 3220 851 
Q 3350 1031 3350 1244 
Q 3350 1459 3225 1620 
Q 3100 1781 2813 1891 
Q 2628 1963 1997 2114 
Q 1366 2266 1113 2400 
Q 784 2572 623 2826 
Q 463 3081 463 3397 
Q 463 3744 659 4045 
Q 856 4347 1234 4503 
Q 1613 4659 2075 4659 
Q 2584 4659 2973 4495 
Q 3363 4331 3572 4012 
Q 3781 3694 3797 3291 
L 3216 3247 
Q 3169 3681 2898 3903 
Q 2628 4125 2100 4125 
Q 1550 4125 1298 3923 
Q 1047 3722 1047 3438 
Q 1047 3191 1225 3031 
Q 1400 2872 2139 2705 
Q 2878 2538 3153 2413 
Q 3553 2228 3743 1945 
Q 3934 1663 3934 1294 
Q 3934 928 3725 604 
Q 3516 281 3123 101 
Q 2731 -78 2241 -78 
Q 1619 -78 1198 103 
Q 778 284 539 648 
Q 300 1013 288 1472 
z
" transform="scale(0.015625)"/>
       <path id="ArialMT-68" d="M 422 0 
L 422 4581 
L 984 4581 
L 984 2938 
Q 1378 3394 1978 3394 
Q 2347 3394 2619 3248 
Q 2891 3103 3008 2847 
Q 3125 2591 3125 2103 
L 3125 0 
L 2563 0 
L 2563 2103 
Q 2563 2525 2380 2717 
Q 2197 2909 1863 2909 
Q 1613 2909 1392 2779 
Q 1172 2650 1078 2428 
Q 984 2206 984 1816 
L 984 0 
L 422 0 
z
" transform="scale(0.015625)"/>
       <path id="ArialMT-65" d="M 2694 1069 
L 3275 997 
Q 3138 488 2766 206 
Q 2394 -75 1816 -75 
Q 1088 -75 661 373 
Q 234 822 234 1631 
Q 234 2469 665 2931 
Q 1097 3394 1784 3394 
Q 2450 3394 2872 2941 
Q 3294 2488 3294 1666 
Q 3294 1616 3291 1516 
L 816 1516 
Q 847 969 1125 678 
Q 1403 388 1819 388 
Q 2128 388 2347 550 
Q 2566 713 2694 1069 
z
M 847 1978 
L 2700 1978 
Q 2663 2397 2488 2606 
Q 2219 2931 1791 2931 
Q 1403 2931 1139 2672 
Q 875 2413 847 1978 
z
" transform="scale(0.015625)"/>
       <path id="ArialMT-70" d="M 422 -1272 
L 422 3319 
L 934 3319 
L 934 2888 
Q 1116 3141 1344 3267 
Q 1572 3394 1897 3394 
Q 2322 3394 2647 3175 
Q 2972 2956 3137 2557 
Q 3303 2159 3303 1684 
Q 3303 1175 3120 767 
Q 2938 359 2589 142 
Q 2241 -75 1856 -75 
Q 1575 -75 1351 44 
Q 1128 163 984 344 
L 984 -1272 
L 422 -1272 
z
M 931 1641 
Q 931 1000 1190 694 
Q 1450 388 1819 388 
Q 2194 388 2461 705 
Q 2728 1022 2728 1688 
Q 2728 2322 2467 2637 
Q 2206 2953 1844 2953 
Q 1484 2953 1207 2617 
Q 931 2281 931 1641 
z
" transform="scale(0.015625)"/>
      </defs>
      <use xlink:href="#ArialMT-53"/>
      <use xlink:href="#ArialMT-68" x="66.699219"/>
      <use xlink:href="#ArialMT-65" x="122.314453"/>
      <use xlink:href="#ArialMT-65" x="177.929688"/>
      <use xlink:href="#ArialMT-70" x="233.544922"/>
     </g>
    </g>
    <g id="PathCollection_4">
     <g>
      <use xlink:href="#m614a7bd39b" x="356.911406" y="73.92" style="fill: #b22222; stroke: #b22222"/>
     </g>
    </g>
    <g id="text_15">
     <!-- Wolves -->
     <g style="fill: #262626" transform="translate(400.111406 80.22) scale(0.24 -0.24)">
      <defs>
       <path id="ArialMT-57" d="M 1294 0 
L 78 4581 
L 700 4581 
L 1397 1578 
Q 1509 1106 1591 641 
Q 1766 1375 1797 1488 
L 2669 4581 
L 3400 4581 
L 4056 2263 
Q 4303 1400 4413 641 
Q 4500 1075 4641 1638 
L 5359 4581 
L 5969 4581 
L 4713 0 
L 4128 0 
L 3163 3491 
Q 3041 3928 3019 4028 
Q 2947 3713 2884 3491 
L 1913 0 
L 1294 0 
z
" transform="scale(0.015625)"/>
       <path id="ArialMT-6f" d="M 213 1659 
Q 213 2581 725 3025 
Q 1153 3394 1769 3394 
Q 2453 3394 2887 2945 
Q 3322 2497 3322 1706 
Q 3322 1066 3130 698 
Q 2938 331 2570 128 
Q 2203 -75 1769 -75 
Q 1072 -75 642 372 
Q 213 819 213 1659 
z
M 791 1659 
Q 791 1022 1069 705 
Q 1347 388 1769 388 
Q 2188 388 2466 706 
Q 2744 1025 2744 1678 
Q 2744 2294 2464 2611 
Q 2184 2928 1769 2928 
Q 1347 2928 1069 2612 
Q 791 2297 791 1659 
z
" transform="scale(0.015625)"/>
       <path id="ArialMT-6c" d="M 409 0 
L 409 4581 
L 972 4581 
L 972 0 
L 409 0 
z
" transform="scale(0.015625)"/>
       <path id="ArialMT-76" d="M 1344 0 
L 81 3319 
L 675 3319 
L 1388 1331 
Q 1503 1009 1600 663 
Q 1675 925 1809 1294 
L 2547 3319 
L 3125 3319 
L 1869 0 
L 1344 0 
z
" transform="scale(0.015625)"/>
       <path id="ArialMT-73" d="M 197 991 
L 753 1078 
Q 800 744 1014 566 
Q 1228 388 1613 388 
Q 2000 388 2187 545 
Q 2375 703 2375 916 
Q 2375 1106 2209 1216 
Q 2094 1291 1634 1406 
Q 1016 1563 777 1677 
Q 538 1791 414 1992 
Q 291 2194 291 2438 
Q 291 2659 392 2848 
Q 494 3038 669 3163 
Q 800 3259 1026 3326 
Q 1253 3394 1513 3394 
Q 1903 3394 2198 3281 
Q 2494 3169 2634 2976 
Q 2775 2784 2828 2463 
L 2278 2388 
Q 2241 2644 2061 2787 
Q 1881 2931 1553 2931 
Q 1166 2931 1000 2803 
Q 834 2675 834 2503 
Q 834 2394 903 2306 
Q 972 2216 1119 2156 
Q 1203 2125 1616 2013 
Q 2213 1853 2448 1751 
Q 2684 1650 2818 1456 
Q 2953 1263 2953 975 
Q 2953 694 2789 445 
Q 2625 197 2315 61 
Q 2006 -75 1616 -75 
Q 969 -75 630 194 
Q 291 463 197 991 
z
" transform="scale(0.015625)"/>
      </defs>
      <use xlink:href="#ArialMT-57"/>
      <use xlink:href="#ArialMT-6f" x="92.634766"/>
      <use xlink:href="#ArialMT-6c" x="148.25"/>
      <use xlink:href="#ArialMT-76" x="170.466797"/>
      <use xlink:href="#ArialMT-65" x="220.466797"/>
      <use xlink:href="#ArialMT-73" x="276.082031"/>
     </g>
    </g>
   </g>
  </g>
 </g>
 <defs>
  <clipPath id="p15be8d5097">
   <rect x="56.450156" y="7.2" width="443.52" height="443.52"/>
  </clipPath>
 </defs>
</svg>
