<?xml version="1.0" encoding="utf-8" standalone="no"?>
<!DOCTYPE svg PUBLIC "-//W3C//DTD SVG 1.1//EN"
  "http://www.w3.org/Graphics/SVG/1.1/DTD/svg11.dtd">
<svg xmlns:xlink="http://www.w3.org/1999/xlink" width="507.170156pt" height="492.454219pt" viewBox="0 0 507.170156 492.454219" xmlns="http://www.w3.org/2000/svg" version="1.1">
 <metadata>
  <rdf:RDF xmlns:dc="http://purl.org/dc/elements/1.1/" xmlns:cc="http://creativecommons.org/ns#" xmlns:rdf="http://www.w3.org/1999/02/22-rdf-syntax-ns#">
   <cc:Work>
    <dc:type rdf:resource="http://purl.org/dc/dcmitype/StillImage"/>
    <dc:date>2026-05-12T10:43:20.142919</dc:date>
    <dc:format>image/svg+xml</dc:format>
    <dc:creator>
     <cc:Agent>
      <dc:title>Matplotlib v3.7.1, https://matplotlib.org/</dc:title>
     </cc:Agent>
    </dc:creator>
   </cc:Work>
  </rdf:RDF>
 </metadata>
 <defs>
  <style type="text/css">*{stroke-linejoin: round; stroke-linecap: butt}</style>
 </defs>
 <g id="figure_1">
  <g id="patch_1">
   <path d="M 0 492.454219 
L 507.170156 492.454219 
L 507.170156 0 
L 0 0 
z
" style="fill: #ffffff"/>
  </g>
  <g id="axes_1">
   <g id="patch_2">
    <path d="M 56.450156 450.72 
L 499.970156 450.72 
L 499.970156 7.2 
L 56.450156 7.2 
z
" style="fill: #eaeaf2"/>
   </g>
   <g id="matplotlib.axis_1">
    <g id="xtick_1">
     <g id="line2d_1">
      <path d="M 100.802156 450.72 
L 100.802156 7.2 
" clip-path="url(#pec4bea3bd9)" style="fill: none; stroke: #ffffff; stroke-linecap: round"/>
     </g>
     <g id="text_1">
      <!-- −400 -->
      <g style="fill: #262626" transform="translate(88.414266 468.093594) scale(0.11 -0.11)">
       <defs>
        <path id="ArialMT-2212" d="M 3381 1997 
L 356 1997 
L 356 2522 
L 3381 2522 
L 3381 1997 
z
" transform="scale(0.015625)"/>
        <path id="ArialMT-34" d="M 2069 0 
L 2069 1097 
L 81 1097 
L 81 1613 
L 2172 4581 
L 2631 4581 
L 2631 1613 
L 3250 1613 
L 3250 1097 
L 2631 1097 
L 2631 0 
L 2069 0 
z
M 2069 1613 
L 2069 3678 
L 634 1613 
L 2069 1613 
z
" transform="scale(0.015625)"/>
        <path id="ArialMT-30" d="M 266 2259 
Q 266 3072 433 3567 
Q 600 4063 929 4331 
Q 1259 4600 1759 4600 
Q 2128 4600 2406 4451 
Q 2684 4303 2865 4023 
Q 3047 3744 3150 3342 
Q 3253 2941 3253 2259 
Q 3253 1453 3087 958 
Q 2922 463 2592 192 
Q 2263 -78 1759 -78 
Q 1097 -78 719 397 
Q 266 969 266 2259 
z
M 844 2259 
Q 844 1131 1108 757 
Q 1372 384 1759 384 
Q 2147 384 2411 759 
Q 2675 1134 2675 2259 
Q 2675 3391 2411 3762 
Q 2147 4134 1753 4134 
Q 1366 4134 1134 3806 
Q 844 3388 844 2259 
z
" transform="scale(0.015625)"/>
       </defs>
       <use xlink:href="#ArialMT-2212"/>
       <use xlink:href="#ArialMT-34" x="58.398438"/>
       <use xlink:href="#ArialMT-30" x="114.013672"/>
       <use xlink:href="#ArialMT-30" x="169.628906"/>
      </g>
     </g>
    </g>
    <g id="xtick_2">
     <g id="line2d_2">
      <path d="M 189.506156 450.72 
L 189.506156 7.2 
" clip-path="url(#pec4bea3bd9)" style="fill: none; stroke: #ffffff; stroke-linecap: round"/>
     </g>
     <g id="text_2">
      <!-- −200 -->
      <g style="fill: #262626" transform="translate(177.118266 468.093594) scale(0.11 -0.11)">
       <defs>
        <path id="ArialMT-32" d="M 3222 541 
L 3222 0 
L 194 0 
Q 188 203 259 391 
Q 375 700 629 1000 
Q 884 1300 1366 1694 
Q 2113 2306 2375 2664 
Q 2638 3022 2638 3341 
Q 2638 3675 2398 3904 
Q 2159 4134 1775 4134 
Q 1369 4134 1125 3890 
Q 881 3647 878 3216 
L 300 3275 
Q 359 3922 746 4261 
Q 1134 4600 1788 4600 
Q 2447 4600 2831 4234 
Q 3216 3869 3216 3328 
Q 3216 3053 3103 2787 
Q 2991 2522 2730 2228 
Q 2469 1934 1863 1422 
Q 1356 997 1212 845 
Q 1069 694 975 541 
L 3222 541 
z
" transform="scale(0.015625)"/>
       </defs>
       <use xlink:href="#ArialMT-2212"/>
       <use xlink:href="#ArialMT-32" x="58.398438"/>
       <use xlink:href="#ArialMT-30" x="114.013672"/>
       <use xlink:href="#ArialMT-30" x="169.628906"/>
      </g>
     </g>
    </g>
    <g id="xtick_3">
     <g id="line2d_3">
      <path d="M 278.210156 450.72 
L 278.210156 7.2 
" clip-path="url(#pec4bea3bd9)" style="fill: none; stroke: #ffffff; stroke-linecap: round"/>
     </g>
     <g id="text_3">
      <!-- 0 -->
      <g style="fill: #262626" transform="translate(275.151641 468.093594) scale(0.11 -0.11)">
       <use xlink:href="#ArialMT-30"/>
      </g>
     </g>
    </g>
    <g id="xtick_4">
     <g id="line2d_4">
      <path d="M 366.914156 450.72 
L 366.914156 7.2 
" clip-path="url(#pec4bea3bd9)" style="fill: none; stroke: #ffffff; stroke-linecap: round"/>
     </g>
     <g id="text_4">
      <!-- 200 -->
      <g style="fill: #262626" transform="translate(357.738609 468.093594) scale(0.11 -0.11)">
       <use xlink:href="#ArialMT-32"/>
       <use xlink:href="#ArialMT-30" x="55.615234"/>
       <use xlink:href="#ArialMT-30" x="111.230469"/>
      </g>
     </g>
    </g>
    <g id="xtick_5">
     <g id="line2d_5">
      <path d="M 455.618156 450.72 
L 455.618156 7.2 
" clip-path="url(#pec4bea3bd9)" style="fill: none; stroke: #ffffff; stroke-linecap: round"/>
     </g>
     <g id="text_5">
      <!-- 400 -->
      <g style="fill: #262626" transform="translate(446.442609 468.093594) scale(0.11 -0.11)">
       <use xlink:href="#ArialMT-34"/>
       <use xlink:href="#ArialMT-30" x="55.615234"/>
       <use xlink:href="#ArialMT-30" x="111.230469"/>
      </g>
     </g>
    </g>
    <g id="text_6">
     <!-- x -->
     <g style="fill: #262626" transform="translate(275.210156 482.869219) scale(0.12 -0.12)">
      <defs>
       <path id="ArialMT-78" d="M 47 0 
L 1259 1725 
L 138 3319 
L 841 3319 
L 1350 2541 
Q 1494 2319 1581 2169 
Q 1719 2375 1834 2534 
L 2394 3319 
L 3066 3319 
L 1919 1756 
L 3153 0 
L 2463 0 
L 1781 1031 
L 1600 1309 
L 728 0 
L 47 0 
z
" transform="scale(0.015625)"/>
      </defs>
      <use xlink:href="#ArialMT-78"/>
     </g>
    </g>
   </g>
   <g id="matplotlib.axis_2">
    <g id="ytick_1">
     <g id="line2d_6">
      <path d="M 56.450156 406.368 
L 499.970156 406.368 
" clip-path="url(#pec4bea3bd9)" style="fill: none; stroke: #ffffff; stroke-linecap: round"/>
     </g>
     <g id="text_7">
      <!-- −400 -->
      <g style="fill: #262626" transform="translate(22.174375 410.304797) scale(0.11 -0.11)">
       <use xlink:href="#ArialMT-2212"/>
       <use xlink:href="#ArialMT-34" x="58.398438"/>
       <use xlink:href="#ArialMT-30" x="114.013672"/>
       <use xlink:href="#ArialMT-30" x="169.628906"/>
      </g>
     </g>
    </g>
    <g id="ytick_2">
     <g id="line2d_7">
      <path d="M 56.450156 317.664 
L 499.970156 317.664 
" clip-path="url(#pec4bea3bd9)" style="fill: none; stroke: #ffffff; stroke-linecap: round"/>
     </g>
     <g id="text_8">
      <!-- −200 -->
      <g style="fill: #262626" transform="translate(22.174375 321.600797) scale(0.11 -0.11)">
       <use xlink:href="#ArialMT-2212"/>
       <use xlink:href="#ArialMT-32" x="58.398438"/>
       <use xlink:href="#ArialMT-30" x="114.013672"/>
       <use xlink:href="#ArialMT-30" x="169.628906"/>
      </g>
     </g>
    </g>
    <g id="ytick_3">
     <g id="line2d_8">
      <path d="M 56.450156 228.96 
L 499.970156 228.96 
" clip-path="url(#pec4bea3bd9)" style="fill: none; stroke: #ffffff; stroke-linecap: round"/>
     </g>
     <g id="text_9">
      <!-- 0 -->
      <g style="fill: #262626" transform="translate(40.833125 232.896797) scale(0.11 -0.11)">
       <use xlink:href="#ArialMT-30"/>
      </g>
     </g>
    </g>
    <g id="ytick_4">
     <g id="line2d_9">
      <path d="M 56.450156 140.256 
L 499.970156 140.256 
" clip-path="url(#pec4bea3bd9)" style="fill: none; stroke: #ffffff; stroke-linecap: round"/>
     </g>
     <g id="text_10">
      <!-- 200 -->
      <g style="fill: #262626" transform="translate(28.599063 144.192797) scale(0.11 -0.11)">
       <use xlink:href="#ArialMT-32"/>
       <use xlink:href="#ArialMT-30" x="55.615234"/>
       <use xlink:href="#ArialMT-30" x="111.230469"/>
      </g>
     </g>
    </g>
    <g id="ytick_5">
     <g id="line2d_10">
      <path d="M 56.450156 51.552 
L 499.970156 51.552 
" clip-path="url(#pec4bea3bd9)" style="fill: none; stroke: #ffffff; stroke-linecap: round"/>
     </g>
     <g id="text_11">
      <!-- 400 -->
      <g style="fill: #262626" transform="translate(28.599063 55.488797) scale(0.11 -0.11)">
       <use xlink:href="#ArialMT-34"/>
       <use xlink:href="#ArialMT-30" x="55.615234"/>
       <use xlink:href="#ArialMT-30" x="111.230469"/>
      </g>
     </g>
    </g>
    <g id="text_12">
     <!-- y -->
     <g style="fill: #262626" transform="translate(15.64875 231.96) rotate(-90) scale(0.12 -0.12)">
      <defs>
       <path id="ArialMT-79" d="M 397 -1278 
L 334 -750 
Q 519 -800 656 -800 
Q 844 -800 956 -737 
Q 1069 -675 1141 -563 
Q 1194 -478 1313 -144 
Q 1328 -97 1363 -6 
L 103 3319 
L 709 3319 
L 1400 1397 
Q 1534 1031 1641 628 
Q 1738 1016 1872 1384 
L 2581 3319 
L 3144 3319 
L 1881 -56 
Q 1678 -603 1566 -809 
Q 1416 -1088 1222 -1217 
Q 1028 -1347 759 -1347 
Q 597 -1347 397 -1278 
z
" transform="scale(0.015625)"/>
      </defs>
      <use xlink:href="#ArialMT-79"/>
     </g>
    </g>
   </g>
   <g id="patch_3">
    <path d="M 278.210156 317.664 
C 301.734732 317.664 324.298969 308.317587 340.933356 291.6832 
C 357.567743 275.048813 366.914156 252.484576 366.914156 228.96 
C 366.914156 205.435424 357.567743 182.871187 340.933356 166.2368 
C 324.298969 149.602413 301.734732 140.256 278.210156 140.256 
C 254.68558 140.256 232.121343 149.602413 215.486956 166.2368 
C 198.852569 182.871187 189.506156 205.435424 189.506156 228.96 
C 189.506156 252.484576 198.852569 275.048813 215.486956 291.6832 
C 232.121343 308.317587 254.68558 317.664 278.210156 317.664 
z
" clip-path="url(#pec4bea3bd9)" style="fill: #228b22; opacity: 0.12; stroke: #228b22; stroke-width: 1.5; stroke-linejoin: miter"/>
   </g>
   <g id="PathCollection_1">
    <defs>
     <path id="m3e19f6bf78" d="M 0 2.236068 
C 0.593012 2.236068 1.161816 2.000462 1.581139 1.581139 
C 2.000462 1.161816 2.236068 0.593012 2.236068 0 
C 2.236068 -0.593012 2.000462 -1.161816 1.581139 -1.581139 
C 1.161816 -2.000462 0.593012 -2.236068 0 -2.236068 
C -0.593012 -2.236068 -1.161816 -2.000462 -1.581139 -1.581139 
C -2.000462 -1.161816 -2.236068 -0.593012 -2.236068 0 
C -2.236068 0.593012 -2.000462 1.161816 -1.581139 1.581139 
C -1.161816 2.000462 -0.593012 2.236068 0 2.236068 
z
" style="stroke: #4169e1"/>
    </defs>
    <g clip-path="url(#pec4bea3bd9)">
     <use xlink:href="#m3e19f6bf78" x="332.205739" y="182.120262" style="fill: #4169e1; stroke: #4169e1"/>
     <use xlink:href="#m3e19f6bf78" x="326.932117" y="135.534024" style="fill: #4169e1; stroke: #4169e1"/>
     <use xlink:href="#m3e19f6bf78" x="221.991218" y="280.930364" style="fill: #4169e1; stroke: #4169e1"/>
     <use xlink:href="#m3e19f6bf78" x="286.866945" y="291.767673" style="fill: #4169e1; stroke: #4169e1"/>
     <use xlink:href="#m3e19f6bf78" x="278.804212" y="134.291551" style="fill: #4169e1; stroke: #4169e1"/>
     <use xlink:href="#m3e19f6bf78" x="215.129473" y="139.807763" style="fill: #4169e1; stroke: #4169e1"/>
     <use xlink:href="#m3e19f6bf78" x="386.218666" y="272.694103" style="fill: #4169e1; stroke: #4169e1"/>
     <use xlink:href="#m3e19f6bf78" x="416.878441" y="168.023217" style="fill: #4169e1; stroke: #4169e1"/>
     <use xlink:href="#m3e19f6bf78" x="254.897702" y="148.726734" style="fill: #4169e1; stroke: #4169e1"/>
     <use xlink:href="#m3e19f6bf78" x="389.845898" y="173.067895" style="fill: #4169e1; stroke: #4169e1"/>
     <use xlink:href="#m3e19f6bf78" x="268.87605" y="277.845276" style="fill: #4169e1; stroke: #4169e1"/>
     <use xlink:href="#m3e19f6bf78" x="333.494336" y="75.827939" style="fill: #4169e1; stroke: #4169e1"/>
     <use xlink:href="#m3e19f6bf78" x="377.207419" y="117.650915" style="fill: #4169e1; stroke: #4169e1"/>
     <use xlink:href="#m3e19f6bf78" x="353.449701" y="246.141649" style="fill: #4169e1; stroke: #4169e1"/>
     <use xlink:href="#m3e19f6bf78" x="271.111183" y="314.776051" style="fill: #4169e1; stroke: #4169e1"/>
     <use xlink:href="#m3e19f6bf78" x="344.812288" y="274.916738" style="fill: #4169e1; stroke: #4169e1"/>
     <use xlink:href="#m3e19f6bf78" x="411.493709" y="152.965349" style="fill: #4169e1; stroke: #4169e1"/>
     <use xlink:href="#m3e19f6bf78" x="497.166403" y="136.071627" style="fill: #4169e1; stroke: #4169e1"/>
     <use xlink:href="#m3e19f6bf78" x="317.323113" y="168.007571" style="fill: #4169e1; stroke: #4169e1"/>
     <use xlink:href="#m3e19f6bf78" x="306.516728" y="185.752205" style="fill: #4169e1; stroke: #4169e1"/>
     <use xlink:href="#m3e19f6bf78" x="352.093505" y="265.247964" style="fill: #4169e1; stroke: #4169e1"/>
     <use xlink:href="#m3e19f6bf78" x="340.486107" y="200.983055" style="fill: #4169e1; stroke: #4169e1"/>
     <use xlink:href="#m3e19f6bf78" x="423.689088" y="193.245216" style="fill: #4169e1; stroke: #4169e1"/>
     <use xlink:href="#m3e19f6bf78" x="445.186747" y="95.966262" style="fill: #4169e1; stroke: #4169e1"/>
     <use xlink:href="#m3e19f6bf78" x="299.69958" y="163.722374" style="fill: #4169e1; stroke: #4169e1"/>
     <use xlink:href="#m3e19f6bf78" x="446.876855" y="117.507057" style="fill: #4169e1; stroke: #4169e1"/>
     <use xlink:href="#m3e19f6bf78" x="383.384695" y="229.788608" style="fill: #4169e1; stroke: #4169e1"/>
     <use xlink:href="#m3e19f6bf78" x="386.572989" y="185.789768" style="fill: #4169e1; stroke: #4169e1"/>
     <use xlink:href="#m3e19f6bf78" x="381.203681" y="277.887248" style="fill: #4169e1; stroke: #4169e1"/>
     <use xlink:href="#m3e19f6bf78" x="357.274682" y="281.519908" style="fill: #4169e1; stroke: #4169e1"/>
     <use xlink:href="#m3e19f6bf78" x="499.078122" y="125.132798" style="fill: #4169e1; stroke: #4169e1"/>
     <use xlink:href="#m3e19f6bf78" x="371.331503" y="215.533519" style="fill: #4169e1; stroke: #4169e1"/>
     <use xlink:href="#m3e19f6bf78" x="434.652957" y="183.00917" style="fill: #4169e1; stroke: #4169e1"/>
     <use xlink:href="#m3e19f6bf78" x="384.724676" y="156.618271" style="fill: #4169e1; stroke: #4169e1"/>
     <use xlink:href="#m3e19f6bf78" x="259.256875" y="287.119896" style="fill: #4169e1; stroke: #4169e1"/>
     <use xlink:href="#m3e19f6bf78" x="396.205046" y="201.22235" style="fill: #4169e1; stroke: #4169e1"/>
     <use xlink:href="#m3e19f6bf78" x="350.507882" y="276.182313" style="fill: #4169e1; stroke: #4169e1"/>
     <use xlink:href="#m3e19f6bf78" x="271.444906" y="245.176296" style="fill: #4169e1; stroke: #4169e1"/>
     <use xlink:href="#m3e19f6bf78" x="340.228851" y="198.279222" style="fill: #4169e1; stroke: #4169e1"/>
     <use xlink:href="#m3e19f6bf78" x="340.099726" y="213.65989" style="fill: #4169e1; stroke: #4169e1"/>
     <use xlink:href="#m3e19f6bf78" x="459.166276" y="96.8876" style="fill: #4169e1; stroke: #4169e1"/>
     <use xlink:href="#m3e19f6bf78" x="335.857673" y="232.866641" style="fill: #4169e1; stroke: #4169e1"/>
     <use xlink:href="#m3e19f6bf78" x="377.636051" y="157.718395" style="fill: #4169e1; stroke: #4169e1"/>
     <use xlink:href="#m3e19f6bf78" x="357.110352" y="229.615168" style="fill: #4169e1; stroke: #4169e1"/>
     <use xlink:href="#m3e19f6bf78" x="380.594707" y="265.886359" style="fill: #4169e1; stroke: #4169e1"/>
     <use xlink:href="#m3e19f6bf78" x="402.818865" y="164.510905" style="fill: #4169e1; stroke: #4169e1"/>
     <use xlink:href="#m3e19f6bf78" x="262.09603" y="269.789536" style="fill: #4169e1; stroke: #4169e1"/>
     <use xlink:href="#m3e19f6bf78" x="311.971878" y="192.090681" style="fill: #4169e1; stroke: #4169e1"/>
     <use xlink:href="#m3e19f6bf78" x="440.010429" y="145.15666" style="fill: #4169e1; stroke: #4169e1"/>
     <use xlink:href="#m3e19f6bf78" x="363.543929" y="67.597129" style="fill: #4169e1; stroke: #4169e1"/>
     <use xlink:href="#m3e19f6bf78" x="209.902615" y="208.177947" style="fill: #4169e1; stroke: #4169e1"/>
     <use xlink:href="#m3e19f6bf78" x="297.653202" y="233.847143" style="fill: #4169e1; stroke: #4169e1"/>
     <use xlink:href="#m3e19f6bf78" x="499.970156" y="204.279375" style="fill: #4169e1; stroke: #4169e1"/>
     <use xlink:href="#m3e19f6bf78" x="420.842022" y="182.720306" style="fill: #4169e1; stroke: #4169e1"/>
     <use xlink:href="#m3e19f6bf78" x="344.54189" y="181.233104" style="fill: #4169e1; stroke: #4169e1"/>
     <use xlink:href="#m3e19f6bf78" x="310.020694" y="295.893094" style="fill: #4169e1; stroke: #4169e1"/>
     <use xlink:href="#m3e19f6bf78" x="359.954372" y="220.180092" style="fill: #4169e1; stroke: #4169e1"/>
     <use xlink:href="#m3e19f6bf78" x="316.509918" y="246.749107" style="fill: #4169e1; stroke: #4169e1"/>
     <use xlink:href="#m3e19f6bf78" x="197.010933" y="268.639948" style="fill: #4169e1; stroke: #4169e1"/>
     <use xlink:href="#m3e19f6bf78" x="394.321751" y="128.391664" style="fill: #4169e1; stroke: #4169e1"/>
     <use xlink:href="#m3e19f6bf78" x="497.151027" y="192.591986" style="fill: #4169e1; stroke: #4169e1"/>
     <use xlink:href="#m3e19f6bf78" x="438.470413" y="257.009282" style="fill: #4169e1; stroke: #4169e1"/>
     <use xlink:href="#m3e19f6bf78" x="398.465594" y="204.615641" style="fill: #4169e1; stroke: #4169e1"/>
     <use xlink:href="#m3e19f6bf78" x="327.09728" y="120.632297" style="fill: #4169e1; stroke: #4169e1"/>
     <use xlink:href="#m3e19f6bf78" x="416.143076" y="182.831693" style="fill: #4169e1; stroke: #4169e1"/>
     <use xlink:href="#m3e19f6bf78" x="347.473456" y="258.520592" style="fill: #4169e1; stroke: #4169e1"/>
     <use xlink:href="#m3e19f6bf78" x="225.32088" y="163.109015" style="fill: #4169e1; stroke: #4169e1"/>
     <use xlink:href="#m3e19f6bf78" x="286.889105" y="226.01311" style="fill: #4169e1; stroke: #4169e1"/>
     <use xlink:href="#m3e19f6bf78" x="401.699061" y="128.747043" style="fill: #4169e1; stroke: #4169e1"/>
     <use xlink:href="#m3e19f6bf78" x="254.374469" y="336.059123" style="fill: #4169e1; stroke: #4169e1"/>
     <use xlink:href="#m3e19f6bf78" x="286.610076" y="88.713232" style="fill: #4169e1; stroke: #4169e1"/>
     <use xlink:href="#m3e19f6bf78" x="298.105902" y="210.722089" style="fill: #4169e1; stroke: #4169e1"/>
     <use xlink:href="#m3e19f6bf78" x="321.193461" y="227.69055" style="fill: #4169e1; stroke: #4169e1"/>
     <use xlink:href="#m3e19f6bf78" x="499.970156" y="157.215889" style="fill: #4169e1; stroke: #4169e1"/>
     <use xlink:href="#m3e19f6bf78" x="356.585045" y="181.027078" style="fill: #4169e1; stroke: #4169e1"/>
     <use xlink:href="#m3e19f6bf78" x="321.78331" y="134.098201" style="fill: #4169e1; stroke: #4169e1"/>
     <use xlink:href="#m3e19f6bf78" x="155.005395" y="206.321632" style="fill: #4169e1; stroke: #4169e1"/>
     <use xlink:href="#m3e19f6bf78" x="245.131906" y="166.074561" style="fill: #4169e1; stroke: #4169e1"/>
     <use xlink:href="#m3e19f6bf78" x="436.956532" y="187.509457" style="fill: #4169e1; stroke: #4169e1"/>
     <use xlink:href="#m3e19f6bf78" x="255.997217" y="169.562124" style="fill: #4169e1; stroke: #4169e1"/>
     <use xlink:href="#m3e19f6bf78" x="413.018661" y="125.894665" style="fill: #4169e1; stroke: #4169e1"/>
     <use xlink:href="#m3e19f6bf78" x="137.124411" y="203.117138" style="fill: #4169e1; stroke: #4169e1"/>
     <use xlink:href="#m3e19f6bf78" x="419.647504" y="263.661799" style="fill: #4169e1; stroke: #4169e1"/>
     <use xlink:href="#m3e19f6bf78" x="251.805369" y="253.802204" style="fill: #4169e1; stroke: #4169e1"/>
     <use xlink:href="#m3e19f6bf78" x="370.943491" y="171.738821" style="fill: #4169e1; stroke: #4169e1"/>
     <use xlink:href="#m3e19f6bf78" x="473.781659" y="156.159538" style="fill: #4169e1; stroke: #4169e1"/>
     <use xlink:href="#m3e19f6bf78" x="311.436792" y="238.490024" style="fill: #4169e1; stroke: #4169e1"/>
     <use xlink:href="#m3e19f6bf78" x="407.197894" y="201.182372" style="fill: #4169e1; stroke: #4169e1"/>
     <use xlink:href="#m3e19f6bf78" x="256.234581" y="119.98755" style="fill: #4169e1; stroke: #4169e1"/>
     <use xlink:href="#m3e19f6bf78" x="413.559553" y="258.332071" style="fill: #4169e1; stroke: #4169e1"/>
     <use xlink:href="#m3e19f6bf78" x="189.978567" y="266.908301" style="fill: #4169e1; stroke: #4169e1"/>
     <use xlink:href="#m3e19f6bf78" x="397.464398" y="155.276105" style="fill: #4169e1; stroke: #4169e1"/>
     <use xlink:href="#m3e19f6bf78" x="377.973448" y="237.007887" style="fill: #4169e1; stroke: #4169e1"/>
     <use xlink:href="#m3e19f6bf78" x="345.120017" y="277.95441" style="fill: #4169e1; stroke: #4169e1"/>
     <use xlink:href="#m3e19f6bf78" x="304.870479" y="218.988436" style="fill: #4169e1; stroke: #4169e1"/>
     <use xlink:href="#m3e19f6bf78" x="459.235143" y="216.407263" style="fill: #4169e1; stroke: #4169e1"/>
     <use xlink:href="#m3e19f6bf78" x="247.153727" y="269.465633" style="fill: #4169e1; stroke: #4169e1"/>
     <use xlink:href="#m3e19f6bf78" x="295.881406" y="55.912337" style="fill: #4169e1; stroke: #4169e1"/>
     <use xlink:href="#m3e19f6bf78" x="341.725352" y="148.619502" style="fill: #4169e1; stroke: #4169e1"/>
     <use xlink:href="#m3e19f6bf78" x="384.397673" y="264.00616" style="fill: #4169e1; stroke: #4169e1"/>
     <use xlink:href="#m3e19f6bf78" x="399.479228" y="94.520355" style="fill: #4169e1; stroke: #4169e1"/>
     <use xlink:href="#m3e19f6bf78" x="271.617481" y="142.857159" style="fill: #4169e1; stroke: #4169e1"/>
     <use xlink:href="#m3e19f6bf78" x="389.061496" y="192.876647" style="fill: #4169e1; stroke: #4169e1"/>
     <use xlink:href="#m3e19f6bf78" x="424.373859" y="71.409184" style="fill: #4169e1; stroke: #4169e1"/>
     <use xlink:href="#m3e19f6bf78" x="342.979615" y="120.299109" style="fill: #4169e1; stroke: #4169e1"/>
     <use xlink:href="#m3e19f6bf78" x="312.635388" y="250.098657" style="fill: #4169e1; stroke: #4169e1"/>
     <use xlink:href="#m3e19f6bf78" x="294.437734" y="181.491469" style="fill: #4169e1; stroke: #4169e1"/>
     <use xlink:href="#m3e19f6bf78" x="372.88944" y="231.75753" style="fill: #4169e1; stroke: #4169e1"/>
     <use xlink:href="#m3e19f6bf78" x="244.017194" y="112.550077" style="fill: #4169e1; stroke: #4169e1"/>
     <use xlink:href="#m3e19f6bf78" x="298.326161" y="265.408406" style="fill: #4169e1; stroke: #4169e1"/>
     <use xlink:href="#m3e19f6bf78" x="334.111573" y="247.546603" style="fill: #4169e1; stroke: #4169e1"/>
     <use xlink:href="#m3e19f6bf78" x="469.926359" y="184.804893" style="fill: #4169e1; stroke: #4169e1"/>
     <use xlink:href="#m3e19f6bf78" x="271.352628" y="155.256641" style="fill: #4169e1; stroke: #4169e1"/>
     <use xlink:href="#m3e19f6bf78" x="213.943786" y="205.938232" style="fill: #4169e1; stroke: #4169e1"/>
     <use xlink:href="#m3e19f6bf78" x="304.673762" y="342.283935" style="fill: #4169e1; stroke: #4169e1"/>
     <use xlink:href="#m3e19f6bf78" x="360.823911" y="194.98736" style="fill: #4169e1; stroke: #4169e1"/>
     <use xlink:href="#m3e19f6bf78" x="482.552833" y="126.194083" style="fill: #4169e1; stroke: #4169e1"/>
     <use xlink:href="#m3e19f6bf78" x="286.525528" y="187.659335" style="fill: #4169e1; stroke: #4169e1"/>
     <use xlink:href="#m3e19f6bf78" x="426.522727" y="128.175941" style="fill: #4169e1; stroke: #4169e1"/>
     <use xlink:href="#m3e19f6bf78" x="201.662703" y="293.316467" style="fill: #4169e1; stroke: #4169e1"/>
     <use xlink:href="#m3e19f6bf78" x="421.065203" y="142.157331" style="fill: #4169e1; stroke: #4169e1"/>
     <use xlink:href="#m3e19f6bf78" x="400.903993" y="210.978761" style="fill: #4169e1; stroke: #4169e1"/>
     <use xlink:href="#m3e19f6bf78" x="296.717447" y="175.954613" style="fill: #4169e1; stroke: #4169e1"/>
     <use xlink:href="#m3e19f6bf78" x="471.404344" y="201.705762" style="fill: #4169e1; stroke: #4169e1"/>
     <use xlink:href="#m3e19f6bf78" x="270.704598" y="223.488406" style="fill: #4169e1; stroke: #4169e1"/>
     <use xlink:href="#m3e19f6bf78" x="424.106147" y="302.154112" style="fill: #4169e1; stroke: #4169e1"/>
     <use xlink:href="#m3e19f6bf78" x="364.571532" y="266.743348" style="fill: #4169e1; stroke: #4169e1"/>
     <use xlink:href="#m3e19f6bf78" x="210.937729" y="198.120218" style="fill: #4169e1; stroke: #4169e1"/>
     <use xlink:href="#m3e19f6bf78" x="404.962008" y="125.29882" style="fill: #4169e1; stroke: #4169e1"/>
     <use xlink:href="#m3e19f6bf78" x="384.676335" y="190.33483" style="fill: #4169e1; stroke: #4169e1"/>
     <use xlink:href="#m3e19f6bf78" x="284.761777" y="171.346112" style="fill: #4169e1; stroke: #4169e1"/>
     <use xlink:href="#m3e19f6bf78" x="443.432942" y="155.309577" style="fill: #4169e1; stroke: #4169e1"/>
     <use xlink:href="#m3e19f6bf78" x="300.146285" y="333.422475" style="fill: #4169e1; stroke: #4169e1"/>
     <use xlink:href="#m3e19f6bf78" x="325.916635" y="204.803458" style="fill: #4169e1; stroke: #4169e1"/>
     <use xlink:href="#m3e19f6bf78" x="455.499683" y="175.823484" style="fill: #4169e1; stroke: #4169e1"/>
     <use xlink:href="#m3e19f6bf78" x="293.300169" y="197.724737" style="fill: #4169e1; stroke: #4169e1"/>
     <use xlink:href="#m3e19f6bf78" x="237.565534" y="301.187289" style="fill: #4169e1; stroke: #4169e1"/>
     <use xlink:href="#m3e19f6bf78" x="334.971864" y="292.704644" style="fill: #4169e1; stroke: #4169e1"/>
     <use xlink:href="#m3e19f6bf78" x="314.923706" y="292.507288" style="fill: #4169e1; stroke: #4169e1"/>
     <use xlink:href="#m3e19f6bf78" x="383.982821" y="244.786479" style="fill: #4169e1; stroke: #4169e1"/>
     <use xlink:href="#m3e19f6bf78" x="274.403169" y="249.805702" style="fill: #4169e1; stroke: #4169e1"/>
     <use xlink:href="#m3e19f6bf78" x="390.717387" y="70.811242" style="fill: #4169e1; stroke: #4169e1"/>
     <use xlink:href="#m3e19f6bf78" x="285.369463" y="255.414383" style="fill: #4169e1; stroke: #4169e1"/>
     <use xlink:href="#m3e19f6bf78" x="451.246287" y="158.385733" style="fill: #4169e1; stroke: #4169e1"/>
     <use xlink:href="#m3e19f6bf78" x="393.472001" y="292.867086" style="fill: #4169e1; stroke: #4169e1"/>
     <use xlink:href="#m3e19f6bf78" x="238.349277" y="165.99624" style="fill: #4169e1; stroke: #4169e1"/>
     <use xlink:href="#m3e19f6bf78" x="439.258105" y="85.308504" style="fill: #4169e1; stroke: #4169e1"/>
     <use xlink:href="#m3e19f6bf78" x="311.407502" y="273.818367" style="fill: #4169e1; stroke: #4169e1"/>
     <use xlink:href="#m3e19f6bf78" x="465.267897" y="169.952498" style="fill: #4169e1; stroke: #4169e1"/>
     <use xlink:href="#m3e19f6bf78" x="338.818244" y="276.735596" style="fill: #4169e1; stroke: #4169e1"/>
     <use xlink:href="#m3e19f6bf78" x="240.281353" y="281.121169" style="fill: #4169e1; stroke: #4169e1"/>
     <use xlink:href="#m3e19f6bf78" x="342.658561" y="173.486456" style="fill: #4169e1; stroke: #4169e1"/>
    </g>
   </g>
   <g id="PathCollection_2">
    <defs>
     <path id="meb9faf0251" d="M 0 2.5 
C 0.663008 2.5 1.29895 2.236584 1.767767 1.767767 
C 2.236584 1.29895 2.5 0.663008 2.5 0 
C 2.5 -0.663008 2.236584 -1.29895 1.767767 -1.767767 
C 1.29895 -2.236584 0.663008 -2.5 0 -2.5 
C -0.663008 -2.5 -1.29895 -2.236584 -1.767767 -1.767767 
C -2.236584 -1.29895 -2.5 -0.663008 -2.5 0 
C -2.5 0.663008 -2.236584 1.29895 -1.767767 1.767767 
C -1.29895 2.236584 -0.663008 2.5 0 2.5 
z
" style="stroke: #b22222"/>
    </defs>
    <g clip-path="url(#pec4bea3bd9)">
     <use xlink:href="#meb9faf0251" x="222.644303" y="219.081584" style="fill: #b22222; stroke: #b22222"/>
     <use xlink:href="#meb9faf0251" x="194.545904" y="199.537792" style="fill: #b22222; stroke: #b22222"/>
     <use xlink:href="#meb9faf0251" x="243.375171" y="224.703273" style="fill: #b22222; stroke: #b22222"/>
     <use xlink:href="#meb9faf0251" x="213.488098" y="205.757022" style="fill: #b22222; stroke: #b22222"/>
     <use xlink:href="#meb9faf0251" x="220.416596" y="206.803819" style="fill: #b22222; stroke: #b22222"/>
     <use xlink:href="#meb9faf0251" x="201.484174" y="188.808585" style="fill: #b22222; stroke: #b22222"/>
     <use xlink:href="#meb9faf0251" x="229.210214" y="210.716888" style="fill: #b22222; stroke: #b22222"/>
     <use xlink:href="#meb9faf0251" x="201.909665" y="204.661471" style="fill: #b22222; stroke: #b22222"/>
     <use xlink:href="#meb9faf0251" x="200.918831" y="192.201957" style="fill: #b22222; stroke: #b22222"/>
     <use xlink:href="#meb9faf0251" x="211.875594" y="204.724695" style="fill: #b22222; stroke: #b22222"/>
     <use xlink:href="#meb9faf0251" x="198.325305" y="199.02397" style="fill: #b22222; stroke: #b22222"/>
     <use xlink:href="#meb9faf0251" x="210.634704" y="206.979223" style="fill: #b22222; stroke: #b22222"/>
     <use xlink:href="#meb9faf0251" x="265.627596" y="241.302" style="fill: #b22222; stroke: #b22222"/>
     <use xlink:href="#meb9faf0251" x="234.449101" y="238.441951" style="fill: #b22222; stroke: #b22222"/>
     <use xlink:href="#meb9faf0251" x="182.541188" y="194.837719" style="fill: #b22222; stroke: #b22222"/>
     <use xlink:href="#meb9faf0251" x="241.124877" y="236.867546" style="fill: #b22222; stroke: #b22222"/>
     <use xlink:href="#meb9faf0251" x="196.854758" y="196.495014" style="fill: #b22222; stroke: #b22222"/>
     <use xlink:href="#meb9faf0251" x="212.378784" y="203.098279" style="fill: #b22222; stroke: #b22222"/>
     <use xlink:href="#meb9faf0251" x="200.088219" y="201.572163" style="fill: #b22222; stroke: #b22222"/>
     <use xlink:href="#meb9faf0251" x="189.982729" y="203.144447" style="fill: #b22222; stroke: #b22222"/>
     <use xlink:href="#meb9faf0251" x="238.624531" y="232.909118" style="fill: #b22222; stroke: #b22222"/>
     <use xlink:href="#meb9faf0251" x="217.365643" y="200.25259" style="fill: #b22222; stroke: #b22222"/>
     <use xlink:href="#meb9faf0251" x="197.849057" y="203.809008" style="fill: #b22222; stroke: #b22222"/>
     <use xlink:href="#meb9faf0251" x="190.278689" y="197.369568" style="fill: #b22222; stroke: #b22222"/>
     <use xlink:href="#meb9faf0251" x="227.813511" y="228.972224" style="fill: #b22222; stroke: #b22222"/>
     <use xlink:href="#meb9faf0251" x="209.897336" y="201.158029" style="fill: #b22222; stroke: #b22222"/>
     <use xlink:href="#meb9faf0251" x="186.328528" y="188.453182" style="fill: #b22222; stroke: #b22222"/>
     <use xlink:href="#meb9faf0251" x="208.862418" y="197.833062" style="fill: #b22222; stroke: #b22222"/>
     <use xlink:href="#meb9faf0251" x="199.243354" y="191.198623" style="fill: #b22222; stroke: #b22222"/>
     <use xlink:href="#meb9faf0251" x="243.86689" y="227.051372" style="fill: #b22222; stroke: #b22222"/>
     <use xlink:href="#meb9faf0251" x="228.69938" y="223.135958" style="fill: #b22222; stroke: #b22222"/>
     <use xlink:href="#meb9faf0251" x="206.505203" y="204.374135" style="fill: #b22222; stroke: #b22222"/>
     <use xlink:href="#meb9faf0251" x="200.96686" y="206.162408" style="fill: #b22222; stroke: #b22222"/>
     <use xlink:href="#meb9faf0251" x="339.467323" y="204.636192" style="fill: #b22222; stroke: #b22222"/>
     <use xlink:href="#meb9faf0251" x="262.807947" y="248.466696" style="fill: #b22222; stroke: #b22222"/>
     <use xlink:href="#meb9faf0251" x="197.512472" y="186.719173" style="fill: #b22222; stroke: #b22222"/>
     <use xlink:href="#meb9faf0251" x="240.505261" y="235.893357" style="fill: #b22222; stroke: #b22222"/>
     <use xlink:href="#meb9faf0251" x="221.564478" y="208.532879" style="fill: #b22222; stroke: #b22222"/>
     <use xlink:href="#meb9faf0251" x="227.091224" y="222.034361" style="fill: #b22222; stroke: #b22222"/>
     <use xlink:href="#meb9faf0251" x="218.47091" y="201.859343" style="fill: #b22222; stroke: #b22222"/>
     <use xlink:href="#meb9faf0251" x="194.08805" y="193.178969" style="fill: #b22222; stroke: #b22222"/>
     <use xlink:href="#meb9faf0251" x="198.492519" y="182.2516" style="fill: #b22222; stroke: #b22222"/>
     <use xlink:href="#meb9faf0251" x="235.152006" y="230.202998" style="fill: #b22222; stroke: #b22222"/>
     <use xlink:href="#meb9faf0251" x="207.043915" y="201.621886" style="fill: #b22222; stroke: #b22222"/>
     <use xlink:href="#meb9faf0251" x="192.974154" y="193.3664" style="fill: #b22222; stroke: #b22222"/>
     <use xlink:href="#meb9faf0251" x="184.576327" y="195.086732" style="fill: #b22222; stroke: #b22222"/>
     <use xlink:href="#meb9faf0251" x="207.223006" y="221.388193" style="fill: #b22222; stroke: #b22222"/>
     <use xlink:href="#meb9faf0251" x="320.075315" y="225.420189" style="fill: #b22222; stroke: #b22222"/>
     <use xlink:href="#meb9faf0251" x="207.547971" y="196.372206" style="fill: #b22222; stroke: #b22222"/>
     <use xlink:href="#meb9faf0251" x="195.041216" y="190.002179" style="fill: #b22222; stroke: #b22222"/>
     <use xlink:href="#meb9faf0251" x="192.14296" y="209.665071" style="fill: #b22222; stroke: #b22222"/>
     <use xlink:href="#meb9faf0251" x="247.465878" y="233.686058" style="fill: #b22222; stroke: #b22222"/>
     <use xlink:href="#meb9faf0251" x="182.690528" y="188.003362" style="fill: #b22222; stroke: #b22222"/>
     <use xlink:href="#meb9faf0251" x="205.011354" y="198.525142" style="fill: #b22222; stroke: #b22222"/>
     <use xlink:href="#meb9faf0251" x="239.721021" y="228.249466" style="fill: #b22222; stroke: #b22222"/>
     <use xlink:href="#meb9faf0251" x="203.612598" y="201.842196" style="fill: #b22222; stroke: #b22222"/>
     <use xlink:href="#meb9faf0251" x="222.716405" y="208.61654" style="fill: #b22222; stroke: #b22222"/>
     <use xlink:href="#meb9faf0251" x="246.863834" y="247.567052" style="fill: #b22222; stroke: #b22222"/>
     <use xlink:href="#meb9faf0251" x="320.163321" y="249.332408" style="fill: #b22222; stroke: #b22222"/>
     <use xlink:href="#meb9faf0251" x="196.061151" y="206.587574" style="fill: #b22222; stroke: #b22222"/>
     <use xlink:href="#meb9faf0251" x="245.653957" y="229.991282" style="fill: #b22222; stroke: #b22222"/>
     <use xlink:href="#meb9faf0251" x="226.767914" y="223.550759" style="fill: #b22222; stroke: #b22222"/>
     <use xlink:href="#meb9faf0251" x="220.731978" y="205.662738" style="fill: #b22222; stroke: #b22222"/>
     <use xlink:href="#meb9faf0251" x="180.512647" y="186.631733" style="fill: #b22222; stroke: #b22222"/>
     <use xlink:href="#meb9faf0251" x="190.180153" y="203.980771" style="fill: #b22222; stroke: #b22222"/>
     <use xlink:href="#meb9faf0251" x="230.180688" y="227.649736" style="fill: #b22222; stroke: #b22222"/>
     <use xlink:href="#meb9faf0251" x="231.375298" y="218.269066" style="fill: #b22222; stroke: #b22222"/>
     <use xlink:href="#meb9faf0251" x="221.006796" y="198.495273" style="fill: #b22222; stroke: #b22222"/>
     <use xlink:href="#meb9faf0251" x="203.992678" y="201.179295" style="fill: #b22222; stroke: #b22222"/>
     <use xlink:href="#meb9faf0251" x="197.90849" y="192.387642" style="fill: #b22222; stroke: #b22222"/>
     <use xlink:href="#meb9faf0251" x="205.819742" y="203.967933" style="fill: #b22222; stroke: #b22222"/>
     <use xlink:href="#meb9faf0251" x="186.545882" y="203.951579" style="fill: #b22222; stroke: #b22222"/>
     <use xlink:href="#meb9faf0251" x="195.796498" y="184.728987" style="fill: #b22222; stroke: #b22222"/>
     <use xlink:href="#meb9faf0251" x="207.505688" y="194.449372" style="fill: #b22222; stroke: #b22222"/>
     <use xlink:href="#meb9faf0251" x="204.658358" y="200.268727" style="fill: #b22222; stroke: #b22222"/>
     <use xlink:href="#meb9faf0251" x="296.864941" y="193.214783" style="fill: #b22222; stroke: #b22222"/>
     <use xlink:href="#meb9faf0251" x="229.567471" y="225.416412" style="fill: #b22222; stroke: #b22222"/>
     <use xlink:href="#meb9faf0251" x="204.66302" y="206.226032" style="fill: #b22222; stroke: #b22222"/>
     <use xlink:href="#meb9faf0251" x="212.892822" y="208.318902" style="fill: #b22222; stroke: #b22222"/>
     <use xlink:href="#meb9faf0251" x="198.781244" y="189.858043" style="fill: #b22222; stroke: #b22222"/>
     <use xlink:href="#meb9faf0251" x="243.39523" y="222.916636" style="fill: #b22222; stroke: #b22222"/>
     <use xlink:href="#meb9faf0251" x="245.482483" y="232.96779" style="fill: #b22222; stroke: #b22222"/>
     <use xlink:href="#meb9faf0251" x="261.240459" y="230.756848" style="fill: #b22222; stroke: #b22222"/>
     <use xlink:href="#meb9faf0251" x="216.555131" y="209.192361" style="fill: #b22222; stroke: #b22222"/>
     <use xlink:href="#meb9faf0251" x="211.832031" y="212.920058" style="fill: #b22222; stroke: #b22222"/>
     <use xlink:href="#meb9faf0251" x="205.019564" y="204.762682" style="fill: #b22222; stroke: #b22222"/>
     <use xlink:href="#meb9faf0251" x="220.736222" y="200.482985" style="fill: #b22222; stroke: #b22222"/>
     <use xlink:href="#meb9faf0251" x="210.160994" y="200.62892" style="fill: #b22222; stroke: #b22222"/>
     <use xlink:href="#meb9faf0251" x="193.393676" y="193.148037" style="fill: #b22222; stroke: #b22222"/>
     <use xlink:href="#meb9faf0251" x="221.575012" y="208.932674" style="fill: #b22222; stroke: #b22222"/>
    </g>
   </g>
   <g id="patch_4">
    <path d="M 56.450156 450.72 
L 56.450156 7.2 
" style="fill: none; stroke: #ffffff; stroke-width: 1.25; stroke-linejoin: miter; stroke-linecap: square"/>
   </g>
   <g id="patch_5">
    <path d="M 499.970156 450.72 
L 499.970156 7.2 
" style="fill: none; stroke: #ffffff; stroke-width: 1.25; stroke-linejoin: miter; stroke-linecap: square"/>
   </g>
   <g id="patch_6">
    <path d="M 56.450156 450.72 
L 499.970156 450.72 
" style="fill: none; stroke: #ffffff; stroke-width: 1.25; stroke-linejoin: miter; stroke-linecap: square"/>
   </g>
   <g id="patch_7">
    <path d="M 56.450156 7.2 
L 499.970156 7.2 
" style="fill: none; stroke: #ffffff; stroke-width: 1.25; stroke-linejoin: miter; stroke-linecap: square"/>
   </g>
   <g id="text_13">
    <!-- t = 1800 -->
    <g style="fill: #262626" transform="translate(65.320556 24.659775) scale(0.12 -0.12)">
     <defs>
      <path id="ArialMT-74" d="M 1650 503 
L 1731 6 
Q 1494 -44 1306 -44 
Q 1000 -44 831 53 
Q 663 150 594 308 
Q 525 466 525 972 
L 525 2881 
L 113 2881 
L 113 3319 
L 525 3319 
L 525 4141 
L 1084 4478 
L 1084 3319 
L 1650 3319 
L 1650 2881 
L 1084 2881 
L 1084 941 
Q 1084 700 1114 631 
Q 1144 563 1211 522 
Q 1278 481 1403 481 
Q 1497 481 1650 503 
z
" transform="scale(0.015625)"/>
      <path id="ArialMT-20" transform="scale(0.015625)"/>
      <path id="ArialMT-3d" d="M 3381 2694 
L 356 2694 
L 356 3219 
L 3381 3219 
L 3381 2694 
z
M 3381 1303 
L 356 1303 
L 356 1828 
L 3381 1828 
L 3381 1303 
z
" transform="scale(0.015625)"/>
      <path id="ArialMT-31" d="M 2384 0 
L 1822 0 
L 1822 3584 
Q 1619 3391 1289 3197 
Q 959 3003 697 2906 
L 697 3450 
Q 1169 3672 1522 3987 
Q 1875 4303 2022 4600 
L 2384 4600 
L 2384 0 
z
" transform="scale(0.015625)"/>
      <path id="ArialMT-38" d="M 1131 2484 
Q 781 2613 612 2850 
Q 444 3088 444 3419 
Q 444 3919 803 4259 
Q 1163 4600 1759 4600 
Q 2359 4600 2725 4251 
Q 3091 3903 3091 3403 
Q 3091 3084 2923 2848 
Q 2756 2613 2416 2484 
Q 2838 2347 3058 2040 
Q 3278 1734 3278 1309 
Q 3278 722 2862 322 
Q 2447 -78 1769 -78 
Q 1091 -78 675 323 
Q 259 725 259 1325 
Q 259 1772 486 2073 
Q 713 2375 1131 2484 
z
M 1019 3438 
Q 1019 3113 1228 2906 
Q 1438 2700 1772 2700 
Q 2097 2700 2305 2904 
Q 2513 3109 2513 3406 
Q 2513 3716 2298 3927 
Q 2084 4138 1766 4138 
Q 1444 4138 1231 3931 
Q 1019 3725 1019 3438 
z
M 838 1322 
Q 838 1081 952 856 
Q 1066 631 1291 507 
Q 1516 384 1775 384 
Q 2178 384 2440 643 
Q 2703 903 2703 1303 
Q 2703 1709 2433 1975 
Q 2163 2241 1756 2241 
Q 1359 2241 1098 1978 
Q 838 1716 838 1322 
z
" transform="scale(0.015625)"/>
     </defs>
     <use xlink:href="#ArialMT-74"/>
     <use xlink:href="#ArialMT-20" x="27.783203"/>
     <use xlink:href="#ArialMT-3d" x="55.566406"/>
     <use xlink:href="#ArialMT-20" x="113.964844"/>
     <use xlink:href="#ArialMT-31" x="141.748047"/>
     <use xlink:href="#ArialMT-38" x="197.363281"/>
     <use xlink:href="#ArialMT-30" x="252.978516"/>
     <use xlink:href="#ArialMT-30" x="308.59375"/>
    </g>
   </g>
   <g id="legend_1">
    <g id="patch_8">
     <path d="M 328.111406 94.59 
L 483.170156 94.59 
Q 487.970156 94.59 487.970156 89.79 
L 487.970156 24 
Q 487.970156 19.2 483.170156 19.2 
L 328.111406 19.2 
Q 323.311406 19.2 323.311406 24 
L 323.311406 89.79 
Q 323.311406 94.59 328.111406 94.59 
z
" style="fill: #eaeaf2; opacity: 0.8; stroke: #cccccc; stroke-linejoin: miter"/>
    </g>
    <g id="PathCollection_3">
     <g>
      <use xlink:href="#m3e19f6bf78" x="356.911406" y="39.97125" style="fill: #4169e1; stroke: #4169e1"/>
     </g>
    </g>
    <g id="text_14">
     <!-- Sheep -->
     <g style="fill: #262626" transform="translate(400.111406 46.27125) scale(0.24 -0.24)">
      <defs>
       <path id="ArialMT-53" d="M 288 1472 
L 859 1522 
Q 900 1178 1048 958 
Q 1197 738 1509 602 
Q 1822 466 2213 466 
Q 2559 466 2825 569 
Q 3091 672 3220 851 
Q 3350 1031 3350 1244 
Q 3350 1459 3225 1620 
Q 3100 1781 2813 1891 
Q 2628 1963 1997 2114 
Q 1366 2266 1113 2400 
Q 784 2572 623 2826 
Q 463 3081 463 3397 
Q 463 3744 659 4045 
Q 856 4347 1234 4503 
Q 1613 4659 2075 4659 
Q 2584 4659 2973 4495 
Q 3363 4331 3572 4012 
Q 3781 3694 3797 3291 
L 3216 3247 
Q 3169 3681 2898 3903 
Q 2628 4125 2100 4125 
Q 1550 4125 1298 3923 
Q 1047 3722 1047 3438 
Q 1047 3191 1225 3031 
Q 1400 2872 2139 2705 
Q 2878 2538 3153 2413 
Q 3553 2228 3743 1945 
Q 3934 1663 3934 1294 
Q 3934 928 3725 604 
Q 3516 281 3123 101 
Q 2731 -78 2241 -78 
Q 1619 -78 1198 103 
Q 778 284 539 648 
Q 300 1013 288 1472 
z
" transform="scale(0.015625)"/>
       <path id="ArialMT-68" d="M 422 0 
L 422 4581 
L 984 4581 
L 984 2938 
Q 1378 3394 1978 3394 
Q 2347 3394 2619 3248 
Q 2891 3103 3008 2847 
Q 3125 2591 3125 2103 
L 3125 0 
L 2563 0 
L 2563 2103 
Q 2563 2525 2380 2717 
Q 2197 2909 1863 2909 
Q 1613 2909 1392 2779 
Q 1172 2650 1078 2428 
Q 984 2206 984 1816 
L 984 0 
L 422 0 
z
" transform="scale(0.015625)"/>
       <path id="ArialMT-65" d="M 2694 1069 
L 3275 997 
Q 3138 488 2766 206 
Q 2394 -75 1816 -75 
Q 1088 -75 661 373 
Q 234 822 234 1631 
Q 234 2469 665 2931 
Q 1097 3394 1784 3394 
Q 2450 3394 2872 2941 
Q 3294 2488 3294 1666 
Q 3294 1616 3291 1516 
L 816 1516 
Q 847 969 1125 678 
Q 1403 388 1819 388 
Q 2128 388 2347 550 
Q 2566 713 2694 1069 
z
M 847 1978 
L 2700 1978 
Q 2663 2397 2488 2606 
Q 2219 2931 1791 2931 
Q 1403 2931 1139 2672 
Q 875 2413 847 1978 
z
" transform="scale(0.015625)"/>
       <path id="ArialMT-70" d="M 422 -1272 
L 422 3319 
L 934 3319 
L 934 2888 
Q 1116 3141 1344 3267 
Q 1572 3394 1897 3394 
Q 2322 3394 2647 3175 
Q 2972 2956 3137 2557 
Q 3303 2159 3303 1684 
Q 3303 1175 3120 767 
Q 2938 359 2589 142 
Q 2241 -75 1856 -75 
Q 1575 -75 1351 44 
Q 1128 163 984 344 
L 984 -1272 
L 422 -1272 
z
M 931 1641 
Q 931 1000 1190 694 
Q 1450 388 1819 388 
Q 2194 388 2461 705 
Q 2728 1022 2728 1688 
Q 2728 2322 2467 2637 
Q 2206 2953 1844 2953 
Q 1484 2953 1207 2617 
Q 931 2281 931 1641 
z
" transform="scale(0.015625)"/>
      </defs>
      <use xlink:href="#ArialMT-53"/>
      <use xlink:href="#ArialMT-68" x="66.699219"/>
      <use xlink:href="#ArialMT-65" x="122.314453"/>
      <use xlink:href="#ArialMT-65" x="177.929688"/>
      <use xlink:href="#ArialMT-70" x="233.544922"/>
     </g>
    </g>
    <g id="PathCollection_4">
     <g>
      <use xlink:href="#meb9faf0251" x="356.911406" y="73.92" style="fill: #b22222; stroke: #b22222"/>
     </g>
    </g>
    <g id="text_15">
     <!-- Wolves -->
     <g style="fill: #262626" transform="translate(400.111406 80.22) scale(0.24 -0.24)">
      <defs>
       <path id="ArialMT-57" d="M 1294 0 
L 78 4581 
L 700 4581 
L 1397 1578 
Q 1509 1106 1591 641 
Q 1766 1375 1797 1488 
L 2669 4581 
L 3400 4581 
L 4056 2263 
Q 4303 1400 4413 641 
Q 4500 1075 4641 1638 
L 5359 4581 
L 5969 4581 
L 4713 0 
L 4128 0 
L 3163 3491 
Q 3041 3928 3019 4028 
Q 2947 3713 2884 3491 
L 1913 0 
L 1294 0 
z
" transform="scale(0.015625)"/>
       <path id="ArialMT-6f" d="M 213 1659 
Q 213 2581 725 3025 
Q 1153 3394 1769 3394 
Q 2453 3394 2887 2945 
Q 3322 2497 3322 1706 
Q 3322 1066 3130 698 
Q 2938 331 2570 128 
Q 2203 -75 1769 -75 
Q 1072 -75 642 372 
Q 213 819 213 1659 
z
M 791 1659 
Q 791 1022 1069 705 
Q 1347 388 1769 388 
Q 2188 388 2466 706 
Q 2744 1025 2744 1678 
Q 2744 2294 2464 2611 
Q 2184 2928 1769 2928 
Q 1347 2928 1069 2612 
Q 791 2297 791 1659 
z
" transform="scale(0.015625)"/>
       <path id="ArialMT-6c" d="M 409 0 
L 409 4581 
L 972 4581 
L 972 0 
L 409 0 
z
" transform="scale(0.015625)"/>
       <path id="ArialMT-76" d="M 1344 0 
L 81 3319 
L 675 3319 
L 1388 1331 
Q 1503 1009 1600 663 
Q 1675 925 1809 1294 
L 2547 3319 
L 3125 3319 
L 1869 0 
L 1344 0 
z
" transform="scale(0.015625)"/>
       <path id="ArialMT-73" d="M 197 991 
L 753 1078 
Q 800 744 1014 566 
Q 1228 388 1613 388 
Q 2000 388 2187 545 
Q 2375 703 2375 916 
Q 2375 1106 2209 1216 
Q 2094 1291 1634 1406 
Q 1016 1563 777 1677 
Q 538 1791 414 1992 
Q 291 2194 291 2438 
Q 291 2659 392 2848 
Q 494 3038 669 3163 
Q 800 3259 1026 3326 
Q 1253 3394 1513 3394 
Q 1903 3394 2198 3281 
Q 2494 3169 2634 2976 
Q 2775 2784 2828 2463 
L 2278 2388 
Q 2241 2644 2061 2787 
Q 1881 2931 1553 2931 
Q 1166 2931 1000 2803 
Q 834 2675 834 2503 
Q 834 2394 903 2306 
Q 972 2216 1119 2156 
Q 1203 2125 1616 2013 
Q 2213 1853 2448 1751 
Q 2684 1650 2818 1456 
Q 2953 1263 2953 975 
Q 2953 694 2789 445 
Q 2625 197 2315 61 
Q 2006 -75 1616 -75 
Q 969 -75 630 194 
Q 291 463 197 991 
z
" transform="scale(0.015625)"/>
      </defs>
      <use xlink:href="#ArialMT-57"/>
      <use xlink:href="#ArialMT-6f" x="92.634766"/>
      <use xlink:href="#ArialMT-6c" x="148.25"/>
      <use xlink:href="#ArialMT-76" x="170.466797"/>
      <use xlink:href="#ArialMT-65" x="220.466797"/>
      <use xlink:href="#ArialMT-73" x="276.082031"/>
     </g>
    </g>
   </g>
  </g>
 </g>
 <defs>
  <clipPath id="pec4bea3bd9">
   <rect x="56.450156" y="7.2" width="443.52" height="443.52"/>
  </clipPath>
 </defs>
</svg>
