<?xml version="1.0" encoding="utf-8" standalone="no"?>
<!DOCTYPE svg PUBLIC "-//W3C//DTD SVG 1.1//EN"
  "http://www.w3.org/Graphics/SVG/1.1/DTD/svg11.dtd">
<svg xmlns:xlink="http://www.w3.org/1999/xlink" width="507.170156pt" height="492.454219pt" viewBox="0 0 507.170156 492.454219" xmlns="http://www.w3.org/2000/svg" version="1.1">
 <metadata>
  <rdf:RDF xmlns:dc="http://purl.org/dc/elements/1.1/" xmlns:cc="http://creativecommons.org/ns#" xmlns:rdf="http://www.w3.org/1999/02/22-rdf-syntax-ns#">
   <cc:Work>
    <dc:type rdf:resource="http://purl.org/dc/dcmitype/StillImage"/>
    <dc:date>2026-05-12T10:43:20.549965</dc:date>
    <dc:format>image/svg+xml</dc:format>
    <dc:creator>
     <cc:Agent>
      <dc:title>Matplotlib v3.7.1, https://matplotlib.org/</dc:title>
     </cc:Agent>
    </dc:creator>
   </cc:Work>
  </rdf:RDF>
 </metadata>
 <defs>
  <style type="text/css">*{stroke-linejoin: round; stroke-linecap: butt}</style>
 </defs>
 <g id="figure_1">
  <g id="patch_1">
   <path d="M 0 492.454219 
L 507.170156 492.454219 
L 507.170156 0 
L 0 0 
z
" style="fill: #ffffff"/>
  </g>
  <g id="axes_1">
   <g id="patch_2">
    <path d="M 56.450156 450.72 
L 499.970156 450.72 
L 499.970156 7.2 
L 56.450156 7.2 
z
" style="fill: #eaeaf2"/>
   </g>
   <g id="matplotlib.axis_1">
    <g id="xtick_1">
     <g id="line2d_1">
      <path d="M 100.802156 450.72 
L 100.802156 7.2 
" clip-path="url(#pa53ae8f477)" style="fill: none; stroke: #ffffff; stroke-linecap: round"/>
     </g>
     <g id="text_1">
      <!-- −400 -->
      <g style="fill: #262626" transform="translate(88.414266 468.093594) scale(0.11 -0.11)">
       <defs>
        <path id="ArialMT-2212" d="M 3381 1997 
L 356 1997 
L 356 2522 
L 3381 2522 
L 3381 1997 
z
" transform="scale(0.015625)"/>
        <path id="ArialMT-34" d="M 2069 0 
L 2069 1097 
L 81 1097 
L 81 1613 
L 2172 4581 
L 2631 4581 
L 2631 1613 
L 3250 1613 
L 3250 1097 
L 2631 1097 
L 2631 0 
L 2069 0 
z
M 2069 1613 
L 2069 3678 
L 634 1613 
L 2069 1613 
z
" transform="scale(0.015625)"/>
        <path id="ArialMT-30" d="M 266 2259 
Q 266 3072 433 3567 
Q 600 4063 929 4331 
Q 1259 4600 1759 4600 
Q 2128 4600 2406 4451 
Q 2684 4303 2865 4023 
Q 3047 3744 3150 3342 
Q 3253 2941 3253 2259 
Q 3253 1453 3087 958 
Q 2922 463 2592 192 
Q 2263 -78 1759 -78 
Q 1097 -78 719 397 
Q 266 969 266 2259 
z
M 844 2259 
Q 844 1131 1108 757 
Q 1372 384 1759 384 
Q 2147 384 2411 759 
Q 2675 1134 2675 2259 
Q 2675 3391 2411 3762 
Q 2147 4134 1753 4134 
Q 1366 4134 1134 3806 
Q 844 3388 844 2259 
z
" transform="scale(0.015625)"/>
       </defs>
       <use xlink:href="#ArialMT-2212"/>
       <use xlink:href="#ArialMT-34" x="58.398438"/>
       <use xlink:href="#ArialMT-30" x="114.013672"/>
       <use xlink:href="#ArialMT-30" x="169.628906"/>
      </g>
     </g>
    </g>
    <g id="xtick_2">
     <g id="line2d_2">
      <path d="M 189.506156 450.72 
L 189.506156 7.2 
" clip-path="url(#pa53ae8f477)" style="fill: none; stroke: #ffffff; stroke-linecap: round"/>
     </g>
     <g id="text_2">
      <!-- −200 -->
      <g style="fill: #262626" transform="translate(177.118266 468.093594) scale(0.11 -0.11)">
       <defs>
        <path id="ArialMT-32" d="M 3222 541 
L 3222 0 
L 194 0 
Q 188 203 259 391 
Q 375 700 629 1000 
Q 884 1300 1366 1694 
Q 2113 2306 2375 2664 
Q 2638 3022 2638 3341 
Q 2638 3675 2398 3904 
Q 2159 4134 1775 4134 
Q 1369 4134 1125 3890 
Q 881 3647 878 3216 
L 300 3275 
Q 359 3922 746 4261 
Q 1134 4600 1788 4600 
Q 2447 4600 2831 4234 
Q 3216 3869 3216 3328 
Q 3216 3053 3103 2787 
Q 2991 2522 2730 2228 
Q 2469 1934 1863 1422 
Q 1356 997 1212 845 
Q 1069 694 975 541 
L 3222 541 
z
" transform="scale(0.015625)"/>
       </defs>
       <use xlink:href="#ArialMT-2212"/>
       <use xlink:href="#ArialMT-32" x="58.398438"/>
       <use xlink:href="#ArialMT-30" x="114.013672"/>
       <use xlink:href="#ArialMT-30" x="169.628906"/>
      </g>
     </g>
    </g>
    <g id="xtick_3">
     <g id="line2d_3">
      <path d="M 278.210156 450.72 
L 278.210156 7.2 
" clip-path="url(#pa53ae8f477)" style="fill: none; stroke: #ffffff; stroke-linecap: round"/>
     </g>
     <g id="text_3">
      <!-- 0 -->
      <g style="fill: #262626" transform="translate(275.151641 468.093594) scale(0.11 -0.11)">
       <use xlink:href="#ArialMT-30"/>
      </g>
     </g>
    </g>
    <g id="xtick_4">
     <g id="line2d_4">
      <path d="M 366.914156 450.72 
L 366.914156 7.2 
" clip-path="url(#pa53ae8f477)" style="fill: none; stroke: #ffffff; stroke-linecap: round"/>
     </g>
     <g id="text_4">
      <!-- 200 -->
      <g style="fill: #262626" transform="translate(357.738609 468.093594) scale(0.11 -0.11)">
       <use xlink:href="#ArialMT-32"/>
       <use xlink:href="#ArialMT-30" x="55.615234"/>
       <use xlink:href="#ArialMT-30" x="111.230469"/>
      </g>
     </g>
    </g>
    <g id="xtick_5">
     <g id="line2d_5">
      <path d="M 455.618156 450.72 
L 455.618156 7.2 
" clip-path="url(#pa53ae8f477)" style="fill: none; stroke: #ffffff; stroke-linecap: round"/>
     </g>
     <g id="text_5">
      <!-- 400 -->
      <g style="fill: #262626" transform="translate(446.442609 468.093594) scale(0.11 -0.11)">
       <use xlink:href="#ArialMT-34"/>
       <use xlink:href="#ArialMT-30" x="55.615234"/>
       <use xlink:href="#ArialMT-30" x="111.230469"/>
      </g>
     </g>
    </g>
    <g id="text_6">
     <!-- x -->
     <g style="fill: #262626" transform="translate(275.210156 482.869219) scale(0.12 -0.12)">
      <defs>
       <path id="ArialMT-78" d="M 47 0 
L 1259 1725 
L 138 3319 
L 841 3319 
L 1350 2541 
Q 1494 2319 1581 2169 
Q 1719 2375 1834 2534 
L 2394 3319 
L 3066 3319 
L 1919 1756 
L 3153 0 
L 2463 0 
L 1781 1031 
L 1600 1309 
L 728 0 
L 47 0 
z
" transform="scale(0.015625)"/>
      </defs>
      <use xlink:href="#ArialMT-78"/>
     </g>
    </g>
   </g>
   <g id="matplotlib.axis_2">
    <g id="ytick_1">
     <g id="line2d_6">
      <path d="M 56.450156 406.368 
L 499.970156 406.368 
" clip-path="url(#pa53ae8f477)" style="fill: none; stroke: #ffffff; stroke-linecap: round"/>
     </g>
     <g id="text_7">
      <!-- −400 -->
      <g style="fill: #262626" transform="translate(22.174375 410.304797) scale(0.11 -0.11)">
       <use xlink:href="#ArialMT-2212"/>
       <use xlink:href="#ArialMT-34" x="58.398438"/>
       <use xlink:href="#ArialMT-30" x="114.013672"/>
       <use xlink:href="#ArialMT-30" x="169.628906"/>
      </g>
     </g>
    </g>
    <g id="ytick_2">
     <g id="line2d_7">
      <path d="M 56.450156 317.664 
L 499.970156 317.664 
" clip-path="url(#pa53ae8f477)" style="fill: none; stroke: #ffffff; stroke-linecap: round"/>
     </g>
     <g id="text_8">
      <!-- −200 -->
      <g style="fill: #262626" transform="translate(22.174375 321.600797) scale(0.11 -0.11)">
       <use xlink:href="#ArialMT-2212"/>
       <use xlink:href="#ArialMT-32" x="58.398438"/>
       <use xlink:href="#ArialMT-30" x="114.013672"/>
       <use xlink:href="#ArialMT-30" x="169.628906"/>
      </g>
     </g>
    </g>
    <g id="ytick_3">
     <g id="line2d_8">
      <path d="M 56.450156 228.96 
L 499.970156 228.96 
" clip-path="url(#pa53ae8f477)" style="fill: none; stroke: #ffffff; stroke-linecap: round"/>
     </g>
     <g id="text_9">
      <!-- 0 -->
      <g style="fill: #262626" transform="translate(40.833125 232.896797) scale(0.11 -0.11)">
       <use xlink:href="#ArialMT-30"/>
      </g>
     </g>
    </g>
    <g id="ytick_4">
     <g id="line2d_9">
      <path d="M 56.450156 140.256 
L 499.970156 140.256 
" clip-path="url(#pa53ae8f477)" style="fill: none; stroke: #ffffff; stroke-linecap: round"/>
     </g>
     <g id="text_10">
      <!-- 200 -->
      <g style="fill: #262626" transform="translate(28.599063 144.192797) scale(0.11 -0.11)">
       <use xlink:href="#ArialMT-32"/>
       <use xlink:href="#ArialMT-30" x="55.615234"/>
       <use xlink:href="#ArialMT-30" x="111.230469"/>
      </g>
     </g>
    </g>
    <g id="ytick_5">
     <g id="line2d_10">
      <path d="M 56.450156 51.552 
L 499.970156 51.552 
" clip-path="url(#pa53ae8f477)" style="fill: none; stroke: #ffffff; stroke-linecap: round"/>
     </g>
     <g id="text_11">
      <!-- 400 -->
      <g style="fill: #262626" transform="translate(28.599063 55.488797) scale(0.11 -0.11)">
       <use xlink:href="#ArialMT-34"/>
       <use xlink:href="#ArialMT-30" x="55.615234"/>
       <use xlink:href="#ArialMT-30" x="111.230469"/>
      </g>
     </g>
    </g>
    <g id="text_12">
     <!-- y -->
     <g style="fill: #262626" transform="translate(15.64875 231.96) rotate(-90) scale(0.12 -0.12)">
      <defs>
       <path id="ArialMT-79" d="M 397 -1278 
L 334 -750 
Q 519 -800 656 -800 
Q 844 -800 956 -737 
Q 1069 -675 1141 -563 
Q 1194 -478 1313 -144 
Q 1328 -97 1363 -6 
L 103 3319 
L 709 3319 
L 1400 1397 
Q 1534 1031 1641 628 
Q 1738 1016 1872 1384 
L 2581 3319 
L 3144 3319 
L 1881 -56 
Q 1678 -603 1566 -809 
Q 1416 -1088 1222 -1217 
Q 1028 -1347 759 -1347 
Q 597 -1347 397 -1278 
z
" transform="scale(0.015625)"/>
      </defs>
      <use xlink:href="#ArialMT-79"/>
     </g>
    </g>
   </g>
   <g id="patch_3">
    <path d="M 278.210156 317.664 
C 301.734732 317.664 324.298969 308.317587 340.933356 291.6832 
C 357.567743 275.048813 366.914156 252.484576 366.914156 228.96 
C 366.914156 205.435424 357.567743 182.871187 340.933356 166.2368 
C 324.298969 149.602413 301.734732 140.256 278.210156 140.256 
C 254.68558 140.256 232.121343 149.602413 215.486956 166.2368 
C 198.852569 182.871187 189.506156 205.435424 189.506156 228.96 
C 189.506156 252.484576 198.852569 275.048813 215.486956 291.6832 
C 232.121343 308.317587 254.68558 317.664 278.210156 317.664 
z
" clip-path="url(#pa53ae8f477)" style="fill: #228b22; opacity: 0.12; stroke: #228b22; stroke-width: 1.5; stroke-linejoin: miter"/>
   </g>
   <g id="PathCollection_1">
    <defs>
     <path id="mcc711d4293" d="M 0 2.236068 
C 0.593012 2.236068 1.161816 2.000462 1.581139 1.581139 
C 2.000462 1.161816 2.236068 0.593012 2.236068 0 
C 2.236068 -0.593012 2.000462 -1.161816 1.581139 -1.581139 
C 1.161816 -2.000462 0.593012 -2.236068 0 -2.236068 
C -0.593012 -2.236068 -1.161816 -2.000462 -1.581139 -1.581139 
C -2.000462 -1.161816 -2.236068 -0.593012 -2.236068 0 
C -2.236068 0.593012 -2.000462 1.161816 -1.581139 1.581139 
C -1.161816 2.000462 -0.593012 2.236068 0 2.236068 
z
" style="stroke: #4169e1"/>
    </defs>
    <g clip-path="url(#pa53ae8f477)">
     <use xlink:href="#mcc711d4293" x="263.270391" y="199.790787" style="fill: #4169e1; stroke: #4169e1"/>
     <use xlink:href="#mcc711d4293" x="380.710182" y="132.650582" style="fill: #4169e1; stroke: #4169e1"/>
     <use xlink:href="#mcc711d4293" x="319.440438" y="278.677512" style="fill: #4169e1; stroke: #4169e1"/>
     <use xlink:href="#mcc711d4293" x="261.656643" y="272.286864" style="fill: #4169e1; stroke: #4169e1"/>
     <use xlink:href="#mcc711d4293" x="239.537975" y="197.950724" style="fill: #4169e1; stroke: #4169e1"/>
     <use xlink:href="#mcc711d4293" x="337.393629" y="223.712642" style="fill: #4169e1; stroke: #4169e1"/>
     <use xlink:href="#mcc711d4293" x="303.514425" y="245.587165" style="fill: #4169e1; stroke: #4169e1"/>
     <use xlink:href="#mcc711d4293" x="328.986777" y="277.761368" style="fill: #4169e1; stroke: #4169e1"/>
     <use xlink:href="#mcc711d4293" x="319.917806" y="197.988652" style="fill: #4169e1; stroke: #4169e1"/>
     <use xlink:href="#mcc711d4293" x="432.433313" y="318.108346" style="fill: #4169e1; stroke: #4169e1"/>
     <use xlink:href="#mcc711d4293" x="440.080122" y="251.883763" style="fill: #4169e1; stroke: #4169e1"/>
     <use xlink:href="#mcc711d4293" x="236.123826" y="197.01295" style="fill: #4169e1; stroke: #4169e1"/>
     <use xlink:href="#mcc711d4293" x="277.872219" y="324.794381" style="fill: #4169e1; stroke: #4169e1"/>
     <use xlink:href="#mcc711d4293" x="384.073966" y="173.968623" style="fill: #4169e1; stroke: #4169e1"/>
     <use xlink:href="#mcc711d4293" x="413.791086" y="283.143657" style="fill: #4169e1; stroke: #4169e1"/>
     <use xlink:href="#mcc711d4293" x="283.394457" y="204.315468" style="fill: #4169e1; stroke: #4169e1"/>
     <use xlink:href="#mcc711d4293" x="401.381405" y="241.653981" style="fill: #4169e1; stroke: #4169e1"/>
     <use xlink:href="#mcc711d4293" x="344.661006" y="138.452285" style="fill: #4169e1; stroke: #4169e1"/>
     <use xlink:href="#mcc711d4293" x="329.33148" y="149.637745" style="fill: #4169e1; stroke: #4169e1"/>
     <use xlink:href="#mcc711d4293" x="420.993914" y="179.364575" style="fill: #4169e1; stroke: #4169e1"/>
     <use xlink:href="#mcc711d4293" x="146.755338" y="153.349978" style="fill: #4169e1; stroke: #4169e1"/>
     <use xlink:href="#mcc711d4293" x="432.713207" y="118.734472" style="fill: #4169e1; stroke: #4169e1"/>
     <use xlink:href="#mcc711d4293" x="187.149388" y="217.88821" style="fill: #4169e1; stroke: #4169e1"/>
     <use xlink:href="#mcc711d4293" x="334.529285" y="199.10353" style="fill: #4169e1; stroke: #4169e1"/>
     <use xlink:href="#mcc711d4293" x="237.108969" y="260.135397" style="fill: #4169e1; stroke: #4169e1"/>
     <use xlink:href="#mcc711d4293" x="240.474198" y="162.629079" style="fill: #4169e1; stroke: #4169e1"/>
     <use xlink:href="#mcc711d4293" x="271.188123" y="205.853881" style="fill: #4169e1; stroke: #4169e1"/>
     <use xlink:href="#mcc711d4293" x="177.268839" y="181.25409" style="fill: #4169e1; stroke: #4169e1"/>
     <use xlink:href="#mcc711d4293" x="233.457451" y="261.929292" style="fill: #4169e1; stroke: #4169e1"/>
     <use xlink:href="#mcc711d4293" x="409.458631" y="118.284286" style="fill: #4169e1; stroke: #4169e1"/>
     <use xlink:href="#mcc711d4293" x="420.501965" y="263.273269" style="fill: #4169e1; stroke: #4169e1"/>
     <use xlink:href="#mcc711d4293" x="312.572203" y="293.997021" style="fill: #4169e1; stroke: #4169e1"/>
     <use xlink:href="#mcc711d4293" x="422.013774" y="254.200011" style="fill: #4169e1; stroke: #4169e1"/>
     <use xlink:href="#mcc711d4293" x="340.995239" y="94.994925" style="fill: #4169e1; stroke: #4169e1"/>
     <use xlink:href="#mcc711d4293" x="439.305017" y="167.1489" style="fill: #4169e1; stroke: #4169e1"/>
     <use xlink:href="#mcc711d4293" x="291.188684" y="297.689459" style="fill: #4169e1; stroke: #4169e1"/>
     <use xlink:href="#mcc711d4293" x="315.280445" y="216.756368" style="fill: #4169e1; stroke: #4169e1"/>
     <use xlink:href="#mcc711d4293" x="214.45105" y="237.411074" style="fill: #4169e1; stroke: #4169e1"/>
     <use xlink:href="#mcc711d4293" x="383.738227" y="51.335708" style="fill: #4169e1; stroke: #4169e1"/>
     <use xlink:href="#mcc711d4293" x="330.580829" y="242.436442" style="fill: #4169e1; stroke: #4169e1"/>
     <use xlink:href="#mcc711d4293" x="174.920543" y="246.091552" style="fill: #4169e1; stroke: #4169e1"/>
     <use xlink:href="#mcc711d4293" x="334.024826" y="263.005645" style="fill: #4169e1; stroke: #4169e1"/>
     <use xlink:href="#mcc711d4293" x="399.65061" y="187.596278" style="fill: #4169e1; stroke: #4169e1"/>
     <use xlink:href="#mcc711d4293" x="315.867255" y="215.036351" style="fill: #4169e1; stroke: #4169e1"/>
     <use xlink:href="#mcc711d4293" x="306.473038" y="91.033915" style="fill: #4169e1; stroke: #4169e1"/>
     <use xlink:href="#mcc711d4293" x="318.56335" y="268.214873" style="fill: #4169e1; stroke: #4169e1"/>
     <use xlink:href="#mcc711d4293" x="304.660034" y="133.796875" style="fill: #4169e1; stroke: #4169e1"/>
     <use xlink:href="#mcc711d4293" x="300.98105" y="140.107756" style="fill: #4169e1; stroke: #4169e1"/>
     <use xlink:href="#mcc711d4293" x="477.04305" y="146.989733" style="fill: #4169e1; stroke: #4169e1"/>
     <use xlink:href="#mcc711d4293" x="267.126402" y="270.594618" style="fill: #4169e1; stroke: #4169e1"/>
     <use xlink:href="#mcc711d4293" x="441.688531" y="181.768466" style="fill: #4169e1; stroke: #4169e1"/>
     <use xlink:href="#mcc711d4293" x="234.956886" y="264.256121" style="fill: #4169e1; stroke: #4169e1"/>
     <use xlink:href="#mcc711d4293" x="229.676839" y="110.089534" style="fill: #4169e1; stroke: #4169e1"/>
     <use xlink:href="#mcc711d4293" x="343.592629" y="82.650443" style="fill: #4169e1; stroke: #4169e1"/>
     <use xlink:href="#mcc711d4293" x="226.315115" y="285.821361" style="fill: #4169e1; stroke: #4169e1"/>
     <use xlink:href="#mcc711d4293" x="262.853188" y="344.789238" style="fill: #4169e1; stroke: #4169e1"/>
     <use xlink:href="#mcc711d4293" x="401.344643" y="180.39748" style="fill: #4169e1; stroke: #4169e1"/>
     <use xlink:href="#mcc711d4293" x="330.633749" y="181.639683" style="fill: #4169e1; stroke: #4169e1"/>
     <use xlink:href="#mcc711d4293" x="274.451289" y="206.678504" style="fill: #4169e1; stroke: #4169e1"/>
     <use xlink:href="#mcc711d4293" x="336.675094" y="71.60857" style="fill: #4169e1; stroke: #4169e1"/>
     <use xlink:href="#mcc711d4293" x="403.739378" y="147.506296" style="fill: #4169e1; stroke: #4169e1"/>
     <use xlink:href="#mcc711d4293" x="209.407418" y="250.634279" style="fill: #4169e1; stroke: #4169e1"/>
     <use xlink:href="#mcc711d4293" x="356.277919" y="225.515631" style="fill: #4169e1; stroke: #4169e1"/>
     <use xlink:href="#mcc711d4293" x="277.481181" y="129.235595" style="fill: #4169e1; stroke: #4169e1"/>
     <use xlink:href="#mcc711d4293" x="233.561862" y="282.255872" style="fill: #4169e1; stroke: #4169e1"/>
     <use xlink:href="#mcc711d4293" x="328.990966" y="194.672106" style="fill: #4169e1; stroke: #4169e1"/>
     <use xlink:href="#mcc711d4293" x="276.603489" y="347.577846" style="fill: #4169e1; stroke: #4169e1"/>
     <use xlink:href="#mcc711d4293" x="256.472176" y="100.668497" style="fill: #4169e1; stroke: #4169e1"/>
     <use xlink:href="#mcc711d4293" x="328.345434" y="138.714779" style="fill: #4169e1; stroke: #4169e1"/>
     <use xlink:href="#mcc711d4293" x="222.493768" y="309.376194" style="fill: #4169e1; stroke: #4169e1"/>
     <use xlink:href="#mcc711d4293" x="278.529924" y="182.697533" style="fill: #4169e1; stroke: #4169e1"/>
     <use xlink:href="#mcc711d4293" x="230.2729" y="126.438744" style="fill: #4169e1; stroke: #4169e1"/>
     <use xlink:href="#mcc711d4293" x="281.33452" y="221.63885" style="fill: #4169e1; stroke: #4169e1"/>
     <use xlink:href="#mcc711d4293" x="248.856757" y="210.80633" style="fill: #4169e1; stroke: #4169e1"/>
     <use xlink:href="#mcc711d4293" x="288.872394" y="215.873191" style="fill: #4169e1; stroke: #4169e1"/>
     <use xlink:href="#mcc711d4293" x="159.738829" y="261.733486" style="fill: #4169e1; stroke: #4169e1"/>
     <use xlink:href="#mcc711d4293" x="332.535472" y="321.629435" style="fill: #4169e1; stroke: #4169e1"/>
     <use xlink:href="#mcc711d4293" x="255.924576" y="327.825194" style="fill: #4169e1; stroke: #4169e1"/>
     <use xlink:href="#mcc711d4293" x="350.806799" y="185.287482" style="fill: #4169e1; stroke: #4169e1"/>
     <use xlink:href="#mcc711d4293" x="317.907328" y="313.342577" style="fill: #4169e1; stroke: #4169e1"/>
     <use xlink:href="#mcc711d4293" x="311.793484" y="320.307402" style="fill: #4169e1; stroke: #4169e1"/>
     <use xlink:href="#mcc711d4293" x="335.657616" y="58.994793" style="fill: #4169e1; stroke: #4169e1"/>
     <use xlink:href="#mcc711d4293" x="199.530347" y="257.957235" style="fill: #4169e1; stroke: #4169e1"/>
     <use xlink:href="#mcc711d4293" x="391.832284" y="247.088528" style="fill: #4169e1; stroke: #4169e1"/>
     <use xlink:href="#mcc711d4293" x="176.993053" y="262.248329" style="fill: #4169e1; stroke: #4169e1"/>
     <use xlink:href="#mcc711d4293" x="250.51096" y="259.64557" style="fill: #4169e1; stroke: #4169e1"/>
     <use xlink:href="#mcc711d4293" x="386.965773" y="222.772617" style="fill: #4169e1; stroke: #4169e1"/>
     <use xlink:href="#mcc711d4293" x="392.602015" y="78.669916" style="fill: #4169e1; stroke: #4169e1"/>
     <use xlink:href="#mcc711d4293" x="379.138378" y="260.255948" style="fill: #4169e1; stroke: #4169e1"/>
     <use xlink:href="#mcc711d4293" x="420.164926" y="168.207099" style="fill: #4169e1; stroke: #4169e1"/>
     <use xlink:href="#mcc711d4293" x="304.819324" y="190.333236" style="fill: #4169e1; stroke: #4169e1"/>
     <use xlink:href="#mcc711d4293" x="247.98555" y="185.482165" style="fill: #4169e1; stroke: #4169e1"/>
     <use xlink:href="#mcc711d4293" x="495.505409" y="137.010635" style="fill: #4169e1; stroke: #4169e1"/>
     <use xlink:href="#mcc711d4293" x="198.955671" y="267.29498" style="fill: #4169e1; stroke: #4169e1"/>
     <use xlink:href="#mcc711d4293" x="374.58928" y="90.569903" style="fill: #4169e1; stroke: #4169e1"/>
     <use xlink:href="#mcc711d4293" x="491.847019" y="166.561075" style="fill: #4169e1; stroke: #4169e1"/>
     <use xlink:href="#mcc711d4293" x="406.399672" y="279.692574" style="fill: #4169e1; stroke: #4169e1"/>
     <use xlink:href="#mcc711d4293" x="224.585853" y="221.183642" style="fill: #4169e1; stroke: #4169e1"/>
     <use xlink:href="#mcc711d4293" x="331.541683" y="246.985955" style="fill: #4169e1; stroke: #4169e1"/>
     <use xlink:href="#mcc711d4293" x="369.534366" y="210.067331" style="fill: #4169e1; stroke: #4169e1"/>
     <use xlink:href="#mcc711d4293" x="258.030759" y="283.928303" style="fill: #4169e1; stroke: #4169e1"/>
     <use xlink:href="#mcc711d4293" x="308.812336" y="230.970136" style="fill: #4169e1; stroke: #4169e1"/>
     <use xlink:href="#mcc711d4293" x="353.516368" y="323.530218" style="fill: #4169e1; stroke: #4169e1"/>
     <use xlink:href="#mcc711d4293" x="171.895422" y="178.239817" style="fill: #4169e1; stroke: #4169e1"/>
     <use xlink:href="#mcc711d4293" x="357.581998" y="148.996307" style="fill: #4169e1; stroke: #4169e1"/>
     <use xlink:href="#mcc711d4293" x="332.66544" y="157.426618" style="fill: #4169e1; stroke: #4169e1"/>
     <use xlink:href="#mcc711d4293" x="306.480509" y="104.876469" style="fill: #4169e1; stroke: #4169e1"/>
     <use xlink:href="#mcc711d4293" x="405.592205" y="216.787946" style="fill: #4169e1; stroke: #4169e1"/>
     <use xlink:href="#mcc711d4293" x="243.94246" y="298.318411" style="fill: #4169e1; stroke: #4169e1"/>
     <use xlink:href="#mcc711d4293" x="419.843304" y="266.697633" style="fill: #4169e1; stroke: #4169e1"/>
     <use xlink:href="#mcc711d4293" x="272.874831" y="346.474108" style="fill: #4169e1; stroke: #4169e1"/>
     <use xlink:href="#mcc711d4293" x="329.223179" y="170.039651" style="fill: #4169e1; stroke: #4169e1"/>
     <use xlink:href="#mcc711d4293" x="252.231427" y="269.168804" style="fill: #4169e1; stroke: #4169e1"/>
     <use xlink:href="#mcc711d4293" x="408.615729" y="82.616997" style="fill: #4169e1; stroke: #4169e1"/>
     <use xlink:href="#mcc711d4293" x="208.719108" y="257.685635" style="fill: #4169e1; stroke: #4169e1"/>
     <use xlink:href="#mcc711d4293" x="280.053316" y="77.218744" style="fill: #4169e1; stroke: #4169e1"/>
     <use xlink:href="#mcc711d4293" x="318.972413" y="340.07405" style="fill: #4169e1; stroke: #4169e1"/>
     <use xlink:href="#mcc711d4293" x="301.251029" y="275.65477" style="fill: #4169e1; stroke: #4169e1"/>
     <use xlink:href="#mcc711d4293" x="425.042807" y="254.317254" style="fill: #4169e1; stroke: #4169e1"/>
     <use xlink:href="#mcc711d4293" x="389.883689" y="306.72578" style="fill: #4169e1; stroke: #4169e1"/>
     <use xlink:href="#mcc711d4293" x="374.939604" y="165.704665" style="fill: #4169e1; stroke: #4169e1"/>
     <use xlink:href="#mcc711d4293" x="248.78964" y="259.536612" style="fill: #4169e1; stroke: #4169e1"/>
     <use xlink:href="#mcc711d4293" x="366.240017" y="71.510468" style="fill: #4169e1; stroke: #4169e1"/>
     <use xlink:href="#mcc711d4293" x="265.582672" y="79.304214" style="fill: #4169e1; stroke: #4169e1"/>
     <use xlink:href="#mcc711d4293" x="237.07125" y="250.067122" style="fill: #4169e1; stroke: #4169e1"/>
     <use xlink:href="#mcc711d4293" x="378.647357" y="243.201549" style="fill: #4169e1; stroke: #4169e1"/>
     <use xlink:href="#mcc711d4293" x="425.516402" y="250.573536" style="fill: #4169e1; stroke: #4169e1"/>
     <use xlink:href="#mcc711d4293" x="321.999429" y="256.628382" style="fill: #4169e1; stroke: #4169e1"/>
     <use xlink:href="#mcc711d4293" x="282.400932" y="169.452476" style="fill: #4169e1; stroke: #4169e1"/>
     <use xlink:href="#mcc711d4293" x="287.797918" y="169.517742" style="fill: #4169e1; stroke: #4169e1"/>
     <use xlink:href="#mcc711d4293" x="330.961611" y="108.479798" style="fill: #4169e1; stroke: #4169e1"/>
     <use xlink:href="#mcc711d4293" x="220.114626" y="247.643689" style="fill: #4169e1; stroke: #4169e1"/>
     <use xlink:href="#mcc711d4293" x="209.65214" y="266.964309" style="fill: #4169e1; stroke: #4169e1"/>
     <use xlink:href="#mcc711d4293" x="300.568485" y="256.026712" style="fill: #4169e1; stroke: #4169e1"/>
     <use xlink:href="#mcc711d4293" x="200.070305" y="179.119596" style="fill: #4169e1; stroke: #4169e1"/>
     <use xlink:href="#mcc711d4293" x="270.93678" y="213.112848" style="fill: #4169e1; stroke: #4169e1"/>
     <use xlink:href="#mcc711d4293" x="333.48076" y="205.373434" style="fill: #4169e1; stroke: #4169e1"/>
     <use xlink:href="#mcc711d4293" x="458.357523" y="137.82468" style="fill: #4169e1; stroke: #4169e1"/>
     <use xlink:href="#mcc711d4293" x="323.834705" y="205.254057" style="fill: #4169e1; stroke: #4169e1"/>
     <use xlink:href="#mcc711d4293" x="297.673973" y="265.001556" style="fill: #4169e1; stroke: #4169e1"/>
     <use xlink:href="#mcc711d4293" x="432.67788" y="205.700117" style="fill: #4169e1; stroke: #4169e1"/>
     <use xlink:href="#mcc711d4293" x="424.44167" y="169.777028" style="fill: #4169e1; stroke: #4169e1"/>
     <use xlink:href="#mcc711d4293" x="405.833239" y="147.024147" style="fill: #4169e1; stroke: #4169e1"/>
     <use xlink:href="#mcc711d4293" x="373.307975" y="287.825403" style="fill: #4169e1; stroke: #4169e1"/>
     <use xlink:href="#mcc711d4293" x="320.990116" y="265.031794" style="fill: #4169e1; stroke: #4169e1"/>
     <use xlink:href="#mcc711d4293" x="243.999626" y="117.658075" style="fill: #4169e1; stroke: #4169e1"/>
     <use xlink:href="#mcc711d4293" x="241.557092" y="277.725679" style="fill: #4169e1; stroke: #4169e1"/>
     <use xlink:href="#mcc711d4293" x="185.279438" y="279.19334" style="fill: #4169e1; stroke: #4169e1"/>
    </g>
   </g>
   <g id="PathCollection_2">
    <defs>
     <path id="m1cd198c896" d="M 0 2.5 
C 0.663008 2.5 1.29895 2.236584 1.767767 1.767767 
C 2.236584 1.29895 2.5 0.663008 2.5 0 
C 2.5 -0.663008 2.236584 -1.29895 1.767767 -1.767767 
C 1.29895 -2.236584 0.663008 -2.5 0 -2.5 
C -0.663008 -2.5 -1.29895 -2.236584 -1.767767 -1.767767 
C -2.236584 -1.29895 -2.5 -0.663008 -2.5 0 
C -2.5 0.663008 -2.236584 1.29895 -1.767767 1.767767 
C -1.29895 2.236584 -0.663008 2.5 0 2.5 
z
" style="stroke: #b22222"/>
    </defs>
    <g clip-path="url(#pa53ae8f477)">
     <use xlink:href="#m1cd198c896" x="283.52355" y="204.345308" style="fill: #b22222; stroke: #b22222"/>
     <use xlink:href="#m1cd198c896" x="261.01448" y="221.499161" style="fill: #b22222; stroke: #b22222"/>
     <use xlink:href="#m1cd198c896" x="277.50542" y="207.752202" style="fill: #b22222; stroke: #b22222"/>
     <use xlink:href="#m1cd198c896" x="271.851472" y="202.693776" style="fill: #b22222; stroke: #b22222"/>
     <use xlink:href="#m1cd198c896" x="272.2044" y="225.938969" style="fill: #b22222; stroke: #b22222"/>
     <use xlink:href="#m1cd198c896" x="279.473816" y="247.61655" style="fill: #b22222; stroke: #b22222"/>
     <use xlink:href="#m1cd198c896" x="286.482209" y="255.406391" style="fill: #b22222; stroke: #b22222"/>
     <use xlink:href="#m1cd198c896" x="284.093678" y="214.822446" style="fill: #b22222; stroke: #b22222"/>
     <use xlink:href="#m1cd198c896" x="254.926561" y="214.695783" style="fill: #b22222; stroke: #b22222"/>
     <use xlink:href="#m1cd198c896" x="269.282025" y="227.160267" style="fill: #b22222; stroke: #b22222"/>
     <use xlink:href="#m1cd198c896" x="294.205097" y="260.035968" style="fill: #b22222; stroke: #b22222"/>
     <use xlink:href="#m1cd198c896" x="281.246343" y="248.364267" style="fill: #b22222; stroke: #b22222"/>
     <use xlink:href="#m1cd198c896" x="286.700233" y="269.359694" style="fill: #b22222; stroke: #b22222"/>
     <use xlink:href="#m1cd198c896" x="277.818708" y="228.664634" style="fill: #b22222; stroke: #b22222"/>
     <use xlink:href="#m1cd198c896" x="276.43237" y="200.970923" style="fill: #b22222; stroke: #b22222"/>
     <use xlink:href="#m1cd198c896" x="280.863738" y="257.368134" style="fill: #b22222; stroke: #b22222"/>
     <use xlink:href="#m1cd198c896" x="250.464099" y="208.027086" style="fill: #b22222; stroke: #b22222"/>
     <use xlink:href="#m1cd198c896" x="304.842469" y="200.551978" style="fill: #b22222; stroke: #b22222"/>
     <use xlink:href="#m1cd198c896" x="261.495707" y="221.455787" style="fill: #b22222; stroke: #b22222"/>
     <use xlink:href="#m1cd198c896" x="287.475705" y="237.872535" style="fill: #b22222; stroke: #b22222"/>
     <use xlink:href="#m1cd198c896" x="275.674286" y="221.579157" style="fill: #b22222; stroke: #b22222"/>
     <use xlink:href="#m1cd198c896" x="289.055124" y="274.503825" style="fill: #b22222; stroke: #b22222"/>
     <use xlink:href="#m1cd198c896" x="288.52278" y="205.599594" style="fill: #b22222; stroke: #b22222"/>
     <use xlink:href="#m1cd198c896" x="272.590652" y="245.057028" style="fill: #b22222; stroke: #b22222"/>
     <use xlink:href="#m1cd198c896" x="296.140621" y="254.438324" style="fill: #b22222; stroke: #b22222"/>
     <use xlink:href="#m1cd198c896" x="282.411271" y="198.005169" style="fill: #b22222; stroke: #b22222"/>
     <use xlink:href="#m1cd198c896" x="245.183979" y="196.099209" style="fill: #b22222; stroke: #b22222"/>
     <use xlink:href="#m1cd198c896" x="288.989142" y="256.118961" style="fill: #b22222; stroke: #b22222"/>
     <use xlink:href="#m1cd198c896" x="281.535612" y="214.597954" style="fill: #b22222; stroke: #b22222"/>
     <use xlink:href="#m1cd198c896" x="250.328961" y="277.128823" style="fill: #b22222; stroke: #b22222"/>
     <use xlink:href="#m1cd198c896" x="286.475421" y="201.460481" style="fill: #b22222; stroke: #b22222"/>
     <use xlink:href="#m1cd198c896" x="252.931807" y="221.850454" style="fill: #b22222; stroke: #b22222"/>
     <use xlink:href="#m1cd198c896" x="262.041094" y="220.552351" style="fill: #b22222; stroke: #b22222"/>
     <use xlink:href="#m1cd198c896" x="281.763817" y="265.145157" style="fill: #b22222; stroke: #b22222"/>
     <use xlink:href="#m1cd198c896" x="271.705278" y="215.61459" style="fill: #b22222; stroke: #b22222"/>
     <use xlink:href="#m1cd198c896" x="239.832574" y="212.421547" style="fill: #b22222; stroke: #b22222"/>
     <use xlink:href="#m1cd198c896" x="316.161388" y="176.717962" style="fill: #b22222; stroke: #b22222"/>
     <use xlink:href="#m1cd198c896" x="291.717251" y="200.792697" style="fill: #b22222; stroke: #b22222"/>
     <use xlink:href="#m1cd198c896" x="272.372308" y="218.212737" style="fill: #b22222; stroke: #b22222"/>
     <use xlink:href="#m1cd198c896" x="349.483738" y="185.821014" style="fill: #b22222; stroke: #b22222"/>
     <use xlink:href="#m1cd198c896" x="286.70991" y="208.336946" style="fill: #b22222; stroke: #b22222"/>
     <use xlink:href="#m1cd198c896" x="315.47791" y="263.329054" style="fill: #b22222; stroke: #b22222"/>
    </g>
   </g>
   <g id="patch_4">
    <path d="M 56.450156 450.72 
L 56.450156 7.2 
" style="fill: none; stroke: #ffffff; stroke-width: 1.25; stroke-linejoin: miter; stroke-linecap: square"/>
   </g>
   <g id="patch_5">
    <path d="M 499.970156 450.72 
L 499.970156 7.2 
" style="fill: none; stroke: #ffffff; stroke-width: 1.25; stroke-linejoin: miter; stroke-linecap: square"/>
   </g>
   <g id="patch_6">
    <path d="M 56.450156 450.72 
L 499.970156 450.72 
" style="fill: none; stroke: #ffffff; stroke-width: 1.25; stroke-linejoin: miter; stroke-linecap: square"/>
   </g>
   <g id="patch_7">
    <path d="M 56.450156 7.2 
L 499.970156 7.2 
" style="fill: none; stroke: #ffffff; stroke-width: 1.25; stroke-linejoin: miter; stroke-linecap: square"/>
   </g>
   <g id="text_13">
    <!-- t = 2600 -->
    <g style="fill: #262626" transform="translate(65.320556 24.659775) scale(0.12 -0.12)">
     <defs>
      <path id="ArialMT-74" d="M 1650 503 
L 1731 6 
Q 1494 -44 1306 -44 
Q 1000 -44 831 53 
Q 663 150 594 308 
Q 525 466 525 972 
L 525 2881 
L 113 2881 
L 113 3319 
L 525 3319 
L 525 4141 
L 1084 4478 
L 1084 3319 
L 1650 3319 
L 1650 2881 
L 1084 2881 
L 1084 941 
Q 1084 700 1114 631 
Q 1144 563 1211 522 
Q 1278 481 1403 481 
Q 1497 481 1650 503 
z
" transform="scale(0.015625)"/>
      <path id="ArialMT-20" transform="scale(0.015625)"/>
      <path id="ArialMT-3d" d="M 3381 2694 
L 356 2694 
L 356 3219 
L 3381 3219 
L 3381 2694 
z
M 3381 1303 
L 356 1303 
L 356 1828 
L 3381 1828 
L 3381 1303 
z
" transform="scale(0.015625)"/>
      <path id="ArialMT-36" d="M 3184 3459 
L 2625 3416 
Q 2550 3747 2413 3897 
Q 2184 4138 1850 4138 
Q 1581 4138 1378 3988 
Q 1113 3794 959 3422 
Q 806 3050 800 2363 
Q 1003 2672 1297 2822 
Q 1591 2972 1913 2972 
Q 2475 2972 2870 2558 
Q 3266 2144 3266 1488 
Q 3266 1056 3080 686 
Q 2894 316 2569 119 
Q 2244 -78 1831 -78 
Q 1128 -78 684 439 
Q 241 956 241 2144 
Q 241 3472 731 4075 
Q 1159 4600 1884 4600 
Q 2425 4600 2770 4297 
Q 3116 3994 3184 3459 
z
M 888 1484 
Q 888 1194 1011 928 
Q 1134 663 1356 523 
Q 1578 384 1822 384 
Q 2178 384 2434 671 
Q 2691 959 2691 1453 
Q 2691 1928 2437 2201 
Q 2184 2475 1800 2475 
Q 1419 2475 1153 2201 
Q 888 1928 888 1484 
z
" transform="scale(0.015625)"/>
     </defs>
     <use xlink:href="#ArialMT-74"/>
     <use xlink:href="#ArialMT-20" x="27.783203"/>
     <use xlink:href="#ArialMT-3d" x="55.566406"/>
     <use xlink:href="#ArialMT-20" x="113.964844"/>
     <use xlink:href="#ArialMT-32" x="141.748047"/>
     <use xlink:href="#ArialMT-36" x="197.363281"/>
     <use xlink:href="#ArialMT-30" x="252.978516"/>
     <use xlink:href="#ArialMT-30" x="308.59375"/>
    </g>
   </g>
   <g id="legend_1">
    <g id="patch_8">
     <path d="M 328.111406 94.59 
L 483.170156 94.59 
Q 487.970156 94.59 487.970156 89.79 
L 487.970156 24 
Q 487.970156 19.2 483.170156 19.2 
L 328.111406 19.2 
Q 323.311406 19.2 323.311406 24 
L 323.311406 89.79 
Q 323.311406 94.59 328.111406 94.59 
z
" style="fill: #eaeaf2; opacity: 0.8; stroke: #cccccc; stroke-linejoin: miter"/>
    </g>
    <g id="PathCollection_3">
     <g>
      <use xlink:href="#mcc711d4293" x="356.911406" y="39.97125" style="fill: #4169e1; stroke: #4169e1"/>
     </g>
    </g>
    <g id="text_14">
     <!-- Sheep -->
     <g style="fill: #262626" transform="translate(400.111406 46.27125) scale(0.24 -0.24)">
      <defs>
       <path id="ArialMT-53" d="M 288 1472 
L 859 1522 
Q 900 1178 1048 958 
Q 1197 738 1509 602 
Q 1822 466 2213 466 
Q 2559 466 2825 569 
Q 3091 672 3220 851 
Q 3350 1031 3350 1244 
Q 3350 1459 3225 1620 
Q 3100 1781 2813 1891 
Q 2628 1963 1997 2114 
Q 1366 2266 1113 2400 
Q 784 2572 623 2826 
Q 463 3081 463 3397 
Q 463 3744 659 4045 
Q 856 4347 1234 4503 
Q 1613 4659 2075 4659 
Q 2584 4659 2973 4495 
Q 3363 4331 3572 4012 
Q 3781 3694 3797 3291 
L 3216 3247 
Q 3169 3681 2898 3903 
Q 2628 4125 2100 4125 
Q 1550 4125 1298 3923 
Q 1047 3722 1047 3438 
Q 1047 3191 1225 3031 
Q 1400 2872 2139 2705 
Q 2878 2538 3153 2413 
Q 3553 2228 3743 1945 
Q 3934 1663 3934 1294 
Q 3934 928 3725 604 
Q 3516 281 3123 101 
Q 2731 -78 2241 -78 
Q 1619 -78 1198 103 
Q 778 284 539 648 
Q 300 1013 288 1472 
z
" transform="scale(0.015625)"/>
       <path id="ArialMT-68" d="M 422 0 
L 422 4581 
L 984 4581 
L 984 2938 
Q 1378 3394 1978 3394 
Q 2347 3394 2619 3248 
Q 2891 3103 3008 2847 
Q 3125 2591 3125 2103 
L 3125 0 
L 2563 0 
L 2563 2103 
Q 2563 2525 2380 2717 
Q 2197 2909 1863 2909 
Q 1613 2909 1392 2779 
Q 1172 2650 1078 2428 
Q 984 2206 984 1816 
L 984 0 
L 422 0 
z
" transform="scale(0.015625)"/>
       <path id="ArialMT-65" d="M 2694 1069 
L 3275 997 
Q 3138 488 2766 206 
Q 2394 -75 1816 -75 
Q 1088 -75 661 373 
Q 234 822 234 1631 
Q 234 2469 665 2931 
Q 1097 3394 1784 3394 
Q 2450 3394 2872 2941 
Q 3294 2488 3294 1666 
Q 3294 1616 3291 1516 
L 816 1516 
Q 847 969 1125 678 
Q 1403 388 1819 388 
Q 2128 388 2347 550 
Q 2566 713 2694 1069 
z
M 847 1978 
L 2700 1978 
Q 2663 2397 2488 2606 
Q 2219 2931 1791 2931 
Q 1403 2931 1139 2672 
Q 875 2413 847 1978 
z
" transform="scale(0.015625)"/>
       <path id="ArialMT-70" d="M 422 -1272 
L 422 3319 
L 934 3319 
L 934 2888 
Q 1116 3141 1344 3267 
Q 1572 3394 1897 3394 
Q 2322 3394 2647 3175 
Q 2972 2956 3137 2557 
Q 3303 2159 3303 1684 
Q 3303 1175 3120 767 
Q 2938 359 2589 142 
Q 2241 -75 1856 -75 
Q 1575 -75 1351 44 
Q 1128 163 984 344 
L 984 -1272 
L 422 -1272 
z
M 931 1641 
Q 931 1000 1190 694 
Q 1450 388 1819 388 
Q 2194 388 2461 705 
Q 2728 1022 2728 1688 
Q 2728 2322 2467 2637 
Q 2206 2953 1844 2953 
Q 1484 2953 1207 2617 
Q 931 2281 931 1641 
z
" transform="scale(0.015625)"/>
      </defs>
      <use xlink:href="#ArialMT-53"/>
      <use xlink:href="#ArialMT-68" x="66.699219"/>
      <use xlink:href="#ArialMT-65" x="122.314453"/>
      <use xlink:href="#ArialMT-65" x="177.929688"/>
      <use xlink:href="#ArialMT-70" x="233.544922"/>
     </g>
    </g>
    <g id="PathCollection_4">
     <g>
      <use xlink:href="#m1cd198c896" x="356.911406" y="73.92" style="fill: #b22222; stroke: #b22222"/>
     </g>
    </g>
    <g id="text_15">
     <!-- Wolves -->
     <g style="fill: #262626" transform="translate(400.111406 80.22) scale(0.24 -0.24)">
      <defs>
       <path id="ArialMT-57" d="M 1294 0 
L 78 4581 
L 700 4581 
L 1397 1578 
Q 1509 1106 1591 641 
Q 1766 1375 1797 1488 
L 2669 4581 
L 3400 4581 
L 4056 2263 
Q 4303 1400 4413 641 
Q 4500 1075 4641 1638 
L 5359 4581 
L 5969 4581 
L 4713 0 
L 4128 0 
L 3163 3491 
Q 3041 3928 3019 4028 
Q 2947 3713 2884 3491 
L 1913 0 
L 1294 0 
z
" transform="scale(0.015625)"/>
       <path id="ArialMT-6f" d="M 213 1659 
Q 213 2581 725 3025 
Q 1153 3394 1769 3394 
Q 2453 3394 2887 2945 
Q 3322 2497 3322 1706 
Q 3322 1066 3130 698 
Q 2938 331 2570 128 
Q 2203 -75 1769 -75 
Q 1072 -75 642 372 
Q 213 819 213 1659 
z
M 791 1659 
Q 791 1022 1069 705 
Q 1347 388 1769 388 
Q 2188 388 2466 706 
Q 2744 1025 2744 1678 
Q 2744 2294 2464 2611 
Q 2184 2928 1769 2928 
Q 1347 2928 1069 2612 
Q 791 2297 791 1659 
z
" transform="scale(0.015625)"/>
       <path id="ArialMT-6c" d="M 409 0 
L 409 4581 
L 972 4581 
L 972 0 
L 409 0 
z
" transform="scale(0.015625)"/>
       <path id="ArialMT-76" d="M 1344 0 
L 81 3319 
L 675 3319 
L 1388 1331 
Q 1503 1009 1600 663 
Q 1675 925 1809 1294 
L 2547 3319 
L 3125 3319 
L 1869 0 
L 1344 0 
z
" transform="scale(0.015625)"/>
       <path id="ArialMT-73" d="M 197 991 
L 753 1078 
Q 800 744 1014 566 
Q 1228 388 1613 388 
Q 2000 388 2187 545 
Q 2375 703 2375 916 
Q 2375 1106 2209 1216 
Q 2094 1291 1634 1406 
Q 1016 1563 777 1677 
Q 538 1791 414 1992 
Q 291 2194 291 2438 
Q 291 2659 392 2848 
Q 494 3038 669 3163 
Q 800 3259 1026 3326 
Q 1253 3394 1513 3394 
Q 1903 3394 2198 3281 
Q 2494 3169 2634 2976 
Q 2775 2784 2828 2463 
L 2278 2388 
Q 2241 2644 2061 2787 
Q 1881 2931 1553 2931 
Q 1166 2931 1000 2803 
Q 834 2675 834 2503 
Q 834 2394 903 2306 
Q 972 2216 1119 2156 
Q 1203 2125 1616 2013 
Q 2213 1853 2448 1751 
Q 2684 1650 2818 1456 
Q 2953 1263 2953 975 
Q 2953 694 2789 445 
Q 2625 197 2315 61 
Q 2006 -75 1616 -75 
Q 969 -75 630 194 
Q 291 463 197 991 
z
" transform="scale(0.015625)"/>
      </defs>
      <use xlink:href="#ArialMT-57"/>
      <use xlink:href="#ArialMT-6f" x="92.634766"/>
      <use xlink:href="#ArialMT-6c" x="148.25"/>
      <use xlink:href="#ArialMT-76" x="170.466797"/>
      <use xlink:href="#ArialMT-65" x="220.466797"/>
      <use xlink:href="#ArialMT-73" x="276.082031"/>
     </g>
    </g>
   </g>
  </g>
 </g>
 <defs>
  <clipPath id="pa53ae8f477">
   <rect x="56.450156" y="7.2" width="443.52" height="443.52"/>
  </clipPath>
 </defs>
</svg>
