<?xml version="1.0" encoding="utf-8" standalone="no"?>
<!DOCTYPE svg PUBLIC "-//W3C//DTD SVG 1.1//EN"
  "http://www.w3.org/Graphics/SVG/1.1/DTD/svg11.dtd">
<svg xmlns:xlink="http://www.w3.org/1999/xlink" width="507.170156pt" height="492.454219pt" viewBox="0 0 507.170156 492.454219" xmlns="http://www.w3.org/2000/svg" version="1.1">
 <metadata>
  <rdf:RDF xmlns:dc="http://purl.org/dc/elements/1.1/" xmlns:cc="http://creativecommons.org/ns#" xmlns:rdf="http://www.w3.org/1999/02/22-rdf-syntax-ns#">
   <cc:Work>
    <dc:type rdf:resource="http://purl.org/dc/dcmitype/StillImage"/>
    <dc:date>2026-05-12T10:43:20.398209</dc:date>
    <dc:format>image/svg+xml</dc:format>
    <dc:creator>
     <cc:Agent>
      <dc:title>Matplotlib v3.7.1, https://matplotlib.org/</dc:title>
     </cc:Agent>
    </dc:creator>
   </cc:Work>
  </rdf:RDF>
 </metadata>
 <defs>
  <style type="text/css">*{stroke-linejoin: round; stroke-linecap: butt}</style>
 </defs>
 <g id="figure_1">
  <g id="patch_1">
   <path d="M 0 492.454219 
L 507.170156 492.454219 
L 507.170156 0 
L 0 0 
z
" style="fill: #ffffff"/>
  </g>
  <g id="axes_1">
   <g id="patch_2">
    <path d="M 56.450156 450.72 
L 499.970156 450.72 
L 499.970156 7.2 
L 56.450156 7.2 
z
" style="fill: #eaeaf2"/>
   </g>
   <g id="matplotlib.axis_1">
    <g id="xtick_1">
     <g id="line2d_1">
      <path d="M 100.802156 450.72 
L 100.802156 7.2 
" clip-path="url(#pca43aa426f)" style="fill: none; stroke: #ffffff; stroke-linecap: round"/>
     </g>
     <g id="text_1">
      <!-- −400 -->
      <g style="fill: #262626" transform="translate(88.414266 468.093594) scale(0.11 -0.11)">
       <defs>
        <path id="ArialMT-2212" d="M 3381 1997 
L 356 1997 
L 356 2522 
L 3381 2522 
L 3381 1997 
z
" transform="scale(0.015625)"/>
        <path id="ArialMT-34" d="M 2069 0 
L 2069 1097 
L 81 1097 
L 81 1613 
L 2172 4581 
L 2631 4581 
L 2631 1613 
L 3250 1613 
L 3250 1097 
L 2631 1097 
L 2631 0 
L 2069 0 
z
M 2069 1613 
L 2069 3678 
L 634 1613 
L 2069 1613 
z
" transform="scale(0.015625)"/>
        <path id="ArialMT-30" d="M 266 2259 
Q 266 3072 433 3567 
Q 600 4063 929 4331 
Q 1259 4600 1759 4600 
Q 2128 4600 2406 4451 
Q 2684 4303 2865 4023 
Q 3047 3744 3150 3342 
Q 3253 2941 3253 2259 
Q 3253 1453 3087 958 
Q 2922 463 2592 192 
Q 2263 -78 1759 -78 
Q 1097 -78 719 397 
Q 266 969 266 2259 
z
M 844 2259 
Q 844 1131 1108 757 
Q 1372 384 1759 384 
Q 2147 384 2411 759 
Q 2675 1134 2675 2259 
Q 2675 3391 2411 3762 
Q 2147 4134 1753 4134 
Q 1366 4134 1134 3806 
Q 844 3388 844 2259 
z
" transform="scale(0.015625)"/>
       </defs>
       <use xlink:href="#ArialMT-2212"/>
       <use xlink:href="#ArialMT-34" x="58.398438"/>
       <use xlink:href="#ArialMT-30" x="114.013672"/>
       <use xlink:href="#ArialMT-30" x="169.628906"/>
      </g>
     </g>
    </g>
    <g id="xtick_2">
     <g id="line2d_2">
      <path d="M 189.506156 450.72 
L 189.506156 7.2 
" clip-path="url(#pca43aa426f)" style="fill: none; stroke: #ffffff; stroke-linecap: round"/>
     </g>
     <g id="text_2">
      <!-- −200 -->
      <g style="fill: #262626" transform="translate(177.118266 468.093594) scale(0.11 -0.11)">
       <defs>
        <path id="ArialMT-32" d="M 3222 541 
L 3222 0 
L 194 0 
Q 188 203 259 391 
Q 375 700 629 1000 
Q 884 1300 1366 1694 
Q 2113 2306 2375 2664 
Q 2638 3022 2638 3341 
Q 2638 3675 2398 3904 
Q 2159 4134 1775 4134 
Q 1369 4134 1125 3890 
Q 881 3647 878 3216 
L 300 3275 
Q 359 3922 746 4261 
Q 1134 4600 1788 4600 
Q 2447 4600 2831 4234 
Q 3216 3869 3216 3328 
Q 3216 3053 3103 2787 
Q 2991 2522 2730 2228 
Q 2469 1934 1863 1422 
Q 1356 997 1212 845 
Q 1069 694 975 541 
L 3222 541 
z
" transform="scale(0.015625)"/>
       </defs>
       <use xlink:href="#ArialMT-2212"/>
       <use xlink:href="#ArialMT-32" x="58.398438"/>
       <use xlink:href="#ArialMT-30" x="114.013672"/>
       <use xlink:href="#ArialMT-30" x="169.628906"/>
      </g>
     </g>
    </g>
    <g id="xtick_3">
     <g id="line2d_3">
      <path d="M 278.210156 450.72 
L 278.210156 7.2 
" clip-path="url(#pca43aa426f)" style="fill: none; stroke: #ffffff; stroke-linecap: round"/>
     </g>
     <g id="text_3">
      <!-- 0 -->
      <g style="fill: #262626" transform="translate(275.151641 468.093594) scale(0.11 -0.11)">
       <use xlink:href="#ArialMT-30"/>
      </g>
     </g>
    </g>
    <g id="xtick_4">
     <g id="line2d_4">
      <path d="M 366.914156 450.72 
L 366.914156 7.2 
" clip-path="url(#pca43aa426f)" style="fill: none; stroke: #ffffff; stroke-linecap: round"/>
     </g>
     <g id="text_4">
      <!-- 200 -->
      <g style="fill: #262626" transform="translate(357.738609 468.093594) scale(0.11 -0.11)">
       <use xlink:href="#ArialMT-32"/>
       <use xlink:href="#ArialMT-30" x="55.615234"/>
       <use xlink:href="#ArialMT-30" x="111.230469"/>
      </g>
     </g>
    </g>
    <g id="xtick_5">
     <g id="line2d_5">
      <path d="M 455.618156 450.72 
L 455.618156 7.2 
" clip-path="url(#pca43aa426f)" style="fill: none; stroke: #ffffff; stroke-linecap: round"/>
     </g>
     <g id="text_5">
      <!-- 400 -->
      <g style="fill: #262626" transform="translate(446.442609 468.093594) scale(0.11 -0.11)">
       <use xlink:href="#ArialMT-34"/>
       <use xlink:href="#ArialMT-30" x="55.615234"/>
       <use xlink:href="#ArialMT-30" x="111.230469"/>
      </g>
     </g>
    </g>
    <g id="text_6">
     <!-- x -->
     <g style="fill: #262626" transform="translate(275.210156 482.869219) scale(0.12 -0.12)">
      <defs>
       <path id="ArialMT-78" d="M 47 0 
L 1259 1725 
L 138 3319 
L 841 3319 
L 1350 2541 
Q 1494 2319 1581 2169 
Q 1719 2375 1834 2534 
L 2394 3319 
L 3066 3319 
L 1919 1756 
L 3153 0 
L 2463 0 
L 1781 1031 
L 1600 1309 
L 728 0 
L 47 0 
z
" transform="scale(0.015625)"/>
      </defs>
      <use xlink:href="#ArialMT-78"/>
     </g>
    </g>
   </g>
   <g id="matplotlib.axis_2">
    <g id="ytick_1">
     <g id="line2d_6">
      <path d="M 56.450156 406.368 
L 499.970156 406.368 
" clip-path="url(#pca43aa426f)" style="fill: none; stroke: #ffffff; stroke-linecap: round"/>
     </g>
     <g id="text_7">
      <!-- −400 -->
      <g style="fill: #262626" transform="translate(22.174375 410.304797) scale(0.11 -0.11)">
       <use xlink:href="#ArialMT-2212"/>
       <use xlink:href="#ArialMT-34" x="58.398438"/>
       <use xlink:href="#ArialMT-30" x="114.013672"/>
       <use xlink:href="#ArialMT-30" x="169.628906"/>
      </g>
     </g>
    </g>
    <g id="ytick_2">
     <g id="line2d_7">
      <path d="M 56.450156 317.664 
L 499.970156 317.664 
" clip-path="url(#pca43aa426f)" style="fill: none; stroke: #ffffff; stroke-linecap: round"/>
     </g>
     <g id="text_8">
      <!-- −200 -->
      <g style="fill: #262626" transform="translate(22.174375 321.600797) scale(0.11 -0.11)">
       <use xlink:href="#ArialMT-2212"/>
       <use xlink:href="#ArialMT-32" x="58.398438"/>
       <use xlink:href="#ArialMT-30" x="114.013672"/>
       <use xlink:href="#ArialMT-30" x="169.628906"/>
      </g>
     </g>
    </g>
    <g id="ytick_3">
     <g id="line2d_8">
      <path d="M 56.450156 228.96 
L 499.970156 228.96 
" clip-path="url(#pca43aa426f)" style="fill: none; stroke: #ffffff; stroke-linecap: round"/>
     </g>
     <g id="text_9">
      <!-- 0 -->
      <g style="fill: #262626" transform="translate(40.833125 232.896797) scale(0.11 -0.11)">
       <use xlink:href="#ArialMT-30"/>
      </g>
     </g>
    </g>
    <g id="ytick_4">
     <g id="line2d_9">
      <path d="M 56.450156 140.256 
L 499.970156 140.256 
" clip-path="url(#pca43aa426f)" style="fill: none; stroke: #ffffff; stroke-linecap: round"/>
     </g>
     <g id="text_10">
      <!-- 200 -->
      <g style="fill: #262626" transform="translate(28.599063 144.192797) scale(0.11 -0.11)">
       <use xlink:href="#ArialMT-32"/>
       <use xlink:href="#ArialMT-30" x="55.615234"/>
       <use xlink:href="#ArialMT-30" x="111.230469"/>
      </g>
     </g>
    </g>
    <g id="ytick_5">
     <g id="line2d_10">
      <path d="M 56.450156 51.552 
L 499.970156 51.552 
" clip-path="url(#pca43aa426f)" style="fill: none; stroke: #ffffff; stroke-linecap: round"/>
     </g>
     <g id="text_11">
      <!-- 400 -->
      <g style="fill: #262626" transform="translate(28.599063 55.488797) scale(0.11 -0.11)">
       <use xlink:href="#ArialMT-34"/>
       <use xlink:href="#ArialMT-30" x="55.615234"/>
       <use xlink:href="#ArialMT-30" x="111.230469"/>
      </g>
     </g>
    </g>
    <g id="text_12">
     <!-- y -->
     <g style="fill: #262626" transform="translate(15.64875 231.96) rotate(-90) scale(0.12 -0.12)">
      <defs>
       <path id="ArialMT-79" d="M 397 -1278 
L 334 -750 
Q 519 -800 656 -800 
Q 844 -800 956 -737 
Q 1069 -675 1141 -563 
Q 1194 -478 1313 -144 
Q 1328 -97 1363 -6 
L 103 3319 
L 709 3319 
L 1400 1397 
Q 1534 1031 1641 628 
Q 1738 1016 1872 1384 
L 2581 3319 
L 3144 3319 
L 1881 -56 
Q 1678 -603 1566 -809 
Q 1416 -1088 1222 -1217 
Q 1028 -1347 759 -1347 
Q 597 -1347 397 -1278 
z
" transform="scale(0.015625)"/>
      </defs>
      <use xlink:href="#ArialMT-79"/>
     </g>
    </g>
   </g>
   <g id="patch_3">
    <path d="M 278.210156 317.664 
C 301.734732 317.664 324.298969 308.317587 340.933356 291.6832 
C 357.567743 275.048813 366.914156 252.484576 366.914156 228.96 
C 366.914156 205.435424 357.567743 182.871187 340.933356 166.2368 
C 324.298969 149.602413 301.734732 140.256 278.210156 140.256 
C 254.68558 140.256 232.121343 149.602413 215.486956 166.2368 
C 198.852569 182.871187 189.506156 205.435424 189.506156 228.96 
C 189.506156 252.484576 198.852569 275.048813 215.486956 291.6832 
C 232.121343 308.317587 254.68558 317.664 278.210156 317.664 
z
" clip-path="url(#pca43aa426f)" style="fill: #228b22; opacity: 0.12; stroke: #228b22; stroke-width: 1.5; stroke-linejoin: miter"/>
   </g>
   <g id="PathCollection_1">
    <defs>
     <path id="mfec869d213" d="M 0 2.236068 
C 0.593012 2.236068 1.161816 2.000462 1.581139 1.581139 
C 2.000462 1.161816 2.236068 0.593012 2.236068 0 
C 2.236068 -0.593012 2.000462 -1.161816 1.581139 -1.581139 
C 1.161816 -2.000462 0.593012 -2.236068 0 -2.236068 
C -0.593012 -2.236068 -1.161816 -2.000462 -1.581139 -1.581139 
C -2.000462 -1.161816 -2.236068 -0.593012 -2.236068 0 
C -2.236068 0.593012 -2.000462 1.161816 -1.581139 1.581139 
C -1.161816 2.000462 -0.593012 2.236068 0 2.236068 
z
" style="stroke: #4169e1"/>
    </defs>
    <g clip-path="url(#pca43aa426f)">
     <use xlink:href="#mfec869d213" x="345.058398" y="159.56878" style="fill: #4169e1; stroke: #4169e1"/>
     <use xlink:href="#mfec869d213" x="287.609628" y="200.862794" style="fill: #4169e1; stroke: #4169e1"/>
     <use xlink:href="#mfec869d213" x="292.217925" y="216.308381" style="fill: #4169e1; stroke: #4169e1"/>
     <use xlink:href="#mfec869d213" x="353.190056" y="218.383734" style="fill: #4169e1; stroke: #4169e1"/>
     <use xlink:href="#mfec869d213" x="309.973926" y="222.679949" style="fill: #4169e1; stroke: #4169e1"/>
     <use xlink:href="#mfec869d213" x="415.764403" y="90.684993" style="fill: #4169e1; stroke: #4169e1"/>
     <use xlink:href="#mfec869d213" x="384.61902" y="52.478089" style="fill: #4169e1; stroke: #4169e1"/>
     <use xlink:href="#mfec869d213" x="200.013606" y="227.627673" style="fill: #4169e1; stroke: #4169e1"/>
     <use xlink:href="#mfec869d213" x="285.293414" y="127.756973" style="fill: #4169e1; stroke: #4169e1"/>
     <use xlink:href="#mfec869d213" x="170.02822" y="277.079602" style="fill: #4169e1; stroke: #4169e1"/>
     <use xlink:href="#mfec869d213" x="472.515919" y="214.283776" style="fill: #4169e1; stroke: #4169e1"/>
     <use xlink:href="#mfec869d213" x="267.042695" y="160.654056" style="fill: #4169e1; stroke: #4169e1"/>
     <use xlink:href="#mfec869d213" x="314.244938" y="145.968513" style="fill: #4169e1; stroke: #4169e1"/>
     <use xlink:href="#mfec869d213" x="262.730842" y="262.940869" style="fill: #4169e1; stroke: #4169e1"/>
     <use xlink:href="#mfec869d213" x="268.048139" y="219.278003" style="fill: #4169e1; stroke: #4169e1"/>
     <use xlink:href="#mfec869d213" x="350.590907" y="152.509465" style="fill: #4169e1; stroke: #4169e1"/>
     <use xlink:href="#mfec869d213" x="404.632387" y="104.798371" style="fill: #4169e1; stroke: #4169e1"/>
     <use xlink:href="#mfec869d213" x="344.237457" y="191.004661" style="fill: #4169e1; stroke: #4169e1"/>
     <use xlink:href="#mfec869d213" x="435.67788" y="167.960793" style="fill: #4169e1; stroke: #4169e1"/>
     <use xlink:href="#mfec869d213" x="329.615154" y="274.675623" style="fill: #4169e1; stroke: #4169e1"/>
     <use xlink:href="#mfec869d213" x="312.211264" y="134.20563" style="fill: #4169e1; stroke: #4169e1"/>
     <use xlink:href="#mfec869d213" x="322.343607" y="146.369147" style="fill: #4169e1; stroke: #4169e1"/>
     <use xlink:href="#mfec869d213" x="377.852938" y="207.474188" style="fill: #4169e1; stroke: #4169e1"/>
     <use xlink:href="#mfec869d213" x="238.929695" y="230.325686" style="fill: #4169e1; stroke: #4169e1"/>
     <use xlink:href="#mfec869d213" x="265.419192" y="105.552847" style="fill: #4169e1; stroke: #4169e1"/>
     <use xlink:href="#mfec869d213" x="291.712538" y="210.494719" style="fill: #4169e1; stroke: #4169e1"/>
     <use xlink:href="#mfec869d213" x="319.06323" y="100.789664" style="fill: #4169e1; stroke: #4169e1"/>
     <use xlink:href="#mfec869d213" x="256.124825" y="64.950099" style="fill: #4169e1; stroke: #4169e1"/>
     <use xlink:href="#mfec869d213" x="378.484603" y="180.367727" style="fill: #4169e1; stroke: #4169e1"/>
     <use xlink:href="#mfec869d213" x="357.994123" y="90.309473" style="fill: #4169e1; stroke: #4169e1"/>
     <use xlink:href="#mfec869d213" x="266.941841" y="97.338699" style="fill: #4169e1; stroke: #4169e1"/>
     <use xlink:href="#mfec869d213" x="182.546907" y="201.387266" style="fill: #4169e1; stroke: #4169e1"/>
     <use xlink:href="#mfec869d213" x="274.050442" y="280.370367" style="fill: #4169e1; stroke: #4169e1"/>
     <use xlink:href="#mfec869d213" x="329.345872" y="255.40342" style="fill: #4169e1; stroke: #4169e1"/>
     <use xlink:href="#mfec869d213" x="395.384045" y="153.310286" style="fill: #4169e1; stroke: #4169e1"/>
     <use xlink:href="#mfec869d213" x="215.028534" y="344.971909" style="fill: #4169e1; stroke: #4169e1"/>
     <use xlink:href="#mfec869d213" x="435.394061" y="107.969062" style="fill: #4169e1; stroke: #4169e1"/>
     <use xlink:href="#mfec869d213" x="295.032244" y="96.448763" style="fill: #4169e1; stroke: #4169e1"/>
     <use xlink:href="#mfec869d213" x="344.201257" y="303.158786" style="fill: #4169e1; stroke: #4169e1"/>
     <use xlink:href="#mfec869d213" x="344.946631" y="135.764913" style="fill: #4169e1; stroke: #4169e1"/>
     <use xlink:href="#mfec869d213" x="215.638665" y="250.353873" style="fill: #4169e1; stroke: #4169e1"/>
     <use xlink:href="#mfec869d213" x="253.694865" y="81.593171" style="fill: #4169e1; stroke: #4169e1"/>
     <use xlink:href="#mfec869d213" x="401.889433" y="133.424367" style="fill: #4169e1; stroke: #4169e1"/>
     <use xlink:href="#mfec869d213" x="338.330336" y="181.65831" style="fill: #4169e1; stroke: #4169e1"/>
     <use xlink:href="#mfec869d213" x="415.326229" y="180.78239" style="fill: #4169e1; stroke: #4169e1"/>
     <use xlink:href="#mfec869d213" x="356.746188" y="185.611838" style="fill: #4169e1; stroke: #4169e1"/>
     <use xlink:href="#mfec869d213" x="257.831894" y="135.488377" style="fill: #4169e1; stroke: #4169e1"/>
     <use xlink:href="#mfec869d213" x="368.492443" y="210.977097" style="fill: #4169e1; stroke: #4169e1"/>
     <use xlink:href="#mfec869d213" x="288.941364" y="274.433124" style="fill: #4169e1; stroke: #4169e1"/>
     <use xlink:href="#mfec869d213" x="206.916509" y="163.588302" style="fill: #4169e1; stroke: #4169e1"/>
     <use xlink:href="#mfec869d213" x="359.873784" y="188.331346" style="fill: #4169e1; stroke: #4169e1"/>
     <use xlink:href="#mfec869d213" x="240.488038" y="308.698685" style="fill: #4169e1; stroke: #4169e1"/>
     <use xlink:href="#mfec869d213" x="352.428527" y="183.869383" style="fill: #4169e1; stroke: #4169e1"/>
     <use xlink:href="#mfec869d213" x="427.842459" y="161.382599" style="fill: #4169e1; stroke: #4169e1"/>
     <use xlink:href="#mfec869d213" x="358.608504" y="229.481047" style="fill: #4169e1; stroke: #4169e1"/>
     <use xlink:href="#mfec869d213" x="270.854094" y="264.950326" style="fill: #4169e1; stroke: #4169e1"/>
     <use xlink:href="#mfec869d213" x="412.945003" y="101.681915" style="fill: #4169e1; stroke: #4169e1"/>
     <use xlink:href="#mfec869d213" x="337.70066" y="172.010952" style="fill: #4169e1; stroke: #4169e1"/>
     <use xlink:href="#mfec869d213" x="396.836786" y="134.282015" style="fill: #4169e1; stroke: #4169e1"/>
     <use xlink:href="#mfec869d213" x="456.686202" y="135.977442" style="fill: #4169e1; stroke: #4169e1"/>
     <use xlink:href="#mfec869d213" x="354.295973" y="322.34757" style="fill: #4169e1; stroke: #4169e1"/>
     <use xlink:href="#mfec869d213" x="217.865456" y="221.356811" style="fill: #4169e1; stroke: #4169e1"/>
     <use xlink:href="#mfec869d213" x="317.851787" y="271.553614" style="fill: #4169e1; stroke: #4169e1"/>
     <use xlink:href="#mfec869d213" x="407.38698" y="131.792704" style="fill: #4169e1; stroke: #4169e1"/>
     <use xlink:href="#mfec869d213" x="236.852898" y="306.998811" style="fill: #4169e1; stroke: #4169e1"/>
     <use xlink:href="#mfec869d213" x="242.33806" y="238.060804" style="fill: #4169e1; stroke: #4169e1"/>
     <use xlink:href="#mfec869d213" x="283.542213" y="178.182425" style="fill: #4169e1; stroke: #4169e1"/>
     <use xlink:href="#mfec869d213" x="421.825554" y="173.487915" style="fill: #4169e1; stroke: #4169e1"/>
     <use xlink:href="#mfec869d213" x="328.290431" y="212.54303" style="fill: #4169e1; stroke: #4169e1"/>
     <use xlink:href="#mfec869d213" x="460.012615" y="196.096681" style="fill: #4169e1; stroke: #4169e1"/>
     <use xlink:href="#mfec869d213" x="245.932081" y="285.564399" style="fill: #4169e1; stroke: #4169e1"/>
     <use xlink:href="#mfec869d213" x="361.215781" y="118.259463" style="fill: #4169e1; stroke: #4169e1"/>
     <use xlink:href="#mfec869d213" x="251.388781" y="220.931888" style="fill: #4169e1; stroke: #4169e1"/>
     <use xlink:href="#mfec869d213" x="305.201792" y="88.519896" style="fill: #4169e1; stroke: #4169e1"/>
     <use xlink:href="#mfec869d213" x="412.739255" y="191.815934" style="fill: #4169e1; stroke: #4169e1"/>
     <use xlink:href="#mfec869d213" x="291.316772" y="171.959498" style="fill: #4169e1; stroke: #4169e1"/>
     <use xlink:href="#mfec869d213" x="225.645084" y="216.006224" style="fill: #4169e1; stroke: #4169e1"/>
     <use xlink:href="#mfec869d213" x="332.201336" y="232.630398" style="fill: #4169e1; stroke: #4169e1"/>
     <use xlink:href="#mfec869d213" x="208.728257" y="275.849382" style="fill: #4169e1; stroke: #4169e1"/>
     <use xlink:href="#mfec869d213" x="413.144565" y="237.796281" style="fill: #4169e1; stroke: #4169e1"/>
     <use xlink:href="#mfec869d213" x="372.504683" y="246.53136" style="fill: #4169e1; stroke: #4169e1"/>
     <use xlink:href="#mfec869d213" x="238.610769" y="171.098777" style="fill: #4169e1; stroke: #4169e1"/>
     <use xlink:href="#mfec869d213" x="431.024696" y="260.48952" style="fill: #4169e1; stroke: #4169e1"/>
     <use xlink:href="#mfec869d213" x="250.89784" y="259.106248" style="fill: #4169e1; stroke: #4169e1"/>
     <use xlink:href="#mfec869d213" x="273.189991" y="233.204197" style="fill: #4169e1; stroke: #4169e1"/>
     <use xlink:href="#mfec869d213" x="263.416931" y="100.677173" style="fill: #4169e1; stroke: #4169e1"/>
     <use xlink:href="#mfec869d213" x="246.785337" y="272.243728" style="fill: #4169e1; stroke: #4169e1"/>
     <use xlink:href="#mfec869d213" x="366.51244" y="163.461558" style="fill: #4169e1; stroke: #4169e1"/>
     <use xlink:href="#mfec869d213" x="324.837166" y="252.420794" style="fill: #4169e1; stroke: #4169e1"/>
     <use xlink:href="#mfec869d213" x="363.710297" y="161.821145" style="fill: #4169e1; stroke: #4169e1"/>
     <use xlink:href="#mfec869d213" x="325.936542" y="221.699443" style="fill: #4169e1; stroke: #4169e1"/>
     <use xlink:href="#mfec869d213" x="175.48188" y="197.124189" style="fill: #4169e1; stroke: #4169e1"/>
     <use xlink:href="#mfec869d213" x="303.473571" y="128.694012" style="fill: #4169e1; stroke: #4169e1"/>
     <use xlink:href="#mfec869d213" x="380.127859" y="113.412252" style="fill: #4169e1; stroke: #4169e1"/>
     <use xlink:href="#mfec869d213" x="197.307164" y="180.465027" style="fill: #4169e1; stroke: #4169e1"/>
     <use xlink:href="#mfec869d213" x="366.83888" y="84.980493" style="fill: #4169e1; stroke: #4169e1"/>
     <use xlink:href="#mfec869d213" x="329.302468" y="259.589747" style="fill: #4169e1; stroke: #4169e1"/>
     <use xlink:href="#mfec869d213" x="276.72196" y="194.834914" style="fill: #4169e1; stroke: #4169e1"/>
     <use xlink:href="#mfec869d213" x="248.491254" y="299.506432" style="fill: #4169e1; stroke: #4169e1"/>
     <use xlink:href="#mfec869d213" x="304.288629" y="270.969037" style="fill: #4169e1; stroke: #4169e1"/>
     <use xlink:href="#mfec869d213" x="356.797859" y="274.939494" style="fill: #4169e1; stroke: #4169e1"/>
     <use xlink:href="#mfec869d213" x="324.931868" y="196.899563" style="fill: #4169e1; stroke: #4169e1"/>
     <use xlink:href="#mfec869d213" x="312.508689" y="235.83416" style="fill: #4169e1; stroke: #4169e1"/>
     <use xlink:href="#mfec869d213" x="394.91493" y="258.624525" style="fill: #4169e1; stroke: #4169e1"/>
     <use xlink:href="#mfec869d213" x="257.732878" y="108.683543" style="fill: #4169e1; stroke: #4169e1"/>
     <use xlink:href="#mfec869d213" x="334.01165" y="97.101712" style="fill: #4169e1; stroke: #4169e1"/>
     <use xlink:href="#mfec869d213" x="360.756378" y="267.053611" style="fill: #4169e1; stroke: #4169e1"/>
     <use xlink:href="#mfec869d213" x="443.779185" y="210.743685" style="fill: #4169e1; stroke: #4169e1"/>
     <use xlink:href="#mfec869d213" x="347.049744" y="274.286284" style="fill: #4169e1; stroke: #4169e1"/>
     <use xlink:href="#mfec869d213" x="250.527606" y="306.369027" style="fill: #4169e1; stroke: #4169e1"/>
     <use xlink:href="#mfec869d213" x="317.753081" y="186.906198" style="fill: #4169e1; stroke: #4169e1"/>
     <use xlink:href="#mfec869d213" x="214.919657" y="255.949095" style="fill: #4169e1; stroke: #4169e1"/>
     <use xlink:href="#mfec869d213" x="404.93621" y="270.615536" style="fill: #4169e1; stroke: #4169e1"/>
     <use xlink:href="#mfec869d213" x="218.576566" y="188.806991" style="fill: #4169e1; stroke: #4169e1"/>
     <use xlink:href="#mfec869d213" x="341.754155" y="267.944282" style="fill: #4169e1; stroke: #4169e1"/>
     <use xlink:href="#mfec869d213" x="239.779033" y="241.143918" style="fill: #4169e1; stroke: #4169e1"/>
     <use xlink:href="#mfec869d213" x="382.435096" y="193.730262" style="fill: #4169e1; stroke: #4169e1"/>
     <use xlink:href="#mfec869d213" x="279.031304" y="259.904392" style="fill: #4169e1; stroke: #4169e1"/>
     <use xlink:href="#mfec869d213" x="275.244055" y="172.635004" style="fill: #4169e1; stroke: #4169e1"/>
     <use xlink:href="#mfec869d213" x="316.385729" y="197.077598" style="fill: #4169e1; stroke: #4169e1"/>
     <use xlink:href="#mfec869d213" x="255.08621" y="221.299475" style="fill: #4169e1; stroke: #4169e1"/>
     <use xlink:href="#mfec869d213" x="348.085712" y="314.422905" style="fill: #4169e1; stroke: #4169e1"/>
     <use xlink:href="#mfec869d213" x="227.072529" y="343.863027" style="fill: #4169e1; stroke: #4169e1"/>
     <use xlink:href="#mfec869d213" x="485.996596" y="235.355618" style="fill: #4169e1; stroke: #4169e1"/>
     <use xlink:href="#mfec869d213" x="330.080878" y="183.551974" style="fill: #4169e1; stroke: #4169e1"/>
     <use xlink:href="#mfec869d213" x="262.802873" y="151.459482" style="fill: #4169e1; stroke: #4169e1"/>
     <use xlink:href="#mfec869d213" x="356.737735" y="263.947716" style="fill: #4169e1; stroke: #4169e1"/>
     <use xlink:href="#mfec869d213" x="311.542184" y="272.373641" style="fill: #4169e1; stroke: #4169e1"/>
     <use xlink:href="#mfec869d213" x="323.655137" y="208.52385" style="fill: #4169e1; stroke: #4169e1"/>
     <use xlink:href="#mfec869d213" x="431.747" y="228.717675" style="fill: #4169e1; stroke: #4169e1"/>
     <use xlink:href="#mfec869d213" x="235.319412" y="230.141747" style="fill: #4169e1; stroke: #4169e1"/>
     <use xlink:href="#mfec869d213" x="469.44758" y="105.50856" style="fill: #4169e1; stroke: #4169e1"/>
     <use xlink:href="#mfec869d213" x="302.349737" y="164.319498" style="fill: #4169e1; stroke: #4169e1"/>
     <use xlink:href="#mfec869d213" x="224.910931" y="256.825831" style="fill: #4169e1; stroke: #4169e1"/>
     <use xlink:href="#mfec869d213" x="318.819577" y="285.177226" style="fill: #4169e1; stroke: #4169e1"/>
     <use xlink:href="#mfec869d213" x="376.53349" y="233.152945" style="fill: #4169e1; stroke: #4169e1"/>
     <use xlink:href="#mfec869d213" x="455.111346" y="92.642826" style="fill: #4169e1; stroke: #4169e1"/>
     <use xlink:href="#mfec869d213" x="409.186926" y="170.665408" style="fill: #4169e1; stroke: #4169e1"/>
     <use xlink:href="#mfec869d213" x="368.474252" y="162.877848" style="fill: #4169e1; stroke: #4169e1"/>
     <use xlink:href="#mfec869d213" x="281.37659" y="303.488408" style="fill: #4169e1; stroke: #4169e1"/>
     <use xlink:href="#mfec869d213" x="207.629115" y="205.089371" style="fill: #4169e1; stroke: #4169e1"/>
     <use xlink:href="#mfec869d213" x="453.094012" y="220.284956" style="fill: #4169e1; stroke: #4169e1"/>
     <use xlink:href="#mfec869d213" x="333.092958" y="213.35141" style="fill: #4169e1; stroke: #4169e1"/>
     <use xlink:href="#mfec869d213" x="444.54269" y="260.917282" style="fill: #4169e1; stroke: #4169e1"/>
     <use xlink:href="#mfec869d213" x="478.680912" y="137.01322" style="fill: #4169e1; stroke: #4169e1"/>
     <use xlink:href="#mfec869d213" x="308.924434" y="226.373091" style="fill: #4169e1; stroke: #4169e1"/>
     <use xlink:href="#mfec869d213" x="342.168297" y="154.784298" style="fill: #4169e1; stroke: #4169e1"/>
     <use xlink:href="#mfec869d213" x="276.149989" y="225.358316" style="fill: #4169e1; stroke: #4169e1"/>
     <use xlink:href="#mfec869d213" x="233.18598" y="222.067035" style="fill: #4169e1; stroke: #4169e1"/>
    </g>
   </g>
   <g id="PathCollection_2">
    <defs>
     <path id="m6383c9c48f" d="M 0 2.5 
C 0.663008 2.5 1.29895 2.236584 1.767767 1.767767 
C 2.236584 1.29895 2.5 0.663008 2.5 0 
C 2.5 -0.663008 2.236584 -1.29895 1.767767 -1.767767 
C 1.29895 -2.236584 0.663008 -2.5 0 -2.5 
C -0.663008 -2.5 -1.29895 -2.236584 -1.767767 -1.767767 
C -2.236584 -1.29895 -2.5 -0.663008 -2.5 0 
C -2.5 0.663008 -2.236584 1.29895 -1.767767 1.767767 
C -1.29895 2.236584 -0.663008 2.5 0 2.5 
z
" style="stroke: #b22222"/>
    </defs>
    <g clip-path="url(#pca43aa426f)">
     <use xlink:href="#m6383c9c48f" x="260.539993" y="167.022448" style="fill: #b22222; stroke: #b22222"/>
     <use xlink:href="#m6383c9c48f" x="287.879222" y="226.978082" style="fill: #b22222; stroke: #b22222"/>
     <use xlink:href="#m6383c9c48f" x="267.954864" y="180.784508" style="fill: #b22222; stroke: #b22222"/>
     <use xlink:href="#m6383c9c48f" x="256.87934" y="173.646253" style="fill: #b22222; stroke: #b22222"/>
     <use xlink:href="#m6383c9c48f" x="260.186346" y="153.227214" style="fill: #b22222; stroke: #b22222"/>
     <use xlink:href="#m6383c9c48f" x="272.997724" y="180.583511" style="fill: #b22222; stroke: #b22222"/>
     <use xlink:href="#m6383c9c48f" x="288.702887" y="220.053016" style="fill: #b22222; stroke: #b22222"/>
     <use xlink:href="#m6383c9c48f" x="261.602804" y="163.749999" style="fill: #b22222; stroke: #b22222"/>
     <use xlink:href="#m6383c9c48f" x="258.772124" y="167.61677" style="fill: #b22222; stroke: #b22222"/>
     <use xlink:href="#m6383c9c48f" x="254.161894" y="157.142535" style="fill: #b22222; stroke: #b22222"/>
     <use xlink:href="#m6383c9c48f" x="246.260806" y="157.125251" style="fill: #b22222; stroke: #b22222"/>
     <use xlink:href="#m6383c9c48f" x="238.269548" y="160.358786" style="fill: #b22222; stroke: #b22222"/>
     <use xlink:href="#m6383c9c48f" x="263.30596" y="178.516324" style="fill: #b22222; stroke: #b22222"/>
     <use xlink:href="#m6383c9c48f" x="256.831343" y="164.34512" style="fill: #b22222; stroke: #b22222"/>
     <use xlink:href="#m6383c9c48f" x="250.577854" y="166.565968" style="fill: #b22222; stroke: #b22222"/>
     <use xlink:href="#m6383c9c48f" x="244.27333" y="155.123807" style="fill: #b22222; stroke: #b22222"/>
     <use xlink:href="#m6383c9c48f" x="269.5363" y="186.331201" style="fill: #b22222; stroke: #b22222"/>
     <use xlink:href="#m6383c9c48f" x="256.574908" y="164.19538" style="fill: #b22222; stroke: #b22222"/>
     <use xlink:href="#m6383c9c48f" x="255.689615" y="168.07907" style="fill: #b22222; stroke: #b22222"/>
     <use xlink:href="#m6383c9c48f" x="257.898115" y="160.064972" style="fill: #b22222; stroke: #b22222"/>
     <use xlink:href="#m6383c9c48f" x="282.485492" y="147.692689" style="fill: #b22222; stroke: #b22222"/>
     <use xlink:href="#m6383c9c48f" x="242.265065" y="167.354527" style="fill: #b22222; stroke: #b22222"/>
     <use xlink:href="#m6383c9c48f" x="266.224694" y="149.196776" style="fill: #b22222; stroke: #b22222"/>
     <use xlink:href="#m6383c9c48f" x="253.589673" y="165.443119" style="fill: #b22222; stroke: #b22222"/>
     <use xlink:href="#m6383c9c48f" x="273.249032" y="149.552108" style="fill: #b22222; stroke: #b22222"/>
     <use xlink:href="#m6383c9c48f" x="249.570486" y="159.62983" style="fill: #b22222; stroke: #b22222"/>
     <use xlink:href="#m6383c9c48f" x="277.118614" y="173.889381" style="fill: #b22222; stroke: #b22222"/>
     <use xlink:href="#m6383c9c48f" x="364.852231" y="145.80963" style="fill: #b22222; stroke: #b22222"/>
     <use xlink:href="#m6383c9c48f" x="255.919222" y="154.531448" style="fill: #b22222; stroke: #b22222"/>
     <use xlink:href="#m6383c9c48f" x="267.70555" y="140.724059" style="fill: #b22222; stroke: #b22222"/>
     <use xlink:href="#m6383c9c48f" x="245.469936" y="155.544406" style="fill: #b22222; stroke: #b22222"/>
     <use xlink:href="#m6383c9c48f" x="259.924972" y="148.463448" style="fill: #b22222; stroke: #b22222"/>
     <use xlink:href="#m6383c9c48f" x="266.032207" y="145.208121" style="fill: #b22222; stroke: #b22222"/>
     <use xlink:href="#m6383c9c48f" x="275.84717" y="148.193151" style="fill: #b22222; stroke: #b22222"/>
     <use xlink:href="#m6383c9c48f" x="265.463601" y="175.438588" style="fill: #b22222; stroke: #b22222"/>
     <use xlink:href="#m6383c9c48f" x="278.81978" y="161.579373" style="fill: #b22222; stroke: #b22222"/>
     <use xlink:href="#m6383c9c48f" x="256.856307" y="162.766305" style="fill: #b22222; stroke: #b22222"/>
     <use xlink:href="#m6383c9c48f" x="261.787596" y="152.109488" style="fill: #b22222; stroke: #b22222"/>
     <use xlink:href="#m6383c9c48f" x="255.640811" y="177.475098" style="fill: #b22222; stroke: #b22222"/>
     <use xlink:href="#m6383c9c48f" x="252.663077" y="148.954104" style="fill: #b22222; stroke: #b22222"/>
     <use xlink:href="#m6383c9c48f" x="266.405155" y="168.542758" style="fill: #b22222; stroke: #b22222"/>
     <use xlink:href="#m6383c9c48f" x="269.207289" y="175.610627" style="fill: #b22222; stroke: #b22222"/>
     <use xlink:href="#m6383c9c48f" x="252.91482" y="154.532186" style="fill: #b22222; stroke: #b22222"/>
     <use xlink:href="#m6383c9c48f" x="272.348039" y="175.41881" style="fill: #b22222; stroke: #b22222"/>
     <use xlink:href="#m6383c9c48f" x="279.996182" y="168.420237" style="fill: #b22222; stroke: #b22222"/>
     <use xlink:href="#m6383c9c48f" x="305.365417" y="212.841808" style="fill: #b22222; stroke: #b22222"/>
     <use xlink:href="#m6383c9c48f" x="262.019682" y="170.860139" style="fill: #b22222; stroke: #b22222"/>
     <use xlink:href="#m6383c9c48f" x="255.878944" y="157.373574" style="fill: #b22222; stroke: #b22222"/>
     <use xlink:href="#m6383c9c48f" x="249.028305" y="170.605786" style="fill: #b22222; stroke: #b22222"/>
     <use xlink:href="#m6383c9c48f" x="314.187177" y="207.157545" style="fill: #b22222; stroke: #b22222"/>
     <use xlink:href="#m6383c9c48f" x="253.008046" y="160.011278" style="fill: #b22222; stroke: #b22222"/>
     <use xlink:href="#m6383c9c48f" x="275.79565" y="188.284328" style="fill: #b22222; stroke: #b22222"/>
     <use xlink:href="#m6383c9c48f" x="245.792841" y="158.117141" style="fill: #b22222; stroke: #b22222"/>
     <use xlink:href="#m6383c9c48f" x="353.75839" y="185.266421" style="fill: #b22222; stroke: #b22222"/>
     <use xlink:href="#m6383c9c48f" x="259.404701" y="154.423654" style="fill: #b22222; stroke: #b22222"/>
    </g>
   </g>
   <g id="patch_4">
    <path d="M 56.450156 450.72 
L 56.450156 7.2 
" style="fill: none; stroke: #ffffff; stroke-width: 1.25; stroke-linejoin: miter; stroke-linecap: square"/>
   </g>
   <g id="patch_5">
    <path d="M 499.970156 450.72 
L 499.970156 7.2 
" style="fill: none; stroke: #ffffff; stroke-width: 1.25; stroke-linejoin: miter; stroke-linecap: square"/>
   </g>
   <g id="patch_6">
    <path d="M 56.450156 450.72 
L 499.970156 450.72 
" style="fill: none; stroke: #ffffff; stroke-width: 1.25; stroke-linejoin: miter; stroke-linecap: square"/>
   </g>
   <g id="patch_7">
    <path d="M 56.450156 7.2 
L 499.970156 7.2 
" style="fill: none; stroke: #ffffff; stroke-width: 1.25; stroke-linejoin: miter; stroke-linecap: square"/>
   </g>
   <g id="text_13">
    <!-- t = 2300 -->
    <g style="fill: #262626" transform="translate(65.320556 24.659775) scale(0.12 -0.12)">
     <defs>
      <path id="ArialMT-74" d="M 1650 503 
L 1731 6 
Q 1494 -44 1306 -44 
Q 1000 -44 831 53 
Q 663 150 594 308 
Q 525 466 525 972 
L 525 2881 
L 113 2881 
L 113 3319 
L 525 3319 
L 525 4141 
L 1084 4478 
L 1084 3319 
L 1650 3319 
L 1650 2881 
L 1084 2881 
L 1084 941 
Q 1084 700 1114 631 
Q 1144 563 1211 522 
Q 1278 481 1403 481 
Q 1497 481 1650 503 
z
" transform="scale(0.015625)"/>
      <path id="ArialMT-20" transform="scale(0.015625)"/>
      <path id="ArialMT-3d" d="M 3381 2694 
L 356 2694 
L 356 3219 
L 3381 3219 
L 3381 2694 
z
M 3381 1303 
L 356 1303 
L 356 1828 
L 3381 1828 
L 3381 1303 
z
" transform="scale(0.015625)"/>
      <path id="ArialMT-33" d="M 269 1209 
L 831 1284 
Q 928 806 1161 595 
Q 1394 384 1728 384 
Q 2125 384 2398 659 
Q 2672 934 2672 1341 
Q 2672 1728 2419 1979 
Q 2166 2231 1775 2231 
Q 1616 2231 1378 2169 
L 1441 2663 
Q 1497 2656 1531 2656 
Q 1891 2656 2178 2843 
Q 2466 3031 2466 3422 
Q 2466 3731 2256 3934 
Q 2047 4138 1716 4138 
Q 1388 4138 1169 3931 
Q 950 3725 888 3313 
L 325 3413 
Q 428 3978 793 4289 
Q 1159 4600 1703 4600 
Q 2078 4600 2393 4439 
Q 2709 4278 2876 4000 
Q 3044 3722 3044 3409 
Q 3044 3113 2884 2869 
Q 2725 2625 2413 2481 
Q 2819 2388 3044 2092 
Q 3269 1797 3269 1353 
Q 3269 753 2831 336 
Q 2394 -81 1725 -81 
Q 1122 -81 723 278 
Q 325 638 269 1209 
z
" transform="scale(0.015625)"/>
     </defs>
     <use xlink:href="#ArialMT-74"/>
     <use xlink:href="#ArialMT-20" x="27.783203"/>
     <use xlink:href="#ArialMT-3d" x="55.566406"/>
     <use xlink:href="#ArialMT-20" x="113.964844"/>
     <use xlink:href="#ArialMT-32" x="141.748047"/>
     <use xlink:href="#ArialMT-33" x="197.363281"/>
     <use xlink:href="#ArialMT-30" x="252.978516"/>
     <use xlink:href="#ArialMT-30" x="308.59375"/>
    </g>
   </g>
   <g id="legend_1">
    <g id="patch_8">
     <path d="M 328.111406 94.59 
L 483.170156 94.59 
Q 487.970156 94.59 487.970156 89.79 
L 487.970156 24 
Q 487.970156 19.2 483.170156 19.2 
L 328.111406 19.2 
Q 323.311406 19.2 323.311406 24 
L 323.311406 89.79 
Q 323.311406 94.59 328.111406 94.59 
z
" style="fill: #eaeaf2; opacity: 0.8; stroke: #cccccc; stroke-linejoin: miter"/>
    </g>
    <g id="PathCollection_3">
     <g>
      <use xlink:href="#mfec869d213" x="356.911406" y="39.97125" style="fill: #4169e1; stroke: #4169e1"/>
     </g>
    </g>
    <g id="text_14">
     <!-- Sheep -->
     <g style="fill: #262626" transform="translate(400.111406 46.27125) scale(0.24 -0.24)">
      <defs>
       <path id="ArialMT-53" d="M 288 1472 
L 859 1522 
Q 900 1178 1048 958 
Q 1197 738 1509 602 
Q 1822 466 2213 466 
Q 2559 466 2825 569 
Q 3091 672 3220 851 
Q 3350 1031 3350 1244 
Q 3350 1459 3225 1620 
Q 3100 1781 2813 1891 
Q 2628 1963 1997 2114 
Q 1366 2266 1113 2400 
Q 784 2572 623 2826 
Q 463 3081 463 3397 
Q 463 3744 659 4045 
Q 856 4347 1234 4503 
Q 1613 4659 2075 4659 
Q 2584 4659 2973 4495 
Q 3363 4331 3572 4012 
Q 3781 3694 3797 3291 
L 3216 3247 
Q 3169 3681 2898 3903 
Q 2628 4125 2100 4125 
Q 1550 4125 1298 3923 
Q 1047 3722 1047 3438 
Q 1047 3191 1225 3031 
Q 1400 2872 2139 2705 
Q 2878 2538 3153 2413 
Q 3553 2228 3743 1945 
Q 3934 1663 3934 1294 
Q 3934 928 3725 604 
Q 3516 281 3123 101 
Q 2731 -78 2241 -78 
Q 1619 -78 1198 103 
Q 778 284 539 648 
Q 300 1013 288 1472 
z
" transform="scale(0.015625)"/>
       <path id="ArialMT-68" d="M 422 0 
L 422 4581 
L 984 4581 
L 984 2938 
Q 1378 3394 1978 3394 
Q 2347 3394 2619 3248 
Q 2891 3103 3008 2847 
Q 3125 2591 3125 2103 
L 3125 0 
L 2563 0 
L 2563 2103 
Q 2563 2525 2380 2717 
Q 2197 2909 1863 2909 
Q 1613 2909 1392 2779 
Q 1172 2650 1078 2428 
Q 984 2206 984 1816 
L 984 0 
L 422 0 
z
" transform="scale(0.015625)"/>
       <path id="ArialMT-65" d="M 2694 1069 
L 3275 997 
Q 3138 488 2766 206 
Q 2394 -75 1816 -75 
Q 1088 -75 661 373 
Q 234 822 234 1631 
Q 234 2469 665 2931 
Q 1097 3394 1784 3394 
Q 2450 3394 2872 2941 
Q 3294 2488 3294 1666 
Q 3294 1616 3291 1516 
L 816 1516 
Q 847 969 1125 678 
Q 1403 388 1819 388 
Q 2128 388 2347 550 
Q 2566 713 2694 1069 
z
M 847 1978 
L 2700 1978 
Q 2663 2397 2488 2606 
Q 2219 2931 1791 2931 
Q 1403 2931 1139 2672 
Q 875 2413 847 1978 
z
" transform="scale(0.015625)"/>
       <path id="ArialMT-70" d="M 422 -1272 
L 422 3319 
L 934 3319 
L 934 2888 
Q 1116 3141 1344 3267 
Q 1572 3394 1897 3394 
Q 2322 3394 2647 3175 
Q 2972 2956 3137 2557 
Q 3303 2159 3303 1684 
Q 3303 1175 3120 767 
Q 2938 359 2589 142 
Q 2241 -75 1856 -75 
Q 1575 -75 1351 44 
Q 1128 163 984 344 
L 984 -1272 
L 422 -1272 
z
M 931 1641 
Q 931 1000 1190 694 
Q 1450 388 1819 388 
Q 2194 388 2461 705 
Q 2728 1022 2728 1688 
Q 2728 2322 2467 2637 
Q 2206 2953 1844 2953 
Q 1484 2953 1207 2617 
Q 931 2281 931 1641 
z
" transform="scale(0.015625)"/>
      </defs>
      <use xlink:href="#ArialMT-53"/>
      <use xlink:href="#ArialMT-68" x="66.699219"/>
      <use xlink:href="#ArialMT-65" x="122.314453"/>
      <use xlink:href="#ArialMT-65" x="177.929688"/>
      <use xlink:href="#ArialMT-70" x="233.544922"/>
     </g>
    </g>
    <g id="PathCollection_4">
     <g>
      <use xlink:href="#m6383c9c48f" x="356.911406" y="73.92" style="fill: #b22222; stroke: #b22222"/>
     </g>
    </g>
    <g id="text_15">
     <!-- Wolves -->
     <g style="fill: #262626" transform="translate(400.111406 80.22) scale(0.24 -0.24)">
      <defs>
       <path id="ArialMT-57" d="M 1294 0 
L 78 4581 
L 700 4581 
L 1397 1578 
Q 1509 1106 1591 641 
Q 1766 1375 1797 1488 
L 2669 4581 
L 3400 4581 
L 4056 2263 
Q 4303 1400 4413 641 
Q 4500 1075 4641 1638 
L 5359 4581 
L 5969 4581 
L 4713 0 
L 4128 0 
L 3163 3491 
Q 3041 3928 3019 4028 
Q 2947 3713 2884 3491 
L 1913 0 
L 1294 0 
z
" transform="scale(0.015625)"/>
       <path id="ArialMT-6f" d="M 213 1659 
Q 213 2581 725 3025 
Q 1153 3394 1769 3394 
Q 2453 3394 2887 2945 
Q 3322 2497 3322 1706 
Q 3322 1066 3130 698 
Q 2938 331 2570 128 
Q 2203 -75 1769 -75 
Q 1072 -75 642 372 
Q 213 819 213 1659 
z
M 791 1659 
Q 791 1022 1069 705 
Q 1347 388 1769 388 
Q 2188 388 2466 706 
Q 2744 1025 2744 1678 
Q 2744 2294 2464 2611 
Q 2184 2928 1769 2928 
Q 1347 2928 1069 2612 
Q 791 2297 791 1659 
z
" transform="scale(0.015625)"/>
       <path id="ArialMT-6c" d="M 409 0 
L 409 4581 
L 972 4581 
L 972 0 
L 409 0 
z
" transform="scale(0.015625)"/>
       <path id="ArialMT-76" d="M 1344 0 
L 81 3319 
L 675 3319 
L 1388 1331 
Q 1503 1009 1600 663 
Q 1675 925 1809 1294 
L 2547 3319 
L 3125 3319 
L 1869 0 
L 1344 0 
z
" transform="scale(0.015625)"/>
       <path id="ArialMT-73" d="M 197 991 
L 753 1078 
Q 800 744 1014 566 
Q 1228 388 1613 388 
Q 2000 388 2187 545 
Q 2375 703 2375 916 
Q 2375 1106 2209 1216 
Q 2094 1291 1634 1406 
Q 1016 1563 777 1677 
Q 538 1791 414 1992 
Q 291 2194 291 2438 
Q 291 2659 392 2848 
Q 494 3038 669 3163 
Q 800 3259 1026 3326 
Q 1253 3394 1513 3394 
Q 1903 3394 2198 3281 
Q 2494 3169 2634 2976 
Q 2775 2784 2828 2463 
L 2278 2388 
Q 2241 2644 2061 2787 
Q 1881 2931 1553 2931 
Q 1166 2931 1000 2803 
Q 834 2675 834 2503 
Q 834 2394 903 2306 
Q 972 2216 1119 2156 
Q 1203 2125 1616 2013 
Q 2213 1853 2448 1751 
Q 2684 1650 2818 1456 
Q 2953 1263 2953 975 
Q 2953 694 2789 445 
Q 2625 197 2315 61 
Q 2006 -75 1616 -75 
Q 969 -75 630 194 
Q 291 463 197 991 
z
" transform="scale(0.015625)"/>
      </defs>
      <use xlink:href="#ArialMT-57"/>
      <use xlink:href="#ArialMT-6f" x="92.634766"/>
      <use xlink:href="#ArialMT-6c" x="148.25"/>
      <use xlink:href="#ArialMT-76" x="170.466797"/>
      <use xlink:href="#ArialMT-65" x="220.466797"/>
      <use xlink:href="#ArialMT-73" x="276.082031"/>
     </g>
    </g>
   </g>
  </g>
 </g>
 <defs>
  <clipPath id="pca43aa426f">
   <rect x="56.450156" y="7.2" width="443.52" height="443.52"/>
  </clipPath>
 </defs>
</svg>
