<?xml version="1.0" encoding="utf-8" standalone="no"?>
<!DOCTYPE svg PUBLIC "-//W3C//DTD SVG 1.1//EN"
  "http://www.w3.org/Graphics/SVG/1.1/DTD/svg11.dtd">
<svg xmlns:xlink="http://www.w3.org/1999/xlink" width="507.170156pt" height="492.454219pt" viewBox="0 0 507.170156 492.454219" xmlns="http://www.w3.org/2000/svg" version="1.1">
 <metadata>
  <rdf:RDF xmlns:dc="http://purl.org/dc/elements/1.1/" xmlns:cc="http://creativecommons.org/ns#" xmlns:rdf="http://www.w3.org/1999/02/22-rdf-syntax-ns#">
   <cc:Work>
    <dc:type rdf:resource="http://purl.org/dc/dcmitype/StillImage"/>
    <dc:date>2026-05-12T10:43:19.594065</dc:date>
    <dc:format>image/svg+xml</dc:format>
    <dc:creator>
     <cc:Agent>
      <dc:title>Matplotlib v3.7.1, https://matplotlib.org/</dc:title>
     </cc:Agent>
    </dc:creator>
   </cc:Work>
  </rdf:RDF>
 </metadata>
 <defs>
  <style type="text/css">*{stroke-linejoin: round; stroke-linecap: butt}</style>
 </defs>
 <g id="figure_1">
  <g id="patch_1">
   <path d="M 0 492.454219 
L 507.170156 492.454219 
L 507.170156 0 
L 0 0 
z
" style="fill: #ffffff"/>
  </g>
  <g id="axes_1">
   <g id="patch_2">
    <path d="M 56.450156 450.72 
L 499.970156 450.72 
L 499.970156 7.2 
L 56.450156 7.2 
z
" style="fill: #eaeaf2"/>
   </g>
   <g id="matplotlib.axis_1">
    <g id="xtick_1">
     <g id="line2d_1">
      <path d="M 100.802156 450.72 
L 100.802156 7.2 
" clip-path="url(#p481d7fb9bf)" style="fill: none; stroke: #ffffff; stroke-linecap: round"/>
     </g>
     <g id="text_1">
      <!-- −400 -->
      <g style="fill: #262626" transform="translate(88.414266 468.093594) scale(0.11 -0.11)">
       <defs>
        <path id="ArialMT-2212" d="M 3381 1997 
L 356 1997 
L 356 2522 
L 3381 2522 
L 3381 1997 
z
" transform="scale(0.015625)"/>
        <path id="ArialMT-34" d="M 2069 0 
L 2069 1097 
L 81 1097 
L 81 1613 
L 2172 4581 
L 2631 4581 
L 2631 1613 
L 3250 1613 
L 3250 1097 
L 2631 1097 
L 2631 0 
L 2069 0 
z
M 2069 1613 
L 2069 3678 
L 634 1613 
L 2069 1613 
z
" transform="scale(0.015625)"/>
        <path id="ArialMT-30" d="M 266 2259 
Q 266 3072 433 3567 
Q 600 4063 929 4331 
Q 1259 4600 1759 4600 
Q 2128 4600 2406 4451 
Q 2684 4303 2865 4023 
Q 3047 3744 3150 3342 
Q 3253 2941 3253 2259 
Q 3253 1453 3087 958 
Q 2922 463 2592 192 
Q 2263 -78 1759 -78 
Q 1097 -78 719 397 
Q 266 969 266 2259 
z
M 844 2259 
Q 844 1131 1108 757 
Q 1372 384 1759 384 
Q 2147 384 2411 759 
Q 2675 1134 2675 2259 
Q 2675 3391 2411 3762 
Q 2147 4134 1753 4134 
Q 1366 4134 1134 3806 
Q 844 3388 844 2259 
z
" transform="scale(0.015625)"/>
       </defs>
       <use xlink:href="#ArialMT-2212"/>
       <use xlink:href="#ArialMT-34" x="58.398438"/>
       <use xlink:href="#ArialMT-30" x="114.013672"/>
       <use xlink:href="#ArialMT-30" x="169.628906"/>
      </g>
     </g>
    </g>
    <g id="xtick_2">
     <g id="line2d_2">
      <path d="M 189.506156 450.72 
L 189.506156 7.2 
" clip-path="url(#p481d7fb9bf)" style="fill: none; stroke: #ffffff; stroke-linecap: round"/>
     </g>
     <g id="text_2">
      <!-- −200 -->
      <g style="fill: #262626" transform="translate(177.118266 468.093594) scale(0.11 -0.11)">
       <defs>
        <path id="ArialMT-32" d="M 3222 541 
L 3222 0 
L 194 0 
Q 188 203 259 391 
Q 375 700 629 1000 
Q 884 1300 1366 1694 
Q 2113 2306 2375 2664 
Q 2638 3022 2638 3341 
Q 2638 3675 2398 3904 
Q 2159 4134 1775 4134 
Q 1369 4134 1125 3890 
Q 881 3647 878 3216 
L 300 3275 
Q 359 3922 746 4261 
Q 1134 4600 1788 4600 
Q 2447 4600 2831 4234 
Q 3216 3869 3216 3328 
Q 3216 3053 3103 2787 
Q 2991 2522 2730 2228 
Q 2469 1934 1863 1422 
Q 1356 997 1212 845 
Q 1069 694 975 541 
L 3222 541 
z
" transform="scale(0.015625)"/>
       </defs>
       <use xlink:href="#ArialMT-2212"/>
       <use xlink:href="#ArialMT-32" x="58.398438"/>
       <use xlink:href="#ArialMT-30" x="114.013672"/>
       <use xlink:href="#ArialMT-30" x="169.628906"/>
      </g>
     </g>
    </g>
    <g id="xtick_3">
     <g id="line2d_3">
      <path d="M 278.210156 450.72 
L 278.210156 7.2 
" clip-path="url(#p481d7fb9bf)" style="fill: none; stroke: #ffffff; stroke-linecap: round"/>
     </g>
     <g id="text_3">
      <!-- 0 -->
      <g style="fill: #262626" transform="translate(275.151641 468.093594) scale(0.11 -0.11)">
       <use xlink:href="#ArialMT-30"/>
      </g>
     </g>
    </g>
    <g id="xtick_4">
     <g id="line2d_4">
      <path d="M 366.914156 450.72 
L 366.914156 7.2 
" clip-path="url(#p481d7fb9bf)" style="fill: none; stroke: #ffffff; stroke-linecap: round"/>
     </g>
     <g id="text_4">
      <!-- 200 -->
      <g style="fill: #262626" transform="translate(357.738609 468.093594) scale(0.11 -0.11)">
       <use xlink:href="#ArialMT-32"/>
       <use xlink:href="#ArialMT-30" x="55.615234"/>
       <use xlink:href="#ArialMT-30" x="111.230469"/>
      </g>
     </g>
    </g>
    <g id="xtick_5">
     <g id="line2d_5">
      <path d="M 455.618156 450.72 
L 455.618156 7.2 
" clip-path="url(#p481d7fb9bf)" style="fill: none; stroke: #ffffff; stroke-linecap: round"/>
     </g>
     <g id="text_5">
      <!-- 400 -->
      <g style="fill: #262626" transform="translate(446.442609 468.093594) scale(0.11 -0.11)">
       <use xlink:href="#ArialMT-34"/>
       <use xlink:href="#ArialMT-30" x="55.615234"/>
       <use xlink:href="#ArialMT-30" x="111.230469"/>
      </g>
     </g>
    </g>
    <g id="text_6">
     <!-- x -->
     <g style="fill: #262626" transform="translate(275.210156 482.869219) scale(0.12 -0.12)">
      <defs>
       <path id="ArialMT-78" d="M 47 0 
L 1259 1725 
L 138 3319 
L 841 3319 
L 1350 2541 
Q 1494 2319 1581 2169 
Q 1719 2375 1834 2534 
L 2394 3319 
L 3066 3319 
L 1919 1756 
L 3153 0 
L 2463 0 
L 1781 1031 
L 1600 1309 
L 728 0 
L 47 0 
z
" transform="scale(0.015625)"/>
      </defs>
      <use xlink:href="#ArialMT-78"/>
     </g>
    </g>
   </g>
   <g id="matplotlib.axis_2">
    <g id="ytick_1">
     <g id="line2d_6">
      <path d="M 56.450156 406.368 
L 499.970156 406.368 
" clip-path="url(#p481d7fb9bf)" style="fill: none; stroke: #ffffff; stroke-linecap: round"/>
     </g>
     <g id="text_7">
      <!-- −400 -->
      <g style="fill: #262626" transform="translate(22.174375 410.304797) scale(0.11 -0.11)">
       <use xlink:href="#ArialMT-2212"/>
       <use xlink:href="#ArialMT-34" x="58.398438"/>
       <use xlink:href="#ArialMT-30" x="114.013672"/>
       <use xlink:href="#ArialMT-30" x="169.628906"/>
      </g>
     </g>
    </g>
    <g id="ytick_2">
     <g id="line2d_7">
      <path d="M 56.450156 317.664 
L 499.970156 317.664 
" clip-path="url(#p481d7fb9bf)" style="fill: none; stroke: #ffffff; stroke-linecap: round"/>
     </g>
     <g id="text_8">
      <!-- −200 -->
      <g style="fill: #262626" transform="translate(22.174375 321.600797) scale(0.11 -0.11)">
       <use xlink:href="#ArialMT-2212"/>
       <use xlink:href="#ArialMT-32" x="58.398438"/>
       <use xlink:href="#ArialMT-30" x="114.013672"/>
       <use xlink:href="#ArialMT-30" x="169.628906"/>
      </g>
     </g>
    </g>
    <g id="ytick_3">
     <g id="line2d_8">
      <path d="M 56.450156 228.96 
L 499.970156 228.96 
" clip-path="url(#p481d7fb9bf)" style="fill: none; stroke: #ffffff; stroke-linecap: round"/>
     </g>
     <g id="text_9">
      <!-- 0 -->
      <g style="fill: #262626" transform="translate(40.833125 232.896797) scale(0.11 -0.11)">
       <use xlink:href="#ArialMT-30"/>
      </g>
     </g>
    </g>
    <g id="ytick_4">
     <g id="line2d_9">
      <path d="M 56.450156 140.256 
L 499.970156 140.256 
" clip-path="url(#p481d7fb9bf)" style="fill: none; stroke: #ffffff; stroke-linecap: round"/>
     </g>
     <g id="text_10">
      <!-- 200 -->
      <g style="fill: #262626" transform="translate(28.599063 144.192797) scale(0.11 -0.11)">
       <use xlink:href="#ArialMT-32"/>
       <use xlink:href="#ArialMT-30" x="55.615234"/>
       <use xlink:href="#ArialMT-30" x="111.230469"/>
      </g>
     </g>
    </g>
    <g id="ytick_5">
     <g id="line2d_10">
      <path d="M 56.450156 51.552 
L 499.970156 51.552 
" clip-path="url(#p481d7fb9bf)" style="fill: none; stroke: #ffffff; stroke-linecap: round"/>
     </g>
     <g id="text_11">
      <!-- 400 -->
      <g style="fill: #262626" transform="translate(28.599063 55.488797) scale(0.11 -0.11)">
       <use xlink:href="#ArialMT-34"/>
       <use xlink:href="#ArialMT-30" x="55.615234"/>
       <use xlink:href="#ArialMT-30" x="111.230469"/>
      </g>
     </g>
    </g>
    <g id="text_12">
     <!-- y -->
     <g style="fill: #262626" transform="translate(15.64875 231.96) rotate(-90) scale(0.12 -0.12)">
      <defs>
       <path id="ArialMT-79" d="M 397 -1278 
L 334 -750 
Q 519 -800 656 -800 
Q 844 -800 956 -737 
Q 1069 -675 1141 -563 
Q 1194 -478 1313 -144 
Q 1328 -97 1363 -6 
L 103 3319 
L 709 3319 
L 1400 1397 
Q 1534 1031 1641 628 
Q 1738 1016 1872 1384 
L 2581 3319 
L 3144 3319 
L 1881 -56 
Q 1678 -603 1566 -809 
Q 1416 -1088 1222 -1217 
Q 1028 -1347 759 -1347 
Q 597 -1347 397 -1278 
z
" transform="scale(0.015625)"/>
      </defs>
      <use xlink:href="#ArialMT-79"/>
     </g>
    </g>
   </g>
   <g id="patch_3">
    <path d="M 278.210156 317.664 
C 301.734732 317.664 324.298969 308.317587 340.933356 291.6832 
C 357.567743 275.048813 366.914156 252.484576 366.914156 228.96 
C 366.914156 205.435424 357.567743 182.871187 340.933356 166.2368 
C 324.298969 149.602413 301.734732 140.256 278.210156 140.256 
C 254.68558 140.256 232.121343 149.602413 215.486956 166.2368 
C 198.852569 182.871187 189.506156 205.435424 189.506156 228.96 
C 189.506156 252.484576 198.852569 275.048813 215.486956 291.6832 
C 232.121343 308.317587 254.68558 317.664 278.210156 317.664 
z
" clip-path="url(#p481d7fb9bf)" style="fill: #228b22; opacity: 0.12; stroke: #228b22; stroke-width: 1.5; stroke-linejoin: miter"/>
   </g>
   <g id="PathCollection_1">
    <defs>
     <path id="mf4329c12f9" d="M 0 2.236068 
C 0.593012 2.236068 1.161816 2.000462 1.581139 1.581139 
C 2.000462 1.161816 2.236068 0.593012 2.236068 0 
C 2.236068 -0.593012 2.000462 -1.161816 1.581139 -1.581139 
C 1.161816 -2.000462 0.593012 -2.236068 0 -2.236068 
C -0.593012 -2.236068 -1.161816 -2.000462 -1.581139 -1.581139 
C -2.000462 -1.161816 -2.236068 -0.593012 -2.236068 0 
C -2.236068 0.593012 -2.000462 1.161816 -1.581139 1.581139 
C -1.161816 2.000462 -0.593012 2.236068 0 2.236068 
z
" style="stroke: #4169e1"/>
    </defs>
    <g clip-path="url(#p481d7fb9bf)">
     <use xlink:href="#mf4329c12f9" x="420.182021" y="157.333225" style="fill: #4169e1; stroke: #4169e1"/>
     <use xlink:href="#mf4329c12f9" x="358.116088" y="191.302187" style="fill: #4169e1; stroke: #4169e1"/>
     <use xlink:href="#mf4329c12f9" x="236.502757" y="153.42878" style="fill: #4169e1; stroke: #4169e1"/>
     <use xlink:href="#mf4329c12f9" x="497.179099" y="235.973072" style="fill: #4169e1; stroke: #4169e1"/>
     <use xlink:href="#mf4329c12f9" x="380.421369" y="237.816724" style="fill: #4169e1; stroke: #4169e1"/>
     <use xlink:href="#mf4329c12f9" x="460.39539" y="199.020099" style="fill: #4169e1; stroke: #4169e1"/>
     <use xlink:href="#mf4329c12f9" x="475.902158" y="285.214783" style="fill: #4169e1; stroke: #4169e1"/>
     <use xlink:href="#mf4329c12f9" x="258.491053" y="227.972788" style="fill: #4169e1; stroke: #4169e1"/>
     <use xlink:href="#mf4329c12f9" x="268.193361" y="321.312456" style="fill: #4169e1; stroke: #4169e1"/>
     <use xlink:href="#mf4329c12f9" x="435.490919" y="169.117474" style="fill: #4169e1; stroke: #4169e1"/>
     <use xlink:href="#mf4329c12f9" x="308.607576" y="335.087692" style="fill: #4169e1; stroke: #4169e1"/>
     <use xlink:href="#mf4329c12f9" x="388.21657" y="222.75942" style="fill: #4169e1; stroke: #4169e1"/>
     <use xlink:href="#mf4329c12f9" x="392.292222" y="145.188644" style="fill: #4169e1; stroke: #4169e1"/>
     <use xlink:href="#mf4329c12f9" x="290.8544" y="103.16978" style="fill: #4169e1; stroke: #4169e1"/>
     <use xlink:href="#mf4329c12f9" x="493.111879" y="203.467215" style="fill: #4169e1; stroke: #4169e1"/>
     <use xlink:href="#mf4329c12f9" x="203.949379" y="97.82541" style="fill: #4169e1; stroke: #4169e1"/>
     <use xlink:href="#mf4329c12f9" x="335.785598" y="127.722296" style="fill: #4169e1; stroke: #4169e1"/>
     <use xlink:href="#mf4329c12f9" x="336.851552" y="88.947349" style="fill: #4169e1; stroke: #4169e1"/>
     <use xlink:href="#mf4329c12f9" x="308.327885" y="86.99784" style="fill: #4169e1; stroke: #4169e1"/>
     <use xlink:href="#mf4329c12f9" x="375.510611" y="307.925719" style="fill: #4169e1; stroke: #4169e1"/>
     <use xlink:href="#mf4329c12f9" x="267.378387" y="145.927887" style="fill: #4169e1; stroke: #4169e1"/>
     <use xlink:href="#mf4329c12f9" x="443.216231" y="175.65246" style="fill: #4169e1; stroke: #4169e1"/>
     <use xlink:href="#mf4329c12f9" x="445.262598" y="166.551195" style="fill: #4169e1; stroke: #4169e1"/>
     <use xlink:href="#mf4329c12f9" x="339.509823" y="175.83663" style="fill: #4169e1; stroke: #4169e1"/>
     <use xlink:href="#mf4329c12f9" x="371.446018" y="265.354567" style="fill: #4169e1; stroke: #4169e1"/>
     <use xlink:href="#mf4329c12f9" x="363.968277" y="203.587027" style="fill: #4169e1; stroke: #4169e1"/>
     <use xlink:href="#mf4329c12f9" x="318.990151" y="205.125162" style="fill: #4169e1; stroke: #4169e1"/>
     <use xlink:href="#mf4329c12f9" x="314.33982" y="182.66648" style="fill: #4169e1; stroke: #4169e1"/>
     <use xlink:href="#mf4329c12f9" x="147.612114" y="245.552043" style="fill: #4169e1; stroke: #4169e1"/>
     <use xlink:href="#mf4329c12f9" x="408.662967" y="168.977094" style="fill: #4169e1; stroke: #4169e1"/>
     <use xlink:href="#mf4329c12f9" x="442.320258" y="100.08662" style="fill: #4169e1; stroke: #4169e1"/>
     <use xlink:href="#mf4329c12f9" x="280.341324" y="228.3899" style="fill: #4169e1; stroke: #4169e1"/>
     <use xlink:href="#mf4329c12f9" x="467.480719" y="281.25514" style="fill: #4169e1; stroke: #4169e1"/>
     <use xlink:href="#mf4329c12f9" x="411.422758" y="169.2431" style="fill: #4169e1; stroke: #4169e1"/>
     <use xlink:href="#mf4329c12f9" x="442.533897" y="222.70566" style="fill: #4169e1; stroke: #4169e1"/>
     <use xlink:href="#mf4329c12f9" x="282.476643" y="206.677979" style="fill: #4169e1; stroke: #4169e1"/>
     <use xlink:href="#mf4329c12f9" x="370.969675" y="231.023781" style="fill: #4169e1; stroke: #4169e1"/>
     <use xlink:href="#mf4329c12f9" x="242.397233" y="312.63504" style="fill: #4169e1; stroke: #4169e1"/>
     <use xlink:href="#mf4329c12f9" x="438.573023" y="211.030219" style="fill: #4169e1; stroke: #4169e1"/>
     <use xlink:href="#mf4329c12f9" x="457.842023" y="218.392532" style="fill: #4169e1; stroke: #4169e1"/>
     <use xlink:href="#mf4329c12f9" x="356.393306" y="187.525415" style="fill: #4169e1; stroke: #4169e1"/>
     <use xlink:href="#mf4329c12f9" x="491.539432" y="74.384712" style="fill: #4169e1; stroke: #4169e1"/>
     <use xlink:href="#mf4329c12f9" x="390.381633" y="185.321127" style="fill: #4169e1; stroke: #4169e1"/>
     <use xlink:href="#mf4329c12f9" x="264.225983" y="122.291883" style="fill: #4169e1; stroke: #4169e1"/>
     <use xlink:href="#mf4329c12f9" x="311.800428" y="141.080812" style="fill: #4169e1; stroke: #4169e1"/>
     <use xlink:href="#mf4329c12f9" x="223.706136" y="167.26778" style="fill: #4169e1; stroke: #4169e1"/>
     <use xlink:href="#mf4329c12f9" x="239.56716" y="304.058299" style="fill: #4169e1; stroke: #4169e1"/>
     <use xlink:href="#mf4329c12f9" x="409.698839" y="202.074187" style="fill: #4169e1; stroke: #4169e1"/>
     <use xlink:href="#mf4329c12f9" x="276.178629" y="182.740182" style="fill: #4169e1; stroke: #4169e1"/>
     <use xlink:href="#mf4329c12f9" x="388.664374" y="224.811569" style="fill: #4169e1; stroke: #4169e1"/>
     <use xlink:href="#mf4329c12f9" x="201.467106" y="163.8198" style="fill: #4169e1; stroke: #4169e1"/>
     <use xlink:href="#mf4329c12f9" x="493.102053" y="180.477087" style="fill: #4169e1; stroke: #4169e1"/>
     <use xlink:href="#mf4329c12f9" x="334.174806" y="239.590981" style="fill: #4169e1; stroke: #4169e1"/>
     <use xlink:href="#mf4329c12f9" x="324.53789" y="313.539154" style="fill: #4169e1; stroke: #4169e1"/>
     <use xlink:href="#mf4329c12f9" x="374.190873" y="110.022156" style="fill: #4169e1; stroke: #4169e1"/>
     <use xlink:href="#mf4329c12f9" x="318.868223" y="232.67432" style="fill: #4169e1; stroke: #4169e1"/>
     <use xlink:href="#mf4329c12f9" x="301.992593" y="316.957857" style="fill: #4169e1; stroke: #4169e1"/>
     <use xlink:href="#mf4329c12f9" x="379.767844" y="179.04257" style="fill: #4169e1; stroke: #4169e1"/>
     <use xlink:href="#mf4329c12f9" x="180.073546" y="203.803677" style="fill: #4169e1; stroke: #4169e1"/>
     <use xlink:href="#mf4329c12f9" x="499.970156" y="239.420759" style="fill: #4169e1; stroke: #4169e1"/>
     <use xlink:href="#mf4329c12f9" x="351.483523" y="268.729338" style="fill: #4169e1; stroke: #4169e1"/>
     <use xlink:href="#mf4329c12f9" x="424.320381" y="186.425145" style="fill: #4169e1; stroke: #4169e1"/>
     <use xlink:href="#mf4329c12f9" x="433.825161" y="141.276706" style="fill: #4169e1; stroke: #4169e1"/>
     <use xlink:href="#mf4329c12f9" x="359.631735" y="322.735291" style="fill: #4169e1; stroke: #4169e1"/>
     <use xlink:href="#mf4329c12f9" x="253.604816" y="168.776334" style="fill: #4169e1; stroke: #4169e1"/>
     <use xlink:href="#mf4329c12f9" x="306.259543" y="181.925657" style="fill: #4169e1; stroke: #4169e1"/>
     <use xlink:href="#mf4329c12f9" x="323.932479" y="236.657977" style="fill: #4169e1; stroke: #4169e1"/>
     <use xlink:href="#mf4329c12f9" x="466.778894" y="148.955627" style="fill: #4169e1; stroke: #4169e1"/>
     <use xlink:href="#mf4329c12f9" x="384.478857" y="140.422225" style="fill: #4169e1; stroke: #4169e1"/>
     <use xlink:href="#mf4329c12f9" x="288.295858" y="274.343731" style="fill: #4169e1; stroke: #4169e1"/>
     <use xlink:href="#mf4329c12f9" x="314.410372" y="292.940846" style="fill: #4169e1; stroke: #4169e1"/>
     <use xlink:href="#mf4329c12f9" x="333.358507" y="122.422038" style="fill: #4169e1; stroke: #4169e1"/>
     <use xlink:href="#mf4329c12f9" x="339.629799" y="278.266771" style="fill: #4169e1; stroke: #4169e1"/>
     <use xlink:href="#mf4329c12f9" x="274.779728" y="199.279588" style="fill: #4169e1; stroke: #4169e1"/>
     <use xlink:href="#mf4329c12f9" x="466.992344" y="183.395121" style="fill: #4169e1; stroke: #4169e1"/>
     <use xlink:href="#mf4329c12f9" x="246.510905" y="159.400355" style="fill: #4169e1; stroke: #4169e1"/>
     <use xlink:href="#mf4329c12f9" x="474.810128" y="250.554861" style="fill: #4169e1; stroke: #4169e1"/>
     <use xlink:href="#mf4329c12f9" x="249.474925" y="210.415936" style="fill: #4169e1; stroke: #4169e1"/>
     <use xlink:href="#mf4329c12f9" x="421.827165" y="282.088209" style="fill: #4169e1; stroke: #4169e1"/>
     <use xlink:href="#mf4329c12f9" x="437.665003" y="237.352932" style="fill: #4169e1; stroke: #4169e1"/>
     <use xlink:href="#mf4329c12f9" x="499.970156" y="171.26463" style="fill: #4169e1; stroke: #4169e1"/>
     <use xlink:href="#mf4329c12f9" x="404.526109" y="187.385925" style="fill: #4169e1; stroke: #4169e1"/>
     <use xlink:href="#mf4329c12f9" x="219.78491" y="151.058286" style="fill: #4169e1; stroke: #4169e1"/>
     <use xlink:href="#mf4329c12f9" x="265.486038" y="176.766194" style="fill: #4169e1; stroke: #4169e1"/>
     <use xlink:href="#mf4329c12f9" x="219.081806" y="238.084921" style="fill: #4169e1; stroke: #4169e1"/>
     <use xlink:href="#mf4329c12f9" x="356.291326" y="294.579216" style="fill: #4169e1; stroke: #4169e1"/>
     <use xlink:href="#mf4329c12f9" x="408.670546" y="155.430717" style="fill: #4169e1; stroke: #4169e1"/>
     <use xlink:href="#mf4329c12f9" x="276.813222" y="279.698374" style="fill: #4169e1; stroke: #4169e1"/>
     <use xlink:href="#mf4329c12f9" x="438.104002" y="113.044421" style="fill: #4169e1; stroke: #4169e1"/>
     <use xlink:href="#mf4329c12f9" x="280.299929" y="71.93627" style="fill: #4169e1; stroke: #4169e1"/>
     <use xlink:href="#mf4329c12f9" x="280.23748" y="197.731742" style="fill: #4169e1; stroke: #4169e1"/>
     <use xlink:href="#mf4329c12f9" x="426.081034" y="164.379411" style="fill: #4169e1; stroke: #4169e1"/>
     <use xlink:href="#mf4329c12f9" x="427.278503" y="275.226111" style="fill: #4169e1; stroke: #4169e1"/>
     <use xlink:href="#mf4329c12f9" x="296.946394" y="169.940797" style="fill: #4169e1; stroke: #4169e1"/>
     <use xlink:href="#mf4329c12f9" x="499.970156" y="270.342915" style="fill: #4169e1; stroke: #4169e1"/>
     <use xlink:href="#mf4329c12f9" x="352.694338" y="315.936474" style="fill: #4169e1; stroke: #4169e1"/>
     <use xlink:href="#mf4329c12f9" x="293.507492" y="263.771319" style="fill: #4169e1; stroke: #4169e1"/>
     <use xlink:href="#mf4329c12f9" x="262.736317" y="295.157999" style="fill: #4169e1; stroke: #4169e1"/>
     <use xlink:href="#mf4329c12f9" x="376.033427" y="187.446766" style="fill: #4169e1; stroke: #4169e1"/>
     <use xlink:href="#mf4329c12f9" x="411.630685" y="133.326596" style="fill: #4169e1; stroke: #4169e1"/>
     <use xlink:href="#mf4329c12f9" x="200.356384" y="169.893674" style="fill: #4169e1; stroke: #4169e1"/>
     <use xlink:href="#mf4329c12f9" x="458.811871" y="196.481929" style="fill: #4169e1; stroke: #4169e1"/>
     <use xlink:href="#mf4329c12f9" x="358.194403" y="324.323358" style="fill: #4169e1; stroke: #4169e1"/>
     <use xlink:href="#mf4329c12f9" x="210.712904" y="212.575817" style="fill: #4169e1; stroke: #4169e1"/>
     <use xlink:href="#mf4329c12f9" x="405.810974" y="114.169842" style="fill: #4169e1; stroke: #4169e1"/>
     <use xlink:href="#mf4329c12f9" x="224.214929" y="157.868257" style="fill: #4169e1; stroke: #4169e1"/>
     <use xlink:href="#mf4329c12f9" x="271.982403" y="271.459714" style="fill: #4169e1; stroke: #4169e1"/>
     <use xlink:href="#mf4329c12f9" x="459.581182" y="211.855166" style="fill: #4169e1; stroke: #4169e1"/>
     <use xlink:href="#mf4329c12f9" x="394.38959" y="78.411597" style="fill: #4169e1; stroke: #4169e1"/>
     <use xlink:href="#mf4329c12f9" x="406.804062" y="187.770587" style="fill: #4169e1; stroke: #4169e1"/>
     <use xlink:href="#mf4329c12f9" x="464.351107" y="239.938314" style="fill: #4169e1; stroke: #4169e1"/>
     <use xlink:href="#mf4329c12f9" x="452.079417" y="178.862231" style="fill: #4169e1; stroke: #4169e1"/>
     <use xlink:href="#mf4329c12f9" x="474.884138" y="88.789922" style="fill: #4169e1; stroke: #4169e1"/>
     <use xlink:href="#mf4329c12f9" x="262.242098" y="185.585759" style="fill: #4169e1; stroke: #4169e1"/>
     <use xlink:href="#mf4329c12f9" x="197.437108" y="168.034858" style="fill: #4169e1; stroke: #4169e1"/>
     <use xlink:href="#mf4329c12f9" x="455.263305" y="174.23957" style="fill: #4169e1; stroke: #4169e1"/>
     <use xlink:href="#mf4329c12f9" x="289.323791" y="273.501634" style="fill: #4169e1; stroke: #4169e1"/>
     <use xlink:href="#mf4329c12f9" x="349.076336" y="156.131683" style="fill: #4169e1; stroke: #4169e1"/>
     <use xlink:href="#mf4329c12f9" x="291.294813" y="200.781933" style="fill: #4169e1; stroke: #4169e1"/>
     <use xlink:href="#mf4329c12f9" x="229.250556" y="116.032381" style="fill: #4169e1; stroke: #4169e1"/>
     <use xlink:href="#mf4329c12f9" x="280.863038" y="160.249673" style="fill: #4169e1; stroke: #4169e1"/>
     <use xlink:href="#mf4329c12f9" x="388.797486" y="281.734346" style="fill: #4169e1; stroke: #4169e1"/>
     <use xlink:href="#mf4329c12f9" x="258.344264" y="147.518511" style="fill: #4169e1; stroke: #4169e1"/>
     <use xlink:href="#mf4329c12f9" x="452.03827" y="92.025799" style="fill: #4169e1; stroke: #4169e1"/>
     <use xlink:href="#mf4329c12f9" x="483.651766" y="153.987355" style="fill: #4169e1; stroke: #4169e1"/>
     <use xlink:href="#mf4329c12f9" x="352.901547" y="173.975637" style="fill: #4169e1; stroke: #4169e1"/>
     <use xlink:href="#mf4329c12f9" x="350.316136" y="133.7083" style="fill: #4169e1; stroke: #4169e1"/>
     <use xlink:href="#mf4329c12f9" x="251.868113" y="158.369186" style="fill: #4169e1; stroke: #4169e1"/>
     <use xlink:href="#mf4329c12f9" x="237.573235" y="278.841429" style="fill: #4169e1; stroke: #4169e1"/>
     <use xlink:href="#mf4329c12f9" x="365.16379" y="299.559192" style="fill: #4169e1; stroke: #4169e1"/>
     <use xlink:href="#mf4329c12f9" x="212.62955" y="293.348471" style="fill: #4169e1; stroke: #4169e1"/>
     <use xlink:href="#mf4329c12f9" x="444.855975" y="96.709653" style="fill: #4169e1; stroke: #4169e1"/>
     <use xlink:href="#mf4329c12f9" x="392.072993" y="110.104057" style="fill: #4169e1; stroke: #4169e1"/>
     <use xlink:href="#mf4329c12f9" x="359.268728" y="94.094228" style="fill: #4169e1; stroke: #4169e1"/>
     <use xlink:href="#mf4329c12f9" x="418.576995" y="281.485323" style="fill: #4169e1; stroke: #4169e1"/>
     <use xlink:href="#mf4329c12f9" x="465.819685" y="221.363268" style="fill: #4169e1; stroke: #4169e1"/>
     <use xlink:href="#mf4329c12f9" x="286.28351" y="307.647423" style="fill: #4169e1; stroke: #4169e1"/>
     <use xlink:href="#mf4329c12f9" x="197.050497" y="153.959425" style="fill: #4169e1; stroke: #4169e1"/>
     <use xlink:href="#mf4329c12f9" x="325.05454" y="118.536216" style="fill: #4169e1; stroke: #4169e1"/>
     <use xlink:href="#mf4329c12f9" x="384.182072" y="162.592784" style="fill: #4169e1; stroke: #4169e1"/>
     <use xlink:href="#mf4329c12f9" x="367.409056" y="166.286217" style="fill: #4169e1; stroke: #4169e1"/>
     <use xlink:href="#mf4329c12f9" x="215.29919" y="163.928826" style="fill: #4169e1; stroke: #4169e1"/>
     <use xlink:href="#mf4329c12f9" x="331.879849" y="109.305294" style="fill: #4169e1; stroke: #4169e1"/>
     <use xlink:href="#mf4329c12f9" x="407.369317" y="216.554818" style="fill: #4169e1; stroke: #4169e1"/>
     <use xlink:href="#mf4329c12f9" x="253.648866" y="303.473377" style="fill: #4169e1; stroke: #4169e1"/>
     <use xlink:href="#mf4329c12f9" x="411.083432" y="228.655795" style="fill: #4169e1; stroke: #4169e1"/>
     <use xlink:href="#mf4329c12f9" x="416.223028" y="160.431822" style="fill: #4169e1; stroke: #4169e1"/>
     <use xlink:href="#mf4329c12f9" x="355.797286" y="175.181231" style="fill: #4169e1; stroke: #4169e1"/>
     <use xlink:href="#mf4329c12f9" x="366.965312" y="210.373664" style="fill: #4169e1; stroke: #4169e1"/>
     <use xlink:href="#mf4329c12f9" x="420.28057" y="234.293875" style="fill: #4169e1; stroke: #4169e1"/>
     <use xlink:href="#mf4329c12f9" x="272.93291" y="284.859393" style="fill: #4169e1; stroke: #4169e1"/>
    </g>
   </g>
   <g id="PathCollection_2">
    <defs>
     <path id="m99b56434ce" d="M 0 2.5 
C 0.663008 2.5 1.29895 2.236584 1.767767 1.767767 
C 2.236584 1.29895 2.5 0.663008 2.5 0 
C 2.5 -0.663008 2.236584 -1.29895 1.767767 -1.767767 
C 1.29895 -2.236584 0.663008 -2.5 0 -2.5 
C -0.663008 -2.5 -1.29895 -2.236584 -1.767767 -1.767767 
C -2.236584 -1.29895 -2.5 -0.663008 -2.5 0 
C -2.5 0.663008 -2.236584 1.29895 -1.767767 1.767767 
C -1.29895 2.236584 -0.663008 2.5 0 2.5 
z
" style="stroke: #b22222"/>
    </defs>
    <g clip-path="url(#p481d7fb9bf)">
     <use xlink:href="#m99b56434ce" x="286.518429" y="234.329829" style="fill: #b22222; stroke: #b22222"/>
     <use xlink:href="#m99b56434ce" x="258.008442" y="195.66088" style="fill: #b22222; stroke: #b22222"/>
     <use xlink:href="#m99b56434ce" x="253.535225" y="225.206432" style="fill: #b22222; stroke: #b22222"/>
     <use xlink:href="#m99b56434ce" x="252.074352" y="210.48506" style="fill: #b22222; stroke: #b22222"/>
     <use xlink:href="#m99b56434ce" x="258.226515" y="228.228467" style="fill: #b22222; stroke: #b22222"/>
     <use xlink:href="#m99b56434ce" x="257.269073" y="222.532216" style="fill: #b22222; stroke: #b22222"/>
     <use xlink:href="#m99b56434ce" x="254.016662" y="185.976557" style="fill: #b22222; stroke: #b22222"/>
     <use xlink:href="#m99b56434ce" x="259.299445" y="193.974294" style="fill: #b22222; stroke: #b22222"/>
     <use xlink:href="#m99b56434ce" x="336.480669" y="213.1898" style="fill: #b22222; stroke: #b22222"/>
     <use xlink:href="#m99b56434ce" x="262.715564" y="219.572868" style="fill: #b22222; stroke: #b22222"/>
     <use xlink:href="#m99b56434ce" x="249.102884" y="210.317439" style="fill: #b22222; stroke: #b22222"/>
     <use xlink:href="#m99b56434ce" x="254.484548" y="204.08979" style="fill: #b22222; stroke: #b22222"/>
     <use xlink:href="#m99b56434ce" x="266.876" y="225.415968" style="fill: #b22222; stroke: #b22222"/>
     <use xlink:href="#m99b56434ce" x="267.577986" y="186.839707" style="fill: #b22222; stroke: #b22222"/>
     <use xlink:href="#m99b56434ce" x="334.746534" y="225.591729" style="fill: #b22222; stroke: #b22222"/>
     <use xlink:href="#m99b56434ce" x="270.626527" y="232.012349" style="fill: #b22222; stroke: #b22222"/>
     <use xlink:href="#m99b56434ce" x="284.847221" y="229.815511" style="fill: #b22222; stroke: #b22222"/>
     <use xlink:href="#m99b56434ce" x="258.092713" y="186.34052" style="fill: #b22222; stroke: #b22222"/>
     <use xlink:href="#m99b56434ce" x="245.879632" y="228.210803" style="fill: #b22222; stroke: #b22222"/>
     <use xlink:href="#m99b56434ce" x="249.807253" y="218.851033" style="fill: #b22222; stroke: #b22222"/>
     <use xlink:href="#m99b56434ce" x="321.170427" y="228.963075" style="fill: #b22222; stroke: #b22222"/>
     <use xlink:href="#m99b56434ce" x="259.318998" y="228.247651" style="fill: #b22222; stroke: #b22222"/>
     <use xlink:href="#m99b56434ce" x="259.337369" y="221.849169" style="fill: #b22222; stroke: #b22222"/>
     <use xlink:href="#m99b56434ce" x="283.278005" y="245.338378" style="fill: #b22222; stroke: #b22222"/>
     <use xlink:href="#m99b56434ce" x="252.189438" y="221.053209" style="fill: #b22222; stroke: #b22222"/>
     <use xlink:href="#m99b56434ce" x="245.709708" y="218.803557" style="fill: #b22222; stroke: #b22222"/>
     <use xlink:href="#m99b56434ce" x="297.904638" y="244.761901" style="fill: #b22222; stroke: #b22222"/>
     <use xlink:href="#m99b56434ce" x="373.783952" y="198.664405" style="fill: #b22222; stroke: #b22222"/>
     <use xlink:href="#m99b56434ce" x="309.51906" y="232.645618" style="fill: #b22222; stroke: #b22222"/>
     <use xlink:href="#m99b56434ce" x="303.48169" y="235.672551" style="fill: #b22222; stroke: #b22222"/>
     <use xlink:href="#m99b56434ce" x="280.006828" y="232.08829" style="fill: #b22222; stroke: #b22222"/>
     <use xlink:href="#m99b56434ce" x="288.713949" y="232.163063" style="fill: #b22222; stroke: #b22222"/>
     <use xlink:href="#m99b56434ce" x="264.905376" y="225.771259" style="fill: #b22222; stroke: #b22222"/>
     <use xlink:href="#m99b56434ce" x="262.007123" y="213.672831" style="fill: #b22222; stroke: #b22222"/>
     <use xlink:href="#m99b56434ce" x="253.546988" y="220.621771" style="fill: #b22222; stroke: #b22222"/>
     <use xlink:href="#m99b56434ce" x="262.141655" y="198.08753" style="fill: #b22222; stroke: #b22222"/>
     <use xlink:href="#m99b56434ce" x="262.658678" y="224.023031" style="fill: #b22222; stroke: #b22222"/>
     <use xlink:href="#m99b56434ce" x="278.363009" y="230.837259" style="fill: #b22222; stroke: #b22222"/>
     <use xlink:href="#m99b56434ce" x="264.086385" y="231.330896" style="fill: #b22222; stroke: #b22222"/>
     <use xlink:href="#m99b56434ce" x="263.947465" y="227.108497" style="fill: #b22222; stroke: #b22222"/>
     <use xlink:href="#m99b56434ce" x="272.471486" y="233.701377" style="fill: #b22222; stroke: #b22222"/>
     <use xlink:href="#m99b56434ce" x="284.317309" y="233.529218" style="fill: #b22222; stroke: #b22222"/>
     <use xlink:href="#m99b56434ce" x="273.425537" y="227.01201" style="fill: #b22222; stroke: #b22222"/>
     <use xlink:href="#m99b56434ce" x="284.53909" y="227.571471" style="fill: #b22222; stroke: #b22222"/>
     <use xlink:href="#m99b56434ce" x="254.733751" y="222.515624" style="fill: #b22222; stroke: #b22222"/>
     <use xlink:href="#m99b56434ce" x="265.434712" y="220.340203" style="fill: #b22222; stroke: #b22222"/>
     <use xlink:href="#m99b56434ce" x="301.193356" y="224.411759" style="fill: #b22222; stroke: #b22222"/>
     <use xlink:href="#m99b56434ce" x="249.90011" y="221.268252" style="fill: #b22222; stroke: #b22222"/>
     <use xlink:href="#m99b56434ce" x="253.594862" y="214.112607" style="fill: #b22222; stroke: #b22222"/>
     <use xlink:href="#m99b56434ce" x="297.147329" y="236.100671" style="fill: #b22222; stroke: #b22222"/>
     <use xlink:href="#m99b56434ce" x="266.436542" y="195.877872" style="fill: #b22222; stroke: #b22222"/>
     <use xlink:href="#m99b56434ce" x="344.111147" y="220.27617" style="fill: #b22222; stroke: #b22222"/>
     <use xlink:href="#m99b56434ce" x="255.58385" y="221.62092" style="fill: #b22222; stroke: #b22222"/>
     <use xlink:href="#m99b56434ce" x="322.101379" y="235.847366" style="fill: #b22222; stroke: #b22222"/>
     <use xlink:href="#m99b56434ce" x="255.542888" y="223.48913" style="fill: #b22222; stroke: #b22222"/>
     <use xlink:href="#m99b56434ce" x="254.190949" y="229.845414" style="fill: #b22222; stroke: #b22222"/>
     <use xlink:href="#m99b56434ce" x="277.838404" y="229.213686" style="fill: #b22222; stroke: #b22222"/>
     <use xlink:href="#m99b56434ce" x="270.869633" y="230.244644" style="fill: #b22222; stroke: #b22222"/>
     <use xlink:href="#m99b56434ce" x="274.529971" y="230.900142" style="fill: #b22222; stroke: #b22222"/>
     <use xlink:href="#m99b56434ce" x="268.783559" y="233.156244" style="fill: #b22222; stroke: #b22222"/>
     <use xlink:href="#m99b56434ce" x="272.214837" y="240.8788" style="fill: #b22222; stroke: #b22222"/>
     <use xlink:href="#m99b56434ce" x="297.064216" y="244.038289" style="fill: #b22222; stroke: #b22222"/>
     <use xlink:href="#m99b56434ce" x="280.571452" y="233.950215" style="fill: #b22222; stroke: #b22222"/>
     <use xlink:href="#m99b56434ce" x="314.646557" y="238.28262" style="fill: #b22222; stroke: #b22222"/>
     <use xlink:href="#m99b56434ce" x="237.727526" y="203.243824" style="fill: #b22222; stroke: #b22222"/>
     <use xlink:href="#m99b56434ce" x="340.426478" y="228.394746" style="fill: #b22222; stroke: #b22222"/>
     <use xlink:href="#m99b56434ce" x="252.762909" y="215.424743" style="fill: #b22222; stroke: #b22222"/>
     <use xlink:href="#m99b56434ce" x="248.40205" y="221.551091" style="fill: #b22222; stroke: #b22222"/>
     <use xlink:href="#m99b56434ce" x="253.310511" y="224.293095" style="fill: #b22222; stroke: #b22222"/>
     <use xlink:href="#m99b56434ce" x="281.278511" y="243.446048" style="fill: #b22222; stroke: #b22222"/>
     <use xlink:href="#m99b56434ce" x="333.549566" y="231.837012" style="fill: #b22222; stroke: #b22222"/>
     <use xlink:href="#m99b56434ce" x="336.581736" y="222.744154" style="fill: #b22222; stroke: #b22222"/>
     <use xlink:href="#m99b56434ce" x="329.433921" y="215.588535" style="fill: #b22222; stroke: #b22222"/>
     <use xlink:href="#m99b56434ce" x="284.818953" y="235.061986" style="fill: #b22222; stroke: #b22222"/>
     <use xlink:href="#m99b56434ce" x="278.059743" y="238.979773" style="fill: #b22222; stroke: #b22222"/>
     <use xlink:href="#m99b56434ce" x="248.877909" y="218.730894" style="fill: #b22222; stroke: #b22222"/>
     <use xlink:href="#m99b56434ce" x="341.355572" y="221.848046" style="fill: #b22222; stroke: #b22222"/>
     <use xlink:href="#m99b56434ce" x="271.746713" y="227.693772" style="fill: #b22222; stroke: #b22222"/>
     <use xlink:href="#m99b56434ce" x="294.687649" y="227.927993" style="fill: #b22222; stroke: #b22222"/>
     <use xlink:href="#m99b56434ce" x="259.772313" y="225.830323" style="fill: #b22222; stroke: #b22222"/>
     <use xlink:href="#m99b56434ce" x="306.24284" y="232.75995" style="fill: #b22222; stroke: #b22222"/>
     <use xlink:href="#m99b56434ce" x="265.968974" y="217.644579" style="fill: #b22222; stroke: #b22222"/>
     <use xlink:href="#m99b56434ce" x="256.859946" y="223.612163" style="fill: #b22222; stroke: #b22222"/>
     <use xlink:href="#m99b56434ce" x="349.795913" y="207.898571" style="fill: #b22222; stroke: #b22222"/>
     <use xlink:href="#m99b56434ce" x="262.1534" y="219.010779" style="fill: #b22222; stroke: #b22222"/>
     <use xlink:href="#m99b56434ce" x="262.828762" y="190.814969" style="fill: #b22222; stroke: #b22222"/>
     <use xlink:href="#m99b56434ce" x="240.747659" y="209.653362" style="fill: #b22222; stroke: #b22222"/>
     <use xlink:href="#m99b56434ce" x="289.58646" y="225.154353" style="fill: #b22222; stroke: #b22222"/>
    </g>
   </g>
   <g id="patch_4">
    <path d="M 56.450156 450.72 
L 56.450156 7.2 
" style="fill: none; stroke: #ffffff; stroke-width: 1.25; stroke-linejoin: miter; stroke-linecap: square"/>
   </g>
   <g id="patch_5">
    <path d="M 499.970156 450.72 
L 499.970156 7.2 
" style="fill: none; stroke: #ffffff; stroke-width: 1.25; stroke-linejoin: miter; stroke-linecap: square"/>
   </g>
   <g id="patch_6">
    <path d="M 56.450156 450.72 
L 499.970156 450.72 
" style="fill: none; stroke: #ffffff; stroke-width: 1.25; stroke-linejoin: miter; stroke-linecap: square"/>
   </g>
   <g id="patch_7">
    <path d="M 56.450156 7.2 
L 499.970156 7.2 
" style="fill: none; stroke: #ffffff; stroke-width: 1.25; stroke-linejoin: miter; stroke-linecap: square"/>
   </g>
   <g id="text_13">
    <!-- t = 1100 -->
    <g style="fill: #262626" transform="translate(65.320556 24.659775) scale(0.12 -0.12)">
     <defs>
      <path id="ArialMT-74" d="M 1650 503 
L 1731 6 
Q 1494 -44 1306 -44 
Q 1000 -44 831 53 
Q 663 150 594 308 
Q 525 466 525 972 
L 525 2881 
L 113 2881 
L 113 3319 
L 525 3319 
L 525 4141 
L 1084 4478 
L 1084 3319 
L 1650 3319 
L 1650 2881 
L 1084 2881 
L 1084 941 
Q 1084 700 1114 631 
Q 1144 563 1211 522 
Q 1278 481 1403 481 
Q 1497 481 1650 503 
z
" transform="scale(0.015625)"/>
      <path id="ArialMT-20" transform="scale(0.015625)"/>
      <path id="ArialMT-3d" d="M 3381 2694 
L 356 2694 
L 356 3219 
L 3381 3219 
L 3381 2694 
z
M 3381 1303 
L 356 1303 
L 356 1828 
L 3381 1828 
L 3381 1303 
z
" transform="scale(0.015625)"/>
      <path id="ArialMT-31" d="M 2384 0 
L 1822 0 
L 1822 3584 
Q 1619 3391 1289 3197 
Q 959 3003 697 2906 
L 697 3450 
Q 1169 3672 1522 3987 
Q 1875 4303 2022 4600 
L 2384 4600 
L 2384 0 
z
" transform="scale(0.015625)"/>
     </defs>
     <use xlink:href="#ArialMT-74"/>
     <use xlink:href="#ArialMT-20" x="27.783203"/>
     <use xlink:href="#ArialMT-3d" x="55.566406"/>
     <use xlink:href="#ArialMT-20" x="113.964844"/>
     <use xlink:href="#ArialMT-31" x="141.748047"/>
     <use xlink:href="#ArialMT-31" x="189.988281"/>
     <use xlink:href="#ArialMT-30" x="245.603516"/>
     <use xlink:href="#ArialMT-30" x="301.21875"/>
    </g>
   </g>
   <g id="legend_1">
    <g id="patch_8">
     <path d="M 328.111406 94.59 
L 483.170156 94.59 
Q 487.970156 94.59 487.970156 89.79 
L 487.970156 24 
Q 487.970156 19.2 483.170156 19.2 
L 328.111406 19.2 
Q 323.311406 19.2 323.311406 24 
L 323.311406 89.79 
Q 323.311406 94.59 328.111406 94.59 
z
" style="fill: #eaeaf2; opacity: 0.8; stroke: #cccccc; stroke-linejoin: miter"/>
    </g>
    <g id="PathCollection_3">
     <g>
      <use xlink:href="#mf4329c12f9" x="356.911406" y="39.97125" style="fill: #4169e1; stroke: #4169e1"/>
     </g>
    </g>
    <g id="text_14">
     <!-- Sheep -->
     <g style="fill: #262626" transform="translate(400.111406 46.27125) scale(0.24 -0.24)">
      <defs>
       <path id="ArialMT-53" d="M 288 1472 
L 859 1522 
Q 900 1178 1048 958 
Q 1197 738 1509 602 
Q 1822 466 2213 466 
Q 2559 466 2825 569 
Q 3091 672 3220 851 
Q 3350 1031 3350 1244 
Q 3350 1459 3225 1620 
Q 3100 1781 2813 1891 
Q 2628 1963 1997 2114 
Q 1366 2266 1113 2400 
Q 784 2572 623 2826 
Q 463 3081 463 3397 
Q 463 3744 659 4045 
Q 856 4347 1234 4503 
Q 1613 4659 2075 4659 
Q 2584 4659 2973 4495 
Q 3363 4331 3572 4012 
Q 3781 3694 3797 3291 
L 3216 3247 
Q 3169 3681 2898 3903 
Q 2628 4125 2100 4125 
Q 1550 4125 1298 3923 
Q 1047 3722 1047 3438 
Q 1047 3191 1225 3031 
Q 1400 2872 2139 2705 
Q 2878 2538 3153 2413 
Q 3553 2228 3743 1945 
Q 3934 1663 3934 1294 
Q 3934 928 3725 604 
Q 3516 281 3123 101 
Q 2731 -78 2241 -78 
Q 1619 -78 1198 103 
Q 778 284 539 648 
Q 300 1013 288 1472 
z
" transform="scale(0.015625)"/>
       <path id="ArialMT-68" d="M 422 0 
L 422 4581 
L 984 4581 
L 984 2938 
Q 1378 3394 1978 3394 
Q 2347 3394 2619 3248 
Q 2891 3103 3008 2847 
Q 3125 2591 3125 2103 
L 3125 0 
L 2563 0 
L 2563 2103 
Q 2563 2525 2380 2717 
Q 2197 2909 1863 2909 
Q 1613 2909 1392 2779 
Q 1172 2650 1078 2428 
Q 984 2206 984 1816 
L 984 0 
L 422 0 
z
" transform="scale(0.015625)"/>
       <path id="ArialMT-65" d="M 2694 1069 
L 3275 997 
Q 3138 488 2766 206 
Q 2394 -75 1816 -75 
Q 1088 -75 661 373 
Q 234 822 234 1631 
Q 234 2469 665 2931 
Q 1097 3394 1784 3394 
Q 2450 3394 2872 2941 
Q 3294 2488 3294 1666 
Q 3294 1616 3291 1516 
L 816 1516 
Q 847 969 1125 678 
Q 1403 388 1819 388 
Q 2128 388 2347 550 
Q 2566 713 2694 1069 
z
M 847 1978 
L 2700 1978 
Q 2663 2397 2488 2606 
Q 2219 2931 1791 2931 
Q 1403 2931 1139 2672 
Q 875 2413 847 1978 
z
" transform="scale(0.015625)"/>
       <path id="ArialMT-70" d="M 422 -1272 
L 422 3319 
L 934 3319 
L 934 2888 
Q 1116 3141 1344 3267 
Q 1572 3394 1897 3394 
Q 2322 3394 2647 3175 
Q 2972 2956 3137 2557 
Q 3303 2159 3303 1684 
Q 3303 1175 3120 767 
Q 2938 359 2589 142 
Q 2241 -75 1856 -75 
Q 1575 -75 1351 44 
Q 1128 163 984 344 
L 984 -1272 
L 422 -1272 
z
M 931 1641 
Q 931 1000 1190 694 
Q 1450 388 1819 388 
Q 2194 388 2461 705 
Q 2728 1022 2728 1688 
Q 2728 2322 2467 2637 
Q 2206 2953 1844 2953 
Q 1484 2953 1207 2617 
Q 931 2281 931 1641 
z
" transform="scale(0.015625)"/>
      </defs>
      <use xlink:href="#ArialMT-53"/>
      <use xlink:href="#ArialMT-68" x="66.699219"/>
      <use xlink:href="#ArialMT-65" x="122.314453"/>
      <use xlink:href="#ArialMT-65" x="177.929688"/>
      <use xlink:href="#ArialMT-70" x="233.544922"/>
     </g>
    </g>
    <g id="PathCollection_4">
     <g>
      <use xlink:href="#m99b56434ce" x="356.911406" y="73.92" style="fill: #b22222; stroke: #b22222"/>
     </g>
    </g>
    <g id="text_15">
     <!-- Wolves -->
     <g style="fill: #262626" transform="translate(400.111406 80.22) scale(0.24 -0.24)">
      <defs>
       <path id="ArialMT-57" d="M 1294 0 
L 78 4581 
L 700 4581 
L 1397 1578 
Q 1509 1106 1591 641 
Q 1766 1375 1797 1488 
L 2669 4581 
L 3400 4581 
L 4056 2263 
Q 4303 1400 4413 641 
Q 4500 1075 4641 1638 
L 5359 4581 
L 5969 4581 
L 4713 0 
L 4128 0 
L 3163 3491 
Q 3041 3928 3019 4028 
Q 2947 3713 2884 3491 
L 1913 0 
L 1294 0 
z
" transform="scale(0.015625)"/>
       <path id="ArialMT-6f" d="M 213 1659 
Q 213 2581 725 3025 
Q 1153 3394 1769 3394 
Q 2453 3394 2887 2945 
Q 3322 2497 3322 1706 
Q 3322 1066 3130 698 
Q 2938 331 2570 128 
Q 2203 -75 1769 -75 
Q 1072 -75 642 372 
Q 213 819 213 1659 
z
M 791 1659 
Q 791 1022 1069 705 
Q 1347 388 1769 388 
Q 2188 388 2466 706 
Q 2744 1025 2744 1678 
Q 2744 2294 2464 2611 
Q 2184 2928 1769 2928 
Q 1347 2928 1069 2612 
Q 791 2297 791 1659 
z
" transform="scale(0.015625)"/>
       <path id="ArialMT-6c" d="M 409 0 
L 409 4581 
L 972 4581 
L 972 0 
L 409 0 
z
" transform="scale(0.015625)"/>
       <path id="ArialMT-76" d="M 1344 0 
L 81 3319 
L 675 3319 
L 1388 1331 
Q 1503 1009 1600 663 
Q 1675 925 1809 1294 
L 2547 3319 
L 3125 3319 
L 1869 0 
L 1344 0 
z
" transform="scale(0.015625)"/>
       <path id="ArialMT-73" d="M 197 991 
L 753 1078 
Q 800 744 1014 566 
Q 1228 388 1613 388 
Q 2000 388 2187 545 
Q 2375 703 2375 916 
Q 2375 1106 2209 1216 
Q 2094 1291 1634 1406 
Q 1016 1563 777 1677 
Q 538 1791 414 1992 
Q 291 2194 291 2438 
Q 291 2659 392 2848 
Q 494 3038 669 3163 
Q 800 3259 1026 3326 
Q 1253 3394 1513 3394 
Q 1903 3394 2198 3281 
Q 2494 3169 2634 2976 
Q 2775 2784 2828 2463 
L 2278 2388 
Q 2241 2644 2061 2787 
Q 1881 2931 1553 2931 
Q 1166 2931 1000 2803 
Q 834 2675 834 2503 
Q 834 2394 903 2306 
Q 972 2216 1119 2156 
Q 1203 2125 1616 2013 
Q 2213 1853 2448 1751 
Q 2684 1650 2818 1456 
Q 2953 1263 2953 975 
Q 2953 694 2789 445 
Q 2625 197 2315 61 
Q 2006 -75 1616 -75 
Q 969 -75 630 194 
Q 291 463 197 991 
z
" transform="scale(0.015625)"/>
      </defs>
      <use xlink:href="#ArialMT-57"/>
      <use xlink:href="#ArialMT-6f" x="92.634766"/>
      <use xlink:href="#ArialMT-6c" x="148.25"/>
      <use xlink:href="#ArialMT-76" x="170.466797"/>
      <use xlink:href="#ArialMT-65" x="220.466797"/>
      <use xlink:href="#ArialMT-73" x="276.082031"/>
     </g>
    </g>
   </g>
  </g>
 </g>
 <defs>
  <clipPath id="p481d7fb9bf">
   <rect x="56.450156" y="7.2" width="443.52" height="443.52"/>
  </clipPath>
 </defs>
</svg>
