<?xml version="1.0" encoding="utf-8" standalone="no"?>
<!DOCTYPE svg PUBLIC "-//W3C//DTD SVG 1.1//EN"
  "http://www.w3.org/Graphics/SVG/1.1/DTD/svg11.dtd">
<svg xmlns:xlink="http://www.w3.org/1999/xlink" width="507.170156pt" height="492.454219pt" viewBox="0 0 507.170156 492.454219" xmlns="http://www.w3.org/2000/svg" version="1.1">
 <metadata>
  <rdf:RDF xmlns:dc="http://purl.org/dc/elements/1.1/" xmlns:cc="http://creativecommons.org/ns#" xmlns:rdf="http://www.w3.org/1999/02/22-rdf-syntax-ns#">
   <cc:Work>
    <dc:type rdf:resource="http://purl.org/dc/dcmitype/StillImage"/>
    <dc:date>2026-05-12T10:43:21.216614</dc:date>
    <dc:format>image/svg+xml</dc:format>
    <dc:creator>
     <cc:Agent>
      <dc:title>Matplotlib v3.7.1, https://matplotlib.org/</dc:title>
     </cc:Agent>
    </dc:creator>
   </cc:Work>
  </rdf:RDF>
 </metadata>
 <defs>
  <style type="text/css">*{stroke-linejoin: round; stroke-linecap: butt}</style>
 </defs>
 <g id="figure_1">
  <g id="patch_1">
   <path d="M 0 492.454219 
L 507.170156 492.454219 
L 507.170156 0 
L 0 0 
z
" style="fill: #ffffff"/>
  </g>
  <g id="axes_1">
   <g id="patch_2">
    <path d="M 56.450156 450.72 
L 499.970156 450.72 
L 499.970156 7.2 
L 56.450156 7.2 
z
" style="fill: #eaeaf2"/>
   </g>
   <g id="matplotlib.axis_1">
    <g id="xtick_1">
     <g id="line2d_1">
      <path d="M 100.802156 450.72 
L 100.802156 7.2 
" clip-path="url(#pc143bf5111)" style="fill: none; stroke: #ffffff; stroke-linecap: round"/>
     </g>
     <g id="text_1">
      <!-- −400 -->
      <g style="fill: #262626" transform="translate(88.414266 468.093594) scale(0.11 -0.11)">
       <defs>
        <path id="ArialMT-2212" d="M 3381 1997 
L 356 1997 
L 356 2522 
L 3381 2522 
L 3381 1997 
z
" transform="scale(0.015625)"/>
        <path id="ArialMT-34" d="M 2069 0 
L 2069 1097 
L 81 1097 
L 81 1613 
L 2172 4581 
L 2631 4581 
L 2631 1613 
L 3250 1613 
L 3250 1097 
L 2631 1097 
L 2631 0 
L 2069 0 
z
M 2069 1613 
L 2069 3678 
L 634 1613 
L 2069 1613 
z
" transform="scale(0.015625)"/>
        <path id="ArialMT-30" d="M 266 2259 
Q 266 3072 433 3567 
Q 600 4063 929 4331 
Q 1259 4600 1759 4600 
Q 2128 4600 2406 4451 
Q 2684 4303 2865 4023 
Q 3047 3744 3150 3342 
Q 3253 2941 3253 2259 
Q 3253 1453 3087 958 
Q 2922 463 2592 192 
Q 2263 -78 1759 -78 
Q 1097 -78 719 397 
Q 266 969 266 2259 
z
M 844 2259 
Q 844 1131 1108 757 
Q 1372 384 1759 384 
Q 2147 384 2411 759 
Q 2675 1134 2675 2259 
Q 2675 3391 2411 3762 
Q 2147 4134 1753 4134 
Q 1366 4134 1134 3806 
Q 844 3388 844 2259 
z
" transform="scale(0.015625)"/>
       </defs>
       <use xlink:href="#ArialMT-2212"/>
       <use xlink:href="#ArialMT-34" x="58.398438"/>
       <use xlink:href="#ArialMT-30" x="114.013672"/>
       <use xlink:href="#ArialMT-30" x="169.628906"/>
      </g>
     </g>
    </g>
    <g id="xtick_2">
     <g id="line2d_2">
      <path d="M 189.506156 450.72 
L 189.506156 7.2 
" clip-path="url(#pc143bf5111)" style="fill: none; stroke: #ffffff; stroke-linecap: round"/>
     </g>
     <g id="text_2">
      <!-- −200 -->
      <g style="fill: #262626" transform="translate(177.118266 468.093594) scale(0.11 -0.11)">
       <defs>
        <path id="ArialMT-32" d="M 3222 541 
L 3222 0 
L 194 0 
Q 188 203 259 391 
Q 375 700 629 1000 
Q 884 1300 1366 1694 
Q 2113 2306 2375 2664 
Q 2638 3022 2638 3341 
Q 2638 3675 2398 3904 
Q 2159 4134 1775 4134 
Q 1369 4134 1125 3890 
Q 881 3647 878 3216 
L 300 3275 
Q 359 3922 746 4261 
Q 1134 4600 1788 4600 
Q 2447 4600 2831 4234 
Q 3216 3869 3216 3328 
Q 3216 3053 3103 2787 
Q 2991 2522 2730 2228 
Q 2469 1934 1863 1422 
Q 1356 997 1212 845 
Q 1069 694 975 541 
L 3222 541 
z
" transform="scale(0.015625)"/>
       </defs>
       <use xlink:href="#ArialMT-2212"/>
       <use xlink:href="#ArialMT-32" x="58.398438"/>
       <use xlink:href="#ArialMT-30" x="114.013672"/>
       <use xlink:href="#ArialMT-30" x="169.628906"/>
      </g>
     </g>
    </g>
    <g id="xtick_3">
     <g id="line2d_3">
      <path d="M 278.210156 450.72 
L 278.210156 7.2 
" clip-path="url(#pc143bf5111)" style="fill: none; stroke: #ffffff; stroke-linecap: round"/>
     </g>
     <g id="text_3">
      <!-- 0 -->
      <g style="fill: #262626" transform="translate(275.151641 468.093594) scale(0.11 -0.11)">
       <use xlink:href="#ArialMT-30"/>
      </g>
     </g>
    </g>
    <g id="xtick_4">
     <g id="line2d_4">
      <path d="M 366.914156 450.72 
L 366.914156 7.2 
" clip-path="url(#pc143bf5111)" style="fill: none; stroke: #ffffff; stroke-linecap: round"/>
     </g>
     <g id="text_4">
      <!-- 200 -->
      <g style="fill: #262626" transform="translate(357.738609 468.093594) scale(0.11 -0.11)">
       <use xlink:href="#ArialMT-32"/>
       <use xlink:href="#ArialMT-30" x="55.615234"/>
       <use xlink:href="#ArialMT-30" x="111.230469"/>
      </g>
     </g>
    </g>
    <g id="xtick_5">
     <g id="line2d_5">
      <path d="M 455.618156 450.72 
L 455.618156 7.2 
" clip-path="url(#pc143bf5111)" style="fill: none; stroke: #ffffff; stroke-linecap: round"/>
     </g>
     <g id="text_5">
      <!-- 400 -->
      <g style="fill: #262626" transform="translate(446.442609 468.093594) scale(0.11 -0.11)">
       <use xlink:href="#ArialMT-34"/>
       <use xlink:href="#ArialMT-30" x="55.615234"/>
       <use xlink:href="#ArialMT-30" x="111.230469"/>
      </g>
     </g>
    </g>
    <g id="text_6">
     <!-- x -->
     <g style="fill: #262626" transform="translate(275.210156 482.869219) scale(0.12 -0.12)">
      <defs>
       <path id="ArialMT-78" d="M 47 0 
L 1259 1725 
L 138 3319 
L 841 3319 
L 1350 2541 
Q 1494 2319 1581 2169 
Q 1719 2375 1834 2534 
L 2394 3319 
L 3066 3319 
L 1919 1756 
L 3153 0 
L 2463 0 
L 1781 1031 
L 1600 1309 
L 728 0 
L 47 0 
z
" transform="scale(0.015625)"/>
      </defs>
      <use xlink:href="#ArialMT-78"/>
     </g>
    </g>
   </g>
   <g id="matplotlib.axis_2">
    <g id="ytick_1">
     <g id="line2d_6">
      <path d="M 56.450156 406.368 
L 499.970156 406.368 
" clip-path="url(#pc143bf5111)" style="fill: none; stroke: #ffffff; stroke-linecap: round"/>
     </g>
     <g id="text_7">
      <!-- −400 -->
      <g style="fill: #262626" transform="translate(22.174375 410.304797) scale(0.11 -0.11)">
       <use xlink:href="#ArialMT-2212"/>
       <use xlink:href="#ArialMT-34" x="58.398438"/>
       <use xlink:href="#ArialMT-30" x="114.013672"/>
       <use xlink:href="#ArialMT-30" x="169.628906"/>
      </g>
     </g>
    </g>
    <g id="ytick_2">
     <g id="line2d_7">
      <path d="M 56.450156 317.664 
L 499.970156 317.664 
" clip-path="url(#pc143bf5111)" style="fill: none; stroke: #ffffff; stroke-linecap: round"/>
     </g>
     <g id="text_8">
      <!-- −200 -->
      <g style="fill: #262626" transform="translate(22.174375 321.600797) scale(0.11 -0.11)">
       <use xlink:href="#ArialMT-2212"/>
       <use xlink:href="#ArialMT-32" x="58.398438"/>
       <use xlink:href="#ArialMT-30" x="114.013672"/>
       <use xlink:href="#ArialMT-30" x="169.628906"/>
      </g>
     </g>
    </g>
    <g id="ytick_3">
     <g id="line2d_8">
      <path d="M 56.450156 228.96 
L 499.970156 228.96 
" clip-path="url(#pc143bf5111)" style="fill: none; stroke: #ffffff; stroke-linecap: round"/>
     </g>
     <g id="text_9">
      <!-- 0 -->
      <g style="fill: #262626" transform="translate(40.833125 232.896797) scale(0.11 -0.11)">
       <use xlink:href="#ArialMT-30"/>
      </g>
     </g>
    </g>
    <g id="ytick_4">
     <g id="line2d_9">
      <path d="M 56.450156 140.256 
L 499.970156 140.256 
" clip-path="url(#pc143bf5111)" style="fill: none; stroke: #ffffff; stroke-linecap: round"/>
     </g>
     <g id="text_10">
      <!-- 200 -->
      <g style="fill: #262626" transform="translate(28.599063 144.192797) scale(0.11 -0.11)">
       <use xlink:href="#ArialMT-32"/>
       <use xlink:href="#ArialMT-30" x="55.615234"/>
       <use xlink:href="#ArialMT-30" x="111.230469"/>
      </g>
     </g>
    </g>
    <g id="ytick_5">
     <g id="line2d_10">
      <path d="M 56.450156 51.552 
L 499.970156 51.552 
" clip-path="url(#pc143bf5111)" style="fill: none; stroke: #ffffff; stroke-linecap: round"/>
     </g>
     <g id="text_11">
      <!-- 400 -->
      <g style="fill: #262626" transform="translate(28.599063 55.488797) scale(0.11 -0.11)">
       <use xlink:href="#ArialMT-34"/>
       <use xlink:href="#ArialMT-30" x="55.615234"/>
       <use xlink:href="#ArialMT-30" x="111.230469"/>
      </g>
     </g>
    </g>
    <g id="text_12">
     <!-- y -->
     <g style="fill: #262626" transform="translate(15.64875 231.96) rotate(-90) scale(0.12 -0.12)">
      <defs>
       <path id="ArialMT-79" d="M 397 -1278 
L 334 -750 
Q 519 -800 656 -800 
Q 844 -800 956 -737 
Q 1069 -675 1141 -563 
Q 1194 -478 1313 -144 
Q 1328 -97 1363 -6 
L 103 3319 
L 709 3319 
L 1400 1397 
Q 1534 1031 1641 628 
Q 1738 1016 1872 1384 
L 2581 3319 
L 3144 3319 
L 1881 -56 
Q 1678 -603 1566 -809 
Q 1416 -1088 1222 -1217 
Q 1028 -1347 759 -1347 
Q 597 -1347 397 -1278 
z
" transform="scale(0.015625)"/>
      </defs>
      <use xlink:href="#ArialMT-79"/>
     </g>
    </g>
   </g>
   <g id="patch_3">
    <path d="M 278.210156 317.664 
C 301.734732 317.664 324.298969 308.317587 340.933356 291.6832 
C 357.567743 275.048813 366.914156 252.484576 366.914156 228.96 
C 366.914156 205.435424 357.567743 182.871187 340.933356 166.2368 
C 324.298969 149.602413 301.734732 140.256 278.210156 140.256 
C 254.68558 140.256 232.121343 149.602413 215.486956 166.2368 
C 198.852569 182.871187 189.506156 205.435424 189.506156 228.96 
C 189.506156 252.484576 198.852569 275.048813 215.486956 291.6832 
C 232.121343 308.317587 254.68558 317.664 278.210156 317.664 
z
" clip-path="url(#pc143bf5111)" style="fill: #228b22; opacity: 0.12; stroke: #228b22; stroke-width: 1.5; stroke-linejoin: miter"/>
   </g>
   <g id="PathCollection_1">
    <defs>
     <path id="m394303d120" d="M 0 2.236068 
C 0.593012 2.236068 1.161816 2.000462 1.581139 1.581139 
C 2.000462 1.161816 2.236068 0.593012 2.236068 0 
C 2.236068 -0.593012 2.000462 -1.161816 1.581139 -1.581139 
C 1.161816 -2.000462 0.593012 -2.236068 0 -2.236068 
C -0.593012 -2.236068 -1.161816 -2.000462 -1.581139 -1.581139 
C -2.000462 -1.161816 -2.236068 -0.593012 -2.236068 0 
C -2.236068 0.593012 -2.000462 1.161816 -1.581139 1.581139 
C -1.161816 2.000462 -0.593012 2.236068 0 2.236068 
z
" style="stroke: #4169e1"/>
    </defs>
    <g clip-path="url(#pc143bf5111)">
     <use xlink:href="#m394303d120" x="235.629638" y="140.633062" style="fill: #4169e1; stroke: #4169e1"/>
     <use xlink:href="#m394303d120" x="298.20131" y="248.440653" style="fill: #4169e1; stroke: #4169e1"/>
     <use xlink:href="#m394303d120" x="283.588969" y="270.314311" style="fill: #4169e1; stroke: #4169e1"/>
     <use xlink:href="#m394303d120" x="378.224654" y="207.935974" style="fill: #4169e1; stroke: #4169e1"/>
     <use xlink:href="#m394303d120" x="218.128782" y="104.651568" style="fill: #4169e1; stroke: #4169e1"/>
     <use xlink:href="#m394303d120" x="440.606233" y="131.486579" style="fill: #4169e1; stroke: #4169e1"/>
     <use xlink:href="#m394303d120" x="269.863771" y="275.609153" style="fill: #4169e1; stroke: #4169e1"/>
     <use xlink:href="#m394303d120" x="228.728318" y="216.106729" style="fill: #4169e1; stroke: #4169e1"/>
     <use xlink:href="#m394303d120" x="252.361195" y="284.722401" style="fill: #4169e1; stroke: #4169e1"/>
     <use xlink:href="#m394303d120" x="400.158828" y="239.526852" style="fill: #4169e1; stroke: #4169e1"/>
     <use xlink:href="#m394303d120" x="410.947674" y="155.874474" style="fill: #4169e1; stroke: #4169e1"/>
     <use xlink:href="#m394303d120" x="344.239738" y="87.181336" style="fill: #4169e1; stroke: #4169e1"/>
     <use xlink:href="#m394303d120" x="267.922283" y="345.444529" style="fill: #4169e1; stroke: #4169e1"/>
     <use xlink:href="#m394303d120" x="279.575696" y="333.475526" style="fill: #4169e1; stroke: #4169e1"/>
     <use xlink:href="#m394303d120" x="308.030836" y="107.548214" style="fill: #4169e1; stroke: #4169e1"/>
     <use xlink:href="#m394303d120" x="426.810931" y="239.144817" style="fill: #4169e1; stroke: #4169e1"/>
     <use xlink:href="#m394303d120" x="274.185063" y="122.639304" style="fill: #4169e1; stroke: #4169e1"/>
     <use xlink:href="#m394303d120" x="273.097618" y="82.061542" style="fill: #4169e1; stroke: #4169e1"/>
     <use xlink:href="#m394303d120" x="346.903375" y="337.121538" style="fill: #4169e1; stroke: #4169e1"/>
     <use xlink:href="#m394303d120" x="357.488666" y="273.613238" style="fill: #4169e1; stroke: #4169e1"/>
     <use xlink:href="#m394303d120" x="387.292667" y="220.085824" style="fill: #4169e1; stroke: #4169e1"/>
     <use xlink:href="#m394303d120" x="299.894099" y="324.907901" style="fill: #4169e1; stroke: #4169e1"/>
     <use xlink:href="#m394303d120" x="370.012949" y="264.048586" style="fill: #4169e1; stroke: #4169e1"/>
     <use xlink:href="#m394303d120" x="194.774215" y="159.726255" style="fill: #4169e1; stroke: #4169e1"/>
     <use xlink:href="#m394303d120" x="225.958995" y="141.382991" style="fill: #4169e1; stroke: #4169e1"/>
     <use xlink:href="#m394303d120" x="395.59323" y="225.891108" style="fill: #4169e1; stroke: #4169e1"/>
     <use xlink:href="#m394303d120" x="285.656701" y="289.032346" style="fill: #4169e1; stroke: #4169e1"/>
     <use xlink:href="#m394303d120" x="257.425066" y="282.033679" style="fill: #4169e1; stroke: #4169e1"/>
     <use xlink:href="#m394303d120" x="207.519696" y="161.778408" style="fill: #4169e1; stroke: #4169e1"/>
     <use xlink:href="#m394303d120" x="223.362275" y="227.917697" style="fill: #4169e1; stroke: #4169e1"/>
     <use xlink:href="#m394303d120" x="192.036317" y="276.619275" style="fill: #4169e1; stroke: #4169e1"/>
     <use xlink:href="#m394303d120" x="255.89669" y="144.475856" style="fill: #4169e1; stroke: #4169e1"/>
     <use xlink:href="#m394303d120" x="341.653494" y="152.247431" style="fill: #4169e1; stroke: #4169e1"/>
     <use xlink:href="#m394303d120" x="354.543619" y="181.590574" style="fill: #4169e1; stroke: #4169e1"/>
     <use xlink:href="#m394303d120" x="424.228843" y="154.057941" style="fill: #4169e1; stroke: #4169e1"/>
     <use xlink:href="#m394303d120" x="224.984687" y="249.384087" style="fill: #4169e1; stroke: #4169e1"/>
     <use xlink:href="#m394303d120" x="247.948981" y="227.889786" style="fill: #4169e1; stroke: #4169e1"/>
     <use xlink:href="#m394303d120" x="320.36225" y="212.291348" style="fill: #4169e1; stroke: #4169e1"/>
     <use xlink:href="#m394303d120" x="283.212804" y="245.216987" style="fill: #4169e1; stroke: #4169e1"/>
     <use xlink:href="#m394303d120" x="205.167618" y="236.507697" style="fill: #4169e1; stroke: #4169e1"/>
     <use xlink:href="#m394303d120" x="321.233721" y="47.92248" style="fill: #4169e1; stroke: #4169e1"/>
     <use xlink:href="#m394303d120" x="432.293468" y="259.755255" style="fill: #4169e1; stroke: #4169e1"/>
     <use xlink:href="#m394303d120" x="307.197091" y="229.352229" style="fill: #4169e1; stroke: #4169e1"/>
     <use xlink:href="#m394303d120" x="275.435374" y="273.926801" style="fill: #4169e1; stroke: #4169e1"/>
     <use xlink:href="#m394303d120" x="328.41287" y="272.478214" style="fill: #4169e1; stroke: #4169e1"/>
     <use xlink:href="#m394303d120" x="231.747917" y="145.628889" style="fill: #4169e1; stroke: #4169e1"/>
     <use xlink:href="#m394303d120" x="218.745667" y="165.99561" style="fill: #4169e1; stroke: #4169e1"/>
     <use xlink:href="#m394303d120" x="221.810131" y="203.486765" style="fill: #4169e1; stroke: #4169e1"/>
     <use xlink:href="#m394303d120" x="405.668692" y="144.472668" style="fill: #4169e1; stroke: #4169e1"/>
     <use xlink:href="#m394303d120" x="351.924993" y="142.235185" style="fill: #4169e1; stroke: #4169e1"/>
     <use xlink:href="#m394303d120" x="347.496405" y="204.28742" style="fill: #4169e1; stroke: #4169e1"/>
     <use xlink:href="#m394303d120" x="315.62773" y="208.318575" style="fill: #4169e1; stroke: #4169e1"/>
     <use xlink:href="#m394303d120" x="364.565333" y="299.116552" style="fill: #4169e1; stroke: #4169e1"/>
     <use xlink:href="#m394303d120" x="317.413928" y="284.757105" style="fill: #4169e1; stroke: #4169e1"/>
     <use xlink:href="#m394303d120" x="279.550819" y="277.698988" style="fill: #4169e1; stroke: #4169e1"/>
     <use xlink:href="#m394303d120" x="379.631728" y="128.713449" style="fill: #4169e1; stroke: #4169e1"/>
     <use xlink:href="#m394303d120" x="230.812073" y="187.537268" style="fill: #4169e1; stroke: #4169e1"/>
     <use xlink:href="#m394303d120" x="435.471536" y="164.203204" style="fill: #4169e1; stroke: #4169e1"/>
     <use xlink:href="#m394303d120" x="233.299381" y="249.091809" style="fill: #4169e1; stroke: #4169e1"/>
     <use xlink:href="#m394303d120" x="376.254341" y="298.339377" style="fill: #4169e1; stroke: #4169e1"/>
     <use xlink:href="#m394303d120" x="244.980556" y="125.914128" style="fill: #4169e1; stroke: #4169e1"/>
     <use xlink:href="#m394303d120" x="343.533027" y="306.665508" style="fill: #4169e1; stroke: #4169e1"/>
     <use xlink:href="#m394303d120" x="285.64635" y="168.688843" style="fill: #4169e1; stroke: #4169e1"/>
     <use xlink:href="#m394303d120" x="318.735531" y="177.35454" style="fill: #4169e1; stroke: #4169e1"/>
     <use xlink:href="#m394303d120" x="197.978413" y="315.321998" style="fill: #4169e1; stroke: #4169e1"/>
     <use xlink:href="#m394303d120" x="433.775459" y="210.803886" style="fill: #4169e1; stroke: #4169e1"/>
     <use xlink:href="#m394303d120" x="308.307823" y="63.501459" style="fill: #4169e1; stroke: #4169e1"/>
     <use xlink:href="#m394303d120" x="317.812122" y="294.379944" style="fill: #4169e1; stroke: #4169e1"/>
     <use xlink:href="#m394303d120" x="214.297148" y="259.180339" style="fill: #4169e1; stroke: #4169e1"/>
     <use xlink:href="#m394303d120" x="206.575342" y="233.616278" style="fill: #4169e1; stroke: #4169e1"/>
     <use xlink:href="#m394303d120" x="316.389225" y="268.412013" style="fill: #4169e1; stroke: #4169e1"/>
     <use xlink:href="#m394303d120" x="206.409374" y="215.5719" style="fill: #4169e1; stroke: #4169e1"/>
     <use xlink:href="#m394303d120" x="276.848773" y="207.43405" style="fill: #4169e1; stroke: #4169e1"/>
     <use xlink:href="#m394303d120" x="309.742255" y="130.032375" style="fill: #4169e1; stroke: #4169e1"/>
     <use xlink:href="#m394303d120" x="394.346602" y="185.317591" style="fill: #4169e1; stroke: #4169e1"/>
     <use xlink:href="#m394303d120" x="340.373028" y="291.210864" style="fill: #4169e1; stroke: #4169e1"/>
     <use xlink:href="#m394303d120" x="216.661321" y="177.644128" style="fill: #4169e1; stroke: #4169e1"/>
     <use xlink:href="#m394303d120" x="279.645867" y="91.063828" style="fill: #4169e1; stroke: #4169e1"/>
     <use xlink:href="#m394303d120" x="276.714737" y="142.846561" style="fill: #4169e1; stroke: #4169e1"/>
     <use xlink:href="#m394303d120" x="211.030411" y="243.846274" style="fill: #4169e1; stroke: #4169e1"/>
     <use xlink:href="#m394303d120" x="298.77506" y="202.516436" style="fill: #4169e1; stroke: #4169e1"/>
     <use xlink:href="#m394303d120" x="324.984201" y="221.60476" style="fill: #4169e1; stroke: #4169e1"/>
     <use xlink:href="#m394303d120" x="398.790992" y="182.711938" style="fill: #4169e1; stroke: #4169e1"/>
     <use xlink:href="#m394303d120" x="240.661349" y="185.664696" style="fill: #4169e1; stroke: #4169e1"/>
     <use xlink:href="#m394303d120" x="380.03335" y="247.593909" style="fill: #4169e1; stroke: #4169e1"/>
     <use xlink:href="#m394303d120" x="256.993288" y="97.572276" style="fill: #4169e1; stroke: #4169e1"/>
     <use xlink:href="#m394303d120" x="373.533734" y="215.35889" style="fill: #4169e1; stroke: #4169e1"/>
     <use xlink:href="#m394303d120" x="380.607038" y="190.926011" style="fill: #4169e1; stroke: #4169e1"/>
     <use xlink:href="#m394303d120" x="169.468664" y="193.45808" style="fill: #4169e1; stroke: #4169e1"/>
     <use xlink:href="#m394303d120" x="313.706977" y="236.759634" style="fill: #4169e1; stroke: #4169e1"/>
     <use xlink:href="#m394303d120" x="387.441324" y="195.682181" style="fill: #4169e1; stroke: #4169e1"/>
     <use xlink:href="#m394303d120" x="319.371497" y="143.874137" style="fill: #4169e1; stroke: #4169e1"/>
     <use xlink:href="#m394303d120" x="384.422118" y="146.630165" style="fill: #4169e1; stroke: #4169e1"/>
     <use xlink:href="#m394303d120" x="176.445854" y="265.368765" style="fill: #4169e1; stroke: #4169e1"/>
     <use xlink:href="#m394303d120" x="347.794279" y="208.144887" style="fill: #4169e1; stroke: #4169e1"/>
     <use xlink:href="#m394303d120" x="384.250593" y="166.50996" style="fill: #4169e1; stroke: #4169e1"/>
     <use xlink:href="#m394303d120" x="350.014228" y="186.618847" style="fill: #4169e1; stroke: #4169e1"/>
     <use xlink:href="#m394303d120" x="243.079624" y="226.51569" style="fill: #4169e1; stroke: #4169e1"/>
     <use xlink:href="#m394303d120" x="192.983717" y="206.482641" style="fill: #4169e1; stroke: #4169e1"/>
     <use xlink:href="#m394303d120" x="242.719664" y="181.542189" style="fill: #4169e1; stroke: #4169e1"/>
     <use xlink:href="#m394303d120" x="287.127665" y="218.324759" style="fill: #4169e1; stroke: #4169e1"/>
     <use xlink:href="#m394303d120" x="407.636609" y="127.135784" style="fill: #4169e1; stroke: #4169e1"/>
     <use xlink:href="#m394303d120" x="308.970761" y="347.853625" style="fill: #4169e1; stroke: #4169e1"/>
     <use xlink:href="#m394303d120" x="420.950791" y="107.041606" style="fill: #4169e1; stroke: #4169e1"/>
     <use xlink:href="#m394303d120" x="232.425155" y="317.298625" style="fill: #4169e1; stroke: #4169e1"/>
     <use xlink:href="#m394303d120" x="318.576476" y="314.878864" style="fill: #4169e1; stroke: #4169e1"/>
     <use xlink:href="#m394303d120" x="377.723332" y="284.458526" style="fill: #4169e1; stroke: #4169e1"/>
     <use xlink:href="#m394303d120" x="366.897501" y="136.691077" style="fill: #4169e1; stroke: #4169e1"/>
     <use xlink:href="#m394303d120" x="292.559242" y="309.823246" style="fill: #4169e1; stroke: #4169e1"/>
     <use xlink:href="#m394303d120" x="223.934606" y="268.676497" style="fill: #4169e1; stroke: #4169e1"/>
     <use xlink:href="#m394303d120" x="289.909966" y="239.281273" style="fill: #4169e1; stroke: #4169e1"/>
     <use xlink:href="#m394303d120" x="398.775508" y="241.402098" style="fill: #4169e1; stroke: #4169e1"/>
     <use xlink:href="#m394303d120" x="287.006033" y="161.997055" style="fill: #4169e1; stroke: #4169e1"/>
     <use xlink:href="#m394303d120" x="287.662231" y="174.623403" style="fill: #4169e1; stroke: #4169e1"/>
     <use xlink:href="#m394303d120" x="343.978577" y="245.549835" style="fill: #4169e1; stroke: #4169e1"/>
     <use xlink:href="#m394303d120" x="347.608746" y="290.93321" style="fill: #4169e1; stroke: #4169e1"/>
     <use xlink:href="#m394303d120" x="329.753314" y="229.807465" style="fill: #4169e1; stroke: #4169e1"/>
     <use xlink:href="#m394303d120" x="350.377816" y="295.260819" style="fill: #4169e1; stroke: #4169e1"/>
     <use xlink:href="#m394303d120" x="402.282832" y="158.028993" style="fill: #4169e1; stroke: #4169e1"/>
     <use xlink:href="#m394303d120" x="194.224877" y="202.989279" style="fill: #4169e1; stroke: #4169e1"/>
     <use xlink:href="#m394303d120" x="417.733227" y="221.487663" style="fill: #4169e1; stroke: #4169e1"/>
     <use xlink:href="#m394303d120" x="254.374442" y="282.471101" style="fill: #4169e1; stroke: #4169e1"/>
     <use xlink:href="#m394303d120" x="465.260466" y="166.057189" style="fill: #4169e1; stroke: #4169e1"/>
     <use xlink:href="#m394303d120" x="334.643028" y="269.985986" style="fill: #4169e1; stroke: #4169e1"/>
     <use xlink:href="#m394303d120" x="298.014888" y="263.853778" style="fill: #4169e1; stroke: #4169e1"/>
     <use xlink:href="#m394303d120" x="177.568372" y="194.798115" style="fill: #4169e1; stroke: #4169e1"/>
     <use xlink:href="#m394303d120" x="261.678574" y="152.267098" style="fill: #4169e1; stroke: #4169e1"/>
     <use xlink:href="#m394303d120" x="204.006241" y="153.28865" style="fill: #4169e1; stroke: #4169e1"/>
     <use xlink:href="#m394303d120" x="200.696096" y="166.785461" style="fill: #4169e1; stroke: #4169e1"/>
     <use xlink:href="#m394303d120" x="400.293638" y="302.567665" style="fill: #4169e1; stroke: #4169e1"/>
     <use xlink:href="#m394303d120" x="231.091631" y="209.521969" style="fill: #4169e1; stroke: #4169e1"/>
     <use xlink:href="#m394303d120" x="326.371159" y="275.597841" style="fill: #4169e1; stroke: #4169e1"/>
     <use xlink:href="#m394303d120" x="278.92401" y="170.873681" style="fill: #4169e1; stroke: #4169e1"/>
     <use xlink:href="#m394303d120" x="322.404039" y="263.028767" style="fill: #4169e1; stroke: #4169e1"/>
     <use xlink:href="#m394303d120" x="373.366345" y="263.280385" style="fill: #4169e1; stroke: #4169e1"/>
     <use xlink:href="#m394303d120" x="327.837548" y="219.24043" style="fill: #4169e1; stroke: #4169e1"/>
     <use xlink:href="#m394303d120" x="266.380797" y="315.344264" style="fill: #4169e1; stroke: #4169e1"/>
     <use xlink:href="#m394303d120" x="196.900893" y="246.786943" style="fill: #4169e1; stroke: #4169e1"/>
     <use xlink:href="#m394303d120" x="355.266884" y="239.802105" style="fill: #4169e1; stroke: #4169e1"/>
     <use xlink:href="#m394303d120" x="353.240075" y="351.303695" style="fill: #4169e1; stroke: #4169e1"/>
     <use xlink:href="#m394303d120" x="269.617582" y="157.625443" style="fill: #4169e1; stroke: #4169e1"/>
     <use xlink:href="#m394303d120" x="200.710775" y="300.419345" style="fill: #4169e1; stroke: #4169e1"/>
     <use xlink:href="#m394303d120" x="272.062926" y="186.654319" style="fill: #4169e1; stroke: #4169e1"/>
     <use xlink:href="#m394303d120" x="174.326885" y="259.341208" style="fill: #4169e1; stroke: #4169e1"/>
     <use xlink:href="#m394303d120" x="399.575937" y="183.828328" style="fill: #4169e1; stroke: #4169e1"/>
     <use xlink:href="#m394303d120" x="287.417357" y="356.022985" style="fill: #4169e1; stroke: #4169e1"/>
     <use xlink:href="#m394303d120" x="226.694042" y="121.90266" style="fill: #4169e1; stroke: #4169e1"/>
     <use xlink:href="#m394303d120" x="287.497947" y="331.519148" style="fill: #4169e1; stroke: #4169e1"/>
     <use xlink:href="#m394303d120" x="432.904012" y="281.777137" style="fill: #4169e1; stroke: #4169e1"/>
     <use xlink:href="#m394303d120" x="322.487358" y="179.94609" style="fill: #4169e1; stroke: #4169e1"/>
     <use xlink:href="#m394303d120" x="303.384" y="248.26196" style="fill: #4169e1; stroke: #4169e1"/>
     <use xlink:href="#m394303d120" x="380.464607" y="140.258836" style="fill: #4169e1; stroke: #4169e1"/>
     <use xlink:href="#m394303d120" x="258.86353" y="263.364828" style="fill: #4169e1; stroke: #4169e1"/>
    </g>
   </g>
   <g id="PathCollection_2">
    <defs>
     <path id="ma2dd164f89" d="M 0 2.5 
C 0.663008 2.5 1.29895 2.236584 1.767767 1.767767 
C 2.236584 1.29895 2.5 0.663008 2.5 0 
C 2.5 -0.663008 2.236584 -1.29895 1.767767 -1.767767 
C 1.29895 -2.236584 0.663008 -2.5 0 -2.5 
C -0.663008 -2.5 -1.29895 -2.236584 -1.767767 -1.767767 
C -2.236584 -1.29895 -2.5 -0.663008 -2.5 0 
C -2.5 0.663008 -2.236584 1.29895 -1.767767 1.767767 
C -1.29895 2.236584 -0.663008 2.5 0 2.5 
z
" style="stroke: #b22222"/>
    </defs>
    <g clip-path="url(#pc143bf5111)">
     <use xlink:href="#ma2dd164f89" x="303.875817" y="194.173518" style="fill: #b22222; stroke: #b22222"/>
     <use xlink:href="#ma2dd164f89" x="299.19165" y="191.004021" style="fill: #b22222; stroke: #b22222"/>
     <use xlink:href="#ma2dd164f89" x="282.188381" y="191.411162" style="fill: #b22222; stroke: #b22222"/>
     <use xlink:href="#ma2dd164f89" x="280.489572" y="186.327161" style="fill: #b22222; stroke: #b22222"/>
     <use xlink:href="#ma2dd164f89" x="297.58914" y="213.071816" style="fill: #b22222; stroke: #b22222"/>
     <use xlink:href="#ma2dd164f89" x="303.253313" y="223.771447" style="fill: #b22222; stroke: #b22222"/>
     <use xlink:href="#ma2dd164f89" x="304.288607" y="192.096268" style="fill: #b22222; stroke: #b22222"/>
     <use xlink:href="#ma2dd164f89" x="292.484975" y="211.469259" style="fill: #b22222; stroke: #b22222"/>
     <use xlink:href="#ma2dd164f89" x="278.934337" y="185.450293" style="fill: #b22222; stroke: #b22222"/>
     <use xlink:href="#ma2dd164f89" x="283.050115" y="173.930734" style="fill: #b22222; stroke: #b22222"/>
     <use xlink:href="#ma2dd164f89" x="311.284146" y="190.975509" style="fill: #b22222; stroke: #b22222"/>
     <use xlink:href="#ma2dd164f89" x="284.445328" y="192.323432" style="fill: #b22222; stroke: #b22222"/>
     <use xlink:href="#ma2dd164f89" x="285.535007" y="186.085707" style="fill: #b22222; stroke: #b22222"/>
     <use xlink:href="#ma2dd164f89" x="280.974743" y="158.936756" style="fill: #b22222; stroke: #b22222"/>
     <use xlink:href="#ma2dd164f89" x="296.217528" y="213.255651" style="fill: #b22222; stroke: #b22222"/>
     <use xlink:href="#ma2dd164f89" x="316.186414" y="184.526721" style="fill: #b22222; stroke: #b22222"/>
     <use xlink:href="#ma2dd164f89" x="279.479872" y="190.280435" style="fill: #b22222; stroke: #b22222"/>
     <use xlink:href="#ma2dd164f89" x="305.001233" y="199.072571" style="fill: #b22222; stroke: #b22222"/>
     <use xlink:href="#ma2dd164f89" x="286.396813" y="196.045992" style="fill: #b22222; stroke: #b22222"/>
     <use xlink:href="#ma2dd164f89" x="293.641972" y="181.078329" style="fill: #b22222; stroke: #b22222"/>
     <use xlink:href="#ma2dd164f89" x="286.516654" y="191.577983" style="fill: #b22222; stroke: #b22222"/>
     <use xlink:href="#ma2dd164f89" x="279.902403" y="192.661117" style="fill: #b22222; stroke: #b22222"/>
     <use xlink:href="#ma2dd164f89" x="277.836776" y="173.772982" style="fill: #b22222; stroke: #b22222"/>
     <use xlink:href="#ma2dd164f89" x="293.553748" y="180.611156" style="fill: #b22222; stroke: #b22222"/>
     <use xlink:href="#ma2dd164f89" x="281.702789" y="175.836813" style="fill: #b22222; stroke: #b22222"/>
     <use xlink:href="#ma2dd164f89" x="304.328045" y="193.106701" style="fill: #b22222; stroke: #b22222"/>
     <use xlink:href="#ma2dd164f89" x="276.316891" y="166.544332" style="fill: #b22222; stroke: #b22222"/>
     <use xlink:href="#ma2dd164f89" x="281.030041" y="176.105949" style="fill: #b22222; stroke: #b22222"/>
     <use xlink:href="#ma2dd164f89" x="284.505741" y="183.408775" style="fill: #b22222; stroke: #b22222"/>
     <use xlink:href="#ma2dd164f89" x="288.556208" y="197.669463" style="fill: #b22222; stroke: #b22222"/>
     <use xlink:href="#ma2dd164f89" x="294.849511" y="203.12878" style="fill: #b22222; stroke: #b22222"/>
     <use xlink:href="#ma2dd164f89" x="299.692745" y="158.117554" style="fill: #b22222; stroke: #b22222"/>
     <use xlink:href="#ma2dd164f89" x="273.926449" y="178.037896" style="fill: #b22222; stroke: #b22222"/>
     <use xlink:href="#ma2dd164f89" x="274.821267" y="178.647642" style="fill: #b22222; stroke: #b22222"/>
     <use xlink:href="#ma2dd164f89" x="282.620683" y="171.614555" style="fill: #b22222; stroke: #b22222"/>
     <use xlink:href="#ma2dd164f89" x="291.481061" y="188.083459" style="fill: #b22222; stroke: #b22222"/>
     <use xlink:href="#ma2dd164f89" x="289.341218" y="193.754429" style="fill: #b22222; stroke: #b22222"/>
     <use xlink:href="#ma2dd164f89" x="299.020801" y="244.623348" style="fill: #b22222; stroke: #b22222"/>
     <use xlink:href="#ma2dd164f89" x="285.579112" y="197.93794" style="fill: #b22222; stroke: #b22222"/>
     <use xlink:href="#ma2dd164f89" x="280.047248" y="180.123864" style="fill: #b22222; stroke: #b22222"/>
     <use xlink:href="#ma2dd164f89" x="280.603167" y="187.049952" style="fill: #b22222; stroke: #b22222"/>
     <use xlink:href="#ma2dd164f89" x="286.467714" y="210.460996" style="fill: #b22222; stroke: #b22222"/>
     <use xlink:href="#ma2dd164f89" x="294.055858" y="205.326773" style="fill: #b22222; stroke: #b22222"/>
     <use xlink:href="#ma2dd164f89" x="279.864699" y="183.669486" style="fill: #b22222; stroke: #b22222"/>
     <use xlink:href="#ma2dd164f89" x="305.819787" y="189.520494" style="fill: #b22222; stroke: #b22222"/>
     <use xlink:href="#ma2dd164f89" x="259.517659" y="204.829156" style="fill: #b22222; stroke: #b22222"/>
     <use xlink:href="#ma2dd164f89" x="278.002075" y="249.008038" style="fill: #b22222; stroke: #b22222"/>
     <use xlink:href="#ma2dd164f89" x="274.475294" y="187.33619" style="fill: #b22222; stroke: #b22222"/>
     <use xlink:href="#ma2dd164f89" x="280.491358" y="183.499576" style="fill: #b22222; stroke: #b22222"/>
     <use xlink:href="#ma2dd164f89" x="293.611958" y="200.32477" style="fill: #b22222; stroke: #b22222"/>
     <use xlink:href="#ma2dd164f89" x="297.059543" y="204.407534" style="fill: #b22222; stroke: #b22222"/>
     <use xlink:href="#ma2dd164f89" x="277.625577" y="167.352909" style="fill: #b22222; stroke: #b22222"/>
     <use xlink:href="#ma2dd164f89" x="276.019547" y="171.075591" style="fill: #b22222; stroke: #b22222"/>
     <use xlink:href="#ma2dd164f89" x="295.090371" y="185.985361" style="fill: #b22222; stroke: #b22222"/>
    </g>
   </g>
   <g id="patch_4">
    <path d="M 56.450156 450.72 
L 56.450156 7.2 
" style="fill: none; stroke: #ffffff; stroke-width: 1.25; stroke-linejoin: miter; stroke-linecap: square"/>
   </g>
   <g id="patch_5">
    <path d="M 499.970156 450.72 
L 499.970156 7.2 
" style="fill: none; stroke: #ffffff; stroke-width: 1.25; stroke-linejoin: miter; stroke-linecap: square"/>
   </g>
   <g id="patch_6">
    <path d="M 56.450156 450.72 
L 499.970156 450.72 
" style="fill: none; stroke: #ffffff; stroke-width: 1.25; stroke-linejoin: miter; stroke-linecap: square"/>
   </g>
   <g id="patch_7">
    <path d="M 56.450156 7.2 
L 499.970156 7.2 
" style="fill: none; stroke: #ffffff; stroke-width: 1.25; stroke-linejoin: miter; stroke-linecap: square"/>
   </g>
   <g id="text_13">
    <!-- t = 4000 -->
    <g style="fill: #262626" transform="translate(65.320556 24.659775) scale(0.12 -0.12)">
     <defs>
      <path id="ArialMT-74" d="M 1650 503 
L 1731 6 
Q 1494 -44 1306 -44 
Q 1000 -44 831 53 
Q 663 150 594 308 
Q 525 466 525 972 
L 525 2881 
L 113 2881 
L 113 3319 
L 525 3319 
L 525 4141 
L 1084 4478 
L 1084 3319 
L 1650 3319 
L 1650 2881 
L 1084 2881 
L 1084 941 
Q 1084 700 1114 631 
Q 1144 563 1211 522 
Q 1278 481 1403 481 
Q 1497 481 1650 503 
z
" transform="scale(0.015625)"/>
      <path id="ArialMT-20" transform="scale(0.015625)"/>
      <path id="ArialMT-3d" d="M 3381 2694 
L 356 2694 
L 356 3219 
L 3381 3219 
L 3381 2694 
z
M 3381 1303 
L 356 1303 
L 356 1828 
L 3381 1828 
L 3381 1303 
z
" transform="scale(0.015625)"/>
     </defs>
     <use xlink:href="#ArialMT-74"/>
     <use xlink:href="#ArialMT-20" x="27.783203"/>
     <use xlink:href="#ArialMT-3d" x="55.566406"/>
     <use xlink:href="#ArialMT-20" x="113.964844"/>
     <use xlink:href="#ArialMT-34" x="141.748047"/>
     <use xlink:href="#ArialMT-30" x="197.363281"/>
     <use xlink:href="#ArialMT-30" x="252.978516"/>
     <use xlink:href="#ArialMT-30" x="308.59375"/>
    </g>
   </g>
   <g id="legend_1">
    <g id="patch_8">
     <path d="M 328.111406 94.59 
L 483.170156 94.59 
Q 487.970156 94.59 487.970156 89.79 
L 487.970156 24 
Q 487.970156 19.2 483.170156 19.2 
L 328.111406 19.2 
Q 323.311406 19.2 323.311406 24 
L 323.311406 89.79 
Q 323.311406 94.59 328.111406 94.59 
z
" style="fill: #eaeaf2; opacity: 0.8; stroke: #cccccc; stroke-linejoin: miter"/>
    </g>
    <g id="PathCollection_3">
     <g>
      <use xlink:href="#m394303d120" x="356.911406" y="39.97125" style="fill: #4169e1; stroke: #4169e1"/>
     </g>
    </g>
    <g id="text_14">
     <!-- Sheep -->
     <g style="fill: #262626" transform="translate(400.111406 46.27125) scale(0.24 -0.24)">
      <defs>
       <path id="ArialMT-53" d="M 288 1472 
L 859 1522 
Q 900 1178 1048 958 
Q 1197 738 1509 602 
Q 1822 466 2213 466 
Q 2559 466 2825 569 
Q 3091 672 3220 851 
Q 3350 1031 3350 1244 
Q 3350 1459 3225 1620 
Q 3100 1781 2813 1891 
Q 2628 1963 1997 2114 
Q 1366 2266 1113 2400 
Q 784 2572 623 2826 
Q 463 3081 463 3397 
Q 463 3744 659 4045 
Q 856 4347 1234 4503 
Q 1613 4659 2075 4659 
Q 2584 4659 2973 4495 
Q 3363 4331 3572 4012 
Q 3781 3694 3797 3291 
L 3216 3247 
Q 3169 3681 2898 3903 
Q 2628 4125 2100 4125 
Q 1550 4125 1298 3923 
Q 1047 3722 1047 3438 
Q 1047 3191 1225 3031 
Q 1400 2872 2139 2705 
Q 2878 2538 3153 2413 
Q 3553 2228 3743 1945 
Q 3934 1663 3934 1294 
Q 3934 928 3725 604 
Q 3516 281 3123 101 
Q 2731 -78 2241 -78 
Q 1619 -78 1198 103 
Q 778 284 539 648 
Q 300 1013 288 1472 
z
" transform="scale(0.015625)"/>
       <path id="ArialMT-68" d="M 422 0 
L 422 4581 
L 984 4581 
L 984 2938 
Q 1378 3394 1978 3394 
Q 2347 3394 2619 3248 
Q 2891 3103 3008 2847 
Q 3125 2591 3125 2103 
L 3125 0 
L 2563 0 
L 2563 2103 
Q 2563 2525 2380 2717 
Q 2197 2909 1863 2909 
Q 1613 2909 1392 2779 
Q 1172 2650 1078 2428 
Q 984 2206 984 1816 
L 984 0 
L 422 0 
z
" transform="scale(0.015625)"/>
       <path id="ArialMT-65" d="M 2694 1069 
L 3275 997 
Q 3138 488 2766 206 
Q 2394 -75 1816 -75 
Q 1088 -75 661 373 
Q 234 822 234 1631 
Q 234 2469 665 2931 
Q 1097 3394 1784 3394 
Q 2450 3394 2872 2941 
Q 3294 2488 3294 1666 
Q 3294 1616 3291 1516 
L 816 1516 
Q 847 969 1125 678 
Q 1403 388 1819 388 
Q 2128 388 2347 550 
Q 2566 713 2694 1069 
z
M 847 1978 
L 2700 1978 
Q 2663 2397 2488 2606 
Q 2219 2931 1791 2931 
Q 1403 2931 1139 2672 
Q 875 2413 847 1978 
z
" transform="scale(0.015625)"/>
       <path id="ArialMT-70" d="M 422 -1272 
L 422 3319 
L 934 3319 
L 934 2888 
Q 1116 3141 1344 3267 
Q 1572 3394 1897 3394 
Q 2322 3394 2647 3175 
Q 2972 2956 3137 2557 
Q 3303 2159 3303 1684 
Q 3303 1175 3120 767 
Q 2938 359 2589 142 
Q 2241 -75 1856 -75 
Q 1575 -75 1351 44 
Q 1128 163 984 344 
L 984 -1272 
L 422 -1272 
z
M 931 1641 
Q 931 1000 1190 694 
Q 1450 388 1819 388 
Q 2194 388 2461 705 
Q 2728 1022 2728 1688 
Q 2728 2322 2467 2637 
Q 2206 2953 1844 2953 
Q 1484 2953 1207 2617 
Q 931 2281 931 1641 
z
" transform="scale(0.015625)"/>
      </defs>
      <use xlink:href="#ArialMT-53"/>
      <use xlink:href="#ArialMT-68" x="66.699219"/>
      <use xlink:href="#ArialMT-65" x="122.314453"/>
      <use xlink:href="#ArialMT-65" x="177.929688"/>
      <use xlink:href="#ArialMT-70" x="233.544922"/>
     </g>
    </g>
    <g id="PathCollection_4">
     <g>
      <use xlink:href="#ma2dd164f89" x="356.911406" y="73.92" style="fill: #b22222; stroke: #b22222"/>
     </g>
    </g>
    <g id="text_15">
     <!-- Wolves -->
     <g style="fill: #262626" transform="translate(400.111406 80.22) scale(0.24 -0.24)">
      <defs>
       <path id="ArialMT-57" d="M 1294 0 
L 78 4581 
L 700 4581 
L 1397 1578 
Q 1509 1106 1591 641 
Q 1766 1375 1797 1488 
L 2669 4581 
L 3400 4581 
L 4056 2263 
Q 4303 1400 4413 641 
Q 4500 1075 4641 1638 
L 5359 4581 
L 5969 4581 
L 4713 0 
L 4128 0 
L 3163 3491 
Q 3041 3928 3019 4028 
Q 2947 3713 2884 3491 
L 1913 0 
L 1294 0 
z
" transform="scale(0.015625)"/>
       <path id="ArialMT-6f" d="M 213 1659 
Q 213 2581 725 3025 
Q 1153 3394 1769 3394 
Q 2453 3394 2887 2945 
Q 3322 2497 3322 1706 
Q 3322 1066 3130 698 
Q 2938 331 2570 128 
Q 2203 -75 1769 -75 
Q 1072 -75 642 372 
Q 213 819 213 1659 
z
M 791 1659 
Q 791 1022 1069 705 
Q 1347 388 1769 388 
Q 2188 388 2466 706 
Q 2744 1025 2744 1678 
Q 2744 2294 2464 2611 
Q 2184 2928 1769 2928 
Q 1347 2928 1069 2612 
Q 791 2297 791 1659 
z
" transform="scale(0.015625)"/>
       <path id="ArialMT-6c" d="M 409 0 
L 409 4581 
L 972 4581 
L 972 0 
L 409 0 
z
" transform="scale(0.015625)"/>
       <path id="ArialMT-76" d="M 1344 0 
L 81 3319 
L 675 3319 
L 1388 1331 
Q 1503 1009 1600 663 
Q 1675 925 1809 1294 
L 2547 3319 
L 3125 3319 
L 1869 0 
L 1344 0 
z
" transform="scale(0.015625)"/>
       <path id="ArialMT-73" d="M 197 991 
L 753 1078 
Q 800 744 1014 566 
Q 1228 388 1613 388 
Q 2000 388 2187 545 
Q 2375 703 2375 916 
Q 2375 1106 2209 1216 
Q 2094 1291 1634 1406 
Q 1016 1563 777 1677 
Q 538 1791 414 1992 
Q 291 2194 291 2438 
Q 291 2659 392 2848 
Q 494 3038 669 3163 
Q 800 3259 1026 3326 
Q 1253 3394 1513 3394 
Q 1903 3394 2198 3281 
Q 2494 3169 2634 2976 
Q 2775 2784 2828 2463 
L 2278 2388 
Q 2241 2644 2061 2787 
Q 1881 2931 1553 2931 
Q 1166 2931 1000 2803 
Q 834 2675 834 2503 
Q 834 2394 903 2306 
Q 972 2216 1119 2156 
Q 1203 2125 1616 2013 
Q 2213 1853 2448 1751 
Q 2684 1650 2818 1456 
Q 2953 1263 2953 975 
Q 2953 694 2789 445 
Q 2625 197 2315 61 
Q 2006 -75 1616 -75 
Q 969 -75 630 194 
Q 291 463 197 991 
z
" transform="scale(0.015625)"/>
      </defs>
      <use xlink:href="#ArialMT-57"/>
      <use xlink:href="#ArialMT-6f" x="92.634766"/>
      <use xlink:href="#ArialMT-6c" x="148.25"/>
      <use xlink:href="#ArialMT-76" x="170.466797"/>
      <use xlink:href="#ArialMT-65" x="220.466797"/>
      <use xlink:href="#ArialMT-73" x="276.082031"/>
     </g>
    </g>
   </g>
  </g>
 </g>
 <defs>
  <clipPath id="pc143bf5111">
   <rect x="56.450156" y="7.2" width="443.52" height="443.52"/>
  </clipPath>
 </defs>
</svg>
