<?xml version="1.0" encoding="utf-8" standalone="no"?>
<!DOCTYPE svg PUBLIC "-//W3C//DTD SVG 1.1//EN"
  "http://www.w3.org/Graphics/SVG/1.1/DTD/svg11.dtd">
<svg xmlns:xlink="http://www.w3.org/1999/xlink" width="507.170156pt" height="492.454219pt" viewBox="0 0 507.170156 492.454219" xmlns="http://www.w3.org/2000/svg" version="1.1">
 <metadata>
  <rdf:RDF xmlns:dc="http://purl.org/dc/elements/1.1/" xmlns:cc="http://creativecommons.org/ns#" xmlns:rdf="http://www.w3.org/1999/02/22-rdf-syntax-ns#">
   <cc:Work>
    <dc:type rdf:resource="http://purl.org/dc/dcmitype/StillImage"/>
    <dc:date>2026-05-12T10:43:20.295601</dc:date>
    <dc:format>image/svg+xml</dc:format>
    <dc:creator>
     <cc:Agent>
      <dc:title>Matplotlib v3.7.1, https://matplotlib.org/</dc:title>
     </cc:Agent>
    </dc:creator>
   </cc:Work>
  </rdf:RDF>
 </metadata>
 <defs>
  <style type="text/css">*{stroke-linejoin: round; stroke-linecap: butt}</style>
 </defs>
 <g id="figure_1">
  <g id="patch_1">
   <path d="M 0 492.454219 
L 507.170156 492.454219 
L 507.170156 0 
L 0 0 
z
" style="fill: #ffffff"/>
  </g>
  <g id="axes_1">
   <g id="patch_2">
    <path d="M 56.450156 450.72 
L 499.970156 450.72 
L 499.970156 7.2 
L 56.450156 7.2 
z
" style="fill: #eaeaf2"/>
   </g>
   <g id="matplotlib.axis_1">
    <g id="xtick_1">
     <g id="line2d_1">
      <path d="M 100.802156 450.72 
L 100.802156 7.2 
" clip-path="url(#p18f1236ce1)" style="fill: none; stroke: #ffffff; stroke-linecap: round"/>
     </g>
     <g id="text_1">
      <!-- −400 -->
      <g style="fill: #262626" transform="translate(88.414266 468.093594) scale(0.11 -0.11)">
       <defs>
        <path id="ArialMT-2212" d="M 3381 1997 
L 356 1997 
L 356 2522 
L 3381 2522 
L 3381 1997 
z
" transform="scale(0.015625)"/>
        <path id="ArialMT-34" d="M 2069 0 
L 2069 1097 
L 81 1097 
L 81 1613 
L 2172 4581 
L 2631 4581 
L 2631 1613 
L 3250 1613 
L 3250 1097 
L 2631 1097 
L 2631 0 
L 2069 0 
z
M 2069 1613 
L 2069 3678 
L 634 1613 
L 2069 1613 
z
" transform="scale(0.015625)"/>
        <path id="ArialMT-30" d="M 266 2259 
Q 266 3072 433 3567 
Q 600 4063 929 4331 
Q 1259 4600 1759 4600 
Q 2128 4600 2406 4451 
Q 2684 4303 2865 4023 
Q 3047 3744 3150 3342 
Q 3253 2941 3253 2259 
Q 3253 1453 3087 958 
Q 2922 463 2592 192 
Q 2263 -78 1759 -78 
Q 1097 -78 719 397 
Q 266 969 266 2259 
z
M 844 2259 
Q 844 1131 1108 757 
Q 1372 384 1759 384 
Q 2147 384 2411 759 
Q 2675 1134 2675 2259 
Q 2675 3391 2411 3762 
Q 2147 4134 1753 4134 
Q 1366 4134 1134 3806 
Q 844 3388 844 2259 
z
" transform="scale(0.015625)"/>
       </defs>
       <use xlink:href="#ArialMT-2212"/>
       <use xlink:href="#ArialMT-34" x="58.398438"/>
       <use xlink:href="#ArialMT-30" x="114.013672"/>
       <use xlink:href="#ArialMT-30" x="169.628906"/>
      </g>
     </g>
    </g>
    <g id="xtick_2">
     <g id="line2d_2">
      <path d="M 189.506156 450.72 
L 189.506156 7.2 
" clip-path="url(#p18f1236ce1)" style="fill: none; stroke: #ffffff; stroke-linecap: round"/>
     </g>
     <g id="text_2">
      <!-- −200 -->
      <g style="fill: #262626" transform="translate(177.118266 468.093594) scale(0.11 -0.11)">
       <defs>
        <path id="ArialMT-32" d="M 3222 541 
L 3222 0 
L 194 0 
Q 188 203 259 391 
Q 375 700 629 1000 
Q 884 1300 1366 1694 
Q 2113 2306 2375 2664 
Q 2638 3022 2638 3341 
Q 2638 3675 2398 3904 
Q 2159 4134 1775 4134 
Q 1369 4134 1125 3890 
Q 881 3647 878 3216 
L 300 3275 
Q 359 3922 746 4261 
Q 1134 4600 1788 4600 
Q 2447 4600 2831 4234 
Q 3216 3869 3216 3328 
Q 3216 3053 3103 2787 
Q 2991 2522 2730 2228 
Q 2469 1934 1863 1422 
Q 1356 997 1212 845 
Q 1069 694 975 541 
L 3222 541 
z
" transform="scale(0.015625)"/>
       </defs>
       <use xlink:href="#ArialMT-2212"/>
       <use xlink:href="#ArialMT-32" x="58.398438"/>
       <use xlink:href="#ArialMT-30" x="114.013672"/>
       <use xlink:href="#ArialMT-30" x="169.628906"/>
      </g>
     </g>
    </g>
    <g id="xtick_3">
     <g id="line2d_3">
      <path d="M 278.210156 450.72 
L 278.210156 7.2 
" clip-path="url(#p18f1236ce1)" style="fill: none; stroke: #ffffff; stroke-linecap: round"/>
     </g>
     <g id="text_3">
      <!-- 0 -->
      <g style="fill: #262626" transform="translate(275.151641 468.093594) scale(0.11 -0.11)">
       <use xlink:href="#ArialMT-30"/>
      </g>
     </g>
    </g>
    <g id="xtick_4">
     <g id="line2d_4">
      <path d="M 366.914156 450.72 
L 366.914156 7.2 
" clip-path="url(#p18f1236ce1)" style="fill: none; stroke: #ffffff; stroke-linecap: round"/>
     </g>
     <g id="text_4">
      <!-- 200 -->
      <g style="fill: #262626" transform="translate(357.738609 468.093594) scale(0.11 -0.11)">
       <use xlink:href="#ArialMT-32"/>
       <use xlink:href="#ArialMT-30" x="55.615234"/>
       <use xlink:href="#ArialMT-30" x="111.230469"/>
      </g>
     </g>
    </g>
    <g id="xtick_5">
     <g id="line2d_5">
      <path d="M 455.618156 450.72 
L 455.618156 7.2 
" clip-path="url(#p18f1236ce1)" style="fill: none; stroke: #ffffff; stroke-linecap: round"/>
     </g>
     <g id="text_5">
      <!-- 400 -->
      <g style="fill: #262626" transform="translate(446.442609 468.093594) scale(0.11 -0.11)">
       <use xlink:href="#ArialMT-34"/>
       <use xlink:href="#ArialMT-30" x="55.615234"/>
       <use xlink:href="#ArialMT-30" x="111.230469"/>
      </g>
     </g>
    </g>
    <g id="text_6">
     <!-- x -->
     <g style="fill: #262626" transform="translate(275.210156 482.869219) scale(0.12 -0.12)">
      <defs>
       <path id="ArialMT-78" d="M 47 0 
L 1259 1725 
L 138 3319 
L 841 3319 
L 1350 2541 
Q 1494 2319 1581 2169 
Q 1719 2375 1834 2534 
L 2394 3319 
L 3066 3319 
L 1919 1756 
L 3153 0 
L 2463 0 
L 1781 1031 
L 1600 1309 
L 728 0 
L 47 0 
z
" transform="scale(0.015625)"/>
      </defs>
      <use xlink:href="#ArialMT-78"/>
     </g>
    </g>
   </g>
   <g id="matplotlib.axis_2">
    <g id="ytick_1">
     <g id="line2d_6">
      <path d="M 56.450156 406.368 
L 499.970156 406.368 
" clip-path="url(#p18f1236ce1)" style="fill: none; stroke: #ffffff; stroke-linecap: round"/>
     </g>
     <g id="text_7">
      <!-- −400 -->
      <g style="fill: #262626" transform="translate(22.174375 410.304797) scale(0.11 -0.11)">
       <use xlink:href="#ArialMT-2212"/>
       <use xlink:href="#ArialMT-34" x="58.398438"/>
       <use xlink:href="#ArialMT-30" x="114.013672"/>
       <use xlink:href="#ArialMT-30" x="169.628906"/>
      </g>
     </g>
    </g>
    <g id="ytick_2">
     <g id="line2d_7">
      <path d="M 56.450156 317.664 
L 499.970156 317.664 
" clip-path="url(#p18f1236ce1)" style="fill: none; stroke: #ffffff; stroke-linecap: round"/>
     </g>
     <g id="text_8">
      <!-- −200 -->
      <g style="fill: #262626" transform="translate(22.174375 321.600797) scale(0.11 -0.11)">
       <use xlink:href="#ArialMT-2212"/>
       <use xlink:href="#ArialMT-32" x="58.398438"/>
       <use xlink:href="#ArialMT-30" x="114.013672"/>
       <use xlink:href="#ArialMT-30" x="169.628906"/>
      </g>
     </g>
    </g>
    <g id="ytick_3">
     <g id="line2d_8">
      <path d="M 56.450156 228.96 
L 499.970156 228.96 
" clip-path="url(#p18f1236ce1)" style="fill: none; stroke: #ffffff; stroke-linecap: round"/>
     </g>
     <g id="text_9">
      <!-- 0 -->
      <g style="fill: #262626" transform="translate(40.833125 232.896797) scale(0.11 -0.11)">
       <use xlink:href="#ArialMT-30"/>
      </g>
     </g>
    </g>
    <g id="ytick_4">
     <g id="line2d_9">
      <path d="M 56.450156 140.256 
L 499.970156 140.256 
" clip-path="url(#p18f1236ce1)" style="fill: none; stroke: #ffffff; stroke-linecap: round"/>
     </g>
     <g id="text_10">
      <!-- 200 -->
      <g style="fill: #262626" transform="translate(28.599063 144.192797) scale(0.11 -0.11)">
       <use xlink:href="#ArialMT-32"/>
       <use xlink:href="#ArialMT-30" x="55.615234"/>
       <use xlink:href="#ArialMT-30" x="111.230469"/>
      </g>
     </g>
    </g>
    <g id="ytick_5">
     <g id="line2d_10">
      <path d="M 56.450156 51.552 
L 499.970156 51.552 
" clip-path="url(#p18f1236ce1)" style="fill: none; stroke: #ffffff; stroke-linecap: round"/>
     </g>
     <g id="text_11">
      <!-- 400 -->
      <g style="fill: #262626" transform="translate(28.599063 55.488797) scale(0.11 -0.11)">
       <use xlink:href="#ArialMT-34"/>
       <use xlink:href="#ArialMT-30" x="55.615234"/>
       <use xlink:href="#ArialMT-30" x="111.230469"/>
      </g>
     </g>
    </g>
    <g id="text_12">
     <!-- y -->
     <g style="fill: #262626" transform="translate(15.64875 231.96) rotate(-90) scale(0.12 -0.12)">
      <defs>
       <path id="ArialMT-79" d="M 397 -1278 
L 334 -750 
Q 519 -800 656 -800 
Q 844 -800 956 -737 
Q 1069 -675 1141 -563 
Q 1194 -478 1313 -144 
Q 1328 -97 1363 -6 
L 103 3319 
L 709 3319 
L 1400 1397 
Q 1534 1031 1641 628 
Q 1738 1016 1872 1384 
L 2581 3319 
L 3144 3319 
L 1881 -56 
Q 1678 -603 1566 -809 
Q 1416 -1088 1222 -1217 
Q 1028 -1347 759 -1347 
Q 597 -1347 397 -1278 
z
" transform="scale(0.015625)"/>
      </defs>
      <use xlink:href="#ArialMT-79"/>
     </g>
    </g>
   </g>
   <g id="patch_3">
    <path d="M 278.210156 317.664 
C 301.734732 317.664 324.298969 308.317587 340.933356 291.6832 
C 357.567743 275.048813 366.914156 252.484576 366.914156 228.96 
C 366.914156 205.435424 357.567743 182.871187 340.933356 166.2368 
C 324.298969 149.602413 301.734732 140.256 278.210156 140.256 
C 254.68558 140.256 232.121343 149.602413 215.486956 166.2368 
C 198.852569 182.871187 189.506156 205.435424 189.506156 228.96 
C 189.506156 252.484576 198.852569 275.048813 215.486956 291.6832 
C 232.121343 308.317587 254.68558 317.664 278.210156 317.664 
z
" clip-path="url(#p18f1236ce1)" style="fill: #228b22; opacity: 0.12; stroke: #228b22; stroke-width: 1.5; stroke-linejoin: miter"/>
   </g>
   <g id="PathCollection_1">
    <defs>
     <path id="m69f1fefcb5" d="M 0 2.236068 
C 0.593012 2.236068 1.161816 2.000462 1.581139 1.581139 
C 2.000462 1.161816 2.236068 0.593012 2.236068 0 
C 2.236068 -0.593012 2.000462 -1.161816 1.581139 -1.581139 
C 1.161816 -2.000462 0.593012 -2.236068 0 -2.236068 
C -0.593012 -2.236068 -1.161816 -2.000462 -1.581139 -1.581139 
C -2.000462 -1.161816 -2.236068 -0.593012 -2.236068 0 
C -2.236068 0.593012 -2.000462 1.161816 -1.581139 1.581139 
C -1.161816 2.000462 -0.593012 2.236068 0 2.236068 
z
" style="stroke: #4169e1"/>
    </defs>
    <g clip-path="url(#p18f1236ce1)">
     <use xlink:href="#m69f1fefcb5" x="221.047841" y="102.530745" style="fill: #4169e1; stroke: #4169e1"/>
     <use xlink:href="#m69f1fefcb5" x="397.27741" y="324.012279" style="fill: #4169e1; stroke: #4169e1"/>
     <use xlink:href="#m69f1fefcb5" x="324.542004" y="276.896746" style="fill: #4169e1; stroke: #4169e1"/>
     <use xlink:href="#m69f1fefcb5" x="293.551302" y="322.672387" style="fill: #4169e1; stroke: #4169e1"/>
     <use xlink:href="#m69f1fefcb5" x="343.739708" y="110.639806" style="fill: #4169e1; stroke: #4169e1"/>
     <use xlink:href="#m69f1fefcb5" x="427.866443" y="95.548052" style="fill: #4169e1; stroke: #4169e1"/>
     <use xlink:href="#m69f1fefcb5" x="355.025836" y="136.53792" style="fill: #4169e1; stroke: #4169e1"/>
     <use xlink:href="#m69f1fefcb5" x="366.29964" y="317.602016" style="fill: #4169e1; stroke: #4169e1"/>
     <use xlink:href="#m69f1fefcb5" x="409.476957" y="282.504212" style="fill: #4169e1; stroke: #4169e1"/>
     <use xlink:href="#m69f1fefcb5" x="228.176148" y="89.941073" style="fill: #4169e1; stroke: #4169e1"/>
     <use xlink:href="#m69f1fefcb5" x="395.545966" y="201.864568" style="fill: #4169e1; stroke: #4169e1"/>
     <use xlink:href="#m69f1fefcb5" x="308.18755" y="200.118054" style="fill: #4169e1; stroke: #4169e1"/>
     <use xlink:href="#m69f1fefcb5" x="313.920582" y="193.026766" style="fill: #4169e1; stroke: #4169e1"/>
     <use xlink:href="#m69f1fefcb5" x="273.966019" y="248.961927" style="fill: #4169e1; stroke: #4169e1"/>
     <use xlink:href="#m69f1fefcb5" x="259.118495" y="284.050333" style="fill: #4169e1; stroke: #4169e1"/>
     <use xlink:href="#m69f1fefcb5" x="385.780404" y="156.882478" style="fill: #4169e1; stroke: #4169e1"/>
     <use xlink:href="#m69f1fefcb5" x="398.872704" y="195.165334" style="fill: #4169e1; stroke: #4169e1"/>
     <use xlink:href="#m69f1fefcb5" x="279.767235" y="57.895522" style="fill: #4169e1; stroke: #4169e1"/>
     <use xlink:href="#m69f1fefcb5" x="347.230852" y="264.344316" style="fill: #4169e1; stroke: #4169e1"/>
     <use xlink:href="#m69f1fefcb5" x="440.918137" y="228.786353" style="fill: #4169e1; stroke: #4169e1"/>
     <use xlink:href="#m69f1fefcb5" x="345.833279" y="93.247022" style="fill: #4169e1; stroke: #4169e1"/>
     <use xlink:href="#m69f1fefcb5" x="328.715989" y="233.873576" style="fill: #4169e1; stroke: #4169e1"/>
     <use xlink:href="#m69f1fefcb5" x="278.389821" y="209.112993" style="fill: #4169e1; stroke: #4169e1"/>
     <use xlink:href="#m69f1fefcb5" x="238.954454" y="161.174252" style="fill: #4169e1; stroke: #4169e1"/>
     <use xlink:href="#m69f1fefcb5" x="396.657134" y="153.818112" style="fill: #4169e1; stroke: #4169e1"/>
     <use xlink:href="#m69f1fefcb5" x="344.08231" y="298.33401" style="fill: #4169e1; stroke: #4169e1"/>
     <use xlink:href="#m69f1fefcb5" x="400.300595" y="234.866394" style="fill: #4169e1; stroke: #4169e1"/>
     <use xlink:href="#m69f1fefcb5" x="449.617602" y="153.48292" style="fill: #4169e1; stroke: #4169e1"/>
     <use xlink:href="#m69f1fefcb5" x="341.480583" y="139.916024" style="fill: #4169e1; stroke: #4169e1"/>
     <use xlink:href="#m69f1fefcb5" x="404.611543" y="172.126285" style="fill: #4169e1; stroke: #4169e1"/>
     <use xlink:href="#m69f1fefcb5" x="338.357129" y="133.155132" style="fill: #4169e1; stroke: #4169e1"/>
     <use xlink:href="#m69f1fefcb5" x="252.399041" y="88.863851" style="fill: #4169e1; stroke: #4169e1"/>
     <use xlink:href="#m69f1fefcb5" x="349.049733" y="190.961913" style="fill: #4169e1; stroke: #4169e1"/>
     <use xlink:href="#m69f1fefcb5" x="350.979562" y="250.824768" style="fill: #4169e1; stroke: #4169e1"/>
     <use xlink:href="#m69f1fefcb5" x="396.234458" y="201.43482" style="fill: #4169e1; stroke: #4169e1"/>
     <use xlink:href="#m69f1fefcb5" x="218.497689" y="270.16823" style="fill: #4169e1; stroke: #4169e1"/>
     <use xlink:href="#m69f1fefcb5" x="446.484822" y="249.289954" style="fill: #4169e1; stroke: #4169e1"/>
     <use xlink:href="#m69f1fefcb5" x="412.654038" y="230.341686" style="fill: #4169e1; stroke: #4169e1"/>
     <use xlink:href="#m69f1fefcb5" x="308.653409" y="130.757136" style="fill: #4169e1; stroke: #4169e1"/>
     <use xlink:href="#m69f1fefcb5" x="361.832747" y="216.877334" style="fill: #4169e1; stroke: #4169e1"/>
     <use xlink:href="#m69f1fefcb5" x="241.820401" y="246.611443" style="fill: #4169e1; stroke: #4169e1"/>
     <use xlink:href="#m69f1fefcb5" x="208.976824" y="115.273133" style="fill: #4169e1; stroke: #4169e1"/>
     <use xlink:href="#m69f1fefcb5" x="370.136403" y="168.542541" style="fill: #4169e1; stroke: #4169e1"/>
     <use xlink:href="#m69f1fefcb5" x="436.208972" y="219.695702" style="fill: #4169e1; stroke: #4169e1"/>
     <use xlink:href="#m69f1fefcb5" x="422.378492" y="215.415834" style="fill: #4169e1; stroke: #4169e1"/>
     <use xlink:href="#m69f1fefcb5" x="384.436384" y="194.52933" style="fill: #4169e1; stroke: #4169e1"/>
     <use xlink:href="#m69f1fefcb5" x="372.728609" y="144.813815" style="fill: #4169e1; stroke: #4169e1"/>
     <use xlink:href="#m69f1fefcb5" x="327.305217" y="269.398675" style="fill: #4169e1; stroke: #4169e1"/>
     <use xlink:href="#m69f1fefcb5" x="214.478377" y="224.803508" style="fill: #4169e1; stroke: #4169e1"/>
     <use xlink:href="#m69f1fefcb5" x="212.635329" y="223.55143" style="fill: #4169e1; stroke: #4169e1"/>
     <use xlink:href="#m69f1fefcb5" x="415.312153" y="217.749634" style="fill: #4169e1; stroke: #4169e1"/>
     <use xlink:href="#m69f1fefcb5" x="249.493519" y="232.133525" style="fill: #4169e1; stroke: #4169e1"/>
     <use xlink:href="#m69f1fefcb5" x="422.272891" y="244.544812" style="fill: #4169e1; stroke: #4169e1"/>
     <use xlink:href="#m69f1fefcb5" x="468.607764" y="175.807533" style="fill: #4169e1; stroke: #4169e1"/>
     <use xlink:href="#m69f1fefcb5" x="343.980973" y="163.990695" style="fill: #4169e1; stroke: #4169e1"/>
     <use xlink:href="#m69f1fefcb5" x="273.979082" y="289.372038" style="fill: #4169e1; stroke: #4169e1"/>
     <use xlink:href="#m69f1fefcb5" x="466.262839" y="111.775162" style="fill: #4169e1; stroke: #4169e1"/>
     <use xlink:href="#m69f1fefcb5" x="297.546294" y="155.640796" style="fill: #4169e1; stroke: #4169e1"/>
     <use xlink:href="#m69f1fefcb5" x="318.26269" y="134.290157" style="fill: #4169e1; stroke: #4169e1"/>
     <use xlink:href="#m69f1fefcb5" x="245.523133" y="267.038381" style="fill: #4169e1; stroke: #4169e1"/>
     <use xlink:href="#m69f1fefcb5" x="309.348453" y="76.978292" style="fill: #4169e1; stroke: #4169e1"/>
     <use xlink:href="#m69f1fefcb5" x="302.44407" y="242.564363" style="fill: #4169e1; stroke: #4169e1"/>
     <use xlink:href="#m69f1fefcb5" x="318.956462" y="95.291372" style="fill: #4169e1; stroke: #4169e1"/>
     <use xlink:href="#m69f1fefcb5" x="420.135676" y="122.191886" style="fill: #4169e1; stroke: #4169e1"/>
     <use xlink:href="#m69f1fefcb5" x="217.576791" y="74.503226" style="fill: #4169e1; stroke: #4169e1"/>
     <use xlink:href="#m69f1fefcb5" x="302.847518" y="173.879839" style="fill: #4169e1; stroke: #4169e1"/>
     <use xlink:href="#m69f1fefcb5" x="278.0372" y="146.247168" style="fill: #4169e1; stroke: #4169e1"/>
     <use xlink:href="#m69f1fefcb5" x="349.447477" y="230.767424" style="fill: #4169e1; stroke: #4169e1"/>
     <use xlink:href="#m69f1fefcb5" x="313.307402" y="89.283535" style="fill: #4169e1; stroke: #4169e1"/>
     <use xlink:href="#m69f1fefcb5" x="399.633014" y="213.737511" style="fill: #4169e1; stroke: #4169e1"/>
     <use xlink:href="#m69f1fefcb5" x="355.763373" y="255.809238" style="fill: #4169e1; stroke: #4169e1"/>
     <use xlink:href="#m69f1fefcb5" x="272.212129" y="115.029487" style="fill: #4169e1; stroke: #4169e1"/>
     <use xlink:href="#m69f1fefcb5" x="174.434157" y="139.447004" style="fill: #4169e1; stroke: #4169e1"/>
     <use xlink:href="#m69f1fefcb5" x="257.11403" y="44.81983" style="fill: #4169e1; stroke: #4169e1"/>
     <use xlink:href="#m69f1fefcb5" x="274.7241" y="267.001409" style="fill: #4169e1; stroke: #4169e1"/>
     <use xlink:href="#m69f1fefcb5" x="291.469173" y="164.448792" style="fill: #4169e1; stroke: #4169e1"/>
     <use xlink:href="#m69f1fefcb5" x="252.65075" y="237.17585" style="fill: #4169e1; stroke: #4169e1"/>
     <use xlink:href="#m69f1fefcb5" x="256.357567" y="71.795193" style="fill: #4169e1; stroke: #4169e1"/>
     <use xlink:href="#m69f1fefcb5" x="297.406189" y="240.702196" style="fill: #4169e1; stroke: #4169e1"/>
     <use xlink:href="#m69f1fefcb5" x="384.872642" y="206.990301" style="fill: #4169e1; stroke: #4169e1"/>
     <use xlink:href="#m69f1fefcb5" x="464.452661" y="108.358834" style="fill: #4169e1; stroke: #4169e1"/>
     <use xlink:href="#m69f1fefcb5" x="376.496485" y="277.405996" style="fill: #4169e1; stroke: #4169e1"/>
     <use xlink:href="#m69f1fefcb5" x="289.608157" y="326.270241" style="fill: #4169e1; stroke: #4169e1"/>
     <use xlink:href="#m69f1fefcb5" x="303.31391" y="291.925161" style="fill: #4169e1; stroke: #4169e1"/>
     <use xlink:href="#m69f1fefcb5" x="426.651068" y="121.421187" style="fill: #4169e1; stroke: #4169e1"/>
     <use xlink:href="#m69f1fefcb5" x="246.27855" y="111.184068" style="fill: #4169e1; stroke: #4169e1"/>
     <use xlink:href="#m69f1fefcb5" x="230.372681" y="201.67963" style="fill: #4169e1; stroke: #4169e1"/>
     <use xlink:href="#m69f1fefcb5" x="305.838584" y="171.315752" style="fill: #4169e1; stroke: #4169e1"/>
     <use xlink:href="#m69f1fefcb5" x="282.319493" y="293.356179" style="fill: #4169e1; stroke: #4169e1"/>
     <use xlink:href="#m69f1fefcb5" x="373.865677" y="151.874395" style="fill: #4169e1; stroke: #4169e1"/>
     <use xlink:href="#m69f1fefcb5" x="330.501436" y="85.489509" style="fill: #4169e1; stroke: #4169e1"/>
     <use xlink:href="#m69f1fefcb5" x="267.872889" y="134.45917" style="fill: #4169e1; stroke: #4169e1"/>
     <use xlink:href="#m69f1fefcb5" x="363.033789" y="286.962828" style="fill: #4169e1; stroke: #4169e1"/>
     <use xlink:href="#m69f1fefcb5" x="278.780254" y="230.220706" style="fill: #4169e1; stroke: #4169e1"/>
     <use xlink:href="#m69f1fefcb5" x="249.288106" y="230.475877" style="fill: #4169e1; stroke: #4169e1"/>
     <use xlink:href="#m69f1fefcb5" x="497.589498" y="111.082676" style="fill: #4169e1; stroke: #4169e1"/>
     <use xlink:href="#m69f1fefcb5" x="320.38481" y="183.782887" style="fill: #4169e1; stroke: #4169e1"/>
     <use xlink:href="#m69f1fefcb5" x="394.309407" y="133.259955" style="fill: #4169e1; stroke: #4169e1"/>
     <use xlink:href="#m69f1fefcb5" x="347.276736" y="83.719138" style="fill: #4169e1; stroke: #4169e1"/>
     <use xlink:href="#m69f1fefcb5" x="299.035744" y="203.443857" style="fill: #4169e1; stroke: #4169e1"/>
     <use xlink:href="#m69f1fefcb5" x="426.139209" y="287.464244" style="fill: #4169e1; stroke: #4169e1"/>
     <use xlink:href="#m69f1fefcb5" x="264.190834" y="173.526988" style="fill: #4169e1; stroke: #4169e1"/>
     <use xlink:href="#m69f1fefcb5" x="194.786762" y="96.608085" style="fill: #4169e1; stroke: #4169e1"/>
     <use xlink:href="#m69f1fefcb5" x="277.068176" y="312.818583" style="fill: #4169e1; stroke: #4169e1"/>
     <use xlink:href="#m69f1fefcb5" x="417.122101" y="261.093422" style="fill: #4169e1; stroke: #4169e1"/>
     <use xlink:href="#m69f1fefcb5" x="431.987628" y="200.043211" style="fill: #4169e1; stroke: #4169e1"/>
     <use xlink:href="#m69f1fefcb5" x="309.363961" y="324.891171" style="fill: #4169e1; stroke: #4169e1"/>
     <use xlink:href="#m69f1fefcb5" x="311.625814" y="245.441393" style="fill: #4169e1; stroke: #4169e1"/>
     <use xlink:href="#m69f1fefcb5" x="330.785457" y="290.708418" style="fill: #4169e1; stroke: #4169e1"/>
     <use xlink:href="#m69f1fefcb5" x="242.421988" y="228.979854" style="fill: #4169e1; stroke: #4169e1"/>
     <use xlink:href="#m69f1fefcb5" x="268.355481" y="167.27854" style="fill: #4169e1; stroke: #4169e1"/>
     <use xlink:href="#m69f1fefcb5" x="184.249596" y="207.605697" style="fill: #4169e1; stroke: #4169e1"/>
     <use xlink:href="#m69f1fefcb5" x="275.726711" y="264.634933" style="fill: #4169e1; stroke: #4169e1"/>
     <use xlink:href="#m69f1fefcb5" x="241.566292" y="155.176209" style="fill: #4169e1; stroke: #4169e1"/>
     <use xlink:href="#m69f1fefcb5" x="328.605106" y="263.45529" style="fill: #4169e1; stroke: #4169e1"/>
     <use xlink:href="#m69f1fefcb5" x="308.270084" y="165.728413" style="fill: #4169e1; stroke: #4169e1"/>
     <use xlink:href="#m69f1fefcb5" x="467.253965" y="254.585007" style="fill: #4169e1; stroke: #4169e1"/>
     <use xlink:href="#m69f1fefcb5" x="314.915138" y="298.380964" style="fill: #4169e1; stroke: #4169e1"/>
     <use xlink:href="#m69f1fefcb5" x="389.288352" y="81.459444" style="fill: #4169e1; stroke: #4169e1"/>
     <use xlink:href="#m69f1fefcb5" x="427.073459" y="106.9768" style="fill: #4169e1; stroke: #4169e1"/>
     <use xlink:href="#m69f1fefcb5" x="258.278058" y="258.151661" style="fill: #4169e1; stroke: #4169e1"/>
     <use xlink:href="#m69f1fefcb5" x="349.25992" y="229.391971" style="fill: #4169e1; stroke: #4169e1"/>
     <use xlink:href="#m69f1fefcb5" x="255.62891" y="252.950582" style="fill: #4169e1; stroke: #4169e1"/>
     <use xlink:href="#m69f1fefcb5" x="471.905565" y="106.377436" style="fill: #4169e1; stroke: #4169e1"/>
     <use xlink:href="#m69f1fefcb5" x="298.615463" y="207.174591" style="fill: #4169e1; stroke: #4169e1"/>
     <use xlink:href="#m69f1fefcb5" x="253.412133" y="90.206917" style="fill: #4169e1; stroke: #4169e1"/>
     <use xlink:href="#m69f1fefcb5" x="266.711581" y="292.07955" style="fill: #4169e1; stroke: #4169e1"/>
     <use xlink:href="#m69f1fefcb5" x="473.489286" y="224.598339" style="fill: #4169e1; stroke: #4169e1"/>
     <use xlink:href="#m69f1fefcb5" x="323.635758" y="214.221979" style="fill: #4169e1; stroke: #4169e1"/>
     <use xlink:href="#m69f1fefcb5" x="482.828111" y="146.568154" style="fill: #4169e1; stroke: #4169e1"/>
     <use xlink:href="#m69f1fefcb5" x="390.349894" y="331.308412" style="fill: #4169e1; stroke: #4169e1"/>
     <use xlink:href="#m69f1fefcb5" x="337.797545" y="226.252156" style="fill: #4169e1; stroke: #4169e1"/>
     <use xlink:href="#m69f1fefcb5" x="428.960098" y="308.713614" style="fill: #4169e1; stroke: #4169e1"/>
     <use xlink:href="#m69f1fefcb5" x="335.757296" y="180.996113" style="fill: #4169e1; stroke: #4169e1"/>
     <use xlink:href="#m69f1fefcb5" x="290.840625" y="296.509695" style="fill: #4169e1; stroke: #4169e1"/>
     <use xlink:href="#m69f1fefcb5" x="257.637979" y="284.464089" style="fill: #4169e1; stroke: #4169e1"/>
     <use xlink:href="#m69f1fefcb5" x="360.418093" y="196.68296" style="fill: #4169e1; stroke: #4169e1"/>
     <use xlink:href="#m69f1fefcb5" x="384.210259" y="165.936252" style="fill: #4169e1; stroke: #4169e1"/>
     <use xlink:href="#m69f1fefcb5" x="335.117421" y="296.068597" style="fill: #4169e1; stroke: #4169e1"/>
     <use xlink:href="#m69f1fefcb5" x="457.444252" y="240.332438" style="fill: #4169e1; stroke: #4169e1"/>
     <use xlink:href="#m69f1fefcb5" x="291.923713" y="293.663921" style="fill: #4169e1; stroke: #4169e1"/>
     <use xlink:href="#m69f1fefcb5" x="340.419061" y="148.684897" style="fill: #4169e1; stroke: #4169e1"/>
     <use xlink:href="#m69f1fefcb5" x="262.156009" y="70.608972" style="fill: #4169e1; stroke: #4169e1"/>
     <use xlink:href="#m69f1fefcb5" x="309.792904" y="203.647085" style="fill: #4169e1; stroke: #4169e1"/>
     <use xlink:href="#m69f1fefcb5" x="389.360338" y="201.837141" style="fill: #4169e1; stroke: #4169e1"/>
     <use xlink:href="#m69f1fefcb5" x="328.327652" y="219.152394" style="fill: #4169e1; stroke: #4169e1"/>
     <use xlink:href="#m69f1fefcb5" x="405.23956" y="156.182304" style="fill: #4169e1; stroke: #4169e1"/>
     <use xlink:href="#m69f1fefcb5" x="299.42794" y="299.936701" style="fill: #4169e1; stroke: #4169e1"/>
     <use xlink:href="#m69f1fefcb5" x="260.755782" y="307.423105" style="fill: #4169e1; stroke: #4169e1"/>
     <use xlink:href="#m69f1fefcb5" x="328.687369" y="76.194227" style="fill: #4169e1; stroke: #4169e1"/>
    </g>
   </g>
   <g id="PathCollection_2">
    <defs>
     <path id="m171695e278" d="M 0 2.5 
C 0.663008 2.5 1.29895 2.236584 1.767767 1.767767 
C 2.236584 1.29895 2.5 0.663008 2.5 0 
C 2.5 -0.663008 2.236584 -1.29895 1.767767 -1.767767 
C 1.29895 -2.236584 0.663008 -2.5 0 -2.5 
C -0.663008 -2.5 -1.29895 -2.236584 -1.767767 -1.767767 
C -2.236584 -1.29895 -2.5 -0.663008 -2.5 0 
C -2.5 0.663008 -2.236584 1.29895 -1.767767 1.767767 
C -1.29895 2.236584 -0.663008 2.5 0 2.5 
z
" style="stroke: #b22222"/>
    </defs>
    <g clip-path="url(#p18f1236ce1)">
     <use xlink:href="#m171695e278" x="225.152973" y="151.315725" style="fill: #b22222; stroke: #b22222"/>
     <use xlink:href="#m171695e278" x="292.732198" y="182.366598" style="fill: #b22222; stroke: #b22222"/>
     <use xlink:href="#m171695e278" x="250.703132" y="170.394529" style="fill: #b22222; stroke: #b22222"/>
     <use xlink:href="#m171695e278" x="259.842328" y="167.44616" style="fill: #b22222; stroke: #b22222"/>
     <use xlink:href="#m171695e278" x="219.216948" y="152.783755" style="fill: #b22222; stroke: #b22222"/>
     <use xlink:href="#m171695e278" x="221.158674" y="151.36052" style="fill: #b22222; stroke: #b22222"/>
     <use xlink:href="#m171695e278" x="230.862627" y="121.181026" style="fill: #b22222; stroke: #b22222"/>
     <use xlink:href="#m171695e278" x="233.46384" y="142.131729" style="fill: #b22222; stroke: #b22222"/>
     <use xlink:href="#m171695e278" x="233.235776" y="147.513639" style="fill: #b22222; stroke: #b22222"/>
     <use xlink:href="#m171695e278" x="275.638659" y="183.571146" style="fill: #b22222; stroke: #b22222"/>
     <use xlink:href="#m171695e278" x="265.125669" y="196.326447" style="fill: #b22222; stroke: #b22222"/>
     <use xlink:href="#m171695e278" x="265.300865" y="179.680371" style="fill: #b22222; stroke: #b22222"/>
     <use xlink:href="#m171695e278" x="225.565078" y="141.778062" style="fill: #b22222; stroke: #b22222"/>
     <use xlink:href="#m171695e278" x="220.384917" y="150.521848" style="fill: #b22222; stroke: #b22222"/>
     <use xlink:href="#m171695e278" x="219.715644" y="152.980495" style="fill: #b22222; stroke: #b22222"/>
     <use xlink:href="#m171695e278" x="278.316638" y="191.121097" style="fill: #b22222; stroke: #b22222"/>
     <use xlink:href="#m171695e278" x="232.812623" y="155.737451" style="fill: #b22222; stroke: #b22222"/>
     <use xlink:href="#m171695e278" x="219.356306" y="147.677218" style="fill: #b22222; stroke: #b22222"/>
     <use xlink:href="#m171695e278" x="267.397013" y="192.819153" style="fill: #b22222; stroke: #b22222"/>
     <use xlink:href="#m171695e278" x="210.750856" y="147.618306" style="fill: #b22222; stroke: #b22222"/>
     <use xlink:href="#m171695e278" x="250.79791" y="160.55529" style="fill: #b22222; stroke: #b22222"/>
     <use xlink:href="#m171695e278" x="258.680499" y="167.891439" style="fill: #b22222; stroke: #b22222"/>
     <use xlink:href="#m171695e278" x="241.116577" y="140.896253" style="fill: #b22222; stroke: #b22222"/>
     <use xlink:href="#m171695e278" x="228.663664" y="156.428739" style="fill: #b22222; stroke: #b22222"/>
     <use xlink:href="#m171695e278" x="304.404489" y="183.594921" style="fill: #b22222; stroke: #b22222"/>
     <use xlink:href="#m171695e278" x="278.861779" y="191.787538" style="fill: #b22222; stroke: #b22222"/>
     <use xlink:href="#m171695e278" x="229.540333" y="153.417139" style="fill: #b22222; stroke: #b22222"/>
     <use xlink:href="#m171695e278" x="216.918895" y="151.269293" style="fill: #b22222; stroke: #b22222"/>
     <use xlink:href="#m171695e278" x="227.562708" y="143.339762" style="fill: #b22222; stroke: #b22222"/>
     <use xlink:href="#m171695e278" x="248.717423" y="166.860128" style="fill: #b22222; stroke: #b22222"/>
     <use xlink:href="#m171695e278" x="262.587557" y="201.331521" style="fill: #b22222; stroke: #b22222"/>
     <use xlink:href="#m171695e278" x="228.078096" y="147.53807" style="fill: #b22222; stroke: #b22222"/>
     <use xlink:href="#m171695e278" x="287.650556" y="242.748515" style="fill: #b22222; stroke: #b22222"/>
     <use xlink:href="#m171695e278" x="244.612714" y="157.686432" style="fill: #b22222; stroke: #b22222"/>
     <use xlink:href="#m171695e278" x="244.582328" y="148.41129" style="fill: #b22222; stroke: #b22222"/>
     <use xlink:href="#m171695e278" x="225.909494" y="147.799055" style="fill: #b22222; stroke: #b22222"/>
     <use xlink:href="#m171695e278" x="343.554311" y="150.397581" style="fill: #b22222; stroke: #b22222"/>
     <use xlink:href="#m171695e278" x="245.85512" y="165.205692" style="fill: #b22222; stroke: #b22222"/>
     <use xlink:href="#m171695e278" x="226.556897" y="147.012066" style="fill: #b22222; stroke: #b22222"/>
     <use xlink:href="#m171695e278" x="251.053662" y="160.831265" style="fill: #b22222; stroke: #b22222"/>
     <use xlink:href="#m171695e278" x="218.218378" y="142.110641" style="fill: #b22222; stroke: #b22222"/>
     <use xlink:href="#m171695e278" x="252.070223" y="157.260609" style="fill: #b22222; stroke: #b22222"/>
     <use xlink:href="#m171695e278" x="278.447739" y="174.730408" style="fill: #b22222; stroke: #b22222"/>
     <use xlink:href="#m171695e278" x="272.352505" y="181.309916" style="fill: #b22222; stroke: #b22222"/>
     <use xlink:href="#m171695e278" x="223.479828" y="170.427372" style="fill: #b22222; stroke: #b22222"/>
     <use xlink:href="#m171695e278" x="342.54006" y="204.583717" style="fill: #b22222; stroke: #b22222"/>
     <use xlink:href="#m171695e278" x="243.235651" y="165.065353" style="fill: #b22222; stroke: #b22222"/>
     <use xlink:href="#m171695e278" x="258.56702" y="170.691707" style="fill: #b22222; stroke: #b22222"/>
     <use xlink:href="#m171695e278" x="215.276823" y="148.733156" style="fill: #b22222; stroke: #b22222"/>
     <use xlink:href="#m171695e278" x="234.062598" y="152.533409" style="fill: #b22222; stroke: #b22222"/>
     <use xlink:href="#m171695e278" x="211.24897" y="150.497667" style="fill: #b22222; stroke: #b22222"/>
     <use xlink:href="#m171695e278" x="259.104084" y="163.061743" style="fill: #b22222; stroke: #b22222"/>
     <use xlink:href="#m171695e278" x="238.236959" y="151.271418" style="fill: #b22222; stroke: #b22222"/>
     <use xlink:href="#m171695e278" x="225.552572" y="155.812957" style="fill: #b22222; stroke: #b22222"/>
     <use xlink:href="#m171695e278" x="244.6902" y="145.609743" style="fill: #b22222; stroke: #b22222"/>
     <use xlink:href="#m171695e278" x="265.139268" y="173.892951" style="fill: #b22222; stroke: #b22222"/>
     <use xlink:href="#m171695e278" x="213.05207" y="154.062489" style="fill: #b22222; stroke: #b22222"/>
     <use xlink:href="#m171695e278" x="253.073038" y="162.727872" style="fill: #b22222; stroke: #b22222"/>
     <use xlink:href="#m171695e278" x="252.806052" y="156.817468" style="fill: #b22222; stroke: #b22222"/>
     <use xlink:href="#m171695e278" x="244.810304" y="181.280724" style="fill: #b22222; stroke: #b22222"/>
     <use xlink:href="#m171695e278" x="215.68863" y="157.826264" style="fill: #b22222; stroke: #b22222"/>
     <use xlink:href="#m171695e278" x="290.02804" y="286.515146" style="fill: #b22222; stroke: #b22222"/>
     <use xlink:href="#m171695e278" x="267.299111" y="162.468795" style="fill: #b22222; stroke: #b22222"/>
     <use xlink:href="#m171695e278" x="233.975408" y="140.797609" style="fill: #b22222; stroke: #b22222"/>
     <use xlink:href="#m171695e278" x="229.830368" y="141.234199" style="fill: #b22222; stroke: #b22222"/>
     <use xlink:href="#m171695e278" x="268.450522" y="183.102139" style="fill: #b22222; stroke: #b22222"/>
     <use xlink:href="#m171695e278" x="315.526565" y="184.427228" style="fill: #b22222; stroke: #b22222"/>
    </g>
   </g>
   <g id="patch_4">
    <path d="M 56.450156 450.72 
L 56.450156 7.2 
" style="fill: none; stroke: #ffffff; stroke-width: 1.25; stroke-linejoin: miter; stroke-linecap: square"/>
   </g>
   <g id="patch_5">
    <path d="M 499.970156 450.72 
L 499.970156 7.2 
" style="fill: none; stroke: #ffffff; stroke-width: 1.25; stroke-linejoin: miter; stroke-linecap: square"/>
   </g>
   <g id="patch_6">
    <path d="M 56.450156 450.72 
L 499.970156 450.72 
" style="fill: none; stroke: #ffffff; stroke-width: 1.25; stroke-linejoin: miter; stroke-linecap: square"/>
   </g>
   <g id="patch_7">
    <path d="M 56.450156 7.2 
L 499.970156 7.2 
" style="fill: none; stroke: #ffffff; stroke-width: 1.25; stroke-linejoin: miter; stroke-linecap: square"/>
   </g>
   <g id="text_13">
    <!-- t = 2100 -->
    <g style="fill: #262626" transform="translate(65.320556 24.659775) scale(0.12 -0.12)">
     <defs>
      <path id="ArialMT-74" d="M 1650 503 
L 1731 6 
Q 1494 -44 1306 -44 
Q 1000 -44 831 53 
Q 663 150 594 308 
Q 525 466 525 972 
L 525 2881 
L 113 2881 
L 113 3319 
L 525 3319 
L 525 4141 
L 1084 4478 
L 1084 3319 
L 1650 3319 
L 1650 2881 
L 1084 2881 
L 1084 941 
Q 1084 700 1114 631 
Q 1144 563 1211 522 
Q 1278 481 1403 481 
Q 1497 481 1650 503 
z
" transform="scale(0.015625)"/>
      <path id="ArialMT-20" transform="scale(0.015625)"/>
      <path id="ArialMT-3d" d="M 3381 2694 
L 356 2694 
L 356 3219 
L 3381 3219 
L 3381 2694 
z
M 3381 1303 
L 356 1303 
L 356 1828 
L 3381 1828 
L 3381 1303 
z
" transform="scale(0.015625)"/>
      <path id="ArialMT-31" d="M 2384 0 
L 1822 0 
L 1822 3584 
Q 1619 3391 1289 3197 
Q 959 3003 697 2906 
L 697 3450 
Q 1169 3672 1522 3987 
Q 1875 4303 2022 4600 
L 2384 4600 
L 2384 0 
z
" transform="scale(0.015625)"/>
     </defs>
     <use xlink:href="#ArialMT-74"/>
     <use xlink:href="#ArialMT-20" x="27.783203"/>
     <use xlink:href="#ArialMT-3d" x="55.566406"/>
     <use xlink:href="#ArialMT-20" x="113.964844"/>
     <use xlink:href="#ArialMT-32" x="141.748047"/>
     <use xlink:href="#ArialMT-31" x="197.363281"/>
     <use xlink:href="#ArialMT-30" x="252.978516"/>
     <use xlink:href="#ArialMT-30" x="308.59375"/>
    </g>
   </g>
   <g id="legend_1">
    <g id="patch_8">
     <path d="M 328.111406 94.59 
L 483.170156 94.59 
Q 487.970156 94.59 487.970156 89.79 
L 487.970156 24 
Q 487.970156 19.2 483.170156 19.2 
L 328.111406 19.2 
Q 323.311406 19.2 323.311406 24 
L 323.311406 89.79 
Q 323.311406 94.59 328.111406 94.59 
z
" style="fill: #eaeaf2; opacity: 0.8; stroke: #cccccc; stroke-linejoin: miter"/>
    </g>
    <g id="PathCollection_3">
     <g>
      <use xlink:href="#m69f1fefcb5" x="356.911406" y="39.97125" style="fill: #4169e1; stroke: #4169e1"/>
     </g>
    </g>
    <g id="text_14">
     <!-- Sheep -->
     <g style="fill: #262626" transform="translate(400.111406 46.27125) scale(0.24 -0.24)">
      <defs>
       <path id="ArialMT-53" d="M 288 1472 
L 859 1522 
Q 900 1178 1048 958 
Q 1197 738 1509 602 
Q 1822 466 2213 466 
Q 2559 466 2825 569 
Q 3091 672 3220 851 
Q 3350 1031 3350 1244 
Q 3350 1459 3225 1620 
Q 3100 1781 2813 1891 
Q 2628 1963 1997 2114 
Q 1366 2266 1113 2400 
Q 784 2572 623 2826 
Q 463 3081 463 3397 
Q 463 3744 659 4045 
Q 856 4347 1234 4503 
Q 1613 4659 2075 4659 
Q 2584 4659 2973 4495 
Q 3363 4331 3572 4012 
Q 3781 3694 3797 3291 
L 3216 3247 
Q 3169 3681 2898 3903 
Q 2628 4125 2100 4125 
Q 1550 4125 1298 3923 
Q 1047 3722 1047 3438 
Q 1047 3191 1225 3031 
Q 1400 2872 2139 2705 
Q 2878 2538 3153 2413 
Q 3553 2228 3743 1945 
Q 3934 1663 3934 1294 
Q 3934 928 3725 604 
Q 3516 281 3123 101 
Q 2731 -78 2241 -78 
Q 1619 -78 1198 103 
Q 778 284 539 648 
Q 300 1013 288 1472 
z
" transform="scale(0.015625)"/>
       <path id="ArialMT-68" d="M 422 0 
L 422 4581 
L 984 4581 
L 984 2938 
Q 1378 3394 1978 3394 
Q 2347 3394 2619 3248 
Q 2891 3103 3008 2847 
Q 3125 2591 3125 2103 
L 3125 0 
L 2563 0 
L 2563 2103 
Q 2563 2525 2380 2717 
Q 2197 2909 1863 2909 
Q 1613 2909 1392 2779 
Q 1172 2650 1078 2428 
Q 984 2206 984 1816 
L 984 0 
L 422 0 
z
" transform="scale(0.015625)"/>
       <path id="ArialMT-65" d="M 2694 1069 
L 3275 997 
Q 3138 488 2766 206 
Q 2394 -75 1816 -75 
Q 1088 -75 661 373 
Q 234 822 234 1631 
Q 234 2469 665 2931 
Q 1097 3394 1784 3394 
Q 2450 3394 2872 2941 
Q 3294 2488 3294 1666 
Q 3294 1616 3291 1516 
L 816 1516 
Q 847 969 1125 678 
Q 1403 388 1819 388 
Q 2128 388 2347 550 
Q 2566 713 2694 1069 
z
M 847 1978 
L 2700 1978 
Q 2663 2397 2488 2606 
Q 2219 2931 1791 2931 
Q 1403 2931 1139 2672 
Q 875 2413 847 1978 
z
" transform="scale(0.015625)"/>
       <path id="ArialMT-70" d="M 422 -1272 
L 422 3319 
L 934 3319 
L 934 2888 
Q 1116 3141 1344 3267 
Q 1572 3394 1897 3394 
Q 2322 3394 2647 3175 
Q 2972 2956 3137 2557 
Q 3303 2159 3303 1684 
Q 3303 1175 3120 767 
Q 2938 359 2589 142 
Q 2241 -75 1856 -75 
Q 1575 -75 1351 44 
Q 1128 163 984 344 
L 984 -1272 
L 422 -1272 
z
M 931 1641 
Q 931 1000 1190 694 
Q 1450 388 1819 388 
Q 2194 388 2461 705 
Q 2728 1022 2728 1688 
Q 2728 2322 2467 2637 
Q 2206 2953 1844 2953 
Q 1484 2953 1207 2617 
Q 931 2281 931 1641 
z
" transform="scale(0.015625)"/>
      </defs>
      <use xlink:href="#ArialMT-53"/>
      <use xlink:href="#ArialMT-68" x="66.699219"/>
      <use xlink:href="#ArialMT-65" x="122.314453"/>
      <use xlink:href="#ArialMT-65" x="177.929688"/>
      <use xlink:href="#ArialMT-70" x="233.544922"/>
     </g>
    </g>
    <g id="PathCollection_4">
     <g>
      <use xlink:href="#m171695e278" x="356.911406" y="73.92" style="fill: #b22222; stroke: #b22222"/>
     </g>
    </g>
    <g id="text_15">
     <!-- Wolves -->
     <g style="fill: #262626" transform="translate(400.111406 80.22) scale(0.24 -0.24)">
      <defs>
       <path id="ArialMT-57" d="M 1294 0 
L 78 4581 
L 700 4581 
L 1397 1578 
Q 1509 1106 1591 641 
Q 1766 1375 1797 1488 
L 2669 4581 
L 3400 4581 
L 4056 2263 
Q 4303 1400 4413 641 
Q 4500 1075 4641 1638 
L 5359 4581 
L 5969 4581 
L 4713 0 
L 4128 0 
L 3163 3491 
Q 3041 3928 3019 4028 
Q 2947 3713 2884 3491 
L 1913 0 
L 1294 0 
z
" transform="scale(0.015625)"/>
       <path id="ArialMT-6f" d="M 213 1659 
Q 213 2581 725 3025 
Q 1153 3394 1769 3394 
Q 2453 3394 2887 2945 
Q 3322 2497 3322 1706 
Q 3322 1066 3130 698 
Q 2938 331 2570 128 
Q 2203 -75 1769 -75 
Q 1072 -75 642 372 
Q 213 819 213 1659 
z
M 791 1659 
Q 791 1022 1069 705 
Q 1347 388 1769 388 
Q 2188 388 2466 706 
Q 2744 1025 2744 1678 
Q 2744 2294 2464 2611 
Q 2184 2928 1769 2928 
Q 1347 2928 1069 2612 
Q 791 2297 791 1659 
z
" transform="scale(0.015625)"/>
       <path id="ArialMT-6c" d="M 409 0 
L 409 4581 
L 972 4581 
L 972 0 
L 409 0 
z
" transform="scale(0.015625)"/>
       <path id="ArialMT-76" d="M 1344 0 
L 81 3319 
L 675 3319 
L 1388 1331 
Q 1503 1009 1600 663 
Q 1675 925 1809 1294 
L 2547 3319 
L 3125 3319 
L 1869 0 
L 1344 0 
z
" transform="scale(0.015625)"/>
       <path id="ArialMT-73" d="M 197 991 
L 753 1078 
Q 800 744 1014 566 
Q 1228 388 1613 388 
Q 2000 388 2187 545 
Q 2375 703 2375 916 
Q 2375 1106 2209 1216 
Q 2094 1291 1634 1406 
Q 1016 1563 777 1677 
Q 538 1791 414 1992 
Q 291 2194 291 2438 
Q 291 2659 392 2848 
Q 494 3038 669 3163 
Q 800 3259 1026 3326 
Q 1253 3394 1513 3394 
Q 1903 3394 2198 3281 
Q 2494 3169 2634 2976 
Q 2775 2784 2828 2463 
L 2278 2388 
Q 2241 2644 2061 2787 
Q 1881 2931 1553 2931 
Q 1166 2931 1000 2803 
Q 834 2675 834 2503 
Q 834 2394 903 2306 
Q 972 2216 1119 2156 
Q 1203 2125 1616 2013 
Q 2213 1853 2448 1751 
Q 2684 1650 2818 1456 
Q 2953 1263 2953 975 
Q 2953 694 2789 445 
Q 2625 197 2315 61 
Q 2006 -75 1616 -75 
Q 969 -75 630 194 
Q 291 463 197 991 
z
" transform="scale(0.015625)"/>
      </defs>
      <use xlink:href="#ArialMT-57"/>
      <use xlink:href="#ArialMT-6f" x="92.634766"/>
      <use xlink:href="#ArialMT-6c" x="148.25"/>
      <use xlink:href="#ArialMT-76" x="170.466797"/>
      <use xlink:href="#ArialMT-65" x="220.466797"/>
      <use xlink:href="#ArialMT-73" x="276.082031"/>
     </g>
    </g>
   </g>
  </g>
 </g>
 <defs>
  <clipPath id="p18f1236ce1">
   <rect x="56.450156" y="7.2" width="443.52" height="443.52"/>
  </clipPath>
 </defs>
</svg>
