<?xml version="1.0" encoding="utf-8" standalone="no"?>
<!DOCTYPE svg PUBLIC "-//W3C//DTD SVG 1.1//EN"
  "http://www.w3.org/Graphics/SVG/1.1/DTD/svg11.dtd">
<svg xmlns:xlink="http://www.w3.org/1999/xlink" width="507.170156pt" height="492.454219pt" viewBox="0 0 507.170156 492.454219" xmlns="http://www.w3.org/2000/svg" version="1.1">
 <metadata>
  <rdf:RDF xmlns:dc="http://purl.org/dc/elements/1.1/" xmlns:cc="http://creativecommons.org/ns#" xmlns:rdf="http://www.w3.org/1999/02/22-rdf-syntax-ns#">
   <cc:Work>
    <dc:type rdf:resource="http://purl.org/dc/dcmitype/StillImage"/>
    <dc:date>2026-05-12T10:43:21.565836</dc:date>
    <dc:format>image/svg+xml</dc:format>
    <dc:creator>
     <cc:Agent>
      <dc:title>Matplotlib v3.7.1, https://matplotlib.org/</dc:title>
     </cc:Agent>
    </dc:creator>
   </cc:Work>
  </rdf:RDF>
 </metadata>
 <defs>
  <style type="text/css">*{stroke-linejoin: round; stroke-linecap: butt}</style>
 </defs>
 <g id="figure_1">
  <g id="patch_1">
   <path d="M 0 492.454219 
L 507.170156 492.454219 
L 507.170156 0 
L 0 0 
z
" style="fill: #ffffff"/>
  </g>
  <g id="axes_1">
   <g id="patch_2">
    <path d="M 56.450156 450.72 
L 499.970156 450.72 
L 499.970156 7.2 
L 56.450156 7.2 
z
" style="fill: #eaeaf2"/>
   </g>
   <g id="matplotlib.axis_1">
    <g id="xtick_1">
     <g id="line2d_1">
      <path d="M 100.802156 450.72 
L 100.802156 7.2 
" clip-path="url(#p023ea2e4ac)" style="fill: none; stroke: #ffffff; stroke-linecap: round"/>
     </g>
     <g id="text_1">
      <!-- −400 -->
      <g style="fill: #262626" transform="translate(88.414266 468.093594) scale(0.11 -0.11)">
       <defs>
        <path id="ArialMT-2212" d="M 3381 1997 
L 356 1997 
L 356 2522 
L 3381 2522 
L 3381 1997 
z
" transform="scale(0.015625)"/>
        <path id="ArialMT-34" d="M 2069 0 
L 2069 1097 
L 81 1097 
L 81 1613 
L 2172 4581 
L 2631 4581 
L 2631 1613 
L 3250 1613 
L 3250 1097 
L 2631 1097 
L 2631 0 
L 2069 0 
z
M 2069 1613 
L 2069 3678 
L 634 1613 
L 2069 1613 
z
" transform="scale(0.015625)"/>
        <path id="ArialMT-30" d="M 266 2259 
Q 266 3072 433 3567 
Q 600 4063 929 4331 
Q 1259 4600 1759 4600 
Q 2128 4600 2406 4451 
Q 2684 4303 2865 4023 
Q 3047 3744 3150 3342 
Q 3253 2941 3253 2259 
Q 3253 1453 3087 958 
Q 2922 463 2592 192 
Q 2263 -78 1759 -78 
Q 1097 -78 719 397 
Q 266 969 266 2259 
z
M 844 2259 
Q 844 1131 1108 757 
Q 1372 384 1759 384 
Q 2147 384 2411 759 
Q 2675 1134 2675 2259 
Q 2675 3391 2411 3762 
Q 2147 4134 1753 4134 
Q 1366 4134 1134 3806 
Q 844 3388 844 2259 
z
" transform="scale(0.015625)"/>
       </defs>
       <use xlink:href="#ArialMT-2212"/>
       <use xlink:href="#ArialMT-34" x="58.398438"/>
       <use xlink:href="#ArialMT-30" x="114.013672"/>
       <use xlink:href="#ArialMT-30" x="169.628906"/>
      </g>
     </g>
    </g>
    <g id="xtick_2">
     <g id="line2d_2">
      <path d="M 189.506156 450.72 
L 189.506156 7.2 
" clip-path="url(#p023ea2e4ac)" style="fill: none; stroke: #ffffff; stroke-linecap: round"/>
     </g>
     <g id="text_2">
      <!-- −200 -->
      <g style="fill: #262626" transform="translate(177.118266 468.093594) scale(0.11 -0.11)">
       <defs>
        <path id="ArialMT-32" d="M 3222 541 
L 3222 0 
L 194 0 
Q 188 203 259 391 
Q 375 700 629 1000 
Q 884 1300 1366 1694 
Q 2113 2306 2375 2664 
Q 2638 3022 2638 3341 
Q 2638 3675 2398 3904 
Q 2159 4134 1775 4134 
Q 1369 4134 1125 3890 
Q 881 3647 878 3216 
L 300 3275 
Q 359 3922 746 4261 
Q 1134 4600 1788 4600 
Q 2447 4600 2831 4234 
Q 3216 3869 3216 3328 
Q 3216 3053 3103 2787 
Q 2991 2522 2730 2228 
Q 2469 1934 1863 1422 
Q 1356 997 1212 845 
Q 1069 694 975 541 
L 3222 541 
z
" transform="scale(0.015625)"/>
       </defs>
       <use xlink:href="#ArialMT-2212"/>
       <use xlink:href="#ArialMT-32" x="58.398438"/>
       <use xlink:href="#ArialMT-30" x="114.013672"/>
       <use xlink:href="#ArialMT-30" x="169.628906"/>
      </g>
     </g>
    </g>
    <g id="xtick_3">
     <g id="line2d_3">
      <path d="M 278.210156 450.72 
L 278.210156 7.2 
" clip-path="url(#p023ea2e4ac)" style="fill: none; stroke: #ffffff; stroke-linecap: round"/>
     </g>
     <g id="text_3">
      <!-- 0 -->
      <g style="fill: #262626" transform="translate(275.151641 468.093594) scale(0.11 -0.11)">
       <use xlink:href="#ArialMT-30"/>
      </g>
     </g>
    </g>
    <g id="xtick_4">
     <g id="line2d_4">
      <path d="M 366.914156 450.72 
L 366.914156 7.2 
" clip-path="url(#p023ea2e4ac)" style="fill: none; stroke: #ffffff; stroke-linecap: round"/>
     </g>
     <g id="text_4">
      <!-- 200 -->
      <g style="fill: #262626" transform="translate(357.738609 468.093594) scale(0.11 -0.11)">
       <use xlink:href="#ArialMT-32"/>
       <use xlink:href="#ArialMT-30" x="55.615234"/>
       <use xlink:href="#ArialMT-30" x="111.230469"/>
      </g>
     </g>
    </g>
    <g id="xtick_5">
     <g id="line2d_5">
      <path d="M 455.618156 450.72 
L 455.618156 7.2 
" clip-path="url(#p023ea2e4ac)" style="fill: none; stroke: #ffffff; stroke-linecap: round"/>
     </g>
     <g id="text_5">
      <!-- 400 -->
      <g style="fill: #262626" transform="translate(446.442609 468.093594) scale(0.11 -0.11)">
       <use xlink:href="#ArialMT-34"/>
       <use xlink:href="#ArialMT-30" x="55.615234"/>
       <use xlink:href="#ArialMT-30" x="111.230469"/>
      </g>
     </g>
    </g>
    <g id="text_6">
     <!-- x -->
     <g style="fill: #262626" transform="translate(275.210156 482.869219) scale(0.12 -0.12)">
      <defs>
       <path id="ArialMT-78" d="M 47 0 
L 1259 1725 
L 138 3319 
L 841 3319 
L 1350 2541 
Q 1494 2319 1581 2169 
Q 1719 2375 1834 2534 
L 2394 3319 
L 3066 3319 
L 1919 1756 
L 3153 0 
L 2463 0 
L 1781 1031 
L 1600 1309 
L 728 0 
L 47 0 
z
" transform="scale(0.015625)"/>
      </defs>
      <use xlink:href="#ArialMT-78"/>
     </g>
    </g>
   </g>
   <g id="matplotlib.axis_2">
    <g id="ytick_1">
     <g id="line2d_6">
      <path d="M 56.450156 406.368 
L 499.970156 406.368 
" clip-path="url(#p023ea2e4ac)" style="fill: none; stroke: #ffffff; stroke-linecap: round"/>
     </g>
     <g id="text_7">
      <!-- −400 -->
      <g style="fill: #262626" transform="translate(22.174375 410.304797) scale(0.11 -0.11)">
       <use xlink:href="#ArialMT-2212"/>
       <use xlink:href="#ArialMT-34" x="58.398438"/>
       <use xlink:href="#ArialMT-30" x="114.013672"/>
       <use xlink:href="#ArialMT-30" x="169.628906"/>
      </g>
     </g>
    </g>
    <g id="ytick_2">
     <g id="line2d_7">
      <path d="M 56.450156 317.664 
L 499.970156 317.664 
" clip-path="url(#p023ea2e4ac)" style="fill: none; stroke: #ffffff; stroke-linecap: round"/>
     </g>
     <g id="text_8">
      <!-- −200 -->
      <g style="fill: #262626" transform="translate(22.174375 321.600797) scale(0.11 -0.11)">
       <use xlink:href="#ArialMT-2212"/>
       <use xlink:href="#ArialMT-32" x="58.398438"/>
       <use xlink:href="#ArialMT-30" x="114.013672"/>
       <use xlink:href="#ArialMT-30" x="169.628906"/>
      </g>
     </g>
    </g>
    <g id="ytick_3">
     <g id="line2d_8">
      <path d="M 56.450156 228.96 
L 499.970156 228.96 
" clip-path="url(#p023ea2e4ac)" style="fill: none; stroke: #ffffff; stroke-linecap: round"/>
     </g>
     <g id="text_9">
      <!-- 0 -->
      <g style="fill: #262626" transform="translate(40.833125 232.896797) scale(0.11 -0.11)">
       <use xlink:href="#ArialMT-30"/>
      </g>
     </g>
    </g>
    <g id="ytick_4">
     <g id="line2d_9">
      <path d="M 56.450156 140.256 
L 499.970156 140.256 
" clip-path="url(#p023ea2e4ac)" style="fill: none; stroke: #ffffff; stroke-linecap: round"/>
     </g>
     <g id="text_10">
      <!-- 200 -->
      <g style="fill: #262626" transform="translate(28.599063 144.192797) scale(0.11 -0.11)">
       <use xlink:href="#ArialMT-32"/>
       <use xlink:href="#ArialMT-30" x="55.615234"/>
       <use xlink:href="#ArialMT-30" x="111.230469"/>
      </g>
     </g>
    </g>
    <g id="ytick_5">
     <g id="line2d_10">
      <path d="M 56.450156 51.552 
L 499.970156 51.552 
" clip-path="url(#p023ea2e4ac)" style="fill: none; stroke: #ffffff; stroke-linecap: round"/>
     </g>
     <g id="text_11">
      <!-- 400 -->
      <g style="fill: #262626" transform="translate(28.599063 55.488797) scale(0.11 -0.11)">
       <use xlink:href="#ArialMT-34"/>
       <use xlink:href="#ArialMT-30" x="55.615234"/>
       <use xlink:href="#ArialMT-30" x="111.230469"/>
      </g>
     </g>
    </g>
    <g id="text_12">
     <!-- y -->
     <g style="fill: #262626" transform="translate(15.64875 231.96) rotate(-90) scale(0.12 -0.12)">
      <defs>
       <path id="ArialMT-79" d="M 397 -1278 
L 334 -750 
Q 519 -800 656 -800 
Q 844 -800 956 -737 
Q 1069 -675 1141 -563 
Q 1194 -478 1313 -144 
Q 1328 -97 1363 -6 
L 103 3319 
L 709 3319 
L 1400 1397 
Q 1534 1031 1641 628 
Q 1738 1016 1872 1384 
L 2581 3319 
L 3144 3319 
L 1881 -56 
Q 1678 -603 1566 -809 
Q 1416 -1088 1222 -1217 
Q 1028 -1347 759 -1347 
Q 597 -1347 397 -1278 
z
" transform="scale(0.015625)"/>
      </defs>
      <use xlink:href="#ArialMT-79"/>
     </g>
    </g>
   </g>
   <g id="patch_3">
    <path d="M 278.210156 317.664 
C 301.734732 317.664 324.298969 308.317587 340.933356 291.6832 
C 357.567743 275.048813 366.914156 252.484576 366.914156 228.96 
C 366.914156 205.435424 357.567743 182.871187 340.933356 166.2368 
C 324.298969 149.602413 301.734732 140.256 278.210156 140.256 
C 254.68558 140.256 232.121343 149.602413 215.486956 166.2368 
C 198.852569 182.871187 189.506156 205.435424 189.506156 228.96 
C 189.506156 252.484576 198.852569 275.048813 215.486956 291.6832 
C 232.121343 308.317587 254.68558 317.664 278.210156 317.664 
z
" clip-path="url(#p023ea2e4ac)" style="fill: #228b22; opacity: 0.12; stroke: #228b22; stroke-width: 1.5; stroke-linejoin: miter"/>
   </g>
   <g id="PathCollection_1">
    <defs>
     <path id="mf89c9ff10a" d="M 0 2.236068 
C 0.593012 2.236068 1.161816 2.000462 1.581139 1.581139 
C 2.000462 1.161816 2.236068 0.593012 2.236068 0 
C 2.236068 -0.593012 2.000462 -1.161816 1.581139 -1.581139 
C 1.161816 -2.000462 0.593012 -2.236068 0 -2.236068 
C -0.593012 -2.236068 -1.161816 -2.000462 -1.581139 -1.581139 
C -2.000462 -1.161816 -2.236068 -0.593012 -2.236068 0 
C -2.236068 0.593012 -2.000462 1.161816 -1.581139 1.581139 
C -1.161816 2.000462 -0.593012 2.236068 0 2.236068 
z
" style="stroke: #4169e1"/>
    </defs>
    <g clip-path="url(#p023ea2e4ac)">
     <use xlink:href="#mf89c9ff10a" x="435.466461" y="246.7219" style="fill: #4169e1; stroke: #4169e1"/>
     <use xlink:href="#mf89c9ff10a" x="430.336677" y="132.205641" style="fill: #4169e1; stroke: #4169e1"/>
     <use xlink:href="#mf89c9ff10a" x="464.975984" y="272.352388" style="fill: #4169e1; stroke: #4169e1"/>
     <use xlink:href="#mf89c9ff10a" x="357.206783" y="75.677469" style="fill: #4169e1; stroke: #4169e1"/>
     <use xlink:href="#mf89c9ff10a" x="363.312722" y="305.433152" style="fill: #4169e1; stroke: #4169e1"/>
     <use xlink:href="#mf89c9ff10a" x="290.423643" y="253.163925" style="fill: #4169e1; stroke: #4169e1"/>
     <use xlink:href="#mf89c9ff10a" x="235.920241" y="245.178481" style="fill: #4169e1; stroke: #4169e1"/>
     <use xlink:href="#mf89c9ff10a" x="463.855531" y="242.433338" style="fill: #4169e1; stroke: #4169e1"/>
     <use xlink:href="#mf89c9ff10a" x="354.284576" y="294.395862" style="fill: #4169e1; stroke: #4169e1"/>
     <use xlink:href="#mf89c9ff10a" x="297.430834" y="80.673836" style="fill: #4169e1; stroke: #4169e1"/>
     <use xlink:href="#mf89c9ff10a" x="308.989596" y="270.219931" style="fill: #4169e1; stroke: #4169e1"/>
     <use xlink:href="#mf89c9ff10a" x="316.494258" y="180.409367" style="fill: #4169e1; stroke: #4169e1"/>
     <use xlink:href="#mf89c9ff10a" x="361.944737" y="112.953803" style="fill: #4169e1; stroke: #4169e1"/>
     <use xlink:href="#mf89c9ff10a" x="443.719942" y="192.669075" style="fill: #4169e1; stroke: #4169e1"/>
     <use xlink:href="#mf89c9ff10a" x="272.918705" y="254.123167" style="fill: #4169e1; stroke: #4169e1"/>
     <use xlink:href="#mf89c9ff10a" x="353.878163" y="80.738128" style="fill: #4169e1; stroke: #4169e1"/>
     <use xlink:href="#mf89c9ff10a" x="240.588313" y="221.008732" style="fill: #4169e1; stroke: #4169e1"/>
     <use xlink:href="#mf89c9ff10a" x="378.444093" y="175.078824" style="fill: #4169e1; stroke: #4169e1"/>
     <use xlink:href="#mf89c9ff10a" x="276.246128" y="154.702444" style="fill: #4169e1; stroke: #4169e1"/>
     <use xlink:href="#mf89c9ff10a" x="314.031925" y="78.811128" style="fill: #4169e1; stroke: #4169e1"/>
     <use xlink:href="#mf89c9ff10a" x="362.022226" y="114.898169" style="fill: #4169e1; stroke: #4169e1"/>
     <use xlink:href="#mf89c9ff10a" x="162.902522" y="142.557626" style="fill: #4169e1; stroke: #4169e1"/>
     <use xlink:href="#mf89c9ff10a" x="373.530208" y="302.015349" style="fill: #4169e1; stroke: #4169e1"/>
     <use xlink:href="#mf89c9ff10a" x="304.990519" y="114.816647" style="fill: #4169e1; stroke: #4169e1"/>
     <use xlink:href="#mf89c9ff10a" x="367.720391" y="126.984786" style="fill: #4169e1; stroke: #4169e1"/>
     <use xlink:href="#mf89c9ff10a" x="319.245613" y="183.067307" style="fill: #4169e1; stroke: #4169e1"/>
     <use xlink:href="#mf89c9ff10a" x="284.350191" y="197.511081" style="fill: #4169e1; stroke: #4169e1"/>
     <use xlink:href="#mf89c9ff10a" x="213.307045" y="323.44699" style="fill: #4169e1; stroke: #4169e1"/>
     <use xlink:href="#mf89c9ff10a" x="299.690651" y="237.330795" style="fill: #4169e1; stroke: #4169e1"/>
     <use xlink:href="#mf89c9ff10a" x="328.883704" y="334.161995" style="fill: #4169e1; stroke: #4169e1"/>
     <use xlink:href="#mf89c9ff10a" x="408.248777" y="182.041592" style="fill: #4169e1; stroke: #4169e1"/>
     <use xlink:href="#mf89c9ff10a" x="383.286714" y="85.106546" style="fill: #4169e1; stroke: #4169e1"/>
     <use xlink:href="#mf89c9ff10a" x="380.473791" y="66.95161" style="fill: #4169e1; stroke: #4169e1"/>
     <use xlink:href="#mf89c9ff10a" x="323.228055" y="212.248579" style="fill: #4169e1; stroke: #4169e1"/>
     <use xlink:href="#mf89c9ff10a" x="421.675422" y="188.834623" style="fill: #4169e1; stroke: #4169e1"/>
     <use xlink:href="#mf89c9ff10a" x="343.987253" y="313.969782" style="fill: #4169e1; stroke: #4169e1"/>
     <use xlink:href="#mf89c9ff10a" x="368.388263" y="264.404608" style="fill: #4169e1; stroke: #4169e1"/>
     <use xlink:href="#mf89c9ff10a" x="307.981122" y="119.307199" style="fill: #4169e1; stroke: #4169e1"/>
     <use xlink:href="#mf89c9ff10a" x="311.055561" y="160.923818" style="fill: #4169e1; stroke: #4169e1"/>
     <use xlink:href="#mf89c9ff10a" x="305.32369" y="312.901696" style="fill: #4169e1; stroke: #4169e1"/>
     <use xlink:href="#mf89c9ff10a" x="429.656982" y="296.940985" style="fill: #4169e1; stroke: #4169e1"/>
     <use xlink:href="#mf89c9ff10a" x="444.598184" y="246.085774" style="fill: #4169e1; stroke: #4169e1"/>
     <use xlink:href="#mf89c9ff10a" x="227.923505" y="148.026736" style="fill: #4169e1; stroke: #4169e1"/>
     <use xlink:href="#mf89c9ff10a" x="262.523543" y="151.871519" style="fill: #4169e1; stroke: #4169e1"/>
     <use xlink:href="#mf89c9ff10a" x="219.644374" y="254.576491" style="fill: #4169e1; stroke: #4169e1"/>
     <use xlink:href="#mf89c9ff10a" x="352.823253" y="337.386509" style="fill: #4169e1; stroke: #4169e1"/>
     <use xlink:href="#mf89c9ff10a" x="389.283303" y="209.535685" style="fill: #4169e1; stroke: #4169e1"/>
     <use xlink:href="#mf89c9ff10a" x="424.146197" y="230.847599" style="fill: #4169e1; stroke: #4169e1"/>
     <use xlink:href="#mf89c9ff10a" x="292.405221" y="246.601158" style="fill: #4169e1; stroke: #4169e1"/>
     <use xlink:href="#mf89c9ff10a" x="472.322366" y="217.70391" style="fill: #4169e1; stroke: #4169e1"/>
     <use xlink:href="#mf89c9ff10a" x="387.961182" y="166.297492" style="fill: #4169e1; stroke: #4169e1"/>
     <use xlink:href="#mf89c9ff10a" x="315.378626" y="106.149653" style="fill: #4169e1; stroke: #4169e1"/>
     <use xlink:href="#mf89c9ff10a" x="421.284608" y="177.052087" style="fill: #4169e1; stroke: #4169e1"/>
     <use xlink:href="#mf89c9ff10a" x="346.089716" y="228.787805" style="fill: #4169e1; stroke: #4169e1"/>
     <use xlink:href="#mf89c9ff10a" x="285.538355" y="226.977983" style="fill: #4169e1; stroke: #4169e1"/>
     <use xlink:href="#mf89c9ff10a" x="370.164245" y="220.85069" style="fill: #4169e1; stroke: #4169e1"/>
     <use xlink:href="#mf89c9ff10a" x="395.717077" y="330.669404" style="fill: #4169e1; stroke: #4169e1"/>
     <use xlink:href="#mf89c9ff10a" x="388.787185" y="126.14717" style="fill: #4169e1; stroke: #4169e1"/>
     <use xlink:href="#mf89c9ff10a" x="304.967966" y="312.382663" style="fill: #4169e1; stroke: #4169e1"/>
     <use xlink:href="#mf89c9ff10a" x="293.79131" y="220.431502" style="fill: #4169e1; stroke: #4169e1"/>
     <use xlink:href="#mf89c9ff10a" x="275.112606" y="245.684619" style="fill: #4169e1; stroke: #4169e1"/>
     <use xlink:href="#mf89c9ff10a" x="283.929664" y="272.516975" style="fill: #4169e1; stroke: #4169e1"/>
     <use xlink:href="#mf89c9ff10a" x="218.279855" y="203.227221" style="fill: #4169e1; stroke: #4169e1"/>
     <use xlink:href="#mf89c9ff10a" x="347.62488" y="248.549063" style="fill: #4169e1; stroke: #4169e1"/>
     <use xlink:href="#mf89c9ff10a" x="231.61375" y="318.216471" style="fill: #4169e1; stroke: #4169e1"/>
     <use xlink:href="#mf89c9ff10a" x="344.890461" y="158.427698" style="fill: #4169e1; stroke: #4169e1"/>
     <use xlink:href="#mf89c9ff10a" x="419.104731" y="312.538609" style="fill: #4169e1; stroke: #4169e1"/>
     <use xlink:href="#mf89c9ff10a" x="309.595466" y="178.604221" style="fill: #4169e1; stroke: #4169e1"/>
     <use xlink:href="#mf89c9ff10a" x="312.569012" y="203.062057" style="fill: #4169e1; stroke: #4169e1"/>
     <use xlink:href="#mf89c9ff10a" x="169.136639" y="231.422868" style="fill: #4169e1; stroke: #4169e1"/>
     <use xlink:href="#mf89c9ff10a" x="251.874546" y="113.945944" style="fill: #4169e1; stroke: #4169e1"/>
     <use xlink:href="#mf89c9ff10a" x="388.945005" y="163.146291" style="fill: #4169e1; stroke: #4169e1"/>
     <use xlink:href="#mf89c9ff10a" x="342.924066" y="75.421938" style="fill: #4169e1; stroke: #4169e1"/>
     <use xlink:href="#mf89c9ff10a" x="437.979344" y="223.411945" style="fill: #4169e1; stroke: #4169e1"/>
     <use xlink:href="#mf89c9ff10a" x="251.539363" y="278.263644" style="fill: #4169e1; stroke: #4169e1"/>
     <use xlink:href="#mf89c9ff10a" x="457.959928" y="209.438545" style="fill: #4169e1; stroke: #4169e1"/>
     <use xlink:href="#mf89c9ff10a" x="349.835652" y="280.041071" style="fill: #4169e1; stroke: #4169e1"/>
     <use xlink:href="#mf89c9ff10a" x="291.866809" y="125.399393" style="fill: #4169e1; stroke: #4169e1"/>
     <use xlink:href="#mf89c9ff10a" x="357.734173" y="307.235331" style="fill: #4169e1; stroke: #4169e1"/>
     <use xlink:href="#mf89c9ff10a" x="153.898936" y="212.946991" style="fill: #4169e1; stroke: #4169e1"/>
     <use xlink:href="#mf89c9ff10a" x="358.207559" y="162.6828" style="fill: #4169e1; stroke: #4169e1"/>
     <use xlink:href="#mf89c9ff10a" x="151.494348" y="213.353713" style="fill: #4169e1; stroke: #4169e1"/>
     <use xlink:href="#mf89c9ff10a" x="303.54803" y="99.493997" style="fill: #4169e1; stroke: #4169e1"/>
     <use xlink:href="#mf89c9ff10a" x="287.840769" y="175.798569" style="fill: #4169e1; stroke: #4169e1"/>
     <use xlink:href="#mf89c9ff10a" x="382.51831" y="312.426693" style="fill: #4169e1; stroke: #4169e1"/>
     <use xlink:href="#mf89c9ff10a" x="310.539882" y="300.89964" style="fill: #4169e1; stroke: #4169e1"/>
     <use xlink:href="#mf89c9ff10a" x="234.638103" y="120.685545" style="fill: #4169e1; stroke: #4169e1"/>
     <use xlink:href="#mf89c9ff10a" x="300.044749" y="217.885791" style="fill: #4169e1; stroke: #4169e1"/>
     <use xlink:href="#mf89c9ff10a" x="434.58118" y="204.69471" style="fill: #4169e1; stroke: #4169e1"/>
     <use xlink:href="#mf89c9ff10a" x="196.103232" y="284.285093" style="fill: #4169e1; stroke: #4169e1"/>
     <use xlink:href="#mf89c9ff10a" x="325.696777" y="189.51176" style="fill: #4169e1; stroke: #4169e1"/>
     <use xlink:href="#mf89c9ff10a" x="199.477303" y="180.459458" style="fill: #4169e1; stroke: #4169e1"/>
     <use xlink:href="#mf89c9ff10a" x="393.622498" y="258.438877" style="fill: #4169e1; stroke: #4169e1"/>
     <use xlink:href="#mf89c9ff10a" x="402.819312" y="359.64908" style="fill: #4169e1; stroke: #4169e1"/>
     <use xlink:href="#mf89c9ff10a" x="447.171515" y="252.283856" style="fill: #4169e1; stroke: #4169e1"/>
     <use xlink:href="#mf89c9ff10a" x="346.953922" y="141.650331" style="fill: #4169e1; stroke: #4169e1"/>
     <use xlink:href="#mf89c9ff10a" x="403.038744" y="86.627992" style="fill: #4169e1; stroke: #4169e1"/>
     <use xlink:href="#mf89c9ff10a" x="185.952224" y="215.292459" style="fill: #4169e1; stroke: #4169e1"/>
     <use xlink:href="#mf89c9ff10a" x="282.91445" y="267.950928" style="fill: #4169e1; stroke: #4169e1"/>
     <use xlink:href="#mf89c9ff10a" x="226.467734" y="137.816471" style="fill: #4169e1; stroke: #4169e1"/>
     <use xlink:href="#mf89c9ff10a" x="422.704514" y="255.908662" style="fill: #4169e1; stroke: #4169e1"/>
     <use xlink:href="#mf89c9ff10a" x="201.407017" y="240.140542" style="fill: #4169e1; stroke: #4169e1"/>
     <use xlink:href="#mf89c9ff10a" x="316.567666" y="172.119984" style="fill: #4169e1; stroke: #4169e1"/>
     <use xlink:href="#mf89c9ff10a" x="248.595871" y="129.524651" style="fill: #4169e1; stroke: #4169e1"/>
     <use xlink:href="#mf89c9ff10a" x="395.22303" y="94.481184" style="fill: #4169e1; stroke: #4169e1"/>
     <use xlink:href="#mf89c9ff10a" x="430.563729" y="79.287647" style="fill: #4169e1; stroke: #4169e1"/>
     <use xlink:href="#mf89c9ff10a" x="284.565135" y="121.114934" style="fill: #4169e1; stroke: #4169e1"/>
     <use xlink:href="#mf89c9ff10a" x="306.878172" y="322.931098" style="fill: #4169e1; stroke: #4169e1"/>
     <use xlink:href="#mf89c9ff10a" x="369.334851" y="219.680436" style="fill: #4169e1; stroke: #4169e1"/>
     <use xlink:href="#mf89c9ff10a" x="298.378102" y="224.892806" style="fill: #4169e1; stroke: #4169e1"/>
     <use xlink:href="#mf89c9ff10a" x="191.532978" y="249.880743" style="fill: #4169e1; stroke: #4169e1"/>
     <use xlink:href="#mf89c9ff10a" x="358.858857" y="165.342735" style="fill: #4169e1; stroke: #4169e1"/>
     <use xlink:href="#mf89c9ff10a" x="424.160734" y="109.54672" style="fill: #4169e1; stroke: #4169e1"/>
     <use xlink:href="#mf89c9ff10a" x="323.182956" y="225.33164" style="fill: #4169e1; stroke: #4169e1"/>
     <use xlink:href="#mf89c9ff10a" x="332.699048" y="192.073606" style="fill: #4169e1; stroke: #4169e1"/>
     <use xlink:href="#mf89c9ff10a" x="229.760262" y="255.487069" style="fill: #4169e1; stroke: #4169e1"/>
     <use xlink:href="#mf89c9ff10a" x="344.277947" y="229.873421" style="fill: #4169e1; stroke: #4169e1"/>
     <use xlink:href="#mf89c9ff10a" x="431.619093" y="114.933794" style="fill: #4169e1; stroke: #4169e1"/>
     <use xlink:href="#mf89c9ff10a" x="266.66886" y="259.842642" style="fill: #4169e1; stroke: #4169e1"/>
     <use xlink:href="#mf89c9ff10a" x="292.875721" y="264.211831" style="fill: #4169e1; stroke: #4169e1"/>
     <use xlink:href="#mf89c9ff10a" x="225.951832" y="234.474557" style="fill: #4169e1; stroke: #4169e1"/>
     <use xlink:href="#mf89c9ff10a" x="165.928293" y="171.346085" style="fill: #4169e1; stroke: #4169e1"/>
     <use xlink:href="#mf89c9ff10a" x="328.5895" y="139.883235" style="fill: #4169e1; stroke: #4169e1"/>
     <use xlink:href="#mf89c9ff10a" x="341.843149" y="112.934096" style="fill: #4169e1; stroke: #4169e1"/>
     <use xlink:href="#mf89c9ff10a" x="217.874389" y="221.863095" style="fill: #4169e1; stroke: #4169e1"/>
     <use xlink:href="#mf89c9ff10a" x="240.387597" y="145.485923" style="fill: #4169e1; stroke: #4169e1"/>
     <use xlink:href="#mf89c9ff10a" x="415.313831" y="308.81571" style="fill: #4169e1; stroke: #4169e1"/>
     <use xlink:href="#mf89c9ff10a" x="271.150069" y="229.938664" style="fill: #4169e1; stroke: #4169e1"/>
     <use xlink:href="#mf89c9ff10a" x="448.49616" y="220.00339" style="fill: #4169e1; stroke: #4169e1"/>
     <use xlink:href="#mf89c9ff10a" x="264.184549" y="139.958606" style="fill: #4169e1; stroke: #4169e1"/>
     <use xlink:href="#mf89c9ff10a" x="363.137171" y="330.158357" style="fill: #4169e1; stroke: #4169e1"/>
     <use xlink:href="#mf89c9ff10a" x="333.041971" y="217.037142" style="fill: #4169e1; stroke: #4169e1"/>
     <use xlink:href="#mf89c9ff10a" x="353.489785" y="273.181382" style="fill: #4169e1; stroke: #4169e1"/>
     <use xlink:href="#mf89c9ff10a" x="373.105089" y="189.837856" style="fill: #4169e1; stroke: #4169e1"/>
     <use xlink:href="#mf89c9ff10a" x="440.081922" y="193.484295" style="fill: #4169e1; stroke: #4169e1"/>
     <use xlink:href="#mf89c9ff10a" x="276.64957" y="190.798182" style="fill: #4169e1; stroke: #4169e1"/>
     <use xlink:href="#mf89c9ff10a" x="408.022659" y="109.731055" style="fill: #4169e1; stroke: #4169e1"/>
     <use xlink:href="#mf89c9ff10a" x="303.254439" y="147.825577" style="fill: #4169e1; stroke: #4169e1"/>
     <use xlink:href="#mf89c9ff10a" x="294.727542" y="194.411649" style="fill: #4169e1; stroke: #4169e1"/>
     <use xlink:href="#mf89c9ff10a" x="378.683706" y="327.361364" style="fill: #4169e1; stroke: #4169e1"/>
     <use xlink:href="#mf89c9ff10a" x="288.229082" y="323.946715" style="fill: #4169e1; stroke: #4169e1"/>
     <use xlink:href="#mf89c9ff10a" x="325.192084" y="254.799992" style="fill: #4169e1; stroke: #4169e1"/>
     <use xlink:href="#mf89c9ff10a" x="435.052122" y="355.725184" style="fill: #4169e1; stroke: #4169e1"/>
     <use xlink:href="#mf89c9ff10a" x="257.207397" y="156.970964" style="fill: #4169e1; stroke: #4169e1"/>
     <use xlink:href="#mf89c9ff10a" x="399.557881" y="213.598565" style="fill: #4169e1; stroke: #4169e1"/>
     <use xlink:href="#mf89c9ff10a" x="373.908353" y="246.499353" style="fill: #4169e1; stroke: #4169e1"/>
     <use xlink:href="#mf89c9ff10a" x="173.1333" y="233.781443" style="fill: #4169e1; stroke: #4169e1"/>
     <use xlink:href="#mf89c9ff10a" x="333.56301" y="172.003907" style="fill: #4169e1; stroke: #4169e1"/>
     <use xlink:href="#mf89c9ff10a" x="353.371996" y="143.410964" style="fill: #4169e1; stroke: #4169e1"/>
     <use xlink:href="#mf89c9ff10a" x="470.678819" y="132.477643" style="fill: #4169e1; stroke: #4169e1"/>
     <use xlink:href="#mf89c9ff10a" x="495.221279" y="141.608643" style="fill: #4169e1; stroke: #4169e1"/>
     <use xlink:href="#mf89c9ff10a" x="192.006492" y="214.215" style="fill: #4169e1; stroke: #4169e1"/>
     <use xlink:href="#mf89c9ff10a" x="268.993455" y="342.257704" style="fill: #4169e1; stroke: #4169e1"/>
     <use xlink:href="#mf89c9ff10a" x="397.705094" y="201.577481" style="fill: #4169e1; stroke: #4169e1"/>
     <use xlink:href="#mf89c9ff10a" x="370.433676" y="118.169007" style="fill: #4169e1; stroke: #4169e1"/>
     <use xlink:href="#mf89c9ff10a" x="197.83446" y="176.413979" style="fill: #4169e1; stroke: #4169e1"/>
    </g>
   </g>
   <g id="PathCollection_2">
    <defs>
     <path id="m9182f418fa" d="M 0 2.5 
C 0.663008 2.5 1.29895 2.236584 1.767767 1.767767 
C 2.236584 1.29895 2.5 0.663008 2.5 0 
C 2.5 -0.663008 2.236584 -1.29895 1.767767 -1.767767 
C 1.29895 -2.236584 0.663008 -2.5 0 -2.5 
C -0.663008 -2.5 -1.29895 -2.236584 -1.767767 -1.767767 
C -2.236584 -1.29895 -2.5 -0.663008 -2.5 0 
C -2.5 0.663008 -2.236584 1.29895 -1.767767 1.767767 
C -1.29895 2.236584 -0.663008 2.5 0 2.5 
z
" style="stroke: #b22222"/>
    </defs>
    <g clip-path="url(#p023ea2e4ac)">
     <use xlink:href="#m9182f418fa" x="271.000503" y="234.771407" style="fill: #b22222; stroke: #b22222"/>
     <use xlink:href="#m9182f418fa" x="230.122203" y="244.392552" style="fill: #b22222; stroke: #b22222"/>
     <use xlink:href="#m9182f418fa" x="273.722988" y="225.184868" style="fill: #b22222; stroke: #b22222"/>
     <use xlink:href="#m9182f418fa" x="232.072602" y="231.586338" style="fill: #b22222; stroke: #b22222"/>
     <use xlink:href="#m9182f418fa" x="259.407012" y="232.636559" style="fill: #b22222; stroke: #b22222"/>
     <use xlink:href="#m9182f418fa" x="238.504292" y="221.484129" style="fill: #b22222; stroke: #b22222"/>
     <use xlink:href="#m9182f418fa" x="243.415794" y="219.957065" style="fill: #b22222; stroke: #b22222"/>
     <use xlink:href="#m9182f418fa" x="234.63748" y="230.675379" style="fill: #b22222; stroke: #b22222"/>
     <use xlink:href="#m9182f418fa" x="229.231992" y="238.589936" style="fill: #b22222; stroke: #b22222"/>
     <use xlink:href="#m9182f418fa" x="258.824275" y="220.153518" style="fill: #b22222; stroke: #b22222"/>
     <use xlink:href="#m9182f418fa" x="239.15694" y="237.907395" style="fill: #b22222; stroke: #b22222"/>
     <use xlink:href="#m9182f418fa" x="234.617008" y="235.30901" style="fill: #b22222; stroke: #b22222"/>
     <use xlink:href="#m9182f418fa" x="265.521365" y="237.677458" style="fill: #b22222; stroke: #b22222"/>
     <use xlink:href="#m9182f418fa" x="289.030003" y="220.24399" style="fill: #b22222; stroke: #b22222"/>
     <use xlink:href="#m9182f418fa" x="225.613327" y="242.887992" style="fill: #b22222; stroke: #b22222"/>
     <use xlink:href="#m9182f418fa" x="236.636596" y="230.168404" style="fill: #b22222; stroke: #b22222"/>
     <use xlink:href="#m9182f418fa" x="240.327298" y="216.61215" style="fill: #b22222; stroke: #b22222"/>
     <use xlink:href="#m9182f418fa" x="223.031212" y="220.656676" style="fill: #b22222; stroke: #b22222"/>
     <use xlink:href="#m9182f418fa" x="234.232441" y="237.629874" style="fill: #b22222; stroke: #b22222"/>
     <use xlink:href="#m9182f418fa" x="253.21213" y="213.720431" style="fill: #b22222; stroke: #b22222"/>
     <use xlink:href="#m9182f418fa" x="307.986992" y="217.805799" style="fill: #b22222; stroke: #b22222"/>
     <use xlink:href="#m9182f418fa" x="245.908191" y="222.862023" style="fill: #b22222; stroke: #b22222"/>
     <use xlink:href="#m9182f418fa" x="306.130292" y="241.012035" style="fill: #b22222; stroke: #b22222"/>
     <use xlink:href="#m9182f418fa" x="245.333363" y="223.040337" style="fill: #b22222; stroke: #b22222"/>
     <use xlink:href="#m9182f418fa" x="226.692682" y="246.21894" style="fill: #b22222; stroke: #b22222"/>
     <use xlink:href="#m9182f418fa" x="238.762505" y="239.491928" style="fill: #b22222; stroke: #b22222"/>
     <use xlink:href="#m9182f418fa" x="254.19985" y="234.49989" style="fill: #b22222; stroke: #b22222"/>
     <use xlink:href="#m9182f418fa" x="222.170684" y="229.32567" style="fill: #b22222; stroke: #b22222"/>
     <use xlink:href="#m9182f418fa" x="252.416872" y="237.014464" style="fill: #b22222; stroke: #b22222"/>
     <use xlink:href="#m9182f418fa" x="238.725527" y="243.261383" style="fill: #b22222; stroke: #b22222"/>
     <use xlink:href="#m9182f418fa" x="228.612227" y="230.244828" style="fill: #b22222; stroke: #b22222"/>
     <use xlink:href="#m9182f418fa" x="246.034738" y="229.400002" style="fill: #b22222; stroke: #b22222"/>
     <use xlink:href="#m9182f418fa" x="246.952178" y="219.909239" style="fill: #b22222; stroke: #b22222"/>
     <use xlink:href="#m9182f418fa" x="252.341603" y="222.890781" style="fill: #b22222; stroke: #b22222"/>
     <use xlink:href="#m9182f418fa" x="255.975266" y="225.50007" style="fill: #b22222; stroke: #b22222"/>
     <use xlink:href="#m9182f418fa" x="250.070651" y="223.550561" style="fill: #b22222; stroke: #b22222"/>
     <use xlink:href="#m9182f418fa" x="246.418033" y="227.766553" style="fill: #b22222; stroke: #b22222"/>
     <use xlink:href="#m9182f418fa" x="223.823093" y="226.20441" style="fill: #b22222; stroke: #b22222"/>
     <use xlink:href="#m9182f418fa" x="223.385925" y="238.170069" style="fill: #b22222; stroke: #b22222"/>
     <use xlink:href="#m9182f418fa" x="251.102549" y="187.648933" style="fill: #b22222; stroke: #b22222"/>
     <use xlink:href="#m9182f418fa" x="221.844429" y="232.002151" style="fill: #b22222; stroke: #b22222"/>
     <use xlink:href="#m9182f418fa" x="236.327933" y="210.69746" style="fill: #b22222; stroke: #b22222"/>
     <use xlink:href="#m9182f418fa" x="257.211021" y="232.854678" style="fill: #b22222; stroke: #b22222"/>
     <use xlink:href="#m9182f418fa" x="256.440678" y="231.288115" style="fill: #b22222; stroke: #b22222"/>
     <use xlink:href="#m9182f418fa" x="234.68691" y="229.103119" style="fill: #b22222; stroke: #b22222"/>
     <use xlink:href="#m9182f418fa" x="230.253558" y="227.723039" style="fill: #b22222; stroke: #b22222"/>
     <use xlink:href="#m9182f418fa" x="257.250244" y="220.324303" style="fill: #b22222; stroke: #b22222"/>
     <use xlink:href="#m9182f418fa" x="238.038428" y="229.80033" style="fill: #b22222; stroke: #b22222"/>
     <use xlink:href="#m9182f418fa" x="324.904476" y="191.43474" style="fill: #b22222; stroke: #b22222"/>
     <use xlink:href="#m9182f418fa" x="275.331676" y="245.019125" style="fill: #b22222; stroke: #b22222"/>
     <use xlink:href="#m9182f418fa" x="228.673873" y="227.118656" style="fill: #b22222; stroke: #b22222"/>
     <use xlink:href="#m9182f418fa" x="244.398328" y="226.555523" style="fill: #b22222; stroke: #b22222"/>
     <use xlink:href="#m9182f418fa" x="321.14709" y="181.248084" style="fill: #b22222; stroke: #b22222"/>
     <use xlink:href="#m9182f418fa" x="222.26544" y="228.909928" style="fill: #b22222; stroke: #b22222"/>
     <use xlink:href="#m9182f418fa" x="258.492146" y="234.954259" style="fill: #b22222; stroke: #b22222"/>
     <use xlink:href="#m9182f418fa" x="236.902517" y="230.09728" style="fill: #b22222; stroke: #b22222"/>
     <use xlink:href="#m9182f418fa" x="231.993411" y="226.360926" style="fill: #b22222; stroke: #b22222"/>
     <use xlink:href="#m9182f418fa" x="263.617926" y="223.891682" style="fill: #b22222; stroke: #b22222"/>
     <use xlink:href="#m9182f418fa" x="252.090323" y="225.610028" style="fill: #b22222; stroke: #b22222"/>
     <use xlink:href="#m9182f418fa" x="236.058638" y="229.642729" style="fill: #b22222; stroke: #b22222"/>
     <use xlink:href="#m9182f418fa" x="245.011836" y="239.520943" style="fill: #b22222; stroke: #b22222"/>
     <use xlink:href="#m9182f418fa" x="272.765854" y="235.397937" style="fill: #b22222; stroke: #b22222"/>
     <use xlink:href="#m9182f418fa" x="276.410093" y="222.294712" style="fill: #b22222; stroke: #b22222"/>
     <use xlink:href="#m9182f418fa" x="351.997061" y="221.745428" style="fill: #b22222; stroke: #b22222"/>
     <use xlink:href="#m9182f418fa" x="243.490948" y="237.52091" style="fill: #b22222; stroke: #b22222"/>
     <use xlink:href="#m9182f418fa" x="230.120822" y="231.264448" style="fill: #b22222; stroke: #b22222"/>
     <use xlink:href="#m9182f418fa" x="260.587603" y="227.02336" style="fill: #b22222; stroke: #b22222"/>
     <use xlink:href="#m9182f418fa" x="357.147323" y="224.188541" style="fill: #b22222; stroke: #b22222"/>
     <use xlink:href="#m9182f418fa" x="231.151754" y="234.190341" style="fill: #b22222; stroke: #b22222"/>
     <use xlink:href="#m9182f418fa" x="229.513256" y="249.328248" style="fill: #b22222; stroke: #b22222"/>
     <use xlink:href="#m9182f418fa" x="246.048036" y="229.926062" style="fill: #b22222; stroke: #b22222"/>
    </g>
   </g>
   <g id="patch_4">
    <path d="M 56.450156 450.72 
L 56.450156 7.2 
" style="fill: none; stroke: #ffffff; stroke-width: 1.25; stroke-linejoin: miter; stroke-linecap: square"/>
   </g>
   <g id="patch_5">
    <path d="M 499.970156 450.72 
L 499.970156 7.2 
" style="fill: none; stroke: #ffffff; stroke-width: 1.25; stroke-linejoin: miter; stroke-linecap: square"/>
   </g>
   <g id="patch_6">
    <path d="M 56.450156 450.72 
L 499.970156 450.72 
" style="fill: none; stroke: #ffffff; stroke-width: 1.25; stroke-linejoin: miter; stroke-linecap: square"/>
   </g>
   <g id="patch_7">
    <path d="M 56.450156 7.2 
L 499.970156 7.2 
" style="fill: none; stroke: #ffffff; stroke-width: 1.25; stroke-linejoin: miter; stroke-linecap: square"/>
   </g>
   <g id="text_13">
    <!-- t = 4700 -->
    <g style="fill: #262626" transform="translate(65.320556 24.659775) scale(0.12 -0.12)">
     <defs>
      <path id="ArialMT-74" d="M 1650 503 
L 1731 6 
Q 1494 -44 1306 -44 
Q 1000 -44 831 53 
Q 663 150 594 308 
Q 525 466 525 972 
L 525 2881 
L 113 2881 
L 113 3319 
L 525 3319 
L 525 4141 
L 1084 4478 
L 1084 3319 
L 1650 3319 
L 1650 2881 
L 1084 2881 
L 1084 941 
Q 1084 700 1114 631 
Q 1144 563 1211 522 
Q 1278 481 1403 481 
Q 1497 481 1650 503 
z
" transform="scale(0.015625)"/>
      <path id="ArialMT-20" transform="scale(0.015625)"/>
      <path id="ArialMT-3d" d="M 3381 2694 
L 356 2694 
L 356 3219 
L 3381 3219 
L 3381 2694 
z
M 3381 1303 
L 356 1303 
L 356 1828 
L 3381 1828 
L 3381 1303 
z
" transform="scale(0.015625)"/>
      <path id="ArialMT-37" d="M 303 3981 
L 303 4522 
L 3269 4522 
L 3269 4084 
Q 2831 3619 2401 2847 
Q 1972 2075 1738 1259 
Q 1569 684 1522 0 
L 944 0 
Q 953 541 1156 1306 
Q 1359 2072 1739 2783 
Q 2119 3494 2547 3981 
L 303 3981 
z
" transform="scale(0.015625)"/>
     </defs>
     <use xlink:href="#ArialMT-74"/>
     <use xlink:href="#ArialMT-20" x="27.783203"/>
     <use xlink:href="#ArialMT-3d" x="55.566406"/>
     <use xlink:href="#ArialMT-20" x="113.964844"/>
     <use xlink:href="#ArialMT-34" x="141.748047"/>
     <use xlink:href="#ArialMT-37" x="197.363281"/>
     <use xlink:href="#ArialMT-30" x="252.978516"/>
     <use xlink:href="#ArialMT-30" x="308.59375"/>
    </g>
   </g>
   <g id="legend_1">
    <g id="patch_8">
     <path d="M 328.111406 94.59 
L 483.170156 94.59 
Q 487.970156 94.59 487.970156 89.79 
L 487.970156 24 
Q 487.970156 19.2 483.170156 19.2 
L 328.111406 19.2 
Q 323.311406 19.2 323.311406 24 
L 323.311406 89.79 
Q 323.311406 94.59 328.111406 94.59 
z
" style="fill: #eaeaf2; opacity: 0.8; stroke: #cccccc; stroke-linejoin: miter"/>
    </g>
    <g id="PathCollection_3">
     <g>
      <use xlink:href="#mf89c9ff10a" x="356.911406" y="39.97125" style="fill: #4169e1; stroke: #4169e1"/>
     </g>
    </g>
    <g id="text_14">
     <!-- Sheep -->
     <g style="fill: #262626" transform="translate(400.111406 46.27125) scale(0.24 -0.24)">
      <defs>
       <path id="ArialMT-53" d="M 288 1472 
L 859 1522 
Q 900 1178 1048 958 
Q 1197 738 1509 602 
Q 1822 466 2213 466 
Q 2559 466 2825 569 
Q 3091 672 3220 851 
Q 3350 1031 3350 1244 
Q 3350 1459 3225 1620 
Q 3100 1781 2813 1891 
Q 2628 1963 1997 2114 
Q 1366 2266 1113 2400 
Q 784 2572 623 2826 
Q 463 3081 463 3397 
Q 463 3744 659 4045 
Q 856 4347 1234 4503 
Q 1613 4659 2075 4659 
Q 2584 4659 2973 4495 
Q 3363 4331 3572 4012 
Q 3781 3694 3797 3291 
L 3216 3247 
Q 3169 3681 2898 3903 
Q 2628 4125 2100 4125 
Q 1550 4125 1298 3923 
Q 1047 3722 1047 3438 
Q 1047 3191 1225 3031 
Q 1400 2872 2139 2705 
Q 2878 2538 3153 2413 
Q 3553 2228 3743 1945 
Q 3934 1663 3934 1294 
Q 3934 928 3725 604 
Q 3516 281 3123 101 
Q 2731 -78 2241 -78 
Q 1619 -78 1198 103 
Q 778 284 539 648 
Q 300 1013 288 1472 
z
" transform="scale(0.015625)"/>
       <path id="ArialMT-68" d="M 422 0 
L 422 4581 
L 984 4581 
L 984 2938 
Q 1378 3394 1978 3394 
Q 2347 3394 2619 3248 
Q 2891 3103 3008 2847 
Q 3125 2591 3125 2103 
L 3125 0 
L 2563 0 
L 2563 2103 
Q 2563 2525 2380 2717 
Q 2197 2909 1863 2909 
Q 1613 2909 1392 2779 
Q 1172 2650 1078 2428 
Q 984 2206 984 1816 
L 984 0 
L 422 0 
z
" transform="scale(0.015625)"/>
       <path id="ArialMT-65" d="M 2694 1069 
L 3275 997 
Q 3138 488 2766 206 
Q 2394 -75 1816 -75 
Q 1088 -75 661 373 
Q 234 822 234 1631 
Q 234 2469 665 2931 
Q 1097 3394 1784 3394 
Q 2450 3394 2872 2941 
Q 3294 2488 3294 1666 
Q 3294 1616 3291 1516 
L 816 1516 
Q 847 969 1125 678 
Q 1403 388 1819 388 
Q 2128 388 2347 550 
Q 2566 713 2694 1069 
z
M 847 1978 
L 2700 1978 
Q 2663 2397 2488 2606 
Q 2219 2931 1791 2931 
Q 1403 2931 1139 2672 
Q 875 2413 847 1978 
z
" transform="scale(0.015625)"/>
       <path id="ArialMT-70" d="M 422 -1272 
L 422 3319 
L 934 3319 
L 934 2888 
Q 1116 3141 1344 3267 
Q 1572 3394 1897 3394 
Q 2322 3394 2647 3175 
Q 2972 2956 3137 2557 
Q 3303 2159 3303 1684 
Q 3303 1175 3120 767 
Q 2938 359 2589 142 
Q 2241 -75 1856 -75 
Q 1575 -75 1351 44 
Q 1128 163 984 344 
L 984 -1272 
L 422 -1272 
z
M 931 1641 
Q 931 1000 1190 694 
Q 1450 388 1819 388 
Q 2194 388 2461 705 
Q 2728 1022 2728 1688 
Q 2728 2322 2467 2637 
Q 2206 2953 1844 2953 
Q 1484 2953 1207 2617 
Q 931 2281 931 1641 
z
" transform="scale(0.015625)"/>
      </defs>
      <use xlink:href="#ArialMT-53"/>
      <use xlink:href="#ArialMT-68" x="66.699219"/>
      <use xlink:href="#ArialMT-65" x="122.314453"/>
      <use xlink:href="#ArialMT-65" x="177.929688"/>
      <use xlink:href="#ArialMT-70" x="233.544922"/>
     </g>
    </g>
    <g id="PathCollection_4">
     <g>
      <use xlink:href="#m9182f418fa" x="356.911406" y="73.92" style="fill: #b22222; stroke: #b22222"/>
     </g>
    </g>
    <g id="text_15">
     <!-- Wolves -->
     <g style="fill: #262626" transform="translate(400.111406 80.22) scale(0.24 -0.24)">
      <defs>
       <path id="ArialMT-57" d="M 1294 0 
L 78 4581 
L 700 4581 
L 1397 1578 
Q 1509 1106 1591 641 
Q 1766 1375 1797 1488 
L 2669 4581 
L 3400 4581 
L 4056 2263 
Q 4303 1400 4413 641 
Q 4500 1075 4641 1638 
L 5359 4581 
L 5969 4581 
L 4713 0 
L 4128 0 
L 3163 3491 
Q 3041 3928 3019 4028 
Q 2947 3713 2884 3491 
L 1913 0 
L 1294 0 
z
" transform="scale(0.015625)"/>
       <path id="ArialMT-6f" d="M 213 1659 
Q 213 2581 725 3025 
Q 1153 3394 1769 3394 
Q 2453 3394 2887 2945 
Q 3322 2497 3322 1706 
Q 3322 1066 3130 698 
Q 2938 331 2570 128 
Q 2203 -75 1769 -75 
Q 1072 -75 642 372 
Q 213 819 213 1659 
z
M 791 1659 
Q 791 1022 1069 705 
Q 1347 388 1769 388 
Q 2188 388 2466 706 
Q 2744 1025 2744 1678 
Q 2744 2294 2464 2611 
Q 2184 2928 1769 2928 
Q 1347 2928 1069 2612 
Q 791 2297 791 1659 
z
" transform="scale(0.015625)"/>
       <path id="ArialMT-6c" d="M 409 0 
L 409 4581 
L 972 4581 
L 972 0 
L 409 0 
z
" transform="scale(0.015625)"/>
       <path id="ArialMT-76" d="M 1344 0 
L 81 3319 
L 675 3319 
L 1388 1331 
Q 1503 1009 1600 663 
Q 1675 925 1809 1294 
L 2547 3319 
L 3125 3319 
L 1869 0 
L 1344 0 
z
" transform="scale(0.015625)"/>
       <path id="ArialMT-73" d="M 197 991 
L 753 1078 
Q 800 744 1014 566 
Q 1228 388 1613 388 
Q 2000 388 2187 545 
Q 2375 703 2375 916 
Q 2375 1106 2209 1216 
Q 2094 1291 1634 1406 
Q 1016 1563 777 1677 
Q 538 1791 414 1992 
Q 291 2194 291 2438 
Q 291 2659 392 2848 
Q 494 3038 669 3163 
Q 800 3259 1026 3326 
Q 1253 3394 1513 3394 
Q 1903 3394 2198 3281 
Q 2494 3169 2634 2976 
Q 2775 2784 2828 2463 
L 2278 2388 
Q 2241 2644 2061 2787 
Q 1881 2931 1553 2931 
Q 1166 2931 1000 2803 
Q 834 2675 834 2503 
Q 834 2394 903 2306 
Q 972 2216 1119 2156 
Q 1203 2125 1616 2013 
Q 2213 1853 2448 1751 
Q 2684 1650 2818 1456 
Q 2953 1263 2953 975 
Q 2953 694 2789 445 
Q 2625 197 2315 61 
Q 2006 -75 1616 -75 
Q 969 -75 630 194 
Q 291 463 197 991 
z
" transform="scale(0.015625)"/>
      </defs>
      <use xlink:href="#ArialMT-57"/>
      <use xlink:href="#ArialMT-6f" x="92.634766"/>
      <use xlink:href="#ArialMT-6c" x="148.25"/>
      <use xlink:href="#ArialMT-76" x="170.466797"/>
      <use xlink:href="#ArialMT-65" x="220.466797"/>
      <use xlink:href="#ArialMT-73" x="276.082031"/>
     </g>
    </g>
   </g>
  </g>
 </g>
 <defs>
  <clipPath id="p023ea2e4ac">
   <rect x="56.450156" y="7.2" width="443.52" height="443.52"/>
  </clipPath>
 </defs>
</svg>
