<?xml version="1.0" encoding="utf-8" standalone="no"?>
<!DOCTYPE svg PUBLIC "-//W3C//DTD SVG 1.1//EN"
  "http://www.w3.org/Graphics/SVG/1.1/DTD/svg11.dtd">
<svg xmlns:xlink="http://www.w3.org/1999/xlink" width="507.170156pt" height="492.454219pt" viewBox="0 0 507.170156 492.454219" xmlns="http://www.w3.org/2000/svg" version="1.1">
 <metadata>
  <rdf:RDF xmlns:dc="http://purl.org/dc/elements/1.1/" xmlns:cc="http://creativecommons.org/ns#" xmlns:rdf="http://www.w3.org/1999/02/22-rdf-syntax-ns#">
   <cc:Work>
    <dc:type rdf:resource="http://purl.org/dc/dcmitype/StillImage"/>
    <dc:date>2026-05-12T10:43:20.738021</dc:date>
    <dc:format>image/svg+xml</dc:format>
    <dc:creator>
     <cc:Agent>
      <dc:title>Matplotlib v3.7.1, https://matplotlib.org/</dc:title>
     </cc:Agent>
    </dc:creator>
   </cc:Work>
  </rdf:RDF>
 </metadata>
 <defs>
  <style type="text/css">*{stroke-linejoin: round; stroke-linecap: butt}</style>
 </defs>
 <g id="figure_1">
  <g id="patch_1">
   <path d="M 0 492.454219 
L 507.170156 492.454219 
L 507.170156 0 
L 0 0 
z
" style="fill: #ffffff"/>
  </g>
  <g id="axes_1">
   <g id="patch_2">
    <path d="M 56.450156 450.72 
L 499.970156 450.72 
L 499.970156 7.2 
L 56.450156 7.2 
z
" style="fill: #eaeaf2"/>
   </g>
   <g id="matplotlib.axis_1">
    <g id="xtick_1">
     <g id="line2d_1">
      <path d="M 100.802156 450.72 
L 100.802156 7.2 
" clip-path="url(#pd0fdc7d328)" style="fill: none; stroke: #ffffff; stroke-linecap: round"/>
     </g>
     <g id="text_1">
      <!-- −400 -->
      <g style="fill: #262626" transform="translate(88.414266 468.093594) scale(0.11 -0.11)">
       <defs>
        <path id="ArialMT-2212" d="M 3381 1997 
L 356 1997 
L 356 2522 
L 3381 2522 
L 3381 1997 
z
" transform="scale(0.015625)"/>
        <path id="ArialMT-34" d="M 2069 0 
L 2069 1097 
L 81 1097 
L 81 1613 
L 2172 4581 
L 2631 4581 
L 2631 1613 
L 3250 1613 
L 3250 1097 
L 2631 1097 
L 2631 0 
L 2069 0 
z
M 2069 1613 
L 2069 3678 
L 634 1613 
L 2069 1613 
z
" transform="scale(0.015625)"/>
        <path id="ArialMT-30" d="M 266 2259 
Q 266 3072 433 3567 
Q 600 4063 929 4331 
Q 1259 4600 1759 4600 
Q 2128 4600 2406 4451 
Q 2684 4303 2865 4023 
Q 3047 3744 3150 3342 
Q 3253 2941 3253 2259 
Q 3253 1453 3087 958 
Q 2922 463 2592 192 
Q 2263 -78 1759 -78 
Q 1097 -78 719 397 
Q 266 969 266 2259 
z
M 844 2259 
Q 844 1131 1108 757 
Q 1372 384 1759 384 
Q 2147 384 2411 759 
Q 2675 1134 2675 2259 
Q 2675 3391 2411 3762 
Q 2147 4134 1753 4134 
Q 1366 4134 1134 3806 
Q 844 3388 844 2259 
z
" transform="scale(0.015625)"/>
       </defs>
       <use xlink:href="#ArialMT-2212"/>
       <use xlink:href="#ArialMT-34" x="58.398438"/>
       <use xlink:href="#ArialMT-30" x="114.013672"/>
       <use xlink:href="#ArialMT-30" x="169.628906"/>
      </g>
     </g>
    </g>
    <g id="xtick_2">
     <g id="line2d_2">
      <path d="M 189.506156 450.72 
L 189.506156 7.2 
" clip-path="url(#pd0fdc7d328)" style="fill: none; stroke: #ffffff; stroke-linecap: round"/>
     </g>
     <g id="text_2">
      <!-- −200 -->
      <g style="fill: #262626" transform="translate(177.118266 468.093594) scale(0.11 -0.11)">
       <defs>
        <path id="ArialMT-32" d="M 3222 541 
L 3222 0 
L 194 0 
Q 188 203 259 391 
Q 375 700 629 1000 
Q 884 1300 1366 1694 
Q 2113 2306 2375 2664 
Q 2638 3022 2638 3341 
Q 2638 3675 2398 3904 
Q 2159 4134 1775 4134 
Q 1369 4134 1125 3890 
Q 881 3647 878 3216 
L 300 3275 
Q 359 3922 746 4261 
Q 1134 4600 1788 4600 
Q 2447 4600 2831 4234 
Q 3216 3869 3216 3328 
Q 3216 3053 3103 2787 
Q 2991 2522 2730 2228 
Q 2469 1934 1863 1422 
Q 1356 997 1212 845 
Q 1069 694 975 541 
L 3222 541 
z
" transform="scale(0.015625)"/>
       </defs>
       <use xlink:href="#ArialMT-2212"/>
       <use xlink:href="#ArialMT-32" x="58.398438"/>
       <use xlink:href="#ArialMT-30" x="114.013672"/>
       <use xlink:href="#ArialMT-30" x="169.628906"/>
      </g>
     </g>
    </g>
    <g id="xtick_3">
     <g id="line2d_3">
      <path d="M 278.210156 450.72 
L 278.210156 7.2 
" clip-path="url(#pd0fdc7d328)" style="fill: none; stroke: #ffffff; stroke-linecap: round"/>
     </g>
     <g id="text_3">
      <!-- 0 -->
      <g style="fill: #262626" transform="translate(275.151641 468.093594) scale(0.11 -0.11)">
       <use xlink:href="#ArialMT-30"/>
      </g>
     </g>
    </g>
    <g id="xtick_4">
     <g id="line2d_4">
      <path d="M 366.914156 450.72 
L 366.914156 7.2 
" clip-path="url(#pd0fdc7d328)" style="fill: none; stroke: #ffffff; stroke-linecap: round"/>
     </g>
     <g id="text_4">
      <!-- 200 -->
      <g style="fill: #262626" transform="translate(357.738609 468.093594) scale(0.11 -0.11)">
       <use xlink:href="#ArialMT-32"/>
       <use xlink:href="#ArialMT-30" x="55.615234"/>
       <use xlink:href="#ArialMT-30" x="111.230469"/>
      </g>
     </g>
    </g>
    <g id="xtick_5">
     <g id="line2d_5">
      <path d="M 455.618156 450.72 
L 455.618156 7.2 
" clip-path="url(#pd0fdc7d328)" style="fill: none; stroke: #ffffff; stroke-linecap: round"/>
     </g>
     <g id="text_5">
      <!-- 400 -->
      <g style="fill: #262626" transform="translate(446.442609 468.093594) scale(0.11 -0.11)">
       <use xlink:href="#ArialMT-34"/>
       <use xlink:href="#ArialMT-30" x="55.615234"/>
       <use xlink:href="#ArialMT-30" x="111.230469"/>
      </g>
     </g>
    </g>
    <g id="text_6">
     <!-- x -->
     <g style="fill: #262626" transform="translate(275.210156 482.869219) scale(0.12 -0.12)">
      <defs>
       <path id="ArialMT-78" d="M 47 0 
L 1259 1725 
L 138 3319 
L 841 3319 
L 1350 2541 
Q 1494 2319 1581 2169 
Q 1719 2375 1834 2534 
L 2394 3319 
L 3066 3319 
L 1919 1756 
L 3153 0 
L 2463 0 
L 1781 1031 
L 1600 1309 
L 728 0 
L 47 0 
z
" transform="scale(0.015625)"/>
      </defs>
      <use xlink:href="#ArialMT-78"/>
     </g>
    </g>
   </g>
   <g id="matplotlib.axis_2">
    <g id="ytick_1">
     <g id="line2d_6">
      <path d="M 56.450156 406.368 
L 499.970156 406.368 
" clip-path="url(#pd0fdc7d328)" style="fill: none; stroke: #ffffff; stroke-linecap: round"/>
     </g>
     <g id="text_7">
      <!-- −400 -->
      <g style="fill: #262626" transform="translate(22.174375 410.304797) scale(0.11 -0.11)">
       <use xlink:href="#ArialMT-2212"/>
       <use xlink:href="#ArialMT-34" x="58.398438"/>
       <use xlink:href="#ArialMT-30" x="114.013672"/>
       <use xlink:href="#ArialMT-30" x="169.628906"/>
      </g>
     </g>
    </g>
    <g id="ytick_2">
     <g id="line2d_7">
      <path d="M 56.450156 317.664 
L 499.970156 317.664 
" clip-path="url(#pd0fdc7d328)" style="fill: none; stroke: #ffffff; stroke-linecap: round"/>
     </g>
     <g id="text_8">
      <!-- −200 -->
      <g style="fill: #262626" transform="translate(22.174375 321.600797) scale(0.11 -0.11)">
       <use xlink:href="#ArialMT-2212"/>
       <use xlink:href="#ArialMT-32" x="58.398438"/>
       <use xlink:href="#ArialMT-30" x="114.013672"/>
       <use xlink:href="#ArialMT-30" x="169.628906"/>
      </g>
     </g>
    </g>
    <g id="ytick_3">
     <g id="line2d_8">
      <path d="M 56.450156 228.96 
L 499.970156 228.96 
" clip-path="url(#pd0fdc7d328)" style="fill: none; stroke: #ffffff; stroke-linecap: round"/>
     </g>
     <g id="text_9">
      <!-- 0 -->
      <g style="fill: #262626" transform="translate(40.833125 232.896797) scale(0.11 -0.11)">
       <use xlink:href="#ArialMT-30"/>
      </g>
     </g>
    </g>
    <g id="ytick_4">
     <g id="line2d_9">
      <path d="M 56.450156 140.256 
L 499.970156 140.256 
" clip-path="url(#pd0fdc7d328)" style="fill: none; stroke: #ffffff; stroke-linecap: round"/>
     </g>
     <g id="text_10">
      <!-- 200 -->
      <g style="fill: #262626" transform="translate(28.599063 144.192797) scale(0.11 -0.11)">
       <use xlink:href="#ArialMT-32"/>
       <use xlink:href="#ArialMT-30" x="55.615234"/>
       <use xlink:href="#ArialMT-30" x="111.230469"/>
      </g>
     </g>
    </g>
    <g id="ytick_5">
     <g id="line2d_10">
      <path d="M 56.450156 51.552 
L 499.970156 51.552 
" clip-path="url(#pd0fdc7d328)" style="fill: none; stroke: #ffffff; stroke-linecap: round"/>
     </g>
     <g id="text_11">
      <!-- 400 -->
      <g style="fill: #262626" transform="translate(28.599063 55.488797) scale(0.11 -0.11)">
       <use xlink:href="#ArialMT-34"/>
       <use xlink:href="#ArialMT-30" x="55.615234"/>
       <use xlink:href="#ArialMT-30" x="111.230469"/>
      </g>
     </g>
    </g>
    <g id="text_12">
     <!-- y -->
     <g style="fill: #262626" transform="translate(15.64875 231.96) rotate(-90) scale(0.12 -0.12)">
      <defs>
       <path id="ArialMT-79" d="M 397 -1278 
L 334 -750 
Q 519 -800 656 -800 
Q 844 -800 956 -737 
Q 1069 -675 1141 -563 
Q 1194 -478 1313 -144 
Q 1328 -97 1363 -6 
L 103 3319 
L 709 3319 
L 1400 1397 
Q 1534 1031 1641 628 
Q 1738 1016 1872 1384 
L 2581 3319 
L 3144 3319 
L 1881 -56 
Q 1678 -603 1566 -809 
Q 1416 -1088 1222 -1217 
Q 1028 -1347 759 -1347 
Q 597 -1347 397 -1278 
z
" transform="scale(0.015625)"/>
      </defs>
      <use xlink:href="#ArialMT-79"/>
     </g>
    </g>
   </g>
   <g id="patch_3">
    <path d="M 278.210156 317.664 
C 301.734732 317.664 324.298969 308.317587 340.933356 291.6832 
C 357.567743 275.048813 366.914156 252.484576 366.914156 228.96 
C 366.914156 205.435424 357.567743 182.871187 340.933356 166.2368 
C 324.298969 149.602413 301.734732 140.256 278.210156 140.256 
C 254.68558 140.256 232.121343 149.602413 215.486956 166.2368 
C 198.852569 182.871187 189.506156 205.435424 189.506156 228.96 
C 189.506156 252.484576 198.852569 275.048813 215.486956 291.6832 
C 232.121343 308.317587 254.68558 317.664 278.210156 317.664 
z
" clip-path="url(#pd0fdc7d328)" style="fill: #228b22; opacity: 0.12; stroke: #228b22; stroke-width: 1.5; stroke-linejoin: miter"/>
   </g>
   <g id="PathCollection_1">
    <defs>
     <path id="m23d13fb9cb" d="M 0 2.236068 
C 0.593012 2.236068 1.161816 2.000462 1.581139 1.581139 
C 2.000462 1.161816 2.236068 0.593012 2.236068 0 
C 2.236068 -0.593012 2.000462 -1.161816 1.581139 -1.581139 
C 1.161816 -2.000462 0.593012 -2.236068 0 -2.236068 
C -0.593012 -2.236068 -1.161816 -2.000462 -1.581139 -1.581139 
C -2.000462 -1.161816 -2.236068 -0.593012 -2.236068 0 
C -2.236068 0.593012 -2.000462 1.161816 -1.581139 1.581139 
C -1.161816 2.000462 -0.593012 2.236068 0 2.236068 
z
" style="stroke: #4169e1"/>
    </defs>
    <g clip-path="url(#pd0fdc7d328)">
     <use xlink:href="#m23d13fb9cb" x="163.949995" y="242.248779" style="fill: #4169e1; stroke: #4169e1"/>
     <use xlink:href="#m23d13fb9cb" x="317.605474" y="105.67465" style="fill: #4169e1; stroke: #4169e1"/>
     <use xlink:href="#m23d13fb9cb" x="260.020948" y="151.686785" style="fill: #4169e1; stroke: #4169e1"/>
     <use xlink:href="#m23d13fb9cb" x="335.937733" y="276.713222" style="fill: #4169e1; stroke: #4169e1"/>
     <use xlink:href="#m23d13fb9cb" x="335.842121" y="143.523136" style="fill: #4169e1; stroke: #4169e1"/>
     <use xlink:href="#m23d13fb9cb" x="226.988462" y="194.41102" style="fill: #4169e1; stroke: #4169e1"/>
     <use xlink:href="#m23d13fb9cb" x="389.542251" y="78.454761" style="fill: #4169e1; stroke: #4169e1"/>
     <use xlink:href="#m23d13fb9cb" x="361.158656" y="117.641664" style="fill: #4169e1; stroke: #4169e1"/>
     <use xlink:href="#m23d13fb9cb" x="244.337419" y="224.363777" style="fill: #4169e1; stroke: #4169e1"/>
     <use xlink:href="#m23d13fb9cb" x="346.940177" y="205.087065" style="fill: #4169e1; stroke: #4169e1"/>
     <use xlink:href="#m23d13fb9cb" x="319.82329" y="154.572054" style="fill: #4169e1; stroke: #4169e1"/>
     <use xlink:href="#m23d13fb9cb" x="174.08893" y="177.276151" style="fill: #4169e1; stroke: #4169e1"/>
     <use xlink:href="#m23d13fb9cb" x="240.301662" y="56.247454" style="fill: #4169e1; stroke: #4169e1"/>
     <use xlink:href="#m23d13fb9cb" x="226.744102" y="191.68911" style="fill: #4169e1; stroke: #4169e1"/>
     <use xlink:href="#m23d13fb9cb" x="293.424022" y="132.578846" style="fill: #4169e1; stroke: #4169e1"/>
     <use xlink:href="#m23d13fb9cb" x="435.694068" y="146.990255" style="fill: #4169e1; stroke: #4169e1"/>
     <use xlink:href="#m23d13fb9cb" x="254.631122" y="171.046762" style="fill: #4169e1; stroke: #4169e1"/>
     <use xlink:href="#m23d13fb9cb" x="458.851204" y="214.072438" style="fill: #4169e1; stroke: #4169e1"/>
     <use xlink:href="#m23d13fb9cb" x="395.532769" y="121.632688" style="fill: #4169e1; stroke: #4169e1"/>
     <use xlink:href="#m23d13fb9cb" x="333.672452" y="179.148395" style="fill: #4169e1; stroke: #4169e1"/>
     <use xlink:href="#m23d13fb9cb" x="442.395473" y="225.935124" style="fill: #4169e1; stroke: #4169e1"/>
     <use xlink:href="#m23d13fb9cb" x="266.160206" y="315.862173" style="fill: #4169e1; stroke: #4169e1"/>
     <use xlink:href="#m23d13fb9cb" x="244.059813" y="146.546532" style="fill: #4169e1; stroke: #4169e1"/>
     <use xlink:href="#m23d13fb9cb" x="325.268034" y="278.657913" style="fill: #4169e1; stroke: #4169e1"/>
     <use xlink:href="#m23d13fb9cb" x="220.550783" y="236.098903" style="fill: #4169e1; stroke: #4169e1"/>
     <use xlink:href="#m23d13fb9cb" x="243.85413" y="211.64988" style="fill: #4169e1; stroke: #4169e1"/>
     <use xlink:href="#m23d13fb9cb" x="212.45096" y="242.006514" style="fill: #4169e1; stroke: #4169e1"/>
     <use xlink:href="#m23d13fb9cb" x="216.943055" y="270.279333" style="fill: #4169e1; stroke: #4169e1"/>
     <use xlink:href="#m23d13fb9cb" x="192.219563" y="141.500842" style="fill: #4169e1; stroke: #4169e1"/>
     <use xlink:href="#m23d13fb9cb" x="435.480226" y="276.132476" style="fill: #4169e1; stroke: #4169e1"/>
     <use xlink:href="#m23d13fb9cb" x="214.410959" y="196.768847" style="fill: #4169e1; stroke: #4169e1"/>
     <use xlink:href="#m23d13fb9cb" x="373.406497" y="163.533004" style="fill: #4169e1; stroke: #4169e1"/>
     <use xlink:href="#m23d13fb9cb" x="348.915356" y="220.426889" style="fill: #4169e1; stroke: #4169e1"/>
     <use xlink:href="#m23d13fb9cb" x="230.49734" y="181.179981" style="fill: #4169e1; stroke: #4169e1"/>
     <use xlink:href="#m23d13fb9cb" x="219.140609" y="202.231866" style="fill: #4169e1; stroke: #4169e1"/>
     <use xlink:href="#m23d13fb9cb" x="193.470346" y="199.889259" style="fill: #4169e1; stroke: #4169e1"/>
     <use xlink:href="#m23d13fb9cb" x="357.498472" y="315.592377" style="fill: #4169e1; stroke: #4169e1"/>
     <use xlink:href="#m23d13fb9cb" x="232.112764" y="174.314155" style="fill: #4169e1; stroke: #4169e1"/>
     <use xlink:href="#m23d13fb9cb" x="216.697947" y="245.240791" style="fill: #4169e1; stroke: #4169e1"/>
     <use xlink:href="#m23d13fb9cb" x="247.948599" y="217.888235" style="fill: #4169e1; stroke: #4169e1"/>
     <use xlink:href="#m23d13fb9cb" x="262.009072" y="246.784589" style="fill: #4169e1; stroke: #4169e1"/>
     <use xlink:href="#m23d13fb9cb" x="255.513246" y="296.746025" style="fill: #4169e1; stroke: #4169e1"/>
     <use xlink:href="#m23d13fb9cb" x="188.310968" y="218.847702" style="fill: #4169e1; stroke: #4169e1"/>
     <use xlink:href="#m23d13fb9cb" x="204.529895" y="61.545886" style="fill: #4169e1; stroke: #4169e1"/>
     <use xlink:href="#m23d13fb9cb" x="221.852885" y="108.250269" style="fill: #4169e1; stroke: #4169e1"/>
     <use xlink:href="#m23d13fb9cb" x="232.76523" y="212.878319" style="fill: #4169e1; stroke: #4169e1"/>
     <use xlink:href="#m23d13fb9cb" x="390.13731" y="156.850866" style="fill: #4169e1; stroke: #4169e1"/>
     <use xlink:href="#m23d13fb9cb" x="333.617435" y="239.04062" style="fill: #4169e1; stroke: #4169e1"/>
     <use xlink:href="#m23d13fb9cb" x="212.512078" y="144.293713" style="fill: #4169e1; stroke: #4169e1"/>
     <use xlink:href="#m23d13fb9cb" x="168.667599" y="189.43131" style="fill: #4169e1; stroke: #4169e1"/>
     <use xlink:href="#m23d13fb9cb" x="215.780263" y="206.535955" style="fill: #4169e1; stroke: #4169e1"/>
     <use xlink:href="#m23d13fb9cb" x="294.53389" y="284.362088" style="fill: #4169e1; stroke: #4169e1"/>
     <use xlink:href="#m23d13fb9cb" x="305.166225" y="239.839048" style="fill: #4169e1; stroke: #4169e1"/>
     <use xlink:href="#m23d13fb9cb" x="265.415327" y="355.509082" style="fill: #4169e1; stroke: #4169e1"/>
     <use xlink:href="#m23d13fb9cb" x="257.521416" y="254.171736" style="fill: #4169e1; stroke: #4169e1"/>
     <use xlink:href="#m23d13fb9cb" x="375.894942" y="310.49796" style="fill: #4169e1; stroke: #4169e1"/>
     <use xlink:href="#m23d13fb9cb" x="324.660484" y="272.173612" style="fill: #4169e1; stroke: #4169e1"/>
     <use xlink:href="#m23d13fb9cb" x="270.100804" y="56.678007" style="fill: #4169e1; stroke: #4169e1"/>
     <use xlink:href="#m23d13fb9cb" x="371.433152" y="179.291414" style="fill: #4169e1; stroke: #4169e1"/>
     <use xlink:href="#m23d13fb9cb" x="305.457558" y="149.753545" style="fill: #4169e1; stroke: #4169e1"/>
     <use xlink:href="#m23d13fb9cb" x="177.843393" y="225.302379" style="fill: #4169e1; stroke: #4169e1"/>
     <use xlink:href="#m23d13fb9cb" x="289.956087" y="184.775822" style="fill: #4169e1; stroke: #4169e1"/>
     <use xlink:href="#m23d13fb9cb" x="424.145548" y="257.827128" style="fill: #4169e1; stroke: #4169e1"/>
     <use xlink:href="#m23d13fb9cb" x="296.469517" y="319.438269" style="fill: #4169e1; stroke: #4169e1"/>
     <use xlink:href="#m23d13fb9cb" x="383.870763" y="180.453353" style="fill: #4169e1; stroke: #4169e1"/>
     <use xlink:href="#m23d13fb9cb" x="300.9056" y="136.514233" style="fill: #4169e1; stroke: #4169e1"/>
     <use xlink:href="#m23d13fb9cb" x="398.036895" y="173.34025" style="fill: #4169e1; stroke: #4169e1"/>
     <use xlink:href="#m23d13fb9cb" x="452.956563" y="168.40409" style="fill: #4169e1; stroke: #4169e1"/>
     <use xlink:href="#m23d13fb9cb" x="339.526681" y="262.105547" style="fill: #4169e1; stroke: #4169e1"/>
     <use xlink:href="#m23d13fb9cb" x="230.16916" y="63.390822" style="fill: #4169e1; stroke: #4169e1"/>
     <use xlink:href="#m23d13fb9cb" x="295.930347" y="154.503038" style="fill: #4169e1; stroke: #4169e1"/>
     <use xlink:href="#m23d13fb9cb" x="436.92237" y="175.352325" style="fill: #4169e1; stroke: #4169e1"/>
     <use xlink:href="#m23d13fb9cb" x="162.288798" y="212.453432" style="fill: #4169e1; stroke: #4169e1"/>
     <use xlink:href="#m23d13fb9cb" x="202.175184" y="193.383278" style="fill: #4169e1; stroke: #4169e1"/>
     <use xlink:href="#m23d13fb9cb" x="367.128634" y="243.281534" style="fill: #4169e1; stroke: #4169e1"/>
     <use xlink:href="#m23d13fb9cb" x="221.273121" y="252.997135" style="fill: #4169e1; stroke: #4169e1"/>
     <use xlink:href="#m23d13fb9cb" x="192.850186" y="157.207247" style="fill: #4169e1; stroke: #4169e1"/>
     <use xlink:href="#m23d13fb9cb" x="396.355476" y="75.60025" style="fill: #4169e1; stroke: #4169e1"/>
     <use xlink:href="#m23d13fb9cb" x="231.687192" y="192.41006" style="fill: #4169e1; stroke: #4169e1"/>
     <use xlink:href="#m23d13fb9cb" x="253.793316" y="261.505628" style="fill: #4169e1; stroke: #4169e1"/>
     <use xlink:href="#m23d13fb9cb" x="453.357948" y="242.512381" style="fill: #4169e1; stroke: #4169e1"/>
     <use xlink:href="#m23d13fb9cb" x="295.413343" y="173.365019" style="fill: #4169e1; stroke: #4169e1"/>
     <use xlink:href="#m23d13fb9cb" x="239.991937" y="286.908098" style="fill: #4169e1; stroke: #4169e1"/>
     <use xlink:href="#m23d13fb9cb" x="241.187318" y="292.696976" style="fill: #4169e1; stroke: #4169e1"/>
     <use xlink:href="#m23d13fb9cb" x="347.194347" y="292.434286" style="fill: #4169e1; stroke: #4169e1"/>
     <use xlink:href="#m23d13fb9cb" x="340.198242" y="120.907528" style="fill: #4169e1; stroke: #4169e1"/>
     <use xlink:href="#m23d13fb9cb" x="251.007962" y="271.001992" style="fill: #4169e1; stroke: #4169e1"/>
     <use xlink:href="#m23d13fb9cb" x="378.681425" y="182.605003" style="fill: #4169e1; stroke: #4169e1"/>
     <use xlink:href="#m23d13fb9cb" x="396.895678" y="180.34177" style="fill: #4169e1; stroke: #4169e1"/>
     <use xlink:href="#m23d13fb9cb" x="430.756917" y="149.768352" style="fill: #4169e1; stroke: #4169e1"/>
     <use xlink:href="#m23d13fb9cb" x="395.813732" y="202.855431" style="fill: #4169e1; stroke: #4169e1"/>
     <use xlink:href="#m23d13fb9cb" x="181.292996" y="198.140013" style="fill: #4169e1; stroke: #4169e1"/>
     <use xlink:href="#m23d13fb9cb" x="398.16177" y="187.182123" style="fill: #4169e1; stroke: #4169e1"/>
     <use xlink:href="#m23d13fb9cb" x="310.097052" y="291.30808" style="fill: #4169e1; stroke: #4169e1"/>
     <use xlink:href="#m23d13fb9cb" x="176.674273" y="213.939787" style="fill: #4169e1; stroke: #4169e1"/>
     <use xlink:href="#m23d13fb9cb" x="256.026028" y="271.81313" style="fill: #4169e1; stroke: #4169e1"/>
     <use xlink:href="#m23d13fb9cb" x="287.303126" y="192.880769" style="fill: #4169e1; stroke: #4169e1"/>
     <use xlink:href="#m23d13fb9cb" x="374.750166" y="204.469688" style="fill: #4169e1; stroke: #4169e1"/>
     <use xlink:href="#m23d13fb9cb" x="359.170091" y="161.883244" style="fill: #4169e1; stroke: #4169e1"/>
     <use xlink:href="#m23d13fb9cb" x="293.763553" y="198.317699" style="fill: #4169e1; stroke: #4169e1"/>
     <use xlink:href="#m23d13fb9cb" x="338.178992" y="119.67974" style="fill: #4169e1; stroke: #4169e1"/>
     <use xlink:href="#m23d13fb9cb" x="396.10961" y="246.079761" style="fill: #4169e1; stroke: #4169e1"/>
     <use xlink:href="#m23d13fb9cb" x="426.623781" y="143.151583" style="fill: #4169e1; stroke: #4169e1"/>
     <use xlink:href="#m23d13fb9cb" x="322.878006" y="105.2175" style="fill: #4169e1; stroke: #4169e1"/>
     <use xlink:href="#m23d13fb9cb" x="369.816845" y="215.43108" style="fill: #4169e1; stroke: #4169e1"/>
     <use xlink:href="#m23d13fb9cb" x="215.450851" y="214.049151" style="fill: #4169e1; stroke: #4169e1"/>
     <use xlink:href="#m23d13fb9cb" x="296.95897" y="268.593672" style="fill: #4169e1; stroke: #4169e1"/>
     <use xlink:href="#m23d13fb9cb" x="351.678748" y="192.368047" style="fill: #4169e1; stroke: #4169e1"/>
     <use xlink:href="#m23d13fb9cb" x="206.349129" y="149.36401" style="fill: #4169e1; stroke: #4169e1"/>
     <use xlink:href="#m23d13fb9cb" x="358.596627" y="173.596886" style="fill: #4169e1; stroke: #4169e1"/>
     <use xlink:href="#m23d13fb9cb" x="282.995507" y="295.528666" style="fill: #4169e1; stroke: #4169e1"/>
     <use xlink:href="#m23d13fb9cb" x="352.598252" y="120.234519" style="fill: #4169e1; stroke: #4169e1"/>
     <use xlink:href="#m23d13fb9cb" x="356.744388" y="91.273434" style="fill: #4169e1; stroke: #4169e1"/>
     <use xlink:href="#m23d13fb9cb" x="340.440548" y="100.472548" style="fill: #4169e1; stroke: #4169e1"/>
     <use xlink:href="#m23d13fb9cb" x="296.559067" y="262.913934" style="fill: #4169e1; stroke: #4169e1"/>
     <use xlink:href="#m23d13fb9cb" x="268.53729" y="272.258095" style="fill: #4169e1; stroke: #4169e1"/>
     <use xlink:href="#m23d13fb9cb" x="277.978422" y="258.893323" style="fill: #4169e1; stroke: #4169e1"/>
     <use xlink:href="#m23d13fb9cb" x="391.837928" y="102.492129" style="fill: #4169e1; stroke: #4169e1"/>
     <use xlink:href="#m23d13fb9cb" x="384.239948" y="188.067759" style="fill: #4169e1; stroke: #4169e1"/>
     <use xlink:href="#m23d13fb9cb" x="329.016277" y="261.839145" style="fill: #4169e1; stroke: #4169e1"/>
     <use xlink:href="#m23d13fb9cb" x="353.325854" y="277.758438" style="fill: #4169e1; stroke: #4169e1"/>
     <use xlink:href="#m23d13fb9cb" x="383.845459" y="232.35401" style="fill: #4169e1; stroke: #4169e1"/>
     <use xlink:href="#m23d13fb9cb" x="456.560447" y="166.34502" style="fill: #4169e1; stroke: #4169e1"/>
     <use xlink:href="#m23d13fb9cb" x="339.951827" y="299.273289" style="fill: #4169e1; stroke: #4169e1"/>
     <use xlink:href="#m23d13fb9cb" x="257.610655" y="191.218726" style="fill: #4169e1; stroke: #4169e1"/>
     <use xlink:href="#m23d13fb9cb" x="222.76977" y="138.586723" style="fill: #4169e1; stroke: #4169e1"/>
     <use xlink:href="#m23d13fb9cb" x="325.854827" y="315.906067" style="fill: #4169e1; stroke: #4169e1"/>
     <use xlink:href="#m23d13fb9cb" x="286.91755" y="138.214898" style="fill: #4169e1; stroke: #4169e1"/>
     <use xlink:href="#m23d13fb9cb" x="391.301002" y="188.796447" style="fill: #4169e1; stroke: #4169e1"/>
     <use xlink:href="#m23d13fb9cb" x="199.381799" y="288.371073" style="fill: #4169e1; stroke: #4169e1"/>
     <use xlink:href="#m23d13fb9cb" x="206.362258" y="213.228189" style="fill: #4169e1; stroke: #4169e1"/>
     <use xlink:href="#m23d13fb9cb" x="351.961274" y="241.212429" style="fill: #4169e1; stroke: #4169e1"/>
     <use xlink:href="#m23d13fb9cb" x="376.784892" y="236.360615" style="fill: #4169e1; stroke: #4169e1"/>
     <use xlink:href="#m23d13fb9cb" x="484.030588" y="150.478427" style="fill: #4169e1; stroke: #4169e1"/>
     <use xlink:href="#m23d13fb9cb" x="314.024741" y="239.322575" style="fill: #4169e1; stroke: #4169e1"/>
     <use xlink:href="#m23d13fb9cb" x="259.144171" y="155.710482" style="fill: #4169e1; stroke: #4169e1"/>
     <use xlink:href="#m23d13fb9cb" x="264.39623" y="179.185505" style="fill: #4169e1; stroke: #4169e1"/>
     <use xlink:href="#m23d13fb9cb" x="291.371581" y="265.130235" style="fill: #4169e1; stroke: #4169e1"/>
     <use xlink:href="#m23d13fb9cb" x="400.670795" y="272.368166" style="fill: #4169e1; stroke: #4169e1"/>
     <use xlink:href="#m23d13fb9cb" x="385.163452" y="187.438249" style="fill: #4169e1; stroke: #4169e1"/>
     <use xlink:href="#m23d13fb9cb" x="220.086608" y="82.367098" style="fill: #4169e1; stroke: #4169e1"/>
     <use xlink:href="#m23d13fb9cb" x="423.069367" y="97.661594" style="fill: #4169e1; stroke: #4169e1"/>
     <use xlink:href="#m23d13fb9cb" x="193.239504" y="235.058233" style="fill: #4169e1; stroke: #4169e1"/>
     <use xlink:href="#m23d13fb9cb" x="347.953778" y="96.058923" style="fill: #4169e1; stroke: #4169e1"/>
     <use xlink:href="#m23d13fb9cb" x="215.88313" y="145.336313" style="fill: #4169e1; stroke: #4169e1"/>
     <use xlink:href="#m23d13fb9cb" x="423.766766" y="241.224009" style="fill: #4169e1; stroke: #4169e1"/>
     <use xlink:href="#m23d13fb9cb" x="303.487763" y="95.289856" style="fill: #4169e1; stroke: #4169e1"/>
     <use xlink:href="#m23d13fb9cb" x="227.781524" y="150.831437" style="fill: #4169e1; stroke: #4169e1"/>
     <use xlink:href="#m23d13fb9cb" x="187.907905" y="246.815886" style="fill: #4169e1; stroke: #4169e1"/>
     <use xlink:href="#m23d13fb9cb" x="439.920502" y="264.661001" style="fill: #4169e1; stroke: #4169e1"/>
    </g>
   </g>
   <g id="PathCollection_2">
    <defs>
     <path id="m7cec04c5f6" d="M 0 2.5 
C 0.663008 2.5 1.29895 2.236584 1.767767 1.767767 
C 2.236584 1.29895 2.5 0.663008 2.5 0 
C 2.5 -0.663008 2.236584 -1.29895 1.767767 -1.767767 
C 1.29895 -2.236584 0.663008 -2.5 0 -2.5 
C -0.663008 -2.5 -1.29895 -2.236584 -1.767767 -1.767767 
C -2.236584 -1.29895 -2.5 -0.663008 -2.5 0 
C -2.5 0.663008 -2.236584 1.29895 -1.767767 1.767767 
C -1.29895 2.236584 -0.663008 2.5 0 2.5 
z
" style="stroke: #b22222"/>
    </defs>
    <g clip-path="url(#pd0fdc7d328)">
     <use xlink:href="#m7cec04c5f6" x="299.087707" y="181.766758" style="fill: #b22222; stroke: #b22222"/>
     <use xlink:href="#m7cec04c5f6" x="261.24295" y="227.047435" style="fill: #b22222; stroke: #b22222"/>
     <use xlink:href="#m7cec04c5f6" x="306.104963" y="185.594229" style="fill: #b22222; stroke: #b22222"/>
     <use xlink:href="#m7cec04c5f6" x="293.027941" y="164.670471" style="fill: #b22222; stroke: #b22222"/>
     <use xlink:href="#m7cec04c5f6" x="323.42015" y="205.390835" style="fill: #b22222; stroke: #b22222"/>
     <use xlink:href="#m7cec04c5f6" x="316.396683" y="224.128339" style="fill: #b22222; stroke: #b22222"/>
     <use xlink:href="#m7cec04c5f6" x="304.591034" y="174.810608" style="fill: #b22222; stroke: #b22222"/>
     <use xlink:href="#m7cec04c5f6" x="296.470595" y="185.440679" style="fill: #b22222; stroke: #b22222"/>
     <use xlink:href="#m7cec04c5f6" x="301.400669" y="175.533916" style="fill: #b22222; stroke: #b22222"/>
     <use xlink:href="#m7cec04c5f6" x="292.407696" y="161.222613" style="fill: #b22222; stroke: #b22222"/>
     <use xlink:href="#m7cec04c5f6" x="318.552891" y="204.561532" style="fill: #b22222; stroke: #b22222"/>
     <use xlink:href="#m7cec04c5f6" x="326.583901" y="200.296677" style="fill: #b22222; stroke: #b22222"/>
     <use xlink:href="#m7cec04c5f6" x="318.291994" y="202.666089" style="fill: #b22222; stroke: #b22222"/>
     <use xlink:href="#m7cec04c5f6" x="335.953644" y="217.581144" style="fill: #b22222; stroke: #b22222"/>
     <use xlink:href="#m7cec04c5f6" x="303.300588" y="185.7358" style="fill: #b22222; stroke: #b22222"/>
     <use xlink:href="#m7cec04c5f6" x="292.52343" y="177.630728" style="fill: #b22222; stroke: #b22222"/>
     <use xlink:href="#m7cec04c5f6" x="299.085957" y="172.211255" style="fill: #b22222; stroke: #b22222"/>
     <use xlink:href="#m7cec04c5f6" x="313.506372" y="199.906029" style="fill: #b22222; stroke: #b22222"/>
     <use xlink:href="#m7cec04c5f6" x="294.857485" y="176.99688" style="fill: #b22222; stroke: #b22222"/>
     <use xlink:href="#m7cec04c5f6" x="316.413686" y="162.616274" style="fill: #b22222; stroke: #b22222"/>
     <use xlink:href="#m7cec04c5f6" x="327.778379" y="203.850773" style="fill: #b22222; stroke: #b22222"/>
     <use xlink:href="#m7cec04c5f6" x="303.869231" y="161.377483" style="fill: #b22222; stroke: #b22222"/>
     <use xlink:href="#m7cec04c5f6" x="321.462161" y="215.640123" style="fill: #b22222; stroke: #b22222"/>
     <use xlink:href="#m7cec04c5f6" x="300.692878" y="157.095765" style="fill: #b22222; stroke: #b22222"/>
     <use xlink:href="#m7cec04c5f6" x="288.034059" y="157.469565" style="fill: #b22222; stroke: #b22222"/>
     <use xlink:href="#m7cec04c5f6" x="322.457844" y="211.948945" style="fill: #b22222; stroke: #b22222"/>
     <use xlink:href="#m7cec04c5f6" x="307.509019" y="191.613327" style="fill: #b22222; stroke: #b22222"/>
     <use xlink:href="#m7cec04c5f6" x="309.452132" y="183.973685" style="fill: #b22222; stroke: #b22222"/>
     <use xlink:href="#m7cec04c5f6" x="295.374462" y="226.684036" style="fill: #b22222; stroke: #b22222"/>
     <use xlink:href="#m7cec04c5f6" x="325.904382" y="208.578643" style="fill: #b22222; stroke: #b22222"/>
     <use xlink:href="#m7cec04c5f6" x="306.324813" y="256.225139" style="fill: #b22222; stroke: #b22222"/>
     <use xlink:href="#m7cec04c5f6" x="335.199722" y="226.561301" style="fill: #b22222; stroke: #b22222"/>
     <use xlink:href="#m7cec04c5f6" x="297.038333" y="169.708297" style="fill: #b22222; stroke: #b22222"/>
     <use xlink:href="#m7cec04c5f6" x="262.466035" y="239.971133" style="fill: #b22222; stroke: #b22222"/>
     <use xlink:href="#m7cec04c5f6" x="301.321129" y="187.174848" style="fill: #b22222; stroke: #b22222"/>
     <use xlink:href="#m7cec04c5f6" x="322.510357" y="206.752681" style="fill: #b22222; stroke: #b22222"/>
     <use xlink:href="#m7cec04c5f6" x="313.928418" y="183.544482" style="fill: #b22222; stroke: #b22222"/>
     <use xlink:href="#m7cec04c5f6" x="315.249023" y="212.357649" style="fill: #b22222; stroke: #b22222"/>
     <use xlink:href="#m7cec04c5f6" x="308.614844" y="183.408437" style="fill: #b22222; stroke: #b22222"/>
     <use xlink:href="#m7cec04c5f6" x="303.328339" y="164.596705" style="fill: #b22222; stroke: #b22222"/>
     <use xlink:href="#m7cec04c5f6" x="243.430496" y="135.449903" style="fill: #b22222; stroke: #b22222"/>
    </g>
   </g>
   <g id="patch_4">
    <path d="M 56.450156 450.72 
L 56.450156 7.2 
" style="fill: none; stroke: #ffffff; stroke-width: 1.25; stroke-linejoin: miter; stroke-linecap: square"/>
   </g>
   <g id="patch_5">
    <path d="M 499.970156 450.72 
L 499.970156 7.2 
" style="fill: none; stroke: #ffffff; stroke-width: 1.25; stroke-linejoin: miter; stroke-linecap: square"/>
   </g>
   <g id="patch_6">
    <path d="M 56.450156 450.72 
L 499.970156 450.72 
" style="fill: none; stroke: #ffffff; stroke-width: 1.25; stroke-linejoin: miter; stroke-linecap: square"/>
   </g>
   <g id="patch_7">
    <path d="M 56.450156 7.2 
L 499.970156 7.2 
" style="fill: none; stroke: #ffffff; stroke-width: 1.25; stroke-linejoin: miter; stroke-linecap: square"/>
   </g>
   <g id="text_13">
    <!-- t = 3000 -->
    <g style="fill: #262626" transform="translate(65.320556 24.659775) scale(0.12 -0.12)">
     <defs>
      <path id="ArialMT-74" d="M 1650 503 
L 1731 6 
Q 1494 -44 1306 -44 
Q 1000 -44 831 53 
Q 663 150 594 308 
Q 525 466 525 972 
L 525 2881 
L 113 2881 
L 113 3319 
L 525 3319 
L 525 4141 
L 1084 4478 
L 1084 3319 
L 1650 3319 
L 1650 2881 
L 1084 2881 
L 1084 941 
Q 1084 700 1114 631 
Q 1144 563 1211 522 
Q 1278 481 1403 481 
Q 1497 481 1650 503 
z
" transform="scale(0.015625)"/>
      <path id="ArialMT-20" transform="scale(0.015625)"/>
      <path id="ArialMT-3d" d="M 3381 2694 
L 356 2694 
L 356 3219 
L 3381 3219 
L 3381 2694 
z
M 3381 1303 
L 356 1303 
L 356 1828 
L 3381 1828 
L 3381 1303 
z
" transform="scale(0.015625)"/>
      <path id="ArialMT-33" d="M 269 1209 
L 831 1284 
Q 928 806 1161 595 
Q 1394 384 1728 384 
Q 2125 384 2398 659 
Q 2672 934 2672 1341 
Q 2672 1728 2419 1979 
Q 2166 2231 1775 2231 
Q 1616 2231 1378 2169 
L 1441 2663 
Q 1497 2656 1531 2656 
Q 1891 2656 2178 2843 
Q 2466 3031 2466 3422 
Q 2466 3731 2256 3934 
Q 2047 4138 1716 4138 
Q 1388 4138 1169 3931 
Q 950 3725 888 3313 
L 325 3413 
Q 428 3978 793 4289 
Q 1159 4600 1703 4600 
Q 2078 4600 2393 4439 
Q 2709 4278 2876 4000 
Q 3044 3722 3044 3409 
Q 3044 3113 2884 2869 
Q 2725 2625 2413 2481 
Q 2819 2388 3044 2092 
Q 3269 1797 3269 1353 
Q 3269 753 2831 336 
Q 2394 -81 1725 -81 
Q 1122 -81 723 278 
Q 325 638 269 1209 
z
" transform="scale(0.015625)"/>
     </defs>
     <use xlink:href="#ArialMT-74"/>
     <use xlink:href="#ArialMT-20" x="27.783203"/>
     <use xlink:href="#ArialMT-3d" x="55.566406"/>
     <use xlink:href="#ArialMT-20" x="113.964844"/>
     <use xlink:href="#ArialMT-33" x="141.748047"/>
     <use xlink:href="#ArialMT-30" x="197.363281"/>
     <use xlink:href="#ArialMT-30" x="252.978516"/>
     <use xlink:href="#ArialMT-30" x="308.59375"/>
    </g>
   </g>
   <g id="legend_1">
    <g id="patch_8">
     <path d="M 328.111406 94.59 
L 483.170156 94.59 
Q 487.970156 94.59 487.970156 89.79 
L 487.970156 24 
Q 487.970156 19.2 483.170156 19.2 
L 328.111406 19.2 
Q 323.311406 19.2 323.311406 24 
L 323.311406 89.79 
Q 323.311406 94.59 328.111406 94.59 
z
" style="fill: #eaeaf2; opacity: 0.8; stroke: #cccccc; stroke-linejoin: miter"/>
    </g>
    <g id="PathCollection_3">
     <g>
      <use xlink:href="#m23d13fb9cb" x="356.911406" y="39.97125" style="fill: #4169e1; stroke: #4169e1"/>
     </g>
    </g>
    <g id="text_14">
     <!-- Sheep -->
     <g style="fill: #262626" transform="translate(400.111406 46.27125) scale(0.24 -0.24)">
      <defs>
       <path id="ArialMT-53" d="M 288 1472 
L 859 1522 
Q 900 1178 1048 958 
Q 1197 738 1509 602 
Q 1822 466 2213 466 
Q 2559 466 2825 569 
Q 3091 672 3220 851 
Q 3350 1031 3350 1244 
Q 3350 1459 3225 1620 
Q 3100 1781 2813 1891 
Q 2628 1963 1997 2114 
Q 1366 2266 1113 2400 
Q 784 2572 623 2826 
Q 463 3081 463 3397 
Q 463 3744 659 4045 
Q 856 4347 1234 4503 
Q 1613 4659 2075 4659 
Q 2584 4659 2973 4495 
Q 3363 4331 3572 4012 
Q 3781 3694 3797 3291 
L 3216 3247 
Q 3169 3681 2898 3903 
Q 2628 4125 2100 4125 
Q 1550 4125 1298 3923 
Q 1047 3722 1047 3438 
Q 1047 3191 1225 3031 
Q 1400 2872 2139 2705 
Q 2878 2538 3153 2413 
Q 3553 2228 3743 1945 
Q 3934 1663 3934 1294 
Q 3934 928 3725 604 
Q 3516 281 3123 101 
Q 2731 -78 2241 -78 
Q 1619 -78 1198 103 
Q 778 284 539 648 
Q 300 1013 288 1472 
z
" transform="scale(0.015625)"/>
       <path id="ArialMT-68" d="M 422 0 
L 422 4581 
L 984 4581 
L 984 2938 
Q 1378 3394 1978 3394 
Q 2347 3394 2619 3248 
Q 2891 3103 3008 2847 
Q 3125 2591 3125 2103 
L 3125 0 
L 2563 0 
L 2563 2103 
Q 2563 2525 2380 2717 
Q 2197 2909 1863 2909 
Q 1613 2909 1392 2779 
Q 1172 2650 1078 2428 
Q 984 2206 984 1816 
L 984 0 
L 422 0 
z
" transform="scale(0.015625)"/>
       <path id="ArialMT-65" d="M 2694 1069 
L 3275 997 
Q 3138 488 2766 206 
Q 2394 -75 1816 -75 
Q 1088 -75 661 373 
Q 234 822 234 1631 
Q 234 2469 665 2931 
Q 1097 3394 1784 3394 
Q 2450 3394 2872 2941 
Q 3294 2488 3294 1666 
Q 3294 1616 3291 1516 
L 816 1516 
Q 847 969 1125 678 
Q 1403 388 1819 388 
Q 2128 388 2347 550 
Q 2566 713 2694 1069 
z
M 847 1978 
L 2700 1978 
Q 2663 2397 2488 2606 
Q 2219 2931 1791 2931 
Q 1403 2931 1139 2672 
Q 875 2413 847 1978 
z
" transform="scale(0.015625)"/>
       <path id="ArialMT-70" d="M 422 -1272 
L 422 3319 
L 934 3319 
L 934 2888 
Q 1116 3141 1344 3267 
Q 1572 3394 1897 3394 
Q 2322 3394 2647 3175 
Q 2972 2956 3137 2557 
Q 3303 2159 3303 1684 
Q 3303 1175 3120 767 
Q 2938 359 2589 142 
Q 2241 -75 1856 -75 
Q 1575 -75 1351 44 
Q 1128 163 984 344 
L 984 -1272 
L 422 -1272 
z
M 931 1641 
Q 931 1000 1190 694 
Q 1450 388 1819 388 
Q 2194 388 2461 705 
Q 2728 1022 2728 1688 
Q 2728 2322 2467 2637 
Q 2206 2953 1844 2953 
Q 1484 2953 1207 2617 
Q 931 2281 931 1641 
z
" transform="scale(0.015625)"/>
      </defs>
      <use xlink:href="#ArialMT-53"/>
      <use xlink:href="#ArialMT-68" x="66.699219"/>
      <use xlink:href="#ArialMT-65" x="122.314453"/>
      <use xlink:href="#ArialMT-65" x="177.929688"/>
      <use xlink:href="#ArialMT-70" x="233.544922"/>
     </g>
    </g>
    <g id="PathCollection_4">
     <g>
      <use xlink:href="#m7cec04c5f6" x="356.911406" y="73.92" style="fill: #b22222; stroke: #b22222"/>
     </g>
    </g>
    <g id="text_15">
     <!-- Wolves -->
     <g style="fill: #262626" transform="translate(400.111406 80.22) scale(0.24 -0.24)">
      <defs>
       <path id="ArialMT-57" d="M 1294 0 
L 78 4581 
L 700 4581 
L 1397 1578 
Q 1509 1106 1591 641 
Q 1766 1375 1797 1488 
L 2669 4581 
L 3400 4581 
L 4056 2263 
Q 4303 1400 4413 641 
Q 4500 1075 4641 1638 
L 5359 4581 
L 5969 4581 
L 4713 0 
L 4128 0 
L 3163 3491 
Q 3041 3928 3019 4028 
Q 2947 3713 2884 3491 
L 1913 0 
L 1294 0 
z
" transform="scale(0.015625)"/>
       <path id="ArialMT-6f" d="M 213 1659 
Q 213 2581 725 3025 
Q 1153 3394 1769 3394 
Q 2453 3394 2887 2945 
Q 3322 2497 3322 1706 
Q 3322 1066 3130 698 
Q 2938 331 2570 128 
Q 2203 -75 1769 -75 
Q 1072 -75 642 372 
Q 213 819 213 1659 
z
M 791 1659 
Q 791 1022 1069 705 
Q 1347 388 1769 388 
Q 2188 388 2466 706 
Q 2744 1025 2744 1678 
Q 2744 2294 2464 2611 
Q 2184 2928 1769 2928 
Q 1347 2928 1069 2612 
Q 791 2297 791 1659 
z
" transform="scale(0.015625)"/>
       <path id="ArialMT-6c" d="M 409 0 
L 409 4581 
L 972 4581 
L 972 0 
L 409 0 
z
" transform="scale(0.015625)"/>
       <path id="ArialMT-76" d="M 1344 0 
L 81 3319 
L 675 3319 
L 1388 1331 
Q 1503 1009 1600 663 
Q 1675 925 1809 1294 
L 2547 3319 
L 3125 3319 
L 1869 0 
L 1344 0 
z
" transform="scale(0.015625)"/>
       <path id="ArialMT-73" d="M 197 991 
L 753 1078 
Q 800 744 1014 566 
Q 1228 388 1613 388 
Q 2000 388 2187 545 
Q 2375 703 2375 916 
Q 2375 1106 2209 1216 
Q 2094 1291 1634 1406 
Q 1016 1563 777 1677 
Q 538 1791 414 1992 
Q 291 2194 291 2438 
Q 291 2659 392 2848 
Q 494 3038 669 3163 
Q 800 3259 1026 3326 
Q 1253 3394 1513 3394 
Q 1903 3394 2198 3281 
Q 2494 3169 2634 2976 
Q 2775 2784 2828 2463 
L 2278 2388 
Q 2241 2644 2061 2787 
Q 1881 2931 1553 2931 
Q 1166 2931 1000 2803 
Q 834 2675 834 2503 
Q 834 2394 903 2306 
Q 972 2216 1119 2156 
Q 1203 2125 1616 2013 
Q 2213 1853 2448 1751 
Q 2684 1650 2818 1456 
Q 2953 1263 2953 975 
Q 2953 694 2789 445 
Q 2625 197 2315 61 
Q 2006 -75 1616 -75 
Q 969 -75 630 194 
Q 291 463 197 991 
z
" transform="scale(0.015625)"/>
      </defs>
      <use xlink:href="#ArialMT-57"/>
      <use xlink:href="#ArialMT-6f" x="92.634766"/>
      <use xlink:href="#ArialMT-6c" x="148.25"/>
      <use xlink:href="#ArialMT-76" x="170.466797"/>
      <use xlink:href="#ArialMT-65" x="220.466797"/>
      <use xlink:href="#ArialMT-73" x="276.082031"/>
     </g>
    </g>
   </g>
  </g>
 </g>
 <defs>
  <clipPath id="pd0fdc7d328">
   <rect x="56.450156" y="7.2" width="443.52" height="443.52"/>
  </clipPath>
 </defs>
</svg>
