<?xml version="1.0" encoding="utf-8" standalone="no"?>
<!DOCTYPE svg PUBLIC "-//W3C//DTD SVG 1.1//EN"
  "http://www.w3.org/Graphics/SVG/1.1/DTD/svg11.dtd">
<svg xmlns:xlink="http://www.w3.org/1999/xlink" width="507.170156pt" height="492.454219pt" viewBox="0 0 507.170156 492.454219" xmlns="http://www.w3.org/2000/svg" version="1.1">
 <metadata>
  <rdf:RDF xmlns:dc="http://purl.org/dc/elements/1.1/" xmlns:cc="http://creativecommons.org/ns#" xmlns:rdf="http://www.w3.org/1999/02/22-rdf-syntax-ns#">
   <cc:Work>
    <dc:type rdf:resource="http://purl.org/dc/dcmitype/StillImage"/>
    <dc:date>2026-05-12T10:43:19.854360</dc:date>
    <dc:format>image/svg+xml</dc:format>
    <dc:creator>
     <cc:Agent>
      <dc:title>Matplotlib v3.7.1, https://matplotlib.org/</dc:title>
     </cc:Agent>
    </dc:creator>
   </cc:Work>
  </rdf:RDF>
 </metadata>
 <defs>
  <style type="text/css">*{stroke-linejoin: round; stroke-linecap: butt}</style>
 </defs>
 <g id="figure_1">
  <g id="patch_1">
   <path d="M 0 492.454219 
L 507.170156 492.454219 
L 507.170156 0 
L 0 0 
z
" style="fill: #ffffff"/>
  </g>
  <g id="axes_1">
   <g id="patch_2">
    <path d="M 56.450156 450.72 
L 499.970156 450.72 
L 499.970156 7.2 
L 56.450156 7.2 
z
" style="fill: #eaeaf2"/>
   </g>
   <g id="matplotlib.axis_1">
    <g id="xtick_1">
     <g id="line2d_1">
      <path d="M 100.802156 450.72 
L 100.802156 7.2 
" clip-path="url(#p947b0d19d1)" style="fill: none; stroke: #ffffff; stroke-linecap: round"/>
     </g>
     <g id="text_1">
      <!-- −400 -->
      <g style="fill: #262626" transform="translate(88.414266 468.093594) scale(0.11 -0.11)">
       <defs>
        <path id="ArialMT-2212" d="M 3381 1997 
L 356 1997 
L 356 2522 
L 3381 2522 
L 3381 1997 
z
" transform="scale(0.015625)"/>
        <path id="ArialMT-34" d="M 2069 0 
L 2069 1097 
L 81 1097 
L 81 1613 
L 2172 4581 
L 2631 4581 
L 2631 1613 
L 3250 1613 
L 3250 1097 
L 2631 1097 
L 2631 0 
L 2069 0 
z
M 2069 1613 
L 2069 3678 
L 634 1613 
L 2069 1613 
z
" transform="scale(0.015625)"/>
        <path id="ArialMT-30" d="M 266 2259 
Q 266 3072 433 3567 
Q 600 4063 929 4331 
Q 1259 4600 1759 4600 
Q 2128 4600 2406 4451 
Q 2684 4303 2865 4023 
Q 3047 3744 3150 3342 
Q 3253 2941 3253 2259 
Q 3253 1453 3087 958 
Q 2922 463 2592 192 
Q 2263 -78 1759 -78 
Q 1097 -78 719 397 
Q 266 969 266 2259 
z
M 844 2259 
Q 844 1131 1108 757 
Q 1372 384 1759 384 
Q 2147 384 2411 759 
Q 2675 1134 2675 2259 
Q 2675 3391 2411 3762 
Q 2147 4134 1753 4134 
Q 1366 4134 1134 3806 
Q 844 3388 844 2259 
z
" transform="scale(0.015625)"/>
       </defs>
       <use xlink:href="#ArialMT-2212"/>
       <use xlink:href="#ArialMT-34" x="58.398438"/>
       <use xlink:href="#ArialMT-30" x="114.013672"/>
       <use xlink:href="#ArialMT-30" x="169.628906"/>
      </g>
     </g>
    </g>
    <g id="xtick_2">
     <g id="line2d_2">
      <path d="M 189.506156 450.72 
L 189.506156 7.2 
" clip-path="url(#p947b0d19d1)" style="fill: none; stroke: #ffffff; stroke-linecap: round"/>
     </g>
     <g id="text_2">
      <!-- −200 -->
      <g style="fill: #262626" transform="translate(177.118266 468.093594) scale(0.11 -0.11)">
       <defs>
        <path id="ArialMT-32" d="M 3222 541 
L 3222 0 
L 194 0 
Q 188 203 259 391 
Q 375 700 629 1000 
Q 884 1300 1366 1694 
Q 2113 2306 2375 2664 
Q 2638 3022 2638 3341 
Q 2638 3675 2398 3904 
Q 2159 4134 1775 4134 
Q 1369 4134 1125 3890 
Q 881 3647 878 3216 
L 300 3275 
Q 359 3922 746 4261 
Q 1134 4600 1788 4600 
Q 2447 4600 2831 4234 
Q 3216 3869 3216 3328 
Q 3216 3053 3103 2787 
Q 2991 2522 2730 2228 
Q 2469 1934 1863 1422 
Q 1356 997 1212 845 
Q 1069 694 975 541 
L 3222 541 
z
" transform="scale(0.015625)"/>
       </defs>
       <use xlink:href="#ArialMT-2212"/>
       <use xlink:href="#ArialMT-32" x="58.398438"/>
       <use xlink:href="#ArialMT-30" x="114.013672"/>
       <use xlink:href="#ArialMT-30" x="169.628906"/>
      </g>
     </g>
    </g>
    <g id="xtick_3">
     <g id="line2d_3">
      <path d="M 278.210156 450.72 
L 278.210156 7.2 
" clip-path="url(#p947b0d19d1)" style="fill: none; stroke: #ffffff; stroke-linecap: round"/>
     </g>
     <g id="text_3">
      <!-- 0 -->
      <g style="fill: #262626" transform="translate(275.151641 468.093594) scale(0.11 -0.11)">
       <use xlink:href="#ArialMT-30"/>
      </g>
     </g>
    </g>
    <g id="xtick_4">
     <g id="line2d_4">
      <path d="M 366.914156 450.72 
L 366.914156 7.2 
" clip-path="url(#p947b0d19d1)" style="fill: none; stroke: #ffffff; stroke-linecap: round"/>
     </g>
     <g id="text_4">
      <!-- 200 -->
      <g style="fill: #262626" transform="translate(357.738609 468.093594) scale(0.11 -0.11)">
       <use xlink:href="#ArialMT-32"/>
       <use xlink:href="#ArialMT-30" x="55.615234"/>
       <use xlink:href="#ArialMT-30" x="111.230469"/>
      </g>
     </g>
    </g>
    <g id="xtick_5">
     <g id="line2d_5">
      <path d="M 455.618156 450.72 
L 455.618156 7.2 
" clip-path="url(#p947b0d19d1)" style="fill: none; stroke: #ffffff; stroke-linecap: round"/>
     </g>
     <g id="text_5">
      <!-- 400 -->
      <g style="fill: #262626" transform="translate(446.442609 468.093594) scale(0.11 -0.11)">
       <use xlink:href="#ArialMT-34"/>
       <use xlink:href="#ArialMT-30" x="55.615234"/>
       <use xlink:href="#ArialMT-30" x="111.230469"/>
      </g>
     </g>
    </g>
    <g id="text_6">
     <!-- x -->
     <g style="fill: #262626" transform="translate(275.210156 482.869219) scale(0.12 -0.12)">
      <defs>
       <path id="ArialMT-78" d="M 47 0 
L 1259 1725 
L 138 3319 
L 841 3319 
L 1350 2541 
Q 1494 2319 1581 2169 
Q 1719 2375 1834 2534 
L 2394 3319 
L 3066 3319 
L 1919 1756 
L 3153 0 
L 2463 0 
L 1781 1031 
L 1600 1309 
L 728 0 
L 47 0 
z
" transform="scale(0.015625)"/>
      </defs>
      <use xlink:href="#ArialMT-78"/>
     </g>
    </g>
   </g>
   <g id="matplotlib.axis_2">
    <g id="ytick_1">
     <g id="line2d_6">
      <path d="M 56.450156 406.368 
L 499.970156 406.368 
" clip-path="url(#p947b0d19d1)" style="fill: none; stroke: #ffffff; stroke-linecap: round"/>
     </g>
     <g id="text_7">
      <!-- −400 -->
      <g style="fill: #262626" transform="translate(22.174375 410.304797) scale(0.11 -0.11)">
       <use xlink:href="#ArialMT-2212"/>
       <use xlink:href="#ArialMT-34" x="58.398438"/>
       <use xlink:href="#ArialMT-30" x="114.013672"/>
       <use xlink:href="#ArialMT-30" x="169.628906"/>
      </g>
     </g>
    </g>
    <g id="ytick_2">
     <g id="line2d_7">
      <path d="M 56.450156 317.664 
L 499.970156 317.664 
" clip-path="url(#p947b0d19d1)" style="fill: none; stroke: #ffffff; stroke-linecap: round"/>
     </g>
     <g id="text_8">
      <!-- −200 -->
      <g style="fill: #262626" transform="translate(22.174375 321.600797) scale(0.11 -0.11)">
       <use xlink:href="#ArialMT-2212"/>
       <use xlink:href="#ArialMT-32" x="58.398438"/>
       <use xlink:href="#ArialMT-30" x="114.013672"/>
       <use xlink:href="#ArialMT-30" x="169.628906"/>
      </g>
     </g>
    </g>
    <g id="ytick_3">
     <g id="line2d_8">
      <path d="M 56.450156 228.96 
L 499.970156 228.96 
" clip-path="url(#p947b0d19d1)" style="fill: none; stroke: #ffffff; stroke-linecap: round"/>
     </g>
     <g id="text_9">
      <!-- 0 -->
      <g style="fill: #262626" transform="translate(40.833125 232.896797) scale(0.11 -0.11)">
       <use xlink:href="#ArialMT-30"/>
      </g>
     </g>
    </g>
    <g id="ytick_4">
     <g id="line2d_9">
      <path d="M 56.450156 140.256 
L 499.970156 140.256 
" clip-path="url(#p947b0d19d1)" style="fill: none; stroke: #ffffff; stroke-linecap: round"/>
     </g>
     <g id="text_10">
      <!-- 200 -->
      <g style="fill: #262626" transform="translate(28.599063 144.192797) scale(0.11 -0.11)">
       <use xlink:href="#ArialMT-32"/>
       <use xlink:href="#ArialMT-30" x="55.615234"/>
       <use xlink:href="#ArialMT-30" x="111.230469"/>
      </g>
     </g>
    </g>
    <g id="ytick_5">
     <g id="line2d_10">
      <path d="M 56.450156 51.552 
L 499.970156 51.552 
" clip-path="url(#p947b0d19d1)" style="fill: none; stroke: #ffffff; stroke-linecap: round"/>
     </g>
     <g id="text_11">
      <!-- 400 -->
      <g style="fill: #262626" transform="translate(28.599063 55.488797) scale(0.11 -0.11)">
       <use xlink:href="#ArialMT-34"/>
       <use xlink:href="#ArialMT-30" x="55.615234"/>
       <use xlink:href="#ArialMT-30" x="111.230469"/>
      </g>
     </g>
    </g>
    <g id="text_12">
     <!-- y -->
     <g style="fill: #262626" transform="translate(15.64875 231.96) rotate(-90) scale(0.12 -0.12)">
      <defs>
       <path id="ArialMT-79" d="M 397 -1278 
L 334 -750 
Q 519 -800 656 -800 
Q 844 -800 956 -737 
Q 1069 -675 1141 -563 
Q 1194 -478 1313 -144 
Q 1328 -97 1363 -6 
L 103 3319 
L 709 3319 
L 1400 1397 
Q 1534 1031 1641 628 
Q 1738 1016 1872 1384 
L 2581 3319 
L 3144 3319 
L 1881 -56 
Q 1678 -603 1566 -809 
Q 1416 -1088 1222 -1217 
Q 1028 -1347 759 -1347 
Q 597 -1347 397 -1278 
z
" transform="scale(0.015625)"/>
      </defs>
      <use xlink:href="#ArialMT-79"/>
     </g>
    </g>
   </g>
   <g id="patch_3">
    <path d="M 278.210156 317.664 
C 301.734732 317.664 324.298969 308.317587 340.933356 291.6832 
C 357.567743 275.048813 366.914156 252.484576 366.914156 228.96 
C 366.914156 205.435424 357.567743 182.871187 340.933356 166.2368 
C 324.298969 149.602413 301.734732 140.256 278.210156 140.256 
C 254.68558 140.256 232.121343 149.602413 215.486956 166.2368 
C 198.852569 182.871187 189.506156 205.435424 189.506156 228.96 
C 189.506156 252.484576 198.852569 275.048813 215.486956 291.6832 
C 232.121343 308.317587 254.68558 317.664 278.210156 317.664 
z
" clip-path="url(#p947b0d19d1)" style="fill: #228b22; opacity: 0.12; stroke: #228b22; stroke-width: 1.5; stroke-linejoin: miter"/>
   </g>
   <g id="PathCollection_1">
    <defs>
     <path id="m8b17bc562b" d="M 0 2.236068 
C 0.593012 2.236068 1.161816 2.000462 1.581139 1.581139 
C 2.000462 1.161816 2.236068 0.593012 2.236068 0 
C 2.236068 -0.593012 2.000462 -1.161816 1.581139 -1.581139 
C 1.161816 -2.000462 0.593012 -2.236068 0 -2.236068 
C -0.593012 -2.236068 -1.161816 -2.000462 -1.581139 -1.581139 
C -2.000462 -1.161816 -2.236068 -0.593012 -2.236068 0 
C -2.236068 0.593012 -2.000462 1.161816 -1.581139 1.581139 
C -1.161816 2.000462 -0.593012 2.236068 0 2.236068 
z
" style="stroke: #4169e1"/>
    </defs>
    <g clip-path="url(#p947b0d19d1)">
     <use xlink:href="#m8b17bc562b" x="499.970156" y="164.089603" style="fill: #4169e1; stroke: #4169e1"/>
     <use xlink:href="#m8b17bc562b" x="477.123733" y="137.781713" style="fill: #4169e1; stroke: #4169e1"/>
     <use xlink:href="#m8b17bc562b" x="307.348275" y="99.391766" style="fill: #4169e1; stroke: #4169e1"/>
     <use xlink:href="#m8b17bc562b" x="499.970156" y="322.541583" style="fill: #4169e1; stroke: #4169e1"/>
     <use xlink:href="#m8b17bc562b" x="237.760707" y="186.229339" style="fill: #4169e1; stroke: #4169e1"/>
     <use xlink:href="#m8b17bc562b" x="214.165512" y="191.710712" style="fill: #4169e1; stroke: #4169e1"/>
     <use xlink:href="#m8b17bc562b" x="351.32188" y="235.804472" style="fill: #4169e1; stroke: #4169e1"/>
     <use xlink:href="#m8b17bc562b" x="236.665405" y="216.343519" style="fill: #4169e1; stroke: #4169e1"/>
     <use xlink:href="#m8b17bc562b" x="274.682506" y="276.491939" style="fill: #4169e1; stroke: #4169e1"/>
     <use xlink:href="#m8b17bc562b" x="396.416033" y="90.238522" style="fill: #4169e1; stroke: #4169e1"/>
     <use xlink:href="#m8b17bc562b" x="298.062173" y="336.231365" style="fill: #4169e1; stroke: #4169e1"/>
     <use xlink:href="#m8b17bc562b" x="444.475028" y="188.447826" style="fill: #4169e1; stroke: #4169e1"/>
     <use xlink:href="#m8b17bc562b" x="207.208753" y="127.095632" style="fill: #4169e1; stroke: #4169e1"/>
     <use xlink:href="#m8b17bc562b" x="329.222137" y="248.021532" style="fill: #4169e1; stroke: #4169e1"/>
     <use xlink:href="#m8b17bc562b" x="338.406897" y="209.229813" style="fill: #4169e1; stroke: #4169e1"/>
     <use xlink:href="#m8b17bc562b" x="276.425748" y="320.37499" style="fill: #4169e1; stroke: #4169e1"/>
     <use xlink:href="#m8b17bc562b" x="349.639033" y="125.678819" style="fill: #4169e1; stroke: #4169e1"/>
     <use xlink:href="#m8b17bc562b" x="326.565744" y="255.305529" style="fill: #4169e1; stroke: #4169e1"/>
     <use xlink:href="#m8b17bc562b" x="319.486546" y="193.892745" style="fill: #4169e1; stroke: #4169e1"/>
     <use xlink:href="#m8b17bc562b" x="400.346182" y="225.019905" style="fill: #4169e1; stroke: #4169e1"/>
     <use xlink:href="#m8b17bc562b" x="276.476162" y="192.015727" style="fill: #4169e1; stroke: #4169e1"/>
     <use xlink:href="#m8b17bc562b" x="373.405116" y="211.756363" style="fill: #4169e1; stroke: #4169e1"/>
     <use xlink:href="#m8b17bc562b" x="291.754832" y="183.731954" style="fill: #4169e1; stroke: #4169e1"/>
     <use xlink:href="#m8b17bc562b" x="348.81931" y="309.200379" style="fill: #4169e1; stroke: #4169e1"/>
     <use xlink:href="#m8b17bc562b" x="445.629752" y="167.005827" style="fill: #4169e1; stroke: #4169e1"/>
     <use xlink:href="#m8b17bc562b" x="451.052085" y="254.774695" style="fill: #4169e1; stroke: #4169e1"/>
     <use xlink:href="#m8b17bc562b" x="216.020093" y="287.923655" style="fill: #4169e1; stroke: #4169e1"/>
     <use xlink:href="#m8b17bc562b" x="478.86166" y="209.909782" style="fill: #4169e1; stroke: #4169e1"/>
     <use xlink:href="#m8b17bc562b" x="212.120932" y="292.181436" style="fill: #4169e1; stroke: #4169e1"/>
     <use xlink:href="#m8b17bc562b" x="393.499328" y="186.807652" style="fill: #4169e1; stroke: #4169e1"/>
     <use xlink:href="#m8b17bc562b" x="329.578947" y="139.071335" style="fill: #4169e1; stroke: #4169e1"/>
     <use xlink:href="#m8b17bc562b" x="205.733699" y="197.271611" style="fill: #4169e1; stroke: #4169e1"/>
     <use xlink:href="#m8b17bc562b" x="373.517147" y="326.878146" style="fill: #4169e1; stroke: #4169e1"/>
     <use xlink:href="#m8b17bc562b" x="333.91953" y="176.223942" style="fill: #4169e1; stroke: #4169e1"/>
     <use xlink:href="#m8b17bc562b" x="384.895875" y="239.497809" style="fill: #4169e1; stroke: #4169e1"/>
     <use xlink:href="#m8b17bc562b" x="333.392335" y="151.472009" style="fill: #4169e1; stroke: #4169e1"/>
     <use xlink:href="#m8b17bc562b" x="387.947985" y="168.068641" style="fill: #4169e1; stroke: #4169e1"/>
     <use xlink:href="#m8b17bc562b" x="220.642937" y="175.279628" style="fill: #4169e1; stroke: #4169e1"/>
     <use xlink:href="#m8b17bc562b" x="381.889088" y="164.327876" style="fill: #4169e1; stroke: #4169e1"/>
     <use xlink:href="#m8b17bc562b" x="499.970156" y="258.842901" style="fill: #4169e1; stroke: #4169e1"/>
     <use xlink:href="#m8b17bc562b" x="381.968864" y="206.60944" style="fill: #4169e1; stroke: #4169e1"/>
     <use xlink:href="#m8b17bc562b" x="374.646981" y="174.115364" style="fill: #4169e1; stroke: #4169e1"/>
     <use xlink:href="#m8b17bc562b" x="332.995671" y="199.279399" style="fill: #4169e1; stroke: #4169e1"/>
     <use xlink:href="#m8b17bc562b" x="307.69534" y="172.580132" style="fill: #4169e1; stroke: #4169e1"/>
     <use xlink:href="#m8b17bc562b" x="390.900531" y="207.222542" style="fill: #4169e1; stroke: #4169e1"/>
     <use xlink:href="#m8b17bc562b" x="295.498975" y="305.597692" style="fill: #4169e1; stroke: #4169e1"/>
     <use xlink:href="#m8b17bc562b" x="175.473745" y="268.228947" style="fill: #4169e1; stroke: #4169e1"/>
     <use xlink:href="#m8b17bc562b" x="445.10961" y="202.296265" style="fill: #4169e1; stroke: #4169e1"/>
     <use xlink:href="#m8b17bc562b" x="370.714991" y="129.505553" style="fill: #4169e1; stroke: #4169e1"/>
     <use xlink:href="#m8b17bc562b" x="368.108011" y="233.651079" style="fill: #4169e1; stroke: #4169e1"/>
     <use xlink:href="#m8b17bc562b" x="387.801373" y="275.526142" style="fill: #4169e1; stroke: #4169e1"/>
     <use xlink:href="#m8b17bc562b" x="281.174243" y="103.224719" style="fill: #4169e1; stroke: #4169e1"/>
     <use xlink:href="#m8b17bc562b" x="442.852704" y="139.313303" style="fill: #4169e1; stroke: #4169e1"/>
     <use xlink:href="#m8b17bc562b" x="325.369036" y="296.723212" style="fill: #4169e1; stroke: #4169e1"/>
     <use xlink:href="#m8b17bc562b" x="313.034025" y="196.012144" style="fill: #4169e1; stroke: #4169e1"/>
     <use xlink:href="#m8b17bc562b" x="300.993685" y="274.949872" style="fill: #4169e1; stroke: #4169e1"/>
     <use xlink:href="#m8b17bc562b" x="434.596434" y="163.870875" style="fill: #4169e1; stroke: #4169e1"/>
     <use xlink:href="#m8b17bc562b" x="317.23592" y="167.819019" style="fill: #4169e1; stroke: #4169e1"/>
     <use xlink:href="#m8b17bc562b" x="171.101328" y="239.82705" style="fill: #4169e1; stroke: #4169e1"/>
     <use xlink:href="#m8b17bc562b" x="312.529841" y="192.707827" style="fill: #4169e1; stroke: #4169e1"/>
     <use xlink:href="#m8b17bc562b" x="398.733211" y="196.465761" style="fill: #4169e1; stroke: #4169e1"/>
     <use xlink:href="#m8b17bc562b" x="423.957274" y="227.508649" style="fill: #4169e1; stroke: #4169e1"/>
     <use xlink:href="#m8b17bc562b" x="486.796768" y="82.51589" style="fill: #4169e1; stroke: #4169e1"/>
     <use xlink:href="#m8b17bc562b" x="376.021679" y="151.74104" style="fill: #4169e1; stroke: #4169e1"/>
     <use xlink:href="#m8b17bc562b" x="263.015158" y="118.601753" style="fill: #4169e1; stroke: #4169e1"/>
     <use xlink:href="#m8b17bc562b" x="458.704199" y="276.571854" style="fill: #4169e1; stroke: #4169e1"/>
     <use xlink:href="#m8b17bc562b" x="286.12493" y="303.736899" style="fill: #4169e1; stroke: #4169e1"/>
     <use xlink:href="#m8b17bc562b" x="320.63052" y="171.261537" style="fill: #4169e1; stroke: #4169e1"/>
     <use xlink:href="#m8b17bc562b" x="427.597067" y="165.113592" style="fill: #4169e1; stroke: #4169e1"/>
     <use xlink:href="#m8b17bc562b" x="281.058504" y="309.209068" style="fill: #4169e1; stroke: #4169e1"/>
     <use xlink:href="#m8b17bc562b" x="493.653583" y="211.992538" style="fill: #4169e1; stroke: #4169e1"/>
     <use xlink:href="#m8b17bc562b" x="499.970156" y="251.489694" style="fill: #4169e1; stroke: #4169e1"/>
     <use xlink:href="#m8b17bc562b" x="390.624901" y="186.666718" style="fill: #4169e1; stroke: #4169e1"/>
     <use xlink:href="#m8b17bc562b" x="451.598756" y="88.851047" style="fill: #4169e1; stroke: #4169e1"/>
     <use xlink:href="#m8b17bc562b" x="336.807015" y="211.11215" style="fill: #4169e1; stroke: #4169e1"/>
     <use xlink:href="#m8b17bc562b" x="342.610051" y="256.068441" style="fill: #4169e1; stroke: #4169e1"/>
     <use xlink:href="#m8b17bc562b" x="286.329894" y="165.532891" style="fill: #4169e1; stroke: #4169e1"/>
     <use xlink:href="#m8b17bc562b" x="289.999123" y="141.871495" style="fill: #4169e1; stroke: #4169e1"/>
     <use xlink:href="#m8b17bc562b" x="275.222894" y="291.320092" style="fill: #4169e1; stroke: #4169e1"/>
     <use xlink:href="#m8b17bc562b" x="177.766506" y="219.457307" style="fill: #4169e1; stroke: #4169e1"/>
     <use xlink:href="#m8b17bc562b" x="499.970156" y="293.088278" style="fill: #4169e1; stroke: #4169e1"/>
     <use xlink:href="#m8b17bc562b" x="376.752929" y="176.037512" style="fill: #4169e1; stroke: #4169e1"/>
     <use xlink:href="#m8b17bc562b" x="306.788992" y="134.424385" style="fill: #4169e1; stroke: #4169e1"/>
     <use xlink:href="#m8b17bc562b" x="359.478307" y="253.049113" style="fill: #4169e1; stroke: #4169e1"/>
     <use xlink:href="#m8b17bc562b" x="391.403917" y="165.838217" style="fill: #4169e1; stroke: #4169e1"/>
     <use xlink:href="#m8b17bc562b" x="360.445969" y="164.404065" style="fill: #4169e1; stroke: #4169e1"/>
     <use xlink:href="#m8b17bc562b" x="308.396499" y="161.19356" style="fill: #4169e1; stroke: #4169e1"/>
     <use xlink:href="#m8b17bc562b" x="322.829692" y="292.258525" style="fill: #4169e1; stroke: #4169e1"/>
     <use xlink:href="#m8b17bc562b" x="390.841964" y="103.813878" style="fill: #4169e1; stroke: #4169e1"/>
     <use xlink:href="#m8b17bc562b" x="226.451363" y="235.082801" style="fill: #4169e1; stroke: #4169e1"/>
     <use xlink:href="#m8b17bc562b" x="198.48567" y="193.194081" style="fill: #4169e1; stroke: #4169e1"/>
     <use xlink:href="#m8b17bc562b" x="317.379433" y="237.052601" style="fill: #4169e1; stroke: #4169e1"/>
     <use xlink:href="#m8b17bc562b" x="435.493057" y="197.396506" style="fill: #4169e1; stroke: #4169e1"/>
     <use xlink:href="#m8b17bc562b" x="339.235689" y="163.637319" style="fill: #4169e1; stroke: #4169e1"/>
     <use xlink:href="#m8b17bc562b" x="328.3988" y="198.700023" style="fill: #4169e1; stroke: #4169e1"/>
     <use xlink:href="#m8b17bc562b" x="499.970156" y="263.907137" style="fill: #4169e1; stroke: #4169e1"/>
     <use xlink:href="#m8b17bc562b" x="359.914166" y="328.920607" style="fill: #4169e1; stroke: #4169e1"/>
     <use xlink:href="#m8b17bc562b" x="287.253552" y="265.983498" style="fill: #4169e1; stroke: #4169e1"/>
     <use xlink:href="#m8b17bc562b" x="378.101301" y="189.486872" style="fill: #4169e1; stroke: #4169e1"/>
     <use xlink:href="#m8b17bc562b" x="290.623729" y="204.280625" style="fill: #4169e1; stroke: #4169e1"/>
     <use xlink:href="#m8b17bc562b" x="242.263718" y="221.35061" style="fill: #4169e1; stroke: #4169e1"/>
     <use xlink:href="#m8b17bc562b" x="499.970156" y="281.126563" style="fill: #4169e1; stroke: #4169e1"/>
     <use xlink:href="#m8b17bc562b" x="382.291819" y="226.063617" style="fill: #4169e1; stroke: #4169e1"/>
     <use xlink:href="#m8b17bc562b" x="318.790896" y="350.028562" style="fill: #4169e1; stroke: #4169e1"/>
     <use xlink:href="#m8b17bc562b" x="396.384726" y="123.765124" style="fill: #4169e1; stroke: #4169e1"/>
     <use xlink:href="#m8b17bc562b" x="241.085469" y="173.558277" style="fill: #4169e1; stroke: #4169e1"/>
     <use xlink:href="#m8b17bc562b" x="295.662488" y="284.944374" style="fill: #4169e1; stroke: #4169e1"/>
     <use xlink:href="#m8b17bc562b" x="389.795852" y="114.796249" style="fill: #4169e1; stroke: #4169e1"/>
     <use xlink:href="#m8b17bc562b" x="255.52549" y="151.158365" style="fill: #4169e1; stroke: #4169e1"/>
     <use xlink:href="#m8b17bc562b" x="277.238192" y="171.571445" style="fill: #4169e1; stroke: #4169e1"/>
     <use xlink:href="#m8b17bc562b" x="254.485885" y="141.282364" style="fill: #4169e1; stroke: #4169e1"/>
     <use xlink:href="#m8b17bc562b" x="499.970156" y="297.399401" style="fill: #4169e1; stroke: #4169e1"/>
     <use xlink:href="#m8b17bc562b" x="375.655336" y="152.455581" style="fill: #4169e1; stroke: #4169e1"/>
     <use xlink:href="#m8b17bc562b" x="202.892094" y="191.875242" style="fill: #4169e1; stroke: #4169e1"/>
     <use xlink:href="#m8b17bc562b" x="219.476965" y="183.213947" style="fill: #4169e1; stroke: #4169e1"/>
     <use xlink:href="#m8b17bc562b" x="432.429591" y="107.021994" style="fill: #4169e1; stroke: #4169e1"/>
     <use xlink:href="#m8b17bc562b" x="278.965025" y="290.011946" style="fill: #4169e1; stroke: #4169e1"/>
     <use xlink:href="#m8b17bc562b" x="470.109625" y="179.25579" style="fill: #4169e1; stroke: #4169e1"/>
     <use xlink:href="#m8b17bc562b" x="389.325465" y="248.559686" style="fill: #4169e1; stroke: #4169e1"/>
     <use xlink:href="#m8b17bc562b" x="276.728575" y="196.840039" style="fill: #4169e1; stroke: #4169e1"/>
     <use xlink:href="#m8b17bc562b" x="351.877214" y="288.366268" style="fill: #4169e1; stroke: #4169e1"/>
     <use xlink:href="#m8b17bc562b" x="474.36987" y="239.861599" style="fill: #4169e1; stroke: #4169e1"/>
     <use xlink:href="#m8b17bc562b" x="282.968654" y="210.135262" style="fill: #4169e1; stroke: #4169e1"/>
     <use xlink:href="#m8b17bc562b" x="422.482009" y="167.22647" style="fill: #4169e1; stroke: #4169e1"/>
     <use xlink:href="#m8b17bc562b" x="352.362564" y="100.321956" style="fill: #4169e1; stroke: #4169e1"/>
     <use xlink:href="#m8b17bc562b" x="387.586942" y="155.706239" style="fill: #4169e1; stroke: #4169e1"/>
     <use xlink:href="#m8b17bc562b" x="396.658542" y="164.068664" style="fill: #4169e1; stroke: #4169e1"/>
     <use xlink:href="#m8b17bc562b" x="247.679128" y="158.302735" style="fill: #4169e1; stroke: #4169e1"/>
     <use xlink:href="#m8b17bc562b" x="468.510203" y="250.908447" style="fill: #4169e1; stroke: #4169e1"/>
     <use xlink:href="#m8b17bc562b" x="393.857644" y="128.531963" style="fill: #4169e1; stroke: #4169e1"/>
     <use xlink:href="#m8b17bc562b" x="358.965758" y="136.186533" style="fill: #4169e1; stroke: #4169e1"/>
     <use xlink:href="#m8b17bc562b" x="357.383085" y="278.007941" style="fill: #4169e1; stroke: #4169e1"/>
     <use xlink:href="#m8b17bc562b" x="455.441847" y="168.12509" style="fill: #4169e1; stroke: #4169e1"/>
     <use xlink:href="#m8b17bc562b" x="374.664055" y="213.761419" style="fill: #4169e1; stroke: #4169e1"/>
     <use xlink:href="#m8b17bc562b" x="361.741304" y="156.731723" style="fill: #4169e1; stroke: #4169e1"/>
     <use xlink:href="#m8b17bc562b" x="362.356111" y="134.154406" style="fill: #4169e1; stroke: #4169e1"/>
     <use xlink:href="#m8b17bc562b" x="411.263842" y="255.483411" style="fill: #4169e1; stroke: #4169e1"/>
     <use xlink:href="#m8b17bc562b" x="282.95039" y="183.72389" style="fill: #4169e1; stroke: #4169e1"/>
     <use xlink:href="#m8b17bc562b" x="270.935238" y="102.818543" style="fill: #4169e1; stroke: #4169e1"/>
     <use xlink:href="#m8b17bc562b" x="297.789294" y="148.518056" style="fill: #4169e1; stroke: #4169e1"/>
     <use xlink:href="#m8b17bc562b" x="425.927194" y="77.887516" style="fill: #4169e1; stroke: #4169e1"/>
     <use xlink:href="#m8b17bc562b" x="304.693292" y="141.584888" style="fill: #4169e1; stroke: #4169e1"/>
     <use xlink:href="#m8b17bc562b" x="216.335448" y="131.665683" style="fill: #4169e1; stroke: #4169e1"/>
     <use xlink:href="#m8b17bc562b" x="315.754426" y="152.891062" style="fill: #4169e1; stroke: #4169e1"/>
     <use xlink:href="#m8b17bc562b" x="454.899142" y="247.337565" style="fill: #4169e1; stroke: #4169e1"/>
     <use xlink:href="#m8b17bc562b" x="411.43544" y="265.627984" style="fill: #4169e1; stroke: #4169e1"/>
     <use xlink:href="#m8b17bc562b" x="290.468069" y="153.730979" style="fill: #4169e1; stroke: #4169e1"/>
     <use xlink:href="#m8b17bc562b" x="373.477685" y="102.803519" style="fill: #4169e1; stroke: #4169e1"/>
     <use xlink:href="#m8b17bc562b" x="416.671908" y="168.602597" style="fill: #4169e1; stroke: #4169e1"/>
     <use xlink:href="#m8b17bc562b" x="472.801024" y="237.862519" style="fill: #4169e1; stroke: #4169e1"/>
     <use xlink:href="#m8b17bc562b" x="269.0373" y="339.754471" style="fill: #4169e1; stroke: #4169e1"/>
    </g>
   </g>
   <g id="PathCollection_2">
    <defs>
     <path id="mf284691f63" d="M 0 2.5 
C 0.663008 2.5 1.29895 2.236584 1.767767 1.767767 
C 2.236584 1.29895 2.5 0.663008 2.5 0 
C 2.5 -0.663008 2.236584 -1.29895 1.767767 -1.767767 
C 1.29895 -2.236584 0.663008 -2.5 0 -2.5 
C -0.663008 -2.5 -1.29895 -2.236584 -1.767767 -1.767767 
C -2.236584 -1.29895 -2.5 -0.663008 -2.5 0 
C -2.5 0.663008 -2.236584 1.29895 -1.767767 1.767767 
C -1.29895 2.236584 -0.663008 2.5 0 2.5 
z
" style="stroke: #b22222"/>
    </defs>
    <g clip-path="url(#p947b0d19d1)">
     <use xlink:href="#mf284691f63" x="236.769809" y="241.885416" style="fill: #b22222; stroke: #b22222"/>
     <use xlink:href="#mf284691f63" x="234.388315" y="237.085236" style="fill: #b22222; stroke: #b22222"/>
     <use xlink:href="#mf284691f63" x="231.68082" y="233.190749" style="fill: #b22222; stroke: #b22222"/>
     <use xlink:href="#mf284691f63" x="237.858972" y="243.962249" style="fill: #b22222; stroke: #b22222"/>
     <use xlink:href="#mf284691f63" x="236.314645" y="231.932822" style="fill: #b22222; stroke: #b22222"/>
     <use xlink:href="#mf284691f63" x="237.481589" y="237.167122" style="fill: #b22222; stroke: #b22222"/>
     <use xlink:href="#mf284691f63" x="253.626553" y="247.120405" style="fill: #b22222; stroke: #b22222"/>
     <use xlink:href="#mf284691f63" x="271.590759" y="242.545319" style="fill: #b22222; stroke: #b22222"/>
     <use xlink:href="#mf284691f63" x="235.550934" y="226.933365" style="fill: #b22222; stroke: #b22222"/>
     <use xlink:href="#mf284691f63" x="233.848797" y="230.174286" style="fill: #b22222; stroke: #b22222"/>
     <use xlink:href="#mf284691f63" x="247.509397" y="256.370333" style="fill: #b22222; stroke: #b22222"/>
     <use xlink:href="#mf284691f63" x="276.957863" y="269.99411" style="fill: #b22222; stroke: #b22222"/>
     <use xlink:href="#mf284691f63" x="248.528432" y="243.898023" style="fill: #b22222; stroke: #b22222"/>
     <use xlink:href="#mf284691f63" x="228.811451" y="240.342414" style="fill: #b22222; stroke: #b22222"/>
     <use xlink:href="#mf284691f63" x="268.693981" y="240.600571" style="fill: #b22222; stroke: #b22222"/>
     <use xlink:href="#mf284691f63" x="232.849368" y="236.567516" style="fill: #b22222; stroke: #b22222"/>
     <use xlink:href="#mf284691f63" x="283.914132" y="228.902081" style="fill: #b22222; stroke: #b22222"/>
     <use xlink:href="#mf284691f63" x="305.760737" y="258.823806" style="fill: #b22222; stroke: #b22222"/>
     <use xlink:href="#mf284691f63" x="246.85686" y="239.030237" style="fill: #b22222; stroke: #b22222"/>
     <use xlink:href="#mf284691f63" x="230.740424" y="222.11041" style="fill: #b22222; stroke: #b22222"/>
     <use xlink:href="#mf284691f63" x="251.698155" y="246.878528" style="fill: #b22222; stroke: #b22222"/>
     <use xlink:href="#mf284691f63" x="231.192587" y="232.447186" style="fill: #b22222; stroke: #b22222"/>
     <use xlink:href="#mf284691f63" x="237.10637" y="236.679793" style="fill: #b22222; stroke: #b22222"/>
     <use xlink:href="#mf284691f63" x="268.329348" y="245.147668" style="fill: #b22222; stroke: #b22222"/>
     <use xlink:href="#mf284691f63" x="289.000131" y="255.319477" style="fill: #b22222; stroke: #b22222"/>
     <use xlink:href="#mf284691f63" x="230.279586" y="223.671401" style="fill: #b22222; stroke: #b22222"/>
     <use xlink:href="#mf284691f63" x="258.673569" y="264.733029" style="fill: #b22222; stroke: #b22222"/>
     <use xlink:href="#mf284691f63" x="286.809721" y="269.278148" style="fill: #b22222; stroke: #b22222"/>
     <use xlink:href="#mf284691f63" x="259.290305" y="280.365606" style="fill: #b22222; stroke: #b22222"/>
     <use xlink:href="#mf284691f63" x="234.32807" y="237.445402" style="fill: #b22222; stroke: #b22222"/>
     <use xlink:href="#mf284691f63" x="262.847133" y="249.536622" style="fill: #b22222; stroke: #b22222"/>
     <use xlink:href="#mf284691f63" x="239.133131" y="240.081246" style="fill: #b22222; stroke: #b22222"/>
     <use xlink:href="#mf284691f63" x="250.584838" y="246.659619" style="fill: #b22222; stroke: #b22222"/>
     <use xlink:href="#mf284691f63" x="235.441343" y="231.882627" style="fill: #b22222; stroke: #b22222"/>
     <use xlink:href="#mf284691f63" x="258.105553" y="251.028044" style="fill: #b22222; stroke: #b22222"/>
     <use xlink:href="#mf284691f63" x="234.755148" y="239.079549" style="fill: #b22222; stroke: #b22222"/>
     <use xlink:href="#mf284691f63" x="284.260624" y="263.800521" style="fill: #b22222; stroke: #b22222"/>
     <use xlink:href="#mf284691f63" x="253.478144" y="268.942466" style="fill: #b22222; stroke: #b22222"/>
     <use xlink:href="#mf284691f63" x="231.778395" y="231.211384" style="fill: #b22222; stroke: #b22222"/>
     <use xlink:href="#mf284691f63" x="268.647362" y="260.872342" style="fill: #b22222; stroke: #b22222"/>
     <use xlink:href="#mf284691f63" x="241.891244" y="237.688721" style="fill: #b22222; stroke: #b22222"/>
     <use xlink:href="#mf284691f63" x="252.206937" y="244.462748" style="fill: #b22222; stroke: #b22222"/>
     <use xlink:href="#mf284691f63" x="270.781787" y="237.788381" style="fill: #b22222; stroke: #b22222"/>
     <use xlink:href="#mf284691f63" x="264.832563" y="254.829761" style="fill: #b22222; stroke: #b22222"/>
     <use xlink:href="#mf284691f63" x="237.760971" y="235.917767" style="fill: #b22222; stroke: #b22222"/>
     <use xlink:href="#mf284691f63" x="262.189314" y="243.239595" style="fill: #b22222; stroke: #b22222"/>
     <use xlink:href="#mf284691f63" x="232.831745" y="228.171683" style="fill: #b22222; stroke: #b22222"/>
     <use xlink:href="#mf284691f63" x="235.142619" y="247.855604" style="fill: #b22222; stroke: #b22222"/>
     <use xlink:href="#mf284691f63" x="238.818355" y="226.681732" style="fill: #b22222; stroke: #b22222"/>
     <use xlink:href="#mf284691f63" x="232.556301" y="238.63839" style="fill: #b22222; stroke: #b22222"/>
     <use xlink:href="#mf284691f63" x="230.184772" y="223.74225" style="fill: #b22222; stroke: #b22222"/>
     <use xlink:href="#mf284691f63" x="314.689835" y="210.306083" style="fill: #b22222; stroke: #b22222"/>
     <use xlink:href="#mf284691f63" x="241.613852" y="233.888776" style="fill: #b22222; stroke: #b22222"/>
     <use xlink:href="#mf284691f63" x="237.726348" y="236.366954" style="fill: #b22222; stroke: #b22222"/>
     <use xlink:href="#mf284691f63" x="241.679121" y="234.067078" style="fill: #b22222; stroke: #b22222"/>
     <use xlink:href="#mf284691f63" x="236.396279" y="232.43559" style="fill: #b22222; stroke: #b22222"/>
     <use xlink:href="#mf284691f63" x="261.303264" y="244.353283" style="fill: #b22222; stroke: #b22222"/>
     <use xlink:href="#mf284691f63" x="311.259675" y="212.525011" style="fill: #b22222; stroke: #b22222"/>
     <use xlink:href="#mf284691f63" x="234.555372" y="238.996692" style="fill: #b22222; stroke: #b22222"/>
     <use xlink:href="#mf284691f63" x="255.02321" y="245.326469" style="fill: #b22222; stroke: #b22222"/>
     <use xlink:href="#mf284691f63" x="246.602118" y="279.706712" style="fill: #b22222; stroke: #b22222"/>
     <use xlink:href="#mf284691f63" x="257.978659" y="240.51766" style="fill: #b22222; stroke: #b22222"/>
     <use xlink:href="#mf284691f63" x="283.929522" y="254.528005" style="fill: #b22222; stroke: #b22222"/>
     <use xlink:href="#mf284691f63" x="283.665034" y="257.782205" style="fill: #b22222; stroke: #b22222"/>
     <use xlink:href="#mf284691f63" x="265.186874" y="249.183897" style="fill: #b22222; stroke: #b22222"/>
     <use xlink:href="#mf284691f63" x="275.862659" y="239.202674" style="fill: #b22222; stroke: #b22222"/>
     <use xlink:href="#mf284691f63" x="233.706359" y="237.978087" style="fill: #b22222; stroke: #b22222"/>
     <use xlink:href="#mf284691f63" x="236.342426" y="234.286579" style="fill: #b22222; stroke: #b22222"/>
     <use xlink:href="#mf284691f63" x="236.397504" y="237.031227" style="fill: #b22222; stroke: #b22222"/>
     <use xlink:href="#mf284691f63" x="271.52483" y="215.798937" style="fill: #b22222; stroke: #b22222"/>
     <use xlink:href="#mf284691f63" x="284.85339" y="260.919353" style="fill: #b22222; stroke: #b22222"/>
     <use xlink:href="#mf284691f63" x="301.887158" y="255.581246" style="fill: #b22222; stroke: #b22222"/>
     <use xlink:href="#mf284691f63" x="259.058105" y="249.060798" style="fill: #b22222; stroke: #b22222"/>
     <use xlink:href="#mf284691f63" x="237.861422" y="232.905889" style="fill: #b22222; stroke: #b22222"/>
     <use xlink:href="#mf284691f63" x="275.085612" y="261.564439" style="fill: #b22222; stroke: #b22222"/>
     <use xlink:href="#mf284691f63" x="248.808203" y="247.763866" style="fill: #b22222; stroke: #b22222"/>
     <use xlink:href="#mf284691f63" x="232.968687" y="230.818398" style="fill: #b22222; stroke: #b22222"/>
     <use xlink:href="#mf284691f63" x="244.348278" y="239.471874" style="fill: #b22222; stroke: #b22222"/>
     <use xlink:href="#mf284691f63" x="241.987713" y="234.699022" style="fill: #b22222; stroke: #b22222"/>
     <use xlink:href="#mf284691f63" x="240.845715" y="245.142315" style="fill: #b22222; stroke: #b22222"/>
     <use xlink:href="#mf284691f63" x="302.77199" y="223.672548" style="fill: #b22222; stroke: #b22222"/>
     <use xlink:href="#mf284691f63" x="263.795386" y="279.136252" style="fill: #b22222; stroke: #b22222"/>
     <use xlink:href="#mf284691f63" x="250.862339" y="246.756578" style="fill: #b22222; stroke: #b22222"/>
     <use xlink:href="#mf284691f63" x="245.245368" y="239.54182" style="fill: #b22222; stroke: #b22222"/>
     <use xlink:href="#mf284691f63" x="234.733285" y="231.0983" style="fill: #b22222; stroke: #b22222"/>
     <use xlink:href="#mf284691f63" x="268.659475" y="251.764857" style="fill: #b22222; stroke: #b22222"/>
     <use xlink:href="#mf284691f63" x="246.953884" y="238.993861" style="fill: #b22222; stroke: #b22222"/>
     <use xlink:href="#mf284691f63" x="242.770664" y="247.528126" style="fill: #b22222; stroke: #b22222"/>
     <use xlink:href="#mf284691f63" x="253.401922" y="251.428647" style="fill: #b22222; stroke: #b22222"/>
     <use xlink:href="#mf284691f63" x="234.755689" y="244.215945" style="fill: #b22222; stroke: #b22222"/>
    </g>
   </g>
   <g id="patch_4">
    <path d="M 56.450156 450.72 
L 56.450156 7.2 
" style="fill: none; stroke: #ffffff; stroke-width: 1.25; stroke-linejoin: miter; stroke-linecap: square"/>
   </g>
   <g id="patch_5">
    <path d="M 499.970156 450.72 
L 499.970156 7.2 
" style="fill: none; stroke: #ffffff; stroke-width: 1.25; stroke-linejoin: miter; stroke-linecap: square"/>
   </g>
   <g id="patch_6">
    <path d="M 56.450156 450.72 
L 499.970156 450.72 
" style="fill: none; stroke: #ffffff; stroke-width: 1.25; stroke-linejoin: miter; stroke-linecap: square"/>
   </g>
   <g id="patch_7">
    <path d="M 56.450156 7.2 
L 499.970156 7.2 
" style="fill: none; stroke: #ffffff; stroke-width: 1.25; stroke-linejoin: miter; stroke-linecap: square"/>
   </g>
   <g id="text_13">
    <!-- t = 1400 -->
    <g style="fill: #262626" transform="translate(65.320556 24.659775) scale(0.12 -0.12)">
     <defs>
      <path id="ArialMT-74" d="M 1650 503 
L 1731 6 
Q 1494 -44 1306 -44 
Q 1000 -44 831 53 
Q 663 150 594 308 
Q 525 466 525 972 
L 525 2881 
L 113 2881 
L 113 3319 
L 525 3319 
L 525 4141 
L 1084 4478 
L 1084 3319 
L 1650 3319 
L 1650 2881 
L 1084 2881 
L 1084 941 
Q 1084 700 1114 631 
Q 1144 563 1211 522 
Q 1278 481 1403 481 
Q 1497 481 1650 503 
z
" transform="scale(0.015625)"/>
      <path id="ArialMT-20" transform="scale(0.015625)"/>
      <path id="ArialMT-3d" d="M 3381 2694 
L 356 2694 
L 356 3219 
L 3381 3219 
L 3381 2694 
z
M 3381 1303 
L 356 1303 
L 356 1828 
L 3381 1828 
L 3381 1303 
z
" transform="scale(0.015625)"/>
      <path id="ArialMT-31" d="M 2384 0 
L 1822 0 
L 1822 3584 
Q 1619 3391 1289 3197 
Q 959 3003 697 2906 
L 697 3450 
Q 1169 3672 1522 3987 
Q 1875 4303 2022 4600 
L 2384 4600 
L 2384 0 
z
" transform="scale(0.015625)"/>
     </defs>
     <use xlink:href="#ArialMT-74"/>
     <use xlink:href="#ArialMT-20" x="27.783203"/>
     <use xlink:href="#ArialMT-3d" x="55.566406"/>
     <use xlink:href="#ArialMT-20" x="113.964844"/>
     <use xlink:href="#ArialMT-31" x="141.748047"/>
     <use xlink:href="#ArialMT-34" x="197.363281"/>
     <use xlink:href="#ArialMT-30" x="252.978516"/>
     <use xlink:href="#ArialMT-30" x="308.59375"/>
    </g>
   </g>
   <g id="legend_1">
    <g id="patch_8">
     <path d="M 328.111406 94.59 
L 483.170156 94.59 
Q 487.970156 94.59 487.970156 89.79 
L 487.970156 24 
Q 487.970156 19.2 483.170156 19.2 
L 328.111406 19.2 
Q 323.311406 19.2 323.311406 24 
L 323.311406 89.79 
Q 323.311406 94.59 328.111406 94.59 
z
" style="fill: #eaeaf2; opacity: 0.8; stroke: #cccccc; stroke-linejoin: miter"/>
    </g>
    <g id="PathCollection_3">
     <g>
      <use xlink:href="#m8b17bc562b" x="356.911406" y="39.97125" style="fill: #4169e1; stroke: #4169e1"/>
     </g>
    </g>
    <g id="text_14">
     <!-- Sheep -->
     <g style="fill: #262626" transform="translate(400.111406 46.27125) scale(0.24 -0.24)">
      <defs>
       <path id="ArialMT-53" d="M 288 1472 
L 859 1522 
Q 900 1178 1048 958 
Q 1197 738 1509 602 
Q 1822 466 2213 466 
Q 2559 466 2825 569 
Q 3091 672 3220 851 
Q 3350 1031 3350 1244 
Q 3350 1459 3225 1620 
Q 3100 1781 2813 1891 
Q 2628 1963 1997 2114 
Q 1366 2266 1113 2400 
Q 784 2572 623 2826 
Q 463 3081 463 3397 
Q 463 3744 659 4045 
Q 856 4347 1234 4503 
Q 1613 4659 2075 4659 
Q 2584 4659 2973 4495 
Q 3363 4331 3572 4012 
Q 3781 3694 3797 3291 
L 3216 3247 
Q 3169 3681 2898 3903 
Q 2628 4125 2100 4125 
Q 1550 4125 1298 3923 
Q 1047 3722 1047 3438 
Q 1047 3191 1225 3031 
Q 1400 2872 2139 2705 
Q 2878 2538 3153 2413 
Q 3553 2228 3743 1945 
Q 3934 1663 3934 1294 
Q 3934 928 3725 604 
Q 3516 281 3123 101 
Q 2731 -78 2241 -78 
Q 1619 -78 1198 103 
Q 778 284 539 648 
Q 300 1013 288 1472 
z
" transform="scale(0.015625)"/>
       <path id="ArialMT-68" d="M 422 0 
L 422 4581 
L 984 4581 
L 984 2938 
Q 1378 3394 1978 3394 
Q 2347 3394 2619 3248 
Q 2891 3103 3008 2847 
Q 3125 2591 3125 2103 
L 3125 0 
L 2563 0 
L 2563 2103 
Q 2563 2525 2380 2717 
Q 2197 2909 1863 2909 
Q 1613 2909 1392 2779 
Q 1172 2650 1078 2428 
Q 984 2206 984 1816 
L 984 0 
L 422 0 
z
" transform="scale(0.015625)"/>
       <path id="ArialMT-65" d="M 2694 1069 
L 3275 997 
Q 3138 488 2766 206 
Q 2394 -75 1816 -75 
Q 1088 -75 661 373 
Q 234 822 234 1631 
Q 234 2469 665 2931 
Q 1097 3394 1784 3394 
Q 2450 3394 2872 2941 
Q 3294 2488 3294 1666 
Q 3294 1616 3291 1516 
L 816 1516 
Q 847 969 1125 678 
Q 1403 388 1819 388 
Q 2128 388 2347 550 
Q 2566 713 2694 1069 
z
M 847 1978 
L 2700 1978 
Q 2663 2397 2488 2606 
Q 2219 2931 1791 2931 
Q 1403 2931 1139 2672 
Q 875 2413 847 1978 
z
" transform="scale(0.015625)"/>
       <path id="ArialMT-70" d="M 422 -1272 
L 422 3319 
L 934 3319 
L 934 2888 
Q 1116 3141 1344 3267 
Q 1572 3394 1897 3394 
Q 2322 3394 2647 3175 
Q 2972 2956 3137 2557 
Q 3303 2159 3303 1684 
Q 3303 1175 3120 767 
Q 2938 359 2589 142 
Q 2241 -75 1856 -75 
Q 1575 -75 1351 44 
Q 1128 163 984 344 
L 984 -1272 
L 422 -1272 
z
M 931 1641 
Q 931 1000 1190 694 
Q 1450 388 1819 388 
Q 2194 388 2461 705 
Q 2728 1022 2728 1688 
Q 2728 2322 2467 2637 
Q 2206 2953 1844 2953 
Q 1484 2953 1207 2617 
Q 931 2281 931 1641 
z
" transform="scale(0.015625)"/>
      </defs>
      <use xlink:href="#ArialMT-53"/>
      <use xlink:href="#ArialMT-68" x="66.699219"/>
      <use xlink:href="#ArialMT-65" x="122.314453"/>
      <use xlink:href="#ArialMT-65" x="177.929688"/>
      <use xlink:href="#ArialMT-70" x="233.544922"/>
     </g>
    </g>
    <g id="PathCollection_4">
     <g>
      <use xlink:href="#mf284691f63" x="356.911406" y="73.92" style="fill: #b22222; stroke: #b22222"/>
     </g>
    </g>
    <g id="text_15">
     <!-- Wolves -->
     <g style="fill: #262626" transform="translate(400.111406 80.22) scale(0.24 -0.24)">
      <defs>
       <path id="ArialMT-57" d="M 1294 0 
L 78 4581 
L 700 4581 
L 1397 1578 
Q 1509 1106 1591 641 
Q 1766 1375 1797 1488 
L 2669 4581 
L 3400 4581 
L 4056 2263 
Q 4303 1400 4413 641 
Q 4500 1075 4641 1638 
L 5359 4581 
L 5969 4581 
L 4713 0 
L 4128 0 
L 3163 3491 
Q 3041 3928 3019 4028 
Q 2947 3713 2884 3491 
L 1913 0 
L 1294 0 
z
" transform="scale(0.015625)"/>
       <path id="ArialMT-6f" d="M 213 1659 
Q 213 2581 725 3025 
Q 1153 3394 1769 3394 
Q 2453 3394 2887 2945 
Q 3322 2497 3322 1706 
Q 3322 1066 3130 698 
Q 2938 331 2570 128 
Q 2203 -75 1769 -75 
Q 1072 -75 642 372 
Q 213 819 213 1659 
z
M 791 1659 
Q 791 1022 1069 705 
Q 1347 388 1769 388 
Q 2188 388 2466 706 
Q 2744 1025 2744 1678 
Q 2744 2294 2464 2611 
Q 2184 2928 1769 2928 
Q 1347 2928 1069 2612 
Q 791 2297 791 1659 
z
" transform="scale(0.015625)"/>
       <path id="ArialMT-6c" d="M 409 0 
L 409 4581 
L 972 4581 
L 972 0 
L 409 0 
z
" transform="scale(0.015625)"/>
       <path id="ArialMT-76" d="M 1344 0 
L 81 3319 
L 675 3319 
L 1388 1331 
Q 1503 1009 1600 663 
Q 1675 925 1809 1294 
L 2547 3319 
L 3125 3319 
L 1869 0 
L 1344 0 
z
" transform="scale(0.015625)"/>
       <path id="ArialMT-73" d="M 197 991 
L 753 1078 
Q 800 744 1014 566 
Q 1228 388 1613 388 
Q 2000 388 2187 545 
Q 2375 703 2375 916 
Q 2375 1106 2209 1216 
Q 2094 1291 1634 1406 
Q 1016 1563 777 1677 
Q 538 1791 414 1992 
Q 291 2194 291 2438 
Q 291 2659 392 2848 
Q 494 3038 669 3163 
Q 800 3259 1026 3326 
Q 1253 3394 1513 3394 
Q 1903 3394 2198 3281 
Q 2494 3169 2634 2976 
Q 2775 2784 2828 2463 
L 2278 2388 
Q 2241 2644 2061 2787 
Q 1881 2931 1553 2931 
Q 1166 2931 1000 2803 
Q 834 2675 834 2503 
Q 834 2394 903 2306 
Q 972 2216 1119 2156 
Q 1203 2125 1616 2013 
Q 2213 1853 2448 1751 
Q 2684 1650 2818 1456 
Q 2953 1263 2953 975 
Q 2953 694 2789 445 
Q 2625 197 2315 61 
Q 2006 -75 1616 -75 
Q 969 -75 630 194 
Q 291 463 197 991 
z
" transform="scale(0.015625)"/>
      </defs>
      <use xlink:href="#ArialMT-57"/>
      <use xlink:href="#ArialMT-6f" x="92.634766"/>
      <use xlink:href="#ArialMT-6c" x="148.25"/>
      <use xlink:href="#ArialMT-76" x="170.466797"/>
      <use xlink:href="#ArialMT-65" x="220.466797"/>
      <use xlink:href="#ArialMT-73" x="276.082031"/>
     </g>
    </g>
   </g>
  </g>
 </g>
 <defs>
  <clipPath id="p947b0d19d1">
   <rect x="56.450156" y="7.2" width="443.52" height="443.52"/>
  </clipPath>
 </defs>
</svg>
