<?xml version="1.0" encoding="utf-8" standalone="no"?>
<!DOCTYPE svg PUBLIC "-//W3C//DTD SVG 1.1//EN"
  "http://www.w3.org/Graphics/SVG/1.1/DTD/svg11.dtd">
<svg xmlns:xlink="http://www.w3.org/1999/xlink" width="507.170156pt" height="492.454219pt" viewBox="0 0 507.170156 492.454219" xmlns="http://www.w3.org/2000/svg" version="1.1">
 <metadata>
  <rdf:RDF xmlns:dc="http://purl.org/dc/elements/1.1/" xmlns:cc="http://creativecommons.org/ns#" xmlns:rdf="http://www.w3.org/1999/02/22-rdf-syntax-ns#">
   <cc:Work>
    <dc:type rdf:resource="http://purl.org/dc/dcmitype/StillImage"/>
    <dc:date>2026-05-12T10:43:21.518095</dc:date>
    <dc:format>image/svg+xml</dc:format>
    <dc:creator>
     <cc:Agent>
      <dc:title>Matplotlib v3.7.1, https://matplotlib.org/</dc:title>
     </cc:Agent>
    </dc:creator>
   </cc:Work>
  </rdf:RDF>
 </metadata>
 <defs>
  <style type="text/css">*{stroke-linejoin: round; stroke-linecap: butt}</style>
 </defs>
 <g id="figure_1">
  <g id="patch_1">
   <path d="M 0 492.454219 
L 507.170156 492.454219 
L 507.170156 0 
L 0 0 
z
" style="fill: #ffffff"/>
  </g>
  <g id="axes_1">
   <g id="patch_2">
    <path d="M 56.450156 450.72 
L 499.970156 450.72 
L 499.970156 7.2 
L 56.450156 7.2 
z
" style="fill: #eaeaf2"/>
   </g>
   <g id="matplotlib.axis_1">
    <g id="xtick_1">
     <g id="line2d_1">
      <path d="M 100.802156 450.72 
L 100.802156 7.2 
" clip-path="url(#p2e4aa8c2e0)" style="fill: none; stroke: #ffffff; stroke-linecap: round"/>
     </g>
     <g id="text_1">
      <!-- −400 -->
      <g style="fill: #262626" transform="translate(88.414266 468.093594) scale(0.11 -0.11)">
       <defs>
        <path id="ArialMT-2212" d="M 3381 1997 
L 356 1997 
L 356 2522 
L 3381 2522 
L 3381 1997 
z
" transform="scale(0.015625)"/>
        <path id="ArialMT-34" d="M 2069 0 
L 2069 1097 
L 81 1097 
L 81 1613 
L 2172 4581 
L 2631 4581 
L 2631 1613 
L 3250 1613 
L 3250 1097 
L 2631 1097 
L 2631 0 
L 2069 0 
z
M 2069 1613 
L 2069 3678 
L 634 1613 
L 2069 1613 
z
" transform="scale(0.015625)"/>
        <path id="ArialMT-30" d="M 266 2259 
Q 266 3072 433 3567 
Q 600 4063 929 4331 
Q 1259 4600 1759 4600 
Q 2128 4600 2406 4451 
Q 2684 4303 2865 4023 
Q 3047 3744 3150 3342 
Q 3253 2941 3253 2259 
Q 3253 1453 3087 958 
Q 2922 463 2592 192 
Q 2263 -78 1759 -78 
Q 1097 -78 719 397 
Q 266 969 266 2259 
z
M 844 2259 
Q 844 1131 1108 757 
Q 1372 384 1759 384 
Q 2147 384 2411 759 
Q 2675 1134 2675 2259 
Q 2675 3391 2411 3762 
Q 2147 4134 1753 4134 
Q 1366 4134 1134 3806 
Q 844 3388 844 2259 
z
" transform="scale(0.015625)"/>
       </defs>
       <use xlink:href="#ArialMT-2212"/>
       <use xlink:href="#ArialMT-34" x="58.398438"/>
       <use xlink:href="#ArialMT-30" x="114.013672"/>
       <use xlink:href="#ArialMT-30" x="169.628906"/>
      </g>
     </g>
    </g>
    <g id="xtick_2">
     <g id="line2d_2">
      <path d="M 189.506156 450.72 
L 189.506156 7.2 
" clip-path="url(#p2e4aa8c2e0)" style="fill: none; stroke: #ffffff; stroke-linecap: round"/>
     </g>
     <g id="text_2">
      <!-- −200 -->
      <g style="fill: #262626" transform="translate(177.118266 468.093594) scale(0.11 -0.11)">
       <defs>
        <path id="ArialMT-32" d="M 3222 541 
L 3222 0 
L 194 0 
Q 188 203 259 391 
Q 375 700 629 1000 
Q 884 1300 1366 1694 
Q 2113 2306 2375 2664 
Q 2638 3022 2638 3341 
Q 2638 3675 2398 3904 
Q 2159 4134 1775 4134 
Q 1369 4134 1125 3890 
Q 881 3647 878 3216 
L 300 3275 
Q 359 3922 746 4261 
Q 1134 4600 1788 4600 
Q 2447 4600 2831 4234 
Q 3216 3869 3216 3328 
Q 3216 3053 3103 2787 
Q 2991 2522 2730 2228 
Q 2469 1934 1863 1422 
Q 1356 997 1212 845 
Q 1069 694 975 541 
L 3222 541 
z
" transform="scale(0.015625)"/>
       </defs>
       <use xlink:href="#ArialMT-2212"/>
       <use xlink:href="#ArialMT-32" x="58.398438"/>
       <use xlink:href="#ArialMT-30" x="114.013672"/>
       <use xlink:href="#ArialMT-30" x="169.628906"/>
      </g>
     </g>
    </g>
    <g id="xtick_3">
     <g id="line2d_3">
      <path d="M 278.210156 450.72 
L 278.210156 7.2 
" clip-path="url(#p2e4aa8c2e0)" style="fill: none; stroke: #ffffff; stroke-linecap: round"/>
     </g>
     <g id="text_3">
      <!-- 0 -->
      <g style="fill: #262626" transform="translate(275.151641 468.093594) scale(0.11 -0.11)">
       <use xlink:href="#ArialMT-30"/>
      </g>
     </g>
    </g>
    <g id="xtick_4">
     <g id="line2d_4">
      <path d="M 366.914156 450.72 
L 366.914156 7.2 
" clip-path="url(#p2e4aa8c2e0)" style="fill: none; stroke: #ffffff; stroke-linecap: round"/>
     </g>
     <g id="text_4">
      <!-- 200 -->
      <g style="fill: #262626" transform="translate(357.738609 468.093594) scale(0.11 -0.11)">
       <use xlink:href="#ArialMT-32"/>
       <use xlink:href="#ArialMT-30" x="55.615234"/>
       <use xlink:href="#ArialMT-30" x="111.230469"/>
      </g>
     </g>
    </g>
    <g id="xtick_5">
     <g id="line2d_5">
      <path d="M 455.618156 450.72 
L 455.618156 7.2 
" clip-path="url(#p2e4aa8c2e0)" style="fill: none; stroke: #ffffff; stroke-linecap: round"/>
     </g>
     <g id="text_5">
      <!-- 400 -->
      <g style="fill: #262626" transform="translate(446.442609 468.093594) scale(0.11 -0.11)">
       <use xlink:href="#ArialMT-34"/>
       <use xlink:href="#ArialMT-30" x="55.615234"/>
       <use xlink:href="#ArialMT-30" x="111.230469"/>
      </g>
     </g>
    </g>
    <g id="text_6">
     <!-- x -->
     <g style="fill: #262626" transform="translate(275.210156 482.869219) scale(0.12 -0.12)">
      <defs>
       <path id="ArialMT-78" d="M 47 0 
L 1259 1725 
L 138 3319 
L 841 3319 
L 1350 2541 
Q 1494 2319 1581 2169 
Q 1719 2375 1834 2534 
L 2394 3319 
L 3066 3319 
L 1919 1756 
L 3153 0 
L 2463 0 
L 1781 1031 
L 1600 1309 
L 728 0 
L 47 0 
z
" transform="scale(0.015625)"/>
      </defs>
      <use xlink:href="#ArialMT-78"/>
     </g>
    </g>
   </g>
   <g id="matplotlib.axis_2">
    <g id="ytick_1">
     <g id="line2d_6">
      <path d="M 56.450156 406.368 
L 499.970156 406.368 
" clip-path="url(#p2e4aa8c2e0)" style="fill: none; stroke: #ffffff; stroke-linecap: round"/>
     </g>
     <g id="text_7">
      <!-- −400 -->
      <g style="fill: #262626" transform="translate(22.174375 410.304797) scale(0.11 -0.11)">
       <use xlink:href="#ArialMT-2212"/>
       <use xlink:href="#ArialMT-34" x="58.398438"/>
       <use xlink:href="#ArialMT-30" x="114.013672"/>
       <use xlink:href="#ArialMT-30" x="169.628906"/>
      </g>
     </g>
    </g>
    <g id="ytick_2">
     <g id="line2d_7">
      <path d="M 56.450156 317.664 
L 499.970156 317.664 
" clip-path="url(#p2e4aa8c2e0)" style="fill: none; stroke: #ffffff; stroke-linecap: round"/>
     </g>
     <g id="text_8">
      <!-- −200 -->
      <g style="fill: #262626" transform="translate(22.174375 321.600797) scale(0.11 -0.11)">
       <use xlink:href="#ArialMT-2212"/>
       <use xlink:href="#ArialMT-32" x="58.398438"/>
       <use xlink:href="#ArialMT-30" x="114.013672"/>
       <use xlink:href="#ArialMT-30" x="169.628906"/>
      </g>
     </g>
    </g>
    <g id="ytick_3">
     <g id="line2d_8">
      <path d="M 56.450156 228.96 
L 499.970156 228.96 
" clip-path="url(#p2e4aa8c2e0)" style="fill: none; stroke: #ffffff; stroke-linecap: round"/>
     </g>
     <g id="text_9">
      <!-- 0 -->
      <g style="fill: #262626" transform="translate(40.833125 232.896797) scale(0.11 -0.11)">
       <use xlink:href="#ArialMT-30"/>
      </g>
     </g>
    </g>
    <g id="ytick_4">
     <g id="line2d_9">
      <path d="M 56.450156 140.256 
L 499.970156 140.256 
" clip-path="url(#p2e4aa8c2e0)" style="fill: none; stroke: #ffffff; stroke-linecap: round"/>
     </g>
     <g id="text_10">
      <!-- 200 -->
      <g style="fill: #262626" transform="translate(28.599063 144.192797) scale(0.11 -0.11)">
       <use xlink:href="#ArialMT-32"/>
       <use xlink:href="#ArialMT-30" x="55.615234"/>
       <use xlink:href="#ArialMT-30" x="111.230469"/>
      </g>
     </g>
    </g>
    <g id="ytick_5">
     <g id="line2d_10">
      <path d="M 56.450156 51.552 
L 499.970156 51.552 
" clip-path="url(#p2e4aa8c2e0)" style="fill: none; stroke: #ffffff; stroke-linecap: round"/>
     </g>
     <g id="text_11">
      <!-- 400 -->
      <g style="fill: #262626" transform="translate(28.599063 55.488797) scale(0.11 -0.11)">
       <use xlink:href="#ArialMT-34"/>
       <use xlink:href="#ArialMT-30" x="55.615234"/>
       <use xlink:href="#ArialMT-30" x="111.230469"/>
      </g>
     </g>
    </g>
    <g id="text_12">
     <!-- y -->
     <g style="fill: #262626" transform="translate(15.64875 231.96) rotate(-90) scale(0.12 -0.12)">
      <defs>
       <path id="ArialMT-79" d="M 397 -1278 
L 334 -750 
Q 519 -800 656 -800 
Q 844 -800 956 -737 
Q 1069 -675 1141 -563 
Q 1194 -478 1313 -144 
Q 1328 -97 1363 -6 
L 103 3319 
L 709 3319 
L 1400 1397 
Q 1534 1031 1641 628 
Q 1738 1016 1872 1384 
L 2581 3319 
L 3144 3319 
L 1881 -56 
Q 1678 -603 1566 -809 
Q 1416 -1088 1222 -1217 
Q 1028 -1347 759 -1347 
Q 597 -1347 397 -1278 
z
" transform="scale(0.015625)"/>
      </defs>
      <use xlink:href="#ArialMT-79"/>
     </g>
    </g>
   </g>
   <g id="patch_3">
    <path d="M 278.210156 317.664 
C 301.734732 317.664 324.298969 308.317587 340.933356 291.6832 
C 357.567743 275.048813 366.914156 252.484576 366.914156 228.96 
C 366.914156 205.435424 357.567743 182.871187 340.933356 166.2368 
C 324.298969 149.602413 301.734732 140.256 278.210156 140.256 
C 254.68558 140.256 232.121343 149.602413 215.486956 166.2368 
C 198.852569 182.871187 189.506156 205.435424 189.506156 228.96 
C 189.506156 252.484576 198.852569 275.048813 215.486956 291.6832 
C 232.121343 308.317587 254.68558 317.664 278.210156 317.664 
z
" clip-path="url(#p2e4aa8c2e0)" style="fill: #228b22; opacity: 0.12; stroke: #228b22; stroke-width: 1.5; stroke-linejoin: miter"/>
   </g>
   <g id="PathCollection_1">
    <defs>
     <path id="m2e77ea27a8" d="M 0 2.236068 
C 0.593012 2.236068 1.161816 2.000462 1.581139 1.581139 
C 2.000462 1.161816 2.236068 0.593012 2.236068 0 
C 2.236068 -0.593012 2.000462 -1.161816 1.581139 -1.581139 
C 1.161816 -2.000462 0.593012 -2.236068 0 -2.236068 
C -0.593012 -2.236068 -1.161816 -2.000462 -1.581139 -1.581139 
C -2.000462 -1.161816 -2.236068 -0.593012 -2.236068 0 
C -2.236068 0.593012 -2.000462 1.161816 -1.581139 1.581139 
C -1.161816 2.000462 -0.593012 2.236068 0 2.236068 
z
" style="stroke: #4169e1"/>
    </defs>
    <g clip-path="url(#p2e4aa8c2e0)">
     <use xlink:href="#m2e77ea27a8" x="327.472609" y="233.613162" style="fill: #4169e1; stroke: #4169e1"/>
     <use xlink:href="#m2e77ea27a8" x="361.244848" y="254.109385" style="fill: #4169e1; stroke: #4169e1"/>
     <use xlink:href="#m2e77ea27a8" x="349.352054" y="289.672153" style="fill: #4169e1; stroke: #4169e1"/>
     <use xlink:href="#m2e77ea27a8" x="338.069865" y="210.859364" style="fill: #4169e1; stroke: #4169e1"/>
     <use xlink:href="#m2e77ea27a8" x="289.589384" y="263.998313" style="fill: #4169e1; stroke: #4169e1"/>
     <use xlink:href="#m2e77ea27a8" x="260.556228" y="186.180203" style="fill: #4169e1; stroke: #4169e1"/>
     <use xlink:href="#m2e77ea27a8" x="267.284456" y="165.5147" style="fill: #4169e1; stroke: #4169e1"/>
     <use xlink:href="#m2e77ea27a8" x="374.218647" y="330.220172" style="fill: #4169e1; stroke: #4169e1"/>
     <use xlink:href="#m2e77ea27a8" x="280.755709" y="244.850788" style="fill: #4169e1; stroke: #4169e1"/>
     <use xlink:href="#m2e77ea27a8" x="269.028081" y="117.877413" style="fill: #4169e1; stroke: #4169e1"/>
     <use xlink:href="#m2e77ea27a8" x="265.061456" y="245.713603" style="fill: #4169e1; stroke: #4169e1"/>
     <use xlink:href="#m2e77ea27a8" x="201.059427" y="117.319933" style="fill: #4169e1; stroke: #4169e1"/>
     <use xlink:href="#m2e77ea27a8" x="285.282651" y="103.7501" style="fill: #4169e1; stroke: #4169e1"/>
     <use xlink:href="#m2e77ea27a8" x="364.880932" y="185.296046" style="fill: #4169e1; stroke: #4169e1"/>
     <use xlink:href="#m2e77ea27a8" x="267.515026" y="330.027309" style="fill: #4169e1; stroke: #4169e1"/>
     <use xlink:href="#m2e77ea27a8" x="456.945224" y="213.878247" style="fill: #4169e1; stroke: #4169e1"/>
     <use xlink:href="#m2e77ea27a8" x="180.945251" y="240.798708" style="fill: #4169e1; stroke: #4169e1"/>
     <use xlink:href="#m2e77ea27a8" x="381.41399" y="158.882277" style="fill: #4169e1; stroke: #4169e1"/>
     <use xlink:href="#m2e77ea27a8" x="194.917255" y="124.164263" style="fill: #4169e1; stroke: #4169e1"/>
     <use xlink:href="#m2e77ea27a8" x="386.02912" y="172.928284" style="fill: #4169e1; stroke: #4169e1"/>
     <use xlink:href="#m2e77ea27a8" x="394.378112" y="183.587693" style="fill: #4169e1; stroke: #4169e1"/>
     <use xlink:href="#m2e77ea27a8" x="461.146144" y="250.958101" style="fill: #4169e1; stroke: #4169e1"/>
     <use xlink:href="#m2e77ea27a8" x="290.259464" y="233.700688" style="fill: #4169e1; stroke: #4169e1"/>
     <use xlink:href="#m2e77ea27a8" x="237.29502" y="92.3174" style="fill: #4169e1; stroke: #4169e1"/>
     <use xlink:href="#m2e77ea27a8" x="407.027094" y="159.019313" style="fill: #4169e1; stroke: #4169e1"/>
     <use xlink:href="#m2e77ea27a8" x="296.532442" y="198.450844" style="fill: #4169e1; stroke: #4169e1"/>
     <use xlink:href="#m2e77ea27a8" x="231.224458" y="175.208839" style="fill: #4169e1; stroke: #4169e1"/>
     <use xlink:href="#m2e77ea27a8" x="218.187328" y="309.863879" style="fill: #4169e1; stroke: #4169e1"/>
     <use xlink:href="#m2e77ea27a8" x="379.775688" y="205.171976" style="fill: #4169e1; stroke: #4169e1"/>
     <use xlink:href="#m2e77ea27a8" x="260.675047" y="337.121836" style="fill: #4169e1; stroke: #4169e1"/>
     <use xlink:href="#m2e77ea27a8" x="481.927982" y="245.122878" style="fill: #4169e1; stroke: #4169e1"/>
     <use xlink:href="#m2e77ea27a8" x="428.087229" y="134.224775" style="fill: #4169e1; stroke: #4169e1"/>
     <use xlink:href="#m2e77ea27a8" x="334.058052" y="116.727574" style="fill: #4169e1; stroke: #4169e1"/>
     <use xlink:href="#m2e77ea27a8" x="234.00709" y="204.201337" style="fill: #4169e1; stroke: #4169e1"/>
     <use xlink:href="#m2e77ea27a8" x="353.471405" y="210.878999" style="fill: #4169e1; stroke: #4169e1"/>
     <use xlink:href="#m2e77ea27a8" x="332.559169" y="251.827379" style="fill: #4169e1; stroke: #4169e1"/>
     <use xlink:href="#m2e77ea27a8" x="320.803709" y="269.756203" style="fill: #4169e1; stroke: #4169e1"/>
     <use xlink:href="#m2e77ea27a8" x="443.653511" y="191.718826" style="fill: #4169e1; stroke: #4169e1"/>
     <use xlink:href="#m2e77ea27a8" x="387.406884" y="109.307784" style="fill: #4169e1; stroke: #4169e1"/>
     <use xlink:href="#m2e77ea27a8" x="270.308277" y="323.703448" style="fill: #4169e1; stroke: #4169e1"/>
     <use xlink:href="#m2e77ea27a8" x="261.301531" y="253.284029" style="fill: #4169e1; stroke: #4169e1"/>
     <use xlink:href="#m2e77ea27a8" x="273.271391" y="277.397983" style="fill: #4169e1; stroke: #4169e1"/>
     <use xlink:href="#m2e77ea27a8" x="255.912448" y="118.415063" style="fill: #4169e1; stroke: #4169e1"/>
     <use xlink:href="#m2e77ea27a8" x="248.417311" y="190.832825" style="fill: #4169e1; stroke: #4169e1"/>
     <use xlink:href="#m2e77ea27a8" x="213.249338" y="251.983913" style="fill: #4169e1; stroke: #4169e1"/>
     <use xlink:href="#m2e77ea27a8" x="254.142831" y="285.364671" style="fill: #4169e1; stroke: #4169e1"/>
     <use xlink:href="#m2e77ea27a8" x="418.308796" y="135.68603" style="fill: #4169e1; stroke: #4169e1"/>
     <use xlink:href="#m2e77ea27a8" x="401.993586" y="323.772118" style="fill: #4169e1; stroke: #4169e1"/>
     <use xlink:href="#m2e77ea27a8" x="384.925436" y="292.174553" style="fill: #4169e1; stroke: #4169e1"/>
     <use xlink:href="#m2e77ea27a8" x="363.128062" y="178.287177" style="fill: #4169e1; stroke: #4169e1"/>
     <use xlink:href="#m2e77ea27a8" x="370.237727" y="270.256564" style="fill: #4169e1; stroke: #4169e1"/>
     <use xlink:href="#m2e77ea27a8" x="260.620828" y="154.12046" style="fill: #4169e1; stroke: #4169e1"/>
     <use xlink:href="#m2e77ea27a8" x="477.220875" y="272.620228" style="fill: #4169e1; stroke: #4169e1"/>
     <use xlink:href="#m2e77ea27a8" x="342.218499" y="200.684519" style="fill: #4169e1; stroke: #4169e1"/>
     <use xlink:href="#m2e77ea27a8" x="292.656902" y="214.294239" style="fill: #4169e1; stroke: #4169e1"/>
     <use xlink:href="#m2e77ea27a8" x="249.837472" y="273.376394" style="fill: #4169e1; stroke: #4169e1"/>
     <use xlink:href="#m2e77ea27a8" x="383.108957" y="318.82623" style="fill: #4169e1; stroke: #4169e1"/>
     <use xlink:href="#m2e77ea27a8" x="323.788062" y="140.935871" style="fill: #4169e1; stroke: #4169e1"/>
     <use xlink:href="#m2e77ea27a8" x="266.414788" y="322.179734" style="fill: #4169e1; stroke: #4169e1"/>
     <use xlink:href="#m2e77ea27a8" x="308.071042" y="213.53538" style="fill: #4169e1; stroke: #4169e1"/>
     <use xlink:href="#m2e77ea27a8" x="175.50715" y="179.9752" style="fill: #4169e1; stroke: #4169e1"/>
     <use xlink:href="#m2e77ea27a8" x="360.951155" y="259.890844" style="fill: #4169e1; stroke: #4169e1"/>
     <use xlink:href="#m2e77ea27a8" x="272.687" y="231.974022" style="fill: #4169e1; stroke: #4169e1"/>
     <use xlink:href="#m2e77ea27a8" x="323.536907" y="154.763853" style="fill: #4169e1; stroke: #4169e1"/>
     <use xlink:href="#m2e77ea27a8" x="238.484838" y="330.510048" style="fill: #4169e1; stroke: #4169e1"/>
     <use xlink:href="#m2e77ea27a8" x="441.42909" y="115.188864" style="fill: #4169e1; stroke: #4169e1"/>
     <use xlink:href="#m2e77ea27a8" x="261.230342" y="313.855877" style="fill: #4169e1; stroke: #4169e1"/>
     <use xlink:href="#m2e77ea27a8" x="256.7643" y="137.897702" style="fill: #4169e1; stroke: #4169e1"/>
     <use xlink:href="#m2e77ea27a8" x="308.942723" y="176.033753" style="fill: #4169e1; stroke: #4169e1"/>
     <use xlink:href="#m2e77ea27a8" x="290.97708" y="160.157322" style="fill: #4169e1; stroke: #4169e1"/>
     <use xlink:href="#m2e77ea27a8" x="275.20416" y="191.028368" style="fill: #4169e1; stroke: #4169e1"/>
     <use xlink:href="#m2e77ea27a8" x="359.106334" y="192.939853" style="fill: #4169e1; stroke: #4169e1"/>
     <use xlink:href="#m2e77ea27a8" x="485.467751" y="202.203429" style="fill: #4169e1; stroke: #4169e1"/>
     <use xlink:href="#m2e77ea27a8" x="359.817315" y="127.612053" style="fill: #4169e1; stroke: #4169e1"/>
     <use xlink:href="#m2e77ea27a8" x="236.42273" y="285.661172" style="fill: #4169e1; stroke: #4169e1"/>
     <use xlink:href="#m2e77ea27a8" x="408.620791" y="177.687265" style="fill: #4169e1; stroke: #4169e1"/>
     <use xlink:href="#m2e77ea27a8" x="341.057142" y="257.109592" style="fill: #4169e1; stroke: #4169e1"/>
     <use xlink:href="#m2e77ea27a8" x="264.163786" y="170.511263" style="fill: #4169e1; stroke: #4169e1"/>
     <use xlink:href="#m2e77ea27a8" x="313.850683" y="248.810919" style="fill: #4169e1; stroke: #4169e1"/>
     <use xlink:href="#m2e77ea27a8" x="248.603944" y="187.117668" style="fill: #4169e1; stroke: #4169e1"/>
     <use xlink:href="#m2e77ea27a8" x="457.706523" y="127.077556" style="fill: #4169e1; stroke: #4169e1"/>
     <use xlink:href="#m2e77ea27a8" x="271.122059" y="146.318633" style="fill: #4169e1; stroke: #4169e1"/>
     <use xlink:href="#m2e77ea27a8" x="499.970156" y="239.173693" style="fill: #4169e1; stroke: #4169e1"/>
     <use xlink:href="#m2e77ea27a8" x="289.531813" y="256.041174" style="fill: #4169e1; stroke: #4169e1"/>
     <use xlink:href="#m2e77ea27a8" x="344.608544" y="289.622574" style="fill: #4169e1; stroke: #4169e1"/>
     <use xlink:href="#m2e77ea27a8" x="371.513213" y="301.446595" style="fill: #4169e1; stroke: #4169e1"/>
     <use xlink:href="#m2e77ea27a8" x="355.566701" y="82.183466" style="fill: #4169e1; stroke: #4169e1"/>
     <use xlink:href="#m2e77ea27a8" x="269.005888" y="115.207704" style="fill: #4169e1; stroke: #4169e1"/>
     <use xlink:href="#m2e77ea27a8" x="299.088473" y="289.345956" style="fill: #4169e1; stroke: #4169e1"/>
     <use xlink:href="#m2e77ea27a8" x="213.827242" y="246.197861" style="fill: #4169e1; stroke: #4169e1"/>
     <use xlink:href="#m2e77ea27a8" x="431.639246" y="170.074037" style="fill: #4169e1; stroke: #4169e1"/>
     <use xlink:href="#m2e77ea27a8" x="225.2717" y="189.615632" style="fill: #4169e1; stroke: #4169e1"/>
     <use xlink:href="#m2e77ea27a8" x="385.996629" y="179.183353" style="fill: #4169e1; stroke: #4169e1"/>
     <use xlink:href="#m2e77ea27a8" x="226.137591" y="241.791837" style="fill: #4169e1; stroke: #4169e1"/>
     <use xlink:href="#m2e77ea27a8" x="364.223415" y="307.080015" style="fill: #4169e1; stroke: #4169e1"/>
     <use xlink:href="#m2e77ea27a8" x="337.295066" y="101.451654" style="fill: #4169e1; stroke: #4169e1"/>
     <use xlink:href="#m2e77ea27a8" x="429.95301" y="152.206305" style="fill: #4169e1; stroke: #4169e1"/>
     <use xlink:href="#m2e77ea27a8" x="241.283597" y="191.35556" style="fill: #4169e1; stroke: #4169e1"/>
     <use xlink:href="#m2e77ea27a8" x="323.324981" y="232.844888" style="fill: #4169e1; stroke: #4169e1"/>
     <use xlink:href="#m2e77ea27a8" x="278.404019" y="182.464877" style="fill: #4169e1; stroke: #4169e1"/>
     <use xlink:href="#m2e77ea27a8" x="291.576939" y="343.343697" style="fill: #4169e1; stroke: #4169e1"/>
     <use xlink:href="#m2e77ea27a8" x="252.95951" y="195.727033" style="fill: #4169e1; stroke: #4169e1"/>
     <use xlink:href="#m2e77ea27a8" x="243.205616" y="199.831501" style="fill: #4169e1; stroke: #4169e1"/>
     <use xlink:href="#m2e77ea27a8" x="214.59547" y="104.980906" style="fill: #4169e1; stroke: #4169e1"/>
     <use xlink:href="#m2e77ea27a8" x="369.237912" y="156.897657" style="fill: #4169e1; stroke: #4169e1"/>
     <use xlink:href="#m2e77ea27a8" x="281.694247" y="189.619277" style="fill: #4169e1; stroke: #4169e1"/>
     <use xlink:href="#m2e77ea27a8" x="453.978494" y="215.526766" style="fill: #4169e1; stroke: #4169e1"/>
     <use xlink:href="#m2e77ea27a8" x="223.853774" y="228.569787" style="fill: #4169e1; stroke: #4169e1"/>
     <use xlink:href="#m2e77ea27a8" x="321.784606" y="257.630445" style="fill: #4169e1; stroke: #4169e1"/>
     <use xlink:href="#m2e77ea27a8" x="270.808811" y="191.377663" style="fill: #4169e1; stroke: #4169e1"/>
     <use xlink:href="#m2e77ea27a8" x="225.379382" y="183.283869" style="fill: #4169e1; stroke: #4169e1"/>
     <use xlink:href="#m2e77ea27a8" x="411.776729" y="343.335265" style="fill: #4169e1; stroke: #4169e1"/>
     <use xlink:href="#m2e77ea27a8" x="390.744531" y="216.470614" style="fill: #4169e1; stroke: #4169e1"/>
     <use xlink:href="#m2e77ea27a8" x="308.625013" y="210.842836" style="fill: #4169e1; stroke: #4169e1"/>
     <use xlink:href="#m2e77ea27a8" x="339.297768" y="226.650518" style="fill: #4169e1; stroke: #4169e1"/>
     <use xlink:href="#m2e77ea27a8" x="182.595687" y="226.631887" style="fill: #4169e1; stroke: #4169e1"/>
     <use xlink:href="#m2e77ea27a8" x="340.010218" y="224.01562" style="fill: #4169e1; stroke: #4169e1"/>
     <use xlink:href="#m2e77ea27a8" x="388.608975" y="221.660555" style="fill: #4169e1; stroke: #4169e1"/>
     <use xlink:href="#m2e77ea27a8" x="303.993023" y="176.138403" style="fill: #4169e1; stroke: #4169e1"/>
     <use xlink:href="#m2e77ea27a8" x="224.743311" y="221.526322" style="fill: #4169e1; stroke: #4169e1"/>
     <use xlink:href="#m2e77ea27a8" x="164.227195" y="253.496807" style="fill: #4169e1; stroke: #4169e1"/>
     <use xlink:href="#m2e77ea27a8" x="208.142469" y="189.306892" style="fill: #4169e1; stroke: #4169e1"/>
     <use xlink:href="#m2e77ea27a8" x="396.869866" y="147.624207" style="fill: #4169e1; stroke: #4169e1"/>
     <use xlink:href="#m2e77ea27a8" x="369.991097" y="157.749499" style="fill: #4169e1; stroke: #4169e1"/>
     <use xlink:href="#m2e77ea27a8" x="188.830136" y="214.189306" style="fill: #4169e1; stroke: #4169e1"/>
     <use xlink:href="#m2e77ea27a8" x="283.05918" y="162.233196" style="fill: #4169e1; stroke: #4169e1"/>
     <use xlink:href="#m2e77ea27a8" x="228.869223" y="340.481769" style="fill: #4169e1; stroke: #4169e1"/>
     <use xlink:href="#m2e77ea27a8" x="198.249211" y="169.971488" style="fill: #4169e1; stroke: #4169e1"/>
     <use xlink:href="#m2e77ea27a8" x="458.593427" y="147.107225" style="fill: #4169e1; stroke: #4169e1"/>
     <use xlink:href="#m2e77ea27a8" x="211.262492" y="131.906866" style="fill: #4169e1; stroke: #4169e1"/>
     <use xlink:href="#m2e77ea27a8" x="313.232096" y="328.574608" style="fill: #4169e1; stroke: #4169e1"/>
     <use xlink:href="#m2e77ea27a8" x="305.421571" y="189.108531" style="fill: #4169e1; stroke: #4169e1"/>
     <use xlink:href="#m2e77ea27a8" x="282.095164" y="356.830885" style="fill: #4169e1; stroke: #4169e1"/>
     <use xlink:href="#m2e77ea27a8" x="426.135365" y="148.366563" style="fill: #4169e1; stroke: #4169e1"/>
     <use xlink:href="#m2e77ea27a8" x="401.4562" y="176.807896" style="fill: #4169e1; stroke: #4169e1"/>
     <use xlink:href="#m2e77ea27a8" x="305.267842" y="81.607681" style="fill: #4169e1; stroke: #4169e1"/>
     <use xlink:href="#m2e77ea27a8" x="433.553009" y="303.507093" style="fill: #4169e1; stroke: #4169e1"/>
     <use xlink:href="#m2e77ea27a8" x="359.988115" y="94.851736" style="fill: #4169e1; stroke: #4169e1"/>
     <use xlink:href="#m2e77ea27a8" x="322.370356" y="64.650133" style="fill: #4169e1; stroke: #4169e1"/>
     <use xlink:href="#m2e77ea27a8" x="222.680784" y="228.93227" style="fill: #4169e1; stroke: #4169e1"/>
     <use xlink:href="#m2e77ea27a8" x="281.978761" y="258.155231" style="fill: #4169e1; stroke: #4169e1"/>
     <use xlink:href="#m2e77ea27a8" x="296.318368" y="365.092081" style="fill: #4169e1; stroke: #4169e1"/>
     <use xlink:href="#m2e77ea27a8" x="251.910733" y="254.963761" style="fill: #4169e1; stroke: #4169e1"/>
     <use xlink:href="#m2e77ea27a8" x="288.748764" y="108.043925" style="fill: #4169e1; stroke: #4169e1"/>
     <use xlink:href="#m2e77ea27a8" x="365.373795" y="188.929004" style="fill: #4169e1; stroke: #4169e1"/>
     <use xlink:href="#m2e77ea27a8" x="300.862211" y="163.489312" style="fill: #4169e1; stroke: #4169e1"/>
     <use xlink:href="#m2e77ea27a8" x="219.536871" y="174.605797" style="fill: #4169e1; stroke: #4169e1"/>
     <use xlink:href="#m2e77ea27a8" x="356.190164" y="149.612969" style="fill: #4169e1; stroke: #4169e1"/>
     <use xlink:href="#m2e77ea27a8" x="453.235509" y="152.010965" style="fill: #4169e1; stroke: #4169e1"/>
     <use xlink:href="#m2e77ea27a8" x="378.620781" y="174.592269" style="fill: #4169e1; stroke: #4169e1"/>
     <use xlink:href="#m2e77ea27a8" x="340.74852" y="307.747393" style="fill: #4169e1; stroke: #4169e1"/>
     <use xlink:href="#m2e77ea27a8" x="323.630256" y="107.63538" style="fill: #4169e1; stroke: #4169e1"/>
     <use xlink:href="#m2e77ea27a8" x="264.133093" y="309.232768" style="fill: #4169e1; stroke: #4169e1"/>
     <use xlink:href="#m2e77ea27a8" x="360.618272" y="203.935971" style="fill: #4169e1; stroke: #4169e1"/>
     <use xlink:href="#m2e77ea27a8" x="336.72669" y="111.925537" style="fill: #4169e1; stroke: #4169e1"/>
     <use xlink:href="#m2e77ea27a8" x="264.316022" y="231.075709" style="fill: #4169e1; stroke: #4169e1"/>
    </g>
   </g>
   <g id="PathCollection_2">
    <defs>
     <path id="ma65138dcad" d="M 0 2.5 
C 0.663008 2.5 1.29895 2.236584 1.767767 1.767767 
C 2.236584 1.29895 2.5 0.663008 2.5 0 
C 2.5 -0.663008 2.236584 -1.29895 1.767767 -1.767767 
C 1.29895 -2.236584 0.663008 -2.5 0 -2.5 
C -0.663008 -2.5 -1.29895 -2.236584 -1.767767 -1.767767 
C -2.236584 -1.29895 -2.5 -0.663008 -2.5 0 
C -2.5 0.663008 -2.236584 1.29895 -1.767767 1.767767 
C -1.29895 2.236584 -0.663008 2.5 0 2.5 
z
" style="stroke: #b22222"/>
    </defs>
    <g clip-path="url(#p2e4aa8c2e0)">
     <use xlink:href="#ma65138dcad" x="254.956264" y="211.483682" style="fill: #b22222; stroke: #b22222"/>
     <use xlink:href="#ma65138dcad" x="257.338531" y="249.682417" style="fill: #b22222; stroke: #b22222"/>
     <use xlink:href="#ma65138dcad" x="240.343963" y="255.196787" style="fill: #b22222; stroke: #b22222"/>
     <use xlink:href="#ma65138dcad" x="233.397081" y="238.696503" style="fill: #b22222; stroke: #b22222"/>
     <use xlink:href="#ma65138dcad" x="236.532256" y="251.248834" style="fill: #b22222; stroke: #b22222"/>
     <use xlink:href="#ma65138dcad" x="236.529448" y="238.850921" style="fill: #b22222; stroke: #b22222"/>
     <use xlink:href="#ma65138dcad" x="237.228606" y="248.817658" style="fill: #b22222; stroke: #b22222"/>
     <use xlink:href="#ma65138dcad" x="246.894237" y="216.534183" style="fill: #b22222; stroke: #b22222"/>
     <use xlink:href="#ma65138dcad" x="238.288846" y="239.586196" style="fill: #b22222; stroke: #b22222"/>
     <use xlink:href="#ma65138dcad" x="261.593542" y="254.773744" style="fill: #b22222; stroke: #b22222"/>
     <use xlink:href="#ma65138dcad" x="246.448285" y="214.502871" style="fill: #b22222; stroke: #b22222"/>
     <use xlink:href="#ma65138dcad" x="241.675609" y="256.389099" style="fill: #b22222; stroke: #b22222"/>
     <use xlink:href="#ma65138dcad" x="249.234652" y="246.524437" style="fill: #b22222; stroke: #b22222"/>
     <use xlink:href="#ma65138dcad" x="327.351111" y="214.787876" style="fill: #b22222; stroke: #b22222"/>
     <use xlink:href="#ma65138dcad" x="247.761117" y="249.916797" style="fill: #b22222; stroke: #b22222"/>
     <use xlink:href="#ma65138dcad" x="233.099172" y="234.153332" style="fill: #b22222; stroke: #b22222"/>
     <use xlink:href="#ma65138dcad" x="249.792223" y="245.216575" style="fill: #b22222; stroke: #b22222"/>
     <use xlink:href="#ma65138dcad" x="241.608999" y="239.428225" style="fill: #b22222; stroke: #b22222"/>
     <use xlink:href="#ma65138dcad" x="246.521439" y="251.313818" style="fill: #b22222; stroke: #b22222"/>
     <use xlink:href="#ma65138dcad" x="258.781214" y="252.927488" style="fill: #b22222; stroke: #b22222"/>
     <use xlink:href="#ma65138dcad" x="304.04487" y="219.566905" style="fill: #b22222; stroke: #b22222"/>
     <use xlink:href="#ma65138dcad" x="268.304408" y="250.981044" style="fill: #b22222; stroke: #b22222"/>
     <use xlink:href="#ma65138dcad" x="357.935367" y="202.557915" style="fill: #b22222; stroke: #b22222"/>
     <use xlink:href="#ma65138dcad" x="247.665092" y="207.228395" style="fill: #b22222; stroke: #b22222"/>
     <use xlink:href="#ma65138dcad" x="241.745099" y="247.970964" style="fill: #b22222; stroke: #b22222"/>
     <use xlink:href="#ma65138dcad" x="235.751143" y="239.846022" style="fill: #b22222; stroke: #b22222"/>
     <use xlink:href="#ma65138dcad" x="262.786526" y="242.507659" style="fill: #b22222; stroke: #b22222"/>
     <use xlink:href="#ma65138dcad" x="234.665102" y="223.306759" style="fill: #b22222; stroke: #b22222"/>
     <use xlink:href="#ma65138dcad" x="242.620329" y="253.746142" style="fill: #b22222; stroke: #b22222"/>
     <use xlink:href="#ma65138dcad" x="283.62101" y="266.212926" style="fill: #b22222; stroke: #b22222"/>
     <use xlink:href="#ma65138dcad" x="237.828031" y="233.748744" style="fill: #b22222; stroke: #b22222"/>
     <use xlink:href="#ma65138dcad" x="236.808252" y="245.005757" style="fill: #b22222; stroke: #b22222"/>
     <use xlink:href="#ma65138dcad" x="245.211543" y="248.737662" style="fill: #b22222; stroke: #b22222"/>
     <use xlink:href="#ma65138dcad" x="238.761399" y="244.047099" style="fill: #b22222; stroke: #b22222"/>
     <use xlink:href="#ma65138dcad" x="261.197402" y="263.582642" style="fill: #b22222; stroke: #b22222"/>
     <use xlink:href="#ma65138dcad" x="235.476376" y="218.35614" style="fill: #b22222; stroke: #b22222"/>
     <use xlink:href="#ma65138dcad" x="245.351609" y="245.854697" style="fill: #b22222; stroke: #b22222"/>
     <use xlink:href="#ma65138dcad" x="276.528665" y="234.683137" style="fill: #b22222; stroke: #b22222"/>
     <use xlink:href="#ma65138dcad" x="231.278961" y="238.866575" style="fill: #b22222; stroke: #b22222"/>
     <use xlink:href="#ma65138dcad" x="248.417041" y="247.668983" style="fill: #b22222; stroke: #b22222"/>
     <use xlink:href="#ma65138dcad" x="243.367906" y="240.723738" style="fill: #b22222; stroke: #b22222"/>
     <use xlink:href="#ma65138dcad" x="251.199382" y="249.962776" style="fill: #b22222; stroke: #b22222"/>
     <use xlink:href="#ma65138dcad" x="229.929513" y="243.663217" style="fill: #b22222; stroke: #b22222"/>
     <use xlink:href="#ma65138dcad" x="237.362855" y="241.935009" style="fill: #b22222; stroke: #b22222"/>
     <use xlink:href="#ma65138dcad" x="242.493789" y="244.272299" style="fill: #b22222; stroke: #b22222"/>
     <use xlink:href="#ma65138dcad" x="244.831524" y="238.276346" style="fill: #b22222; stroke: #b22222"/>
     <use xlink:href="#ma65138dcad" x="246.549521" y="239.409787" style="fill: #b22222; stroke: #b22222"/>
     <use xlink:href="#ma65138dcad" x="259.297423" y="252.695873" style="fill: #b22222; stroke: #b22222"/>
     <use xlink:href="#ma65138dcad" x="329.671747" y="218.979199" style="fill: #b22222; stroke: #b22222"/>
     <use xlink:href="#ma65138dcad" x="243.54233" y="250.190097" style="fill: #b22222; stroke: #b22222"/>
     <use xlink:href="#ma65138dcad" x="239.821059" y="238.140858" style="fill: #b22222; stroke: #b22222"/>
     <use xlink:href="#ma65138dcad" x="256.209206" y="213.213027" style="fill: #b22222; stroke: #b22222"/>
     <use xlink:href="#ma65138dcad" x="247.915526" y="217.851629" style="fill: #b22222; stroke: #b22222"/>
     <use xlink:href="#ma65138dcad" x="246.88505" y="243.509992" style="fill: #b22222; stroke: #b22222"/>
     <use xlink:href="#ma65138dcad" x="225.635309" y="220.27236" style="fill: #b22222; stroke: #b22222"/>
     <use xlink:href="#ma65138dcad" x="251.997546" y="253.108673" style="fill: #b22222; stroke: #b22222"/>
     <use xlink:href="#ma65138dcad" x="232.368768" y="235.433163" style="fill: #b22222; stroke: #b22222"/>
     <use xlink:href="#ma65138dcad" x="244.541107" y="253.965849" style="fill: #b22222; stroke: #b22222"/>
     <use xlink:href="#ma65138dcad" x="235.921022" y="241.488836" style="fill: #b22222; stroke: #b22222"/>
     <use xlink:href="#ma65138dcad" x="246.570064" y="250.379422" style="fill: #b22222; stroke: #b22222"/>
     <use xlink:href="#ma65138dcad" x="247.509657" y="267.263748" style="fill: #b22222; stroke: #b22222"/>
     <use xlink:href="#ma65138dcad" x="255.478281" y="256.086351" style="fill: #b22222; stroke: #b22222"/>
     <use xlink:href="#ma65138dcad" x="245.161115" y="248.09496" style="fill: #b22222; stroke: #b22222"/>
     <use xlink:href="#ma65138dcad" x="278.820441" y="212.505055" style="fill: #b22222; stroke: #b22222"/>
     <use xlink:href="#ma65138dcad" x="218.176825" y="285.260782" style="fill: #b22222; stroke: #b22222"/>
     <use xlink:href="#ma65138dcad" x="251.069837" y="250.064151" style="fill: #b22222; stroke: #b22222"/>
     <use xlink:href="#ma65138dcad" x="248.983294" y="243.3381" style="fill: #b22222; stroke: #b22222"/>
     <use xlink:href="#ma65138dcad" x="374.224257" y="199.651839" style="fill: #b22222; stroke: #b22222"/>
     <use xlink:href="#ma65138dcad" x="231.22368" y="233.036066" style="fill: #b22222; stroke: #b22222"/>
     <use xlink:href="#ma65138dcad" x="229.544316" y="241.217501" style="fill: #b22222; stroke: #b22222"/>
     <use xlink:href="#ma65138dcad" x="245.780528" y="252.080703" style="fill: #b22222; stroke: #b22222"/>
    </g>
   </g>
   <g id="patch_4">
    <path d="M 56.450156 450.72 
L 56.450156 7.2 
" style="fill: none; stroke: #ffffff; stroke-width: 1.25; stroke-linejoin: miter; stroke-linecap: square"/>
   </g>
   <g id="patch_5">
    <path d="M 499.970156 450.72 
L 499.970156 7.2 
" style="fill: none; stroke: #ffffff; stroke-width: 1.25; stroke-linejoin: miter; stroke-linecap: square"/>
   </g>
   <g id="patch_6">
    <path d="M 56.450156 450.72 
L 499.970156 450.72 
" style="fill: none; stroke: #ffffff; stroke-width: 1.25; stroke-linejoin: miter; stroke-linecap: square"/>
   </g>
   <g id="patch_7">
    <path d="M 56.450156 7.2 
L 499.970156 7.2 
" style="fill: none; stroke: #ffffff; stroke-width: 1.25; stroke-linejoin: miter; stroke-linecap: square"/>
   </g>
   <g id="text_13">
    <!-- t = 4600 -->
    <g style="fill: #262626" transform="translate(65.320556 24.659775) scale(0.12 -0.12)">
     <defs>
      <path id="ArialMT-74" d="M 1650 503 
L 1731 6 
Q 1494 -44 1306 -44 
Q 1000 -44 831 53 
Q 663 150 594 308 
Q 525 466 525 972 
L 525 2881 
L 113 2881 
L 113 3319 
L 525 3319 
L 525 4141 
L 1084 4478 
L 1084 3319 
L 1650 3319 
L 1650 2881 
L 1084 2881 
L 1084 941 
Q 1084 700 1114 631 
Q 1144 563 1211 522 
Q 1278 481 1403 481 
Q 1497 481 1650 503 
z
" transform="scale(0.015625)"/>
      <path id="ArialMT-20" transform="scale(0.015625)"/>
      <path id="ArialMT-3d" d="M 3381 2694 
L 356 2694 
L 356 3219 
L 3381 3219 
L 3381 2694 
z
M 3381 1303 
L 356 1303 
L 356 1828 
L 3381 1828 
L 3381 1303 
z
" transform="scale(0.015625)"/>
      <path id="ArialMT-36" d="M 3184 3459 
L 2625 3416 
Q 2550 3747 2413 3897 
Q 2184 4138 1850 4138 
Q 1581 4138 1378 3988 
Q 1113 3794 959 3422 
Q 806 3050 800 2363 
Q 1003 2672 1297 2822 
Q 1591 2972 1913 2972 
Q 2475 2972 2870 2558 
Q 3266 2144 3266 1488 
Q 3266 1056 3080 686 
Q 2894 316 2569 119 
Q 2244 -78 1831 -78 
Q 1128 -78 684 439 
Q 241 956 241 2144 
Q 241 3472 731 4075 
Q 1159 4600 1884 4600 
Q 2425 4600 2770 4297 
Q 3116 3994 3184 3459 
z
M 888 1484 
Q 888 1194 1011 928 
Q 1134 663 1356 523 
Q 1578 384 1822 384 
Q 2178 384 2434 671 
Q 2691 959 2691 1453 
Q 2691 1928 2437 2201 
Q 2184 2475 1800 2475 
Q 1419 2475 1153 2201 
Q 888 1928 888 1484 
z
" transform="scale(0.015625)"/>
     </defs>
     <use xlink:href="#ArialMT-74"/>
     <use xlink:href="#ArialMT-20" x="27.783203"/>
     <use xlink:href="#ArialMT-3d" x="55.566406"/>
     <use xlink:href="#ArialMT-20" x="113.964844"/>
     <use xlink:href="#ArialMT-34" x="141.748047"/>
     <use xlink:href="#ArialMT-36" x="197.363281"/>
     <use xlink:href="#ArialMT-30" x="252.978516"/>
     <use xlink:href="#ArialMT-30" x="308.59375"/>
    </g>
   </g>
   <g id="legend_1">
    <g id="patch_8">
     <path d="M 328.111406 94.59 
L 483.170156 94.59 
Q 487.970156 94.59 487.970156 89.79 
L 487.970156 24 
Q 487.970156 19.2 483.170156 19.2 
L 328.111406 19.2 
Q 323.311406 19.2 323.311406 24 
L 323.311406 89.79 
Q 323.311406 94.59 328.111406 94.59 
z
" style="fill: #eaeaf2; opacity: 0.8; stroke: #cccccc; stroke-linejoin: miter"/>
    </g>
    <g id="PathCollection_3">
     <g>
      <use xlink:href="#m2e77ea27a8" x="356.911406" y="39.97125" style="fill: #4169e1; stroke: #4169e1"/>
     </g>
    </g>
    <g id="text_14">
     <!-- Sheep -->
     <g style="fill: #262626" transform="translate(400.111406 46.27125) scale(0.24 -0.24)">
      <defs>
       <path id="ArialMT-53" d="M 288 1472 
L 859 1522 
Q 900 1178 1048 958 
Q 1197 738 1509 602 
Q 1822 466 2213 466 
Q 2559 466 2825 569 
Q 3091 672 3220 851 
Q 3350 1031 3350 1244 
Q 3350 1459 3225 1620 
Q 3100 1781 2813 1891 
Q 2628 1963 1997 2114 
Q 1366 2266 1113 2400 
Q 784 2572 623 2826 
Q 463 3081 463 3397 
Q 463 3744 659 4045 
Q 856 4347 1234 4503 
Q 1613 4659 2075 4659 
Q 2584 4659 2973 4495 
Q 3363 4331 3572 4012 
Q 3781 3694 3797 3291 
L 3216 3247 
Q 3169 3681 2898 3903 
Q 2628 4125 2100 4125 
Q 1550 4125 1298 3923 
Q 1047 3722 1047 3438 
Q 1047 3191 1225 3031 
Q 1400 2872 2139 2705 
Q 2878 2538 3153 2413 
Q 3553 2228 3743 1945 
Q 3934 1663 3934 1294 
Q 3934 928 3725 604 
Q 3516 281 3123 101 
Q 2731 -78 2241 -78 
Q 1619 -78 1198 103 
Q 778 284 539 648 
Q 300 1013 288 1472 
z
" transform="scale(0.015625)"/>
       <path id="ArialMT-68" d="M 422 0 
L 422 4581 
L 984 4581 
L 984 2938 
Q 1378 3394 1978 3394 
Q 2347 3394 2619 3248 
Q 2891 3103 3008 2847 
Q 3125 2591 3125 2103 
L 3125 0 
L 2563 0 
L 2563 2103 
Q 2563 2525 2380 2717 
Q 2197 2909 1863 2909 
Q 1613 2909 1392 2779 
Q 1172 2650 1078 2428 
Q 984 2206 984 1816 
L 984 0 
L 422 0 
z
" transform="scale(0.015625)"/>
       <path id="ArialMT-65" d="M 2694 1069 
L 3275 997 
Q 3138 488 2766 206 
Q 2394 -75 1816 -75 
Q 1088 -75 661 373 
Q 234 822 234 1631 
Q 234 2469 665 2931 
Q 1097 3394 1784 3394 
Q 2450 3394 2872 2941 
Q 3294 2488 3294 1666 
Q 3294 1616 3291 1516 
L 816 1516 
Q 847 969 1125 678 
Q 1403 388 1819 388 
Q 2128 388 2347 550 
Q 2566 713 2694 1069 
z
M 847 1978 
L 2700 1978 
Q 2663 2397 2488 2606 
Q 2219 2931 1791 2931 
Q 1403 2931 1139 2672 
Q 875 2413 847 1978 
z
" transform="scale(0.015625)"/>
       <path id="ArialMT-70" d="M 422 -1272 
L 422 3319 
L 934 3319 
L 934 2888 
Q 1116 3141 1344 3267 
Q 1572 3394 1897 3394 
Q 2322 3394 2647 3175 
Q 2972 2956 3137 2557 
Q 3303 2159 3303 1684 
Q 3303 1175 3120 767 
Q 2938 359 2589 142 
Q 2241 -75 1856 -75 
Q 1575 -75 1351 44 
Q 1128 163 984 344 
L 984 -1272 
L 422 -1272 
z
M 931 1641 
Q 931 1000 1190 694 
Q 1450 388 1819 388 
Q 2194 388 2461 705 
Q 2728 1022 2728 1688 
Q 2728 2322 2467 2637 
Q 2206 2953 1844 2953 
Q 1484 2953 1207 2617 
Q 931 2281 931 1641 
z
" transform="scale(0.015625)"/>
      </defs>
      <use xlink:href="#ArialMT-53"/>
      <use xlink:href="#ArialMT-68" x="66.699219"/>
      <use xlink:href="#ArialMT-65" x="122.314453"/>
      <use xlink:href="#ArialMT-65" x="177.929688"/>
      <use xlink:href="#ArialMT-70" x="233.544922"/>
     </g>
    </g>
    <g id="PathCollection_4">
     <g>
      <use xlink:href="#ma65138dcad" x="356.911406" y="73.92" style="fill: #b22222; stroke: #b22222"/>
     </g>
    </g>
    <g id="text_15">
     <!-- Wolves -->
     <g style="fill: #262626" transform="translate(400.111406 80.22) scale(0.24 -0.24)">
      <defs>
       <path id="ArialMT-57" d="M 1294 0 
L 78 4581 
L 700 4581 
L 1397 1578 
Q 1509 1106 1591 641 
Q 1766 1375 1797 1488 
L 2669 4581 
L 3400 4581 
L 4056 2263 
Q 4303 1400 4413 641 
Q 4500 1075 4641 1638 
L 5359 4581 
L 5969 4581 
L 4713 0 
L 4128 0 
L 3163 3491 
Q 3041 3928 3019 4028 
Q 2947 3713 2884 3491 
L 1913 0 
L 1294 0 
z
" transform="scale(0.015625)"/>
       <path id="ArialMT-6f" d="M 213 1659 
Q 213 2581 725 3025 
Q 1153 3394 1769 3394 
Q 2453 3394 2887 2945 
Q 3322 2497 3322 1706 
Q 3322 1066 3130 698 
Q 2938 331 2570 128 
Q 2203 -75 1769 -75 
Q 1072 -75 642 372 
Q 213 819 213 1659 
z
M 791 1659 
Q 791 1022 1069 705 
Q 1347 388 1769 388 
Q 2188 388 2466 706 
Q 2744 1025 2744 1678 
Q 2744 2294 2464 2611 
Q 2184 2928 1769 2928 
Q 1347 2928 1069 2612 
Q 791 2297 791 1659 
z
" transform="scale(0.015625)"/>
       <path id="ArialMT-6c" d="M 409 0 
L 409 4581 
L 972 4581 
L 972 0 
L 409 0 
z
" transform="scale(0.015625)"/>
       <path id="ArialMT-76" d="M 1344 0 
L 81 3319 
L 675 3319 
L 1388 1331 
Q 1503 1009 1600 663 
Q 1675 925 1809 1294 
L 2547 3319 
L 3125 3319 
L 1869 0 
L 1344 0 
z
" transform="scale(0.015625)"/>
       <path id="ArialMT-73" d="M 197 991 
L 753 1078 
Q 800 744 1014 566 
Q 1228 388 1613 388 
Q 2000 388 2187 545 
Q 2375 703 2375 916 
Q 2375 1106 2209 1216 
Q 2094 1291 1634 1406 
Q 1016 1563 777 1677 
Q 538 1791 414 1992 
Q 291 2194 291 2438 
Q 291 2659 392 2848 
Q 494 3038 669 3163 
Q 800 3259 1026 3326 
Q 1253 3394 1513 3394 
Q 1903 3394 2198 3281 
Q 2494 3169 2634 2976 
Q 2775 2784 2828 2463 
L 2278 2388 
Q 2241 2644 2061 2787 
Q 1881 2931 1553 2931 
Q 1166 2931 1000 2803 
Q 834 2675 834 2503 
Q 834 2394 903 2306 
Q 972 2216 1119 2156 
Q 1203 2125 1616 2013 
Q 2213 1853 2448 1751 
Q 2684 1650 2818 1456 
Q 2953 1263 2953 975 
Q 2953 694 2789 445 
Q 2625 197 2315 61 
Q 2006 -75 1616 -75 
Q 969 -75 630 194 
Q 291 463 197 991 
z
" transform="scale(0.015625)"/>
      </defs>
      <use xlink:href="#ArialMT-57"/>
      <use xlink:href="#ArialMT-6f" x="92.634766"/>
      <use xlink:href="#ArialMT-6c" x="148.25"/>
      <use xlink:href="#ArialMT-76" x="170.466797"/>
      <use xlink:href="#ArialMT-65" x="220.466797"/>
      <use xlink:href="#ArialMT-73" x="276.082031"/>
     </g>
    </g>
   </g>
  </g>
 </g>
 <defs>
  <clipPath id="p2e4aa8c2e0">
   <rect x="56.450156" y="7.2" width="443.52" height="443.52"/>
  </clipPath>
 </defs>
</svg>
