<?xml version="1.0" encoding="utf-8" standalone="no"?>
<!DOCTYPE svg PUBLIC "-//W3C//DTD SVG 1.1//EN"
  "http://www.w3.org/Graphics/SVG/1.1/DTD/svg11.dtd">
<svg xmlns:xlink="http://www.w3.org/1999/xlink" width="507.170156pt" height="492.454219pt" viewBox="0 0 507.170156 492.454219" xmlns="http://www.w3.org/2000/svg" version="1.1">
 <metadata>
  <rdf:RDF xmlns:dc="http://purl.org/dc/elements/1.1/" xmlns:cc="http://creativecommons.org/ns#" xmlns:rdf="http://www.w3.org/1999/02/22-rdf-syntax-ns#">
   <cc:Work>
    <dc:type rdf:resource="http://purl.org/dc/dcmitype/StillImage"/>
    <dc:date>2026-05-12T10:43:21.031765</dc:date>
    <dc:format>image/svg+xml</dc:format>
    <dc:creator>
     <cc:Agent>
      <dc:title>Matplotlib v3.7.1, https://matplotlib.org/</dc:title>
     </cc:Agent>
    </dc:creator>
   </cc:Work>
  </rdf:RDF>
 </metadata>
 <defs>
  <style type="text/css">*{stroke-linejoin: round; stroke-linecap: butt}</style>
 </defs>
 <g id="figure_1">
  <g id="patch_1">
   <path d="M 0 492.454219 
L 507.170156 492.454219 
L 507.170156 0 
L 0 0 
z
" style="fill: #ffffff"/>
  </g>
  <g id="axes_1">
   <g id="patch_2">
    <path d="M 56.450156 450.72 
L 499.970156 450.72 
L 499.970156 7.2 
L 56.450156 7.2 
z
" style="fill: #eaeaf2"/>
   </g>
   <g id="matplotlib.axis_1">
    <g id="xtick_1">
     <g id="line2d_1">
      <path d="M 100.802156 450.72 
L 100.802156 7.2 
" clip-path="url(#p8c0cd4e00e)" style="fill: none; stroke: #ffffff; stroke-linecap: round"/>
     </g>
     <g id="text_1">
      <!-- −400 -->
      <g style="fill: #262626" transform="translate(88.414266 468.093594) scale(0.11 -0.11)">
       <defs>
        <path id="ArialMT-2212" d="M 3381 1997 
L 356 1997 
L 356 2522 
L 3381 2522 
L 3381 1997 
z
" transform="scale(0.015625)"/>
        <path id="ArialMT-34" d="M 2069 0 
L 2069 1097 
L 81 1097 
L 81 1613 
L 2172 4581 
L 2631 4581 
L 2631 1613 
L 3250 1613 
L 3250 1097 
L 2631 1097 
L 2631 0 
L 2069 0 
z
M 2069 1613 
L 2069 3678 
L 634 1613 
L 2069 1613 
z
" transform="scale(0.015625)"/>
        <path id="ArialMT-30" d="M 266 2259 
Q 266 3072 433 3567 
Q 600 4063 929 4331 
Q 1259 4600 1759 4600 
Q 2128 4600 2406 4451 
Q 2684 4303 2865 4023 
Q 3047 3744 3150 3342 
Q 3253 2941 3253 2259 
Q 3253 1453 3087 958 
Q 2922 463 2592 192 
Q 2263 -78 1759 -78 
Q 1097 -78 719 397 
Q 266 969 266 2259 
z
M 844 2259 
Q 844 1131 1108 757 
Q 1372 384 1759 384 
Q 2147 384 2411 759 
Q 2675 1134 2675 2259 
Q 2675 3391 2411 3762 
Q 2147 4134 1753 4134 
Q 1366 4134 1134 3806 
Q 844 3388 844 2259 
z
" transform="scale(0.015625)"/>
       </defs>
       <use xlink:href="#ArialMT-2212"/>
       <use xlink:href="#ArialMT-34" x="58.398438"/>
       <use xlink:href="#ArialMT-30" x="114.013672"/>
       <use xlink:href="#ArialMT-30" x="169.628906"/>
      </g>
     </g>
    </g>
    <g id="xtick_2">
     <g id="line2d_2">
      <path d="M 189.506156 450.72 
L 189.506156 7.2 
" clip-path="url(#p8c0cd4e00e)" style="fill: none; stroke: #ffffff; stroke-linecap: round"/>
     </g>
     <g id="text_2">
      <!-- −200 -->
      <g style="fill: #262626" transform="translate(177.118266 468.093594) scale(0.11 -0.11)">
       <defs>
        <path id="ArialMT-32" d="M 3222 541 
L 3222 0 
L 194 0 
Q 188 203 259 391 
Q 375 700 629 1000 
Q 884 1300 1366 1694 
Q 2113 2306 2375 2664 
Q 2638 3022 2638 3341 
Q 2638 3675 2398 3904 
Q 2159 4134 1775 4134 
Q 1369 4134 1125 3890 
Q 881 3647 878 3216 
L 300 3275 
Q 359 3922 746 4261 
Q 1134 4600 1788 4600 
Q 2447 4600 2831 4234 
Q 3216 3869 3216 3328 
Q 3216 3053 3103 2787 
Q 2991 2522 2730 2228 
Q 2469 1934 1863 1422 
Q 1356 997 1212 845 
Q 1069 694 975 541 
L 3222 541 
z
" transform="scale(0.015625)"/>
       </defs>
       <use xlink:href="#ArialMT-2212"/>
       <use xlink:href="#ArialMT-32" x="58.398438"/>
       <use xlink:href="#ArialMT-30" x="114.013672"/>
       <use xlink:href="#ArialMT-30" x="169.628906"/>
      </g>
     </g>
    </g>
    <g id="xtick_3">
     <g id="line2d_3">
      <path d="M 278.210156 450.72 
L 278.210156 7.2 
" clip-path="url(#p8c0cd4e00e)" style="fill: none; stroke: #ffffff; stroke-linecap: round"/>
     </g>
     <g id="text_3">
      <!-- 0 -->
      <g style="fill: #262626" transform="translate(275.151641 468.093594) scale(0.11 -0.11)">
       <use xlink:href="#ArialMT-30"/>
      </g>
     </g>
    </g>
    <g id="xtick_4">
     <g id="line2d_4">
      <path d="M 366.914156 450.72 
L 366.914156 7.2 
" clip-path="url(#p8c0cd4e00e)" style="fill: none; stroke: #ffffff; stroke-linecap: round"/>
     </g>
     <g id="text_4">
      <!-- 200 -->
      <g style="fill: #262626" transform="translate(357.738609 468.093594) scale(0.11 -0.11)">
       <use xlink:href="#ArialMT-32"/>
       <use xlink:href="#ArialMT-30" x="55.615234"/>
       <use xlink:href="#ArialMT-30" x="111.230469"/>
      </g>
     </g>
    </g>
    <g id="xtick_5">
     <g id="line2d_5">
      <path d="M 455.618156 450.72 
L 455.618156 7.2 
" clip-path="url(#p8c0cd4e00e)" style="fill: none; stroke: #ffffff; stroke-linecap: round"/>
     </g>
     <g id="text_5">
      <!-- 400 -->
      <g style="fill: #262626" transform="translate(446.442609 468.093594) scale(0.11 -0.11)">
       <use xlink:href="#ArialMT-34"/>
       <use xlink:href="#ArialMT-30" x="55.615234"/>
       <use xlink:href="#ArialMT-30" x="111.230469"/>
      </g>
     </g>
    </g>
    <g id="text_6">
     <!-- x -->
     <g style="fill: #262626" transform="translate(275.210156 482.869219) scale(0.12 -0.12)">
      <defs>
       <path id="ArialMT-78" d="M 47 0 
L 1259 1725 
L 138 3319 
L 841 3319 
L 1350 2541 
Q 1494 2319 1581 2169 
Q 1719 2375 1834 2534 
L 2394 3319 
L 3066 3319 
L 1919 1756 
L 3153 0 
L 2463 0 
L 1781 1031 
L 1600 1309 
L 728 0 
L 47 0 
z
" transform="scale(0.015625)"/>
      </defs>
      <use xlink:href="#ArialMT-78"/>
     </g>
    </g>
   </g>
   <g id="matplotlib.axis_2">
    <g id="ytick_1">
     <g id="line2d_6">
      <path d="M 56.450156 406.368 
L 499.970156 406.368 
" clip-path="url(#p8c0cd4e00e)" style="fill: none; stroke: #ffffff; stroke-linecap: round"/>
     </g>
     <g id="text_7">
      <!-- −400 -->
      <g style="fill: #262626" transform="translate(22.174375 410.304797) scale(0.11 -0.11)">
       <use xlink:href="#ArialMT-2212"/>
       <use xlink:href="#ArialMT-34" x="58.398438"/>
       <use xlink:href="#ArialMT-30" x="114.013672"/>
       <use xlink:href="#ArialMT-30" x="169.628906"/>
      </g>
     </g>
    </g>
    <g id="ytick_2">
     <g id="line2d_7">
      <path d="M 56.450156 317.664 
L 499.970156 317.664 
" clip-path="url(#p8c0cd4e00e)" style="fill: none; stroke: #ffffff; stroke-linecap: round"/>
     </g>
     <g id="text_8">
      <!-- −200 -->
      <g style="fill: #262626" transform="translate(22.174375 321.600797) scale(0.11 -0.11)">
       <use xlink:href="#ArialMT-2212"/>
       <use xlink:href="#ArialMT-32" x="58.398438"/>
       <use xlink:href="#ArialMT-30" x="114.013672"/>
       <use xlink:href="#ArialMT-30" x="169.628906"/>
      </g>
     </g>
    </g>
    <g id="ytick_3">
     <g id="line2d_8">
      <path d="M 56.450156 228.96 
L 499.970156 228.96 
" clip-path="url(#p8c0cd4e00e)" style="fill: none; stroke: #ffffff; stroke-linecap: round"/>
     </g>
     <g id="text_9">
      <!-- 0 -->
      <g style="fill: #262626" transform="translate(40.833125 232.896797) scale(0.11 -0.11)">
       <use xlink:href="#ArialMT-30"/>
      </g>
     </g>
    </g>
    <g id="ytick_4">
     <g id="line2d_9">
      <path d="M 56.450156 140.256 
L 499.970156 140.256 
" clip-path="url(#p8c0cd4e00e)" style="fill: none; stroke: #ffffff; stroke-linecap: round"/>
     </g>
     <g id="text_10">
      <!-- 200 -->
      <g style="fill: #262626" transform="translate(28.599063 144.192797) scale(0.11 -0.11)">
       <use xlink:href="#ArialMT-32"/>
       <use xlink:href="#ArialMT-30" x="55.615234"/>
       <use xlink:href="#ArialMT-30" x="111.230469"/>
      </g>
     </g>
    </g>
    <g id="ytick_5">
     <g id="line2d_10">
      <path d="M 56.450156 51.552 
L 499.970156 51.552 
" clip-path="url(#p8c0cd4e00e)" style="fill: none; stroke: #ffffff; stroke-linecap: round"/>
     </g>
     <g id="text_11">
      <!-- 400 -->
      <g style="fill: #262626" transform="translate(28.599063 55.488797) scale(0.11 -0.11)">
       <use xlink:href="#ArialMT-34"/>
       <use xlink:href="#ArialMT-30" x="55.615234"/>
       <use xlink:href="#ArialMT-30" x="111.230469"/>
      </g>
     </g>
    </g>
    <g id="text_12">
     <!-- y -->
     <g style="fill: #262626" transform="translate(15.64875 231.96) rotate(-90) scale(0.12 -0.12)">
      <defs>
       <path id="ArialMT-79" d="M 397 -1278 
L 334 -750 
Q 519 -800 656 -800 
Q 844 -800 956 -737 
Q 1069 -675 1141 -563 
Q 1194 -478 1313 -144 
Q 1328 -97 1363 -6 
L 103 3319 
L 709 3319 
L 1400 1397 
Q 1534 1031 1641 628 
Q 1738 1016 1872 1384 
L 2581 3319 
L 3144 3319 
L 1881 -56 
Q 1678 -603 1566 -809 
Q 1416 -1088 1222 -1217 
Q 1028 -1347 759 -1347 
Q 597 -1347 397 -1278 
z
" transform="scale(0.015625)"/>
      </defs>
      <use xlink:href="#ArialMT-79"/>
     </g>
    </g>
   </g>
   <g id="patch_3">
    <path d="M 278.210156 317.664 
C 301.734732 317.664 324.298969 308.317587 340.933356 291.6832 
C 357.567743 275.048813 366.914156 252.484576 366.914156 228.96 
C 366.914156 205.435424 357.567743 182.871187 340.933356 166.2368 
C 324.298969 149.602413 301.734732 140.256 278.210156 140.256 
C 254.68558 140.256 232.121343 149.602413 215.486956 166.2368 
C 198.852569 182.871187 189.506156 205.435424 189.506156 228.96 
C 189.506156 252.484576 198.852569 275.048813 215.486956 291.6832 
C 232.121343 308.317587 254.68558 317.664 278.210156 317.664 
z
" clip-path="url(#p8c0cd4e00e)" style="fill: #228b22; opacity: 0.12; stroke: #228b22; stroke-width: 1.5; stroke-linejoin: miter"/>
   </g>
   <g id="PathCollection_1">
    <defs>
     <path id="m492114a4fa" d="M 0 2.236068 
C 0.593012 2.236068 1.161816 2.000462 1.581139 1.581139 
C 2.000462 1.161816 2.236068 0.593012 2.236068 0 
C 2.236068 -0.593012 2.000462 -1.161816 1.581139 -1.581139 
C 1.161816 -2.000462 0.593012 -2.236068 0 -2.236068 
C -0.593012 -2.236068 -1.161816 -2.000462 -1.581139 -1.581139 
C -2.000462 -1.161816 -2.236068 -0.593012 -2.236068 0 
C -2.236068 0.593012 -2.000462 1.161816 -1.581139 1.581139 
C -1.161816 2.000462 -0.593012 2.236068 0 2.236068 
z
" style="stroke: #4169e1"/>
    </defs>
    <g clip-path="url(#p8c0cd4e00e)">
     <use xlink:href="#m492114a4fa" x="345.119475" y="129.605991" style="fill: #4169e1; stroke: #4169e1"/>
     <use xlink:href="#m492114a4fa" x="391.457719" y="193.566852" style="fill: #4169e1; stroke: #4169e1"/>
     <use xlink:href="#m492114a4fa" x="225.122566" y="174.80182" style="fill: #4169e1; stroke: #4169e1"/>
     <use xlink:href="#m492114a4fa" x="372.617973" y="202.923347" style="fill: #4169e1; stroke: #4169e1"/>
     <use xlink:href="#m492114a4fa" x="370.314012" y="168.134524" style="fill: #4169e1; stroke: #4169e1"/>
     <use xlink:href="#m492114a4fa" x="364.162256" y="311.51958" style="fill: #4169e1; stroke: #4169e1"/>
     <use xlink:href="#m492114a4fa" x="239.564277" y="263.222908" style="fill: #4169e1; stroke: #4169e1"/>
     <use xlink:href="#m492114a4fa" x="422.067441" y="80.612996" style="fill: #4169e1; stroke: #4169e1"/>
     <use xlink:href="#m492114a4fa" x="342.288564" y="120.368754" style="fill: #4169e1; stroke: #4169e1"/>
     <use xlink:href="#m492114a4fa" x="332.541992" y="208.075464" style="fill: #4169e1; stroke: #4169e1"/>
     <use xlink:href="#m492114a4fa" x="324.492236" y="166.122414" style="fill: #4169e1; stroke: #4169e1"/>
     <use xlink:href="#m492114a4fa" x="413.664599" y="191.227277" style="fill: #4169e1; stroke: #4169e1"/>
     <use xlink:href="#m492114a4fa" x="409.712131" y="88.576784" style="fill: #4169e1; stroke: #4169e1"/>
     <use xlink:href="#m492114a4fa" x="278.242514" y="204.032633" style="fill: #4169e1; stroke: #4169e1"/>
     <use xlink:href="#m492114a4fa" x="369.962145" y="109.729012" style="fill: #4169e1; stroke: #4169e1"/>
     <use xlink:href="#m492114a4fa" x="432.539957" y="161.206189" style="fill: #4169e1; stroke: #4169e1"/>
     <use xlink:href="#m492114a4fa" x="382.504788" y="336.55742" style="fill: #4169e1; stroke: #4169e1"/>
     <use xlink:href="#m492114a4fa" x="397.374416" y="243.804899" style="fill: #4169e1; stroke: #4169e1"/>
     <use xlink:href="#m492114a4fa" x="228.107823" y="202.450266" style="fill: #4169e1; stroke: #4169e1"/>
     <use xlink:href="#m492114a4fa" x="351.100742" y="173.010016" style="fill: #4169e1; stroke: #4169e1"/>
     <use xlink:href="#m492114a4fa" x="247.353083" y="160.90604" style="fill: #4169e1; stroke: #4169e1"/>
     <use xlink:href="#m492114a4fa" x="443.353261" y="170.688208" style="fill: #4169e1; stroke: #4169e1"/>
     <use xlink:href="#m492114a4fa" x="315.372833" y="277.415785" style="fill: #4169e1; stroke: #4169e1"/>
     <use xlink:href="#m492114a4fa" x="300.609219" y="276.449253" style="fill: #4169e1; stroke: #4169e1"/>
     <use xlink:href="#m492114a4fa" x="290.021255" y="242.69077" style="fill: #4169e1; stroke: #4169e1"/>
     <use xlink:href="#m492114a4fa" x="382.055002" y="212.88709" style="fill: #4169e1; stroke: #4169e1"/>
     <use xlink:href="#m492114a4fa" x="336.09041" y="274.487857" style="fill: #4169e1; stroke: #4169e1"/>
     <use xlink:href="#m492114a4fa" x="238.580352" y="270.36873" style="fill: #4169e1; stroke: #4169e1"/>
     <use xlink:href="#m492114a4fa" x="180.966075" y="151.247731" style="fill: #4169e1; stroke: #4169e1"/>
     <use xlink:href="#m492114a4fa" x="368.944565" y="213.758253" style="fill: #4169e1; stroke: #4169e1"/>
     <use xlink:href="#m492114a4fa" x="165.495412" y="173.214684" style="fill: #4169e1; stroke: #4169e1"/>
     <use xlink:href="#m492114a4fa" x="364.943566" y="198.225697" style="fill: #4169e1; stroke: #4169e1"/>
     <use xlink:href="#m492114a4fa" x="243.019894" y="245.256734" style="fill: #4169e1; stroke: #4169e1"/>
     <use xlink:href="#m492114a4fa" x="211.576812" y="134.635966" style="fill: #4169e1; stroke: #4169e1"/>
     <use xlink:href="#m492114a4fa" x="486.917" y="114.335756" style="fill: #4169e1; stroke: #4169e1"/>
     <use xlink:href="#m492114a4fa" x="298.602935" y="286.083672" style="fill: #4169e1; stroke: #4169e1"/>
     <use xlink:href="#m492114a4fa" x="455.236871" y="229.360431" style="fill: #4169e1; stroke: #4169e1"/>
     <use xlink:href="#m492114a4fa" x="215.854585" y="121.864964" style="fill: #4169e1; stroke: #4169e1"/>
     <use xlink:href="#m492114a4fa" x="273.350167" y="216.798951" style="fill: #4169e1; stroke: #4169e1"/>
     <use xlink:href="#m492114a4fa" x="210.420835" y="295.69634" style="fill: #4169e1; stroke: #4169e1"/>
     <use xlink:href="#m492114a4fa" x="380.416679" y="178.980275" style="fill: #4169e1; stroke: #4169e1"/>
     <use xlink:href="#m492114a4fa" x="473.394838" y="104.307464" style="fill: #4169e1; stroke: #4169e1"/>
     <use xlink:href="#m492114a4fa" x="235.684066" y="201.009183" style="fill: #4169e1; stroke: #4169e1"/>
     <use xlink:href="#m492114a4fa" x="186.327039" y="181.301429" style="fill: #4169e1; stroke: #4169e1"/>
     <use xlink:href="#m492114a4fa" x="246.843284" y="294.215573" style="fill: #4169e1; stroke: #4169e1"/>
     <use xlink:href="#m492114a4fa" x="272.685947" y="168.619197" style="fill: #4169e1; stroke: #4169e1"/>
     <use xlink:href="#m492114a4fa" x="267.10193" y="161.820387" style="fill: #4169e1; stroke: #4169e1"/>
     <use xlink:href="#m492114a4fa" x="309.366644" y="234.693688" style="fill: #4169e1; stroke: #4169e1"/>
     <use xlink:href="#m492114a4fa" x="268.773799" y="246.373649" style="fill: #4169e1; stroke: #4169e1"/>
     <use xlink:href="#m492114a4fa" x="350.340317" y="319.846666" style="fill: #4169e1; stroke: #4169e1"/>
     <use xlink:href="#m492114a4fa" x="425.32113" y="228.693342" style="fill: #4169e1; stroke: #4169e1"/>
     <use xlink:href="#m492114a4fa" x="488.303258" y="275.053267" style="fill: #4169e1; stroke: #4169e1"/>
     <use xlink:href="#m492114a4fa" x="209.489285" y="165.276887" style="fill: #4169e1; stroke: #4169e1"/>
     <use xlink:href="#m492114a4fa" x="239.400035" y="299.998774" style="fill: #4169e1; stroke: #4169e1"/>
     <use xlink:href="#m492114a4fa" x="183.371232" y="210.930052" style="fill: #4169e1; stroke: #4169e1"/>
     <use xlink:href="#m492114a4fa" x="287.03484" y="303.228289" style="fill: #4169e1; stroke: #4169e1"/>
     <use xlink:href="#m492114a4fa" x="342.230383" y="181.658195" style="fill: #4169e1; stroke: #4169e1"/>
     <use xlink:href="#m492114a4fa" x="267.804434" y="145.915678" style="fill: #4169e1; stroke: #4169e1"/>
     <use xlink:href="#m492114a4fa" x="285.02951" y="148.537039" style="fill: #4169e1; stroke: #4169e1"/>
     <use xlink:href="#m492114a4fa" x="252.459809" y="284.964223" style="fill: #4169e1; stroke: #4169e1"/>
     <use xlink:href="#m492114a4fa" x="485.369499" y="185.856215" style="fill: #4169e1; stroke: #4169e1"/>
     <use xlink:href="#m492114a4fa" x="356.860614" y="296.57285" style="fill: #4169e1; stroke: #4169e1"/>
     <use xlink:href="#m492114a4fa" x="436.485577" y="127.078084" style="fill: #4169e1; stroke: #4169e1"/>
     <use xlink:href="#m492114a4fa" x="367.097903" y="151.449466" style="fill: #4169e1; stroke: #4169e1"/>
     <use xlink:href="#m492114a4fa" x="273.908826" y="263.869286" style="fill: #4169e1; stroke: #4169e1"/>
     <use xlink:href="#m492114a4fa" x="366.277368" y="218.765517" style="fill: #4169e1; stroke: #4169e1"/>
     <use xlink:href="#m492114a4fa" x="465.40291" y="94.52604" style="fill: #4169e1; stroke: #4169e1"/>
     <use xlink:href="#m492114a4fa" x="217.788874" y="186.970978" style="fill: #4169e1; stroke: #4169e1"/>
     <use xlink:href="#m492114a4fa" x="373.897911" y="256.425006" style="fill: #4169e1; stroke: #4169e1"/>
     <use xlink:href="#m492114a4fa" x="199.22023" y="263.91246" style="fill: #4169e1; stroke: #4169e1"/>
     <use xlink:href="#m492114a4fa" x="441.253011" y="205.134063" style="fill: #4169e1; stroke: #4169e1"/>
     <use xlink:href="#m492114a4fa" x="360.037613" y="293.407031" style="fill: #4169e1; stroke: #4169e1"/>
     <use xlink:href="#m492114a4fa" x="326.421351" y="297.260084" style="fill: #4169e1; stroke: #4169e1"/>
     <use xlink:href="#m492114a4fa" x="275.4474" y="247.449308" style="fill: #4169e1; stroke: #4169e1"/>
     <use xlink:href="#m492114a4fa" x="456.651768" y="156.103597" style="fill: #4169e1; stroke: #4169e1"/>
     <use xlink:href="#m492114a4fa" x="225.805009" y="212.019793" style="fill: #4169e1; stroke: #4169e1"/>
     <use xlink:href="#m492114a4fa" x="294.795808" y="194.963369" style="fill: #4169e1; stroke: #4169e1"/>
     <use xlink:href="#m492114a4fa" x="221.717165" y="119.574017" style="fill: #4169e1; stroke: #4169e1"/>
     <use xlink:href="#m492114a4fa" x="172.049628" y="248.084306" style="fill: #4169e1; stroke: #4169e1"/>
     <use xlink:href="#m492114a4fa" x="414.143" y="219.4288" style="fill: #4169e1; stroke: #4169e1"/>
     <use xlink:href="#m492114a4fa" x="394.912615" y="145.442489" style="fill: #4169e1; stroke: #4169e1"/>
     <use xlink:href="#m492114a4fa" x="288.054897" y="242.965525" style="fill: #4169e1; stroke: #4169e1"/>
     <use xlink:href="#m492114a4fa" x="323.575841" y="85.842263" style="fill: #4169e1; stroke: #4169e1"/>
     <use xlink:href="#m492114a4fa" x="305.251444" y="289.929923" style="fill: #4169e1; stroke: #4169e1"/>
     <use xlink:href="#m492114a4fa" x="334.270828" y="135.240054" style="fill: #4169e1; stroke: #4169e1"/>
     <use xlink:href="#m492114a4fa" x="342.121567" y="103.267558" style="fill: #4169e1; stroke: #4169e1"/>
     <use xlink:href="#m492114a4fa" x="307.77647" y="142.950795" style="fill: #4169e1; stroke: #4169e1"/>
     <use xlink:href="#m492114a4fa" x="395.917803" y="263.518969" style="fill: #4169e1; stroke: #4169e1"/>
     <use xlink:href="#m492114a4fa" x="253.881065" y="238.247796" style="fill: #4169e1; stroke: #4169e1"/>
     <use xlink:href="#m492114a4fa" x="370.949399" y="241.843465" style="fill: #4169e1; stroke: #4169e1"/>
     <use xlink:href="#m492114a4fa" x="349.372188" y="307.970987" style="fill: #4169e1; stroke: #4169e1"/>
     <use xlink:href="#m492114a4fa" x="402.006106" y="204.506221" style="fill: #4169e1; stroke: #4169e1"/>
     <use xlink:href="#m492114a4fa" x="258.237402" y="85.447226" style="fill: #4169e1; stroke: #4169e1"/>
     <use xlink:href="#m492114a4fa" x="459.413834" y="239.142137" style="fill: #4169e1; stroke: #4169e1"/>
     <use xlink:href="#m492114a4fa" x="241.134365" y="164.722676" style="fill: #4169e1; stroke: #4169e1"/>
     <use xlink:href="#m492114a4fa" x="336.097184" y="344.769951" style="fill: #4169e1; stroke: #4169e1"/>
     <use xlink:href="#m492114a4fa" x="206.177131" y="122.454901" style="fill: #4169e1; stroke: #4169e1"/>
     <use xlink:href="#m492114a4fa" x="176.600777" y="222.37431" style="fill: #4169e1; stroke: #4169e1"/>
     <use xlink:href="#m492114a4fa" x="313.302631" y="210.478634" style="fill: #4169e1; stroke: #4169e1"/>
     <use xlink:href="#m492114a4fa" x="240.990209" y="187.353945" style="fill: #4169e1; stroke: #4169e1"/>
     <use xlink:href="#m492114a4fa" x="230.177409" y="258.366007" style="fill: #4169e1; stroke: #4169e1"/>
     <use xlink:href="#m492114a4fa" x="243.747111" y="170.403828" style="fill: #4169e1; stroke: #4169e1"/>
     <use xlink:href="#m492114a4fa" x="379.043125" y="193.848228" style="fill: #4169e1; stroke: #4169e1"/>
     <use xlink:href="#m492114a4fa" x="280.482644" y="290.736199" style="fill: #4169e1; stroke: #4169e1"/>
     <use xlink:href="#m492114a4fa" x="269.867502" y="74.812031" style="fill: #4169e1; stroke: #4169e1"/>
     <use xlink:href="#m492114a4fa" x="329.58873" y="261.892243" style="fill: #4169e1; stroke: #4169e1"/>
     <use xlink:href="#m492114a4fa" x="408.825104" y="86.453646" style="fill: #4169e1; stroke: #4169e1"/>
     <use xlink:href="#m492114a4fa" x="187.633622" y="144.988439" style="fill: #4169e1; stroke: #4169e1"/>
     <use xlink:href="#m492114a4fa" x="331.923067" y="151.442793" style="fill: #4169e1; stroke: #4169e1"/>
     <use xlink:href="#m492114a4fa" x="260.248897" y="151.524721" style="fill: #4169e1; stroke: #4169e1"/>
     <use xlink:href="#m492114a4fa" x="202.439878" y="226.445193" style="fill: #4169e1; stroke: #4169e1"/>
     <use xlink:href="#m492114a4fa" x="287.805222" y="200.317515" style="fill: #4169e1; stroke: #4169e1"/>
     <use xlink:href="#m492114a4fa" x="357.0631" y="220.479934" style="fill: #4169e1; stroke: #4169e1"/>
     <use xlink:href="#m492114a4fa" x="391.349275" y="270.213112" style="fill: #4169e1; stroke: #4169e1"/>
     <use xlink:href="#m492114a4fa" x="463.220123" y="197.448989" style="fill: #4169e1; stroke: #4169e1"/>
     <use xlink:href="#m492114a4fa" x="375.002102" y="289.010737" style="fill: #4169e1; stroke: #4169e1"/>
     <use xlink:href="#m492114a4fa" x="331.892525" y="102.488948" style="fill: #4169e1; stroke: #4169e1"/>
     <use xlink:href="#m492114a4fa" x="233.360844" y="245.862679" style="fill: #4169e1; stroke: #4169e1"/>
     <use xlink:href="#m492114a4fa" x="361.560285" y="51.936601" style="fill: #4169e1; stroke: #4169e1"/>
     <use xlink:href="#m492114a4fa" x="304.140846" y="169.169902" style="fill: #4169e1; stroke: #4169e1"/>
     <use xlink:href="#m492114a4fa" x="233.547355" y="159.239828" style="fill: #4169e1; stroke: #4169e1"/>
     <use xlink:href="#m492114a4fa" x="317.736971" y="169.538031" style="fill: #4169e1; stroke: #4169e1"/>
     <use xlink:href="#m492114a4fa" x="248.053859" y="199.426421" style="fill: #4169e1; stroke: #4169e1"/>
     <use xlink:href="#m492114a4fa" x="306.727543" y="77.172061" style="fill: #4169e1; stroke: #4169e1"/>
     <use xlink:href="#m492114a4fa" x="442.909294" y="128.372958" style="fill: #4169e1; stroke: #4169e1"/>
     <use xlink:href="#m492114a4fa" x="366.77247" y="324.153045" style="fill: #4169e1; stroke: #4169e1"/>
     <use xlink:href="#m492114a4fa" x="457.685015" y="216.681297" style="fill: #4169e1; stroke: #4169e1"/>
     <use xlink:href="#m492114a4fa" x="387.486728" y="76.412292" style="fill: #4169e1; stroke: #4169e1"/>
     <use xlink:href="#m492114a4fa" x="240.980731" y="276.574792" style="fill: #4169e1; stroke: #4169e1"/>
     <use xlink:href="#m492114a4fa" x="219.636152" y="276.069138" style="fill: #4169e1; stroke: #4169e1"/>
     <use xlink:href="#m492114a4fa" x="411.645438" y="164.834524" style="fill: #4169e1; stroke: #4169e1"/>
     <use xlink:href="#m492114a4fa" x="215.304469" y="252.758304" style="fill: #4169e1; stroke: #4169e1"/>
     <use xlink:href="#m492114a4fa" x="392.828404" y="148.564346" style="fill: #4169e1; stroke: #4169e1"/>
     <use xlink:href="#m492114a4fa" x="401.863405" y="206.936372" style="fill: #4169e1; stroke: #4169e1"/>
     <use xlink:href="#m492114a4fa" x="465.107993" y="254.385727" style="fill: #4169e1; stroke: #4169e1"/>
     <use xlink:href="#m492114a4fa" x="201.567239" y="110.511926" style="fill: #4169e1; stroke: #4169e1"/>
     <use xlink:href="#m492114a4fa" x="257.887057" y="323.188042" style="fill: #4169e1; stroke: #4169e1"/>
     <use xlink:href="#m492114a4fa" x="360.895539" y="280.411917" style="fill: #4169e1; stroke: #4169e1"/>
     <use xlink:href="#m492114a4fa" x="419.739976" y="202.784624" style="fill: #4169e1; stroke: #4169e1"/>
     <use xlink:href="#m492114a4fa" x="228.703685" y="125.645794" style="fill: #4169e1; stroke: #4169e1"/>
     <use xlink:href="#m492114a4fa" x="405.017584" y="222.915706" style="fill: #4169e1; stroke: #4169e1"/>
     <use xlink:href="#m492114a4fa" x="214.021031" y="214.811677" style="fill: #4169e1; stroke: #4169e1"/>
     <use xlink:href="#m492114a4fa" x="295.372929" y="127.38209" style="fill: #4169e1; stroke: #4169e1"/>
     <use xlink:href="#m492114a4fa" x="366.863934" y="158.384339" style="fill: #4169e1; stroke: #4169e1"/>
     <use xlink:href="#m492114a4fa" x="403.330833" y="173.550535" style="fill: #4169e1; stroke: #4169e1"/>
     <use xlink:href="#m492114a4fa" x="291.120523" y="168.677994" style="fill: #4169e1; stroke: #4169e1"/>
     <use xlink:href="#m492114a4fa" x="321.187431" y="280.195595" style="fill: #4169e1; stroke: #4169e1"/>
     <use xlink:href="#m492114a4fa" x="235.906063" y="275.748849" style="fill: #4169e1; stroke: #4169e1"/>
     <use xlink:href="#m492114a4fa" x="368.376278" y="317.742585" style="fill: #4169e1; stroke: #4169e1"/>
     <use xlink:href="#m492114a4fa" x="346.451524" y="210.941694" style="fill: #4169e1; stroke: #4169e1"/>
    </g>
   </g>
   <g id="PathCollection_2">
    <defs>
     <path id="m001c601c4f" d="M 0 2.5 
C 0.663008 2.5 1.29895 2.236584 1.767767 1.767767 
C 2.236584 1.29895 2.5 0.663008 2.5 0 
C 2.5 -0.663008 2.236584 -1.29895 1.767767 -1.767767 
C 1.29895 -2.236584 0.663008 -2.5 0 -2.5 
C -0.663008 -2.5 -1.29895 -2.236584 -1.767767 -1.767767 
C -2.236584 -1.29895 -2.5 -0.663008 -2.5 0 
C -2.5 0.663008 -2.236584 1.29895 -1.767767 1.767767 
C -1.29895 2.236584 -0.663008 2.5 0 2.5 
z
" style="stroke: #b22222"/>
    </defs>
    <g clip-path="url(#p8c0cd4e00e)">
     <use xlink:href="#m001c601c4f" x="287.163166" y="202.785463" style="fill: #b22222; stroke: #b22222"/>
     <use xlink:href="#m001c601c4f" x="304.606523" y="174.305178" style="fill: #b22222; stroke: #b22222"/>
     <use xlink:href="#m001c601c4f" x="289.670738" y="191.757449" style="fill: #b22222; stroke: #b22222"/>
     <use xlink:href="#m001c601c4f" x="296.351719" y="209.065953" style="fill: #b22222; stroke: #b22222"/>
     <use xlink:href="#m001c601c4f" x="292.672811" y="202.848371" style="fill: #b22222; stroke: #b22222"/>
     <use xlink:href="#m001c601c4f" x="352.905554" y="207.543075" style="fill: #b22222; stroke: #b22222"/>
     <use xlink:href="#m001c601c4f" x="301.584166" y="183.289676" style="fill: #b22222; stroke: #b22222"/>
     <use xlink:href="#m001c601c4f" x="292.239749" y="181.4848" style="fill: #b22222; stroke: #b22222"/>
     <use xlink:href="#m001c601c4f" x="292.812979" y="166.351714" style="fill: #b22222; stroke: #b22222"/>
     <use xlink:href="#m001c601c4f" x="288.643197" y="201.150561" style="fill: #b22222; stroke: #b22222"/>
     <use xlink:href="#m001c601c4f" x="293.476725" y="184.97305" style="fill: #b22222; stroke: #b22222"/>
     <use xlink:href="#m001c601c4f" x="284.095666" y="218.832774" style="fill: #b22222; stroke: #b22222"/>
     <use xlink:href="#m001c601c4f" x="273.982952" y="217.429633" style="fill: #b22222; stroke: #b22222"/>
     <use xlink:href="#m001c601c4f" x="287.850247" y="203.949298" style="fill: #b22222; stroke: #b22222"/>
     <use xlink:href="#m001c601c4f" x="277.331255" y="212.930895" style="fill: #b22222; stroke: #b22222"/>
     <use xlink:href="#m001c601c4f" x="293.207471" y="187.479267" style="fill: #b22222; stroke: #b22222"/>
     <use xlink:href="#m001c601c4f" x="287.827677" y="188.056007" style="fill: #b22222; stroke: #b22222"/>
     <use xlink:href="#m001c601c4f" x="285.842764" y="211.317963" style="fill: #b22222; stroke: #b22222"/>
     <use xlink:href="#m001c601c4f" x="302.332708" y="206.145408" style="fill: #b22222; stroke: #b22222"/>
     <use xlink:href="#m001c601c4f" x="288.195315" y="184.737108" style="fill: #b22222; stroke: #b22222"/>
     <use xlink:href="#m001c601c4f" x="295.072863" y="158.989103" style="fill: #b22222; stroke: #b22222"/>
     <use xlink:href="#m001c601c4f" x="292.751609" y="183.313562" style="fill: #b22222; stroke: #b22222"/>
     <use xlink:href="#m001c601c4f" x="274.693731" y="213.309976" style="fill: #b22222; stroke: #b22222"/>
     <use xlink:href="#m001c601c4f" x="267.569253" y="214.795607" style="fill: #b22222; stroke: #b22222"/>
     <use xlink:href="#m001c601c4f" x="288.055048" y="181.755737" style="fill: #b22222; stroke: #b22222"/>
     <use xlink:href="#m001c601c4f" x="282.103169" y="183.277819" style="fill: #b22222; stroke: #b22222"/>
     <use xlink:href="#m001c601c4f" x="300.110582" y="189.764079" style="fill: #b22222; stroke: #b22222"/>
     <use xlink:href="#m001c601c4f" x="290.808192" y="185.862245" style="fill: #b22222; stroke: #b22222"/>
     <use xlink:href="#m001c601c4f" x="348.732232" y="134.499173" style="fill: #b22222; stroke: #b22222"/>
     <use xlink:href="#m001c601c4f" x="291.266066" y="200.910877" style="fill: #b22222; stroke: #b22222"/>
     <use xlink:href="#m001c601c4f" x="258.580332" y="208.236151" style="fill: #b22222; stroke: #b22222"/>
     <use xlink:href="#m001c601c4f" x="290.976064" y="199.223779" style="fill: #b22222; stroke: #b22222"/>
     <use xlink:href="#m001c601c4f" x="291.648748" y="192.51177" style="fill: #b22222; stroke: #b22222"/>
     <use xlink:href="#m001c601c4f" x="288.397573" y="182.39553" style="fill: #b22222; stroke: #b22222"/>
     <use xlink:href="#m001c601c4f" x="320.408341" y="180.67956" style="fill: #b22222; stroke: #b22222"/>
     <use xlink:href="#m001c601c4f" x="295.304979" y="178.624476" style="fill: #b22222; stroke: #b22222"/>
     <use xlink:href="#m001c601c4f" x="291.790853" y="176.464604" style="fill: #b22222; stroke: #b22222"/>
     <use xlink:href="#m001c601c4f" x="286.505996" y="192.239294" style="fill: #b22222; stroke: #b22222"/>
     <use xlink:href="#m001c601c4f" x="294.885834" y="194.35916" style="fill: #b22222; stroke: #b22222"/>
     <use xlink:href="#m001c601c4f" x="286.174454" y="188.643317" style="fill: #b22222; stroke: #b22222"/>
     <use xlink:href="#m001c601c4f" x="277.092844" y="198.275493" style="fill: #b22222; stroke: #b22222"/>
     <use xlink:href="#m001c601c4f" x="291.342071" y="179.609781" style="fill: #b22222; stroke: #b22222"/>
     <use xlink:href="#m001c601c4f" x="303.347503" y="172.235507" style="fill: #b22222; stroke: #b22222"/>
     <use xlink:href="#m001c601c4f" x="322.406475" y="192.780487" style="fill: #b22222; stroke: #b22222"/>
     <use xlink:href="#m001c601c4f" x="286.583681" y="186.42052" style="fill: #b22222; stroke: #b22222"/>
     <use xlink:href="#m001c601c4f" x="287.99594" y="198.489301" style="fill: #b22222; stroke: #b22222"/>
     <use xlink:href="#m001c601c4f" x="294.672084" y="180.150362" style="fill: #b22222; stroke: #b22222"/>
     <use xlink:href="#m001c601c4f" x="283.439302" y="232.880007" style="fill: #b22222; stroke: #b22222"/>
    </g>
   </g>
   <g id="patch_4">
    <path d="M 56.450156 450.72 
L 56.450156 7.2 
" style="fill: none; stroke: #ffffff; stroke-width: 1.25; stroke-linejoin: miter; stroke-linecap: square"/>
   </g>
   <g id="patch_5">
    <path d="M 499.970156 450.72 
L 499.970156 7.2 
" style="fill: none; stroke: #ffffff; stroke-width: 1.25; stroke-linejoin: miter; stroke-linecap: square"/>
   </g>
   <g id="patch_6">
    <path d="M 56.450156 450.72 
L 499.970156 450.72 
" style="fill: none; stroke: #ffffff; stroke-width: 1.25; stroke-linejoin: miter; stroke-linecap: square"/>
   </g>
   <g id="patch_7">
    <path d="M 56.450156 7.2 
L 499.970156 7.2 
" style="fill: none; stroke: #ffffff; stroke-width: 1.25; stroke-linejoin: miter; stroke-linecap: square"/>
   </g>
   <g id="text_13">
    <!-- t = 3600 -->
    <g style="fill: #262626" transform="translate(65.320556 24.659775) scale(0.12 -0.12)">
     <defs>
      <path id="ArialMT-74" d="M 1650 503 
L 1731 6 
Q 1494 -44 1306 -44 
Q 1000 -44 831 53 
Q 663 150 594 308 
Q 525 466 525 972 
L 525 2881 
L 113 2881 
L 113 3319 
L 525 3319 
L 525 4141 
L 1084 4478 
L 1084 3319 
L 1650 3319 
L 1650 2881 
L 1084 2881 
L 1084 941 
Q 1084 700 1114 631 
Q 1144 563 1211 522 
Q 1278 481 1403 481 
Q 1497 481 1650 503 
z
" transform="scale(0.015625)"/>
      <path id="ArialMT-20" transform="scale(0.015625)"/>
      <path id="ArialMT-3d" d="M 3381 2694 
L 356 2694 
L 356 3219 
L 3381 3219 
L 3381 2694 
z
M 3381 1303 
L 356 1303 
L 356 1828 
L 3381 1828 
L 3381 1303 
z
" transform="scale(0.015625)"/>
      <path id="ArialMT-33" d="M 269 1209 
L 831 1284 
Q 928 806 1161 595 
Q 1394 384 1728 384 
Q 2125 384 2398 659 
Q 2672 934 2672 1341 
Q 2672 1728 2419 1979 
Q 2166 2231 1775 2231 
Q 1616 2231 1378 2169 
L 1441 2663 
Q 1497 2656 1531 2656 
Q 1891 2656 2178 2843 
Q 2466 3031 2466 3422 
Q 2466 3731 2256 3934 
Q 2047 4138 1716 4138 
Q 1388 4138 1169 3931 
Q 950 3725 888 3313 
L 325 3413 
Q 428 3978 793 4289 
Q 1159 4600 1703 4600 
Q 2078 4600 2393 4439 
Q 2709 4278 2876 4000 
Q 3044 3722 3044 3409 
Q 3044 3113 2884 2869 
Q 2725 2625 2413 2481 
Q 2819 2388 3044 2092 
Q 3269 1797 3269 1353 
Q 3269 753 2831 336 
Q 2394 -81 1725 -81 
Q 1122 -81 723 278 
Q 325 638 269 1209 
z
" transform="scale(0.015625)"/>
      <path id="ArialMT-36" d="M 3184 3459 
L 2625 3416 
Q 2550 3747 2413 3897 
Q 2184 4138 1850 4138 
Q 1581 4138 1378 3988 
Q 1113 3794 959 3422 
Q 806 3050 800 2363 
Q 1003 2672 1297 2822 
Q 1591 2972 1913 2972 
Q 2475 2972 2870 2558 
Q 3266 2144 3266 1488 
Q 3266 1056 3080 686 
Q 2894 316 2569 119 
Q 2244 -78 1831 -78 
Q 1128 -78 684 439 
Q 241 956 241 2144 
Q 241 3472 731 4075 
Q 1159 4600 1884 4600 
Q 2425 4600 2770 4297 
Q 3116 3994 3184 3459 
z
M 888 1484 
Q 888 1194 1011 928 
Q 1134 663 1356 523 
Q 1578 384 1822 384 
Q 2178 384 2434 671 
Q 2691 959 2691 1453 
Q 2691 1928 2437 2201 
Q 2184 2475 1800 2475 
Q 1419 2475 1153 2201 
Q 888 1928 888 1484 
z
" transform="scale(0.015625)"/>
     </defs>
     <use xlink:href="#ArialMT-74"/>
     <use xlink:href="#ArialMT-20" x="27.783203"/>
     <use xlink:href="#ArialMT-3d" x="55.566406"/>
     <use xlink:href="#ArialMT-20" x="113.964844"/>
     <use xlink:href="#ArialMT-33" x="141.748047"/>
     <use xlink:href="#ArialMT-36" x="197.363281"/>
     <use xlink:href="#ArialMT-30" x="252.978516"/>
     <use xlink:href="#ArialMT-30" x="308.59375"/>
    </g>
   </g>
   <g id="legend_1">
    <g id="patch_8">
     <path d="M 328.111406 94.59 
L 483.170156 94.59 
Q 487.970156 94.59 487.970156 89.79 
L 487.970156 24 
Q 487.970156 19.2 483.170156 19.2 
L 328.111406 19.2 
Q 323.311406 19.2 323.311406 24 
L 323.311406 89.79 
Q 323.311406 94.59 328.111406 94.59 
z
" style="fill: #eaeaf2; opacity: 0.8; stroke: #cccccc; stroke-linejoin: miter"/>
    </g>
    <g id="PathCollection_3">
     <g>
      <use xlink:href="#m492114a4fa" x="356.911406" y="39.97125" style="fill: #4169e1; stroke: #4169e1"/>
     </g>
    </g>
    <g id="text_14">
     <!-- Sheep -->
     <g style="fill: #262626" transform="translate(400.111406 46.27125) scale(0.24 -0.24)">
      <defs>
       <path id="ArialMT-53" d="M 288 1472 
L 859 1522 
Q 900 1178 1048 958 
Q 1197 738 1509 602 
Q 1822 466 2213 466 
Q 2559 466 2825 569 
Q 3091 672 3220 851 
Q 3350 1031 3350 1244 
Q 3350 1459 3225 1620 
Q 3100 1781 2813 1891 
Q 2628 1963 1997 2114 
Q 1366 2266 1113 2400 
Q 784 2572 623 2826 
Q 463 3081 463 3397 
Q 463 3744 659 4045 
Q 856 4347 1234 4503 
Q 1613 4659 2075 4659 
Q 2584 4659 2973 4495 
Q 3363 4331 3572 4012 
Q 3781 3694 3797 3291 
L 3216 3247 
Q 3169 3681 2898 3903 
Q 2628 4125 2100 4125 
Q 1550 4125 1298 3923 
Q 1047 3722 1047 3438 
Q 1047 3191 1225 3031 
Q 1400 2872 2139 2705 
Q 2878 2538 3153 2413 
Q 3553 2228 3743 1945 
Q 3934 1663 3934 1294 
Q 3934 928 3725 604 
Q 3516 281 3123 101 
Q 2731 -78 2241 -78 
Q 1619 -78 1198 103 
Q 778 284 539 648 
Q 300 1013 288 1472 
z
" transform="scale(0.015625)"/>
       <path id="ArialMT-68" d="M 422 0 
L 422 4581 
L 984 4581 
L 984 2938 
Q 1378 3394 1978 3394 
Q 2347 3394 2619 3248 
Q 2891 3103 3008 2847 
Q 3125 2591 3125 2103 
L 3125 0 
L 2563 0 
L 2563 2103 
Q 2563 2525 2380 2717 
Q 2197 2909 1863 2909 
Q 1613 2909 1392 2779 
Q 1172 2650 1078 2428 
Q 984 2206 984 1816 
L 984 0 
L 422 0 
z
" transform="scale(0.015625)"/>
       <path id="ArialMT-65" d="M 2694 1069 
L 3275 997 
Q 3138 488 2766 206 
Q 2394 -75 1816 -75 
Q 1088 -75 661 373 
Q 234 822 234 1631 
Q 234 2469 665 2931 
Q 1097 3394 1784 3394 
Q 2450 3394 2872 2941 
Q 3294 2488 3294 1666 
Q 3294 1616 3291 1516 
L 816 1516 
Q 847 969 1125 678 
Q 1403 388 1819 388 
Q 2128 388 2347 550 
Q 2566 713 2694 1069 
z
M 847 1978 
L 2700 1978 
Q 2663 2397 2488 2606 
Q 2219 2931 1791 2931 
Q 1403 2931 1139 2672 
Q 875 2413 847 1978 
z
" transform="scale(0.015625)"/>
       <path id="ArialMT-70" d="M 422 -1272 
L 422 3319 
L 934 3319 
L 934 2888 
Q 1116 3141 1344 3267 
Q 1572 3394 1897 3394 
Q 2322 3394 2647 3175 
Q 2972 2956 3137 2557 
Q 3303 2159 3303 1684 
Q 3303 1175 3120 767 
Q 2938 359 2589 142 
Q 2241 -75 1856 -75 
Q 1575 -75 1351 44 
Q 1128 163 984 344 
L 984 -1272 
L 422 -1272 
z
M 931 1641 
Q 931 1000 1190 694 
Q 1450 388 1819 388 
Q 2194 388 2461 705 
Q 2728 1022 2728 1688 
Q 2728 2322 2467 2637 
Q 2206 2953 1844 2953 
Q 1484 2953 1207 2617 
Q 931 2281 931 1641 
z
" transform="scale(0.015625)"/>
      </defs>
      <use xlink:href="#ArialMT-53"/>
      <use xlink:href="#ArialMT-68" x="66.699219"/>
      <use xlink:href="#ArialMT-65" x="122.314453"/>
      <use xlink:href="#ArialMT-65" x="177.929688"/>
      <use xlink:href="#ArialMT-70" x="233.544922"/>
     </g>
    </g>
    <g id="PathCollection_4">
     <g>
      <use xlink:href="#m001c601c4f" x="356.911406" y="73.92" style="fill: #b22222; stroke: #b22222"/>
     </g>
    </g>
    <g id="text_15">
     <!-- Wolves -->
     <g style="fill: #262626" transform="translate(400.111406 80.22) scale(0.24 -0.24)">
      <defs>
       <path id="ArialMT-57" d="M 1294 0 
L 78 4581 
L 700 4581 
L 1397 1578 
Q 1509 1106 1591 641 
Q 1766 1375 1797 1488 
L 2669 4581 
L 3400 4581 
L 4056 2263 
Q 4303 1400 4413 641 
Q 4500 1075 4641 1638 
L 5359 4581 
L 5969 4581 
L 4713 0 
L 4128 0 
L 3163 3491 
Q 3041 3928 3019 4028 
Q 2947 3713 2884 3491 
L 1913 0 
L 1294 0 
z
" transform="scale(0.015625)"/>
       <path id="ArialMT-6f" d="M 213 1659 
Q 213 2581 725 3025 
Q 1153 3394 1769 3394 
Q 2453 3394 2887 2945 
Q 3322 2497 3322 1706 
Q 3322 1066 3130 698 
Q 2938 331 2570 128 
Q 2203 -75 1769 -75 
Q 1072 -75 642 372 
Q 213 819 213 1659 
z
M 791 1659 
Q 791 1022 1069 705 
Q 1347 388 1769 388 
Q 2188 388 2466 706 
Q 2744 1025 2744 1678 
Q 2744 2294 2464 2611 
Q 2184 2928 1769 2928 
Q 1347 2928 1069 2612 
Q 791 2297 791 1659 
z
" transform="scale(0.015625)"/>
       <path id="ArialMT-6c" d="M 409 0 
L 409 4581 
L 972 4581 
L 972 0 
L 409 0 
z
" transform="scale(0.015625)"/>
       <path id="ArialMT-76" d="M 1344 0 
L 81 3319 
L 675 3319 
L 1388 1331 
Q 1503 1009 1600 663 
Q 1675 925 1809 1294 
L 2547 3319 
L 3125 3319 
L 1869 0 
L 1344 0 
z
" transform="scale(0.015625)"/>
       <path id="ArialMT-73" d="M 197 991 
L 753 1078 
Q 800 744 1014 566 
Q 1228 388 1613 388 
Q 2000 388 2187 545 
Q 2375 703 2375 916 
Q 2375 1106 2209 1216 
Q 2094 1291 1634 1406 
Q 1016 1563 777 1677 
Q 538 1791 414 1992 
Q 291 2194 291 2438 
Q 291 2659 392 2848 
Q 494 3038 669 3163 
Q 800 3259 1026 3326 
Q 1253 3394 1513 3394 
Q 1903 3394 2198 3281 
Q 2494 3169 2634 2976 
Q 2775 2784 2828 2463 
L 2278 2388 
Q 2241 2644 2061 2787 
Q 1881 2931 1553 2931 
Q 1166 2931 1000 2803 
Q 834 2675 834 2503 
Q 834 2394 903 2306 
Q 972 2216 1119 2156 
Q 1203 2125 1616 2013 
Q 2213 1853 2448 1751 
Q 2684 1650 2818 1456 
Q 2953 1263 2953 975 
Q 2953 694 2789 445 
Q 2625 197 2315 61 
Q 2006 -75 1616 -75 
Q 969 -75 630 194 
Q 291 463 197 991 
z
" transform="scale(0.015625)"/>
      </defs>
      <use xlink:href="#ArialMT-57"/>
      <use xlink:href="#ArialMT-6f" x="92.634766"/>
      <use xlink:href="#ArialMT-6c" x="148.25"/>
      <use xlink:href="#ArialMT-76" x="170.466797"/>
      <use xlink:href="#ArialMT-65" x="220.466797"/>
      <use xlink:href="#ArialMT-73" x="276.082031"/>
     </g>
    </g>
   </g>
  </g>
 </g>
 <defs>
  <clipPath id="p8c0cd4e00e">
   <rect x="56.450156" y="7.2" width="443.52" height="443.52"/>
  </clipPath>
 </defs>
</svg>
