<?xml version="1.0" encoding="utf-8" standalone="no"?>
<!DOCTYPE svg PUBLIC "-//W3C//DTD SVG 1.1//EN"
  "http://www.w3.org/Graphics/SVG/1.1/DTD/svg11.dtd">
<svg xmlns:xlink="http://www.w3.org/1999/xlink" width="507.170156pt" height="492.454219pt" viewBox="0 0 507.170156 492.454219" xmlns="http://www.w3.org/2000/svg" version="1.1">
 <metadata>
  <rdf:RDF xmlns:dc="http://purl.org/dc/elements/1.1/" xmlns:cc="http://creativecommons.org/ns#" xmlns:rdf="http://www.w3.org/1999/02/22-rdf-syntax-ns#">
   <cc:Work>
    <dc:type rdf:resource="http://purl.org/dc/dcmitype/StillImage"/>
    <dc:date>2026-05-12T10:43:20.598167</dc:date>
    <dc:format>image/svg+xml</dc:format>
    <dc:creator>
     <cc:Agent>
      <dc:title>Matplotlib v3.7.1, https://matplotlib.org/</dc:title>
     </cc:Agent>
    </dc:creator>
   </cc:Work>
  </rdf:RDF>
 </metadata>
 <defs>
  <style type="text/css">*{stroke-linejoin: round; stroke-linecap: butt}</style>
 </defs>
 <g id="figure_1">
  <g id="patch_1">
   <path d="M 0 492.454219 
L 507.170156 492.454219 
L 507.170156 0 
L 0 0 
z
" style="fill: #ffffff"/>
  </g>
  <g id="axes_1">
   <g id="patch_2">
    <path d="M 56.450156 450.72 
L 499.970156 450.72 
L 499.970156 7.2 
L 56.450156 7.2 
z
" style="fill: #eaeaf2"/>
   </g>
   <g id="matplotlib.axis_1">
    <g id="xtick_1">
     <g id="line2d_1">
      <path d="M 100.802156 450.72 
L 100.802156 7.2 
" clip-path="url(#pb9ed7d6d1b)" style="fill: none; stroke: #ffffff; stroke-linecap: round"/>
     </g>
     <g id="text_1">
      <!-- −400 -->
      <g style="fill: #262626" transform="translate(88.414266 468.093594) scale(0.11 -0.11)">
       <defs>
        <path id="ArialMT-2212" d="M 3381 1997 
L 356 1997 
L 356 2522 
L 3381 2522 
L 3381 1997 
z
" transform="scale(0.015625)"/>
        <path id="ArialMT-34" d="M 2069 0 
L 2069 1097 
L 81 1097 
L 81 1613 
L 2172 4581 
L 2631 4581 
L 2631 1613 
L 3250 1613 
L 3250 1097 
L 2631 1097 
L 2631 0 
L 2069 0 
z
M 2069 1613 
L 2069 3678 
L 634 1613 
L 2069 1613 
z
" transform="scale(0.015625)"/>
        <path id="ArialMT-30" d="M 266 2259 
Q 266 3072 433 3567 
Q 600 4063 929 4331 
Q 1259 4600 1759 4600 
Q 2128 4600 2406 4451 
Q 2684 4303 2865 4023 
Q 3047 3744 3150 3342 
Q 3253 2941 3253 2259 
Q 3253 1453 3087 958 
Q 2922 463 2592 192 
Q 2263 -78 1759 -78 
Q 1097 -78 719 397 
Q 266 969 266 2259 
z
M 844 2259 
Q 844 1131 1108 757 
Q 1372 384 1759 384 
Q 2147 384 2411 759 
Q 2675 1134 2675 2259 
Q 2675 3391 2411 3762 
Q 2147 4134 1753 4134 
Q 1366 4134 1134 3806 
Q 844 3388 844 2259 
z
" transform="scale(0.015625)"/>
       </defs>
       <use xlink:href="#ArialMT-2212"/>
       <use xlink:href="#ArialMT-34" x="58.398438"/>
       <use xlink:href="#ArialMT-30" x="114.013672"/>
       <use xlink:href="#ArialMT-30" x="169.628906"/>
      </g>
     </g>
    </g>
    <g id="xtick_2">
     <g id="line2d_2">
      <path d="M 189.506156 450.72 
L 189.506156 7.2 
" clip-path="url(#pb9ed7d6d1b)" style="fill: none; stroke: #ffffff; stroke-linecap: round"/>
     </g>
     <g id="text_2">
      <!-- −200 -->
      <g style="fill: #262626" transform="translate(177.118266 468.093594) scale(0.11 -0.11)">
       <defs>
        <path id="ArialMT-32" d="M 3222 541 
L 3222 0 
L 194 0 
Q 188 203 259 391 
Q 375 700 629 1000 
Q 884 1300 1366 1694 
Q 2113 2306 2375 2664 
Q 2638 3022 2638 3341 
Q 2638 3675 2398 3904 
Q 2159 4134 1775 4134 
Q 1369 4134 1125 3890 
Q 881 3647 878 3216 
L 300 3275 
Q 359 3922 746 4261 
Q 1134 4600 1788 4600 
Q 2447 4600 2831 4234 
Q 3216 3869 3216 3328 
Q 3216 3053 3103 2787 
Q 2991 2522 2730 2228 
Q 2469 1934 1863 1422 
Q 1356 997 1212 845 
Q 1069 694 975 541 
L 3222 541 
z
" transform="scale(0.015625)"/>
       </defs>
       <use xlink:href="#ArialMT-2212"/>
       <use xlink:href="#ArialMT-32" x="58.398438"/>
       <use xlink:href="#ArialMT-30" x="114.013672"/>
       <use xlink:href="#ArialMT-30" x="169.628906"/>
      </g>
     </g>
    </g>
    <g id="xtick_3">
     <g id="line2d_3">
      <path d="M 278.210156 450.72 
L 278.210156 7.2 
" clip-path="url(#pb9ed7d6d1b)" style="fill: none; stroke: #ffffff; stroke-linecap: round"/>
     </g>
     <g id="text_3">
      <!-- 0 -->
      <g style="fill: #262626" transform="translate(275.151641 468.093594) scale(0.11 -0.11)">
       <use xlink:href="#ArialMT-30"/>
      </g>
     </g>
    </g>
    <g id="xtick_4">
     <g id="line2d_4">
      <path d="M 366.914156 450.72 
L 366.914156 7.2 
" clip-path="url(#pb9ed7d6d1b)" style="fill: none; stroke: #ffffff; stroke-linecap: round"/>
     </g>
     <g id="text_4">
      <!-- 200 -->
      <g style="fill: #262626" transform="translate(357.738609 468.093594) scale(0.11 -0.11)">
       <use xlink:href="#ArialMT-32"/>
       <use xlink:href="#ArialMT-30" x="55.615234"/>
       <use xlink:href="#ArialMT-30" x="111.230469"/>
      </g>
     </g>
    </g>
    <g id="xtick_5">
     <g id="line2d_5">
      <path d="M 455.618156 450.72 
L 455.618156 7.2 
" clip-path="url(#pb9ed7d6d1b)" style="fill: none; stroke: #ffffff; stroke-linecap: round"/>
     </g>
     <g id="text_5">
      <!-- 400 -->
      <g style="fill: #262626" transform="translate(446.442609 468.093594) scale(0.11 -0.11)">
       <use xlink:href="#ArialMT-34"/>
       <use xlink:href="#ArialMT-30" x="55.615234"/>
       <use xlink:href="#ArialMT-30" x="111.230469"/>
      </g>
     </g>
    </g>
    <g id="text_6">
     <!-- x -->
     <g style="fill: #262626" transform="translate(275.210156 482.869219) scale(0.12 -0.12)">
      <defs>
       <path id="ArialMT-78" d="M 47 0 
L 1259 1725 
L 138 3319 
L 841 3319 
L 1350 2541 
Q 1494 2319 1581 2169 
Q 1719 2375 1834 2534 
L 2394 3319 
L 3066 3319 
L 1919 1756 
L 3153 0 
L 2463 0 
L 1781 1031 
L 1600 1309 
L 728 0 
L 47 0 
z
" transform="scale(0.015625)"/>
      </defs>
      <use xlink:href="#ArialMT-78"/>
     </g>
    </g>
   </g>
   <g id="matplotlib.axis_2">
    <g id="ytick_1">
     <g id="line2d_6">
      <path d="M 56.450156 406.368 
L 499.970156 406.368 
" clip-path="url(#pb9ed7d6d1b)" style="fill: none; stroke: #ffffff; stroke-linecap: round"/>
     </g>
     <g id="text_7">
      <!-- −400 -->
      <g style="fill: #262626" transform="translate(22.174375 410.304797) scale(0.11 -0.11)">
       <use xlink:href="#ArialMT-2212"/>
       <use xlink:href="#ArialMT-34" x="58.398438"/>
       <use xlink:href="#ArialMT-30" x="114.013672"/>
       <use xlink:href="#ArialMT-30" x="169.628906"/>
      </g>
     </g>
    </g>
    <g id="ytick_2">
     <g id="line2d_7">
      <path d="M 56.450156 317.664 
L 499.970156 317.664 
" clip-path="url(#pb9ed7d6d1b)" style="fill: none; stroke: #ffffff; stroke-linecap: round"/>
     </g>
     <g id="text_8">
      <!-- −200 -->
      <g style="fill: #262626" transform="translate(22.174375 321.600797) scale(0.11 -0.11)">
       <use xlink:href="#ArialMT-2212"/>
       <use xlink:href="#ArialMT-32" x="58.398438"/>
       <use xlink:href="#ArialMT-30" x="114.013672"/>
       <use xlink:href="#ArialMT-30" x="169.628906"/>
      </g>
     </g>
    </g>
    <g id="ytick_3">
     <g id="line2d_8">
      <path d="M 56.450156 228.96 
L 499.970156 228.96 
" clip-path="url(#pb9ed7d6d1b)" style="fill: none; stroke: #ffffff; stroke-linecap: round"/>
     </g>
     <g id="text_9">
      <!-- 0 -->
      <g style="fill: #262626" transform="translate(40.833125 232.896797) scale(0.11 -0.11)">
       <use xlink:href="#ArialMT-30"/>
      </g>
     </g>
    </g>
    <g id="ytick_4">
     <g id="line2d_9">
      <path d="M 56.450156 140.256 
L 499.970156 140.256 
" clip-path="url(#pb9ed7d6d1b)" style="fill: none; stroke: #ffffff; stroke-linecap: round"/>
     </g>
     <g id="text_10">
      <!-- 200 -->
      <g style="fill: #262626" transform="translate(28.599063 144.192797) scale(0.11 -0.11)">
       <use xlink:href="#ArialMT-32"/>
       <use xlink:href="#ArialMT-30" x="55.615234"/>
       <use xlink:href="#ArialMT-30" x="111.230469"/>
      </g>
     </g>
    </g>
    <g id="ytick_5">
     <g id="line2d_10">
      <path d="M 56.450156 51.552 
L 499.970156 51.552 
" clip-path="url(#pb9ed7d6d1b)" style="fill: none; stroke: #ffffff; stroke-linecap: round"/>
     </g>
     <g id="text_11">
      <!-- 400 -->
      <g style="fill: #262626" transform="translate(28.599063 55.488797) scale(0.11 -0.11)">
       <use xlink:href="#ArialMT-34"/>
       <use xlink:href="#ArialMT-30" x="55.615234"/>
       <use xlink:href="#ArialMT-30" x="111.230469"/>
      </g>
     </g>
    </g>
    <g id="text_12">
     <!-- y -->
     <g style="fill: #262626" transform="translate(15.64875 231.96) rotate(-90) scale(0.12 -0.12)">
      <defs>
       <path id="ArialMT-79" d="M 397 -1278 
L 334 -750 
Q 519 -800 656 -800 
Q 844 -800 956 -737 
Q 1069 -675 1141 -563 
Q 1194 -478 1313 -144 
Q 1328 -97 1363 -6 
L 103 3319 
L 709 3319 
L 1400 1397 
Q 1534 1031 1641 628 
Q 1738 1016 1872 1384 
L 2581 3319 
L 3144 3319 
L 1881 -56 
Q 1678 -603 1566 -809 
Q 1416 -1088 1222 -1217 
Q 1028 -1347 759 -1347 
Q 597 -1347 397 -1278 
z
" transform="scale(0.015625)"/>
      </defs>
      <use xlink:href="#ArialMT-79"/>
     </g>
    </g>
   </g>
   <g id="patch_3">
    <path d="M 278.210156 317.664 
C 301.734732 317.664 324.298969 308.317587 340.933356 291.6832 
C 357.567743 275.048813 366.914156 252.484576 366.914156 228.96 
C 366.914156 205.435424 357.567743 182.871187 340.933356 166.2368 
C 324.298969 149.602413 301.734732 140.256 278.210156 140.256 
C 254.68558 140.256 232.121343 149.602413 215.486956 166.2368 
C 198.852569 182.871187 189.506156 205.435424 189.506156 228.96 
C 189.506156 252.484576 198.852569 275.048813 215.486956 291.6832 
C 232.121343 308.317587 254.68558 317.664 278.210156 317.664 
z
" clip-path="url(#pb9ed7d6d1b)" style="fill: #228b22; opacity: 0.12; stroke: #228b22; stroke-width: 1.5; stroke-linejoin: miter"/>
   </g>
   <g id="PathCollection_1">
    <defs>
     <path id="m083115b8e2" d="M 0 2.236068 
C 0.593012 2.236068 1.161816 2.000462 1.581139 1.581139 
C 2.000462 1.161816 2.236068 0.593012 2.236068 0 
C 2.236068 -0.593012 2.000462 -1.161816 1.581139 -1.581139 
C 1.161816 -2.000462 0.593012 -2.236068 0 -2.236068 
C -0.593012 -2.236068 -1.161816 -2.000462 -1.581139 -1.581139 
C -2.000462 -1.161816 -2.236068 -0.593012 -2.236068 0 
C -2.236068 0.593012 -2.000462 1.161816 -1.581139 1.581139 
C -1.161816 2.000462 -0.593012 2.236068 0 2.236068 
z
" style="stroke: #4169e1"/>
    </defs>
    <g clip-path="url(#pb9ed7d6d1b)">
     <use xlink:href="#m083115b8e2" x="162.439593" y="173.972978" style="fill: #4169e1; stroke: #4169e1"/>
     <use xlink:href="#m083115b8e2" x="274.737067" y="196.08296" style="fill: #4169e1; stroke: #4169e1"/>
     <use xlink:href="#m083115b8e2" x="352.138537" y="64.47982" style="fill: #4169e1; stroke: #4169e1"/>
     <use xlink:href="#m083115b8e2" x="283.777463" y="326.841425" style="fill: #4169e1; stroke: #4169e1"/>
     <use xlink:href="#m083115b8e2" x="218.348769" y="189.203175" style="fill: #4169e1; stroke: #4169e1"/>
     <use xlink:href="#m083115b8e2" x="398.35646" y="235.544689" style="fill: #4169e1; stroke: #4169e1"/>
     <use xlink:href="#m083115b8e2" x="330.69241" y="189.098813" style="fill: #4169e1; stroke: #4169e1"/>
     <use xlink:href="#m083115b8e2" x="413.024711" y="85.923704" style="fill: #4169e1; stroke: #4169e1"/>
     <use xlink:href="#m083115b8e2" x="352.458792" y="187.402945" style="fill: #4169e1; stroke: #4169e1"/>
     <use xlink:href="#m083115b8e2" x="391.364672" y="301.698471" style="fill: #4169e1; stroke: #4169e1"/>
     <use xlink:href="#m083115b8e2" x="388.327924" y="256.600363" style="fill: #4169e1; stroke: #4169e1"/>
     <use xlink:href="#m083115b8e2" x="259.073342" y="183.557679" style="fill: #4169e1; stroke: #4169e1"/>
     <use xlink:href="#m083115b8e2" x="416.847527" y="237.882343" style="fill: #4169e1; stroke: #4169e1"/>
     <use xlink:href="#m083115b8e2" x="459.514116" y="224.229012" style="fill: #4169e1; stroke: #4169e1"/>
     <use xlink:href="#m083115b8e2" x="403.475781" y="211.287591" style="fill: #4169e1; stroke: #4169e1"/>
     <use xlink:href="#m083115b8e2" x="392.850764" y="92.380027" style="fill: #4169e1; stroke: #4169e1"/>
     <use xlink:href="#m083115b8e2" x="360.986665" y="192.712737" style="fill: #4169e1; stroke: #4169e1"/>
     <use xlink:href="#m083115b8e2" x="464.768856" y="215.651549" style="fill: #4169e1; stroke: #4169e1"/>
     <use xlink:href="#m083115b8e2" x="285.305242" y="122.404455" style="fill: #4169e1; stroke: #4169e1"/>
     <use xlink:href="#m083115b8e2" x="386.286816" y="108.41843" style="fill: #4169e1; stroke: #4169e1"/>
     <use xlink:href="#m083115b8e2" x="243.342017" y="319.287305" style="fill: #4169e1; stroke: #4169e1"/>
     <use xlink:href="#m083115b8e2" x="235.332832" y="131.454697" style="fill: #4169e1; stroke: #4169e1"/>
     <use xlink:href="#m083115b8e2" x="209.747915" y="253.442661" style="fill: #4169e1; stroke: #4169e1"/>
     <use xlink:href="#m083115b8e2" x="342.016338" y="194.382853" style="fill: #4169e1; stroke: #4169e1"/>
     <use xlink:href="#m083115b8e2" x="220.99812" y="214.678272" style="fill: #4169e1; stroke: #4169e1"/>
     <use xlink:href="#m083115b8e2" x="266.964522" y="243.124526" style="fill: #4169e1; stroke: #4169e1"/>
     <use xlink:href="#m083115b8e2" x="152.083561" y="229.897202" style="fill: #4169e1; stroke: #4169e1"/>
     <use xlink:href="#m083115b8e2" x="216.220494" y="233.513519" style="fill: #4169e1; stroke: #4169e1"/>
     <use xlink:href="#m083115b8e2" x="230.668509" y="335.866708" style="fill: #4169e1; stroke: #4169e1"/>
     <use xlink:href="#m083115b8e2" x="354.050263" y="216.125745" style="fill: #4169e1; stroke: #4169e1"/>
     <use xlink:href="#m083115b8e2" x="351.37196" y="105.666908" style="fill: #4169e1; stroke: #4169e1"/>
     <use xlink:href="#m083115b8e2" x="338.41378" y="320.435228" style="fill: #4169e1; stroke: #4169e1"/>
     <use xlink:href="#m083115b8e2" x="417.546157" y="212.989135" style="fill: #4169e1; stroke: #4169e1"/>
     <use xlink:href="#m083115b8e2" x="378.489023" y="151.237492" style="fill: #4169e1; stroke: #4169e1"/>
     <use xlink:href="#m083115b8e2" x="329.13652" y="109.766964" style="fill: #4169e1; stroke: #4169e1"/>
     <use xlink:href="#m083115b8e2" x="253.228975" y="268.919703" style="fill: #4169e1; stroke: #4169e1"/>
     <use xlink:href="#m083115b8e2" x="430.028725" y="169.615703" style="fill: #4169e1; stroke: #4169e1"/>
     <use xlink:href="#m083115b8e2" x="167.506682" y="204.209683" style="fill: #4169e1; stroke: #4169e1"/>
     <use xlink:href="#m083115b8e2" x="336.405657" y="191.833175" style="fill: #4169e1; stroke: #4169e1"/>
     <use xlink:href="#m083115b8e2" x="336.454492" y="256.511536" style="fill: #4169e1; stroke: #4169e1"/>
     <use xlink:href="#m083115b8e2" x="189.854423" y="241.881109" style="fill: #4169e1; stroke: #4169e1"/>
     <use xlink:href="#m083115b8e2" x="373.624975" y="195.780676" style="fill: #4169e1; stroke: #4169e1"/>
     <use xlink:href="#m083115b8e2" x="475.721031" y="268.99731" style="fill: #4169e1; stroke: #4169e1"/>
     <use xlink:href="#m083115b8e2" x="362.623052" y="191.780232" style="fill: #4169e1; stroke: #4169e1"/>
     <use xlink:href="#m083115b8e2" x="301.933688" y="66.858191" style="fill: #4169e1; stroke: #4169e1"/>
     <use xlink:href="#m083115b8e2" x="331.546177" y="249.001129" style="fill: #4169e1; stroke: #4169e1"/>
     <use xlink:href="#m083115b8e2" x="320.381277" y="49.46607" style="fill: #4169e1; stroke: #4169e1"/>
     <use xlink:href="#m083115b8e2" x="330.071965" y="93.908688" style="fill: #4169e1; stroke: #4169e1"/>
     <use xlink:href="#m083115b8e2" x="447.785253" y="123.208484" style="fill: #4169e1; stroke: #4169e1"/>
     <use xlink:href="#m083115b8e2" x="289.067794" y="256.498839" style="fill: #4169e1; stroke: #4169e1"/>
     <use xlink:href="#m083115b8e2" x="442.989544" y="227.898321" style="fill: #4169e1; stroke: #4169e1"/>
     <use xlink:href="#m083115b8e2" x="251.116988" y="289.469173" style="fill: #4169e1; stroke: #4169e1"/>
     <use xlink:href="#m083115b8e2" x="274.528423" y="101.10935" style="fill: #4169e1; stroke: #4169e1"/>
     <use xlink:href="#m083115b8e2" x="214.991488" y="232.269223" style="fill: #4169e1; stroke: #4169e1"/>
     <use xlink:href="#m083115b8e2" x="352.501008" y="287.502075" style="fill: #4169e1; stroke: #4169e1"/>
     <use xlink:href="#m083115b8e2" x="419.424539" y="232.209079" style="fill: #4169e1; stroke: #4169e1"/>
     <use xlink:href="#m083115b8e2" x="448.06876" y="193.827671" style="fill: #4169e1; stroke: #4169e1"/>
     <use xlink:href="#m083115b8e2" x="283.725736" y="165.533229" style="fill: #4169e1; stroke: #4169e1"/>
     <use xlink:href="#m083115b8e2" x="241.118844" y="217.152664" style="fill: #4169e1; stroke: #4169e1"/>
     <use xlink:href="#m083115b8e2" x="461.854046" y="189.494398" style="fill: #4169e1; stroke: #4169e1"/>
     <use xlink:href="#m083115b8e2" x="365.35469" y="120.251628" style="fill: #4169e1; stroke: #4169e1"/>
     <use xlink:href="#m083115b8e2" x="293.656197" y="254.125958" style="fill: #4169e1; stroke: #4169e1"/>
     <use xlink:href="#m083115b8e2" x="353.768664" y="167.064312" style="fill: #4169e1; stroke: #4169e1"/>
     <use xlink:href="#m083115b8e2" x="324.317673" y="200.854412" style="fill: #4169e1; stroke: #4169e1"/>
     <use xlink:href="#m083115b8e2" x="244.018842" y="318.584113" style="fill: #4169e1; stroke: #4169e1"/>
     <use xlink:href="#m083115b8e2" x="331.355013" y="234.429483" style="fill: #4169e1; stroke: #4169e1"/>
     <use xlink:href="#m083115b8e2" x="275.469895" y="279.86513" style="fill: #4169e1; stroke: #4169e1"/>
     <use xlink:href="#m083115b8e2" x="313.718789" y="119.47245" style="fill: #4169e1; stroke: #4169e1"/>
     <use xlink:href="#m083115b8e2" x="425.245915" y="209.848855" style="fill: #4169e1; stroke: #4169e1"/>
     <use xlink:href="#m083115b8e2" x="265.315866" y="285.918942" style="fill: #4169e1; stroke: #4169e1"/>
     <use xlink:href="#m083115b8e2" x="227.29277" y="179.399784" style="fill: #4169e1; stroke: #4169e1"/>
     <use xlink:href="#m083115b8e2" x="181.587792" y="153.966707" style="fill: #4169e1; stroke: #4169e1"/>
     <use xlink:href="#m083115b8e2" x="351.502906" y="259.667805" style="fill: #4169e1; stroke: #4169e1"/>
     <use xlink:href="#m083115b8e2" x="258.212081" y="170.048212" style="fill: #4169e1; stroke: #4169e1"/>
     <use xlink:href="#m083115b8e2" x="443.668616" y="152.043531" style="fill: #4169e1; stroke: #4169e1"/>
     <use xlink:href="#m083115b8e2" x="332.761817" y="305.056861" style="fill: #4169e1; stroke: #4169e1"/>
     <use xlink:href="#m083115b8e2" x="408.218053" y="278.597042" style="fill: #4169e1; stroke: #4169e1"/>
     <use xlink:href="#m083115b8e2" x="287.993684" y="237.027841" style="fill: #4169e1; stroke: #4169e1"/>
     <use xlink:href="#m083115b8e2" x="361.444897" y="291.365259" style="fill: #4169e1; stroke: #4169e1"/>
     <use xlink:href="#m083115b8e2" x="410.711973" y="172.572485" style="fill: #4169e1; stroke: #4169e1"/>
     <use xlink:href="#m083115b8e2" x="334.976476" y="284.16283" style="fill: #4169e1; stroke: #4169e1"/>
     <use xlink:href="#m083115b8e2" x="242.040892" y="204.398679" style="fill: #4169e1; stroke: #4169e1"/>
     <use xlink:href="#m083115b8e2" x="365.445416" y="247.634442" style="fill: #4169e1; stroke: #4169e1"/>
     <use xlink:href="#m083115b8e2" x="386.381799" y="212.722044" style="fill: #4169e1; stroke: #4169e1"/>
     <use xlink:href="#m083115b8e2" x="278.118507" y="285.6277" style="fill: #4169e1; stroke: #4169e1"/>
     <use xlink:href="#m083115b8e2" x="223.794443" y="194.661494" style="fill: #4169e1; stroke: #4169e1"/>
     <use xlink:href="#m083115b8e2" x="473.811206" y="161.894742" style="fill: #4169e1; stroke: #4169e1"/>
     <use xlink:href="#m083115b8e2" x="345.432232" y="75.200611" style="fill: #4169e1; stroke: #4169e1"/>
     <use xlink:href="#m083115b8e2" x="389.552585" y="219.79569" style="fill: #4169e1; stroke: #4169e1"/>
     <use xlink:href="#m083115b8e2" x="347.705286" y="140.098024" style="fill: #4169e1; stroke: #4169e1"/>
     <use xlink:href="#m083115b8e2" x="300.053249" y="113.246853" style="fill: #4169e1; stroke: #4169e1"/>
     <use xlink:href="#m083115b8e2" x="198.413778" y="134.022587" style="fill: #4169e1; stroke: #4169e1"/>
     <use xlink:href="#m083115b8e2" x="410.269725" y="134.473138" style="fill: #4169e1; stroke: #4169e1"/>
     <use xlink:href="#m083115b8e2" x="258.601985" y="287.59251" style="fill: #4169e1; stroke: #4169e1"/>
     <use xlink:href="#m083115b8e2" x="359.941047" y="142.014075" style="fill: #4169e1; stroke: #4169e1"/>
     <use xlink:href="#m083115b8e2" x="363.765229" y="142.791128" style="fill: #4169e1; stroke: #4169e1"/>
     <use xlink:href="#m083115b8e2" x="384.186349" y="156.523424" style="fill: #4169e1; stroke: #4169e1"/>
     <use xlink:href="#m083115b8e2" x="212.654705" y="166.032819" style="fill: #4169e1; stroke: #4169e1"/>
     <use xlink:href="#m083115b8e2" x="376.731997" y="221.844145" style="fill: #4169e1; stroke: #4169e1"/>
     <use xlink:href="#m083115b8e2" x="312.387861" y="365.80763" style="fill: #4169e1; stroke: #4169e1"/>
     <use xlink:href="#m083115b8e2" x="276.146951" y="242.326649" style="fill: #4169e1; stroke: #4169e1"/>
     <use xlink:href="#m083115b8e2" x="328.507041" y="148.714579" style="fill: #4169e1; stroke: #4169e1"/>
     <use xlink:href="#m083115b8e2" x="394.659954" y="175.695749" style="fill: #4169e1; stroke: #4169e1"/>
     <use xlink:href="#m083115b8e2" x="273.770383" y="269.37065" style="fill: #4169e1; stroke: #4169e1"/>
     <use xlink:href="#m083115b8e2" x="241.277307" y="77.286081" style="fill: #4169e1; stroke: #4169e1"/>
     <use xlink:href="#m083115b8e2" x="278.873633" y="273.273191" style="fill: #4169e1; stroke: #4169e1"/>
     <use xlink:href="#m083115b8e2" x="321.986523" y="127.440332" style="fill: #4169e1; stroke: #4169e1"/>
     <use xlink:href="#m083115b8e2" x="413.135551" y="150.558555" style="fill: #4169e1; stroke: #4169e1"/>
     <use xlink:href="#m083115b8e2" x="295.483978" y="274.188604" style="fill: #4169e1; stroke: #4169e1"/>
     <use xlink:href="#m083115b8e2" x="430.440993" y="136.365448" style="fill: #4169e1; stroke: #4169e1"/>
     <use xlink:href="#m083115b8e2" x="297.326441" y="335.174479" style="fill: #4169e1; stroke: #4169e1"/>
     <use xlink:href="#m083115b8e2" x="373.472082" y="53.585644" style="fill: #4169e1; stroke: #4169e1"/>
     <use xlink:href="#m083115b8e2" x="224.812808" y="223.779394" style="fill: #4169e1; stroke: #4169e1"/>
     <use xlink:href="#m083115b8e2" x="285.197278" y="223.979875" style="fill: #4169e1; stroke: #4169e1"/>
     <use xlink:href="#m083115b8e2" x="220.486146" y="322.241001" style="fill: #4169e1; stroke: #4169e1"/>
     <use xlink:href="#m083115b8e2" x="281.247714" y="122.346004" style="fill: #4169e1; stroke: #4169e1"/>
     <use xlink:href="#m083115b8e2" x="296.178083" y="296.201262" style="fill: #4169e1; stroke: #4169e1"/>
     <use xlink:href="#m083115b8e2" x="361.419086" y="284.030287" style="fill: #4169e1; stroke: #4169e1"/>
     <use xlink:href="#m083115b8e2" x="439.964125" y="227.878201" style="fill: #4169e1; stroke: #4169e1"/>
     <use xlink:href="#m083115b8e2" x="411.959982" y="173.059267" style="fill: #4169e1; stroke: #4169e1"/>
     <use xlink:href="#m083115b8e2" x="294.468973" y="168.955302" style="fill: #4169e1; stroke: #4169e1"/>
     <use xlink:href="#m083115b8e2" x="395.174845" y="245.248405" style="fill: #4169e1; stroke: #4169e1"/>
     <use xlink:href="#m083115b8e2" x="308.440302" y="73.601717" style="fill: #4169e1; stroke: #4169e1"/>
     <use xlink:href="#m083115b8e2" x="310.90773" y="78.527282" style="fill: #4169e1; stroke: #4169e1"/>
     <use xlink:href="#m083115b8e2" x="289.493362" y="283.829852" style="fill: #4169e1; stroke: #4169e1"/>
     <use xlink:href="#m083115b8e2" x="382.613936" y="250.424022" style="fill: #4169e1; stroke: #4169e1"/>
     <use xlink:href="#m083115b8e2" x="319.951211" y="132.983574" style="fill: #4169e1; stroke: #4169e1"/>
     <use xlink:href="#m083115b8e2" x="209.814988" y="149.639978" style="fill: #4169e1; stroke: #4169e1"/>
     <use xlink:href="#m083115b8e2" x="241.023881" y="110.45386" style="fill: #4169e1; stroke: #4169e1"/>
     <use xlink:href="#m083115b8e2" x="320.020606" y="242.726113" style="fill: #4169e1; stroke: #4169e1"/>
     <use xlink:href="#m083115b8e2" x="251.492971" y="149.013496" style="fill: #4169e1; stroke: #4169e1"/>
     <use xlink:href="#m083115b8e2" x="175.334421" y="224.475515" style="fill: #4169e1; stroke: #4169e1"/>
     <use xlink:href="#m083115b8e2" x="293.348938" y="305.312771" style="fill: #4169e1; stroke: #4169e1"/>
     <use xlink:href="#m083115b8e2" x="332.058473" y="254.882012" style="fill: #4169e1; stroke: #4169e1"/>
     <use xlink:href="#m083115b8e2" x="235.460634" y="149.321293" style="fill: #4169e1; stroke: #4169e1"/>
     <use xlink:href="#m083115b8e2" x="220.83224" y="256.721998" style="fill: #4169e1; stroke: #4169e1"/>
     <use xlink:href="#m083115b8e2" x="331.016215" y="299.457855" style="fill: #4169e1; stroke: #4169e1"/>
     <use xlink:href="#m083115b8e2" x="371.541095" y="213.175967" style="fill: #4169e1; stroke: #4169e1"/>
     <use xlink:href="#m083115b8e2" x="336.73762" y="179.480636" style="fill: #4169e1; stroke: #4169e1"/>
     <use xlink:href="#m083115b8e2" x="342.656199" y="310.109941" style="fill: #4169e1; stroke: #4169e1"/>
     <use xlink:href="#m083115b8e2" x="302.300669" y="133.149562" style="fill: #4169e1; stroke: #4169e1"/>
     <use xlink:href="#m083115b8e2" x="381.469884" y="296.559856" style="fill: #4169e1; stroke: #4169e1"/>
     <use xlink:href="#m083115b8e2" x="283.882499" y="153.010983" style="fill: #4169e1; stroke: #4169e1"/>
     <use xlink:href="#m083115b8e2" x="306.995515" y="211.21934" style="fill: #4169e1; stroke: #4169e1"/>
     <use xlink:href="#m083115b8e2" x="297.761507" y="339.230485" style="fill: #4169e1; stroke: #4169e1"/>
     <use xlink:href="#m083115b8e2" x="328.088178" y="142.337978" style="fill: #4169e1; stroke: #4169e1"/>
     <use xlink:href="#m083115b8e2" x="165.736547" y="248.232174" style="fill: #4169e1; stroke: #4169e1"/>
     <use xlink:href="#m083115b8e2" x="273.758575" y="308.247199" style="fill: #4169e1; stroke: #4169e1"/>
    </g>
   </g>
   <g id="PathCollection_2">
    <defs>
     <path id="m5135881b22" d="M 0 2.5 
C 0.663008 2.5 1.29895 2.236584 1.767767 1.767767 
C 2.236584 1.29895 2.5 0.663008 2.5 0 
C 2.5 -0.663008 2.236584 -1.29895 1.767767 -1.767767 
C 1.29895 -2.236584 0.663008 -2.5 0 -2.5 
C -0.663008 -2.5 -1.29895 -2.236584 -1.767767 -1.767767 
C -2.236584 -1.29895 -2.5 -0.663008 -2.5 0 
C -2.5 0.663008 -2.236584 1.29895 -1.767767 1.767767 
C -1.29895 2.236584 -0.663008 2.5 0 2.5 
z
" style="stroke: #b22222"/>
    </defs>
    <g clip-path="url(#pb9ed7d6d1b)">
     <use xlink:href="#m5135881b22" x="307.888318" y="190.82374" style="fill: #b22222; stroke: #b22222"/>
     <use xlink:href="#m5135881b22" x="304.85602" y="204.654757" style="fill: #b22222; stroke: #b22222"/>
     <use xlink:href="#m5135881b22" x="300.236797" y="209.422239" style="fill: #b22222; stroke: #b22222"/>
     <use xlink:href="#m5135881b22" x="323.719466" y="178.035629" style="fill: #b22222; stroke: #b22222"/>
     <use xlink:href="#m5135881b22" x="297.869176" y="227.433944" style="fill: #b22222; stroke: #b22222"/>
     <use xlink:href="#m5135881b22" x="310.981991" y="166.777354" style="fill: #b22222; stroke: #b22222"/>
     <use xlink:href="#m5135881b22" x="315.119001" y="192.500651" style="fill: #b22222; stroke: #b22222"/>
     <use xlink:href="#m5135881b22" x="304.202928" y="218.183956" style="fill: #b22222; stroke: #b22222"/>
     <use xlink:href="#m5135881b22" x="318.300081" y="193.964664" style="fill: #b22222; stroke: #b22222"/>
     <use xlink:href="#m5135881b22" x="285.410521" y="223.014743" style="fill: #b22222; stroke: #b22222"/>
     <use xlink:href="#m5135881b22" x="300.599694" y="206.26691" style="fill: #b22222; stroke: #b22222"/>
     <use xlink:href="#m5135881b22" x="300.722774" y="190.283524" style="fill: #b22222; stroke: #b22222"/>
     <use xlink:href="#m5135881b22" x="301.201951" y="218.050805" style="fill: #b22222; stroke: #b22222"/>
     <use xlink:href="#m5135881b22" x="292.095134" y="218.726143" style="fill: #b22222; stroke: #b22222"/>
     <use xlink:href="#m5135881b22" x="293.244312" y="223.701703" style="fill: #b22222; stroke: #b22222"/>
     <use xlink:href="#m5135881b22" x="370.801149" y="170.056563" style="fill: #b22222; stroke: #b22222"/>
     <use xlink:href="#m5135881b22" x="267.933323" y="196.299303" style="fill: #b22222; stroke: #b22222"/>
     <use xlink:href="#m5135881b22" x="317.602963" y="185.608509" style="fill: #b22222; stroke: #b22222"/>
     <use xlink:href="#m5135881b22" x="273.633361" y="283.901054" style="fill: #b22222; stroke: #b22222"/>
     <use xlink:href="#m5135881b22" x="274.840842" y="218.60851" style="fill: #b22222; stroke: #b22222"/>
     <use xlink:href="#m5135881b22" x="319.625809" y="181.112204" style="fill: #b22222; stroke: #b22222"/>
     <use xlink:href="#m5135881b22" x="292.557574" y="192.304533" style="fill: #b22222; stroke: #b22222"/>
     <use xlink:href="#m5135881b22" x="344.949826" y="213.289224" style="fill: #b22222; stroke: #b22222"/>
     <use xlink:href="#m5135881b22" x="313.572048" y="183.965077" style="fill: #b22222; stroke: #b22222"/>
     <use xlink:href="#m5135881b22" x="302.025338" y="192.843425" style="fill: #b22222; stroke: #b22222"/>
     <use xlink:href="#m5135881b22" x="281.631138" y="223.22643" style="fill: #b22222; stroke: #b22222"/>
     <use xlink:href="#m5135881b22" x="306.668201" y="178.429039" style="fill: #b22222; stroke: #b22222"/>
     <use xlink:href="#m5135881b22" x="292.486616" y="217.614316" style="fill: #b22222; stroke: #b22222"/>
     <use xlink:href="#m5135881b22" x="293.419107" y="238.592095" style="fill: #b22222; stroke: #b22222"/>
     <use xlink:href="#m5135881b22" x="293.14916" y="223.73999" style="fill: #b22222; stroke: #b22222"/>
     <use xlink:href="#m5135881b22" x="297.024545" y="224.876953" style="fill: #b22222; stroke: #b22222"/>
     <use xlink:href="#m5135881b22" x="294.509888" y="206.594271" style="fill: #b22222; stroke: #b22222"/>
     <use xlink:href="#m5135881b22" x="288.837239" y="270.318159" style="fill: #b22222; stroke: #b22222"/>
     <use xlink:href="#m5135881b22" x="303.4508" y="188.054223" style="fill: #b22222; stroke: #b22222"/>
     <use xlink:href="#m5135881b22" x="311.103635" y="195.606594" style="fill: #b22222; stroke: #b22222"/>
     <use xlink:href="#m5135881b22" x="282.277696" y="216.23467" style="fill: #b22222; stroke: #b22222"/>
     <use xlink:href="#m5135881b22" x="288.925901" y="220.29251" style="fill: #b22222; stroke: #b22222"/>
     <use xlink:href="#m5135881b22" x="332.166696" y="195.22859" style="fill: #b22222; stroke: #b22222"/>
     <use xlink:href="#m5135881b22" x="323.822553" y="252.741701" style="fill: #b22222; stroke: #b22222"/>
    </g>
   </g>
   <g id="patch_4">
    <path d="M 56.450156 450.72 
L 56.450156 7.2 
" style="fill: none; stroke: #ffffff; stroke-width: 1.25; stroke-linejoin: miter; stroke-linecap: square"/>
   </g>
   <g id="patch_5">
    <path d="M 499.970156 450.72 
L 499.970156 7.2 
" style="fill: none; stroke: #ffffff; stroke-width: 1.25; stroke-linejoin: miter; stroke-linecap: square"/>
   </g>
   <g id="patch_6">
    <path d="M 56.450156 450.72 
L 499.970156 450.72 
" style="fill: none; stroke: #ffffff; stroke-width: 1.25; stroke-linejoin: miter; stroke-linecap: square"/>
   </g>
   <g id="patch_7">
    <path d="M 56.450156 7.2 
L 499.970156 7.2 
" style="fill: none; stroke: #ffffff; stroke-width: 1.25; stroke-linejoin: miter; stroke-linecap: square"/>
   </g>
   <g id="text_13">
    <!-- t = 2700 -->
    <g style="fill: #262626" transform="translate(65.320556 24.659775) scale(0.12 -0.12)">
     <defs>
      <path id="ArialMT-74" d="M 1650 503 
L 1731 6 
Q 1494 -44 1306 -44 
Q 1000 -44 831 53 
Q 663 150 594 308 
Q 525 466 525 972 
L 525 2881 
L 113 2881 
L 113 3319 
L 525 3319 
L 525 4141 
L 1084 4478 
L 1084 3319 
L 1650 3319 
L 1650 2881 
L 1084 2881 
L 1084 941 
Q 1084 700 1114 631 
Q 1144 563 1211 522 
Q 1278 481 1403 481 
Q 1497 481 1650 503 
z
" transform="scale(0.015625)"/>
      <path id="ArialMT-20" transform="scale(0.015625)"/>
      <path id="ArialMT-3d" d="M 3381 2694 
L 356 2694 
L 356 3219 
L 3381 3219 
L 3381 2694 
z
M 3381 1303 
L 356 1303 
L 356 1828 
L 3381 1828 
L 3381 1303 
z
" transform="scale(0.015625)"/>
      <path id="ArialMT-37" d="M 303 3981 
L 303 4522 
L 3269 4522 
L 3269 4084 
Q 2831 3619 2401 2847 
Q 1972 2075 1738 1259 
Q 1569 684 1522 0 
L 944 0 
Q 953 541 1156 1306 
Q 1359 2072 1739 2783 
Q 2119 3494 2547 3981 
L 303 3981 
z
" transform="scale(0.015625)"/>
     </defs>
     <use xlink:href="#ArialMT-74"/>
     <use xlink:href="#ArialMT-20" x="27.783203"/>
     <use xlink:href="#ArialMT-3d" x="55.566406"/>
     <use xlink:href="#ArialMT-20" x="113.964844"/>
     <use xlink:href="#ArialMT-32" x="141.748047"/>
     <use xlink:href="#ArialMT-37" x="197.363281"/>
     <use xlink:href="#ArialMT-30" x="252.978516"/>
     <use xlink:href="#ArialMT-30" x="308.59375"/>
    </g>
   </g>
   <g id="legend_1">
    <g id="patch_8">
     <path d="M 328.111406 94.59 
L 483.170156 94.59 
Q 487.970156 94.59 487.970156 89.79 
L 487.970156 24 
Q 487.970156 19.2 483.170156 19.2 
L 328.111406 19.2 
Q 323.311406 19.2 323.311406 24 
L 323.311406 89.79 
Q 323.311406 94.59 328.111406 94.59 
z
" style="fill: #eaeaf2; opacity: 0.8; stroke: #cccccc; stroke-linejoin: miter"/>
    </g>
    <g id="PathCollection_3">
     <g>
      <use xlink:href="#m083115b8e2" x="356.911406" y="39.97125" style="fill: #4169e1; stroke: #4169e1"/>
     </g>
    </g>
    <g id="text_14">
     <!-- Sheep -->
     <g style="fill: #262626" transform="translate(400.111406 46.27125) scale(0.24 -0.24)">
      <defs>
       <path id="ArialMT-53" d="M 288 1472 
L 859 1522 
Q 900 1178 1048 958 
Q 1197 738 1509 602 
Q 1822 466 2213 466 
Q 2559 466 2825 569 
Q 3091 672 3220 851 
Q 3350 1031 3350 1244 
Q 3350 1459 3225 1620 
Q 3100 1781 2813 1891 
Q 2628 1963 1997 2114 
Q 1366 2266 1113 2400 
Q 784 2572 623 2826 
Q 463 3081 463 3397 
Q 463 3744 659 4045 
Q 856 4347 1234 4503 
Q 1613 4659 2075 4659 
Q 2584 4659 2973 4495 
Q 3363 4331 3572 4012 
Q 3781 3694 3797 3291 
L 3216 3247 
Q 3169 3681 2898 3903 
Q 2628 4125 2100 4125 
Q 1550 4125 1298 3923 
Q 1047 3722 1047 3438 
Q 1047 3191 1225 3031 
Q 1400 2872 2139 2705 
Q 2878 2538 3153 2413 
Q 3553 2228 3743 1945 
Q 3934 1663 3934 1294 
Q 3934 928 3725 604 
Q 3516 281 3123 101 
Q 2731 -78 2241 -78 
Q 1619 -78 1198 103 
Q 778 284 539 648 
Q 300 1013 288 1472 
z
" transform="scale(0.015625)"/>
       <path id="ArialMT-68" d="M 422 0 
L 422 4581 
L 984 4581 
L 984 2938 
Q 1378 3394 1978 3394 
Q 2347 3394 2619 3248 
Q 2891 3103 3008 2847 
Q 3125 2591 3125 2103 
L 3125 0 
L 2563 0 
L 2563 2103 
Q 2563 2525 2380 2717 
Q 2197 2909 1863 2909 
Q 1613 2909 1392 2779 
Q 1172 2650 1078 2428 
Q 984 2206 984 1816 
L 984 0 
L 422 0 
z
" transform="scale(0.015625)"/>
       <path id="ArialMT-65" d="M 2694 1069 
L 3275 997 
Q 3138 488 2766 206 
Q 2394 -75 1816 -75 
Q 1088 -75 661 373 
Q 234 822 234 1631 
Q 234 2469 665 2931 
Q 1097 3394 1784 3394 
Q 2450 3394 2872 2941 
Q 3294 2488 3294 1666 
Q 3294 1616 3291 1516 
L 816 1516 
Q 847 969 1125 678 
Q 1403 388 1819 388 
Q 2128 388 2347 550 
Q 2566 713 2694 1069 
z
M 847 1978 
L 2700 1978 
Q 2663 2397 2488 2606 
Q 2219 2931 1791 2931 
Q 1403 2931 1139 2672 
Q 875 2413 847 1978 
z
" transform="scale(0.015625)"/>
       <path id="ArialMT-70" d="M 422 -1272 
L 422 3319 
L 934 3319 
L 934 2888 
Q 1116 3141 1344 3267 
Q 1572 3394 1897 3394 
Q 2322 3394 2647 3175 
Q 2972 2956 3137 2557 
Q 3303 2159 3303 1684 
Q 3303 1175 3120 767 
Q 2938 359 2589 142 
Q 2241 -75 1856 -75 
Q 1575 -75 1351 44 
Q 1128 163 984 344 
L 984 -1272 
L 422 -1272 
z
M 931 1641 
Q 931 1000 1190 694 
Q 1450 388 1819 388 
Q 2194 388 2461 705 
Q 2728 1022 2728 1688 
Q 2728 2322 2467 2637 
Q 2206 2953 1844 2953 
Q 1484 2953 1207 2617 
Q 931 2281 931 1641 
z
" transform="scale(0.015625)"/>
      </defs>
      <use xlink:href="#ArialMT-53"/>
      <use xlink:href="#ArialMT-68" x="66.699219"/>
      <use xlink:href="#ArialMT-65" x="122.314453"/>
      <use xlink:href="#ArialMT-65" x="177.929688"/>
      <use xlink:href="#ArialMT-70" x="233.544922"/>
     </g>
    </g>
    <g id="PathCollection_4">
     <g>
      <use xlink:href="#m5135881b22" x="356.911406" y="73.92" style="fill: #b22222; stroke: #b22222"/>
     </g>
    </g>
    <g id="text_15">
     <!-- Wolves -->
     <g style="fill: #262626" transform="translate(400.111406 80.22) scale(0.24 -0.24)">
      <defs>
       <path id="ArialMT-57" d="M 1294 0 
L 78 4581 
L 700 4581 
L 1397 1578 
Q 1509 1106 1591 641 
Q 1766 1375 1797 1488 
L 2669 4581 
L 3400 4581 
L 4056 2263 
Q 4303 1400 4413 641 
Q 4500 1075 4641 1638 
L 5359 4581 
L 5969 4581 
L 4713 0 
L 4128 0 
L 3163 3491 
Q 3041 3928 3019 4028 
Q 2947 3713 2884 3491 
L 1913 0 
L 1294 0 
z
" transform="scale(0.015625)"/>
       <path id="ArialMT-6f" d="M 213 1659 
Q 213 2581 725 3025 
Q 1153 3394 1769 3394 
Q 2453 3394 2887 2945 
Q 3322 2497 3322 1706 
Q 3322 1066 3130 698 
Q 2938 331 2570 128 
Q 2203 -75 1769 -75 
Q 1072 -75 642 372 
Q 213 819 213 1659 
z
M 791 1659 
Q 791 1022 1069 705 
Q 1347 388 1769 388 
Q 2188 388 2466 706 
Q 2744 1025 2744 1678 
Q 2744 2294 2464 2611 
Q 2184 2928 1769 2928 
Q 1347 2928 1069 2612 
Q 791 2297 791 1659 
z
" transform="scale(0.015625)"/>
       <path id="ArialMT-6c" d="M 409 0 
L 409 4581 
L 972 4581 
L 972 0 
L 409 0 
z
" transform="scale(0.015625)"/>
       <path id="ArialMT-76" d="M 1344 0 
L 81 3319 
L 675 3319 
L 1388 1331 
Q 1503 1009 1600 663 
Q 1675 925 1809 1294 
L 2547 3319 
L 3125 3319 
L 1869 0 
L 1344 0 
z
" transform="scale(0.015625)"/>
       <path id="ArialMT-73" d="M 197 991 
L 753 1078 
Q 800 744 1014 566 
Q 1228 388 1613 388 
Q 2000 388 2187 545 
Q 2375 703 2375 916 
Q 2375 1106 2209 1216 
Q 2094 1291 1634 1406 
Q 1016 1563 777 1677 
Q 538 1791 414 1992 
Q 291 2194 291 2438 
Q 291 2659 392 2848 
Q 494 3038 669 3163 
Q 800 3259 1026 3326 
Q 1253 3394 1513 3394 
Q 1903 3394 2198 3281 
Q 2494 3169 2634 2976 
Q 2775 2784 2828 2463 
L 2278 2388 
Q 2241 2644 2061 2787 
Q 1881 2931 1553 2931 
Q 1166 2931 1000 2803 
Q 834 2675 834 2503 
Q 834 2394 903 2306 
Q 972 2216 1119 2156 
Q 1203 2125 1616 2013 
Q 2213 1853 2448 1751 
Q 2684 1650 2818 1456 
Q 2953 1263 2953 975 
Q 2953 694 2789 445 
Q 2625 197 2315 61 
Q 2006 -75 1616 -75 
Q 969 -75 630 194 
Q 291 463 197 991 
z
" transform="scale(0.015625)"/>
      </defs>
      <use xlink:href="#ArialMT-57"/>
      <use xlink:href="#ArialMT-6f" x="92.634766"/>
      <use xlink:href="#ArialMT-6c" x="148.25"/>
      <use xlink:href="#ArialMT-76" x="170.466797"/>
      <use xlink:href="#ArialMT-65" x="220.466797"/>
      <use xlink:href="#ArialMT-73" x="276.082031"/>
     </g>
    </g>
   </g>
  </g>
 </g>
 <defs>
  <clipPath id="pb9ed7d6d1b">
   <rect x="56.450156" y="7.2" width="443.52" height="443.52"/>
  </clipPath>
 </defs>
</svg>
