<?xml version="1.0" encoding="utf-8" standalone="no"?>
<!DOCTYPE svg PUBLIC "-//W3C//DTD SVG 1.1//EN"
  "http://www.w3.org/Graphics/SVG/1.1/DTD/svg11.dtd">
<svg xmlns:xlink="http://www.w3.org/1999/xlink" width="507.170156pt" height="492.454219pt" viewBox="0 0 507.170156 492.454219" xmlns="http://www.w3.org/2000/svg" version="1.1">
 <metadata>
  <rdf:RDF xmlns:dc="http://purl.org/dc/elements/1.1/" xmlns:cc="http://creativecommons.org/ns#" xmlns:rdf="http://www.w3.org/1999/02/22-rdf-syntax-ns#">
   <cc:Work>
    <dc:type rdf:resource="http://purl.org/dc/dcmitype/StillImage"/>
    <dc:date>2026-05-12T10:43:18.753913</dc:date>
    <dc:format>image/svg+xml</dc:format>
    <dc:creator>
     <cc:Agent>
      <dc:title>Matplotlib v3.7.1, https://matplotlib.org/</dc:title>
     </cc:Agent>
    </dc:creator>
   </cc:Work>
  </rdf:RDF>
 </metadata>
 <defs>
  <style type="text/css">*{stroke-linejoin: round; stroke-linecap: butt}</style>
 </defs>
 <g id="figure_1">
  <g id="patch_1">
   <path d="M 0 492.454219 
L 507.170156 492.454219 
L 507.170156 0 
L 0 0 
z
" style="fill: #ffffff"/>
  </g>
  <g id="axes_1">
   <g id="patch_2">
    <path d="M 56.450156 450.72 
L 499.970156 450.72 
L 499.970156 7.2 
L 56.450156 7.2 
z
" style="fill: #eaeaf2"/>
   </g>
   <g id="matplotlib.axis_1">
    <g id="xtick_1">
     <g id="line2d_1">
      <path d="M 100.802156 450.72 
L 100.802156 7.2 
" clip-path="url(#pd5ff4b9a5f)" style="fill: none; stroke: #ffffff; stroke-linecap: round"/>
     </g>
     <g id="text_1">
      <!-- −400 -->
      <g style="fill: #262626" transform="translate(88.414266 468.093594) scale(0.11 -0.11)">
       <defs>
        <path id="ArialMT-2212" d="M 3381 1997 
L 356 1997 
L 356 2522 
L 3381 2522 
L 3381 1997 
z
" transform="scale(0.015625)"/>
        <path id="ArialMT-34" d="M 2069 0 
L 2069 1097 
L 81 1097 
L 81 1613 
L 2172 4581 
L 2631 4581 
L 2631 1613 
L 3250 1613 
L 3250 1097 
L 2631 1097 
L 2631 0 
L 2069 0 
z
M 2069 1613 
L 2069 3678 
L 634 1613 
L 2069 1613 
z
" transform="scale(0.015625)"/>
        <path id="ArialMT-30" d="M 266 2259 
Q 266 3072 433 3567 
Q 600 4063 929 4331 
Q 1259 4600 1759 4600 
Q 2128 4600 2406 4451 
Q 2684 4303 2865 4023 
Q 3047 3744 3150 3342 
Q 3253 2941 3253 2259 
Q 3253 1453 3087 958 
Q 2922 463 2592 192 
Q 2263 -78 1759 -78 
Q 1097 -78 719 397 
Q 266 969 266 2259 
z
M 844 2259 
Q 844 1131 1108 757 
Q 1372 384 1759 384 
Q 2147 384 2411 759 
Q 2675 1134 2675 2259 
Q 2675 3391 2411 3762 
Q 2147 4134 1753 4134 
Q 1366 4134 1134 3806 
Q 844 3388 844 2259 
z
" transform="scale(0.015625)"/>
       </defs>
       <use xlink:href="#ArialMT-2212"/>
       <use xlink:href="#ArialMT-34" x="58.398438"/>
       <use xlink:href="#ArialMT-30" x="114.013672"/>
       <use xlink:href="#ArialMT-30" x="169.628906"/>
      </g>
     </g>
    </g>
    <g id="xtick_2">
     <g id="line2d_2">
      <path d="M 189.506156 450.72 
L 189.506156 7.2 
" clip-path="url(#pd5ff4b9a5f)" style="fill: none; stroke: #ffffff; stroke-linecap: round"/>
     </g>
     <g id="text_2">
      <!-- −200 -->
      <g style="fill: #262626" transform="translate(177.118266 468.093594) scale(0.11 -0.11)">
       <defs>
        <path id="ArialMT-32" d="M 3222 541 
L 3222 0 
L 194 0 
Q 188 203 259 391 
Q 375 700 629 1000 
Q 884 1300 1366 1694 
Q 2113 2306 2375 2664 
Q 2638 3022 2638 3341 
Q 2638 3675 2398 3904 
Q 2159 4134 1775 4134 
Q 1369 4134 1125 3890 
Q 881 3647 878 3216 
L 300 3275 
Q 359 3922 746 4261 
Q 1134 4600 1788 4600 
Q 2447 4600 2831 4234 
Q 3216 3869 3216 3328 
Q 3216 3053 3103 2787 
Q 2991 2522 2730 2228 
Q 2469 1934 1863 1422 
Q 1356 997 1212 845 
Q 1069 694 975 541 
L 3222 541 
z
" transform="scale(0.015625)"/>
       </defs>
       <use xlink:href="#ArialMT-2212"/>
       <use xlink:href="#ArialMT-32" x="58.398438"/>
       <use xlink:href="#ArialMT-30" x="114.013672"/>
       <use xlink:href="#ArialMT-30" x="169.628906"/>
      </g>
     </g>
    </g>
    <g id="xtick_3">
     <g id="line2d_3">
      <path d="M 278.210156 450.72 
L 278.210156 7.2 
" clip-path="url(#pd5ff4b9a5f)" style="fill: none; stroke: #ffffff; stroke-linecap: round"/>
     </g>
     <g id="text_3">
      <!-- 0 -->
      <g style="fill: #262626" transform="translate(275.151641 468.093594) scale(0.11 -0.11)">
       <use xlink:href="#ArialMT-30"/>
      </g>
     </g>
    </g>
    <g id="xtick_4">
     <g id="line2d_4">
      <path d="M 366.914156 450.72 
L 366.914156 7.2 
" clip-path="url(#pd5ff4b9a5f)" style="fill: none; stroke: #ffffff; stroke-linecap: round"/>
     </g>
     <g id="text_4">
      <!-- 200 -->
      <g style="fill: #262626" transform="translate(357.738609 468.093594) scale(0.11 -0.11)">
       <use xlink:href="#ArialMT-32"/>
       <use xlink:href="#ArialMT-30" x="55.615234"/>
       <use xlink:href="#ArialMT-30" x="111.230469"/>
      </g>
     </g>
    </g>
    <g id="xtick_5">
     <g id="line2d_5">
      <path d="M 455.618156 450.72 
L 455.618156 7.2 
" clip-path="url(#pd5ff4b9a5f)" style="fill: none; stroke: #ffffff; stroke-linecap: round"/>
     </g>
     <g id="text_5">
      <!-- 400 -->
      <g style="fill: #262626" transform="translate(446.442609 468.093594) scale(0.11 -0.11)">
       <use xlink:href="#ArialMT-34"/>
       <use xlink:href="#ArialMT-30" x="55.615234"/>
       <use xlink:href="#ArialMT-30" x="111.230469"/>
      </g>
     </g>
    </g>
    <g id="text_6">
     <!-- x -->
     <g style="fill: #262626" transform="translate(275.210156 482.869219) scale(0.12 -0.12)">
      <defs>
       <path id="ArialMT-78" d="M 47 0 
L 1259 1725 
L 138 3319 
L 841 3319 
L 1350 2541 
Q 1494 2319 1581 2169 
Q 1719 2375 1834 2534 
L 2394 3319 
L 3066 3319 
L 1919 1756 
L 3153 0 
L 2463 0 
L 1781 1031 
L 1600 1309 
L 728 0 
L 47 0 
z
" transform="scale(0.015625)"/>
      </defs>
      <use xlink:href="#ArialMT-78"/>
     </g>
    </g>
   </g>
   <g id="matplotlib.axis_2">
    <g id="ytick_1">
     <g id="line2d_6">
      <path d="M 56.450156 406.368 
L 499.970156 406.368 
" clip-path="url(#pd5ff4b9a5f)" style="fill: none; stroke: #ffffff; stroke-linecap: round"/>
     </g>
     <g id="text_7">
      <!-- −400 -->
      <g style="fill: #262626" transform="translate(22.174375 410.304797) scale(0.11 -0.11)">
       <use xlink:href="#ArialMT-2212"/>
       <use xlink:href="#ArialMT-34" x="58.398438"/>
       <use xlink:href="#ArialMT-30" x="114.013672"/>
       <use xlink:href="#ArialMT-30" x="169.628906"/>
      </g>
     </g>
    </g>
    <g id="ytick_2">
     <g id="line2d_7">
      <path d="M 56.450156 317.664 
L 499.970156 317.664 
" clip-path="url(#pd5ff4b9a5f)" style="fill: none; stroke: #ffffff; stroke-linecap: round"/>
     </g>
     <g id="text_8">
      <!-- −200 -->
      <g style="fill: #262626" transform="translate(22.174375 321.600797) scale(0.11 -0.11)">
       <use xlink:href="#ArialMT-2212"/>
       <use xlink:href="#ArialMT-32" x="58.398438"/>
       <use xlink:href="#ArialMT-30" x="114.013672"/>
       <use xlink:href="#ArialMT-30" x="169.628906"/>
      </g>
     </g>
    </g>
    <g id="ytick_3">
     <g id="line2d_8">
      <path d="M 56.450156 228.96 
L 499.970156 228.96 
" clip-path="url(#pd5ff4b9a5f)" style="fill: none; stroke: #ffffff; stroke-linecap: round"/>
     </g>
     <g id="text_9">
      <!-- 0 -->
      <g style="fill: #262626" transform="translate(40.833125 232.896797) scale(0.11 -0.11)">
       <use xlink:href="#ArialMT-30"/>
      </g>
     </g>
    </g>
    <g id="ytick_4">
     <g id="line2d_9">
      <path d="M 56.450156 140.256 
L 499.970156 140.256 
" clip-path="url(#pd5ff4b9a5f)" style="fill: none; stroke: #ffffff; stroke-linecap: round"/>
     </g>
     <g id="text_10">
      <!-- 200 -->
      <g style="fill: #262626" transform="translate(28.599063 144.192797) scale(0.11 -0.11)">
       <use xlink:href="#ArialMT-32"/>
       <use xlink:href="#ArialMT-30" x="55.615234"/>
       <use xlink:href="#ArialMT-30" x="111.230469"/>
      </g>
     </g>
    </g>
    <g id="ytick_5">
     <g id="line2d_10">
      <path d="M 56.450156 51.552 
L 499.970156 51.552 
" clip-path="url(#pd5ff4b9a5f)" style="fill: none; stroke: #ffffff; stroke-linecap: round"/>
     </g>
     <g id="text_11">
      <!-- 400 -->
      <g style="fill: #262626" transform="translate(28.599063 55.488797) scale(0.11 -0.11)">
       <use xlink:href="#ArialMT-34"/>
       <use xlink:href="#ArialMT-30" x="55.615234"/>
       <use xlink:href="#ArialMT-30" x="111.230469"/>
      </g>
     </g>
    </g>
    <g id="text_12">
     <!-- y -->
     <g style="fill: #262626" transform="translate(15.64875 231.96) rotate(-90) scale(0.12 -0.12)">
      <defs>
       <path id="ArialMT-79" d="M 397 -1278 
L 334 -750 
Q 519 -800 656 -800 
Q 844 -800 956 -737 
Q 1069 -675 1141 -563 
Q 1194 -478 1313 -144 
Q 1328 -97 1363 -6 
L 103 3319 
L 709 3319 
L 1400 1397 
Q 1534 1031 1641 628 
Q 1738 1016 1872 1384 
L 2581 3319 
L 3144 3319 
L 1881 -56 
Q 1678 -603 1566 -809 
Q 1416 -1088 1222 -1217 
Q 1028 -1347 759 -1347 
Q 597 -1347 397 -1278 
z
" transform="scale(0.015625)"/>
      </defs>
      <use xlink:href="#ArialMT-79"/>
     </g>
    </g>
   </g>
   <g id="patch_3">
    <path d="M 278.210156 317.664 
C 301.734732 317.664 324.298969 308.317587 340.933356 291.6832 
C 357.567743 275.048813 366.914156 252.484576 366.914156 228.96 
C 366.914156 205.435424 357.567743 182.871187 340.933356 166.2368 
C 324.298969 149.602413 301.734732 140.256 278.210156 140.256 
C 254.68558 140.256 232.121343 149.602413 215.486956 166.2368 
C 198.852569 182.871187 189.506156 205.435424 189.506156 228.96 
C 189.506156 252.484576 198.852569 275.048813 215.486956 291.6832 
C 232.121343 308.317587 254.68558 317.664 278.210156 317.664 
z
" clip-path="url(#pd5ff4b9a5f)" style="fill: #228b22; opacity: 0.12; stroke: #228b22; stroke-width: 1.5; stroke-linejoin: miter"/>
   </g>
   <g id="PathCollection_1">
    <defs>
     <path id="m6df62db073" d="M 0 2.236068 
C 0.593012 2.236068 1.161816 2.000462 1.581139 1.581139 
C 2.000462 1.161816 2.236068 0.593012 2.236068 0 
C 2.236068 -0.593012 2.000462 -1.161816 1.581139 -1.581139 
C 1.161816 -2.000462 0.593012 -2.236068 0 -2.236068 
C -0.593012 -2.236068 -1.161816 -2.000462 -1.581139 -1.581139 
C -2.000462 -1.161816 -2.236068 -0.593012 -2.236068 0 
C -2.236068 0.593012 -2.000462 1.161816 -1.581139 1.581139 
C -1.161816 2.000462 -0.593012 2.236068 0 2.236068 
z
" style="stroke: #4169e1"/>
    </defs>
    <g clip-path="url(#pd5ff4b9a5f)">
     <use xlink:href="#m6df62db073" x="329.605006" y="183.462486" style="fill: #4169e1; stroke: #4169e1"/>
     <use xlink:href="#m6df62db073" x="237.0802" y="280.75908" style="fill: #4169e1; stroke: #4169e1"/>
     <use xlink:href="#m6df62db073" x="303.163501" y="239.594579" style="fill: #4169e1; stroke: #4169e1"/>
     <use xlink:href="#m6df62db073" x="360.126147" y="119.332131" style="fill: #4169e1; stroke: #4169e1"/>
     <use xlink:href="#m6df62db073" x="214.294604" y="140.237795" style="fill: #4169e1; stroke: #4169e1"/>
     <use xlink:href="#m6df62db073" x="357.659439" y="247.961258" style="fill: #4169e1; stroke: #4169e1"/>
     <use xlink:href="#m6df62db073" x="420.868673" y="262.053504" style="fill: #4169e1; stroke: #4169e1"/>
     <use xlink:href="#m6df62db073" x="308.237251" y="145.959234" style="fill: #4169e1; stroke: #4169e1"/>
     <use xlink:href="#m6df62db073" x="347.549442" y="259.984314" style="fill: #4169e1; stroke: #4169e1"/>
     <use xlink:href="#m6df62db073" x="319.024946" y="262.98789" style="fill: #4169e1; stroke: #4169e1"/>
     <use xlink:href="#m6df62db073" x="276.260902" y="359.158512" style="fill: #4169e1; stroke: #4169e1"/>
     <use xlink:href="#m6df62db073" x="282.859344" y="321.537728" style="fill: #4169e1; stroke: #4169e1"/>
     <use xlink:href="#m6df62db073" x="384.228809" y="230.854529" style="fill: #4169e1; stroke: #4169e1"/>
     <use xlink:href="#m6df62db073" x="316.547881" y="276.212151" style="fill: #4169e1; stroke: #4169e1"/>
     <use xlink:href="#m6df62db073" x="324.344263" y="300.585881" style="fill: #4169e1; stroke: #4169e1"/>
     <use xlink:href="#m6df62db073" x="336.703498" y="176.04587" style="fill: #4169e1; stroke: #4169e1"/>
     <use xlink:href="#m6df62db073" x="429.597279" y="252.456243" style="fill: #4169e1; stroke: #4169e1"/>
     <use xlink:href="#m6df62db073" x="384.641374" y="325.937648" style="fill: #4169e1; stroke: #4169e1"/>
     <use xlink:href="#m6df62db073" x="306.040563" y="90.995178" style="fill: #4169e1; stroke: #4169e1"/>
     <use xlink:href="#m6df62db073" x="341.777496" y="232.260225" style="fill: #4169e1; stroke: #4169e1"/>
     <use xlink:href="#m6df62db073" x="268.425499" y="327.241598" style="fill: #4169e1; stroke: #4169e1"/>
     <use xlink:href="#m6df62db073" x="392.602651" y="268.184328" style="fill: #4169e1; stroke: #4169e1"/>
     <use xlink:href="#m6df62db073" x="381.260908" y="266.625149" style="fill: #4169e1; stroke: #4169e1"/>
     <use xlink:href="#m6df62db073" x="222.503023" y="138.059088" style="fill: #4169e1; stroke: #4169e1"/>
     <use xlink:href="#m6df62db073" x="177.722368" y="278.375424" style="fill: #4169e1; stroke: #4169e1"/>
     <use xlink:href="#m6df62db073" x="363.22701" y="203.558696" style="fill: #4169e1; stroke: #4169e1"/>
     <use xlink:href="#m6df62db073" x="323.03968" y="288.671763" style="fill: #4169e1; stroke: #4169e1"/>
     <use xlink:href="#m6df62db073" x="446.900934" y="255.657306" style="fill: #4169e1; stroke: #4169e1"/>
     <use xlink:href="#m6df62db073" x="234.952101" y="291.423812" style="fill: #4169e1; stroke: #4169e1"/>
     <use xlink:href="#m6df62db073" x="289.068717" y="188.695333" style="fill: #4169e1; stroke: #4169e1"/>
     <use xlink:href="#m6df62db073" x="377.563705" y="221.557037" style="fill: #4169e1; stroke: #4169e1"/>
     <use xlink:href="#m6df62db073" x="287.939543" y="247.35916" style="fill: #4169e1; stroke: #4169e1"/>
     <use xlink:href="#m6df62db073" x="209.482524" y="233.30878" style="fill: #4169e1; stroke: #4169e1"/>
     <use xlink:href="#m6df62db073" x="269.309319" y="295.397179" style="fill: #4169e1; stroke: #4169e1"/>
     <use xlink:href="#m6df62db073" x="355.311814" y="183.171622" style="fill: #4169e1; stroke: #4169e1"/>
     <use xlink:href="#m6df62db073" x="379.715152" y="142.527416" style="fill: #4169e1; stroke: #4169e1"/>
     <use xlink:href="#m6df62db073" x="361.199228" y="251.809704" style="fill: #4169e1; stroke: #4169e1"/>
     <use xlink:href="#m6df62db073" x="275.892753" y="95.825848" style="fill: #4169e1; stroke: #4169e1"/>
     <use xlink:href="#m6df62db073" x="369.402764" y="97.614221" style="fill: #4169e1; stroke: #4169e1"/>
     <use xlink:href="#m6df62db073" x="314.897377" y="141.067148" style="fill: #4169e1; stroke: #4169e1"/>
     <use xlink:href="#m6df62db073" x="333.979074" y="314.196658" style="fill: #4169e1; stroke: #4169e1"/>
     <use xlink:href="#m6df62db073" x="372.04463" y="190.311309" style="fill: #4169e1; stroke: #4169e1"/>
     <use xlink:href="#m6df62db073" x="379.927607" y="145.400584" style="fill: #4169e1; stroke: #4169e1"/>
     <use xlink:href="#m6df62db073" x="258.336911" y="114.63154" style="fill: #4169e1; stroke: #4169e1"/>
     <use xlink:href="#m6df62db073" x="238.937153" y="246.718402" style="fill: #4169e1; stroke: #4169e1"/>
     <use xlink:href="#m6df62db073" x="186.322593" y="185.15122" style="fill: #4169e1; stroke: #4169e1"/>
     <use xlink:href="#m6df62db073" x="193.951041" y="302.646792" style="fill: #4169e1; stroke: #4169e1"/>
     <use xlink:href="#m6df62db073" x="325.193512" y="340.032734" style="fill: #4169e1; stroke: #4169e1"/>
     <use xlink:href="#m6df62db073" x="406.323767" y="240.878163" style="fill: #4169e1; stroke: #4169e1"/>
     <use xlink:href="#m6df62db073" x="357.918671" y="224.432686" style="fill: #4169e1; stroke: #4169e1"/>
     <use xlink:href="#m6df62db073" x="430.087928" y="280.621634" style="fill: #4169e1; stroke: #4169e1"/>
     <use xlink:href="#m6df62db073" x="347.83615" y="107.054397" style="fill: #4169e1; stroke: #4169e1"/>
     <use xlink:href="#m6df62db073" x="237.928168" y="172.820053" style="fill: #4169e1; stroke: #4169e1"/>
     <use xlink:href="#m6df62db073" x="434.721662" y="232.545627" style="fill: #4169e1; stroke: #4169e1"/>
     <use xlink:href="#m6df62db073" x="337.475482" y="138.98827" style="fill: #4169e1; stroke: #4169e1"/>
     <use xlink:href="#m6df62db073" x="334.925686" y="107.55379" style="fill: #4169e1; stroke: #4169e1"/>
     <use xlink:href="#m6df62db073" x="201.391215" y="266.22105" style="fill: #4169e1; stroke: #4169e1"/>
     <use xlink:href="#m6df62db073" x="202.111413" y="157.231793" style="fill: #4169e1; stroke: #4169e1"/>
     <use xlink:href="#m6df62db073" x="382.997529" y="105.473762" style="fill: #4169e1; stroke: #4169e1"/>
     <use xlink:href="#m6df62db073" x="266.227486" y="296.458017" style="fill: #4169e1; stroke: #4169e1"/>
     <use xlink:href="#m6df62db073" x="369.404706" y="278.072869" style="fill: #4169e1; stroke: #4169e1"/>
     <use xlink:href="#m6df62db073" x="313.005774" y="144.299425" style="fill: #4169e1; stroke: #4169e1"/>
     <use xlink:href="#m6df62db073" x="353.305721" y="100.275558" style="fill: #4169e1; stroke: #4169e1"/>
     <use xlink:href="#m6df62db073" x="258.918879" y="261.710967" style="fill: #4169e1; stroke: #4169e1"/>
     <use xlink:href="#m6df62db073" x="430.602954" y="198.561575" style="fill: #4169e1; stroke: #4169e1"/>
     <use xlink:href="#m6df62db073" x="344.145777" y="320.38033" style="fill: #4169e1; stroke: #4169e1"/>
     <use xlink:href="#m6df62db073" x="350.672977" y="155.148414" style="fill: #4169e1; stroke: #4169e1"/>
     <use xlink:href="#m6df62db073" x="309.682074" y="257.445863" style="fill: #4169e1; stroke: #4169e1"/>
     <use xlink:href="#m6df62db073" x="323.091449" y="245.454085" style="fill: #4169e1; stroke: #4169e1"/>
     <use xlink:href="#m6df62db073" x="311.874154" y="150.171531" style="fill: #4169e1; stroke: #4169e1"/>
     <use xlink:href="#m6df62db073" x="274.682274" y="260.943182" style="fill: #4169e1; stroke: #4169e1"/>
     <use xlink:href="#m6df62db073" x="419.805906" y="223.72444" style="fill: #4169e1; stroke: #4169e1"/>
     <use xlink:href="#m6df62db073" x="234.452245" y="297.17984" style="fill: #4169e1; stroke: #4169e1"/>
     <use xlink:href="#m6df62db073" x="238.14363" y="188.843245" style="fill: #4169e1; stroke: #4169e1"/>
     <use xlink:href="#m6df62db073" x="393.156672" y="332.456491" style="fill: #4169e1; stroke: #4169e1"/>
     <use xlink:href="#m6df62db073" x="268.943639" y="212.648754" style="fill: #4169e1; stroke: #4169e1"/>
     <use xlink:href="#m6df62db073" x="279.315937" y="286.784813" style="fill: #4169e1; stroke: #4169e1"/>
     <use xlink:href="#m6df62db073" x="400.2593" y="139.712374" style="fill: #4169e1; stroke: #4169e1"/>
     <use xlink:href="#m6df62db073" x="317.525738" y="142.801401" style="fill: #4169e1; stroke: #4169e1"/>
     <use xlink:href="#m6df62db073" x="356.376171" y="124.746741" style="fill: #4169e1; stroke: #4169e1"/>
     <use xlink:href="#m6df62db073" x="215.360815" y="275.071232" style="fill: #4169e1; stroke: #4169e1"/>
     <use xlink:href="#m6df62db073" x="358.078704" y="319.392988" style="fill: #4169e1; stroke: #4169e1"/>
     <use xlink:href="#m6df62db073" x="331.811737" y="305.210506" style="fill: #4169e1; stroke: #4169e1"/>
     <use xlink:href="#m6df62db073" x="219.677942" y="191.29257" style="fill: #4169e1; stroke: #4169e1"/>
     <use xlink:href="#m6df62db073" x="464.958551" y="343.01888" style="fill: #4169e1; stroke: #4169e1"/>
     <use xlink:href="#m6df62db073" x="381.755604" y="295.29909" style="fill: #4169e1; stroke: #4169e1"/>
     <use xlink:href="#m6df62db073" x="326.464785" y="305.512218" style="fill: #4169e1; stroke: #4169e1"/>
     <use xlink:href="#m6df62db073" x="154.834026" y="208.977254" style="fill: #4169e1; stroke: #4169e1"/>
     <use xlink:href="#m6df62db073" x="377.204739" y="371.063345" style="fill: #4169e1; stroke: #4169e1"/>
     <use xlink:href="#m6df62db073" x="283.387171" y="273.901104" style="fill: #4169e1; stroke: #4169e1"/>
     <use xlink:href="#m6df62db073" x="416.489441" y="230.161388" style="fill: #4169e1; stroke: #4169e1"/>
     <use xlink:href="#m6df62db073" x="337.490012" y="189.35307" style="fill: #4169e1; stroke: #4169e1"/>
     <use xlink:href="#m6df62db073" x="276.966719" y="277.923962" style="fill: #4169e1; stroke: #4169e1"/>
     <use xlink:href="#m6df62db073" x="345.118129" y="136.570878" style="fill: #4169e1; stroke: #4169e1"/>
     <use xlink:href="#m6df62db073" x="365.365322" y="359.029129" style="fill: #4169e1; stroke: #4169e1"/>
     <use xlink:href="#m6df62db073" x="278.40232" y="183.767957" style="fill: #4169e1; stroke: #4169e1"/>
     <use xlink:href="#m6df62db073" x="302.398309" y="107.448784" style="fill: #4169e1; stroke: #4169e1"/>
     <use xlink:href="#m6df62db073" x="177.732445" y="201.952196" style="fill: #4169e1; stroke: #4169e1"/>
     <use xlink:href="#m6df62db073" x="405.603101" y="344.174282" style="fill: #4169e1; stroke: #4169e1"/>
     <use xlink:href="#m6df62db073" x="384.913931" y="221.633598" style="fill: #4169e1; stroke: #4169e1"/>
     <use xlink:href="#m6df62db073" x="258.600429" y="155.218357" style="fill: #4169e1; stroke: #4169e1"/>
     <use xlink:href="#m6df62db073" x="227.700807" y="164.341262" style="fill: #4169e1; stroke: #4169e1"/>
     <use xlink:href="#m6df62db073" x="308.437239" y="135.961775" style="fill: #4169e1; stroke: #4169e1"/>
     <use xlink:href="#m6df62db073" x="390.427436" y="201.02675" style="fill: #4169e1; stroke: #4169e1"/>
     <use xlink:href="#m6df62db073" x="316.260627" y="111.337421" style="fill: #4169e1; stroke: #4169e1"/>
     <use xlink:href="#m6df62db073" x="291.925806" y="300.785288" style="fill: #4169e1; stroke: #4169e1"/>
     <use xlink:href="#m6df62db073" x="328.169643" y="315.743849" style="fill: #4169e1; stroke: #4169e1"/>
     <use xlink:href="#m6df62db073" x="276.267871" y="292.418998" style="fill: #4169e1; stroke: #4169e1"/>
     <use xlink:href="#m6df62db073" x="368.175369" y="245.09357" style="fill: #4169e1; stroke: #4169e1"/>
     <use xlink:href="#m6df62db073" x="435.347866" y="330.072375" style="fill: #4169e1; stroke: #4169e1"/>
     <use xlink:href="#m6df62db073" x="183.919202" y="221.93058" style="fill: #4169e1; stroke: #4169e1"/>
     <use xlink:href="#m6df62db073" x="375.087915" y="234.043947" style="fill: #4169e1; stroke: #4169e1"/>
     <use xlink:href="#m6df62db073" x="356.824009" y="103.274204" style="fill: #4169e1; stroke: #4169e1"/>
     <use xlink:href="#m6df62db073" x="359.519779" y="249.529379" style="fill: #4169e1; stroke: #4169e1"/>
     <use xlink:href="#m6df62db073" x="292.511165" y="292.503281" style="fill: #4169e1; stroke: #4169e1"/>
     <use xlink:href="#m6df62db073" x="284.167204" y="245.575863" style="fill: #4169e1; stroke: #4169e1"/>
     <use xlink:href="#m6df62db073" x="366.588304" y="151.43679" style="fill: #4169e1; stroke: #4169e1"/>
     <use xlink:href="#m6df62db073" x="247.288956" y="143.317294" style="fill: #4169e1; stroke: #4169e1"/>
     <use xlink:href="#m6df62db073" x="244.819487" y="119.057773" style="fill: #4169e1; stroke: #4169e1"/>
     <use xlink:href="#m6df62db073" x="293.633008" y="147.297103" style="fill: #4169e1; stroke: #4169e1"/>
     <use xlink:href="#m6df62db073" x="317.671346" y="117.860778" style="fill: #4169e1; stroke: #4169e1"/>
     <use xlink:href="#m6df62db073" x="248.675586" y="341.576175" style="fill: #4169e1; stroke: #4169e1"/>
     <use xlink:href="#m6df62db073" x="435.924409" y="216.633978" style="fill: #4169e1; stroke: #4169e1"/>
     <use xlink:href="#m6df62db073" x="444.144675" y="256.445042" style="fill: #4169e1; stroke: #4169e1"/>
     <use xlink:href="#m6df62db073" x="359.640898" y="273.216628" style="fill: #4169e1; stroke: #4169e1"/>
     <use xlink:href="#m6df62db073" x="206.812782" y="236.632029" style="fill: #4169e1; stroke: #4169e1"/>
     <use xlink:href="#m6df62db073" x="268.118537" y="168.819531" style="fill: #4169e1; stroke: #4169e1"/>
     <use xlink:href="#m6df62db073" x="244.255501" y="171.111365" style="fill: #4169e1; stroke: #4169e1"/>
     <use xlink:href="#m6df62db073" x="298.212344" y="300.824574" style="fill: #4169e1; stroke: #4169e1"/>
     <use xlink:href="#m6df62db073" x="345.419929" y="219.72387" style="fill: #4169e1; stroke: #4169e1"/>
     <use xlink:href="#m6df62db073" x="340.472071" y="242.082077" style="fill: #4169e1; stroke: #4169e1"/>
     <use xlink:href="#m6df62db073" x="373.024115" y="288.236513" style="fill: #4169e1; stroke: #4169e1"/>
     <use xlink:href="#m6df62db073" x="307.126329" y="376.059374" style="fill: #4169e1; stroke: #4169e1"/>
     <use xlink:href="#m6df62db073" x="389.971302" y="238.258186" style="fill: #4169e1; stroke: #4169e1"/>
     <use xlink:href="#m6df62db073" x="412.744331" y="268.631157" style="fill: #4169e1; stroke: #4169e1"/>
     <use xlink:href="#m6df62db073" x="284.13766" y="296.802561" style="fill: #4169e1; stroke: #4169e1"/>
     <use xlink:href="#m6df62db073" x="381.294536" y="279.090392" style="fill: #4169e1; stroke: #4169e1"/>
     <use xlink:href="#m6df62db073" x="398.864569" y="124.300724" style="fill: #4169e1; stroke: #4169e1"/>
     <use xlink:href="#m6df62db073" x="407.752633" y="292.398377" style="fill: #4169e1; stroke: #4169e1"/>
     <use xlink:href="#m6df62db073" x="250.995667" y="252.415421" style="fill: #4169e1; stroke: #4169e1"/>
     <use xlink:href="#m6df62db073" x="342.731732" y="159.145346" style="fill: #4169e1; stroke: #4169e1"/>
     <use xlink:href="#m6df62db073" x="391.806229" y="222.94922" style="fill: #4169e1; stroke: #4169e1"/>
     <use xlink:href="#m6df62db073" x="270.104822" y="365.786719" style="fill: #4169e1; stroke: #4169e1"/>
     <use xlink:href="#m6df62db073" x="244.819927" y="113.367262" style="fill: #4169e1; stroke: #4169e1"/>
     <use xlink:href="#m6df62db073" x="319.340613" y="197.503285" style="fill: #4169e1; stroke: #4169e1"/>
     <use xlink:href="#m6df62db073" x="346.03921" y="257.190374" style="fill: #4169e1; stroke: #4169e1"/>
     <use xlink:href="#m6df62db073" x="358.65876" y="199.039322" style="fill: #4169e1; stroke: #4169e1"/>
     <use xlink:href="#m6df62db073" x="381.280134" y="194.895802" style="fill: #4169e1; stroke: #4169e1"/>
     <use xlink:href="#m6df62db073" x="214.434557" y="140.897086" style="fill: #4169e1; stroke: #4169e1"/>
     <use xlink:href="#m6df62db073" x="406.095212" y="277.943341" style="fill: #4169e1; stroke: #4169e1"/>
    </g>
   </g>
   <g id="PathCollection_2">
    <defs>
     <path id="m59eb5b2ee4" d="M 0 2.5 
C 0.663008 2.5 1.29895 2.236584 1.767767 1.767767 
C 2.236584 1.29895 2.5 0.663008 2.5 0 
C 2.5 -0.663008 2.236584 -1.29895 1.767767 -1.767767 
C 1.29895 -2.236584 0.663008 -2.5 0 -2.5 
C -0.663008 -2.5 -1.29895 -2.236584 -1.767767 -1.767767 
C -2.236584 -1.29895 -2.5 -0.663008 -2.5 0 
C -2.5 0.663008 -2.236584 1.29895 -1.767767 1.767767 
C -1.29895 2.236584 -0.663008 2.5 0 2.5 
z
" style="stroke: #b22222"/>
    </defs>
    <g clip-path="url(#pd5ff4b9a5f)">
     <use xlink:href="#m59eb5b2ee4" x="312.874659" y="233.671334" style="fill: #b22222; stroke: #b22222"/>
     <use xlink:href="#m59eb5b2ee4" x="279.029234" y="248.85404" style="fill: #b22222; stroke: #b22222"/>
     <use xlink:href="#m59eb5b2ee4" x="267.391787" y="237.066289" style="fill: #b22222; stroke: #b22222"/>
     <use xlink:href="#m59eb5b2ee4" x="275.597994" y="220.505957" style="fill: #b22222; stroke: #b22222"/>
     <use xlink:href="#m59eb5b2ee4" x="304.717565" y="230.656282" style="fill: #b22222; stroke: #b22222"/>
     <use xlink:href="#m59eb5b2ee4" x="250.553071" y="229.618781" style="fill: #b22222; stroke: #b22222"/>
     <use xlink:href="#m59eb5b2ee4" x="264.339215" y="231.1105" style="fill: #b22222; stroke: #b22222"/>
     <use xlink:href="#m59eb5b2ee4" x="266.957966" y="207.481979" style="fill: #b22222; stroke: #b22222"/>
     <use xlink:href="#m59eb5b2ee4" x="256.827905" y="223.003425" style="fill: #b22222; stroke: #b22222"/>
     <use xlink:href="#m59eb5b2ee4" x="254.55341" y="227.950121" style="fill: #b22222; stroke: #b22222"/>
     <use xlink:href="#m59eb5b2ee4" x="266.917134" y="226.602963" style="fill: #b22222; stroke: #b22222"/>
     <use xlink:href="#m59eb5b2ee4" x="247.765485" y="215.615593" style="fill: #b22222; stroke: #b22222"/>
     <use xlink:href="#m59eb5b2ee4" x="271.028857" y="237.449751" style="fill: #b22222; stroke: #b22222"/>
     <use xlink:href="#m59eb5b2ee4" x="271.619743" y="238.696873" style="fill: #b22222; stroke: #b22222"/>
     <use xlink:href="#m59eb5b2ee4" x="261.158233" y="233.129991" style="fill: #b22222; stroke: #b22222"/>
     <use xlink:href="#m59eb5b2ee4" x="257.549195" y="236.772796" style="fill: #b22222; stroke: #b22222"/>
     <use xlink:href="#m59eb5b2ee4" x="253.284271" y="222.443291" style="fill: #b22222; stroke: #b22222"/>
     <use xlink:href="#m59eb5b2ee4" x="248.495721" y="223.193867" style="fill: #b22222; stroke: #b22222"/>
     <use xlink:href="#m59eb5b2ee4" x="269.6798" y="235.284312" style="fill: #b22222; stroke: #b22222"/>
     <use xlink:href="#m59eb5b2ee4" x="257.540577" y="243.703034" style="fill: #b22222; stroke: #b22222"/>
     <use xlink:href="#m59eb5b2ee4" x="280.900622" y="218.97525" style="fill: #b22222; stroke: #b22222"/>
     <use xlink:href="#m59eb5b2ee4" x="242.84907" y="208.025566" style="fill: #b22222; stroke: #b22222"/>
     <use xlink:href="#m59eb5b2ee4" x="285.988643" y="242.268449" style="fill: #b22222; stroke: #b22222"/>
     <use xlink:href="#m59eb5b2ee4" x="260.908733" y="237.709292" style="fill: #b22222; stroke: #b22222"/>
     <use xlink:href="#m59eb5b2ee4" x="251.201084" y="230.049573" style="fill: #b22222; stroke: #b22222"/>
     <use xlink:href="#m59eb5b2ee4" x="252.054998" y="227.874978" style="fill: #b22222; stroke: #b22222"/>
     <use xlink:href="#m59eb5b2ee4" x="252.132988" y="223.331965" style="fill: #b22222; stroke: #b22222"/>
     <use xlink:href="#m59eb5b2ee4" x="244.522276" y="218.45737" style="fill: #b22222; stroke: #b22222"/>
     <use xlink:href="#m59eb5b2ee4" x="277.02759" y="240.227392" style="fill: #b22222; stroke: #b22222"/>
     <use xlink:href="#m59eb5b2ee4" x="245.976662" y="227.851534" style="fill: #b22222; stroke: #b22222"/>
     <use xlink:href="#m59eb5b2ee4" x="256.65768" y="232.201811" style="fill: #b22222; stroke: #b22222"/>
     <use xlink:href="#m59eb5b2ee4" x="260.14381" y="241.05464" style="fill: #b22222; stroke: #b22222"/>
     <use xlink:href="#m59eb5b2ee4" x="255.265106" y="231.914393" style="fill: #b22222; stroke: #b22222"/>
     <use xlink:href="#m59eb5b2ee4" x="247.02203" y="224.064089" style="fill: #b22222; stroke: #b22222"/>
     <use xlink:href="#m59eb5b2ee4" x="248.684333" y="208.775331" style="fill: #b22222; stroke: #b22222"/>
     <use xlink:href="#m59eb5b2ee4" x="310.822107" y="199.293357" style="fill: #b22222; stroke: #b22222"/>
     <use xlink:href="#m59eb5b2ee4" x="262.00843" y="230.912111" style="fill: #b22222; stroke: #b22222"/>
     <use xlink:href="#m59eb5b2ee4" x="346.041923" y="226.238672" style="fill: #b22222; stroke: #b22222"/>
     <use xlink:href="#m59eb5b2ee4" x="243.815788" y="219.996617" style="fill: #b22222; stroke: #b22222"/>
     <use xlink:href="#m59eb5b2ee4" x="273.240894" y="236.904222" style="fill: #b22222; stroke: #b22222"/>
     <use xlink:href="#m59eb5b2ee4" x="274.405288" y="224.589537" style="fill: #b22222; stroke: #b22222"/>
     <use xlink:href="#m59eb5b2ee4" x="293.378267" y="232.458834" style="fill: #b22222; stroke: #b22222"/>
     <use xlink:href="#m59eb5b2ee4" x="263.366005" y="229.421139" style="fill: #b22222; stroke: #b22222"/>
     <use xlink:href="#m59eb5b2ee4" x="280.799415" y="224.525359" style="fill: #b22222; stroke: #b22222"/>
     <use xlink:href="#m59eb5b2ee4" x="254.608444" y="231.127974" style="fill: #b22222; stroke: #b22222"/>
     <use xlink:href="#m59eb5b2ee4" x="263.118393" y="214.020191" style="fill: #b22222; stroke: #b22222"/>
     <use xlink:href="#m59eb5b2ee4" x="269.862553" y="230.048176" style="fill: #b22222; stroke: #b22222"/>
     <use xlink:href="#m59eb5b2ee4" x="267.374277" y="235.754431" style="fill: #b22222; stroke: #b22222"/>
     <use xlink:href="#m59eb5b2ee4" x="260.822757" y="232.073442" style="fill: #b22222; stroke: #b22222"/>
     <use xlink:href="#m59eb5b2ee4" x="326.998348" y="230.69711" style="fill: #b22222; stroke: #b22222"/>
     <use xlink:href="#m59eb5b2ee4" x="246.310659" y="214.364797" style="fill: #b22222; stroke: #b22222"/>
     <use xlink:href="#m59eb5b2ee4" x="275.829247" y="237.485874" style="fill: #b22222; stroke: #b22222"/>
     <use xlink:href="#m59eb5b2ee4" x="260.734324" y="233.083517" style="fill: #b22222; stroke: #b22222"/>
     <use xlink:href="#m59eb5b2ee4" x="268.494745" y="217.834565" style="fill: #b22222; stroke: #b22222"/>
     <use xlink:href="#m59eb5b2ee4" x="269.104475" y="236.582561" style="fill: #b22222; stroke: #b22222"/>
     <use xlink:href="#m59eb5b2ee4" x="257.97346" y="237.332342" style="fill: #b22222; stroke: #b22222"/>
     <use xlink:href="#m59eb5b2ee4" x="238.590697" y="232.704949" style="fill: #b22222; stroke: #b22222"/>
     <use xlink:href="#m59eb5b2ee4" x="262.874342" y="236.439988" style="fill: #b22222; stroke: #b22222"/>
     <use xlink:href="#m59eb5b2ee4" x="267.211316" y="240.351712" style="fill: #b22222; stroke: #b22222"/>
     <use xlink:href="#m59eb5b2ee4" x="251.903973" y="227.20124" style="fill: #b22222; stroke: #b22222"/>
     <use xlink:href="#m59eb5b2ee4" x="297.542127" y="219.983322" style="fill: #b22222; stroke: #b22222"/>
     <use xlink:href="#m59eb5b2ee4" x="261.217038" y="237.787601" style="fill: #b22222; stroke: #b22222"/>
     <use xlink:href="#m59eb5b2ee4" x="271.246043" y="243.105869" style="fill: #b22222; stroke: #b22222"/>
     <use xlink:href="#m59eb5b2ee4" x="303.451104" y="209.552694" style="fill: #b22222; stroke: #b22222"/>
     <use xlink:href="#m59eb5b2ee4" x="303.092582" y="246.262936" style="fill: #b22222; stroke: #b22222"/>
     <use xlink:href="#m59eb5b2ee4" x="268.755185" y="245.606511" style="fill: #b22222; stroke: #b22222"/>
     <use xlink:href="#m59eb5b2ee4" x="281.571768" y="245.469312" style="fill: #b22222; stroke: #b22222"/>
     <use xlink:href="#m59eb5b2ee4" x="308.401392" y="243.275262" style="fill: #b22222; stroke: #b22222"/>
     <use xlink:href="#m59eb5b2ee4" x="304.960071" y="225.013071" style="fill: #b22222; stroke: #b22222"/>
     <use xlink:href="#m59eb5b2ee4" x="275.205144" y="243.657214" style="fill: #b22222; stroke: #b22222"/>
     <use xlink:href="#m59eb5b2ee4" x="288.735936" y="218.760471" style="fill: #b22222; stroke: #b22222"/>
     <use xlink:href="#m59eb5b2ee4" x="272.65082" y="241.511693" style="fill: #b22222; stroke: #b22222"/>
     <use xlink:href="#m59eb5b2ee4" x="306.292976" y="235.220335" style="fill: #b22222; stroke: #b22222"/>
     <use xlink:href="#m59eb5b2ee4" x="249.957035" y="212.288609" style="fill: #b22222; stroke: #b22222"/>
     <use xlink:href="#m59eb5b2ee4" x="253.940076" y="225.739958" style="fill: #b22222; stroke: #b22222"/>
     <use xlink:href="#m59eb5b2ee4" x="269.524495" y="226.448331" style="fill: #b22222; stroke: #b22222"/>
     <use xlink:href="#m59eb5b2ee4" x="335.603597" y="238.484038" style="fill: #b22222; stroke: #b22222"/>
     <use xlink:href="#m59eb5b2ee4" x="269.450961" y="235.505856" style="fill: #b22222; stroke: #b22222"/>
     <use xlink:href="#m59eb5b2ee4" x="242.372155" y="217.239236" style="fill: #b22222; stroke: #b22222"/>
     <use xlink:href="#m59eb5b2ee4" x="276.811362" y="241.946197" style="fill: #b22222; stroke: #b22222"/>
    </g>
   </g>
   <g id="patch_4">
    <path d="M 56.450156 450.72 
L 56.450156 7.2 
" style="fill: none; stroke: #ffffff; stroke-width: 1.25; stroke-linejoin: miter; stroke-linecap: square"/>
   </g>
   <g id="patch_5">
    <path d="M 499.970156 450.72 
L 499.970156 7.2 
" style="fill: none; stroke: #ffffff; stroke-width: 1.25; stroke-linejoin: miter; stroke-linecap: square"/>
   </g>
   <g id="patch_6">
    <path d="M 56.450156 450.72 
L 499.970156 450.72 
" style="fill: none; stroke: #ffffff; stroke-width: 1.25; stroke-linejoin: miter; stroke-linecap: square"/>
   </g>
   <g id="patch_7">
    <path d="M 56.450156 7.2 
L 499.970156 7.2 
" style="fill: none; stroke: #ffffff; stroke-width: 1.25; stroke-linejoin: miter; stroke-linecap: square"/>
   </g>
   <g id="text_13">
    <!-- t = 200 -->
    <g style="fill: #262626" transform="translate(65.320556 24.659775) scale(0.12 -0.12)">
     <defs>
      <path id="ArialMT-74" d="M 1650 503 
L 1731 6 
Q 1494 -44 1306 -44 
Q 1000 -44 831 53 
Q 663 150 594 308 
Q 525 466 525 972 
L 525 2881 
L 113 2881 
L 113 3319 
L 525 3319 
L 525 4141 
L 1084 4478 
L 1084 3319 
L 1650 3319 
L 1650 2881 
L 1084 2881 
L 1084 941 
Q 1084 700 1114 631 
Q 1144 563 1211 522 
Q 1278 481 1403 481 
Q 1497 481 1650 503 
z
" transform="scale(0.015625)"/>
      <path id="ArialMT-20" transform="scale(0.015625)"/>
      <path id="ArialMT-3d" d="M 3381 2694 
L 356 2694 
L 356 3219 
L 3381 3219 
L 3381 2694 
z
M 3381 1303 
L 356 1303 
L 356 1828 
L 3381 1828 
L 3381 1303 
z
" transform="scale(0.015625)"/>
     </defs>
     <use xlink:href="#ArialMT-74"/>
     <use xlink:href="#ArialMT-20" x="27.783203"/>
     <use xlink:href="#ArialMT-3d" x="55.566406"/>
     <use xlink:href="#ArialMT-20" x="113.964844"/>
     <use xlink:href="#ArialMT-32" x="141.748047"/>
     <use xlink:href="#ArialMT-30" x="197.363281"/>
     <use xlink:href="#ArialMT-30" x="252.978516"/>
    </g>
   </g>
   <g id="legend_1">
    <g id="patch_8">
     <path d="M 328.111406 94.59 
L 483.170156 94.59 
Q 487.970156 94.59 487.970156 89.79 
L 487.970156 24 
Q 487.970156 19.2 483.170156 19.2 
L 328.111406 19.2 
Q 323.311406 19.2 323.311406 24 
L 323.311406 89.79 
Q 323.311406 94.59 328.111406 94.59 
z
" style="fill: #eaeaf2; opacity: 0.8; stroke: #cccccc; stroke-linejoin: miter"/>
    </g>
    <g id="PathCollection_3">
     <g>
      <use xlink:href="#m6df62db073" x="356.911406" y="39.97125" style="fill: #4169e1; stroke: #4169e1"/>
     </g>
    </g>
    <g id="text_14">
     <!-- Sheep -->
     <g style="fill: #262626" transform="translate(400.111406 46.27125) scale(0.24 -0.24)">
      <defs>
       <path id="ArialMT-53" d="M 288 1472 
L 859 1522 
Q 900 1178 1048 958 
Q 1197 738 1509 602 
Q 1822 466 2213 466 
Q 2559 466 2825 569 
Q 3091 672 3220 851 
Q 3350 1031 3350 1244 
Q 3350 1459 3225 1620 
Q 3100 1781 2813 1891 
Q 2628 1963 1997 2114 
Q 1366 2266 1113 2400 
Q 784 2572 623 2826 
Q 463 3081 463 3397 
Q 463 3744 659 4045 
Q 856 4347 1234 4503 
Q 1613 4659 2075 4659 
Q 2584 4659 2973 4495 
Q 3363 4331 3572 4012 
Q 3781 3694 3797 3291 
L 3216 3247 
Q 3169 3681 2898 3903 
Q 2628 4125 2100 4125 
Q 1550 4125 1298 3923 
Q 1047 3722 1047 3438 
Q 1047 3191 1225 3031 
Q 1400 2872 2139 2705 
Q 2878 2538 3153 2413 
Q 3553 2228 3743 1945 
Q 3934 1663 3934 1294 
Q 3934 928 3725 604 
Q 3516 281 3123 101 
Q 2731 -78 2241 -78 
Q 1619 -78 1198 103 
Q 778 284 539 648 
Q 300 1013 288 1472 
z
" transform="scale(0.015625)"/>
       <path id="ArialMT-68" d="M 422 0 
L 422 4581 
L 984 4581 
L 984 2938 
Q 1378 3394 1978 3394 
Q 2347 3394 2619 3248 
Q 2891 3103 3008 2847 
Q 3125 2591 3125 2103 
L 3125 0 
L 2563 0 
L 2563 2103 
Q 2563 2525 2380 2717 
Q 2197 2909 1863 2909 
Q 1613 2909 1392 2779 
Q 1172 2650 1078 2428 
Q 984 2206 984 1816 
L 984 0 
L 422 0 
z
" transform="scale(0.015625)"/>
       <path id="ArialMT-65" d="M 2694 1069 
L 3275 997 
Q 3138 488 2766 206 
Q 2394 -75 1816 -75 
Q 1088 -75 661 373 
Q 234 822 234 1631 
Q 234 2469 665 2931 
Q 1097 3394 1784 3394 
Q 2450 3394 2872 2941 
Q 3294 2488 3294 1666 
Q 3294 1616 3291 1516 
L 816 1516 
Q 847 969 1125 678 
Q 1403 388 1819 388 
Q 2128 388 2347 550 
Q 2566 713 2694 1069 
z
M 847 1978 
L 2700 1978 
Q 2663 2397 2488 2606 
Q 2219 2931 1791 2931 
Q 1403 2931 1139 2672 
Q 875 2413 847 1978 
z
" transform="scale(0.015625)"/>
       <path id="ArialMT-70" d="M 422 -1272 
L 422 3319 
L 934 3319 
L 934 2888 
Q 1116 3141 1344 3267 
Q 1572 3394 1897 3394 
Q 2322 3394 2647 3175 
Q 2972 2956 3137 2557 
Q 3303 2159 3303 1684 
Q 3303 1175 3120 767 
Q 2938 359 2589 142 
Q 2241 -75 1856 -75 
Q 1575 -75 1351 44 
Q 1128 163 984 344 
L 984 -1272 
L 422 -1272 
z
M 931 1641 
Q 931 1000 1190 694 
Q 1450 388 1819 388 
Q 2194 388 2461 705 
Q 2728 1022 2728 1688 
Q 2728 2322 2467 2637 
Q 2206 2953 1844 2953 
Q 1484 2953 1207 2617 
Q 931 2281 931 1641 
z
" transform="scale(0.015625)"/>
      </defs>
      <use xlink:href="#ArialMT-53"/>
      <use xlink:href="#ArialMT-68" x="66.699219"/>
      <use xlink:href="#ArialMT-65" x="122.314453"/>
      <use xlink:href="#ArialMT-65" x="177.929688"/>
      <use xlink:href="#ArialMT-70" x="233.544922"/>
     </g>
    </g>
    <g id="PathCollection_4">
     <g>
      <use xlink:href="#m59eb5b2ee4" x="356.911406" y="73.92" style="fill: #b22222; stroke: #b22222"/>
     </g>
    </g>
    <g id="text_15">
     <!-- Wolves -->
     <g style="fill: #262626" transform="translate(400.111406 80.22) scale(0.24 -0.24)">
      <defs>
       <path id="ArialMT-57" d="M 1294 0 
L 78 4581 
L 700 4581 
L 1397 1578 
Q 1509 1106 1591 641 
Q 1766 1375 1797 1488 
L 2669 4581 
L 3400 4581 
L 4056 2263 
Q 4303 1400 4413 641 
Q 4500 1075 4641 1638 
L 5359 4581 
L 5969 4581 
L 4713 0 
L 4128 0 
L 3163 3491 
Q 3041 3928 3019 4028 
Q 2947 3713 2884 3491 
L 1913 0 
L 1294 0 
z
" transform="scale(0.015625)"/>
       <path id="ArialMT-6f" d="M 213 1659 
Q 213 2581 725 3025 
Q 1153 3394 1769 3394 
Q 2453 3394 2887 2945 
Q 3322 2497 3322 1706 
Q 3322 1066 3130 698 
Q 2938 331 2570 128 
Q 2203 -75 1769 -75 
Q 1072 -75 642 372 
Q 213 819 213 1659 
z
M 791 1659 
Q 791 1022 1069 705 
Q 1347 388 1769 388 
Q 2188 388 2466 706 
Q 2744 1025 2744 1678 
Q 2744 2294 2464 2611 
Q 2184 2928 1769 2928 
Q 1347 2928 1069 2612 
Q 791 2297 791 1659 
z
" transform="scale(0.015625)"/>
       <path id="ArialMT-6c" d="M 409 0 
L 409 4581 
L 972 4581 
L 972 0 
L 409 0 
z
" transform="scale(0.015625)"/>
       <path id="ArialMT-76" d="M 1344 0 
L 81 3319 
L 675 3319 
L 1388 1331 
Q 1503 1009 1600 663 
Q 1675 925 1809 1294 
L 2547 3319 
L 3125 3319 
L 1869 0 
L 1344 0 
z
" transform="scale(0.015625)"/>
       <path id="ArialMT-73" d="M 197 991 
L 753 1078 
Q 800 744 1014 566 
Q 1228 388 1613 388 
Q 2000 388 2187 545 
Q 2375 703 2375 916 
Q 2375 1106 2209 1216 
Q 2094 1291 1634 1406 
Q 1016 1563 777 1677 
Q 538 1791 414 1992 
Q 291 2194 291 2438 
Q 291 2659 392 2848 
Q 494 3038 669 3163 
Q 800 3259 1026 3326 
Q 1253 3394 1513 3394 
Q 1903 3394 2198 3281 
Q 2494 3169 2634 2976 
Q 2775 2784 2828 2463 
L 2278 2388 
Q 2241 2644 2061 2787 
Q 1881 2931 1553 2931 
Q 1166 2931 1000 2803 
Q 834 2675 834 2503 
Q 834 2394 903 2306 
Q 972 2216 1119 2156 
Q 1203 2125 1616 2013 
Q 2213 1853 2448 1751 
Q 2684 1650 2818 1456 
Q 2953 1263 2953 975 
Q 2953 694 2789 445 
Q 2625 197 2315 61 
Q 2006 -75 1616 -75 
Q 969 -75 630 194 
Q 291 463 197 991 
z
" transform="scale(0.015625)"/>
      </defs>
      <use xlink:href="#ArialMT-57"/>
      <use xlink:href="#ArialMT-6f" x="92.634766"/>
      <use xlink:href="#ArialMT-6c" x="148.25"/>
      <use xlink:href="#ArialMT-76" x="170.466797"/>
      <use xlink:href="#ArialMT-65" x="220.466797"/>
      <use xlink:href="#ArialMT-73" x="276.082031"/>
     </g>
    </g>
   </g>
  </g>
 </g>
 <defs>
  <clipPath id="pd5ff4b9a5f">
   <rect x="56.450156" y="7.2" width="443.52" height="443.52"/>
  </clipPath>
 </defs>
</svg>
