<?xml version="1.0" encoding="utf-8" standalone="no"?>
<!DOCTYPE svg PUBLIC "-//W3C//DTD SVG 1.1//EN"
  "http://www.w3.org/Graphics/SVG/1.1/DTD/svg11.dtd">
<svg xmlns:xlink="http://www.w3.org/1999/xlink" width="507.170156pt" height="492.454219pt" viewBox="0 0 507.170156 492.454219" xmlns="http://www.w3.org/2000/svg" version="1.1">
 <metadata>
  <rdf:RDF xmlns:dc="http://purl.org/dc/elements/1.1/" xmlns:cc="http://creativecommons.org/ns#" xmlns:rdf="http://www.w3.org/1999/02/22-rdf-syntax-ns#">
   <cc:Work>
    <dc:type rdf:resource="http://purl.org/dc/dcmitype/StillImage"/>
    <dc:date>2026-05-12T10:43:21.364089</dc:date>
    <dc:format>image/svg+xml</dc:format>
    <dc:creator>
     <cc:Agent>
      <dc:title>Matplotlib v3.7.1, https://matplotlib.org/</dc:title>
     </cc:Agent>
    </dc:creator>
   </cc:Work>
  </rdf:RDF>
 </metadata>
 <defs>
  <style type="text/css">*{stroke-linejoin: round; stroke-linecap: butt}</style>
 </defs>
 <g id="figure_1">
  <g id="patch_1">
   <path d="M 0 492.454219 
L 507.170156 492.454219 
L 507.170156 0 
L 0 0 
z
" style="fill: #ffffff"/>
  </g>
  <g id="axes_1">
   <g id="patch_2">
    <path d="M 56.450156 450.72 
L 499.970156 450.72 
L 499.970156 7.2 
L 56.450156 7.2 
z
" style="fill: #eaeaf2"/>
   </g>
   <g id="matplotlib.axis_1">
    <g id="xtick_1">
     <g id="line2d_1">
      <path d="M 100.802156 450.72 
L 100.802156 7.2 
" clip-path="url(#p0224f1fbde)" style="fill: none; stroke: #ffffff; stroke-linecap: round"/>
     </g>
     <g id="text_1">
      <!-- −400 -->
      <g style="fill: #262626" transform="translate(88.414266 468.093594) scale(0.11 -0.11)">
       <defs>
        <path id="ArialMT-2212" d="M 3381 1997 
L 356 1997 
L 356 2522 
L 3381 2522 
L 3381 1997 
z
" transform="scale(0.015625)"/>
        <path id="ArialMT-34" d="M 2069 0 
L 2069 1097 
L 81 1097 
L 81 1613 
L 2172 4581 
L 2631 4581 
L 2631 1613 
L 3250 1613 
L 3250 1097 
L 2631 1097 
L 2631 0 
L 2069 0 
z
M 2069 1613 
L 2069 3678 
L 634 1613 
L 2069 1613 
z
" transform="scale(0.015625)"/>
        <path id="ArialMT-30" d="M 266 2259 
Q 266 3072 433 3567 
Q 600 4063 929 4331 
Q 1259 4600 1759 4600 
Q 2128 4600 2406 4451 
Q 2684 4303 2865 4023 
Q 3047 3744 3150 3342 
Q 3253 2941 3253 2259 
Q 3253 1453 3087 958 
Q 2922 463 2592 192 
Q 2263 -78 1759 -78 
Q 1097 -78 719 397 
Q 266 969 266 2259 
z
M 844 2259 
Q 844 1131 1108 757 
Q 1372 384 1759 384 
Q 2147 384 2411 759 
Q 2675 1134 2675 2259 
Q 2675 3391 2411 3762 
Q 2147 4134 1753 4134 
Q 1366 4134 1134 3806 
Q 844 3388 844 2259 
z
" transform="scale(0.015625)"/>
       </defs>
       <use xlink:href="#ArialMT-2212"/>
       <use xlink:href="#ArialMT-34" x="58.398438"/>
       <use xlink:href="#ArialMT-30" x="114.013672"/>
       <use xlink:href="#ArialMT-30" x="169.628906"/>
      </g>
     </g>
    </g>
    <g id="xtick_2">
     <g id="line2d_2">
      <path d="M 189.506156 450.72 
L 189.506156 7.2 
" clip-path="url(#p0224f1fbde)" style="fill: none; stroke: #ffffff; stroke-linecap: round"/>
     </g>
     <g id="text_2">
      <!-- −200 -->
      <g style="fill: #262626" transform="translate(177.118266 468.093594) scale(0.11 -0.11)">
       <defs>
        <path id="ArialMT-32" d="M 3222 541 
L 3222 0 
L 194 0 
Q 188 203 259 391 
Q 375 700 629 1000 
Q 884 1300 1366 1694 
Q 2113 2306 2375 2664 
Q 2638 3022 2638 3341 
Q 2638 3675 2398 3904 
Q 2159 4134 1775 4134 
Q 1369 4134 1125 3890 
Q 881 3647 878 3216 
L 300 3275 
Q 359 3922 746 4261 
Q 1134 4600 1788 4600 
Q 2447 4600 2831 4234 
Q 3216 3869 3216 3328 
Q 3216 3053 3103 2787 
Q 2991 2522 2730 2228 
Q 2469 1934 1863 1422 
Q 1356 997 1212 845 
Q 1069 694 975 541 
L 3222 541 
z
" transform="scale(0.015625)"/>
       </defs>
       <use xlink:href="#ArialMT-2212"/>
       <use xlink:href="#ArialMT-32" x="58.398438"/>
       <use xlink:href="#ArialMT-30" x="114.013672"/>
       <use xlink:href="#ArialMT-30" x="169.628906"/>
      </g>
     </g>
    </g>
    <g id="xtick_3">
     <g id="line2d_3">
      <path d="M 278.210156 450.72 
L 278.210156 7.2 
" clip-path="url(#p0224f1fbde)" style="fill: none; stroke: #ffffff; stroke-linecap: round"/>
     </g>
     <g id="text_3">
      <!-- 0 -->
      <g style="fill: #262626" transform="translate(275.151641 468.093594) scale(0.11 -0.11)">
       <use xlink:href="#ArialMT-30"/>
      </g>
     </g>
    </g>
    <g id="xtick_4">
     <g id="line2d_4">
      <path d="M 366.914156 450.72 
L 366.914156 7.2 
" clip-path="url(#p0224f1fbde)" style="fill: none; stroke: #ffffff; stroke-linecap: round"/>
     </g>
     <g id="text_4">
      <!-- 200 -->
      <g style="fill: #262626" transform="translate(357.738609 468.093594) scale(0.11 -0.11)">
       <use xlink:href="#ArialMT-32"/>
       <use xlink:href="#ArialMT-30" x="55.615234"/>
       <use xlink:href="#ArialMT-30" x="111.230469"/>
      </g>
     </g>
    </g>
    <g id="xtick_5">
     <g id="line2d_5">
      <path d="M 455.618156 450.72 
L 455.618156 7.2 
" clip-path="url(#p0224f1fbde)" style="fill: none; stroke: #ffffff; stroke-linecap: round"/>
     </g>
     <g id="text_5">
      <!-- 400 -->
      <g style="fill: #262626" transform="translate(446.442609 468.093594) scale(0.11 -0.11)">
       <use xlink:href="#ArialMT-34"/>
       <use xlink:href="#ArialMT-30" x="55.615234"/>
       <use xlink:href="#ArialMT-30" x="111.230469"/>
      </g>
     </g>
    </g>
    <g id="text_6">
     <!-- x -->
     <g style="fill: #262626" transform="translate(275.210156 482.869219) scale(0.12 -0.12)">
      <defs>
       <path id="ArialMT-78" d="M 47 0 
L 1259 1725 
L 138 3319 
L 841 3319 
L 1350 2541 
Q 1494 2319 1581 2169 
Q 1719 2375 1834 2534 
L 2394 3319 
L 3066 3319 
L 1919 1756 
L 3153 0 
L 2463 0 
L 1781 1031 
L 1600 1309 
L 728 0 
L 47 0 
z
" transform="scale(0.015625)"/>
      </defs>
      <use xlink:href="#ArialMT-78"/>
     </g>
    </g>
   </g>
   <g id="matplotlib.axis_2">
    <g id="ytick_1">
     <g id="line2d_6">
      <path d="M 56.450156 406.368 
L 499.970156 406.368 
" clip-path="url(#p0224f1fbde)" style="fill: none; stroke: #ffffff; stroke-linecap: round"/>
     </g>
     <g id="text_7">
      <!-- −400 -->
      <g style="fill: #262626" transform="translate(22.174375 410.304797) scale(0.11 -0.11)">
       <use xlink:href="#ArialMT-2212"/>
       <use xlink:href="#ArialMT-34" x="58.398438"/>
       <use xlink:href="#ArialMT-30" x="114.013672"/>
       <use xlink:href="#ArialMT-30" x="169.628906"/>
      </g>
     </g>
    </g>
    <g id="ytick_2">
     <g id="line2d_7">
      <path d="M 56.450156 317.664 
L 499.970156 317.664 
" clip-path="url(#p0224f1fbde)" style="fill: none; stroke: #ffffff; stroke-linecap: round"/>
     </g>
     <g id="text_8">
      <!-- −200 -->
      <g style="fill: #262626" transform="translate(22.174375 321.600797) scale(0.11 -0.11)">
       <use xlink:href="#ArialMT-2212"/>
       <use xlink:href="#ArialMT-32" x="58.398438"/>
       <use xlink:href="#ArialMT-30" x="114.013672"/>
       <use xlink:href="#ArialMT-30" x="169.628906"/>
      </g>
     </g>
    </g>
    <g id="ytick_3">
     <g id="line2d_8">
      <path d="M 56.450156 228.96 
L 499.970156 228.96 
" clip-path="url(#p0224f1fbde)" style="fill: none; stroke: #ffffff; stroke-linecap: round"/>
     </g>
     <g id="text_9">
      <!-- 0 -->
      <g style="fill: #262626" transform="translate(40.833125 232.896797) scale(0.11 -0.11)">
       <use xlink:href="#ArialMT-30"/>
      </g>
     </g>
    </g>
    <g id="ytick_4">
     <g id="line2d_9">
      <path d="M 56.450156 140.256 
L 499.970156 140.256 
" clip-path="url(#p0224f1fbde)" style="fill: none; stroke: #ffffff; stroke-linecap: round"/>
     </g>
     <g id="text_10">
      <!-- 200 -->
      <g style="fill: #262626" transform="translate(28.599063 144.192797) scale(0.11 -0.11)">
       <use xlink:href="#ArialMT-32"/>
       <use xlink:href="#ArialMT-30" x="55.615234"/>
       <use xlink:href="#ArialMT-30" x="111.230469"/>
      </g>
     </g>
    </g>
    <g id="ytick_5">
     <g id="line2d_10">
      <path d="M 56.450156 51.552 
L 499.970156 51.552 
" clip-path="url(#p0224f1fbde)" style="fill: none; stroke: #ffffff; stroke-linecap: round"/>
     </g>
     <g id="text_11">
      <!-- 400 -->
      <g style="fill: #262626" transform="translate(28.599063 55.488797) scale(0.11 -0.11)">
       <use xlink:href="#ArialMT-34"/>
       <use xlink:href="#ArialMT-30" x="55.615234"/>
       <use xlink:href="#ArialMT-30" x="111.230469"/>
      </g>
     </g>
    </g>
    <g id="text_12">
     <!-- y -->
     <g style="fill: #262626" transform="translate(15.64875 231.96) rotate(-90) scale(0.12 -0.12)">
      <defs>
       <path id="ArialMT-79" d="M 397 -1278 
L 334 -750 
Q 519 -800 656 -800 
Q 844 -800 956 -737 
Q 1069 -675 1141 -563 
Q 1194 -478 1313 -144 
Q 1328 -97 1363 -6 
L 103 3319 
L 709 3319 
L 1400 1397 
Q 1534 1031 1641 628 
Q 1738 1016 1872 1384 
L 2581 3319 
L 3144 3319 
L 1881 -56 
Q 1678 -603 1566 -809 
Q 1416 -1088 1222 -1217 
Q 1028 -1347 759 -1347 
Q 597 -1347 397 -1278 
z
" transform="scale(0.015625)"/>
      </defs>
      <use xlink:href="#ArialMT-79"/>
     </g>
    </g>
   </g>
   <g id="patch_3">
    <path d="M 278.210156 317.664 
C 301.734732 317.664 324.298969 308.317587 340.933356 291.6832 
C 357.567743 275.048813 366.914156 252.484576 366.914156 228.96 
C 366.914156 205.435424 357.567743 182.871187 340.933356 166.2368 
C 324.298969 149.602413 301.734732 140.256 278.210156 140.256 
C 254.68558 140.256 232.121343 149.602413 215.486956 166.2368 
C 198.852569 182.871187 189.506156 205.435424 189.506156 228.96 
C 189.506156 252.484576 198.852569 275.048813 215.486956 291.6832 
C 232.121343 308.317587 254.68558 317.664 278.210156 317.664 
z
" clip-path="url(#p0224f1fbde)" style="fill: #228b22; opacity: 0.12; stroke: #228b22; stroke-width: 1.5; stroke-linejoin: miter"/>
   </g>
   <g id="PathCollection_1">
    <defs>
     <path id="m52affba80b" d="M 0 2.236068 
C 0.593012 2.236068 1.161816 2.000462 1.581139 1.581139 
C 2.000462 1.161816 2.236068 0.593012 2.236068 0 
C 2.236068 -0.593012 2.000462 -1.161816 1.581139 -1.581139 
C 1.161816 -2.000462 0.593012 -2.236068 0 -2.236068 
C -0.593012 -2.236068 -1.161816 -2.000462 -1.581139 -1.581139 
C -2.000462 -1.161816 -2.236068 -0.593012 -2.236068 0 
C -2.236068 0.593012 -2.000462 1.161816 -1.581139 1.581139 
C -1.161816 2.000462 -0.593012 2.236068 0 2.236068 
z
" style="stroke: #4169e1"/>
    </defs>
    <g clip-path="url(#p0224f1fbde)">
     <use xlink:href="#m52affba80b" x="229.745194" y="250.326858" style="fill: #4169e1; stroke: #4169e1"/>
     <use xlink:href="#m52affba80b" x="425.745349" y="159.303281" style="fill: #4169e1; stroke: #4169e1"/>
     <use xlink:href="#m52affba80b" x="364.691237" y="258.339579" style="fill: #4169e1; stroke: #4169e1"/>
     <use xlink:href="#m52affba80b" x="407.896796" y="231.876678" style="fill: #4169e1; stroke: #4169e1"/>
     <use xlink:href="#m52affba80b" x="267.996309" y="350.635586" style="fill: #4169e1; stroke: #4169e1"/>
     <use xlink:href="#m52affba80b" x="306.092343" y="169.422062" style="fill: #4169e1; stroke: #4169e1"/>
     <use xlink:href="#m52affba80b" x="198.704412" y="193.962627" style="fill: #4169e1; stroke: #4169e1"/>
     <use xlink:href="#m52affba80b" x="282.081341" y="246.467648" style="fill: #4169e1; stroke: #4169e1"/>
     <use xlink:href="#m52affba80b" x="392.585908" y="260.627934" style="fill: #4169e1; stroke: #4169e1"/>
     <use xlink:href="#m52affba80b" x="338.676525" y="219.049337" style="fill: #4169e1; stroke: #4169e1"/>
     <use xlink:href="#m52affba80b" x="369.99869" y="82.783913" style="fill: #4169e1; stroke: #4169e1"/>
     <use xlink:href="#m52affba80b" x="280.861502" y="196.324505" style="fill: #4169e1; stroke: #4169e1"/>
     <use xlink:href="#m52affba80b" x="410.809047" y="200.815272" style="fill: #4169e1; stroke: #4169e1"/>
     <use xlink:href="#m52affba80b" x="363.295424" y="193.772543" style="fill: #4169e1; stroke: #4169e1"/>
     <use xlink:href="#m52affba80b" x="357.202641" y="184.595148" style="fill: #4169e1; stroke: #4169e1"/>
     <use xlink:href="#m52affba80b" x="271.790362" y="167.897422" style="fill: #4169e1; stroke: #4169e1"/>
     <use xlink:href="#m52affba80b" x="366.435499" y="138.717208" style="fill: #4169e1; stroke: #4169e1"/>
     <use xlink:href="#m52affba80b" x="297.07666" y="199.944567" style="fill: #4169e1; stroke: #4169e1"/>
     <use xlink:href="#m52affba80b" x="374.02502" y="110.169649" style="fill: #4169e1; stroke: #4169e1"/>
     <use xlink:href="#m52affba80b" x="339.17853" y="229.651034" style="fill: #4169e1; stroke: #4169e1"/>
     <use xlink:href="#m52affba80b" x="363.848599" y="221.26513" style="fill: #4169e1; stroke: #4169e1"/>
     <use xlink:href="#m52affba80b" x="297.454262" y="246.019351" style="fill: #4169e1; stroke: #4169e1"/>
     <use xlink:href="#m52affba80b" x="323.144479" y="290.202508" style="fill: #4169e1; stroke: #4169e1"/>
     <use xlink:href="#m52affba80b" x="268.483343" y="184.572538" style="fill: #4169e1; stroke: #4169e1"/>
     <use xlink:href="#m52affba80b" x="252.32453" y="243.917099" style="fill: #4169e1; stroke: #4169e1"/>
     <use xlink:href="#m52affba80b" x="326.453757" y="105.467129" style="fill: #4169e1; stroke: #4169e1"/>
     <use xlink:href="#m52affba80b" x="194.722545" y="301.708609" style="fill: #4169e1; stroke: #4169e1"/>
     <use xlink:href="#m52affba80b" x="212.997029" y="310.66761" style="fill: #4169e1; stroke: #4169e1"/>
     <use xlink:href="#m52affba80b" x="328.507142" y="303.975166" style="fill: #4169e1; stroke: #4169e1"/>
     <use xlink:href="#m52affba80b" x="237.643401" y="291.067635" style="fill: #4169e1; stroke: #4169e1"/>
     <use xlink:href="#m52affba80b" x="236.311765" y="296.403985" style="fill: #4169e1; stroke: #4169e1"/>
     <use xlink:href="#m52affba80b" x="284.000119" y="184.090081" style="fill: #4169e1; stroke: #4169e1"/>
     <use xlink:href="#m52affba80b" x="193.8866" y="236.45935" style="fill: #4169e1; stroke: #4169e1"/>
     <use xlink:href="#m52affba80b" x="301.115512" y="183.243392" style="fill: #4169e1; stroke: #4169e1"/>
     <use xlink:href="#m52affba80b" x="380.691044" y="164.318848" style="fill: #4169e1; stroke: #4169e1"/>
     <use xlink:href="#m52affba80b" x="285.459457" y="317.297448" style="fill: #4169e1; stroke: #4169e1"/>
     <use xlink:href="#m52affba80b" x="385.57375" y="143.437608" style="fill: #4169e1; stroke: #4169e1"/>
     <use xlink:href="#m52affba80b" x="376.346495" y="308.176052" style="fill: #4169e1; stroke: #4169e1"/>
     <use xlink:href="#m52affba80b" x="348.611146" y="274.726583" style="fill: #4169e1; stroke: #4169e1"/>
     <use xlink:href="#m52affba80b" x="282.535659" y="304.5721" style="fill: #4169e1; stroke: #4169e1"/>
     <use xlink:href="#m52affba80b" x="179.549655" y="240.404578" style="fill: #4169e1; stroke: #4169e1"/>
     <use xlink:href="#m52affba80b" x="232.210762" y="173.830425" style="fill: #4169e1; stroke: #4169e1"/>
     <use xlink:href="#m52affba80b" x="215.252602" y="176.210045" style="fill: #4169e1; stroke: #4169e1"/>
     <use xlink:href="#m52affba80b" x="315.971483" y="129.03744" style="fill: #4169e1; stroke: #4169e1"/>
     <use xlink:href="#m52affba80b" x="205.829629" y="228.759439" style="fill: #4169e1; stroke: #4169e1"/>
     <use xlink:href="#m52affba80b" x="221.815833" y="132.946379" style="fill: #4169e1; stroke: #4169e1"/>
     <use xlink:href="#m52affba80b" x="370.917348" y="275.750254" style="fill: #4169e1; stroke: #4169e1"/>
     <use xlink:href="#m52affba80b" x="277.124113" y="246.762522" style="fill: #4169e1; stroke: #4169e1"/>
     <use xlink:href="#m52affba80b" x="297.875204" y="212.262938" style="fill: #4169e1; stroke: #4169e1"/>
     <use xlink:href="#m52affba80b" x="301.538685" y="176.644828" style="fill: #4169e1; stroke: #4169e1"/>
     <use xlink:href="#m52affba80b" x="264.234095" y="301.905843" style="fill: #4169e1; stroke: #4169e1"/>
     <use xlink:href="#m52affba80b" x="355.033219" y="229.211946" style="fill: #4169e1; stroke: #4169e1"/>
     <use xlink:href="#m52affba80b" x="255.538781" y="171.457892" style="fill: #4169e1; stroke: #4169e1"/>
     <use xlink:href="#m52affba80b" x="291.480971" y="61.196286" style="fill: #4169e1; stroke: #4169e1"/>
     <use xlink:href="#m52affba80b" x="367.471053" y="270.917045" style="fill: #4169e1; stroke: #4169e1"/>
     <use xlink:href="#m52affba80b" x="233.201051" y="98.541163" style="fill: #4169e1; stroke: #4169e1"/>
     <use xlink:href="#m52affba80b" x="189.88173" y="270.549637" style="fill: #4169e1; stroke: #4169e1"/>
     <use xlink:href="#m52affba80b" x="359.516821" y="111.801988" style="fill: #4169e1; stroke: #4169e1"/>
     <use xlink:href="#m52affba80b" x="220.273969" y="245.942139" style="fill: #4169e1; stroke: #4169e1"/>
     <use xlink:href="#m52affba80b" x="395.204203" y="163.101923" style="fill: #4169e1; stroke: #4169e1"/>
     <use xlink:href="#m52affba80b" x="295.097186" y="124.129267" style="fill: #4169e1; stroke: #4169e1"/>
     <use xlink:href="#m52affba80b" x="393.787058" y="309.584608" style="fill: #4169e1; stroke: #4169e1"/>
     <use xlink:href="#m52affba80b" x="405.439894" y="172.002019" style="fill: #4169e1; stroke: #4169e1"/>
     <use xlink:href="#m52affba80b" x="456.262457" y="200.954408" style="fill: #4169e1; stroke: #4169e1"/>
     <use xlink:href="#m52affba80b" x="205.815992" y="260.800169" style="fill: #4169e1; stroke: #4169e1"/>
     <use xlink:href="#m52affba80b" x="355.153398" y="160.205778" style="fill: #4169e1; stroke: #4169e1"/>
     <use xlink:href="#m52affba80b" x="230.501701" y="259.170966" style="fill: #4169e1; stroke: #4169e1"/>
     <use xlink:href="#m52affba80b" x="308.013711" y="156.334541" style="fill: #4169e1; stroke: #4169e1"/>
     <use xlink:href="#m52affba80b" x="338.008551" y="169.394254" style="fill: #4169e1; stroke: #4169e1"/>
     <use xlink:href="#m52affba80b" x="215.977964" y="217.263162" style="fill: #4169e1; stroke: #4169e1"/>
     <use xlink:href="#m52affba80b" x="350.555756" y="301.74198" style="fill: #4169e1; stroke: #4169e1"/>
     <use xlink:href="#m52affba80b" x="421.193435" y="151.945895" style="fill: #4169e1; stroke: #4169e1"/>
     <use xlink:href="#m52affba80b" x="345.126703" y="208.727041" style="fill: #4169e1; stroke: #4169e1"/>
     <use xlink:href="#m52affba80b" x="221.621793" y="271.827349" style="fill: #4169e1; stroke: #4169e1"/>
     <use xlink:href="#m52affba80b" x="336.767837" y="152.72085" style="fill: #4169e1; stroke: #4169e1"/>
     <use xlink:href="#m52affba80b" x="359.266671" y="296.583102" style="fill: #4169e1; stroke: #4169e1"/>
     <use xlink:href="#m52affba80b" x="331.879166" y="292.003083" style="fill: #4169e1; stroke: #4169e1"/>
     <use xlink:href="#m52affba80b" x="329.968282" y="211.481362" style="fill: #4169e1; stroke: #4169e1"/>
     <use xlink:href="#m52affba80b" x="176.416638" y="164.028154" style="fill: #4169e1; stroke: #4169e1"/>
     <use xlink:href="#m52affba80b" x="365.171843" y="316.798555" style="fill: #4169e1; stroke: #4169e1"/>
     <use xlink:href="#m52affba80b" x="295.004632" y="242.012938" style="fill: #4169e1; stroke: #4169e1"/>
     <use xlink:href="#m52affba80b" x="222.598429" y="156.37315" style="fill: #4169e1; stroke: #4169e1"/>
     <use xlink:href="#m52affba80b" x="298.750404" y="101.562927" style="fill: #4169e1; stroke: #4169e1"/>
     <use xlink:href="#m52affba80b" x="210.759065" y="284.879821" style="fill: #4169e1; stroke: #4169e1"/>
     <use xlink:href="#m52affba80b" x="317.651053" y="177.581532" style="fill: #4169e1; stroke: #4169e1"/>
     <use xlink:href="#m52affba80b" x="196.826876" y="297.42595" style="fill: #4169e1; stroke: #4169e1"/>
     <use xlink:href="#m52affba80b" x="279.763787" y="65.711127" style="fill: #4169e1; stroke: #4169e1"/>
     <use xlink:href="#m52affba80b" x="311.355764" y="136.77222" style="fill: #4169e1; stroke: #4169e1"/>
     <use xlink:href="#m52affba80b" x="314.247936" y="287.039998" style="fill: #4169e1; stroke: #4169e1"/>
     <use xlink:href="#m52affba80b" x="365.488099" y="76.724751" style="fill: #4169e1; stroke: #4169e1"/>
     <use xlink:href="#m52affba80b" x="236.889645" y="273.578676" style="fill: #4169e1; stroke: #4169e1"/>
     <use xlink:href="#m52affba80b" x="408.17742" y="181.463323" style="fill: #4169e1; stroke: #4169e1"/>
     <use xlink:href="#m52affba80b" x="349.847069" y="46.967683" style="fill: #4169e1; stroke: #4169e1"/>
     <use xlink:href="#m52affba80b" x="254.058572" y="254.448002" style="fill: #4169e1; stroke: #4169e1"/>
     <use xlink:href="#m52affba80b" x="376.99667" y="212.21389" style="fill: #4169e1; stroke: #4169e1"/>
     <use xlink:href="#m52affba80b" x="313.55589" y="195.387053" style="fill: #4169e1; stroke: #4169e1"/>
     <use xlink:href="#m52affba80b" x="353.809445" y="205.348889" style="fill: #4169e1; stroke: #4169e1"/>
     <use xlink:href="#m52affba80b" x="199.505774" y="227.368464" style="fill: #4169e1; stroke: #4169e1"/>
     <use xlink:href="#m52affba80b" x="258.018679" y="215.914829" style="fill: #4169e1; stroke: #4169e1"/>
     <use xlink:href="#m52affba80b" x="264.118265" y="206.161528" style="fill: #4169e1; stroke: #4169e1"/>
     <use xlink:href="#m52affba80b" x="280.442024" y="256.731454" style="fill: #4169e1; stroke: #4169e1"/>
     <use xlink:href="#m52affba80b" x="256.433673" y="207.716604" style="fill: #4169e1; stroke: #4169e1"/>
     <use xlink:href="#m52affba80b" x="388.381049" y="73.014589" style="fill: #4169e1; stroke: #4169e1"/>
     <use xlink:href="#m52affba80b" x="322.018354" y="165.864279" style="fill: #4169e1; stroke: #4169e1"/>
     <use xlink:href="#m52affba80b" x="388.341073" y="243.519003" style="fill: #4169e1; stroke: #4169e1"/>
     <use xlink:href="#m52affba80b" x="460.074079" y="181.423682" style="fill: #4169e1; stroke: #4169e1"/>
     <use xlink:href="#m52affba80b" x="338.365385" y="247.101275" style="fill: #4169e1; stroke: #4169e1"/>
     <use xlink:href="#m52affba80b" x="257.290862" y="152.328689" style="fill: #4169e1; stroke: #4169e1"/>
     <use xlink:href="#m52affba80b" x="333.666818" y="166.692712" style="fill: #4169e1; stroke: #4169e1"/>
     <use xlink:href="#m52affba80b" x="367.637847" y="119.53195" style="fill: #4169e1; stroke: #4169e1"/>
     <use xlink:href="#m52affba80b" x="223.301861" y="273.70791" style="fill: #4169e1; stroke: #4169e1"/>
     <use xlink:href="#m52affba80b" x="317.666649" y="285.560437" style="fill: #4169e1; stroke: #4169e1"/>
     <use xlink:href="#m52affba80b" x="322.095951" y="145.844064" style="fill: #4169e1; stroke: #4169e1"/>
     <use xlink:href="#m52affba80b" x="234.835523" y="146.54172" style="fill: #4169e1; stroke: #4169e1"/>
     <use xlink:href="#m52affba80b" x="339.960997" y="59.408996" style="fill: #4169e1; stroke: #4169e1"/>
     <use xlink:href="#m52affba80b" x="386.85674" y="235.291436" style="fill: #4169e1; stroke: #4169e1"/>
     <use xlink:href="#m52affba80b" x="302.339817" y="141.110732" style="fill: #4169e1; stroke: #4169e1"/>
     <use xlink:href="#m52affba80b" x="438.393168" y="272.619183" style="fill: #4169e1; stroke: #4169e1"/>
     <use xlink:href="#m52affba80b" x="283.929217" y="146.976232" style="fill: #4169e1; stroke: #4169e1"/>
     <use xlink:href="#m52affba80b" x="260.087925" y="228.034812" style="fill: #4169e1; stroke: #4169e1"/>
     <use xlink:href="#m52affba80b" x="411.025569" y="167.340443" style="fill: #4169e1; stroke: #4169e1"/>
     <use xlink:href="#m52affba80b" x="277.106033" y="263.596563" style="fill: #4169e1; stroke: #4169e1"/>
     <use xlink:href="#m52affba80b" x="321.470323" y="164.941046" style="fill: #4169e1; stroke: #4169e1"/>
     <use xlink:href="#m52affba80b" x="329.881221" y="191.678492" style="fill: #4169e1; stroke: #4169e1"/>
     <use xlink:href="#m52affba80b" x="231.891549" y="317.697851" style="fill: #4169e1; stroke: #4169e1"/>
     <use xlink:href="#m52affba80b" x="390.280451" y="285.640108" style="fill: #4169e1; stroke: #4169e1"/>
     <use xlink:href="#m52affba80b" x="256.079582" y="212.701249" style="fill: #4169e1; stroke: #4169e1"/>
     <use xlink:href="#m52affba80b" x="357.940605" y="205.606693" style="fill: #4169e1; stroke: #4169e1"/>
     <use xlink:href="#m52affba80b" x="323.100273" y="112.376123" style="fill: #4169e1; stroke: #4169e1"/>
     <use xlink:href="#m52affba80b" x="263.067084" y="151.086818" style="fill: #4169e1; stroke: #4169e1"/>
     <use xlink:href="#m52affba80b" x="195.739637" y="326.355817" style="fill: #4169e1; stroke: #4169e1"/>
     <use xlink:href="#m52affba80b" x="424.120873" y="218.680581" style="fill: #4169e1; stroke: #4169e1"/>
     <use xlink:href="#m52affba80b" x="341.768448" y="235.700575" style="fill: #4169e1; stroke: #4169e1"/>
     <use xlink:href="#m52affba80b" x="347.359889" y="194.088358" style="fill: #4169e1; stroke: #4169e1"/>
     <use xlink:href="#m52affba80b" x="306.486079" y="92.427441" style="fill: #4169e1; stroke: #4169e1"/>
     <use xlink:href="#m52affba80b" x="399.676422" y="189.835098" style="fill: #4169e1; stroke: #4169e1"/>
     <use xlink:href="#m52affba80b" x="386.991368" y="246.056543" style="fill: #4169e1; stroke: #4169e1"/>
     <use xlink:href="#m52affba80b" x="461.18093" y="228.651086" style="fill: #4169e1; stroke: #4169e1"/>
     <use xlink:href="#m52affba80b" x="382.861501" y="154.237316" style="fill: #4169e1; stroke: #4169e1"/>
     <use xlink:href="#m52affba80b" x="358.292086" y="161.618713" style="fill: #4169e1; stroke: #4169e1"/>
     <use xlink:href="#m52affba80b" x="293.790874" y="263.686707" style="fill: #4169e1; stroke: #4169e1"/>
     <use xlink:href="#m52affba80b" x="255.822888" y="205.693478" style="fill: #4169e1; stroke: #4169e1"/>
     <use xlink:href="#m52affba80b" x="202.095009" y="277.771279" style="fill: #4169e1; stroke: #4169e1"/>
     <use xlink:href="#m52affba80b" x="326.222123" y="334.326312" style="fill: #4169e1; stroke: #4169e1"/>
     <use xlink:href="#m52affba80b" x="334.942287" y="80.148807" style="fill: #4169e1; stroke: #4169e1"/>
     <use xlink:href="#m52affba80b" x="296.573949" y="173.655825" style="fill: #4169e1; stroke: #4169e1"/>
     <use xlink:href="#m52affba80b" x="218.022984" y="199.155599" style="fill: #4169e1; stroke: #4169e1"/>
     <use xlink:href="#m52affba80b" x="398.443504" y="153.607694" style="fill: #4169e1; stroke: #4169e1"/>
     <use xlink:href="#m52affba80b" x="290.650573" y="94.417908" style="fill: #4169e1; stroke: #4169e1"/>
     <use xlink:href="#m52affba80b" x="349.617012" y="75.377665" style="fill: #4169e1; stroke: #4169e1"/>
     <use xlink:href="#m52affba80b" x="209.651856" y="116.327915" style="fill: #4169e1; stroke: #4169e1"/>
     <use xlink:href="#m52affba80b" x="341.411675" y="268.038547" style="fill: #4169e1; stroke: #4169e1"/>
     <use xlink:href="#m52affba80b" x="251.897657" y="324.089944" style="fill: #4169e1; stroke: #4169e1"/>
    </g>
   </g>
   <g id="PathCollection_2">
    <defs>
     <path id="me7354d971a" d="M 0 2.5 
C 0.663008 2.5 1.29895 2.236584 1.767767 1.767767 
C 2.236584 1.29895 2.5 0.663008 2.5 0 
C 2.5 -0.663008 2.236584 -1.29895 1.767767 -1.767767 
C 1.29895 -2.236584 0.663008 -2.5 0 -2.5 
C -0.663008 -2.5 -1.29895 -2.236584 -1.767767 -1.767767 
C -2.236584 -1.29895 -2.5 -0.663008 -2.5 0 
C -2.5 0.663008 -2.236584 1.29895 -1.767767 1.767767 
C -1.29895 2.236584 -0.663008 2.5 0 2.5 
z
" style="stroke: #b22222"/>
    </defs>
    <g clip-path="url(#p0224f1fbde)">
     <use xlink:href="#me7354d971a" x="286.952907" y="240.038677" style="fill: #b22222; stroke: #b22222"/>
     <use xlink:href="#me7354d971a" x="278.640891" y="246.892593" style="fill: #b22222; stroke: #b22222"/>
     <use xlink:href="#me7354d971a" x="278.517019" y="245.568476" style="fill: #b22222; stroke: #b22222"/>
     <use xlink:href="#me7354d971a" x="310.915635" y="210.32453" style="fill: #b22222; stroke: #b22222"/>
     <use xlink:href="#me7354d971a" x="288.987605" y="237.384835" style="fill: #b22222; stroke: #b22222"/>
     <use xlink:href="#me7354d971a" x="298.205852" y="229.821016" style="fill: #b22222; stroke: #b22222"/>
     <use xlink:href="#me7354d971a" x="236.380754" y="245.859627" style="fill: #b22222; stroke: #b22222"/>
     <use xlink:href="#me7354d971a" x="305.224572" y="242.321394" style="fill: #b22222; stroke: #b22222"/>
     <use xlink:href="#me7354d971a" x="281.295281" y="247.716312" style="fill: #b22222; stroke: #b22222"/>
     <use xlink:href="#me7354d971a" x="284.245502" y="233.154125" style="fill: #b22222; stroke: #b22222"/>
     <use xlink:href="#me7354d971a" x="300.016454" y="248.729382" style="fill: #b22222; stroke: #b22222"/>
     <use xlink:href="#me7354d971a" x="304.298324" y="235.633479" style="fill: #b22222; stroke: #b22222"/>
     <use xlink:href="#me7354d971a" x="283.682227" y="246.762267" style="fill: #b22222; stroke: #b22222"/>
     <use xlink:href="#me7354d971a" x="306.563701" y="240.393046" style="fill: #b22222; stroke: #b22222"/>
     <use xlink:href="#me7354d971a" x="302.477708" y="207.550902" style="fill: #b22222; stroke: #b22222"/>
     <use xlink:href="#me7354d971a" x="274.913423" y="238.957053" style="fill: #b22222; stroke: #b22222"/>
     <use xlink:href="#me7354d971a" x="286.3728" y="249.194101" style="fill: #b22222; stroke: #b22222"/>
     <use xlink:href="#me7354d971a" x="287.858564" y="218.005892" style="fill: #b22222; stroke: #b22222"/>
     <use xlink:href="#me7354d971a" x="279.301821" y="230.586077" style="fill: #b22222; stroke: #b22222"/>
     <use xlink:href="#me7354d971a" x="291.436823" y="220.953595" style="fill: #b22222; stroke: #b22222"/>
     <use xlink:href="#me7354d971a" x="291.227265" y="213.540132" style="fill: #b22222; stroke: #b22222"/>
     <use xlink:href="#me7354d971a" x="278.289062" y="247.876892" style="fill: #b22222; stroke: #b22222"/>
     <use xlink:href="#me7354d971a" x="251.958088" y="230.999052" style="fill: #b22222; stroke: #b22222"/>
     <use xlink:href="#me7354d971a" x="297.413191" y="218.394508" style="fill: #b22222; stroke: #b22222"/>
     <use xlink:href="#me7354d971a" x="290.304223" y="226.681609" style="fill: #b22222; stroke: #b22222"/>
     <use xlink:href="#me7354d971a" x="296.666398" y="224.865932" style="fill: #b22222; stroke: #b22222"/>
     <use xlink:href="#me7354d971a" x="287.692461" y="216.598308" style="fill: #b22222; stroke: #b22222"/>
     <use xlink:href="#me7354d971a" x="298.264426" y="225.832174" style="fill: #b22222; stroke: #b22222"/>
     <use xlink:href="#me7354d971a" x="275.343071" y="248.713391" style="fill: #b22222; stroke: #b22222"/>
     <use xlink:href="#me7354d971a" x="272.862065" y="243.857429" style="fill: #b22222; stroke: #b22222"/>
     <use xlink:href="#me7354d971a" x="273.928704" y="251.408134" style="fill: #b22222; stroke: #b22222"/>
     <use xlink:href="#me7354d971a" x="287.51953" y="231.298612" style="fill: #b22222; stroke: #b22222"/>
     <use xlink:href="#me7354d971a" x="271.732327" y="232.984351" style="fill: #b22222; stroke: #b22222"/>
     <use xlink:href="#me7354d971a" x="287.193424" y="237.888208" style="fill: #b22222; stroke: #b22222"/>
     <use xlink:href="#me7354d971a" x="296.998193" y="233.962903" style="fill: #b22222; stroke: #b22222"/>
     <use xlink:href="#me7354d971a" x="366.554859" y="210.481446" style="fill: #b22222; stroke: #b22222"/>
     <use xlink:href="#me7354d971a" x="279.52007" y="238.974684" style="fill: #b22222; stroke: #b22222"/>
     <use xlink:href="#me7354d971a" x="280.628171" y="232.538698" style="fill: #b22222; stroke: #b22222"/>
     <use xlink:href="#me7354d971a" x="284.725956" y="216.431305" style="fill: #b22222; stroke: #b22222"/>
     <use xlink:href="#me7354d971a" x="292.734326" y="233.586552" style="fill: #b22222; stroke: #b22222"/>
     <use xlink:href="#me7354d971a" x="268.339595" y="228.147515" style="fill: #b22222; stroke: #b22222"/>
     <use xlink:href="#me7354d971a" x="283.426257" y="225.895821" style="fill: #b22222; stroke: #b22222"/>
     <use xlink:href="#me7354d971a" x="296.149096" y="250.293036" style="fill: #b22222; stroke: #b22222"/>
     <use xlink:href="#me7354d971a" x="283.227571" y="242.125359" style="fill: #b22222; stroke: #b22222"/>
     <use xlink:href="#me7354d971a" x="289.817867" y="233.449564" style="fill: #b22222; stroke: #b22222"/>
     <use xlink:href="#me7354d971a" x="290.51225" y="221.153765" style="fill: #b22222; stroke: #b22222"/>
     <use xlink:href="#me7354d971a" x="282.695855" y="201.341578" style="fill: #b22222; stroke: #b22222"/>
     <use xlink:href="#me7354d971a" x="282.95978" y="236.85209" style="fill: #b22222; stroke: #b22222"/>
     <use xlink:href="#me7354d971a" x="372.310846" y="214.409081" style="fill: #b22222; stroke: #b22222"/>
     <use xlink:href="#me7354d971a" x="288.002321" y="224.873106" style="fill: #b22222; stroke: #b22222"/>
     <use xlink:href="#me7354d971a" x="302.287805" y="252.522856" style="fill: #b22222; stroke: #b22222"/>
     <use xlink:href="#me7354d971a" x="277.560526" y="243.167251" style="fill: #b22222; stroke: #b22222"/>
     <use xlink:href="#me7354d971a" x="288.441047" y="234.781389" style="fill: #b22222; stroke: #b22222"/>
     <use xlink:href="#me7354d971a" x="297.155611" y="227.69096" style="fill: #b22222; stroke: #b22222"/>
     <use xlink:href="#me7354d971a" x="288.86933" y="215.143084" style="fill: #b22222; stroke: #b22222"/>
     <use xlink:href="#me7354d971a" x="266.273345" y="245.038586" style="fill: #b22222; stroke: #b22222"/>
     <use xlink:href="#me7354d971a" x="285.070506" y="250.627041" style="fill: #b22222; stroke: #b22222"/>
     <use xlink:href="#me7354d971a" x="281.547029" y="245.524209" style="fill: #b22222; stroke: #b22222"/>
     <use xlink:href="#me7354d971a" x="274.310079" y="239.532138" style="fill: #b22222; stroke: #b22222"/>
     <use xlink:href="#me7354d971a" x="290.971042" y="232.347956" style="fill: #b22222; stroke: #b22222"/>
     <use xlink:href="#me7354d971a" x="295.537625" y="218.857109" style="fill: #b22222; stroke: #b22222"/>
     <use xlink:href="#me7354d971a" x="292.712946" y="219.583213" style="fill: #b22222; stroke: #b22222"/>
     <use xlink:href="#me7354d971a" x="287.12934" y="223.447973" style="fill: #b22222; stroke: #b22222"/>
     <use xlink:href="#me7354d971a" x="283.293142" y="238.56778" style="fill: #b22222; stroke: #b22222"/>
     <use xlink:href="#me7354d971a" x="282.04085" y="237.507081" style="fill: #b22222; stroke: #b22222"/>
    </g>
   </g>
   <g id="patch_4">
    <path d="M 56.450156 450.72 
L 56.450156 7.2 
" style="fill: none; stroke: #ffffff; stroke-width: 1.25; stroke-linejoin: miter; stroke-linecap: square"/>
   </g>
   <g id="patch_5">
    <path d="M 499.970156 450.72 
L 499.970156 7.2 
" style="fill: none; stroke: #ffffff; stroke-width: 1.25; stroke-linejoin: miter; stroke-linecap: square"/>
   </g>
   <g id="patch_6">
    <path d="M 56.450156 450.72 
L 499.970156 450.72 
" style="fill: none; stroke: #ffffff; stroke-width: 1.25; stroke-linejoin: miter; stroke-linecap: square"/>
   </g>
   <g id="patch_7">
    <path d="M 56.450156 7.2 
L 499.970156 7.2 
" style="fill: none; stroke: #ffffff; stroke-width: 1.25; stroke-linejoin: miter; stroke-linecap: square"/>
   </g>
   <g id="text_13">
    <!-- t = 4300 -->
    <g style="fill: #262626" transform="translate(65.320556 24.659775) scale(0.12 -0.12)">
     <defs>
      <path id="ArialMT-74" d="M 1650 503 
L 1731 6 
Q 1494 -44 1306 -44 
Q 1000 -44 831 53 
Q 663 150 594 308 
Q 525 466 525 972 
L 525 2881 
L 113 2881 
L 113 3319 
L 525 3319 
L 525 4141 
L 1084 4478 
L 1084 3319 
L 1650 3319 
L 1650 2881 
L 1084 2881 
L 1084 941 
Q 1084 700 1114 631 
Q 1144 563 1211 522 
Q 1278 481 1403 481 
Q 1497 481 1650 503 
z
" transform="scale(0.015625)"/>
      <path id="ArialMT-20" transform="scale(0.015625)"/>
      <path id="ArialMT-3d" d="M 3381 2694 
L 356 2694 
L 356 3219 
L 3381 3219 
L 3381 2694 
z
M 3381 1303 
L 356 1303 
L 356 1828 
L 3381 1828 
L 3381 1303 
z
" transform="scale(0.015625)"/>
      <path id="ArialMT-33" d="M 269 1209 
L 831 1284 
Q 928 806 1161 595 
Q 1394 384 1728 384 
Q 2125 384 2398 659 
Q 2672 934 2672 1341 
Q 2672 1728 2419 1979 
Q 2166 2231 1775 2231 
Q 1616 2231 1378 2169 
L 1441 2663 
Q 1497 2656 1531 2656 
Q 1891 2656 2178 2843 
Q 2466 3031 2466 3422 
Q 2466 3731 2256 3934 
Q 2047 4138 1716 4138 
Q 1388 4138 1169 3931 
Q 950 3725 888 3313 
L 325 3413 
Q 428 3978 793 4289 
Q 1159 4600 1703 4600 
Q 2078 4600 2393 4439 
Q 2709 4278 2876 4000 
Q 3044 3722 3044 3409 
Q 3044 3113 2884 2869 
Q 2725 2625 2413 2481 
Q 2819 2388 3044 2092 
Q 3269 1797 3269 1353 
Q 3269 753 2831 336 
Q 2394 -81 1725 -81 
Q 1122 -81 723 278 
Q 325 638 269 1209 
z
" transform="scale(0.015625)"/>
     </defs>
     <use xlink:href="#ArialMT-74"/>
     <use xlink:href="#ArialMT-20" x="27.783203"/>
     <use xlink:href="#ArialMT-3d" x="55.566406"/>
     <use xlink:href="#ArialMT-20" x="113.964844"/>
     <use xlink:href="#ArialMT-34" x="141.748047"/>
     <use xlink:href="#ArialMT-33" x="197.363281"/>
     <use xlink:href="#ArialMT-30" x="252.978516"/>
     <use xlink:href="#ArialMT-30" x="308.59375"/>
    </g>
   </g>
   <g id="legend_1">
    <g id="patch_8">
     <path d="M 328.111406 94.59 
L 483.170156 94.59 
Q 487.970156 94.59 487.970156 89.79 
L 487.970156 24 
Q 487.970156 19.2 483.170156 19.2 
L 328.111406 19.2 
Q 323.311406 19.2 323.311406 24 
L 323.311406 89.79 
Q 323.311406 94.59 328.111406 94.59 
z
" style="fill: #eaeaf2; opacity: 0.8; stroke: #cccccc; stroke-linejoin: miter"/>
    </g>
    <g id="PathCollection_3">
     <g>
      <use xlink:href="#m52affba80b" x="356.911406" y="39.97125" style="fill: #4169e1; stroke: #4169e1"/>
     </g>
    </g>
    <g id="text_14">
     <!-- Sheep -->
     <g style="fill: #262626" transform="translate(400.111406 46.27125) scale(0.24 -0.24)">
      <defs>
       <path id="ArialMT-53" d="M 288 1472 
L 859 1522 
Q 900 1178 1048 958 
Q 1197 738 1509 602 
Q 1822 466 2213 466 
Q 2559 466 2825 569 
Q 3091 672 3220 851 
Q 3350 1031 3350 1244 
Q 3350 1459 3225 1620 
Q 3100 1781 2813 1891 
Q 2628 1963 1997 2114 
Q 1366 2266 1113 2400 
Q 784 2572 623 2826 
Q 463 3081 463 3397 
Q 463 3744 659 4045 
Q 856 4347 1234 4503 
Q 1613 4659 2075 4659 
Q 2584 4659 2973 4495 
Q 3363 4331 3572 4012 
Q 3781 3694 3797 3291 
L 3216 3247 
Q 3169 3681 2898 3903 
Q 2628 4125 2100 4125 
Q 1550 4125 1298 3923 
Q 1047 3722 1047 3438 
Q 1047 3191 1225 3031 
Q 1400 2872 2139 2705 
Q 2878 2538 3153 2413 
Q 3553 2228 3743 1945 
Q 3934 1663 3934 1294 
Q 3934 928 3725 604 
Q 3516 281 3123 101 
Q 2731 -78 2241 -78 
Q 1619 -78 1198 103 
Q 778 284 539 648 
Q 300 1013 288 1472 
z
" transform="scale(0.015625)"/>
       <path id="ArialMT-68" d="M 422 0 
L 422 4581 
L 984 4581 
L 984 2938 
Q 1378 3394 1978 3394 
Q 2347 3394 2619 3248 
Q 2891 3103 3008 2847 
Q 3125 2591 3125 2103 
L 3125 0 
L 2563 0 
L 2563 2103 
Q 2563 2525 2380 2717 
Q 2197 2909 1863 2909 
Q 1613 2909 1392 2779 
Q 1172 2650 1078 2428 
Q 984 2206 984 1816 
L 984 0 
L 422 0 
z
" transform="scale(0.015625)"/>
       <path id="ArialMT-65" d="M 2694 1069 
L 3275 997 
Q 3138 488 2766 206 
Q 2394 -75 1816 -75 
Q 1088 -75 661 373 
Q 234 822 234 1631 
Q 234 2469 665 2931 
Q 1097 3394 1784 3394 
Q 2450 3394 2872 2941 
Q 3294 2488 3294 1666 
Q 3294 1616 3291 1516 
L 816 1516 
Q 847 969 1125 678 
Q 1403 388 1819 388 
Q 2128 388 2347 550 
Q 2566 713 2694 1069 
z
M 847 1978 
L 2700 1978 
Q 2663 2397 2488 2606 
Q 2219 2931 1791 2931 
Q 1403 2931 1139 2672 
Q 875 2413 847 1978 
z
" transform="scale(0.015625)"/>
       <path id="ArialMT-70" d="M 422 -1272 
L 422 3319 
L 934 3319 
L 934 2888 
Q 1116 3141 1344 3267 
Q 1572 3394 1897 3394 
Q 2322 3394 2647 3175 
Q 2972 2956 3137 2557 
Q 3303 2159 3303 1684 
Q 3303 1175 3120 767 
Q 2938 359 2589 142 
Q 2241 -75 1856 -75 
Q 1575 -75 1351 44 
Q 1128 163 984 344 
L 984 -1272 
L 422 -1272 
z
M 931 1641 
Q 931 1000 1190 694 
Q 1450 388 1819 388 
Q 2194 388 2461 705 
Q 2728 1022 2728 1688 
Q 2728 2322 2467 2637 
Q 2206 2953 1844 2953 
Q 1484 2953 1207 2617 
Q 931 2281 931 1641 
z
" transform="scale(0.015625)"/>
      </defs>
      <use xlink:href="#ArialMT-53"/>
      <use xlink:href="#ArialMT-68" x="66.699219"/>
      <use xlink:href="#ArialMT-65" x="122.314453"/>
      <use xlink:href="#ArialMT-65" x="177.929688"/>
      <use xlink:href="#ArialMT-70" x="233.544922"/>
     </g>
    </g>
    <g id="PathCollection_4">
     <g>
      <use xlink:href="#me7354d971a" x="356.911406" y="73.92" style="fill: #b22222; stroke: #b22222"/>
     </g>
    </g>
    <g id="text_15">
     <!-- Wolves -->
     <g style="fill: #262626" transform="translate(400.111406 80.22) scale(0.24 -0.24)">
      <defs>
       <path id="ArialMT-57" d="M 1294 0 
L 78 4581 
L 700 4581 
L 1397 1578 
Q 1509 1106 1591 641 
Q 1766 1375 1797 1488 
L 2669 4581 
L 3400 4581 
L 4056 2263 
Q 4303 1400 4413 641 
Q 4500 1075 4641 1638 
L 5359 4581 
L 5969 4581 
L 4713 0 
L 4128 0 
L 3163 3491 
Q 3041 3928 3019 4028 
Q 2947 3713 2884 3491 
L 1913 0 
L 1294 0 
z
" transform="scale(0.015625)"/>
       <path id="ArialMT-6f" d="M 213 1659 
Q 213 2581 725 3025 
Q 1153 3394 1769 3394 
Q 2453 3394 2887 2945 
Q 3322 2497 3322 1706 
Q 3322 1066 3130 698 
Q 2938 331 2570 128 
Q 2203 -75 1769 -75 
Q 1072 -75 642 372 
Q 213 819 213 1659 
z
M 791 1659 
Q 791 1022 1069 705 
Q 1347 388 1769 388 
Q 2188 388 2466 706 
Q 2744 1025 2744 1678 
Q 2744 2294 2464 2611 
Q 2184 2928 1769 2928 
Q 1347 2928 1069 2612 
Q 791 2297 791 1659 
z
" transform="scale(0.015625)"/>
       <path id="ArialMT-6c" d="M 409 0 
L 409 4581 
L 972 4581 
L 972 0 
L 409 0 
z
" transform="scale(0.015625)"/>
       <path id="ArialMT-76" d="M 1344 0 
L 81 3319 
L 675 3319 
L 1388 1331 
Q 1503 1009 1600 663 
Q 1675 925 1809 1294 
L 2547 3319 
L 3125 3319 
L 1869 0 
L 1344 0 
z
" transform="scale(0.015625)"/>
       <path id="ArialMT-73" d="M 197 991 
L 753 1078 
Q 800 744 1014 566 
Q 1228 388 1613 388 
Q 2000 388 2187 545 
Q 2375 703 2375 916 
Q 2375 1106 2209 1216 
Q 2094 1291 1634 1406 
Q 1016 1563 777 1677 
Q 538 1791 414 1992 
Q 291 2194 291 2438 
Q 291 2659 392 2848 
Q 494 3038 669 3163 
Q 800 3259 1026 3326 
Q 1253 3394 1513 3394 
Q 1903 3394 2198 3281 
Q 2494 3169 2634 2976 
Q 2775 2784 2828 2463 
L 2278 2388 
Q 2241 2644 2061 2787 
Q 1881 2931 1553 2931 
Q 1166 2931 1000 2803 
Q 834 2675 834 2503 
Q 834 2394 903 2306 
Q 972 2216 1119 2156 
Q 1203 2125 1616 2013 
Q 2213 1853 2448 1751 
Q 2684 1650 2818 1456 
Q 2953 1263 2953 975 
Q 2953 694 2789 445 
Q 2625 197 2315 61 
Q 2006 -75 1616 -75 
Q 969 -75 630 194 
Q 291 463 197 991 
z
" transform="scale(0.015625)"/>
      </defs>
      <use xlink:href="#ArialMT-57"/>
      <use xlink:href="#ArialMT-6f" x="92.634766"/>
      <use xlink:href="#ArialMT-6c" x="148.25"/>
      <use xlink:href="#ArialMT-76" x="170.466797"/>
      <use xlink:href="#ArialMT-65" x="220.466797"/>
      <use xlink:href="#ArialMT-73" x="276.082031"/>
     </g>
    </g>
   </g>
  </g>
 </g>
 <defs>
  <clipPath id="p0224f1fbde">
   <rect x="56.450156" y="7.2" width="443.52" height="443.52"/>
  </clipPath>
 </defs>
</svg>
