<?xml version="1.0" encoding="utf-8" standalone="no"?>
<!DOCTYPE svg PUBLIC "-//W3C//DTD SVG 1.1//EN"
  "http://www.w3.org/Graphics/SVG/1.1/DTD/svg11.dtd">
<svg xmlns:xlink="http://www.w3.org/1999/xlink" width="507.170156pt" height="492.454219pt" viewBox="0 0 507.170156 492.454219" xmlns="http://www.w3.org/2000/svg" version="1.1">
 <metadata>
  <rdf:RDF xmlns:dc="http://purl.org/dc/elements/1.1/" xmlns:cc="http://creativecommons.org/ns#" xmlns:rdf="http://www.w3.org/1999/02/22-rdf-syntax-ns#">
   <cc:Work>
    <dc:type rdf:resource="http://purl.org/dc/dcmitype/StillImage"/>
    <dc:date>2026-05-12T10:43:18.671784</dc:date>
    <dc:format>image/svg+xml</dc:format>
    <dc:creator>
     <cc:Agent>
      <dc:title>Matplotlib v3.7.1, https://matplotlib.org/</dc:title>
     </cc:Agent>
    </dc:creator>
   </cc:Work>
  </rdf:RDF>
 </metadata>
 <defs>
  <style type="text/css">*{stroke-linejoin: round; stroke-linecap: butt}</style>
 </defs>
 <g id="figure_1">
  <g id="patch_1">
   <path d="M 0 492.454219 
L 507.170156 492.454219 
L 507.170156 0 
L 0 0 
z
" style="fill: #ffffff"/>
  </g>
  <g id="axes_1">
   <g id="patch_2">
    <path d="M 56.450156 450.72 
L 499.970156 450.72 
L 499.970156 7.2 
L 56.450156 7.2 
z
" style="fill: #eaeaf2"/>
   </g>
   <g id="matplotlib.axis_1">
    <g id="xtick_1">
     <g id="line2d_1">
      <path d="M 100.802156 450.72 
L 100.802156 7.2 
" clip-path="url(#pafe036485d)" style="fill: none; stroke: #ffffff; stroke-linecap: round"/>
     </g>
     <g id="text_1">
      <!-- −400 -->
      <g style="fill: #262626" transform="translate(88.414266 468.093594) scale(0.11 -0.11)">
       <defs>
        <path id="ArialMT-2212" d="M 3381 1997 
L 356 1997 
L 356 2522 
L 3381 2522 
L 3381 1997 
z
" transform="scale(0.015625)"/>
        <path id="ArialMT-34" d="M 2069 0 
L 2069 1097 
L 81 1097 
L 81 1613 
L 2172 4581 
L 2631 4581 
L 2631 1613 
L 3250 1613 
L 3250 1097 
L 2631 1097 
L 2631 0 
L 2069 0 
z
M 2069 1613 
L 2069 3678 
L 634 1613 
L 2069 1613 
z
" transform="scale(0.015625)"/>
        <path id="ArialMT-30" d="M 266 2259 
Q 266 3072 433 3567 
Q 600 4063 929 4331 
Q 1259 4600 1759 4600 
Q 2128 4600 2406 4451 
Q 2684 4303 2865 4023 
Q 3047 3744 3150 3342 
Q 3253 2941 3253 2259 
Q 3253 1453 3087 958 
Q 2922 463 2592 192 
Q 2263 -78 1759 -78 
Q 1097 -78 719 397 
Q 266 969 266 2259 
z
M 844 2259 
Q 844 1131 1108 757 
Q 1372 384 1759 384 
Q 2147 384 2411 759 
Q 2675 1134 2675 2259 
Q 2675 3391 2411 3762 
Q 2147 4134 1753 4134 
Q 1366 4134 1134 3806 
Q 844 3388 844 2259 
z
" transform="scale(0.015625)"/>
       </defs>
       <use xlink:href="#ArialMT-2212"/>
       <use xlink:href="#ArialMT-34" x="58.398438"/>
       <use xlink:href="#ArialMT-30" x="114.013672"/>
       <use xlink:href="#ArialMT-30" x="169.628906"/>
      </g>
     </g>
    </g>
    <g id="xtick_2">
     <g id="line2d_2">
      <path d="M 189.506156 450.72 
L 189.506156 7.2 
" clip-path="url(#pafe036485d)" style="fill: none; stroke: #ffffff; stroke-linecap: round"/>
     </g>
     <g id="text_2">
      <!-- −200 -->
      <g style="fill: #262626" transform="translate(177.118266 468.093594) scale(0.11 -0.11)">
       <defs>
        <path id="ArialMT-32" d="M 3222 541 
L 3222 0 
L 194 0 
Q 188 203 259 391 
Q 375 700 629 1000 
Q 884 1300 1366 1694 
Q 2113 2306 2375 2664 
Q 2638 3022 2638 3341 
Q 2638 3675 2398 3904 
Q 2159 4134 1775 4134 
Q 1369 4134 1125 3890 
Q 881 3647 878 3216 
L 300 3275 
Q 359 3922 746 4261 
Q 1134 4600 1788 4600 
Q 2447 4600 2831 4234 
Q 3216 3869 3216 3328 
Q 3216 3053 3103 2787 
Q 2991 2522 2730 2228 
Q 2469 1934 1863 1422 
Q 1356 997 1212 845 
Q 1069 694 975 541 
L 3222 541 
z
" transform="scale(0.015625)"/>
       </defs>
       <use xlink:href="#ArialMT-2212"/>
       <use xlink:href="#ArialMT-32" x="58.398438"/>
       <use xlink:href="#ArialMT-30" x="114.013672"/>
       <use xlink:href="#ArialMT-30" x="169.628906"/>
      </g>
     </g>
    </g>
    <g id="xtick_3">
     <g id="line2d_3">
      <path d="M 278.210156 450.72 
L 278.210156 7.2 
" clip-path="url(#pafe036485d)" style="fill: none; stroke: #ffffff; stroke-linecap: round"/>
     </g>
     <g id="text_3">
      <!-- 0 -->
      <g style="fill: #262626" transform="translate(275.151641 468.093594) scale(0.11 -0.11)">
       <use xlink:href="#ArialMT-30"/>
      </g>
     </g>
    </g>
    <g id="xtick_4">
     <g id="line2d_4">
      <path d="M 366.914156 450.72 
L 366.914156 7.2 
" clip-path="url(#pafe036485d)" style="fill: none; stroke: #ffffff; stroke-linecap: round"/>
     </g>
     <g id="text_4">
      <!-- 200 -->
      <g style="fill: #262626" transform="translate(357.738609 468.093594) scale(0.11 -0.11)">
       <use xlink:href="#ArialMT-32"/>
       <use xlink:href="#ArialMT-30" x="55.615234"/>
       <use xlink:href="#ArialMT-30" x="111.230469"/>
      </g>
     </g>
    </g>
    <g id="xtick_5">
     <g id="line2d_5">
      <path d="M 455.618156 450.72 
L 455.618156 7.2 
" clip-path="url(#pafe036485d)" style="fill: none; stroke: #ffffff; stroke-linecap: round"/>
     </g>
     <g id="text_5">
      <!-- 400 -->
      <g style="fill: #262626" transform="translate(446.442609 468.093594) scale(0.11 -0.11)">
       <use xlink:href="#ArialMT-34"/>
       <use xlink:href="#ArialMT-30" x="55.615234"/>
       <use xlink:href="#ArialMT-30" x="111.230469"/>
      </g>
     </g>
    </g>
    <g id="text_6">
     <!-- x -->
     <g style="fill: #262626" transform="translate(275.210156 482.869219) scale(0.12 -0.12)">
      <defs>
       <path id="ArialMT-78" d="M 47 0 
L 1259 1725 
L 138 3319 
L 841 3319 
L 1350 2541 
Q 1494 2319 1581 2169 
Q 1719 2375 1834 2534 
L 2394 3319 
L 3066 3319 
L 1919 1756 
L 3153 0 
L 2463 0 
L 1781 1031 
L 1600 1309 
L 728 0 
L 47 0 
z
" transform="scale(0.015625)"/>
      </defs>
      <use xlink:href="#ArialMT-78"/>
     </g>
    </g>
   </g>
   <g id="matplotlib.axis_2">
    <g id="ytick_1">
     <g id="line2d_6">
      <path d="M 56.450156 406.368 
L 499.970156 406.368 
" clip-path="url(#pafe036485d)" style="fill: none; stroke: #ffffff; stroke-linecap: round"/>
     </g>
     <g id="text_7">
      <!-- −400 -->
      <g style="fill: #262626" transform="translate(22.174375 410.304797) scale(0.11 -0.11)">
       <use xlink:href="#ArialMT-2212"/>
       <use xlink:href="#ArialMT-34" x="58.398438"/>
       <use xlink:href="#ArialMT-30" x="114.013672"/>
       <use xlink:href="#ArialMT-30" x="169.628906"/>
      </g>
     </g>
    </g>
    <g id="ytick_2">
     <g id="line2d_7">
      <path d="M 56.450156 317.664 
L 499.970156 317.664 
" clip-path="url(#pafe036485d)" style="fill: none; stroke: #ffffff; stroke-linecap: round"/>
     </g>
     <g id="text_8">
      <!-- −200 -->
      <g style="fill: #262626" transform="translate(22.174375 321.600797) scale(0.11 -0.11)">
       <use xlink:href="#ArialMT-2212"/>
       <use xlink:href="#ArialMT-32" x="58.398438"/>
       <use xlink:href="#ArialMT-30" x="114.013672"/>
       <use xlink:href="#ArialMT-30" x="169.628906"/>
      </g>
     </g>
    </g>
    <g id="ytick_3">
     <g id="line2d_8">
      <path d="M 56.450156 228.96 
L 499.970156 228.96 
" clip-path="url(#pafe036485d)" style="fill: none; stroke: #ffffff; stroke-linecap: round"/>
     </g>
     <g id="text_9">
      <!-- 0 -->
      <g style="fill: #262626" transform="translate(40.833125 232.896797) scale(0.11 -0.11)">
       <use xlink:href="#ArialMT-30"/>
      </g>
     </g>
    </g>
    <g id="ytick_4">
     <g id="line2d_9">
      <path d="M 56.450156 140.256 
L 499.970156 140.256 
" clip-path="url(#pafe036485d)" style="fill: none; stroke: #ffffff; stroke-linecap: round"/>
     </g>
     <g id="text_10">
      <!-- 200 -->
      <g style="fill: #262626" transform="translate(28.599063 144.192797) scale(0.11 -0.11)">
       <use xlink:href="#ArialMT-32"/>
       <use xlink:href="#ArialMT-30" x="55.615234"/>
       <use xlink:href="#ArialMT-30" x="111.230469"/>
      </g>
     </g>
    </g>
    <g id="ytick_5">
     <g id="line2d_10">
      <path d="M 56.450156 51.552 
L 499.970156 51.552 
" clip-path="url(#pafe036485d)" style="fill: none; stroke: #ffffff; stroke-linecap: round"/>
     </g>
     <g id="text_11">
      <!-- 400 -->
      <g style="fill: #262626" transform="translate(28.599063 55.488797) scale(0.11 -0.11)">
       <use xlink:href="#ArialMT-34"/>
       <use xlink:href="#ArialMT-30" x="55.615234"/>
       <use xlink:href="#ArialMT-30" x="111.230469"/>
      </g>
     </g>
    </g>
    <g id="text_12">
     <!-- y -->
     <g style="fill: #262626" transform="translate(15.64875 231.96) rotate(-90) scale(0.12 -0.12)">
      <defs>
       <path id="ArialMT-79" d="M 397 -1278 
L 334 -750 
Q 519 -800 656 -800 
Q 844 -800 956 -737 
Q 1069 -675 1141 -563 
Q 1194 -478 1313 -144 
Q 1328 -97 1363 -6 
L 103 3319 
L 709 3319 
L 1400 1397 
Q 1534 1031 1641 628 
Q 1738 1016 1872 1384 
L 2581 3319 
L 3144 3319 
L 1881 -56 
Q 1678 -603 1566 -809 
Q 1416 -1088 1222 -1217 
Q 1028 -1347 759 -1347 
Q 597 -1347 397 -1278 
z
" transform="scale(0.015625)"/>
      </defs>
      <use xlink:href="#ArialMT-79"/>
     </g>
    </g>
   </g>
   <g id="patch_3">
    <path d="M 278.210156 317.664 
C 301.734732 317.664 324.298969 308.317587 340.933356 291.6832 
C 357.567743 275.048813 366.914156 252.484576 366.914156 228.96 
C 366.914156 205.435424 357.567743 182.871187 340.933356 166.2368 
C 324.298969 149.602413 301.734732 140.256 278.210156 140.256 
C 254.68558 140.256 232.121343 149.602413 215.486956 166.2368 
C 198.852569 182.871187 189.506156 205.435424 189.506156 228.96 
C 189.506156 252.484576 198.852569 275.048813 215.486956 291.6832 
C 232.121343 308.317587 254.68558 317.664 278.210156 317.664 
z
" clip-path="url(#pafe036485d)" style="fill: #228b22; opacity: 0.12; stroke: #228b22; stroke-width: 1.5; stroke-linejoin: miter"/>
   </g>
   <g id="PathCollection_1">
    <defs>
     <path id="m8166176ea5" d="M 0 2.236068 
C 0.593012 2.236068 1.161816 2.000462 1.581139 1.581139 
C 2.000462 1.161816 2.236068 0.593012 2.236068 0 
C 2.236068 -0.593012 2.000462 -1.161816 1.581139 -1.581139 
C 1.161816 -2.000462 0.593012 -2.236068 0 -2.236068 
C -0.593012 -2.236068 -1.161816 -2.000462 -1.581139 -1.581139 
C -2.000462 -1.161816 -2.236068 -0.593012 -2.236068 0 
C -2.236068 0.593012 -2.000462 1.161816 -1.581139 1.581139 
C -1.161816 2.000462 -0.593012 2.236068 0 2.236068 
z
" style="stroke: #4169e1"/>
    </defs>
    <g clip-path="url(#pafe036485d)">
     <use xlink:href="#m8166176ea5" x="342.068699" y="206.038313" style="fill: #4169e1; stroke: #4169e1"/>
     <use xlink:href="#m8166176ea5" x="273.78166" y="300.657678" style="fill: #4169e1; stroke: #4169e1"/>
     <use xlink:href="#m8166176ea5" x="328.459055" y="222.002868" style="fill: #4169e1; stroke: #4169e1"/>
     <use xlink:href="#m8166176ea5" x="309.301672" y="132.960084" style="fill: #4169e1; stroke: #4169e1"/>
     <use xlink:href="#m8166176ea5" x="254.140048" y="160.975326" style="fill: #4169e1; stroke: #4169e1"/>
     <use xlink:href="#m8166176ea5" x="273.294184" y="278.923561" style="fill: #4169e1; stroke: #4169e1"/>
     <use xlink:href="#m8166176ea5" x="316.809827" y="247.865737" style="fill: #4169e1; stroke: #4169e1"/>
     <use xlink:href="#m8166176ea5" x="385.119063" y="126.220943" style="fill: #4169e1; stroke: #4169e1"/>
     <use xlink:href="#m8166176ea5" x="242.619145" y="357.78935" style="fill: #4169e1; stroke: #4169e1"/>
     <use xlink:href="#m8166176ea5" x="432.000635" y="281.721941" style="fill: #4169e1; stroke: #4169e1"/>
     <use xlink:href="#m8166176ea5" x="227.11708" y="272.629402" style="fill: #4169e1; stroke: #4169e1"/>
     <use xlink:href="#m8166176ea5" x="302.480219" y="355.311793" style="fill: #4169e1; stroke: #4169e1"/>
     <use xlink:href="#m8166176ea5" x="353.498658" y="266.791063" style="fill: #4169e1; stroke: #4169e1"/>
     <use xlink:href="#m8166176ea5" x="229.419193" y="355.501543" style="fill: #4169e1; stroke: #4169e1"/>
     <use xlink:href="#m8166176ea5" x="334.17305" y="340.342026" style="fill: #4169e1; stroke: #4169e1"/>
     <use xlink:href="#m8166176ea5" x="413.105882" y="191.623018" style="fill: #4169e1; stroke: #4169e1"/>
     <use xlink:href="#m8166176ea5" x="319.237749" y="281.885473" style="fill: #4169e1; stroke: #4169e1"/>
     <use xlink:href="#m8166176ea5" x="381.69029" y="224.547715" style="fill: #4169e1; stroke: #4169e1"/>
     <use xlink:href="#m8166176ea5" x="200.463975" y="117.320806" style="fill: #4169e1; stroke: #4169e1"/>
     <use xlink:href="#m8166176ea5" x="312.025991" y="209.645787" style="fill: #4169e1; stroke: #4169e1"/>
     <use xlink:href="#m8166176ea5" x="209.201846" y="222.508936" style="fill: #4169e1; stroke: #4169e1"/>
     <use xlink:href="#m8166176ea5" x="271.766287" y="273.488918" style="fill: #4169e1; stroke: #4169e1"/>
     <use xlink:href="#m8166176ea5" x="309.392442" y="305.202581" style="fill: #4169e1; stroke: #4169e1"/>
     <use xlink:href="#m8166176ea5" x="402.085544" y="255.447125" style="fill: #4169e1; stroke: #4169e1"/>
     <use xlink:href="#m8166176ea5" x="210.950229" y="244.576498" style="fill: #4169e1; stroke: #4169e1"/>
     <use xlink:href="#m8166176ea5" x="407.810617" y="221.720514" style="fill: #4169e1; stroke: #4169e1"/>
     <use xlink:href="#m8166176ea5" x="430.912287" y="228.180812" style="fill: #4169e1; stroke: #4169e1"/>
     <use xlink:href="#m8166176ea5" x="311.984317" y="391.611228" style="fill: #4169e1; stroke: #4169e1"/>
     <use xlink:href="#m8166176ea5" x="203.113881" y="76.227713" style="fill: #4169e1; stroke: #4169e1"/>
     <use xlink:href="#m8166176ea5" x="380.988323" y="159.826916" style="fill: #4169e1; stroke: #4169e1"/>
     <use xlink:href="#m8166176ea5" x="370.408622" y="162.670124" style="fill: #4169e1; stroke: #4169e1"/>
     <use xlink:href="#m8166176ea5" x="226.875606" y="303.064229" style="fill: #4169e1; stroke: #4169e1"/>
     <use xlink:href="#m8166176ea5" x="192.501074" y="215.58229" style="fill: #4169e1; stroke: #4169e1"/>
     <use xlink:href="#m8166176ea5" x="280.959834" y="246.192452" style="fill: #4169e1; stroke: #4169e1"/>
     <use xlink:href="#m8166176ea5" x="336.341521" y="261.211455" style="fill: #4169e1; stroke: #4169e1"/>
     <use xlink:href="#m8166176ea5" x="329.645841" y="222.596319" style="fill: #4169e1; stroke: #4169e1"/>
     <use xlink:href="#m8166176ea5" x="283.483186" y="277.041315" style="fill: #4169e1; stroke: #4169e1"/>
     <use xlink:href="#m8166176ea5" x="189.905653" y="208.885976" style="fill: #4169e1; stroke: #4169e1"/>
     <use xlink:href="#m8166176ea5" x="288.74499" y="106.849976" style="fill: #4169e1; stroke: #4169e1"/>
     <use xlink:href="#m8166176ea5" x="220.702174" y="246.254527" style="fill: #4169e1; stroke: #4169e1"/>
     <use xlink:href="#m8166176ea5" x="241.142371" y="145.738679" style="fill: #4169e1; stroke: #4169e1"/>
     <use xlink:href="#m8166176ea5" x="368.040078" y="214.215582" style="fill: #4169e1; stroke: #4169e1"/>
     <use xlink:href="#m8166176ea5" x="328.603553" y="108.819043" style="fill: #4169e1; stroke: #4169e1"/>
     <use xlink:href="#m8166176ea5" x="347.061825" y="102.337909" style="fill: #4169e1; stroke: #4169e1"/>
     <use xlink:href="#m8166176ea5" x="287.100379" y="137.494381" style="fill: #4169e1; stroke: #4169e1"/>
     <use xlink:href="#m8166176ea5" x="243.577288" y="274.953544" style="fill: #4169e1; stroke: #4169e1"/>
     <use xlink:href="#m8166176ea5" x="236.153072" y="325.47545" style="fill: #4169e1; stroke: #4169e1"/>
     <use xlink:href="#m8166176ea5" x="170.031909" y="314.12721" style="fill: #4169e1; stroke: #4169e1"/>
     <use xlink:href="#m8166176ea5" x="410.440011" y="290.133946" style="fill: #4169e1; stroke: #4169e1"/>
     <use xlink:href="#m8166176ea5" x="356.345351" y="293.53416" style="fill: #4169e1; stroke: #4169e1"/>
     <use xlink:href="#m8166176ea5" x="349.554581" y="254.910326" style="fill: #4169e1; stroke: #4169e1"/>
     <use xlink:href="#m8166176ea5" x="392.41393" y="167.743466" style="fill: #4169e1; stroke: #4169e1"/>
     <use xlink:href="#m8166176ea5" x="220.479812" y="234.056701" style="fill: #4169e1; stroke: #4169e1"/>
     <use xlink:href="#m8166176ea5" x="344.783357" y="307.733296" style="fill: #4169e1; stroke: #4169e1"/>
     <use xlink:href="#m8166176ea5" x="261.235106" y="135.879881" style="fill: #4169e1; stroke: #4169e1"/>
     <use xlink:href="#m8166176ea5" x="347.435605" y="181.520137" style="fill: #4169e1; stroke: #4169e1"/>
     <use xlink:href="#m8166176ea5" x="242.27969" y="221.025727" style="fill: #4169e1; stroke: #4169e1"/>
     <use xlink:href="#m8166176ea5" x="320.625549" y="190.549037" style="fill: #4169e1; stroke: #4169e1"/>
     <use xlink:href="#m8166176ea5" x="332.572169" y="221.878182" style="fill: #4169e1; stroke: #4169e1"/>
     <use xlink:href="#m8166176ea5" x="232.878959" y="252.774495" style="fill: #4169e1; stroke: #4169e1"/>
     <use xlink:href="#m8166176ea5" x="263.04142" y="291.921324" style="fill: #4169e1; stroke: #4169e1"/>
     <use xlink:href="#m8166176ea5" x="326.393644" y="85.985938" style="fill: #4169e1; stroke: #4169e1"/>
     <use xlink:href="#m8166176ea5" x="278.198486" y="119.452641" style="fill: #4169e1; stroke: #4169e1"/>
     <use xlink:href="#m8166176ea5" x="221.177089" y="258.798188" style="fill: #4169e1; stroke: #4169e1"/>
     <use xlink:href="#m8166176ea5" x="458.683179" y="266.586242" style="fill: #4169e1; stroke: #4169e1"/>
     <use xlink:href="#m8166176ea5" x="453.963335" y="238.739054" style="fill: #4169e1; stroke: #4169e1"/>
     <use xlink:href="#m8166176ea5" x="363.165818" y="150.533129" style="fill: #4169e1; stroke: #4169e1"/>
     <use xlink:href="#m8166176ea5" x="308.536374" y="202.467373" style="fill: #4169e1; stroke: #4169e1"/>
     <use xlink:href="#m8166176ea5" x="278.217962" y="265.186748" style="fill: #4169e1; stroke: #4169e1"/>
     <use xlink:href="#m8166176ea5" x="281.001743" y="77.687696" style="fill: #4169e1; stroke: #4169e1"/>
     <use xlink:href="#m8166176ea5" x="330.612756" y="222.146237" style="fill: #4169e1; stroke: #4169e1"/>
     <use xlink:href="#m8166176ea5" x="386.229542" y="167.006091" style="fill: #4169e1; stroke: #4169e1"/>
     <use xlink:href="#m8166176ea5" x="214.892546" y="247.323967" style="fill: #4169e1; stroke: #4169e1"/>
     <use xlink:href="#m8166176ea5" x="159.054856" y="195.972851" style="fill: #4169e1; stroke: #4169e1"/>
     <use xlink:href="#m8166176ea5" x="417.194013" y="251.044587" style="fill: #4169e1; stroke: #4169e1"/>
     <use xlink:href="#m8166176ea5" x="335.579951" y="200.421008" style="fill: #4169e1; stroke: #4169e1"/>
     <use xlink:href="#m8166176ea5" x="193.615342" y="295.022858" style="fill: #4169e1; stroke: #4169e1"/>
     <use xlink:href="#m8166176ea5" x="283.696732" y="104.132062" style="fill: #4169e1; stroke: #4169e1"/>
     <use xlink:href="#m8166176ea5" x="321.881172" y="119.058308" style="fill: #4169e1; stroke: #4169e1"/>
     <use xlink:href="#m8166176ea5" x="308.731094" y="152.215542" style="fill: #4169e1; stroke: #4169e1"/>
     <use xlink:href="#m8166176ea5" x="233.462324" y="265.06307" style="fill: #4169e1; stroke: #4169e1"/>
     <use xlink:href="#m8166176ea5" x="314.026186" y="369.048881" style="fill: #4169e1; stroke: #4169e1"/>
     <use xlink:href="#m8166176ea5" x="309.444262" y="301.15653" style="fill: #4169e1; stroke: #4169e1"/>
     <use xlink:href="#m8166176ea5" x="309.121648" y="160.574002" style="fill: #4169e1; stroke: #4169e1"/>
     <use xlink:href="#m8166176ea5" x="292.434765" y="227.72594" style="fill: #4169e1; stroke: #4169e1"/>
     <use xlink:href="#m8166176ea5" x="360.424759" y="247.959094" style="fill: #4169e1; stroke: #4169e1"/>
     <use xlink:href="#m8166176ea5" x="353.342773" y="209.703371" style="fill: #4169e1; stroke: #4169e1"/>
     <use xlink:href="#m8166176ea5" x="209.215354" y="235.881673" style="fill: #4169e1; stroke: #4169e1"/>
     <use xlink:href="#m8166176ea5" x="271.692835" y="303.934398" style="fill: #4169e1; stroke: #4169e1"/>
     <use xlink:href="#m8166176ea5" x="285.036864" y="254.45469" style="fill: #4169e1; stroke: #4169e1"/>
     <use xlink:href="#m8166176ea5" x="423.299993" y="286.280054" style="fill: #4169e1; stroke: #4169e1"/>
     <use xlink:href="#m8166176ea5" x="238.346617" y="176.617974" style="fill: #4169e1; stroke: #4169e1"/>
     <use xlink:href="#m8166176ea5" x="240.12873" y="275.769399" style="fill: #4169e1; stroke: #4169e1"/>
     <use xlink:href="#m8166176ea5" x="296.276577" y="183.477601" style="fill: #4169e1; stroke: #4169e1"/>
     <use xlink:href="#m8166176ea5" x="187.394861" y="304.410795" style="fill: #4169e1; stroke: #4169e1"/>
     <use xlink:href="#m8166176ea5" x="279.389443" y="101.58568" style="fill: #4169e1; stroke: #4169e1"/>
     <use xlink:href="#m8166176ea5" x="220.72249" y="155.386024" style="fill: #4169e1; stroke: #4169e1"/>
     <use xlink:href="#m8166176ea5" x="172.417081" y="159.864848" style="fill: #4169e1; stroke: #4169e1"/>
     <use xlink:href="#m8166176ea5" x="251.685432" y="244.247187" style="fill: #4169e1; stroke: #4169e1"/>
     <use xlink:href="#m8166176ea5" x="397.364928" y="215.737475" style="fill: #4169e1; stroke: #4169e1"/>
     <use xlink:href="#m8166176ea5" x="224.216983" y="174.520458" style="fill: #4169e1; stroke: #4169e1"/>
     <use xlink:href="#m8166176ea5" x="162.507242" y="210.227019" style="fill: #4169e1; stroke: #4169e1"/>
     <use xlink:href="#m8166176ea5" x="230.492044" y="159.856835" style="fill: #4169e1; stroke: #4169e1"/>
     <use xlink:href="#m8166176ea5" x="283.037427" y="279.687993" style="fill: #4169e1; stroke: #4169e1"/>
     <use xlink:href="#m8166176ea5" x="369.843658" y="147.856829" style="fill: #4169e1; stroke: #4169e1"/>
     <use xlink:href="#m8166176ea5" x="354.947528" y="269.056594" style="fill: #4169e1; stroke: #4169e1"/>
     <use xlink:href="#m8166176ea5" x="249.197501" y="340.366964" style="fill: #4169e1; stroke: #4169e1"/>
     <use xlink:href="#m8166176ea5" x="276.000149" y="279.425641" style="fill: #4169e1; stroke: #4169e1"/>
     <use xlink:href="#m8166176ea5" x="311.742528" y="190.184789" style="fill: #4169e1; stroke: #4169e1"/>
     <use xlink:href="#m8166176ea5" x="336.629014" y="260.345009" style="fill: #4169e1; stroke: #4169e1"/>
     <use xlink:href="#m8166176ea5" x="178.391885" y="249.362548" style="fill: #4169e1; stroke: #4169e1"/>
     <use xlink:href="#m8166176ea5" x="404.571086" y="213.073095" style="fill: #4169e1; stroke: #4169e1"/>
     <use xlink:href="#m8166176ea5" x="369.72377" y="175.083811" style="fill: #4169e1; stroke: #4169e1"/>
     <use xlink:href="#m8166176ea5" x="334.365652" y="184.041249" style="fill: #4169e1; stroke: #4169e1"/>
     <use xlink:href="#m8166176ea5" x="321.0356" y="298.092394" style="fill: #4169e1; stroke: #4169e1"/>
     <use xlink:href="#m8166176ea5" x="303.750172" y="283.50379" style="fill: #4169e1; stroke: #4169e1"/>
     <use xlink:href="#m8166176ea5" x="302.988483" y="169.956742" style="fill: #4169e1; stroke: #4169e1"/>
     <use xlink:href="#m8166176ea5" x="274.102268" y="116.120468" style="fill: #4169e1; stroke: #4169e1"/>
     <use xlink:href="#m8166176ea5" x="234.647506" y="190.160043" style="fill: #4169e1; stroke: #4169e1"/>
     <use xlink:href="#m8166176ea5" x="266.679093" y="113.685974" style="fill: #4169e1; stroke: #4169e1"/>
     <use xlink:href="#m8166176ea5" x="268.477633" y="192.553072" style="fill: #4169e1; stroke: #4169e1"/>
     <use xlink:href="#m8166176ea5" x="244.724159" y="266.985888" style="fill: #4169e1; stroke: #4169e1"/>
     <use xlink:href="#m8166176ea5" x="365.921285" y="186.962305" style="fill: #4169e1; stroke: #4169e1"/>
     <use xlink:href="#m8166176ea5" x="388.884083" y="274.417335" style="fill: #4169e1; stroke: #4169e1"/>
     <use xlink:href="#m8166176ea5" x="313.285492" y="332.980335" style="fill: #4169e1; stroke: #4169e1"/>
     <use xlink:href="#m8166176ea5" x="173.524155" y="167.275874" style="fill: #4169e1; stroke: #4169e1"/>
     <use xlink:href="#m8166176ea5" x="375.677676" y="286.302975" style="fill: #4169e1; stroke: #4169e1"/>
     <use xlink:href="#m8166176ea5" x="329.696469" y="138.243593" style="fill: #4169e1; stroke: #4169e1"/>
     <use xlink:href="#m8166176ea5" x="285.912512" y="331.337113" style="fill: #4169e1; stroke: #4169e1"/>
     <use xlink:href="#m8166176ea5" x="430.642924" y="301.621463" style="fill: #4169e1; stroke: #4169e1"/>
     <use xlink:href="#m8166176ea5" x="287.198361" y="212.147468" style="fill: #4169e1; stroke: #4169e1"/>
     <use xlink:href="#m8166176ea5" x="323.275845" y="369.522733" style="fill: #4169e1; stroke: #4169e1"/>
     <use xlink:href="#m8166176ea5" x="217.859547" y="260.191277" style="fill: #4169e1; stroke: #4169e1"/>
     <use xlink:href="#m8166176ea5" x="341.853219" y="295.725258" style="fill: #4169e1; stroke: #4169e1"/>
     <use xlink:href="#m8166176ea5" x="398.183115" y="265.517039" style="fill: #4169e1; stroke: #4169e1"/>
     <use xlink:href="#m8166176ea5" x="241.244298" y="314.061395" style="fill: #4169e1; stroke: #4169e1"/>
     <use xlink:href="#m8166176ea5" x="363.156134" y="204.160229" style="fill: #4169e1; stroke: #4169e1"/>
     <use xlink:href="#m8166176ea5" x="331.685102" y="271.43218" style="fill: #4169e1; stroke: #4169e1"/>
     <use xlink:href="#m8166176ea5" x="205.831998" y="341.769206" style="fill: #4169e1; stroke: #4169e1"/>
     <use xlink:href="#m8166176ea5" x="307.322061" y="242.508459" style="fill: #4169e1; stroke: #4169e1"/>
     <use xlink:href="#m8166176ea5" x="336.265561" y="234.25877" style="fill: #4169e1; stroke: #4169e1"/>
     <use xlink:href="#m8166176ea5" x="348.026468" y="234.980939" style="fill: #4169e1; stroke: #4169e1"/>
     <use xlink:href="#m8166176ea5" x="321.020688" y="388.486177" style="fill: #4169e1; stroke: #4169e1"/>
     <use xlink:href="#m8166176ea5" x="240.679611" y="105.934065" style="fill: #4169e1; stroke: #4169e1"/>
     <use xlink:href="#m8166176ea5" x="311.075306" y="168.620388" style="fill: #4169e1; stroke: #4169e1"/>
     <use xlink:href="#m8166176ea5" x="350.823332" y="313.742831" style="fill: #4169e1; stroke: #4169e1"/>
     <use xlink:href="#m8166176ea5" x="408.802352" y="308.45851" style="fill: #4169e1; stroke: #4169e1"/>
     <use xlink:href="#m8166176ea5" x="421.602725" y="207.606339" style="fill: #4169e1; stroke: #4169e1"/>
     <use xlink:href="#m8166176ea5" x="232.441228" y="179.26587" style="fill: #4169e1; stroke: #4169e1"/>
     <use xlink:href="#m8166176ea5" x="455.757595" y="224.810116" style="fill: #4169e1; stroke: #4169e1"/>
    </g>
   </g>
   <g id="PathCollection_2">
    <defs>
     <path id="mcd28c59698" d="M 0 2.5 
C 0.663008 2.5 1.29895 2.236584 1.767767 1.767767 
C 2.236584 1.29895 2.5 0.663008 2.5 0 
C 2.5 -0.663008 2.236584 -1.29895 1.767767 -1.767767 
C 1.29895 -2.236584 0.663008 -2.5 0 -2.5 
C -0.663008 -2.5 -1.29895 -2.236584 -1.767767 -1.767767 
C -2.236584 -1.29895 -2.5 -0.663008 -2.5 0 
C -2.5 0.663008 -2.236584 1.29895 -1.767767 1.767767 
C -1.29895 2.236584 -0.663008 2.5 0 2.5 
z
" style="stroke: #b22222"/>
    </defs>
    <g clip-path="url(#pafe036485d)">
     <use xlink:href="#mcd28c59698" x="280.184706" y="199.923361" style="fill: #b22222; stroke: #b22222"/>
     <use xlink:href="#mcd28c59698" x="309.874906" y="201.533099" style="fill: #b22222; stroke: #b22222"/>
     <use xlink:href="#mcd28c59698" x="305.419871" y="224.167274" style="fill: #b22222; stroke: #b22222"/>
     <use xlink:href="#mcd28c59698" x="219.58036" y="241.952601" style="fill: #b22222; stroke: #b22222"/>
     <use xlink:href="#mcd28c59698" x="268.111043" y="186.807943" style="fill: #b22222; stroke: #b22222"/>
     <use xlink:href="#mcd28c59698" x="264.916789" y="182.323574" style="fill: #b22222; stroke: #b22222"/>
     <use xlink:href="#mcd28c59698" x="311.741053" y="195.009246" style="fill: #b22222; stroke: #b22222"/>
     <use xlink:href="#mcd28c59698" x="257.531508" y="187.516211" style="fill: #b22222; stroke: #b22222"/>
     <use xlink:href="#mcd28c59698" x="246.126056" y="246.95063" style="fill: #b22222; stroke: #b22222"/>
     <use xlink:href="#mcd28c59698" x="313.299491" y="198.993174" style="fill: #b22222; stroke: #b22222"/>
     <use xlink:href="#mcd28c59698" x="253.960276" y="227.24374" style="fill: #b22222; stroke: #b22222"/>
     <use xlink:href="#mcd28c59698" x="288.721897" y="211.941603" style="fill: #b22222; stroke: #b22222"/>
     <use xlink:href="#mcd28c59698" x="253.908951" y="236.73812" style="fill: #b22222; stroke: #b22222"/>
     <use xlink:href="#mcd28c59698" x="296.93837" y="245.569858" style="fill: #b22222; stroke: #b22222"/>
     <use xlink:href="#mcd28c59698" x="250.325032" y="244.731041" style="fill: #b22222; stroke: #b22222"/>
     <use xlink:href="#mcd28c59698" x="263.569887" y="242.82153" style="fill: #b22222; stroke: #b22222"/>
     <use xlink:href="#mcd28c59698" x="272.084445" y="241.559698" style="fill: #b22222; stroke: #b22222"/>
     <use xlink:href="#mcd28c59698" x="279.463473" y="177.199948" style="fill: #b22222; stroke: #b22222"/>
     <use xlink:href="#mcd28c59698" x="275.274963" y="237.511557" style="fill: #b22222; stroke: #b22222"/>
     <use xlink:href="#mcd28c59698" x="304.763603" y="240.41543" style="fill: #b22222; stroke: #b22222"/>
     <use xlink:href="#mcd28c59698" x="298.862896" y="242.249821" style="fill: #b22222; stroke: #b22222"/>
     <use xlink:href="#mcd28c59698" x="299.414406" y="237.408611" style="fill: #b22222; stroke: #b22222"/>
     <use xlink:href="#mcd28c59698" x="292.3393" y="233.875512" style="fill: #b22222; stroke: #b22222"/>
     <use xlink:href="#mcd28c59698" x="255.80776" y="227.530509" style="fill: #b22222; stroke: #b22222"/>
     <use xlink:href="#mcd28c59698" x="255.326024" y="195.082052" style="fill: #b22222; stroke: #b22222"/>
     <use xlink:href="#mcd28c59698" x="282.784822" y="239.319589" style="fill: #b22222; stroke: #b22222"/>
     <use xlink:href="#mcd28c59698" x="255.272184" y="238.962441" style="fill: #b22222; stroke: #b22222"/>
     <use xlink:href="#mcd28c59698" x="248.161115" y="180.660049" style="fill: #b22222; stroke: #b22222"/>
     <use xlink:href="#mcd28c59698" x="265.058376" y="241.98708" style="fill: #b22222; stroke: #b22222"/>
     <use xlink:href="#mcd28c59698" x="312.286506" y="134.513676" style="fill: #b22222; stroke: #b22222"/>
     <use xlink:href="#mcd28c59698" x="243.745358" y="246.632803" style="fill: #b22222; stroke: #b22222"/>
     <use xlink:href="#mcd28c59698" x="296.300705" y="196.356675" style="fill: #b22222; stroke: #b22222"/>
     <use xlink:href="#mcd28c59698" x="284.342536" y="209.95324" style="fill: #b22222; stroke: #b22222"/>
     <use xlink:href="#mcd28c59698" x="255.409379" y="245.081359" style="fill: #b22222; stroke: #b22222"/>
     <use xlink:href="#mcd28c59698" x="274.565531" y="245.359821" style="fill: #b22222; stroke: #b22222"/>
     <use xlink:href="#mcd28c59698" x="258.192078" y="244.348371" style="fill: #b22222; stroke: #b22222"/>
     <use xlink:href="#mcd28c59698" x="253.815942" y="239.216452" style="fill: #b22222; stroke: #b22222"/>
     <use xlink:href="#mcd28c59698" x="273.807365" y="234.755314" style="fill: #b22222; stroke: #b22222"/>
     <use xlink:href="#mcd28c59698" x="249.778583" y="238.907194" style="fill: #b22222; stroke: #b22222"/>
     <use xlink:href="#mcd28c59698" x="266.758707" y="219.213526" style="fill: #b22222; stroke: #b22222"/>
     <use xlink:href="#mcd28c59698" x="293.920937" y="241.154321" style="fill: #b22222; stroke: #b22222"/>
     <use xlink:href="#mcd28c59698" x="275.378783" y="189.497778" style="fill: #b22222; stroke: #b22222"/>
     <use xlink:href="#mcd28c59698" x="249.904429" y="227.980144" style="fill: #b22222; stroke: #b22222"/>
     <use xlink:href="#mcd28c59698" x="258.944225" y="234.752502" style="fill: #b22222; stroke: #b22222"/>
     <use xlink:href="#mcd28c59698" x="325.85391" y="213.592564" style="fill: #b22222; stroke: #b22222"/>
     <use xlink:href="#mcd28c59698" x="305.29118" y="219.498853" style="fill: #b22222; stroke: #b22222"/>
     <use xlink:href="#mcd28c59698" x="288.671375" y="244.254984" style="fill: #b22222; stroke: #b22222"/>
     <use xlink:href="#mcd28c59698" x="273.522503" y="230.295663" style="fill: #b22222; stroke: #b22222"/>
     <use xlink:href="#mcd28c59698" x="249.439703" y="244.040296" style="fill: #b22222; stroke: #b22222"/>
     <use xlink:href="#mcd28c59698" x="327.205615" y="210.147043" style="fill: #b22222; stroke: #b22222"/>
     <use xlink:href="#mcd28c59698" x="307.344621" y="184.528813" style="fill: #b22222; stroke: #b22222"/>
     <use xlink:href="#mcd28c59698" x="236.65409" y="241.810022" style="fill: #b22222; stroke: #b22222"/>
     <use xlink:href="#mcd28c59698" x="260.31427" y="233.180011" style="fill: #b22222; stroke: #b22222"/>
     <use xlink:href="#mcd28c59698" x="265.313741" y="185.443654" style="fill: #b22222; stroke: #b22222"/>
     <use xlink:href="#mcd28c59698" x="287.465142" y="238.0607" style="fill: #b22222; stroke: #b22222"/>
     <use xlink:href="#mcd28c59698" x="292.569825" y="214.106195" style="fill: #b22222; stroke: #b22222"/>
     <use xlink:href="#mcd28c59698" x="260.95904" y="234.546022" style="fill: #b22222; stroke: #b22222"/>
     <use xlink:href="#mcd28c59698" x="272.127403" y="235.115583" style="fill: #b22222; stroke: #b22222"/>
     <use xlink:href="#mcd28c59698" x="270.271148" y="249.990692" style="fill: #b22222; stroke: #b22222"/>
     <use xlink:href="#mcd28c59698" x="242.091162" y="237.599128" style="fill: #b22222; stroke: #b22222"/>
     <use xlink:href="#mcd28c59698" x="240.998147" y="182.593888" style="fill: #b22222; stroke: #b22222"/>
     <use xlink:href="#mcd28c59698" x="268.458841" y="222.45267" style="fill: #b22222; stroke: #b22222"/>
     <use xlink:href="#mcd28c59698" x="254.973129" y="245.060014" style="fill: #b22222; stroke: #b22222"/>
     <use xlink:href="#mcd28c59698" x="271.071881" y="218.382039" style="fill: #b22222; stroke: #b22222"/>
     <use xlink:href="#mcd28c59698" x="247.437501" y="243.216538" style="fill: #b22222; stroke: #b22222"/>
     <use xlink:href="#mcd28c59698" x="270.683472" y="189.068988" style="fill: #b22222; stroke: #b22222"/>
     <use xlink:href="#mcd28c59698" x="250.045577" y="230.769573" style="fill: #b22222; stroke: #b22222"/>
     <use xlink:href="#mcd28c59698" x="260.186575" y="185.507455" style="fill: #b22222; stroke: #b22222"/>
     <use xlink:href="#mcd28c59698" x="252.024004" y="237.701521" style="fill: #b22222; stroke: #b22222"/>
     <use xlink:href="#mcd28c59698" x="262.226605" y="218.939197" style="fill: #b22222; stroke: #b22222"/>
     <use xlink:href="#mcd28c59698" x="240.085617" y="251.717218" style="fill: #b22222; stroke: #b22222"/>
     <use xlink:href="#mcd28c59698" x="284.407123" y="190.675157" style="fill: #b22222; stroke: #b22222"/>
     <use xlink:href="#mcd28c59698" x="264.83671" y="188.231974" style="fill: #b22222; stroke: #b22222"/>
     <use xlink:href="#mcd28c59698" x="309.696307" y="247.029686" style="fill: #b22222; stroke: #b22222"/>
     <use xlink:href="#mcd28c59698" x="293.843214" y="246.673242" style="fill: #b22222; stroke: #b22222"/>
     <use xlink:href="#mcd28c59698" x="255.338036" y="183.757386" style="fill: #b22222; stroke: #b22222"/>
     <use xlink:href="#mcd28c59698" x="272.231687" y="193.55751" style="fill: #b22222; stroke: #b22222"/>
     <use xlink:href="#mcd28c59698" x="278.875204" y="239.336653" style="fill: #b22222; stroke: #b22222"/>
     <use xlink:href="#mcd28c59698" x="295.28972" y="182.505527" style="fill: #b22222; stroke: #b22222"/>
     <use xlink:href="#mcd28c59698" x="283.421852" y="233.684937" style="fill: #b22222; stroke: #b22222"/>
    </g>
   </g>
   <g id="patch_4">
    <path d="M 56.450156 450.72 
L 56.450156 7.2 
" style="fill: none; stroke: #ffffff; stroke-width: 1.25; stroke-linejoin: miter; stroke-linecap: square"/>
   </g>
   <g id="patch_5">
    <path d="M 499.970156 450.72 
L 499.970156 7.2 
" style="fill: none; stroke: #ffffff; stroke-width: 1.25; stroke-linejoin: miter; stroke-linecap: square"/>
   </g>
   <g id="patch_6">
    <path d="M 56.450156 450.72 
L 499.970156 450.72 
" style="fill: none; stroke: #ffffff; stroke-width: 1.25; stroke-linejoin: miter; stroke-linecap: square"/>
   </g>
   <g id="patch_7">
    <path d="M 56.450156 7.2 
L 499.970156 7.2 
" style="fill: none; stroke: #ffffff; stroke-width: 1.25; stroke-linejoin: miter; stroke-linecap: square"/>
   </g>
   <g id="text_13">
    <!-- t = 100 -->
    <g style="fill: #262626" transform="translate(65.320556 24.659775) scale(0.12 -0.12)">
     <defs>
      <path id="ArialMT-74" d="M 1650 503 
L 1731 6 
Q 1494 -44 1306 -44 
Q 1000 -44 831 53 
Q 663 150 594 308 
Q 525 466 525 972 
L 525 2881 
L 113 2881 
L 113 3319 
L 525 3319 
L 525 4141 
L 1084 4478 
L 1084 3319 
L 1650 3319 
L 1650 2881 
L 1084 2881 
L 1084 941 
Q 1084 700 1114 631 
Q 1144 563 1211 522 
Q 1278 481 1403 481 
Q 1497 481 1650 503 
z
" transform="scale(0.015625)"/>
      <path id="ArialMT-20" transform="scale(0.015625)"/>
      <path id="ArialMT-3d" d="M 3381 2694 
L 356 2694 
L 356 3219 
L 3381 3219 
L 3381 2694 
z
M 3381 1303 
L 356 1303 
L 356 1828 
L 3381 1828 
L 3381 1303 
z
" transform="scale(0.015625)"/>
      <path id="ArialMT-31" d="M 2384 0 
L 1822 0 
L 1822 3584 
Q 1619 3391 1289 3197 
Q 959 3003 697 2906 
L 697 3450 
Q 1169 3672 1522 3987 
Q 1875 4303 2022 4600 
L 2384 4600 
L 2384 0 
z
" transform="scale(0.015625)"/>
     </defs>
     <use xlink:href="#ArialMT-74"/>
     <use xlink:href="#ArialMT-20" x="27.783203"/>
     <use xlink:href="#ArialMT-3d" x="55.566406"/>
     <use xlink:href="#ArialMT-20" x="113.964844"/>
     <use xlink:href="#ArialMT-31" x="141.748047"/>
     <use xlink:href="#ArialMT-30" x="197.363281"/>
     <use xlink:href="#ArialMT-30" x="252.978516"/>
    </g>
   </g>
   <g id="legend_1">
    <g id="patch_8">
     <path d="M 328.111406 94.59 
L 483.170156 94.59 
Q 487.970156 94.59 487.970156 89.79 
L 487.970156 24 
Q 487.970156 19.2 483.170156 19.2 
L 328.111406 19.2 
Q 323.311406 19.2 323.311406 24 
L 323.311406 89.79 
Q 323.311406 94.59 328.111406 94.59 
z
" style="fill: #eaeaf2; opacity: 0.8; stroke: #cccccc; stroke-linejoin: miter"/>
    </g>
    <g id="PathCollection_3">
     <g>
      <use xlink:href="#m8166176ea5" x="356.911406" y="39.97125" style="fill: #4169e1; stroke: #4169e1"/>
     </g>
    </g>
    <g id="text_14">
     <!-- Sheep -->
     <g style="fill: #262626" transform="translate(400.111406 46.27125) scale(0.24 -0.24)">
      <defs>
       <path id="ArialMT-53" d="M 288 1472 
L 859 1522 
Q 900 1178 1048 958 
Q 1197 738 1509 602 
Q 1822 466 2213 466 
Q 2559 466 2825 569 
Q 3091 672 3220 851 
Q 3350 1031 3350 1244 
Q 3350 1459 3225 1620 
Q 3100 1781 2813 1891 
Q 2628 1963 1997 2114 
Q 1366 2266 1113 2400 
Q 784 2572 623 2826 
Q 463 3081 463 3397 
Q 463 3744 659 4045 
Q 856 4347 1234 4503 
Q 1613 4659 2075 4659 
Q 2584 4659 2973 4495 
Q 3363 4331 3572 4012 
Q 3781 3694 3797 3291 
L 3216 3247 
Q 3169 3681 2898 3903 
Q 2628 4125 2100 4125 
Q 1550 4125 1298 3923 
Q 1047 3722 1047 3438 
Q 1047 3191 1225 3031 
Q 1400 2872 2139 2705 
Q 2878 2538 3153 2413 
Q 3553 2228 3743 1945 
Q 3934 1663 3934 1294 
Q 3934 928 3725 604 
Q 3516 281 3123 101 
Q 2731 -78 2241 -78 
Q 1619 -78 1198 103 
Q 778 284 539 648 
Q 300 1013 288 1472 
z
" transform="scale(0.015625)"/>
       <path id="ArialMT-68" d="M 422 0 
L 422 4581 
L 984 4581 
L 984 2938 
Q 1378 3394 1978 3394 
Q 2347 3394 2619 3248 
Q 2891 3103 3008 2847 
Q 3125 2591 3125 2103 
L 3125 0 
L 2563 0 
L 2563 2103 
Q 2563 2525 2380 2717 
Q 2197 2909 1863 2909 
Q 1613 2909 1392 2779 
Q 1172 2650 1078 2428 
Q 984 2206 984 1816 
L 984 0 
L 422 0 
z
" transform="scale(0.015625)"/>
       <path id="ArialMT-65" d="M 2694 1069 
L 3275 997 
Q 3138 488 2766 206 
Q 2394 -75 1816 -75 
Q 1088 -75 661 373 
Q 234 822 234 1631 
Q 234 2469 665 2931 
Q 1097 3394 1784 3394 
Q 2450 3394 2872 2941 
Q 3294 2488 3294 1666 
Q 3294 1616 3291 1516 
L 816 1516 
Q 847 969 1125 678 
Q 1403 388 1819 388 
Q 2128 388 2347 550 
Q 2566 713 2694 1069 
z
M 847 1978 
L 2700 1978 
Q 2663 2397 2488 2606 
Q 2219 2931 1791 2931 
Q 1403 2931 1139 2672 
Q 875 2413 847 1978 
z
" transform="scale(0.015625)"/>
       <path id="ArialMT-70" d="M 422 -1272 
L 422 3319 
L 934 3319 
L 934 2888 
Q 1116 3141 1344 3267 
Q 1572 3394 1897 3394 
Q 2322 3394 2647 3175 
Q 2972 2956 3137 2557 
Q 3303 2159 3303 1684 
Q 3303 1175 3120 767 
Q 2938 359 2589 142 
Q 2241 -75 1856 -75 
Q 1575 -75 1351 44 
Q 1128 163 984 344 
L 984 -1272 
L 422 -1272 
z
M 931 1641 
Q 931 1000 1190 694 
Q 1450 388 1819 388 
Q 2194 388 2461 705 
Q 2728 1022 2728 1688 
Q 2728 2322 2467 2637 
Q 2206 2953 1844 2953 
Q 1484 2953 1207 2617 
Q 931 2281 931 1641 
z
" transform="scale(0.015625)"/>
      </defs>
      <use xlink:href="#ArialMT-53"/>
      <use xlink:href="#ArialMT-68" x="66.699219"/>
      <use xlink:href="#ArialMT-65" x="122.314453"/>
      <use xlink:href="#ArialMT-65" x="177.929688"/>
      <use xlink:href="#ArialMT-70" x="233.544922"/>
     </g>
    </g>
    <g id="PathCollection_4">
     <g>
      <use xlink:href="#mcd28c59698" x="356.911406" y="73.92" style="fill: #b22222; stroke: #b22222"/>
     </g>
    </g>
    <g id="text_15">
     <!-- Wolves -->
     <g style="fill: #262626" transform="translate(400.111406 80.22) scale(0.24 -0.24)">
      <defs>
       <path id="ArialMT-57" d="M 1294 0 
L 78 4581 
L 700 4581 
L 1397 1578 
Q 1509 1106 1591 641 
Q 1766 1375 1797 1488 
L 2669 4581 
L 3400 4581 
L 4056 2263 
Q 4303 1400 4413 641 
Q 4500 1075 4641 1638 
L 5359 4581 
L 5969 4581 
L 4713 0 
L 4128 0 
L 3163 3491 
Q 3041 3928 3019 4028 
Q 2947 3713 2884 3491 
L 1913 0 
L 1294 0 
z
" transform="scale(0.015625)"/>
       <path id="ArialMT-6f" d="M 213 1659 
Q 213 2581 725 3025 
Q 1153 3394 1769 3394 
Q 2453 3394 2887 2945 
Q 3322 2497 3322 1706 
Q 3322 1066 3130 698 
Q 2938 331 2570 128 
Q 2203 -75 1769 -75 
Q 1072 -75 642 372 
Q 213 819 213 1659 
z
M 791 1659 
Q 791 1022 1069 705 
Q 1347 388 1769 388 
Q 2188 388 2466 706 
Q 2744 1025 2744 1678 
Q 2744 2294 2464 2611 
Q 2184 2928 1769 2928 
Q 1347 2928 1069 2612 
Q 791 2297 791 1659 
z
" transform="scale(0.015625)"/>
       <path id="ArialMT-6c" d="M 409 0 
L 409 4581 
L 972 4581 
L 972 0 
L 409 0 
z
" transform="scale(0.015625)"/>
       <path id="ArialMT-76" d="M 1344 0 
L 81 3319 
L 675 3319 
L 1388 1331 
Q 1503 1009 1600 663 
Q 1675 925 1809 1294 
L 2547 3319 
L 3125 3319 
L 1869 0 
L 1344 0 
z
" transform="scale(0.015625)"/>
       <path id="ArialMT-73" d="M 197 991 
L 753 1078 
Q 800 744 1014 566 
Q 1228 388 1613 388 
Q 2000 388 2187 545 
Q 2375 703 2375 916 
Q 2375 1106 2209 1216 
Q 2094 1291 1634 1406 
Q 1016 1563 777 1677 
Q 538 1791 414 1992 
Q 291 2194 291 2438 
Q 291 2659 392 2848 
Q 494 3038 669 3163 
Q 800 3259 1026 3326 
Q 1253 3394 1513 3394 
Q 1903 3394 2198 3281 
Q 2494 3169 2634 2976 
Q 2775 2784 2828 2463 
L 2278 2388 
Q 2241 2644 2061 2787 
Q 1881 2931 1553 2931 
Q 1166 2931 1000 2803 
Q 834 2675 834 2503 
Q 834 2394 903 2306 
Q 972 2216 1119 2156 
Q 1203 2125 1616 2013 
Q 2213 1853 2448 1751 
Q 2684 1650 2818 1456 
Q 2953 1263 2953 975 
Q 2953 694 2789 445 
Q 2625 197 2315 61 
Q 2006 -75 1616 -75 
Q 969 -75 630 194 
Q 291 463 197 991 
z
" transform="scale(0.015625)"/>
      </defs>
      <use xlink:href="#ArialMT-57"/>
      <use xlink:href="#ArialMT-6f" x="92.634766"/>
      <use xlink:href="#ArialMT-6c" x="148.25"/>
      <use xlink:href="#ArialMT-76" x="170.466797"/>
      <use xlink:href="#ArialMT-65" x="220.466797"/>
      <use xlink:href="#ArialMT-73" x="276.082031"/>
     </g>
    </g>
   </g>
  </g>
 </g>
 <defs>
  <clipPath id="pafe036485d">
   <rect x="56.450156" y="7.2" width="443.52" height="443.52"/>
  </clipPath>
 </defs>
</svg>
