<?xml version="1.0" encoding="utf-8" standalone="no"?>
<!DOCTYPE svg PUBLIC "-//W3C//DTD SVG 1.1//EN"
  "http://www.w3.org/Graphics/SVG/1.1/DTD/svg11.dtd">
<svg xmlns:xlink="http://www.w3.org/1999/xlink" width="507.170156pt" height="492.454219pt" viewBox="0 0 507.170156 492.454219" xmlns="http://www.w3.org/2000/svg" version="1.1">
 <metadata>
  <rdf:RDF xmlns:dc="http://purl.org/dc/elements/1.1/" xmlns:cc="http://creativecommons.org/ns#" xmlns:rdf="http://www.w3.org/1999/02/22-rdf-syntax-ns#">
   <cc:Work>
    <dc:type rdf:resource="http://purl.org/dc/dcmitype/StillImage"/>
    <dc:date>2026-05-12T10:43:21.612373</dc:date>
    <dc:format>image/svg+xml</dc:format>
    <dc:creator>
     <cc:Agent>
      <dc:title>Matplotlib v3.7.1, https://matplotlib.org/</dc:title>
     </cc:Agent>
    </dc:creator>
   </cc:Work>
  </rdf:RDF>
 </metadata>
 <defs>
  <style type="text/css">*{stroke-linejoin: round; stroke-linecap: butt}</style>
 </defs>
 <g id="figure_1">
  <g id="patch_1">
   <path d="M 0 492.454219 
L 507.170156 492.454219 
L 507.170156 0 
L 0 0 
z
" style="fill: #ffffff"/>
  </g>
  <g id="axes_1">
   <g id="patch_2">
    <path d="M 56.450156 450.72 
L 499.970156 450.72 
L 499.970156 7.2 
L 56.450156 7.2 
z
" style="fill: #eaeaf2"/>
   </g>
   <g id="matplotlib.axis_1">
    <g id="xtick_1">
     <g id="line2d_1">
      <path d="M 100.802156 450.72 
L 100.802156 7.2 
" clip-path="url(#pbabe8fdcb1)" style="fill: none; stroke: #ffffff; stroke-linecap: round"/>
     </g>
     <g id="text_1">
      <!-- −400 -->
      <g style="fill: #262626" transform="translate(88.414266 468.093594) scale(0.11 -0.11)">
       <defs>
        <path id="ArialMT-2212" d="M 3381 1997 
L 356 1997 
L 356 2522 
L 3381 2522 
L 3381 1997 
z
" transform="scale(0.015625)"/>
        <path id="ArialMT-34" d="M 2069 0 
L 2069 1097 
L 81 1097 
L 81 1613 
L 2172 4581 
L 2631 4581 
L 2631 1613 
L 3250 1613 
L 3250 1097 
L 2631 1097 
L 2631 0 
L 2069 0 
z
M 2069 1613 
L 2069 3678 
L 634 1613 
L 2069 1613 
z
" transform="scale(0.015625)"/>
        <path id="ArialMT-30" d="M 266 2259 
Q 266 3072 433 3567 
Q 600 4063 929 4331 
Q 1259 4600 1759 4600 
Q 2128 4600 2406 4451 
Q 2684 4303 2865 4023 
Q 3047 3744 3150 3342 
Q 3253 2941 3253 2259 
Q 3253 1453 3087 958 
Q 2922 463 2592 192 
Q 2263 -78 1759 -78 
Q 1097 -78 719 397 
Q 266 969 266 2259 
z
M 844 2259 
Q 844 1131 1108 757 
Q 1372 384 1759 384 
Q 2147 384 2411 759 
Q 2675 1134 2675 2259 
Q 2675 3391 2411 3762 
Q 2147 4134 1753 4134 
Q 1366 4134 1134 3806 
Q 844 3388 844 2259 
z
" transform="scale(0.015625)"/>
       </defs>
       <use xlink:href="#ArialMT-2212"/>
       <use xlink:href="#ArialMT-34" x="58.398438"/>
       <use xlink:href="#ArialMT-30" x="114.013672"/>
       <use xlink:href="#ArialMT-30" x="169.628906"/>
      </g>
     </g>
    </g>
    <g id="xtick_2">
     <g id="line2d_2">
      <path d="M 189.506156 450.72 
L 189.506156 7.2 
" clip-path="url(#pbabe8fdcb1)" style="fill: none; stroke: #ffffff; stroke-linecap: round"/>
     </g>
     <g id="text_2">
      <!-- −200 -->
      <g style="fill: #262626" transform="translate(177.118266 468.093594) scale(0.11 -0.11)">
       <defs>
        <path id="ArialMT-32" d="M 3222 541 
L 3222 0 
L 194 0 
Q 188 203 259 391 
Q 375 700 629 1000 
Q 884 1300 1366 1694 
Q 2113 2306 2375 2664 
Q 2638 3022 2638 3341 
Q 2638 3675 2398 3904 
Q 2159 4134 1775 4134 
Q 1369 4134 1125 3890 
Q 881 3647 878 3216 
L 300 3275 
Q 359 3922 746 4261 
Q 1134 4600 1788 4600 
Q 2447 4600 2831 4234 
Q 3216 3869 3216 3328 
Q 3216 3053 3103 2787 
Q 2991 2522 2730 2228 
Q 2469 1934 1863 1422 
Q 1356 997 1212 845 
Q 1069 694 975 541 
L 3222 541 
z
" transform="scale(0.015625)"/>
       </defs>
       <use xlink:href="#ArialMT-2212"/>
       <use xlink:href="#ArialMT-32" x="58.398438"/>
       <use xlink:href="#ArialMT-30" x="114.013672"/>
       <use xlink:href="#ArialMT-30" x="169.628906"/>
      </g>
     </g>
    </g>
    <g id="xtick_3">
     <g id="line2d_3">
      <path d="M 278.210156 450.72 
L 278.210156 7.2 
" clip-path="url(#pbabe8fdcb1)" style="fill: none; stroke: #ffffff; stroke-linecap: round"/>
     </g>
     <g id="text_3">
      <!-- 0 -->
      <g style="fill: #262626" transform="translate(275.151641 468.093594) scale(0.11 -0.11)">
       <use xlink:href="#ArialMT-30"/>
      </g>
     </g>
    </g>
    <g id="xtick_4">
     <g id="line2d_4">
      <path d="M 366.914156 450.72 
L 366.914156 7.2 
" clip-path="url(#pbabe8fdcb1)" style="fill: none; stroke: #ffffff; stroke-linecap: round"/>
     </g>
     <g id="text_4">
      <!-- 200 -->
      <g style="fill: #262626" transform="translate(357.738609 468.093594) scale(0.11 -0.11)">
       <use xlink:href="#ArialMT-32"/>
       <use xlink:href="#ArialMT-30" x="55.615234"/>
       <use xlink:href="#ArialMT-30" x="111.230469"/>
      </g>
     </g>
    </g>
    <g id="xtick_5">
     <g id="line2d_5">
      <path d="M 455.618156 450.72 
L 455.618156 7.2 
" clip-path="url(#pbabe8fdcb1)" style="fill: none; stroke: #ffffff; stroke-linecap: round"/>
     </g>
     <g id="text_5">
      <!-- 400 -->
      <g style="fill: #262626" transform="translate(446.442609 468.093594) scale(0.11 -0.11)">
       <use xlink:href="#ArialMT-34"/>
       <use xlink:href="#ArialMT-30" x="55.615234"/>
       <use xlink:href="#ArialMT-30" x="111.230469"/>
      </g>
     </g>
    </g>
    <g id="text_6">
     <!-- x -->
     <g style="fill: #262626" transform="translate(275.210156 482.869219) scale(0.12 -0.12)">
      <defs>
       <path id="ArialMT-78" d="M 47 0 
L 1259 1725 
L 138 3319 
L 841 3319 
L 1350 2541 
Q 1494 2319 1581 2169 
Q 1719 2375 1834 2534 
L 2394 3319 
L 3066 3319 
L 1919 1756 
L 3153 0 
L 2463 0 
L 1781 1031 
L 1600 1309 
L 728 0 
L 47 0 
z
" transform="scale(0.015625)"/>
      </defs>
      <use xlink:href="#ArialMT-78"/>
     </g>
    </g>
   </g>
   <g id="matplotlib.axis_2">
    <g id="ytick_1">
     <g id="line2d_6">
      <path d="M 56.450156 406.368 
L 499.970156 406.368 
" clip-path="url(#pbabe8fdcb1)" style="fill: none; stroke: #ffffff; stroke-linecap: round"/>
     </g>
     <g id="text_7">
      <!-- −400 -->
      <g style="fill: #262626" transform="translate(22.174375 410.304797) scale(0.11 -0.11)">
       <use xlink:href="#ArialMT-2212"/>
       <use xlink:href="#ArialMT-34" x="58.398438"/>
       <use xlink:href="#ArialMT-30" x="114.013672"/>
       <use xlink:href="#ArialMT-30" x="169.628906"/>
      </g>
     </g>
    </g>
    <g id="ytick_2">
     <g id="line2d_7">
      <path d="M 56.450156 317.664 
L 499.970156 317.664 
" clip-path="url(#pbabe8fdcb1)" style="fill: none; stroke: #ffffff; stroke-linecap: round"/>
     </g>
     <g id="text_8">
      <!-- −200 -->
      <g style="fill: #262626" transform="translate(22.174375 321.600797) scale(0.11 -0.11)">
       <use xlink:href="#ArialMT-2212"/>
       <use xlink:href="#ArialMT-32" x="58.398438"/>
       <use xlink:href="#ArialMT-30" x="114.013672"/>
       <use xlink:href="#ArialMT-30" x="169.628906"/>
      </g>
     </g>
    </g>
    <g id="ytick_3">
     <g id="line2d_8">
      <path d="M 56.450156 228.96 
L 499.970156 228.96 
" clip-path="url(#pbabe8fdcb1)" style="fill: none; stroke: #ffffff; stroke-linecap: round"/>
     </g>
     <g id="text_9">
      <!-- 0 -->
      <g style="fill: #262626" transform="translate(40.833125 232.896797) scale(0.11 -0.11)">
       <use xlink:href="#ArialMT-30"/>
      </g>
     </g>
    </g>
    <g id="ytick_4">
     <g id="line2d_9">
      <path d="M 56.450156 140.256 
L 499.970156 140.256 
" clip-path="url(#pbabe8fdcb1)" style="fill: none; stroke: #ffffff; stroke-linecap: round"/>
     </g>
     <g id="text_10">
      <!-- 200 -->
      <g style="fill: #262626" transform="translate(28.599063 144.192797) scale(0.11 -0.11)">
       <use xlink:href="#ArialMT-32"/>
       <use xlink:href="#ArialMT-30" x="55.615234"/>
       <use xlink:href="#ArialMT-30" x="111.230469"/>
      </g>
     </g>
    </g>
    <g id="ytick_5">
     <g id="line2d_10">
      <path d="M 56.450156 51.552 
L 499.970156 51.552 
" clip-path="url(#pbabe8fdcb1)" style="fill: none; stroke: #ffffff; stroke-linecap: round"/>
     </g>
     <g id="text_11">
      <!-- 400 -->
      <g style="fill: #262626" transform="translate(28.599063 55.488797) scale(0.11 -0.11)">
       <use xlink:href="#ArialMT-34"/>
       <use xlink:href="#ArialMT-30" x="55.615234"/>
       <use xlink:href="#ArialMT-30" x="111.230469"/>
      </g>
     </g>
    </g>
    <g id="text_12">
     <!-- y -->
     <g style="fill: #262626" transform="translate(15.64875 231.96) rotate(-90) scale(0.12 -0.12)">
      <defs>
       <path id="ArialMT-79" d="M 397 -1278 
L 334 -750 
Q 519 -800 656 -800 
Q 844 -800 956 -737 
Q 1069 -675 1141 -563 
Q 1194 -478 1313 -144 
Q 1328 -97 1363 -6 
L 103 3319 
L 709 3319 
L 1400 1397 
Q 1534 1031 1641 628 
Q 1738 1016 1872 1384 
L 2581 3319 
L 3144 3319 
L 1881 -56 
Q 1678 -603 1566 -809 
Q 1416 -1088 1222 -1217 
Q 1028 -1347 759 -1347 
Q 597 -1347 397 -1278 
z
" transform="scale(0.015625)"/>
      </defs>
      <use xlink:href="#ArialMT-79"/>
     </g>
    </g>
   </g>
   <g id="patch_3">
    <path d="M 278.210156 317.664 
C 301.734732 317.664 324.298969 308.317587 340.933356 291.6832 
C 357.567743 275.048813 366.914156 252.484576 366.914156 228.96 
C 366.914156 205.435424 357.567743 182.871187 340.933356 166.2368 
C 324.298969 149.602413 301.734732 140.256 278.210156 140.256 
C 254.68558 140.256 232.121343 149.602413 215.486956 166.2368 
C 198.852569 182.871187 189.506156 205.435424 189.506156 228.96 
C 189.506156 252.484576 198.852569 275.048813 215.486956 291.6832 
C 232.121343 308.317587 254.68558 317.664 278.210156 317.664 
z
" clip-path="url(#pbabe8fdcb1)" style="fill: #228b22; opacity: 0.12; stroke: #228b22; stroke-width: 1.5; stroke-linejoin: miter"/>
   </g>
   <g id="PathCollection_1">
    <defs>
     <path id="mc0ba0282f1" d="M 0 2.236068 
C 0.593012 2.236068 1.161816 2.000462 1.581139 1.581139 
C 2.000462 1.161816 2.236068 0.593012 2.236068 0 
C 2.236068 -0.593012 2.000462 -1.161816 1.581139 -1.581139 
C 1.161816 -2.000462 0.593012 -2.236068 0 -2.236068 
C -0.593012 -2.236068 -1.161816 -2.000462 -1.581139 -1.581139 
C -2.000462 -1.161816 -2.236068 -0.593012 -2.236068 0 
C -2.236068 0.593012 -2.000462 1.161816 -1.581139 1.581139 
C -1.161816 2.000462 -0.593012 2.236068 0 2.236068 
z
" style="stroke: #4169e1"/>
    </defs>
    <g clip-path="url(#pbabe8fdcb1)">
     <use xlink:href="#mc0ba0282f1" x="408.70295" y="148.852279" style="fill: #4169e1; stroke: #4169e1"/>
     <use xlink:href="#mc0ba0282f1" x="278.246928" y="98.228325" style="fill: #4169e1; stroke: #4169e1"/>
     <use xlink:href="#mc0ba0282f1" x="363.192855" y="126.129933" style="fill: #4169e1; stroke: #4169e1"/>
     <use xlink:href="#mc0ba0282f1" x="308.286664" y="168.347845" style="fill: #4169e1; stroke: #4169e1"/>
     <use xlink:href="#mc0ba0282f1" x="499.784901" y="183.570145" style="fill: #4169e1; stroke: #4169e1"/>
     <use xlink:href="#mc0ba0282f1" x="293.896746" y="327.404433" style="fill: #4169e1; stroke: #4169e1"/>
     <use xlink:href="#mc0ba0282f1" x="247.182756" y="325.221909" style="fill: #4169e1; stroke: #4169e1"/>
     <use xlink:href="#mc0ba0282f1" x="408.147765" y="167.179693" style="fill: #4169e1; stroke: #4169e1"/>
     <use xlink:href="#mc0ba0282f1" x="329.491527" y="213.543697" style="fill: #4169e1; stroke: #4169e1"/>
     <use xlink:href="#mc0ba0282f1" x="265.215713" y="112.904955" style="fill: #4169e1; stroke: #4169e1"/>
     <use xlink:href="#mc0ba0282f1" x="289.876788" y="281.750219" style="fill: #4169e1; stroke: #4169e1"/>
     <use xlink:href="#mc0ba0282f1" x="410.391704" y="239.654201" style="fill: #4169e1; stroke: #4169e1"/>
     <use xlink:href="#mc0ba0282f1" x="488.136775" y="164.12317" style="fill: #4169e1; stroke: #4169e1"/>
     <use xlink:href="#mc0ba0282f1" x="408.435508" y="197.288401" style="fill: #4169e1; stroke: #4169e1"/>
     <use xlink:href="#mc0ba0282f1" x="333.775837" y="211.224702" style="fill: #4169e1; stroke: #4169e1"/>
     <use xlink:href="#mc0ba0282f1" x="390.711059" y="166.994958" style="fill: #4169e1; stroke: #4169e1"/>
     <use xlink:href="#mc0ba0282f1" x="255.364623" y="204.117963" style="fill: #4169e1; stroke: #4169e1"/>
     <use xlink:href="#mc0ba0282f1" x="460.115794" y="115.422352" style="fill: #4169e1; stroke: #4169e1"/>
     <use xlink:href="#mc0ba0282f1" x="293.426068" y="137.256542" style="fill: #4169e1; stroke: #4169e1"/>
     <use xlink:href="#mc0ba0282f1" x="330.690285" y="229.118399" style="fill: #4169e1; stroke: #4169e1"/>
     <use xlink:href="#mc0ba0282f1" x="235.943792" y="193.476265" style="fill: #4169e1; stroke: #4169e1"/>
     <use xlink:href="#mc0ba0282f1" x="230.297432" y="228.304129" style="fill: #4169e1; stroke: #4169e1"/>
     <use xlink:href="#mc0ba0282f1" x="435.095773" y="163.405279" style="fill: #4169e1; stroke: #4169e1"/>
     <use xlink:href="#mc0ba0282f1" x="256.171673" y="254.895596" style="fill: #4169e1; stroke: #4169e1"/>
     <use xlink:href="#mc0ba0282f1" x="270.641508" y="134.667172" style="fill: #4169e1; stroke: #4169e1"/>
     <use xlink:href="#mc0ba0282f1" x="281.33614" y="189.090157" style="fill: #4169e1; stroke: #4169e1"/>
     <use xlink:href="#mc0ba0282f1" x="322.544808" y="213.743518" style="fill: #4169e1; stroke: #4169e1"/>
     <use xlink:href="#mc0ba0282f1" x="304.251851" y="309.310623" style="fill: #4169e1; stroke: #4169e1"/>
     <use xlink:href="#mc0ba0282f1" x="279.918567" y="276.432693" style="fill: #4169e1; stroke: #4169e1"/>
     <use xlink:href="#mc0ba0282f1" x="418.596905" y="192.28242" style="fill: #4169e1; stroke: #4169e1"/>
     <use xlink:href="#mc0ba0282f1" x="423.444494" y="157.062759" style="fill: #4169e1; stroke: #4169e1"/>
     <use xlink:href="#mc0ba0282f1" x="373.860074" y="170.692167" style="fill: #4169e1; stroke: #4169e1"/>
     <use xlink:href="#mc0ba0282f1" x="261.821347" y="159.019273" style="fill: #4169e1; stroke: #4169e1"/>
     <use xlink:href="#mc0ba0282f1" x="363.494181" y="166.139455" style="fill: #4169e1; stroke: #4169e1"/>
     <use xlink:href="#mc0ba0282f1" x="281.624805" y="184.041916" style="fill: #4169e1; stroke: #4169e1"/>
     <use xlink:href="#mc0ba0282f1" x="369.136027" y="225.682649" style="fill: #4169e1; stroke: #4169e1"/>
     <use xlink:href="#mc0ba0282f1" x="418.807783" y="88.885358" style="fill: #4169e1; stroke: #4169e1"/>
     <use xlink:href="#mc0ba0282f1" x="399.937934" y="98.166564" style="fill: #4169e1; stroke: #4169e1"/>
     <use xlink:href="#mc0ba0282f1" x="316.034421" y="128.751503" style="fill: #4169e1; stroke: #4169e1"/>
     <use xlink:href="#mc0ba0282f1" x="333.607724" y="331.120503" style="fill: #4169e1; stroke: #4169e1"/>
     <use xlink:href="#mc0ba0282f1" x="350.158939" y="76.642755" style="fill: #4169e1; stroke: #4169e1"/>
     <use xlink:href="#mc0ba0282f1" x="367.135422" y="246.63621" style="fill: #4169e1; stroke: #4169e1"/>
     <use xlink:href="#mc0ba0282f1" x="212.06868" y="201.759885" style="fill: #4169e1; stroke: #4169e1"/>
     <use xlink:href="#mc0ba0282f1" x="205.750124" y="229.245945" style="fill: #4169e1; stroke: #4169e1"/>
     <use xlink:href="#mc0ba0282f1" x="230.179013" y="214.040218" style="fill: #4169e1; stroke: #4169e1"/>
     <use xlink:href="#mc0ba0282f1" x="381.894596" y="293.520638" style="fill: #4169e1; stroke: #4169e1"/>
     <use xlink:href="#mc0ba0282f1" x="446.078294" y="112.978518" style="fill: #4169e1; stroke: #4169e1"/>
     <use xlink:href="#mc0ba0282f1" x="432.303471" y="127.26292" style="fill: #4169e1; stroke: #4169e1"/>
     <use xlink:href="#mc0ba0282f1" x="335.190904" y="163.302392" style="fill: #4169e1; stroke: #4169e1"/>
     <use xlink:href="#mc0ba0282f1" x="354.551212" y="185.76978" style="fill: #4169e1; stroke: #4169e1"/>
     <use xlink:href="#mc0ba0282f1" x="347.596463" y="239.579003" style="fill: #4169e1; stroke: #4169e1"/>
     <use xlink:href="#mc0ba0282f1" x="375.9623" y="264.936686" style="fill: #4169e1; stroke: #4169e1"/>
     <use xlink:href="#mc0ba0282f1" x="409.180037" y="102.669182" style="fill: #4169e1; stroke: #4169e1"/>
     <use xlink:href="#mc0ba0282f1" x="423.922434" y="303.177417" style="fill: #4169e1; stroke: #4169e1"/>
     <use xlink:href="#mc0ba0282f1" x="317.439424" y="150.805429" style="fill: #4169e1; stroke: #4169e1"/>
     <use xlink:href="#mc0ba0282f1" x="390.745925" y="206.309564" style="fill: #4169e1; stroke: #4169e1"/>
     <use xlink:href="#mc0ba0282f1" x="349.127702" y="267.151944" style="fill: #4169e1; stroke: #4169e1"/>
     <use xlink:href="#mc0ba0282f1" x="366.640509" y="180.47926" style="fill: #4169e1; stroke: #4169e1"/>
     <use xlink:href="#mc0ba0282f1" x="293.900361" y="219.113955" style="fill: #4169e1; stroke: #4169e1"/>
     <use xlink:href="#mc0ba0282f1" x="229.455928" y="108.890942" style="fill: #4169e1; stroke: #4169e1"/>
     <use xlink:href="#mc0ba0282f1" x="232.255817" y="189.966281" style="fill: #4169e1; stroke: #4169e1"/>
     <use xlink:href="#mc0ba0282f1" x="302.756538" y="217.737422" style="fill: #4169e1; stroke: #4169e1"/>
     <use xlink:href="#mc0ba0282f1" x="169.996359" y="158.968083" style="fill: #4169e1; stroke: #4169e1"/>
     <use xlink:href="#mc0ba0282f1" x="393.491938" y="193.520697" style="fill: #4169e1; stroke: #4169e1"/>
     <use xlink:href="#mc0ba0282f1" x="330.769652" y="196.872604" style="fill: #4169e1; stroke: #4169e1"/>
     <use xlink:href="#mc0ba0282f1" x="361.914662" y="125.940772" style="fill: #4169e1; stroke: #4169e1"/>
     <use xlink:href="#mc0ba0282f1" x="298.374499" y="173.574391" style="fill: #4169e1; stroke: #4169e1"/>
     <use xlink:href="#mc0ba0282f1" x="372.537134" y="101.73121" style="fill: #4169e1; stroke: #4169e1"/>
     <use xlink:href="#mc0ba0282f1" x="439.688238" y="178.693458" style="fill: #4169e1; stroke: #4169e1"/>
     <use xlink:href="#mc0ba0282f1" x="219.934832" y="122.172456" style="fill: #4169e1; stroke: #4169e1"/>
     <use xlink:href="#mc0ba0282f1" x="252.094285" y="157.636223" style="fill: #4169e1; stroke: #4169e1"/>
     <use xlink:href="#mc0ba0282f1" x="323.472761" y="112.989996" style="fill: #4169e1; stroke: #4169e1"/>
     <use xlink:href="#mc0ba0282f1" x="206.422395" y="181.969913" style="fill: #4169e1; stroke: #4169e1"/>
     <use xlink:href="#mc0ba0282f1" x="369.122024" y="89.572308" style="fill: #4169e1; stroke: #4169e1"/>
     <use xlink:href="#mc0ba0282f1" x="270.77285" y="305.461096" style="fill: #4169e1; stroke: #4169e1"/>
     <use xlink:href="#mc0ba0282f1" x="291.654648" y="151.525493" style="fill: #4169e1; stroke: #4169e1"/>
     <use xlink:href="#mc0ba0282f1" x="417.561858" y="239.923118" style="fill: #4169e1; stroke: #4169e1"/>
     <use xlink:href="#mc0ba0282f1" x="201.785169" y="247.865079" style="fill: #4169e1; stroke: #4169e1"/>
     <use xlink:href="#mc0ba0282f1" x="413.797055" y="263.481673" style="fill: #4169e1; stroke: #4169e1"/>
     <use xlink:href="#mc0ba0282f1" x="203.337888" y="239.307124" style="fill: #4169e1; stroke: #4169e1"/>
     <use xlink:href="#mc0ba0282f1" x="302.492445" y="251.973865" style="fill: #4169e1; stroke: #4169e1"/>
     <use xlink:href="#mc0ba0282f1" x="230.467887" y="311.788416" style="fill: #4169e1; stroke: #4169e1"/>
     <use xlink:href="#mc0ba0282f1" x="305.039768" y="71.078317" style="fill: #4169e1; stroke: #4169e1"/>
     <use xlink:href="#mc0ba0282f1" x="259.28993" y="243.635397" style="fill: #4169e1; stroke: #4169e1"/>
     <use xlink:href="#mc0ba0282f1" x="320.267846" y="219.10205" style="fill: #4169e1; stroke: #4169e1"/>
     <use xlink:href="#mc0ba0282f1" x="458.626791" y="141.538334" style="fill: #4169e1; stroke: #4169e1"/>
     <use xlink:href="#mc0ba0282f1" x="206.640229" y="126.852548" style="fill: #4169e1; stroke: #4169e1"/>
     <use xlink:href="#mc0ba0282f1" x="390.718226" y="115.364739" style="fill: #4169e1; stroke: #4169e1"/>
     <use xlink:href="#mc0ba0282f1" x="390.352431" y="195.90344" style="fill: #4169e1; stroke: #4169e1"/>
     <use xlink:href="#mc0ba0282f1" x="338.412264" y="271.81312" style="fill: #4169e1; stroke: #4169e1"/>
     <use xlink:href="#mc0ba0282f1" x="404.4446" y="122.871608" style="fill: #4169e1; stroke: #4169e1"/>
     <use xlink:href="#mc0ba0282f1" x="159.624781" y="219.528759" style="fill: #4169e1; stroke: #4169e1"/>
     <use xlink:href="#mc0ba0282f1" x="427.453256" y="300.24508" style="fill: #4169e1; stroke: #4169e1"/>
     <use xlink:href="#mc0ba0282f1" x="442.983521" y="254.716918" style="fill: #4169e1; stroke: #4169e1"/>
     <use xlink:href="#mc0ba0282f1" x="418.120549" y="153.738856" style="fill: #4169e1; stroke: #4169e1"/>
     <use xlink:href="#mc0ba0282f1" x="336.989584" y="153.718703" style="fill: #4169e1; stroke: #4169e1"/>
     <use xlink:href="#mc0ba0282f1" x="314.381359" y="132.474713" style="fill: #4169e1; stroke: #4169e1"/>
     <use xlink:href="#mc0ba0282f1" x="193.544445" y="226.965809" style="fill: #4169e1; stroke: #4169e1"/>
     <use xlink:href="#mc0ba0282f1" x="303.447974" y="244.450208" style="fill: #4169e1; stroke: #4169e1"/>
     <use xlink:href="#mc0ba0282f1" x="266.767135" y="265.405357" style="fill: #4169e1; stroke: #4169e1"/>
     <use xlink:href="#mc0ba0282f1" x="387.023209" y="227.499312" style="fill: #4169e1; stroke: #4169e1"/>
     <use xlink:href="#mc0ba0282f1" x="222.720509" y="238.609259" style="fill: #4169e1; stroke: #4169e1"/>
     <use xlink:href="#mc0ba0282f1" x="390.014492" y="161.454701" style="fill: #4169e1; stroke: #4169e1"/>
     <use xlink:href="#mc0ba0282f1" x="182.862418" y="224.422786" style="fill: #4169e1; stroke: #4169e1"/>
     <use xlink:href="#mc0ba0282f1" x="415.791338" y="143.124127" style="fill: #4169e1; stroke: #4169e1"/>
     <use xlink:href="#mc0ba0282f1" x="345.079391" y="131.519896" style="fill: #4169e1; stroke: #4169e1"/>
     <use xlink:href="#mc0ba0282f1" x="269.139881" y="72.39005" style="fill: #4169e1; stroke: #4169e1"/>
     <use xlink:href="#mc0ba0282f1" x="309.100212" y="298.93623" style="fill: #4169e1; stroke: #4169e1"/>
     <use xlink:href="#mc0ba0282f1" x="461.589827" y="272.716196" style="fill: #4169e1; stroke: #4169e1"/>
     <use xlink:href="#mc0ba0282f1" x="304.765615" y="274.306732" style="fill: #4169e1; stroke: #4169e1"/>
     <use xlink:href="#mc0ba0282f1" x="196.624972" y="211.060544" style="fill: #4169e1; stroke: #4169e1"/>
     <use xlink:href="#mc0ba0282f1" x="334.901109" y="198.619776" style="fill: #4169e1; stroke: #4169e1"/>
     <use xlink:href="#mc0ba0282f1" x="328.79939" y="123.616549" style="fill: #4169e1; stroke: #4169e1"/>
     <use xlink:href="#mc0ba0282f1" x="294.788503" y="228.076633" style="fill: #4169e1; stroke: #4169e1"/>
     <use xlink:href="#mc0ba0282f1" x="256.977066" y="202.166789" style="fill: #4169e1; stroke: #4169e1"/>
     <use xlink:href="#mc0ba0282f1" x="246.587362" y="305.15671" style="fill: #4169e1; stroke: #4169e1"/>
     <use xlink:href="#mc0ba0282f1" x="449.083572" y="132.006816" style="fill: #4169e1; stroke: #4169e1"/>
     <use xlink:href="#mc0ba0282f1" x="286.631835" y="69.495394" style="fill: #4169e1; stroke: #4169e1"/>
     <use xlink:href="#mc0ba0282f1" x="352.135065" y="274.783969" style="fill: #4169e1; stroke: #4169e1"/>
     <use xlink:href="#mc0ba0282f1" x="283.267339" y="273.579563" style="fill: #4169e1; stroke: #4169e1"/>
     <use xlink:href="#mc0ba0282f1" x="206.776258" y="232.977104" style="fill: #4169e1; stroke: #4169e1"/>
     <use xlink:href="#mc0ba0282f1" x="156.595261" y="243.65686" style="fill: #4169e1; stroke: #4169e1"/>
     <use xlink:href="#mc0ba0282f1" x="470.970285" y="142.233764" style="fill: #4169e1; stroke: #4169e1"/>
     <use xlink:href="#mc0ba0282f1" x="358.443429" y="211.795532" style="fill: #4169e1; stroke: #4169e1"/>
     <use xlink:href="#mc0ba0282f1" x="274.415801" y="249.263032" style="fill: #4169e1; stroke: #4169e1"/>
     <use xlink:href="#mc0ba0282f1" x="293.693142" y="140.341096" style="fill: #4169e1; stroke: #4169e1"/>
     <use xlink:href="#mc0ba0282f1" x="412.468051" y="279.816529" style="fill: #4169e1; stroke: #4169e1"/>
     <use xlink:href="#mc0ba0282f1" x="361.251392" y="321.299211" style="fill: #4169e1; stroke: #4169e1"/>
     <use xlink:href="#mc0ba0282f1" x="444.141251" y="303.532701" style="fill: #4169e1; stroke: #4169e1"/>
     <use xlink:href="#mc0ba0282f1" x="257.477107" y="131.561056" style="fill: #4169e1; stroke: #4169e1"/>
     <use xlink:href="#mc0ba0282f1" x="499.970156" y="175.229145" style="fill: #4169e1; stroke: #4169e1"/>
     <use xlink:href="#mc0ba0282f1" x="413.694309" y="285.557885" style="fill: #4169e1; stroke: #4169e1"/>
     <use xlink:href="#mc0ba0282f1" x="298.747084" y="310.025631" style="fill: #4169e1; stroke: #4169e1"/>
     <use xlink:href="#mc0ba0282f1" x="448.039782" y="237.963775" style="fill: #4169e1; stroke: #4169e1"/>
     <use xlink:href="#mc0ba0282f1" x="328.673611" y="76.109443" style="fill: #4169e1; stroke: #4169e1"/>
     <use xlink:href="#mc0ba0282f1" x="323.536369" y="193.015724" style="fill: #4169e1; stroke: #4169e1"/>
     <use xlink:href="#mc0ba0282f1" x="411.66501" y="233.780235" style="fill: #4169e1; stroke: #4169e1"/>
     <use xlink:href="#mc0ba0282f1" x="299.59032" y="150.697162" style="fill: #4169e1; stroke: #4169e1"/>
     <use xlink:href="#mc0ba0282f1" x="293.029036" y="273.749717" style="fill: #4169e1; stroke: #4169e1"/>
     <use xlink:href="#mc0ba0282f1" x="384.4795" y="267.447041" style="fill: #4169e1; stroke: #4169e1"/>
     <use xlink:href="#mc0ba0282f1" x="325.709303" y="233.889131" style="fill: #4169e1; stroke: #4169e1"/>
     <use xlink:href="#mc0ba0282f1" x="456.918167" y="277.724985" style="fill: #4169e1; stroke: #4169e1"/>
     <use xlink:href="#mc0ba0282f1" x="435.440027" y="266.742901" style="fill: #4169e1; stroke: #4169e1"/>
     <use xlink:href="#mc0ba0282f1" x="322.180286" y="185.735296" style="fill: #4169e1; stroke: #4169e1"/>
     <use xlink:href="#mc0ba0282f1" x="376.378459" y="140.574205" style="fill: #4169e1; stroke: #4169e1"/>
     <use xlink:href="#mc0ba0282f1" x="414.637669" y="281.492946" style="fill: #4169e1; stroke: #4169e1"/>
     <use xlink:href="#mc0ba0282f1" x="255.105922" y="310.419253" style="fill: #4169e1; stroke: #4169e1"/>
     <use xlink:href="#mc0ba0282f1" x="497.718583" y="139.747552" style="fill: #4169e1; stroke: #4169e1"/>
     <use xlink:href="#mc0ba0282f1" x="287.814718" y="198.399509" style="fill: #4169e1; stroke: #4169e1"/>
     <use xlink:href="#mc0ba0282f1" x="294.382804" y="119.94639" style="fill: #4169e1; stroke: #4169e1"/>
     <use xlink:href="#mc0ba0282f1" x="277.154452" y="142.439133" style="fill: #4169e1; stroke: #4169e1"/>
     <use xlink:href="#mc0ba0282f1" x="329.722423" y="258.432546" style="fill: #4169e1; stroke: #4169e1"/>
     <use xlink:href="#mc0ba0282f1" x="342.780858" y="290.048309" style="fill: #4169e1; stroke: #4169e1"/>
     <use xlink:href="#mc0ba0282f1" x="330.107779" y="158.273939" style="fill: #4169e1; stroke: #4169e1"/>
     <use xlink:href="#mc0ba0282f1" x="269.028038" y="148.887092" style="fill: #4169e1; stroke: #4169e1"/>
     <use xlink:href="#mc0ba0282f1" x="167.262704" y="211.336802" style="fill: #4169e1; stroke: #4169e1"/>
     <use xlink:href="#mc0ba0282f1" x="244.900546" y="273.391039" style="fill: #4169e1; stroke: #4169e1"/>
     <use xlink:href="#mc0ba0282f1" x="337.17599" y="260.0366" style="fill: #4169e1; stroke: #4169e1"/>
    </g>
   </g>
   <g id="PathCollection_2">
    <defs>
     <path id="m0fe89f402a" d="M 0 2.5 
C 0.663008 2.5 1.29895 2.236584 1.767767 1.767767 
C 2.236584 1.29895 2.5 0.663008 2.5 0 
C 2.5 -0.663008 2.236584 -1.29895 1.767767 -1.767767 
C 1.29895 -2.236584 0.663008 -2.5 0 -2.5 
C -0.663008 -2.5 -1.29895 -2.236584 -1.767767 -1.767767 
C -2.236584 -1.29895 -2.5 -0.663008 -2.5 0 
C -2.5 0.663008 -2.236584 1.29895 -1.767767 1.767767 
C -1.29895 2.236584 -0.663008 2.5 0 2.5 
z
" style="stroke: #b22222"/>
    </defs>
    <g clip-path="url(#pbabe8fdcb1)">
     <use xlink:href="#m0fe89f402a" x="225.576241" y="229.026416" style="fill: #b22222; stroke: #b22222"/>
     <use xlink:href="#m0fe89f402a" x="231.639477" y="221.94008" style="fill: #b22222; stroke: #b22222"/>
     <use xlink:href="#m0fe89f402a" x="282.599301" y="186.615988" style="fill: #b22222; stroke: #b22222"/>
     <use xlink:href="#m0fe89f402a" x="230.388121" y="211.912543" style="fill: #b22222; stroke: #b22222"/>
     <use xlink:href="#m0fe89f402a" x="247.819386" y="245.097432" style="fill: #b22222; stroke: #b22222"/>
     <use xlink:href="#m0fe89f402a" x="236.478732" y="232.051884" style="fill: #b22222; stroke: #b22222"/>
     <use xlink:href="#m0fe89f402a" x="232.643244" y="227.628984" style="fill: #b22222; stroke: #b22222"/>
     <use xlink:href="#m0fe89f402a" x="246.180045" y="226.933244" style="fill: #b22222; stroke: #b22222"/>
     <use xlink:href="#m0fe89f402a" x="239.840208" y="225.919362" style="fill: #b22222; stroke: #b22222"/>
     <use xlink:href="#m0fe89f402a" x="342.869303" y="258.84505" style="fill: #b22222; stroke: #b22222"/>
     <use xlink:href="#m0fe89f402a" x="264.524975" y="258.206245" style="fill: #b22222; stroke: #b22222"/>
     <use xlink:href="#m0fe89f402a" x="236.940619" y="227.539845" style="fill: #b22222; stroke: #b22222"/>
     <use xlink:href="#m0fe89f402a" x="240.893842" y="229.527639" style="fill: #b22222; stroke: #b22222"/>
     <use xlink:href="#m0fe89f402a" x="299.088647" y="255.653984" style="fill: #b22222; stroke: #b22222"/>
     <use xlink:href="#m0fe89f402a" x="240.41845" y="234.673721" style="fill: #b22222; stroke: #b22222"/>
     <use xlink:href="#m0fe89f402a" x="220.015089" y="215.149511" style="fill: #b22222; stroke: #b22222"/>
     <use xlink:href="#m0fe89f402a" x="221.202318" y="217.238724" style="fill: #b22222; stroke: #b22222"/>
     <use xlink:href="#m0fe89f402a" x="220.256976" y="202.941303" style="fill: #b22222; stroke: #b22222"/>
     <use xlink:href="#m0fe89f402a" x="230.175159" y="226.803196" style="fill: #b22222; stroke: #b22222"/>
     <use xlink:href="#m0fe89f402a" x="230.537153" y="211.744337" style="fill: #b22222; stroke: #b22222"/>
     <use xlink:href="#m0fe89f402a" x="250.566977" y="225.628404" style="fill: #b22222; stroke: #b22222"/>
     <use xlink:href="#m0fe89f402a" x="223.564755" y="209.15663" style="fill: #b22222; stroke: #b22222"/>
     <use xlink:href="#m0fe89f402a" x="222.280525" y="226.778949" style="fill: #b22222; stroke: #b22222"/>
     <use xlink:href="#m0fe89f402a" x="228.009571" y="214.085713" style="fill: #b22222; stroke: #b22222"/>
     <use xlink:href="#m0fe89f402a" x="222.939657" y="210.646641" style="fill: #b22222; stroke: #b22222"/>
     <use xlink:href="#m0fe89f402a" x="247.603571" y="252.900764" style="fill: #b22222; stroke: #b22222"/>
     <use xlink:href="#m0fe89f402a" x="233.980514" y="225.478605" style="fill: #b22222; stroke: #b22222"/>
     <use xlink:href="#m0fe89f402a" x="227.768622" y="231.058689" style="fill: #b22222; stroke: #b22222"/>
     <use xlink:href="#m0fe89f402a" x="248.934371" y="258.196858" style="fill: #b22222; stroke: #b22222"/>
     <use xlink:href="#m0fe89f402a" x="222.265075" y="220.481774" style="fill: #b22222; stroke: #b22222"/>
     <use xlink:href="#m0fe89f402a" x="235.102325" y="222.973048" style="fill: #b22222; stroke: #b22222"/>
     <use xlink:href="#m0fe89f402a" x="248.35309" y="246.985126" style="fill: #b22222; stroke: #b22222"/>
     <use xlink:href="#m0fe89f402a" x="245.937914" y="244.876033" style="fill: #b22222; stroke: #b22222"/>
     <use xlink:href="#m0fe89f402a" x="274.705977" y="201.172226" style="fill: #b22222; stroke: #b22222"/>
     <use xlink:href="#m0fe89f402a" x="238.121642" y="233.58655" style="fill: #b22222; stroke: #b22222"/>
     <use xlink:href="#m0fe89f402a" x="243.422917" y="218.828721" style="fill: #b22222; stroke: #b22222"/>
     <use xlink:href="#m0fe89f402a" x="224.491074" y="214.568659" style="fill: #b22222; stroke: #b22222"/>
     <use xlink:href="#m0fe89f402a" x="229.184298" y="221.538389" style="fill: #b22222; stroke: #b22222"/>
     <use xlink:href="#m0fe89f402a" x="242.38748" y="230.81999" style="fill: #b22222; stroke: #b22222"/>
     <use xlink:href="#m0fe89f402a" x="219.239687" y="221.360206" style="fill: #b22222; stroke: #b22222"/>
     <use xlink:href="#m0fe89f402a" x="235.055767" y="220.621312" style="fill: #b22222; stroke: #b22222"/>
     <use xlink:href="#m0fe89f402a" x="255.06857" y="240.584392" style="fill: #b22222; stroke: #b22222"/>
     <use xlink:href="#m0fe89f402a" x="230.918896" y="226.277479" style="fill: #b22222; stroke: #b22222"/>
     <use xlink:href="#m0fe89f402a" x="226.903925" y="212.84442" style="fill: #b22222; stroke: #b22222"/>
     <use xlink:href="#m0fe89f402a" x="237.152942" y="191.231703" style="fill: #b22222; stroke: #b22222"/>
     <use xlink:href="#m0fe89f402a" x="246.798642" y="230.964736" style="fill: #b22222; stroke: #b22222"/>
     <use xlink:href="#m0fe89f402a" x="217.322757" y="207.498179" style="fill: #b22222; stroke: #b22222"/>
     <use xlink:href="#m0fe89f402a" x="330.036679" y="234.194223" style="fill: #b22222; stroke: #b22222"/>
     <use xlink:href="#m0fe89f402a" x="219.16904" y="225.88101" style="fill: #b22222; stroke: #b22222"/>
     <use xlink:href="#m0fe89f402a" x="218.398064" y="202.800898" style="fill: #b22222; stroke: #b22222"/>
     <use xlink:href="#m0fe89f402a" x="231.921492" y="216.938548" style="fill: #b22222; stroke: #b22222"/>
     <use xlink:href="#m0fe89f402a" x="354.682963" y="186.018093" style="fill: #b22222; stroke: #b22222"/>
     <use xlink:href="#m0fe89f402a" x="237.753581" y="232.351212" style="fill: #b22222; stroke: #b22222"/>
     <use xlink:href="#m0fe89f402a" x="221.121791" y="216.13756" style="fill: #b22222; stroke: #b22222"/>
     <use xlink:href="#m0fe89f402a" x="219.719298" y="217.197371" style="fill: #b22222; stroke: #b22222"/>
     <use xlink:href="#m0fe89f402a" x="229.677698" y="214.7534" style="fill: #b22222; stroke: #b22222"/>
     <use xlink:href="#m0fe89f402a" x="226.669405" y="232.149938" style="fill: #b22222; stroke: #b22222"/>
     <use xlink:href="#m0fe89f402a" x="223.585511" y="251.873456" style="fill: #b22222; stroke: #b22222"/>
     <use xlink:href="#m0fe89f402a" x="215.061776" y="210.562319" style="fill: #b22222; stroke: #b22222"/>
     <use xlink:href="#m0fe89f402a" x="215.642787" y="220.523052" style="fill: #b22222; stroke: #b22222"/>
     <use xlink:href="#m0fe89f402a" x="244.152925" y="231.58762" style="fill: #b22222; stroke: #b22222"/>
     <use xlink:href="#m0fe89f402a" x="224.758403" y="214.787981" style="fill: #b22222; stroke: #b22222"/>
     <use xlink:href="#m0fe89f402a" x="238.650485" y="209.644956" style="fill: #b22222; stroke: #b22222"/>
     <use xlink:href="#m0fe89f402a" x="388.757286" y="205.11565" style="fill: #b22222; stroke: #b22222"/>
     <use xlink:href="#m0fe89f402a" x="230.192207" y="213.062636" style="fill: #b22222; stroke: #b22222"/>
     <use xlink:href="#m0fe89f402a" x="231.405031" y="218.441747" style="fill: #b22222; stroke: #b22222"/>
     <use xlink:href="#m0fe89f402a" x="232.575968" y="215.805486" style="fill: #b22222; stroke: #b22222"/>
     <use xlink:href="#m0fe89f402a" x="363.419832" y="174.337429" style="fill: #b22222; stroke: #b22222"/>
     <use xlink:href="#m0fe89f402a" x="244.329748" y="228.201711" style="fill: #b22222; stroke: #b22222"/>
     <use xlink:href="#m0fe89f402a" x="237.261233" y="224.429386" style="fill: #b22222; stroke: #b22222"/>
     <use xlink:href="#m0fe89f402a" x="222.864591" y="210.772144" style="fill: #b22222; stroke: #b22222"/>
    </g>
   </g>
   <g id="patch_4">
    <path d="M 56.450156 450.72 
L 56.450156 7.2 
" style="fill: none; stroke: #ffffff; stroke-width: 1.25; stroke-linejoin: miter; stroke-linecap: square"/>
   </g>
   <g id="patch_5">
    <path d="M 499.970156 450.72 
L 499.970156 7.2 
" style="fill: none; stroke: #ffffff; stroke-width: 1.25; stroke-linejoin: miter; stroke-linecap: square"/>
   </g>
   <g id="patch_6">
    <path d="M 56.450156 450.72 
L 499.970156 450.72 
" style="fill: none; stroke: #ffffff; stroke-width: 1.25; stroke-linejoin: miter; stroke-linecap: square"/>
   </g>
   <g id="patch_7">
    <path d="M 56.450156 7.2 
L 499.970156 7.2 
" style="fill: none; stroke: #ffffff; stroke-width: 1.25; stroke-linejoin: miter; stroke-linecap: square"/>
   </g>
   <g id="text_13">
    <!-- t = 4800 -->
    <g style="fill: #262626" transform="translate(65.320556 24.659775) scale(0.12 -0.12)">
     <defs>
      <path id="ArialMT-74" d="M 1650 503 
L 1731 6 
Q 1494 -44 1306 -44 
Q 1000 -44 831 53 
Q 663 150 594 308 
Q 525 466 525 972 
L 525 2881 
L 113 2881 
L 113 3319 
L 525 3319 
L 525 4141 
L 1084 4478 
L 1084 3319 
L 1650 3319 
L 1650 2881 
L 1084 2881 
L 1084 941 
Q 1084 700 1114 631 
Q 1144 563 1211 522 
Q 1278 481 1403 481 
Q 1497 481 1650 503 
z
" transform="scale(0.015625)"/>
      <path id="ArialMT-20" transform="scale(0.015625)"/>
      <path id="ArialMT-3d" d="M 3381 2694 
L 356 2694 
L 356 3219 
L 3381 3219 
L 3381 2694 
z
M 3381 1303 
L 356 1303 
L 356 1828 
L 3381 1828 
L 3381 1303 
z
" transform="scale(0.015625)"/>
      <path id="ArialMT-38" d="M 1131 2484 
Q 781 2613 612 2850 
Q 444 3088 444 3419 
Q 444 3919 803 4259 
Q 1163 4600 1759 4600 
Q 2359 4600 2725 4251 
Q 3091 3903 3091 3403 
Q 3091 3084 2923 2848 
Q 2756 2613 2416 2484 
Q 2838 2347 3058 2040 
Q 3278 1734 3278 1309 
Q 3278 722 2862 322 
Q 2447 -78 1769 -78 
Q 1091 -78 675 323 
Q 259 725 259 1325 
Q 259 1772 486 2073 
Q 713 2375 1131 2484 
z
M 1019 3438 
Q 1019 3113 1228 2906 
Q 1438 2700 1772 2700 
Q 2097 2700 2305 2904 
Q 2513 3109 2513 3406 
Q 2513 3716 2298 3927 
Q 2084 4138 1766 4138 
Q 1444 4138 1231 3931 
Q 1019 3725 1019 3438 
z
M 838 1322 
Q 838 1081 952 856 
Q 1066 631 1291 507 
Q 1516 384 1775 384 
Q 2178 384 2440 643 
Q 2703 903 2703 1303 
Q 2703 1709 2433 1975 
Q 2163 2241 1756 2241 
Q 1359 2241 1098 1978 
Q 838 1716 838 1322 
z
" transform="scale(0.015625)"/>
     </defs>
     <use xlink:href="#ArialMT-74"/>
     <use xlink:href="#ArialMT-20" x="27.783203"/>
     <use xlink:href="#ArialMT-3d" x="55.566406"/>
     <use xlink:href="#ArialMT-20" x="113.964844"/>
     <use xlink:href="#ArialMT-34" x="141.748047"/>
     <use xlink:href="#ArialMT-38" x="197.363281"/>
     <use xlink:href="#ArialMT-30" x="252.978516"/>
     <use xlink:href="#ArialMT-30" x="308.59375"/>
    </g>
   </g>
   <g id="legend_1">
    <g id="patch_8">
     <path d="M 328.111406 94.59 
L 483.170156 94.59 
Q 487.970156 94.59 487.970156 89.79 
L 487.970156 24 
Q 487.970156 19.2 483.170156 19.2 
L 328.111406 19.2 
Q 323.311406 19.2 323.311406 24 
L 323.311406 89.79 
Q 323.311406 94.59 328.111406 94.59 
z
" style="fill: #eaeaf2; opacity: 0.8; stroke: #cccccc; stroke-linejoin: miter"/>
    </g>
    <g id="PathCollection_3">
     <g>
      <use xlink:href="#mc0ba0282f1" x="356.911406" y="39.97125" style="fill: #4169e1; stroke: #4169e1"/>
     </g>
    </g>
    <g id="text_14">
     <!-- Sheep -->
     <g style="fill: #262626" transform="translate(400.111406 46.27125) scale(0.24 -0.24)">
      <defs>
       <path id="ArialMT-53" d="M 288 1472 
L 859 1522 
Q 900 1178 1048 958 
Q 1197 738 1509 602 
Q 1822 466 2213 466 
Q 2559 466 2825 569 
Q 3091 672 3220 851 
Q 3350 1031 3350 1244 
Q 3350 1459 3225 1620 
Q 3100 1781 2813 1891 
Q 2628 1963 1997 2114 
Q 1366 2266 1113 2400 
Q 784 2572 623 2826 
Q 463 3081 463 3397 
Q 463 3744 659 4045 
Q 856 4347 1234 4503 
Q 1613 4659 2075 4659 
Q 2584 4659 2973 4495 
Q 3363 4331 3572 4012 
Q 3781 3694 3797 3291 
L 3216 3247 
Q 3169 3681 2898 3903 
Q 2628 4125 2100 4125 
Q 1550 4125 1298 3923 
Q 1047 3722 1047 3438 
Q 1047 3191 1225 3031 
Q 1400 2872 2139 2705 
Q 2878 2538 3153 2413 
Q 3553 2228 3743 1945 
Q 3934 1663 3934 1294 
Q 3934 928 3725 604 
Q 3516 281 3123 101 
Q 2731 -78 2241 -78 
Q 1619 -78 1198 103 
Q 778 284 539 648 
Q 300 1013 288 1472 
z
" transform="scale(0.015625)"/>
       <path id="ArialMT-68" d="M 422 0 
L 422 4581 
L 984 4581 
L 984 2938 
Q 1378 3394 1978 3394 
Q 2347 3394 2619 3248 
Q 2891 3103 3008 2847 
Q 3125 2591 3125 2103 
L 3125 0 
L 2563 0 
L 2563 2103 
Q 2563 2525 2380 2717 
Q 2197 2909 1863 2909 
Q 1613 2909 1392 2779 
Q 1172 2650 1078 2428 
Q 984 2206 984 1816 
L 984 0 
L 422 0 
z
" transform="scale(0.015625)"/>
       <path id="ArialMT-65" d="M 2694 1069 
L 3275 997 
Q 3138 488 2766 206 
Q 2394 -75 1816 -75 
Q 1088 -75 661 373 
Q 234 822 234 1631 
Q 234 2469 665 2931 
Q 1097 3394 1784 3394 
Q 2450 3394 2872 2941 
Q 3294 2488 3294 1666 
Q 3294 1616 3291 1516 
L 816 1516 
Q 847 969 1125 678 
Q 1403 388 1819 388 
Q 2128 388 2347 550 
Q 2566 713 2694 1069 
z
M 847 1978 
L 2700 1978 
Q 2663 2397 2488 2606 
Q 2219 2931 1791 2931 
Q 1403 2931 1139 2672 
Q 875 2413 847 1978 
z
" transform="scale(0.015625)"/>
       <path id="ArialMT-70" d="M 422 -1272 
L 422 3319 
L 934 3319 
L 934 2888 
Q 1116 3141 1344 3267 
Q 1572 3394 1897 3394 
Q 2322 3394 2647 3175 
Q 2972 2956 3137 2557 
Q 3303 2159 3303 1684 
Q 3303 1175 3120 767 
Q 2938 359 2589 142 
Q 2241 -75 1856 -75 
Q 1575 -75 1351 44 
Q 1128 163 984 344 
L 984 -1272 
L 422 -1272 
z
M 931 1641 
Q 931 1000 1190 694 
Q 1450 388 1819 388 
Q 2194 388 2461 705 
Q 2728 1022 2728 1688 
Q 2728 2322 2467 2637 
Q 2206 2953 1844 2953 
Q 1484 2953 1207 2617 
Q 931 2281 931 1641 
z
" transform="scale(0.015625)"/>
      </defs>
      <use xlink:href="#ArialMT-53"/>
      <use xlink:href="#ArialMT-68" x="66.699219"/>
      <use xlink:href="#ArialMT-65" x="122.314453"/>
      <use xlink:href="#ArialMT-65" x="177.929688"/>
      <use xlink:href="#ArialMT-70" x="233.544922"/>
     </g>
    </g>
    <g id="PathCollection_4">
     <g>
      <use xlink:href="#m0fe89f402a" x="356.911406" y="73.92" style="fill: #b22222; stroke: #b22222"/>
     </g>
    </g>
    <g id="text_15">
     <!-- Wolves -->
     <g style="fill: #262626" transform="translate(400.111406 80.22) scale(0.24 -0.24)">
      <defs>
       <path id="ArialMT-57" d="M 1294 0 
L 78 4581 
L 700 4581 
L 1397 1578 
Q 1509 1106 1591 641 
Q 1766 1375 1797 1488 
L 2669 4581 
L 3400 4581 
L 4056 2263 
Q 4303 1400 4413 641 
Q 4500 1075 4641 1638 
L 5359 4581 
L 5969 4581 
L 4713 0 
L 4128 0 
L 3163 3491 
Q 3041 3928 3019 4028 
Q 2947 3713 2884 3491 
L 1913 0 
L 1294 0 
z
" transform="scale(0.015625)"/>
       <path id="ArialMT-6f" d="M 213 1659 
Q 213 2581 725 3025 
Q 1153 3394 1769 3394 
Q 2453 3394 2887 2945 
Q 3322 2497 3322 1706 
Q 3322 1066 3130 698 
Q 2938 331 2570 128 
Q 2203 -75 1769 -75 
Q 1072 -75 642 372 
Q 213 819 213 1659 
z
M 791 1659 
Q 791 1022 1069 705 
Q 1347 388 1769 388 
Q 2188 388 2466 706 
Q 2744 1025 2744 1678 
Q 2744 2294 2464 2611 
Q 2184 2928 1769 2928 
Q 1347 2928 1069 2612 
Q 791 2297 791 1659 
z
" transform="scale(0.015625)"/>
       <path id="ArialMT-6c" d="M 409 0 
L 409 4581 
L 972 4581 
L 972 0 
L 409 0 
z
" transform="scale(0.015625)"/>
       <path id="ArialMT-76" d="M 1344 0 
L 81 3319 
L 675 3319 
L 1388 1331 
Q 1503 1009 1600 663 
Q 1675 925 1809 1294 
L 2547 3319 
L 3125 3319 
L 1869 0 
L 1344 0 
z
" transform="scale(0.015625)"/>
       <path id="ArialMT-73" d="M 197 991 
L 753 1078 
Q 800 744 1014 566 
Q 1228 388 1613 388 
Q 2000 388 2187 545 
Q 2375 703 2375 916 
Q 2375 1106 2209 1216 
Q 2094 1291 1634 1406 
Q 1016 1563 777 1677 
Q 538 1791 414 1992 
Q 291 2194 291 2438 
Q 291 2659 392 2848 
Q 494 3038 669 3163 
Q 800 3259 1026 3326 
Q 1253 3394 1513 3394 
Q 1903 3394 2198 3281 
Q 2494 3169 2634 2976 
Q 2775 2784 2828 2463 
L 2278 2388 
Q 2241 2644 2061 2787 
Q 1881 2931 1553 2931 
Q 1166 2931 1000 2803 
Q 834 2675 834 2503 
Q 834 2394 903 2306 
Q 972 2216 1119 2156 
Q 1203 2125 1616 2013 
Q 2213 1853 2448 1751 
Q 2684 1650 2818 1456 
Q 2953 1263 2953 975 
Q 2953 694 2789 445 
Q 2625 197 2315 61 
Q 2006 -75 1616 -75 
Q 969 -75 630 194 
Q 291 463 197 991 
z
" transform="scale(0.015625)"/>
      </defs>
      <use xlink:href="#ArialMT-57"/>
      <use xlink:href="#ArialMT-6f" x="92.634766"/>
      <use xlink:href="#ArialMT-6c" x="148.25"/>
      <use xlink:href="#ArialMT-76" x="170.466797"/>
      <use xlink:href="#ArialMT-65" x="220.466797"/>
      <use xlink:href="#ArialMT-73" x="276.082031"/>
     </g>
    </g>
   </g>
  </g>
 </g>
 <defs>
  <clipPath id="pbabe8fdcb1">
   <rect x="56.450156" y="7.2" width="443.52" height="443.52"/>
  </clipPath>
 </defs>
</svg>
