<?xml version="1.0" encoding="utf-8" standalone="no"?>
<!DOCTYPE svg PUBLIC "-//W3C//DTD SVG 1.1//EN"
  "http://www.w3.org/Graphics/SVG/1.1/DTD/svg11.dtd">
<svg xmlns:xlink="http://www.w3.org/1999/xlink" width="507.170156pt" height="492.454219pt" viewBox="0 0 507.170156 492.454219" xmlns="http://www.w3.org/2000/svg" version="1.1">
 <metadata>
  <rdf:RDF xmlns:dc="http://purl.org/dc/elements/1.1/" xmlns:cc="http://creativecommons.org/ns#" xmlns:rdf="http://www.w3.org/1999/02/22-rdf-syntax-ns#">
   <cc:Work>
    <dc:type rdf:resource="http://purl.org/dc/dcmitype/StillImage"/>
    <dc:date>2026-05-12T10:43:19.943284</dc:date>
    <dc:format>image/svg+xml</dc:format>
    <dc:creator>
     <cc:Agent>
      <dc:title>Matplotlib v3.7.1, https://matplotlib.org/</dc:title>
     </cc:Agent>
    </dc:creator>
   </cc:Work>
  </rdf:RDF>
 </metadata>
 <defs>
  <style type="text/css">*{stroke-linejoin: round; stroke-linecap: butt}</style>
 </defs>
 <g id="figure_1">
  <g id="patch_1">
   <path d="M 0 492.454219 
L 507.170156 492.454219 
L 507.170156 0 
L 0 0 
z
" style="fill: #ffffff"/>
  </g>
  <g id="axes_1">
   <g id="patch_2">
    <path d="M 56.450156 450.72 
L 499.970156 450.72 
L 499.970156 7.2 
L 56.450156 7.2 
z
" style="fill: #eaeaf2"/>
   </g>
   <g id="matplotlib.axis_1">
    <g id="xtick_1">
     <g id="line2d_1">
      <path d="M 100.802156 450.72 
L 100.802156 7.2 
" clip-path="url(#p5710748607)" style="fill: none; stroke: #ffffff; stroke-linecap: round"/>
     </g>
     <g id="text_1">
      <!-- −400 -->
      <g style="fill: #262626" transform="translate(88.414266 468.093594) scale(0.11 -0.11)">
       <defs>
        <path id="ArialMT-2212" d="M 3381 1997 
L 356 1997 
L 356 2522 
L 3381 2522 
L 3381 1997 
z
" transform="scale(0.015625)"/>
        <path id="ArialMT-34" d="M 2069 0 
L 2069 1097 
L 81 1097 
L 81 1613 
L 2172 4581 
L 2631 4581 
L 2631 1613 
L 3250 1613 
L 3250 1097 
L 2631 1097 
L 2631 0 
L 2069 0 
z
M 2069 1613 
L 2069 3678 
L 634 1613 
L 2069 1613 
z
" transform="scale(0.015625)"/>
        <path id="ArialMT-30" d="M 266 2259 
Q 266 3072 433 3567 
Q 600 4063 929 4331 
Q 1259 4600 1759 4600 
Q 2128 4600 2406 4451 
Q 2684 4303 2865 4023 
Q 3047 3744 3150 3342 
Q 3253 2941 3253 2259 
Q 3253 1453 3087 958 
Q 2922 463 2592 192 
Q 2263 -78 1759 -78 
Q 1097 -78 719 397 
Q 266 969 266 2259 
z
M 844 2259 
Q 844 1131 1108 757 
Q 1372 384 1759 384 
Q 2147 384 2411 759 
Q 2675 1134 2675 2259 
Q 2675 3391 2411 3762 
Q 2147 4134 1753 4134 
Q 1366 4134 1134 3806 
Q 844 3388 844 2259 
z
" transform="scale(0.015625)"/>
       </defs>
       <use xlink:href="#ArialMT-2212"/>
       <use xlink:href="#ArialMT-34" x="58.398438"/>
       <use xlink:href="#ArialMT-30" x="114.013672"/>
       <use xlink:href="#ArialMT-30" x="169.628906"/>
      </g>
     </g>
    </g>
    <g id="xtick_2">
     <g id="line2d_2">
      <path d="M 189.506156 450.72 
L 189.506156 7.2 
" clip-path="url(#p5710748607)" style="fill: none; stroke: #ffffff; stroke-linecap: round"/>
     </g>
     <g id="text_2">
      <!-- −200 -->
      <g style="fill: #262626" transform="translate(177.118266 468.093594) scale(0.11 -0.11)">
       <defs>
        <path id="ArialMT-32" d="M 3222 541 
L 3222 0 
L 194 0 
Q 188 203 259 391 
Q 375 700 629 1000 
Q 884 1300 1366 1694 
Q 2113 2306 2375 2664 
Q 2638 3022 2638 3341 
Q 2638 3675 2398 3904 
Q 2159 4134 1775 4134 
Q 1369 4134 1125 3890 
Q 881 3647 878 3216 
L 300 3275 
Q 359 3922 746 4261 
Q 1134 4600 1788 4600 
Q 2447 4600 2831 4234 
Q 3216 3869 3216 3328 
Q 3216 3053 3103 2787 
Q 2991 2522 2730 2228 
Q 2469 1934 1863 1422 
Q 1356 997 1212 845 
Q 1069 694 975 541 
L 3222 541 
z
" transform="scale(0.015625)"/>
       </defs>
       <use xlink:href="#ArialMT-2212"/>
       <use xlink:href="#ArialMT-32" x="58.398438"/>
       <use xlink:href="#ArialMT-30" x="114.013672"/>
       <use xlink:href="#ArialMT-30" x="169.628906"/>
      </g>
     </g>
    </g>
    <g id="xtick_3">
     <g id="line2d_3">
      <path d="M 278.210156 450.72 
L 278.210156 7.2 
" clip-path="url(#p5710748607)" style="fill: none; stroke: #ffffff; stroke-linecap: round"/>
     </g>
     <g id="text_3">
      <!-- 0 -->
      <g style="fill: #262626" transform="translate(275.151641 468.093594) scale(0.11 -0.11)">
       <use xlink:href="#ArialMT-30"/>
      </g>
     </g>
    </g>
    <g id="xtick_4">
     <g id="line2d_4">
      <path d="M 366.914156 450.72 
L 366.914156 7.2 
" clip-path="url(#p5710748607)" style="fill: none; stroke: #ffffff; stroke-linecap: round"/>
     </g>
     <g id="text_4">
      <!-- 200 -->
      <g style="fill: #262626" transform="translate(357.738609 468.093594) scale(0.11 -0.11)">
       <use xlink:href="#ArialMT-32"/>
       <use xlink:href="#ArialMT-30" x="55.615234"/>
       <use xlink:href="#ArialMT-30" x="111.230469"/>
      </g>
     </g>
    </g>
    <g id="xtick_5">
     <g id="line2d_5">
      <path d="M 455.618156 450.72 
L 455.618156 7.2 
" clip-path="url(#p5710748607)" style="fill: none; stroke: #ffffff; stroke-linecap: round"/>
     </g>
     <g id="text_5">
      <!-- 400 -->
      <g style="fill: #262626" transform="translate(446.442609 468.093594) scale(0.11 -0.11)">
       <use xlink:href="#ArialMT-34"/>
       <use xlink:href="#ArialMT-30" x="55.615234"/>
       <use xlink:href="#ArialMT-30" x="111.230469"/>
      </g>
     </g>
    </g>
    <g id="text_6">
     <!-- x -->
     <g style="fill: #262626" transform="translate(275.210156 482.869219) scale(0.12 -0.12)">
      <defs>
       <path id="ArialMT-78" d="M 47 0 
L 1259 1725 
L 138 3319 
L 841 3319 
L 1350 2541 
Q 1494 2319 1581 2169 
Q 1719 2375 1834 2534 
L 2394 3319 
L 3066 3319 
L 1919 1756 
L 3153 0 
L 2463 0 
L 1781 1031 
L 1600 1309 
L 728 0 
L 47 0 
z
" transform="scale(0.015625)"/>
      </defs>
      <use xlink:href="#ArialMT-78"/>
     </g>
    </g>
   </g>
   <g id="matplotlib.axis_2">
    <g id="ytick_1">
     <g id="line2d_6">
      <path d="M 56.450156 406.368 
L 499.970156 406.368 
" clip-path="url(#p5710748607)" style="fill: none; stroke: #ffffff; stroke-linecap: round"/>
     </g>
     <g id="text_7">
      <!-- −400 -->
      <g style="fill: #262626" transform="translate(22.174375 410.304797) scale(0.11 -0.11)">
       <use xlink:href="#ArialMT-2212"/>
       <use xlink:href="#ArialMT-34" x="58.398438"/>
       <use xlink:href="#ArialMT-30" x="114.013672"/>
       <use xlink:href="#ArialMT-30" x="169.628906"/>
      </g>
     </g>
    </g>
    <g id="ytick_2">
     <g id="line2d_7">
      <path d="M 56.450156 317.664 
L 499.970156 317.664 
" clip-path="url(#p5710748607)" style="fill: none; stroke: #ffffff; stroke-linecap: round"/>
     </g>
     <g id="text_8">
      <!-- −200 -->
      <g style="fill: #262626" transform="translate(22.174375 321.600797) scale(0.11 -0.11)">
       <use xlink:href="#ArialMT-2212"/>
       <use xlink:href="#ArialMT-32" x="58.398438"/>
       <use xlink:href="#ArialMT-30" x="114.013672"/>
       <use xlink:href="#ArialMT-30" x="169.628906"/>
      </g>
     </g>
    </g>
    <g id="ytick_3">
     <g id="line2d_8">
      <path d="M 56.450156 228.96 
L 499.970156 228.96 
" clip-path="url(#p5710748607)" style="fill: none; stroke: #ffffff; stroke-linecap: round"/>
     </g>
     <g id="text_9">
      <!-- 0 -->
      <g style="fill: #262626" transform="translate(40.833125 232.896797) scale(0.11 -0.11)">
       <use xlink:href="#ArialMT-30"/>
      </g>
     </g>
    </g>
    <g id="ytick_4">
     <g id="line2d_9">
      <path d="M 56.450156 140.256 
L 499.970156 140.256 
" clip-path="url(#p5710748607)" style="fill: none; stroke: #ffffff; stroke-linecap: round"/>
     </g>
     <g id="text_10">
      <!-- 200 -->
      <g style="fill: #262626" transform="translate(28.599063 144.192797) scale(0.11 -0.11)">
       <use xlink:href="#ArialMT-32"/>
       <use xlink:href="#ArialMT-30" x="55.615234"/>
       <use xlink:href="#ArialMT-30" x="111.230469"/>
      </g>
     </g>
    </g>
    <g id="ytick_5">
     <g id="line2d_10">
      <path d="M 56.450156 51.552 
L 499.970156 51.552 
" clip-path="url(#p5710748607)" style="fill: none; stroke: #ffffff; stroke-linecap: round"/>
     </g>
     <g id="text_11">
      <!-- 400 -->
      <g style="fill: #262626" transform="translate(28.599063 55.488797) scale(0.11 -0.11)">
       <use xlink:href="#ArialMT-34"/>
       <use xlink:href="#ArialMT-30" x="55.615234"/>
       <use xlink:href="#ArialMT-30" x="111.230469"/>
      </g>
     </g>
    </g>
    <g id="text_12">
     <!-- y -->
     <g style="fill: #262626" transform="translate(15.64875 231.96) rotate(-90) scale(0.12 -0.12)">
      <defs>
       <path id="ArialMT-79" d="M 397 -1278 
L 334 -750 
Q 519 -800 656 -800 
Q 844 -800 956 -737 
Q 1069 -675 1141 -563 
Q 1194 -478 1313 -144 
Q 1328 -97 1363 -6 
L 103 3319 
L 709 3319 
L 1400 1397 
Q 1534 1031 1641 628 
Q 1738 1016 1872 1384 
L 2581 3319 
L 3144 3319 
L 1881 -56 
Q 1678 -603 1566 -809 
Q 1416 -1088 1222 -1217 
Q 1028 -1347 759 -1347 
Q 597 -1347 397 -1278 
z
" transform="scale(0.015625)"/>
      </defs>
      <use xlink:href="#ArialMT-79"/>
     </g>
    </g>
   </g>
   <g id="patch_3">
    <path d="M 278.210156 317.664 
C 301.734732 317.664 324.298969 308.317587 340.933356 291.6832 
C 357.567743 275.048813 366.914156 252.484576 366.914156 228.96 
C 366.914156 205.435424 357.567743 182.871187 340.933356 166.2368 
C 324.298969 149.602413 301.734732 140.256 278.210156 140.256 
C 254.68558 140.256 232.121343 149.602413 215.486956 166.2368 
C 198.852569 182.871187 189.506156 205.435424 189.506156 228.96 
C 189.506156 252.484576 198.852569 275.048813 215.486956 291.6832 
C 232.121343 308.317587 254.68558 317.664 278.210156 317.664 
z
" clip-path="url(#p5710748607)" style="fill: #228b22; opacity: 0.12; stroke: #228b22; stroke-width: 1.5; stroke-linejoin: miter"/>
   </g>
   <g id="PathCollection_1">
    <defs>
     <path id="ma4393d07a1" d="M 0 2.236068 
C 0.593012 2.236068 1.161816 2.000462 1.581139 1.581139 
C 2.000462 1.161816 2.236068 0.593012 2.236068 0 
C 2.236068 -0.593012 2.000462 -1.161816 1.581139 -1.581139 
C 1.161816 -2.000462 0.593012 -2.236068 0 -2.236068 
C -0.593012 -2.236068 -1.161816 -2.000462 -1.581139 -1.581139 
C -2.000462 -1.161816 -2.236068 -0.593012 -2.236068 0 
C -2.236068 0.593012 -2.000462 1.161816 -1.581139 1.581139 
C -1.161816 2.000462 -0.593012 2.236068 0 2.236068 
z
" style="stroke: #4169e1"/>
    </defs>
    <g clip-path="url(#p5710748607)">
     <use xlink:href="#ma4393d07a1" x="377.064414" y="206.865847" style="fill: #4169e1; stroke: #4169e1"/>
     <use xlink:href="#ma4393d07a1" x="348.22484" y="188.180902" style="fill: #4169e1; stroke: #4169e1"/>
     <use xlink:href="#ma4393d07a1" x="146.070175" y="209.465482" style="fill: #4169e1; stroke: #4169e1"/>
     <use xlink:href="#ma4393d07a1" x="499.970156" y="203.139713" style="fill: #4169e1; stroke: #4169e1"/>
     <use xlink:href="#ma4393d07a1" x="231.917672" y="217.60246" style="fill: #4169e1; stroke: #4169e1"/>
     <use xlink:href="#ma4393d07a1" x="226.707594" y="212.139208" style="fill: #4169e1; stroke: #4169e1"/>
     <use xlink:href="#ma4393d07a1" x="340.374259" y="259.675279" style="fill: #4169e1; stroke: #4169e1"/>
     <use xlink:href="#ma4393d07a1" x="260.56528" y="224.497227" style="fill: #4169e1; stroke: #4169e1"/>
     <use xlink:href="#ma4393d07a1" x="430.035452" y="273.259829" style="fill: #4169e1; stroke: #4169e1"/>
     <use xlink:href="#ma4393d07a1" x="416.925259" y="179.563918" style="fill: #4169e1; stroke: #4169e1"/>
     <use xlink:href="#ma4393d07a1" x="241.144811" y="283.803167" style="fill: #4169e1; stroke: #4169e1"/>
     <use xlink:href="#ma4393d07a1" x="293.286334" y="180.900304" style="fill: #4169e1; stroke: #4169e1"/>
     <use xlink:href="#ma4393d07a1" x="220.052141" y="154.820214" style="fill: #4169e1; stroke: #4169e1"/>
     <use xlink:href="#ma4393d07a1" x="499.970156" y="224.711217" style="fill: #4169e1; stroke: #4169e1"/>
     <use xlink:href="#ma4393d07a1" x="282.800015" y="235.177638" style="fill: #4169e1; stroke: #4169e1"/>
     <use xlink:href="#ma4393d07a1" x="276.776423" y="275.157302" style="fill: #4169e1; stroke: #4169e1"/>
     <use xlink:href="#ma4393d07a1" x="321.09548" y="194.611008" style="fill: #4169e1; stroke: #4169e1"/>
     <use xlink:href="#ma4393d07a1" x="340.744284" y="330.548359" style="fill: #4169e1; stroke: #4169e1"/>
     <use xlink:href="#ma4393d07a1" x="417.60107" y="154.826765" style="fill: #4169e1; stroke: #4169e1"/>
     <use xlink:href="#ma4393d07a1" x="237.869892" y="147.468661" style="fill: #4169e1; stroke: #4169e1"/>
     <use xlink:href="#ma4393d07a1" x="252.988369" y="248.243744" style="fill: #4169e1; stroke: #4169e1"/>
     <use xlink:href="#ma4393d07a1" x="448.147752" y="253.458132" style="fill: #4169e1; stroke: #4169e1"/>
     <use xlink:href="#ma4393d07a1" x="338.082453" y="239.533784" style="fill: #4169e1; stroke: #4169e1"/>
     <use xlink:href="#ma4393d07a1" x="434.971656" y="270.63209" style="fill: #4169e1; stroke: #4169e1"/>
     <use xlink:href="#ma4393d07a1" x="417.991315" y="216.861019" style="fill: #4169e1; stroke: #4169e1"/>
     <use xlink:href="#ma4393d07a1" x="499.970156" y="157.056019" style="fill: #4169e1; stroke: #4169e1"/>
     <use xlink:href="#ma4393d07a1" x="314.161934" y="306.928882" style="fill: #4169e1; stroke: #4169e1"/>
     <use xlink:href="#ma4393d07a1" x="379.522777" y="149.820923" style="fill: #4169e1; stroke: #4169e1"/>
     <use xlink:href="#ma4393d07a1" x="284.474434" y="265.337725" style="fill: #4169e1; stroke: #4169e1"/>
     <use xlink:href="#ma4393d07a1" x="408.40588" y="83.350819" style="fill: #4169e1; stroke: #4169e1"/>
     <use xlink:href="#ma4393d07a1" x="366.776355" y="120.974371" style="fill: #4169e1; stroke: #4169e1"/>
     <use xlink:href="#ma4393d07a1" x="320.936496" y="210.19548" style="fill: #4169e1; stroke: #4169e1"/>
     <use xlink:href="#ma4393d07a1" x="322.085106" y="258.421037" style="fill: #4169e1; stroke: #4169e1"/>
     <use xlink:href="#ma4393d07a1" x="262.46051" y="119.231158" style="fill: #4169e1; stroke: #4169e1"/>
     <use xlink:href="#ma4393d07a1" x="431.23399" y="81.42926" style="fill: #4169e1; stroke: #4169e1"/>
     <use xlink:href="#ma4393d07a1" x="395.299666" y="174.916612" style="fill: #4169e1; stroke: #4169e1"/>
     <use xlink:href="#ma4393d07a1" x="359.529842" y="139.994406" style="fill: #4169e1; stroke: #4169e1"/>
     <use xlink:href="#ma4393d07a1" x="292.053085" y="220.62781" style="fill: #4169e1; stroke: #4169e1"/>
     <use xlink:href="#ma4393d07a1" x="400.06867" y="163.061358" style="fill: #4169e1; stroke: #4169e1"/>
     <use xlink:href="#ma4393d07a1" x="426.537805" y="326.782716" style="fill: #4169e1; stroke: #4169e1"/>
     <use xlink:href="#ma4393d07a1" x="385.651699" y="189.288159" style="fill: #4169e1; stroke: #4169e1"/>
     <use xlink:href="#ma4393d07a1" x="360.973712" y="207.155743" style="fill: #4169e1; stroke: #4169e1"/>
     <use xlink:href="#ma4393d07a1" x="297.461706" y="278.021805" style="fill: #4169e1; stroke: #4169e1"/>
     <use xlink:href="#ma4393d07a1" x="344.533992" y="215.767441" style="fill: #4169e1; stroke: #4169e1"/>
     <use xlink:href="#ma4393d07a1" x="347.509784" y="221.507619" style="fill: #4169e1; stroke: #4169e1"/>
     <use xlink:href="#ma4393d07a1" x="442.423707" y="321.035384" style="fill: #4169e1; stroke: #4169e1"/>
     <use xlink:href="#ma4393d07a1" x="246.569289" y="238.334579" style="fill: #4169e1; stroke: #4169e1"/>
     <use xlink:href="#ma4393d07a1" x="492.465995" y="170.953937" style="fill: #4169e1; stroke: #4169e1"/>
     <use xlink:href="#ma4393d07a1" x="291.663371" y="82.546736" style="fill: #4169e1; stroke: #4169e1"/>
     <use xlink:href="#ma4393d07a1" x="347.883111" y="303.275696" style="fill: #4169e1; stroke: #4169e1"/>
     <use xlink:href="#ma4393d07a1" x="378.988247" y="211.784134" style="fill: #4169e1; stroke: #4169e1"/>
     <use xlink:href="#ma4393d07a1" x="270.836008" y="172.48589" style="fill: #4169e1; stroke: #4169e1"/>
     <use xlink:href="#ma4393d07a1" x="328.754152" y="218.987583" style="fill: #4169e1; stroke: #4169e1"/>
     <use xlink:href="#ma4393d07a1" x="392.733523" y="257.088762" style="fill: #4169e1; stroke: #4169e1"/>
     <use xlink:href="#ma4393d07a1" x="423.980256" y="120.628101" style="fill: #4169e1; stroke: #4169e1"/>
     <use xlink:href="#ma4393d07a1" x="415.929288" y="233.474568" style="fill: #4169e1; stroke: #4169e1"/>
     <use xlink:href="#ma4393d07a1" x="368.424653" y="256.482256" style="fill: #4169e1; stroke: #4169e1"/>
     <use xlink:href="#ma4393d07a1" x="283.189907" y="216.669564" style="fill: #4169e1; stroke: #4169e1"/>
     <use xlink:href="#ma4393d07a1" x="148.536267" y="217.805877" style="fill: #4169e1; stroke: #4169e1"/>
     <use xlink:href="#ma4393d07a1" x="348.231533" y="124.236425" style="fill: #4169e1; stroke: #4169e1"/>
     <use xlink:href="#ma4393d07a1" x="413.346848" y="126.464434" style="fill: #4169e1; stroke: #4169e1"/>
     <use xlink:href="#ma4393d07a1" x="420.272476" y="172.90168" style="fill: #4169e1; stroke: #4169e1"/>
     <use xlink:href="#ma4393d07a1" x="396.784717" y="106.505614" style="fill: #4169e1; stroke: #4169e1"/>
     <use xlink:href="#ma4393d07a1" x="477.866962" y="210.019083" style="fill: #4169e1; stroke: #4169e1"/>
     <use xlink:href="#ma4393d07a1" x="274.722432" y="175.467235" style="fill: #4169e1; stroke: #4169e1"/>
     <use xlink:href="#ma4393d07a1" x="431.390281" y="124.203264" style="fill: #4169e1; stroke: #4169e1"/>
     <use xlink:href="#ma4393d07a1" x="499.970156" y="233.867989" style="fill: #4169e1; stroke: #4169e1"/>
     <use xlink:href="#ma4393d07a1" x="330.638053" y="185.094599" style="fill: #4169e1; stroke: #4169e1"/>
     <use xlink:href="#ma4393d07a1" x="372.539922" y="131.500669" style="fill: #4169e1; stroke: #4169e1"/>
     <use xlink:href="#ma4393d07a1" x="320.937281" y="292.876642" style="fill: #4169e1; stroke: #4169e1"/>
     <use xlink:href="#ma4393d07a1" x="356.447183" y="213.947788" style="fill: #4169e1; stroke: #4169e1"/>
     <use xlink:href="#ma4393d07a1" x="396.649203" y="224.30349" style="fill: #4169e1; stroke: #4169e1"/>
     <use xlink:href="#ma4393d07a1" x="379.41566" y="110.542962" style="fill: #4169e1; stroke: #4169e1"/>
     <use xlink:href="#ma4393d07a1" x="364.698133" y="199.74289" style="fill: #4169e1; stroke: #4169e1"/>
     <use xlink:href="#ma4393d07a1" x="271.748224" y="102.562363" style="fill: #4169e1; stroke: #4169e1"/>
     <use xlink:href="#ma4393d07a1" x="390.54145" y="249.924624" style="fill: #4169e1; stroke: #4169e1"/>
     <use xlink:href="#ma4393d07a1" x="268.757429" y="77.010857" style="fill: #4169e1; stroke: #4169e1"/>
     <use xlink:href="#ma4393d07a1" x="256.36594" y="211.485333" style="fill: #4169e1; stroke: #4169e1"/>
     <use xlink:href="#ma4393d07a1" x="234.256844" y="285.174326" style="fill: #4169e1; stroke: #4169e1"/>
     <use xlink:href="#ma4393d07a1" x="209.421975" y="240.048555" style="fill: #4169e1; stroke: #4169e1"/>
     <use xlink:href="#ma4393d07a1" x="392.90458" y="236.245844" style="fill: #4169e1; stroke: #4169e1"/>
     <use xlink:href="#ma4393d07a1" x="313.817075" y="167.291229" style="fill: #4169e1; stroke: #4169e1"/>
     <use xlink:href="#ma4393d07a1" x="281.376535" y="131.403609" style="fill: #4169e1; stroke: #4169e1"/>
     <use xlink:href="#ma4393d07a1" x="376.161619" y="211.808473" style="fill: #4169e1; stroke: #4169e1"/>
     <use xlink:href="#ma4393d07a1" x="438.93567" y="181.465495" style="fill: #4169e1; stroke: #4169e1"/>
     <use xlink:href="#ma4393d07a1" x="365.579218" y="150.847977" style="fill: #4169e1; stroke: #4169e1"/>
     <use xlink:href="#ma4393d07a1" x="368.53041" y="145.236105" style="fill: #4169e1; stroke: #4169e1"/>
     <use xlink:href="#ma4393d07a1" x="320.837439" y="261.396741" style="fill: #4169e1; stroke: #4169e1"/>
     <use xlink:href="#ma4393d07a1" x="357.366376" y="132.074194" style="fill: #4169e1; stroke: #4169e1"/>
     <use xlink:href="#ma4393d07a1" x="268.317481" y="336.986194" style="fill: #4169e1; stroke: #4169e1"/>
     <use xlink:href="#ma4393d07a1" x="227.04065" y="224.053723" style="fill: #4169e1; stroke: #4169e1"/>
     <use xlink:href="#ma4393d07a1" x="260.598878" y="153.872807" style="fill: #4169e1; stroke: #4169e1"/>
     <use xlink:href="#ma4393d07a1" x="447.359694" y="264.378499" style="fill: #4169e1; stroke: #4169e1"/>
     <use xlink:href="#ma4393d07a1" x="320.779174" y="185.204545" style="fill: #4169e1; stroke: #4169e1"/>
     <use xlink:href="#ma4393d07a1" x="368.602809" y="190.567458" style="fill: #4169e1; stroke: #4169e1"/>
     <use xlink:href="#ma4393d07a1" x="453.856529" y="147.170116" style="fill: #4169e1; stroke: #4169e1"/>
     <use xlink:href="#ma4393d07a1" x="327.691019" y="120.08051" style="fill: #4169e1; stroke: #4169e1"/>
     <use xlink:href="#ma4393d07a1" x="331.837562" y="230.431308" style="fill: #4169e1; stroke: #4169e1"/>
     <use xlink:href="#ma4393d07a1" x="337.492097" y="298.070603" style="fill: #4169e1; stroke: #4169e1"/>
     <use xlink:href="#ma4393d07a1" x="348.702279" y="140.986215" style="fill: #4169e1; stroke: #4169e1"/>
     <use xlink:href="#ma4393d07a1" x="210.871177" y="273.166572" style="fill: #4169e1; stroke: #4169e1"/>
     <use xlink:href="#ma4393d07a1" x="486.968393" y="257.343564" style="fill: #4169e1; stroke: #4169e1"/>
     <use xlink:href="#ma4393d07a1" x="451.809323" y="189.383399" style="fill: #4169e1; stroke: #4169e1"/>
     <use xlink:href="#ma4393d07a1" x="400.42834" y="275.636176" style="fill: #4169e1; stroke: #4169e1"/>
     <use xlink:href="#ma4393d07a1" x="373.446026" y="162.915428" style="fill: #4169e1; stroke: #4169e1"/>
     <use xlink:href="#ma4393d07a1" x="232.095618" y="127.816569" style="fill: #4169e1; stroke: #4169e1"/>
     <use xlink:href="#ma4393d07a1" x="380.000473" y="177.994009" style="fill: #4169e1; stroke: #4169e1"/>
     <use xlink:href="#ma4393d07a1" x="282.385483" y="139.229108" style="fill: #4169e1; stroke: #4169e1"/>
     <use xlink:href="#ma4393d07a1" x="261.559048" y="124.825089" style="fill: #4169e1; stroke: #4169e1"/>
     <use xlink:href="#ma4393d07a1" x="238.109535" y="118.702231" style="fill: #4169e1; stroke: #4169e1"/>
     <use xlink:href="#ma4393d07a1" x="301.765793" y="140.530398" style="fill: #4169e1; stroke: #4169e1"/>
     <use xlink:href="#ma4393d07a1" x="499.406417" y="185.171851" style="fill: #4169e1; stroke: #4169e1"/>
     <use xlink:href="#ma4393d07a1" x="473.737345" y="155.840568" style="fill: #4169e1; stroke: #4169e1"/>
     <use xlink:href="#ma4393d07a1" x="231.556307" y="192.84685" style="fill: #4169e1; stroke: #4169e1"/>
     <use xlink:href="#ma4393d07a1" x="137.937076" y="188.438253" style="fill: #4169e1; stroke: #4169e1"/>
     <use xlink:href="#ma4393d07a1" x="372.78476" y="158.602837" style="fill: #4169e1; stroke: #4169e1"/>
     <use xlink:href="#ma4393d07a1" x="294.397259" y="276.371064" style="fill: #4169e1; stroke: #4169e1"/>
     <use xlink:href="#ma4393d07a1" x="324.966203" y="159.590971" style="fill: #4169e1; stroke: #4169e1"/>
     <use xlink:href="#ma4393d07a1" x="436.199132" y="315.040589" style="fill: #4169e1; stroke: #4169e1"/>
     <use xlink:href="#ma4393d07a1" x="358.137162" y="284.306283" style="fill: #4169e1; stroke: #4169e1"/>
     <use xlink:href="#ma4393d07a1" x="380.199812" y="312.021572" style="fill: #4169e1; stroke: #4169e1"/>
     <use xlink:href="#ma4393d07a1" x="321.713834" y="166.302216" style="fill: #4169e1; stroke: #4169e1"/>
     <use xlink:href="#ma4393d07a1" x="264.27328" y="303.306245" style="fill: #4169e1; stroke: #4169e1"/>
     <use xlink:href="#ma4393d07a1" x="375.746969" y="181.895717" style="fill: #4169e1; stroke: #4169e1"/>
     <use xlink:href="#ma4393d07a1" x="302.448263" y="153.464607" style="fill: #4169e1; stroke: #4169e1"/>
     <use xlink:href="#ma4393d07a1" x="438.106155" y="236.646202" style="fill: #4169e1; stroke: #4169e1"/>
     <use xlink:href="#ma4393d07a1" x="312.597175" y="137.414355" style="fill: #4169e1; stroke: #4169e1"/>
     <use xlink:href="#ma4393d07a1" x="250.587356" y="97.960261" style="fill: #4169e1; stroke: #4169e1"/>
     <use xlink:href="#ma4393d07a1" x="497.794299" y="140.824267" style="fill: #4169e1; stroke: #4169e1"/>
     <use xlink:href="#ma4393d07a1" x="352.185829" y="160.763379" style="fill: #4169e1; stroke: #4169e1"/>
     <use xlink:href="#ma4393d07a1" x="320.992471" y="236.076278" style="fill: #4169e1; stroke: #4169e1"/>
     <use xlink:href="#ma4393d07a1" x="356.661472" y="225.800921" style="fill: #4169e1; stroke: #4169e1"/>
     <use xlink:href="#ma4393d07a1" x="327.563698" y="84.664284" style="fill: #4169e1; stroke: #4169e1"/>
     <use xlink:href="#ma4393d07a1" x="259.668682" y="166.740206" style="fill: #4169e1; stroke: #4169e1"/>
     <use xlink:href="#ma4393d07a1" x="411.106902" y="156.407651" style="fill: #4169e1; stroke: #4169e1"/>
     <use xlink:href="#ma4393d07a1" x="401.988335" y="169.112825" style="fill: #4169e1; stroke: #4169e1"/>
     <use xlink:href="#ma4393d07a1" x="297.198617" y="95.131765" style="fill: #4169e1; stroke: #4169e1"/>
     <use xlink:href="#ma4393d07a1" x="317.975159" y="274.8207" style="fill: #4169e1; stroke: #4169e1"/>
     <use xlink:href="#ma4393d07a1" x="252.848483" y="213.454467" style="fill: #4169e1; stroke: #4169e1"/>
     <use xlink:href="#ma4393d07a1" x="310.75322" y="139.647114" style="fill: #4169e1; stroke: #4169e1"/>
     <use xlink:href="#ma4393d07a1" x="281.740898" y="140.199247" style="fill: #4169e1; stroke: #4169e1"/>
     <use xlink:href="#ma4393d07a1" x="231.02268" y="129.022585" style="fill: #4169e1; stroke: #4169e1"/>
     <use xlink:href="#ma4393d07a1" x="248.712879" y="140.896842" style="fill: #4169e1; stroke: #4169e1"/>
     <use xlink:href="#ma4393d07a1" x="450.278754" y="124.698387" style="fill: #4169e1; stroke: #4169e1"/>
     <use xlink:href="#ma4393d07a1" x="375.33481" y="250.339588" style="fill: #4169e1; stroke: #4169e1"/>
     <use xlink:href="#ma4393d07a1" x="359.270799" y="282.78689" style="fill: #4169e1; stroke: #4169e1"/>
     <use xlink:href="#ma4393d07a1" x="266.946697" y="193.867482" style="fill: #4169e1; stroke: #4169e1"/>
     <use xlink:href="#ma4393d07a1" x="381.075341" y="156.480037" style="fill: #4169e1; stroke: #4169e1"/>
     <use xlink:href="#ma4393d07a1" x="422.651808" y="177.564951" style="fill: #4169e1; stroke: #4169e1"/>
     <use xlink:href="#ma4393d07a1" x="392.859169" y="246.361629" style="fill: #4169e1; stroke: #4169e1"/>
     <use xlink:href="#ma4393d07a1" x="298.43642" y="277.82608" style="fill: #4169e1; stroke: #4169e1"/>
     <use xlink:href="#ma4393d07a1" x="301.635373" y="195.304144" style="fill: #4169e1; stroke: #4169e1"/>
    </g>
   </g>
   <g id="PathCollection_2">
    <defs>
     <path id="m230f2620e7" d="M 0 2.5 
C 0.663008 2.5 1.29895 2.236584 1.767767 1.767767 
C 2.236584 1.29895 2.5 0.663008 2.5 0 
C 2.5 -0.663008 2.236584 -1.29895 1.767767 -1.767767 
C 1.29895 -2.236584 0.663008 -2.5 0 -2.5 
C -0.663008 -2.5 -1.29895 -2.236584 -1.767767 -1.767767 
C -2.236584 -1.29895 -2.5 -0.663008 -2.5 0 
C -2.5 0.663008 -2.236584 1.29895 -1.767767 1.767767 
C -1.29895 2.236584 -0.663008 2.5 0 2.5 
z
" style="stroke: #b22222"/>
    </defs>
    <g clip-path="url(#p5710748607)">
     <use xlink:href="#m230f2620e7" x="242.65502" y="225.803738" style="fill: #b22222; stroke: #b22222"/>
     <use xlink:href="#m230f2620e7" x="221.704293" y="230.028281" style="fill: #b22222; stroke: #b22222"/>
     <use xlink:href="#m230f2620e7" x="238.581344" y="222.260799" style="fill: #b22222; stroke: #b22222"/>
     <use xlink:href="#m230f2620e7" x="211.301284" y="223.003822" style="fill: #b22222; stroke: #b22222"/>
     <use xlink:href="#m230f2620e7" x="253.631157" y="228.818232" style="fill: #b22222; stroke: #b22222"/>
     <use xlink:href="#m230f2620e7" x="237.754339" y="217.181704" style="fill: #b22222; stroke: #b22222"/>
     <use xlink:href="#m230f2620e7" x="226.527039" y="230.910998" style="fill: #b22222; stroke: #b22222"/>
     <use xlink:href="#m230f2620e7" x="250.383778" y="247.14353" style="fill: #b22222; stroke: #b22222"/>
     <use xlink:href="#m230f2620e7" x="229.91657" y="226.191536" style="fill: #b22222; stroke: #b22222"/>
     <use xlink:href="#m230f2620e7" x="225.020691" y="229.046367" style="fill: #b22222; stroke: #b22222"/>
     <use xlink:href="#m230f2620e7" x="221.947249" y="211.61522" style="fill: #b22222; stroke: #b22222"/>
     <use xlink:href="#m230f2620e7" x="255.570706" y="247.032719" style="fill: #b22222; stroke: #b22222"/>
     <use xlink:href="#m230f2620e7" x="232.806752" y="223.125748" style="fill: #b22222; stroke: #b22222"/>
     <use xlink:href="#m230f2620e7" x="252.814604" y="240.667715" style="fill: #b22222; stroke: #b22222"/>
     <use xlink:href="#m230f2620e7" x="250.363462" y="234.712346" style="fill: #b22222; stroke: #b22222"/>
     <use xlink:href="#m230f2620e7" x="244.997519" y="212.460717" style="fill: #b22222; stroke: #b22222"/>
     <use xlink:href="#m230f2620e7" x="291.416189" y="256.27874" style="fill: #b22222; stroke: #b22222"/>
     <use xlink:href="#m230f2620e7" x="248.715701" y="225.350253" style="fill: #b22222; stroke: #b22222"/>
     <use xlink:href="#m230f2620e7" x="233.214336" y="222.420499" style="fill: #b22222; stroke: #b22222"/>
     <use xlink:href="#m230f2620e7" x="227.578023" y="226.153114" style="fill: #b22222; stroke: #b22222"/>
     <use xlink:href="#m230f2620e7" x="227.110624" y="221.908628" style="fill: #b22222; stroke: #b22222"/>
     <use xlink:href="#m230f2620e7" x="234.602972" y="227.750172" style="fill: #b22222; stroke: #b22222"/>
     <use xlink:href="#m230f2620e7" x="231.173861" y="213.814186" style="fill: #b22222; stroke: #b22222"/>
     <use xlink:href="#m230f2620e7" x="273.710903" y="209.558545" style="fill: #b22222; stroke: #b22222"/>
     <use xlink:href="#m230f2620e7" x="219.290125" y="223.263834" style="fill: #b22222; stroke: #b22222"/>
     <use xlink:href="#m230f2620e7" x="236.4502" y="218.013974" style="fill: #b22222; stroke: #b22222"/>
     <use xlink:href="#m230f2620e7" x="237.213274" y="220.94825" style="fill: #b22222; stroke: #b22222"/>
     <use xlink:href="#m230f2620e7" x="246.170993" y="226.95564" style="fill: #b22222; stroke: #b22222"/>
     <use xlink:href="#m230f2620e7" x="295.337249" y="271.455004" style="fill: #b22222; stroke: #b22222"/>
     <use xlink:href="#m230f2620e7" x="224.776621" y="234.148332" style="fill: #b22222; stroke: #b22222"/>
     <use xlink:href="#m230f2620e7" x="255.782018" y="236.237573" style="fill: #b22222; stroke: #b22222"/>
     <use xlink:href="#m230f2620e7" x="223.919274" y="222.52201" style="fill: #b22222; stroke: #b22222"/>
     <use xlink:href="#m230f2620e7" x="226.836997" y="228.91251" style="fill: #b22222; stroke: #b22222"/>
     <use xlink:href="#m230f2620e7" x="223.812993" y="231.369529" style="fill: #b22222; stroke: #b22222"/>
     <use xlink:href="#m230f2620e7" x="267.620747" y="245.430455" style="fill: #b22222; stroke: #b22222"/>
     <use xlink:href="#m230f2620e7" x="241.875804" y="223.841098" style="fill: #b22222; stroke: #b22222"/>
     <use xlink:href="#m230f2620e7" x="259.891671" y="246.637285" style="fill: #b22222; stroke: #b22222"/>
     <use xlink:href="#m230f2620e7" x="235.146507" y="225.432255" style="fill: #b22222; stroke: #b22222"/>
     <use xlink:href="#m230f2620e7" x="243.164283" y="226.453033" style="fill: #b22222; stroke: #b22222"/>
     <use xlink:href="#m230f2620e7" x="243.810398" y="225.253351" style="fill: #b22222; stroke: #b22222"/>
     <use xlink:href="#m230f2620e7" x="234.163289" y="228.672914" style="fill: #b22222; stroke: #b22222"/>
     <use xlink:href="#m230f2620e7" x="252.760325" y="242.874945" style="fill: #b22222; stroke: #b22222"/>
     <use xlink:href="#m230f2620e7" x="260.690401" y="235.080726" style="fill: #b22222; stroke: #b22222"/>
     <use xlink:href="#m230f2620e7" x="248.070899" y="226.233398" style="fill: #b22222; stroke: #b22222"/>
     <use xlink:href="#m230f2620e7" x="266.83333" y="259.521053" style="fill: #b22222; stroke: #b22222"/>
     <use xlink:href="#m230f2620e7" x="231.739833" y="224.973534" style="fill: #b22222; stroke: #b22222"/>
     <use xlink:href="#m230f2620e7" x="241.282596" y="221.251359" style="fill: #b22222; stroke: #b22222"/>
     <use xlink:href="#m230f2620e7" x="249.236902" y="236.656729" style="fill: #b22222; stroke: #b22222"/>
     <use xlink:href="#m230f2620e7" x="264.780167" y="234.187537" style="fill: #b22222; stroke: #b22222"/>
     <use xlink:href="#m230f2620e7" x="254.307948" y="230.260824" style="fill: #b22222; stroke: #b22222"/>
     <use xlink:href="#m230f2620e7" x="352.248429" y="214.177124" style="fill: #b22222; stroke: #b22222"/>
     <use xlink:href="#m230f2620e7" x="235.841429" y="222.981194" style="fill: #b22222; stroke: #b22222"/>
     <use xlink:href="#m230f2620e7" x="240.305611" y="242.056119" style="fill: #b22222; stroke: #b22222"/>
     <use xlink:href="#m230f2620e7" x="244.761357" y="232.776892" style="fill: #b22222; stroke: #b22222"/>
     <use xlink:href="#m230f2620e7" x="228.304181" y="225.668426" style="fill: #b22222; stroke: #b22222"/>
     <use xlink:href="#m230f2620e7" x="229.831217" y="233.867824" style="fill: #b22222; stroke: #b22222"/>
     <use xlink:href="#m230f2620e7" x="258.821646" y="245.663505" style="fill: #b22222; stroke: #b22222"/>
     <use xlink:href="#m230f2620e7" x="220.722206" y="228.097324" style="fill: #b22222; stroke: #b22222"/>
     <use xlink:href="#m230f2620e7" x="234.253572" y="225.063249" style="fill: #b22222; stroke: #b22222"/>
     <use xlink:href="#m230f2620e7" x="251.370188" y="231.477745" style="fill: #b22222; stroke: #b22222"/>
     <use xlink:href="#m230f2620e7" x="270.501881" y="211.264764" style="fill: #b22222; stroke: #b22222"/>
     <use xlink:href="#m230f2620e7" x="288.786216" y="258.03603" style="fill: #b22222; stroke: #b22222"/>
     <use xlink:href="#m230f2620e7" x="258.472359" y="243.087124" style="fill: #b22222; stroke: #b22222"/>
     <use xlink:href="#m230f2620e7" x="250.780152" y="236.136998" style="fill: #b22222; stroke: #b22222"/>
     <use xlink:href="#m230f2620e7" x="288.40994" y="259.844706" style="fill: #b22222; stroke: #b22222"/>
     <use xlink:href="#m230f2620e7" x="267.731967" y="195.860259" style="fill: #b22222; stroke: #b22222"/>
     <use xlink:href="#m230f2620e7" x="276.350764" y="252.730573" style="fill: #b22222; stroke: #b22222"/>
     <use xlink:href="#m230f2620e7" x="255.718131" y="205.457248" style="fill: #b22222; stroke: #b22222"/>
     <use xlink:href="#m230f2620e7" x="227.813186" y="217.222422" style="fill: #b22222; stroke: #b22222"/>
     <use xlink:href="#m230f2620e7" x="252.409825" y="237.405021" style="fill: #b22222; stroke: #b22222"/>
     <use xlink:href="#m230f2620e7" x="263.83703" y="243.466996" style="fill: #b22222; stroke: #b22222"/>
     <use xlink:href="#m230f2620e7" x="269.803116" y="254.643522" style="fill: #b22222; stroke: #b22222"/>
     <use xlink:href="#m230f2620e7" x="240.163231" y="227.097181" style="fill: #b22222; stroke: #b22222"/>
     <use xlink:href="#m230f2620e7" x="254.727503" y="228.007656" style="fill: #b22222; stroke: #b22222"/>
     <use xlink:href="#m230f2620e7" x="248.887296" y="232.895308" style="fill: #b22222; stroke: #b22222"/>
     <use xlink:href="#m230f2620e7" x="233.486163" y="225.399322" style="fill: #b22222; stroke: #b22222"/>
     <use xlink:href="#m230f2620e7" x="239.543839" y="219.38479" style="fill: #b22222; stroke: #b22222"/>
     <use xlink:href="#m230f2620e7" x="235.638791" y="214.288124" style="fill: #b22222; stroke: #b22222"/>
     <use xlink:href="#m230f2620e7" x="225.975105" y="224.251987" style="fill: #b22222; stroke: #b22222"/>
     <use xlink:href="#m230f2620e7" x="371.092757" y="202.701942" style="fill: #b22222; stroke: #b22222"/>
     <use xlink:href="#m230f2620e7" x="267.440792" y="234.041859" style="fill: #b22222; stroke: #b22222"/>
     <use xlink:href="#m230f2620e7" x="239.366494" y="214.526208" style="fill: #b22222; stroke: #b22222"/>
     <use xlink:href="#m230f2620e7" x="240.992639" y="223.575234" style="fill: #b22222; stroke: #b22222"/>
     <use xlink:href="#m230f2620e7" x="234.684478" y="215.448273" style="fill: #b22222; stroke: #b22222"/>
     <use xlink:href="#m230f2620e7" x="247.57243" y="230.568838" style="fill: #b22222; stroke: #b22222"/>
     <use xlink:href="#m230f2620e7" x="258.453569" y="219.913964" style="fill: #b22222; stroke: #b22222"/>
     <use xlink:href="#m230f2620e7" x="276.917478" y="249.842427" style="fill: #b22222; stroke: #b22222"/>
     <use xlink:href="#m230f2620e7" x="234.746029" y="223.68727" style="fill: #b22222; stroke: #b22222"/>
     <use xlink:href="#m230f2620e7" x="228.889729" y="225.258662" style="fill: #b22222; stroke: #b22222"/>
     <use xlink:href="#m230f2620e7" x="244.322818" y="219.356858" style="fill: #b22222; stroke: #b22222"/>
     <use xlink:href="#m230f2620e7" x="222.150006" y="228.784271" style="fill: #b22222; stroke: #b22222"/>
    </g>
   </g>
   <g id="patch_4">
    <path d="M 56.450156 450.72 
L 56.450156 7.2 
" style="fill: none; stroke: #ffffff; stroke-width: 1.25; stroke-linejoin: miter; stroke-linecap: square"/>
   </g>
   <g id="patch_5">
    <path d="M 499.970156 450.72 
L 499.970156 7.2 
" style="fill: none; stroke: #ffffff; stroke-width: 1.25; stroke-linejoin: miter; stroke-linecap: square"/>
   </g>
   <g id="patch_6">
    <path d="M 56.450156 450.72 
L 499.970156 450.72 
" style="fill: none; stroke: #ffffff; stroke-width: 1.25; stroke-linejoin: miter; stroke-linecap: square"/>
   </g>
   <g id="patch_7">
    <path d="M 56.450156 7.2 
L 499.970156 7.2 
" style="fill: none; stroke: #ffffff; stroke-width: 1.25; stroke-linejoin: miter; stroke-linecap: square"/>
   </g>
   <g id="text_13">
    <!-- t = 1500 -->
    <g style="fill: #262626" transform="translate(65.320556 24.659775) scale(0.12 -0.12)">
     <defs>
      <path id="ArialMT-74" d="M 1650 503 
L 1731 6 
Q 1494 -44 1306 -44 
Q 1000 -44 831 53 
Q 663 150 594 308 
Q 525 466 525 972 
L 525 2881 
L 113 2881 
L 113 3319 
L 525 3319 
L 525 4141 
L 1084 4478 
L 1084 3319 
L 1650 3319 
L 1650 2881 
L 1084 2881 
L 1084 941 
Q 1084 700 1114 631 
Q 1144 563 1211 522 
Q 1278 481 1403 481 
Q 1497 481 1650 503 
z
" transform="scale(0.015625)"/>
      <path id="ArialMT-20" transform="scale(0.015625)"/>
      <path id="ArialMT-3d" d="M 3381 2694 
L 356 2694 
L 356 3219 
L 3381 3219 
L 3381 2694 
z
M 3381 1303 
L 356 1303 
L 356 1828 
L 3381 1828 
L 3381 1303 
z
" transform="scale(0.015625)"/>
      <path id="ArialMT-31" d="M 2384 0 
L 1822 0 
L 1822 3584 
Q 1619 3391 1289 3197 
Q 959 3003 697 2906 
L 697 3450 
Q 1169 3672 1522 3987 
Q 1875 4303 2022 4600 
L 2384 4600 
L 2384 0 
z
" transform="scale(0.015625)"/>
      <path id="ArialMT-35" d="M 266 1200 
L 856 1250 
Q 922 819 1161 601 
Q 1400 384 1738 384 
Q 2144 384 2425 690 
Q 2706 997 2706 1503 
Q 2706 1984 2436 2262 
Q 2166 2541 1728 2541 
Q 1456 2541 1237 2417 
Q 1019 2294 894 2097 
L 366 2166 
L 809 4519 
L 3088 4519 
L 3088 3981 
L 1259 3981 
L 1013 2750 
Q 1425 3038 1878 3038 
Q 2478 3038 2890 2622 
Q 3303 2206 3303 1553 
Q 3303 931 2941 478 
Q 2500 -78 1738 -78 
Q 1113 -78 717 272 
Q 322 622 266 1200 
z
" transform="scale(0.015625)"/>
     </defs>
     <use xlink:href="#ArialMT-74"/>
     <use xlink:href="#ArialMT-20" x="27.783203"/>
     <use xlink:href="#ArialMT-3d" x="55.566406"/>
     <use xlink:href="#ArialMT-20" x="113.964844"/>
     <use xlink:href="#ArialMT-31" x="141.748047"/>
     <use xlink:href="#ArialMT-35" x="197.363281"/>
     <use xlink:href="#ArialMT-30" x="252.978516"/>
     <use xlink:href="#ArialMT-30" x="308.59375"/>
    </g>
   </g>
   <g id="legend_1">
    <g id="patch_8">
     <path d="M 328.111406 94.59 
L 483.170156 94.59 
Q 487.970156 94.59 487.970156 89.79 
L 487.970156 24 
Q 487.970156 19.2 483.170156 19.2 
L 328.111406 19.2 
Q 323.311406 19.2 323.311406 24 
L 323.311406 89.79 
Q 323.311406 94.59 328.111406 94.59 
z
" style="fill: #eaeaf2; opacity: 0.8; stroke: #cccccc; stroke-linejoin: miter"/>
    </g>
    <g id="PathCollection_3">
     <g>
      <use xlink:href="#ma4393d07a1" x="356.911406" y="39.97125" style="fill: #4169e1; stroke: #4169e1"/>
     </g>
    </g>
    <g id="text_14">
     <!-- Sheep -->
     <g style="fill: #262626" transform="translate(400.111406 46.27125) scale(0.24 -0.24)">
      <defs>
       <path id="ArialMT-53" d="M 288 1472 
L 859 1522 
Q 900 1178 1048 958 
Q 1197 738 1509 602 
Q 1822 466 2213 466 
Q 2559 466 2825 569 
Q 3091 672 3220 851 
Q 3350 1031 3350 1244 
Q 3350 1459 3225 1620 
Q 3100 1781 2813 1891 
Q 2628 1963 1997 2114 
Q 1366 2266 1113 2400 
Q 784 2572 623 2826 
Q 463 3081 463 3397 
Q 463 3744 659 4045 
Q 856 4347 1234 4503 
Q 1613 4659 2075 4659 
Q 2584 4659 2973 4495 
Q 3363 4331 3572 4012 
Q 3781 3694 3797 3291 
L 3216 3247 
Q 3169 3681 2898 3903 
Q 2628 4125 2100 4125 
Q 1550 4125 1298 3923 
Q 1047 3722 1047 3438 
Q 1047 3191 1225 3031 
Q 1400 2872 2139 2705 
Q 2878 2538 3153 2413 
Q 3553 2228 3743 1945 
Q 3934 1663 3934 1294 
Q 3934 928 3725 604 
Q 3516 281 3123 101 
Q 2731 -78 2241 -78 
Q 1619 -78 1198 103 
Q 778 284 539 648 
Q 300 1013 288 1472 
z
" transform="scale(0.015625)"/>
       <path id="ArialMT-68" d="M 422 0 
L 422 4581 
L 984 4581 
L 984 2938 
Q 1378 3394 1978 3394 
Q 2347 3394 2619 3248 
Q 2891 3103 3008 2847 
Q 3125 2591 3125 2103 
L 3125 0 
L 2563 0 
L 2563 2103 
Q 2563 2525 2380 2717 
Q 2197 2909 1863 2909 
Q 1613 2909 1392 2779 
Q 1172 2650 1078 2428 
Q 984 2206 984 1816 
L 984 0 
L 422 0 
z
" transform="scale(0.015625)"/>
       <path id="ArialMT-65" d="M 2694 1069 
L 3275 997 
Q 3138 488 2766 206 
Q 2394 -75 1816 -75 
Q 1088 -75 661 373 
Q 234 822 234 1631 
Q 234 2469 665 2931 
Q 1097 3394 1784 3394 
Q 2450 3394 2872 2941 
Q 3294 2488 3294 1666 
Q 3294 1616 3291 1516 
L 816 1516 
Q 847 969 1125 678 
Q 1403 388 1819 388 
Q 2128 388 2347 550 
Q 2566 713 2694 1069 
z
M 847 1978 
L 2700 1978 
Q 2663 2397 2488 2606 
Q 2219 2931 1791 2931 
Q 1403 2931 1139 2672 
Q 875 2413 847 1978 
z
" transform="scale(0.015625)"/>
       <path id="ArialMT-70" d="M 422 -1272 
L 422 3319 
L 934 3319 
L 934 2888 
Q 1116 3141 1344 3267 
Q 1572 3394 1897 3394 
Q 2322 3394 2647 3175 
Q 2972 2956 3137 2557 
Q 3303 2159 3303 1684 
Q 3303 1175 3120 767 
Q 2938 359 2589 142 
Q 2241 -75 1856 -75 
Q 1575 -75 1351 44 
Q 1128 163 984 344 
L 984 -1272 
L 422 -1272 
z
M 931 1641 
Q 931 1000 1190 694 
Q 1450 388 1819 388 
Q 2194 388 2461 705 
Q 2728 1022 2728 1688 
Q 2728 2322 2467 2637 
Q 2206 2953 1844 2953 
Q 1484 2953 1207 2617 
Q 931 2281 931 1641 
z
" transform="scale(0.015625)"/>
      </defs>
      <use xlink:href="#ArialMT-53"/>
      <use xlink:href="#ArialMT-68" x="66.699219"/>
      <use xlink:href="#ArialMT-65" x="122.314453"/>
      <use xlink:href="#ArialMT-65" x="177.929688"/>
      <use xlink:href="#ArialMT-70" x="233.544922"/>
     </g>
    </g>
    <g id="PathCollection_4">
     <g>
      <use xlink:href="#m230f2620e7" x="356.911406" y="73.92" style="fill: #b22222; stroke: #b22222"/>
     </g>
    </g>
    <g id="text_15">
     <!-- Wolves -->
     <g style="fill: #262626" transform="translate(400.111406 80.22) scale(0.24 -0.24)">
      <defs>
       <path id="ArialMT-57" d="M 1294 0 
L 78 4581 
L 700 4581 
L 1397 1578 
Q 1509 1106 1591 641 
Q 1766 1375 1797 1488 
L 2669 4581 
L 3400 4581 
L 4056 2263 
Q 4303 1400 4413 641 
Q 4500 1075 4641 1638 
L 5359 4581 
L 5969 4581 
L 4713 0 
L 4128 0 
L 3163 3491 
Q 3041 3928 3019 4028 
Q 2947 3713 2884 3491 
L 1913 0 
L 1294 0 
z
" transform="scale(0.015625)"/>
       <path id="ArialMT-6f" d="M 213 1659 
Q 213 2581 725 3025 
Q 1153 3394 1769 3394 
Q 2453 3394 2887 2945 
Q 3322 2497 3322 1706 
Q 3322 1066 3130 698 
Q 2938 331 2570 128 
Q 2203 -75 1769 -75 
Q 1072 -75 642 372 
Q 213 819 213 1659 
z
M 791 1659 
Q 791 1022 1069 705 
Q 1347 388 1769 388 
Q 2188 388 2466 706 
Q 2744 1025 2744 1678 
Q 2744 2294 2464 2611 
Q 2184 2928 1769 2928 
Q 1347 2928 1069 2612 
Q 791 2297 791 1659 
z
" transform="scale(0.015625)"/>
       <path id="ArialMT-6c" d="M 409 0 
L 409 4581 
L 972 4581 
L 972 0 
L 409 0 
z
" transform="scale(0.015625)"/>
       <path id="ArialMT-76" d="M 1344 0 
L 81 3319 
L 675 3319 
L 1388 1331 
Q 1503 1009 1600 663 
Q 1675 925 1809 1294 
L 2547 3319 
L 3125 3319 
L 1869 0 
L 1344 0 
z
" transform="scale(0.015625)"/>
       <path id="ArialMT-73" d="M 197 991 
L 753 1078 
Q 800 744 1014 566 
Q 1228 388 1613 388 
Q 2000 388 2187 545 
Q 2375 703 2375 916 
Q 2375 1106 2209 1216 
Q 2094 1291 1634 1406 
Q 1016 1563 777 1677 
Q 538 1791 414 1992 
Q 291 2194 291 2438 
Q 291 2659 392 2848 
Q 494 3038 669 3163 
Q 800 3259 1026 3326 
Q 1253 3394 1513 3394 
Q 1903 3394 2198 3281 
Q 2494 3169 2634 2976 
Q 2775 2784 2828 2463 
L 2278 2388 
Q 2241 2644 2061 2787 
Q 1881 2931 1553 2931 
Q 1166 2931 1000 2803 
Q 834 2675 834 2503 
Q 834 2394 903 2306 
Q 972 2216 1119 2156 
Q 1203 2125 1616 2013 
Q 2213 1853 2448 1751 
Q 2684 1650 2818 1456 
Q 2953 1263 2953 975 
Q 2953 694 2789 445 
Q 2625 197 2315 61 
Q 2006 -75 1616 -75 
Q 969 -75 630 194 
Q 291 463 197 991 
z
" transform="scale(0.015625)"/>
      </defs>
      <use xlink:href="#ArialMT-57"/>
      <use xlink:href="#ArialMT-6f" x="92.634766"/>
      <use xlink:href="#ArialMT-6c" x="148.25"/>
      <use xlink:href="#ArialMT-76" x="170.466797"/>
      <use xlink:href="#ArialMT-65" x="220.466797"/>
      <use xlink:href="#ArialMT-73" x="276.082031"/>
     </g>
    </g>
   </g>
  </g>
 </g>
 <defs>
  <clipPath id="p5710748607">
   <rect x="56.450156" y="7.2" width="443.52" height="443.52"/>
  </clipPath>
 </defs>
</svg>
