<?xml version="1.0" encoding="utf-8" standalone="no"?>
<!DOCTYPE svg PUBLIC "-//W3C//DTD SVG 1.1//EN"
  "http://www.w3.org/Graphics/SVG/1.1/DTD/svg11.dtd">
<svg xmlns:xlink="http://www.w3.org/1999/xlink" width="507.170156pt" height="492.454219pt" viewBox="0 0 507.170156 492.454219" xmlns="http://www.w3.org/2000/svg" version="1.1">
 <metadata>
  <rdf:RDF xmlns:dc="http://purl.org/dc/elements/1.1/" xmlns:cc="http://creativecommons.org/ns#" xmlns:rdf="http://www.w3.org/1999/02/22-rdf-syntax-ns#">
   <cc:Work>
    <dc:type rdf:resource="http://purl.org/dc/dcmitype/StillImage"/>
    <dc:date>2026-05-12T10:43:21.412272</dc:date>
    <dc:format>image/svg+xml</dc:format>
    <dc:creator>
     <cc:Agent>
      <dc:title>Matplotlib v3.7.1, https://matplotlib.org/</dc:title>
     </cc:Agent>
    </dc:creator>
   </cc:Work>
  </rdf:RDF>
 </metadata>
 <defs>
  <style type="text/css">*{stroke-linejoin: round; stroke-linecap: butt}</style>
 </defs>
 <g id="figure_1">
  <g id="patch_1">
   <path d="M 0 492.454219 
L 507.170156 492.454219 
L 507.170156 0 
L 0 0 
z
" style="fill: #ffffff"/>
  </g>
  <g id="axes_1">
   <g id="patch_2">
    <path d="M 56.450156 450.72 
L 499.970156 450.72 
L 499.970156 7.2 
L 56.450156 7.2 
z
" style="fill: #eaeaf2"/>
   </g>
   <g id="matplotlib.axis_1">
    <g id="xtick_1">
     <g id="line2d_1">
      <path d="M 100.802156 450.72 
L 100.802156 7.2 
" clip-path="url(#p9167babc98)" style="fill: none; stroke: #ffffff; stroke-linecap: round"/>
     </g>
     <g id="text_1">
      <!-- −400 -->
      <g style="fill: #262626" transform="translate(88.414266 468.093594) scale(0.11 -0.11)">
       <defs>
        <path id="ArialMT-2212" d="M 3381 1997 
L 356 1997 
L 356 2522 
L 3381 2522 
L 3381 1997 
z
" transform="scale(0.015625)"/>
        <path id="ArialMT-34" d="M 2069 0 
L 2069 1097 
L 81 1097 
L 81 1613 
L 2172 4581 
L 2631 4581 
L 2631 1613 
L 3250 1613 
L 3250 1097 
L 2631 1097 
L 2631 0 
L 2069 0 
z
M 2069 1613 
L 2069 3678 
L 634 1613 
L 2069 1613 
z
" transform="scale(0.015625)"/>
        <path id="ArialMT-30" d="M 266 2259 
Q 266 3072 433 3567 
Q 600 4063 929 4331 
Q 1259 4600 1759 4600 
Q 2128 4600 2406 4451 
Q 2684 4303 2865 4023 
Q 3047 3744 3150 3342 
Q 3253 2941 3253 2259 
Q 3253 1453 3087 958 
Q 2922 463 2592 192 
Q 2263 -78 1759 -78 
Q 1097 -78 719 397 
Q 266 969 266 2259 
z
M 844 2259 
Q 844 1131 1108 757 
Q 1372 384 1759 384 
Q 2147 384 2411 759 
Q 2675 1134 2675 2259 
Q 2675 3391 2411 3762 
Q 2147 4134 1753 4134 
Q 1366 4134 1134 3806 
Q 844 3388 844 2259 
z
" transform="scale(0.015625)"/>
       </defs>
       <use xlink:href="#ArialMT-2212"/>
       <use xlink:href="#ArialMT-34" x="58.398438"/>
       <use xlink:href="#ArialMT-30" x="114.013672"/>
       <use xlink:href="#ArialMT-30" x="169.628906"/>
      </g>
     </g>
    </g>
    <g id="xtick_2">
     <g id="line2d_2">
      <path d="M 189.506156 450.72 
L 189.506156 7.2 
" clip-path="url(#p9167babc98)" style="fill: none; stroke: #ffffff; stroke-linecap: round"/>
     </g>
     <g id="text_2">
      <!-- −200 -->
      <g style="fill: #262626" transform="translate(177.118266 468.093594) scale(0.11 -0.11)">
       <defs>
        <path id="ArialMT-32" d="M 3222 541 
L 3222 0 
L 194 0 
Q 188 203 259 391 
Q 375 700 629 1000 
Q 884 1300 1366 1694 
Q 2113 2306 2375 2664 
Q 2638 3022 2638 3341 
Q 2638 3675 2398 3904 
Q 2159 4134 1775 4134 
Q 1369 4134 1125 3890 
Q 881 3647 878 3216 
L 300 3275 
Q 359 3922 746 4261 
Q 1134 4600 1788 4600 
Q 2447 4600 2831 4234 
Q 3216 3869 3216 3328 
Q 3216 3053 3103 2787 
Q 2991 2522 2730 2228 
Q 2469 1934 1863 1422 
Q 1356 997 1212 845 
Q 1069 694 975 541 
L 3222 541 
z
" transform="scale(0.015625)"/>
       </defs>
       <use xlink:href="#ArialMT-2212"/>
       <use xlink:href="#ArialMT-32" x="58.398438"/>
       <use xlink:href="#ArialMT-30" x="114.013672"/>
       <use xlink:href="#ArialMT-30" x="169.628906"/>
      </g>
     </g>
    </g>
    <g id="xtick_3">
     <g id="line2d_3">
      <path d="M 278.210156 450.72 
L 278.210156 7.2 
" clip-path="url(#p9167babc98)" style="fill: none; stroke: #ffffff; stroke-linecap: round"/>
     </g>
     <g id="text_3">
      <!-- 0 -->
      <g style="fill: #262626" transform="translate(275.151641 468.093594) scale(0.11 -0.11)">
       <use xlink:href="#ArialMT-30"/>
      </g>
     </g>
    </g>
    <g id="xtick_4">
     <g id="line2d_4">
      <path d="M 366.914156 450.72 
L 366.914156 7.2 
" clip-path="url(#p9167babc98)" style="fill: none; stroke: #ffffff; stroke-linecap: round"/>
     </g>
     <g id="text_4">
      <!-- 200 -->
      <g style="fill: #262626" transform="translate(357.738609 468.093594) scale(0.11 -0.11)">
       <use xlink:href="#ArialMT-32"/>
       <use xlink:href="#ArialMT-30" x="55.615234"/>
       <use xlink:href="#ArialMT-30" x="111.230469"/>
      </g>
     </g>
    </g>
    <g id="xtick_5">
     <g id="line2d_5">
      <path d="M 455.618156 450.72 
L 455.618156 7.2 
" clip-path="url(#p9167babc98)" style="fill: none; stroke: #ffffff; stroke-linecap: round"/>
     </g>
     <g id="text_5">
      <!-- 400 -->
      <g style="fill: #262626" transform="translate(446.442609 468.093594) scale(0.11 -0.11)">
       <use xlink:href="#ArialMT-34"/>
       <use xlink:href="#ArialMT-30" x="55.615234"/>
       <use xlink:href="#ArialMT-30" x="111.230469"/>
      </g>
     </g>
    </g>
    <g id="text_6">
     <!-- x -->
     <g style="fill: #262626" transform="translate(275.210156 482.869219) scale(0.12 -0.12)">
      <defs>
       <path id="ArialMT-78" d="M 47 0 
L 1259 1725 
L 138 3319 
L 841 3319 
L 1350 2541 
Q 1494 2319 1581 2169 
Q 1719 2375 1834 2534 
L 2394 3319 
L 3066 3319 
L 1919 1756 
L 3153 0 
L 2463 0 
L 1781 1031 
L 1600 1309 
L 728 0 
L 47 0 
z
" transform="scale(0.015625)"/>
      </defs>
      <use xlink:href="#ArialMT-78"/>
     </g>
    </g>
   </g>
   <g id="matplotlib.axis_2">
    <g id="ytick_1">
     <g id="line2d_6">
      <path d="M 56.450156 406.368 
L 499.970156 406.368 
" clip-path="url(#p9167babc98)" style="fill: none; stroke: #ffffff; stroke-linecap: round"/>
     </g>
     <g id="text_7">
      <!-- −400 -->
      <g style="fill: #262626" transform="translate(22.174375 410.304797) scale(0.11 -0.11)">
       <use xlink:href="#ArialMT-2212"/>
       <use xlink:href="#ArialMT-34" x="58.398438"/>
       <use xlink:href="#ArialMT-30" x="114.013672"/>
       <use xlink:href="#ArialMT-30" x="169.628906"/>
      </g>
     </g>
    </g>
    <g id="ytick_2">
     <g id="line2d_7">
      <path d="M 56.450156 317.664 
L 499.970156 317.664 
" clip-path="url(#p9167babc98)" style="fill: none; stroke: #ffffff; stroke-linecap: round"/>
     </g>
     <g id="text_8">
      <!-- −200 -->
      <g style="fill: #262626" transform="translate(22.174375 321.600797) scale(0.11 -0.11)">
       <use xlink:href="#ArialMT-2212"/>
       <use xlink:href="#ArialMT-32" x="58.398438"/>
       <use xlink:href="#ArialMT-30" x="114.013672"/>
       <use xlink:href="#ArialMT-30" x="169.628906"/>
      </g>
     </g>
    </g>
    <g id="ytick_3">
     <g id="line2d_8">
      <path d="M 56.450156 228.96 
L 499.970156 228.96 
" clip-path="url(#p9167babc98)" style="fill: none; stroke: #ffffff; stroke-linecap: round"/>
     </g>
     <g id="text_9">
      <!-- 0 -->
      <g style="fill: #262626" transform="translate(40.833125 232.896797) scale(0.11 -0.11)">
       <use xlink:href="#ArialMT-30"/>
      </g>
     </g>
    </g>
    <g id="ytick_4">
     <g id="line2d_9">
      <path d="M 56.450156 140.256 
L 499.970156 140.256 
" clip-path="url(#p9167babc98)" style="fill: none; stroke: #ffffff; stroke-linecap: round"/>
     </g>
     <g id="text_10">
      <!-- 200 -->
      <g style="fill: #262626" transform="translate(28.599063 144.192797) scale(0.11 -0.11)">
       <use xlink:href="#ArialMT-32"/>
       <use xlink:href="#ArialMT-30" x="55.615234"/>
       <use xlink:href="#ArialMT-30" x="111.230469"/>
      </g>
     </g>
    </g>
    <g id="ytick_5">
     <g id="line2d_10">
      <path d="M 56.450156 51.552 
L 499.970156 51.552 
" clip-path="url(#p9167babc98)" style="fill: none; stroke: #ffffff; stroke-linecap: round"/>
     </g>
     <g id="text_11">
      <!-- 400 -->
      <g style="fill: #262626" transform="translate(28.599063 55.488797) scale(0.11 -0.11)">
       <use xlink:href="#ArialMT-34"/>
       <use xlink:href="#ArialMT-30" x="55.615234"/>
       <use xlink:href="#ArialMT-30" x="111.230469"/>
      </g>
     </g>
    </g>
    <g id="text_12">
     <!-- y -->
     <g style="fill: #262626" transform="translate(15.64875 231.96) rotate(-90) scale(0.12 -0.12)">
      <defs>
       <path id="ArialMT-79" d="M 397 -1278 
L 334 -750 
Q 519 -800 656 -800 
Q 844 -800 956 -737 
Q 1069 -675 1141 -563 
Q 1194 -478 1313 -144 
Q 1328 -97 1363 -6 
L 103 3319 
L 709 3319 
L 1400 1397 
Q 1534 1031 1641 628 
Q 1738 1016 1872 1384 
L 2581 3319 
L 3144 3319 
L 1881 -56 
Q 1678 -603 1566 -809 
Q 1416 -1088 1222 -1217 
Q 1028 -1347 759 -1347 
Q 597 -1347 397 -1278 
z
" transform="scale(0.015625)"/>
      </defs>
      <use xlink:href="#ArialMT-79"/>
     </g>
    </g>
   </g>
   <g id="patch_3">
    <path d="M 278.210156 317.664 
C 301.734732 317.664 324.298969 308.317587 340.933356 291.6832 
C 357.567743 275.048813 366.914156 252.484576 366.914156 228.96 
C 366.914156 205.435424 357.567743 182.871187 340.933356 166.2368 
C 324.298969 149.602413 301.734732 140.256 278.210156 140.256 
C 254.68558 140.256 232.121343 149.602413 215.486956 166.2368 
C 198.852569 182.871187 189.506156 205.435424 189.506156 228.96 
C 189.506156 252.484576 198.852569 275.048813 215.486956 291.6832 
C 232.121343 308.317587 254.68558 317.664 278.210156 317.664 
z
" clip-path="url(#p9167babc98)" style="fill: #228b22; opacity: 0.12; stroke: #228b22; stroke-width: 1.5; stroke-linejoin: miter"/>
   </g>
   <g id="PathCollection_1">
    <defs>
     <path id="m899a4ed35d" d="M 0 2.236068 
C 0.593012 2.236068 1.161816 2.000462 1.581139 1.581139 
C 2.000462 1.161816 2.236068 0.593012 2.236068 0 
C 2.236068 -0.593012 2.000462 -1.161816 1.581139 -1.581139 
C 1.161816 -2.000462 0.593012 -2.236068 0 -2.236068 
C -0.593012 -2.236068 -1.161816 -2.000462 -1.581139 -1.581139 
C -2.000462 -1.161816 -2.236068 -0.593012 -2.236068 0 
C -2.236068 0.593012 -2.000462 1.161816 -1.581139 1.581139 
C -1.161816 2.000462 -0.593012 2.236068 0 2.236068 
z
" style="stroke: #4169e1"/>
    </defs>
    <g clip-path="url(#p9167babc98)">
     <use xlink:href="#m899a4ed35d" x="284.675136" y="119.144675" style="fill: #4169e1; stroke: #4169e1"/>
     <use xlink:href="#m899a4ed35d" x="419.702849" y="103.277723" style="fill: #4169e1; stroke: #4169e1"/>
     <use xlink:href="#m899a4ed35d" x="358.303611" y="201.272183" style="fill: #4169e1; stroke: #4169e1"/>
     <use xlink:href="#m899a4ed35d" x="437.434662" y="109.934272" style="fill: #4169e1; stroke: #4169e1"/>
     <use xlink:href="#m899a4ed35d" x="252.892567" y="230.102539" style="fill: #4169e1; stroke: #4169e1"/>
     <use xlink:href="#m899a4ed35d" x="381.378738" y="122.318778" style="fill: #4169e1; stroke: #4169e1"/>
     <use xlink:href="#m899a4ed35d" x="222.405644" y="191.975842" style="fill: #4169e1; stroke: #4169e1"/>
     <use xlink:href="#m899a4ed35d" x="244.236579" y="306.780591" style="fill: #4169e1; stroke: #4169e1"/>
     <use xlink:href="#m899a4ed35d" x="324.108203" y="241.729236" style="fill: #4169e1; stroke: #4169e1"/>
     <use xlink:href="#m899a4ed35d" x="332.486376" y="288.122466" style="fill: #4169e1; stroke: #4169e1"/>
     <use xlink:href="#m899a4ed35d" x="212.207226" y="180.828676" style="fill: #4169e1; stroke: #4169e1"/>
     <use xlink:href="#m899a4ed35d" x="284.712262" y="69.549196" style="fill: #4169e1; stroke: #4169e1"/>
     <use xlink:href="#m899a4ed35d" x="304.113102" y="145.550161" style="fill: #4169e1; stroke: #4169e1"/>
     <use xlink:href="#m899a4ed35d" x="458.742314" y="212.773149" style="fill: #4169e1; stroke: #4169e1"/>
     <use xlink:href="#m899a4ed35d" x="368.216042" y="231.102376" style="fill: #4169e1; stroke: #4169e1"/>
     <use xlink:href="#m899a4ed35d" x="306.201342" y="155.468886" style="fill: #4169e1; stroke: #4169e1"/>
     <use xlink:href="#m899a4ed35d" x="206.693632" y="250.342464" style="fill: #4169e1; stroke: #4169e1"/>
     <use xlink:href="#m899a4ed35d" x="300.576361" y="185.955658" style="fill: #4169e1; stroke: #4169e1"/>
     <use xlink:href="#m899a4ed35d" x="262.042015" y="178.099715" style="fill: #4169e1; stroke: #4169e1"/>
     <use xlink:href="#m899a4ed35d" x="360.527146" y="192.0589" style="fill: #4169e1; stroke: #4169e1"/>
     <use xlink:href="#m899a4ed35d" x="354.557377" y="282.748664" style="fill: #4169e1; stroke: #4169e1"/>
     <use xlink:href="#m899a4ed35d" x="268.450381" y="250.008344" style="fill: #4169e1; stroke: #4169e1"/>
     <use xlink:href="#m899a4ed35d" x="384.128703" y="322.870115" style="fill: #4169e1; stroke: #4169e1"/>
     <use xlink:href="#m899a4ed35d" x="237.010887" y="211.399641" style="fill: #4169e1; stroke: #4169e1"/>
     <use xlink:href="#m899a4ed35d" x="332.558299" y="254.534322" style="fill: #4169e1; stroke: #4169e1"/>
     <use xlink:href="#m899a4ed35d" x="303.290994" y="153.382151" style="fill: #4169e1; stroke: #4169e1"/>
     <use xlink:href="#m899a4ed35d" x="316.763722" y="309.631974" style="fill: #4169e1; stroke: #4169e1"/>
     <use xlink:href="#m899a4ed35d" x="224.153013" y="308.036592" style="fill: #4169e1; stroke: #4169e1"/>
     <use xlink:href="#m899a4ed35d" x="394.275867" y="277.639318" style="fill: #4169e1; stroke: #4169e1"/>
     <use xlink:href="#m899a4ed35d" x="204.625988" y="231.599624" style="fill: #4169e1; stroke: #4169e1"/>
     <use xlink:href="#m899a4ed35d" x="334.216812" y="253.168579" style="fill: #4169e1; stroke: #4169e1"/>
     <use xlink:href="#m899a4ed35d" x="334.600192" y="178.923201" style="fill: #4169e1; stroke: #4169e1"/>
     <use xlink:href="#m899a4ed35d" x="249.004551" y="195.766647" style="fill: #4169e1; stroke: #4169e1"/>
     <use xlink:href="#m899a4ed35d" x="408.505932" y="193.099845" style="fill: #4169e1; stroke: #4169e1"/>
     <use xlink:href="#m899a4ed35d" x="298.379827" y="73.65556" style="fill: #4169e1; stroke: #4169e1"/>
     <use xlink:href="#m899a4ed35d" x="286.607939" y="290.358873" style="fill: #4169e1; stroke: #4169e1"/>
     <use xlink:href="#m899a4ed35d" x="428.52907" y="182.989398" style="fill: #4169e1; stroke: #4169e1"/>
     <use xlink:href="#m899a4ed35d" x="474.043808" y="199.161318" style="fill: #4169e1; stroke: #4169e1"/>
     <use xlink:href="#m899a4ed35d" x="391.231614" y="236.49689" style="fill: #4169e1; stroke: #4169e1"/>
     <use xlink:href="#m899a4ed35d" x="279.612821" y="325.261391" style="fill: #4169e1; stroke: #4169e1"/>
     <use xlink:href="#m899a4ed35d" x="163.592301" y="256.079582" style="fill: #4169e1; stroke: #4169e1"/>
     <use xlink:href="#m899a4ed35d" x="383.593827" y="172.135421" style="fill: #4169e1; stroke: #4169e1"/>
     <use xlink:href="#m899a4ed35d" x="214.975815" y="209.961781" style="fill: #4169e1; stroke: #4169e1"/>
     <use xlink:href="#m899a4ed35d" x="280.080369" y="153.301529" style="fill: #4169e1; stroke: #4169e1"/>
     <use xlink:href="#m899a4ed35d" x="197.041036" y="199.720648" style="fill: #4169e1; stroke: #4169e1"/>
     <use xlink:href="#m899a4ed35d" x="209.148125" y="158.644498" style="fill: #4169e1; stroke: #4169e1"/>
     <use xlink:href="#m899a4ed35d" x="474.535405" y="240.731953" style="fill: #4169e1; stroke: #4169e1"/>
     <use xlink:href="#m899a4ed35d" x="203.650198" y="245.552391" style="fill: #4169e1; stroke: #4169e1"/>
     <use xlink:href="#m899a4ed35d" x="362.812124" y="197.254204" style="fill: #4169e1; stroke: #4169e1"/>
     <use xlink:href="#m899a4ed35d" x="283.695178" y="314.664576" style="fill: #4169e1; stroke: #4169e1"/>
     <use xlink:href="#m899a4ed35d" x="313.947016" y="252.541091" style="fill: #4169e1; stroke: #4169e1"/>
     <use xlink:href="#m899a4ed35d" x="447.356852" y="158.561324" style="fill: #4169e1; stroke: #4169e1"/>
     <use xlink:href="#m899a4ed35d" x="319.324956" y="83.360253" style="fill: #4169e1; stroke: #4169e1"/>
     <use xlink:href="#m899a4ed35d" x="278.402262" y="177.849203" style="fill: #4169e1; stroke: #4169e1"/>
     <use xlink:href="#m899a4ed35d" x="354.802607" y="231.680366" style="fill: #4169e1; stroke: #4169e1"/>
     <use xlink:href="#m899a4ed35d" x="212.83594" y="287.696426" style="fill: #4169e1; stroke: #4169e1"/>
     <use xlink:href="#m899a4ed35d" x="190.929655" y="234.892813" style="fill: #4169e1; stroke: #4169e1"/>
     <use xlink:href="#m899a4ed35d" x="384.853781" y="169.415748" style="fill: #4169e1; stroke: #4169e1"/>
     <use xlink:href="#m899a4ed35d" x="151.52912" y="259.837931" style="fill: #4169e1; stroke: #4169e1"/>
     <use xlink:href="#m899a4ed35d" x="428.755108" y="127.686246" style="fill: #4169e1; stroke: #4169e1"/>
     <use xlink:href="#m899a4ed35d" x="330.379108" y="124.231478" style="fill: #4169e1; stroke: #4169e1"/>
     <use xlink:href="#m899a4ed35d" x="405.215102" y="206.021979" style="fill: #4169e1; stroke: #4169e1"/>
     <use xlink:href="#m899a4ed35d" x="384.856244" y="184.191516" style="fill: #4169e1; stroke: #4169e1"/>
     <use xlink:href="#m899a4ed35d" x="452.065435" y="204.681222" style="fill: #4169e1; stroke: #4169e1"/>
     <use xlink:href="#m899a4ed35d" x="215.004151" y="262.414061" style="fill: #4169e1; stroke: #4169e1"/>
     <use xlink:href="#m899a4ed35d" x="371.855706" y="209.015986" style="fill: #4169e1; stroke: #4169e1"/>
     <use xlink:href="#m899a4ed35d" x="307.217918" y="281.122462" style="fill: #4169e1; stroke: #4169e1"/>
     <use xlink:href="#m899a4ed35d" x="404.592133" y="168.54045" style="fill: #4169e1; stroke: #4169e1"/>
     <use xlink:href="#m899a4ed35d" x="393.08813" y="93.301189" style="fill: #4169e1; stroke: #4169e1"/>
     <use xlink:href="#m899a4ed35d" x="287.946842" y="210.138474" style="fill: #4169e1; stroke: #4169e1"/>
     <use xlink:href="#m899a4ed35d" x="410.701334" y="122.571601" style="fill: #4169e1; stroke: #4169e1"/>
     <use xlink:href="#m899a4ed35d" x="340.239449" y="185.820774" style="fill: #4169e1; stroke: #4169e1"/>
     <use xlink:href="#m899a4ed35d" x="337.552572" y="253.072588" style="fill: #4169e1; stroke: #4169e1"/>
     <use xlink:href="#m899a4ed35d" x="275.566995" y="283.790268" style="fill: #4169e1; stroke: #4169e1"/>
     <use xlink:href="#m899a4ed35d" x="248.798485" y="169.818257" style="fill: #4169e1; stroke: #4169e1"/>
     <use xlink:href="#m899a4ed35d" x="363.382644" y="228.219158" style="fill: #4169e1; stroke: #4169e1"/>
     <use xlink:href="#m899a4ed35d" x="436.979921" y="282.202625" style="fill: #4169e1; stroke: #4169e1"/>
     <use xlink:href="#m899a4ed35d" x="311.384388" y="173.873058" style="fill: #4169e1; stroke: #4169e1"/>
     <use xlink:href="#m899a4ed35d" x="299.153476" y="240.786005" style="fill: #4169e1; stroke: #4169e1"/>
     <use xlink:href="#m899a4ed35d" x="360.310184" y="128.329531" style="fill: #4169e1; stroke: #4169e1"/>
     <use xlink:href="#m899a4ed35d" x="252.643319" y="319.587373" style="fill: #4169e1; stroke: #4169e1"/>
     <use xlink:href="#m899a4ed35d" x="206.600673" y="126.108297" style="fill: #4169e1; stroke: #4169e1"/>
     <use xlink:href="#m899a4ed35d" x="331.177808" y="199.055111" style="fill: #4169e1; stroke: #4169e1"/>
     <use xlink:href="#m899a4ed35d" x="275.702322" y="318.894752" style="fill: #4169e1; stroke: #4169e1"/>
     <use xlink:href="#m899a4ed35d" x="240.690382" y="198.236589" style="fill: #4169e1; stroke: #4169e1"/>
     <use xlink:href="#m899a4ed35d" x="245.901041" y="272.593182" style="fill: #4169e1; stroke: #4169e1"/>
     <use xlink:href="#m899a4ed35d" x="328.23406" y="99.782594" style="fill: #4169e1; stroke: #4169e1"/>
     <use xlink:href="#m899a4ed35d" x="230.597612" y="88.0396" style="fill: #4169e1; stroke: #4169e1"/>
     <use xlink:href="#m899a4ed35d" x="187.68316" y="298.784372" style="fill: #4169e1; stroke: #4169e1"/>
     <use xlink:href="#m899a4ed35d" x="193.165528" y="176.597421" style="fill: #4169e1; stroke: #4169e1"/>
     <use xlink:href="#m899a4ed35d" x="360.787637" y="330.984123" style="fill: #4169e1; stroke: #4169e1"/>
     <use xlink:href="#m899a4ed35d" x="213.400702" y="99.573367" style="fill: #4169e1; stroke: #4169e1"/>
     <use xlink:href="#m899a4ed35d" x="374.558609" y="143.892321" style="fill: #4169e1; stroke: #4169e1"/>
     <use xlink:href="#m899a4ed35d" x="218.919289" y="247.163547" style="fill: #4169e1; stroke: #4169e1"/>
     <use xlink:href="#m899a4ed35d" x="322.968133" y="142.787182" style="fill: #4169e1; stroke: #4169e1"/>
     <use xlink:href="#m899a4ed35d" x="388.042901" y="157.007928" style="fill: #4169e1; stroke: #4169e1"/>
     <use xlink:href="#m899a4ed35d" x="291.91795" y="193.473439" style="fill: #4169e1; stroke: #4169e1"/>
     <use xlink:href="#m899a4ed35d" x="185.21897" y="197.304156" style="fill: #4169e1; stroke: #4169e1"/>
     <use xlink:href="#m899a4ed35d" x="292.532329" y="164.794" style="fill: #4169e1; stroke: #4169e1"/>
     <use xlink:href="#m899a4ed35d" x="292.606514" y="195.655466" style="fill: #4169e1; stroke: #4169e1"/>
     <use xlink:href="#m899a4ed35d" x="326.330662" y="283.410086" style="fill: #4169e1; stroke: #4169e1"/>
     <use xlink:href="#m899a4ed35d" x="241.139231" y="178.132223" style="fill: #4169e1; stroke: #4169e1"/>
     <use xlink:href="#m899a4ed35d" x="217.432885" y="211.548935" style="fill: #4169e1; stroke: #4169e1"/>
     <use xlink:href="#m899a4ed35d" x="480.857798" y="177.953887" style="fill: #4169e1; stroke: #4169e1"/>
     <use xlink:href="#m899a4ed35d" x="368.481609" y="255.768116" style="fill: #4169e1; stroke: #4169e1"/>
     <use xlink:href="#m899a4ed35d" x="351.271265" y="178.791267" style="fill: #4169e1; stroke: #4169e1"/>
     <use xlink:href="#m899a4ed35d" x="427.570646" y="260.576572" style="fill: #4169e1; stroke: #4169e1"/>
     <use xlink:href="#m899a4ed35d" x="280.721294" y="202.78124" style="fill: #4169e1; stroke: #4169e1"/>
     <use xlink:href="#m899a4ed35d" x="301.645073" y="195.229704" style="fill: #4169e1; stroke: #4169e1"/>
     <use xlink:href="#m899a4ed35d" x="389.253438" y="57.999431" style="fill: #4169e1; stroke: #4169e1"/>
     <use xlink:href="#m899a4ed35d" x="263.834144" y="216.499689" style="fill: #4169e1; stroke: #4169e1"/>
     <use xlink:href="#m899a4ed35d" x="298.039253" y="182.552947" style="fill: #4169e1; stroke: #4169e1"/>
     <use xlink:href="#m899a4ed35d" x="422.552135" y="272.529316" style="fill: #4169e1; stroke: #4169e1"/>
     <use xlink:href="#m899a4ed35d" x="214.369555" y="124.973658" style="fill: #4169e1; stroke: #4169e1"/>
     <use xlink:href="#m899a4ed35d" x="401.930566" y="235.213388" style="fill: #4169e1; stroke: #4169e1"/>
     <use xlink:href="#m899a4ed35d" x="244.054897" y="153.622698" style="fill: #4169e1; stroke: #4169e1"/>
     <use xlink:href="#m899a4ed35d" x="332.489334" y="128.140079" style="fill: #4169e1; stroke: #4169e1"/>
     <use xlink:href="#m899a4ed35d" x="409.236248" y="244.64318" style="fill: #4169e1; stroke: #4169e1"/>
     <use xlink:href="#m899a4ed35d" x="408.524421" y="227.956416" style="fill: #4169e1; stroke: #4169e1"/>
     <use xlink:href="#m899a4ed35d" x="223.324512" y="175.166724" style="fill: #4169e1; stroke: #4169e1"/>
     <use xlink:href="#m899a4ed35d" x="301.98656" y="109.147771" style="fill: #4169e1; stroke: #4169e1"/>
     <use xlink:href="#m899a4ed35d" x="257.577821" y="329.644109" style="fill: #4169e1; stroke: #4169e1"/>
     <use xlink:href="#m899a4ed35d" x="293.423616" y="92.714616" style="fill: #4169e1; stroke: #4169e1"/>
     <use xlink:href="#m899a4ed35d" x="320.067113" y="134.677242" style="fill: #4169e1; stroke: #4169e1"/>
     <use xlink:href="#m899a4ed35d" x="203.486572" y="219.833838" style="fill: #4169e1; stroke: #4169e1"/>
     <use xlink:href="#m899a4ed35d" x="475.163517" y="115.833604" style="fill: #4169e1; stroke: #4169e1"/>
     <use xlink:href="#m899a4ed35d" x="217.121942" y="297.496956" style="fill: #4169e1; stroke: #4169e1"/>
     <use xlink:href="#m899a4ed35d" x="373.891651" y="258.332819" style="fill: #4169e1; stroke: #4169e1"/>
     <use xlink:href="#m899a4ed35d" x="248.522111" y="206.535868" style="fill: #4169e1; stroke: #4169e1"/>
     <use xlink:href="#m899a4ed35d" x="311.159396" y="119.260678" style="fill: #4169e1; stroke: #4169e1"/>
     <use xlink:href="#m899a4ed35d" x="257.874553" y="271.654272" style="fill: #4169e1; stroke: #4169e1"/>
     <use xlink:href="#m899a4ed35d" x="351.469589" y="113.768132" style="fill: #4169e1; stroke: #4169e1"/>
     <use xlink:href="#m899a4ed35d" x="262.652942" y="296.90419" style="fill: #4169e1; stroke: #4169e1"/>
     <use xlink:href="#m899a4ed35d" x="417.454863" y="188.804565" style="fill: #4169e1; stroke: #4169e1"/>
     <use xlink:href="#m899a4ed35d" x="350.823366" y="296.666019" style="fill: #4169e1; stroke: #4169e1"/>
     <use xlink:href="#m899a4ed35d" x="485.328812" y="191.710069" style="fill: #4169e1; stroke: #4169e1"/>
     <use xlink:href="#m899a4ed35d" x="352.008322" y="337.769223" style="fill: #4169e1; stroke: #4169e1"/>
     <use xlink:href="#m899a4ed35d" x="367.763548" y="163.448402" style="fill: #4169e1; stroke: #4169e1"/>
     <use xlink:href="#m899a4ed35d" x="340.055696" y="90.72235" style="fill: #4169e1; stroke: #4169e1"/>
     <use xlink:href="#m899a4ed35d" x="329.484083" y="116.942201" style="fill: #4169e1; stroke: #4169e1"/>
     <use xlink:href="#m899a4ed35d" x="229.590917" y="278.920691" style="fill: #4169e1; stroke: #4169e1"/>
     <use xlink:href="#m899a4ed35d" x="307.551045" y="191.930029" style="fill: #4169e1; stroke: #4169e1"/>
     <use xlink:href="#m899a4ed35d" x="222.5688" y="202.852066" style="fill: #4169e1; stroke: #4169e1"/>
     <use xlink:href="#m899a4ed35d" x="355.760781" y="321.42031" style="fill: #4169e1; stroke: #4169e1"/>
     <use xlink:href="#m899a4ed35d" x="355.822096" y="120.027973" style="fill: #4169e1; stroke: #4169e1"/>
     <use xlink:href="#m899a4ed35d" x="394.123502" y="186.532401" style="fill: #4169e1; stroke: #4169e1"/>
     <use xlink:href="#m899a4ed35d" x="244.786205" y="116.338249" style="fill: #4169e1; stroke: #4169e1"/>
     <use xlink:href="#m899a4ed35d" x="369.882768" y="92.701257" style="fill: #4169e1; stroke: #4169e1"/>
     <use xlink:href="#m899a4ed35d" x="299.824413" y="167.063548" style="fill: #4169e1; stroke: #4169e1"/>
     <use xlink:href="#m899a4ed35d" x="306.918707" y="246.233854" style="fill: #4169e1; stroke: #4169e1"/>
     <use xlink:href="#m899a4ed35d" x="342.926029" y="216.667689" style="fill: #4169e1; stroke: #4169e1"/>
     <use xlink:href="#m899a4ed35d" x="368.645756" y="214.815167" style="fill: #4169e1; stroke: #4169e1"/>
     <use xlink:href="#m899a4ed35d" x="281.619847" y="294.122201" style="fill: #4169e1; stroke: #4169e1"/>
    </g>
   </g>
   <g id="PathCollection_2">
    <defs>
     <path id="mbbd175903e" d="M 0 2.5 
C 0.663008 2.5 1.29895 2.236584 1.767767 1.767767 
C 2.236584 1.29895 2.5 0.663008 2.5 0 
C 2.5 -0.663008 2.236584 -1.29895 1.767767 -1.767767 
C 1.29895 -2.236584 0.663008 -2.5 0 -2.5 
C -0.663008 -2.5 -1.29895 -2.236584 -1.767767 -1.767767 
C -2.236584 -1.29895 -2.5 -0.663008 -2.5 0 
C -2.5 0.663008 -2.236584 1.29895 -1.767767 1.767767 
C -1.29895 2.236584 -0.663008 2.5 0 2.5 
z
" style="stroke: #b22222"/>
    </defs>
    <g clip-path="url(#p9167babc98)">
     <use xlink:href="#mbbd175903e" x="330.199273" y="234.203217" style="fill: #b22222; stroke: #b22222"/>
     <use xlink:href="#mbbd175903e" x="283.555719" y="264.127578" style="fill: #b22222; stroke: #b22222"/>
     <use xlink:href="#mbbd175903e" x="269.716059" y="256.968693" style="fill: #b22222; stroke: #b22222"/>
     <use xlink:href="#mbbd175903e" x="270.512441" y="237.784758" style="fill: #b22222; stroke: #b22222"/>
     <use xlink:href="#mbbd175903e" x="272.155397" y="255.856504" style="fill: #b22222; stroke: #b22222"/>
     <use xlink:href="#mbbd175903e" x="279.226232" y="255.154321" style="fill: #b22222; stroke: #b22222"/>
     <use xlink:href="#mbbd175903e" x="262.23499" y="255.003009" style="fill: #b22222; stroke: #b22222"/>
     <use xlink:href="#mbbd175903e" x="277.571032" y="258.281906" style="fill: #b22222; stroke: #b22222"/>
     <use xlink:href="#mbbd175903e" x="283.69302" y="278.008895" style="fill: #b22222; stroke: #b22222"/>
     <use xlink:href="#mbbd175903e" x="276.954088" y="257.859491" style="fill: #b22222; stroke: #b22222"/>
     <use xlink:href="#mbbd175903e" x="251.767438" y="296.283373" style="fill: #b22222; stroke: #b22222"/>
     <use xlink:href="#mbbd175903e" x="272.269238" y="237.934471" style="fill: #b22222; stroke: #b22222"/>
     <use xlink:href="#mbbd175903e" x="269.27415" y="238.213635" style="fill: #b22222; stroke: #b22222"/>
     <use xlink:href="#mbbd175903e" x="277.276235" y="195.70139" style="fill: #b22222; stroke: #b22222"/>
     <use xlink:href="#mbbd175903e" x="272.378805" y="237.368026" style="fill: #b22222; stroke: #b22222"/>
     <use xlink:href="#mbbd175903e" x="275.104815" y="262.520386" style="fill: #b22222; stroke: #b22222"/>
     <use xlink:href="#mbbd175903e" x="273.8134" y="236.603529" style="fill: #b22222; stroke: #b22222"/>
     <use xlink:href="#mbbd175903e" x="277.726137" y="272.395409" style="fill: #b22222; stroke: #b22222"/>
     <use xlink:href="#mbbd175903e" x="286.34679" y="257.313151" style="fill: #b22222; stroke: #b22222"/>
     <use xlink:href="#mbbd175903e" x="267.222234" y="259.556434" style="fill: #b22222; stroke: #b22222"/>
     <use xlink:href="#mbbd175903e" x="278.66562" y="242.894264" style="fill: #b22222; stroke: #b22222"/>
     <use xlink:href="#mbbd175903e" x="277.555063" y="279.826779" style="fill: #b22222; stroke: #b22222"/>
     <use xlink:href="#mbbd175903e" x="290.278249" y="193.594325" style="fill: #b22222; stroke: #b22222"/>
     <use xlink:href="#mbbd175903e" x="279.439186" y="226.823104" style="fill: #b22222; stroke: #b22222"/>
     <use xlink:href="#mbbd175903e" x="301.586124" y="244.926248" style="fill: #b22222; stroke: #b22222"/>
     <use xlink:href="#mbbd175903e" x="276.67259" y="275.674548" style="fill: #b22222; stroke: #b22222"/>
     <use xlink:href="#mbbd175903e" x="286.881423" y="287.707079" style="fill: #b22222; stroke: #b22222"/>
     <use xlink:href="#mbbd175903e" x="276.025433" y="209.495582" style="fill: #b22222; stroke: #b22222"/>
     <use xlink:href="#mbbd175903e" x="269.129973" y="282.29261" style="fill: #b22222; stroke: #b22222"/>
     <use xlink:href="#mbbd175903e" x="286.381188" y="257.366919" style="fill: #b22222; stroke: #b22222"/>
     <use xlink:href="#mbbd175903e" x="273.167914" y="214.927257" style="fill: #b22222; stroke: #b22222"/>
     <use xlink:href="#mbbd175903e" x="284.298679" y="245.633864" style="fill: #b22222; stroke: #b22222"/>
     <use xlink:href="#mbbd175903e" x="291.795205" y="238.703443" style="fill: #b22222; stroke: #b22222"/>
     <use xlink:href="#mbbd175903e" x="272.659479" y="243.293991" style="fill: #b22222; stroke: #b22222"/>
     <use xlink:href="#mbbd175903e" x="290.845973" y="250.443063" style="fill: #b22222; stroke: #b22222"/>
     <use xlink:href="#mbbd175903e" x="278.372915" y="230.459992" style="fill: #b22222; stroke: #b22222"/>
     <use xlink:href="#mbbd175903e" x="280.651079" y="258.486602" style="fill: #b22222; stroke: #b22222"/>
     <use xlink:href="#mbbd175903e" x="295.045451" y="223.521131" style="fill: #b22222; stroke: #b22222"/>
     <use xlink:href="#mbbd175903e" x="267.409635" y="240.558418" style="fill: #b22222; stroke: #b22222"/>
     <use xlink:href="#mbbd175903e" x="263.052482" y="297.792658" style="fill: #b22222; stroke: #b22222"/>
     <use xlink:href="#mbbd175903e" x="269.685658" y="234.52624" style="fill: #b22222; stroke: #b22222"/>
     <use xlink:href="#mbbd175903e" x="264.674948" y="245.52407" style="fill: #b22222; stroke: #b22222"/>
     <use xlink:href="#mbbd175903e" x="291.683447" y="250.696804" style="fill: #b22222; stroke: #b22222"/>
     <use xlink:href="#mbbd175903e" x="281.399874" y="219.009094" style="fill: #b22222; stroke: #b22222"/>
     <use xlink:href="#mbbd175903e" x="277.706351" y="260.621715" style="fill: #b22222; stroke: #b22222"/>
     <use xlink:href="#mbbd175903e" x="281.766327" y="250.596096" style="fill: #b22222; stroke: #b22222"/>
     <use xlink:href="#mbbd175903e" x="289.794335" y="272.590691" style="fill: #b22222; stroke: #b22222"/>
     <use xlink:href="#mbbd175903e" x="282.175699" y="213.705532" style="fill: #b22222; stroke: #b22222"/>
     <use xlink:href="#mbbd175903e" x="267.499011" y="242.750791" style="fill: #b22222; stroke: #b22222"/>
     <use xlink:href="#mbbd175903e" x="270.721912" y="210.591233" style="fill: #b22222; stroke: #b22222"/>
     <use xlink:href="#mbbd175903e" x="275.638887" y="245.743969" style="fill: #b22222; stroke: #b22222"/>
     <use xlink:href="#mbbd175903e" x="263.059528" y="242.066645" style="fill: #b22222; stroke: #b22222"/>
     <use xlink:href="#mbbd175903e" x="268.129322" y="250.979329" style="fill: #b22222; stroke: #b22222"/>
     <use xlink:href="#mbbd175903e" x="273.104796" y="246.901755" style="fill: #b22222; stroke: #b22222"/>
     <use xlink:href="#mbbd175903e" x="262.596678" y="232.191242" style="fill: #b22222; stroke: #b22222"/>
     <use xlink:href="#mbbd175903e" x="275.762942" y="259.979279" style="fill: #b22222; stroke: #b22222"/>
     <use xlink:href="#mbbd175903e" x="271.01424" y="262.516353" style="fill: #b22222; stroke: #b22222"/>
     <use xlink:href="#mbbd175903e" x="283.328614" y="254.218987" style="fill: #b22222; stroke: #b22222"/>
     <use xlink:href="#mbbd175903e" x="258.585762" y="204.639994" style="fill: #b22222; stroke: #b22222"/>
     <use xlink:href="#mbbd175903e" x="274.163608" y="228.739635" style="fill: #b22222; stroke: #b22222"/>
     <use xlink:href="#mbbd175903e" x="268.721345" y="216.508555" style="fill: #b22222; stroke: #b22222"/>
     <use xlink:href="#mbbd175903e" x="264.527902" y="235.964478" style="fill: #b22222; stroke: #b22222"/>
     <use xlink:href="#mbbd175903e" x="269.080086" y="228.975692" style="fill: #b22222; stroke: #b22222"/>
     <use xlink:href="#mbbd175903e" x="282.360851" y="244.70884" style="fill: #b22222; stroke: #b22222"/>
     <use xlink:href="#mbbd175903e" x="272.910317" y="245.549483" style="fill: #b22222; stroke: #b22222"/>
     <use xlink:href="#mbbd175903e" x="261.516619" y="222.903137" style="fill: #b22222; stroke: #b22222"/>
     <use xlink:href="#mbbd175903e" x="276.669935" y="245.250799" style="fill: #b22222; stroke: #b22222"/>
    </g>
   </g>
   <g id="patch_4">
    <path d="M 56.450156 450.72 
L 56.450156 7.2 
" style="fill: none; stroke: #ffffff; stroke-width: 1.25; stroke-linejoin: miter; stroke-linecap: square"/>
   </g>
   <g id="patch_5">
    <path d="M 499.970156 450.72 
L 499.970156 7.2 
" style="fill: none; stroke: #ffffff; stroke-width: 1.25; stroke-linejoin: miter; stroke-linecap: square"/>
   </g>
   <g id="patch_6">
    <path d="M 56.450156 450.72 
L 499.970156 450.72 
" style="fill: none; stroke: #ffffff; stroke-width: 1.25; stroke-linejoin: miter; stroke-linecap: square"/>
   </g>
   <g id="patch_7">
    <path d="M 56.450156 7.2 
L 499.970156 7.2 
" style="fill: none; stroke: #ffffff; stroke-width: 1.25; stroke-linejoin: miter; stroke-linecap: square"/>
   </g>
   <g id="text_13">
    <!-- t = 4400 -->
    <g style="fill: #262626" transform="translate(65.320556 24.659775) scale(0.12 -0.12)">
     <defs>
      <path id="ArialMT-74" d="M 1650 503 
L 1731 6 
Q 1494 -44 1306 -44 
Q 1000 -44 831 53 
Q 663 150 594 308 
Q 525 466 525 972 
L 525 2881 
L 113 2881 
L 113 3319 
L 525 3319 
L 525 4141 
L 1084 4478 
L 1084 3319 
L 1650 3319 
L 1650 2881 
L 1084 2881 
L 1084 941 
Q 1084 700 1114 631 
Q 1144 563 1211 522 
Q 1278 481 1403 481 
Q 1497 481 1650 503 
z
" transform="scale(0.015625)"/>
      <path id="ArialMT-20" transform="scale(0.015625)"/>
      <path id="ArialMT-3d" d="M 3381 2694 
L 356 2694 
L 356 3219 
L 3381 3219 
L 3381 2694 
z
M 3381 1303 
L 356 1303 
L 356 1828 
L 3381 1828 
L 3381 1303 
z
" transform="scale(0.015625)"/>
     </defs>
     <use xlink:href="#ArialMT-74"/>
     <use xlink:href="#ArialMT-20" x="27.783203"/>
     <use xlink:href="#ArialMT-3d" x="55.566406"/>
     <use xlink:href="#ArialMT-20" x="113.964844"/>
     <use xlink:href="#ArialMT-34" x="141.748047"/>
     <use xlink:href="#ArialMT-34" x="197.363281"/>
     <use xlink:href="#ArialMT-30" x="252.978516"/>
     <use xlink:href="#ArialMT-30" x="308.59375"/>
    </g>
   </g>
   <g id="legend_1">
    <g id="patch_8">
     <path d="M 328.111406 94.59 
L 483.170156 94.59 
Q 487.970156 94.59 487.970156 89.79 
L 487.970156 24 
Q 487.970156 19.2 483.170156 19.2 
L 328.111406 19.2 
Q 323.311406 19.2 323.311406 24 
L 323.311406 89.79 
Q 323.311406 94.59 328.111406 94.59 
z
" style="fill: #eaeaf2; opacity: 0.8; stroke: #cccccc; stroke-linejoin: miter"/>
    </g>
    <g id="PathCollection_3">
     <g>
      <use xlink:href="#m899a4ed35d" x="356.911406" y="39.97125" style="fill: #4169e1; stroke: #4169e1"/>
     </g>
    </g>
    <g id="text_14">
     <!-- Sheep -->
     <g style="fill: #262626" transform="translate(400.111406 46.27125) scale(0.24 -0.24)">
      <defs>
       <path id="ArialMT-53" d="M 288 1472 
L 859 1522 
Q 900 1178 1048 958 
Q 1197 738 1509 602 
Q 1822 466 2213 466 
Q 2559 466 2825 569 
Q 3091 672 3220 851 
Q 3350 1031 3350 1244 
Q 3350 1459 3225 1620 
Q 3100 1781 2813 1891 
Q 2628 1963 1997 2114 
Q 1366 2266 1113 2400 
Q 784 2572 623 2826 
Q 463 3081 463 3397 
Q 463 3744 659 4045 
Q 856 4347 1234 4503 
Q 1613 4659 2075 4659 
Q 2584 4659 2973 4495 
Q 3363 4331 3572 4012 
Q 3781 3694 3797 3291 
L 3216 3247 
Q 3169 3681 2898 3903 
Q 2628 4125 2100 4125 
Q 1550 4125 1298 3923 
Q 1047 3722 1047 3438 
Q 1047 3191 1225 3031 
Q 1400 2872 2139 2705 
Q 2878 2538 3153 2413 
Q 3553 2228 3743 1945 
Q 3934 1663 3934 1294 
Q 3934 928 3725 604 
Q 3516 281 3123 101 
Q 2731 -78 2241 -78 
Q 1619 -78 1198 103 
Q 778 284 539 648 
Q 300 1013 288 1472 
z
" transform="scale(0.015625)"/>
       <path id="ArialMT-68" d="M 422 0 
L 422 4581 
L 984 4581 
L 984 2938 
Q 1378 3394 1978 3394 
Q 2347 3394 2619 3248 
Q 2891 3103 3008 2847 
Q 3125 2591 3125 2103 
L 3125 0 
L 2563 0 
L 2563 2103 
Q 2563 2525 2380 2717 
Q 2197 2909 1863 2909 
Q 1613 2909 1392 2779 
Q 1172 2650 1078 2428 
Q 984 2206 984 1816 
L 984 0 
L 422 0 
z
" transform="scale(0.015625)"/>
       <path id="ArialMT-65" d="M 2694 1069 
L 3275 997 
Q 3138 488 2766 206 
Q 2394 -75 1816 -75 
Q 1088 -75 661 373 
Q 234 822 234 1631 
Q 234 2469 665 2931 
Q 1097 3394 1784 3394 
Q 2450 3394 2872 2941 
Q 3294 2488 3294 1666 
Q 3294 1616 3291 1516 
L 816 1516 
Q 847 969 1125 678 
Q 1403 388 1819 388 
Q 2128 388 2347 550 
Q 2566 713 2694 1069 
z
M 847 1978 
L 2700 1978 
Q 2663 2397 2488 2606 
Q 2219 2931 1791 2931 
Q 1403 2931 1139 2672 
Q 875 2413 847 1978 
z
" transform="scale(0.015625)"/>
       <path id="ArialMT-70" d="M 422 -1272 
L 422 3319 
L 934 3319 
L 934 2888 
Q 1116 3141 1344 3267 
Q 1572 3394 1897 3394 
Q 2322 3394 2647 3175 
Q 2972 2956 3137 2557 
Q 3303 2159 3303 1684 
Q 3303 1175 3120 767 
Q 2938 359 2589 142 
Q 2241 -75 1856 -75 
Q 1575 -75 1351 44 
Q 1128 163 984 344 
L 984 -1272 
L 422 -1272 
z
M 931 1641 
Q 931 1000 1190 694 
Q 1450 388 1819 388 
Q 2194 388 2461 705 
Q 2728 1022 2728 1688 
Q 2728 2322 2467 2637 
Q 2206 2953 1844 2953 
Q 1484 2953 1207 2617 
Q 931 2281 931 1641 
z
" transform="scale(0.015625)"/>
      </defs>
      <use xlink:href="#ArialMT-53"/>
      <use xlink:href="#ArialMT-68" x="66.699219"/>
      <use xlink:href="#ArialMT-65" x="122.314453"/>
      <use xlink:href="#ArialMT-65" x="177.929688"/>
      <use xlink:href="#ArialMT-70" x="233.544922"/>
     </g>
    </g>
    <g id="PathCollection_4">
     <g>
      <use xlink:href="#mbbd175903e" x="356.911406" y="73.92" style="fill: #b22222; stroke: #b22222"/>
     </g>
    </g>
    <g id="text_15">
     <!-- Wolves -->
     <g style="fill: #262626" transform="translate(400.111406 80.22) scale(0.24 -0.24)">
      <defs>
       <path id="ArialMT-57" d="M 1294 0 
L 78 4581 
L 700 4581 
L 1397 1578 
Q 1509 1106 1591 641 
Q 1766 1375 1797 1488 
L 2669 4581 
L 3400 4581 
L 4056 2263 
Q 4303 1400 4413 641 
Q 4500 1075 4641 1638 
L 5359 4581 
L 5969 4581 
L 4713 0 
L 4128 0 
L 3163 3491 
Q 3041 3928 3019 4028 
Q 2947 3713 2884 3491 
L 1913 0 
L 1294 0 
z
" transform="scale(0.015625)"/>
       <path id="ArialMT-6f" d="M 213 1659 
Q 213 2581 725 3025 
Q 1153 3394 1769 3394 
Q 2453 3394 2887 2945 
Q 3322 2497 3322 1706 
Q 3322 1066 3130 698 
Q 2938 331 2570 128 
Q 2203 -75 1769 -75 
Q 1072 -75 642 372 
Q 213 819 213 1659 
z
M 791 1659 
Q 791 1022 1069 705 
Q 1347 388 1769 388 
Q 2188 388 2466 706 
Q 2744 1025 2744 1678 
Q 2744 2294 2464 2611 
Q 2184 2928 1769 2928 
Q 1347 2928 1069 2612 
Q 791 2297 791 1659 
z
" transform="scale(0.015625)"/>
       <path id="ArialMT-6c" d="M 409 0 
L 409 4581 
L 972 4581 
L 972 0 
L 409 0 
z
" transform="scale(0.015625)"/>
       <path id="ArialMT-76" d="M 1344 0 
L 81 3319 
L 675 3319 
L 1388 1331 
Q 1503 1009 1600 663 
Q 1675 925 1809 1294 
L 2547 3319 
L 3125 3319 
L 1869 0 
L 1344 0 
z
" transform="scale(0.015625)"/>
       <path id="ArialMT-73" d="M 197 991 
L 753 1078 
Q 800 744 1014 566 
Q 1228 388 1613 388 
Q 2000 388 2187 545 
Q 2375 703 2375 916 
Q 2375 1106 2209 1216 
Q 2094 1291 1634 1406 
Q 1016 1563 777 1677 
Q 538 1791 414 1992 
Q 291 2194 291 2438 
Q 291 2659 392 2848 
Q 494 3038 669 3163 
Q 800 3259 1026 3326 
Q 1253 3394 1513 3394 
Q 1903 3394 2198 3281 
Q 2494 3169 2634 2976 
Q 2775 2784 2828 2463 
L 2278 2388 
Q 2241 2644 2061 2787 
Q 1881 2931 1553 2931 
Q 1166 2931 1000 2803 
Q 834 2675 834 2503 
Q 834 2394 903 2306 
Q 972 2216 1119 2156 
Q 1203 2125 1616 2013 
Q 2213 1853 2448 1751 
Q 2684 1650 2818 1456 
Q 2953 1263 2953 975 
Q 2953 694 2789 445 
Q 2625 197 2315 61 
Q 2006 -75 1616 -75 
Q 969 -75 630 194 
Q 291 463 197 991 
z
" transform="scale(0.015625)"/>
      </defs>
      <use xlink:href="#ArialMT-57"/>
      <use xlink:href="#ArialMT-6f" x="92.634766"/>
      <use xlink:href="#ArialMT-6c" x="148.25"/>
      <use xlink:href="#ArialMT-76" x="170.466797"/>
      <use xlink:href="#ArialMT-65" x="220.466797"/>
      <use xlink:href="#ArialMT-73" x="276.082031"/>
     </g>
    </g>
   </g>
  </g>
 </g>
 <defs>
  <clipPath id="p9167babc98">
   <rect x="56.450156" y="7.2" width="443.52" height="443.52"/>
  </clipPath>
 </defs>
</svg>
