<?xml version="1.0" encoding="utf-8" standalone="no"?>
<!DOCTYPE svg PUBLIC "-//W3C//DTD SVG 1.1//EN"
  "http://www.w3.org/Graphics/SVG/1.1/DTD/svg11.dtd">
<svg xmlns:xlink="http://www.w3.org/1999/xlink" width="507.170156pt" height="492.454219pt" viewBox="0 0 507.170156 492.454219" xmlns="http://www.w3.org/2000/svg" version="1.1">
 <metadata>
  <rdf:RDF xmlns:dc="http://purl.org/dc/elements/1.1/" xmlns:cc="http://creativecommons.org/ns#" xmlns:rdf="http://www.w3.org/1999/02/22-rdf-syntax-ns#">
   <cc:Work>
    <dc:type rdf:resource="http://purl.org/dc/dcmitype/StillImage"/>
    <dc:date>2026-05-12T10:43:21.079468</dc:date>
    <dc:format>image/svg+xml</dc:format>
    <dc:creator>
     <cc:Agent>
      <dc:title>Matplotlib v3.7.1, https://matplotlib.org/</dc:title>
     </cc:Agent>
    </dc:creator>
   </cc:Work>
  </rdf:RDF>
 </metadata>
 <defs>
  <style type="text/css">*{stroke-linejoin: round; stroke-linecap: butt}</style>
 </defs>
 <g id="figure_1">
  <g id="patch_1">
   <path d="M 0 492.454219 
L 507.170156 492.454219 
L 507.170156 0 
L 0 0 
z
" style="fill: #ffffff"/>
  </g>
  <g id="axes_1">
   <g id="patch_2">
    <path d="M 56.450156 450.72 
L 499.970156 450.72 
L 499.970156 7.2 
L 56.450156 7.2 
z
" style="fill: #eaeaf2"/>
   </g>
   <g id="matplotlib.axis_1">
    <g id="xtick_1">
     <g id="line2d_1">
      <path d="M 100.802156 450.72 
L 100.802156 7.2 
" clip-path="url(#p50d3319fcf)" style="fill: none; stroke: #ffffff; stroke-linecap: round"/>
     </g>
     <g id="text_1">
      <!-- −400 -->
      <g style="fill: #262626" transform="translate(88.414266 468.093594) scale(0.11 -0.11)">
       <defs>
        <path id="ArialMT-2212" d="M 3381 1997 
L 356 1997 
L 356 2522 
L 3381 2522 
L 3381 1997 
z
" transform="scale(0.015625)"/>
        <path id="ArialMT-34" d="M 2069 0 
L 2069 1097 
L 81 1097 
L 81 1613 
L 2172 4581 
L 2631 4581 
L 2631 1613 
L 3250 1613 
L 3250 1097 
L 2631 1097 
L 2631 0 
L 2069 0 
z
M 2069 1613 
L 2069 3678 
L 634 1613 
L 2069 1613 
z
" transform="scale(0.015625)"/>
        <path id="ArialMT-30" d="M 266 2259 
Q 266 3072 433 3567 
Q 600 4063 929 4331 
Q 1259 4600 1759 4600 
Q 2128 4600 2406 4451 
Q 2684 4303 2865 4023 
Q 3047 3744 3150 3342 
Q 3253 2941 3253 2259 
Q 3253 1453 3087 958 
Q 2922 463 2592 192 
Q 2263 -78 1759 -78 
Q 1097 -78 719 397 
Q 266 969 266 2259 
z
M 844 2259 
Q 844 1131 1108 757 
Q 1372 384 1759 384 
Q 2147 384 2411 759 
Q 2675 1134 2675 2259 
Q 2675 3391 2411 3762 
Q 2147 4134 1753 4134 
Q 1366 4134 1134 3806 
Q 844 3388 844 2259 
z
" transform="scale(0.015625)"/>
       </defs>
       <use xlink:href="#ArialMT-2212"/>
       <use xlink:href="#ArialMT-34" x="58.398438"/>
       <use xlink:href="#ArialMT-30" x="114.013672"/>
       <use xlink:href="#ArialMT-30" x="169.628906"/>
      </g>
     </g>
    </g>
    <g id="xtick_2">
     <g id="line2d_2">
      <path d="M 189.506156 450.72 
L 189.506156 7.2 
" clip-path="url(#p50d3319fcf)" style="fill: none; stroke: #ffffff; stroke-linecap: round"/>
     </g>
     <g id="text_2">
      <!-- −200 -->
      <g style="fill: #262626" transform="translate(177.118266 468.093594) scale(0.11 -0.11)">
       <defs>
        <path id="ArialMT-32" d="M 3222 541 
L 3222 0 
L 194 0 
Q 188 203 259 391 
Q 375 700 629 1000 
Q 884 1300 1366 1694 
Q 2113 2306 2375 2664 
Q 2638 3022 2638 3341 
Q 2638 3675 2398 3904 
Q 2159 4134 1775 4134 
Q 1369 4134 1125 3890 
Q 881 3647 878 3216 
L 300 3275 
Q 359 3922 746 4261 
Q 1134 4600 1788 4600 
Q 2447 4600 2831 4234 
Q 3216 3869 3216 3328 
Q 3216 3053 3103 2787 
Q 2991 2522 2730 2228 
Q 2469 1934 1863 1422 
Q 1356 997 1212 845 
Q 1069 694 975 541 
L 3222 541 
z
" transform="scale(0.015625)"/>
       </defs>
       <use xlink:href="#ArialMT-2212"/>
       <use xlink:href="#ArialMT-32" x="58.398438"/>
       <use xlink:href="#ArialMT-30" x="114.013672"/>
       <use xlink:href="#ArialMT-30" x="169.628906"/>
      </g>
     </g>
    </g>
    <g id="xtick_3">
     <g id="line2d_3">
      <path d="M 278.210156 450.72 
L 278.210156 7.2 
" clip-path="url(#p50d3319fcf)" style="fill: none; stroke: #ffffff; stroke-linecap: round"/>
     </g>
     <g id="text_3">
      <!-- 0 -->
      <g style="fill: #262626" transform="translate(275.151641 468.093594) scale(0.11 -0.11)">
       <use xlink:href="#ArialMT-30"/>
      </g>
     </g>
    </g>
    <g id="xtick_4">
     <g id="line2d_4">
      <path d="M 366.914156 450.72 
L 366.914156 7.2 
" clip-path="url(#p50d3319fcf)" style="fill: none; stroke: #ffffff; stroke-linecap: round"/>
     </g>
     <g id="text_4">
      <!-- 200 -->
      <g style="fill: #262626" transform="translate(357.738609 468.093594) scale(0.11 -0.11)">
       <use xlink:href="#ArialMT-32"/>
       <use xlink:href="#ArialMT-30" x="55.615234"/>
       <use xlink:href="#ArialMT-30" x="111.230469"/>
      </g>
     </g>
    </g>
    <g id="xtick_5">
     <g id="line2d_5">
      <path d="M 455.618156 450.72 
L 455.618156 7.2 
" clip-path="url(#p50d3319fcf)" style="fill: none; stroke: #ffffff; stroke-linecap: round"/>
     </g>
     <g id="text_5">
      <!-- 400 -->
      <g style="fill: #262626" transform="translate(446.442609 468.093594) scale(0.11 -0.11)">
       <use xlink:href="#ArialMT-34"/>
       <use xlink:href="#ArialMT-30" x="55.615234"/>
       <use xlink:href="#ArialMT-30" x="111.230469"/>
      </g>
     </g>
    </g>
    <g id="text_6">
     <!-- x -->
     <g style="fill: #262626" transform="translate(275.210156 482.869219) scale(0.12 -0.12)">
      <defs>
       <path id="ArialMT-78" d="M 47 0 
L 1259 1725 
L 138 3319 
L 841 3319 
L 1350 2541 
Q 1494 2319 1581 2169 
Q 1719 2375 1834 2534 
L 2394 3319 
L 3066 3319 
L 1919 1756 
L 3153 0 
L 2463 0 
L 1781 1031 
L 1600 1309 
L 728 0 
L 47 0 
z
" transform="scale(0.015625)"/>
      </defs>
      <use xlink:href="#ArialMT-78"/>
     </g>
    </g>
   </g>
   <g id="matplotlib.axis_2">
    <g id="ytick_1">
     <g id="line2d_6">
      <path d="M 56.450156 406.368 
L 499.970156 406.368 
" clip-path="url(#p50d3319fcf)" style="fill: none; stroke: #ffffff; stroke-linecap: round"/>
     </g>
     <g id="text_7">
      <!-- −400 -->
      <g style="fill: #262626" transform="translate(22.174375 410.304797) scale(0.11 -0.11)">
       <use xlink:href="#ArialMT-2212"/>
       <use xlink:href="#ArialMT-34" x="58.398438"/>
       <use xlink:href="#ArialMT-30" x="114.013672"/>
       <use xlink:href="#ArialMT-30" x="169.628906"/>
      </g>
     </g>
    </g>
    <g id="ytick_2">
     <g id="line2d_7">
      <path d="M 56.450156 317.664 
L 499.970156 317.664 
" clip-path="url(#p50d3319fcf)" style="fill: none; stroke: #ffffff; stroke-linecap: round"/>
     </g>
     <g id="text_8">
      <!-- −200 -->
      <g style="fill: #262626" transform="translate(22.174375 321.600797) scale(0.11 -0.11)">
       <use xlink:href="#ArialMT-2212"/>
       <use xlink:href="#ArialMT-32" x="58.398438"/>
       <use xlink:href="#ArialMT-30" x="114.013672"/>
       <use xlink:href="#ArialMT-30" x="169.628906"/>
      </g>
     </g>
    </g>
    <g id="ytick_3">
     <g id="line2d_8">
      <path d="M 56.450156 228.96 
L 499.970156 228.96 
" clip-path="url(#p50d3319fcf)" style="fill: none; stroke: #ffffff; stroke-linecap: round"/>
     </g>
     <g id="text_9">
      <!-- 0 -->
      <g style="fill: #262626" transform="translate(40.833125 232.896797) scale(0.11 -0.11)">
       <use xlink:href="#ArialMT-30"/>
      </g>
     </g>
    </g>
    <g id="ytick_4">
     <g id="line2d_9">
      <path d="M 56.450156 140.256 
L 499.970156 140.256 
" clip-path="url(#p50d3319fcf)" style="fill: none; stroke: #ffffff; stroke-linecap: round"/>
     </g>
     <g id="text_10">
      <!-- 200 -->
      <g style="fill: #262626" transform="translate(28.599063 144.192797) scale(0.11 -0.11)">
       <use xlink:href="#ArialMT-32"/>
       <use xlink:href="#ArialMT-30" x="55.615234"/>
       <use xlink:href="#ArialMT-30" x="111.230469"/>
      </g>
     </g>
    </g>
    <g id="ytick_5">
     <g id="line2d_10">
      <path d="M 56.450156 51.552 
L 499.970156 51.552 
" clip-path="url(#p50d3319fcf)" style="fill: none; stroke: #ffffff; stroke-linecap: round"/>
     </g>
     <g id="text_11">
      <!-- 400 -->
      <g style="fill: #262626" transform="translate(28.599063 55.488797) scale(0.11 -0.11)">
       <use xlink:href="#ArialMT-34"/>
       <use xlink:href="#ArialMT-30" x="55.615234"/>
       <use xlink:href="#ArialMT-30" x="111.230469"/>
      </g>
     </g>
    </g>
    <g id="text_12">
     <!-- y -->
     <g style="fill: #262626" transform="translate(15.64875 231.96) rotate(-90) scale(0.12 -0.12)">
      <defs>
       <path id="ArialMT-79" d="M 397 -1278 
L 334 -750 
Q 519 -800 656 -800 
Q 844 -800 956 -737 
Q 1069 -675 1141 -563 
Q 1194 -478 1313 -144 
Q 1328 -97 1363 -6 
L 103 3319 
L 709 3319 
L 1400 1397 
Q 1534 1031 1641 628 
Q 1738 1016 1872 1384 
L 2581 3319 
L 3144 3319 
L 1881 -56 
Q 1678 -603 1566 -809 
Q 1416 -1088 1222 -1217 
Q 1028 -1347 759 -1347 
Q 597 -1347 397 -1278 
z
" transform="scale(0.015625)"/>
      </defs>
      <use xlink:href="#ArialMT-79"/>
     </g>
    </g>
   </g>
   <g id="patch_3">
    <path d="M 278.210156 317.664 
C 301.734732 317.664 324.298969 308.317587 340.933356 291.6832 
C 357.567743 275.048813 366.914156 252.484576 366.914156 228.96 
C 366.914156 205.435424 357.567743 182.871187 340.933356 166.2368 
C 324.298969 149.602413 301.734732 140.256 278.210156 140.256 
C 254.68558 140.256 232.121343 149.602413 215.486956 166.2368 
C 198.852569 182.871187 189.506156 205.435424 189.506156 228.96 
C 189.506156 252.484576 198.852569 275.048813 215.486956 291.6832 
C 232.121343 308.317587 254.68558 317.664 278.210156 317.664 
z
" clip-path="url(#p50d3319fcf)" style="fill: #228b22; opacity: 0.12; stroke: #228b22; stroke-width: 1.5; stroke-linejoin: miter"/>
   </g>
   <g id="PathCollection_1">
    <defs>
     <path id="meefe3ed5e9" d="M 0 2.236068 
C 0.593012 2.236068 1.161816 2.000462 1.581139 1.581139 
C 2.000462 1.161816 2.236068 0.593012 2.236068 0 
C 2.236068 -0.593012 2.000462 -1.161816 1.581139 -1.581139 
C 1.161816 -2.000462 0.593012 -2.236068 0 -2.236068 
C -0.593012 -2.236068 -1.161816 -2.000462 -1.581139 -1.581139 
C -2.000462 -1.161816 -2.236068 -0.593012 -2.236068 0 
C -2.236068 0.593012 -2.000462 1.161816 -1.581139 1.581139 
C -1.161816 2.000462 -0.593012 2.236068 0 2.236068 
z
" style="stroke: #4169e1"/>
    </defs>
    <g clip-path="url(#p50d3319fcf)">
     <use xlink:href="#meefe3ed5e9" x="335.280358" y="168.92589" style="fill: #4169e1; stroke: #4169e1"/>
     <use xlink:href="#meefe3ed5e9" x="443.905252" y="324.222061" style="fill: #4169e1; stroke: #4169e1"/>
     <use xlink:href="#meefe3ed5e9" x="230.747121" y="175.238684" style="fill: #4169e1; stroke: #4169e1"/>
     <use xlink:href="#meefe3ed5e9" x="369.193707" y="228.059319" style="fill: #4169e1; stroke: #4169e1"/>
     <use xlink:href="#meefe3ed5e9" x="313.497804" y="65.388327" style="fill: #4169e1; stroke: #4169e1"/>
     <use xlink:href="#meefe3ed5e9" x="439.926647" y="105.788129" style="fill: #4169e1; stroke: #4169e1"/>
     <use xlink:href="#meefe3ed5e9" x="208.262614" y="329.976492" style="fill: #4169e1; stroke: #4169e1"/>
     <use xlink:href="#meefe3ed5e9" x="413.101172" y="71.738373" style="fill: #4169e1; stroke: #4169e1"/>
     <use xlink:href="#meefe3ed5e9" x="193.989149" y="149.320731" style="fill: #4169e1; stroke: #4169e1"/>
     <use xlink:href="#meefe3ed5e9" x="339.294377" y="161.09497" style="fill: #4169e1; stroke: #4169e1"/>
     <use xlink:href="#meefe3ed5e9" x="443.951055" y="278.418056" style="fill: #4169e1; stroke: #4169e1"/>
     <use xlink:href="#meefe3ed5e9" x="368.70414" y="137.447286" style="fill: #4169e1; stroke: #4169e1"/>
     <use xlink:href="#meefe3ed5e9" x="357.655913" y="186.339123" style="fill: #4169e1; stroke: #4169e1"/>
     <use xlink:href="#meefe3ed5e9" x="176.419738" y="209.676377" style="fill: #4169e1; stroke: #4169e1"/>
     <use xlink:href="#meefe3ed5e9" x="329.695745" y="189.854707" style="fill: #4169e1; stroke: #4169e1"/>
     <use xlink:href="#meefe3ed5e9" x="368.63953" y="176.191122" style="fill: #4169e1; stroke: #4169e1"/>
     <use xlink:href="#meefe3ed5e9" x="476.340765" y="173.330504" style="fill: #4169e1; stroke: #4169e1"/>
     <use xlink:href="#meefe3ed5e9" x="405.622781" y="158.025792" style="fill: #4169e1; stroke: #4169e1"/>
     <use xlink:href="#meefe3ed5e9" x="287.655416" y="190.673956" style="fill: #4169e1; stroke: #4169e1"/>
     <use xlink:href="#meefe3ed5e9" x="352.807789" y="125.693959" style="fill: #4169e1; stroke: #4169e1"/>
     <use xlink:href="#meefe3ed5e9" x="237.850175" y="178.559589" style="fill: #4169e1; stroke: #4169e1"/>
     <use xlink:href="#meefe3ed5e9" x="362.432862" y="171.820079" style="fill: #4169e1; stroke: #4169e1"/>
     <use xlink:href="#meefe3ed5e9" x="287.092241" y="311.852369" style="fill: #4169e1; stroke: #4169e1"/>
     <use xlink:href="#meefe3ed5e9" x="409.98814" y="239.684408" style="fill: #4169e1; stroke: #4169e1"/>
     <use xlink:href="#meefe3ed5e9" x="272.03176" y="287.470741" style="fill: #4169e1; stroke: #4169e1"/>
     <use xlink:href="#meefe3ed5e9" x="400.007952" y="144.463924" style="fill: #4169e1; stroke: #4169e1"/>
     <use xlink:href="#meefe3ed5e9" x="399.390505" y="266.285741" style="fill: #4169e1; stroke: #4169e1"/>
     <use xlink:href="#meefe3ed5e9" x="256.542956" y="281.916715" style="fill: #4169e1; stroke: #4169e1"/>
     <use xlink:href="#meefe3ed5e9" x="222.465967" y="189.193829" style="fill: #4169e1; stroke: #4169e1"/>
     <use xlink:href="#meefe3ed5e9" x="247.761259" y="84.843679" style="fill: #4169e1; stroke: #4169e1"/>
     <use xlink:href="#meefe3ed5e9" x="263.007261" y="220.817003" style="fill: #4169e1; stroke: #4169e1"/>
     <use xlink:href="#meefe3ed5e9" x="492.661916" y="129.381476" style="fill: #4169e1; stroke: #4169e1"/>
     <use xlink:href="#meefe3ed5e9" x="271.614542" y="339.030638" style="fill: #4169e1; stroke: #4169e1"/>
     <use xlink:href="#meefe3ed5e9" x="205.22969" y="170.873004" style="fill: #4169e1; stroke: #4169e1"/>
     <use xlink:href="#meefe3ed5e9" x="359.412249" y="96.345896" style="fill: #4169e1; stroke: #4169e1"/>
     <use xlink:href="#meefe3ed5e9" x="280.221475" y="287.920738" style="fill: #4169e1; stroke: #4169e1"/>
     <use xlink:href="#meefe3ed5e9" x="392.357218" y="177.686926" style="fill: #4169e1; stroke: #4169e1"/>
     <use xlink:href="#meefe3ed5e9" x="189.367225" y="175.824215" style="fill: #4169e1; stroke: #4169e1"/>
     <use xlink:href="#meefe3ed5e9" x="275.024598" y="214.131543" style="fill: #4169e1; stroke: #4169e1"/>
     <use xlink:href="#meefe3ed5e9" x="227.063193" y="280.302783" style="fill: #4169e1; stroke: #4169e1"/>
     <use xlink:href="#meefe3ed5e9" x="385.985117" y="224.493393" style="fill: #4169e1; stroke: #4169e1"/>
     <use xlink:href="#meefe3ed5e9" x="333.043247" y="82.927548" style="fill: #4169e1; stroke: #4169e1"/>
     <use xlink:href="#meefe3ed5e9" x="325.798815" y="264.096998" style="fill: #4169e1; stroke: #4169e1"/>
     <use xlink:href="#meefe3ed5e9" x="314.419443" y="288.83876" style="fill: #4169e1; stroke: #4169e1"/>
     <use xlink:href="#meefe3ed5e9" x="265.402313" y="238.263769" style="fill: #4169e1; stroke: #4169e1"/>
     <use xlink:href="#meefe3ed5e9" x="294.519399" y="174.183913" style="fill: #4169e1; stroke: #4169e1"/>
     <use xlink:href="#meefe3ed5e9" x="310.968747" y="135.810486" style="fill: #4169e1; stroke: #4169e1"/>
     <use xlink:href="#meefe3ed5e9" x="219.298808" y="326.088423" style="fill: #4169e1; stroke: #4169e1"/>
     <use xlink:href="#meefe3ed5e9" x="319.019938" y="267.931413" style="fill: #4169e1; stroke: #4169e1"/>
     <use xlink:href="#meefe3ed5e9" x="419.092766" y="153.960319" style="fill: #4169e1; stroke: #4169e1"/>
     <use xlink:href="#meefe3ed5e9" x="334.253872" y="186.106308" style="fill: #4169e1; stroke: #4169e1"/>
     <use xlink:href="#meefe3ed5e9" x="348.229144" y="179.441343" style="fill: #4169e1; stroke: #4169e1"/>
     <use xlink:href="#meefe3ed5e9" x="158.304914" y="193.540093" style="fill: #4169e1; stroke: #4169e1"/>
     <use xlink:href="#meefe3ed5e9" x="234.854337" y="328.430953" style="fill: #4169e1; stroke: #4169e1"/>
     <use xlink:href="#meefe3ed5e9" x="227.876873" y="216.534342" style="fill: #4169e1; stroke: #4169e1"/>
     <use xlink:href="#meefe3ed5e9" x="432.364988" y="194.339652" style="fill: #4169e1; stroke: #4169e1"/>
     <use xlink:href="#meefe3ed5e9" x="480.145402" y="92.038996" style="fill: #4169e1; stroke: #4169e1"/>
     <use xlink:href="#meefe3ed5e9" x="322.477511" y="134.549876" style="fill: #4169e1; stroke: #4169e1"/>
     <use xlink:href="#meefe3ed5e9" x="177.969919" y="216.961503" style="fill: #4169e1; stroke: #4169e1"/>
     <use xlink:href="#meefe3ed5e9" x="305.026779" y="295.488129" style="fill: #4169e1; stroke: #4169e1"/>
     <use xlink:href="#meefe3ed5e9" x="497.862584" y="186.081566" style="fill: #4169e1; stroke: #4169e1"/>
     <use xlink:href="#meefe3ed5e9" x="354.129098" y="283.859809" style="fill: #4169e1; stroke: #4169e1"/>
     <use xlink:href="#meefe3ed5e9" x="333.657993" y="181.191205" style="fill: #4169e1; stroke: #4169e1"/>
     <use xlink:href="#meefe3ed5e9" x="404.701917" y="113.9135" style="fill: #4169e1; stroke: #4169e1"/>
     <use xlink:href="#meefe3ed5e9" x="269.417363" y="266.16315" style="fill: #4169e1; stroke: #4169e1"/>
     <use xlink:href="#meefe3ed5e9" x="424.542886" y="171.479379" style="fill: #4169e1; stroke: #4169e1"/>
     <use xlink:href="#meefe3ed5e9" x="372.364669" y="238.576954" style="fill: #4169e1; stroke: #4169e1"/>
     <use xlink:href="#meefe3ed5e9" x="255.815607" y="153.091483" style="fill: #4169e1; stroke: #4169e1"/>
     <use xlink:href="#meefe3ed5e9" x="255.049206" y="182.607111" style="fill: #4169e1; stroke: #4169e1"/>
     <use xlink:href="#meefe3ed5e9" x="282.918062" y="139.291133" style="fill: #4169e1; stroke: #4169e1"/>
     <use xlink:href="#meefe3ed5e9" x="237.010186" y="261.999655" style="fill: #4169e1; stroke: #4169e1"/>
     <use xlink:href="#meefe3ed5e9" x="419.944817" y="117.168069" style="fill: #4169e1; stroke: #4169e1"/>
     <use xlink:href="#meefe3ed5e9" x="364.780961" y="320.373339" style="fill: #4169e1; stroke: #4169e1"/>
     <use xlink:href="#meefe3ed5e9" x="343.002814" y="207.361941" style="fill: #4169e1; stroke: #4169e1"/>
     <use xlink:href="#meefe3ed5e9" x="279.573532" y="298.503599" style="fill: #4169e1; stroke: #4169e1"/>
     <use xlink:href="#meefe3ed5e9" x="215.556893" y="190.350517" style="fill: #4169e1; stroke: #4169e1"/>
     <use xlink:href="#meefe3ed5e9" x="229.842414" y="194.788035" style="fill: #4169e1; stroke: #4169e1"/>
     <use xlink:href="#meefe3ed5e9" x="271.28097" y="181.686129" style="fill: #4169e1; stroke: #4169e1"/>
     <use xlink:href="#meefe3ed5e9" x="246.90937" y="183.659784" style="fill: #4169e1; stroke: #4169e1"/>
     <use xlink:href="#meefe3ed5e9" x="225.59363" y="281.25241" style="fill: #4169e1; stroke: #4169e1"/>
     <use xlink:href="#meefe3ed5e9" x="472.368833" y="106.901626" style="fill: #4169e1; stroke: #4169e1"/>
     <use xlink:href="#meefe3ed5e9" x="359.788857" y="244.961082" style="fill: #4169e1; stroke: #4169e1"/>
     <use xlink:href="#meefe3ed5e9" x="292.732338" y="315.288851" style="fill: #4169e1; stroke: #4169e1"/>
     <use xlink:href="#meefe3ed5e9" x="282.275822" y="141.18573" style="fill: #4169e1; stroke: #4169e1"/>
     <use xlink:href="#meefe3ed5e9" x="319.080877" y="339.842646" style="fill: #4169e1; stroke: #4169e1"/>
     <use xlink:href="#meefe3ed5e9" x="321.775567" y="142.811018" style="fill: #4169e1; stroke: #4169e1"/>
     <use xlink:href="#meefe3ed5e9" x="326.931887" y="67.280474" style="fill: #4169e1; stroke: #4169e1"/>
     <use xlink:href="#meefe3ed5e9" x="231.202748" y="96.138118" style="fill: #4169e1; stroke: #4169e1"/>
     <use xlink:href="#meefe3ed5e9" x="438.875425" y="101.546549" style="fill: #4169e1; stroke: #4169e1"/>
     <use xlink:href="#meefe3ed5e9" x="250.243366" y="329.910867" style="fill: #4169e1; stroke: #4169e1"/>
     <use xlink:href="#meefe3ed5e9" x="369.396937" y="199.319317" style="fill: #4169e1; stroke: #4169e1"/>
     <use xlink:href="#meefe3ed5e9" x="365.80717" y="263.167546" style="fill: #4169e1; stroke: #4169e1"/>
     <use xlink:href="#meefe3ed5e9" x="318.596173" y="86.15414" style="fill: #4169e1; stroke: #4169e1"/>
     <use xlink:href="#meefe3ed5e9" x="222.942344" y="241.741902" style="fill: #4169e1; stroke: #4169e1"/>
     <use xlink:href="#meefe3ed5e9" x="380.115238" y="228.369139" style="fill: #4169e1; stroke: #4169e1"/>
     <use xlink:href="#meefe3ed5e9" x="245.163643" y="169.29492" style="fill: #4169e1; stroke: #4169e1"/>
     <use xlink:href="#meefe3ed5e9" x="388.030049" y="111.157729" style="fill: #4169e1; stroke: #4169e1"/>
     <use xlink:href="#meefe3ed5e9" x="162.380323" y="139.377521" style="fill: #4169e1; stroke: #4169e1"/>
     <use xlink:href="#meefe3ed5e9" x="216.615145" y="276.882161" style="fill: #4169e1; stroke: #4169e1"/>
     <use xlink:href="#meefe3ed5e9" x="459.584918" y="212.496404" style="fill: #4169e1; stroke: #4169e1"/>
     <use xlink:href="#meefe3ed5e9" x="196.157197" y="235.048896" style="fill: #4169e1; stroke: #4169e1"/>
     <use xlink:href="#meefe3ed5e9" x="179.013216" y="179.090881" style="fill: #4169e1; stroke: #4169e1"/>
     <use xlink:href="#meefe3ed5e9" x="238.813817" y="170.916519" style="fill: #4169e1; stroke: #4169e1"/>
     <use xlink:href="#meefe3ed5e9" x="266.063412" y="102.613715" style="fill: #4169e1; stroke: #4169e1"/>
     <use xlink:href="#meefe3ed5e9" x="197.909769" y="277.226039" style="fill: #4169e1; stroke: #4169e1"/>
     <use xlink:href="#meefe3ed5e9" x="278.677043" y="189.092336" style="fill: #4169e1; stroke: #4169e1"/>
     <use xlink:href="#meefe3ed5e9" x="272.370781" y="235.889407" style="fill: #4169e1; stroke: #4169e1"/>
     <use xlink:href="#meefe3ed5e9" x="250.983288" y="121.465691" style="fill: #4169e1; stroke: #4169e1"/>
     <use xlink:href="#meefe3ed5e9" x="164.653051" y="151.524762" style="fill: #4169e1; stroke: #4169e1"/>
     <use xlink:href="#meefe3ed5e9" x="344.439347" y="207.647433" style="fill: #4169e1; stroke: #4169e1"/>
     <use xlink:href="#meefe3ed5e9" x="381.747327" y="69.217314" style="fill: #4169e1; stroke: #4169e1"/>
     <use xlink:href="#meefe3ed5e9" x="267.5341" y="149.235696" style="fill: #4169e1; stroke: #4169e1"/>
     <use xlink:href="#meefe3ed5e9" x="224.947719" y="173.667804" style="fill: #4169e1; stroke: #4169e1"/>
     <use xlink:href="#meefe3ed5e9" x="277.420858" y="143.831535" style="fill: #4169e1; stroke: #4169e1"/>
     <use xlink:href="#meefe3ed5e9" x="369.858114" y="253.682467" style="fill: #4169e1; stroke: #4169e1"/>
     <use xlink:href="#meefe3ed5e9" x="456.333787" y="239.898306" style="fill: #4169e1; stroke: #4169e1"/>
     <use xlink:href="#meefe3ed5e9" x="400.299526" y="281.604473" style="fill: #4169e1; stroke: #4169e1"/>
     <use xlink:href="#meefe3ed5e9" x="346.404848" y="227.220775" style="fill: #4169e1; stroke: #4169e1"/>
     <use xlink:href="#meefe3ed5e9" x="311.47127" y="258.306029" style="fill: #4169e1; stroke: #4169e1"/>
     <use xlink:href="#meefe3ed5e9" x="290.854779" y="123.053886" style="fill: #4169e1; stroke: #4169e1"/>
     <use xlink:href="#meefe3ed5e9" x="363.06781" y="114.383657" style="fill: #4169e1; stroke: #4169e1"/>
     <use xlink:href="#meefe3ed5e9" x="230.253308" y="144.854495" style="fill: #4169e1; stroke: #4169e1"/>
     <use xlink:href="#meefe3ed5e9" x="406.431331" y="165.258026" style="fill: #4169e1; stroke: #4169e1"/>
     <use xlink:href="#meefe3ed5e9" x="261.512518" y="260.335216" style="fill: #4169e1; stroke: #4169e1"/>
     <use xlink:href="#meefe3ed5e9" x="370.774525" y="190.86134" style="fill: #4169e1; stroke: #4169e1"/>
     <use xlink:href="#meefe3ed5e9" x="267.393275" y="76.792197" style="fill: #4169e1; stroke: #4169e1"/>
     <use xlink:href="#meefe3ed5e9" x="462.851344" y="122.084653" style="fill: #4169e1; stroke: #4169e1"/>
     <use xlink:href="#meefe3ed5e9" x="430.318648" y="78.464953" style="fill: #4169e1; stroke: #4169e1"/>
     <use xlink:href="#meefe3ed5e9" x="283.424089" y="125.569814" style="fill: #4169e1; stroke: #4169e1"/>
     <use xlink:href="#meefe3ed5e9" x="218.353154" y="259.272334" style="fill: #4169e1; stroke: #4169e1"/>
     <use xlink:href="#meefe3ed5e9" x="237.539485" y="311.873112" style="fill: #4169e1; stroke: #4169e1"/>
     <use xlink:href="#meefe3ed5e9" x="333.985862" y="183.559621" style="fill: #4169e1; stroke: #4169e1"/>
     <use xlink:href="#meefe3ed5e9" x="272.252033" y="265.397043" style="fill: #4169e1; stroke: #4169e1"/>
     <use xlink:href="#meefe3ed5e9" x="299.921219" y="240.581137" style="fill: #4169e1; stroke: #4169e1"/>
     <use xlink:href="#meefe3ed5e9" x="309.175531" y="155.717683" style="fill: #4169e1; stroke: #4169e1"/>
     <use xlink:href="#meefe3ed5e9" x="345.366248" y="276.509992" style="fill: #4169e1; stroke: #4169e1"/>
     <use xlink:href="#meefe3ed5e9" x="271.877055" y="202.261977" style="fill: #4169e1; stroke: #4169e1"/>
     <use xlink:href="#meefe3ed5e9" x="237.076624" y="263.19556" style="fill: #4169e1; stroke: #4169e1"/>
     <use xlink:href="#meefe3ed5e9" x="321.436904" y="281.62801" style="fill: #4169e1; stroke: #4169e1"/>
     <use xlink:href="#meefe3ed5e9" x="369.504108" y="161.715246" style="fill: #4169e1; stroke: #4169e1"/>
     <use xlink:href="#meefe3ed5e9" x="243.356303" y="214.126254" style="fill: #4169e1; stroke: #4169e1"/>
     <use xlink:href="#meefe3ed5e9" x="352.831577" y="161.66526" style="fill: #4169e1; stroke: #4169e1"/>
     <use xlink:href="#meefe3ed5e9" x="248.487985" y="251.123143" style="fill: #4169e1; stroke: #4169e1"/>
     <use xlink:href="#meefe3ed5e9" x="302.292957" y="205.369204" style="fill: #4169e1; stroke: #4169e1"/>
     <use xlink:href="#meefe3ed5e9" x="278.86907" y="275.84211" style="fill: #4169e1; stroke: #4169e1"/>
     <use xlink:href="#meefe3ed5e9" x="396.611737" y="77.198292" style="fill: #4169e1; stroke: #4169e1"/>
     <use xlink:href="#meefe3ed5e9" x="244.040644" y="298.955098" style="fill: #4169e1; stroke: #4169e1"/>
     <use xlink:href="#meefe3ed5e9" x="291.914668" y="269.306518" style="fill: #4169e1; stroke: #4169e1"/>
     <use xlink:href="#meefe3ed5e9" x="317.113038" y="319.906552" style="fill: #4169e1; stroke: #4169e1"/>
     <use xlink:href="#meefe3ed5e9" x="372.976532" y="311.537007" style="fill: #4169e1; stroke: #4169e1"/>
     <use xlink:href="#meefe3ed5e9" x="444.152322" y="261.835148" style="fill: #4169e1; stroke: #4169e1"/>
    </g>
   </g>
   <g id="PathCollection_2">
    <defs>
     <path id="m0efb04b4d2" d="M 0 2.5 
C 0.663008 2.5 1.29895 2.236584 1.767767 1.767767 
C 2.236584 1.29895 2.5 0.663008 2.5 0 
C 2.5 -0.663008 2.236584 -1.29895 1.767767 -1.767767 
C 1.29895 -2.236584 0.663008 -2.5 0 -2.5 
C -0.663008 -2.5 -1.29895 -2.236584 -1.767767 -1.767767 
C -2.236584 -1.29895 -2.5 -0.663008 -2.5 0 
C -2.5 0.663008 -2.236584 1.29895 -1.767767 1.767767 
C -1.29895 2.236584 -0.663008 2.5 0 2.5 
z
" style="stroke: #b22222"/>
    </defs>
    <g clip-path="url(#p50d3319fcf)">
     <use xlink:href="#m0efb04b4d2" x="290.882782" y="166.942794" style="fill: #b22222; stroke: #b22222"/>
     <use xlink:href="#m0efb04b4d2" x="301.078517" y="192.158787" style="fill: #b22222; stroke: #b22222"/>
     <use xlink:href="#m0efb04b4d2" x="288.937566" y="167.307999" style="fill: #b22222; stroke: #b22222"/>
     <use xlink:href="#m0efb04b4d2" x="307.567267" y="173.281148" style="fill: #b22222; stroke: #b22222"/>
     <use xlink:href="#m0efb04b4d2" x="300.11371" y="196.122493" style="fill: #b22222; stroke: #b22222"/>
     <use xlink:href="#m0efb04b4d2" x="284.499841" y="164.566657" style="fill: #b22222; stroke: #b22222"/>
     <use xlink:href="#m0efb04b4d2" x="288.71792" y="187.216137" style="fill: #b22222; stroke: #b22222"/>
     <use xlink:href="#m0efb04b4d2" x="295.084244" y="182.625296" style="fill: #b22222; stroke: #b22222"/>
     <use xlink:href="#m0efb04b4d2" x="282.311172" y="196.913863" style="fill: #b22222; stroke: #b22222"/>
     <use xlink:href="#m0efb04b4d2" x="280.675629" y="185.692873" style="fill: #b22222; stroke: #b22222"/>
     <use xlink:href="#m0efb04b4d2" x="279.749679" y="180.302677" style="fill: #b22222; stroke: #b22222"/>
     <use xlink:href="#m0efb04b4d2" x="328.402793" y="168.726328" style="fill: #b22222; stroke: #b22222"/>
     <use xlink:href="#m0efb04b4d2" x="278.432325" y="177.732641" style="fill: #b22222; stroke: #b22222"/>
     <use xlink:href="#m0efb04b4d2" x="279.068367" y="168.372079" style="fill: #b22222; stroke: #b22222"/>
     <use xlink:href="#m0efb04b4d2" x="250.810586" y="225.836264" style="fill: #b22222; stroke: #b22222"/>
     <use xlink:href="#m0efb04b4d2" x="283.274216" y="207.862209" style="fill: #b22222; stroke: #b22222"/>
     <use xlink:href="#m0efb04b4d2" x="286.955869" y="161.243403" style="fill: #b22222; stroke: #b22222"/>
     <use xlink:href="#m0efb04b4d2" x="281.332054" y="179.899579" style="fill: #b22222; stroke: #b22222"/>
     <use xlink:href="#m0efb04b4d2" x="277.141899" y="178.011391" style="fill: #b22222; stroke: #b22222"/>
     <use xlink:href="#m0efb04b4d2" x="287.025304" y="190.133755" style="fill: #b22222; stroke: #b22222"/>
     <use xlink:href="#m0efb04b4d2" x="278.762071" y="183.140765" style="fill: #b22222; stroke: #b22222"/>
     <use xlink:href="#m0efb04b4d2" x="293.154464" y="163.156882" style="fill: #b22222; stroke: #b22222"/>
     <use xlink:href="#m0efb04b4d2" x="288.063326" y="198.970811" style="fill: #b22222; stroke: #b22222"/>
     <use xlink:href="#m0efb04b4d2" x="287.06865" y="181.031085" style="fill: #b22222; stroke: #b22222"/>
     <use xlink:href="#m0efb04b4d2" x="276.510379" y="177.13636" style="fill: #b22222; stroke: #b22222"/>
     <use xlink:href="#m0efb04b4d2" x="317.605714" y="175.819234" style="fill: #b22222; stroke: #b22222"/>
     <use xlink:href="#m0efb04b4d2" x="285.405328" y="191.448292" style="fill: #b22222; stroke: #b22222"/>
     <use xlink:href="#m0efb04b4d2" x="283.318002" y="172.608157" style="fill: #b22222; stroke: #b22222"/>
     <use xlink:href="#m0efb04b4d2" x="293.604723" y="161.672488" style="fill: #b22222; stroke: #b22222"/>
     <use xlink:href="#m0efb04b4d2" x="326.91894" y="170.493871" style="fill: #b22222; stroke: #b22222"/>
     <use xlink:href="#m0efb04b4d2" x="280.20273" y="181.591119" style="fill: #b22222; stroke: #b22222"/>
     <use xlink:href="#m0efb04b4d2" x="264.429063" y="222.727653" style="fill: #b22222; stroke: #b22222"/>
     <use xlink:href="#m0efb04b4d2" x="274.974025" y="218.57337" style="fill: #b22222; stroke: #b22222"/>
     <use xlink:href="#m0efb04b4d2" x="281.68657" y="187.462209" style="fill: #b22222; stroke: #b22222"/>
     <use xlink:href="#m0efb04b4d2" x="276.836891" y="157.150832" style="fill: #b22222; stroke: #b22222"/>
     <use xlink:href="#m0efb04b4d2" x="279.429665" y="168.048034" style="fill: #b22222; stroke: #b22222"/>
     <use xlink:href="#m0efb04b4d2" x="288.295754" y="160.663469" style="fill: #b22222; stroke: #b22222"/>
     <use xlink:href="#m0efb04b4d2" x="279.932099" y="174.099748" style="fill: #b22222; stroke: #b22222"/>
     <use xlink:href="#m0efb04b4d2" x="265.619109" y="208.35333" style="fill: #b22222; stroke: #b22222"/>
     <use xlink:href="#m0efb04b4d2" x="289.489492" y="161.839999" style="fill: #b22222; stroke: #b22222"/>
     <use xlink:href="#m0efb04b4d2" x="284.472222" y="162.433022" style="fill: #b22222; stroke: #b22222"/>
     <use xlink:href="#m0efb04b4d2" x="302.053151" y="152.104615" style="fill: #b22222; stroke: #b22222"/>
     <use xlink:href="#m0efb04b4d2" x="281.277872" y="165.326216" style="fill: #b22222; stroke: #b22222"/>
     <use xlink:href="#m0efb04b4d2" x="266.192866" y="207.044322" style="fill: #b22222; stroke: #b22222"/>
     <use xlink:href="#m0efb04b4d2" x="269.031425" y="214.947774" style="fill: #b22222; stroke: #b22222"/>
     <use xlink:href="#m0efb04b4d2" x="280.773418" y="196.364055" style="fill: #b22222; stroke: #b22222"/>
     <use xlink:href="#m0efb04b4d2" x="279.648401" y="176.04724" style="fill: #b22222; stroke: #b22222"/>
     <use xlink:href="#m0efb04b4d2" x="268.88226" y="216.443989" style="fill: #b22222; stroke: #b22222"/>
     <use xlink:href="#m0efb04b4d2" x="285.895566" y="185.668307" style="fill: #b22222; stroke: #b22222"/>
    </g>
   </g>
   <g id="patch_4">
    <path d="M 56.450156 450.72 
L 56.450156 7.2 
" style="fill: none; stroke: #ffffff; stroke-width: 1.25; stroke-linejoin: miter; stroke-linecap: square"/>
   </g>
   <g id="patch_5">
    <path d="M 499.970156 450.72 
L 499.970156 7.2 
" style="fill: none; stroke: #ffffff; stroke-width: 1.25; stroke-linejoin: miter; stroke-linecap: square"/>
   </g>
   <g id="patch_6">
    <path d="M 56.450156 450.72 
L 499.970156 450.72 
" style="fill: none; stroke: #ffffff; stroke-width: 1.25; stroke-linejoin: miter; stroke-linecap: square"/>
   </g>
   <g id="patch_7">
    <path d="M 56.450156 7.2 
L 499.970156 7.2 
" style="fill: none; stroke: #ffffff; stroke-width: 1.25; stroke-linejoin: miter; stroke-linecap: square"/>
   </g>
   <g id="text_13">
    <!-- t = 3700 -->
    <g style="fill: #262626" transform="translate(65.320556 24.659775) scale(0.12 -0.12)">
     <defs>
      <path id="ArialMT-74" d="M 1650 503 
L 1731 6 
Q 1494 -44 1306 -44 
Q 1000 -44 831 53 
Q 663 150 594 308 
Q 525 466 525 972 
L 525 2881 
L 113 2881 
L 113 3319 
L 525 3319 
L 525 4141 
L 1084 4478 
L 1084 3319 
L 1650 3319 
L 1650 2881 
L 1084 2881 
L 1084 941 
Q 1084 700 1114 631 
Q 1144 563 1211 522 
Q 1278 481 1403 481 
Q 1497 481 1650 503 
z
" transform="scale(0.015625)"/>
      <path id="ArialMT-20" transform="scale(0.015625)"/>
      <path id="ArialMT-3d" d="M 3381 2694 
L 356 2694 
L 356 3219 
L 3381 3219 
L 3381 2694 
z
M 3381 1303 
L 356 1303 
L 356 1828 
L 3381 1828 
L 3381 1303 
z
" transform="scale(0.015625)"/>
      <path id="ArialMT-33" d="M 269 1209 
L 831 1284 
Q 928 806 1161 595 
Q 1394 384 1728 384 
Q 2125 384 2398 659 
Q 2672 934 2672 1341 
Q 2672 1728 2419 1979 
Q 2166 2231 1775 2231 
Q 1616 2231 1378 2169 
L 1441 2663 
Q 1497 2656 1531 2656 
Q 1891 2656 2178 2843 
Q 2466 3031 2466 3422 
Q 2466 3731 2256 3934 
Q 2047 4138 1716 4138 
Q 1388 4138 1169 3931 
Q 950 3725 888 3313 
L 325 3413 
Q 428 3978 793 4289 
Q 1159 4600 1703 4600 
Q 2078 4600 2393 4439 
Q 2709 4278 2876 4000 
Q 3044 3722 3044 3409 
Q 3044 3113 2884 2869 
Q 2725 2625 2413 2481 
Q 2819 2388 3044 2092 
Q 3269 1797 3269 1353 
Q 3269 753 2831 336 
Q 2394 -81 1725 -81 
Q 1122 -81 723 278 
Q 325 638 269 1209 
z
" transform="scale(0.015625)"/>
      <path id="ArialMT-37" d="M 303 3981 
L 303 4522 
L 3269 4522 
L 3269 4084 
Q 2831 3619 2401 2847 
Q 1972 2075 1738 1259 
Q 1569 684 1522 0 
L 944 0 
Q 953 541 1156 1306 
Q 1359 2072 1739 2783 
Q 2119 3494 2547 3981 
L 303 3981 
z
" transform="scale(0.015625)"/>
     </defs>
     <use xlink:href="#ArialMT-74"/>
     <use xlink:href="#ArialMT-20" x="27.783203"/>
     <use xlink:href="#ArialMT-3d" x="55.566406"/>
     <use xlink:href="#ArialMT-20" x="113.964844"/>
     <use xlink:href="#ArialMT-33" x="141.748047"/>
     <use xlink:href="#ArialMT-37" x="197.363281"/>
     <use xlink:href="#ArialMT-30" x="252.978516"/>
     <use xlink:href="#ArialMT-30" x="308.59375"/>
    </g>
   </g>
   <g id="legend_1">
    <g id="patch_8">
     <path d="M 328.111406 94.59 
L 483.170156 94.59 
Q 487.970156 94.59 487.970156 89.79 
L 487.970156 24 
Q 487.970156 19.2 483.170156 19.2 
L 328.111406 19.2 
Q 323.311406 19.2 323.311406 24 
L 323.311406 89.79 
Q 323.311406 94.59 328.111406 94.59 
z
" style="fill: #eaeaf2; opacity: 0.8; stroke: #cccccc; stroke-linejoin: miter"/>
    </g>
    <g id="PathCollection_3">
     <g>
      <use xlink:href="#meefe3ed5e9" x="356.911406" y="39.97125" style="fill: #4169e1; stroke: #4169e1"/>
     </g>
    </g>
    <g id="text_14">
     <!-- Sheep -->
     <g style="fill: #262626" transform="translate(400.111406 46.27125) scale(0.24 -0.24)">
      <defs>
       <path id="ArialMT-53" d="M 288 1472 
L 859 1522 
Q 900 1178 1048 958 
Q 1197 738 1509 602 
Q 1822 466 2213 466 
Q 2559 466 2825 569 
Q 3091 672 3220 851 
Q 3350 1031 3350 1244 
Q 3350 1459 3225 1620 
Q 3100 1781 2813 1891 
Q 2628 1963 1997 2114 
Q 1366 2266 1113 2400 
Q 784 2572 623 2826 
Q 463 3081 463 3397 
Q 463 3744 659 4045 
Q 856 4347 1234 4503 
Q 1613 4659 2075 4659 
Q 2584 4659 2973 4495 
Q 3363 4331 3572 4012 
Q 3781 3694 3797 3291 
L 3216 3247 
Q 3169 3681 2898 3903 
Q 2628 4125 2100 4125 
Q 1550 4125 1298 3923 
Q 1047 3722 1047 3438 
Q 1047 3191 1225 3031 
Q 1400 2872 2139 2705 
Q 2878 2538 3153 2413 
Q 3553 2228 3743 1945 
Q 3934 1663 3934 1294 
Q 3934 928 3725 604 
Q 3516 281 3123 101 
Q 2731 -78 2241 -78 
Q 1619 -78 1198 103 
Q 778 284 539 648 
Q 300 1013 288 1472 
z
" transform="scale(0.015625)"/>
       <path id="ArialMT-68" d="M 422 0 
L 422 4581 
L 984 4581 
L 984 2938 
Q 1378 3394 1978 3394 
Q 2347 3394 2619 3248 
Q 2891 3103 3008 2847 
Q 3125 2591 3125 2103 
L 3125 0 
L 2563 0 
L 2563 2103 
Q 2563 2525 2380 2717 
Q 2197 2909 1863 2909 
Q 1613 2909 1392 2779 
Q 1172 2650 1078 2428 
Q 984 2206 984 1816 
L 984 0 
L 422 0 
z
" transform="scale(0.015625)"/>
       <path id="ArialMT-65" d="M 2694 1069 
L 3275 997 
Q 3138 488 2766 206 
Q 2394 -75 1816 -75 
Q 1088 -75 661 373 
Q 234 822 234 1631 
Q 234 2469 665 2931 
Q 1097 3394 1784 3394 
Q 2450 3394 2872 2941 
Q 3294 2488 3294 1666 
Q 3294 1616 3291 1516 
L 816 1516 
Q 847 969 1125 678 
Q 1403 388 1819 388 
Q 2128 388 2347 550 
Q 2566 713 2694 1069 
z
M 847 1978 
L 2700 1978 
Q 2663 2397 2488 2606 
Q 2219 2931 1791 2931 
Q 1403 2931 1139 2672 
Q 875 2413 847 1978 
z
" transform="scale(0.015625)"/>
       <path id="ArialMT-70" d="M 422 -1272 
L 422 3319 
L 934 3319 
L 934 2888 
Q 1116 3141 1344 3267 
Q 1572 3394 1897 3394 
Q 2322 3394 2647 3175 
Q 2972 2956 3137 2557 
Q 3303 2159 3303 1684 
Q 3303 1175 3120 767 
Q 2938 359 2589 142 
Q 2241 -75 1856 -75 
Q 1575 -75 1351 44 
Q 1128 163 984 344 
L 984 -1272 
L 422 -1272 
z
M 931 1641 
Q 931 1000 1190 694 
Q 1450 388 1819 388 
Q 2194 388 2461 705 
Q 2728 1022 2728 1688 
Q 2728 2322 2467 2637 
Q 2206 2953 1844 2953 
Q 1484 2953 1207 2617 
Q 931 2281 931 1641 
z
" transform="scale(0.015625)"/>
      </defs>
      <use xlink:href="#ArialMT-53"/>
      <use xlink:href="#ArialMT-68" x="66.699219"/>
      <use xlink:href="#ArialMT-65" x="122.314453"/>
      <use xlink:href="#ArialMT-65" x="177.929688"/>
      <use xlink:href="#ArialMT-70" x="233.544922"/>
     </g>
    </g>
    <g id="PathCollection_4">
     <g>
      <use xlink:href="#m0efb04b4d2" x="356.911406" y="73.92" style="fill: #b22222; stroke: #b22222"/>
     </g>
    </g>
    <g id="text_15">
     <!-- Wolves -->
     <g style="fill: #262626" transform="translate(400.111406 80.22) scale(0.24 -0.24)">
      <defs>
       <path id="ArialMT-57" d="M 1294 0 
L 78 4581 
L 700 4581 
L 1397 1578 
Q 1509 1106 1591 641 
Q 1766 1375 1797 1488 
L 2669 4581 
L 3400 4581 
L 4056 2263 
Q 4303 1400 4413 641 
Q 4500 1075 4641 1638 
L 5359 4581 
L 5969 4581 
L 4713 0 
L 4128 0 
L 3163 3491 
Q 3041 3928 3019 4028 
Q 2947 3713 2884 3491 
L 1913 0 
L 1294 0 
z
" transform="scale(0.015625)"/>
       <path id="ArialMT-6f" d="M 213 1659 
Q 213 2581 725 3025 
Q 1153 3394 1769 3394 
Q 2453 3394 2887 2945 
Q 3322 2497 3322 1706 
Q 3322 1066 3130 698 
Q 2938 331 2570 128 
Q 2203 -75 1769 -75 
Q 1072 -75 642 372 
Q 213 819 213 1659 
z
M 791 1659 
Q 791 1022 1069 705 
Q 1347 388 1769 388 
Q 2188 388 2466 706 
Q 2744 1025 2744 1678 
Q 2744 2294 2464 2611 
Q 2184 2928 1769 2928 
Q 1347 2928 1069 2612 
Q 791 2297 791 1659 
z
" transform="scale(0.015625)"/>
       <path id="ArialMT-6c" d="M 409 0 
L 409 4581 
L 972 4581 
L 972 0 
L 409 0 
z
" transform="scale(0.015625)"/>
       <path id="ArialMT-76" d="M 1344 0 
L 81 3319 
L 675 3319 
L 1388 1331 
Q 1503 1009 1600 663 
Q 1675 925 1809 1294 
L 2547 3319 
L 3125 3319 
L 1869 0 
L 1344 0 
z
" transform="scale(0.015625)"/>
       <path id="ArialMT-73" d="M 197 991 
L 753 1078 
Q 800 744 1014 566 
Q 1228 388 1613 388 
Q 2000 388 2187 545 
Q 2375 703 2375 916 
Q 2375 1106 2209 1216 
Q 2094 1291 1634 1406 
Q 1016 1563 777 1677 
Q 538 1791 414 1992 
Q 291 2194 291 2438 
Q 291 2659 392 2848 
Q 494 3038 669 3163 
Q 800 3259 1026 3326 
Q 1253 3394 1513 3394 
Q 1903 3394 2198 3281 
Q 2494 3169 2634 2976 
Q 2775 2784 2828 2463 
L 2278 2388 
Q 2241 2644 2061 2787 
Q 1881 2931 1553 2931 
Q 1166 2931 1000 2803 
Q 834 2675 834 2503 
Q 834 2394 903 2306 
Q 972 2216 1119 2156 
Q 1203 2125 1616 2013 
Q 2213 1853 2448 1751 
Q 2684 1650 2818 1456 
Q 2953 1263 2953 975 
Q 2953 694 2789 445 
Q 2625 197 2315 61 
Q 2006 -75 1616 -75 
Q 969 -75 630 194 
Q 291 463 197 991 
z
" transform="scale(0.015625)"/>
      </defs>
      <use xlink:href="#ArialMT-57"/>
      <use xlink:href="#ArialMT-6f" x="92.634766"/>
      <use xlink:href="#ArialMT-6c" x="148.25"/>
      <use xlink:href="#ArialMT-76" x="170.466797"/>
      <use xlink:href="#ArialMT-65" x="220.466797"/>
      <use xlink:href="#ArialMT-73" x="276.082031"/>
     </g>
    </g>
   </g>
  </g>
 </g>
 <defs>
  <clipPath id="p50d3319fcf">
   <rect x="56.450156" y="7.2" width="443.52" height="443.52"/>
  </clipPath>
 </defs>
</svg>
