<?xml version="1.0" encoding="utf-8" standalone="no"?>
<!DOCTYPE svg PUBLIC "-//W3C//DTD SVG 1.1//EN"
  "http://www.w3.org/Graphics/SVG/1.1/DTD/svg11.dtd">
<svg xmlns:xlink="http://www.w3.org/1999/xlink" width="507.170156pt" height="492.454219pt" viewBox="0 0 507.170156 492.454219" xmlns="http://www.w3.org/2000/svg" version="1.1">
 <metadata>
  <rdf:RDF xmlns:dc="http://purl.org/dc/elements/1.1/" xmlns:cc="http://creativecommons.org/ns#" xmlns:rdf="http://www.w3.org/1999/02/22-rdf-syntax-ns#">
   <cc:Work>
    <dc:type rdf:resource="http://purl.org/dc/dcmitype/StillImage"/>
    <dc:date>2026-05-12T10:43:21.125324</dc:date>
    <dc:format>image/svg+xml</dc:format>
    <dc:creator>
     <cc:Agent>
      <dc:title>Matplotlib v3.7.1, https://matplotlib.org/</dc:title>
     </cc:Agent>
    </dc:creator>
   </cc:Work>
  </rdf:RDF>
 </metadata>
 <defs>
  <style type="text/css">*{stroke-linejoin: round; stroke-linecap: butt}</style>
 </defs>
 <g id="figure_1">
  <g id="patch_1">
   <path d="M 0 492.454219 
L 507.170156 492.454219 
L 507.170156 0 
L 0 0 
z
" style="fill: #ffffff"/>
  </g>
  <g id="axes_1">
   <g id="patch_2">
    <path d="M 56.450156 450.72 
L 499.970156 450.72 
L 499.970156 7.2 
L 56.450156 7.2 
z
" style="fill: #eaeaf2"/>
   </g>
   <g id="matplotlib.axis_1">
    <g id="xtick_1">
     <g id="line2d_1">
      <path d="M 100.802156 450.72 
L 100.802156 7.2 
" clip-path="url(#p93d6ab1131)" style="fill: none; stroke: #ffffff; stroke-linecap: round"/>
     </g>
     <g id="text_1">
      <!-- −400 -->
      <g style="fill: #262626" transform="translate(88.414266 468.093594) scale(0.11 -0.11)">
       <defs>
        <path id="ArialMT-2212" d="M 3381 1997 
L 356 1997 
L 356 2522 
L 3381 2522 
L 3381 1997 
z
" transform="scale(0.015625)"/>
        <path id="ArialMT-34" d="M 2069 0 
L 2069 1097 
L 81 1097 
L 81 1613 
L 2172 4581 
L 2631 4581 
L 2631 1613 
L 3250 1613 
L 3250 1097 
L 2631 1097 
L 2631 0 
L 2069 0 
z
M 2069 1613 
L 2069 3678 
L 634 1613 
L 2069 1613 
z
" transform="scale(0.015625)"/>
        <path id="ArialMT-30" d="M 266 2259 
Q 266 3072 433 3567 
Q 600 4063 929 4331 
Q 1259 4600 1759 4600 
Q 2128 4600 2406 4451 
Q 2684 4303 2865 4023 
Q 3047 3744 3150 3342 
Q 3253 2941 3253 2259 
Q 3253 1453 3087 958 
Q 2922 463 2592 192 
Q 2263 -78 1759 -78 
Q 1097 -78 719 397 
Q 266 969 266 2259 
z
M 844 2259 
Q 844 1131 1108 757 
Q 1372 384 1759 384 
Q 2147 384 2411 759 
Q 2675 1134 2675 2259 
Q 2675 3391 2411 3762 
Q 2147 4134 1753 4134 
Q 1366 4134 1134 3806 
Q 844 3388 844 2259 
z
" transform="scale(0.015625)"/>
       </defs>
       <use xlink:href="#ArialMT-2212"/>
       <use xlink:href="#ArialMT-34" x="58.398438"/>
       <use xlink:href="#ArialMT-30" x="114.013672"/>
       <use xlink:href="#ArialMT-30" x="169.628906"/>
      </g>
     </g>
    </g>
    <g id="xtick_2">
     <g id="line2d_2">
      <path d="M 189.506156 450.72 
L 189.506156 7.2 
" clip-path="url(#p93d6ab1131)" style="fill: none; stroke: #ffffff; stroke-linecap: round"/>
     </g>
     <g id="text_2">
      <!-- −200 -->
      <g style="fill: #262626" transform="translate(177.118266 468.093594) scale(0.11 -0.11)">
       <defs>
        <path id="ArialMT-32" d="M 3222 541 
L 3222 0 
L 194 0 
Q 188 203 259 391 
Q 375 700 629 1000 
Q 884 1300 1366 1694 
Q 2113 2306 2375 2664 
Q 2638 3022 2638 3341 
Q 2638 3675 2398 3904 
Q 2159 4134 1775 4134 
Q 1369 4134 1125 3890 
Q 881 3647 878 3216 
L 300 3275 
Q 359 3922 746 4261 
Q 1134 4600 1788 4600 
Q 2447 4600 2831 4234 
Q 3216 3869 3216 3328 
Q 3216 3053 3103 2787 
Q 2991 2522 2730 2228 
Q 2469 1934 1863 1422 
Q 1356 997 1212 845 
Q 1069 694 975 541 
L 3222 541 
z
" transform="scale(0.015625)"/>
       </defs>
       <use xlink:href="#ArialMT-2212"/>
       <use xlink:href="#ArialMT-32" x="58.398438"/>
       <use xlink:href="#ArialMT-30" x="114.013672"/>
       <use xlink:href="#ArialMT-30" x="169.628906"/>
      </g>
     </g>
    </g>
    <g id="xtick_3">
     <g id="line2d_3">
      <path d="M 278.210156 450.72 
L 278.210156 7.2 
" clip-path="url(#p93d6ab1131)" style="fill: none; stroke: #ffffff; stroke-linecap: round"/>
     </g>
     <g id="text_3">
      <!-- 0 -->
      <g style="fill: #262626" transform="translate(275.151641 468.093594) scale(0.11 -0.11)">
       <use xlink:href="#ArialMT-30"/>
      </g>
     </g>
    </g>
    <g id="xtick_4">
     <g id="line2d_4">
      <path d="M 366.914156 450.72 
L 366.914156 7.2 
" clip-path="url(#p93d6ab1131)" style="fill: none; stroke: #ffffff; stroke-linecap: round"/>
     </g>
     <g id="text_4">
      <!-- 200 -->
      <g style="fill: #262626" transform="translate(357.738609 468.093594) scale(0.11 -0.11)">
       <use xlink:href="#ArialMT-32"/>
       <use xlink:href="#ArialMT-30" x="55.615234"/>
       <use xlink:href="#ArialMT-30" x="111.230469"/>
      </g>
     </g>
    </g>
    <g id="xtick_5">
     <g id="line2d_5">
      <path d="M 455.618156 450.72 
L 455.618156 7.2 
" clip-path="url(#p93d6ab1131)" style="fill: none; stroke: #ffffff; stroke-linecap: round"/>
     </g>
     <g id="text_5">
      <!-- 400 -->
      <g style="fill: #262626" transform="translate(446.442609 468.093594) scale(0.11 -0.11)">
       <use xlink:href="#ArialMT-34"/>
       <use xlink:href="#ArialMT-30" x="55.615234"/>
       <use xlink:href="#ArialMT-30" x="111.230469"/>
      </g>
     </g>
    </g>
    <g id="text_6">
     <!-- x -->
     <g style="fill: #262626" transform="translate(275.210156 482.869219) scale(0.12 -0.12)">
      <defs>
       <path id="ArialMT-78" d="M 47 0 
L 1259 1725 
L 138 3319 
L 841 3319 
L 1350 2541 
Q 1494 2319 1581 2169 
Q 1719 2375 1834 2534 
L 2394 3319 
L 3066 3319 
L 1919 1756 
L 3153 0 
L 2463 0 
L 1781 1031 
L 1600 1309 
L 728 0 
L 47 0 
z
" transform="scale(0.015625)"/>
      </defs>
      <use xlink:href="#ArialMT-78"/>
     </g>
    </g>
   </g>
   <g id="matplotlib.axis_2">
    <g id="ytick_1">
     <g id="line2d_6">
      <path d="M 56.450156 406.368 
L 499.970156 406.368 
" clip-path="url(#p93d6ab1131)" style="fill: none; stroke: #ffffff; stroke-linecap: round"/>
     </g>
     <g id="text_7">
      <!-- −400 -->
      <g style="fill: #262626" transform="translate(22.174375 410.304797) scale(0.11 -0.11)">
       <use xlink:href="#ArialMT-2212"/>
       <use xlink:href="#ArialMT-34" x="58.398438"/>
       <use xlink:href="#ArialMT-30" x="114.013672"/>
       <use xlink:href="#ArialMT-30" x="169.628906"/>
      </g>
     </g>
    </g>
    <g id="ytick_2">
     <g id="line2d_7">
      <path d="M 56.450156 317.664 
L 499.970156 317.664 
" clip-path="url(#p93d6ab1131)" style="fill: none; stroke: #ffffff; stroke-linecap: round"/>
     </g>
     <g id="text_8">
      <!-- −200 -->
      <g style="fill: #262626" transform="translate(22.174375 321.600797) scale(0.11 -0.11)">
       <use xlink:href="#ArialMT-2212"/>
       <use xlink:href="#ArialMT-32" x="58.398438"/>
       <use xlink:href="#ArialMT-30" x="114.013672"/>
       <use xlink:href="#ArialMT-30" x="169.628906"/>
      </g>
     </g>
    </g>
    <g id="ytick_3">
     <g id="line2d_8">
      <path d="M 56.450156 228.96 
L 499.970156 228.96 
" clip-path="url(#p93d6ab1131)" style="fill: none; stroke: #ffffff; stroke-linecap: round"/>
     </g>
     <g id="text_9">
      <!-- 0 -->
      <g style="fill: #262626" transform="translate(40.833125 232.896797) scale(0.11 -0.11)">
       <use xlink:href="#ArialMT-30"/>
      </g>
     </g>
    </g>
    <g id="ytick_4">
     <g id="line2d_9">
      <path d="M 56.450156 140.256 
L 499.970156 140.256 
" clip-path="url(#p93d6ab1131)" style="fill: none; stroke: #ffffff; stroke-linecap: round"/>
     </g>
     <g id="text_10">
      <!-- 200 -->
      <g style="fill: #262626" transform="translate(28.599063 144.192797) scale(0.11 -0.11)">
       <use xlink:href="#ArialMT-32"/>
       <use xlink:href="#ArialMT-30" x="55.615234"/>
       <use xlink:href="#ArialMT-30" x="111.230469"/>
      </g>
     </g>
    </g>
    <g id="ytick_5">
     <g id="line2d_10">
      <path d="M 56.450156 51.552 
L 499.970156 51.552 
" clip-path="url(#p93d6ab1131)" style="fill: none; stroke: #ffffff; stroke-linecap: round"/>
     </g>
     <g id="text_11">
      <!-- 400 -->
      <g style="fill: #262626" transform="translate(28.599063 55.488797) scale(0.11 -0.11)">
       <use xlink:href="#ArialMT-34"/>
       <use xlink:href="#ArialMT-30" x="55.615234"/>
       <use xlink:href="#ArialMT-30" x="111.230469"/>
      </g>
     </g>
    </g>
    <g id="text_12">
     <!-- y -->
     <g style="fill: #262626" transform="translate(15.64875 231.96) rotate(-90) scale(0.12 -0.12)">
      <defs>
       <path id="ArialMT-79" d="M 397 -1278 
L 334 -750 
Q 519 -800 656 -800 
Q 844 -800 956 -737 
Q 1069 -675 1141 -563 
Q 1194 -478 1313 -144 
Q 1328 -97 1363 -6 
L 103 3319 
L 709 3319 
L 1400 1397 
Q 1534 1031 1641 628 
Q 1738 1016 1872 1384 
L 2581 3319 
L 3144 3319 
L 1881 -56 
Q 1678 -603 1566 -809 
Q 1416 -1088 1222 -1217 
Q 1028 -1347 759 -1347 
Q 597 -1347 397 -1278 
z
" transform="scale(0.015625)"/>
      </defs>
      <use xlink:href="#ArialMT-79"/>
     </g>
    </g>
   </g>
   <g id="patch_3">
    <path d="M 278.210156 317.664 
C 301.734732 317.664 324.298969 308.317587 340.933356 291.6832 
C 357.567743 275.048813 366.914156 252.484576 366.914156 228.96 
C 366.914156 205.435424 357.567743 182.871187 340.933356 166.2368 
C 324.298969 149.602413 301.734732 140.256 278.210156 140.256 
C 254.68558 140.256 232.121343 149.602413 215.486956 166.2368 
C 198.852569 182.871187 189.506156 205.435424 189.506156 228.96 
C 189.506156 252.484576 198.852569 275.048813 215.486956 291.6832 
C 232.121343 308.317587 254.68558 317.664 278.210156 317.664 
z
" clip-path="url(#p93d6ab1131)" style="fill: #228b22; opacity: 0.12; stroke: #228b22; stroke-width: 1.5; stroke-linejoin: miter"/>
   </g>
   <g id="PathCollection_1">
    <defs>
     <path id="m6df122da8e" d="M 0 2.236068 
C 0.593012 2.236068 1.161816 2.000462 1.581139 1.581139 
C 2.000462 1.161816 2.236068 0.593012 2.236068 0 
C 2.236068 -0.593012 2.000462 -1.161816 1.581139 -1.581139 
C 1.161816 -2.000462 0.593012 -2.236068 0 -2.236068 
C -0.593012 -2.236068 -1.161816 -2.000462 -1.581139 -1.581139 
C -2.000462 -1.161816 -2.236068 -0.593012 -2.236068 0 
C -2.236068 0.593012 -2.000462 1.161816 -1.581139 1.581139 
C -1.161816 2.000462 -0.593012 2.236068 0 2.236068 
z
" style="stroke: #4169e1"/>
    </defs>
    <g clip-path="url(#p93d6ab1131)">
     <use xlink:href="#m6df122da8e" x="306.927318" y="351.787117" style="fill: #4169e1; stroke: #4169e1"/>
     <use xlink:href="#m6df122da8e" x="398.664479" y="193.138414" style="fill: #4169e1; stroke: #4169e1"/>
     <use xlink:href="#m6df122da8e" x="211.775136" y="217.437618" style="fill: #4169e1; stroke: #4169e1"/>
     <use xlink:href="#m6df122da8e" x="327.338212" y="285.587771" style="fill: #4169e1; stroke: #4169e1"/>
     <use xlink:href="#m6df122da8e" x="321.858118" y="151.077601" style="fill: #4169e1; stroke: #4169e1"/>
     <use xlink:href="#m6df122da8e" x="300.321759" y="179.016417" style="fill: #4169e1; stroke: #4169e1"/>
     <use xlink:href="#m6df122da8e" x="223.135984" y="329.051344" style="fill: #4169e1; stroke: #4169e1"/>
     <use xlink:href="#m6df122da8e" x="271.351736" y="160.805507" style="fill: #4169e1; stroke: #4169e1"/>
     <use xlink:href="#m6df122da8e" x="252.911763" y="105.283511" style="fill: #4169e1; stroke: #4169e1"/>
     <use xlink:href="#m6df122da8e" x="392.966774" y="300.084079" style="fill: #4169e1; stroke: #4169e1"/>
     <use xlink:href="#m6df122da8e" x="468.403302" y="147.413458" style="fill: #4169e1; stroke: #4169e1"/>
     <use xlink:href="#m6df122da8e" x="386.514917" y="244.124894" style="fill: #4169e1; stroke: #4169e1"/>
     <use xlink:href="#m6df122da8e" x="361.691745" y="218.841854" style="fill: #4169e1; stroke: #4169e1"/>
     <use xlink:href="#m6df122da8e" x="204.201106" y="223.989864" style="fill: #4169e1; stroke: #4169e1"/>
     <use xlink:href="#m6df122da8e" x="315.014121" y="146.091446" style="fill: #4169e1; stroke: #4169e1"/>
     <use xlink:href="#m6df122da8e" x="421.939913" y="239.585098" style="fill: #4169e1; stroke: #4169e1"/>
     <use xlink:href="#m6df122da8e" x="337.16368" y="62.755035" style="fill: #4169e1; stroke: #4169e1"/>
     <use xlink:href="#m6df122da8e" x="415.123053" y="89.917834" style="fill: #4169e1; stroke: #4169e1"/>
     <use xlink:href="#m6df122da8e" x="214.748275" y="306.814848" style="fill: #4169e1; stroke: #4169e1"/>
     <use xlink:href="#m6df122da8e" x="345.968847" y="205.714733" style="fill: #4169e1; stroke: #4169e1"/>
     <use xlink:href="#m6df122da8e" x="323.554513" y="208.990088" style="fill: #4169e1; stroke: #4169e1"/>
     <use xlink:href="#m6df122da8e" x="369.130592" y="207.367147" style="fill: #4169e1; stroke: #4169e1"/>
     <use xlink:href="#m6df122da8e" x="254.125601" y="338.230304" style="fill: #4169e1; stroke: #4169e1"/>
     <use xlink:href="#m6df122da8e" x="352.760247" y="201.465596" style="fill: #4169e1; stroke: #4169e1"/>
     <use xlink:href="#m6df122da8e" x="273.707332" y="297.923739" style="fill: #4169e1; stroke: #4169e1"/>
     <use xlink:href="#m6df122da8e" x="462.26626" y="130.826781" style="fill: #4169e1; stroke: #4169e1"/>
     <use xlink:href="#m6df122da8e" x="426.552153" y="62.973899" style="fill: #4169e1; stroke: #4169e1"/>
     <use xlink:href="#m6df122da8e" x="232.974865" y="230.99385" style="fill: #4169e1; stroke: #4169e1"/>
     <use xlink:href="#m6df122da8e" x="230.583295" y="207.740032" style="fill: #4169e1; stroke: #4169e1"/>
     <use xlink:href="#m6df122da8e" x="351.793878" y="110.782967" style="fill: #4169e1; stroke: #4169e1"/>
     <use xlink:href="#m6df122da8e" x="254.127291" y="245.490363" style="fill: #4169e1; stroke: #4169e1"/>
     <use xlink:href="#m6df122da8e" x="208.618812" y="190.930444" style="fill: #4169e1; stroke: #4169e1"/>
     <use xlink:href="#m6df122da8e" x="294.45085" y="290.24111" style="fill: #4169e1; stroke: #4169e1"/>
     <use xlink:href="#m6df122da8e" x="394.463559" y="144.930752" style="fill: #4169e1; stroke: #4169e1"/>
     <use xlink:href="#m6df122da8e" x="312.883203" y="107.982597" style="fill: #4169e1; stroke: #4169e1"/>
     <use xlink:href="#m6df122da8e" x="255.19412" y="297.03157" style="fill: #4169e1; stroke: #4169e1"/>
     <use xlink:href="#m6df122da8e" x="319.855223" y="95.403714" style="fill: #4169e1; stroke: #4169e1"/>
     <use xlink:href="#m6df122da8e" x="187.951197" y="201.79953" style="fill: #4169e1; stroke: #4169e1"/>
     <use xlink:href="#m6df122da8e" x="333.809404" y="272.29954" style="fill: #4169e1; stroke: #4169e1"/>
     <use xlink:href="#m6df122da8e" x="248.01439" y="318.350977" style="fill: #4169e1; stroke: #4169e1"/>
     <use xlink:href="#m6df122da8e" x="448.403025" y="134.890366" style="fill: #4169e1; stroke: #4169e1"/>
     <use xlink:href="#m6df122da8e" x="329.982812" y="101.61654" style="fill: #4169e1; stroke: #4169e1"/>
     <use xlink:href="#m6df122da8e" x="369.544288" y="282.509487" style="fill: #4169e1; stroke: #4169e1"/>
     <use xlink:href="#m6df122da8e" x="266.726927" y="297.689033" style="fill: #4169e1; stroke: #4169e1"/>
     <use xlink:href="#m6df122da8e" x="164.74149" y="256.345699" style="fill: #4169e1; stroke: #4169e1"/>
     <use xlink:href="#m6df122da8e" x="378.833391" y="88.194781" style="fill: #4169e1; stroke: #4169e1"/>
     <use xlink:href="#m6df122da8e" x="230.502307" y="127.38588" style="fill: #4169e1; stroke: #4169e1"/>
     <use xlink:href="#m6df122da8e" x="223.647871" y="221.700794" style="fill: #4169e1; stroke: #4169e1"/>
     <use xlink:href="#m6df122da8e" x="344.312388" y="250.782118" style="fill: #4169e1; stroke: #4169e1"/>
     <use xlink:href="#m6df122da8e" x="332.638024" y="171.701917" style="fill: #4169e1; stroke: #4169e1"/>
     <use xlink:href="#m6df122da8e" x="314.968436" y="239.20609" style="fill: #4169e1; stroke: #4169e1"/>
     <use xlink:href="#m6df122da8e" x="439.53299" y="101.539173" style="fill: #4169e1; stroke: #4169e1"/>
     <use xlink:href="#m6df122da8e" x="183.379224" y="258.030578" style="fill: #4169e1; stroke: #4169e1"/>
     <use xlink:href="#m6df122da8e" x="201.269303" y="294.509889" style="fill: #4169e1; stroke: #4169e1"/>
     <use xlink:href="#m6df122da8e" x="150.276861" y="171.514347" style="fill: #4169e1; stroke: #4169e1"/>
     <use xlink:href="#m6df122da8e" x="324.852596" y="66.864647" style="fill: #4169e1; stroke: #4169e1"/>
     <use xlink:href="#m6df122da8e" x="254.046728" y="165.061712" style="fill: #4169e1; stroke: #4169e1"/>
     <use xlink:href="#m6df122da8e" x="415.200393" y="202.022545" style="fill: #4169e1; stroke: #4169e1"/>
     <use xlink:href="#m6df122da8e" x="149.401935" y="210.987678" style="fill: #4169e1; stroke: #4169e1"/>
     <use xlink:href="#m6df122da8e" x="326.476605" y="257.095438" style="fill: #4169e1; stroke: #4169e1"/>
     <use xlink:href="#m6df122da8e" x="352.215051" y="191.274504" style="fill: #4169e1; stroke: #4169e1"/>
     <use xlink:href="#m6df122da8e" x="320.96468" y="338.7312" style="fill: #4169e1; stroke: #4169e1"/>
     <use xlink:href="#m6df122da8e" x="363.096058" y="142.862276" style="fill: #4169e1; stroke: #4169e1"/>
     <use xlink:href="#m6df122da8e" x="349.712854" y="83.323438" style="fill: #4169e1; stroke: #4169e1"/>
     <use xlink:href="#m6df122da8e" x="183.709577" y="267.984911" style="fill: #4169e1; stroke: #4169e1"/>
     <use xlink:href="#m6df122da8e" x="354.041336" y="150.334758" style="fill: #4169e1; stroke: #4169e1"/>
     <use xlink:href="#m6df122da8e" x="390.322925" y="97.460421" style="fill: #4169e1; stroke: #4169e1"/>
     <use xlink:href="#m6df122da8e" x="299.729458" y="221.057406" style="fill: #4169e1; stroke: #4169e1"/>
     <use xlink:href="#m6df122da8e" x="199.940151" y="210.071089" style="fill: #4169e1; stroke: #4169e1"/>
     <use xlink:href="#m6df122da8e" x="217.002312" y="138.720538" style="fill: #4169e1; stroke: #4169e1"/>
     <use xlink:href="#m6df122da8e" x="306.412353" y="306.818631" style="fill: #4169e1; stroke: #4169e1"/>
     <use xlink:href="#m6df122da8e" x="243.122514" y="129.565223" style="fill: #4169e1; stroke: #4169e1"/>
     <use xlink:href="#m6df122da8e" x="320.602391" y="136.606996" style="fill: #4169e1; stroke: #4169e1"/>
     <use xlink:href="#m6df122da8e" x="289.239713" y="229.850797" style="fill: #4169e1; stroke: #4169e1"/>
     <use xlink:href="#m6df122da8e" x="269.816018" y="306.457615" style="fill: #4169e1; stroke: #4169e1"/>
     <use xlink:href="#m6df122da8e" x="280.742691" y="198.979402" style="fill: #4169e1; stroke: #4169e1"/>
     <use xlink:href="#m6df122da8e" x="213.725999" y="227.92465" style="fill: #4169e1; stroke: #4169e1"/>
     <use xlink:href="#m6df122da8e" x="240.962438" y="79.307963" style="fill: #4169e1; stroke: #4169e1"/>
     <use xlink:href="#m6df122da8e" x="262.321554" y="85.229052" style="fill: #4169e1; stroke: #4169e1"/>
     <use xlink:href="#m6df122da8e" x="270.242332" y="284.937948" style="fill: #4169e1; stroke: #4169e1"/>
     <use xlink:href="#m6df122da8e" x="316.543763" y="197.927995" style="fill: #4169e1; stroke: #4169e1"/>
     <use xlink:href="#m6df122da8e" x="425.475472" y="207.493469" style="fill: #4169e1; stroke: #4169e1"/>
     <use xlink:href="#m6df122da8e" x="354.9684" y="316.846998" style="fill: #4169e1; stroke: #4169e1"/>
     <use xlink:href="#m6df122da8e" x="336.660876" y="28.477306" style="fill: #4169e1; stroke: #4169e1"/>
     <use xlink:href="#m6df122da8e" x="312.158247" y="283.442103" style="fill: #4169e1; stroke: #4169e1"/>
     <use xlink:href="#m6df122da8e" x="250.490038" y="147.379512" style="fill: #4169e1; stroke: #4169e1"/>
     <use xlink:href="#m6df122da8e" x="309.09494" y="176.586765" style="fill: #4169e1; stroke: #4169e1"/>
     <use xlink:href="#m6df122da8e" x="337.301813" y="240.85435" style="fill: #4169e1; stroke: #4169e1"/>
     <use xlink:href="#m6df122da8e" x="444.073412" y="168.742009" style="fill: #4169e1; stroke: #4169e1"/>
     <use xlink:href="#m6df122da8e" x="196.321398" y="311.549574" style="fill: #4169e1; stroke: #4169e1"/>
     <use xlink:href="#m6df122da8e" x="407.322106" y="217.059688" style="fill: #4169e1; stroke: #4169e1"/>
     <use xlink:href="#m6df122da8e" x="377.244093" y="222.356661" style="fill: #4169e1; stroke: #4169e1"/>
     <use xlink:href="#m6df122da8e" x="396.682919" y="158.353269" style="fill: #4169e1; stroke: #4169e1"/>
     <use xlink:href="#m6df122da8e" x="156.125646" y="244.665754" style="fill: #4169e1; stroke: #4169e1"/>
     <use xlink:href="#m6df122da8e" x="406.664785" y="97.772894" style="fill: #4169e1; stroke: #4169e1"/>
     <use xlink:href="#m6df122da8e" x="416.108913" y="204.525844" style="fill: #4169e1; stroke: #4169e1"/>
     <use xlink:href="#m6df122da8e" x="379.589336" y="215.167845" style="fill: #4169e1; stroke: #4169e1"/>
     <use xlink:href="#m6df122da8e" x="263.419812" y="183.933662" style="fill: #4169e1; stroke: #4169e1"/>
     <use xlink:href="#m6df122da8e" x="241.911974" y="231.852304" style="fill: #4169e1; stroke: #4169e1"/>
     <use xlink:href="#m6df122da8e" x="331.369425" y="57.576674" style="fill: #4169e1; stroke: #4169e1"/>
     <use xlink:href="#m6df122da8e" x="214.440506" y="191.46354" style="fill: #4169e1; stroke: #4169e1"/>
     <use xlink:href="#m6df122da8e" x="251.365886" y="143.822872" style="fill: #4169e1; stroke: #4169e1"/>
     <use xlink:href="#m6df122da8e" x="232.030281" y="294.01926" style="fill: #4169e1; stroke: #4169e1"/>
     <use xlink:href="#m6df122da8e" x="339.481853" y="153.3899" style="fill: #4169e1; stroke: #4169e1"/>
     <use xlink:href="#m6df122da8e" x="231.042001" y="290.910864" style="fill: #4169e1; stroke: #4169e1"/>
     <use xlink:href="#m6df122da8e" x="338.765085" y="223.947277" style="fill: #4169e1; stroke: #4169e1"/>
     <use xlink:href="#m6df122da8e" x="336.116187" y="294.971661" style="fill: #4169e1; stroke: #4169e1"/>
     <use xlink:href="#m6df122da8e" x="398.563547" y="311.880435" style="fill: #4169e1; stroke: #4169e1"/>
     <use xlink:href="#m6df122da8e" x="201.749801" y="257.110222" style="fill: #4169e1; stroke: #4169e1"/>
     <use xlink:href="#m6df122da8e" x="312.894996" y="180.564487" style="fill: #4169e1; stroke: #4169e1"/>
     <use xlink:href="#m6df122da8e" x="219.967438" y="106.040221" style="fill: #4169e1; stroke: #4169e1"/>
     <use xlink:href="#m6df122da8e" x="257.144572" y="90.894733" style="fill: #4169e1; stroke: #4169e1"/>
     <use xlink:href="#m6df122da8e" x="370.199247" y="135.89948" style="fill: #4169e1; stroke: #4169e1"/>
     <use xlink:href="#m6df122da8e" x="281.555675" y="165.022304" style="fill: #4169e1; stroke: #4169e1"/>
     <use xlink:href="#m6df122da8e" x="406.282931" y="252.894004" style="fill: #4169e1; stroke: #4169e1"/>
     <use xlink:href="#m6df122da8e" x="372.523842" y="160.480244" style="fill: #4169e1; stroke: #4169e1"/>
     <use xlink:href="#m6df122da8e" x="420.618733" y="227.729873" style="fill: #4169e1; stroke: #4169e1"/>
     <use xlink:href="#m6df122da8e" x="383.343907" y="269.116376" style="fill: #4169e1; stroke: #4169e1"/>
     <use xlink:href="#m6df122da8e" x="322.807999" y="315.948696" style="fill: #4169e1; stroke: #4169e1"/>
     <use xlink:href="#m6df122da8e" x="228.166813" y="85.055667" style="fill: #4169e1; stroke: #4169e1"/>
     <use xlink:href="#m6df122da8e" x="259.399595" y="135.377686" style="fill: #4169e1; stroke: #4169e1"/>
     <use xlink:href="#m6df122da8e" x="262.074257" y="182.955009" style="fill: #4169e1; stroke: #4169e1"/>
     <use xlink:href="#m6df122da8e" x="330.294101" y="220.315172" style="fill: #4169e1; stroke: #4169e1"/>
     <use xlink:href="#m6df122da8e" x="294.049052" y="236.134969" style="fill: #4169e1; stroke: #4169e1"/>
     <use xlink:href="#m6df122da8e" x="350.979474" y="208.261658" style="fill: #4169e1; stroke: #4169e1"/>
     <use xlink:href="#m6df122da8e" x="241.272187" y="136.259745" style="fill: #4169e1; stroke: #4169e1"/>
     <use xlink:href="#m6df122da8e" x="444.1316" y="202.176563" style="fill: #4169e1; stroke: #4169e1"/>
     <use xlink:href="#m6df122da8e" x="243.985082" y="51.850125" style="fill: #4169e1; stroke: #4169e1"/>
     <use xlink:href="#m6df122da8e" x="272.31093" y="84.448466" style="fill: #4169e1; stroke: #4169e1"/>
     <use xlink:href="#m6df122da8e" x="352.596918" y="295.077073" style="fill: #4169e1; stroke: #4169e1"/>
     <use xlink:href="#m6df122da8e" x="213.415137" y="297.900906" style="fill: #4169e1; stroke: #4169e1"/>
     <use xlink:href="#m6df122da8e" x="218.314072" y="245.370377" style="fill: #4169e1; stroke: #4169e1"/>
     <use xlink:href="#m6df122da8e" x="360.459985" y="160.45582" style="fill: #4169e1; stroke: #4169e1"/>
     <use xlink:href="#m6df122da8e" x="358.881027" y="260.79239" style="fill: #4169e1; stroke: #4169e1"/>
     <use xlink:href="#m6df122da8e" x="318.949071" y="310.397942" style="fill: #4169e1; stroke: #4169e1"/>
     <use xlink:href="#m6df122da8e" x="252.755754" y="179.565322" style="fill: #4169e1; stroke: #4169e1"/>
     <use xlink:href="#m6df122da8e" x="372.723858" y="257.199907" style="fill: #4169e1; stroke: #4169e1"/>
     <use xlink:href="#m6df122da8e" x="166.490307" y="191.916396" style="fill: #4169e1; stroke: #4169e1"/>
     <use xlink:href="#m6df122da8e" x="261.180309" y="323.359364" style="fill: #4169e1; stroke: #4169e1"/>
     <use xlink:href="#m6df122da8e" x="364.514441" y="195.636016" style="fill: #4169e1; stroke: #4169e1"/>
     <use xlink:href="#m6df122da8e" x="424.705727" y="201.214713" style="fill: #4169e1; stroke: #4169e1"/>
     <use xlink:href="#m6df122da8e" x="246.852136" y="265.230175" style="fill: #4169e1; stroke: #4169e1"/>
     <use xlink:href="#m6df122da8e" x="369.181281" y="93.203736" style="fill: #4169e1; stroke: #4169e1"/>
     <use xlink:href="#m6df122da8e" x="178.457929" y="270.3368" style="fill: #4169e1; stroke: #4169e1"/>
     <use xlink:href="#m6df122da8e" x="306.617417" y="262.538872" style="fill: #4169e1; stroke: #4169e1"/>
     <use xlink:href="#m6df122da8e" x="329.39518" y="271.75634" style="fill: #4169e1; stroke: #4169e1"/>
     <use xlink:href="#m6df122da8e" x="235.82942" y="90.973995" style="fill: #4169e1; stroke: #4169e1"/>
     <use xlink:href="#m6df122da8e" x="261.95897" y="242.495759" style="fill: #4169e1; stroke: #4169e1"/>
     <use xlink:href="#m6df122da8e" x="283.767519" y="317.079748" style="fill: #4169e1; stroke: #4169e1"/>
     <use xlink:href="#m6df122da8e" x="386.008005" y="278.117843" style="fill: #4169e1; stroke: #4169e1"/>
     <use xlink:href="#m6df122da8e" x="365.961254" y="206.382468" style="fill: #4169e1; stroke: #4169e1"/>
     <use xlink:href="#m6df122da8e" x="355.660973" y="158.176127" style="fill: #4169e1; stroke: #4169e1"/>
    </g>
   </g>
   <g id="PathCollection_2">
    <defs>
     <path id="m7556d3add7" d="M 0 2.5 
C 0.663008 2.5 1.29895 2.236584 1.767767 1.767767 
C 2.236584 1.29895 2.5 0.663008 2.5 0 
C 2.5 -0.663008 2.236584 -1.29895 1.767767 -1.767767 
C 1.29895 -2.236584 0.663008 -2.5 0 -2.5 
C -0.663008 -2.5 -1.29895 -2.236584 -1.767767 -1.767767 
C -2.236584 -1.29895 -2.5 -0.663008 -2.5 0 
C -2.5 0.663008 -2.236584 1.29895 -1.767767 1.767767 
C -1.29895 2.236584 -0.663008 2.5 0 2.5 
z
" style="stroke: #b22222"/>
    </defs>
    <g clip-path="url(#p93d6ab1131)">
     <use xlink:href="#m7556d3add7" x="290.251463" y="189.497068" style="fill: #b22222; stroke: #b22222"/>
     <use xlink:href="#m7556d3add7" x="283.314501" y="162.97855" style="fill: #b22222; stroke: #b22222"/>
     <use xlink:href="#m7556d3add7" x="290.638898" y="166.537849" style="fill: #b22222; stroke: #b22222"/>
     <use xlink:href="#m7556d3add7" x="294.596598" y="249.989657" style="fill: #b22222; stroke: #b22222"/>
     <use xlink:href="#m7556d3add7" x="304.392468" y="232.839004" style="fill: #b22222; stroke: #b22222"/>
     <use xlink:href="#m7556d3add7" x="281.46389" y="171.757303" style="fill: #b22222; stroke: #b22222"/>
     <use xlink:href="#m7556d3add7" x="293.811909" y="199.911139" style="fill: #b22222; stroke: #b22222"/>
     <use xlink:href="#m7556d3add7" x="294.079826" y="175.751677" style="fill: #b22222; stroke: #b22222"/>
     <use xlink:href="#m7556d3add7" x="293.834261" y="151.751611" style="fill: #b22222; stroke: #b22222"/>
     <use xlink:href="#m7556d3add7" x="271.537065" y="141.332478" style="fill: #b22222; stroke: #b22222"/>
     <use xlink:href="#m7556d3add7" x="279.30407" y="167.165596" style="fill: #b22222; stroke: #b22222"/>
     <use xlink:href="#m7556d3add7" x="274.514926" y="185.396389" style="fill: #b22222; stroke: #b22222"/>
     <use xlink:href="#m7556d3add7" x="309.277854" y="212.752292" style="fill: #b22222; stroke: #b22222"/>
     <use xlink:href="#m7556d3add7" x="314.178149" y="150.684926" style="fill: #b22222; stroke: #b22222"/>
     <use xlink:href="#m7556d3add7" x="276.255878" y="163.743631" style="fill: #b22222; stroke: #b22222"/>
     <use xlink:href="#m7556d3add7" x="297.286545" y="248.60188" style="fill: #b22222; stroke: #b22222"/>
     <use xlink:href="#m7556d3add7" x="286.702766" y="203.106677" style="fill: #b22222; stroke: #b22222"/>
     <use xlink:href="#m7556d3add7" x="291.604552" y="149.27308" style="fill: #b22222; stroke: #b22222"/>
     <use xlink:href="#m7556d3add7" x="287.383273" y="170.084046" style="fill: #b22222; stroke: #b22222"/>
     <use xlink:href="#m7556d3add7" x="281.144181" y="173.394654" style="fill: #b22222; stroke: #b22222"/>
     <use xlink:href="#m7556d3add7" x="284.503047" y="165.373149" style="fill: #b22222; stroke: #b22222"/>
     <use xlink:href="#m7556d3add7" x="285.834689" y="170.85239" style="fill: #b22222; stroke: #b22222"/>
     <use xlink:href="#m7556d3add7" x="280.704053" y="178.482831" style="fill: #b22222; stroke: #b22222"/>
     <use xlink:href="#m7556d3add7" x="283.17901" y="174.794836" style="fill: #b22222; stroke: #b22222"/>
     <use xlink:href="#m7556d3add7" x="292.007494" y="154.13321" style="fill: #b22222; stroke: #b22222"/>
     <use xlink:href="#m7556d3add7" x="308.613139" y="187.097257" style="fill: #b22222; stroke: #b22222"/>
     <use xlink:href="#m7556d3add7" x="303.052941" y="229.26857" style="fill: #b22222; stroke: #b22222"/>
     <use xlink:href="#m7556d3add7" x="295.237408" y="199.479709" style="fill: #b22222; stroke: #b22222"/>
     <use xlink:href="#m7556d3add7" x="284.731761" y="156.288582" style="fill: #b22222; stroke: #b22222"/>
     <use xlink:href="#m7556d3add7" x="276.924463" y="145.935352" style="fill: #b22222; stroke: #b22222"/>
     <use xlink:href="#m7556d3add7" x="280.136434" y="176.610536" style="fill: #b22222; stroke: #b22222"/>
     <use xlink:href="#m7556d3add7" x="287.748592" y="224.162429" style="fill: #b22222; stroke: #b22222"/>
     <use xlink:href="#m7556d3add7" x="281.993601" y="164.603499" style="fill: #b22222; stroke: #b22222"/>
     <use xlink:href="#m7556d3add7" x="289.029006" y="182.622014" style="fill: #b22222; stroke: #b22222"/>
     <use xlink:href="#m7556d3add7" x="281.439301" y="187.550986" style="fill: #b22222; stroke: #b22222"/>
     <use xlink:href="#m7556d3add7" x="288.606325" y="172.574678" style="fill: #b22222; stroke: #b22222"/>
     <use xlink:href="#m7556d3add7" x="293.211566" y="142.676594" style="fill: #b22222; stroke: #b22222"/>
     <use xlink:href="#m7556d3add7" x="287.208705" y="164.731901" style="fill: #b22222; stroke: #b22222"/>
     <use xlink:href="#m7556d3add7" x="278.519085" y="171.247556" style="fill: #b22222; stroke: #b22222"/>
     <use xlink:href="#m7556d3add7" x="298.040089" y="230.779232" style="fill: #b22222; stroke: #b22222"/>
     <use xlink:href="#m7556d3add7" x="283.013749" y="185.343017" style="fill: #b22222; stroke: #b22222"/>
     <use xlink:href="#m7556d3add7" x="287.278593" y="204.184986" style="fill: #b22222; stroke: #b22222"/>
     <use xlink:href="#m7556d3add7" x="301.173921" y="197.107669" style="fill: #b22222; stroke: #b22222"/>
     <use xlink:href="#m7556d3add7" x="322.085715" y="261.935857" style="fill: #b22222; stroke: #b22222"/>
     <use xlink:href="#m7556d3add7" x="281.349886" y="181.374587" style="fill: #b22222; stroke: #b22222"/>
     <use xlink:href="#m7556d3add7" x="279.941776" y="175.22546" style="fill: #b22222; stroke: #b22222"/>
     <use xlink:href="#m7556d3add7" x="283.994831" y="184.890211" style="fill: #b22222; stroke: #b22222"/>
     <use xlink:href="#m7556d3add7" x="288.758457" y="179.900056" style="fill: #b22222; stroke: #b22222"/>
     <use xlink:href="#m7556d3add7" x="286.589936" y="156.379511" style="fill: #b22222; stroke: #b22222"/>
     <use xlink:href="#m7556d3add7" x="298.30688" y="178.009493" style="fill: #b22222; stroke: #b22222"/>
     <use xlink:href="#m7556d3add7" x="285.085978" y="145.936928" style="fill: #b22222; stroke: #b22222"/>
    </g>
   </g>
   <g id="patch_4">
    <path d="M 56.450156 450.72 
L 56.450156 7.2 
" style="fill: none; stroke: #ffffff; stroke-width: 1.25; stroke-linejoin: miter; stroke-linecap: square"/>
   </g>
   <g id="patch_5">
    <path d="M 499.970156 450.72 
L 499.970156 7.2 
" style="fill: none; stroke: #ffffff; stroke-width: 1.25; stroke-linejoin: miter; stroke-linecap: square"/>
   </g>
   <g id="patch_6">
    <path d="M 56.450156 450.72 
L 499.970156 450.72 
" style="fill: none; stroke: #ffffff; stroke-width: 1.25; stroke-linejoin: miter; stroke-linecap: square"/>
   </g>
   <g id="patch_7">
    <path d="M 56.450156 7.2 
L 499.970156 7.2 
" style="fill: none; stroke: #ffffff; stroke-width: 1.25; stroke-linejoin: miter; stroke-linecap: square"/>
   </g>
   <g id="text_13">
    <!-- t = 3800 -->
    <g style="fill: #262626" transform="translate(65.320556 24.659775) scale(0.12 -0.12)">
     <defs>
      <path id="ArialMT-74" d="M 1650 503 
L 1731 6 
Q 1494 -44 1306 -44 
Q 1000 -44 831 53 
Q 663 150 594 308 
Q 525 466 525 972 
L 525 2881 
L 113 2881 
L 113 3319 
L 525 3319 
L 525 4141 
L 1084 4478 
L 1084 3319 
L 1650 3319 
L 1650 2881 
L 1084 2881 
L 1084 941 
Q 1084 700 1114 631 
Q 1144 563 1211 522 
Q 1278 481 1403 481 
Q 1497 481 1650 503 
z
" transform="scale(0.015625)"/>
      <path id="ArialMT-20" transform="scale(0.015625)"/>
      <path id="ArialMT-3d" d="M 3381 2694 
L 356 2694 
L 356 3219 
L 3381 3219 
L 3381 2694 
z
M 3381 1303 
L 356 1303 
L 356 1828 
L 3381 1828 
L 3381 1303 
z
" transform="scale(0.015625)"/>
      <path id="ArialMT-33" d="M 269 1209 
L 831 1284 
Q 928 806 1161 595 
Q 1394 384 1728 384 
Q 2125 384 2398 659 
Q 2672 934 2672 1341 
Q 2672 1728 2419 1979 
Q 2166 2231 1775 2231 
Q 1616 2231 1378 2169 
L 1441 2663 
Q 1497 2656 1531 2656 
Q 1891 2656 2178 2843 
Q 2466 3031 2466 3422 
Q 2466 3731 2256 3934 
Q 2047 4138 1716 4138 
Q 1388 4138 1169 3931 
Q 950 3725 888 3313 
L 325 3413 
Q 428 3978 793 4289 
Q 1159 4600 1703 4600 
Q 2078 4600 2393 4439 
Q 2709 4278 2876 4000 
Q 3044 3722 3044 3409 
Q 3044 3113 2884 2869 
Q 2725 2625 2413 2481 
Q 2819 2388 3044 2092 
Q 3269 1797 3269 1353 
Q 3269 753 2831 336 
Q 2394 -81 1725 -81 
Q 1122 -81 723 278 
Q 325 638 269 1209 
z
" transform="scale(0.015625)"/>
      <path id="ArialMT-38" d="M 1131 2484 
Q 781 2613 612 2850 
Q 444 3088 444 3419 
Q 444 3919 803 4259 
Q 1163 4600 1759 4600 
Q 2359 4600 2725 4251 
Q 3091 3903 3091 3403 
Q 3091 3084 2923 2848 
Q 2756 2613 2416 2484 
Q 2838 2347 3058 2040 
Q 3278 1734 3278 1309 
Q 3278 722 2862 322 
Q 2447 -78 1769 -78 
Q 1091 -78 675 323 
Q 259 725 259 1325 
Q 259 1772 486 2073 
Q 713 2375 1131 2484 
z
M 1019 3438 
Q 1019 3113 1228 2906 
Q 1438 2700 1772 2700 
Q 2097 2700 2305 2904 
Q 2513 3109 2513 3406 
Q 2513 3716 2298 3927 
Q 2084 4138 1766 4138 
Q 1444 4138 1231 3931 
Q 1019 3725 1019 3438 
z
M 838 1322 
Q 838 1081 952 856 
Q 1066 631 1291 507 
Q 1516 384 1775 384 
Q 2178 384 2440 643 
Q 2703 903 2703 1303 
Q 2703 1709 2433 1975 
Q 2163 2241 1756 2241 
Q 1359 2241 1098 1978 
Q 838 1716 838 1322 
z
" transform="scale(0.015625)"/>
     </defs>
     <use xlink:href="#ArialMT-74"/>
     <use xlink:href="#ArialMT-20" x="27.783203"/>
     <use xlink:href="#ArialMT-3d" x="55.566406"/>
     <use xlink:href="#ArialMT-20" x="113.964844"/>
     <use xlink:href="#ArialMT-33" x="141.748047"/>
     <use xlink:href="#ArialMT-38" x="197.363281"/>
     <use xlink:href="#ArialMT-30" x="252.978516"/>
     <use xlink:href="#ArialMT-30" x="308.59375"/>
    </g>
   </g>
   <g id="legend_1">
    <g id="patch_8">
     <path d="M 328.111406 94.59 
L 483.170156 94.59 
Q 487.970156 94.59 487.970156 89.79 
L 487.970156 24 
Q 487.970156 19.2 483.170156 19.2 
L 328.111406 19.2 
Q 323.311406 19.2 323.311406 24 
L 323.311406 89.79 
Q 323.311406 94.59 328.111406 94.59 
z
" style="fill: #eaeaf2; opacity: 0.8; stroke: #cccccc; stroke-linejoin: miter"/>
    </g>
    <g id="PathCollection_3">
     <g>
      <use xlink:href="#m6df122da8e" x="356.911406" y="39.97125" style="fill: #4169e1; stroke: #4169e1"/>
     </g>
    </g>
    <g id="text_14">
     <!-- Sheep -->
     <g style="fill: #262626" transform="translate(400.111406 46.27125) scale(0.24 -0.24)">
      <defs>
       <path id="ArialMT-53" d="M 288 1472 
L 859 1522 
Q 900 1178 1048 958 
Q 1197 738 1509 602 
Q 1822 466 2213 466 
Q 2559 466 2825 569 
Q 3091 672 3220 851 
Q 3350 1031 3350 1244 
Q 3350 1459 3225 1620 
Q 3100 1781 2813 1891 
Q 2628 1963 1997 2114 
Q 1366 2266 1113 2400 
Q 784 2572 623 2826 
Q 463 3081 463 3397 
Q 463 3744 659 4045 
Q 856 4347 1234 4503 
Q 1613 4659 2075 4659 
Q 2584 4659 2973 4495 
Q 3363 4331 3572 4012 
Q 3781 3694 3797 3291 
L 3216 3247 
Q 3169 3681 2898 3903 
Q 2628 4125 2100 4125 
Q 1550 4125 1298 3923 
Q 1047 3722 1047 3438 
Q 1047 3191 1225 3031 
Q 1400 2872 2139 2705 
Q 2878 2538 3153 2413 
Q 3553 2228 3743 1945 
Q 3934 1663 3934 1294 
Q 3934 928 3725 604 
Q 3516 281 3123 101 
Q 2731 -78 2241 -78 
Q 1619 -78 1198 103 
Q 778 284 539 648 
Q 300 1013 288 1472 
z
" transform="scale(0.015625)"/>
       <path id="ArialMT-68" d="M 422 0 
L 422 4581 
L 984 4581 
L 984 2938 
Q 1378 3394 1978 3394 
Q 2347 3394 2619 3248 
Q 2891 3103 3008 2847 
Q 3125 2591 3125 2103 
L 3125 0 
L 2563 0 
L 2563 2103 
Q 2563 2525 2380 2717 
Q 2197 2909 1863 2909 
Q 1613 2909 1392 2779 
Q 1172 2650 1078 2428 
Q 984 2206 984 1816 
L 984 0 
L 422 0 
z
" transform="scale(0.015625)"/>
       <path id="ArialMT-65" d="M 2694 1069 
L 3275 997 
Q 3138 488 2766 206 
Q 2394 -75 1816 -75 
Q 1088 -75 661 373 
Q 234 822 234 1631 
Q 234 2469 665 2931 
Q 1097 3394 1784 3394 
Q 2450 3394 2872 2941 
Q 3294 2488 3294 1666 
Q 3294 1616 3291 1516 
L 816 1516 
Q 847 969 1125 678 
Q 1403 388 1819 388 
Q 2128 388 2347 550 
Q 2566 713 2694 1069 
z
M 847 1978 
L 2700 1978 
Q 2663 2397 2488 2606 
Q 2219 2931 1791 2931 
Q 1403 2931 1139 2672 
Q 875 2413 847 1978 
z
" transform="scale(0.015625)"/>
       <path id="ArialMT-70" d="M 422 -1272 
L 422 3319 
L 934 3319 
L 934 2888 
Q 1116 3141 1344 3267 
Q 1572 3394 1897 3394 
Q 2322 3394 2647 3175 
Q 2972 2956 3137 2557 
Q 3303 2159 3303 1684 
Q 3303 1175 3120 767 
Q 2938 359 2589 142 
Q 2241 -75 1856 -75 
Q 1575 -75 1351 44 
Q 1128 163 984 344 
L 984 -1272 
L 422 -1272 
z
M 931 1641 
Q 931 1000 1190 694 
Q 1450 388 1819 388 
Q 2194 388 2461 705 
Q 2728 1022 2728 1688 
Q 2728 2322 2467 2637 
Q 2206 2953 1844 2953 
Q 1484 2953 1207 2617 
Q 931 2281 931 1641 
z
" transform="scale(0.015625)"/>
      </defs>
      <use xlink:href="#ArialMT-53"/>
      <use xlink:href="#ArialMT-68" x="66.699219"/>
      <use xlink:href="#ArialMT-65" x="122.314453"/>
      <use xlink:href="#ArialMT-65" x="177.929688"/>
      <use xlink:href="#ArialMT-70" x="233.544922"/>
     </g>
    </g>
    <g id="PathCollection_4">
     <g>
      <use xlink:href="#m7556d3add7" x="356.911406" y="73.92" style="fill: #b22222; stroke: #b22222"/>
     </g>
    </g>
    <g id="text_15">
     <!-- Wolves -->
     <g style="fill: #262626" transform="translate(400.111406 80.22) scale(0.24 -0.24)">
      <defs>
       <path id="ArialMT-57" d="M 1294 0 
L 78 4581 
L 700 4581 
L 1397 1578 
Q 1509 1106 1591 641 
Q 1766 1375 1797 1488 
L 2669 4581 
L 3400 4581 
L 4056 2263 
Q 4303 1400 4413 641 
Q 4500 1075 4641 1638 
L 5359 4581 
L 5969 4581 
L 4713 0 
L 4128 0 
L 3163 3491 
Q 3041 3928 3019 4028 
Q 2947 3713 2884 3491 
L 1913 0 
L 1294 0 
z
" transform="scale(0.015625)"/>
       <path id="ArialMT-6f" d="M 213 1659 
Q 213 2581 725 3025 
Q 1153 3394 1769 3394 
Q 2453 3394 2887 2945 
Q 3322 2497 3322 1706 
Q 3322 1066 3130 698 
Q 2938 331 2570 128 
Q 2203 -75 1769 -75 
Q 1072 -75 642 372 
Q 213 819 213 1659 
z
M 791 1659 
Q 791 1022 1069 705 
Q 1347 388 1769 388 
Q 2188 388 2466 706 
Q 2744 1025 2744 1678 
Q 2744 2294 2464 2611 
Q 2184 2928 1769 2928 
Q 1347 2928 1069 2612 
Q 791 2297 791 1659 
z
" transform="scale(0.015625)"/>
       <path id="ArialMT-6c" d="M 409 0 
L 409 4581 
L 972 4581 
L 972 0 
L 409 0 
z
" transform="scale(0.015625)"/>
       <path id="ArialMT-76" d="M 1344 0 
L 81 3319 
L 675 3319 
L 1388 1331 
Q 1503 1009 1600 663 
Q 1675 925 1809 1294 
L 2547 3319 
L 3125 3319 
L 1869 0 
L 1344 0 
z
" transform="scale(0.015625)"/>
       <path id="ArialMT-73" d="M 197 991 
L 753 1078 
Q 800 744 1014 566 
Q 1228 388 1613 388 
Q 2000 388 2187 545 
Q 2375 703 2375 916 
Q 2375 1106 2209 1216 
Q 2094 1291 1634 1406 
Q 1016 1563 777 1677 
Q 538 1791 414 1992 
Q 291 2194 291 2438 
Q 291 2659 392 2848 
Q 494 3038 669 3163 
Q 800 3259 1026 3326 
Q 1253 3394 1513 3394 
Q 1903 3394 2198 3281 
Q 2494 3169 2634 2976 
Q 2775 2784 2828 2463 
L 2278 2388 
Q 2241 2644 2061 2787 
Q 1881 2931 1553 2931 
Q 1166 2931 1000 2803 
Q 834 2675 834 2503 
Q 834 2394 903 2306 
Q 972 2216 1119 2156 
Q 1203 2125 1616 2013 
Q 2213 1853 2448 1751 
Q 2684 1650 2818 1456 
Q 2953 1263 2953 975 
Q 2953 694 2789 445 
Q 2625 197 2315 61 
Q 2006 -75 1616 -75 
Q 969 -75 630 194 
Q 291 463 197 991 
z
" transform="scale(0.015625)"/>
      </defs>
      <use xlink:href="#ArialMT-57"/>
      <use xlink:href="#ArialMT-6f" x="92.634766"/>
      <use xlink:href="#ArialMT-6c" x="148.25"/>
      <use xlink:href="#ArialMT-76" x="170.466797"/>
      <use xlink:href="#ArialMT-65" x="220.466797"/>
      <use xlink:href="#ArialMT-73" x="276.082031"/>
     </g>
    </g>
   </g>
  </g>
 </g>
 <defs>
  <clipPath id="p93d6ab1131">
   <rect x="56.450156" y="7.2" width="443.52" height="443.52"/>
  </clipPath>
 </defs>
</svg>
