<?xml version="1.0" encoding="utf-8" standalone="no"?>
<!DOCTYPE svg PUBLIC "-//W3C//DTD SVG 1.1//EN"
  "http://www.w3.org/Graphics/SVG/1.1/DTD/svg11.dtd">
<svg xmlns:xlink="http://www.w3.org/1999/xlink" width="506.065313pt" height="503.394375pt" viewBox="0 0 506.065313 503.394375" xmlns="http://www.w3.org/2000/svg" version="1.1">
 <metadata>
  <rdf:RDF xmlns:dc="http://purl.org/dc/elements/1.1/" xmlns:cc="http://creativecommons.org/ns#" xmlns:rdf="http://www.w3.org/1999/02/22-rdf-syntax-ns#">
   <cc:Work>
    <dc:type rdf:resource="http://purl.org/dc/dcmitype/StillImage"/>
    <dc:date>2026-05-08T10:04:23.996777</dc:date>
    <dc:format>image/svg+xml</dc:format>
    <dc:creator>
     <cc:Agent>
      <dc:title>Matplotlib v3.7.1, https://matplotlib.org/</dc:title>
     </cc:Agent>
    </dc:creator>
   </cc:Work>
  </rdf:RDF>
 </metadata>
 <defs>
  <style type="text/css">*{stroke-linejoin: round; stroke-linecap: butt}</style>
 </defs>
 <g id="figure_1">
  <g id="patch_1">
   <path d="M 0 503.394375 
L 506.065313 503.394375 
L 506.065313 0 
L 0 0 
z
" style="fill: #ffffff"/>
  </g>
  <g id="axes_1">
   <g id="patch_2">
    <path d="M 55.345313 465.838125 
L 498.865313 465.838125 
L 498.865313 22.318125 
L 55.345313 22.318125 
z
" style="fill: #ffffff"/>
   </g>
   <g id="patch_3">
    <path d="M 277.105313 332.782125 
C 300.629888 332.782125 323.194125 323.435712 339.828512 306.801325 
C 356.462899 290.166938 365.809313 267.602701 365.809313 244.078125 
C 365.809313 220.553549 356.462899 197.989312 339.828512 181.354925 
C 323.194125 164.720538 300.629888 155.374125 277.105313 155.374125 
C 253.580737 155.374125 231.0165 164.720538 214.382113 181.354925 
C 197.747726 197.989312 188.401313 220.553549 188.401313 244.078125 
C 188.401313 267.602701 197.747726 290.166938 214.382113 306.801325 
C 231.0165 323.435712 253.580737 332.782125 277.105313 332.782125 
z
" clip-path="url(#p39d4d6a654)" style="fill: #228b22; opacity: 0.12; stroke: #228b22; stroke-width: 1.5; stroke-linejoin: miter"/>
   </g>
   <g id="PathCollection_1">
    <defs>
     <path id="md77c980b0c" d="M 0 2.236068 
C 0.593012 2.236068 1.161816 2.000462 1.581139 1.581139 
C 2.000462 1.161816 2.236068 0.593012 2.236068 0 
C 2.236068 -0.593012 2.000462 -1.161816 1.581139 -1.581139 
C 1.161816 -2.000462 0.593012 -2.236068 0 -2.236068 
C -0.593012 -2.236068 -1.161816 -2.000462 -1.581139 -1.581139 
C -2.000462 -1.161816 -2.236068 -0.593012 -2.236068 0 
C -2.236068 0.593012 -2.000462 1.161816 -1.581139 1.581139 
C -1.161816 2.000462 -0.593012 2.236068 0 2.236068 
z
" style="stroke: #4169e1"/>
    </defs>
    <g clip-path="url(#p39d4d6a654)">
     <use xlink:href="#md77c980b0c" x="350.614333" y="141.225752" style="fill: #4169e1; stroke: #4169e1"/>
     <use xlink:href="#md77c980b0c" x="230.577052" y="293.323852" style="fill: #4169e1; stroke: #4169e1"/>
     <use xlink:href="#md77c980b0c" x="299.54848" y="281.063362" style="fill: #4169e1; stroke: #4169e1"/>
     <use xlink:href="#md77c980b0c" x="189.149786" y="295.568306" style="fill: #4169e1; stroke: #4169e1"/>
     <use xlink:href="#md77c980b0c" x="235.354414" y="206.689949" style="fill: #4169e1; stroke: #4169e1"/>
     <use xlink:href="#md77c980b0c" x="424.187037" y="187.702379" style="fill: #4169e1; stroke: #4169e1"/>
     <use xlink:href="#md77c980b0c" x="251.318033" y="231.867484" style="fill: #4169e1; stroke: #4169e1"/>
     <use xlink:href="#md77c980b0c" x="329.458292" y="175.473643" style="fill: #4169e1; stroke: #4169e1"/>
     <use xlink:href="#md77c980b0c" x="148.787524" y="296.756114" style="fill: #4169e1; stroke: #4169e1"/>
     <use xlink:href="#md77c980b0c" x="159.308536" y="201.846353" style="fill: #4169e1; stroke: #4169e1"/>
     <use xlink:href="#md77c980b0c" x="257.78584" y="152.005874" style="fill: #4169e1; stroke: #4169e1"/>
     <use xlink:href="#md77c980b0c" x="165.516781" y="357.57173" style="fill: #4169e1; stroke: #4169e1"/>
     <use xlink:href="#md77c980b0c" x="212.046493" y="421.114883" style="fill: #4169e1; stroke: #4169e1"/>
     <use xlink:href="#md77c980b0c" x="192.938263" y="164.206099" style="fill: #4169e1; stroke: #4169e1"/>
     <use xlink:href="#md77c980b0c" x="282.761547" y="155.51349" style="fill: #4169e1; stroke: #4169e1"/>
     <use xlink:href="#md77c980b0c" x="157.135711" y="280.869163" style="fill: #4169e1; stroke: #4169e1"/>
     <use xlink:href="#md77c980b0c" x="249.275578" y="258.708074" style="fill: #4169e1; stroke: #4169e1"/>
     <use xlink:href="#md77c980b0c" x="330.625868" y="280.248637" style="fill: #4169e1; stroke: #4169e1"/>
     <use xlink:href="#md77c980b0c" x="275.311005" y="190.509157" style="fill: #4169e1; stroke: #4169e1"/>
     <use xlink:href="#md77c980b0c" x="337.2251" y="249.764443" style="fill: #4169e1; stroke: #4169e1"/>
     <use xlink:href="#md77c980b0c" x="353.122012" y="242.445374" style="fill: #4169e1; stroke: #4169e1"/>
     <use xlink:href="#md77c980b0c" x="498.865313" y="444.276418" style="fill: #4169e1; stroke: #4169e1"/>
     <use xlink:href="#md77c980b0c" x="377.46541" y="391.29202" style="fill: #4169e1; stroke: #4169e1"/>
     <use xlink:href="#md77c980b0c" x="175.147545" y="378.600524" style="fill: #4169e1; stroke: #4169e1"/>
     <use xlink:href="#md77c980b0c" x="223.692994" y="302.412537" style="fill: #4169e1; stroke: #4169e1"/>
     <use xlink:href="#md77c980b0c" x="239.267347" y="334.395218" style="fill: #4169e1; stroke: #4169e1"/>
     <use xlink:href="#md77c980b0c" x="397.679706" y="215.251369" style="fill: #4169e1; stroke: #4169e1"/>
     <use xlink:href="#md77c980b0c" x="344.565208" y="327.956686" style="fill: #4169e1; stroke: #4169e1"/>
     <use xlink:href="#md77c980b0c" x="289.965254" y="268.519881" style="fill: #4169e1; stroke: #4169e1"/>
     <use xlink:href="#md77c980b0c" x="261.942515" y="333.98406" style="fill: #4169e1; stroke: #4169e1"/>
     <use xlink:href="#md77c980b0c" x="306.356064" y="275.012687" style="fill: #4169e1; stroke: #4169e1"/>
     <use xlink:href="#md77c980b0c" x="178.74724" y="233.221864" style="fill: #4169e1; stroke: #4169e1"/>
     <use xlink:href="#md77c980b0c" x="282.339878" y="289.189386" style="fill: #4169e1; stroke: #4169e1"/>
     <use xlink:href="#md77c980b0c" x="255.559912" y="312.461632" style="fill: #4169e1; stroke: #4169e1"/>
     <use xlink:href="#md77c980b0c" x="305.697877" y="370.919147" style="fill: #4169e1; stroke: #4169e1"/>
     <use xlink:href="#md77c980b0c" x="264.39137" y="168.70959" style="fill: #4169e1; stroke: #4169e1"/>
     <use xlink:href="#md77c980b0c" x="297.40747" y="155.848106" style="fill: #4169e1; stroke: #4169e1"/>
     <use xlink:href="#md77c980b0c" x="348.806727" y="128.058962" style="fill: #4169e1; stroke: #4169e1"/>
     <use xlink:href="#md77c980b0c" x="118.719797" y="97.5271" style="fill: #4169e1; stroke: #4169e1"/>
     <use xlink:href="#md77c980b0c" x="336.684045" y="383.206632" style="fill: #4169e1; stroke: #4169e1"/>
     <use xlink:href="#md77c980b0c" x="292.28182" y="347.324331" style="fill: #4169e1; stroke: #4169e1"/>
     <use xlink:href="#md77c980b0c" x="328.57806" y="228.901779" style="fill: #4169e1; stroke: #4169e1"/>
     <use xlink:href="#md77c980b0c" x="388.46441" y="302.117295" style="fill: #4169e1; stroke: #4169e1"/>
     <use xlink:href="#md77c980b0c" x="236.458568" y="254.611485" style="fill: #4169e1; stroke: #4169e1"/>
     <use xlink:href="#md77c980b0c" x="237.749731" y="220.41215" style="fill: #4169e1; stroke: #4169e1"/>
     <use xlink:href="#md77c980b0c" x="369.016508" y="332.435063" style="fill: #4169e1; stroke: #4169e1"/>
     <use xlink:href="#md77c980b0c" x="198.878539" y="182.467623" style="fill: #4169e1; stroke: #4169e1"/>
     <use xlink:href="#md77c980b0c" x="328.04085" y="284.72761" style="fill: #4169e1; stroke: #4169e1"/>
     <use xlink:href="#md77c980b0c" x="274.950303" y="314.762596" style="fill: #4169e1; stroke: #4169e1"/>
     <use xlink:href="#md77c980b0c" x="330.430603" y="278.42065" style="fill: #4169e1; stroke: #4169e1"/>
     <use xlink:href="#md77c980b0c" x="204.895721" y="90.396036" style="fill: #4169e1; stroke: #4169e1"/>
     <use xlink:href="#md77c980b0c" x="362.490634" y="124.163137" style="fill: #4169e1; stroke: #4169e1"/>
     <use xlink:href="#md77c980b0c" x="75.830744" y="298.287468" style="fill: #4169e1; stroke: #4169e1"/>
     <use xlink:href="#md77c980b0c" x="327.15605" y="40.645295" style="fill: #4169e1; stroke: #4169e1"/>
     <use xlink:href="#md77c980b0c" x="291.020072" y="125.645508" style="fill: #4169e1; stroke: #4169e1"/>
     <use xlink:href="#md77c980b0c" x="374.969927" y="267.348319" style="fill: #4169e1; stroke: #4169e1"/>
     <use xlink:href="#md77c980b0c" x="290.556821" y="274.952283" style="fill: #4169e1; stroke: #4169e1"/>
     <use xlink:href="#md77c980b0c" x="158.240382" y="170.691631" style="fill: #4169e1; stroke: #4169e1"/>
     <use xlink:href="#md77c980b0c" x="285.457922" y="259.08013" style="fill: #4169e1; stroke: #4169e1"/>
     <use xlink:href="#md77c980b0c" x="76.281194" y="282.192519" style="fill: #4169e1; stroke: #4169e1"/>
     <use xlink:href="#md77c980b0c" x="245.833265" y="235.75131" style="fill: #4169e1; stroke: #4169e1"/>
     <use xlink:href="#md77c980b0c" x="55.345313" y="416.969904" style="fill: #4169e1; stroke: #4169e1"/>
     <use xlink:href="#md77c980b0c" x="318.370871" y="89.911342" style="fill: #4169e1; stroke: #4169e1"/>
     <use xlink:href="#md77c980b0c" x="227.825189" y="82.054346" style="fill: #4169e1; stroke: #4169e1"/>
     <use xlink:href="#md77c980b0c" x="343.752104" y="196.501442" style="fill: #4169e1; stroke: #4169e1"/>
     <use xlink:href="#md77c980b0c" x="174.574386" y="187.595167" style="fill: #4169e1; stroke: #4169e1"/>
     <use xlink:href="#md77c980b0c" x="191.493981" y="309.567552" style="fill: #4169e1; stroke: #4169e1"/>
     <use xlink:href="#md77c980b0c" x="278.164311" y="401.664985" style="fill: #4169e1; stroke: #4169e1"/>
     <use xlink:href="#md77c980b0c" x="155.485139" y="182.935906" style="fill: #4169e1; stroke: #4169e1"/>
     <use xlink:href="#md77c980b0c" x="138.603483" y="22.318125" style="fill: #4169e1; stroke: #4169e1"/>
     <use xlink:href="#md77c980b0c" x="212.675059" y="192.796744" style="fill: #4169e1; stroke: #4169e1"/>
     <use xlink:href="#md77c980b0c" x="106.198938" y="58.458427" style="fill: #4169e1; stroke: #4169e1"/>
     <use xlink:href="#md77c980b0c" x="132.229196" y="465.838125" style="fill: #4169e1; stroke: #4169e1"/>
     <use xlink:href="#md77c980b0c" x="496.038197" y="354.153027" style="fill: #4169e1; stroke: #4169e1"/>
     <use xlink:href="#md77c980b0c" x="121.826413" y="211.662715" style="fill: #4169e1; stroke: #4169e1"/>
     <use xlink:href="#md77c980b0c" x="442.123934" y="119.009952" style="fill: #4169e1; stroke: #4169e1"/>
     <use xlink:href="#md77c980b0c" x="217.490001" y="281.046372" style="fill: #4169e1; stroke: #4169e1"/>
     <use xlink:href="#md77c980b0c" x="257.079585" y="150.411419" style="fill: #4169e1; stroke: #4169e1"/>
     <use xlink:href="#md77c980b0c" x="289.909574" y="307.69855" style="fill: #4169e1; stroke: #4169e1"/>
     <use xlink:href="#md77c980b0c" x="55.345313" y="38.602407" style="fill: #4169e1; stroke: #4169e1"/>
     <use xlink:href="#md77c980b0c" x="242.045793" y="338.833619" style="fill: #4169e1; stroke: #4169e1"/>
     <use xlink:href="#md77c980b0c" x="253.351812" y="90.864731" style="fill: #4169e1; stroke: #4169e1"/>
     <use xlink:href="#md77c980b0c" x="230.000837" y="137.252432" style="fill: #4169e1; stroke: #4169e1"/>
     <use xlink:href="#md77c980b0c" x="346.468623" y="220.427955" style="fill: #4169e1; stroke: #4169e1"/>
     <use xlink:href="#md77c980b0c" x="372.951449" y="218.100208" style="fill: #4169e1; stroke: #4169e1"/>
     <use xlink:href="#md77c980b0c" x="213.423492" y="186.205059" style="fill: #4169e1; stroke: #4169e1"/>
     <use xlink:href="#md77c980b0c" x="498.865313" y="66.231708" style="fill: #4169e1; stroke: #4169e1"/>
     <use xlink:href="#md77c980b0c" x="276.344072" y="363.54028" style="fill: #4169e1; stroke: #4169e1"/>
     <use xlink:href="#md77c980b0c" x="351.812168" y="396.051279" style="fill: #4169e1; stroke: #4169e1"/>
     <use xlink:href="#md77c980b0c" x="157.611485" y="80.687336" style="fill: #4169e1; stroke: #4169e1"/>
     <use xlink:href="#md77c980b0c" x="330.258362" y="211.003675" style="fill: #4169e1; stroke: #4169e1"/>
     <use xlink:href="#md77c980b0c" x="399.242949" y="327.166991" style="fill: #4169e1; stroke: #4169e1"/>
     <use xlink:href="#md77c980b0c" x="303.66894" y="275.088877" style="fill: #4169e1; stroke: #4169e1"/>
     <use xlink:href="#md77c980b0c" x="329.90479" y="132.224534" style="fill: #4169e1; stroke: #4169e1"/>
     <use xlink:href="#md77c980b0c" x="182.558693" y="219.948616" style="fill: #4169e1; stroke: #4169e1"/>
     <use xlink:href="#md77c980b0c" x="124.024441" y="365.970734" style="fill: #4169e1; stroke: #4169e1"/>
     <use xlink:href="#md77c980b0c" x="307.364555" y="341.430285" style="fill: #4169e1; stroke: #4169e1"/>
     <use xlink:href="#md77c980b0c" x="232.265333" y="285.533744" style="fill: #4169e1; stroke: #4169e1"/>
     <use xlink:href="#md77c980b0c" x="242.671198" y="260.890456" style="fill: #4169e1; stroke: #4169e1"/>
     <use xlink:href="#md77c980b0c" x="141.916375" y="152.938616" style="fill: #4169e1; stroke: #4169e1"/>
     <use xlink:href="#md77c980b0c" x="472.117759" y="247.803152" style="fill: #4169e1; stroke: #4169e1"/>
     <use xlink:href="#md77c980b0c" x="80.777411" y="342.553249" style="fill: #4169e1; stroke: #4169e1"/>
     <use xlink:href="#md77c980b0c" x="340.070108" y="154.424817" style="fill: #4169e1; stroke: #4169e1"/>
     <use xlink:href="#md77c980b0c" x="246.04311" y="306.00987" style="fill: #4169e1; stroke: #4169e1"/>
     <use xlink:href="#md77c980b0c" x="283.658202" y="302.147783" style="fill: #4169e1; stroke: #4169e1"/>
     <use xlink:href="#md77c980b0c" x="353.601881" y="114.177441" style="fill: #4169e1; stroke: #4169e1"/>
     <use xlink:href="#md77c980b0c" x="130.97067" y="284.271763" style="fill: #4169e1; stroke: #4169e1"/>
     <use xlink:href="#md77c980b0c" x="389.835095" y="227.520782" style="fill: #4169e1; stroke: #4169e1"/>
     <use xlink:href="#md77c980b0c" x="224.203689" y="79.321151" style="fill: #4169e1; stroke: #4169e1"/>
     <use xlink:href="#md77c980b0c" x="110.063049" y="279.37829" style="fill: #4169e1; stroke: #4169e1"/>
     <use xlink:href="#md77c980b0c" x="268.214802" y="282.754093" style="fill: #4169e1; stroke: #4169e1"/>
     <use xlink:href="#md77c980b0c" x="235.540983" y="188.198791" style="fill: #4169e1; stroke: #4169e1"/>
     <use xlink:href="#md77c980b0c" x="384.223906" y="60.650405" style="fill: #4169e1; stroke: #4169e1"/>
     <use xlink:href="#md77c980b0c" x="294.507862" y="292.50733" style="fill: #4169e1; stroke: #4169e1"/>
     <use xlink:href="#md77c980b0c" x="264.410029" y="188.812559" style="fill: #4169e1; stroke: #4169e1"/>
     <use xlink:href="#md77c980b0c" x="165.201148" y="157.783769" style="fill: #4169e1; stroke: #4169e1"/>
     <use xlink:href="#md77c980b0c" x="243.23732" y="320.727762" style="fill: #4169e1; stroke: #4169e1"/>
     <use xlink:href="#md77c980b0c" x="274.328856" y="151.05126" style="fill: #4169e1; stroke: #4169e1"/>
     <use xlink:href="#md77c980b0c" x="226.301929" y="124.032036" style="fill: #4169e1; stroke: #4169e1"/>
     <use xlink:href="#md77c980b0c" x="310.171764" y="101.730497" style="fill: #4169e1; stroke: #4169e1"/>
     <use xlink:href="#md77c980b0c" x="454.971099" y="318.352038" style="fill: #4169e1; stroke: #4169e1"/>
     <use xlink:href="#md77c980b0c" x="263.350219" y="90.143402" style="fill: #4169e1; stroke: #4169e1"/>
     <use xlink:href="#md77c980b0c" x="358.322557" y="327.736266" style="fill: #4169e1; stroke: #4169e1"/>
     <use xlink:href="#md77c980b0c" x="286.854553" y="149.747946" style="fill: #4169e1; stroke: #4169e1"/>
     <use xlink:href="#md77c980b0c" x="346.769503" y="22.318125" style="fill: #4169e1; stroke: #4169e1"/>
     <use xlink:href="#md77c980b0c" x="251.091879" y="331.450665" style="fill: #4169e1; stroke: #4169e1"/>
     <use xlink:href="#md77c980b0c" x="333.350055" y="328.338459" style="fill: #4169e1; stroke: #4169e1"/>
     <use xlink:href="#md77c980b0c" x="202.652966" y="221.018653" style="fill: #4169e1; stroke: #4169e1"/>
     <use xlink:href="#md77c980b0c" x="301.231223" y="308.151233" style="fill: #4169e1; stroke: #4169e1"/>
     <use xlink:href="#md77c980b0c" x="433.319613" y="79.156428" style="fill: #4169e1; stroke: #4169e1"/>
     <use xlink:href="#md77c980b0c" x="303.55888" y="220.856752" style="fill: #4169e1; stroke: #4169e1"/>
     <use xlink:href="#md77c980b0c" x="368.885096" y="163.806182" style="fill: #4169e1; stroke: #4169e1"/>
     <use xlink:href="#md77c980b0c" x="316.130782" y="186.021157" style="fill: #4169e1; stroke: #4169e1"/>
     <use xlink:href="#md77c980b0c" x="271.491052" y="201.270947" style="fill: #4169e1; stroke: #4169e1"/>
     <use xlink:href="#md77c980b0c" x="443.484921" y="333.889585" style="fill: #4169e1; stroke: #4169e1"/>
     <use xlink:href="#md77c980b0c" x="276.465118" y="139.178952" style="fill: #4169e1; stroke: #4169e1"/>
     <use xlink:href="#md77c980b0c" x="280.236579" y="236.631208" style="fill: #4169e1; stroke: #4169e1"/>
     <use xlink:href="#md77c980b0c" x="370.011457" y="261.263618" style="fill: #4169e1; stroke: #4169e1"/>
     <use xlink:href="#md77c980b0c" x="276.189992" y="115.962295" style="fill: #4169e1; stroke: #4169e1"/>
     <use xlink:href="#md77c980b0c" x="174.125215" y="99.423498" style="fill: #4169e1; stroke: #4169e1"/>
     <use xlink:href="#md77c980b0c" x="252.219153" y="219.38489" style="fill: #4169e1; stroke: #4169e1"/>
     <use xlink:href="#md77c980b0c" x="194.312609" y="319.074416" style="fill: #4169e1; stroke: #4169e1"/>
     <use xlink:href="#md77c980b0c" x="245.376511" y="22.318125" style="fill: #4169e1; stroke: #4169e1"/>
     <use xlink:href="#md77c980b0c" x="340.693964" y="228.077115" style="fill: #4169e1; stroke: #4169e1"/>
     <use xlink:href="#md77c980b0c" x="344.092148" y="208.578422" style="fill: #4169e1; stroke: #4169e1"/>
     <use xlink:href="#md77c980b0c" x="121.198098" y="313.094442" style="fill: #4169e1; stroke: #4169e1"/>
     <use xlink:href="#md77c980b0c" x="435.831927" y="335.583706" style="fill: #4169e1; stroke: #4169e1"/>
     <use xlink:href="#md77c980b0c" x="341.845839" y="362.831661" style="fill: #4169e1; stroke: #4169e1"/>
     <use xlink:href="#md77c980b0c" x="119.906532" y="455.093945" style="fill: #4169e1; stroke: #4169e1"/>
     <use xlink:href="#md77c980b0c" x="150.939113" y="257.131911" style="fill: #4169e1; stroke: #4169e1"/>
    </g>
   </g>
   <g id="PathCollection_2">
    <defs>
     <path id="m834dc716a7" d="M 0 2.5 
C 0.663008 2.5 1.29895 2.236584 1.767767 1.767767 
C 2.236584 1.29895 2.5 0.663008 2.5 0 
C 2.5 -0.663008 2.236584 -1.29895 1.767767 -1.767767 
C 1.29895 -2.236584 0.663008 -2.5 0 -2.5 
C -0.663008 -2.5 -1.29895 -2.236584 -1.767767 -1.767767 
C -2.236584 -1.29895 -2.5 -0.663008 -2.5 0 
C -2.5 0.663008 -2.236584 1.29895 -1.767767 1.767767 
C -1.29895 2.236584 -0.663008 2.5 0 2.5 
z
" style="stroke: #b22222"/>
    </defs>
    <g clip-path="url(#p39d4d6a654)">
     <use xlink:href="#m834dc716a7" x="312.516716" y="332.492885" style="fill: #b22222; stroke: #b22222"/>
     <use xlink:href="#m834dc716a7" x="350.25172" y="145.361879" style="fill: #b22222; stroke: #b22222"/>
     <use xlink:href="#m834dc716a7" x="263.658167" y="361.473015" style="fill: #b22222; stroke: #b22222"/>
     <use xlink:href="#m834dc716a7" x="174.864451" y="258.94164" style="fill: #b22222; stroke: #b22222"/>
     <use xlink:href="#m834dc716a7" x="311.646811" y="256.692683" style="fill: #b22222; stroke: #b22222"/>
     <use xlink:href="#m834dc716a7" x="375.790001" y="198.281061" style="fill: #b22222; stroke: #b22222"/>
     <use xlink:href="#m834dc716a7" x="317.046303" y="363.644298" style="fill: #b22222; stroke: #b22222"/>
     <use xlink:href="#m834dc716a7" x="261.655911" y="260.814329" style="fill: #b22222; stroke: #b22222"/>
     <use xlink:href="#m834dc716a7" x="381.607127" y="263.910606" style="fill: #b22222; stroke: #b22222"/>
     <use xlink:href="#m834dc716a7" x="164.80831" y="315.101739" style="fill: #b22222; stroke: #b22222"/>
     <use xlink:href="#m834dc716a7" x="288.910917" y="114.626564" style="fill: #b22222; stroke: #b22222"/>
     <use xlink:href="#m834dc716a7" x="237.436669" y="182.301777" style="fill: #b22222; stroke: #b22222"/>
     <use xlink:href="#m834dc716a7" x="288.213789" y="261.100212" style="fill: #b22222; stroke: #b22222"/>
     <use xlink:href="#m834dc716a7" x="223.406424" y="264.426842" style="fill: #b22222; stroke: #b22222"/>
     <use xlink:href="#m834dc716a7" x="357.642653" y="265.296937" style="fill: #b22222; stroke: #b22222"/>
     <use xlink:href="#m834dc716a7" x="195.604235" y="351.848369" style="fill: #b22222; stroke: #b22222"/>
     <use xlink:href="#m834dc716a7" x="378.063529" y="382.414582" style="fill: #b22222; stroke: #b22222"/>
     <use xlink:href="#m834dc716a7" x="244.439062" y="348.273091" style="fill: #b22222; stroke: #b22222"/>
     <use xlink:href="#m834dc716a7" x="261.449754" y="236.014967" style="fill: #b22222; stroke: #b22222"/>
     <use xlink:href="#m834dc716a7" x="371.506118" y="258.070643" style="fill: #b22222; stroke: #b22222"/>
     <use xlink:href="#m834dc716a7" x="220.121398" y="306.20791" style="fill: #b22222; stroke: #b22222"/>
     <use xlink:href="#m834dc716a7" x="293.994575" y="64.031744" style="fill: #b22222; stroke: #b22222"/>
     <use xlink:href="#m834dc716a7" x="318.41107" y="296.400028" style="fill: #b22222; stroke: #b22222"/>
     <use xlink:href="#m834dc716a7" x="246.723895" y="321.284653" style="fill: #b22222; stroke: #b22222"/>
     <use xlink:href="#m834dc716a7" x="335.370309" y="319.670281" style="fill: #b22222; stroke: #b22222"/>
     <use xlink:href="#m834dc716a7" x="212.053876" y="381.940391" style="fill: #b22222; stroke: #b22222"/>
     <use xlink:href="#m834dc716a7" x="182.198502" y="170.310339" style="fill: #b22222; stroke: #b22222"/>
     <use xlink:href="#m834dc716a7" x="176.485739" y="294.531618" style="fill: #b22222; stroke: #b22222"/>
     <use xlink:href="#m834dc716a7" x="325.914223" y="332.237802" style="fill: #b22222; stroke: #b22222"/>
     <use xlink:href="#m834dc716a7" x="277.545323" y="125.18584" style="fill: #b22222; stroke: #b22222"/>
     <use xlink:href="#m834dc716a7" x="173.550817" y="100.615715" style="fill: #b22222; stroke: #b22222"/>
     <use xlink:href="#m834dc716a7" x="218.159037" y="282.454157" style="fill: #b22222; stroke: #b22222"/>
     <use xlink:href="#m834dc716a7" x="296.901605" y="297.24521" style="fill: #b22222; stroke: #b22222"/>
     <use xlink:href="#m834dc716a7" x="229.653921" y="248.914839" style="fill: #b22222; stroke: #b22222"/>
     <use xlink:href="#m834dc716a7" x="417.445717" y="197.002594" style="fill: #b22222; stroke: #b22222"/>
     <use xlink:href="#m834dc716a7" x="66.978982" y="194.910496" style="fill: #b22222; stroke: #b22222"/>
     <use xlink:href="#m834dc716a7" x="223.609912" y="358.697672" style="fill: #b22222; stroke: #b22222"/>
     <use xlink:href="#m834dc716a7" x="364.217138" y="300.94825" style="fill: #b22222; stroke: #b22222"/>
     <use xlink:href="#m834dc716a7" x="381.681808" y="269.584626" style="fill: #b22222; stroke: #b22222"/>
     <use xlink:href="#m834dc716a7" x="384.256817" y="108.043051" style="fill: #b22222; stroke: #b22222"/>
     <use xlink:href="#m834dc716a7" x="271.573466" y="225.756161" style="fill: #b22222; stroke: #b22222"/>
     <use xlink:href="#m834dc716a7" x="98.198375" y="233.877815" style="fill: #b22222; stroke: #b22222"/>
     <use xlink:href="#m834dc716a7" x="342.606624" y="308.589569" style="fill: #b22222; stroke: #b22222"/>
     <use xlink:href="#m834dc716a7" x="407.253068" y="432.491506" style="fill: #b22222; stroke: #b22222"/>
     <use xlink:href="#m834dc716a7" x="169.281882" y="144.389412" style="fill: #b22222; stroke: #b22222"/>
     <use xlink:href="#m834dc716a7" x="149.954593" y="203.299934" style="fill: #b22222; stroke: #b22222"/>
     <use xlink:href="#m834dc716a7" x="376.807114" y="220.740724" style="fill: #b22222; stroke: #b22222"/>
     <use xlink:href="#m834dc716a7" x="323.603596" y="303.087549" style="fill: #b22222; stroke: #b22222"/>
     <use xlink:href="#m834dc716a7" x="119.57955" y="379.264369" style="fill: #b22222; stroke: #b22222"/>
     <use xlink:href="#m834dc716a7" x="264.713917" y="236.054669" style="fill: #b22222; stroke: #b22222"/>
     <use xlink:href="#m834dc716a7" x="122.920609" y="290.497299" style="fill: #b22222; stroke: #b22222"/>
     <use xlink:href="#m834dc716a7" x="275.994072" y="275.010021" style="fill: #b22222; stroke: #b22222"/>
     <use xlink:href="#m834dc716a7" x="104.518197" y="343.696205" style="fill: #b22222; stroke: #b22222"/>
     <use xlink:href="#m834dc716a7" x="297.361941" y="302.291966" style="fill: #b22222; stroke: #b22222"/>
     <use xlink:href="#m834dc716a7" x="204.646045" y="190.555485" style="fill: #b22222; stroke: #b22222"/>
     <use xlink:href="#m834dc716a7" x="303.045082" y="255.38333" style="fill: #b22222; stroke: #b22222"/>
     <use xlink:href="#m834dc716a7" x="297.890127" y="226.761518" style="fill: #b22222; stroke: #b22222"/>
     <use xlink:href="#m834dc716a7" x="191.110049" y="127.61291" style="fill: #b22222; stroke: #b22222"/>
     <use xlink:href="#m834dc716a7" x="385.164457" y="340.213142" style="fill: #b22222; stroke: #b22222"/>
     <use xlink:href="#m834dc716a7" x="392.742676" y="165.14799" style="fill: #b22222; stroke: #b22222"/>
     <use xlink:href="#m834dc716a7" x="182.846626" y="348.237554" style="fill: #b22222; stroke: #b22222"/>
     <use xlink:href="#m834dc716a7" x="254.722423" y="322.58911" style="fill: #b22222; stroke: #b22222"/>
     <use xlink:href="#m834dc716a7" x="152.684566" y="79.850159" style="fill: #b22222; stroke: #b22222"/>
     <use xlink:href="#m834dc716a7" x="160.839119" y="114.339551" style="fill: #b22222; stroke: #b22222"/>
     <use xlink:href="#m834dc716a7" x="236.291352" y="222.891631" style="fill: #b22222; stroke: #b22222"/>
     <use xlink:href="#m834dc716a7" x="255.299159" y="225.61392" style="fill: #b22222; stroke: #b22222"/>
     <use xlink:href="#m834dc716a7" x="292.666145" y="98.09536" style="fill: #b22222; stroke: #b22222"/>
     <use xlink:href="#m834dc716a7" x="361.565263" y="74.521531" style="fill: #b22222; stroke: #b22222"/>
     <use xlink:href="#m834dc716a7" x="217.815833" y="347.442797" style="fill: #b22222; stroke: #b22222"/>
     <use xlink:href="#m834dc716a7" x="258.314154" y="124.020112" style="fill: #b22222; stroke: #b22222"/>
     <use xlink:href="#m834dc716a7" x="58.311731" y="111.337602" style="fill: #b22222; stroke: #b22222"/>
     <use xlink:href="#m834dc716a7" x="381.289755" y="123.238361" style="fill: #b22222; stroke: #b22222"/>
     <use xlink:href="#m834dc716a7" x="209.430689" y="195.444021" style="fill: #b22222; stroke: #b22222"/>
     <use xlink:href="#m834dc716a7" x="191.582798" y="412.295781" style="fill: #b22222; stroke: #b22222"/>
     <use xlink:href="#m834dc716a7" x="191.358081" y="238.616813" style="fill: #b22222; stroke: #b22222"/>
    </g>
   </g>
   <g id="matplotlib.axis_1">
    <g id="xtick_1">
     <g id="line2d_1">
      <defs>
       <path id="ma35dbce777" d="M 0 0 
L 0 3.5 
" style="stroke: #000000; stroke-width: 0.8"/>
      </defs>
      <g>
       <use xlink:href="#ma35dbce777" x="99.697313" y="465.838125" style="stroke: #000000; stroke-width: 0.8"/>
      </g>
     </g>
     <g id="text_1">
      <!-- −400 -->
      <g transform="translate(85.963719 480.436562) scale(0.1 -0.1)">
       <defs>
        <path id="DejaVuSans-2212" d="M 678 2272 
L 4684 2272 
L 4684 1741 
L 678 1741 
L 678 2272 
z
" transform="scale(0.015625)"/>
        <path id="DejaVuSans-34" d="M 2419 4116 
L 825 1625 
L 2419 1625 
L 2419 4116 
z
M 2253 4666 
L 3047 4666 
L 3047 1625 
L 3713 1625 
L 3713 1100 
L 3047 1100 
L 3047 0 
L 2419 0 
L 2419 1100 
L 313 1100 
L 313 1709 
L 2253 4666 
z
" transform="scale(0.015625)"/>
        <path id="DejaVuSans-30" d="M 2034 4250 
Q 1547 4250 1301 3770 
Q 1056 3291 1056 2328 
Q 1056 1369 1301 889 
Q 1547 409 2034 409 
Q 2525 409 2770 889 
Q 3016 1369 3016 2328 
Q 3016 3291 2770 3770 
Q 2525 4250 2034 4250 
z
M 2034 4750 
Q 2819 4750 3233 4129 
Q 3647 3509 3647 2328 
Q 3647 1150 3233 529 
Q 2819 -91 2034 -91 
Q 1250 -91 836 529 
Q 422 1150 422 2328 
Q 422 3509 836 4129 
Q 1250 4750 2034 4750 
z
" transform="scale(0.015625)"/>
       </defs>
       <use xlink:href="#DejaVuSans-2212"/>
       <use xlink:href="#DejaVuSans-34" x="83.789062"/>
       <use xlink:href="#DejaVuSans-30" x="147.412109"/>
       <use xlink:href="#DejaVuSans-30" x="211.035156"/>
      </g>
     </g>
    </g>
    <g id="xtick_2">
     <g id="line2d_2">
      <g>
       <use xlink:href="#ma35dbce777" x="188.401313" y="465.838125" style="stroke: #000000; stroke-width: 0.8"/>
      </g>
     </g>
     <g id="text_2">
      <!-- −200 -->
      <g transform="translate(174.667719 480.436562) scale(0.1 -0.1)">
       <defs>
        <path id="DejaVuSans-32" d="M 1228 531 
L 3431 531 
L 3431 0 
L 469 0 
L 469 531 
Q 828 903 1448 1529 
Q 2069 2156 2228 2338 
Q 2531 2678 2651 2914 
Q 2772 3150 2772 3378 
Q 2772 3750 2511 3984 
Q 2250 4219 1831 4219 
Q 1534 4219 1204 4116 
Q 875 4013 500 3803 
L 500 4441 
Q 881 4594 1212 4672 
Q 1544 4750 1819 4750 
Q 2544 4750 2975 4387 
Q 3406 4025 3406 3419 
Q 3406 3131 3298 2873 
Q 3191 2616 2906 2266 
Q 2828 2175 2409 1742 
Q 1991 1309 1228 531 
z
" transform="scale(0.015625)"/>
       </defs>
       <use xlink:href="#DejaVuSans-2212"/>
       <use xlink:href="#DejaVuSans-32" x="83.789062"/>
       <use xlink:href="#DejaVuSans-30" x="147.412109"/>
       <use xlink:href="#DejaVuSans-30" x="211.035156"/>
      </g>
     </g>
    </g>
    <g id="xtick_3">
     <g id="line2d_3">
      <g>
       <use xlink:href="#ma35dbce777" x="277.105313" y="465.838125" style="stroke: #000000; stroke-width: 0.8"/>
      </g>
     </g>
     <g id="text_3">
      <!-- 0 -->
      <g transform="translate(273.924063 480.436562) scale(0.1 -0.1)">
       <use xlink:href="#DejaVuSans-30"/>
      </g>
     </g>
    </g>
    <g id="xtick_4">
     <g id="line2d_4">
      <g>
       <use xlink:href="#ma35dbce777" x="365.809313" y="465.838125" style="stroke: #000000; stroke-width: 0.8"/>
      </g>
     </g>
     <g id="text_4">
      <!-- 200 -->
      <g transform="translate(356.265563 480.436562) scale(0.1 -0.1)">
       <use xlink:href="#DejaVuSans-32"/>
       <use xlink:href="#DejaVuSans-30" x="63.623047"/>
       <use xlink:href="#DejaVuSans-30" x="127.246094"/>
      </g>
     </g>
    </g>
    <g id="xtick_5">
     <g id="line2d_5">
      <g>
       <use xlink:href="#ma35dbce777" x="454.513313" y="465.838125" style="stroke: #000000; stroke-width: 0.8"/>
      </g>
     </g>
     <g id="text_5">
      <!-- 400 -->
      <g transform="translate(444.969563 480.436562) scale(0.1 -0.1)">
       <use xlink:href="#DejaVuSans-34"/>
       <use xlink:href="#DejaVuSans-30" x="63.623047"/>
       <use xlink:href="#DejaVuSans-30" x="127.246094"/>
      </g>
     </g>
    </g>
    <g id="text_6">
     <!-- x -->
     <g transform="translate(274.145938 494.114687) scale(0.1 -0.1)">
      <defs>
       <path id="DejaVuSans-78" d="M 3513 3500 
L 2247 1797 
L 3578 0 
L 2900 0 
L 1881 1375 
L 863 0 
L 184 0 
L 1544 1831 
L 300 3500 
L 978 3500 
L 1906 2253 
L 2834 3500 
L 3513 3500 
z
" transform="scale(0.015625)"/>
      </defs>
      <use xlink:href="#DejaVuSans-78"/>
     </g>
    </g>
   </g>
   <g id="matplotlib.axis_2">
    <g id="ytick_1">
     <g id="line2d_6">
      <defs>
       <path id="m8dfcf6a856" d="M 0 0 
L -3.5 0 
" style="stroke: #000000; stroke-width: 0.8"/>
      </defs>
      <g>
       <use xlink:href="#m8dfcf6a856" x="55.345313" y="421.486125" style="stroke: #000000; stroke-width: 0.8"/>
      </g>
     </g>
     <g id="text_7">
      <!-- −400 -->
      <g transform="translate(20.878125 425.285344) scale(0.1 -0.1)">
       <use xlink:href="#DejaVuSans-2212"/>
       <use xlink:href="#DejaVuSans-34" x="83.789062"/>
       <use xlink:href="#DejaVuSans-30" x="147.412109"/>
       <use xlink:href="#DejaVuSans-30" x="211.035156"/>
      </g>
     </g>
    </g>
    <g id="ytick_2">
     <g id="line2d_7">
      <g>
       <use xlink:href="#m8dfcf6a856" x="55.345313" y="332.782125" style="stroke: #000000; stroke-width: 0.8"/>
      </g>
     </g>
     <g id="text_8">
      <!-- −200 -->
      <g transform="translate(20.878125 336.581344) scale(0.1 -0.1)">
       <use xlink:href="#DejaVuSans-2212"/>
       <use xlink:href="#DejaVuSans-32" x="83.789062"/>
       <use xlink:href="#DejaVuSans-30" x="147.412109"/>
       <use xlink:href="#DejaVuSans-30" x="211.035156"/>
      </g>
     </g>
    </g>
    <g id="ytick_3">
     <g id="line2d_8">
      <g>
       <use xlink:href="#m8dfcf6a856" x="55.345313" y="244.078125" style="stroke: #000000; stroke-width: 0.8"/>
      </g>
     </g>
     <g id="text_9">
      <!-- 0 -->
      <g transform="translate(41.982813 247.877344) scale(0.1 -0.1)">
       <use xlink:href="#DejaVuSans-30"/>
      </g>
     </g>
    </g>
    <g id="ytick_4">
     <g id="line2d_9">
      <g>
       <use xlink:href="#m8dfcf6a856" x="55.345313" y="155.374125" style="stroke: #000000; stroke-width: 0.8"/>
      </g>
     </g>
     <g id="text_10">
      <!-- 200 -->
      <g transform="translate(29.257813 159.173344) scale(0.1 -0.1)">
       <use xlink:href="#DejaVuSans-32"/>
       <use xlink:href="#DejaVuSans-30" x="63.623047"/>
       <use xlink:href="#DejaVuSans-30" x="127.246094"/>
      </g>
     </g>
    </g>
    <g id="ytick_5">
     <g id="line2d_10">
      <g>
       <use xlink:href="#m8dfcf6a856" x="55.345313" y="66.670125" style="stroke: #000000; stroke-width: 0.8"/>
      </g>
     </g>
     <g id="text_11">
      <!-- 400 -->
      <g transform="translate(29.257813 70.469344) scale(0.1 -0.1)">
       <use xlink:href="#DejaVuSans-34"/>
       <use xlink:href="#DejaVuSans-30" x="63.623047"/>
       <use xlink:href="#DejaVuSans-30" x="127.246094"/>
      </g>
     </g>
    </g>
    <g id="text_12">
     <!-- y -->
     <g transform="translate(14.798438 247.0375) rotate(-90) scale(0.1 -0.1)">
      <defs>
       <path id="DejaVuSans-79" d="M 2059 -325 
Q 1816 -950 1584 -1140 
Q 1353 -1331 966 -1331 
L 506 -1331 
L 506 -850 
L 844 -850 
Q 1081 -850 1212 -737 
Q 1344 -625 1503 -206 
L 1606 56 
L 191 3500 
L 800 3500 
L 1894 763 
L 2988 3500 
L 3597 3500 
L 2059 -325 
z
" transform="scale(0.015625)"/>
      </defs>
      <use xlink:href="#DejaVuSans-79"/>
     </g>
    </g>
   </g>
   <g id="patch_4">
    <path d="M 55.345313 465.838125 
L 55.345313 22.318125 
" style="fill: none; stroke: #000000; stroke-width: 0.8; stroke-linejoin: miter; stroke-linecap: square"/>
   </g>
   <g id="patch_5">
    <path d="M 498.865313 465.838125 
L 498.865313 22.318125 
" style="fill: none; stroke: #000000; stroke-width: 0.8; stroke-linejoin: miter; stroke-linecap: square"/>
   </g>
   <g id="patch_6">
    <path d="M 55.345313 465.838125 
L 498.865313 465.838125 
" style="fill: none; stroke: #000000; stroke-width: 0.8; stroke-linejoin: miter; stroke-linecap: square"/>
   </g>
   <g id="patch_7">
    <path d="M 55.345313 22.318125 
L 498.865313 22.318125 
" style="fill: none; stroke: #000000; stroke-width: 0.8; stroke-linejoin: miter; stroke-linecap: square"/>
   </g>
   <g id="text_13">
    <!-- t = 100 -->
    <g transform="translate(64.215713 38.786962) scale(0.1 -0.1)">
     <defs>
      <path id="DejaVuSans-74" d="M 1172 4494 
L 1172 3500 
L 2356 3500 
L 2356 3053 
L 1172 3053 
L 1172 1153 
Q 1172 725 1289 603 
Q 1406 481 1766 481 
L 2356 481 
L 2356 0 
L 1766 0 
Q 1100 0 847 248 
Q 594 497 594 1153 
L 594 3053 
L 172 3053 
L 172 3500 
L 594 3500 
L 594 4494 
L 1172 4494 
z
" transform="scale(0.015625)"/>
      <path id="DejaVuSans-20" transform="scale(0.015625)"/>
      <path id="DejaVuSans-3d" d="M 678 2906 
L 4684 2906 
L 4684 2381 
L 678 2381 
L 678 2906 
z
M 678 1631 
L 4684 1631 
L 4684 1100 
L 678 1100 
L 678 1631 
z
" transform="scale(0.015625)"/>
      <path id="DejaVuSans-31" d="M 794 531 
L 1825 531 
L 1825 4091 
L 703 3866 
L 703 4441 
L 1819 4666 
L 2450 4666 
L 2450 531 
L 3481 531 
L 3481 0 
L 794 0 
L 794 531 
z
" transform="scale(0.015625)"/>
     </defs>
     <use xlink:href="#DejaVuSans-74"/>
     <use xlink:href="#DejaVuSans-20" x="39.208984"/>
     <use xlink:href="#DejaVuSans-3d" x="70.996094"/>
     <use xlink:href="#DejaVuSans-20" x="154.785156"/>
     <use xlink:href="#DejaVuSans-31" x="186.572266"/>
     <use xlink:href="#DejaVuSans-30" x="250.195312"/>
     <use xlink:href="#DejaVuSans-30" x="313.818359"/>
    </g>
   </g>
   <g id="text_14">
    <!-- Evaluation trajectory 5 -->
    <g transform="translate(208.620938 16.318125) scale(0.12 -0.12)">
     <defs>
      <path id="DejaVuSans-45" d="M 628 4666 
L 3578 4666 
L 3578 4134 
L 1259 4134 
L 1259 2753 
L 3481 2753 
L 3481 2222 
L 1259 2222 
L 1259 531 
L 3634 531 
L 3634 0 
L 628 0 
L 628 4666 
z
" transform="scale(0.015625)"/>
      <path id="DejaVuSans-76" d="M 191 3500 
L 800 3500 
L 1894 563 
L 2988 3500 
L 3597 3500 
L 2284 0 
L 1503 0 
L 191 3500 
z
" transform="scale(0.015625)"/>
      <path id="DejaVuSans-61" d="M 2194 1759 
Q 1497 1759 1228 1600 
Q 959 1441 959 1056 
Q 959 750 1161 570 
Q 1363 391 1709 391 
Q 2188 391 2477 730 
Q 2766 1069 2766 1631 
L 2766 1759 
L 2194 1759 
z
M 3341 1997 
L 3341 0 
L 2766 0 
L 2766 531 
Q 2569 213 2275 61 
Q 1981 -91 1556 -91 
Q 1019 -91 701 211 
Q 384 513 384 1019 
Q 384 1609 779 1909 
Q 1175 2209 1959 2209 
L 2766 2209 
L 2766 2266 
Q 2766 2663 2505 2880 
Q 2244 3097 1772 3097 
Q 1472 3097 1187 3025 
Q 903 2953 641 2809 
L 641 3341 
Q 956 3463 1253 3523 
Q 1550 3584 1831 3584 
Q 2591 3584 2966 3190 
Q 3341 2797 3341 1997 
z
" transform="scale(0.015625)"/>
      <path id="DejaVuSans-6c" d="M 603 4863 
L 1178 4863 
L 1178 0 
L 603 0 
L 603 4863 
z
" transform="scale(0.015625)"/>
      <path id="DejaVuSans-75" d="M 544 1381 
L 544 3500 
L 1119 3500 
L 1119 1403 
Q 1119 906 1312 657 
Q 1506 409 1894 409 
Q 2359 409 2629 706 
Q 2900 1003 2900 1516 
L 2900 3500 
L 3475 3500 
L 3475 0 
L 2900 0 
L 2900 538 
Q 2691 219 2414 64 
Q 2138 -91 1772 -91 
Q 1169 -91 856 284 
Q 544 659 544 1381 
z
M 1991 3584 
L 1991 3584 
z
" transform="scale(0.015625)"/>
      <path id="DejaVuSans-69" d="M 603 3500 
L 1178 3500 
L 1178 0 
L 603 0 
L 603 3500 
z
M 603 4863 
L 1178 4863 
L 1178 4134 
L 603 4134 
L 603 4863 
z
" transform="scale(0.015625)"/>
      <path id="DejaVuSans-6f" d="M 1959 3097 
Q 1497 3097 1228 2736 
Q 959 2375 959 1747 
Q 959 1119 1226 758 
Q 1494 397 1959 397 
Q 2419 397 2687 759 
Q 2956 1122 2956 1747 
Q 2956 2369 2687 2733 
Q 2419 3097 1959 3097 
z
M 1959 3584 
Q 2709 3584 3137 3096 
Q 3566 2609 3566 1747 
Q 3566 888 3137 398 
Q 2709 -91 1959 -91 
Q 1206 -91 779 398 
Q 353 888 353 1747 
Q 353 2609 779 3096 
Q 1206 3584 1959 3584 
z
" transform="scale(0.015625)"/>
      <path id="DejaVuSans-6e" d="M 3513 2113 
L 3513 0 
L 2938 0 
L 2938 2094 
Q 2938 2591 2744 2837 
Q 2550 3084 2163 3084 
Q 1697 3084 1428 2787 
Q 1159 2491 1159 1978 
L 1159 0 
L 581 0 
L 581 3500 
L 1159 3500 
L 1159 2956 
Q 1366 3272 1645 3428 
Q 1925 3584 2291 3584 
Q 2894 3584 3203 3211 
Q 3513 2838 3513 2113 
z
" transform="scale(0.015625)"/>
      <path id="DejaVuSans-72" d="M 2631 2963 
Q 2534 3019 2420 3045 
Q 2306 3072 2169 3072 
Q 1681 3072 1420 2755 
Q 1159 2438 1159 1844 
L 1159 0 
L 581 0 
L 581 3500 
L 1159 3500 
L 1159 2956 
Q 1341 3275 1631 3429 
Q 1922 3584 2338 3584 
Q 2397 3584 2469 3576 
Q 2541 3569 2628 3553 
L 2631 2963 
z
" transform="scale(0.015625)"/>
      <path id="DejaVuSans-6a" d="M 603 3500 
L 1178 3500 
L 1178 -63 
Q 1178 -731 923 -1031 
Q 669 -1331 103 -1331 
L -116 -1331 
L -116 -844 
L 38 -844 
Q 366 -844 484 -692 
Q 603 -541 603 -63 
L 603 3500 
z
M 603 4863 
L 1178 4863 
L 1178 4134 
L 603 4134 
L 603 4863 
z
" transform="scale(0.015625)"/>
      <path id="DejaVuSans-65" d="M 3597 1894 
L 3597 1613 
L 953 1613 
Q 991 1019 1311 708 
Q 1631 397 2203 397 
Q 2534 397 2845 478 
Q 3156 559 3463 722 
L 3463 178 
Q 3153 47 2828 -22 
Q 2503 -91 2169 -91 
Q 1331 -91 842 396 
Q 353 884 353 1716 
Q 353 2575 817 3079 
Q 1281 3584 2069 3584 
Q 2775 3584 3186 3129 
Q 3597 2675 3597 1894 
z
M 3022 2063 
Q 3016 2534 2758 2815 
Q 2500 3097 2075 3097 
Q 1594 3097 1305 2825 
Q 1016 2553 972 2059 
L 3022 2063 
z
" transform="scale(0.015625)"/>
      <path id="DejaVuSans-63" d="M 3122 3366 
L 3122 2828 
Q 2878 2963 2633 3030 
Q 2388 3097 2138 3097 
Q 1578 3097 1268 2742 
Q 959 2388 959 1747 
Q 959 1106 1268 751 
Q 1578 397 2138 397 
Q 2388 397 2633 464 
Q 2878 531 3122 666 
L 3122 134 
Q 2881 22 2623 -34 
Q 2366 -91 2075 -91 
Q 1284 -91 818 406 
Q 353 903 353 1747 
Q 353 2603 823 3093 
Q 1294 3584 2113 3584 
Q 2378 3584 2631 3529 
Q 2884 3475 3122 3366 
z
" transform="scale(0.015625)"/>
      <path id="DejaVuSans-35" d="M 691 4666 
L 3169 4666 
L 3169 4134 
L 1269 4134 
L 1269 2991 
Q 1406 3038 1543 3061 
Q 1681 3084 1819 3084 
Q 2600 3084 3056 2656 
Q 3513 2228 3513 1497 
Q 3513 744 3044 326 
Q 2575 -91 1722 -91 
Q 1428 -91 1123 -41 
Q 819 9 494 109 
L 494 744 
Q 775 591 1075 516 
Q 1375 441 1709 441 
Q 2250 441 2565 725 
Q 2881 1009 2881 1497 
Q 2881 1984 2565 2268 
Q 2250 2553 1709 2553 
Q 1456 2553 1204 2497 
Q 953 2441 691 2322 
L 691 4666 
z
" transform="scale(0.015625)"/>
     </defs>
     <use xlink:href="#DejaVuSans-45"/>
     <use xlink:href="#DejaVuSans-76" x="63.183594"/>
     <use xlink:href="#DejaVuSans-61" x="122.363281"/>
     <use xlink:href="#DejaVuSans-6c" x="183.642578"/>
     <use xlink:href="#DejaVuSans-75" x="211.425781"/>
     <use xlink:href="#DejaVuSans-61" x="274.804688"/>
     <use xlink:href="#DejaVuSans-74" x="336.083984"/>
     <use xlink:href="#DejaVuSans-69" x="375.292969"/>
     <use xlink:href="#DejaVuSans-6f" x="403.076172"/>
     <use xlink:href="#DejaVuSans-6e" x="464.257812"/>
     <use xlink:href="#DejaVuSans-20" x="527.636719"/>
     <use xlink:href="#DejaVuSans-74" x="559.423828"/>
     <use xlink:href="#DejaVuSans-72" x="598.632812"/>
     <use xlink:href="#DejaVuSans-61" x="639.746094"/>
     <use xlink:href="#DejaVuSans-6a" x="701.025391"/>
     <use xlink:href="#DejaVuSans-65" x="728.808594"/>
     <use xlink:href="#DejaVuSans-63" x="790.332031"/>
     <use xlink:href="#DejaVuSans-74" x="845.3125"/>
     <use xlink:href="#DejaVuSans-6f" x="884.521484"/>
     <use xlink:href="#DejaVuSans-72" x="945.703125"/>
     <use xlink:href="#DejaVuSans-79" x="986.816406"/>
     <use xlink:href="#DejaVuSans-20" x="1045.996094"/>
     <use xlink:href="#DejaVuSans-35" x="1077.783203"/>
    </g>
   </g>
   <g id="legend_1">
    <g id="patch_8">
     <path d="M 424.387188 59.674375 
L 491.865313 59.674375 
Q 493.865313 59.674375 493.865313 57.674375 
L 493.865313 29.318125 
Q 493.865313 27.318125 491.865313 27.318125 
L 424.387188 27.318125 
Q 422.387188 27.318125 422.387188 29.318125 
L 422.387188 57.674375 
Q 422.387188 59.674375 424.387188 59.674375 
z
" style="fill: #ffffff; opacity: 0.8; stroke: #cccccc; stroke-linejoin: miter"/>
    </g>
    <g id="PathCollection_3">
     <g>
      <use xlink:href="#md77c980b0c" x="436.387188" y="36.291562" style="fill: #4169e1; stroke: #4169e1"/>
     </g>
    </g>
    <g id="text_15">
     <!-- Sheep -->
     <g transform="translate(454.387188 38.916562) scale(0.1 -0.1)">
      <defs>
       <path id="DejaVuSans-53" d="M 3425 4513 
L 3425 3897 
Q 3066 4069 2747 4153 
Q 2428 4238 2131 4238 
Q 1616 4238 1336 4038 
Q 1056 3838 1056 3469 
Q 1056 3159 1242 3001 
Q 1428 2844 1947 2747 
L 2328 2669 
Q 3034 2534 3370 2195 
Q 3706 1856 3706 1288 
Q 3706 609 3251 259 
Q 2797 -91 1919 -91 
Q 1588 -91 1214 -16 
Q 841 59 441 206 
L 441 856 
Q 825 641 1194 531 
Q 1563 422 1919 422 
Q 2459 422 2753 634 
Q 3047 847 3047 1241 
Q 3047 1584 2836 1778 
Q 2625 1972 2144 2069 
L 1759 2144 
Q 1053 2284 737 2584 
Q 422 2884 422 3419 
Q 422 4038 858 4394 
Q 1294 4750 2059 4750 
Q 2388 4750 2728 4690 
Q 3069 4631 3425 4513 
z
" transform="scale(0.015625)"/>
       <path id="DejaVuSans-68" d="M 3513 2113 
L 3513 0 
L 2938 0 
L 2938 2094 
Q 2938 2591 2744 2837 
Q 2550 3084 2163 3084 
Q 1697 3084 1428 2787 
Q 1159 2491 1159 1978 
L 1159 0 
L 581 0 
L 581 4863 
L 1159 4863 
L 1159 2956 
Q 1366 3272 1645 3428 
Q 1925 3584 2291 3584 
Q 2894 3584 3203 3211 
Q 3513 2838 3513 2113 
z
" transform="scale(0.015625)"/>
       <path id="DejaVuSans-70" d="M 1159 525 
L 1159 -1331 
L 581 -1331 
L 581 3500 
L 1159 3500 
L 1159 2969 
Q 1341 3281 1617 3432 
Q 1894 3584 2278 3584 
Q 2916 3584 3314 3078 
Q 3713 2572 3713 1747 
Q 3713 922 3314 415 
Q 2916 -91 2278 -91 
Q 1894 -91 1617 61 
Q 1341 213 1159 525 
z
M 3116 1747 
Q 3116 2381 2855 2742 
Q 2594 3103 2138 3103 
Q 1681 3103 1420 2742 
Q 1159 2381 1159 1747 
Q 1159 1113 1420 752 
Q 1681 391 2138 391 
Q 2594 391 2855 752 
Q 3116 1113 3116 1747 
z
" transform="scale(0.015625)"/>
      </defs>
      <use xlink:href="#DejaVuSans-53"/>
      <use xlink:href="#DejaVuSans-68" x="63.476562"/>
      <use xlink:href="#DejaVuSans-65" x="126.855469"/>
      <use xlink:href="#DejaVuSans-65" x="188.378906"/>
      <use xlink:href="#DejaVuSans-70" x="249.902344"/>
     </g>
    </g>
    <g id="PathCollection_4">
     <g>
      <use xlink:href="#m834dc716a7" x="436.387188" y="50.969687" style="fill: #b22222; stroke: #b22222"/>
     </g>
    </g>
    <g id="text_16">
     <!-- Wolves -->
     <g transform="translate(454.387188 53.594687) scale(0.1 -0.1)">
      <defs>
       <path id="DejaVuSans-57" d="M 213 4666 
L 850 4666 
L 1831 722 
L 2809 4666 
L 3519 4666 
L 4500 722 
L 5478 4666 
L 6119 4666 
L 4947 0 
L 4153 0 
L 3169 4050 
L 2175 0 
L 1381 0 
L 213 4666 
z
" transform="scale(0.015625)"/>
       <path id="DejaVuSans-73" d="M 2834 3397 
L 2834 2853 
Q 2591 2978 2328 3040 
Q 2066 3103 1784 3103 
Q 1356 3103 1142 2972 
Q 928 2841 928 2578 
Q 928 2378 1081 2264 
Q 1234 2150 1697 2047 
L 1894 2003 
Q 2506 1872 2764 1633 
Q 3022 1394 3022 966 
Q 3022 478 2636 193 
Q 2250 -91 1575 -91 
Q 1294 -91 989 -36 
Q 684 19 347 128 
L 347 722 
Q 666 556 975 473 
Q 1284 391 1588 391 
Q 1994 391 2212 530 
Q 2431 669 2431 922 
Q 2431 1156 2273 1281 
Q 2116 1406 1581 1522 
L 1381 1569 
Q 847 1681 609 1914 
Q 372 2147 372 2553 
Q 372 3047 722 3315 
Q 1072 3584 1716 3584 
Q 2034 3584 2315 3537 
Q 2597 3491 2834 3397 
z
" transform="scale(0.015625)"/>
      </defs>
      <use xlink:href="#DejaVuSans-57"/>
      <use xlink:href="#DejaVuSans-6f" x="93.001953"/>
      <use xlink:href="#DejaVuSans-6c" x="154.183594"/>
      <use xlink:href="#DejaVuSans-76" x="181.966797"/>
      <use xlink:href="#DejaVuSans-65" x="241.146484"/>
      <use xlink:href="#DejaVuSans-73" x="302.669922"/>
     </g>
    </g>
   </g>
  </g>
 </g>
 <defs>
  <clipPath id="p39d4d6a654">
   <rect x="55.345313" y="22.318125" width="443.52" height="443.52"/>
  </clipPath>
 </defs>
</svg>
