<?xml version="1.0" encoding="utf-8" standalone="no"?>
<!DOCTYPE svg PUBLIC "-//W3C//DTD SVG 1.1//EN"
  "http://www.w3.org/Graphics/SVG/1.1/DTD/svg11.dtd">
<svg xmlns:xlink="http://www.w3.org/1999/xlink" width="506.065313pt" height="503.394375pt" viewBox="0 0 506.065313 503.394375" xmlns="http://www.w3.org/2000/svg" version="1.1">
 <metadata>
  <rdf:RDF xmlns:dc="http://purl.org/dc/elements/1.1/" xmlns:cc="http://creativecommons.org/ns#" xmlns:rdf="http://www.w3.org/1999/02/22-rdf-syntax-ns#">
   <cc:Work>
    <dc:type rdf:resource="http://purl.org/dc/dcmitype/StillImage"/>
    <dc:date>2026-05-08T10:04:24.046021</dc:date>
    <dc:format>image/svg+xml</dc:format>
    <dc:creator>
     <cc:Agent>
      <dc:title>Matplotlib v3.7.1, https://matplotlib.org/</dc:title>
     </cc:Agent>
    </dc:creator>
   </cc:Work>
  </rdf:RDF>
 </metadata>
 <defs>
  <style type="text/css">*{stroke-linejoin: round; stroke-linecap: butt}</style>
 </defs>
 <g id="figure_1">
  <g id="patch_1">
   <path d="M 0 503.394375 
L 506.065313 503.394375 
L 506.065313 0 
L 0 0 
z
" style="fill: #ffffff"/>
  </g>
  <g id="axes_1">
   <g id="patch_2">
    <path d="M 55.345313 465.838125 
L 498.865313 465.838125 
L 498.865313 22.318125 
L 55.345313 22.318125 
z
" style="fill: #ffffff"/>
   </g>
   <g id="patch_3">
    <path d="M 277.105313 332.782125 
C 300.629888 332.782125 323.194125 323.435712 339.828512 306.801325 
C 356.462899 290.166938 365.809313 267.602701 365.809313 244.078125 
C 365.809313 220.553549 356.462899 197.989312 339.828512 181.354925 
C 323.194125 164.720538 300.629888 155.374125 277.105313 155.374125 
C 253.580737 155.374125 231.0165 164.720538 214.382113 181.354925 
C 197.747726 197.989312 188.401313 220.553549 188.401313 244.078125 
C 188.401313 267.602701 197.747726 290.166938 214.382113 306.801325 
C 231.0165 323.435712 253.580737 332.782125 277.105313 332.782125 
z
" clip-path="url(#p442a68e87c)" style="fill: #228b22; opacity: 0.12; stroke: #228b22; stroke-width: 1.5; stroke-linejoin: miter"/>
   </g>
   <g id="PathCollection_1">
    <defs>
     <path id="mb079e5a42e" d="M 0 2.236068 
C 0.593012 2.236068 1.161816 2.000462 1.581139 1.581139 
C 2.000462 1.161816 2.236068 0.593012 2.236068 0 
C 2.236068 -0.593012 2.000462 -1.161816 1.581139 -1.581139 
C 1.161816 -2.000462 0.593012 -2.236068 0 -2.236068 
C -0.593012 -2.236068 -1.161816 -2.000462 -1.581139 -1.581139 
C -2.000462 -1.161816 -2.236068 -0.593012 -2.236068 0 
C -2.236068 0.593012 -2.000462 1.161816 -1.581139 1.581139 
C -1.161816 2.000462 -0.593012 2.236068 0 2.236068 
z
" style="stroke: #4169e1"/>
    </defs>
    <g clip-path="url(#p442a68e87c)">
     <use xlink:href="#mb079e5a42e" x="381.62611" y="139.945813" style="fill: #4169e1; stroke: #4169e1"/>
     <use xlink:href="#mb079e5a42e" x="245.853158" y="292.186598" style="fill: #4169e1; stroke: #4169e1"/>
     <use xlink:href="#mb079e5a42e" x="251.905303" y="230.18417" style="fill: #4169e1; stroke: #4169e1"/>
     <use xlink:href="#mb079e5a42e" x="307.878854" y="315.935924" style="fill: #4169e1; stroke: #4169e1"/>
     <use xlink:href="#mb079e5a42e" x="167.059024" y="156.064547" style="fill: #4169e1; stroke: #4169e1"/>
     <use xlink:href="#mb079e5a42e" x="475.750094" y="243.316641" style="fill: #4169e1; stroke: #4169e1"/>
     <use xlink:href="#mb079e5a42e" x="230.409846" y="258.053696" style="fill: #4169e1; stroke: #4169e1"/>
     <use xlink:href="#mb079e5a42e" x="366.901471" y="152.540384" style="fill: #4169e1; stroke: #4169e1"/>
     <use xlink:href="#mb079e5a42e" x="55.345313" y="304.391532" style="fill: #4169e1; stroke: #4169e1"/>
     <use xlink:href="#mb079e5a42e" x="157.620716" y="305.70472" style="fill: #4169e1; stroke: #4169e1"/>
     <use xlink:href="#mb079e5a42e" x="208.157619" y="214.786152" style="fill: #4169e1; stroke: #4169e1"/>
     <use xlink:href="#mb079e5a42e" x="218.219614" y="351.446808" style="fill: #4169e1; stroke: #4169e1"/>
     <use xlink:href="#mb079e5a42e" x="280.918219" y="465.838125" style="fill: #4169e1; stroke: #4169e1"/>
     <use xlink:href="#mb079e5a42e" x="170.756456" y="255.86695" style="fill: #4169e1; stroke: #4169e1"/>
     <use xlink:href="#mb079e5a42e" x="287.018381" y="228.004887" style="fill: #4169e1; stroke: #4169e1"/>
     <use xlink:href="#mb079e5a42e" x="213.774756" y="218.386872" style="fill: #4169e1; stroke: #4169e1"/>
     <use xlink:href="#mb079e5a42e" x="242.295053" y="265.448287" style="fill: #4169e1; stroke: #4169e1"/>
     <use xlink:href="#mb079e5a42e" x="339.913919" y="437.166008" style="fill: #4169e1; stroke: #4169e1"/>
     <use xlink:href="#mb079e5a42e" x="245.11517" y="39.076868" style="fill: #4169e1; stroke: #4169e1"/>
     <use xlink:href="#mb079e5a42e" x="277.991581" y="219.240645" style="fill: #4169e1; stroke: #4169e1"/>
     <use xlink:href="#mb079e5a42e" x="405.201977" y="276.249987" style="fill: #4169e1; stroke: #4169e1"/>
     <use xlink:href="#mb079e5a42e" x="490.292415" y="419.212259" style="fill: #4169e1; stroke: #4169e1"/>
     <use xlink:href="#mb079e5a42e" x="314.884333" y="399.162429" style="fill: #4169e1; stroke: #4169e1"/>
     <use xlink:href="#mb079e5a42e" x="162.901471" y="347.43184" style="fill: #4169e1; stroke: #4169e1"/>
     <use xlink:href="#mb079e5a42e" x="289.51085" y="378.097693" style="fill: #4169e1; stroke: #4169e1"/>
     <use xlink:href="#mb079e5a42e" x="209.837799" y="351.636929" style="fill: #4169e1; stroke: #4169e1"/>
     <use xlink:href="#mb079e5a42e" x="453.10724" y="216.48764" style="fill: #4169e1; stroke: #4169e1"/>
     <use xlink:href="#mb079e5a42e" x="299.781915" y="349.629733" style="fill: #4169e1; stroke: #4169e1"/>
     <use xlink:href="#mb079e5a42e" x="248.386245" y="326.715837" style="fill: #4169e1; stroke: #4169e1"/>
     <use xlink:href="#mb079e5a42e" x="299.960576" y="215.263219" style="fill: #4169e1; stroke: #4169e1"/>
     <use xlink:href="#mb079e5a42e" x="252.009527" y="204.078368" style="fill: #4169e1; stroke: #4169e1"/>
     <use xlink:href="#mb079e5a42e" x="301.759573" y="356.330766" style="fill: #4169e1; stroke: #4169e1"/>
     <use xlink:href="#mb079e5a42e" x="237.584571" y="307.921352" style="fill: #4169e1; stroke: #4169e1"/>
     <use xlink:href="#mb079e5a42e" x="221.258875" y="409.108022" style="fill: #4169e1; stroke: #4169e1"/>
     <use xlink:href="#mb079e5a42e" x="304.555464" y="191.425589" style="fill: #4169e1; stroke: #4169e1"/>
     <use xlink:href="#mb079e5a42e" x="320.023882" y="153.503221" style="fill: #4169e1; stroke: #4169e1"/>
     <use xlink:href="#mb079e5a42e" x="304.541761" y="73.178843" style="fill: #4169e1; stroke: #4169e1"/>
     <use xlink:href="#mb079e5a42e" x="55.345313" y="112.321338" style="fill: #4169e1; stroke: #4169e1"/>
     <use xlink:href="#mb079e5a42e" x="354.748065" y="377.905453" style="fill: #4169e1; stroke: #4169e1"/>
     <use xlink:href="#mb079e5a42e" x="276.231072" y="322.949084" style="fill: #4169e1; stroke: #4169e1"/>
     <use xlink:href="#mb079e5a42e" x="346.044113" y="242.153648" style="fill: #4169e1; stroke: #4169e1"/>
     <use xlink:href="#mb079e5a42e" x="335.213714" y="369.057968" style="fill: #4169e1; stroke: #4169e1"/>
     <use xlink:href="#mb079e5a42e" x="271.452044" y="279.048841" style="fill: #4169e1; stroke: #4169e1"/>
     <use xlink:href="#mb079e5a42e" x="229.522978" y="265.968867" style="fill: #4169e1; stroke: #4169e1"/>
     <use xlink:href="#mb079e5a42e" x="362.63948" y="357.630439" style="fill: #4169e1; stroke: #4169e1"/>
     <use xlink:href="#mb079e5a42e" x="339.356156" y="78.224966" style="fill: #4169e1; stroke: #4169e1"/>
     <use xlink:href="#mb079e5a42e" x="194.848554" y="165.059355" style="fill: #4169e1; stroke: #4169e1"/>
     <use xlink:href="#mb079e5a42e" x="293.118624" y="465.838125" style="fill: #4169e1; stroke: #4169e1"/>
     <use xlink:href="#mb079e5a42e" x="279.08584" y="281.163428" style="fill: #4169e1; stroke: #4169e1"/>
     <use xlink:href="#mb079e5a42e" x="185.529261" y="85.5207" style="fill: #4169e1; stroke: #4169e1"/>
     <use xlink:href="#mb079e5a42e" x="390.421932" y="74.544784" style="fill: #4169e1; stroke: #4169e1"/>
     <use xlink:href="#mb079e5a42e" x="80.130661" y="316.408836" style="fill: #4169e1; stroke: #4169e1"/>
     <use xlink:href="#mb079e5a42e" x="240.838288" y="145.567782" style="fill: #4169e1; stroke: #4169e1"/>
     <use xlink:href="#mb079e5a42e" x="303.509464" y="182.642525" style="fill: #4169e1; stroke: #4169e1"/>
     <use xlink:href="#mb079e5a42e" x="368.869632" y="138.465602" style="fill: #4169e1; stroke: #4169e1"/>
     <use xlink:href="#mb079e5a42e" x="289.641474" y="244.618237" style="fill: #4169e1; stroke: #4169e1"/>
     <use xlink:href="#mb079e5a42e" x="139.218791" y="170.629322" style="fill: #4169e1; stroke: #4169e1"/>
     <use xlink:href="#mb079e5a42e" x="304.108834" y="296.77061" style="fill: #4169e1; stroke: #4169e1"/>
     <use xlink:href="#mb079e5a42e" x="92.854316" y="265.675177" style="fill: #4169e1; stroke: #4169e1"/>
     <use xlink:href="#mb079e5a42e" x="296.588256" y="360.691793" style="fill: #4169e1; stroke: #4169e1"/>
     <use xlink:href="#mb079e5a42e" x="90.048045" y="422.94309" style="fill: #4169e1; stroke: #4169e1"/>
     <use xlink:href="#mb079e5a42e" x="323.061584" y="64.029768" style="fill: #4169e1; stroke: #4169e1"/>
     <use xlink:href="#mb079e5a42e" x="65.187794" y="123.412099" style="fill: #4169e1; stroke: #4169e1"/>
     <use xlink:href="#mb079e5a42e" x="394.577042" y="126.928519" style="fill: #4169e1; stroke: #4169e1"/>
     <use xlink:href="#mb079e5a42e" x="159.198198" y="181.436576" style="fill: #4169e1; stroke: #4169e1"/>
     <use xlink:href="#mb079e5a42e" x="193.084341" y="363.096828" style="fill: #4169e1; stroke: #4169e1"/>
     <use xlink:href="#mb079e5a42e" x="268.036562" y="425.22241" style="fill: #4169e1; stroke: #4169e1"/>
     <use xlink:href="#mb079e5a42e" x="56.092737" y="122.245734" style="fill: #4169e1; stroke: #4169e1"/>
     <use xlink:href="#mb079e5a42e" x="55.345313" y="22.318125" style="fill: #4169e1; stroke: #4169e1"/>
     <use xlink:href="#mb079e5a42e" x="226.691941" y="205.982287" style="fill: #4169e1; stroke: #4169e1"/>
     <use xlink:href="#mb079e5a42e" x="55.345313" y="41.20404" style="fill: #4169e1; stroke: #4169e1"/>
     <use xlink:href="#mb079e5a42e" x="162.223589" y="416.504402" style="fill: #4169e1; stroke: #4169e1"/>
     <use xlink:href="#mb079e5a42e" x="476.928695" y="417.307917" style="fill: #4169e1; stroke: #4169e1"/>
     <use xlink:href="#mb079e5a42e" x="151.090098" y="264.672393" style="fill: #4169e1; stroke: #4169e1"/>
     <use xlink:href="#mb079e5a42e" x="466.453405" y="152.094252" style="fill: #4169e1; stroke: #4169e1"/>
     <use xlink:href="#mb079e5a42e" x="186.771219" y="297.370901" style="fill: #4169e1; stroke: #4169e1"/>
     <use xlink:href="#mb079e5a42e" x="452.712392" y="101.47425" style="fill: #4169e1; stroke: #4169e1"/>
     <use xlink:href="#mb079e5a42e" x="316.474798" y="316.757826" style="fill: #4169e1; stroke: #4169e1"/>
     <use xlink:href="#mb079e5a42e" x="55.345313" y="74.109358" style="fill: #4169e1; stroke: #4169e1"/>
     <use xlink:href="#mb079e5a42e" x="222.944906" y="228.344088" style="fill: #4169e1; stroke: #4169e1"/>
     <use xlink:href="#mb079e5a42e" x="477.544504" y="22.318125" style="fill: #4169e1; stroke: #4169e1"/>
     <use xlink:href="#mb079e5a42e" x="234.549861" y="209.092967" style="fill: #4169e1; stroke: #4169e1"/>
     <use xlink:href="#mb079e5a42e" x="283.529933" y="253.001232" style="fill: #4169e1; stroke: #4169e1"/>
     <use xlink:href="#mb079e5a42e" x="449.576242" y="209.924787" style="fill: #4169e1; stroke: #4169e1"/>
     <use xlink:href="#mb079e5a42e" x="212.733097" y="158.854589" style="fill: #4169e1; stroke: #4169e1"/>
     <use xlink:href="#mb079e5a42e" x="498.865313" y="79.266496" style="fill: #4169e1; stroke: #4169e1"/>
     <use xlink:href="#mb079e5a42e" x="286.265338" y="340.899551" style="fill: #4169e1; stroke: #4169e1"/>
     <use xlink:href="#mb079e5a42e" x="421.884666" y="345.324078" style="fill: #4169e1; stroke: #4169e1"/>
     <use xlink:href="#mb079e5a42e" x="251.215773" y="113.618249" style="fill: #4169e1; stroke: #4169e1"/>
     <use xlink:href="#mb079e5a42e" x="307.758655" y="199.059424" style="fill: #4169e1; stroke: #4169e1"/>
     <use xlink:href="#mb079e5a42e" x="390.506425" y="340.198511" style="fill: #4169e1; stroke: #4169e1"/>
     <use xlink:href="#mb079e5a42e" x="317.398745" y="262.850279" style="fill: #4169e1; stroke: #4169e1"/>
     <use xlink:href="#mb079e5a42e" x="401.509668" y="204.393717" style="fill: #4169e1; stroke: #4169e1"/>
     <use xlink:href="#mb079e5a42e" x="183.736434" y="140.019309" style="fill: #4169e1; stroke: #4169e1"/>
     <use xlink:href="#mb079e5a42e" x="117.032085" y="399.445098" style="fill: #4169e1; stroke: #4169e1"/>
     <use xlink:href="#mb079e5a42e" x="214.667413" y="345.834455" style="fill: #4169e1; stroke: #4169e1"/>
     <use xlink:href="#mb079e5a42e" x="187.122531" y="255.980674" style="fill: #4169e1; stroke: #4169e1"/>
     <use xlink:href="#mb079e5a42e" x="140.790913" y="120.840257" style="fill: #4169e1; stroke: #4169e1"/>
     <use xlink:href="#mb079e5a42e" x="470.188066" y="197.449332" style="fill: #4169e1; stroke: #4169e1"/>
     <use xlink:href="#mb079e5a42e" x="99.728592" y="158.663107" style="fill: #4169e1; stroke: #4169e1"/>
     <use xlink:href="#mb079e5a42e" x="322.316744" y="199.27646" style="fill: #4169e1; stroke: #4169e1"/>
     <use xlink:href="#mb079e5a42e" x="175.020998" y="365.953896" style="fill: #4169e1; stroke: #4169e1"/>
     <use xlink:href="#mb079e5a42e" x="280.886281" y="348.70981" style="fill: #4169e1; stroke: #4169e1"/>
     <use xlink:href="#mb079e5a42e" x="373.960644" y="103.75265" style="fill: #4169e1; stroke: #4169e1"/>
     <use xlink:href="#mb079e5a42e" x="194.928405" y="233.048862" style="fill: #4169e1; stroke: #4169e1"/>
     <use xlink:href="#mb079e5a42e" x="397.741656" y="261.294214" style="fill: #4169e1; stroke: #4169e1"/>
     <use xlink:href="#mb079e5a42e" x="200.875976" y="92.801829" style="fill: #4169e1; stroke: #4169e1"/>
     <use xlink:href="#mb079e5a42e" x="106.925357" y="230.195859" style="fill: #4169e1; stroke: #4169e1"/>
     <use xlink:href="#mb079e5a42e" x="275.241829" y="304.150025" style="fill: #4169e1; stroke: #4169e1"/>
     <use xlink:href="#mb079e5a42e" x="261.57101" y="150.473986" style="fill: #4169e1; stroke: #4169e1"/>
     <use xlink:href="#mb079e5a42e" x="177.905692" y="22.318125" style="fill: #4169e1; stroke: #4169e1"/>
     <use xlink:href="#mb079e5a42e" x="339.872393" y="353.244554" style="fill: #4169e1; stroke: #4169e1"/>
     <use xlink:href="#mb079e5a42e" x="243.777958" y="164.788523" style="fill: #4169e1; stroke: #4169e1"/>
     <use xlink:href="#mb079e5a42e" x="170.211402" y="186.864789" style="fill: #4169e1; stroke: #4169e1"/>
     <use xlink:href="#mb079e5a42e" x="367.319525" y="292.403211" style="fill: #4169e1; stroke: #4169e1"/>
     <use xlink:href="#mb079e5a42e" x="266.76825" y="129.493878" style="fill: #4169e1; stroke: #4169e1"/>
     <use xlink:href="#mb079e5a42e" x="196.1241" y="67.836138" style="fill: #4169e1; stroke: #4169e1"/>
     <use xlink:href="#mb079e5a42e" x="453.586966" y="211.87584" style="fill: #4169e1; stroke: #4169e1"/>
     <use xlink:href="#mb079e5a42e" x="454.828817" y="284.930258" style="fill: #4169e1; stroke: #4169e1"/>
     <use xlink:href="#mb079e5a42e" x="297.896468" y="134.685815" style="fill: #4169e1; stroke: #4169e1"/>
     <use xlink:href="#mb079e5a42e" x="197.656876" y="336.074795" style="fill: #4169e1; stroke: #4169e1"/>
     <use xlink:href="#mb079e5a42e" x="322.707132" y="151.638246" style="fill: #4169e1; stroke: #4169e1"/>
     <use xlink:href="#mb079e5a42e" x="490.208051" y="41.776821" style="fill: #4169e1; stroke: #4169e1"/>
     <use xlink:href="#mb079e5a42e" x="227.635958" y="293.812546" style="fill: #4169e1; stroke: #4169e1"/>
     <use xlink:href="#mb079e5a42e" x="279.847635" y="258.735149" style="fill: #4169e1; stroke: #4169e1"/>
     <use xlink:href="#mb079e5a42e" x="203.188065" y="198.734979" style="fill: #4169e1; stroke: #4169e1"/>
     <use xlink:href="#mb079e5a42e" x="357.051484" y="245.885027" style="fill: #4169e1; stroke: #4169e1"/>
     <use xlink:href="#mb079e5a42e" x="418.128985" y="160.427679" style="fill: #4169e1; stroke: #4169e1"/>
     <use xlink:href="#mb079e5a42e" x="346.668896" y="50.233045" style="fill: #4169e1; stroke: #4169e1"/>
     <use xlink:href="#mb079e5a42e" x="350.251496" y="188.582732" style="fill: #4169e1; stroke: #4169e1"/>
     <use xlink:href="#mb079e5a42e" x="206.887142" y="154.208085" style="fill: #4169e1; stroke: #4169e1"/>
     <use xlink:href="#mb079e5a42e" x="371.909174" y="233.309248" style="fill: #4169e1; stroke: #4169e1"/>
     <use xlink:href="#mb079e5a42e" x="433.645458" y="288.974654" style="fill: #4169e1; stroke: #4169e1"/>
     <use xlink:href="#mb079e5a42e" x="249.251529" y="123.964252" style="fill: #4169e1; stroke: #4169e1"/>
     <use xlink:href="#mb079e5a42e" x="254.14004" y="239.41326" style="fill: #4169e1; stroke: #4169e1"/>
     <use xlink:href="#mb079e5a42e" x="310.773093" y="243.883335" style="fill: #4169e1; stroke: #4169e1"/>
     <use xlink:href="#mb079e5a42e" x="318.944071" y="75.397607" style="fill: #4169e1; stroke: #4169e1"/>
     <use xlink:href="#mb079e5a42e" x="222.645471" y="25.44185" style="fill: #4169e1; stroke: #4169e1"/>
     <use xlink:href="#mb079e5a42e" x="235.601982" y="246.186098" style="fill: #4169e1; stroke: #4169e1"/>
     <use xlink:href="#mb079e5a42e" x="265.391151" y="390.365904" style="fill: #4169e1; stroke: #4169e1"/>
     <use xlink:href="#mb079e5a42e" x="355.159716" y="22.318125" style="fill: #4169e1; stroke: #4169e1"/>
     <use xlink:href="#mb079e5a42e" x="344.232818" y="245.17868" style="fill: #4169e1; stroke: #4169e1"/>
     <use xlink:href="#mb079e5a42e" x="326.188421" y="192.631037" style="fill: #4169e1; stroke: #4169e1"/>
     <use xlink:href="#mb079e5a42e" x="131.732388" y="365.949877" style="fill: #4169e1; stroke: #4169e1"/>
     <use xlink:href="#mb079e5a42e" x="496.247234" y="404.627695" style="fill: #4169e1; stroke: #4169e1"/>
     <use xlink:href="#mb079e5a42e" x="265.618076" y="428.023348" style="fill: #4169e1; stroke: #4169e1"/>
     <use xlink:href="#mb079e5a42e" x="257.055713" y="465.838125" style="fill: #4169e1; stroke: #4169e1"/>
     <use xlink:href="#mb079e5a42e" x="269.397474" y="238.257079" style="fill: #4169e1; stroke: #4169e1"/>
    </g>
   </g>
   <g id="PathCollection_2">
    <defs>
     <path id="m949dd624ed" d="M 0 2.5 
C 0.663008 2.5 1.29895 2.236584 1.767767 1.767767 
C 2.236584 1.29895 2.5 0.663008 2.5 0 
C 2.5 -0.663008 2.236584 -1.29895 1.767767 -1.767767 
C 1.29895 -2.236584 0.663008 -2.5 0 -2.5 
C -0.663008 -2.5 -1.29895 -2.236584 -1.767767 -1.767767 
C -2.236584 -1.29895 -2.5 -0.663008 -2.5 0 
C -2.5 0.663008 -2.236584 1.29895 -1.767767 1.767767 
C -1.29895 2.236584 -0.663008 2.5 0 2.5 
z
" style="stroke: #b22222"/>
    </defs>
    <g clip-path="url(#p442a68e87c)">
     <use xlink:href="#m949dd624ed" x="436.480248" y="211.38228" style="fill: #b22222; stroke: #b22222"/>
     <use xlink:href="#m949dd624ed" x="274.656752" y="315.631553" style="fill: #b22222; stroke: #b22222"/>
     <use xlink:href="#m949dd624ed" x="362.668919" y="148.593018" style="fill: #b22222; stroke: #b22222"/>
     <use xlink:href="#m949dd624ed" x="201.674854" y="326.121603" style="fill: #b22222; stroke: #b22222"/>
     <use xlink:href="#m949dd624ed" x="180.155851" y="250.218345" style="fill: #b22222; stroke: #b22222"/>
     <use xlink:href="#m949dd624ed" x="476.666181" y="248.756438" style="fill: #b22222; stroke: #b22222"/>
     <use xlink:href="#m949dd624ed" x="396.861424" y="207.634081" style="fill: #b22222; stroke: #b22222"/>
     <use xlink:href="#m949dd624ed" x="279.603983" y="446.587126" style="fill: #b22222; stroke: #b22222"/>
     <use xlink:href="#m949dd624ed" x="230.204883" y="202.956943" style="fill: #b22222; stroke: #b22222"/>
     <use xlink:href="#m949dd624ed" x="302.81209" y="237.592971" style="fill: #b22222; stroke: #b22222"/>
     <use xlink:href="#m949dd624ed" x="408.37252" y="220.152038" style="fill: #b22222; stroke: #b22222"/>
     <use xlink:href="#m949dd624ed" x="101.11849" y="348.252998" style="fill: #b22222; stroke: #b22222"/>
     <use xlink:href="#m949dd624ed" x="261.270073" y="115.539456" style="fill: #b22222; stroke: #b22222"/>
     <use xlink:href="#m949dd624ed" x="217.590797" y="171.166485" style="fill: #b22222; stroke: #b22222"/>
     <use xlink:href="#m949dd624ed" x="232.248705" y="313.948138" style="fill: #b22222; stroke: #b22222"/>
     <use xlink:href="#m949dd624ed" x="228.216193" y="281.101548" style="fill: #b22222; stroke: #b22222"/>
     <use xlink:href="#m949dd624ed" x="427.766071" y="228.029923" style="fill: #b22222; stroke: #b22222"/>
     <use xlink:href="#m949dd624ed" x="190.880642" y="354.536153" style="fill: #b22222; stroke: #b22222"/>
     <use xlink:href="#m949dd624ed" x="488.971154" y="412.549904" style="fill: #b22222; stroke: #b22222"/>
     <use xlink:href="#m949dd624ed" x="272.782301" y="334.57552" style="fill: #b22222; stroke: #b22222"/>
     <use xlink:href="#m949dd624ed" x="296.524766" y="140.873059" style="fill: #b22222; stroke: #b22222"/>
     <use xlink:href="#m949dd624ed" x="82.085976" y="332.089321" style="fill: #b22222; stroke: #b22222"/>
     <use xlink:href="#m949dd624ed" x="401.754627" y="224.636477" style="fill: #b22222; stroke: #b22222"/>
     <use xlink:href="#m949dd624ed" x="225.343552" y="60.538496" style="fill: #b22222; stroke: #b22222"/>
     <use xlink:href="#m949dd624ed" x="369.442351" y="106.488308" style="fill: #b22222; stroke: #b22222"/>
     <use xlink:href="#m949dd624ed" x="400.670082" y="326.736627" style="fill: #b22222; stroke: #b22222"/>
     <use xlink:href="#m949dd624ed" x="229.795312" y="313.099172" style="fill: #b22222; stroke: #b22222"/>
     <use xlink:href="#m949dd624ed" x="233.975212" y="299.834113" style="fill: #b22222; stroke: #b22222"/>
     <use xlink:href="#m949dd624ed" x="498.865313" y="175.941972" style="fill: #b22222; stroke: #b22222"/>
     <use xlink:href="#m949dd624ed" x="142.534458" y="119.591341" style="fill: #b22222; stroke: #b22222"/>
     <use xlink:href="#m949dd624ed" x="328.358977" y="247.368532" style="fill: #b22222; stroke: #b22222"/>
     <use xlink:href="#m949dd624ed" x="450.926415" y="412.892059" style="fill: #b22222; stroke: #b22222"/>
     <use xlink:href="#m949dd624ed" x="198.331536" y="167.722844" style="fill: #b22222; stroke: #b22222"/>
     <use xlink:href="#m949dd624ed" x="132.337112" y="132.6975" style="fill: #b22222; stroke: #b22222"/>
     <use xlink:href="#m949dd624ed" x="311.075316" y="328.103001" style="fill: #b22222; stroke: #b22222"/>
     <use xlink:href="#m949dd624ed" x="318.615908" y="293.300321" style="fill: #b22222; stroke: #b22222"/>
     <use xlink:href="#m949dd624ed" x="270.389504" y="241.271635" style="fill: #b22222; stroke: #b22222"/>
     <use xlink:href="#m949dd624ed" x="419.978199" y="265.754011" style="fill: #b22222; stroke: #b22222"/>
     <use xlink:href="#m949dd624ed" x="61.25395" y="170.925586" style="fill: #b22222; stroke: #b22222"/>
     <use xlink:href="#m949dd624ed" x="199.873183" y="370.350846" style="fill: #b22222; stroke: #b22222"/>
     <use xlink:href="#m949dd624ed" x="422.184971" y="324.574149" style="fill: #b22222; stroke: #b22222"/>
     <use xlink:href="#m949dd624ed" x="365.055885" y="276.634757" style="fill: #b22222; stroke: #b22222"/>
     <use xlink:href="#m949dd624ed" x="405.941985" y="118.540403" style="fill: #b22222; stroke: #b22222"/>
     <use xlink:href="#m949dd624ed" x="457.893515" y="360.802903" style="fill: #b22222; stroke: #b22222"/>
     <use xlink:href="#m949dd624ed" x="64.938395" y="228.219925" style="fill: #b22222; stroke: #b22222"/>
     <use xlink:href="#m949dd624ed" x="344.572666" y="289.283368" style="fill: #b22222; stroke: #b22222"/>
     <use xlink:href="#m949dd624ed" x="117.77346" y="23.018299" style="fill: #b22222; stroke: #b22222"/>
     <use xlink:href="#m949dd624ed" x="395.959523" y="220.099202" style="fill: #b22222; stroke: #b22222"/>
     <use xlink:href="#m949dd624ed" x="293.707236" y="287.02655" style="fill: #b22222; stroke: #b22222"/>
     <use xlink:href="#m949dd624ed" x="87.533795" y="403.149007" style="fill: #b22222; stroke: #b22222"/>
     <use xlink:href="#m949dd624ed" x="382.70248" y="107.432101" style="fill: #b22222; stroke: #b22222"/>
     <use xlink:href="#m949dd624ed" x="201.156167" y="328.407109" style="fill: #b22222; stroke: #b22222"/>
     <use xlink:href="#m949dd624ed" x="259.76517" y="236.850473" style="fill: #b22222; stroke: #b22222"/>
     <use xlink:href="#m949dd624ed" x="248.588129" y="213.9591" style="fill: #b22222; stroke: #b22222"/>
     <use xlink:href="#m949dd624ed" x="303.867993" y="294.254286" style="fill: #b22222; stroke: #b22222"/>
     <use xlink:href="#m949dd624ed" x="289.319855" y="295.176697" style="fill: #b22222; stroke: #b22222"/>
     <use xlink:href="#m949dd624ed" x="168.928053" y="284.657491" style="fill: #b22222; stroke: #b22222"/>
     <use xlink:href="#m949dd624ed" x="356.24282" y="403.84064" style="fill: #b22222; stroke: #b22222"/>
     <use xlink:href="#m949dd624ed" x="324.855236" y="97.937473" style="fill: #b22222; stroke: #b22222"/>
     <use xlink:href="#m949dd624ed" x="149.573862" y="334.746374" style="fill: #b22222; stroke: #b22222"/>
     <use xlink:href="#m949dd624ed" x="249.939435" y="312.467453" style="fill: #b22222; stroke: #b22222"/>
     <use xlink:href="#m949dd624ed" x="140.312188" y="111.484351" style="fill: #b22222; stroke: #b22222"/>
     <use xlink:href="#m949dd624ed" x="130.670311" y="98.163754" style="fill: #b22222; stroke: #b22222"/>
     <use xlink:href="#m949dd624ed" x="94.873329" y="263.19408" style="fill: #b22222; stroke: #b22222"/>
     <use xlink:href="#m949dd624ed" x="266.636835" y="232.321294" style="fill: #b22222; stroke: #b22222"/>
     <use xlink:href="#m949dd624ed" x="218.052346" y="197.161017" style="fill: #b22222; stroke: #b22222"/>
     <use xlink:href="#m949dd624ed" x="394.671368" y="109.758916" style="fill: #b22222; stroke: #b22222"/>
     <use xlink:href="#m949dd624ed" x="162.676909" y="325.176132" style="fill: #b22222; stroke: #b22222"/>
     <use xlink:href="#m949dd624ed" x="198.90594" y="251.407514" style="fill: #b22222; stroke: #b22222"/>
     <use xlink:href="#m949dd624ed" x="109.64794" y="72.236269" style="fill: #b22222; stroke: #b22222"/>
     <use xlink:href="#m949dd624ed" x="343.779797" y="33.96242" style="fill: #b22222; stroke: #b22222"/>
     <use xlink:href="#m949dd624ed" x="152.439363" y="264.099902" style="fill: #b22222; stroke: #b22222"/>
     <use xlink:href="#m949dd624ed" x="217.502467" y="324.143054" style="fill: #b22222; stroke: #b22222"/>
    </g>
   </g>
   <g id="matplotlib.axis_1">
    <g id="xtick_1">
     <g id="line2d_1">
      <defs>
       <path id="m644692536d" d="M 0 0 
L 0 3.5 
" style="stroke: #000000; stroke-width: 0.8"/>
      </defs>
      <g>
       <use xlink:href="#m644692536d" x="99.697313" y="465.838125" style="stroke: #000000; stroke-width: 0.8"/>
      </g>
     </g>
     <g id="text_1">
      <!-- −400 -->
      <g transform="translate(85.963719 480.436562) scale(0.1 -0.1)">
       <defs>
        <path id="DejaVuSans-2212" d="M 678 2272 
L 4684 2272 
L 4684 1741 
L 678 1741 
L 678 2272 
z
" transform="scale(0.015625)"/>
        <path id="DejaVuSans-34" d="M 2419 4116 
L 825 1625 
L 2419 1625 
L 2419 4116 
z
M 2253 4666 
L 3047 4666 
L 3047 1625 
L 3713 1625 
L 3713 1100 
L 3047 1100 
L 3047 0 
L 2419 0 
L 2419 1100 
L 313 1100 
L 313 1709 
L 2253 4666 
z
" transform="scale(0.015625)"/>
        <path id="DejaVuSans-30" d="M 2034 4250 
Q 1547 4250 1301 3770 
Q 1056 3291 1056 2328 
Q 1056 1369 1301 889 
Q 1547 409 2034 409 
Q 2525 409 2770 889 
Q 3016 1369 3016 2328 
Q 3016 3291 2770 3770 
Q 2525 4250 2034 4250 
z
M 2034 4750 
Q 2819 4750 3233 4129 
Q 3647 3509 3647 2328 
Q 3647 1150 3233 529 
Q 2819 -91 2034 -91 
Q 1250 -91 836 529 
Q 422 1150 422 2328 
Q 422 3509 836 4129 
Q 1250 4750 2034 4750 
z
" transform="scale(0.015625)"/>
       </defs>
       <use xlink:href="#DejaVuSans-2212"/>
       <use xlink:href="#DejaVuSans-34" x="83.789062"/>
       <use xlink:href="#DejaVuSans-30" x="147.412109"/>
       <use xlink:href="#DejaVuSans-30" x="211.035156"/>
      </g>
     </g>
    </g>
    <g id="xtick_2">
     <g id="line2d_2">
      <g>
       <use xlink:href="#m644692536d" x="188.401313" y="465.838125" style="stroke: #000000; stroke-width: 0.8"/>
      </g>
     </g>
     <g id="text_2">
      <!-- −200 -->
      <g transform="translate(174.667719 480.436562) scale(0.1 -0.1)">
       <defs>
        <path id="DejaVuSans-32" d="M 1228 531 
L 3431 531 
L 3431 0 
L 469 0 
L 469 531 
Q 828 903 1448 1529 
Q 2069 2156 2228 2338 
Q 2531 2678 2651 2914 
Q 2772 3150 2772 3378 
Q 2772 3750 2511 3984 
Q 2250 4219 1831 4219 
Q 1534 4219 1204 4116 
Q 875 4013 500 3803 
L 500 4441 
Q 881 4594 1212 4672 
Q 1544 4750 1819 4750 
Q 2544 4750 2975 4387 
Q 3406 4025 3406 3419 
Q 3406 3131 3298 2873 
Q 3191 2616 2906 2266 
Q 2828 2175 2409 1742 
Q 1991 1309 1228 531 
z
" transform="scale(0.015625)"/>
       </defs>
       <use xlink:href="#DejaVuSans-2212"/>
       <use xlink:href="#DejaVuSans-32" x="83.789062"/>
       <use xlink:href="#DejaVuSans-30" x="147.412109"/>
       <use xlink:href="#DejaVuSans-30" x="211.035156"/>
      </g>
     </g>
    </g>
    <g id="xtick_3">
     <g id="line2d_3">
      <g>
       <use xlink:href="#m644692536d" x="277.105313" y="465.838125" style="stroke: #000000; stroke-width: 0.8"/>
      </g>
     </g>
     <g id="text_3">
      <!-- 0 -->
      <g transform="translate(273.924063 480.436562) scale(0.1 -0.1)">
       <use xlink:href="#DejaVuSans-30"/>
      </g>
     </g>
    </g>
    <g id="xtick_4">
     <g id="line2d_4">
      <g>
       <use xlink:href="#m644692536d" x="365.809313" y="465.838125" style="stroke: #000000; stroke-width: 0.8"/>
      </g>
     </g>
     <g id="text_4">
      <!-- 200 -->
      <g transform="translate(356.265563 480.436562) scale(0.1 -0.1)">
       <use xlink:href="#DejaVuSans-32"/>
       <use xlink:href="#DejaVuSans-30" x="63.623047"/>
       <use xlink:href="#DejaVuSans-30" x="127.246094"/>
      </g>
     </g>
    </g>
    <g id="xtick_5">
     <g id="line2d_5">
      <g>
       <use xlink:href="#m644692536d" x="454.513313" y="465.838125" style="stroke: #000000; stroke-width: 0.8"/>
      </g>
     </g>
     <g id="text_5">
      <!-- 400 -->
      <g transform="translate(444.969563 480.436562) scale(0.1 -0.1)">
       <use xlink:href="#DejaVuSans-34"/>
       <use xlink:href="#DejaVuSans-30" x="63.623047"/>
       <use xlink:href="#DejaVuSans-30" x="127.246094"/>
      </g>
     </g>
    </g>
    <g id="text_6">
     <!-- x -->
     <g transform="translate(274.145938 494.114687) scale(0.1 -0.1)">
      <defs>
       <path id="DejaVuSans-78" d="M 3513 3500 
L 2247 1797 
L 3578 0 
L 2900 0 
L 1881 1375 
L 863 0 
L 184 0 
L 1544 1831 
L 300 3500 
L 978 3500 
L 1906 2253 
L 2834 3500 
L 3513 3500 
z
" transform="scale(0.015625)"/>
      </defs>
      <use xlink:href="#DejaVuSans-78"/>
     </g>
    </g>
   </g>
   <g id="matplotlib.axis_2">
    <g id="ytick_1">
     <g id="line2d_6">
      <defs>
       <path id="m376e767047" d="M 0 0 
L -3.5 0 
" style="stroke: #000000; stroke-width: 0.8"/>
      </defs>
      <g>
       <use xlink:href="#m376e767047" x="55.345313" y="421.486125" style="stroke: #000000; stroke-width: 0.8"/>
      </g>
     </g>
     <g id="text_7">
      <!-- −400 -->
      <g transform="translate(20.878125 425.285344) scale(0.1 -0.1)">
       <use xlink:href="#DejaVuSans-2212"/>
       <use xlink:href="#DejaVuSans-34" x="83.789062"/>
       <use xlink:href="#DejaVuSans-30" x="147.412109"/>
       <use xlink:href="#DejaVuSans-30" x="211.035156"/>
      </g>
     </g>
    </g>
    <g id="ytick_2">
     <g id="line2d_7">
      <g>
       <use xlink:href="#m376e767047" x="55.345313" y="332.782125" style="stroke: #000000; stroke-width: 0.8"/>
      </g>
     </g>
     <g id="text_8">
      <!-- −200 -->
      <g transform="translate(20.878125 336.581344) scale(0.1 -0.1)">
       <use xlink:href="#DejaVuSans-2212"/>
       <use xlink:href="#DejaVuSans-32" x="83.789062"/>
       <use xlink:href="#DejaVuSans-30" x="147.412109"/>
       <use xlink:href="#DejaVuSans-30" x="211.035156"/>
      </g>
     </g>
    </g>
    <g id="ytick_3">
     <g id="line2d_8">
      <g>
       <use xlink:href="#m376e767047" x="55.345313" y="244.078125" style="stroke: #000000; stroke-width: 0.8"/>
      </g>
     </g>
     <g id="text_9">
      <!-- 0 -->
      <g transform="translate(41.982813 247.877344) scale(0.1 -0.1)">
       <use xlink:href="#DejaVuSans-30"/>
      </g>
     </g>
    </g>
    <g id="ytick_4">
     <g id="line2d_9">
      <g>
       <use xlink:href="#m376e767047" x="55.345313" y="155.374125" style="stroke: #000000; stroke-width: 0.8"/>
      </g>
     </g>
     <g id="text_10">
      <!-- 200 -->
      <g transform="translate(29.257813 159.173344) scale(0.1 -0.1)">
       <use xlink:href="#DejaVuSans-32"/>
       <use xlink:href="#DejaVuSans-30" x="63.623047"/>
       <use xlink:href="#DejaVuSans-30" x="127.246094"/>
      </g>
     </g>
    </g>
    <g id="ytick_5">
     <g id="line2d_10">
      <g>
       <use xlink:href="#m376e767047" x="55.345313" y="66.670125" style="stroke: #000000; stroke-width: 0.8"/>
      </g>
     </g>
     <g id="text_11">
      <!-- 400 -->
      <g transform="translate(29.257813 70.469344) scale(0.1 -0.1)">
       <use xlink:href="#DejaVuSans-34"/>
       <use xlink:href="#DejaVuSans-30" x="63.623047"/>
       <use xlink:href="#DejaVuSans-30" x="127.246094"/>
      </g>
     </g>
    </g>
    <g id="text_12">
     <!-- y -->
     <g transform="translate(14.798438 247.0375) rotate(-90) scale(0.1 -0.1)">
      <defs>
       <path id="DejaVuSans-79" d="M 2059 -325 
Q 1816 -950 1584 -1140 
Q 1353 -1331 966 -1331 
L 506 -1331 
L 506 -850 
L 844 -850 
Q 1081 -850 1212 -737 
Q 1344 -625 1503 -206 
L 1606 56 
L 191 3500 
L 800 3500 
L 1894 763 
L 2988 3500 
L 3597 3500 
L 2059 -325 
z
" transform="scale(0.015625)"/>
      </defs>
      <use xlink:href="#DejaVuSans-79"/>
     </g>
    </g>
   </g>
   <g id="patch_4">
    <path d="M 55.345313 465.838125 
L 55.345313 22.318125 
" style="fill: none; stroke: #000000; stroke-width: 0.8; stroke-linejoin: miter; stroke-linecap: square"/>
   </g>
   <g id="patch_5">
    <path d="M 498.865313 465.838125 
L 498.865313 22.318125 
" style="fill: none; stroke: #000000; stroke-width: 0.8; stroke-linejoin: miter; stroke-linecap: square"/>
   </g>
   <g id="patch_6">
    <path d="M 55.345313 465.838125 
L 498.865313 465.838125 
" style="fill: none; stroke: #000000; stroke-width: 0.8; stroke-linejoin: miter; stroke-linecap: square"/>
   </g>
   <g id="patch_7">
    <path d="M 55.345313 22.318125 
L 498.865313 22.318125 
" style="fill: none; stroke: #000000; stroke-width: 0.8; stroke-linejoin: miter; stroke-linecap: square"/>
   </g>
   <g id="text_13">
    <!-- t = 200 -->
    <g transform="translate(64.215713 38.786962) scale(0.1 -0.1)">
     <defs>
      <path id="DejaVuSans-74" d="M 1172 4494 
L 1172 3500 
L 2356 3500 
L 2356 3053 
L 1172 3053 
L 1172 1153 
Q 1172 725 1289 603 
Q 1406 481 1766 481 
L 2356 481 
L 2356 0 
L 1766 0 
Q 1100 0 847 248 
Q 594 497 594 1153 
L 594 3053 
L 172 3053 
L 172 3500 
L 594 3500 
L 594 4494 
L 1172 4494 
z
" transform="scale(0.015625)"/>
      <path id="DejaVuSans-20" transform="scale(0.015625)"/>
      <path id="DejaVuSans-3d" d="M 678 2906 
L 4684 2906 
L 4684 2381 
L 678 2381 
L 678 2906 
z
M 678 1631 
L 4684 1631 
L 4684 1100 
L 678 1100 
L 678 1631 
z
" transform="scale(0.015625)"/>
     </defs>
     <use xlink:href="#DejaVuSans-74"/>
     <use xlink:href="#DejaVuSans-20" x="39.208984"/>
     <use xlink:href="#DejaVuSans-3d" x="70.996094"/>
     <use xlink:href="#DejaVuSans-20" x="154.785156"/>
     <use xlink:href="#DejaVuSans-32" x="186.572266"/>
     <use xlink:href="#DejaVuSans-30" x="250.195312"/>
     <use xlink:href="#DejaVuSans-30" x="313.818359"/>
    </g>
   </g>
   <g id="text_14">
    <!-- Evaluation trajectory 5 -->
    <g transform="translate(208.620938 16.318125) scale(0.12 -0.12)">
     <defs>
      <path id="DejaVuSans-45" d="M 628 4666 
L 3578 4666 
L 3578 4134 
L 1259 4134 
L 1259 2753 
L 3481 2753 
L 3481 2222 
L 1259 2222 
L 1259 531 
L 3634 531 
L 3634 0 
L 628 0 
L 628 4666 
z
" transform="scale(0.015625)"/>
      <path id="DejaVuSans-76" d="M 191 3500 
L 800 3500 
L 1894 563 
L 2988 3500 
L 3597 3500 
L 2284 0 
L 1503 0 
L 191 3500 
z
" transform="scale(0.015625)"/>
      <path id="DejaVuSans-61" d="M 2194 1759 
Q 1497 1759 1228 1600 
Q 959 1441 959 1056 
Q 959 750 1161 570 
Q 1363 391 1709 391 
Q 2188 391 2477 730 
Q 2766 1069 2766 1631 
L 2766 1759 
L 2194 1759 
z
M 3341 1997 
L 3341 0 
L 2766 0 
L 2766 531 
Q 2569 213 2275 61 
Q 1981 -91 1556 -91 
Q 1019 -91 701 211 
Q 384 513 384 1019 
Q 384 1609 779 1909 
Q 1175 2209 1959 2209 
L 2766 2209 
L 2766 2266 
Q 2766 2663 2505 2880 
Q 2244 3097 1772 3097 
Q 1472 3097 1187 3025 
Q 903 2953 641 2809 
L 641 3341 
Q 956 3463 1253 3523 
Q 1550 3584 1831 3584 
Q 2591 3584 2966 3190 
Q 3341 2797 3341 1997 
z
" transform="scale(0.015625)"/>
      <path id="DejaVuSans-6c" d="M 603 4863 
L 1178 4863 
L 1178 0 
L 603 0 
L 603 4863 
z
" transform="scale(0.015625)"/>
      <path id="DejaVuSans-75" d="M 544 1381 
L 544 3500 
L 1119 3500 
L 1119 1403 
Q 1119 906 1312 657 
Q 1506 409 1894 409 
Q 2359 409 2629 706 
Q 2900 1003 2900 1516 
L 2900 3500 
L 3475 3500 
L 3475 0 
L 2900 0 
L 2900 538 
Q 2691 219 2414 64 
Q 2138 -91 1772 -91 
Q 1169 -91 856 284 
Q 544 659 544 1381 
z
M 1991 3584 
L 1991 3584 
z
" transform="scale(0.015625)"/>
      <path id="DejaVuSans-69" d="M 603 3500 
L 1178 3500 
L 1178 0 
L 603 0 
L 603 3500 
z
M 603 4863 
L 1178 4863 
L 1178 4134 
L 603 4134 
L 603 4863 
z
" transform="scale(0.015625)"/>
      <path id="DejaVuSans-6f" d="M 1959 3097 
Q 1497 3097 1228 2736 
Q 959 2375 959 1747 
Q 959 1119 1226 758 
Q 1494 397 1959 397 
Q 2419 397 2687 759 
Q 2956 1122 2956 1747 
Q 2956 2369 2687 2733 
Q 2419 3097 1959 3097 
z
M 1959 3584 
Q 2709 3584 3137 3096 
Q 3566 2609 3566 1747 
Q 3566 888 3137 398 
Q 2709 -91 1959 -91 
Q 1206 -91 779 398 
Q 353 888 353 1747 
Q 353 2609 779 3096 
Q 1206 3584 1959 3584 
z
" transform="scale(0.015625)"/>
      <path id="DejaVuSans-6e" d="M 3513 2113 
L 3513 0 
L 2938 0 
L 2938 2094 
Q 2938 2591 2744 2837 
Q 2550 3084 2163 3084 
Q 1697 3084 1428 2787 
Q 1159 2491 1159 1978 
L 1159 0 
L 581 0 
L 581 3500 
L 1159 3500 
L 1159 2956 
Q 1366 3272 1645 3428 
Q 1925 3584 2291 3584 
Q 2894 3584 3203 3211 
Q 3513 2838 3513 2113 
z
" transform="scale(0.015625)"/>
      <path id="DejaVuSans-72" d="M 2631 2963 
Q 2534 3019 2420 3045 
Q 2306 3072 2169 3072 
Q 1681 3072 1420 2755 
Q 1159 2438 1159 1844 
L 1159 0 
L 581 0 
L 581 3500 
L 1159 3500 
L 1159 2956 
Q 1341 3275 1631 3429 
Q 1922 3584 2338 3584 
Q 2397 3584 2469 3576 
Q 2541 3569 2628 3553 
L 2631 2963 
z
" transform="scale(0.015625)"/>
      <path id="DejaVuSans-6a" d="M 603 3500 
L 1178 3500 
L 1178 -63 
Q 1178 -731 923 -1031 
Q 669 -1331 103 -1331 
L -116 -1331 
L -116 -844 
L 38 -844 
Q 366 -844 484 -692 
Q 603 -541 603 -63 
L 603 3500 
z
M 603 4863 
L 1178 4863 
L 1178 4134 
L 603 4134 
L 603 4863 
z
" transform="scale(0.015625)"/>
      <path id="DejaVuSans-65" d="M 3597 1894 
L 3597 1613 
L 953 1613 
Q 991 1019 1311 708 
Q 1631 397 2203 397 
Q 2534 397 2845 478 
Q 3156 559 3463 722 
L 3463 178 
Q 3153 47 2828 -22 
Q 2503 -91 2169 -91 
Q 1331 -91 842 396 
Q 353 884 353 1716 
Q 353 2575 817 3079 
Q 1281 3584 2069 3584 
Q 2775 3584 3186 3129 
Q 3597 2675 3597 1894 
z
M 3022 2063 
Q 3016 2534 2758 2815 
Q 2500 3097 2075 3097 
Q 1594 3097 1305 2825 
Q 1016 2553 972 2059 
L 3022 2063 
z
" transform="scale(0.015625)"/>
      <path id="DejaVuSans-63" d="M 3122 3366 
L 3122 2828 
Q 2878 2963 2633 3030 
Q 2388 3097 2138 3097 
Q 1578 3097 1268 2742 
Q 959 2388 959 1747 
Q 959 1106 1268 751 
Q 1578 397 2138 397 
Q 2388 397 2633 464 
Q 2878 531 3122 666 
L 3122 134 
Q 2881 22 2623 -34 
Q 2366 -91 2075 -91 
Q 1284 -91 818 406 
Q 353 903 353 1747 
Q 353 2603 823 3093 
Q 1294 3584 2113 3584 
Q 2378 3584 2631 3529 
Q 2884 3475 3122 3366 
z
" transform="scale(0.015625)"/>
      <path id="DejaVuSans-35" d="M 691 4666 
L 3169 4666 
L 3169 4134 
L 1269 4134 
L 1269 2991 
Q 1406 3038 1543 3061 
Q 1681 3084 1819 3084 
Q 2600 3084 3056 2656 
Q 3513 2228 3513 1497 
Q 3513 744 3044 326 
Q 2575 -91 1722 -91 
Q 1428 -91 1123 -41 
Q 819 9 494 109 
L 494 744 
Q 775 591 1075 516 
Q 1375 441 1709 441 
Q 2250 441 2565 725 
Q 2881 1009 2881 1497 
Q 2881 1984 2565 2268 
Q 2250 2553 1709 2553 
Q 1456 2553 1204 2497 
Q 953 2441 691 2322 
L 691 4666 
z
" transform="scale(0.015625)"/>
     </defs>
     <use xlink:href="#DejaVuSans-45"/>
     <use xlink:href="#DejaVuSans-76" x="63.183594"/>
     <use xlink:href="#DejaVuSans-61" x="122.363281"/>
     <use xlink:href="#DejaVuSans-6c" x="183.642578"/>
     <use xlink:href="#DejaVuSans-75" x="211.425781"/>
     <use xlink:href="#DejaVuSans-61" x="274.804688"/>
     <use xlink:href="#DejaVuSans-74" x="336.083984"/>
     <use xlink:href="#DejaVuSans-69" x="375.292969"/>
     <use xlink:href="#DejaVuSans-6f" x="403.076172"/>
     <use xlink:href="#DejaVuSans-6e" x="464.257812"/>
     <use xlink:href="#DejaVuSans-20" x="527.636719"/>
     <use xlink:href="#DejaVuSans-74" x="559.423828"/>
     <use xlink:href="#DejaVuSans-72" x="598.632812"/>
     <use xlink:href="#DejaVuSans-61" x="639.746094"/>
     <use xlink:href="#DejaVuSans-6a" x="701.025391"/>
     <use xlink:href="#DejaVuSans-65" x="728.808594"/>
     <use xlink:href="#DejaVuSans-63" x="790.332031"/>
     <use xlink:href="#DejaVuSans-74" x="845.3125"/>
     <use xlink:href="#DejaVuSans-6f" x="884.521484"/>
     <use xlink:href="#DejaVuSans-72" x="945.703125"/>
     <use xlink:href="#DejaVuSans-79" x="986.816406"/>
     <use xlink:href="#DejaVuSans-20" x="1045.996094"/>
     <use xlink:href="#DejaVuSans-35" x="1077.783203"/>
    </g>
   </g>
   <g id="legend_1">
    <g id="patch_8">
     <path d="M 424.387188 59.674375 
L 491.865313 59.674375 
Q 493.865313 59.674375 493.865313 57.674375 
L 493.865313 29.318125 
Q 493.865313 27.318125 491.865313 27.318125 
L 424.387188 27.318125 
Q 422.387188 27.318125 422.387188 29.318125 
L 422.387188 57.674375 
Q 422.387188 59.674375 424.387188 59.674375 
z
" style="fill: #ffffff; opacity: 0.8; stroke: #cccccc; stroke-linejoin: miter"/>
    </g>
    <g id="PathCollection_3">
     <g>
      <use xlink:href="#mb079e5a42e" x="436.387188" y="36.291562" style="fill: #4169e1; stroke: #4169e1"/>
     </g>
    </g>
    <g id="text_15">
     <!-- Sheep -->
     <g transform="translate(454.387188 38.916562) scale(0.1 -0.1)">
      <defs>
       <path id="DejaVuSans-53" d="M 3425 4513 
L 3425 3897 
Q 3066 4069 2747 4153 
Q 2428 4238 2131 4238 
Q 1616 4238 1336 4038 
Q 1056 3838 1056 3469 
Q 1056 3159 1242 3001 
Q 1428 2844 1947 2747 
L 2328 2669 
Q 3034 2534 3370 2195 
Q 3706 1856 3706 1288 
Q 3706 609 3251 259 
Q 2797 -91 1919 -91 
Q 1588 -91 1214 -16 
Q 841 59 441 206 
L 441 856 
Q 825 641 1194 531 
Q 1563 422 1919 422 
Q 2459 422 2753 634 
Q 3047 847 3047 1241 
Q 3047 1584 2836 1778 
Q 2625 1972 2144 2069 
L 1759 2144 
Q 1053 2284 737 2584 
Q 422 2884 422 3419 
Q 422 4038 858 4394 
Q 1294 4750 2059 4750 
Q 2388 4750 2728 4690 
Q 3069 4631 3425 4513 
z
" transform="scale(0.015625)"/>
       <path id="DejaVuSans-68" d="M 3513 2113 
L 3513 0 
L 2938 0 
L 2938 2094 
Q 2938 2591 2744 2837 
Q 2550 3084 2163 3084 
Q 1697 3084 1428 2787 
Q 1159 2491 1159 1978 
L 1159 0 
L 581 0 
L 581 4863 
L 1159 4863 
L 1159 2956 
Q 1366 3272 1645 3428 
Q 1925 3584 2291 3584 
Q 2894 3584 3203 3211 
Q 3513 2838 3513 2113 
z
" transform="scale(0.015625)"/>
       <path id="DejaVuSans-70" d="M 1159 525 
L 1159 -1331 
L 581 -1331 
L 581 3500 
L 1159 3500 
L 1159 2969 
Q 1341 3281 1617 3432 
Q 1894 3584 2278 3584 
Q 2916 3584 3314 3078 
Q 3713 2572 3713 1747 
Q 3713 922 3314 415 
Q 2916 -91 2278 -91 
Q 1894 -91 1617 61 
Q 1341 213 1159 525 
z
M 3116 1747 
Q 3116 2381 2855 2742 
Q 2594 3103 2138 3103 
Q 1681 3103 1420 2742 
Q 1159 2381 1159 1747 
Q 1159 1113 1420 752 
Q 1681 391 2138 391 
Q 2594 391 2855 752 
Q 3116 1113 3116 1747 
z
" transform="scale(0.015625)"/>
      </defs>
      <use xlink:href="#DejaVuSans-53"/>
      <use xlink:href="#DejaVuSans-68" x="63.476562"/>
      <use xlink:href="#DejaVuSans-65" x="126.855469"/>
      <use xlink:href="#DejaVuSans-65" x="188.378906"/>
      <use xlink:href="#DejaVuSans-70" x="249.902344"/>
     </g>
    </g>
    <g id="PathCollection_4">
     <g>
      <use xlink:href="#m949dd624ed" x="436.387188" y="50.969687" style="fill: #b22222; stroke: #b22222"/>
     </g>
    </g>
    <g id="text_16">
     <!-- Wolves -->
     <g transform="translate(454.387188 53.594687) scale(0.1 -0.1)">
      <defs>
       <path id="DejaVuSans-57" d="M 213 4666 
L 850 4666 
L 1831 722 
L 2809 4666 
L 3519 4666 
L 4500 722 
L 5478 4666 
L 6119 4666 
L 4947 0 
L 4153 0 
L 3169 4050 
L 2175 0 
L 1381 0 
L 213 4666 
z
" transform="scale(0.015625)"/>
       <path id="DejaVuSans-73" d="M 2834 3397 
L 2834 2853 
Q 2591 2978 2328 3040 
Q 2066 3103 1784 3103 
Q 1356 3103 1142 2972 
Q 928 2841 928 2578 
Q 928 2378 1081 2264 
Q 1234 2150 1697 2047 
L 1894 2003 
Q 2506 1872 2764 1633 
Q 3022 1394 3022 966 
Q 3022 478 2636 193 
Q 2250 -91 1575 -91 
Q 1294 -91 989 -36 
Q 684 19 347 128 
L 347 722 
Q 666 556 975 473 
Q 1284 391 1588 391 
Q 1994 391 2212 530 
Q 2431 669 2431 922 
Q 2431 1156 2273 1281 
Q 2116 1406 1581 1522 
L 1381 1569 
Q 847 1681 609 1914 
Q 372 2147 372 2553 
Q 372 3047 722 3315 
Q 1072 3584 1716 3584 
Q 2034 3584 2315 3537 
Q 2597 3491 2834 3397 
z
" transform="scale(0.015625)"/>
      </defs>
      <use xlink:href="#DejaVuSans-57"/>
      <use xlink:href="#DejaVuSans-6f" x="93.001953"/>
      <use xlink:href="#DejaVuSans-6c" x="154.183594"/>
      <use xlink:href="#DejaVuSans-76" x="181.966797"/>
      <use xlink:href="#DejaVuSans-65" x="241.146484"/>
      <use xlink:href="#DejaVuSans-73" x="302.669922"/>
     </g>
    </g>
   </g>
  </g>
 </g>
 <defs>
  <clipPath id="p442a68e87c">
   <rect x="55.345313" y="22.318125" width="443.52" height="443.52"/>
  </clipPath>
 </defs>
</svg>
