<?xml version="1.0" encoding="utf-8" standalone="no"?>
<!DOCTYPE svg PUBLIC "-//W3C//DTD SVG 1.1//EN"
  "http://www.w3.org/Graphics/SVG/1.1/DTD/svg11.dtd">
<svg xmlns:xlink="http://www.w3.org/1999/xlink" width="506.065313pt" height="503.394375pt" viewBox="0 0 506.065313 503.394375" xmlns="http://www.w3.org/2000/svg" version="1.1">
 <metadata>
  <rdf:RDF xmlns:dc="http://purl.org/dc/elements/1.1/" xmlns:cc="http://creativecommons.org/ns#" xmlns:rdf="http://www.w3.org/1999/02/22-rdf-syntax-ns#">
   <cc:Work>
    <dc:type rdf:resource="http://purl.org/dc/dcmitype/StillImage"/>
    <dc:date>2026-05-08T10:04:23.945410</dc:date>
    <dc:format>image/svg+xml</dc:format>
    <dc:creator>
     <cc:Agent>
      <dc:title>Matplotlib v3.7.1, https://matplotlib.org/</dc:title>
     </cc:Agent>
    </dc:creator>
   </cc:Work>
  </rdf:RDF>
 </metadata>
 <defs>
  <style type="text/css">*{stroke-linejoin: round; stroke-linecap: butt}</style>
 </defs>
 <g id="figure_1">
  <g id="patch_1">
   <path d="M 0 503.394375 
L 506.065313 503.394375 
L 506.065313 0 
L 0 0 
z
" style="fill: #ffffff"/>
  </g>
  <g id="axes_1">
   <g id="patch_2">
    <path d="M 55.345313 465.838125 
L 498.865313 465.838125 
L 498.865313 22.318125 
L 55.345313 22.318125 
z
" style="fill: #ffffff"/>
   </g>
   <g id="patch_3">
    <path d="M 277.105313 332.782125 
C 300.629888 332.782125 323.194125 323.435712 339.828512 306.801325 
C 356.462899 290.166938 365.809313 267.602701 365.809313 244.078125 
C 365.809313 220.553549 356.462899 197.989312 339.828512 181.354925 
C 323.194125 164.720538 300.629888 155.374125 277.105313 155.374125 
C 253.580737 155.374125 231.0165 164.720538 214.382113 181.354925 
C 197.747726 197.989312 188.401313 220.553549 188.401313 244.078125 
C 188.401313 267.602701 197.747726 290.166938 214.382113 306.801325 
C 231.0165 323.435712 253.580737 332.782125 277.105313 332.782125 
z
" clip-path="url(#pe1c9b1bcf5)" style="fill: #228b22; opacity: 0.12; stroke: #228b22; stroke-width: 1.5; stroke-linejoin: miter"/>
   </g>
   <g id="PathCollection_1">
    <defs>
     <path id="m77e16e866c" d="M 0 2.236068 
C 0.593012 2.236068 1.161816 2.000462 1.581139 1.581139 
C 2.000462 1.161816 2.236068 0.593012 2.236068 0 
C 2.236068 -0.593012 2.000462 -1.161816 1.581139 -1.581139 
C 1.161816 -2.000462 0.593012 -2.236068 0 -2.236068 
C -0.593012 -2.236068 -1.161816 -2.000462 -1.581139 -1.581139 
C -2.000462 -1.161816 -2.236068 -0.593012 -2.236068 0 
C -2.236068 0.593012 -2.000462 1.161816 -1.581139 1.581139 
C -1.161816 2.000462 -0.593012 2.236068 0 2.236068 
z
" style="stroke: #4169e1"/>
    </defs>
    <g clip-path="url(#pe1c9b1bcf5)">
     <use xlink:href="#m77e16e866c" x="346.901038" y="156.550709" style="fill: #4169e1; stroke: #4169e1"/>
     <use xlink:href="#m77e16e866c" x="228.195626" y="256.145062" style="fill: #4169e1; stroke: #4169e1"/>
     <use xlink:href="#m77e16e866c" x="361.989164" y="325.298293" style="fill: #4169e1; stroke: #4169e1"/>
     <use xlink:href="#m77e16e866c" x="221.28691" y="218.141071" style="fill: #4169e1; stroke: #4169e1"/>
     <use xlink:href="#m77e16e866c" x="216.871458" y="270.687552" style="fill: #4169e1; stroke: #4169e1"/>
     <use xlink:href="#m77e16e866c" x="327.942141" y="194.137026" style="fill: #4169e1; stroke: #4169e1"/>
     <use xlink:href="#m77e16e866c" x="267.91687" y="240.924068" style="fill: #4169e1; stroke: #4169e1"/>
     <use xlink:href="#m77e16e866c" x="320.279551" y="167.539375" style="fill: #4169e1; stroke: #4169e1"/>
     <use xlink:href="#m77e16e866c" x="167.463278" y="314.374387" style="fill: #4169e1; stroke: #4169e1"/>
     <use xlink:href="#m77e16e866c" x="222.479669" y="259.401167" style="fill: #4169e1; stroke: #4169e1"/>
     <use xlink:href="#m77e16e866c" x="252.924756" y="164.411495" style="fill: #4169e1; stroke: #4169e1"/>
     <use xlink:href="#m77e16e866c" x="220.252107" y="348.667688" style="fill: #4169e1; stroke: #4169e1"/>
     <use xlink:href="#m77e16e866c" x="183.240987" y="258.794379" style="fill: #4169e1; stroke: #4169e1"/>
     <use xlink:href="#m77e16e866c" x="204.476882" y="179.876859" style="fill: #4169e1; stroke: #4169e1"/>
     <use xlink:href="#m77e16e866c" x="284.832966" y="154.275909" style="fill: #4169e1; stroke: #4169e1"/>
     <use xlink:href="#m77e16e866c" x="229.345641" y="350.851951" style="fill: #4169e1; stroke: #4169e1"/>
     <use xlink:href="#m77e16e866c" x="191.152204" y="286.213567" style="fill: #4169e1; stroke: #4169e1"/>
     <use xlink:href="#m77e16e866c" x="306.944918" y="239.546649" style="fill: #4169e1; stroke: #4169e1"/>
     <use xlink:href="#m77e16e866c" x="384.788187" y="259.383585" style="fill: #4169e1; stroke: #4169e1"/>
     <use xlink:href="#m77e16e866c" x="338.396439" y="258.011296" style="fill: #4169e1; stroke: #4169e1"/>
     <use xlink:href="#m77e16e866c" x="253.021668" y="250.204367" style="fill: #4169e1; stroke: #4169e1"/>
     <use xlink:href="#m77e16e866c" x="381.106435" y="352.702803" style="fill: #4169e1; stroke: #4169e1"/>
     <use xlink:href="#m77e16e866c" x="375.718441" y="353.767187" style="fill: #4169e1; stroke: #4169e1"/>
     <use xlink:href="#m77e16e866c" x="179.629983" y="351.951256" style="fill: #4169e1; stroke: #4169e1"/>
     <use xlink:href="#m77e16e866c" x="170.088754" y="325.589665" style="fill: #4169e1; stroke: #4169e1"/>
     <use xlink:href="#m77e16e866c" x="243.184411" y="299.660613" style="fill: #4169e1; stroke: #4169e1"/>
     <use xlink:href="#m77e16e866c" x="346.003779" y="262.202518" style="fill: #4169e1; stroke: #4169e1"/>
     <use xlink:href="#m77e16e866c" x="344.349607" y="335.102213" style="fill: #4169e1; stroke: #4169e1"/>
     <use xlink:href="#m77e16e866c" x="216.913126" y="309.075955" style="fill: #4169e1; stroke: #4169e1"/>
     <use xlink:href="#m77e16e866c" x="262.509129" y="347.37973" style="fill: #4169e1; stroke: #4169e1"/>
     <use xlink:href="#m77e16e866c" x="297.01925" y="291.19353" style="fill: #4169e1; stroke: #4169e1"/>
     <use xlink:href="#m77e16e866c" x="208.124052" y="186.226702" style="fill: #4169e1; stroke: #4169e1"/>
     <use xlink:href="#m77e16e866c" x="216.821337" y="269.624704" style="fill: #4169e1; stroke: #4169e1"/>
     <use xlink:href="#m77e16e866c" x="239.564948" y="293.703693" style="fill: #4169e1; stroke: #4169e1"/>
     <use xlink:href="#m77e16e866c" x="238.996579" y="318.687344" style="fill: #4169e1; stroke: #4169e1"/>
     <use xlink:href="#m77e16e866c" x="256.874957" y="171.401577" style="fill: #4169e1; stroke: #4169e1"/>
     <use xlink:href="#m77e16e866c" x="290.457027" y="153.679564" style="fill: #4169e1; stroke: #4169e1"/>
     <use xlink:href="#m77e16e866c" x="280.776439" y="182.512222" style="fill: #4169e1; stroke: #4169e1"/>
     <use xlink:href="#m77e16e866c" x="195.909284" y="168.81287" style="fill: #4169e1; stroke: #4169e1"/>
     <use xlink:href="#m77e16e866c" x="219.268717" y="269.498231" style="fill: #4169e1; stroke: #4169e1"/>
     <use xlink:href="#m77e16e866c" x="314.484149" y="331.346519" style="fill: #4169e1; stroke: #4169e1"/>
     <use xlink:href="#m77e16e866c" x="360.326275" y="176.705058" style="fill: #4169e1; stroke: #4169e1"/>
     <use xlink:href="#m77e16e866c" x="316.81183" y="294.514983" style="fill: #4169e1; stroke: #4169e1"/>
     <use xlink:href="#m77e16e866c" x="285.385228" y="314.373906" style="fill: #4169e1; stroke: #4169e1"/>
     <use xlink:href="#m77e16e866c" x="210.978914" y="224.386774" style="fill: #4169e1; stroke: #4169e1"/>
     <use xlink:href="#m77e16e866c" x="314.801643" y="250.026163" style="fill: #4169e1; stroke: #4169e1"/>
     <use xlink:href="#m77e16e866c" x="184.341483" y="205.512445" style="fill: #4169e1; stroke: #4169e1"/>
     <use xlink:href="#m77e16e866c" x="230.973453" y="217.968389" style="fill: #4169e1; stroke: #4169e1"/>
     <use xlink:href="#m77e16e866c" x="184.007544" y="269.18875" style="fill: #4169e1; stroke: #4169e1"/>
     <use xlink:href="#m77e16e866c" x="366.65748" y="279.372737" style="fill: #4169e1; stroke: #4169e1"/>
     <use xlink:href="#m77e16e866c" x="253.780827" y="153.612524" style="fill: #4169e1; stroke: #4169e1"/>
     <use xlink:href="#m77e16e866c" x="354.777754" y="175.990902" style="fill: #4169e1; stroke: #4169e1"/>
     <use xlink:href="#m77e16e866c" x="221.248129" y="311.629606" style="fill: #4169e1; stroke: #4169e1"/>
     <use xlink:href="#m77e16e866c" x="387.084534" y="197.72169" style="fill: #4169e1; stroke: #4169e1"/>
     <use xlink:href="#m77e16e866c" x="301.324282" y="149.222532" style="fill: #4169e1; stroke: #4169e1"/>
     <use xlink:href="#m77e16e866c" x="322.959566" y="323.22868" style="fill: #4169e1; stroke: #4169e1"/>
     <use xlink:href="#m77e16e866c" x="244.814923" y="226.603737" style="fill: #4169e1; stroke: #4169e1"/>
     <use xlink:href="#m77e16e866c" x="169.893313" y="151.743428" style="fill: #4169e1; stroke: #4169e1"/>
     <use xlink:href="#m77e16e866c" x="212.937147" y="251.171237" style="fill: #4169e1; stroke: #4169e1"/>
     <use xlink:href="#m77e16e866c" x="206.925893" y="283.160916" style="fill: #4169e1; stroke: #4169e1"/>
     <use xlink:href="#m77e16e866c" x="218.737591" y="284.717195" style="fill: #4169e1; stroke: #4169e1"/>
     <use xlink:href="#m77e16e866c" x="348.744864" y="305.355953" style="fill: #4169e1; stroke: #4169e1"/>
     <use xlink:href="#m77e16e866c" x="325.404299" y="160.180703" style="fill: #4169e1; stroke: #4169e1"/>
     <use xlink:href="#m77e16e866c" x="296.177512" y="216.63094" style="fill: #4169e1; stroke: #4169e1"/>
     <use xlink:href="#m77e16e866c" x="283.983175" y="228.816289" style="fill: #4169e1; stroke: #4169e1"/>
     <use xlink:href="#m77e16e866c" x="225.808789" y="233.456249" style="fill: #4169e1; stroke: #4169e1"/>
     <use xlink:href="#m77e16e866c" x="186.309346" y="328.824357" style="fill: #4169e1; stroke: #4169e1"/>
     <use xlink:href="#m77e16e866c" x="224.431296" y="344.210548" style="fill: #4169e1; stroke: #4169e1"/>
     <use xlink:href="#m77e16e866c" x="308.472428" y="173.538657" style="fill: #4169e1; stroke: #4169e1"/>
     <use xlink:href="#m77e16e866c" x="360.895442" y="138.20999" style="fill: #4169e1; stroke: #4169e1"/>
     <use xlink:href="#m77e16e866c" x="195.517374" y="177.890994" style="fill: #4169e1; stroke: #4169e1"/>
     <use xlink:href="#m77e16e866c" x="290.574959" y="323.66659" style="fill: #4169e1; stroke: #4169e1"/>
     <use xlink:href="#m77e16e866c" x="359.942959" y="349.322478" style="fill: #4169e1; stroke: #4169e1"/>
     <use xlink:href="#m77e16e866c" x="299.611137" y="312.393077" style="fill: #4169e1; stroke: #4169e1"/>
     <use xlink:href="#m77e16e866c" x="204.292967" y="241.918212" style="fill: #4169e1; stroke: #4169e1"/>
     <use xlink:href="#m77e16e866c" x="355.904989" y="133.721922" style="fill: #4169e1; stroke: #4169e1"/>
     <use xlink:href="#m77e16e866c" x="255.159803" y="277.061555" style="fill: #4169e1; stroke: #4169e1"/>
     <use xlink:href="#m77e16e866c" x="200.805498" y="307.143967" style="fill: #4169e1; stroke: #4169e1"/>
     <use xlink:href="#m77e16e866c" x="318.499475" y="216.917953" style="fill: #4169e1; stroke: #4169e1"/>
     <use xlink:href="#m77e16e866c" x="287.663425" y="149.950737" style="fill: #4169e1; stroke: #4169e1"/>
     <use xlink:href="#m77e16e866c" x="312.649634" y="345.038784" style="fill: #4169e1; stroke: #4169e1"/>
     <use xlink:href="#m77e16e866c" x="323.037664" y="232.590242" style="fill: #4169e1; stroke: #4169e1"/>
     <use xlink:href="#m77e16e866c" x="220.717561" y="165.972816" style="fill: #4169e1; stroke: #4169e1"/>
     <use xlink:href="#m77e16e866c" x="379.445292" y="256.83792" style="fill: #4169e1; stroke: #4169e1"/>
     <use xlink:href="#m77e16e866c" x="356.517658" y="240.753796" style="fill: #4169e1; stroke: #4169e1"/>
     <use xlink:href="#m77e16e866c" x="203.783205" y="184.480111" style="fill: #4169e1; stroke: #4169e1"/>
     <use xlink:href="#m77e16e866c" x="372.261427" y="152.324627" style="fill: #4169e1; stroke: #4169e1"/>
     <use xlink:href="#m77e16e866c" x="281.534083" y="353.700601" style="fill: #4169e1; stroke: #4169e1"/>
     <use xlink:href="#m77e16e866c" x="224.717226" y="342.879663" style="fill: #4169e1; stroke: #4169e1"/>
     <use xlink:href="#m77e16e866c" x="377.747374" y="181.18108" style="fill: #4169e1; stroke: #4169e1"/>
     <use xlink:href="#m77e16e866c" x="342.906204" y="188.303996" style="fill: #4169e1; stroke: #4169e1"/>
     <use xlink:href="#m77e16e866c" x="379.286389" y="302.249452" style="fill: #4169e1; stroke: #4169e1"/>
     <use xlink:href="#m77e16e866c" x="199.85529" y="240.999405" style="fill: #4169e1; stroke: #4169e1"/>
     <use xlink:href="#m77e16e866c" x="204.002962" y="134.793162" style="fill: #4169e1; stroke: #4169e1"/>
     <use xlink:href="#m77e16e866c" x="217.092893" y="236.575371" style="fill: #4169e1; stroke: #4169e1"/>
     <use xlink:href="#m77e16e866c" x="212.760817" y="338.612522" style="fill: #4169e1; stroke: #4169e1"/>
     <use xlink:href="#m77e16e866c" x="278.739019" y="312.867836" style="fill: #4169e1; stroke: #4169e1"/>
     <use xlink:href="#m77e16e866c" x="245.680774" y="323.784332" style="fill: #4169e1; stroke: #4169e1"/>
     <use xlink:href="#m77e16e866c" x="266.682579" y="273.326887" style="fill: #4169e1; stroke: #4169e1"/>
     <use xlink:href="#m77e16e866c" x="177.84942" y="196.339818" style="fill: #4169e1; stroke: #4169e1"/>
     <use xlink:href="#m77e16e866c" x="381.175992" y="293.505342" style="fill: #4169e1; stroke: #4169e1"/>
     <use xlink:href="#m77e16e866c" x="178.049699" y="353.025562" style="fill: #4169e1; stroke: #4169e1"/>
     <use xlink:href="#m77e16e866c" x="313.247753" y="169.319884" style="fill: #4169e1; stroke: #4169e1"/>
     <use xlink:href="#m77e16e866c" x="303.792675" y="305.85628" style="fill: #4169e1; stroke: #4169e1"/>
     <use xlink:href="#m77e16e866c" x="356.953449" y="350.627484" style="fill: #4169e1; stroke: #4169e1"/>
     <use xlink:href="#m77e16e866c" x="348.253836" y="149.032065" style="fill: #4169e1; stroke: #4169e1"/>
     <use xlink:href="#m77e16e866c" x="174.64016" y="288.745887" style="fill: #4169e1; stroke: #4169e1"/>
     <use xlink:href="#m77e16e866c" x="297.811828" y="251.625822" style="fill: #4169e1; stroke: #4169e1"/>
     <use xlink:href="#m77e16e866c" x="191.059685" y="212.246605" style="fill: #4169e1; stroke: #4169e1"/>
     <use xlink:href="#m77e16e866c" x="208.340926" y="236.322508" style="fill: #4169e1; stroke: #4169e1"/>
     <use xlink:href="#m77e16e866c" x="266.124179" y="261.098476" style="fill: #4169e1; stroke: #4169e1"/>
     <use xlink:href="#m77e16e866c" x="227.897514" y="237.621571" style="fill: #4169e1; stroke: #4169e1"/>
     <use xlink:href="#m77e16e866c" x="347.074464" y="264.298647" style="fill: #4169e1; stroke: #4169e1"/>
     <use xlink:href="#m77e16e866c" x="229.82019" y="301.816665" style="fill: #4169e1; stroke: #4169e1"/>
     <use xlink:href="#m77e16e866c" x="381.509052" y="162.154765" style="fill: #4169e1; stroke: #4169e1"/>
     <use xlink:href="#m77e16e866c" x="190.925362" y="169.854346" style="fill: #4169e1; stroke: #4169e1"/>
     <use xlink:href="#m77e16e866c" x="223.421817" y="296.722425" style="fill: #4169e1; stroke: #4169e1"/>
     <use xlink:href="#m77e16e866c" x="289.796958" y="159.289277" style="fill: #4169e1; stroke: #4169e1"/>
     <use xlink:href="#m77e16e866c" x="224.191365" y="165.566612" style="fill: #4169e1; stroke: #4169e1"/>
     <use xlink:href="#m77e16e866c" x="278.47239" y="187.41475" style="fill: #4169e1; stroke: #4169e1"/>
     <use xlink:href="#m77e16e866c" x="272.386091" y="308.461507" style="fill: #4169e1; stroke: #4169e1"/>
     <use xlink:href="#m77e16e866c" x="219.811788" y="134.394322" style="fill: #4169e1; stroke: #4169e1"/>
     <use xlink:href="#m77e16e866c" x="343.156767" y="244.472837" style="fill: #4169e1; stroke: #4169e1"/>
     <use xlink:href="#m77e16e866c" x="287.367627" y="171.85755" style="fill: #4169e1; stroke: #4169e1"/>
     <use xlink:href="#m77e16e866c" x="212.524751" y="173.052663" style="fill: #4169e1; stroke: #4169e1"/>
     <use xlink:href="#m77e16e866c" x="334.04919" y="309.126556" style="fill: #4169e1; stroke: #4169e1"/>
     <use xlink:href="#m77e16e866c" x="337.421163" y="305.069522" style="fill: #4169e1; stroke: #4169e1"/>
     <use xlink:href="#m77e16e866c" x="213.091691" y="241.408654" style="fill: #4169e1; stroke: #4169e1"/>
     <use xlink:href="#m77e16e866c" x="276.868501" y="147.271588" style="fill: #4169e1; stroke: #4169e1"/>
     <use xlink:href="#m77e16e866c" x="206.807568" y="153.048487" style="fill: #4169e1; stroke: #4169e1"/>
     <use xlink:href="#m77e16e866c" x="177.959657" y="295.743109" style="fill: #4169e1; stroke: #4169e1"/>
     <use xlink:href="#m77e16e866c" x="313.341755" y="200.130583" style="fill: #4169e1; stroke: #4169e1"/>
     <use xlink:href="#m77e16e866c" x="274.369336" y="316.239356" style="fill: #4169e1; stroke: #4169e1"/>
     <use xlink:href="#m77e16e866c" x="250.776185" y="200.852859" style="fill: #4169e1; stroke: #4169e1"/>
     <use xlink:href="#m77e16e866c" x="262.408224" y="319.902415" style="fill: #4169e1; stroke: #4169e1"/>
     <use xlink:href="#m77e16e866c" x="292.553149" y="167.813096" style="fill: #4169e1; stroke: #4169e1"/>
     <use xlink:href="#m77e16e866c" x="269.889328" y="203.441201" style="fill: #4169e1; stroke: #4169e1"/>
     <use xlink:href="#m77e16e866c" x="338.772784" y="283.859458" style="fill: #4169e1; stroke: #4169e1"/>
     <use xlink:href="#m77e16e866c" x="256.713936" y="213.489119" style="fill: #4169e1; stroke: #4169e1"/>
     <use xlink:href="#m77e16e866c" x="185.064531" y="189.035828" style="fill: #4169e1; stroke: #4169e1"/>
     <use xlink:href="#m77e16e866c" x="252.667852" y="223.560493" style="fill: #4169e1; stroke: #4169e1"/>
     <use xlink:href="#m77e16e866c" x="218.966267" y="338.139184" style="fill: #4169e1; stroke: #4169e1"/>
     <use xlink:href="#m77e16e866c" x="190.662137" y="300.600301" style="fill: #4169e1; stroke: #4169e1"/>
     <use xlink:href="#m77e16e866c" x="352.821369" y="212.729377" style="fill: #4169e1; stroke: #4169e1"/>
     <use xlink:href="#m77e16e866c" x="228.61728" y="145.317138" style="fill: #4169e1; stroke: #4169e1"/>
     <use xlink:href="#m77e16e866c" x="168.154181" y="214.341251" style="fill: #4169e1; stroke: #4169e1"/>
     <use xlink:href="#m77e16e866c" x="365.932685" y="277.710105" style="fill: #4169e1; stroke: #4169e1"/>
     <use xlink:href="#m77e16e866c" x="323.548535" y="242.225791" style="fill: #4169e1; stroke: #4169e1"/>
     <use xlink:href="#m77e16e866c" x="190.663538" y="200.080164" style="fill: #4169e1; stroke: #4169e1"/>
     <use xlink:href="#m77e16e866c" x="277.962257" y="352.463636" style="fill: #4169e1; stroke: #4169e1"/>
    </g>
   </g>
   <g id="PathCollection_2">
    <defs>
     <path id="md05a81906d" d="M 0 2.5 
C 0.663008 2.5 1.29895 2.236584 1.767767 1.767767 
C 2.236584 1.29895 2.5 0.663008 2.5 0 
C 2.5 -0.663008 2.236584 -1.29895 1.767767 -1.767767 
C 1.29895 -2.236584 0.663008 -2.5 0 -2.5 
C -0.663008 -2.5 -1.29895 -2.236584 -1.767767 -1.767767 
C -2.236584 -1.29895 -2.5 -0.663008 -2.5 0 
C -2.5 0.663008 -2.236584 1.29895 -1.767767 1.767767 
C -1.29895 2.236584 -0.663008 2.5 0 2.5 
z
" style="stroke: #b22222"/>
    </defs>
    <g clip-path="url(#pe1c9b1bcf5)">
     <use xlink:href="#md05a81906d" x="184.804142" y="170.323082" style="fill: #b22222; stroke: #b22222"/>
     <use xlink:href="#md05a81906d" x="340.609017" y="292.882115" style="fill: #b22222; stroke: #b22222"/>
     <use xlink:href="#md05a81906d" x="340.497501" y="171.919189" style="fill: #b22222; stroke: #b22222"/>
     <use xlink:href="#md05a81906d" x="246.288036" y="317.129028" style="fill: #b22222; stroke: #b22222"/>
     <use xlink:href="#md05a81906d" x="188.607778" y="224.129579" style="fill: #b22222; stroke: #b22222"/>
     <use xlink:href="#md05a81906d" x="283.7792" y="152.4176" style="fill: #b22222; stroke: #b22222"/>
     <use xlink:href="#md05a81906d" x="368.268948" y="220.089091" style="fill: #b22222; stroke: #b22222"/>
     <use xlink:href="#md05a81906d" x="278.58974" y="330.124443" style="fill: #b22222; stroke: #b22222"/>
     <use xlink:href="#md05a81906d" x="234.05754" y="350.063684" style="fill: #b22222; stroke: #b22222"/>
     <use xlink:href="#md05a81906d" x="369.514507" y="348.334493" style="fill: #b22222; stroke: #b22222"/>
     <use xlink:href="#md05a81906d" x="266.405954" y="284.344714" style="fill: #b22222; stroke: #b22222"/>
     <use xlink:href="#md05a81906d" x="194.457456" y="268.222678" style="fill: #b22222; stroke: #b22222"/>
     <use xlink:href="#md05a81906d" x="303.645453" y="134.776351" style="fill: #b22222; stroke: #b22222"/>
     <use xlink:href="#md05a81906d" x="173.682365" y="287.112362" style="fill: #b22222; stroke: #b22222"/>
     <use xlink:href="#md05a81906d" x="256.221412" y="278.021096" style="fill: #b22222; stroke: #b22222"/>
     <use xlink:href="#md05a81906d" x="236.160991" y="325.356847" style="fill: #b22222; stroke: #b22222"/>
     <use xlink:href="#md05a81906d" x="293.517853" y="270.709418" style="fill: #b22222; stroke: #b22222"/>
     <use xlink:href="#md05a81906d" x="179.423091" y="325.012756" style="fill: #b22222; stroke: #b22222"/>
     <use xlink:href="#md05a81906d" x="337.117786" y="171.681769" style="fill: #b22222; stroke: #b22222"/>
     <use xlink:href="#md05a81906d" x="283.940458" y="301.187998" style="fill: #b22222; stroke: #b22222"/>
     <use xlink:href="#md05a81906d" x="237.445823" y="317.646856" style="fill: #b22222; stroke: #b22222"/>
     <use xlink:href="#md05a81906d" x="278.082855" y="181.05209" style="fill: #b22222; stroke: #b22222"/>
     <use xlink:href="#md05a81906d" x="200.45596" y="300.896809" style="fill: #b22222; stroke: #b22222"/>
     <use xlink:href="#md05a81906d" x="350.224812" y="206.953831" style="fill: #b22222; stroke: #b22222"/>
     <use xlink:href="#md05a81906d" x="266.27084" y="275.719828" style="fill: #b22222; stroke: #b22222"/>
     <use xlink:href="#md05a81906d" x="292.761888" y="287.00088" style="fill: #b22222; stroke: #b22222"/>
     <use xlink:href="#md05a81906d" x="259.574693" y="350.313929" style="fill: #b22222; stroke: #b22222"/>
     <use xlink:href="#md05a81906d" x="341.056259" y="320.409639" style="fill: #b22222; stroke: #b22222"/>
     <use xlink:href="#md05a81906d" x="313.360528" y="160.202616" style="fill: #b22222; stroke: #b22222"/>
     <use xlink:href="#md05a81906d" x="230.580013" y="182.280067" style="fill: #b22222; stroke: #b22222"/>
     <use xlink:href="#md05a81906d" x="314.169808" y="268.185165" style="fill: #b22222; stroke: #b22222"/>
     <use xlink:href="#md05a81906d" x="249.609698" y="316.795461" style="fill: #b22222; stroke: #b22222"/>
     <use xlink:href="#md05a81906d" x="322.873171" y="164.120746" style="fill: #b22222; stroke: #b22222"/>
     <use xlink:href="#md05a81906d" x="196.540943" y="147.221765" style="fill: #b22222; stroke: #b22222"/>
     <use xlink:href="#md05a81906d" x="323.318775" y="317.637043" style="fill: #b22222; stroke: #b22222"/>
     <use xlink:href="#md05a81906d" x="282.323115" y="269.741864" style="fill: #b22222; stroke: #b22222"/>
     <use xlink:href="#md05a81906d" x="322.277651" y="214.060749" style="fill: #b22222; stroke: #b22222"/>
     <use xlink:href="#md05a81906d" x="382.496198" y="305.303903" style="fill: #b22222; stroke: #b22222"/>
     <use xlink:href="#md05a81906d" x="184.014" y="327.886939" style="fill: #b22222; stroke: #b22222"/>
     <use xlink:href="#md05a81906d" x="311.362103" y="340.013566" style="fill: #b22222; stroke: #b22222"/>
     <use xlink:href="#md05a81906d" x="322.047581" y="265.840491" style="fill: #b22222; stroke: #b22222"/>
     <use xlink:href="#md05a81906d" x="294.498462" y="273.767409" style="fill: #b22222; stroke: #b22222"/>
     <use xlink:href="#md05a81906d" x="339.246352" y="140.479795" style="fill: #b22222; stroke: #b22222"/>
     <use xlink:href="#md05a81906d" x="297.469063" y="286.772393" style="fill: #b22222; stroke: #b22222"/>
     <use xlink:href="#md05a81906d" x="213.389038" y="249.858273" style="fill: #b22222; stroke: #b22222"/>
     <use xlink:href="#md05a81906d" x="359.411826" y="299.597143" style="fill: #b22222; stroke: #b22222"/>
     <use xlink:href="#md05a81906d" x="184.215992" y="261.959048" style="fill: #b22222; stroke: #b22222"/>
     <use xlink:href="#md05a81906d" x="247.941517" y="352.847696" style="fill: #b22222; stroke: #b22222"/>
     <use xlink:href="#md05a81906d" x="194.341744" y="229.413027" style="fill: #b22222; stroke: #b22222"/>
     <use xlink:href="#md05a81906d" x="182.038815" y="167.635447" style="fill: #b22222; stroke: #b22222"/>
     <use xlink:href="#md05a81906d" x="365.211248" y="166.515129" style="fill: #b22222; stroke: #b22222"/>
     <use xlink:href="#md05a81906d" x="333.805855" y="233.32175" style="fill: #b22222; stroke: #b22222"/>
     <use xlink:href="#md05a81906d" x="203.984649" y="307.577837" style="fill: #b22222; stroke: #b22222"/>
     <use xlink:href="#md05a81906d" x="190.119222" y="252.70385" style="fill: #b22222; stroke: #b22222"/>
     <use xlink:href="#md05a81906d" x="171.7439" y="275.614931" style="fill: #b22222; stroke: #b22222"/>
     <use xlink:href="#md05a81906d" x="338.408499" y="235.408275" style="fill: #b22222; stroke: #b22222"/>
     <use xlink:href="#md05a81906d" x="258.17013" y="267.316614" style="fill: #b22222; stroke: #b22222"/>
     <use xlink:href="#md05a81906d" x="314.448308" y="338.150845" style="fill: #b22222; stroke: #b22222"/>
     <use xlink:href="#md05a81906d" x="204.774629" y="202.071713" style="fill: #b22222; stroke: #b22222"/>
     <use xlink:href="#md05a81906d" x="196.154054" y="234.836713" style="fill: #b22222; stroke: #b22222"/>
     <use xlink:href="#md05a81906d" x="346.562185" y="205.034356" style="fill: #b22222; stroke: #b22222"/>
     <use xlink:href="#md05a81906d" x="172.49682" y="146.420782" style="fill: #b22222; stroke: #b22222"/>
     <use xlink:href="#md05a81906d" x="302.475298" y="320.792778" style="fill: #b22222; stroke: #b22222"/>
     <use xlink:href="#md05a81906d" x="384.913861" y="161.444304" style="fill: #b22222; stroke: #b22222"/>
     <use xlink:href="#md05a81906d" x="205.838668" y="346.08985" style="fill: #b22222; stroke: #b22222"/>
     <use xlink:href="#md05a81906d" x="300.00252" y="263.511889" style="fill: #b22222; stroke: #b22222"/>
     <use xlink:href="#md05a81906d" x="198.893157" y="168.131497" style="fill: #b22222; stroke: #b22222"/>
     <use xlink:href="#md05a81906d" x="215.727873" y="169.16492" style="fill: #b22222; stroke: #b22222"/>
     <use xlink:href="#md05a81906d" x="277.75008" y="237.404955" style="fill: #b22222; stroke: #b22222"/>
     <use xlink:href="#md05a81906d" x="254.374046" y="181.40422" style="fill: #b22222; stroke: #b22222"/>
     <use xlink:href="#md05a81906d" x="198.200481" y="263.748091" style="fill: #b22222; stroke: #b22222"/>
     <use xlink:href="#md05a81906d" x="250.561599" y="150.151734" style="fill: #b22222; stroke: #b22222"/>
     <use xlink:href="#md05a81906d" x="347.495975" y="142.887023" style="fill: #b22222; stroke: #b22222"/>
     <use xlink:href="#md05a81906d" x="249.21343" y="336.044355" style="fill: #b22222; stroke: #b22222"/>
     <use xlink:href="#md05a81906d" x="346.697672" y="213.488252" style="fill: #b22222; stroke: #b22222"/>
     <use xlink:href="#md05a81906d" x="176.309376" y="170.952616" style="fill: #b22222; stroke: #b22222"/>
     <use xlink:href="#md05a81906d" x="337.222047" y="148.278752" style="fill: #b22222; stroke: #b22222"/>
     <use xlink:href="#md05a81906d" x="312.611695" y="186.306694" style="fill: #b22222; stroke: #b22222"/>
     <use xlink:href="#md05a81906d" x="247.059066" y="333.896393" style="fill: #b22222; stroke: #b22222"/>
     <use xlink:href="#md05a81906d" x="229.450883" y="180.131564" style="fill: #b22222; stroke: #b22222"/>
    </g>
   </g>
   <g id="matplotlib.axis_1">
    <g id="xtick_1">
     <g id="line2d_1">
      <defs>
       <path id="mfbe89ff487" d="M 0 0 
L 0 3.5 
" style="stroke: #000000; stroke-width: 0.8"/>
      </defs>
      <g>
       <use xlink:href="#mfbe89ff487" x="99.697313" y="465.838125" style="stroke: #000000; stroke-width: 0.8"/>
      </g>
     </g>
     <g id="text_1">
      <!-- −400 -->
      <g transform="translate(85.963719 480.436562) scale(0.1 -0.1)">
       <defs>
        <path id="DejaVuSans-2212" d="M 678 2272 
L 4684 2272 
L 4684 1741 
L 678 1741 
L 678 2272 
z
" transform="scale(0.015625)"/>
        <path id="DejaVuSans-34" d="M 2419 4116 
L 825 1625 
L 2419 1625 
L 2419 4116 
z
M 2253 4666 
L 3047 4666 
L 3047 1625 
L 3713 1625 
L 3713 1100 
L 3047 1100 
L 3047 0 
L 2419 0 
L 2419 1100 
L 313 1100 
L 313 1709 
L 2253 4666 
z
" transform="scale(0.015625)"/>
        <path id="DejaVuSans-30" d="M 2034 4250 
Q 1547 4250 1301 3770 
Q 1056 3291 1056 2328 
Q 1056 1369 1301 889 
Q 1547 409 2034 409 
Q 2525 409 2770 889 
Q 3016 1369 3016 2328 
Q 3016 3291 2770 3770 
Q 2525 4250 2034 4250 
z
M 2034 4750 
Q 2819 4750 3233 4129 
Q 3647 3509 3647 2328 
Q 3647 1150 3233 529 
Q 2819 -91 2034 -91 
Q 1250 -91 836 529 
Q 422 1150 422 2328 
Q 422 3509 836 4129 
Q 1250 4750 2034 4750 
z
" transform="scale(0.015625)"/>
       </defs>
       <use xlink:href="#DejaVuSans-2212"/>
       <use xlink:href="#DejaVuSans-34" x="83.789062"/>
       <use xlink:href="#DejaVuSans-30" x="147.412109"/>
       <use xlink:href="#DejaVuSans-30" x="211.035156"/>
      </g>
     </g>
    </g>
    <g id="xtick_2">
     <g id="line2d_2">
      <g>
       <use xlink:href="#mfbe89ff487" x="188.401313" y="465.838125" style="stroke: #000000; stroke-width: 0.8"/>
      </g>
     </g>
     <g id="text_2">
      <!-- −200 -->
      <g transform="translate(174.667719 480.436562) scale(0.1 -0.1)">
       <defs>
        <path id="DejaVuSans-32" d="M 1228 531 
L 3431 531 
L 3431 0 
L 469 0 
L 469 531 
Q 828 903 1448 1529 
Q 2069 2156 2228 2338 
Q 2531 2678 2651 2914 
Q 2772 3150 2772 3378 
Q 2772 3750 2511 3984 
Q 2250 4219 1831 4219 
Q 1534 4219 1204 4116 
Q 875 4013 500 3803 
L 500 4441 
Q 881 4594 1212 4672 
Q 1544 4750 1819 4750 
Q 2544 4750 2975 4387 
Q 3406 4025 3406 3419 
Q 3406 3131 3298 2873 
Q 3191 2616 2906 2266 
Q 2828 2175 2409 1742 
Q 1991 1309 1228 531 
z
" transform="scale(0.015625)"/>
       </defs>
       <use xlink:href="#DejaVuSans-2212"/>
       <use xlink:href="#DejaVuSans-32" x="83.789062"/>
       <use xlink:href="#DejaVuSans-30" x="147.412109"/>
       <use xlink:href="#DejaVuSans-30" x="211.035156"/>
      </g>
     </g>
    </g>
    <g id="xtick_3">
     <g id="line2d_3">
      <g>
       <use xlink:href="#mfbe89ff487" x="277.105313" y="465.838125" style="stroke: #000000; stroke-width: 0.8"/>
      </g>
     </g>
     <g id="text_3">
      <!-- 0 -->
      <g transform="translate(273.924063 480.436562) scale(0.1 -0.1)">
       <use xlink:href="#DejaVuSans-30"/>
      </g>
     </g>
    </g>
    <g id="xtick_4">
     <g id="line2d_4">
      <g>
       <use xlink:href="#mfbe89ff487" x="365.809313" y="465.838125" style="stroke: #000000; stroke-width: 0.8"/>
      </g>
     </g>
     <g id="text_4">
      <!-- 200 -->
      <g transform="translate(356.265563 480.436562) scale(0.1 -0.1)">
       <use xlink:href="#DejaVuSans-32"/>
       <use xlink:href="#DejaVuSans-30" x="63.623047"/>
       <use xlink:href="#DejaVuSans-30" x="127.246094"/>
      </g>
     </g>
    </g>
    <g id="xtick_5">
     <g id="line2d_5">
      <g>
       <use xlink:href="#mfbe89ff487" x="454.513313" y="465.838125" style="stroke: #000000; stroke-width: 0.8"/>
      </g>
     </g>
     <g id="text_5">
      <!-- 400 -->
      <g transform="translate(444.969563 480.436562) scale(0.1 -0.1)">
       <use xlink:href="#DejaVuSans-34"/>
       <use xlink:href="#DejaVuSans-30" x="63.623047"/>
       <use xlink:href="#DejaVuSans-30" x="127.246094"/>
      </g>
     </g>
    </g>
    <g id="text_6">
     <!-- x -->
     <g transform="translate(274.145938 494.114687) scale(0.1 -0.1)">
      <defs>
       <path id="DejaVuSans-78" d="M 3513 3500 
L 2247 1797 
L 3578 0 
L 2900 0 
L 1881 1375 
L 863 0 
L 184 0 
L 1544 1831 
L 300 3500 
L 978 3500 
L 1906 2253 
L 2834 3500 
L 3513 3500 
z
" transform="scale(0.015625)"/>
      </defs>
      <use xlink:href="#DejaVuSans-78"/>
     </g>
    </g>
   </g>
   <g id="matplotlib.axis_2">
    <g id="ytick_1">
     <g id="line2d_6">
      <defs>
       <path id="m9b46a78e43" d="M 0 0 
L -3.5 0 
" style="stroke: #000000; stroke-width: 0.8"/>
      </defs>
      <g>
       <use xlink:href="#m9b46a78e43" x="55.345313" y="421.486125" style="stroke: #000000; stroke-width: 0.8"/>
      </g>
     </g>
     <g id="text_7">
      <!-- −400 -->
      <g transform="translate(20.878125 425.285344) scale(0.1 -0.1)">
       <use xlink:href="#DejaVuSans-2212"/>
       <use xlink:href="#DejaVuSans-34" x="83.789062"/>
       <use xlink:href="#DejaVuSans-30" x="147.412109"/>
       <use xlink:href="#DejaVuSans-30" x="211.035156"/>
      </g>
     </g>
    </g>
    <g id="ytick_2">
     <g id="line2d_7">
      <g>
       <use xlink:href="#m9b46a78e43" x="55.345313" y="332.782125" style="stroke: #000000; stroke-width: 0.8"/>
      </g>
     </g>
     <g id="text_8">
      <!-- −200 -->
      <g transform="translate(20.878125 336.581344) scale(0.1 -0.1)">
       <use xlink:href="#DejaVuSans-2212"/>
       <use xlink:href="#DejaVuSans-32" x="83.789062"/>
       <use xlink:href="#DejaVuSans-30" x="147.412109"/>
       <use xlink:href="#DejaVuSans-30" x="211.035156"/>
      </g>
     </g>
    </g>
    <g id="ytick_3">
     <g id="line2d_8">
      <g>
       <use xlink:href="#m9b46a78e43" x="55.345313" y="244.078125" style="stroke: #000000; stroke-width: 0.8"/>
      </g>
     </g>
     <g id="text_9">
      <!-- 0 -->
      <g transform="translate(41.982813 247.877344) scale(0.1 -0.1)">
       <use xlink:href="#DejaVuSans-30"/>
      </g>
     </g>
    </g>
    <g id="ytick_4">
     <g id="line2d_9">
      <g>
       <use xlink:href="#m9b46a78e43" x="55.345313" y="155.374125" style="stroke: #000000; stroke-width: 0.8"/>
      </g>
     </g>
     <g id="text_10">
      <!-- 200 -->
      <g transform="translate(29.257813 159.173344) scale(0.1 -0.1)">
       <use xlink:href="#DejaVuSans-32"/>
       <use xlink:href="#DejaVuSans-30" x="63.623047"/>
       <use xlink:href="#DejaVuSans-30" x="127.246094"/>
      </g>
     </g>
    </g>
    <g id="ytick_5">
     <g id="line2d_10">
      <g>
       <use xlink:href="#m9b46a78e43" x="55.345313" y="66.670125" style="stroke: #000000; stroke-width: 0.8"/>
      </g>
     </g>
     <g id="text_11">
      <!-- 400 -->
      <g transform="translate(29.257813 70.469344) scale(0.1 -0.1)">
       <use xlink:href="#DejaVuSans-34"/>
       <use xlink:href="#DejaVuSans-30" x="63.623047"/>
       <use xlink:href="#DejaVuSans-30" x="127.246094"/>
      </g>
     </g>
    </g>
    <g id="text_12">
     <!-- y -->
     <g transform="translate(14.798438 247.0375) rotate(-90) scale(0.1 -0.1)">
      <defs>
       <path id="DejaVuSans-79" d="M 2059 -325 
Q 1816 -950 1584 -1140 
Q 1353 -1331 966 -1331 
L 506 -1331 
L 506 -850 
L 844 -850 
Q 1081 -850 1212 -737 
Q 1344 -625 1503 -206 
L 1606 56 
L 191 3500 
L 800 3500 
L 1894 763 
L 2988 3500 
L 3597 3500 
L 2059 -325 
z
" transform="scale(0.015625)"/>
      </defs>
      <use xlink:href="#DejaVuSans-79"/>
     </g>
    </g>
   </g>
   <g id="patch_4">
    <path d="M 55.345313 465.838125 
L 55.345313 22.318125 
" style="fill: none; stroke: #000000; stroke-width: 0.8; stroke-linejoin: miter; stroke-linecap: square"/>
   </g>
   <g id="patch_5">
    <path d="M 498.865313 465.838125 
L 498.865313 22.318125 
" style="fill: none; stroke: #000000; stroke-width: 0.8; stroke-linejoin: miter; stroke-linecap: square"/>
   </g>
   <g id="patch_6">
    <path d="M 55.345313 465.838125 
L 498.865313 465.838125 
" style="fill: none; stroke: #000000; stroke-width: 0.8; stroke-linejoin: miter; stroke-linecap: square"/>
   </g>
   <g id="patch_7">
    <path d="M 55.345313 22.318125 
L 498.865313 22.318125 
" style="fill: none; stroke: #000000; stroke-width: 0.8; stroke-linejoin: miter; stroke-linecap: square"/>
   </g>
   <g id="text_13">
    <!-- t = 0 -->
    <g transform="translate(64.215713 38.786962) scale(0.1 -0.1)">
     <defs>
      <path id="DejaVuSans-74" d="M 1172 4494 
L 1172 3500 
L 2356 3500 
L 2356 3053 
L 1172 3053 
L 1172 1153 
Q 1172 725 1289 603 
Q 1406 481 1766 481 
L 2356 481 
L 2356 0 
L 1766 0 
Q 1100 0 847 248 
Q 594 497 594 1153 
L 594 3053 
L 172 3053 
L 172 3500 
L 594 3500 
L 594 4494 
L 1172 4494 
z
" transform="scale(0.015625)"/>
      <path id="DejaVuSans-20" transform="scale(0.015625)"/>
      <path id="DejaVuSans-3d" d="M 678 2906 
L 4684 2906 
L 4684 2381 
L 678 2381 
L 678 2906 
z
M 678 1631 
L 4684 1631 
L 4684 1100 
L 678 1100 
L 678 1631 
z
" transform="scale(0.015625)"/>
     </defs>
     <use xlink:href="#DejaVuSans-74"/>
     <use xlink:href="#DejaVuSans-20" x="39.208984"/>
     <use xlink:href="#DejaVuSans-3d" x="70.996094"/>
     <use xlink:href="#DejaVuSans-20" x="154.785156"/>
     <use xlink:href="#DejaVuSans-30" x="186.572266"/>
    </g>
   </g>
   <g id="text_14">
    <!-- Evaluation trajectory 5 -->
    <g transform="translate(208.620938 16.318125) scale(0.12 -0.12)">
     <defs>
      <path id="DejaVuSans-45" d="M 628 4666 
L 3578 4666 
L 3578 4134 
L 1259 4134 
L 1259 2753 
L 3481 2753 
L 3481 2222 
L 1259 2222 
L 1259 531 
L 3634 531 
L 3634 0 
L 628 0 
L 628 4666 
z
" transform="scale(0.015625)"/>
      <path id="DejaVuSans-76" d="M 191 3500 
L 800 3500 
L 1894 563 
L 2988 3500 
L 3597 3500 
L 2284 0 
L 1503 0 
L 191 3500 
z
" transform="scale(0.015625)"/>
      <path id="DejaVuSans-61" d="M 2194 1759 
Q 1497 1759 1228 1600 
Q 959 1441 959 1056 
Q 959 750 1161 570 
Q 1363 391 1709 391 
Q 2188 391 2477 730 
Q 2766 1069 2766 1631 
L 2766 1759 
L 2194 1759 
z
M 3341 1997 
L 3341 0 
L 2766 0 
L 2766 531 
Q 2569 213 2275 61 
Q 1981 -91 1556 -91 
Q 1019 -91 701 211 
Q 384 513 384 1019 
Q 384 1609 779 1909 
Q 1175 2209 1959 2209 
L 2766 2209 
L 2766 2266 
Q 2766 2663 2505 2880 
Q 2244 3097 1772 3097 
Q 1472 3097 1187 3025 
Q 903 2953 641 2809 
L 641 3341 
Q 956 3463 1253 3523 
Q 1550 3584 1831 3584 
Q 2591 3584 2966 3190 
Q 3341 2797 3341 1997 
z
" transform="scale(0.015625)"/>
      <path id="DejaVuSans-6c" d="M 603 4863 
L 1178 4863 
L 1178 0 
L 603 0 
L 603 4863 
z
" transform="scale(0.015625)"/>
      <path id="DejaVuSans-75" d="M 544 1381 
L 544 3500 
L 1119 3500 
L 1119 1403 
Q 1119 906 1312 657 
Q 1506 409 1894 409 
Q 2359 409 2629 706 
Q 2900 1003 2900 1516 
L 2900 3500 
L 3475 3500 
L 3475 0 
L 2900 0 
L 2900 538 
Q 2691 219 2414 64 
Q 2138 -91 1772 -91 
Q 1169 -91 856 284 
Q 544 659 544 1381 
z
M 1991 3584 
L 1991 3584 
z
" transform="scale(0.015625)"/>
      <path id="DejaVuSans-69" d="M 603 3500 
L 1178 3500 
L 1178 0 
L 603 0 
L 603 3500 
z
M 603 4863 
L 1178 4863 
L 1178 4134 
L 603 4134 
L 603 4863 
z
" transform="scale(0.015625)"/>
      <path id="DejaVuSans-6f" d="M 1959 3097 
Q 1497 3097 1228 2736 
Q 959 2375 959 1747 
Q 959 1119 1226 758 
Q 1494 397 1959 397 
Q 2419 397 2687 759 
Q 2956 1122 2956 1747 
Q 2956 2369 2687 2733 
Q 2419 3097 1959 3097 
z
M 1959 3584 
Q 2709 3584 3137 3096 
Q 3566 2609 3566 1747 
Q 3566 888 3137 398 
Q 2709 -91 1959 -91 
Q 1206 -91 779 398 
Q 353 888 353 1747 
Q 353 2609 779 3096 
Q 1206 3584 1959 3584 
z
" transform="scale(0.015625)"/>
      <path id="DejaVuSans-6e" d="M 3513 2113 
L 3513 0 
L 2938 0 
L 2938 2094 
Q 2938 2591 2744 2837 
Q 2550 3084 2163 3084 
Q 1697 3084 1428 2787 
Q 1159 2491 1159 1978 
L 1159 0 
L 581 0 
L 581 3500 
L 1159 3500 
L 1159 2956 
Q 1366 3272 1645 3428 
Q 1925 3584 2291 3584 
Q 2894 3584 3203 3211 
Q 3513 2838 3513 2113 
z
" transform="scale(0.015625)"/>
      <path id="DejaVuSans-72" d="M 2631 2963 
Q 2534 3019 2420 3045 
Q 2306 3072 2169 3072 
Q 1681 3072 1420 2755 
Q 1159 2438 1159 1844 
L 1159 0 
L 581 0 
L 581 3500 
L 1159 3500 
L 1159 2956 
Q 1341 3275 1631 3429 
Q 1922 3584 2338 3584 
Q 2397 3584 2469 3576 
Q 2541 3569 2628 3553 
L 2631 2963 
z
" transform="scale(0.015625)"/>
      <path id="DejaVuSans-6a" d="M 603 3500 
L 1178 3500 
L 1178 -63 
Q 1178 -731 923 -1031 
Q 669 -1331 103 -1331 
L -116 -1331 
L -116 -844 
L 38 -844 
Q 366 -844 484 -692 
Q 603 -541 603 -63 
L 603 3500 
z
M 603 4863 
L 1178 4863 
L 1178 4134 
L 603 4134 
L 603 4863 
z
" transform="scale(0.015625)"/>
      <path id="DejaVuSans-65" d="M 3597 1894 
L 3597 1613 
L 953 1613 
Q 991 1019 1311 708 
Q 1631 397 2203 397 
Q 2534 397 2845 478 
Q 3156 559 3463 722 
L 3463 178 
Q 3153 47 2828 -22 
Q 2503 -91 2169 -91 
Q 1331 -91 842 396 
Q 353 884 353 1716 
Q 353 2575 817 3079 
Q 1281 3584 2069 3584 
Q 2775 3584 3186 3129 
Q 3597 2675 3597 1894 
z
M 3022 2063 
Q 3016 2534 2758 2815 
Q 2500 3097 2075 3097 
Q 1594 3097 1305 2825 
Q 1016 2553 972 2059 
L 3022 2063 
z
" transform="scale(0.015625)"/>
      <path id="DejaVuSans-63" d="M 3122 3366 
L 3122 2828 
Q 2878 2963 2633 3030 
Q 2388 3097 2138 3097 
Q 1578 3097 1268 2742 
Q 959 2388 959 1747 
Q 959 1106 1268 751 
Q 1578 397 2138 397 
Q 2388 397 2633 464 
Q 2878 531 3122 666 
L 3122 134 
Q 2881 22 2623 -34 
Q 2366 -91 2075 -91 
Q 1284 -91 818 406 
Q 353 903 353 1747 
Q 353 2603 823 3093 
Q 1294 3584 2113 3584 
Q 2378 3584 2631 3529 
Q 2884 3475 3122 3366 
z
" transform="scale(0.015625)"/>
      <path id="DejaVuSans-35" d="M 691 4666 
L 3169 4666 
L 3169 4134 
L 1269 4134 
L 1269 2991 
Q 1406 3038 1543 3061 
Q 1681 3084 1819 3084 
Q 2600 3084 3056 2656 
Q 3513 2228 3513 1497 
Q 3513 744 3044 326 
Q 2575 -91 1722 -91 
Q 1428 -91 1123 -41 
Q 819 9 494 109 
L 494 744 
Q 775 591 1075 516 
Q 1375 441 1709 441 
Q 2250 441 2565 725 
Q 2881 1009 2881 1497 
Q 2881 1984 2565 2268 
Q 2250 2553 1709 2553 
Q 1456 2553 1204 2497 
Q 953 2441 691 2322 
L 691 4666 
z
" transform="scale(0.015625)"/>
     </defs>
     <use xlink:href="#DejaVuSans-45"/>
     <use xlink:href="#DejaVuSans-76" x="63.183594"/>
     <use xlink:href="#DejaVuSans-61" x="122.363281"/>
     <use xlink:href="#DejaVuSans-6c" x="183.642578"/>
     <use xlink:href="#DejaVuSans-75" x="211.425781"/>
     <use xlink:href="#DejaVuSans-61" x="274.804688"/>
     <use xlink:href="#DejaVuSans-74" x="336.083984"/>
     <use xlink:href="#DejaVuSans-69" x="375.292969"/>
     <use xlink:href="#DejaVuSans-6f" x="403.076172"/>
     <use xlink:href="#DejaVuSans-6e" x="464.257812"/>
     <use xlink:href="#DejaVuSans-20" x="527.636719"/>
     <use xlink:href="#DejaVuSans-74" x="559.423828"/>
     <use xlink:href="#DejaVuSans-72" x="598.632812"/>
     <use xlink:href="#DejaVuSans-61" x="639.746094"/>
     <use xlink:href="#DejaVuSans-6a" x="701.025391"/>
     <use xlink:href="#DejaVuSans-65" x="728.808594"/>
     <use xlink:href="#DejaVuSans-63" x="790.332031"/>
     <use xlink:href="#DejaVuSans-74" x="845.3125"/>
     <use xlink:href="#DejaVuSans-6f" x="884.521484"/>
     <use xlink:href="#DejaVuSans-72" x="945.703125"/>
     <use xlink:href="#DejaVuSans-79" x="986.816406"/>
     <use xlink:href="#DejaVuSans-20" x="1045.996094"/>
     <use xlink:href="#DejaVuSans-35" x="1077.783203"/>
    </g>
   </g>
   <g id="legend_1">
    <g id="patch_8">
     <path d="M 424.387188 59.674375 
L 491.865313 59.674375 
Q 493.865313 59.674375 493.865313 57.674375 
L 493.865313 29.318125 
Q 493.865313 27.318125 491.865313 27.318125 
L 424.387188 27.318125 
Q 422.387188 27.318125 422.387188 29.318125 
L 422.387188 57.674375 
Q 422.387188 59.674375 424.387188 59.674375 
z
" style="fill: #ffffff; opacity: 0.8; stroke: #cccccc; stroke-linejoin: miter"/>
    </g>
    <g id="PathCollection_3">
     <g>
      <use xlink:href="#m77e16e866c" x="436.387188" y="36.291562" style="fill: #4169e1; stroke: #4169e1"/>
     </g>
    </g>
    <g id="text_15">
     <!-- Sheep -->
     <g transform="translate(454.387188 38.916562) scale(0.1 -0.1)">
      <defs>
       <path id="DejaVuSans-53" d="M 3425 4513 
L 3425 3897 
Q 3066 4069 2747 4153 
Q 2428 4238 2131 4238 
Q 1616 4238 1336 4038 
Q 1056 3838 1056 3469 
Q 1056 3159 1242 3001 
Q 1428 2844 1947 2747 
L 2328 2669 
Q 3034 2534 3370 2195 
Q 3706 1856 3706 1288 
Q 3706 609 3251 259 
Q 2797 -91 1919 -91 
Q 1588 -91 1214 -16 
Q 841 59 441 206 
L 441 856 
Q 825 641 1194 531 
Q 1563 422 1919 422 
Q 2459 422 2753 634 
Q 3047 847 3047 1241 
Q 3047 1584 2836 1778 
Q 2625 1972 2144 2069 
L 1759 2144 
Q 1053 2284 737 2584 
Q 422 2884 422 3419 
Q 422 4038 858 4394 
Q 1294 4750 2059 4750 
Q 2388 4750 2728 4690 
Q 3069 4631 3425 4513 
z
" transform="scale(0.015625)"/>
       <path id="DejaVuSans-68" d="M 3513 2113 
L 3513 0 
L 2938 0 
L 2938 2094 
Q 2938 2591 2744 2837 
Q 2550 3084 2163 3084 
Q 1697 3084 1428 2787 
Q 1159 2491 1159 1978 
L 1159 0 
L 581 0 
L 581 4863 
L 1159 4863 
L 1159 2956 
Q 1366 3272 1645 3428 
Q 1925 3584 2291 3584 
Q 2894 3584 3203 3211 
Q 3513 2838 3513 2113 
z
" transform="scale(0.015625)"/>
       <path id="DejaVuSans-70" d="M 1159 525 
L 1159 -1331 
L 581 -1331 
L 581 3500 
L 1159 3500 
L 1159 2969 
Q 1341 3281 1617 3432 
Q 1894 3584 2278 3584 
Q 2916 3584 3314 3078 
Q 3713 2572 3713 1747 
Q 3713 922 3314 415 
Q 2916 -91 2278 -91 
Q 1894 -91 1617 61 
Q 1341 213 1159 525 
z
M 3116 1747 
Q 3116 2381 2855 2742 
Q 2594 3103 2138 3103 
Q 1681 3103 1420 2742 
Q 1159 2381 1159 1747 
Q 1159 1113 1420 752 
Q 1681 391 2138 391 
Q 2594 391 2855 752 
Q 3116 1113 3116 1747 
z
" transform="scale(0.015625)"/>
      </defs>
      <use xlink:href="#DejaVuSans-53"/>
      <use xlink:href="#DejaVuSans-68" x="63.476562"/>
      <use xlink:href="#DejaVuSans-65" x="126.855469"/>
      <use xlink:href="#DejaVuSans-65" x="188.378906"/>
      <use xlink:href="#DejaVuSans-70" x="249.902344"/>
     </g>
    </g>
    <g id="PathCollection_4">
     <g>
      <use xlink:href="#md05a81906d" x="436.387188" y="50.969687" style="fill: #b22222; stroke: #b22222"/>
     </g>
    </g>
    <g id="text_16">
     <!-- Wolves -->
     <g transform="translate(454.387188 53.594687) scale(0.1 -0.1)">
      <defs>
       <path id="DejaVuSans-57" d="M 213 4666 
L 850 4666 
L 1831 722 
L 2809 4666 
L 3519 4666 
L 4500 722 
L 5478 4666 
L 6119 4666 
L 4947 0 
L 4153 0 
L 3169 4050 
L 2175 0 
L 1381 0 
L 213 4666 
z
" transform="scale(0.015625)"/>
       <path id="DejaVuSans-73" d="M 2834 3397 
L 2834 2853 
Q 2591 2978 2328 3040 
Q 2066 3103 1784 3103 
Q 1356 3103 1142 2972 
Q 928 2841 928 2578 
Q 928 2378 1081 2264 
Q 1234 2150 1697 2047 
L 1894 2003 
Q 2506 1872 2764 1633 
Q 3022 1394 3022 966 
Q 3022 478 2636 193 
Q 2250 -91 1575 -91 
Q 1294 -91 989 -36 
Q 684 19 347 128 
L 347 722 
Q 666 556 975 473 
Q 1284 391 1588 391 
Q 1994 391 2212 530 
Q 2431 669 2431 922 
Q 2431 1156 2273 1281 
Q 2116 1406 1581 1522 
L 1381 1569 
Q 847 1681 609 1914 
Q 372 2147 372 2553 
Q 372 3047 722 3315 
Q 1072 3584 1716 3584 
Q 2034 3584 2315 3537 
Q 2597 3491 2834 3397 
z
" transform="scale(0.015625)"/>
      </defs>
      <use xlink:href="#DejaVuSans-57"/>
      <use xlink:href="#DejaVuSans-6f" x="93.001953"/>
      <use xlink:href="#DejaVuSans-6c" x="154.183594"/>
      <use xlink:href="#DejaVuSans-76" x="181.966797"/>
      <use xlink:href="#DejaVuSans-65" x="241.146484"/>
      <use xlink:href="#DejaVuSans-73" x="302.669922"/>
     </g>
    </g>
   </g>
  </g>
 </g>
 <defs>
  <clipPath id="pe1c9b1bcf5">
   <rect x="55.345313" y="22.318125" width="443.52" height="443.52"/>
  </clipPath>
 </defs>
</svg>
