<?xml version="1.0" encoding="utf-8" standalone="no"?>
<!DOCTYPE svg PUBLIC "-//W3C//DTD SVG 1.1//EN"
  "http://www.w3.org/Graphics/SVG/1.1/DTD/svg11.dtd">
<svg xmlns:xlink="http://www.w3.org/1999/xlink" width="506.065313pt" height="503.394375pt" viewBox="0 0 506.065313 503.394375" xmlns="http://www.w3.org/2000/svg" version="1.1">
 <metadata>
  <rdf:RDF xmlns:dc="http://purl.org/dc/elements/1.1/" xmlns:cc="http://creativecommons.org/ns#" xmlns:rdf="http://www.w3.org/1999/02/22-rdf-syntax-ns#">
   <cc:Work>
    <dc:type rdf:resource="http://purl.org/dc/dcmitype/StillImage"/>
    <dc:date>2026-05-08T10:00:05.004801</dc:date>
    <dc:format>image/svg+xml</dc:format>
    <dc:creator>
     <cc:Agent>
      <dc:title>Matplotlib v3.7.1, https://matplotlib.org/</dc:title>
     </cc:Agent>
    </dc:creator>
   </cc:Work>
  </rdf:RDF>
 </metadata>
 <defs>
  <style type="text/css">*{stroke-linejoin: round; stroke-linecap: butt}</style>
 </defs>
 <g id="figure_1">
  <g id="patch_1">
   <path d="M 0 503.394375 
L 506.065313 503.394375 
L 506.065313 0 
L 0 0 
z
" style="fill: #ffffff"/>
  </g>
  <g id="axes_1">
   <g id="patch_2">
    <path d="M 55.345313 465.838125 
L 498.865313 465.838125 
L 498.865313 22.318125 
L 55.345313 22.318125 
z
" style="fill: #ffffff"/>
   </g>
   <g id="patch_3">
    <path d="M 277.105313 332.782125 
C 300.629888 332.782125 323.194125 323.435712 339.828512 306.801325 
C 356.462899 290.166938 365.809313 267.602701 365.809313 244.078125 
C 365.809313 220.553549 356.462899 197.989312 339.828512 181.354925 
C 323.194125 164.720538 300.629888 155.374125 277.105313 155.374125 
C 253.580737 155.374125 231.0165 164.720538 214.382113 181.354925 
C 197.747726 197.989312 188.401313 220.553549 188.401313 244.078125 
C 188.401313 267.602701 197.747726 290.166938 214.382113 306.801325 
C 231.0165 323.435712 253.580737 332.782125 277.105313 332.782125 
z
" clip-path="url(#pea6b0867f8)" style="fill: #228b22; opacity: 0.12; stroke: #228b22; stroke-width: 1.5; stroke-linejoin: miter"/>
   </g>
   <g id="PathCollection_1">
    <defs>
     <path id="m5a7299c289" d="M 0 2.236068 
C 0.593012 2.236068 1.161816 2.000462 1.581139 1.581139 
C 2.000462 1.161816 2.236068 0.593012 2.236068 0 
C 2.236068 -0.593012 2.000462 -1.161816 1.581139 -1.581139 
C 1.161816 -2.000462 0.593012 -2.236068 0 -2.236068 
C -0.593012 -2.236068 -1.161816 -2.000462 -1.581139 -1.581139 
C -2.000462 -1.161816 -2.236068 -0.593012 -2.236068 0 
C -2.236068 0.593012 -2.000462 1.161816 -1.581139 1.581139 
C -1.161816 2.000462 -0.593012 2.236068 0 2.236068 
z
" style="stroke: #4169e1"/>
    </defs>
    <g clip-path="url(#pea6b0867f8)">
     <use xlink:href="#m5a7299c289" x="413.624242" y="262.900436" style="fill: #4169e1; stroke: #4169e1"/>
     <use xlink:href="#m5a7299c289" x="358.599439" y="247.219535" style="fill: #4169e1; stroke: #4169e1"/>
     <use xlink:href="#m5a7299c289" x="361.410874" y="217.878785" style="fill: #4169e1; stroke: #4169e1"/>
     <use xlink:href="#m5a7299c289" x="289.303211" y="250.846647" style="fill: #4169e1; stroke: #4169e1"/>
     <use xlink:href="#m5a7299c289" x="328.272382" y="233.012464" style="fill: #4169e1; stroke: #4169e1"/>
     <use xlink:href="#m5a7299c289" x="303.236092" y="187.048577" style="fill: #4169e1; stroke: #4169e1"/>
     <use xlink:href="#m5a7299c289" x="237.439329" y="298.014498" style="fill: #4169e1; stroke: #4169e1"/>
     <use xlink:href="#m5a7299c289" x="364.286262" y="124.205381" style="fill: #4169e1; stroke: #4169e1"/>
     <use xlink:href="#m5a7299c289" x="307.608956" y="150.746672" style="fill: #4169e1; stroke: #4169e1"/>
     <use xlink:href="#m5a7299c289" x="186.576611" y="288.556936" style="fill: #4169e1; stroke: #4169e1"/>
     <use xlink:href="#m5a7299c289" x="333.939535" y="343.757377" style="fill: #4169e1; stroke: #4169e1"/>
     <use xlink:href="#m5a7299c289" x="198.924619" y="272.60791" style="fill: #4169e1; stroke: #4169e1"/>
     <use xlink:href="#m5a7299c289" x="310.62288" y="314.416576" style="fill: #4169e1; stroke: #4169e1"/>
     <use xlink:href="#m5a7299c289" x="240.436635" y="219.534794" style="fill: #4169e1; stroke: #4169e1"/>
     <use xlink:href="#m5a7299c289" x="337.366508" y="329.011055" style="fill: #4169e1; stroke: #4169e1"/>
     <use xlink:href="#m5a7299c289" x="362.597271" y="248.331389" style="fill: #4169e1; stroke: #4169e1"/>
     <use xlink:href="#m5a7299c289" x="255.346984" y="382.863895" style="fill: #4169e1; stroke: #4169e1"/>
     <use xlink:href="#m5a7299c289" x="394.623603" y="334.715162" style="fill: #4169e1; stroke: #4169e1"/>
     <use xlink:href="#m5a7299c289" x="389.040364" y="296.052844" style="fill: #4169e1; stroke: #4169e1"/>
     <use xlink:href="#m5a7299c289" x="226.373933" y="323.514982" style="fill: #4169e1; stroke: #4169e1"/>
     <use xlink:href="#m5a7299c289" x="176.622965" y="292.182547" style="fill: #4169e1; stroke: #4169e1"/>
     <use xlink:href="#m5a7299c289" x="446.914134" y="310.522721" style="fill: #4169e1; stroke: #4169e1"/>
     <use xlink:href="#m5a7299c289" x="351.027805" y="170.393181" style="fill: #4169e1; stroke: #4169e1"/>
     <use xlink:href="#m5a7299c289" x="389.610005" y="295.947612" style="fill: #4169e1; stroke: #4169e1"/>
     <use xlink:href="#m5a7299c289" x="234.922704" y="214.002869" style="fill: #4169e1; stroke: #4169e1"/>
     <use xlink:href="#m5a7299c289" x="313.446791" y="169.747886" style="fill: #4169e1; stroke: #4169e1"/>
     <use xlink:href="#m5a7299c289" x="203.384866" y="182.179994" style="fill: #4169e1; stroke: #4169e1"/>
     <use xlink:href="#m5a7299c289" x="351.313275" y="345.022386" style="fill: #4169e1; stroke: #4169e1"/>
     <use xlink:href="#m5a7299c289" x="413.83604" y="164.058572" style="fill: #4169e1; stroke: #4169e1"/>
     <use xlink:href="#m5a7299c289" x="295.172362" y="169.460676" style="fill: #4169e1; stroke: #4169e1"/>
     <use xlink:href="#m5a7299c289" x="357.588086" y="249.007607" style="fill: #4169e1; stroke: #4169e1"/>
     <use xlink:href="#m5a7299c289" x="290.251792" y="133.082575" style="fill: #4169e1; stroke: #4169e1"/>
     <use xlink:href="#m5a7299c289" x="443.921796" y="259.523044" style="fill: #4169e1; stroke: #4169e1"/>
     <use xlink:href="#m5a7299c289" x="322.941212" y="289.111958" style="fill: #4169e1; stroke: #4169e1"/>
     <use xlink:href="#m5a7299c289" x="281.884408" y="284.738387" style="fill: #4169e1; stroke: #4169e1"/>
     <use xlink:href="#m5a7299c289" x="249.681866" y="168.604104" style="fill: #4169e1; stroke: #4169e1"/>
     <use xlink:href="#m5a7299c289" x="286.534821" y="179.469755" style="fill: #4169e1; stroke: #4169e1"/>
     <use xlink:href="#m5a7299c289" x="394.708793" y="161.421599" style="fill: #4169e1; stroke: #4169e1"/>
     <use xlink:href="#m5a7299c289" x="278.094798" y="210.714087" style="fill: #4169e1; stroke: #4169e1"/>
     <use xlink:href="#m5a7299c289" x="213.421807" y="321.640323" style="fill: #4169e1; stroke: #4169e1"/>
     <use xlink:href="#m5a7299c289" x="260.558572" y="304.811488" style="fill: #4169e1; stroke: #4169e1"/>
     <use xlink:href="#m5a7299c289" x="264.538216" y="324.072096" style="fill: #4169e1; stroke: #4169e1"/>
     <use xlink:href="#m5a7299c289" x="280.956415" y="270.815231" style="fill: #4169e1; stroke: #4169e1"/>
     <use xlink:href="#m5a7299c289" x="213.194254" y="292.228753" style="fill: #4169e1; stroke: #4169e1"/>
     <use xlink:href="#m5a7299c289" x="275.385772" y="345.660393" style="fill: #4169e1; stroke: #4169e1"/>
     <use xlink:href="#m5a7299c289" x="385.142151" y="286.29737" style="fill: #4169e1; stroke: #4169e1"/>
     <use xlink:href="#m5a7299c289" x="389.839135" y="277.09746" style="fill: #4169e1; stroke: #4169e1"/>
     <use xlink:href="#m5a7299c289" x="302.767598" y="319.815499" style="fill: #4169e1; stroke: #4169e1"/>
     <use xlink:href="#m5a7299c289" x="181.66475" y="248.631502" style="fill: #4169e1; stroke: #4169e1"/>
     <use xlink:href="#m5a7299c289" x="347.779347" y="178.975675" style="fill: #4169e1; stroke: #4169e1"/>
     <use xlink:href="#m5a7299c289" x="281.713542" y="203.139441" style="fill: #4169e1; stroke: #4169e1"/>
     <use xlink:href="#m5a7299c289" x="350.265586" y="104.062537" style="fill: #4169e1; stroke: #4169e1"/>
     <use xlink:href="#m5a7299c289" x="337.151556" y="211.427762" style="fill: #4169e1; stroke: #4169e1"/>
     <use xlink:href="#m5a7299c289" x="367.756216" y="233.029205" style="fill: #4169e1; stroke: #4169e1"/>
     <use xlink:href="#m5a7299c289" x="346.122272" y="284.196636" style="fill: #4169e1; stroke: #4169e1"/>
     <use xlink:href="#m5a7299c289" x="294.917976" y="180.825619" style="fill: #4169e1; stroke: #4169e1"/>
     <use xlink:href="#m5a7299c289" x="356.942736" y="138.785451" style="fill: #4169e1; stroke: #4169e1"/>
     <use xlink:href="#m5a7299c289" x="230.28162" y="199.058598" style="fill: #4169e1; stroke: #4169e1"/>
     <use xlink:href="#m5a7299c289" x="342.065278" y="318.180344" style="fill: #4169e1; stroke: #4169e1"/>
     <use xlink:href="#m5a7299c289" x="292.796875" y="365.10757" style="fill: #4169e1; stroke: #4169e1"/>
     <use xlink:href="#m5a7299c289" x="259.383529" y="328.591918" style="fill: #4169e1; stroke: #4169e1"/>
     <use xlink:href="#m5a7299c289" x="342.25228" y="320.319806" style="fill: #4169e1; stroke: #4169e1"/>
     <use xlink:href="#m5a7299c289" x="203.417878" y="347.667285" style="fill: #4169e1; stroke: #4169e1"/>
     <use xlink:href="#m5a7299c289" x="232.535461" y="186.342062" style="fill: #4169e1; stroke: #4169e1"/>
     <use xlink:href="#m5a7299c289" x="349.965214" y="116.86111" style="fill: #4169e1; stroke: #4169e1"/>
     <use xlink:href="#m5a7299c289" x="217.546037" y="235.522709" style="fill: #4169e1; stroke: #4169e1"/>
     <use xlink:href="#m5a7299c289" x="338.659" y="161.471977" style="fill: #4169e1; stroke: #4169e1"/>
     <use xlink:href="#m5a7299c289" x="376.569011" y="193.469956" style="fill: #4169e1; stroke: #4169e1"/>
     <use xlink:href="#m5a7299c289" x="294.960904" y="149.434824" style="fill: #4169e1; stroke: #4169e1"/>
     <use xlink:href="#m5a7299c289" x="324.524497" y="274.225929" style="fill: #4169e1; stroke: #4169e1"/>
     <use xlink:href="#m5a7299c289" x="220.442181" y="322.464411" style="fill: #4169e1; stroke: #4169e1"/>
     <use xlink:href="#m5a7299c289" x="291.919593" y="277.223185" style="fill: #4169e1; stroke: #4169e1"/>
     <use xlink:href="#m5a7299c289" x="381.228908" y="268.535995" style="fill: #4169e1; stroke: #4169e1"/>
     <use xlink:href="#m5a7299c289" x="296.000194" y="186.471329" style="fill: #4169e1; stroke: #4169e1"/>
     <use xlink:href="#m5a7299c289" x="336.321418" y="122.02442" style="fill: #4169e1; stroke: #4169e1"/>
     <use xlink:href="#m5a7299c289" x="224.666713" y="308.425517" style="fill: #4169e1; stroke: #4169e1"/>
     <use xlink:href="#m5a7299c289" x="187.616822" y="239.0515" style="fill: #4169e1; stroke: #4169e1"/>
     <use xlink:href="#m5a7299c289" x="180.676359" y="263.848447" style="fill: #4169e1; stroke: #4169e1"/>
     <use xlink:href="#m5a7299c289" x="315.069084" y="212.551531" style="fill: #4169e1; stroke: #4169e1"/>
     <use xlink:href="#m5a7299c289" x="382.997986" y="233.397719" style="fill: #4169e1; stroke: #4169e1"/>
     <use xlink:href="#m5a7299c289" x="354.342572" y="320.486451" style="fill: #4169e1; stroke: #4169e1"/>
     <use xlink:href="#m5a7299c289" x="313.464407" y="129.474631" style="fill: #4169e1; stroke: #4169e1"/>
     <use xlink:href="#m5a7299c289" x="342.803905" y="184.373339" style="fill: #4169e1; stroke: #4169e1"/>
     <use xlink:href="#m5a7299c289" x="271.677491" y="171.001187" style="fill: #4169e1; stroke: #4169e1"/>
     <use xlink:href="#m5a7299c289" x="378.638813" y="260.682931" style="fill: #4169e1; stroke: #4169e1"/>
     <use xlink:href="#m5a7299c289" x="375.656403" y="160.532989" style="fill: #4169e1; stroke: #4169e1"/>
     <use xlink:href="#m5a7299c289" x="218.529921" y="278.366848" style="fill: #4169e1; stroke: #4169e1"/>
     <use xlink:href="#m5a7299c289" x="287.875664" y="320.141054" style="fill: #4169e1; stroke: #4169e1"/>
     <use xlink:href="#m5a7299c289" x="283.401241" y="340.046592" style="fill: #4169e1; stroke: #4169e1"/>
     <use xlink:href="#m5a7299c289" x="204.37637" y="269.879089" style="fill: #4169e1; stroke: #4169e1"/>
     <use xlink:href="#m5a7299c289" x="372.127842" y="153.362794" style="fill: #4169e1; stroke: #4169e1"/>
     <use xlink:href="#m5a7299c289" x="384.705176" y="191.250349" style="fill: #4169e1; stroke: #4169e1"/>
     <use xlink:href="#m5a7299c289" x="319.447538" y="276.95061" style="fill: #4169e1; stroke: #4169e1"/>
     <use xlink:href="#m5a7299c289" x="245.30224" y="321.314532" style="fill: #4169e1; stroke: #4169e1"/>
     <use xlink:href="#m5a7299c289" x="298.628113" y="367.402429" style="fill: #4169e1; stroke: #4169e1"/>
     <use xlink:href="#m5a7299c289" x="183.021061" y="179.150718" style="fill: #4169e1; stroke: #4169e1"/>
     <use xlink:href="#m5a7299c289" x="398.970892" y="271.21658" style="fill: #4169e1; stroke: #4169e1"/>
     <use xlink:href="#m5a7299c289" x="329.832471" y="244.701026" style="fill: #4169e1; stroke: #4169e1"/>
     <use xlink:href="#m5a7299c289" x="236.212387" y="164.040719" style="fill: #4169e1; stroke: #4169e1"/>
     <use xlink:href="#m5a7299c289" x="351.426402" y="189.422044" style="fill: #4169e1; stroke: #4169e1"/>
     <use xlink:href="#m5a7299c289" x="239.034948" y="292.029722" style="fill: #4169e1; stroke: #4169e1"/>
     <use xlink:href="#m5a7299c289" x="171.646271" y="175.53648" style="fill: #4169e1; stroke: #4169e1"/>
     <use xlink:href="#m5a7299c289" x="335.612034" y="295.822892" style="fill: #4169e1; stroke: #4169e1"/>
     <use xlink:href="#m5a7299c289" x="280.593936" y="320.542527" style="fill: #4169e1; stroke: #4169e1"/>
     <use xlink:href="#m5a7299c289" x="212.331712" y="187.037891" style="fill: #4169e1; stroke: #4169e1"/>
     <use xlink:href="#m5a7299c289" x="333.865907" y="223.203126" style="fill: #4169e1; stroke: #4169e1"/>
     <use xlink:href="#m5a7299c289" x="293.914799" y="296.010411" style="fill: #4169e1; stroke: #4169e1"/>
     <use xlink:href="#m5a7299c289" x="327.653995" y="189.05784" style="fill: #4169e1; stroke: #4169e1"/>
     <use xlink:href="#m5a7299c289" x="217.467445" y="270.349464" style="fill: #4169e1; stroke: #4169e1"/>
     <use xlink:href="#m5a7299c289" x="390.428165" y="209.54111" style="fill: #4169e1; stroke: #4169e1"/>
     <use xlink:href="#m5a7299c289" x="352.861372" y="151.404947" style="fill: #4169e1; stroke: #4169e1"/>
     <use xlink:href="#m5a7299c289" x="227.424555" y="188.512705" style="fill: #4169e1; stroke: #4169e1"/>
     <use xlink:href="#m5a7299c289" x="154.894654" y="233.022845" style="fill: #4169e1; stroke: #4169e1"/>
     <use xlink:href="#m5a7299c289" x="387.164744" y="256.573416" style="fill: #4169e1; stroke: #4169e1"/>
     <use xlink:href="#m5a7299c289" x="177.382748" y="282.21467" style="fill: #4169e1; stroke: #4169e1"/>
     <use xlink:href="#m5a7299c289" x="223.649996" y="286.689237" style="fill: #4169e1; stroke: #4169e1"/>
     <use xlink:href="#m5a7299c289" x="345.965325" y="155.84703" style="fill: #4169e1; stroke: #4169e1"/>
     <use xlink:href="#m5a7299c289" x="252.181527" y="156.304186" style="fill: #4169e1; stroke: #4169e1"/>
     <use xlink:href="#m5a7299c289" x="176.436674" y="283.486568" style="fill: #4169e1; stroke: #4169e1"/>
     <use xlink:href="#m5a7299c289" x="227.587309" y="225.895624" style="fill: #4169e1; stroke: #4169e1"/>
     <use xlink:href="#m5a7299c289" x="266.959199" y="194.347558" style="fill: #4169e1; stroke: #4169e1"/>
     <use xlink:href="#m5a7299c289" x="203.651813" y="298.687814" style="fill: #4169e1; stroke: #4169e1"/>
     <use xlink:href="#m5a7299c289" x="224.392525" y="226.923901" style="fill: #4169e1; stroke: #4169e1"/>
     <use xlink:href="#m5a7299c289" x="219.520593" y="216.102192" style="fill: #4169e1; stroke: #4169e1"/>
     <use xlink:href="#m5a7299c289" x="370.379851" y="242.13316" style="fill: #4169e1; stroke: #4169e1"/>
     <use xlink:href="#m5a7299c289" x="190.92051" y="264.76952" style="fill: #4169e1; stroke: #4169e1"/>
     <use xlink:href="#m5a7299c289" x="217.686125" y="156.717259" style="fill: #4169e1; stroke: #4169e1"/>
    </g>
   </g>
   <g id="PathCollection_2">
    <defs>
     <path id="mbf84956587" d="M 0 2.5 
C 0.663008 2.5 1.29895 2.236584 1.767767 1.767767 
C 2.236584 1.29895 2.5 0.663008 2.5 0 
C 2.5 -0.663008 2.236584 -1.29895 1.767767 -1.767767 
C 1.29895 -2.236584 0.663008 -2.5 0 -2.5 
C -0.663008 -2.5 -1.29895 -2.236584 -1.767767 -1.767767 
C -2.236584 -1.29895 -2.5 -0.663008 -2.5 0 
C -2.5 0.663008 -2.236584 1.29895 -1.767767 1.767767 
C -1.29895 2.236584 -0.663008 2.5 0 2.5 
z
" style="stroke: #b22222"/>
    </defs>
    <g clip-path="url(#pea6b0867f8)">
     <use xlink:href="#mbf84956587" x="268.274459" y="247.236476" style="fill: #b22222; stroke: #b22222"/>
     <use xlink:href="#mbf84956587" x="295.176254" y="243.821633" style="fill: #b22222; stroke: #b22222"/>
     <use xlink:href="#mbf84956587" x="272.232072" y="257.758904" style="fill: #b22222; stroke: #b22222"/>
     <use xlink:href="#mbf84956587" x="274.178907" y="234.865027" style="fill: #b22222; stroke: #b22222"/>
     <use xlink:href="#mbf84956587" x="271.854608" y="246.803891" style="fill: #b22222; stroke: #b22222"/>
     <use xlink:href="#mbf84956587" x="275.396747" y="252.116128" style="fill: #b22222; stroke: #b22222"/>
     <use xlink:href="#mbf84956587" x="276.372434" y="257.82929" style="fill: #b22222; stroke: #b22222"/>
     <use xlink:href="#mbf84956587" x="242.149049" y="239.082462" style="fill: #b22222; stroke: #b22222"/>
     <use xlink:href="#mbf84956587" x="285.634816" y="229.564348" style="fill: #b22222; stroke: #b22222"/>
     <use xlink:href="#mbf84956587" x="267.388319" y="239.113435" style="fill: #b22222; stroke: #b22222"/>
     <use xlink:href="#mbf84956587" x="293.440028" y="242.549492" style="fill: #b22222; stroke: #b22222"/>
     <use xlink:href="#mbf84956587" x="258.427266" y="250.966168" style="fill: #b22222; stroke: #b22222"/>
     <use xlink:href="#mbf84956587" x="255.617386" y="243.37213" style="fill: #b22222; stroke: #b22222"/>
     <use xlink:href="#mbf84956587" x="296.672215" y="246.829784" style="fill: #b22222; stroke: #b22222"/>
     <use xlink:href="#mbf84956587" x="296.012011" y="245.526775" style="fill: #b22222; stroke: #b22222"/>
     <use xlink:href="#mbf84956587" x="286.333959" y="239.651845" style="fill: #b22222; stroke: #b22222"/>
     <use xlink:href="#mbf84956587" x="258.263209" y="246.736762" style="fill: #b22222; stroke: #b22222"/>
     <use xlink:href="#mbf84956587" x="254.313253" y="251.328807" style="fill: #b22222; stroke: #b22222"/>
     <use xlink:href="#mbf84956587" x="286.827572" y="242.301508" style="fill: #b22222; stroke: #b22222"/>
     <use xlink:href="#mbf84956587" x="269.398533" y="256.675414" style="fill: #b22222; stroke: #b22222"/>
     <use xlink:href="#mbf84956587" x="319.331122" y="236.766125" style="fill: #b22222; stroke: #b22222"/>
     <use xlink:href="#mbf84956587" x="266.225864" y="225.144654" style="fill: #b22222; stroke: #b22222"/>
     <use xlink:href="#mbf84956587" x="292.718026" y="237.098127" style="fill: #b22222; stroke: #b22222"/>
     <use xlink:href="#mbf84956587" x="257.919763" y="236.375298" style="fill: #b22222; stroke: #b22222"/>
     <use xlink:href="#mbf84956587" x="260.183335" y="261.124039" style="fill: #b22222; stroke: #b22222"/>
     <use xlink:href="#mbf84956587" x="292.459257" y="303.846587" style="fill: #b22222; stroke: #b22222"/>
     <use xlink:href="#mbf84956587" x="249.292191" y="240.853875" style="fill: #b22222; stroke: #b22222"/>
     <use xlink:href="#mbf84956587" x="283.346134" y="243.154768" style="fill: #b22222; stroke: #b22222"/>
     <use xlink:href="#mbf84956587" x="296.9218" y="247.285941" style="fill: #b22222; stroke: #b22222"/>
     <use xlink:href="#mbf84956587" x="275.673659" y="237.199318" style="fill: #b22222; stroke: #b22222"/>
     <use xlink:href="#mbf84956587" x="281.815222" y="249.930103" style="fill: #b22222; stroke: #b22222"/>
     <use xlink:href="#mbf84956587" x="272.787378" y="246.093254" style="fill: #b22222; stroke: #b22222"/>
     <use xlink:href="#mbf84956587" x="251.218404" y="248.707449" style="fill: #b22222; stroke: #b22222"/>
     <use xlink:href="#mbf84956587" x="252.468398" y="240.944343" style="fill: #b22222; stroke: #b22222"/>
     <use xlink:href="#mbf84956587" x="279.219795" y="259.597867" style="fill: #b22222; stroke: #b22222"/>
     <use xlink:href="#mbf84956587" x="282.653398" y="250.129834" style="fill: #b22222; stroke: #b22222"/>
     <use xlink:href="#mbf84956587" x="249.664022" y="244.001664" style="fill: #b22222; stroke: #b22222"/>
     <use xlink:href="#mbf84956587" x="263.620631" y="242.864128" style="fill: #b22222; stroke: #b22222"/>
     <use xlink:href="#mbf84956587" x="293.308654" y="234.852484" style="fill: #b22222; stroke: #b22222"/>
     <use xlink:href="#mbf84956587" x="267.424797" y="253.011514" style="fill: #b22222; stroke: #b22222"/>
     <use xlink:href="#mbf84956587" x="258.742371" y="241.2347" style="fill: #b22222; stroke: #b22222"/>
     <use xlink:href="#mbf84956587" x="310.814149" y="230.237739" style="fill: #b22222; stroke: #b22222"/>
     <use xlink:href="#mbf84956587" x="274.651752" y="250.389265" style="fill: #b22222; stroke: #b22222"/>
     <use xlink:href="#mbf84956587" x="253.858606" y="245.570107" style="fill: #b22222; stroke: #b22222"/>
     <use xlink:href="#mbf84956587" x="278.65816" y="248.500945" style="fill: #b22222; stroke: #b22222"/>
     <use xlink:href="#mbf84956587" x="264.60643" y="250.851516" style="fill: #b22222; stroke: #b22222"/>
     <use xlink:href="#mbf84956587" x="333.307355" y="186.184634" style="fill: #b22222; stroke: #b22222"/>
     <use xlink:href="#mbf84956587" x="285.529578" y="241.45388" style="fill: #b22222; stroke: #b22222"/>
     <use xlink:href="#mbf84956587" x="272.723227" y="248.196964" style="fill: #b22222; stroke: #b22222"/>
     <use xlink:href="#mbf84956587" x="263.321471" y="256.613744" style="fill: #b22222; stroke: #b22222"/>
     <use xlink:href="#mbf84956587" x="278.136909" y="252.028056" style="fill: #b22222; stroke: #b22222"/>
     <use xlink:href="#mbf84956587" x="287.835762" y="232.06064" style="fill: #b22222; stroke: #b22222"/>
     <use xlink:href="#mbf84956587" x="258.866261" y="247.962809" style="fill: #b22222; stroke: #b22222"/>
     <use xlink:href="#mbf84956587" x="242.931364" y="233.907579" style="fill: #b22222; stroke: #b22222"/>
     <use xlink:href="#mbf84956587" x="274.988613" y="248.197871" style="fill: #b22222; stroke: #b22222"/>
     <use xlink:href="#mbf84956587" x="256.413124" y="253.376569" style="fill: #b22222; stroke: #b22222"/>
     <use xlink:href="#mbf84956587" x="261.171246" y="249.544614" style="fill: #b22222; stroke: #b22222"/>
     <use xlink:href="#mbf84956587" x="274.901526" y="248.947825" style="fill: #b22222; stroke: #b22222"/>
     <use xlink:href="#mbf84956587" x="276.607682" y="238.76883" style="fill: #b22222; stroke: #b22222"/>
     <use xlink:href="#mbf84956587" x="295.935298" y="237.307693" style="fill: #b22222; stroke: #b22222"/>
     <use xlink:href="#mbf84956587" x="277.573271" y="253.025028" style="fill: #b22222; stroke: #b22222"/>
     <use xlink:href="#mbf84956587" x="236.504151" y="271.933355" style="fill: #b22222; stroke: #b22222"/>
     <use xlink:href="#mbf84956587" x="275.905326" y="245.16108" style="fill: #b22222; stroke: #b22222"/>
     <use xlink:href="#mbf84956587" x="292.030157" y="296.442125" style="fill: #b22222; stroke: #b22222"/>
     <use xlink:href="#mbf84956587" x="292.293944" y="280.239433" style="fill: #b22222; stroke: #b22222"/>
     <use xlink:href="#mbf84956587" x="280.467247" y="243.071236" style="fill: #b22222; stroke: #b22222"/>
     <use xlink:href="#mbf84956587" x="300.877767" y="238.546009" style="fill: #b22222; stroke: #b22222"/>
     <use xlink:href="#mbf84956587" x="286.699737" y="246.105801" style="fill: #b22222; stroke: #b22222"/>
     <use xlink:href="#mbf84956587" x="272.312931" y="262.930799" style="fill: #b22222; stroke: #b22222"/>
     <use xlink:href="#mbf84956587" x="263.082206" y="262.677162" style="fill: #b22222; stroke: #b22222"/>
     <use xlink:href="#mbf84956587" x="292.551147" y="237.794019" style="fill: #b22222; stroke: #b22222"/>
     <use xlink:href="#mbf84956587" x="280.799278" y="254.549737" style="fill: #b22222; stroke: #b22222"/>
     <use xlink:href="#mbf84956587" x="280.797556" y="236.43006" style="fill: #b22222; stroke: #b22222"/>
     <use xlink:href="#mbf84956587" x="286.558276" y="242.618737" style="fill: #b22222; stroke: #b22222"/>
     <use xlink:href="#mbf84956587" x="270.231894" y="254.844756" style="fill: #b22222; stroke: #b22222"/>
     <use xlink:href="#mbf84956587" x="310.519624" y="238.046152" style="fill: #b22222; stroke: #b22222"/>
     <use xlink:href="#mbf84956587" x="289.923499" y="232.36411" style="fill: #b22222; stroke: #b22222"/>
     <use xlink:href="#mbf84956587" x="290.015025" y="294.599348" style="fill: #b22222; stroke: #b22222"/>
     <use xlink:href="#mbf84956587" x="257.145383" y="244.752133" style="fill: #b22222; stroke: #b22222"/>
     <use xlink:href="#mbf84956587" x="279.352366" y="250.296287" style="fill: #b22222; stroke: #b22222"/>
     <use xlink:href="#mbf84956587" x="286.653787" y="243.752441" style="fill: #b22222; stroke: #b22222"/>
     <use xlink:href="#mbf84956587" x="287.153966" y="236.939278" style="fill: #b22222; stroke: #b22222"/>
     <use xlink:href="#mbf84956587" x="269.882782" y="251.116926" style="fill: #b22222; stroke: #b22222"/>
     <use xlink:href="#mbf84956587" x="272.884242" y="238.703026" style="fill: #b22222; stroke: #b22222"/>
     <use xlink:href="#mbf84956587" x="308.278056" y="207.188771" style="fill: #b22222; stroke: #b22222"/>
     <use xlink:href="#mbf84956587" x="292.0896" y="243.800816" style="fill: #b22222; stroke: #b22222"/>
     <use xlink:href="#mbf84956587" x="257.361095" y="245.12062" style="fill: #b22222; stroke: #b22222"/>
     <use xlink:href="#mbf84956587" x="244.406635" y="224.551437" style="fill: #b22222; stroke: #b22222"/>
     <use xlink:href="#mbf84956587" x="275.824293" y="222.2027" style="fill: #b22222; stroke: #b22222"/>
     <use xlink:href="#mbf84956587" x="271.165317" y="241.413783" style="fill: #b22222; stroke: #b22222"/>
     <use xlink:href="#mbf84956587" x="279.909148" y="237.213037" style="fill: #b22222; stroke: #b22222"/>
     <use xlink:href="#mbf84956587" x="260.960739" y="246.890226" style="fill: #b22222; stroke: #b22222"/>
     <use xlink:href="#mbf84956587" x="295.112992" y="248.310605" style="fill: #b22222; stroke: #b22222"/>
     <use xlink:href="#mbf84956587" x="264.234301" y="263.183832" style="fill: #b22222; stroke: #b22222"/>
     <use xlink:href="#mbf84956587" x="253.487411" y="237.233853" style="fill: #b22222; stroke: #b22222"/>
    </g>
   </g>
   <g id="matplotlib.axis_1">
    <g id="xtick_1">
     <g id="line2d_1">
      <defs>
       <path id="m4c71c1cf79" d="M 0 0 
L 0 3.5 
" style="stroke: #000000; stroke-width: 0.8"/>
      </defs>
      <g>
       <use xlink:href="#m4c71c1cf79" x="99.697313" y="465.838125" style="stroke: #000000; stroke-width: 0.8"/>
      </g>
     </g>
     <g id="text_1">
      <!-- −400 -->
      <g transform="translate(85.963719 480.436562) scale(0.1 -0.1)">
       <defs>
        <path id="DejaVuSans-2212" d="M 678 2272 
L 4684 2272 
L 4684 1741 
L 678 1741 
L 678 2272 
z
" transform="scale(0.015625)"/>
        <path id="DejaVuSans-34" d="M 2419 4116 
L 825 1625 
L 2419 1625 
L 2419 4116 
z
M 2253 4666 
L 3047 4666 
L 3047 1625 
L 3713 1625 
L 3713 1100 
L 3047 1100 
L 3047 0 
L 2419 0 
L 2419 1100 
L 313 1100 
L 313 1709 
L 2253 4666 
z
" transform="scale(0.015625)"/>
        <path id="DejaVuSans-30" d="M 2034 4250 
Q 1547 4250 1301 3770 
Q 1056 3291 1056 2328 
Q 1056 1369 1301 889 
Q 1547 409 2034 409 
Q 2525 409 2770 889 
Q 3016 1369 3016 2328 
Q 3016 3291 2770 3770 
Q 2525 4250 2034 4250 
z
M 2034 4750 
Q 2819 4750 3233 4129 
Q 3647 3509 3647 2328 
Q 3647 1150 3233 529 
Q 2819 -91 2034 -91 
Q 1250 -91 836 529 
Q 422 1150 422 2328 
Q 422 3509 836 4129 
Q 1250 4750 2034 4750 
z
" transform="scale(0.015625)"/>
       </defs>
       <use xlink:href="#DejaVuSans-2212"/>
       <use xlink:href="#DejaVuSans-34" x="83.789062"/>
       <use xlink:href="#DejaVuSans-30" x="147.412109"/>
       <use xlink:href="#DejaVuSans-30" x="211.035156"/>
      </g>
     </g>
    </g>
    <g id="xtick_2">
     <g id="line2d_2">
      <g>
       <use xlink:href="#m4c71c1cf79" x="188.401313" y="465.838125" style="stroke: #000000; stroke-width: 0.8"/>
      </g>
     </g>
     <g id="text_2">
      <!-- −200 -->
      <g transform="translate(174.667719 480.436562) scale(0.1 -0.1)">
       <defs>
        <path id="DejaVuSans-32" d="M 1228 531 
L 3431 531 
L 3431 0 
L 469 0 
L 469 531 
Q 828 903 1448 1529 
Q 2069 2156 2228 2338 
Q 2531 2678 2651 2914 
Q 2772 3150 2772 3378 
Q 2772 3750 2511 3984 
Q 2250 4219 1831 4219 
Q 1534 4219 1204 4116 
Q 875 4013 500 3803 
L 500 4441 
Q 881 4594 1212 4672 
Q 1544 4750 1819 4750 
Q 2544 4750 2975 4387 
Q 3406 4025 3406 3419 
Q 3406 3131 3298 2873 
Q 3191 2616 2906 2266 
Q 2828 2175 2409 1742 
Q 1991 1309 1228 531 
z
" transform="scale(0.015625)"/>
       </defs>
       <use xlink:href="#DejaVuSans-2212"/>
       <use xlink:href="#DejaVuSans-32" x="83.789062"/>
       <use xlink:href="#DejaVuSans-30" x="147.412109"/>
       <use xlink:href="#DejaVuSans-30" x="211.035156"/>
      </g>
     </g>
    </g>
    <g id="xtick_3">
     <g id="line2d_3">
      <g>
       <use xlink:href="#m4c71c1cf79" x="277.105313" y="465.838125" style="stroke: #000000; stroke-width: 0.8"/>
      </g>
     </g>
     <g id="text_3">
      <!-- 0 -->
      <g transform="translate(273.924063 480.436562) scale(0.1 -0.1)">
       <use xlink:href="#DejaVuSans-30"/>
      </g>
     </g>
    </g>
    <g id="xtick_4">
     <g id="line2d_4">
      <g>
       <use xlink:href="#m4c71c1cf79" x="365.809313" y="465.838125" style="stroke: #000000; stroke-width: 0.8"/>
      </g>
     </g>
     <g id="text_4">
      <!-- 200 -->
      <g transform="translate(356.265563 480.436562) scale(0.1 -0.1)">
       <use xlink:href="#DejaVuSans-32"/>
       <use xlink:href="#DejaVuSans-30" x="63.623047"/>
       <use xlink:href="#DejaVuSans-30" x="127.246094"/>
      </g>
     </g>
    </g>
    <g id="xtick_5">
     <g id="line2d_5">
      <g>
       <use xlink:href="#m4c71c1cf79" x="454.513313" y="465.838125" style="stroke: #000000; stroke-width: 0.8"/>
      </g>
     </g>
     <g id="text_5">
      <!-- 400 -->
      <g transform="translate(444.969563 480.436562) scale(0.1 -0.1)">
       <use xlink:href="#DejaVuSans-34"/>
       <use xlink:href="#DejaVuSans-30" x="63.623047"/>
       <use xlink:href="#DejaVuSans-30" x="127.246094"/>
      </g>
     </g>
    </g>
    <g id="text_6">
     <!-- x -->
     <g transform="translate(274.145938 494.114687) scale(0.1 -0.1)">
      <defs>
       <path id="DejaVuSans-78" d="M 3513 3500 
L 2247 1797 
L 3578 0 
L 2900 0 
L 1881 1375 
L 863 0 
L 184 0 
L 1544 1831 
L 300 3500 
L 978 3500 
L 1906 2253 
L 2834 3500 
L 3513 3500 
z
" transform="scale(0.015625)"/>
      </defs>
      <use xlink:href="#DejaVuSans-78"/>
     </g>
    </g>
   </g>
   <g id="matplotlib.axis_2">
    <g id="ytick_1">
     <g id="line2d_6">
      <defs>
       <path id="m0c79a2fa66" d="M 0 0 
L -3.5 0 
" style="stroke: #000000; stroke-width: 0.8"/>
      </defs>
      <g>
       <use xlink:href="#m0c79a2fa66" x="55.345313" y="421.486125" style="stroke: #000000; stroke-width: 0.8"/>
      </g>
     </g>
     <g id="text_7">
      <!-- −400 -->
      <g transform="translate(20.878125 425.285344) scale(0.1 -0.1)">
       <use xlink:href="#DejaVuSans-2212"/>
       <use xlink:href="#DejaVuSans-34" x="83.789062"/>
       <use xlink:href="#DejaVuSans-30" x="147.412109"/>
       <use xlink:href="#DejaVuSans-30" x="211.035156"/>
      </g>
     </g>
    </g>
    <g id="ytick_2">
     <g id="line2d_7">
      <g>
       <use xlink:href="#m0c79a2fa66" x="55.345313" y="332.782125" style="stroke: #000000; stroke-width: 0.8"/>
      </g>
     </g>
     <g id="text_8">
      <!-- −200 -->
      <g transform="translate(20.878125 336.581344) scale(0.1 -0.1)">
       <use xlink:href="#DejaVuSans-2212"/>
       <use xlink:href="#DejaVuSans-32" x="83.789062"/>
       <use xlink:href="#DejaVuSans-30" x="147.412109"/>
       <use xlink:href="#DejaVuSans-30" x="211.035156"/>
      </g>
     </g>
    </g>
    <g id="ytick_3">
     <g id="line2d_8">
      <g>
       <use xlink:href="#m0c79a2fa66" x="55.345313" y="244.078125" style="stroke: #000000; stroke-width: 0.8"/>
      </g>
     </g>
     <g id="text_9">
      <!-- 0 -->
      <g transform="translate(41.982813 247.877344) scale(0.1 -0.1)">
       <use xlink:href="#DejaVuSans-30"/>
      </g>
     </g>
    </g>
    <g id="ytick_4">
     <g id="line2d_9">
      <g>
       <use xlink:href="#m0c79a2fa66" x="55.345313" y="155.374125" style="stroke: #000000; stroke-width: 0.8"/>
      </g>
     </g>
     <g id="text_10">
      <!-- 200 -->
      <g transform="translate(29.257813 159.173344) scale(0.1 -0.1)">
       <use xlink:href="#DejaVuSans-32"/>
       <use xlink:href="#DejaVuSans-30" x="63.623047"/>
       <use xlink:href="#DejaVuSans-30" x="127.246094"/>
      </g>
     </g>
    </g>
    <g id="ytick_5">
     <g id="line2d_10">
      <g>
       <use xlink:href="#m0c79a2fa66" x="55.345313" y="66.670125" style="stroke: #000000; stroke-width: 0.8"/>
      </g>
     </g>
     <g id="text_11">
      <!-- 400 -->
      <g transform="translate(29.257813 70.469344) scale(0.1 -0.1)">
       <use xlink:href="#DejaVuSans-34"/>
       <use xlink:href="#DejaVuSans-30" x="63.623047"/>
       <use xlink:href="#DejaVuSans-30" x="127.246094"/>
      </g>
     </g>
    </g>
    <g id="text_12">
     <!-- y -->
     <g transform="translate(14.798438 247.0375) rotate(-90) scale(0.1 -0.1)">
      <defs>
       <path id="DejaVuSans-79" d="M 2059 -325 
Q 1816 -950 1584 -1140 
Q 1353 -1331 966 -1331 
L 506 -1331 
L 506 -850 
L 844 -850 
Q 1081 -850 1212 -737 
Q 1344 -625 1503 -206 
L 1606 56 
L 191 3500 
L 800 3500 
L 1894 763 
L 2988 3500 
L 3597 3500 
L 2059 -325 
z
" transform="scale(0.015625)"/>
      </defs>
      <use xlink:href="#DejaVuSans-79"/>
     </g>
    </g>
   </g>
   <g id="patch_4">
    <path d="M 55.345313 465.838125 
L 55.345313 22.318125 
" style="fill: none; stroke: #000000; stroke-width: 0.8; stroke-linejoin: miter; stroke-linecap: square"/>
   </g>
   <g id="patch_5">
    <path d="M 498.865313 465.838125 
L 498.865313 22.318125 
" style="fill: none; stroke: #000000; stroke-width: 0.8; stroke-linejoin: miter; stroke-linecap: square"/>
   </g>
   <g id="patch_6">
    <path d="M 55.345313 465.838125 
L 498.865313 465.838125 
" style="fill: none; stroke: #000000; stroke-width: 0.8; stroke-linejoin: miter; stroke-linecap: square"/>
   </g>
   <g id="patch_7">
    <path d="M 55.345313 22.318125 
L 498.865313 22.318125 
" style="fill: none; stroke: #000000; stroke-width: 0.8; stroke-linejoin: miter; stroke-linecap: square"/>
   </g>
   <g id="text_13">
    <!-- t = 200 -->
    <g transform="translate(64.215713 38.786962) scale(0.1 -0.1)">
     <defs>
      <path id="DejaVuSans-74" d="M 1172 4494 
L 1172 3500 
L 2356 3500 
L 2356 3053 
L 1172 3053 
L 1172 1153 
Q 1172 725 1289 603 
Q 1406 481 1766 481 
L 2356 481 
L 2356 0 
L 1766 0 
Q 1100 0 847 248 
Q 594 497 594 1153 
L 594 3053 
L 172 3053 
L 172 3500 
L 594 3500 
L 594 4494 
L 1172 4494 
z
" transform="scale(0.015625)"/>
      <path id="DejaVuSans-20" transform="scale(0.015625)"/>
      <path id="DejaVuSans-3d" d="M 678 2906 
L 4684 2906 
L 4684 2381 
L 678 2381 
L 678 2906 
z
M 678 1631 
L 4684 1631 
L 4684 1100 
L 678 1100 
L 678 1631 
z
" transform="scale(0.015625)"/>
     </defs>
     <use xlink:href="#DejaVuSans-74"/>
     <use xlink:href="#DejaVuSans-20" x="39.208984"/>
     <use xlink:href="#DejaVuSans-3d" x="70.996094"/>
     <use xlink:href="#DejaVuSans-20" x="154.785156"/>
     <use xlink:href="#DejaVuSans-32" x="186.572266"/>
     <use xlink:href="#DejaVuSans-30" x="250.195312"/>
     <use xlink:href="#DejaVuSans-30" x="313.818359"/>
    </g>
   </g>
   <g id="text_14">
    <!-- Evaluation trajectory 5 -->
    <g transform="translate(208.620938 16.318125) scale(0.12 -0.12)">
     <defs>
      <path id="DejaVuSans-45" d="M 628 4666 
L 3578 4666 
L 3578 4134 
L 1259 4134 
L 1259 2753 
L 3481 2753 
L 3481 2222 
L 1259 2222 
L 1259 531 
L 3634 531 
L 3634 0 
L 628 0 
L 628 4666 
z
" transform="scale(0.015625)"/>
      <path id="DejaVuSans-76" d="M 191 3500 
L 800 3500 
L 1894 563 
L 2988 3500 
L 3597 3500 
L 2284 0 
L 1503 0 
L 191 3500 
z
" transform="scale(0.015625)"/>
      <path id="DejaVuSans-61" d="M 2194 1759 
Q 1497 1759 1228 1600 
Q 959 1441 959 1056 
Q 959 750 1161 570 
Q 1363 391 1709 391 
Q 2188 391 2477 730 
Q 2766 1069 2766 1631 
L 2766 1759 
L 2194 1759 
z
M 3341 1997 
L 3341 0 
L 2766 0 
L 2766 531 
Q 2569 213 2275 61 
Q 1981 -91 1556 -91 
Q 1019 -91 701 211 
Q 384 513 384 1019 
Q 384 1609 779 1909 
Q 1175 2209 1959 2209 
L 2766 2209 
L 2766 2266 
Q 2766 2663 2505 2880 
Q 2244 3097 1772 3097 
Q 1472 3097 1187 3025 
Q 903 2953 641 2809 
L 641 3341 
Q 956 3463 1253 3523 
Q 1550 3584 1831 3584 
Q 2591 3584 2966 3190 
Q 3341 2797 3341 1997 
z
" transform="scale(0.015625)"/>
      <path id="DejaVuSans-6c" d="M 603 4863 
L 1178 4863 
L 1178 0 
L 603 0 
L 603 4863 
z
" transform="scale(0.015625)"/>
      <path id="DejaVuSans-75" d="M 544 1381 
L 544 3500 
L 1119 3500 
L 1119 1403 
Q 1119 906 1312 657 
Q 1506 409 1894 409 
Q 2359 409 2629 706 
Q 2900 1003 2900 1516 
L 2900 3500 
L 3475 3500 
L 3475 0 
L 2900 0 
L 2900 538 
Q 2691 219 2414 64 
Q 2138 -91 1772 -91 
Q 1169 -91 856 284 
Q 544 659 544 1381 
z
M 1991 3584 
L 1991 3584 
z
" transform="scale(0.015625)"/>
      <path id="DejaVuSans-69" d="M 603 3500 
L 1178 3500 
L 1178 0 
L 603 0 
L 603 3500 
z
M 603 4863 
L 1178 4863 
L 1178 4134 
L 603 4134 
L 603 4863 
z
" transform="scale(0.015625)"/>
      <path id="DejaVuSans-6f" d="M 1959 3097 
Q 1497 3097 1228 2736 
Q 959 2375 959 1747 
Q 959 1119 1226 758 
Q 1494 397 1959 397 
Q 2419 397 2687 759 
Q 2956 1122 2956 1747 
Q 2956 2369 2687 2733 
Q 2419 3097 1959 3097 
z
M 1959 3584 
Q 2709 3584 3137 3096 
Q 3566 2609 3566 1747 
Q 3566 888 3137 398 
Q 2709 -91 1959 -91 
Q 1206 -91 779 398 
Q 353 888 353 1747 
Q 353 2609 779 3096 
Q 1206 3584 1959 3584 
z
" transform="scale(0.015625)"/>
      <path id="DejaVuSans-6e" d="M 3513 2113 
L 3513 0 
L 2938 0 
L 2938 2094 
Q 2938 2591 2744 2837 
Q 2550 3084 2163 3084 
Q 1697 3084 1428 2787 
Q 1159 2491 1159 1978 
L 1159 0 
L 581 0 
L 581 3500 
L 1159 3500 
L 1159 2956 
Q 1366 3272 1645 3428 
Q 1925 3584 2291 3584 
Q 2894 3584 3203 3211 
Q 3513 2838 3513 2113 
z
" transform="scale(0.015625)"/>
      <path id="DejaVuSans-72" d="M 2631 2963 
Q 2534 3019 2420 3045 
Q 2306 3072 2169 3072 
Q 1681 3072 1420 2755 
Q 1159 2438 1159 1844 
L 1159 0 
L 581 0 
L 581 3500 
L 1159 3500 
L 1159 2956 
Q 1341 3275 1631 3429 
Q 1922 3584 2338 3584 
Q 2397 3584 2469 3576 
Q 2541 3569 2628 3553 
L 2631 2963 
z
" transform="scale(0.015625)"/>
      <path id="DejaVuSans-6a" d="M 603 3500 
L 1178 3500 
L 1178 -63 
Q 1178 -731 923 -1031 
Q 669 -1331 103 -1331 
L -116 -1331 
L -116 -844 
L 38 -844 
Q 366 -844 484 -692 
Q 603 -541 603 -63 
L 603 3500 
z
M 603 4863 
L 1178 4863 
L 1178 4134 
L 603 4134 
L 603 4863 
z
" transform="scale(0.015625)"/>
      <path id="DejaVuSans-65" d="M 3597 1894 
L 3597 1613 
L 953 1613 
Q 991 1019 1311 708 
Q 1631 397 2203 397 
Q 2534 397 2845 478 
Q 3156 559 3463 722 
L 3463 178 
Q 3153 47 2828 -22 
Q 2503 -91 2169 -91 
Q 1331 -91 842 396 
Q 353 884 353 1716 
Q 353 2575 817 3079 
Q 1281 3584 2069 3584 
Q 2775 3584 3186 3129 
Q 3597 2675 3597 1894 
z
M 3022 2063 
Q 3016 2534 2758 2815 
Q 2500 3097 2075 3097 
Q 1594 3097 1305 2825 
Q 1016 2553 972 2059 
L 3022 2063 
z
" transform="scale(0.015625)"/>
      <path id="DejaVuSans-63" d="M 3122 3366 
L 3122 2828 
Q 2878 2963 2633 3030 
Q 2388 3097 2138 3097 
Q 1578 3097 1268 2742 
Q 959 2388 959 1747 
Q 959 1106 1268 751 
Q 1578 397 2138 397 
Q 2388 397 2633 464 
Q 2878 531 3122 666 
L 3122 134 
Q 2881 22 2623 -34 
Q 2366 -91 2075 -91 
Q 1284 -91 818 406 
Q 353 903 353 1747 
Q 353 2603 823 3093 
Q 1294 3584 2113 3584 
Q 2378 3584 2631 3529 
Q 2884 3475 3122 3366 
z
" transform="scale(0.015625)"/>
      <path id="DejaVuSans-35" d="M 691 4666 
L 3169 4666 
L 3169 4134 
L 1269 4134 
L 1269 2991 
Q 1406 3038 1543 3061 
Q 1681 3084 1819 3084 
Q 2600 3084 3056 2656 
Q 3513 2228 3513 1497 
Q 3513 744 3044 326 
Q 2575 -91 1722 -91 
Q 1428 -91 1123 -41 
Q 819 9 494 109 
L 494 744 
Q 775 591 1075 516 
Q 1375 441 1709 441 
Q 2250 441 2565 725 
Q 2881 1009 2881 1497 
Q 2881 1984 2565 2268 
Q 2250 2553 1709 2553 
Q 1456 2553 1204 2497 
Q 953 2441 691 2322 
L 691 4666 
z
" transform="scale(0.015625)"/>
     </defs>
     <use xlink:href="#DejaVuSans-45"/>
     <use xlink:href="#DejaVuSans-76" x="63.183594"/>
     <use xlink:href="#DejaVuSans-61" x="122.363281"/>
     <use xlink:href="#DejaVuSans-6c" x="183.642578"/>
     <use xlink:href="#DejaVuSans-75" x="211.425781"/>
     <use xlink:href="#DejaVuSans-61" x="274.804688"/>
     <use xlink:href="#DejaVuSans-74" x="336.083984"/>
     <use xlink:href="#DejaVuSans-69" x="375.292969"/>
     <use xlink:href="#DejaVuSans-6f" x="403.076172"/>
     <use xlink:href="#DejaVuSans-6e" x="464.257812"/>
     <use xlink:href="#DejaVuSans-20" x="527.636719"/>
     <use xlink:href="#DejaVuSans-74" x="559.423828"/>
     <use xlink:href="#DejaVuSans-72" x="598.632812"/>
     <use xlink:href="#DejaVuSans-61" x="639.746094"/>
     <use xlink:href="#DejaVuSans-6a" x="701.025391"/>
     <use xlink:href="#DejaVuSans-65" x="728.808594"/>
     <use xlink:href="#DejaVuSans-63" x="790.332031"/>
     <use xlink:href="#DejaVuSans-74" x="845.3125"/>
     <use xlink:href="#DejaVuSans-6f" x="884.521484"/>
     <use xlink:href="#DejaVuSans-72" x="945.703125"/>
     <use xlink:href="#DejaVuSans-79" x="986.816406"/>
     <use xlink:href="#DejaVuSans-20" x="1045.996094"/>
     <use xlink:href="#DejaVuSans-35" x="1077.783203"/>
    </g>
   </g>
   <g id="legend_1">
    <g id="patch_8">
     <path d="M 424.387188 59.674375 
L 491.865313 59.674375 
Q 493.865313 59.674375 493.865313 57.674375 
L 493.865313 29.318125 
Q 493.865313 27.318125 491.865313 27.318125 
L 424.387188 27.318125 
Q 422.387188 27.318125 422.387188 29.318125 
L 422.387188 57.674375 
Q 422.387188 59.674375 424.387188 59.674375 
z
" style="fill: #ffffff; opacity: 0.8; stroke: #cccccc; stroke-linejoin: miter"/>
    </g>
    <g id="PathCollection_3">
     <g>
      <use xlink:href="#m5a7299c289" x="436.387188" y="36.291562" style="fill: #4169e1; stroke: #4169e1"/>
     </g>
    </g>
    <g id="text_15">
     <!-- Sheep -->
     <g transform="translate(454.387188 38.916562) scale(0.1 -0.1)">
      <defs>
       <path id="DejaVuSans-53" d="M 3425 4513 
L 3425 3897 
Q 3066 4069 2747 4153 
Q 2428 4238 2131 4238 
Q 1616 4238 1336 4038 
Q 1056 3838 1056 3469 
Q 1056 3159 1242 3001 
Q 1428 2844 1947 2747 
L 2328 2669 
Q 3034 2534 3370 2195 
Q 3706 1856 3706 1288 
Q 3706 609 3251 259 
Q 2797 -91 1919 -91 
Q 1588 -91 1214 -16 
Q 841 59 441 206 
L 441 856 
Q 825 641 1194 531 
Q 1563 422 1919 422 
Q 2459 422 2753 634 
Q 3047 847 3047 1241 
Q 3047 1584 2836 1778 
Q 2625 1972 2144 2069 
L 1759 2144 
Q 1053 2284 737 2584 
Q 422 2884 422 3419 
Q 422 4038 858 4394 
Q 1294 4750 2059 4750 
Q 2388 4750 2728 4690 
Q 3069 4631 3425 4513 
z
" transform="scale(0.015625)"/>
       <path id="DejaVuSans-68" d="M 3513 2113 
L 3513 0 
L 2938 0 
L 2938 2094 
Q 2938 2591 2744 2837 
Q 2550 3084 2163 3084 
Q 1697 3084 1428 2787 
Q 1159 2491 1159 1978 
L 1159 0 
L 581 0 
L 581 4863 
L 1159 4863 
L 1159 2956 
Q 1366 3272 1645 3428 
Q 1925 3584 2291 3584 
Q 2894 3584 3203 3211 
Q 3513 2838 3513 2113 
z
" transform="scale(0.015625)"/>
       <path id="DejaVuSans-70" d="M 1159 525 
L 1159 -1331 
L 581 -1331 
L 581 3500 
L 1159 3500 
L 1159 2969 
Q 1341 3281 1617 3432 
Q 1894 3584 2278 3584 
Q 2916 3584 3314 3078 
Q 3713 2572 3713 1747 
Q 3713 922 3314 415 
Q 2916 -91 2278 -91 
Q 1894 -91 1617 61 
Q 1341 213 1159 525 
z
M 3116 1747 
Q 3116 2381 2855 2742 
Q 2594 3103 2138 3103 
Q 1681 3103 1420 2742 
Q 1159 2381 1159 1747 
Q 1159 1113 1420 752 
Q 1681 391 2138 391 
Q 2594 391 2855 752 
Q 3116 1113 3116 1747 
z
" transform="scale(0.015625)"/>
      </defs>
      <use xlink:href="#DejaVuSans-53"/>
      <use xlink:href="#DejaVuSans-68" x="63.476562"/>
      <use xlink:href="#DejaVuSans-65" x="126.855469"/>
      <use xlink:href="#DejaVuSans-65" x="188.378906"/>
      <use xlink:href="#DejaVuSans-70" x="249.902344"/>
     </g>
    </g>
    <g id="PathCollection_4">
     <g>
      <use xlink:href="#mbf84956587" x="436.387188" y="50.969687" style="fill: #b22222; stroke: #b22222"/>
     </g>
    </g>
    <g id="text_16">
     <!-- Wolves -->
     <g transform="translate(454.387188 53.594687) scale(0.1 -0.1)">
      <defs>
       <path id="DejaVuSans-57" d="M 213 4666 
L 850 4666 
L 1831 722 
L 2809 4666 
L 3519 4666 
L 4500 722 
L 5478 4666 
L 6119 4666 
L 4947 0 
L 4153 0 
L 3169 4050 
L 2175 0 
L 1381 0 
L 213 4666 
z
" transform="scale(0.015625)"/>
       <path id="DejaVuSans-73" d="M 2834 3397 
L 2834 2853 
Q 2591 2978 2328 3040 
Q 2066 3103 1784 3103 
Q 1356 3103 1142 2972 
Q 928 2841 928 2578 
Q 928 2378 1081 2264 
Q 1234 2150 1697 2047 
L 1894 2003 
Q 2506 1872 2764 1633 
Q 3022 1394 3022 966 
Q 3022 478 2636 193 
Q 2250 -91 1575 -91 
Q 1294 -91 989 -36 
Q 684 19 347 128 
L 347 722 
Q 666 556 975 473 
Q 1284 391 1588 391 
Q 1994 391 2212 530 
Q 2431 669 2431 922 
Q 2431 1156 2273 1281 
Q 2116 1406 1581 1522 
L 1381 1569 
Q 847 1681 609 1914 
Q 372 2147 372 2553 
Q 372 3047 722 3315 
Q 1072 3584 1716 3584 
Q 2034 3584 2315 3537 
Q 2597 3491 2834 3397 
z
" transform="scale(0.015625)"/>
      </defs>
      <use xlink:href="#DejaVuSans-57"/>
      <use xlink:href="#DejaVuSans-6f" x="93.001953"/>
      <use xlink:href="#DejaVuSans-6c" x="154.183594"/>
      <use xlink:href="#DejaVuSans-76" x="181.966797"/>
      <use xlink:href="#DejaVuSans-65" x="241.146484"/>
      <use xlink:href="#DejaVuSans-73" x="302.669922"/>
     </g>
    </g>
   </g>
  </g>
 </g>
 <defs>
  <clipPath id="pea6b0867f8">
   <rect x="55.345313" y="22.318125" width="443.52" height="443.52"/>
  </clipPath>
 </defs>
</svg>
