<?xml version="1.0" encoding="utf-8" standalone="no"?>
<!DOCTYPE svg PUBLIC "-//W3C//DTD SVG 1.1//EN"
  "http://www.w3.org/Graphics/SVG/1.1/DTD/svg11.dtd">
<svg xmlns:xlink="http://www.w3.org/1999/xlink" width="506.065313pt" height="503.394375pt" viewBox="0 0 506.065313 503.394375" xmlns="http://www.w3.org/2000/svg" version="1.1">
 <metadata>
  <rdf:RDF xmlns:dc="http://purl.org/dc/elements/1.1/" xmlns:cc="http://creativecommons.org/ns#" xmlns:rdf="http://www.w3.org/1999/02/22-rdf-syntax-ns#">
   <cc:Work>
    <dc:type rdf:resource="http://purl.org/dc/dcmitype/StillImage"/>
    <dc:date>2026-05-08T10:00:05.044932</dc:date>
    <dc:format>image/svg+xml</dc:format>
    <dc:creator>
     <cc:Agent>
      <dc:title>Matplotlib v3.7.1, https://matplotlib.org/</dc:title>
     </cc:Agent>
    </dc:creator>
   </cc:Work>
  </rdf:RDF>
 </metadata>
 <defs>
  <style type="text/css">*{stroke-linejoin: round; stroke-linecap: butt}</style>
 </defs>
 <g id="figure_1">
  <g id="patch_1">
   <path d="M 0 503.394375 
L 506.065313 503.394375 
L 506.065313 0 
L 0 0 
z
" style="fill: #ffffff"/>
  </g>
  <g id="axes_1">
   <g id="patch_2">
    <path d="M 55.345313 465.838125 
L 498.865313 465.838125 
L 498.865313 22.318125 
L 55.345313 22.318125 
z
" style="fill: #ffffff"/>
   </g>
   <g id="patch_3">
    <path d="M 277.105313 332.782125 
C 300.629888 332.782125 323.194125 323.435712 339.828512 306.801325 
C 356.462899 290.166938 365.809313 267.602701 365.809313 244.078125 
C 365.809313 220.553549 356.462899 197.989312 339.828512 181.354925 
C 323.194125 164.720538 300.629888 155.374125 277.105313 155.374125 
C 253.580737 155.374125 231.0165 164.720538 214.382113 181.354925 
C 197.747726 197.989312 188.401313 220.553549 188.401313 244.078125 
C 188.401313 267.602701 197.747726 290.166938 214.382113 306.801325 
C 231.0165 323.435712 253.580737 332.782125 277.105313 332.782125 
z
" clip-path="url(#p77f4f5c3ff)" style="fill: #228b22; opacity: 0.12; stroke: #228b22; stroke-width: 1.5; stroke-linejoin: miter"/>
   </g>
   <g id="PathCollection_1">
    <defs>
     <path id="md00b822d84" d="M 0 2.236068 
C 0.593012 2.236068 1.161816 2.000462 1.581139 1.581139 
C 2.000462 1.161816 2.236068 0.593012 2.236068 0 
C 2.236068 -0.593012 2.000462 -1.161816 1.581139 -1.581139 
C 1.161816 -2.000462 0.593012 -2.236068 0 -2.236068 
C -0.593012 -2.236068 -1.161816 -2.000462 -1.581139 -1.581139 
C -2.000462 -1.161816 -2.236068 -0.593012 -2.236068 0 
C -2.236068 0.593012 -2.000462 1.161816 -1.581139 1.581139 
C -1.161816 2.000462 -0.593012 2.236068 0 2.236068 
z
" style="stroke: #4169e1"/>
    </defs>
    <g clip-path="url(#p77f4f5c3ff)">
     <use xlink:href="#md00b822d84" x="428.377372" y="225.828843" style="fill: #4169e1; stroke: #4169e1"/>
     <use xlink:href="#md00b822d84" x="388.285482" y="348.751579" style="fill: #4169e1; stroke: #4169e1"/>
     <use xlink:href="#md00b822d84" x="315.13277" y="187.398352" style="fill: #4169e1; stroke: #4169e1"/>
     <use xlink:href="#md00b822d84" x="328.838226" y="263.369562" style="fill: #4169e1; stroke: #4169e1"/>
     <use xlink:href="#md00b822d84" x="389.285852" y="236.138304" style="fill: #4169e1; stroke: #4169e1"/>
     <use xlink:href="#md00b822d84" x="301.651301" y="128.253272" style="fill: #4169e1; stroke: #4169e1"/>
     <use xlink:href="#md00b822d84" x="220.346785" y="253.055646" style="fill: #4169e1; stroke: #4169e1"/>
     <use xlink:href="#md00b822d84" x="292.575514" y="160.295176" style="fill: #4169e1; stroke: #4169e1"/>
     <use xlink:href="#md00b822d84" x="229.573299" y="148.513344" style="fill: #4169e1; stroke: #4169e1"/>
     <use xlink:href="#md00b822d84" x="206.79429" y="199.427424" style="fill: #4169e1; stroke: #4169e1"/>
     <use xlink:href="#md00b822d84" x="404.999383" y="307.711754" style="fill: #4169e1; stroke: #4169e1"/>
     <use xlink:href="#md00b822d84" x="210.268251" y="320.701186" style="fill: #4169e1; stroke: #4169e1"/>
     <use xlink:href="#md00b822d84" x="357.678913" y="327.992703" style="fill: #4169e1; stroke: #4169e1"/>
     <use xlink:href="#md00b822d84" x="214.171966" y="188.119065" style="fill: #4169e1; stroke: #4169e1"/>
     <use xlink:href="#md00b822d84" x="332.937531" y="353.592753" style="fill: #4169e1; stroke: #4169e1"/>
     <use xlink:href="#md00b822d84" x="385.156539" y="230.569828" style="fill: #4169e1; stroke: #4169e1"/>
     <use xlink:href="#md00b822d84" x="315.330215" y="348.983044" style="fill: #4169e1; stroke: #4169e1"/>
     <use xlink:href="#md00b822d84" x="420.797942" y="211.340074" style="fill: #4169e1; stroke: #4169e1"/>
     <use xlink:href="#md00b822d84" x="341.245636" y="287.195336" style="fill: #4169e1; stroke: #4169e1"/>
     <use xlink:href="#md00b822d84" x="285.829036" y="264.831585" style="fill: #4169e1; stroke: #4169e1"/>
     <use xlink:href="#md00b822d84" x="173.202611" y="286.735151" style="fill: #4169e1; stroke: #4169e1"/>
     <use xlink:href="#md00b822d84" x="373.895871" y="226.793159" style="fill: #4169e1; stroke: #4169e1"/>
     <use xlink:href="#md00b822d84" x="379.468715" y="173.275283" style="fill: #4169e1; stroke: #4169e1"/>
     <use xlink:href="#md00b822d84" x="422.164005" y="226.498725" style="fill: #4169e1; stroke: #4169e1"/>
     <use xlink:href="#md00b822d84" x="208.160468" y="249.077085" style="fill: #4169e1; stroke: #4169e1"/>
     <use xlink:href="#md00b822d84" x="278.669922" y="346.608456" style="fill: #4169e1; stroke: #4169e1"/>
     <use xlink:href="#md00b822d84" x="206.238571" y="210.035248" style="fill: #4169e1; stroke: #4169e1"/>
     <use xlink:href="#md00b822d84" x="350.419109" y="223.690801" style="fill: #4169e1; stroke: #4169e1"/>
     <use xlink:href="#md00b822d84" x="191.927701" y="212.200897" style="fill: #4169e1; stroke: #4169e1"/>
     <use xlink:href="#md00b822d84" x="325.001791" y="288.317452" style="fill: #4169e1; stroke: #4169e1"/>
     <use xlink:href="#md00b822d84" x="301.306754" y="228.588309" style="fill: #4169e1; stroke: #4169e1"/>
     <use xlink:href="#md00b822d84" x="365.433536" y="190.385057" style="fill: #4169e1; stroke: #4169e1"/>
     <use xlink:href="#md00b822d84" x="274.775591" y="290.329882" style="fill: #4169e1; stroke: #4169e1"/>
     <use xlink:href="#md00b822d84" x="331.163031" y="327.64374" style="fill: #4169e1; stroke: #4169e1"/>
     <use xlink:href="#md00b822d84" x="258.860333" y="121.888297" style="fill: #4169e1; stroke: #4169e1"/>
     <use xlink:href="#md00b822d84" x="351.74079" y="225.427588" style="fill: #4169e1; stroke: #4169e1"/>
     <use xlink:href="#md00b822d84" x="423.916253" y="255.797844" style="fill: #4169e1; stroke: #4169e1"/>
     <use xlink:href="#md00b822d84" x="314.624745" y="321.466382" style="fill: #4169e1; stroke: #4169e1"/>
     <use xlink:href="#md00b822d84" x="228.062971" y="223.756186" style="fill: #4169e1; stroke: #4169e1"/>
     <use xlink:href="#md00b822d84" x="291.145386" y="205.933297" style="fill: #4169e1; stroke: #4169e1"/>
     <use xlink:href="#md00b822d84" x="406.754405" y="192.488237" style="fill: #4169e1; stroke: #4169e1"/>
     <use xlink:href="#md00b822d84" x="190.810117" y="347.661363" style="fill: #4169e1; stroke: #4169e1"/>
     <use xlink:href="#md00b822d84" x="349.763128" y="238.965593" style="fill: #4169e1; stroke: #4169e1"/>
     <use xlink:href="#md00b822d84" x="312.745761" y="266.609093" style="fill: #4169e1; stroke: #4169e1"/>
     <use xlink:href="#md00b822d84" x="187.086291" y="268.417801" style="fill: #4169e1; stroke: #4169e1"/>
     <use xlink:href="#md00b822d84" x="301.283825" y="325.564225" style="fill: #4169e1; stroke: #4169e1"/>
     <use xlink:href="#md00b822d84" x="253.900216" y="277.968793" style="fill: #4169e1; stroke: #4169e1"/>
     <use xlink:href="#md00b822d84" x="261.847427" y="327.969105" style="fill: #4169e1; stroke: #4169e1"/>
     <use xlink:href="#md00b822d84" x="370.890004" y="291.912809" style="fill: #4169e1; stroke: #4169e1"/>
     <use xlink:href="#md00b822d84" x="342.681541" y="213.547032" style="fill: #4169e1; stroke: #4169e1"/>
     <use xlink:href="#md00b822d84" x="321.890918" y="334.854879" style="fill: #4169e1; stroke: #4169e1"/>
     <use xlink:href="#md00b822d84" x="241.115755" y="288.730379" style="fill: #4169e1; stroke: #4169e1"/>
     <use xlink:href="#md00b822d84" x="330.824165" y="231.592563" style="fill: #4169e1; stroke: #4169e1"/>
     <use xlink:href="#md00b822d84" x="329.025955" y="169.652158" style="fill: #4169e1; stroke: #4169e1"/>
     <use xlink:href="#md00b822d84" x="316.779806" y="240.933627" style="fill: #4169e1; stroke: #4169e1"/>
     <use xlink:href="#md00b822d84" x="397.079503" y="170.392179" style="fill: #4169e1; stroke: #4169e1"/>
     <use xlink:href="#md00b822d84" x="295.814314" y="327.087188" style="fill: #4169e1; stroke: #4169e1"/>
     <use xlink:href="#md00b822d84" x="340.950232" y="116.368309" style="fill: #4169e1; stroke: #4169e1"/>
     <use xlink:href="#md00b822d84" x="279.729189" y="179.870836" style="fill: #4169e1; stroke: #4169e1"/>
     <use xlink:href="#md00b822d84" x="177.456359" y="179.678508" style="fill: #4169e1; stroke: #4169e1"/>
     <use xlink:href="#md00b822d84" x="434.486438" y="233.884761" style="fill: #4169e1; stroke: #4169e1"/>
     <use xlink:href="#md00b822d84" x="319.832691" y="334.142178" style="fill: #4169e1; stroke: #4169e1"/>
     <use xlink:href="#md00b822d84" x="252.54414" y="279.80754" style="fill: #4169e1; stroke: #4169e1"/>
     <use xlink:href="#md00b822d84" x="351.116075" y="265.568405" style="fill: #4169e1; stroke: #4169e1"/>
     <use xlink:href="#md00b822d84" x="260.330364" y="359.586499" style="fill: #4169e1; stroke: #4169e1"/>
     <use xlink:href="#md00b822d84" x="265.783452" y="181.319585" style="fill: #4169e1; stroke: #4169e1"/>
     <use xlink:href="#md00b822d84" x="370.313528" y="156.264278" style="fill: #4169e1; stroke: #4169e1"/>
     <use xlink:href="#md00b822d84" x="205.646888" y="201.101321" style="fill: #4169e1; stroke: #4169e1"/>
     <use xlink:href="#md00b822d84" x="285.706077" y="122.859621" style="fill: #4169e1; stroke: #4169e1"/>
     <use xlink:href="#md00b822d84" x="367.80767" y="175.958066" style="fill: #4169e1; stroke: #4169e1"/>
     <use xlink:href="#md00b822d84" x="318.483216" y="172.701149" style="fill: #4169e1; stroke: #4169e1"/>
     <use xlink:href="#md00b822d84" x="357.871667" y="306.324116" style="fill: #4169e1; stroke: #4169e1"/>
     <use xlink:href="#md00b822d84" x="211.804417" y="273.201396" style="fill: #4169e1; stroke: #4169e1"/>
     <use xlink:href="#md00b822d84" x="239.496791" y="316.227952" style="fill: #4169e1; stroke: #4169e1"/>
     <use xlink:href="#md00b822d84" x="401.503509" y="278.56864" style="fill: #4169e1; stroke: #4169e1"/>
     <use xlink:href="#md00b822d84" x="304.07862" y="158.704633" style="fill: #4169e1; stroke: #4169e1"/>
     <use xlink:href="#md00b822d84" x="370.853635" y="115.384343" style="fill: #4169e1; stroke: #4169e1"/>
     <use xlink:href="#md00b822d84" x="206.360083" y="343.045191" style="fill: #4169e1; stroke: #4169e1"/>
     <use xlink:href="#md00b822d84" x="243.438439" y="241.054524" style="fill: #4169e1; stroke: #4169e1"/>
     <use xlink:href="#md00b822d84" x="217.711835" y="297.253348" style="fill: #4169e1; stroke: #4169e1"/>
     <use xlink:href="#md00b822d84" x="378.926375" y="110.921532" style="fill: #4169e1; stroke: #4169e1"/>
     <use xlink:href="#md00b822d84" x="365.382427" y="238.841974" style="fill: #4169e1; stroke: #4169e1"/>
     <use xlink:href="#md00b822d84" x="375.052538" y="258.238079" style="fill: #4169e1; stroke: #4169e1"/>
     <use xlink:href="#md00b822d84" x="262.206286" y="144.993865" style="fill: #4169e1; stroke: #4169e1"/>
     <use xlink:href="#md00b822d84" x="242.209616" y="166.904562" style="fill: #4169e1; stroke: #4169e1"/>
     <use xlink:href="#md00b822d84" x="261.591169" y="198.126767" style="fill: #4169e1; stroke: #4169e1"/>
     <use xlink:href="#md00b822d84" x="348.475576" y="212.841407" style="fill: #4169e1; stroke: #4169e1"/>
     <use xlink:href="#md00b822d84" x="294.726519" y="163.314308" style="fill: #4169e1; stroke: #4169e1"/>
     <use xlink:href="#md00b822d84" x="230.443528" y="298.484405" style="fill: #4169e1; stroke: #4169e1"/>
     <use xlink:href="#md00b822d84" x="299.588987" y="347.407687" style="fill: #4169e1; stroke: #4169e1"/>
     <use xlink:href="#md00b822d84" x="250.29969" y="289.120151" style="fill: #4169e1; stroke: #4169e1"/>
     <use xlink:href="#md00b822d84" x="351.352304" y="208.281413" style="fill: #4169e1; stroke: #4169e1"/>
     <use xlink:href="#md00b822d84" x="343.629827" y="211.720601" style="fill: #4169e1; stroke: #4169e1"/>
     <use xlink:href="#md00b822d84" x="286.988734" y="305.879466" style="fill: #4169e1; stroke: #4169e1"/>
     <use xlink:href="#md00b822d84" x="252.837031" y="310.541535" style="fill: #4169e1; stroke: #4169e1"/>
     <use xlink:href="#md00b822d84" x="336.262033" y="257.95679" style="fill: #4169e1; stroke: #4169e1"/>
     <use xlink:href="#md00b822d84" x="220.65763" y="242.032102" style="fill: #4169e1; stroke: #4169e1"/>
     <use xlink:href="#md00b822d84" x="346.231433" y="237.614945" style="fill: #4169e1; stroke: #4169e1"/>
     <use xlink:href="#md00b822d84" x="440.598888" y="194.623997" style="fill: #4169e1; stroke: #4169e1"/>
     <use xlink:href="#md00b822d84" x="223.235265" y="155.525238" style="fill: #4169e1; stroke: #4169e1"/>
     <use xlink:href="#md00b822d84" x="333.3298" y="224.607972" style="fill: #4169e1; stroke: #4169e1"/>
     <use xlink:href="#md00b822d84" x="242.900782" y="306.733663" style="fill: #4169e1; stroke: #4169e1"/>
     <use xlink:href="#md00b822d84" x="234.819525" y="185.539847" style="fill: #4169e1; stroke: #4169e1"/>
     <use xlink:href="#md00b822d84" x="368.178757" y="275.485812" style="fill: #4169e1; stroke: #4169e1"/>
     <use xlink:href="#md00b822d84" x="335.276321" y="331.634256" style="fill: #4169e1; stroke: #4169e1"/>
     <use xlink:href="#md00b822d84" x="314.33511" y="187.094454" style="fill: #4169e1; stroke: #4169e1"/>
     <use xlink:href="#md00b822d84" x="368.534474" y="225.288893" style="fill: #4169e1; stroke: #4169e1"/>
     <use xlink:href="#md00b822d84" x="369.177638" y="337.02723" style="fill: #4169e1; stroke: #4169e1"/>
     <use xlink:href="#md00b822d84" x="209.708653" y="192.801884" style="fill: #4169e1; stroke: #4169e1"/>
     <use xlink:href="#md00b822d84" x="212.583175" y="344.42711" style="fill: #4169e1; stroke: #4169e1"/>
     <use xlink:href="#md00b822d84" x="337.55263" y="254.147848" style="fill: #4169e1; stroke: #4169e1"/>
     <use xlink:href="#md00b822d84" x="349.99598" y="159.825757" style="fill: #4169e1; stroke: #4169e1"/>
     <use xlink:href="#md00b822d84" x="167.70302" y="219.604417" style="fill: #4169e1; stroke: #4169e1"/>
     <use xlink:href="#md00b822d84" x="220.456741" y="188.403537" style="fill: #4169e1; stroke: #4169e1"/>
     <use xlink:href="#md00b822d84" x="390.580097" y="260.97696" style="fill: #4169e1; stroke: #4169e1"/>
     <use xlink:href="#md00b822d84" x="208.670622" y="261.924604" style="fill: #4169e1; stroke: #4169e1"/>
     <use xlink:href="#md00b822d84" x="179.654955" y="267.573153" style="fill: #4169e1; stroke: #4169e1"/>
     <use xlink:href="#md00b822d84" x="370.031144" y="213.093882" style="fill: #4169e1; stroke: #4169e1"/>
     <use xlink:href="#md00b822d84" x="249.275553" y="155.85375" style="fill: #4169e1; stroke: #4169e1"/>
     <use xlink:href="#md00b822d84" x="219.867397" y="339.99771" style="fill: #4169e1; stroke: #4169e1"/>
     <use xlink:href="#md00b822d84" x="209.784687" y="289.929546" style="fill: #4169e1; stroke: #4169e1"/>
     <use xlink:href="#md00b822d84" x="240.338208" y="154.292659" style="fill: #4169e1; stroke: #4169e1"/>
     <use xlink:href="#md00b822d84" x="240.492285" y="164.558168" style="fill: #4169e1; stroke: #4169e1"/>
     <use xlink:href="#md00b822d84" x="248.781741" y="123.481372" style="fill: #4169e1; stroke: #4169e1"/>
     <use xlink:href="#md00b822d84" x="217.786143" y="217.393223" style="fill: #4169e1; stroke: #4169e1"/>
     <use xlink:href="#md00b822d84" x="357.277664" y="193.803256" style="fill: #4169e1; stroke: #4169e1"/>
     <use xlink:href="#md00b822d84" x="198.605155" y="241.601805" style="fill: #4169e1; stroke: #4169e1"/>
     <use xlink:href="#md00b822d84" x="264.317952" y="182.957819" style="fill: #4169e1; stroke: #4169e1"/>
    </g>
   </g>
   <g id="PathCollection_2">
    <defs>
     <path id="mc7cf08e437" d="M 0 2.5 
C 0.663008 2.5 1.29895 2.236584 1.767767 1.767767 
C 2.236584 1.29895 2.5 0.663008 2.5 0 
C 2.5 -0.663008 2.236584 -1.29895 1.767767 -1.767767 
C 1.29895 -2.236584 0.663008 -2.5 0 -2.5 
C -0.663008 -2.5 -1.29895 -2.236584 -1.767767 -1.767767 
C -2.236584 -1.29895 -2.5 -0.663008 -2.5 0 
C -2.5 0.663008 -2.236584 1.29895 -1.767767 1.767767 
C -1.29895 2.236584 -0.663008 2.5 0 2.5 
z
" style="stroke: #b22222"/>
    </defs>
    <g clip-path="url(#p77f4f5c3ff)">
     <use xlink:href="#mc7cf08e437" x="237.349906" y="230.460551" style="fill: #b22222; stroke: #b22222"/>
     <use xlink:href="#mc7cf08e437" x="260.928023" y="266.540717" style="fill: #b22222; stroke: #b22222"/>
     <use xlink:href="#mc7cf08e437" x="246.747916" y="243.529646" style="fill: #b22222; stroke: #b22222"/>
     <use xlink:href="#mc7cf08e437" x="234.671379" y="227.524439" style="fill: #b22222; stroke: #b22222"/>
     <use xlink:href="#mc7cf08e437" x="278.478729" y="262.232417" style="fill: #b22222; stroke: #b22222"/>
     <use xlink:href="#mc7cf08e437" x="267.982994" y="261.462869" style="fill: #b22222; stroke: #b22222"/>
     <use xlink:href="#mc7cf08e437" x="245.685748" y="239.83251" style="fill: #b22222; stroke: #b22222"/>
     <use xlink:href="#mc7cf08e437" x="268.896404" y="263.029514" style="fill: #b22222; stroke: #b22222"/>
     <use xlink:href="#mc7cf08e437" x="275.096008" y="258.61043" style="fill: #b22222; stroke: #b22222"/>
     <use xlink:href="#mc7cf08e437" x="240.864678" y="245.554488" style="fill: #b22222; stroke: #b22222"/>
     <use xlink:href="#mc7cf08e437" x="282.544127" y="253.144345" style="fill: #b22222; stroke: #b22222"/>
     <use xlink:href="#mc7cf08e437" x="241.121118" y="268.089761" style="fill: #b22222; stroke: #b22222"/>
     <use xlink:href="#mc7cf08e437" x="246.563662" y="237.669919" style="fill: #b22222; stroke: #b22222"/>
     <use xlink:href="#mc7cf08e437" x="285.315034" y="242.093319" style="fill: #b22222; stroke: #b22222"/>
     <use xlink:href="#mc7cf08e437" x="272.758224" y="256.293137" style="fill: #b22222; stroke: #b22222"/>
     <use xlink:href="#mc7cf08e437" x="252.551639" y="251.764471" style="fill: #b22222; stroke: #b22222"/>
     <use xlink:href="#mc7cf08e437" x="260.272097" y="250.624803" style="fill: #b22222; stroke: #b22222"/>
     <use xlink:href="#mc7cf08e437" x="238.193308" y="235.499173" style="fill: #b22222; stroke: #b22222"/>
     <use xlink:href="#mc7cf08e437" x="259.486366" y="253.836758" style="fill: #b22222; stroke: #b22222"/>
     <use xlink:href="#mc7cf08e437" x="249.391273" y="245.927405" style="fill: #b22222; stroke: #b22222"/>
     <use xlink:href="#mc7cf08e437" x="276.253925" y="260.93018" style="fill: #b22222; stroke: #b22222"/>
     <use xlink:href="#mc7cf08e437" x="248.116307" y="252.813776" style="fill: #b22222; stroke: #b22222"/>
     <use xlink:href="#mc7cf08e437" x="284.338965" y="260.600252" style="fill: #b22222; stroke: #b22222"/>
     <use xlink:href="#mc7cf08e437" x="242.18909" y="241.135186" style="fill: #b22222; stroke: #b22222"/>
     <use xlink:href="#mc7cf08e437" x="256.888075" y="243.221479" style="fill: #b22222; stroke: #b22222"/>
     <use xlink:href="#mc7cf08e437" x="262.414095" y="250.658133" style="fill: #b22222; stroke: #b22222"/>
     <use xlink:href="#mc7cf08e437" x="275.22765" y="257.239294" style="fill: #b22222; stroke: #b22222"/>
     <use xlink:href="#mc7cf08e437" x="266.093157" y="248.568449" style="fill: #b22222; stroke: #b22222"/>
     <use xlink:href="#mc7cf08e437" x="263.619609" y="257.096113" style="fill: #b22222; stroke: #b22222"/>
     <use xlink:href="#mc7cf08e437" x="273.598679" y="271.014445" style="fill: #b22222; stroke: #b22222"/>
     <use xlink:href="#mc7cf08e437" x="247.512372" y="237.563323" style="fill: #b22222; stroke: #b22222"/>
     <use xlink:href="#mc7cf08e437" x="240.132693" y="247.027145" style="fill: #b22222; stroke: #b22222"/>
     <use xlink:href="#mc7cf08e437" x="256.988812" y="222.240172" style="fill: #b22222; stroke: #b22222"/>
     <use xlink:href="#mc7cf08e437" x="247.129293" y="243.329534" style="fill: #b22222; stroke: #b22222"/>
     <use xlink:href="#mc7cf08e437" x="241.533629" y="230.245602" style="fill: #b22222; stroke: #b22222"/>
     <use xlink:href="#mc7cf08e437" x="275.263887" y="260.921072" style="fill: #b22222; stroke: #b22222"/>
     <use xlink:href="#mc7cf08e437" x="297.779281" y="271.171684" style="fill: #b22222; stroke: #b22222"/>
     <use xlink:href="#mc7cf08e437" x="270.97439" y="251.313057" style="fill: #b22222; stroke: #b22222"/>
     <use xlink:href="#mc7cf08e437" x="247.539591" y="244.086436" style="fill: #b22222; stroke: #b22222"/>
     <use xlink:href="#mc7cf08e437" x="270.044532" y="257.201642" style="fill: #b22222; stroke: #b22222"/>
     <use xlink:href="#mc7cf08e437" x="241.8958" y="238.598102" style="fill: #b22222; stroke: #b22222"/>
     <use xlink:href="#mc7cf08e437" x="248.152486" y="235.824067" style="fill: #b22222; stroke: #b22222"/>
     <use xlink:href="#mc7cf08e437" x="254.605579" y="250.854481" style="fill: #b22222; stroke: #b22222"/>
     <use xlink:href="#mc7cf08e437" x="276.393558" y="263.372213" style="fill: #b22222; stroke: #b22222"/>
     <use xlink:href="#mc7cf08e437" x="293.492612" y="269.430934" style="fill: #b22222; stroke: #b22222"/>
     <use xlink:href="#mc7cf08e437" x="247.005991" y="243.881649" style="fill: #b22222; stroke: #b22222"/>
     <use xlink:href="#mc7cf08e437" x="246.429485" y="239.118508" style="fill: #b22222; stroke: #b22222"/>
     <use xlink:href="#mc7cf08e437" x="279.736643" y="255.786077" style="fill: #b22222; stroke: #b22222"/>
     <use xlink:href="#mc7cf08e437" x="271.931436" y="256.557062" style="fill: #b22222; stroke: #b22222"/>
     <use xlink:href="#mc7cf08e437" x="271.206939" y="258.662208" style="fill: #b22222; stroke: #b22222"/>
     <use xlink:href="#mc7cf08e437" x="270.478722" y="268.852917" style="fill: #b22222; stroke: #b22222"/>
     <use xlink:href="#mc7cf08e437" x="283.044978" y="260.460977" style="fill: #b22222; stroke: #b22222"/>
     <use xlink:href="#mc7cf08e437" x="246.803485" y="238.662947" style="fill: #b22222; stroke: #b22222"/>
     <use xlink:href="#mc7cf08e437" x="254.36242" y="279.263657" style="fill: #b22222; stroke: #b22222"/>
     <use xlink:href="#mc7cf08e437" x="255.373054" y="259.18362" style="fill: #b22222; stroke: #b22222"/>
     <use xlink:href="#mc7cf08e437" x="303.441243" y="285.015821" style="fill: #b22222; stroke: #b22222"/>
     <use xlink:href="#mc7cf08e437" x="344.060739" y="284.25102" style="fill: #b22222; stroke: #b22222"/>
     <use xlink:href="#mc7cf08e437" x="265.388388" y="259.164781" style="fill: #b22222; stroke: #b22222"/>
     <use xlink:href="#mc7cf08e437" x="243.14301" y="253.44413" style="fill: #b22222; stroke: #b22222"/>
     <use xlink:href="#mc7cf08e437" x="245.210329" y="251.722211" style="fill: #b22222; stroke: #b22222"/>
     <use xlink:href="#mc7cf08e437" x="259.3088" y="259.462571" style="fill: #b22222; stroke: #b22222"/>
     <use xlink:href="#mc7cf08e437" x="267.50842" y="256.802974" style="fill: #b22222; stroke: #b22222"/>
     <use xlink:href="#mc7cf08e437" x="270.555016" y="259.03654" style="fill: #b22222; stroke: #b22222"/>
     <use xlink:href="#mc7cf08e437" x="283.27706" y="256.450877" style="fill: #b22222; stroke: #b22222"/>
     <use xlink:href="#mc7cf08e437" x="242.317183" y="233.376813" style="fill: #b22222; stroke: #b22222"/>
     <use xlink:href="#mc7cf08e437" x="270.520239" y="261.293675" style="fill: #b22222; stroke: #b22222"/>
     <use xlink:href="#mc7cf08e437" x="241.400176" y="234.943801" style="fill: #b22222; stroke: #b22222"/>
     <use xlink:href="#mc7cf08e437" x="295.461084" y="236.87448" style="fill: #b22222; stroke: #b22222"/>
     <use xlink:href="#mc7cf08e437" x="270.538453" y="256.756855" style="fill: #b22222; stroke: #b22222"/>
     <use xlink:href="#mc7cf08e437" x="277.5508" y="265.458924" style="fill: #b22222; stroke: #b22222"/>
     <use xlink:href="#mc7cf08e437" x="301.831194" y="273.495427" style="fill: #b22222; stroke: #b22222"/>
     <use xlink:href="#mc7cf08e437" x="275.578804" y="253.886" style="fill: #b22222; stroke: #b22222"/>
     <use xlink:href="#mc7cf08e437" x="261.78903" y="241.802452" style="fill: #b22222; stroke: #b22222"/>
     <use xlink:href="#mc7cf08e437" x="295.907709" y="270.650767" style="fill: #b22222; stroke: #b22222"/>
     <use xlink:href="#mc7cf08e437" x="263.759901" y="243.583783" style="fill: #b22222; stroke: #b22222"/>
     <use xlink:href="#mc7cf08e437" x="271.862491" y="260.718505" style="fill: #b22222; stroke: #b22222"/>
     <use xlink:href="#mc7cf08e437" x="268.949586" y="256.038947" style="fill: #b22222; stroke: #b22222"/>
     <use xlink:href="#mc7cf08e437" x="243.154041" y="232.649888" style="fill: #b22222; stroke: #b22222"/>
     <use xlink:href="#mc7cf08e437" x="239.775135" y="239.858294" style="fill: #b22222; stroke: #b22222"/>
     <use xlink:href="#mc7cf08e437" x="241.951277" y="242.841194" style="fill: #b22222; stroke: #b22222"/>
     <use xlink:href="#mc7cf08e437" x="258.752992" y="253.674743" style="fill: #b22222; stroke: #b22222"/>
     <use xlink:href="#mc7cf08e437" x="240.468203" y="235.393916" style="fill: #b22222; stroke: #b22222"/>
     <use xlink:href="#mc7cf08e437" x="263.058825" y="257.890287" style="fill: #b22222; stroke: #b22222"/>
     <use xlink:href="#mc7cf08e437" x="257.400145" y="250.729805" style="fill: #b22222; stroke: #b22222"/>
     <use xlink:href="#mc7cf08e437" x="240.121868" y="227.964704" style="fill: #b22222; stroke: #b22222"/>
     <use xlink:href="#mc7cf08e437" x="273.735441" y="261.802923" style="fill: #b22222; stroke: #b22222"/>
     <use xlink:href="#mc7cf08e437" x="250.158977" y="238.158568" style="fill: #b22222; stroke: #b22222"/>
     <use xlink:href="#mc7cf08e437" x="267.481734" y="265.516379" style="fill: #b22222; stroke: #b22222"/>
     <use xlink:href="#mc7cf08e437" x="265.151693" y="253.66223" style="fill: #b22222; stroke: #b22222"/>
     <use xlink:href="#mc7cf08e437" x="271.712054" y="265.267607" style="fill: #b22222; stroke: #b22222"/>
     <use xlink:href="#mc7cf08e437" x="239.3961" y="226.628287" style="fill: #b22222; stroke: #b22222"/>
     <use xlink:href="#mc7cf08e437" x="261.804637" y="261.673096" style="fill: #b22222; stroke: #b22222"/>
     <use xlink:href="#mc7cf08e437" x="256.239154" y="260.199934" style="fill: #b22222; stroke: #b22222"/>
     <use xlink:href="#mc7cf08e437" x="244.487" y="252.888105" style="fill: #b22222; stroke: #b22222"/>
     <use xlink:href="#mc7cf08e437" x="264.235093" y="258.857022" style="fill: #b22222; stroke: #b22222"/>
     <use xlink:href="#mc7cf08e437" x="260.894858" y="224.510715" style="fill: #b22222; stroke: #b22222"/>
     <use xlink:href="#mc7cf08e437" x="250.893944" y="243.36161" style="fill: #b22222; stroke: #b22222"/>
     <use xlink:href="#mc7cf08e437" x="259.884306" y="251.066796" style="fill: #b22222; stroke: #b22222"/>
     <use xlink:href="#mc7cf08e437" x="269.392285" y="256.27335" style="fill: #b22222; stroke: #b22222"/>
     <use xlink:href="#mc7cf08e437" x="248.373357" y="236.866368" style="fill: #b22222; stroke: #b22222"/>
     <use xlink:href="#mc7cf08e437" x="252.644778" y="236.674944" style="fill: #b22222; stroke: #b22222"/>
     <use xlink:href="#mc7cf08e437" x="242.736637" y="252.840758" style="fill: #b22222; stroke: #b22222"/>
     <use xlink:href="#mc7cf08e437" x="273.227617" y="261.962731" style="fill: #b22222; stroke: #b22222"/>
     <use xlink:href="#mc7cf08e437" x="261.507825" y="251.694412" style="fill: #b22222; stroke: #b22222"/>
     <use xlink:href="#mc7cf08e437" x="250.514234" y="238.584272" style="fill: #b22222; stroke: #b22222"/>
     <use xlink:href="#mc7cf08e437" x="266.086254" y="262.586708" style="fill: #b22222; stroke: #b22222"/>
     <use xlink:href="#mc7cf08e437" x="263.837258" y="255.020136" style="fill: #b22222; stroke: #b22222"/>
     <use xlink:href="#mc7cf08e437" x="253.513774" y="243.803837" style="fill: #b22222; stroke: #b22222"/>
     <use xlink:href="#mc7cf08e437" x="280.530507" y="269.016633" style="fill: #b22222; stroke: #b22222"/>
     <use xlink:href="#mc7cf08e437" x="301.370807" y="283.35459" style="fill: #b22222; stroke: #b22222"/>
     <use xlink:href="#mc7cf08e437" x="276.392903" y="254.163794" style="fill: #b22222; stroke: #b22222"/>
     <use xlink:href="#mc7cf08e437" x="237.719686" y="240.701313" style="fill: #b22222; stroke: #b22222"/>
     <use xlink:href="#mc7cf08e437" x="253.095549" y="239.375886" style="fill: #b22222; stroke: #b22222"/>
     <use xlink:href="#mc7cf08e437" x="266.709497" y="257.972256" style="fill: #b22222; stroke: #b22222"/>
     <use xlink:href="#mc7cf08e437" x="243.638143" y="234.504263" style="fill: #b22222; stroke: #b22222"/>
     <use xlink:href="#mc7cf08e437" x="272.442563" y="254.634469" style="fill: #b22222; stroke: #b22222"/>
     <use xlink:href="#mc7cf08e437" x="233.516262" y="219.983261" style="fill: #b22222; stroke: #b22222"/>
     <use xlink:href="#mc7cf08e437" x="269.063301" y="253.271452" style="fill: #b22222; stroke: #b22222"/>
    </g>
   </g>
   <g id="matplotlib.axis_1">
    <g id="xtick_1">
     <g id="line2d_1">
      <defs>
       <path id="m6de421df39" d="M 0 0 
L 0 3.5 
" style="stroke: #000000; stroke-width: 0.8"/>
      </defs>
      <g>
       <use xlink:href="#m6de421df39" x="99.697313" y="465.838125" style="stroke: #000000; stroke-width: 0.8"/>
      </g>
     </g>
     <g id="text_1">
      <!-- −400 -->
      <g transform="translate(85.963719 480.436562) scale(0.1 -0.1)">
       <defs>
        <path id="DejaVuSans-2212" d="M 678 2272 
L 4684 2272 
L 4684 1741 
L 678 1741 
L 678 2272 
z
" transform="scale(0.015625)"/>
        <path id="DejaVuSans-34" d="M 2419 4116 
L 825 1625 
L 2419 1625 
L 2419 4116 
z
M 2253 4666 
L 3047 4666 
L 3047 1625 
L 3713 1625 
L 3713 1100 
L 3047 1100 
L 3047 0 
L 2419 0 
L 2419 1100 
L 313 1100 
L 313 1709 
L 2253 4666 
z
" transform="scale(0.015625)"/>
        <path id="DejaVuSans-30" d="M 2034 4250 
Q 1547 4250 1301 3770 
Q 1056 3291 1056 2328 
Q 1056 1369 1301 889 
Q 1547 409 2034 409 
Q 2525 409 2770 889 
Q 3016 1369 3016 2328 
Q 3016 3291 2770 3770 
Q 2525 4250 2034 4250 
z
M 2034 4750 
Q 2819 4750 3233 4129 
Q 3647 3509 3647 2328 
Q 3647 1150 3233 529 
Q 2819 -91 2034 -91 
Q 1250 -91 836 529 
Q 422 1150 422 2328 
Q 422 3509 836 4129 
Q 1250 4750 2034 4750 
z
" transform="scale(0.015625)"/>
       </defs>
       <use xlink:href="#DejaVuSans-2212"/>
       <use xlink:href="#DejaVuSans-34" x="83.789062"/>
       <use xlink:href="#DejaVuSans-30" x="147.412109"/>
       <use xlink:href="#DejaVuSans-30" x="211.035156"/>
      </g>
     </g>
    </g>
    <g id="xtick_2">
     <g id="line2d_2">
      <g>
       <use xlink:href="#m6de421df39" x="188.401313" y="465.838125" style="stroke: #000000; stroke-width: 0.8"/>
      </g>
     </g>
     <g id="text_2">
      <!-- −200 -->
      <g transform="translate(174.667719 480.436562) scale(0.1 -0.1)">
       <defs>
        <path id="DejaVuSans-32" d="M 1228 531 
L 3431 531 
L 3431 0 
L 469 0 
L 469 531 
Q 828 903 1448 1529 
Q 2069 2156 2228 2338 
Q 2531 2678 2651 2914 
Q 2772 3150 2772 3378 
Q 2772 3750 2511 3984 
Q 2250 4219 1831 4219 
Q 1534 4219 1204 4116 
Q 875 4013 500 3803 
L 500 4441 
Q 881 4594 1212 4672 
Q 1544 4750 1819 4750 
Q 2544 4750 2975 4387 
Q 3406 4025 3406 3419 
Q 3406 3131 3298 2873 
Q 3191 2616 2906 2266 
Q 2828 2175 2409 1742 
Q 1991 1309 1228 531 
z
" transform="scale(0.015625)"/>
       </defs>
       <use xlink:href="#DejaVuSans-2212"/>
       <use xlink:href="#DejaVuSans-32" x="83.789062"/>
       <use xlink:href="#DejaVuSans-30" x="147.412109"/>
       <use xlink:href="#DejaVuSans-30" x="211.035156"/>
      </g>
     </g>
    </g>
    <g id="xtick_3">
     <g id="line2d_3">
      <g>
       <use xlink:href="#m6de421df39" x="277.105313" y="465.838125" style="stroke: #000000; stroke-width: 0.8"/>
      </g>
     </g>
     <g id="text_3">
      <!-- 0 -->
      <g transform="translate(273.924063 480.436562) scale(0.1 -0.1)">
       <use xlink:href="#DejaVuSans-30"/>
      </g>
     </g>
    </g>
    <g id="xtick_4">
     <g id="line2d_4">
      <g>
       <use xlink:href="#m6de421df39" x="365.809313" y="465.838125" style="stroke: #000000; stroke-width: 0.8"/>
      </g>
     </g>
     <g id="text_4">
      <!-- 200 -->
      <g transform="translate(356.265563 480.436562) scale(0.1 -0.1)">
       <use xlink:href="#DejaVuSans-32"/>
       <use xlink:href="#DejaVuSans-30" x="63.623047"/>
       <use xlink:href="#DejaVuSans-30" x="127.246094"/>
      </g>
     </g>
    </g>
    <g id="xtick_5">
     <g id="line2d_5">
      <g>
       <use xlink:href="#m6de421df39" x="454.513313" y="465.838125" style="stroke: #000000; stroke-width: 0.8"/>
      </g>
     </g>
     <g id="text_5">
      <!-- 400 -->
      <g transform="translate(444.969563 480.436562) scale(0.1 -0.1)">
       <use xlink:href="#DejaVuSans-34"/>
       <use xlink:href="#DejaVuSans-30" x="63.623047"/>
       <use xlink:href="#DejaVuSans-30" x="127.246094"/>
      </g>
     </g>
    </g>
    <g id="text_6">
     <!-- x -->
     <g transform="translate(274.145938 494.114687) scale(0.1 -0.1)">
      <defs>
       <path id="DejaVuSans-78" d="M 3513 3500 
L 2247 1797 
L 3578 0 
L 2900 0 
L 1881 1375 
L 863 0 
L 184 0 
L 1544 1831 
L 300 3500 
L 978 3500 
L 1906 2253 
L 2834 3500 
L 3513 3500 
z
" transform="scale(0.015625)"/>
      </defs>
      <use xlink:href="#DejaVuSans-78"/>
     </g>
    </g>
   </g>
   <g id="matplotlib.axis_2">
    <g id="ytick_1">
     <g id="line2d_6">
      <defs>
       <path id="mac789b82b9" d="M 0 0 
L -3.5 0 
" style="stroke: #000000; stroke-width: 0.8"/>
      </defs>
      <g>
       <use xlink:href="#mac789b82b9" x="55.345313" y="421.486125" style="stroke: #000000; stroke-width: 0.8"/>
      </g>
     </g>
     <g id="text_7">
      <!-- −400 -->
      <g transform="translate(20.878125 425.285344) scale(0.1 -0.1)">
       <use xlink:href="#DejaVuSans-2212"/>
       <use xlink:href="#DejaVuSans-34" x="83.789062"/>
       <use xlink:href="#DejaVuSans-30" x="147.412109"/>
       <use xlink:href="#DejaVuSans-30" x="211.035156"/>
      </g>
     </g>
    </g>
    <g id="ytick_2">
     <g id="line2d_7">
      <g>
       <use xlink:href="#mac789b82b9" x="55.345313" y="332.782125" style="stroke: #000000; stroke-width: 0.8"/>
      </g>
     </g>
     <g id="text_8">
      <!-- −200 -->
      <g transform="translate(20.878125 336.581344) scale(0.1 -0.1)">
       <use xlink:href="#DejaVuSans-2212"/>
       <use xlink:href="#DejaVuSans-32" x="83.789062"/>
       <use xlink:href="#DejaVuSans-30" x="147.412109"/>
       <use xlink:href="#DejaVuSans-30" x="211.035156"/>
      </g>
     </g>
    </g>
    <g id="ytick_3">
     <g id="line2d_8">
      <g>
       <use xlink:href="#mac789b82b9" x="55.345313" y="244.078125" style="stroke: #000000; stroke-width: 0.8"/>
      </g>
     </g>
     <g id="text_9">
      <!-- 0 -->
      <g transform="translate(41.982813 247.877344) scale(0.1 -0.1)">
       <use xlink:href="#DejaVuSans-30"/>
      </g>
     </g>
    </g>
    <g id="ytick_4">
     <g id="line2d_9">
      <g>
       <use xlink:href="#mac789b82b9" x="55.345313" y="155.374125" style="stroke: #000000; stroke-width: 0.8"/>
      </g>
     </g>
     <g id="text_10">
      <!-- 200 -->
      <g transform="translate(29.257813 159.173344) scale(0.1 -0.1)">
       <use xlink:href="#DejaVuSans-32"/>
       <use xlink:href="#DejaVuSans-30" x="63.623047"/>
       <use xlink:href="#DejaVuSans-30" x="127.246094"/>
      </g>
     </g>
    </g>
    <g id="ytick_5">
     <g id="line2d_10">
      <g>
       <use xlink:href="#mac789b82b9" x="55.345313" y="66.670125" style="stroke: #000000; stroke-width: 0.8"/>
      </g>
     </g>
     <g id="text_11">
      <!-- 400 -->
      <g transform="translate(29.257813 70.469344) scale(0.1 -0.1)">
       <use xlink:href="#DejaVuSans-34"/>
       <use xlink:href="#DejaVuSans-30" x="63.623047"/>
       <use xlink:href="#DejaVuSans-30" x="127.246094"/>
      </g>
     </g>
    </g>
    <g id="text_12">
     <!-- y -->
     <g transform="translate(14.798438 247.0375) rotate(-90) scale(0.1 -0.1)">
      <defs>
       <path id="DejaVuSans-79" d="M 2059 -325 
Q 1816 -950 1584 -1140 
Q 1353 -1331 966 -1331 
L 506 -1331 
L 506 -850 
L 844 -850 
Q 1081 -850 1212 -737 
Q 1344 -625 1503 -206 
L 1606 56 
L 191 3500 
L 800 3500 
L 1894 763 
L 2988 3500 
L 3597 3500 
L 2059 -325 
z
" transform="scale(0.015625)"/>
      </defs>
      <use xlink:href="#DejaVuSans-79"/>
     </g>
    </g>
   </g>
   <g id="patch_4">
    <path d="M 55.345313 465.838125 
L 55.345313 22.318125 
" style="fill: none; stroke: #000000; stroke-width: 0.8; stroke-linejoin: miter; stroke-linecap: square"/>
   </g>
   <g id="patch_5">
    <path d="M 498.865313 465.838125 
L 498.865313 22.318125 
" style="fill: none; stroke: #000000; stroke-width: 0.8; stroke-linejoin: miter; stroke-linecap: square"/>
   </g>
   <g id="patch_6">
    <path d="M 55.345313 465.838125 
L 498.865313 465.838125 
" style="fill: none; stroke: #000000; stroke-width: 0.8; stroke-linejoin: miter; stroke-linecap: square"/>
   </g>
   <g id="patch_7">
    <path d="M 55.345313 22.318125 
L 498.865313 22.318125 
" style="fill: none; stroke: #000000; stroke-width: 0.8; stroke-linejoin: miter; stroke-linecap: square"/>
   </g>
   <g id="text_13">
    <!-- t = 300 -->
    <g transform="translate(64.215713 38.786962) scale(0.1 -0.1)">
     <defs>
      <path id="DejaVuSans-74" d="M 1172 4494 
L 1172 3500 
L 2356 3500 
L 2356 3053 
L 1172 3053 
L 1172 1153 
Q 1172 725 1289 603 
Q 1406 481 1766 481 
L 2356 481 
L 2356 0 
L 1766 0 
Q 1100 0 847 248 
Q 594 497 594 1153 
L 594 3053 
L 172 3053 
L 172 3500 
L 594 3500 
L 594 4494 
L 1172 4494 
z
" transform="scale(0.015625)"/>
      <path id="DejaVuSans-20" transform="scale(0.015625)"/>
      <path id="DejaVuSans-3d" d="M 678 2906 
L 4684 2906 
L 4684 2381 
L 678 2381 
L 678 2906 
z
M 678 1631 
L 4684 1631 
L 4684 1100 
L 678 1100 
L 678 1631 
z
" transform="scale(0.015625)"/>
      <path id="DejaVuSans-33" d="M 2597 2516 
Q 3050 2419 3304 2112 
Q 3559 1806 3559 1356 
Q 3559 666 3084 287 
Q 2609 -91 1734 -91 
Q 1441 -91 1130 -33 
Q 819 25 488 141 
L 488 750 
Q 750 597 1062 519 
Q 1375 441 1716 441 
Q 2309 441 2620 675 
Q 2931 909 2931 1356 
Q 2931 1769 2642 2001 
Q 2353 2234 1838 2234 
L 1294 2234 
L 1294 2753 
L 1863 2753 
Q 2328 2753 2575 2939 
Q 2822 3125 2822 3475 
Q 2822 3834 2567 4026 
Q 2313 4219 1838 4219 
Q 1578 4219 1281 4162 
Q 984 4106 628 3988 
L 628 4550 
Q 988 4650 1302 4700 
Q 1616 4750 1894 4750 
Q 2613 4750 3031 4423 
Q 3450 4097 3450 3541 
Q 3450 3153 3228 2886 
Q 3006 2619 2597 2516 
z
" transform="scale(0.015625)"/>
     </defs>
     <use xlink:href="#DejaVuSans-74"/>
     <use xlink:href="#DejaVuSans-20" x="39.208984"/>
     <use xlink:href="#DejaVuSans-3d" x="70.996094"/>
     <use xlink:href="#DejaVuSans-20" x="154.785156"/>
     <use xlink:href="#DejaVuSans-33" x="186.572266"/>
     <use xlink:href="#DejaVuSans-30" x="250.195312"/>
     <use xlink:href="#DejaVuSans-30" x="313.818359"/>
    </g>
   </g>
   <g id="text_14">
    <!-- Evaluation trajectory 5 -->
    <g transform="translate(208.620938 16.318125) scale(0.12 -0.12)">
     <defs>
      <path id="DejaVuSans-45" d="M 628 4666 
L 3578 4666 
L 3578 4134 
L 1259 4134 
L 1259 2753 
L 3481 2753 
L 3481 2222 
L 1259 2222 
L 1259 531 
L 3634 531 
L 3634 0 
L 628 0 
L 628 4666 
z
" transform="scale(0.015625)"/>
      <path id="DejaVuSans-76" d="M 191 3500 
L 800 3500 
L 1894 563 
L 2988 3500 
L 3597 3500 
L 2284 0 
L 1503 0 
L 191 3500 
z
" transform="scale(0.015625)"/>
      <path id="DejaVuSans-61" d="M 2194 1759 
Q 1497 1759 1228 1600 
Q 959 1441 959 1056 
Q 959 750 1161 570 
Q 1363 391 1709 391 
Q 2188 391 2477 730 
Q 2766 1069 2766 1631 
L 2766 1759 
L 2194 1759 
z
M 3341 1997 
L 3341 0 
L 2766 0 
L 2766 531 
Q 2569 213 2275 61 
Q 1981 -91 1556 -91 
Q 1019 -91 701 211 
Q 384 513 384 1019 
Q 384 1609 779 1909 
Q 1175 2209 1959 2209 
L 2766 2209 
L 2766 2266 
Q 2766 2663 2505 2880 
Q 2244 3097 1772 3097 
Q 1472 3097 1187 3025 
Q 903 2953 641 2809 
L 641 3341 
Q 956 3463 1253 3523 
Q 1550 3584 1831 3584 
Q 2591 3584 2966 3190 
Q 3341 2797 3341 1997 
z
" transform="scale(0.015625)"/>
      <path id="DejaVuSans-6c" d="M 603 4863 
L 1178 4863 
L 1178 0 
L 603 0 
L 603 4863 
z
" transform="scale(0.015625)"/>
      <path id="DejaVuSans-75" d="M 544 1381 
L 544 3500 
L 1119 3500 
L 1119 1403 
Q 1119 906 1312 657 
Q 1506 409 1894 409 
Q 2359 409 2629 706 
Q 2900 1003 2900 1516 
L 2900 3500 
L 3475 3500 
L 3475 0 
L 2900 0 
L 2900 538 
Q 2691 219 2414 64 
Q 2138 -91 1772 -91 
Q 1169 -91 856 284 
Q 544 659 544 1381 
z
M 1991 3584 
L 1991 3584 
z
" transform="scale(0.015625)"/>
      <path id="DejaVuSans-69" d="M 603 3500 
L 1178 3500 
L 1178 0 
L 603 0 
L 603 3500 
z
M 603 4863 
L 1178 4863 
L 1178 4134 
L 603 4134 
L 603 4863 
z
" transform="scale(0.015625)"/>
      <path id="DejaVuSans-6f" d="M 1959 3097 
Q 1497 3097 1228 2736 
Q 959 2375 959 1747 
Q 959 1119 1226 758 
Q 1494 397 1959 397 
Q 2419 397 2687 759 
Q 2956 1122 2956 1747 
Q 2956 2369 2687 2733 
Q 2419 3097 1959 3097 
z
M 1959 3584 
Q 2709 3584 3137 3096 
Q 3566 2609 3566 1747 
Q 3566 888 3137 398 
Q 2709 -91 1959 -91 
Q 1206 -91 779 398 
Q 353 888 353 1747 
Q 353 2609 779 3096 
Q 1206 3584 1959 3584 
z
" transform="scale(0.015625)"/>
      <path id="DejaVuSans-6e" d="M 3513 2113 
L 3513 0 
L 2938 0 
L 2938 2094 
Q 2938 2591 2744 2837 
Q 2550 3084 2163 3084 
Q 1697 3084 1428 2787 
Q 1159 2491 1159 1978 
L 1159 0 
L 581 0 
L 581 3500 
L 1159 3500 
L 1159 2956 
Q 1366 3272 1645 3428 
Q 1925 3584 2291 3584 
Q 2894 3584 3203 3211 
Q 3513 2838 3513 2113 
z
" transform="scale(0.015625)"/>
      <path id="DejaVuSans-72" d="M 2631 2963 
Q 2534 3019 2420 3045 
Q 2306 3072 2169 3072 
Q 1681 3072 1420 2755 
Q 1159 2438 1159 1844 
L 1159 0 
L 581 0 
L 581 3500 
L 1159 3500 
L 1159 2956 
Q 1341 3275 1631 3429 
Q 1922 3584 2338 3584 
Q 2397 3584 2469 3576 
Q 2541 3569 2628 3553 
L 2631 2963 
z
" transform="scale(0.015625)"/>
      <path id="DejaVuSans-6a" d="M 603 3500 
L 1178 3500 
L 1178 -63 
Q 1178 -731 923 -1031 
Q 669 -1331 103 -1331 
L -116 -1331 
L -116 -844 
L 38 -844 
Q 366 -844 484 -692 
Q 603 -541 603 -63 
L 603 3500 
z
M 603 4863 
L 1178 4863 
L 1178 4134 
L 603 4134 
L 603 4863 
z
" transform="scale(0.015625)"/>
      <path id="DejaVuSans-65" d="M 3597 1894 
L 3597 1613 
L 953 1613 
Q 991 1019 1311 708 
Q 1631 397 2203 397 
Q 2534 397 2845 478 
Q 3156 559 3463 722 
L 3463 178 
Q 3153 47 2828 -22 
Q 2503 -91 2169 -91 
Q 1331 -91 842 396 
Q 353 884 353 1716 
Q 353 2575 817 3079 
Q 1281 3584 2069 3584 
Q 2775 3584 3186 3129 
Q 3597 2675 3597 1894 
z
M 3022 2063 
Q 3016 2534 2758 2815 
Q 2500 3097 2075 3097 
Q 1594 3097 1305 2825 
Q 1016 2553 972 2059 
L 3022 2063 
z
" transform="scale(0.015625)"/>
      <path id="DejaVuSans-63" d="M 3122 3366 
L 3122 2828 
Q 2878 2963 2633 3030 
Q 2388 3097 2138 3097 
Q 1578 3097 1268 2742 
Q 959 2388 959 1747 
Q 959 1106 1268 751 
Q 1578 397 2138 397 
Q 2388 397 2633 464 
Q 2878 531 3122 666 
L 3122 134 
Q 2881 22 2623 -34 
Q 2366 -91 2075 -91 
Q 1284 -91 818 406 
Q 353 903 353 1747 
Q 353 2603 823 3093 
Q 1294 3584 2113 3584 
Q 2378 3584 2631 3529 
Q 2884 3475 3122 3366 
z
" transform="scale(0.015625)"/>
      <path id="DejaVuSans-35" d="M 691 4666 
L 3169 4666 
L 3169 4134 
L 1269 4134 
L 1269 2991 
Q 1406 3038 1543 3061 
Q 1681 3084 1819 3084 
Q 2600 3084 3056 2656 
Q 3513 2228 3513 1497 
Q 3513 744 3044 326 
Q 2575 -91 1722 -91 
Q 1428 -91 1123 -41 
Q 819 9 494 109 
L 494 744 
Q 775 591 1075 516 
Q 1375 441 1709 441 
Q 2250 441 2565 725 
Q 2881 1009 2881 1497 
Q 2881 1984 2565 2268 
Q 2250 2553 1709 2553 
Q 1456 2553 1204 2497 
Q 953 2441 691 2322 
L 691 4666 
z
" transform="scale(0.015625)"/>
     </defs>
     <use xlink:href="#DejaVuSans-45"/>
     <use xlink:href="#DejaVuSans-76" x="63.183594"/>
     <use xlink:href="#DejaVuSans-61" x="122.363281"/>
     <use xlink:href="#DejaVuSans-6c" x="183.642578"/>
     <use xlink:href="#DejaVuSans-75" x="211.425781"/>
     <use xlink:href="#DejaVuSans-61" x="274.804688"/>
     <use xlink:href="#DejaVuSans-74" x="336.083984"/>
     <use xlink:href="#DejaVuSans-69" x="375.292969"/>
     <use xlink:href="#DejaVuSans-6f" x="403.076172"/>
     <use xlink:href="#DejaVuSans-6e" x="464.257812"/>
     <use xlink:href="#DejaVuSans-20" x="527.636719"/>
     <use xlink:href="#DejaVuSans-74" x="559.423828"/>
     <use xlink:href="#DejaVuSans-72" x="598.632812"/>
     <use xlink:href="#DejaVuSans-61" x="639.746094"/>
     <use xlink:href="#DejaVuSans-6a" x="701.025391"/>
     <use xlink:href="#DejaVuSans-65" x="728.808594"/>
     <use xlink:href="#DejaVuSans-63" x="790.332031"/>
     <use xlink:href="#DejaVuSans-74" x="845.3125"/>
     <use xlink:href="#DejaVuSans-6f" x="884.521484"/>
     <use xlink:href="#DejaVuSans-72" x="945.703125"/>
     <use xlink:href="#DejaVuSans-79" x="986.816406"/>
     <use xlink:href="#DejaVuSans-20" x="1045.996094"/>
     <use xlink:href="#DejaVuSans-35" x="1077.783203"/>
    </g>
   </g>
   <g id="legend_1">
    <g id="patch_8">
     <path d="M 424.387188 59.674375 
L 491.865313 59.674375 
Q 493.865313 59.674375 493.865313 57.674375 
L 493.865313 29.318125 
Q 493.865313 27.318125 491.865313 27.318125 
L 424.387188 27.318125 
Q 422.387188 27.318125 422.387188 29.318125 
L 422.387188 57.674375 
Q 422.387188 59.674375 424.387188 59.674375 
z
" style="fill: #ffffff; opacity: 0.8; stroke: #cccccc; stroke-linejoin: miter"/>
    </g>
    <g id="PathCollection_3">
     <g>
      <use xlink:href="#md00b822d84" x="436.387188" y="36.291562" style="fill: #4169e1; stroke: #4169e1"/>
     </g>
    </g>
    <g id="text_15">
     <!-- Sheep -->
     <g transform="translate(454.387188 38.916562) scale(0.1 -0.1)">
      <defs>
       <path id="DejaVuSans-53" d="M 3425 4513 
L 3425 3897 
Q 3066 4069 2747 4153 
Q 2428 4238 2131 4238 
Q 1616 4238 1336 4038 
Q 1056 3838 1056 3469 
Q 1056 3159 1242 3001 
Q 1428 2844 1947 2747 
L 2328 2669 
Q 3034 2534 3370 2195 
Q 3706 1856 3706 1288 
Q 3706 609 3251 259 
Q 2797 -91 1919 -91 
Q 1588 -91 1214 -16 
Q 841 59 441 206 
L 441 856 
Q 825 641 1194 531 
Q 1563 422 1919 422 
Q 2459 422 2753 634 
Q 3047 847 3047 1241 
Q 3047 1584 2836 1778 
Q 2625 1972 2144 2069 
L 1759 2144 
Q 1053 2284 737 2584 
Q 422 2884 422 3419 
Q 422 4038 858 4394 
Q 1294 4750 2059 4750 
Q 2388 4750 2728 4690 
Q 3069 4631 3425 4513 
z
" transform="scale(0.015625)"/>
       <path id="DejaVuSans-68" d="M 3513 2113 
L 3513 0 
L 2938 0 
L 2938 2094 
Q 2938 2591 2744 2837 
Q 2550 3084 2163 3084 
Q 1697 3084 1428 2787 
Q 1159 2491 1159 1978 
L 1159 0 
L 581 0 
L 581 4863 
L 1159 4863 
L 1159 2956 
Q 1366 3272 1645 3428 
Q 1925 3584 2291 3584 
Q 2894 3584 3203 3211 
Q 3513 2838 3513 2113 
z
" transform="scale(0.015625)"/>
       <path id="DejaVuSans-70" d="M 1159 525 
L 1159 -1331 
L 581 -1331 
L 581 3500 
L 1159 3500 
L 1159 2969 
Q 1341 3281 1617 3432 
Q 1894 3584 2278 3584 
Q 2916 3584 3314 3078 
Q 3713 2572 3713 1747 
Q 3713 922 3314 415 
Q 2916 -91 2278 -91 
Q 1894 -91 1617 61 
Q 1341 213 1159 525 
z
M 3116 1747 
Q 3116 2381 2855 2742 
Q 2594 3103 2138 3103 
Q 1681 3103 1420 2742 
Q 1159 2381 1159 1747 
Q 1159 1113 1420 752 
Q 1681 391 2138 391 
Q 2594 391 2855 752 
Q 3116 1113 3116 1747 
z
" transform="scale(0.015625)"/>
      </defs>
      <use xlink:href="#DejaVuSans-53"/>
      <use xlink:href="#DejaVuSans-68" x="63.476562"/>
      <use xlink:href="#DejaVuSans-65" x="126.855469"/>
      <use xlink:href="#DejaVuSans-65" x="188.378906"/>
      <use xlink:href="#DejaVuSans-70" x="249.902344"/>
     </g>
    </g>
    <g id="PathCollection_4">
     <g>
      <use xlink:href="#mc7cf08e437" x="436.387188" y="50.969687" style="fill: #b22222; stroke: #b22222"/>
     </g>
    </g>
    <g id="text_16">
     <!-- Wolves -->
     <g transform="translate(454.387188 53.594687) scale(0.1 -0.1)">
      <defs>
       <path id="DejaVuSans-57" d="M 213 4666 
L 850 4666 
L 1831 722 
L 2809 4666 
L 3519 4666 
L 4500 722 
L 5478 4666 
L 6119 4666 
L 4947 0 
L 4153 0 
L 3169 4050 
L 2175 0 
L 1381 0 
L 213 4666 
z
" transform="scale(0.015625)"/>
       <path id="DejaVuSans-73" d="M 2834 3397 
L 2834 2853 
Q 2591 2978 2328 3040 
Q 2066 3103 1784 3103 
Q 1356 3103 1142 2972 
Q 928 2841 928 2578 
Q 928 2378 1081 2264 
Q 1234 2150 1697 2047 
L 1894 2003 
Q 2506 1872 2764 1633 
Q 3022 1394 3022 966 
Q 3022 478 2636 193 
Q 2250 -91 1575 -91 
Q 1294 -91 989 -36 
Q 684 19 347 128 
L 347 722 
Q 666 556 975 473 
Q 1284 391 1588 391 
Q 1994 391 2212 530 
Q 2431 669 2431 922 
Q 2431 1156 2273 1281 
Q 2116 1406 1581 1522 
L 1381 1569 
Q 847 1681 609 1914 
Q 372 2147 372 2553 
Q 372 3047 722 3315 
Q 1072 3584 1716 3584 
Q 2034 3584 2315 3537 
Q 2597 3491 2834 3397 
z
" transform="scale(0.015625)"/>
      </defs>
      <use xlink:href="#DejaVuSans-57"/>
      <use xlink:href="#DejaVuSans-6f" x="93.001953"/>
      <use xlink:href="#DejaVuSans-6c" x="154.183594"/>
      <use xlink:href="#DejaVuSans-76" x="181.966797"/>
      <use xlink:href="#DejaVuSans-65" x="241.146484"/>
      <use xlink:href="#DejaVuSans-73" x="302.669922"/>
     </g>
    </g>
   </g>
  </g>
 </g>
 <defs>
  <clipPath id="p77f4f5c3ff">
   <rect x="55.345313" y="22.318125" width="443.52" height="443.52"/>
  </clipPath>
 </defs>
</svg>
