<?xml version="1.0" encoding="utf-8" standalone="no"?>
<!DOCTYPE svg PUBLIC "-//W3C//DTD SVG 1.1//EN"
  "http://www.w3.org/Graphics/SVG/1.1/DTD/svg11.dtd">
<svg xmlns:xlink="http://www.w3.org/1999/xlink" width="506.065313pt" height="503.394375pt" viewBox="0 0 506.065313 503.394375" xmlns="http://www.w3.org/2000/svg" version="1.1">
 <metadata>
  <rdf:RDF xmlns:dc="http://purl.org/dc/elements/1.1/" xmlns:cc="http://creativecommons.org/ns#" xmlns:rdf="http://www.w3.org/1999/02/22-rdf-syntax-ns#">
   <cc:Work>
    <dc:type rdf:resource="http://purl.org/dc/dcmitype/StillImage"/>
    <dc:date>2026-05-08T10:00:04.924444</dc:date>
    <dc:format>image/svg+xml</dc:format>
    <dc:creator>
     <cc:Agent>
      <dc:title>Matplotlib v3.7.1, https://matplotlib.org/</dc:title>
     </cc:Agent>
    </dc:creator>
   </cc:Work>
  </rdf:RDF>
 </metadata>
 <defs>
  <style type="text/css">*{stroke-linejoin: round; stroke-linecap: butt}</style>
 </defs>
 <g id="figure_1">
  <g id="patch_1">
   <path d="M 0 503.394375 
L 506.065313 503.394375 
L 506.065313 0 
L 0 0 
z
" style="fill: #ffffff"/>
  </g>
  <g id="axes_1">
   <g id="patch_2">
    <path d="M 55.345313 465.838125 
L 498.865313 465.838125 
L 498.865313 22.318125 
L 55.345313 22.318125 
z
" style="fill: #ffffff"/>
   </g>
   <g id="patch_3">
    <path d="M 277.105313 332.782125 
C 300.629888 332.782125 323.194125 323.435712 339.828512 306.801325 
C 356.462899 290.166938 365.809313 267.602701 365.809313 244.078125 
C 365.809313 220.553549 356.462899 197.989312 339.828512 181.354925 
C 323.194125 164.720538 300.629888 155.374125 277.105313 155.374125 
C 253.580737 155.374125 231.0165 164.720538 214.382113 181.354925 
C 197.747726 197.989312 188.401313 220.553549 188.401313 244.078125 
C 188.401313 267.602701 197.747726 290.166938 214.382113 306.801325 
C 231.0165 323.435712 253.580737 332.782125 277.105313 332.782125 
z
" clip-path="url(#p0849de9cc5)" style="fill: #228b22; opacity: 0.12; stroke: #228b22; stroke-width: 1.5; stroke-linejoin: miter"/>
   </g>
   <g id="PathCollection_1">
    <defs>
     <path id="m8896e97e1d" d="M 0 2.236068 
C 0.593012 2.236068 1.161816 2.000462 1.581139 1.581139 
C 2.000462 1.161816 2.236068 0.593012 2.236068 0 
C 2.236068 -0.593012 2.000462 -1.161816 1.581139 -1.581139 
C 1.161816 -2.000462 0.593012 -2.236068 0 -2.236068 
C -0.593012 -2.236068 -1.161816 -2.000462 -1.581139 -1.581139 
C -2.000462 -1.161816 -2.236068 -0.593012 -2.236068 0 
C -2.236068 0.593012 -2.000462 1.161816 -1.581139 1.581139 
C -1.161816 2.000462 -0.593012 2.236068 0 2.236068 
z
" style="stroke: #4169e1"/>
    </defs>
    <g clip-path="url(#p0849de9cc5)">
     <use xlink:href="#m8896e97e1d" x="310.184179" y="246.146913" style="fill: #4169e1; stroke: #4169e1"/>
     <use xlink:href="#m8896e97e1d" x="273.518049" y="206.960152" style="fill: #4169e1; stroke: #4169e1"/>
     <use xlink:href="#m8896e97e1d" x="287.067133" y="177.681335" style="fill: #4169e1; stroke: #4169e1"/>
     <use xlink:href="#m8896e97e1d" x="324.118297" y="202.342444" style="fill: #4169e1; stroke: #4169e1"/>
     <use xlink:href="#m8896e97e1d" x="231.024981" y="325.176815" style="fill: #4169e1; stroke: #4169e1"/>
     <use xlink:href="#m8896e97e1d" x="264.15254" y="217.194395" style="fill: #4169e1; stroke: #4169e1"/>
     <use xlink:href="#m8896e97e1d" x="260.948484" y="198.815899" style="fill: #4169e1; stroke: #4169e1"/>
     <use xlink:href="#m8896e97e1d" x="328.690256" y="154.602838" style="fill: #4169e1; stroke: #4169e1"/>
     <use xlink:href="#m8896e97e1d" x="333.115346" y="134.158295" style="fill: #4169e1; stroke: #4169e1"/>
     <use xlink:href="#m8896e97e1d" x="173.018824" y="334.826062" style="fill: #4169e1; stroke: #4169e1"/>
     <use xlink:href="#m8896e97e1d" x="360.621774" y="294.341537" style="fill: #4169e1; stroke: #4169e1"/>
     <use xlink:href="#m8896e97e1d" x="193.158527" y="301.773921" style="fill: #4169e1; stroke: #4169e1"/>
     <use xlink:href="#m8896e97e1d" x="263.81942" y="261.793161" style="fill: #4169e1; stroke: #4169e1"/>
     <use xlink:href="#m8896e97e1d" x="261.142843" y="231.779216" style="fill: #4169e1; stroke: #4169e1"/>
     <use xlink:href="#m8896e97e1d" x="176.598846" y="300.767484" style="fill: #4169e1; stroke: #4169e1"/>
     <use xlink:href="#m8896e97e1d" x="351.923271" y="322.906239" style="fill: #4169e1; stroke: #4169e1"/>
     <use xlink:href="#m8896e97e1d" x="246.439541" y="304.758504" style="fill: #4169e1; stroke: #4169e1"/>
     <use xlink:href="#m8896e97e1d" x="361.08511" y="230.308039" style="fill: #4169e1; stroke: #4169e1"/>
     <use xlink:href="#m8896e97e1d" x="297.156699" y="302.995889" style="fill: #4169e1; stroke: #4169e1"/>
     <use xlink:href="#m8896e97e1d" x="292.328181" y="321.80556" style="fill: #4169e1; stroke: #4169e1"/>
     <use xlink:href="#m8896e97e1d" x="231.117663" y="203.219589" style="fill: #4169e1; stroke: #4169e1"/>
     <use xlink:href="#m8896e97e1d" x="370.078193" y="246.260804" style="fill: #4169e1; stroke: #4169e1"/>
     <use xlink:href="#m8896e97e1d" x="226.102489" y="290.764682" style="fill: #4169e1; stroke: #4169e1"/>
     <use xlink:href="#m8896e97e1d" x="265.838804" y="211.632853" style="fill: #4169e1; stroke: #4169e1"/>
     <use xlink:href="#m8896e97e1d" x="288.437257" y="158.557012" style="fill: #4169e1; stroke: #4169e1"/>
     <use xlink:href="#m8896e97e1d" x="201.799669" y="311.535205" style="fill: #4169e1; stroke: #4169e1"/>
     <use xlink:href="#m8896e97e1d" x="221.012742" y="160.410448" style="fill: #4169e1; stroke: #4169e1"/>
     <use xlink:href="#m8896e97e1d" x="331.871857" y="290.917196" style="fill: #4169e1; stroke: #4169e1"/>
     <use xlink:href="#m8896e97e1d" x="299.786269" y="142.790111" style="fill: #4169e1; stroke: #4169e1"/>
     <use xlink:href="#m8896e97e1d" x="186.980757" y="307.359" style="fill: #4169e1; stroke: #4169e1"/>
     <use xlink:href="#m8896e97e1d" x="322.755375" y="350.921319" style="fill: #4169e1; stroke: #4169e1"/>
     <use xlink:href="#m8896e97e1d" x="255.224487" y="139.902332" style="fill: #4169e1; stroke: #4169e1"/>
     <use xlink:href="#m8896e97e1d" x="343.692894" y="207.688059" style="fill: #4169e1; stroke: #4169e1"/>
     <use xlink:href="#m8896e97e1d" x="333.57837" y="161.676405" style="fill: #4169e1; stroke: #4169e1"/>
     <use xlink:href="#m8896e97e1d" x="341.645932" y="153.353421" style="fill: #4169e1; stroke: #4169e1"/>
     <use xlink:href="#m8896e97e1d" x="371.083286" y="216.870823" style="fill: #4169e1; stroke: #4169e1"/>
     <use xlink:href="#m8896e97e1d" x="219.400813" y="300.976673" style="fill: #4169e1; stroke: #4169e1"/>
     <use xlink:href="#m8896e97e1d" x="186.727426" y="258.645709" style="fill: #4169e1; stroke: #4169e1"/>
     <use xlink:href="#m8896e97e1d" x="357.724006" y="172.597246" style="fill: #4169e1; stroke: #4169e1"/>
     <use xlink:href="#m8896e97e1d" x="263.152231" y="226.695574" style="fill: #4169e1; stroke: #4169e1"/>
     <use xlink:href="#m8896e97e1d" x="354.678623" y="191.993734" style="fill: #4169e1; stroke: #4169e1"/>
     <use xlink:href="#m8896e97e1d" x="319.179901" y="209.647882" style="fill: #4169e1; stroke: #4169e1"/>
     <use xlink:href="#m8896e97e1d" x="226.881159" y="301.559213" style="fill: #4169e1; stroke: #4169e1"/>
     <use xlink:href="#m8896e97e1d" x="371.386826" y="294.319305" style="fill: #4169e1; stroke: #4169e1"/>
     <use xlink:href="#m8896e97e1d" x="350.585036" y="307.760264" style="fill: #4169e1; stroke: #4169e1"/>
     <use xlink:href="#m8896e97e1d" x="305.423715" y="226.392224" style="fill: #4169e1; stroke: #4169e1"/>
     <use xlink:href="#m8896e97e1d" x="293.54981" y="294.837445" style="fill: #4169e1; stroke: #4169e1"/>
     <use xlink:href="#m8896e97e1d" x="226.258014" y="221.20681" style="fill: #4169e1; stroke: #4169e1"/>
     <use xlink:href="#m8896e97e1d" x="278.590877" y="253.61478" style="fill: #4169e1; stroke: #4169e1"/>
     <use xlink:href="#m8896e97e1d" x="203.154322" y="181.176626" style="fill: #4169e1; stroke: #4169e1"/>
     <use xlink:href="#m8896e97e1d" x="282.183554" y="306.023094" style="fill: #4169e1; stroke: #4169e1"/>
     <use xlink:href="#m8896e97e1d" x="378.413439" y="321.647388" style="fill: #4169e1; stroke: #4169e1"/>
     <use xlink:href="#m8896e97e1d" x="296.735336" y="263.437682" style="fill: #4169e1; stroke: #4169e1"/>
     <use xlink:href="#m8896e97e1d" x="191.584402" y="273.211595" style="fill: #4169e1; stroke: #4169e1"/>
     <use xlink:href="#m8896e97e1d" x="235.942365" y="261.527797" style="fill: #4169e1; stroke: #4169e1"/>
     <use xlink:href="#m8896e97e1d" x="349.657404" y="256.88735" style="fill: #4169e1; stroke: #4169e1"/>
     <use xlink:href="#m8896e97e1d" x="298.435298" y="164.548037" style="fill: #4169e1; stroke: #4169e1"/>
     <use xlink:href="#m8896e97e1d" x="235.244275" y="247.369205" style="fill: #4169e1; stroke: #4169e1"/>
     <use xlink:href="#m8896e97e1d" x="300.145343" y="342.213774" style="fill: #4169e1; stroke: #4169e1"/>
     <use xlink:href="#m8896e97e1d" x="318.172723" y="308.30165" style="fill: #4169e1; stroke: #4169e1"/>
     <use xlink:href="#m8896e97e1d" x="219.847954" y="140.177582" style="fill: #4169e1; stroke: #4169e1"/>
     <use xlink:href="#m8896e97e1d" x="205.185387" y="135.508752" style="fill: #4169e1; stroke: #4169e1"/>
     <use xlink:href="#m8896e97e1d" x="311.752876" y="352.282421" style="fill: #4169e1; stroke: #4169e1"/>
     <use xlink:href="#m8896e97e1d" x="367.003519" y="269.34414" style="fill: #4169e1; stroke: #4169e1"/>
     <use xlink:href="#m8896e97e1d" x="293.518936" y="181.06936" style="fill: #4169e1; stroke: #4169e1"/>
     <use xlink:href="#m8896e97e1d" x="227.767529" y="133.592783" style="fill: #4169e1; stroke: #4169e1"/>
     <use xlink:href="#m8896e97e1d" x="363.863471" y="262.523004" style="fill: #4169e1; stroke: #4169e1"/>
     <use xlink:href="#m8896e97e1d" x="349.184825" y="272.972117" style="fill: #4169e1; stroke: #4169e1"/>
     <use xlink:href="#m8896e97e1d" x="218.544931" y="317.392673" style="fill: #4169e1; stroke: #4169e1"/>
     <use xlink:href="#m8896e97e1d" x="195.035238" y="254.698594" style="fill: #4169e1; stroke: #4169e1"/>
     <use xlink:href="#m8896e97e1d" x="220.756474" y="243.942455" style="fill: #4169e1; stroke: #4169e1"/>
     <use xlink:href="#m8896e97e1d" x="221.866198" y="205.626221" style="fill: #4169e1; stroke: #4169e1"/>
     <use xlink:href="#m8896e97e1d" x="345.341503" y="150.1034" style="fill: #4169e1; stroke: #4169e1"/>
     <use xlink:href="#m8896e97e1d" x="361.772845" y="215.354777" style="fill: #4169e1; stroke: #4169e1"/>
     <use xlink:href="#m8896e97e1d" x="309.518601" y="155.33287" style="fill: #4169e1; stroke: #4169e1"/>
     <use xlink:href="#m8896e97e1d" x="355.409413" y="185.731179" style="fill: #4169e1; stroke: #4169e1"/>
     <use xlink:href="#m8896e97e1d" x="287.528682" y="320.790978" style="fill: #4169e1; stroke: #4169e1"/>
     <use xlink:href="#m8896e97e1d" x="242.296193" y="183.294987" style="fill: #4169e1; stroke: #4169e1"/>
     <use xlink:href="#m8896e97e1d" x="376.196246" y="139.448119" style="fill: #4169e1; stroke: #4169e1"/>
     <use xlink:href="#m8896e97e1d" x="207.309141" y="257.315826" style="fill: #4169e1; stroke: #4169e1"/>
     <use xlink:href="#m8896e97e1d" x="297.463906" y="249.139218" style="fill: #4169e1; stroke: #4169e1"/>
     <use xlink:href="#m8896e97e1d" x="373.949775" y="280.38227" style="fill: #4169e1; stroke: #4169e1"/>
     <use xlink:href="#m8896e97e1d" x="203.548824" y="208.845139" style="fill: #4169e1; stroke: #4169e1"/>
     <use xlink:href="#m8896e97e1d" x="290.140494" y="208.255141" style="fill: #4169e1; stroke: #4169e1"/>
     <use xlink:href="#m8896e97e1d" x="194.056815" y="331.025005" style="fill: #4169e1; stroke: #4169e1"/>
     <use xlink:href="#m8896e97e1d" x="193.000071" y="196.606759" style="fill: #4169e1; stroke: #4169e1"/>
     <use xlink:href="#m8896e97e1d" x="262.070691" y="228.638478" style="fill: #4169e1; stroke: #4169e1"/>
     <use xlink:href="#m8896e97e1d" x="377.340521" y="225.911563" style="fill: #4169e1; stroke: #4169e1"/>
     <use xlink:href="#m8896e97e1d" x="253.837797" y="186.465367" style="fill: #4169e1; stroke: #4169e1"/>
     <use xlink:href="#m8896e97e1d" x="327.254488" y="222.314149" style="fill: #4169e1; stroke: #4169e1"/>
     <use xlink:href="#m8896e97e1d" x="386.024596" y="309.462553" style="fill: #4169e1; stroke: #4169e1"/>
     <use xlink:href="#m8896e97e1d" x="214.606891" y="349.012388" style="fill: #4169e1; stroke: #4169e1"/>
     <use xlink:href="#m8896e97e1d" x="353.593144" y="173.379822" style="fill: #4169e1; stroke: #4169e1"/>
     <use xlink:href="#m8896e97e1d" x="376.101608" y="169.034278" style="fill: #4169e1; stroke: #4169e1"/>
     <use xlink:href="#m8896e97e1d" x="304.175354" y="140.41323" style="fill: #4169e1; stroke: #4169e1"/>
     <use xlink:href="#m8896e97e1d" x="232.872896" y="192.905638" style="fill: #4169e1; stroke: #4169e1"/>
     <use xlink:href="#m8896e97e1d" x="319.52973" y="334.226204" style="fill: #4169e1; stroke: #4169e1"/>
     <use xlink:href="#m8896e97e1d" x="264.754665" y="205.430287" style="fill: #4169e1; stroke: #4169e1"/>
     <use xlink:href="#m8896e97e1d" x="214.765022" y="319.900987" style="fill: #4169e1; stroke: #4169e1"/>
     <use xlink:href="#m8896e97e1d" x="234.1318" y="272.489609" style="fill: #4169e1; stroke: #4169e1"/>
     <use xlink:href="#m8896e97e1d" x="174.107687" y="242.410499" style="fill: #4169e1; stroke: #4169e1"/>
     <use xlink:href="#m8896e97e1d" x="290.042946" y="262.83595" style="fill: #4169e1; stroke: #4169e1"/>
     <use xlink:href="#m8896e97e1d" x="261.183103" y="240.311332" style="fill: #4169e1; stroke: #4169e1"/>
     <use xlink:href="#m8896e97e1d" x="359.268922" y="273.261505" style="fill: #4169e1; stroke: #4169e1"/>
     <use xlink:href="#m8896e97e1d" x="313.647514" y="351.450036" style="fill: #4169e1; stroke: #4169e1"/>
     <use xlink:href="#m8896e97e1d" x="333.606049" y="225.594204" style="fill: #4169e1; stroke: #4169e1"/>
     <use xlink:href="#m8896e97e1d" x="221.739201" y="270.78106" style="fill: #4169e1; stroke: #4169e1"/>
     <use xlink:href="#m8896e97e1d" x="316.890767" y="251.975733" style="fill: #4169e1; stroke: #4169e1"/>
     <use xlink:href="#m8896e97e1d" x="216.466865" y="354.651472" style="fill: #4169e1; stroke: #4169e1"/>
     <use xlink:href="#m8896e97e1d" x="211.796701" y="193.58092" style="fill: #4169e1; stroke: #4169e1"/>
     <use xlink:href="#m8896e97e1d" x="374.717137" y="334.310298" style="fill: #4169e1; stroke: #4169e1"/>
     <use xlink:href="#m8896e97e1d" x="320.967313" y="204.933127" style="fill: #4169e1; stroke: #4169e1"/>
     <use xlink:href="#m8896e97e1d" x="217.41882" y="200.066791" style="fill: #4169e1; stroke: #4169e1"/>
     <use xlink:href="#m8896e97e1d" x="319.572691" y="310.800923" style="fill: #4169e1; stroke: #4169e1"/>
     <use xlink:href="#m8896e97e1d" x="269.141829" y="160.81251" style="fill: #4169e1; stroke: #4169e1"/>
     <use xlink:href="#m8896e97e1d" x="267.042689" y="234.456348" style="fill: #4169e1; stroke: #4169e1"/>
     <use xlink:href="#m8896e97e1d" x="266.290432" y="230.362829" style="fill: #4169e1; stroke: #4169e1"/>
     <use xlink:href="#m8896e97e1d" x="204.89792" y="286.15073" style="fill: #4169e1; stroke: #4169e1"/>
     <use xlink:href="#m8896e97e1d" x="373.263502" y="320.728662" style="fill: #4169e1; stroke: #4169e1"/>
     <use xlink:href="#m8896e97e1d" x="180.884232" y="179.204541" style="fill: #4169e1; stroke: #4169e1"/>
     <use xlink:href="#m8896e97e1d" x="366.849002" y="311.279303" style="fill: #4169e1; stroke: #4169e1"/>
     <use xlink:href="#m8896e97e1d" x="212.144149" y="341.567017" style="fill: #4169e1; stroke: #4169e1"/>
     <use xlink:href="#m8896e97e1d" x="231.61931" y="242.44209" style="fill: #4169e1; stroke: #4169e1"/>
     <use xlink:href="#m8896e97e1d" x="334.571404" y="245.084883" style="fill: #4169e1; stroke: #4169e1"/>
     <use xlink:href="#m8896e97e1d" x="273.69559" y="291.40187" style="fill: #4169e1; stroke: #4169e1"/>
     <use xlink:href="#m8896e97e1d" x="346.940005" y="141.263251" style="fill: #4169e1; stroke: #4169e1"/>
     <use xlink:href="#m8896e97e1d" x="352.612373" y="284.785744" style="fill: #4169e1; stroke: #4169e1"/>
     <use xlink:href="#m8896e97e1d" x="291.580851" y="304.682504" style="fill: #4169e1; stroke: #4169e1"/>
     <use xlink:href="#m8896e97e1d" x="373.425761" y="147.290781" style="fill: #4169e1; stroke: #4169e1"/>
     <use xlink:href="#m8896e97e1d" x="180.994861" y="144.440453" style="fill: #4169e1; stroke: #4169e1"/>
     <use xlink:href="#m8896e97e1d" x="213.361102" y="279.433909" style="fill: #4169e1; stroke: #4169e1"/>
     <use xlink:href="#m8896e97e1d" x="265.87629" y="329.601066" style="fill: #4169e1; stroke: #4169e1"/>
     <use xlink:href="#m8896e97e1d" x="248.755664" y="281.660415" style="fill: #4169e1; stroke: #4169e1"/>
     <use xlink:href="#m8896e97e1d" x="205.629299" y="258.150803" style="fill: #4169e1; stroke: #4169e1"/>
     <use xlink:href="#m8896e97e1d" x="358.281668" y="226.65597" style="fill: #4169e1; stroke: #4169e1"/>
     <use xlink:href="#m8896e97e1d" x="367.405053" y="144.659763" style="fill: #4169e1; stroke: #4169e1"/>
     <use xlink:href="#m8896e97e1d" x="219.652878" y="265.486858" style="fill: #4169e1; stroke: #4169e1"/>
     <use xlink:href="#m8896e97e1d" x="185.891475" y="270.337492" style="fill: #4169e1; stroke: #4169e1"/>
     <use xlink:href="#m8896e97e1d" x="307.3631" y="299.219479" style="fill: #4169e1; stroke: #4169e1"/>
     <use xlink:href="#m8896e97e1d" x="249.71848" y="196.599707" style="fill: #4169e1; stroke: #4169e1"/>
     <use xlink:href="#m8896e97e1d" x="251.307623" y="231.277643" style="fill: #4169e1; stroke: #4169e1"/>
     <use xlink:href="#m8896e97e1d" x="374.667057" y="246.716134" style="fill: #4169e1; stroke: #4169e1"/>
     <use xlink:href="#m8896e97e1d" x="287.610529" y="143.250997" style="fill: #4169e1; stroke: #4169e1"/>
     <use xlink:href="#m8896e97e1d" x="338.197188" y="203.44855" style="fill: #4169e1; stroke: #4169e1"/>
     <use xlink:href="#m8896e97e1d" x="211.027925" y="283.527556" style="fill: #4169e1; stroke: #4169e1"/>
     <use xlink:href="#m8896e97e1d" x="364.344335" y="342.780687" style="fill: #4169e1; stroke: #4169e1"/>
     <use xlink:href="#m8896e97e1d" x="274.200512" y="291.792407" style="fill: #4169e1; stroke: #4169e1"/>
     <use xlink:href="#m8896e97e1d" x="191.419524" y="333.303222" style="fill: #4169e1; stroke: #4169e1"/>
     <use xlink:href="#m8896e97e1d" x="382.15476" y="352.054489" style="fill: #4169e1; stroke: #4169e1"/>
     <use xlink:href="#m8896e97e1d" x="284.065158" y="204.533948" style="fill: #4169e1; stroke: #4169e1"/>
    </g>
   </g>
   <g id="PathCollection_2">
    <defs>
     <path id="m1e133fed36" d="M 0 2.5 
C 0.663008 2.5 1.29895 2.236584 1.767767 1.767767 
C 2.236584 1.29895 2.5 0.663008 2.5 0 
C 2.5 -0.663008 2.236584 -1.29895 1.767767 -1.767767 
C 1.29895 -2.236584 0.663008 -2.5 0 -2.5 
C -0.663008 -2.5 -1.29895 -2.236584 -1.767767 -1.767767 
C -2.236584 -1.29895 -2.5 -0.663008 -2.5 0 
C -2.5 0.663008 -2.236584 1.29895 -1.767767 1.767767 
C -1.29895 2.236584 -0.663008 2.5 0 2.5 
z
" style="stroke: #b22222"/>
    </defs>
    <g clip-path="url(#p0849de9cc5)">
     <use xlink:href="#m1e133fed36" x="196.813575" y="306.588897" style="fill: #b22222; stroke: #b22222"/>
     <use xlink:href="#m1e133fed36" x="328.522231" y="200.486151" style="fill: #b22222; stroke: #b22222"/>
     <use xlink:href="#m1e133fed36" x="337.918188" y="346.22623" style="fill: #b22222; stroke: #b22222"/>
     <use xlink:href="#m1e133fed36" x="280.184425" y="280.111384" style="fill: #b22222; stroke: #b22222"/>
     <use xlink:href="#m1e133fed36" x="345.67413" y="266.776636" style="fill: #b22222; stroke: #b22222"/>
     <use xlink:href="#m1e133fed36" x="198.067241" y="135.513462" style="fill: #b22222; stroke: #b22222"/>
     <use xlink:href="#m1e133fed36" x="240.211705" y="138.045484" style="fill: #b22222; stroke: #b22222"/>
     <use xlink:href="#m1e133fed36" x="332.01533" y="298.151893" style="fill: #b22222; stroke: #b22222"/>
     <use xlink:href="#m1e133fed36" x="322.190052" y="181.310773" style="fill: #b22222; stroke: #b22222"/>
     <use xlink:href="#m1e133fed36" x="302.752958" y="265.514293" style="fill: #b22222; stroke: #b22222"/>
     <use xlink:href="#m1e133fed36" x="299.396212" y="226.490137" style="fill: #b22222; stroke: #b22222"/>
     <use xlink:href="#m1e133fed36" x="355.653019" y="335.147495" style="fill: #b22222; stroke: #b22222"/>
     <use xlink:href="#m1e133fed36" x="301.299851" y="235.712316" style="fill: #b22222; stroke: #b22222"/>
     <use xlink:href="#m1e133fed36" x="298.866677" y="265.59836" style="fill: #b22222; stroke: #b22222"/>
     <use xlink:href="#m1e133fed36" x="202.203396" y="305.642756" style="fill: #b22222; stroke: #b22222"/>
     <use xlink:href="#m1e133fed36" x="275.714074" y="147.363167" style="fill: #b22222; stroke: #b22222"/>
     <use xlink:href="#m1e133fed36" x="373.659067" y="207.312539" style="fill: #b22222; stroke: #b22222"/>
     <use xlink:href="#m1e133fed36" x="246.366127" y="286.338558" style="fill: #b22222; stroke: #b22222"/>
     <use xlink:href="#m1e133fed36" x="244.788807" y="158.143499" style="fill: #b22222; stroke: #b22222"/>
     <use xlink:href="#m1e133fed36" x="246.331125" y="223.800431" style="fill: #b22222; stroke: #b22222"/>
     <use xlink:href="#m1e133fed36" x="317.408203" y="230.319855" style="fill: #b22222; stroke: #b22222"/>
     <use xlink:href="#m1e133fed36" x="305.384802" y="265.254405" style="fill: #b22222; stroke: #b22222"/>
     <use xlink:href="#m1e133fed36" x="265.099338" y="197.352803" style="fill: #b22222; stroke: #b22222"/>
     <use xlink:href="#m1e133fed36" x="276.635467" y="296.660914" style="fill: #b22222; stroke: #b22222"/>
     <use xlink:href="#m1e133fed36" x="328.340264" y="259.83685" style="fill: #b22222; stroke: #b22222"/>
     <use xlink:href="#m1e133fed36" x="290.672195" y="254.84949" style="fill: #b22222; stroke: #b22222"/>
     <use xlink:href="#m1e133fed36" x="362.740216" y="227.878506" style="fill: #b22222; stroke: #b22222"/>
     <use xlink:href="#m1e133fed36" x="287.544275" y="140.750471" style="fill: #b22222; stroke: #b22222"/>
     <use xlink:href="#m1e133fed36" x="379.164966" y="250.78133" style="fill: #b22222; stroke: #b22222"/>
     <use xlink:href="#m1e133fed36" x="367.244743" y="158.295404" style="fill: #b22222; stroke: #b22222"/>
     <use xlink:href="#m1e133fed36" x="230.27198" y="253.712483" style="fill: #b22222; stroke: #b22222"/>
     <use xlink:href="#m1e133fed36" x="316.282633" y="221.924485" style="fill: #b22222; stroke: #b22222"/>
     <use xlink:href="#m1e133fed36" x="256.181998" y="154.231758" style="fill: #b22222; stroke: #b22222"/>
     <use xlink:href="#m1e133fed36" x="172.696281" y="138.038162" style="fill: #b22222; stroke: #b22222"/>
     <use xlink:href="#m1e133fed36" x="365.370922" y="207.702704" style="fill: #b22222; stroke: #b22222"/>
     <use xlink:href="#m1e133fed36" x="366.139354" y="154.764068" style="fill: #b22222; stroke: #b22222"/>
     <use xlink:href="#m1e133fed36" x="286.072272" y="173.925546" style="fill: #b22222; stroke: #b22222"/>
     <use xlink:href="#m1e133fed36" x="178.973975" y="264.658174" style="fill: #b22222; stroke: #b22222"/>
     <use xlink:href="#m1e133fed36" x="329.385882" y="224.911044" style="fill: #b22222; stroke: #b22222"/>
     <use xlink:href="#m1e133fed36" x="181.124082" y="264.110339" style="fill: #b22222; stroke: #b22222"/>
     <use xlink:href="#m1e133fed36" x="332.257975" y="229.512889" style="fill: #b22222; stroke: #b22222"/>
     <use xlink:href="#m1e133fed36" x="205.767243" y="206.179606" style="fill: #b22222; stroke: #b22222"/>
     <use xlink:href="#m1e133fed36" x="167.789625" y="134.402307" style="fill: #b22222; stroke: #b22222"/>
     <use xlink:href="#m1e133fed36" x="335.524928" y="186.213721" style="fill: #b22222; stroke: #b22222"/>
     <use xlink:href="#m1e133fed36" x="191.349554" y="271.013194" style="fill: #b22222; stroke: #b22222"/>
     <use xlink:href="#m1e133fed36" x="309.972056" y="287.031571" style="fill: #b22222; stroke: #b22222"/>
     <use xlink:href="#m1e133fed36" x="237.716133" y="289.633921" style="fill: #b22222; stroke: #b22222"/>
     <use xlink:href="#m1e133fed36" x="214.972922" y="276.818957" style="fill: #b22222; stroke: #b22222"/>
     <use xlink:href="#m1e133fed36" x="178.991185" y="162.288424" style="fill: #b22222; stroke: #b22222"/>
     <use xlink:href="#m1e133fed36" x="343.252785" y="280.515212" style="fill: #b22222; stroke: #b22222"/>
     <use xlink:href="#m1e133fed36" x="341.018902" y="295.146743" style="fill: #b22222; stroke: #b22222"/>
     <use xlink:href="#m1e133fed36" x="380.08269" y="303.870652" style="fill: #b22222; stroke: #b22222"/>
     <use xlink:href="#m1e133fed36" x="203.851274" y="140.441707" style="fill: #b22222; stroke: #b22222"/>
     <use xlink:href="#m1e133fed36" x="303.154438" y="333.619687" style="fill: #b22222; stroke: #b22222"/>
     <use xlink:href="#m1e133fed36" x="204.412746" y="157.929346" style="fill: #b22222; stroke: #b22222"/>
     <use xlink:href="#m1e133fed36" x="325.538907" y="147.313317" style="fill: #b22222; stroke: #b22222"/>
     <use xlink:href="#m1e133fed36" x="218.046377" y="304.929095" style="fill: #b22222; stroke: #b22222"/>
     <use xlink:href="#m1e133fed36" x="386.173875" y="168.705063" style="fill: #b22222; stroke: #b22222"/>
     <use xlink:href="#m1e133fed36" x="171.738351" y="342.952042" style="fill: #b22222; stroke: #b22222"/>
     <use xlink:href="#m1e133fed36" x="245.47056" y="291.952027" style="fill: #b22222; stroke: #b22222"/>
     <use xlink:href="#m1e133fed36" x="169.042736" y="196.649002" style="fill: #b22222; stroke: #b22222"/>
     <use xlink:href="#m1e133fed36" x="360.766452" y="182.067632" style="fill: #b22222; stroke: #b22222"/>
     <use xlink:href="#m1e133fed36" x="372.866259" y="243.706991" style="fill: #b22222; stroke: #b22222"/>
     <use xlink:href="#m1e133fed36" x="252.009123" y="137.955949" style="fill: #b22222; stroke: #b22222"/>
     <use xlink:href="#m1e133fed36" x="200.23001" y="134.784757" style="fill: #b22222; stroke: #b22222"/>
     <use xlink:href="#m1e133fed36" x="263.426609" y="310.923978" style="fill: #b22222; stroke: #b22222"/>
     <use xlink:href="#m1e133fed36" x="275.479747" y="180.598608" style="fill: #b22222; stroke: #b22222"/>
     <use xlink:href="#m1e133fed36" x="173.158933" y="163.466808" style="fill: #b22222; stroke: #b22222"/>
     <use xlink:href="#m1e133fed36" x="255.28323" y="253.226409" style="fill: #b22222; stroke: #b22222"/>
     <use xlink:href="#m1e133fed36" x="291.370839" y="158.357923" style="fill: #b22222; stroke: #b22222"/>
     <use xlink:href="#m1e133fed36" x="379.782872" y="233.185464" style="fill: #b22222; stroke: #b22222"/>
     <use xlink:href="#m1e133fed36" x="192.829481" y="154.276058" style="fill: #b22222; stroke: #b22222"/>
     <use xlink:href="#m1e133fed36" x="212.564084" y="263.299448" style="fill: #b22222; stroke: #b22222"/>
     <use xlink:href="#m1e133fed36" x="206.397866" y="335.231217" style="fill: #b22222; stroke: #b22222"/>
     <use xlink:href="#m1e133fed36" x="359.66025" y="139.72651" style="fill: #b22222; stroke: #b22222"/>
     <use xlink:href="#m1e133fed36" x="180.915823" y="350.539079" style="fill: #b22222; stroke: #b22222"/>
     <use xlink:href="#m1e133fed36" x="377.272263" y="353.566988" style="fill: #b22222; stroke: #b22222"/>
     <use xlink:href="#m1e133fed36" x="270.137827" y="275.179031" style="fill: #b22222; stroke: #b22222"/>
     <use xlink:href="#m1e133fed36" x="185.252731" y="188.283098" style="fill: #b22222; stroke: #b22222"/>
     <use xlink:href="#m1e133fed36" x="188.379399" y="214.127707" style="fill: #b22222; stroke: #b22222"/>
    </g>
   </g>
   <g id="matplotlib.axis_1">
    <g id="xtick_1">
     <g id="line2d_1">
      <defs>
       <path id="m2f6c6eab3b" d="M 0 0 
L 0 3.5 
" style="stroke: #000000; stroke-width: 0.8"/>
      </defs>
      <g>
       <use xlink:href="#m2f6c6eab3b" x="99.697313" y="465.838125" style="stroke: #000000; stroke-width: 0.8"/>
      </g>
     </g>
     <g id="text_1">
      <!-- −400 -->
      <g transform="translate(85.963719 480.436562) scale(0.1 -0.1)">
       <defs>
        <path id="DejaVuSans-2212" d="M 678 2272 
L 4684 2272 
L 4684 1741 
L 678 1741 
L 678 2272 
z
" transform="scale(0.015625)"/>
        <path id="DejaVuSans-34" d="M 2419 4116 
L 825 1625 
L 2419 1625 
L 2419 4116 
z
M 2253 4666 
L 3047 4666 
L 3047 1625 
L 3713 1625 
L 3713 1100 
L 3047 1100 
L 3047 0 
L 2419 0 
L 2419 1100 
L 313 1100 
L 313 1709 
L 2253 4666 
z
" transform="scale(0.015625)"/>
        <path id="DejaVuSans-30" d="M 2034 4250 
Q 1547 4250 1301 3770 
Q 1056 3291 1056 2328 
Q 1056 1369 1301 889 
Q 1547 409 2034 409 
Q 2525 409 2770 889 
Q 3016 1369 3016 2328 
Q 3016 3291 2770 3770 
Q 2525 4250 2034 4250 
z
M 2034 4750 
Q 2819 4750 3233 4129 
Q 3647 3509 3647 2328 
Q 3647 1150 3233 529 
Q 2819 -91 2034 -91 
Q 1250 -91 836 529 
Q 422 1150 422 2328 
Q 422 3509 836 4129 
Q 1250 4750 2034 4750 
z
" transform="scale(0.015625)"/>
       </defs>
       <use xlink:href="#DejaVuSans-2212"/>
       <use xlink:href="#DejaVuSans-34" x="83.789062"/>
       <use xlink:href="#DejaVuSans-30" x="147.412109"/>
       <use xlink:href="#DejaVuSans-30" x="211.035156"/>
      </g>
     </g>
    </g>
    <g id="xtick_2">
     <g id="line2d_2">
      <g>
       <use xlink:href="#m2f6c6eab3b" x="188.401313" y="465.838125" style="stroke: #000000; stroke-width: 0.8"/>
      </g>
     </g>
     <g id="text_2">
      <!-- −200 -->
      <g transform="translate(174.667719 480.436562) scale(0.1 -0.1)">
       <defs>
        <path id="DejaVuSans-32" d="M 1228 531 
L 3431 531 
L 3431 0 
L 469 0 
L 469 531 
Q 828 903 1448 1529 
Q 2069 2156 2228 2338 
Q 2531 2678 2651 2914 
Q 2772 3150 2772 3378 
Q 2772 3750 2511 3984 
Q 2250 4219 1831 4219 
Q 1534 4219 1204 4116 
Q 875 4013 500 3803 
L 500 4441 
Q 881 4594 1212 4672 
Q 1544 4750 1819 4750 
Q 2544 4750 2975 4387 
Q 3406 4025 3406 3419 
Q 3406 3131 3298 2873 
Q 3191 2616 2906 2266 
Q 2828 2175 2409 1742 
Q 1991 1309 1228 531 
z
" transform="scale(0.015625)"/>
       </defs>
       <use xlink:href="#DejaVuSans-2212"/>
       <use xlink:href="#DejaVuSans-32" x="83.789062"/>
       <use xlink:href="#DejaVuSans-30" x="147.412109"/>
       <use xlink:href="#DejaVuSans-30" x="211.035156"/>
      </g>
     </g>
    </g>
    <g id="xtick_3">
     <g id="line2d_3">
      <g>
       <use xlink:href="#m2f6c6eab3b" x="277.105313" y="465.838125" style="stroke: #000000; stroke-width: 0.8"/>
      </g>
     </g>
     <g id="text_3">
      <!-- 0 -->
      <g transform="translate(273.924063 480.436562) scale(0.1 -0.1)">
       <use xlink:href="#DejaVuSans-30"/>
      </g>
     </g>
    </g>
    <g id="xtick_4">
     <g id="line2d_4">
      <g>
       <use xlink:href="#m2f6c6eab3b" x="365.809313" y="465.838125" style="stroke: #000000; stroke-width: 0.8"/>
      </g>
     </g>
     <g id="text_4">
      <!-- 200 -->
      <g transform="translate(356.265563 480.436562) scale(0.1 -0.1)">
       <use xlink:href="#DejaVuSans-32"/>
       <use xlink:href="#DejaVuSans-30" x="63.623047"/>
       <use xlink:href="#DejaVuSans-30" x="127.246094"/>
      </g>
     </g>
    </g>
    <g id="xtick_5">
     <g id="line2d_5">
      <g>
       <use xlink:href="#m2f6c6eab3b" x="454.513313" y="465.838125" style="stroke: #000000; stroke-width: 0.8"/>
      </g>
     </g>
     <g id="text_5">
      <!-- 400 -->
      <g transform="translate(444.969563 480.436562) scale(0.1 -0.1)">
       <use xlink:href="#DejaVuSans-34"/>
       <use xlink:href="#DejaVuSans-30" x="63.623047"/>
       <use xlink:href="#DejaVuSans-30" x="127.246094"/>
      </g>
     </g>
    </g>
    <g id="text_6">
     <!-- x -->
     <g transform="translate(274.145938 494.114687) scale(0.1 -0.1)">
      <defs>
       <path id="DejaVuSans-78" d="M 3513 3500 
L 2247 1797 
L 3578 0 
L 2900 0 
L 1881 1375 
L 863 0 
L 184 0 
L 1544 1831 
L 300 3500 
L 978 3500 
L 1906 2253 
L 2834 3500 
L 3513 3500 
z
" transform="scale(0.015625)"/>
      </defs>
      <use xlink:href="#DejaVuSans-78"/>
     </g>
    </g>
   </g>
   <g id="matplotlib.axis_2">
    <g id="ytick_1">
     <g id="line2d_6">
      <defs>
       <path id="m2c7d6801b6" d="M 0 0 
L -3.5 0 
" style="stroke: #000000; stroke-width: 0.8"/>
      </defs>
      <g>
       <use xlink:href="#m2c7d6801b6" x="55.345313" y="421.486125" style="stroke: #000000; stroke-width: 0.8"/>
      </g>
     </g>
     <g id="text_7">
      <!-- −400 -->
      <g transform="translate(20.878125 425.285344) scale(0.1 -0.1)">
       <use xlink:href="#DejaVuSans-2212"/>
       <use xlink:href="#DejaVuSans-34" x="83.789062"/>
       <use xlink:href="#DejaVuSans-30" x="147.412109"/>
       <use xlink:href="#DejaVuSans-30" x="211.035156"/>
      </g>
     </g>
    </g>
    <g id="ytick_2">
     <g id="line2d_7">
      <g>
       <use xlink:href="#m2c7d6801b6" x="55.345313" y="332.782125" style="stroke: #000000; stroke-width: 0.8"/>
      </g>
     </g>
     <g id="text_8">
      <!-- −200 -->
      <g transform="translate(20.878125 336.581344) scale(0.1 -0.1)">
       <use xlink:href="#DejaVuSans-2212"/>
       <use xlink:href="#DejaVuSans-32" x="83.789062"/>
       <use xlink:href="#DejaVuSans-30" x="147.412109"/>
       <use xlink:href="#DejaVuSans-30" x="211.035156"/>
      </g>
     </g>
    </g>
    <g id="ytick_3">
     <g id="line2d_8">
      <g>
       <use xlink:href="#m2c7d6801b6" x="55.345313" y="244.078125" style="stroke: #000000; stroke-width: 0.8"/>
      </g>
     </g>
     <g id="text_9">
      <!-- 0 -->
      <g transform="translate(41.982813 247.877344) scale(0.1 -0.1)">
       <use xlink:href="#DejaVuSans-30"/>
      </g>
     </g>
    </g>
    <g id="ytick_4">
     <g id="line2d_9">
      <g>
       <use xlink:href="#m2c7d6801b6" x="55.345313" y="155.374125" style="stroke: #000000; stroke-width: 0.8"/>
      </g>
     </g>
     <g id="text_10">
      <!-- 200 -->
      <g transform="translate(29.257813 159.173344) scale(0.1 -0.1)">
       <use xlink:href="#DejaVuSans-32"/>
       <use xlink:href="#DejaVuSans-30" x="63.623047"/>
       <use xlink:href="#DejaVuSans-30" x="127.246094"/>
      </g>
     </g>
    </g>
    <g id="ytick_5">
     <g id="line2d_10">
      <g>
       <use xlink:href="#m2c7d6801b6" x="55.345313" y="66.670125" style="stroke: #000000; stroke-width: 0.8"/>
      </g>
     </g>
     <g id="text_11">
      <!-- 400 -->
      <g transform="translate(29.257813 70.469344) scale(0.1 -0.1)">
       <use xlink:href="#DejaVuSans-34"/>
       <use xlink:href="#DejaVuSans-30" x="63.623047"/>
       <use xlink:href="#DejaVuSans-30" x="127.246094"/>
      </g>
     </g>
    </g>
    <g id="text_12">
     <!-- y -->
     <g transform="translate(14.798438 247.0375) rotate(-90) scale(0.1 -0.1)">
      <defs>
       <path id="DejaVuSans-79" d="M 2059 -325 
Q 1816 -950 1584 -1140 
Q 1353 -1331 966 -1331 
L 506 -1331 
L 506 -850 
L 844 -850 
Q 1081 -850 1212 -737 
Q 1344 -625 1503 -206 
L 1606 56 
L 191 3500 
L 800 3500 
L 1894 763 
L 2988 3500 
L 3597 3500 
L 2059 -325 
z
" transform="scale(0.015625)"/>
      </defs>
      <use xlink:href="#DejaVuSans-79"/>
     </g>
    </g>
   </g>
   <g id="patch_4">
    <path d="M 55.345313 465.838125 
L 55.345313 22.318125 
" style="fill: none; stroke: #000000; stroke-width: 0.8; stroke-linejoin: miter; stroke-linecap: square"/>
   </g>
   <g id="patch_5">
    <path d="M 498.865313 465.838125 
L 498.865313 22.318125 
" style="fill: none; stroke: #000000; stroke-width: 0.8; stroke-linejoin: miter; stroke-linecap: square"/>
   </g>
   <g id="patch_6">
    <path d="M 55.345313 465.838125 
L 498.865313 465.838125 
" style="fill: none; stroke: #000000; stroke-width: 0.8; stroke-linejoin: miter; stroke-linecap: square"/>
   </g>
   <g id="patch_7">
    <path d="M 55.345313 22.318125 
L 498.865313 22.318125 
" style="fill: none; stroke: #000000; stroke-width: 0.8; stroke-linejoin: miter; stroke-linecap: square"/>
   </g>
   <g id="text_13">
    <!-- t = 0 -->
    <g transform="translate(64.215713 38.786962) scale(0.1 -0.1)">
     <defs>
      <path id="DejaVuSans-74" d="M 1172 4494 
L 1172 3500 
L 2356 3500 
L 2356 3053 
L 1172 3053 
L 1172 1153 
Q 1172 725 1289 603 
Q 1406 481 1766 481 
L 2356 481 
L 2356 0 
L 1766 0 
Q 1100 0 847 248 
Q 594 497 594 1153 
L 594 3053 
L 172 3053 
L 172 3500 
L 594 3500 
L 594 4494 
L 1172 4494 
z
" transform="scale(0.015625)"/>
      <path id="DejaVuSans-20" transform="scale(0.015625)"/>
      <path id="DejaVuSans-3d" d="M 678 2906 
L 4684 2906 
L 4684 2381 
L 678 2381 
L 678 2906 
z
M 678 1631 
L 4684 1631 
L 4684 1100 
L 678 1100 
L 678 1631 
z
" transform="scale(0.015625)"/>
     </defs>
     <use xlink:href="#DejaVuSans-74"/>
     <use xlink:href="#DejaVuSans-20" x="39.208984"/>
     <use xlink:href="#DejaVuSans-3d" x="70.996094"/>
     <use xlink:href="#DejaVuSans-20" x="154.785156"/>
     <use xlink:href="#DejaVuSans-30" x="186.572266"/>
    </g>
   </g>
   <g id="text_14">
    <!-- Evaluation trajectory 5 -->
    <g transform="translate(208.620938 16.318125) scale(0.12 -0.12)">
     <defs>
      <path id="DejaVuSans-45" d="M 628 4666 
L 3578 4666 
L 3578 4134 
L 1259 4134 
L 1259 2753 
L 3481 2753 
L 3481 2222 
L 1259 2222 
L 1259 531 
L 3634 531 
L 3634 0 
L 628 0 
L 628 4666 
z
" transform="scale(0.015625)"/>
      <path id="DejaVuSans-76" d="M 191 3500 
L 800 3500 
L 1894 563 
L 2988 3500 
L 3597 3500 
L 2284 0 
L 1503 0 
L 191 3500 
z
" transform="scale(0.015625)"/>
      <path id="DejaVuSans-61" d="M 2194 1759 
Q 1497 1759 1228 1600 
Q 959 1441 959 1056 
Q 959 750 1161 570 
Q 1363 391 1709 391 
Q 2188 391 2477 730 
Q 2766 1069 2766 1631 
L 2766 1759 
L 2194 1759 
z
M 3341 1997 
L 3341 0 
L 2766 0 
L 2766 531 
Q 2569 213 2275 61 
Q 1981 -91 1556 -91 
Q 1019 -91 701 211 
Q 384 513 384 1019 
Q 384 1609 779 1909 
Q 1175 2209 1959 2209 
L 2766 2209 
L 2766 2266 
Q 2766 2663 2505 2880 
Q 2244 3097 1772 3097 
Q 1472 3097 1187 3025 
Q 903 2953 641 2809 
L 641 3341 
Q 956 3463 1253 3523 
Q 1550 3584 1831 3584 
Q 2591 3584 2966 3190 
Q 3341 2797 3341 1997 
z
" transform="scale(0.015625)"/>
      <path id="DejaVuSans-6c" d="M 603 4863 
L 1178 4863 
L 1178 0 
L 603 0 
L 603 4863 
z
" transform="scale(0.015625)"/>
      <path id="DejaVuSans-75" d="M 544 1381 
L 544 3500 
L 1119 3500 
L 1119 1403 
Q 1119 906 1312 657 
Q 1506 409 1894 409 
Q 2359 409 2629 706 
Q 2900 1003 2900 1516 
L 2900 3500 
L 3475 3500 
L 3475 0 
L 2900 0 
L 2900 538 
Q 2691 219 2414 64 
Q 2138 -91 1772 -91 
Q 1169 -91 856 284 
Q 544 659 544 1381 
z
M 1991 3584 
L 1991 3584 
z
" transform="scale(0.015625)"/>
      <path id="DejaVuSans-69" d="M 603 3500 
L 1178 3500 
L 1178 0 
L 603 0 
L 603 3500 
z
M 603 4863 
L 1178 4863 
L 1178 4134 
L 603 4134 
L 603 4863 
z
" transform="scale(0.015625)"/>
      <path id="DejaVuSans-6f" d="M 1959 3097 
Q 1497 3097 1228 2736 
Q 959 2375 959 1747 
Q 959 1119 1226 758 
Q 1494 397 1959 397 
Q 2419 397 2687 759 
Q 2956 1122 2956 1747 
Q 2956 2369 2687 2733 
Q 2419 3097 1959 3097 
z
M 1959 3584 
Q 2709 3584 3137 3096 
Q 3566 2609 3566 1747 
Q 3566 888 3137 398 
Q 2709 -91 1959 -91 
Q 1206 -91 779 398 
Q 353 888 353 1747 
Q 353 2609 779 3096 
Q 1206 3584 1959 3584 
z
" transform="scale(0.015625)"/>
      <path id="DejaVuSans-6e" d="M 3513 2113 
L 3513 0 
L 2938 0 
L 2938 2094 
Q 2938 2591 2744 2837 
Q 2550 3084 2163 3084 
Q 1697 3084 1428 2787 
Q 1159 2491 1159 1978 
L 1159 0 
L 581 0 
L 581 3500 
L 1159 3500 
L 1159 2956 
Q 1366 3272 1645 3428 
Q 1925 3584 2291 3584 
Q 2894 3584 3203 3211 
Q 3513 2838 3513 2113 
z
" transform="scale(0.015625)"/>
      <path id="DejaVuSans-72" d="M 2631 2963 
Q 2534 3019 2420 3045 
Q 2306 3072 2169 3072 
Q 1681 3072 1420 2755 
Q 1159 2438 1159 1844 
L 1159 0 
L 581 0 
L 581 3500 
L 1159 3500 
L 1159 2956 
Q 1341 3275 1631 3429 
Q 1922 3584 2338 3584 
Q 2397 3584 2469 3576 
Q 2541 3569 2628 3553 
L 2631 2963 
z
" transform="scale(0.015625)"/>
      <path id="DejaVuSans-6a" d="M 603 3500 
L 1178 3500 
L 1178 -63 
Q 1178 -731 923 -1031 
Q 669 -1331 103 -1331 
L -116 -1331 
L -116 -844 
L 38 -844 
Q 366 -844 484 -692 
Q 603 -541 603 -63 
L 603 3500 
z
M 603 4863 
L 1178 4863 
L 1178 4134 
L 603 4134 
L 603 4863 
z
" transform="scale(0.015625)"/>
      <path id="DejaVuSans-65" d="M 3597 1894 
L 3597 1613 
L 953 1613 
Q 991 1019 1311 708 
Q 1631 397 2203 397 
Q 2534 397 2845 478 
Q 3156 559 3463 722 
L 3463 178 
Q 3153 47 2828 -22 
Q 2503 -91 2169 -91 
Q 1331 -91 842 396 
Q 353 884 353 1716 
Q 353 2575 817 3079 
Q 1281 3584 2069 3584 
Q 2775 3584 3186 3129 
Q 3597 2675 3597 1894 
z
M 3022 2063 
Q 3016 2534 2758 2815 
Q 2500 3097 2075 3097 
Q 1594 3097 1305 2825 
Q 1016 2553 972 2059 
L 3022 2063 
z
" transform="scale(0.015625)"/>
      <path id="DejaVuSans-63" d="M 3122 3366 
L 3122 2828 
Q 2878 2963 2633 3030 
Q 2388 3097 2138 3097 
Q 1578 3097 1268 2742 
Q 959 2388 959 1747 
Q 959 1106 1268 751 
Q 1578 397 2138 397 
Q 2388 397 2633 464 
Q 2878 531 3122 666 
L 3122 134 
Q 2881 22 2623 -34 
Q 2366 -91 2075 -91 
Q 1284 -91 818 406 
Q 353 903 353 1747 
Q 353 2603 823 3093 
Q 1294 3584 2113 3584 
Q 2378 3584 2631 3529 
Q 2884 3475 3122 3366 
z
" transform="scale(0.015625)"/>
      <path id="DejaVuSans-35" d="M 691 4666 
L 3169 4666 
L 3169 4134 
L 1269 4134 
L 1269 2991 
Q 1406 3038 1543 3061 
Q 1681 3084 1819 3084 
Q 2600 3084 3056 2656 
Q 3513 2228 3513 1497 
Q 3513 744 3044 326 
Q 2575 -91 1722 -91 
Q 1428 -91 1123 -41 
Q 819 9 494 109 
L 494 744 
Q 775 591 1075 516 
Q 1375 441 1709 441 
Q 2250 441 2565 725 
Q 2881 1009 2881 1497 
Q 2881 1984 2565 2268 
Q 2250 2553 1709 2553 
Q 1456 2553 1204 2497 
Q 953 2441 691 2322 
L 691 4666 
z
" transform="scale(0.015625)"/>
     </defs>
     <use xlink:href="#DejaVuSans-45"/>
     <use xlink:href="#DejaVuSans-76" x="63.183594"/>
     <use xlink:href="#DejaVuSans-61" x="122.363281"/>
     <use xlink:href="#DejaVuSans-6c" x="183.642578"/>
     <use xlink:href="#DejaVuSans-75" x="211.425781"/>
     <use xlink:href="#DejaVuSans-61" x="274.804688"/>
     <use xlink:href="#DejaVuSans-74" x="336.083984"/>
     <use xlink:href="#DejaVuSans-69" x="375.292969"/>
     <use xlink:href="#DejaVuSans-6f" x="403.076172"/>
     <use xlink:href="#DejaVuSans-6e" x="464.257812"/>
     <use xlink:href="#DejaVuSans-20" x="527.636719"/>
     <use xlink:href="#DejaVuSans-74" x="559.423828"/>
     <use xlink:href="#DejaVuSans-72" x="598.632812"/>
     <use xlink:href="#DejaVuSans-61" x="639.746094"/>
     <use xlink:href="#DejaVuSans-6a" x="701.025391"/>
     <use xlink:href="#DejaVuSans-65" x="728.808594"/>
     <use xlink:href="#DejaVuSans-63" x="790.332031"/>
     <use xlink:href="#DejaVuSans-74" x="845.3125"/>
     <use xlink:href="#DejaVuSans-6f" x="884.521484"/>
     <use xlink:href="#DejaVuSans-72" x="945.703125"/>
     <use xlink:href="#DejaVuSans-79" x="986.816406"/>
     <use xlink:href="#DejaVuSans-20" x="1045.996094"/>
     <use xlink:href="#DejaVuSans-35" x="1077.783203"/>
    </g>
   </g>
   <g id="legend_1">
    <g id="patch_8">
     <path d="M 424.387188 59.674375 
L 491.865313 59.674375 
Q 493.865313 59.674375 493.865313 57.674375 
L 493.865313 29.318125 
Q 493.865313 27.318125 491.865313 27.318125 
L 424.387188 27.318125 
Q 422.387188 27.318125 422.387188 29.318125 
L 422.387188 57.674375 
Q 422.387188 59.674375 424.387188 59.674375 
z
" style="fill: #ffffff; opacity: 0.8; stroke: #cccccc; stroke-linejoin: miter"/>
    </g>
    <g id="PathCollection_3">
     <g>
      <use xlink:href="#m8896e97e1d" x="436.387188" y="36.291562" style="fill: #4169e1; stroke: #4169e1"/>
     </g>
    </g>
    <g id="text_15">
     <!-- Sheep -->
     <g transform="translate(454.387188 38.916562) scale(0.1 -0.1)">
      <defs>
       <path id="DejaVuSans-53" d="M 3425 4513 
L 3425 3897 
Q 3066 4069 2747 4153 
Q 2428 4238 2131 4238 
Q 1616 4238 1336 4038 
Q 1056 3838 1056 3469 
Q 1056 3159 1242 3001 
Q 1428 2844 1947 2747 
L 2328 2669 
Q 3034 2534 3370 2195 
Q 3706 1856 3706 1288 
Q 3706 609 3251 259 
Q 2797 -91 1919 -91 
Q 1588 -91 1214 -16 
Q 841 59 441 206 
L 441 856 
Q 825 641 1194 531 
Q 1563 422 1919 422 
Q 2459 422 2753 634 
Q 3047 847 3047 1241 
Q 3047 1584 2836 1778 
Q 2625 1972 2144 2069 
L 1759 2144 
Q 1053 2284 737 2584 
Q 422 2884 422 3419 
Q 422 4038 858 4394 
Q 1294 4750 2059 4750 
Q 2388 4750 2728 4690 
Q 3069 4631 3425 4513 
z
" transform="scale(0.015625)"/>
       <path id="DejaVuSans-68" d="M 3513 2113 
L 3513 0 
L 2938 0 
L 2938 2094 
Q 2938 2591 2744 2837 
Q 2550 3084 2163 3084 
Q 1697 3084 1428 2787 
Q 1159 2491 1159 1978 
L 1159 0 
L 581 0 
L 581 4863 
L 1159 4863 
L 1159 2956 
Q 1366 3272 1645 3428 
Q 1925 3584 2291 3584 
Q 2894 3584 3203 3211 
Q 3513 2838 3513 2113 
z
" transform="scale(0.015625)"/>
       <path id="DejaVuSans-70" d="M 1159 525 
L 1159 -1331 
L 581 -1331 
L 581 3500 
L 1159 3500 
L 1159 2969 
Q 1341 3281 1617 3432 
Q 1894 3584 2278 3584 
Q 2916 3584 3314 3078 
Q 3713 2572 3713 1747 
Q 3713 922 3314 415 
Q 2916 -91 2278 -91 
Q 1894 -91 1617 61 
Q 1341 213 1159 525 
z
M 3116 1747 
Q 3116 2381 2855 2742 
Q 2594 3103 2138 3103 
Q 1681 3103 1420 2742 
Q 1159 2381 1159 1747 
Q 1159 1113 1420 752 
Q 1681 391 2138 391 
Q 2594 391 2855 752 
Q 3116 1113 3116 1747 
z
" transform="scale(0.015625)"/>
      </defs>
      <use xlink:href="#DejaVuSans-53"/>
      <use xlink:href="#DejaVuSans-68" x="63.476562"/>
      <use xlink:href="#DejaVuSans-65" x="126.855469"/>
      <use xlink:href="#DejaVuSans-65" x="188.378906"/>
      <use xlink:href="#DejaVuSans-70" x="249.902344"/>
     </g>
    </g>
    <g id="PathCollection_4">
     <g>
      <use xlink:href="#m1e133fed36" x="436.387188" y="50.969687" style="fill: #b22222; stroke: #b22222"/>
     </g>
    </g>
    <g id="text_16">
     <!-- Wolves -->
     <g transform="translate(454.387188 53.594687) scale(0.1 -0.1)">
      <defs>
       <path id="DejaVuSans-57" d="M 213 4666 
L 850 4666 
L 1831 722 
L 2809 4666 
L 3519 4666 
L 4500 722 
L 5478 4666 
L 6119 4666 
L 4947 0 
L 4153 0 
L 3169 4050 
L 2175 0 
L 1381 0 
L 213 4666 
z
" transform="scale(0.015625)"/>
       <path id="DejaVuSans-73" d="M 2834 3397 
L 2834 2853 
Q 2591 2978 2328 3040 
Q 2066 3103 1784 3103 
Q 1356 3103 1142 2972 
Q 928 2841 928 2578 
Q 928 2378 1081 2264 
Q 1234 2150 1697 2047 
L 1894 2003 
Q 2506 1872 2764 1633 
Q 3022 1394 3022 966 
Q 3022 478 2636 193 
Q 2250 -91 1575 -91 
Q 1294 -91 989 -36 
Q 684 19 347 128 
L 347 722 
Q 666 556 975 473 
Q 1284 391 1588 391 
Q 1994 391 2212 530 
Q 2431 669 2431 922 
Q 2431 1156 2273 1281 
Q 2116 1406 1581 1522 
L 1381 1569 
Q 847 1681 609 1914 
Q 372 2147 372 2553 
Q 372 3047 722 3315 
Q 1072 3584 1716 3584 
Q 2034 3584 2315 3537 
Q 2597 3491 2834 3397 
z
" transform="scale(0.015625)"/>
      </defs>
      <use xlink:href="#DejaVuSans-57"/>
      <use xlink:href="#DejaVuSans-6f" x="93.001953"/>
      <use xlink:href="#DejaVuSans-6c" x="154.183594"/>
      <use xlink:href="#DejaVuSans-76" x="181.966797"/>
      <use xlink:href="#DejaVuSans-65" x="241.146484"/>
      <use xlink:href="#DejaVuSans-73" x="302.669922"/>
     </g>
    </g>
   </g>
  </g>
 </g>
 <defs>
  <clipPath id="p0849de9cc5">
   <rect x="55.345313" y="22.318125" width="443.52" height="443.52"/>
  </clipPath>
 </defs>
</svg>
