<?xml version="1.0" encoding="utf-8" standalone="no"?>
<!DOCTYPE svg PUBLIC "-//W3C//DTD SVG 1.1//EN"
  "http://www.w3.org/Graphics/SVG/1.1/DTD/svg11.dtd">
<svg xmlns:xlink="http://www.w3.org/1999/xlink" width="506.065313pt" height="503.394375pt" viewBox="0 0 506.065313 503.394375" xmlns="http://www.w3.org/2000/svg" version="1.1">
 <metadata>
  <rdf:RDF xmlns:dc="http://purl.org/dc/elements/1.1/" xmlns:cc="http://creativecommons.org/ns#" xmlns:rdf="http://www.w3.org/1999/02/22-rdf-syntax-ns#">
   <cc:Work>
    <dc:type rdf:resource="http://purl.org/dc/dcmitype/StillImage"/>
    <dc:date>2026-05-08T10:00:04.964243</dc:date>
    <dc:format>image/svg+xml</dc:format>
    <dc:creator>
     <cc:Agent>
      <dc:title>Matplotlib v3.7.1, https://matplotlib.org/</dc:title>
     </cc:Agent>
    </dc:creator>
   </cc:Work>
  </rdf:RDF>
 </metadata>
 <defs>
  <style type="text/css">*{stroke-linejoin: round; stroke-linecap: butt}</style>
 </defs>
 <g id="figure_1">
  <g id="patch_1">
   <path d="M 0 503.394375 
L 506.065313 503.394375 
L 506.065313 0 
L 0 0 
z
" style="fill: #ffffff"/>
  </g>
  <g id="axes_1">
   <g id="patch_2">
    <path d="M 55.345313 465.838125 
L 498.865313 465.838125 
L 498.865313 22.318125 
L 55.345313 22.318125 
z
" style="fill: #ffffff"/>
   </g>
   <g id="patch_3">
    <path d="M 277.105313 332.782125 
C 300.629888 332.782125 323.194125 323.435712 339.828512 306.801325 
C 356.462899 290.166938 365.809313 267.602701 365.809313 244.078125 
C 365.809313 220.553549 356.462899 197.989312 339.828512 181.354925 
C 323.194125 164.720538 300.629888 155.374125 277.105313 155.374125 
C 253.580737 155.374125 231.0165 164.720538 214.382113 181.354925 
C 197.747726 197.989312 188.401313 220.553549 188.401313 244.078125 
C 188.401313 267.602701 197.747726 290.166938 214.382113 306.801325 
C 231.0165 323.435712 253.580737 332.782125 277.105313 332.782125 
z
" clip-path="url(#p493dbdf59b)" style="fill: #228b22; opacity: 0.12; stroke: #228b22; stroke-width: 1.5; stroke-linejoin: miter"/>
   </g>
   <g id="PathCollection_1">
    <defs>
     <path id="m42bf7fe8ff" d="M 0 2.236068 
C 0.593012 2.236068 1.161816 2.000462 1.581139 1.581139 
C 2.000462 1.161816 2.236068 0.593012 2.236068 0 
C 2.236068 -0.593012 2.000462 -1.161816 1.581139 -1.581139 
C 1.161816 -2.000462 0.593012 -2.236068 0 -2.236068 
C -0.593012 -2.236068 -1.161816 -2.000462 -1.581139 -1.581139 
C -2.000462 -1.161816 -2.236068 -0.593012 -2.236068 0 
C -2.236068 0.593012 -2.000462 1.161816 -1.581139 1.581139 
C -1.161816 2.000462 -0.593012 2.236068 0 2.236068 
z
" style="stroke: #4169e1"/>
    </defs>
    <g clip-path="url(#p493dbdf59b)">
     <use xlink:href="#m42bf7fe8ff" x="342.014433" y="278.265517" style="fill: #4169e1; stroke: #4169e1"/>
     <use xlink:href="#m42bf7fe8ff" x="308.119814" y="278.528566" style="fill: #4169e1; stroke: #4169e1"/>
     <use xlink:href="#m42bf7fe8ff" x="320.728678" y="217.374955" style="fill: #4169e1; stroke: #4169e1"/>
     <use xlink:href="#m42bf7fe8ff" x="349.149613" y="158.009616" style="fill: #4169e1; stroke: #4169e1"/>
     <use xlink:href="#m42bf7fe8ff" x="375.957682" y="322.953571" style="fill: #4169e1; stroke: #4169e1"/>
     <use xlink:href="#m42bf7fe8ff" x="224.334746" y="177.642347" style="fill: #4169e1; stroke: #4169e1"/>
     <use xlink:href="#m42bf7fe8ff" x="387.540791" y="183.391343" style="fill: #4169e1; stroke: #4169e1"/>
     <use xlink:href="#m42bf7fe8ff" x="381.085787" y="191.28078" style="fill: #4169e1; stroke: #4169e1"/>
     <use xlink:href="#m42bf7fe8ff" x="249.944824" y="279.822145" style="fill: #4169e1; stroke: #4169e1"/>
     <use xlink:href="#m42bf7fe8ff" x="309.235628" y="225.178697" style="fill: #4169e1; stroke: #4169e1"/>
     <use xlink:href="#m42bf7fe8ff" x="211.248643" y="294.832589" style="fill: #4169e1; stroke: #4169e1"/>
     <use xlink:href="#m42bf7fe8ff" x="357.041698" y="308.530197" style="fill: #4169e1; stroke: #4169e1"/>
     <use xlink:href="#m42bf7fe8ff" x="261.906648" y="208.598562" style="fill: #4169e1; stroke: #4169e1"/>
     <use xlink:href="#m42bf7fe8ff" x="242.253852" y="351.184584" style="fill: #4169e1; stroke: #4169e1"/>
     <use xlink:href="#m42bf7fe8ff" x="390.041851" y="289.064078" style="fill: #4169e1; stroke: #4169e1"/>
     <use xlink:href="#m42bf7fe8ff" x="247.875973" y="333.203095" style="fill: #4169e1; stroke: #4169e1"/>
     <use xlink:href="#m42bf7fe8ff" x="366.065641" y="283.276675" style="fill: #4169e1; stroke: #4169e1"/>
     <use xlink:href="#m42bf7fe8ff" x="311.17903" y="340.872656" style="fill: #4169e1; stroke: #4169e1"/>
     <use xlink:href="#m42bf7fe8ff" x="205.781678" y="279.146026" style="fill: #4169e1; stroke: #4169e1"/>
     <use xlink:href="#m42bf7fe8ff" x="180.46358" y="245.799177" style="fill: #4169e1; stroke: #4169e1"/>
     <use xlink:href="#m42bf7fe8ff" x="353.640408" y="266.803722" style="fill: #4169e1; stroke: #4169e1"/>
     <use xlink:href="#m42bf7fe8ff" x="228.756702" y="199.856059" style="fill: #4169e1; stroke: #4169e1"/>
     <use xlink:href="#m42bf7fe8ff" x="334.27834" y="244.466334" style="fill: #4169e1; stroke: #4169e1"/>
     <use xlink:href="#m42bf7fe8ff" x="294.093267" y="97.044572" style="fill: #4169e1; stroke: #4169e1"/>
     <use xlink:href="#m42bf7fe8ff" x="423.943242" y="291.94822" style="fill: #4169e1; stroke: #4169e1"/>
     <use xlink:href="#m42bf7fe8ff" x="208.988712" y="178.636308" style="fill: #4169e1; stroke: #4169e1"/>
     <use xlink:href="#m42bf7fe8ff" x="267.020741" y="314.156877" style="fill: #4169e1; stroke: #4169e1"/>
     <use xlink:href="#m42bf7fe8ff" x="379.511493" y="314.843928" style="fill: #4169e1; stroke: #4169e1"/>
     <use xlink:href="#m42bf7fe8ff" x="332.156975" y="162.508783" style="fill: #4169e1; stroke: #4169e1"/>
     <use xlink:href="#m42bf7fe8ff" x="432.592558" y="282.344583" style="fill: #4169e1; stroke: #4169e1"/>
     <use xlink:href="#m42bf7fe8ff" x="363.966521" y="219.983129" style="fill: #4169e1; stroke: #4169e1"/>
     <use xlink:href="#m42bf7fe8ff" x="309.662517" y="151.011927" style="fill: #4169e1; stroke: #4169e1"/>
     <use xlink:href="#m42bf7fe8ff" x="367.927625" y="249.549201" style="fill: #4169e1; stroke: #4169e1"/>
     <use xlink:href="#m42bf7fe8ff" x="297.893719" y="290.554288" style="fill: #4169e1; stroke: #4169e1"/>
     <use xlink:href="#m42bf7fe8ff" x="229.628238" y="336.07351" style="fill: #4169e1; stroke: #4169e1"/>
     <use xlink:href="#m42bf7fe8ff" x="225.824118" y="200.183607" style="fill: #4169e1; stroke: #4169e1"/>
     <use xlink:href="#m42bf7fe8ff" x="249.114958" y="167.482635" style="fill: #4169e1; stroke: #4169e1"/>
     <use xlink:href="#m42bf7fe8ff" x="340.68675" y="138.483522" style="fill: #4169e1; stroke: #4169e1"/>
     <use xlink:href="#m42bf7fe8ff" x="345.678177" y="230.23082" style="fill: #4169e1; stroke: #4169e1"/>
     <use xlink:href="#m42bf7fe8ff" x="204.736811" y="238.819203" style="fill: #4169e1; stroke: #4169e1"/>
     <use xlink:href="#m42bf7fe8ff" x="313.719832" y="349.371584" style="fill: #4169e1; stroke: #4169e1"/>
     <use xlink:href="#m42bf7fe8ff" x="243.81922" y="226.15603" style="fill: #4169e1; stroke: #4169e1"/>
     <use xlink:href="#m42bf7fe8ff" x="337.820653" y="289.236536" style="fill: #4169e1; stroke: #4169e1"/>
     <use xlink:href="#m42bf7fe8ff" x="311.450768" y="342.122479" style="fill: #4169e1; stroke: #4169e1"/>
     <use xlink:href="#m42bf7fe8ff" x="276.333954" y="263.953893" style="fill: #4169e1; stroke: #4169e1"/>
     <use xlink:href="#m42bf7fe8ff" x="216.409205" y="335.62779" style="fill: #4169e1; stroke: #4169e1"/>
     <use xlink:href="#m42bf7fe8ff" x="296.670322" y="269.931906" style="fill: #4169e1; stroke: #4169e1"/>
     <use xlink:href="#m42bf7fe8ff" x="324.423424" y="292.170098" style="fill: #4169e1; stroke: #4169e1"/>
     <use xlink:href="#m42bf7fe8ff" x="294.965856" y="307.600535" style="fill: #4169e1; stroke: #4169e1"/>
     <use xlink:href="#m42bf7fe8ff" x="202.111384" y="328.986955" style="fill: #4169e1; stroke: #4169e1"/>
     <use xlink:href="#m42bf7fe8ff" x="442.207189" y="320.77412" style="fill: #4169e1; stroke: #4169e1"/>
     <use xlink:href="#m42bf7fe8ff" x="418.962643" y="274.487063" style="fill: #4169e1; stroke: #4169e1"/>
     <use xlink:href="#m42bf7fe8ff" x="292.934082" y="143.57532" style="fill: #4169e1; stroke: #4169e1"/>
     <use xlink:href="#m42bf7fe8ff" x="290.901636" y="239.005199" style="fill: #4169e1; stroke: #4169e1"/>
     <use xlink:href="#m42bf7fe8ff" x="336.767841" y="287.833377" style="fill: #4169e1; stroke: #4169e1"/>
     <use xlink:href="#m42bf7fe8ff" x="305.324668" y="313.880252" style="fill: #4169e1; stroke: #4169e1"/>
     <use xlink:href="#m42bf7fe8ff" x="222.03828" y="141.231822" style="fill: #4169e1; stroke: #4169e1"/>
     <use xlink:href="#m42bf7fe8ff" x="375.645717" y="178.087105" style="fill: #4169e1; stroke: #4169e1"/>
     <use xlink:href="#m42bf7fe8ff" x="219.072606" y="222.041882" style="fill: #4169e1; stroke: #4169e1"/>
     <use xlink:href="#m42bf7fe8ff" x="421.387723" y="273.835647" style="fill: #4169e1; stroke: #4169e1"/>
     <use xlink:href="#m42bf7fe8ff" x="264.960643" y="319.768235" style="fill: #4169e1; stroke: #4169e1"/>
     <use xlink:href="#m42bf7fe8ff" x="265.701382" y="365.030339" style="fill: #4169e1; stroke: #4169e1"/>
     <use xlink:href="#m42bf7fe8ff" x="238.880035" y="277.381204" style="fill: #4169e1; stroke: #4169e1"/>
     <use xlink:href="#m42bf7fe8ff" x="187.954706" y="269.063441" style="fill: #4169e1; stroke: #4169e1"/>
     <use xlink:href="#m42bf7fe8ff" x="219.716825" y="175.52624" style="fill: #4169e1; stroke: #4169e1"/>
     <use xlink:href="#m42bf7fe8ff" x="250.00703" y="130.206639" style="fill: #4169e1; stroke: #4169e1"/>
     <use xlink:href="#m42bf7fe8ff" x="208.991946" y="144.27952" style="fill: #4169e1; stroke: #4169e1"/>
     <use xlink:href="#m42bf7fe8ff" x="361.440394" y="162.301519" style="fill: #4169e1; stroke: #4169e1"/>
     <use xlink:href="#m42bf7fe8ff" x="304.251628" y="282.865731" style="fill: #4169e1; stroke: #4169e1"/>
     <use xlink:href="#m42bf7fe8ff" x="223.151388" y="139.463325" style="fill: #4169e1; stroke: #4169e1"/>
     <use xlink:href="#m42bf7fe8ff" x="260.66157" y="183.235317" style="fill: #4169e1; stroke: #4169e1"/>
     <use xlink:href="#m42bf7fe8ff" x="225.053345" y="272.996342" style="fill: #4169e1; stroke: #4169e1"/>
     <use xlink:href="#m42bf7fe8ff" x="282.939359" y="284.075168" style="fill: #4169e1; stroke: #4169e1"/>
     <use xlink:href="#m42bf7fe8ff" x="437.343588" y="275.501408" style="fill: #4169e1; stroke: #4169e1"/>
     <use xlink:href="#m42bf7fe8ff" x="142.233395" y="231.564423" style="fill: #4169e1; stroke: #4169e1"/>
     <use xlink:href="#m42bf7fe8ff" x="342.336733" y="153.751084" style="fill: #4169e1; stroke: #4169e1"/>
     <use xlink:href="#m42bf7fe8ff" x="189.820758" y="316.656509" style="fill: #4169e1; stroke: #4169e1"/>
     <use xlink:href="#m42bf7fe8ff" x="241.13328" y="165.71047" style="fill: #4169e1; stroke: #4169e1"/>
     <use xlink:href="#m42bf7fe8ff" x="276.149138" y="237.930663" style="fill: #4169e1; stroke: #4169e1"/>
     <use xlink:href="#m42bf7fe8ff" x="393.000345" y="199.848537" style="fill: #4169e1; stroke: #4169e1"/>
     <use xlink:href="#m42bf7fe8ff" x="234.396294" y="176.347222" style="fill: #4169e1; stroke: #4169e1"/>
     <use xlink:href="#m42bf7fe8ff" x="382.071221" y="364.473164" style="fill: #4169e1; stroke: #4169e1"/>
     <use xlink:href="#m42bf7fe8ff" x="411.634222" y="275.378742" style="fill: #4169e1; stroke: #4169e1"/>
     <use xlink:href="#m42bf7fe8ff" x="316.831798" y="317.985343" style="fill: #4169e1; stroke: #4169e1"/>
     <use xlink:href="#m42bf7fe8ff" x="377.828098" y="160.623945" style="fill: #4169e1; stroke: #4169e1"/>
     <use xlink:href="#m42bf7fe8ff" x="366.726306" y="182.022418" style="fill: #4169e1; stroke: #4169e1"/>
     <use xlink:href="#m42bf7fe8ff" x="285.122115" y="176.311401" style="fill: #4169e1; stroke: #4169e1"/>
     <use xlink:href="#m42bf7fe8ff" x="160.515006" y="290.106007" style="fill: #4169e1; stroke: #4169e1"/>
     <use xlink:href="#m42bf7fe8ff" x="325.114728" y="281.402073" style="fill: #4169e1; stroke: #4169e1"/>
     <use xlink:href="#m42bf7fe8ff" x="336.583811" y="180.554192" style="fill: #4169e1; stroke: #4169e1"/>
     <use xlink:href="#m42bf7fe8ff" x="260.631569" y="275.766863" style="fill: #4169e1; stroke: #4169e1"/>
     <use xlink:href="#m42bf7fe8ff" x="323.7776" y="309.203341" style="fill: #4169e1; stroke: #4169e1"/>
     <use xlink:href="#m42bf7fe8ff" x="253.268605" y="305.789105" style="fill: #4169e1; stroke: #4169e1"/>
     <use xlink:href="#m42bf7fe8ff" x="276.587134" y="268.370086" style="fill: #4169e1; stroke: #4169e1"/>
     <use xlink:href="#m42bf7fe8ff" x="326.958247" y="142.370569" style="fill: #4169e1; stroke: #4169e1"/>
     <use xlink:href="#m42bf7fe8ff" x="357.252109" y="307.34872" style="fill: #4169e1; stroke: #4169e1"/>
     <use xlink:href="#m42bf7fe8ff" x="312.382484" y="302.735418" style="fill: #4169e1; stroke: #4169e1"/>
     <use xlink:href="#m42bf7fe8ff" x="181.941801" y="301.530579" style="fill: #4169e1; stroke: #4169e1"/>
     <use xlink:href="#m42bf7fe8ff" x="294.956979" y="307.980169" style="fill: #4169e1; stroke: #4169e1"/>
     <use xlink:href="#m42bf7fe8ff" x="243.21988" y="226.935357" style="fill: #4169e1; stroke: #4169e1"/>
     <use xlink:href="#m42bf7fe8ff" x="397.078853" y="352.181144" style="fill: #4169e1; stroke: #4169e1"/>
     <use xlink:href="#m42bf7fe8ff" x="366.878563" y="166.615702" style="fill: #4169e1; stroke: #4169e1"/>
     <use xlink:href="#m42bf7fe8ff" x="182.667177" y="204.464902" style="fill: #4169e1; stroke: #4169e1"/>
     <use xlink:href="#m42bf7fe8ff" x="233.559216" y="173.173241" style="fill: #4169e1; stroke: #4169e1"/>
     <use xlink:href="#m42bf7fe8ff" x="191.166958" y="278.428754" style="fill: #4169e1; stroke: #4169e1"/>
     <use xlink:href="#m42bf7fe8ff" x="242.690411" y="211.866751" style="fill: #4169e1; stroke: #4169e1"/>
     <use xlink:href="#m42bf7fe8ff" x="270.429249" y="293.918032" style="fill: #4169e1; stroke: #4169e1"/>
     <use xlink:href="#m42bf7fe8ff" x="321.759042" y="265.773339" style="fill: #4169e1; stroke: #4169e1"/>
     <use xlink:href="#m42bf7fe8ff" x="230.114444" y="148.437926" style="fill: #4169e1; stroke: #4169e1"/>
     <use xlink:href="#m42bf7fe8ff" x="328.916331" y="303.618046" style="fill: #4169e1; stroke: #4169e1"/>
     <use xlink:href="#m42bf7fe8ff" x="298.430853" y="315.584782" style="fill: #4169e1; stroke: #4169e1"/>
     <use xlink:href="#m42bf7fe8ff" x="348.384788" y="203.911334" style="fill: #4169e1; stroke: #4169e1"/>
     <use xlink:href="#m42bf7fe8ff" x="277.61988" y="306.298785" style="fill: #4169e1; stroke: #4169e1"/>
     <use xlink:href="#m42bf7fe8ff" x="344.06704" y="248.898643" style="fill: #4169e1; stroke: #4169e1"/>
     <use xlink:href="#m42bf7fe8ff" x="353.996011" y="124.072141" style="fill: #4169e1; stroke: #4169e1"/>
     <use xlink:href="#m42bf7fe8ff" x="173.327805" y="164.757501" style="fill: #4169e1; stroke: #4169e1"/>
     <use xlink:href="#m42bf7fe8ff" x="250.499286" y="196.774683" style="fill: #4169e1; stroke: #4169e1"/>
     <use xlink:href="#m42bf7fe8ff" x="378.167086" y="292.686691" style="fill: #4169e1; stroke: #4169e1"/>
     <use xlink:href="#m42bf7fe8ff" x="211.143129" y="222.882179" style="fill: #4169e1; stroke: #4169e1"/>
     <use xlink:href="#m42bf7fe8ff" x="186.261445" y="300.22754" style="fill: #4169e1; stroke: #4169e1"/>
     <use xlink:href="#m42bf7fe8ff" x="443.673926" y="212.277918" style="fill: #4169e1; stroke: #4169e1"/>
     <use xlink:href="#m42bf7fe8ff" x="290.036802" y="151.121941" style="fill: #4169e1; stroke: #4169e1"/>
     <use xlink:href="#m42bf7fe8ff" x="213.074508" y="320.225811" style="fill: #4169e1; stroke: #4169e1"/>
     <use xlink:href="#m42bf7fe8ff" x="130.865827" y="225.16054" style="fill: #4169e1; stroke: #4169e1"/>
     <use xlink:href="#m42bf7fe8ff" x="257.059985" y="167.515194" style="fill: #4169e1; stroke: #4169e1"/>
     <use xlink:href="#m42bf7fe8ff" x="154.975473" y="315.26406" style="fill: #4169e1; stroke: #4169e1"/>
     <use xlink:href="#m42bf7fe8ff" x="385.269274" y="281.335351" style="fill: #4169e1; stroke: #4169e1"/>
     <use xlink:href="#m42bf7fe8ff" x="203.082531" y="177.658014" style="fill: #4169e1; stroke: #4169e1"/>
     <use xlink:href="#m42bf7fe8ff" x="427.925041" y="204.101885" style="fill: #4169e1; stroke: #4169e1"/>
     <use xlink:href="#m42bf7fe8ff" x="230.101786" y="287.46406" style="fill: #4169e1; stroke: #4169e1"/>
     <use xlink:href="#m42bf7fe8ff" x="320.239301" y="283.254816" style="fill: #4169e1; stroke: #4169e1"/>
     <use xlink:href="#m42bf7fe8ff" x="274.602096" y="290.312358" style="fill: #4169e1; stroke: #4169e1"/>
     <use xlink:href="#m42bf7fe8ff" x="273.333538" y="138.059716" style="fill: #4169e1; stroke: #4169e1"/>
     <use xlink:href="#m42bf7fe8ff" x="287.886287" y="229.478968" style="fill: #4169e1; stroke: #4169e1"/>
    </g>
   </g>
   <g id="PathCollection_2">
    <defs>
     <path id="m6f0d67399f" d="M 0 2.5 
C 0.663008 2.5 1.29895 2.236584 1.767767 1.767767 
C 2.236584 1.29895 2.5 0.663008 2.5 0 
C 2.5 -0.663008 2.236584 -1.29895 1.767767 -1.767767 
C 1.29895 -2.236584 0.663008 -2.5 0 -2.5 
C -0.663008 -2.5 -1.29895 -2.236584 -1.767767 -1.767767 
C -2.236584 -1.29895 -2.5 -0.663008 -2.5 0 
C -2.5 0.663008 -2.236584 1.29895 -1.767767 1.767767 
C -1.29895 2.236584 -0.663008 2.5 0 2.5 
z
" style="stroke: #b22222"/>
    </defs>
    <g clip-path="url(#p493dbdf59b)">
     <use xlink:href="#m6f0d67399f" x="262.353168" y="265.406564" style="fill: #b22222; stroke: #b22222"/>
     <use xlink:href="#m6f0d67399f" x="302.011993" y="235.112005" style="fill: #b22222; stroke: #b22222"/>
     <use xlink:href="#m6f0d67399f" x="275.131816" y="228.768527" style="fill: #b22222; stroke: #b22222"/>
     <use xlink:href="#m6f0d67399f" x="290.305833" y="237.893225" style="fill: #b22222; stroke: #b22222"/>
     <use xlink:href="#m6f0d67399f" x="303.34998" y="231.566602" style="fill: #b22222; stroke: #b22222"/>
     <use xlink:href="#m6f0d67399f" x="301.572124" y="240.677102" style="fill: #b22222; stroke: #b22222"/>
     <use xlink:href="#m6f0d67399f" x="270.315467" y="263.458814" style="fill: #b22222; stroke: #b22222"/>
     <use xlink:href="#m6f0d67399f" x="329.67746" y="242.016911" style="fill: #b22222; stroke: #b22222"/>
     <use xlink:href="#m6f0d67399f" x="338.990084" y="266.940354" style="fill: #b22222; stroke: #b22222"/>
     <use xlink:href="#m6f0d67399f" x="319.311797" y="231.06585" style="fill: #b22222; stroke: #b22222"/>
     <use xlink:href="#m6f0d67399f" x="301.68359" y="240.719201" style="fill: #b22222; stroke: #b22222"/>
     <use xlink:href="#m6f0d67399f" x="314.673614" y="241.608258" style="fill: #b22222; stroke: #b22222"/>
     <use xlink:href="#m6f0d67399f" x="291.35554" y="233.374885" style="fill: #b22222; stroke: #b22222"/>
     <use xlink:href="#m6f0d67399f" x="351.330898" y="250.827918" style="fill: #b22222; stroke: #b22222"/>
     <use xlink:href="#m6f0d67399f" x="262.779607" y="236.312113" style="fill: #b22222; stroke: #b22222"/>
     <use xlink:href="#m6f0d67399f" x="280.858503" y="226.832375" style="fill: #b22222; stroke: #b22222"/>
     <use xlink:href="#m6f0d67399f" x="240.176303" y="209.05962" style="fill: #b22222; stroke: #b22222"/>
     <use xlink:href="#m6f0d67399f" x="283.962782" y="239.791423" style="fill: #b22222; stroke: #b22222"/>
     <use xlink:href="#m6f0d67399f" x="263.107666" y="235.244981" style="fill: #b22222; stroke: #b22222"/>
     <use xlink:href="#m6f0d67399f" x="282.871915" y="237.385107" style="fill: #b22222; stroke: #b22222"/>
     <use xlink:href="#m6f0d67399f" x="309.171505" y="223.219904" style="fill: #b22222; stroke: #b22222"/>
     <use xlink:href="#m6f0d67399f" x="263.193223" y="263.224724" style="fill: #b22222; stroke: #b22222"/>
     <use xlink:href="#m6f0d67399f" x="235.625611" y="224.443242" style="fill: #b22222; stroke: #b22222"/>
     <use xlink:href="#m6f0d67399f" x="311.137683" y="236.023726" style="fill: #b22222; stroke: #b22222"/>
     <use xlink:href="#m6f0d67399f" x="245.779601" y="225.086489" style="fill: #b22222; stroke: #b22222"/>
     <use xlink:href="#m6f0d67399f" x="245.399801" y="214.13191" style="fill: #b22222; stroke: #b22222"/>
     <use xlink:href="#m6f0d67399f" x="283.130802" y="232.477046" style="fill: #b22222; stroke: #b22222"/>
     <use xlink:href="#m6f0d67399f" x="308.9905" y="229.50803" style="fill: #b22222; stroke: #b22222"/>
     <use xlink:href="#m6f0d67399f" x="262.595948" y="238.225852" style="fill: #b22222; stroke: #b22222"/>
     <use xlink:href="#m6f0d67399f" x="344.459911" y="270.070408" style="fill: #b22222; stroke: #b22222"/>
     <use xlink:href="#m6f0d67399f" x="224.83887" y="223.582567" style="fill: #b22222; stroke: #b22222"/>
     <use xlink:href="#m6f0d67399f" x="238.998153" y="212.678928" style="fill: #b22222; stroke: #b22222"/>
     <use xlink:href="#m6f0d67399f" x="294.872555" y="243.020984" style="fill: #b22222; stroke: #b22222"/>
     <use xlink:href="#m6f0d67399f" x="301.938636" y="236.038032" style="fill: #b22222; stroke: #b22222"/>
     <use xlink:href="#m6f0d67399f" x="279.984304" y="237.808419" style="fill: #b22222; stroke: #b22222"/>
     <use xlink:href="#m6f0d67399f" x="240.687367" y="222.453236" style="fill: #b22222; stroke: #b22222"/>
     <use xlink:href="#m6f0d67399f" x="324.323653" y="239.124666" style="fill: #b22222; stroke: #b22222"/>
     <use xlink:href="#m6f0d67399f" x="275.802582" y="243.267455" style="fill: #b22222; stroke: #b22222"/>
     <use xlink:href="#m6f0d67399f" x="291.114656" y="231.515907" style="fill: #b22222; stroke: #b22222"/>
     <use xlink:href="#m6f0d67399f" x="286.375372" y="235.288582" style="fill: #b22222; stroke: #b22222"/>
     <use xlink:href="#m6f0d67399f" x="286.683823" y="231.615983" style="fill: #b22222; stroke: #b22222"/>
     <use xlink:href="#m6f0d67399f" x="315.394219" y="238.05808" style="fill: #b22222; stroke: #b22222"/>
     <use xlink:href="#m6f0d67399f" x="236.463011" y="224.090249" style="fill: #b22222; stroke: #b22222"/>
     <use xlink:href="#m6f0d67399f" x="304.053052" y="241.670873" style="fill: #b22222; stroke: #b22222"/>
     <use xlink:href="#m6f0d67399f" x="282.171565" y="231.628333" style="fill: #b22222; stroke: #b22222"/>
     <use xlink:href="#m6f0d67399f" x="279.893252" y="234.481235" style="fill: #b22222; stroke: #b22222"/>
     <use xlink:href="#m6f0d67399f" x="230.944731" y="220.367186" style="fill: #b22222; stroke: #b22222"/>
     <use xlink:href="#m6f0d67399f" x="281.710568" y="237.515216" style="fill: #b22222; stroke: #b22222"/>
     <use xlink:href="#m6f0d67399f" x="275.537672" y="225.258345" style="fill: #b22222; stroke: #b22222"/>
     <use xlink:href="#m6f0d67399f" x="343.637481" y="261.325865" style="fill: #b22222; stroke: #b22222"/>
     <use xlink:href="#m6f0d67399f" x="232.492382" y="224.452338" style="fill: #b22222; stroke: #b22222"/>
     <use xlink:href="#m6f0d67399f" x="311.620096" y="231.111205" style="fill: #b22222; stroke: #b22222"/>
     <use xlink:href="#m6f0d67399f" x="237.729821" y="234.901116" style="fill: #b22222; stroke: #b22222"/>
     <use xlink:href="#m6f0d67399f" x="281.587887" y="230.575321" style="fill: #b22222; stroke: #b22222"/>
     <use xlink:href="#m6f0d67399f" x="291.359219" y="246.175978" style="fill: #b22222; stroke: #b22222"/>
     <use xlink:href="#m6f0d67399f" x="323.678296" y="238.997406" style="fill: #b22222; stroke: #b22222"/>
     <use xlink:href="#m6f0d67399f" x="278.654641" y="234.057145" style="fill: #b22222; stroke: #b22222"/>
     <use xlink:href="#m6f0d67399f" x="219.981133" y="219.022214" style="fill: #b22222; stroke: #b22222"/>
     <use xlink:href="#m6f0d67399f" x="308.597611" y="244.634289" style="fill: #b22222; stroke: #b22222"/>
     <use xlink:href="#m6f0d67399f" x="326.350752" y="239.52758" style="fill: #b22222; stroke: #b22222"/>
     <use xlink:href="#m6f0d67399f" x="308.908274" y="238.740912" style="fill: #b22222; stroke: #b22222"/>
     <use xlink:href="#m6f0d67399f" x="272.874574" y="274.741741" style="fill: #b22222; stroke: #b22222"/>
     <use xlink:href="#m6f0d67399f" x="257.316982" y="235.182959" style="fill: #b22222; stroke: #b22222"/>
     <use xlink:href="#m6f0d67399f" x="278.062053" y="234.048513" style="fill: #b22222; stroke: #b22222"/>
     <use xlink:href="#m6f0d67399f" x="315.741051" y="236.690764" style="fill: #b22222; stroke: #b22222"/>
     <use xlink:href="#m6f0d67399f" x="254.725581" y="232.418578" style="fill: #b22222; stroke: #b22222"/>
     <use xlink:href="#m6f0d67399f" x="292.927778" y="238.957527" style="fill: #b22222; stroke: #b22222"/>
     <use xlink:href="#m6f0d67399f" x="279.045265" y="271.370162" style="fill: #b22222; stroke: #b22222"/>
     <use xlink:href="#m6f0d67399f" x="309.499868" y="236.372593" style="fill: #b22222; stroke: #b22222"/>
     <use xlink:href="#m6f0d67399f" x="252.670173" y="258.361474" style="fill: #b22222; stroke: #b22222"/>
     <use xlink:href="#m6f0d67399f" x="346.580038" y="258.718462" style="fill: #b22222; stroke: #b22222"/>
     <use xlink:href="#m6f0d67399f" x="310.241388" y="237.475267" style="fill: #b22222; stroke: #b22222"/>
     <use xlink:href="#m6f0d67399f" x="254.091764" y="226.730345" style="fill: #b22222; stroke: #b22222"/>
     <use xlink:href="#m6f0d67399f" x="255.59108" y="237.494592" style="fill: #b22222; stroke: #b22222"/>
    </g>
   </g>
   <g id="matplotlib.axis_1">
    <g id="xtick_1">
     <g id="line2d_1">
      <defs>
       <path id="m2558c5cb2b" d="M 0 0 
L 0 3.5 
" style="stroke: #000000; stroke-width: 0.8"/>
      </defs>
      <g>
       <use xlink:href="#m2558c5cb2b" x="99.697313" y="465.838125" style="stroke: #000000; stroke-width: 0.8"/>
      </g>
     </g>
     <g id="text_1">
      <!-- −400 -->
      <g transform="translate(85.963719 480.436562) scale(0.1 -0.1)">
       <defs>
        <path id="DejaVuSans-2212" d="M 678 2272 
L 4684 2272 
L 4684 1741 
L 678 1741 
L 678 2272 
z
" transform="scale(0.015625)"/>
        <path id="DejaVuSans-34" d="M 2419 4116 
L 825 1625 
L 2419 1625 
L 2419 4116 
z
M 2253 4666 
L 3047 4666 
L 3047 1625 
L 3713 1625 
L 3713 1100 
L 3047 1100 
L 3047 0 
L 2419 0 
L 2419 1100 
L 313 1100 
L 313 1709 
L 2253 4666 
z
" transform="scale(0.015625)"/>
        <path id="DejaVuSans-30" d="M 2034 4250 
Q 1547 4250 1301 3770 
Q 1056 3291 1056 2328 
Q 1056 1369 1301 889 
Q 1547 409 2034 409 
Q 2525 409 2770 889 
Q 3016 1369 3016 2328 
Q 3016 3291 2770 3770 
Q 2525 4250 2034 4250 
z
M 2034 4750 
Q 2819 4750 3233 4129 
Q 3647 3509 3647 2328 
Q 3647 1150 3233 529 
Q 2819 -91 2034 -91 
Q 1250 -91 836 529 
Q 422 1150 422 2328 
Q 422 3509 836 4129 
Q 1250 4750 2034 4750 
z
" transform="scale(0.015625)"/>
       </defs>
       <use xlink:href="#DejaVuSans-2212"/>
       <use xlink:href="#DejaVuSans-34" x="83.789062"/>
       <use xlink:href="#DejaVuSans-30" x="147.412109"/>
       <use xlink:href="#DejaVuSans-30" x="211.035156"/>
      </g>
     </g>
    </g>
    <g id="xtick_2">
     <g id="line2d_2">
      <g>
       <use xlink:href="#m2558c5cb2b" x="188.401313" y="465.838125" style="stroke: #000000; stroke-width: 0.8"/>
      </g>
     </g>
     <g id="text_2">
      <!-- −200 -->
      <g transform="translate(174.667719 480.436562) scale(0.1 -0.1)">
       <defs>
        <path id="DejaVuSans-32" d="M 1228 531 
L 3431 531 
L 3431 0 
L 469 0 
L 469 531 
Q 828 903 1448 1529 
Q 2069 2156 2228 2338 
Q 2531 2678 2651 2914 
Q 2772 3150 2772 3378 
Q 2772 3750 2511 3984 
Q 2250 4219 1831 4219 
Q 1534 4219 1204 4116 
Q 875 4013 500 3803 
L 500 4441 
Q 881 4594 1212 4672 
Q 1544 4750 1819 4750 
Q 2544 4750 2975 4387 
Q 3406 4025 3406 3419 
Q 3406 3131 3298 2873 
Q 3191 2616 2906 2266 
Q 2828 2175 2409 1742 
Q 1991 1309 1228 531 
z
" transform="scale(0.015625)"/>
       </defs>
       <use xlink:href="#DejaVuSans-2212"/>
       <use xlink:href="#DejaVuSans-32" x="83.789062"/>
       <use xlink:href="#DejaVuSans-30" x="147.412109"/>
       <use xlink:href="#DejaVuSans-30" x="211.035156"/>
      </g>
     </g>
    </g>
    <g id="xtick_3">
     <g id="line2d_3">
      <g>
       <use xlink:href="#m2558c5cb2b" x="277.105313" y="465.838125" style="stroke: #000000; stroke-width: 0.8"/>
      </g>
     </g>
     <g id="text_3">
      <!-- 0 -->
      <g transform="translate(273.924063 480.436562) scale(0.1 -0.1)">
       <use xlink:href="#DejaVuSans-30"/>
      </g>
     </g>
    </g>
    <g id="xtick_4">
     <g id="line2d_4">
      <g>
       <use xlink:href="#m2558c5cb2b" x="365.809313" y="465.838125" style="stroke: #000000; stroke-width: 0.8"/>
      </g>
     </g>
     <g id="text_4">
      <!-- 200 -->
      <g transform="translate(356.265563 480.436562) scale(0.1 -0.1)">
       <use xlink:href="#DejaVuSans-32"/>
       <use xlink:href="#DejaVuSans-30" x="63.623047"/>
       <use xlink:href="#DejaVuSans-30" x="127.246094"/>
      </g>
     </g>
    </g>
    <g id="xtick_5">
     <g id="line2d_5">
      <g>
       <use xlink:href="#m2558c5cb2b" x="454.513313" y="465.838125" style="stroke: #000000; stroke-width: 0.8"/>
      </g>
     </g>
     <g id="text_5">
      <!-- 400 -->
      <g transform="translate(444.969563 480.436562) scale(0.1 -0.1)">
       <use xlink:href="#DejaVuSans-34"/>
       <use xlink:href="#DejaVuSans-30" x="63.623047"/>
       <use xlink:href="#DejaVuSans-30" x="127.246094"/>
      </g>
     </g>
    </g>
    <g id="text_6">
     <!-- x -->
     <g transform="translate(274.145938 494.114687) scale(0.1 -0.1)">
      <defs>
       <path id="DejaVuSans-78" d="M 3513 3500 
L 2247 1797 
L 3578 0 
L 2900 0 
L 1881 1375 
L 863 0 
L 184 0 
L 1544 1831 
L 300 3500 
L 978 3500 
L 1906 2253 
L 2834 3500 
L 3513 3500 
z
" transform="scale(0.015625)"/>
      </defs>
      <use xlink:href="#DejaVuSans-78"/>
     </g>
    </g>
   </g>
   <g id="matplotlib.axis_2">
    <g id="ytick_1">
     <g id="line2d_6">
      <defs>
       <path id="m62d68c2916" d="M 0 0 
L -3.5 0 
" style="stroke: #000000; stroke-width: 0.8"/>
      </defs>
      <g>
       <use xlink:href="#m62d68c2916" x="55.345313" y="421.486125" style="stroke: #000000; stroke-width: 0.8"/>
      </g>
     </g>
     <g id="text_7">
      <!-- −400 -->
      <g transform="translate(20.878125 425.285344) scale(0.1 -0.1)">
       <use xlink:href="#DejaVuSans-2212"/>
       <use xlink:href="#DejaVuSans-34" x="83.789062"/>
       <use xlink:href="#DejaVuSans-30" x="147.412109"/>
       <use xlink:href="#DejaVuSans-30" x="211.035156"/>
      </g>
     </g>
    </g>
    <g id="ytick_2">
     <g id="line2d_7">
      <g>
       <use xlink:href="#m62d68c2916" x="55.345313" y="332.782125" style="stroke: #000000; stroke-width: 0.8"/>
      </g>
     </g>
     <g id="text_8">
      <!-- −200 -->
      <g transform="translate(20.878125 336.581344) scale(0.1 -0.1)">
       <use xlink:href="#DejaVuSans-2212"/>
       <use xlink:href="#DejaVuSans-32" x="83.789062"/>
       <use xlink:href="#DejaVuSans-30" x="147.412109"/>
       <use xlink:href="#DejaVuSans-30" x="211.035156"/>
      </g>
     </g>
    </g>
    <g id="ytick_3">
     <g id="line2d_8">
      <g>
       <use xlink:href="#m62d68c2916" x="55.345313" y="244.078125" style="stroke: #000000; stroke-width: 0.8"/>
      </g>
     </g>
     <g id="text_9">
      <!-- 0 -->
      <g transform="translate(41.982813 247.877344) scale(0.1 -0.1)">
       <use xlink:href="#DejaVuSans-30"/>
      </g>
     </g>
    </g>
    <g id="ytick_4">
     <g id="line2d_9">
      <g>
       <use xlink:href="#m62d68c2916" x="55.345313" y="155.374125" style="stroke: #000000; stroke-width: 0.8"/>
      </g>
     </g>
     <g id="text_10">
      <!-- 200 -->
      <g transform="translate(29.257813 159.173344) scale(0.1 -0.1)">
       <use xlink:href="#DejaVuSans-32"/>
       <use xlink:href="#DejaVuSans-30" x="63.623047"/>
       <use xlink:href="#DejaVuSans-30" x="127.246094"/>
      </g>
     </g>
    </g>
    <g id="ytick_5">
     <g id="line2d_10">
      <g>
       <use xlink:href="#m62d68c2916" x="55.345313" y="66.670125" style="stroke: #000000; stroke-width: 0.8"/>
      </g>
     </g>
     <g id="text_11">
      <!-- 400 -->
      <g transform="translate(29.257813 70.469344) scale(0.1 -0.1)">
       <use xlink:href="#DejaVuSans-34"/>
       <use xlink:href="#DejaVuSans-30" x="63.623047"/>
       <use xlink:href="#DejaVuSans-30" x="127.246094"/>
      </g>
     </g>
    </g>
    <g id="text_12">
     <!-- y -->
     <g transform="translate(14.798438 247.0375) rotate(-90) scale(0.1 -0.1)">
      <defs>
       <path id="DejaVuSans-79" d="M 2059 -325 
Q 1816 -950 1584 -1140 
Q 1353 -1331 966 -1331 
L 506 -1331 
L 506 -850 
L 844 -850 
Q 1081 -850 1212 -737 
Q 1344 -625 1503 -206 
L 1606 56 
L 191 3500 
L 800 3500 
L 1894 763 
L 2988 3500 
L 3597 3500 
L 2059 -325 
z
" transform="scale(0.015625)"/>
      </defs>
      <use xlink:href="#DejaVuSans-79"/>
     </g>
    </g>
   </g>
   <g id="patch_4">
    <path d="M 55.345313 465.838125 
L 55.345313 22.318125 
" style="fill: none; stroke: #000000; stroke-width: 0.8; stroke-linejoin: miter; stroke-linecap: square"/>
   </g>
   <g id="patch_5">
    <path d="M 498.865313 465.838125 
L 498.865313 22.318125 
" style="fill: none; stroke: #000000; stroke-width: 0.8; stroke-linejoin: miter; stroke-linecap: square"/>
   </g>
   <g id="patch_6">
    <path d="M 55.345313 465.838125 
L 498.865313 465.838125 
" style="fill: none; stroke: #000000; stroke-width: 0.8; stroke-linejoin: miter; stroke-linecap: square"/>
   </g>
   <g id="patch_7">
    <path d="M 55.345313 22.318125 
L 498.865313 22.318125 
" style="fill: none; stroke: #000000; stroke-width: 0.8; stroke-linejoin: miter; stroke-linecap: square"/>
   </g>
   <g id="text_13">
    <!-- t = 100 -->
    <g transform="translate(64.215713 38.786962) scale(0.1 -0.1)">
     <defs>
      <path id="DejaVuSans-74" d="M 1172 4494 
L 1172 3500 
L 2356 3500 
L 2356 3053 
L 1172 3053 
L 1172 1153 
Q 1172 725 1289 603 
Q 1406 481 1766 481 
L 2356 481 
L 2356 0 
L 1766 0 
Q 1100 0 847 248 
Q 594 497 594 1153 
L 594 3053 
L 172 3053 
L 172 3500 
L 594 3500 
L 594 4494 
L 1172 4494 
z
" transform="scale(0.015625)"/>
      <path id="DejaVuSans-20" transform="scale(0.015625)"/>
      <path id="DejaVuSans-3d" d="M 678 2906 
L 4684 2906 
L 4684 2381 
L 678 2381 
L 678 2906 
z
M 678 1631 
L 4684 1631 
L 4684 1100 
L 678 1100 
L 678 1631 
z
" transform="scale(0.015625)"/>
      <path id="DejaVuSans-31" d="M 794 531 
L 1825 531 
L 1825 4091 
L 703 3866 
L 703 4441 
L 1819 4666 
L 2450 4666 
L 2450 531 
L 3481 531 
L 3481 0 
L 794 0 
L 794 531 
z
" transform="scale(0.015625)"/>
     </defs>
     <use xlink:href="#DejaVuSans-74"/>
     <use xlink:href="#DejaVuSans-20" x="39.208984"/>
     <use xlink:href="#DejaVuSans-3d" x="70.996094"/>
     <use xlink:href="#DejaVuSans-20" x="154.785156"/>
     <use xlink:href="#DejaVuSans-31" x="186.572266"/>
     <use xlink:href="#DejaVuSans-30" x="250.195312"/>
     <use xlink:href="#DejaVuSans-30" x="313.818359"/>
    </g>
   </g>
   <g id="text_14">
    <!-- Evaluation trajectory 5 -->
    <g transform="translate(208.620938 16.318125) scale(0.12 -0.12)">
     <defs>
      <path id="DejaVuSans-45" d="M 628 4666 
L 3578 4666 
L 3578 4134 
L 1259 4134 
L 1259 2753 
L 3481 2753 
L 3481 2222 
L 1259 2222 
L 1259 531 
L 3634 531 
L 3634 0 
L 628 0 
L 628 4666 
z
" transform="scale(0.015625)"/>
      <path id="DejaVuSans-76" d="M 191 3500 
L 800 3500 
L 1894 563 
L 2988 3500 
L 3597 3500 
L 2284 0 
L 1503 0 
L 191 3500 
z
" transform="scale(0.015625)"/>
      <path id="DejaVuSans-61" d="M 2194 1759 
Q 1497 1759 1228 1600 
Q 959 1441 959 1056 
Q 959 750 1161 570 
Q 1363 391 1709 391 
Q 2188 391 2477 730 
Q 2766 1069 2766 1631 
L 2766 1759 
L 2194 1759 
z
M 3341 1997 
L 3341 0 
L 2766 0 
L 2766 531 
Q 2569 213 2275 61 
Q 1981 -91 1556 -91 
Q 1019 -91 701 211 
Q 384 513 384 1019 
Q 384 1609 779 1909 
Q 1175 2209 1959 2209 
L 2766 2209 
L 2766 2266 
Q 2766 2663 2505 2880 
Q 2244 3097 1772 3097 
Q 1472 3097 1187 3025 
Q 903 2953 641 2809 
L 641 3341 
Q 956 3463 1253 3523 
Q 1550 3584 1831 3584 
Q 2591 3584 2966 3190 
Q 3341 2797 3341 1997 
z
" transform="scale(0.015625)"/>
      <path id="DejaVuSans-6c" d="M 603 4863 
L 1178 4863 
L 1178 0 
L 603 0 
L 603 4863 
z
" transform="scale(0.015625)"/>
      <path id="DejaVuSans-75" d="M 544 1381 
L 544 3500 
L 1119 3500 
L 1119 1403 
Q 1119 906 1312 657 
Q 1506 409 1894 409 
Q 2359 409 2629 706 
Q 2900 1003 2900 1516 
L 2900 3500 
L 3475 3500 
L 3475 0 
L 2900 0 
L 2900 538 
Q 2691 219 2414 64 
Q 2138 -91 1772 -91 
Q 1169 -91 856 284 
Q 544 659 544 1381 
z
M 1991 3584 
L 1991 3584 
z
" transform="scale(0.015625)"/>
      <path id="DejaVuSans-69" d="M 603 3500 
L 1178 3500 
L 1178 0 
L 603 0 
L 603 3500 
z
M 603 4863 
L 1178 4863 
L 1178 4134 
L 603 4134 
L 603 4863 
z
" transform="scale(0.015625)"/>
      <path id="DejaVuSans-6f" d="M 1959 3097 
Q 1497 3097 1228 2736 
Q 959 2375 959 1747 
Q 959 1119 1226 758 
Q 1494 397 1959 397 
Q 2419 397 2687 759 
Q 2956 1122 2956 1747 
Q 2956 2369 2687 2733 
Q 2419 3097 1959 3097 
z
M 1959 3584 
Q 2709 3584 3137 3096 
Q 3566 2609 3566 1747 
Q 3566 888 3137 398 
Q 2709 -91 1959 -91 
Q 1206 -91 779 398 
Q 353 888 353 1747 
Q 353 2609 779 3096 
Q 1206 3584 1959 3584 
z
" transform="scale(0.015625)"/>
      <path id="DejaVuSans-6e" d="M 3513 2113 
L 3513 0 
L 2938 0 
L 2938 2094 
Q 2938 2591 2744 2837 
Q 2550 3084 2163 3084 
Q 1697 3084 1428 2787 
Q 1159 2491 1159 1978 
L 1159 0 
L 581 0 
L 581 3500 
L 1159 3500 
L 1159 2956 
Q 1366 3272 1645 3428 
Q 1925 3584 2291 3584 
Q 2894 3584 3203 3211 
Q 3513 2838 3513 2113 
z
" transform="scale(0.015625)"/>
      <path id="DejaVuSans-72" d="M 2631 2963 
Q 2534 3019 2420 3045 
Q 2306 3072 2169 3072 
Q 1681 3072 1420 2755 
Q 1159 2438 1159 1844 
L 1159 0 
L 581 0 
L 581 3500 
L 1159 3500 
L 1159 2956 
Q 1341 3275 1631 3429 
Q 1922 3584 2338 3584 
Q 2397 3584 2469 3576 
Q 2541 3569 2628 3553 
L 2631 2963 
z
" transform="scale(0.015625)"/>
      <path id="DejaVuSans-6a" d="M 603 3500 
L 1178 3500 
L 1178 -63 
Q 1178 -731 923 -1031 
Q 669 -1331 103 -1331 
L -116 -1331 
L -116 -844 
L 38 -844 
Q 366 -844 484 -692 
Q 603 -541 603 -63 
L 603 3500 
z
M 603 4863 
L 1178 4863 
L 1178 4134 
L 603 4134 
L 603 4863 
z
" transform="scale(0.015625)"/>
      <path id="DejaVuSans-65" d="M 3597 1894 
L 3597 1613 
L 953 1613 
Q 991 1019 1311 708 
Q 1631 397 2203 397 
Q 2534 397 2845 478 
Q 3156 559 3463 722 
L 3463 178 
Q 3153 47 2828 -22 
Q 2503 -91 2169 -91 
Q 1331 -91 842 396 
Q 353 884 353 1716 
Q 353 2575 817 3079 
Q 1281 3584 2069 3584 
Q 2775 3584 3186 3129 
Q 3597 2675 3597 1894 
z
M 3022 2063 
Q 3016 2534 2758 2815 
Q 2500 3097 2075 3097 
Q 1594 3097 1305 2825 
Q 1016 2553 972 2059 
L 3022 2063 
z
" transform="scale(0.015625)"/>
      <path id="DejaVuSans-63" d="M 3122 3366 
L 3122 2828 
Q 2878 2963 2633 3030 
Q 2388 3097 2138 3097 
Q 1578 3097 1268 2742 
Q 959 2388 959 1747 
Q 959 1106 1268 751 
Q 1578 397 2138 397 
Q 2388 397 2633 464 
Q 2878 531 3122 666 
L 3122 134 
Q 2881 22 2623 -34 
Q 2366 -91 2075 -91 
Q 1284 -91 818 406 
Q 353 903 353 1747 
Q 353 2603 823 3093 
Q 1294 3584 2113 3584 
Q 2378 3584 2631 3529 
Q 2884 3475 3122 3366 
z
" transform="scale(0.015625)"/>
      <path id="DejaVuSans-35" d="M 691 4666 
L 3169 4666 
L 3169 4134 
L 1269 4134 
L 1269 2991 
Q 1406 3038 1543 3061 
Q 1681 3084 1819 3084 
Q 2600 3084 3056 2656 
Q 3513 2228 3513 1497 
Q 3513 744 3044 326 
Q 2575 -91 1722 -91 
Q 1428 -91 1123 -41 
Q 819 9 494 109 
L 494 744 
Q 775 591 1075 516 
Q 1375 441 1709 441 
Q 2250 441 2565 725 
Q 2881 1009 2881 1497 
Q 2881 1984 2565 2268 
Q 2250 2553 1709 2553 
Q 1456 2553 1204 2497 
Q 953 2441 691 2322 
L 691 4666 
z
" transform="scale(0.015625)"/>
     </defs>
     <use xlink:href="#DejaVuSans-45"/>
     <use xlink:href="#DejaVuSans-76" x="63.183594"/>
     <use xlink:href="#DejaVuSans-61" x="122.363281"/>
     <use xlink:href="#DejaVuSans-6c" x="183.642578"/>
     <use xlink:href="#DejaVuSans-75" x="211.425781"/>
     <use xlink:href="#DejaVuSans-61" x="274.804688"/>
     <use xlink:href="#DejaVuSans-74" x="336.083984"/>
     <use xlink:href="#DejaVuSans-69" x="375.292969"/>
     <use xlink:href="#DejaVuSans-6f" x="403.076172"/>
     <use xlink:href="#DejaVuSans-6e" x="464.257812"/>
     <use xlink:href="#DejaVuSans-20" x="527.636719"/>
     <use xlink:href="#DejaVuSans-74" x="559.423828"/>
     <use xlink:href="#DejaVuSans-72" x="598.632812"/>
     <use xlink:href="#DejaVuSans-61" x="639.746094"/>
     <use xlink:href="#DejaVuSans-6a" x="701.025391"/>
     <use xlink:href="#DejaVuSans-65" x="728.808594"/>
     <use xlink:href="#DejaVuSans-63" x="790.332031"/>
     <use xlink:href="#DejaVuSans-74" x="845.3125"/>
     <use xlink:href="#DejaVuSans-6f" x="884.521484"/>
     <use xlink:href="#DejaVuSans-72" x="945.703125"/>
     <use xlink:href="#DejaVuSans-79" x="986.816406"/>
     <use xlink:href="#DejaVuSans-20" x="1045.996094"/>
     <use xlink:href="#DejaVuSans-35" x="1077.783203"/>
    </g>
   </g>
   <g id="legend_1">
    <g id="patch_8">
     <path d="M 424.387188 59.674375 
L 491.865313 59.674375 
Q 493.865313 59.674375 493.865313 57.674375 
L 493.865313 29.318125 
Q 493.865313 27.318125 491.865313 27.318125 
L 424.387188 27.318125 
Q 422.387188 27.318125 422.387188 29.318125 
L 422.387188 57.674375 
Q 422.387188 59.674375 424.387188 59.674375 
z
" style="fill: #ffffff; opacity: 0.8; stroke: #cccccc; stroke-linejoin: miter"/>
    </g>
    <g id="PathCollection_3">
     <g>
      <use xlink:href="#m42bf7fe8ff" x="436.387188" y="36.291562" style="fill: #4169e1; stroke: #4169e1"/>
     </g>
    </g>
    <g id="text_15">
     <!-- Sheep -->
     <g transform="translate(454.387188 38.916562) scale(0.1 -0.1)">
      <defs>
       <path id="DejaVuSans-53" d="M 3425 4513 
L 3425 3897 
Q 3066 4069 2747 4153 
Q 2428 4238 2131 4238 
Q 1616 4238 1336 4038 
Q 1056 3838 1056 3469 
Q 1056 3159 1242 3001 
Q 1428 2844 1947 2747 
L 2328 2669 
Q 3034 2534 3370 2195 
Q 3706 1856 3706 1288 
Q 3706 609 3251 259 
Q 2797 -91 1919 -91 
Q 1588 -91 1214 -16 
Q 841 59 441 206 
L 441 856 
Q 825 641 1194 531 
Q 1563 422 1919 422 
Q 2459 422 2753 634 
Q 3047 847 3047 1241 
Q 3047 1584 2836 1778 
Q 2625 1972 2144 2069 
L 1759 2144 
Q 1053 2284 737 2584 
Q 422 2884 422 3419 
Q 422 4038 858 4394 
Q 1294 4750 2059 4750 
Q 2388 4750 2728 4690 
Q 3069 4631 3425 4513 
z
" transform="scale(0.015625)"/>
       <path id="DejaVuSans-68" d="M 3513 2113 
L 3513 0 
L 2938 0 
L 2938 2094 
Q 2938 2591 2744 2837 
Q 2550 3084 2163 3084 
Q 1697 3084 1428 2787 
Q 1159 2491 1159 1978 
L 1159 0 
L 581 0 
L 581 4863 
L 1159 4863 
L 1159 2956 
Q 1366 3272 1645 3428 
Q 1925 3584 2291 3584 
Q 2894 3584 3203 3211 
Q 3513 2838 3513 2113 
z
" transform="scale(0.015625)"/>
       <path id="DejaVuSans-70" d="M 1159 525 
L 1159 -1331 
L 581 -1331 
L 581 3500 
L 1159 3500 
L 1159 2969 
Q 1341 3281 1617 3432 
Q 1894 3584 2278 3584 
Q 2916 3584 3314 3078 
Q 3713 2572 3713 1747 
Q 3713 922 3314 415 
Q 2916 -91 2278 -91 
Q 1894 -91 1617 61 
Q 1341 213 1159 525 
z
M 3116 1747 
Q 3116 2381 2855 2742 
Q 2594 3103 2138 3103 
Q 1681 3103 1420 2742 
Q 1159 2381 1159 1747 
Q 1159 1113 1420 752 
Q 1681 391 2138 391 
Q 2594 391 2855 752 
Q 3116 1113 3116 1747 
z
" transform="scale(0.015625)"/>
      </defs>
      <use xlink:href="#DejaVuSans-53"/>
      <use xlink:href="#DejaVuSans-68" x="63.476562"/>
      <use xlink:href="#DejaVuSans-65" x="126.855469"/>
      <use xlink:href="#DejaVuSans-65" x="188.378906"/>
      <use xlink:href="#DejaVuSans-70" x="249.902344"/>
     </g>
    </g>
    <g id="PathCollection_4">
     <g>
      <use xlink:href="#m6f0d67399f" x="436.387188" y="50.969687" style="fill: #b22222; stroke: #b22222"/>
     </g>
    </g>
    <g id="text_16">
     <!-- Wolves -->
     <g transform="translate(454.387188 53.594687) scale(0.1 -0.1)">
      <defs>
       <path id="DejaVuSans-57" d="M 213 4666 
L 850 4666 
L 1831 722 
L 2809 4666 
L 3519 4666 
L 4500 722 
L 5478 4666 
L 6119 4666 
L 4947 0 
L 4153 0 
L 3169 4050 
L 2175 0 
L 1381 0 
L 213 4666 
z
" transform="scale(0.015625)"/>
       <path id="DejaVuSans-73" d="M 2834 3397 
L 2834 2853 
Q 2591 2978 2328 3040 
Q 2066 3103 1784 3103 
Q 1356 3103 1142 2972 
Q 928 2841 928 2578 
Q 928 2378 1081 2264 
Q 1234 2150 1697 2047 
L 1894 2003 
Q 2506 1872 2764 1633 
Q 3022 1394 3022 966 
Q 3022 478 2636 193 
Q 2250 -91 1575 -91 
Q 1294 -91 989 -36 
Q 684 19 347 128 
L 347 722 
Q 666 556 975 473 
Q 1284 391 1588 391 
Q 1994 391 2212 530 
Q 2431 669 2431 922 
Q 2431 1156 2273 1281 
Q 2116 1406 1581 1522 
L 1381 1569 
Q 847 1681 609 1914 
Q 372 2147 372 2553 
Q 372 3047 722 3315 
Q 1072 3584 1716 3584 
Q 2034 3584 2315 3537 
Q 2597 3491 2834 3397 
z
" transform="scale(0.015625)"/>
      </defs>
      <use xlink:href="#DejaVuSans-57"/>
      <use xlink:href="#DejaVuSans-6f" x="93.001953"/>
      <use xlink:href="#DejaVuSans-6c" x="154.183594"/>
      <use xlink:href="#DejaVuSans-76" x="181.966797"/>
      <use xlink:href="#DejaVuSans-65" x="241.146484"/>
      <use xlink:href="#DejaVuSans-73" x="302.669922"/>
     </g>
    </g>
   </g>
  </g>
 </g>
 <defs>
  <clipPath id="p493dbdf59b">
   <rect x="55.345313" y="22.318125" width="443.52" height="443.52"/>
  </clipPath>
 </defs>
</svg>
