<?xml version="1.0" encoding="utf-8" standalone="no"?>
<!DOCTYPE svg PUBLIC "-//W3C//DTD SVG 1.1//EN"
  "http://www.w3.org/Graphics/SVG/1.1/DTD/svg11.dtd">
<svg xmlns:xlink="http://www.w3.org/1999/xlink" width="564.570469pt" height="348.692344pt" viewBox="0 0 564.570469 348.692344" xmlns="http://www.w3.org/2000/svg" version="1.1">
 <metadata>
  <rdf:RDF xmlns:dc="http://purl.org/dc/elements/1.1/" xmlns:cc="http://creativecommons.org/ns#" xmlns:rdf="http://www.w3.org/1999/02/22-rdf-syntax-ns#">
   <cc:Work>
    <dc:type rdf:resource="http://purl.org/dc/dcmitype/StillImage"/>
    <dc:date>2026-05-08T11:32:24.912735</dc:date>
    <dc:format>image/svg+xml</dc:format>
    <dc:creator>
     <cc:Agent>
      <dc:title>Matplotlib v3.10.0, https://matplotlib.org/</dc:title>
     </cc:Agent>
    </dc:creator>
   </cc:Work>
  </rdf:RDF>
 </metadata>
 <defs>
  <style type="text/css">*{stroke-linejoin: round; stroke-linecap: butt}</style>
 </defs>
 <g id="figure_1">
  <g id="patch_1">
   <path d="M 0 348.692344 
L 564.570469 348.692344 
L 564.570469 0 
L 0 0 
z
" style="fill: #ffffff"/>
  </g>
  <g id="axes_1">
   <g id="patch_2">
    <path d="M 61.110469 303.3 
L 557.370469 303.3 
L 557.370469 7.2 
L 61.110469 7.2 
z
" style="fill: #eaeaf2"/>
   </g>
   <g id="matplotlib.axis_1">
    <g id="xtick_1">
     <g id="line2d_1">
      <path d="M 83.667741 303.3 
L 83.667741 7.2 
" clip-path="url(#pc0bb14846d)" style="fill: none; stroke: #ffffff; stroke-linecap: round"/>
     </g>
     <g id="text_1">
      <!-- 0 -->
      <g style="fill: #262626" transform="translate(80.331179 321.389375) scale(0.12 -0.12)">
       <defs>
        <path id="ArialMT-30" d="M 266 2259 
Q 266 3072 433 3567 
Q 600 4063 929 4331 
Q 1259 4600 1759 4600 
Q 2128 4600 2406 4451 
Q 2684 4303 2865 4023 
Q 3047 3744 3150 3342 
Q 3253 2941 3253 2259 
Q 3253 1453 3087 958 
Q 2922 463 2592 192 
Q 2263 -78 1759 -78 
Q 1097 -78 719 397 
Q 266 969 266 2259 
z
M 844 2259 
Q 844 1131 1108 757 
Q 1372 384 1759 384 
Q 2147 384 2411 759 
Q 2675 1134 2675 2259 
Q 2675 3391 2411 3762 
Q 2147 4134 1753 4134 
Q 1366 4134 1134 3806 
Q 844 3388 844 2259 
z
" transform="scale(0.015625)"/>
       </defs>
       <use xlink:href="#ArialMT-30"/>
      </g>
     </g>
    </g>
    <g id="xtick_2">
     <g id="line2d_2">
      <path d="M 144.224178 303.3 
L 144.224178 7.2 
" clip-path="url(#pc0bb14846d)" style="fill: none; stroke: #ffffff; stroke-linecap: round"/>
     </g>
     <g id="text_2">
      <!-- 20 -->
      <g style="fill: #262626" transform="translate(137.551053 321.389375) scale(0.12 -0.12)">
       <defs>
        <path id="ArialMT-32" d="M 3222 541 
L 3222 0 
L 194 0 
Q 188 203 259 391 
Q 375 700 629 1000 
Q 884 1300 1366 1694 
Q 2113 2306 2375 2664 
Q 2638 3022 2638 3341 
Q 2638 3675 2398 3904 
Q 2159 4134 1775 4134 
Q 1369 4134 1125 3890 
Q 881 3647 878 3216 
L 300 3275 
Q 359 3922 746 4261 
Q 1134 4600 1788 4600 
Q 2447 4600 2831 4234 
Q 3216 3869 3216 3328 
Q 3216 3053 3103 2787 
Q 2991 2522 2730 2228 
Q 2469 1934 1863 1422 
Q 1356 997 1212 845 
Q 1069 694 975 541 
L 3222 541 
z
" transform="scale(0.015625)"/>
       </defs>
       <use xlink:href="#ArialMT-32"/>
       <use xlink:href="#ArialMT-30" transform="translate(55.615234 0)"/>
      </g>
     </g>
    </g>
    <g id="xtick_3">
     <g id="line2d_3">
      <path d="M 204.780615 303.3 
L 204.780615 7.2 
" clip-path="url(#pc0bb14846d)" style="fill: none; stroke: #ffffff; stroke-linecap: round"/>
     </g>
     <g id="text_3">
      <!-- 40 -->
      <g style="fill: #262626" transform="translate(198.10749 321.389375) scale(0.12 -0.12)">
       <defs>
        <path id="ArialMT-34" d="M 2069 0 
L 2069 1097 
L 81 1097 
L 81 1613 
L 2172 4581 
L 2631 4581 
L 2631 1613 
L 3250 1613 
L 3250 1097 
L 2631 1097 
L 2631 0 
L 2069 0 
z
M 2069 1613 
L 2069 3678 
L 634 1613 
L 2069 1613 
z
" transform="scale(0.015625)"/>
       </defs>
       <use xlink:href="#ArialMT-34"/>
       <use xlink:href="#ArialMT-30" transform="translate(55.615234 0)"/>
      </g>
     </g>
    </g>
    <g id="xtick_4">
     <g id="line2d_4">
      <path d="M 265.337052 303.3 
L 265.337052 7.2 
" clip-path="url(#pc0bb14846d)" style="fill: none; stroke: #ffffff; stroke-linecap: round"/>
     </g>
     <g id="text_4">
      <!-- 60 -->
      <g style="fill: #262626" transform="translate(258.663927 321.389375) scale(0.12 -0.12)">
       <defs>
        <path id="ArialMT-36" d="M 3184 3459 
L 2625 3416 
Q 2550 3747 2413 3897 
Q 2184 4138 1850 4138 
Q 1581 4138 1378 3988 
Q 1113 3794 959 3422 
Q 806 3050 800 2363 
Q 1003 2672 1297 2822 
Q 1591 2972 1913 2972 
Q 2475 2972 2870 2558 
Q 3266 2144 3266 1488 
Q 3266 1056 3080 686 
Q 2894 316 2569 119 
Q 2244 -78 1831 -78 
Q 1128 -78 684 439 
Q 241 956 241 2144 
Q 241 3472 731 4075 
Q 1159 4600 1884 4600 
Q 2425 4600 2770 4297 
Q 3116 3994 3184 3459 
z
M 888 1484 
Q 888 1194 1011 928 
Q 1134 663 1356 523 
Q 1578 384 1822 384 
Q 2178 384 2434 671 
Q 2691 959 2691 1453 
Q 2691 1928 2437 2201 
Q 2184 2475 1800 2475 
Q 1419 2475 1153 2201 
Q 888 1928 888 1484 
z
" transform="scale(0.015625)"/>
       </defs>
       <use xlink:href="#ArialMT-36"/>
       <use xlink:href="#ArialMT-30" transform="translate(55.615234 0)"/>
      </g>
     </g>
    </g>
    <g id="xtick_5">
     <g id="line2d_5">
      <path d="M 325.893489 303.3 
L 325.893489 7.2 
" clip-path="url(#pc0bb14846d)" style="fill: none; stroke: #ffffff; stroke-linecap: round"/>
     </g>
     <g id="text_5">
      <!-- 80 -->
      <g style="fill: #262626" transform="translate(319.220364 321.389375) scale(0.12 -0.12)">
       <defs>
        <path id="ArialMT-38" d="M 1131 2484 
Q 781 2613 612 2850 
Q 444 3088 444 3419 
Q 444 3919 803 4259 
Q 1163 4600 1759 4600 
Q 2359 4600 2725 4251 
Q 3091 3903 3091 3403 
Q 3091 3084 2923 2848 
Q 2756 2613 2416 2484 
Q 2838 2347 3058 2040 
Q 3278 1734 3278 1309 
Q 3278 722 2862 322 
Q 2447 -78 1769 -78 
Q 1091 -78 675 323 
Q 259 725 259 1325 
Q 259 1772 486 2073 
Q 713 2375 1131 2484 
z
M 1019 3438 
Q 1019 3113 1228 2906 
Q 1438 2700 1772 2700 
Q 2097 2700 2305 2904 
Q 2513 3109 2513 3406 
Q 2513 3716 2298 3927 
Q 2084 4138 1766 4138 
Q 1444 4138 1231 3931 
Q 1019 3725 1019 3438 
z
M 838 1322 
Q 838 1081 952 856 
Q 1066 631 1291 507 
Q 1516 384 1775 384 
Q 2178 384 2440 643 
Q 2703 903 2703 1303 
Q 2703 1709 2433 1975 
Q 2163 2241 1756 2241 
Q 1359 2241 1098 1978 
Q 838 1716 838 1322 
z
" transform="scale(0.015625)"/>
       </defs>
       <use xlink:href="#ArialMT-38"/>
       <use xlink:href="#ArialMT-30" transform="translate(55.615234 0)"/>
      </g>
     </g>
    </g>
    <g id="xtick_6">
     <g id="line2d_6">
      <path d="M 386.449926 303.3 
L 386.449926 7.2 
" clip-path="url(#pc0bb14846d)" style="fill: none; stroke: #ffffff; stroke-linecap: round"/>
     </g>
     <g id="text_6">
      <!-- 100 -->
      <g style="fill: #262626" transform="translate(376.440238 321.389375) scale(0.12 -0.12)">
       <defs>
        <path id="ArialMT-31" d="M 2384 0 
L 1822 0 
L 1822 3584 
Q 1619 3391 1289 3197 
Q 959 3003 697 2906 
L 697 3450 
Q 1169 3672 1522 3987 
Q 1875 4303 2022 4600 
L 2384 4600 
L 2384 0 
z
" transform="scale(0.015625)"/>
       </defs>
       <use xlink:href="#ArialMT-31"/>
       <use xlink:href="#ArialMT-30" transform="translate(55.615234 0)"/>
       <use xlink:href="#ArialMT-30" transform="translate(111.230469 0)"/>
      </g>
     </g>
    </g>
    <g id="xtick_7">
     <g id="line2d_7">
      <path d="M 447.006363 303.3 
L 447.006363 7.2 
" clip-path="url(#pc0bb14846d)" style="fill: none; stroke: #ffffff; stroke-linecap: round"/>
     </g>
     <g id="text_7">
      <!-- 120 -->
      <g style="fill: #262626" transform="translate(436.996675 321.389375) scale(0.12 -0.12)">
       <use xlink:href="#ArialMT-31"/>
       <use xlink:href="#ArialMT-32" transform="translate(55.615234 0)"/>
       <use xlink:href="#ArialMT-30" transform="translate(111.230469 0)"/>
      </g>
     </g>
    </g>
    <g id="xtick_8">
     <g id="line2d_8">
      <path d="M 507.562799 303.3 
L 507.562799 7.2 
" clip-path="url(#pc0bb14846d)" style="fill: none; stroke: #ffffff; stroke-linecap: round"/>
     </g>
     <g id="text_8">
      <!-- 140 -->
      <g style="fill: #262626" transform="translate(497.553112 321.389375) scale(0.12 -0.12)">
       <use xlink:href="#ArialMT-31"/>
       <use xlink:href="#ArialMT-34" transform="translate(55.615234 0)"/>
       <use xlink:href="#ArialMT-30" transform="translate(111.230469 0)"/>
      </g>
     </g>
    </g>
    <g id="text_9">
     <!-- Generation -->
     <g style="fill: #262626" transform="translate(272.135391 338.511094) scale(0.15 -0.15)">
      <defs>
       <path id="ArialMT-47" d="M 2638 1797 
L 2638 2334 
L 4578 2338 
L 4578 638 
Q 4131 281 3656 101 
Q 3181 -78 2681 -78 
Q 2006 -78 1454 211 
Q 903 500 622 1047 
Q 341 1594 341 2269 
Q 341 2938 620 3517 
Q 900 4097 1425 4378 
Q 1950 4659 2634 4659 
Q 3131 4659 3532 4498 
Q 3934 4338 4162 4050 
Q 4391 3763 4509 3300 
L 3963 3150 
Q 3859 3500 3706 3700 
Q 3553 3900 3268 4020 
Q 2984 4141 2638 4141 
Q 2222 4141 1919 4014 
Q 1616 3888 1430 3681 
Q 1244 3475 1141 3228 
Q 966 2803 966 2306 
Q 966 1694 1177 1281 
Q 1388 869 1791 669 
Q 2194 469 2647 469 
Q 3041 469 3416 620 
Q 3791 772 3984 944 
L 3984 1797 
L 2638 1797 
z
" transform="scale(0.015625)"/>
       <path id="ArialMT-65" d="M 2694 1069 
L 3275 997 
Q 3138 488 2766 206 
Q 2394 -75 1816 -75 
Q 1088 -75 661 373 
Q 234 822 234 1631 
Q 234 2469 665 2931 
Q 1097 3394 1784 3394 
Q 2450 3394 2872 2941 
Q 3294 2488 3294 1666 
Q 3294 1616 3291 1516 
L 816 1516 
Q 847 969 1125 678 
Q 1403 388 1819 388 
Q 2128 388 2347 550 
Q 2566 713 2694 1069 
z
M 847 1978 
L 2700 1978 
Q 2663 2397 2488 2606 
Q 2219 2931 1791 2931 
Q 1403 2931 1139 2672 
Q 875 2413 847 1978 
z
" transform="scale(0.015625)"/>
       <path id="ArialMT-6e" d="M 422 0 
L 422 3319 
L 928 3319 
L 928 2847 
Q 1294 3394 1984 3394 
Q 2284 3394 2536 3286 
Q 2788 3178 2913 3003 
Q 3038 2828 3088 2588 
Q 3119 2431 3119 2041 
L 3119 0 
L 2556 0 
L 2556 2019 
Q 2556 2363 2490 2533 
Q 2425 2703 2258 2804 
Q 2091 2906 1866 2906 
Q 1506 2906 1245 2678 
Q 984 2450 984 1813 
L 984 0 
L 422 0 
z
" transform="scale(0.015625)"/>
       <path id="ArialMT-72" d="M 416 0 
L 416 3319 
L 922 3319 
L 922 2816 
Q 1116 3169 1280 3281 
Q 1444 3394 1641 3394 
Q 1925 3394 2219 3213 
L 2025 2691 
Q 1819 2813 1613 2813 
Q 1428 2813 1281 2702 
Q 1134 2591 1072 2394 
Q 978 2094 978 1738 
L 978 0 
L 416 0 
z
" transform="scale(0.015625)"/>
       <path id="ArialMT-61" d="M 2588 409 
Q 2275 144 1986 34 
Q 1697 -75 1366 -75 
Q 819 -75 525 192 
Q 231 459 231 875 
Q 231 1119 342 1320 
Q 453 1522 633 1644 
Q 813 1766 1038 1828 
Q 1203 1872 1538 1913 
Q 2219 1994 2541 2106 
Q 2544 2222 2544 2253 
Q 2544 2597 2384 2738 
Q 2169 2928 1744 2928 
Q 1347 2928 1158 2789 
Q 969 2650 878 2297 
L 328 2372 
Q 403 2725 575 2942 
Q 747 3159 1072 3276 
Q 1397 3394 1825 3394 
Q 2250 3394 2515 3294 
Q 2781 3194 2906 3042 
Q 3031 2891 3081 2659 
Q 3109 2516 3109 2141 
L 3109 1391 
Q 3109 606 3145 398 
Q 3181 191 3288 0 
L 2700 0 
Q 2613 175 2588 409 
z
M 2541 1666 
Q 2234 1541 1622 1453 
Q 1275 1403 1131 1340 
Q 988 1278 909 1158 
Q 831 1038 831 891 
Q 831 666 1001 516 
Q 1172 366 1500 366 
Q 1825 366 2078 508 
Q 2331 650 2450 897 
Q 2541 1088 2541 1459 
L 2541 1666 
z
" transform="scale(0.015625)"/>
       <path id="ArialMT-74" d="M 1650 503 
L 1731 6 
Q 1494 -44 1306 -44 
Q 1000 -44 831 53 
Q 663 150 594 308 
Q 525 466 525 972 
L 525 2881 
L 113 2881 
L 113 3319 
L 525 3319 
L 525 4141 
L 1084 4478 
L 1084 3319 
L 1650 3319 
L 1650 2881 
L 1084 2881 
L 1084 941 
Q 1084 700 1114 631 
Q 1144 563 1211 522 
Q 1278 481 1403 481 
Q 1497 481 1650 503 
z
" transform="scale(0.015625)"/>
       <path id="ArialMT-69" d="M 425 3934 
L 425 4581 
L 988 4581 
L 988 3934 
L 425 3934 
z
M 425 0 
L 425 3319 
L 988 3319 
L 988 0 
L 425 0 
z
" transform="scale(0.015625)"/>
       <path id="ArialMT-6f" d="M 213 1659 
Q 213 2581 725 3025 
Q 1153 3394 1769 3394 
Q 2453 3394 2887 2945 
Q 3322 2497 3322 1706 
Q 3322 1066 3130 698 
Q 2938 331 2570 128 
Q 2203 -75 1769 -75 
Q 1072 -75 642 372 
Q 213 819 213 1659 
z
M 791 1659 
Q 791 1022 1069 705 
Q 1347 388 1769 388 
Q 2188 388 2466 706 
Q 2744 1025 2744 1678 
Q 2744 2294 2464 2611 
Q 2184 2928 1769 2928 
Q 1347 2928 1069 2612 
Q 791 2297 791 1659 
z
" transform="scale(0.015625)"/>
      </defs>
      <use xlink:href="#ArialMT-47"/>
      <use xlink:href="#ArialMT-65" transform="translate(77.783203 0)"/>
      <use xlink:href="#ArialMT-6e" transform="translate(133.398438 0)"/>
      <use xlink:href="#ArialMT-65" transform="translate(189.013672 0)"/>
      <use xlink:href="#ArialMT-72" transform="translate(244.628906 0)"/>
      <use xlink:href="#ArialMT-61" transform="translate(277.929688 0)"/>
      <use xlink:href="#ArialMT-74" transform="translate(333.544922 0)"/>
      <use xlink:href="#ArialMT-69" transform="translate(361.328125 0)"/>
      <use xlink:href="#ArialMT-6f" transform="translate(383.544922 0)"/>
      <use xlink:href="#ArialMT-6e" transform="translate(439.160156 0)"/>
     </g>
    </g>
   </g>
   <g id="matplotlib.axis_2">
    <g id="ytick_1">
     <g id="line2d_9">
      <path d="M 61.110469 302.846266 
L 557.370469 302.846266 
" clip-path="url(#pc0bb14846d)" style="fill: none; stroke: #ffffff; stroke-linecap: round"/>
     </g>
     <g id="text_10">
      <!-- 0 -->
      <g style="fill: #262626" transform="translate(44.937344 307.140954) scale(0.12 -0.12)">
       <use xlink:href="#ArialMT-30"/>
      </g>
     </g>
    </g>
    <g id="ytick_2">
     <g id="line2d_10">
      <path d="M 61.110469 249.18659 
L 557.370469 249.18659 
" clip-path="url(#pc0bb14846d)" style="fill: none; stroke: #ffffff; stroke-linecap: round"/>
     </g>
     <g id="text_11">
      <!-- 200 -->
      <g style="fill: #262626" transform="translate(31.591094 253.481278) scale(0.12 -0.12)">
       <use xlink:href="#ArialMT-32"/>
       <use xlink:href="#ArialMT-30" transform="translate(55.615234 0)"/>
       <use xlink:href="#ArialMT-30" transform="translate(111.230469 0)"/>
      </g>
     </g>
    </g>
    <g id="ytick_3">
     <g id="line2d_11">
      <path d="M 61.110469 195.526914 
L 557.370469 195.526914 
" clip-path="url(#pc0bb14846d)" style="fill: none; stroke: #ffffff; stroke-linecap: round"/>
     </g>
     <g id="text_12">
      <!-- 400 -->
      <g style="fill: #262626" transform="translate(31.591094 199.821601) scale(0.12 -0.12)">
       <use xlink:href="#ArialMT-34"/>
       <use xlink:href="#ArialMT-30" transform="translate(55.615234 0)"/>
       <use xlink:href="#ArialMT-30" transform="translate(111.230469 0)"/>
      </g>
     </g>
    </g>
    <g id="ytick_4">
     <g id="line2d_12">
      <path d="M 61.110469 141.867238 
L 557.370469 141.867238 
" clip-path="url(#pc0bb14846d)" style="fill: none; stroke: #ffffff; stroke-linecap: round"/>
     </g>
     <g id="text_13">
      <!-- 600 -->
      <g style="fill: #262626" transform="translate(31.591094 146.161925) scale(0.12 -0.12)">
       <use xlink:href="#ArialMT-36"/>
       <use xlink:href="#ArialMT-30" transform="translate(55.615234 0)"/>
       <use xlink:href="#ArialMT-30" transform="translate(111.230469 0)"/>
      </g>
     </g>
    </g>
    <g id="ytick_5">
     <g id="line2d_13">
      <path d="M 61.110469 88.207562 
L 557.370469 88.207562 
" clip-path="url(#pc0bb14846d)" style="fill: none; stroke: #ffffff; stroke-linecap: round"/>
     </g>
     <g id="text_14">
      <!-- 800 -->
      <g style="fill: #262626" transform="translate(31.591094 92.502249) scale(0.12 -0.12)">
       <use xlink:href="#ArialMT-38"/>
       <use xlink:href="#ArialMT-30" transform="translate(55.615234 0)"/>
       <use xlink:href="#ArialMT-30" transform="translate(111.230469 0)"/>
      </g>
     </g>
    </g>
    <g id="ytick_6">
     <g id="line2d_14">
      <path d="M 61.110469 34.547885 
L 557.370469 34.547885 
" clip-path="url(#pc0bb14846d)" style="fill: none; stroke: #ffffff; stroke-linecap: round"/>
     </g>
     <g id="text_15">
      <!-- 1000 -->
      <g style="fill: #262626" transform="translate(24.917969 38.842573) scale(0.12 -0.12)">
       <use xlink:href="#ArialMT-31"/>
       <use xlink:href="#ArialMT-30" transform="translate(55.615234 0)"/>
       <use xlink:href="#ArialMT-30" transform="translate(111.230469 0)"/>
       <use xlink:href="#ArialMT-30" transform="translate(166.845703 0)"/>
      </g>
     </g>
    </g>
    <g id="text_16">
     <!-- Mean loss -->
     <g style="fill: #262626" transform="translate(17.936719 189.430078) rotate(-90) scale(0.15 -0.15)">
      <defs>
       <path id="ArialMT-4d" d="M 475 0 
L 475 4581 
L 1388 4581 
L 2472 1338 
Q 2622 884 2691 659 
Q 2769 909 2934 1394 
L 4031 4581 
L 4847 4581 
L 4847 0 
L 4263 0 
L 4263 3834 
L 2931 0 
L 2384 0 
L 1059 3900 
L 1059 0 
L 475 0 
z
" transform="scale(0.015625)"/>
       <path id="ArialMT-20" transform="scale(0.015625)"/>
       <path id="ArialMT-6c" d="M 409 0 
L 409 4581 
L 972 4581 
L 972 0 
L 409 0 
z
" transform="scale(0.015625)"/>
       <path id="ArialMT-73" d="M 197 991 
L 753 1078 
Q 800 744 1014 566 
Q 1228 388 1613 388 
Q 2000 388 2187 545 
Q 2375 703 2375 916 
Q 2375 1106 2209 1216 
Q 2094 1291 1634 1406 
Q 1016 1563 777 1677 
Q 538 1791 414 1992 
Q 291 2194 291 2438 
Q 291 2659 392 2848 
Q 494 3038 669 3163 
Q 800 3259 1026 3326 
Q 1253 3394 1513 3394 
Q 1903 3394 2198 3281 
Q 2494 3169 2634 2976 
Q 2775 2784 2828 2463 
L 2278 2388 
Q 2241 2644 2061 2787 
Q 1881 2931 1553 2931 
Q 1166 2931 1000 2803 
Q 834 2675 834 2503 
Q 834 2394 903 2306 
Q 972 2216 1119 2156 
Q 1203 2125 1616 2013 
Q 2213 1853 2448 1751 
Q 2684 1650 2818 1456 
Q 2953 1263 2953 975 
Q 2953 694 2789 445 
Q 2625 197 2315 61 
Q 2006 -75 1616 -75 
Q 969 -75 630 194 
Q 291 463 197 991 
z
" transform="scale(0.015625)"/>
      </defs>
      <use xlink:href="#ArialMT-4d"/>
      <use xlink:href="#ArialMT-65" transform="translate(83.300781 0)"/>
      <use xlink:href="#ArialMT-61" transform="translate(138.916016 0)"/>
      <use xlink:href="#ArialMT-6e" transform="translate(194.53125 0)"/>
      <use xlink:href="#ArialMT-20" transform="translate(250.146484 0)"/>
      <use xlink:href="#ArialMT-6c" transform="translate(277.929688 0)"/>
      <use xlink:href="#ArialMT-6f" transform="translate(300.146484 0)"/>
      <use xlink:href="#ArialMT-73" transform="translate(355.761719 0)"/>
      <use xlink:href="#ArialMT-73" transform="translate(405.761719 0)"/>
     </g>
    </g>
   </g>
   <g id="FillBetweenPolyCollection_1">
    <defs>
     <path id="m69f96605bd" d="M 83.667741 -328.033253 
L 83.667741 -125.383286 
L 86.695563 -143.712654 
L 89.723385 -117.798992 
L 92.751207 -109.017445 
L 95.779029 -109.508596 
L 98.806851 -93.561051 
L 101.834673 -111.951103 
L 104.862494 -91.675941 
L 107.890316 -97.044487 
L 110.918138 -89.314212 
L 113.94596 -84.20692 
L 116.973782 -88.540946 
L 120.001604 -86.109924 
L 123.029425 -88.786741 
L 126.057247 -74.248584 
L 129.085069 -68.020341 
L 132.112891 -79.889786 
L 135.140713 -80.138124 
L 138.168535 -78.671962 
L 141.196356 -82.11765 
L 144.224178 -70.443586 
L 147.252 -73.014407 
L 150.279822 -71.920394 
L 153.307644 -63.182581 
L 156.335466 -67.411789 
L 159.363288 -62.001293 
L 162.391109 -75.922778 
L 165.418931 -68.067445 
L 168.446753 -73.509762 
L 171.474575 -68.380362 
L 174.502397 -69.96353 
L 177.530219 -67.066582 
L 180.55804 -64.447541 
L 183.585862 -67.143655 
L 186.613684 -69.021085 
L 189.641506 -63.011034 
L 192.669328 -64.624057 
L 195.69715 -65.989522 
L 198.724971 -65.550539 
L 201.752793 -64.31634 
L 204.780615 -70.394278 
L 207.808437 -68.094415 
L 210.836259 -66.880883 
L 213.864081 -64.158076 
L 216.891903 -66.920595 
L 219.919724 -66.644005 
L 222.947546 -66.279199 
L 225.975368 -64.42377 
L 229.00319 -63.490141 
L 232.031012 -64.692036 
L 235.058834 -65.651118 
L 238.086655 -65.608931 
L 241.114477 -64.832796 
L 244.142299 -65.157092 
L 247.170121 -64.118597 
L 250.197943 -64.929941 
L 253.225765 -65.157371 
L 256.253587 -64.791917 
L 259.281408 -62.550553 
L 262.30923 -65.706455 
L 265.337052 -66.320755 
L 268.364874 -65.37445 
L 271.392696 -62.012802 
L 274.420518 -65.974998 
L 277.448339 -67.131186 
L 280.476161 -64.207718 
L 283.503983 -64.523924 
L 286.531805 -63.869198 
L 289.559627 -64.418737 
L 292.587449 -63.392618 
L 295.61527 -68.558535 
L 298.643092 -65.895917 
L 301.670914 -66.007511 
L 304.698736 -65.521168 
L 307.726558 -62.961397 
L 310.75438 -63.830573 
L 313.782202 -65.592388 
L 316.810023 -62.669332 
L 319.837845 -63.787875 
L 322.865667 -62.200989 
L 325.893489 -63.677118 
L 328.921311 -63.030802 
L 331.949133 -62.934891 
L 334.976954 -65.164663 
L 338.004776 -65.125608 
L 341.032598 -64.633095 
L 344.06042 -62.018155 
L 347.088242 -62.814682 
L 350.116064 -64.052698 
L 353.143885 -64.61407 
L 356.171707 -63.027003 
L 359.199529 -64.526108 
L 362.227351 -63.199653 
L 365.255173 -62.158976 
L 368.282995 -63.480873 
L 371.310817 -66.70424 
L 374.338638 -64.070382 
L 377.36646 -64.742288 
L 380.394282 -65.570408 
L 383.422104 -64.822255 
L 386.449926 -64.017886 
L 389.477748 -63.531494 
L 392.505569 -65.035931 
L 395.533391 -65.303893 
L 398.561213 -65.186201 
L 401.589035 -63.296928 
L 404.616857 -63.011073 
L 407.644679 -65.451331 
L 410.6725 -63.584843 
L 413.700322 -63.636863 
L 416.728144 -64.225068 
L 419.755966 -62.372646 
L 422.783788 -64.456878 
L 425.81161 -64.462342 
L 428.839432 -62.378121 
L 431.867253 -64.173847 
L 434.895075 -63.335711 
L 437.922897 -64.373949 
L 440.950719 -64.998082 
L 443.978541 -65.179784 
L 447.006363 -64.608071 
L 450.034184 -65.544923 
L 453.062006 -64.179135 
L 456.089828 -62.931518 
L 459.11765 -64.444539 
L 462.145472 -61.548296 
L 465.173294 -64.505857 
L 468.201115 -63.36089 
L 471.228937 -63.78383 
L 474.256759 -65.565119 
L 477.284581 -66.201935 
L 480.312403 -64.890999 
L 483.340225 -61.805224 
L 486.368047 -64.658204 
L 489.395868 -58.851435 
L 492.42369 -63.900143 
L 495.451512 -63.69866 
L 498.479334 -64.678805 
L 501.507156 -65.954879 
L 504.534978 -63.076931 
L 507.562799 -63.263009 
L 510.590621 -63.619123 
L 513.618443 -61.796265 
L 516.646265 -63.652178 
L 519.674087 -62.867891 
L 522.701909 -64.840849 
L 525.72973 -63.332659 
L 528.757552 -65.44617 
L 531.785374 -62.950879 
L 534.813196 -66.215072 
L 534.813196 -70.297655 
L 534.813196 -70.297655 
L 531.785374 -67.151785 
L 528.757552 -67.439916 
L 525.72973 -66.591459 
L 522.701909 -68.697329 
L 519.674087 -66.865229 
L 516.646265 -65.57162 
L 513.618443 -68.844318 
L 510.590621 -69.309146 
L 507.562799 -67.705247 
L 504.534978 -69.572627 
L 501.507156 -71.476392 
L 498.479334 -67.623436 
L 495.451512 -67.001054 
L 492.42369 -69.431399 
L 489.395868 -94.977924 
L 486.368047 -74.983985 
L 483.340225 -81.693741 
L 480.312403 -67.671568 
L 477.284581 -77.537122 
L 474.256759 -68.51136 
L 471.228937 -69.386729 
L 468.201115 -64.977793 
L 465.173294 -69.848561 
L 462.145472 -70.992988 
L 459.11765 -66.168883 
L 456.089828 -73.53283 
L 453.062006 -65.858215 
L 450.034184 -67.501226 
L 447.006363 -66.781205 
L 443.978541 -66.243279 
L 440.950719 -67.855657 
L 437.922897 -66.155381 
L 434.895075 -74.880118 
L 431.867253 -66.533395 
L 428.839432 -67.532102 
L 425.81161 -69.365858 
L 422.783788 -69.917066 
L 419.755966 -66.530094 
L 416.728144 -67.137919 
L 413.700322 -69.085428 
L 410.6725 -65.93027 
L 407.644679 -69.955535 
L 404.616857 -65.877126 
L 401.589035 -66.891144 
L 398.561213 -67.202264 
L 395.533391 -72.651752 
L 392.505569 -66.872637 
L 389.477748 -70.362067 
L 386.449926 -69.537175 
L 383.422104 -66.521845 
L 380.394282 -70.045562 
L 377.36646 -66.837978 
L 374.338638 -73.685929 
L 371.310817 -71.12796 
L 368.282995 -68.624906 
L 365.255173 -66.626796 
L 362.227351 -67.696501 
L 359.199529 -67.383502 
L 356.171707 -75.32771 
L 353.143885 -66.575009 
L 350.116064 -69.727537 
L 347.088242 -66.342638 
L 344.06042 -75.195101 
L 341.032598 -70.014304 
L 338.004776 -69.205367 
L 334.976954 -68.107511 
L 331.949133 -68.156848 
L 328.921311 -72.937994 
L 325.893489 -70.527375 
L 322.865667 -73.024872 
L 319.837845 -76.575538 
L 316.810023 -74.479774 
L 313.782202 -83.725061 
L 310.75438 -75.686091 
L 307.726558 -77.274382 
L 304.698736 -73.692506 
L 301.670914 -70.481024 
L 298.643092 -72.110625 
L 295.61527 -72.342149 
L 292.587449 -70.403789 
L 289.559627 -68.734577 
L 286.531805 -68.342931 
L 283.503983 -71.865631 
L 280.476161 -67.245948 
L 277.448339 -70.052606 
L 274.420518 -68.648548 
L 271.392696 -66.599115 
L 268.364874 -90.700768 
L 265.337052 -70.025588 
L 262.30923 -68.597264 
L 259.281408 -76.115056 
L 256.253587 -76.586485 
L 253.225765 -70.792918 
L 250.197943 -70.405606 
L 247.170121 -68.873323 
L 244.142299 -66.586524 
L 241.114477 -66.270706 
L 238.086655 -68.332612 
L 235.058834 -67.119441 
L 232.031012 -67.059384 
L 229.00319 -65.740056 
L 225.975368 -70.839109 
L 222.947546 -70.936078 
L 219.919724 -70.830939 
L 216.891903 -73.849571 
L 213.864081 -78.546381 
L 210.836259 -72.625086 
L 207.808437 -74.622356 
L 204.780615 -75.21448 
L 201.752793 -76.916523 
L 198.724971 -75.628819 
L 195.69715 -67.896655 
L 192.669328 -76.66396 
L 189.641506 -88.666383 
L 186.613684 -76.75774 
L 183.585862 -73.782957 
L 180.55804 -80.555693 
L 177.530219 -84.165027 
L 174.502397 -80.285179 
L 171.474575 -78.959346 
L 168.446753 -88.304646 
L 165.418931 -91.007438 
L 162.391109 -105.001036 
L 159.363288 -109.957308 
L 156.335466 -98.149208 
L 153.307644 -93.394896 
L 150.279822 -90.279885 
L 147.252 -77.717685 
L 144.224178 -88.885288 
L 141.196356 -89.385612 
L 138.168535 -93.248696 
L 135.140713 -99.111535 
L 132.112891 -104.33606 
L 129.085069 -99.736945 
L 126.057247 -102.290541 
L 123.029425 -100.119674 
L 120.001604 -107.410892 
L 116.973782 -136.880674 
L 113.94596 -122.171889 
L 110.918138 -108.9017 
L 107.890316 -130.382951 
L 104.862494 -126.252293 
L 101.834673 -154.128599 
L 98.806851 -124.152715 
L 95.779029 -155.274281 
L 92.751207 -157.341742 
L 89.723385 -150.689506 
L 86.695563 -172.982594 
L 83.667741 -328.033253 
z
" style="stroke: #365c8d; stroke-opacity: 0.2"/>
    </defs>
    <g clip-path="url(#pc0bb14846d)">
     <use xlink:href="#m69f96605bd" x="0" y="348.692344" style="fill: #365c8d; fill-opacity: 0.2; stroke: #365c8d; stroke-opacity: 0.2"/>
    </g>
   </g>
   <g id="line2d_15">
    <path d="M 83.667741 121.984074 
L 86.695563 190.34472 
L 89.723385 214.448095 
L 92.751207 215.51275 
L 95.779029 216.300906 
L 98.806851 239.835461 
L 101.834673 215.652493 
L 104.862494 239.728227 
L 107.890316 234.978625 
L 110.918138 249.584388 
L 113.94596 245.502939 
L 116.973782 235.981534 
L 120.001604 251.931936 
L 123.029425 254.239136 
L 126.057247 260.422781 
L 129.085069 264.813701 
L 132.112891 256.579421 
L 135.140713 259.067514 
L 138.168535 262.732015 
L 141.196356 262.940713 
L 144.224178 269.027906 
L 147.252 273.326297 
L 150.279822 267.592204 
L 153.307644 270.403605 
L 156.335466 265.911845 
L 159.363288 262.713043 
L 162.391109 258.230437 
L 165.418931 269.154902 
L 168.446753 267.78514 
L 171.474575 275.02249 
L 174.502397 273.567989 
L 177.530219 273.076539 
L 180.55804 276.190727 
L 183.585862 278.229038 
L 186.613684 275.802931 
L 189.641506 272.853635 
L 192.669328 278.048335 
L 195.69715 281.749256 
L 198.724971 278.102665 
L 201.752793 278.075912 
L 204.780615 275.887965 
L 207.808437 277.333958 
L 210.836259 278.939359 
L 213.864081 277.340115 
L 216.891903 278.307261 
L 219.919724 279.954872 
L 222.947546 280.084705 
L 225.975368 281.060904 
L 229.00319 284.077245 
L 232.031012 282.816634 
L 238.086655 281.721572 
L 241.114477 283.140593 
L 244.142299 282.820536 
L 247.170121 282.196384 
L 250.197943 281.02457 
L 253.225765 280.717199 
L 256.253587 278.003143 
L 259.281408 279.359539 
L 262.30923 281.540484 
L 265.337052 280.519172 
L 268.364874 270.654735 
L 271.392696 284.386386 
L 274.420518 281.380571 
L 277.448339 280.100448 
L 280.476161 282.965511 
L 283.503983 280.497566 
L 286.531805 282.586279 
L 289.559627 282.115687 
L 292.587449 281.79414 
L 295.61527 278.242002 
L 298.643092 279.689073 
L 301.670914 280.448076 
L 304.698736 279.085506 
L 307.726558 278.574454 
L 310.75438 278.934012 
L 313.782202 274.033619 
L 316.810023 280.117791 
L 319.837845 278.510637 
L 322.865667 281.079413 
L 325.893489 281.590097 
L 328.921311 280.707946 
L 331.949133 283.146474 
L 334.976954 282.056257 
L 338.004776 281.526857 
L 341.032598 281.368644 
L 344.06042 280.085716 
L 347.088242 284.113683 
L 350.116064 281.802226 
L 353.143885 283.097804 
L 356.171707 279.514987 
L 359.199529 282.737539 
L 362.227351 283.244267 
L 365.255173 284.299458 
L 368.282995 282.639454 
L 371.310817 279.776244 
L 374.338638 279.814188 
L 377.36646 282.902211 
L 380.394282 280.884359 
L 383.422104 283.020294 
L 386.449926 281.914813 
L 389.477748 281.745563 
L 392.505569 282.73806 
L 395.533391 279.714522 
L 398.561213 282.498111 
L 401.589035 283.598308 
L 404.616857 284.248244 
L 407.644679 280.98891 
L 410.6725 283.934787 
L 413.700322 282.331198 
L 416.728144 283.01085 
L 419.755966 284.240973 
L 422.783788 281.505372 
L 425.81161 281.778244 
L 428.839432 283.737232 
L 431.867253 283.338723 
L 434.895075 279.584429 
L 437.922897 283.427679 
L 440.950719 282.265474 
L 443.978541 282.980812 
L 447.006363 282.997706 
L 450.034184 282.16927 
L 453.062006 283.673669 
L 456.089828 280.46017 
L 459.11765 283.385633 
L 465.173294 281.515135 
L 468.201115 284.523002 
L 471.228937 282.107064 
L 474.256759 281.654104 
L 477.284581 276.822815 
L 480.312403 282.41106 
L 483.340225 276.942861 
L 486.368047 278.871249 
L 489.395868 271.777664 
L 492.42369 282.026573 
L 495.451512 283.342486 
L 498.479334 282.541223 
L 501.507156 279.976708 
L 504.534978 282.367565 
L 507.562799 283.208216 
L 510.590621 282.228209 
L 513.618443 283.372053 
L 516.646265 284.080445 
L 519.674087 283.825784 
L 522.701909 281.923254 
L 525.72973 283.730284 
L 528.757552 282.249301 
L 531.785374 283.641012 
L 534.813196 280.43598 
L 534.813196 280.43598 
" clip-path="url(#pc0bb14846d)" style="fill: none; stroke: #365c8d; stroke-width: 2; stroke-linecap: round"/>
   </g>
   <g id="patch_3">
    <path d="M 61.110469 303.3 
L 61.110469 7.2 
" style="fill: none; stroke: #ffffff; stroke-width: 1.25; stroke-linejoin: miter; stroke-linecap: square"/>
   </g>
   <g id="patch_4">
    <path d="M 61.110469 303.3 
L 557.370469 303.3 
" style="fill: none; stroke: #ffffff; stroke-width: 1.25; stroke-linejoin: miter; stroke-linecap: square"/>
   </g>
   <g id="legend_1">
    <g id="line2d_16">
     <path d="M 367.695469 29.984063 
L 385.695469 29.984063 
L 403.695469 29.984063 
" style="fill: none; stroke: #365c8d; stroke-width: 2; stroke-linecap: round"/>
    </g>
    <g id="text_17">
     <!-- Evolved agents -->
     <g style="fill: #262626" transform="translate(418.095469 36.284063) scale(0.18 -0.18)">
      <defs>
       <path id="ArialMT-45" d="M 506 0 
L 506 4581 
L 3819 4581 
L 3819 4041 
L 1113 4041 
L 1113 2638 
L 3647 2638 
L 3647 2100 
L 1113 2100 
L 1113 541 
L 3925 541 
L 3925 0 
L 506 0 
z
" transform="scale(0.015625)"/>
       <path id="ArialMT-76" d="M 1344 0 
L 81 3319 
L 675 3319 
L 1388 1331 
Q 1503 1009 1600 663 
Q 1675 925 1809 1294 
L 2547 3319 
L 3125 3319 
L 1869 0 
L 1344 0 
z
" transform="scale(0.015625)"/>
       <path id="ArialMT-64" d="M 2575 0 
L 2575 419 
Q 2259 -75 1647 -75 
Q 1250 -75 917 144 
Q 584 363 401 755 
Q 219 1147 219 1656 
Q 219 2153 384 2558 
Q 550 2963 881 3178 
Q 1213 3394 1622 3394 
Q 1922 3394 2156 3267 
Q 2391 3141 2538 2938 
L 2538 4581 
L 3097 4581 
L 3097 0 
L 2575 0 
z
M 797 1656 
Q 797 1019 1065 703 
Q 1334 388 1700 388 
Q 2069 388 2326 689 
Q 2584 991 2584 1609 
Q 2584 2291 2321 2609 
Q 2059 2928 1675 2928 
Q 1300 2928 1048 2622 
Q 797 2316 797 1656 
z
" transform="scale(0.015625)"/>
       <path id="ArialMT-67" d="M 319 -275 
L 866 -356 
Q 900 -609 1056 -725 
Q 1266 -881 1628 -881 
Q 2019 -881 2231 -725 
Q 2444 -569 2519 -288 
Q 2563 -116 2559 434 
Q 2191 0 1641 0 
Q 956 0 581 494 
Q 206 988 206 1678 
Q 206 2153 378 2554 
Q 550 2956 876 3175 
Q 1203 3394 1644 3394 
Q 2231 3394 2613 2919 
L 2613 3319 
L 3131 3319 
L 3131 450 
Q 3131 -325 2973 -648 
Q 2816 -972 2473 -1159 
Q 2131 -1347 1631 -1347 
Q 1038 -1347 672 -1080 
Q 306 -813 319 -275 
z
M 784 1719 
Q 784 1066 1043 766 
Q 1303 466 1694 466 
Q 2081 466 2343 764 
Q 2606 1063 2606 1700 
Q 2606 2309 2336 2618 
Q 2066 2928 1684 2928 
Q 1309 2928 1046 2623 
Q 784 2319 784 1719 
z
" transform="scale(0.015625)"/>
      </defs>
      <use xlink:href="#ArialMT-45"/>
      <use xlink:href="#ArialMT-76" transform="translate(66.699219 0)"/>
      <use xlink:href="#ArialMT-6f" transform="translate(116.699219 0)"/>
      <use xlink:href="#ArialMT-6c" transform="translate(172.314453 0)"/>
      <use xlink:href="#ArialMT-76" transform="translate(194.53125 0)"/>
      <use xlink:href="#ArialMT-65" transform="translate(244.53125 0)"/>
      <use xlink:href="#ArialMT-64" transform="translate(300.146484 0)"/>
      <use xlink:href="#ArialMT-20" transform="translate(355.761719 0)"/>
      <use xlink:href="#ArialMT-61" transform="translate(383.544922 0)"/>
      <use xlink:href="#ArialMT-67" transform="translate(439.160156 0)"/>
      <use xlink:href="#ArialMT-65" transform="translate(494.775391 0)"/>
      <use xlink:href="#ArialMT-6e" transform="translate(550.390625 0)"/>
      <use xlink:href="#ArialMT-74" transform="translate(606.005859 0)"/>
      <use xlink:href="#ArialMT-73" transform="translate(633.789062 0)"/>
     </g>
    </g>
   </g>
  </g>
 </g>
 <defs>
  <clipPath id="pc0bb14846d">
   <rect x="61.110469" y="7.2" width="496.26" height="296.1"/>
  </clipPath>
 </defs>
</svg>
