<?xml version="1.0" encoding="utf-8" standalone="no"?>
<!DOCTYPE svg PUBLIC "-//W3C//DTD SVG 1.1//EN"
  "http://www.w3.org/Graphics/SVG/1.1/DTD/svg11.dtd">
<svg xmlns:xlink="http://www.w3.org/1999/xlink" width="564.570469pt" height="348.692344pt" viewBox="0 0 564.570469 348.692344" xmlns="http://www.w3.org/2000/svg" version="1.1">
 <metadata>
  <rdf:RDF xmlns:dc="http://purl.org/dc/elements/1.1/" xmlns:cc="http://creativecommons.org/ns#" xmlns:rdf="http://www.w3.org/1999/02/22-rdf-syntax-ns#">
   <cc:Work>
    <dc:type rdf:resource="http://purl.org/dc/dcmitype/StillImage"/>
    <dc:date>2026-05-08T11:32:37.139372</dc:date>
    <dc:format>image/svg+xml</dc:format>
    <dc:creator>
     <cc:Agent>
      <dc:title>Matplotlib v3.10.0, https://matplotlib.org/</dc:title>
     </cc:Agent>
    </dc:creator>
   </cc:Work>
  </rdf:RDF>
 </metadata>
 <defs>
  <style type="text/css">*{stroke-linejoin: round; stroke-linecap: butt}</style>
 </defs>
 <g id="figure_1">
  <g id="patch_1">
   <path d="M 0 348.692344 
L 564.570469 348.692344 
L 564.570469 0 
L 0 0 
z
" style="fill: #ffffff"/>
  </g>
  <g id="axes_1">
   <g id="patch_2">
    <path d="M 61.110469 303.3 
L 557.370469 303.3 
L 557.370469 7.2 
L 61.110469 7.2 
z
" style="fill: #eaeaf2"/>
   </g>
   <g id="matplotlib.axis_1">
    <g id="xtick_1">
     <g id="line2d_1">
      <path d="M 83.667741 303.3 
L 83.667741 7.2 
" clip-path="url(#p2c40705cde)" style="fill: none; stroke: #ffffff; stroke-linecap: round"/>
     </g>
     <g id="text_1">
      <!-- 0 -->
      <g style="fill: #262626" transform="translate(80.331179 321.389375) scale(0.12 -0.12)">
       <defs>
        <path id="ArialMT-30" d="M 266 2259 
Q 266 3072 433 3567 
Q 600 4063 929 4331 
Q 1259 4600 1759 4600 
Q 2128 4600 2406 4451 
Q 2684 4303 2865 4023 
Q 3047 3744 3150 3342 
Q 3253 2941 3253 2259 
Q 3253 1453 3087 958 
Q 2922 463 2592 192 
Q 2263 -78 1759 -78 
Q 1097 -78 719 397 
Q 266 969 266 2259 
z
M 844 2259 
Q 844 1131 1108 757 
Q 1372 384 1759 384 
Q 2147 384 2411 759 
Q 2675 1134 2675 2259 
Q 2675 3391 2411 3762 
Q 2147 4134 1753 4134 
Q 1366 4134 1134 3806 
Q 844 3388 844 2259 
z
" transform="scale(0.015625)"/>
       </defs>
       <use xlink:href="#ArialMT-30"/>
      </g>
     </g>
    </g>
    <g id="xtick_2">
     <g id="line2d_2">
      <path d="M 144.224178 303.3 
L 144.224178 7.2 
" clip-path="url(#p2c40705cde)" style="fill: none; stroke: #ffffff; stroke-linecap: round"/>
     </g>
     <g id="text_2">
      <!-- 20 -->
      <g style="fill: #262626" transform="translate(137.551053 321.389375) scale(0.12 -0.12)">
       <defs>
        <path id="ArialMT-32" d="M 3222 541 
L 3222 0 
L 194 0 
Q 188 203 259 391 
Q 375 700 629 1000 
Q 884 1300 1366 1694 
Q 2113 2306 2375 2664 
Q 2638 3022 2638 3341 
Q 2638 3675 2398 3904 
Q 2159 4134 1775 4134 
Q 1369 4134 1125 3890 
Q 881 3647 878 3216 
L 300 3275 
Q 359 3922 746 4261 
Q 1134 4600 1788 4600 
Q 2447 4600 2831 4234 
Q 3216 3869 3216 3328 
Q 3216 3053 3103 2787 
Q 2991 2522 2730 2228 
Q 2469 1934 1863 1422 
Q 1356 997 1212 845 
Q 1069 694 975 541 
L 3222 541 
z
" transform="scale(0.015625)"/>
       </defs>
       <use xlink:href="#ArialMT-32"/>
       <use xlink:href="#ArialMT-30" transform="translate(55.615234 0)"/>
      </g>
     </g>
    </g>
    <g id="xtick_3">
     <g id="line2d_3">
      <path d="M 204.780615 303.3 
L 204.780615 7.2 
" clip-path="url(#p2c40705cde)" style="fill: none; stroke: #ffffff; stroke-linecap: round"/>
     </g>
     <g id="text_3">
      <!-- 40 -->
      <g style="fill: #262626" transform="translate(198.10749 321.389375) scale(0.12 -0.12)">
       <defs>
        <path id="ArialMT-34" d="M 2069 0 
L 2069 1097 
L 81 1097 
L 81 1613 
L 2172 4581 
L 2631 4581 
L 2631 1613 
L 3250 1613 
L 3250 1097 
L 2631 1097 
L 2631 0 
L 2069 0 
z
M 2069 1613 
L 2069 3678 
L 634 1613 
L 2069 1613 
z
" transform="scale(0.015625)"/>
       </defs>
       <use xlink:href="#ArialMT-34"/>
       <use xlink:href="#ArialMT-30" transform="translate(55.615234 0)"/>
      </g>
     </g>
    </g>
    <g id="xtick_4">
     <g id="line2d_4">
      <path d="M 265.337052 303.3 
L 265.337052 7.2 
" clip-path="url(#p2c40705cde)" style="fill: none; stroke: #ffffff; stroke-linecap: round"/>
     </g>
     <g id="text_4">
      <!-- 60 -->
      <g style="fill: #262626" transform="translate(258.663927 321.389375) scale(0.12 -0.12)">
       <defs>
        <path id="ArialMT-36" d="M 3184 3459 
L 2625 3416 
Q 2550 3747 2413 3897 
Q 2184 4138 1850 4138 
Q 1581 4138 1378 3988 
Q 1113 3794 959 3422 
Q 806 3050 800 2363 
Q 1003 2672 1297 2822 
Q 1591 2972 1913 2972 
Q 2475 2972 2870 2558 
Q 3266 2144 3266 1488 
Q 3266 1056 3080 686 
Q 2894 316 2569 119 
Q 2244 -78 1831 -78 
Q 1128 -78 684 439 
Q 241 956 241 2144 
Q 241 3472 731 4075 
Q 1159 4600 1884 4600 
Q 2425 4600 2770 4297 
Q 3116 3994 3184 3459 
z
M 888 1484 
Q 888 1194 1011 928 
Q 1134 663 1356 523 
Q 1578 384 1822 384 
Q 2178 384 2434 671 
Q 2691 959 2691 1453 
Q 2691 1928 2437 2201 
Q 2184 2475 1800 2475 
Q 1419 2475 1153 2201 
Q 888 1928 888 1484 
z
" transform="scale(0.015625)"/>
       </defs>
       <use xlink:href="#ArialMT-36"/>
       <use xlink:href="#ArialMT-30" transform="translate(55.615234 0)"/>
      </g>
     </g>
    </g>
    <g id="xtick_5">
     <g id="line2d_5">
      <path d="M 325.893489 303.3 
L 325.893489 7.2 
" clip-path="url(#p2c40705cde)" style="fill: none; stroke: #ffffff; stroke-linecap: round"/>
     </g>
     <g id="text_5">
      <!-- 80 -->
      <g style="fill: #262626" transform="translate(319.220364 321.389375) scale(0.12 -0.12)">
       <defs>
        <path id="ArialMT-38" d="M 1131 2484 
Q 781 2613 612 2850 
Q 444 3088 444 3419 
Q 444 3919 803 4259 
Q 1163 4600 1759 4600 
Q 2359 4600 2725 4251 
Q 3091 3903 3091 3403 
Q 3091 3084 2923 2848 
Q 2756 2613 2416 2484 
Q 2838 2347 3058 2040 
Q 3278 1734 3278 1309 
Q 3278 722 2862 322 
Q 2447 -78 1769 -78 
Q 1091 -78 675 323 
Q 259 725 259 1325 
Q 259 1772 486 2073 
Q 713 2375 1131 2484 
z
M 1019 3438 
Q 1019 3113 1228 2906 
Q 1438 2700 1772 2700 
Q 2097 2700 2305 2904 
Q 2513 3109 2513 3406 
Q 2513 3716 2298 3927 
Q 2084 4138 1766 4138 
Q 1444 4138 1231 3931 
Q 1019 3725 1019 3438 
z
M 838 1322 
Q 838 1081 952 856 
Q 1066 631 1291 507 
Q 1516 384 1775 384 
Q 2178 384 2440 643 
Q 2703 903 2703 1303 
Q 2703 1709 2433 1975 
Q 2163 2241 1756 2241 
Q 1359 2241 1098 1978 
Q 838 1716 838 1322 
z
" transform="scale(0.015625)"/>
       </defs>
       <use xlink:href="#ArialMT-38"/>
       <use xlink:href="#ArialMT-30" transform="translate(55.615234 0)"/>
      </g>
     </g>
    </g>
    <g id="xtick_6">
     <g id="line2d_6">
      <path d="M 386.449926 303.3 
L 386.449926 7.2 
" clip-path="url(#p2c40705cde)" style="fill: none; stroke: #ffffff; stroke-linecap: round"/>
     </g>
     <g id="text_6">
      <!-- 100 -->
      <g style="fill: #262626" transform="translate(376.440238 321.389375) scale(0.12 -0.12)">
       <defs>
        <path id="ArialMT-31" d="M 2384 0 
L 1822 0 
L 1822 3584 
Q 1619 3391 1289 3197 
Q 959 3003 697 2906 
L 697 3450 
Q 1169 3672 1522 3987 
Q 1875 4303 2022 4600 
L 2384 4600 
L 2384 0 
z
" transform="scale(0.015625)"/>
       </defs>
       <use xlink:href="#ArialMT-31"/>
       <use xlink:href="#ArialMT-30" transform="translate(55.615234 0)"/>
       <use xlink:href="#ArialMT-30" transform="translate(111.230469 0)"/>
      </g>
     </g>
    </g>
    <g id="xtick_7">
     <g id="line2d_7">
      <path d="M 447.006363 303.3 
L 447.006363 7.2 
" clip-path="url(#p2c40705cde)" style="fill: none; stroke: #ffffff; stroke-linecap: round"/>
     </g>
     <g id="text_7">
      <!-- 120 -->
      <g style="fill: #262626" transform="translate(436.996675 321.389375) scale(0.12 -0.12)">
       <use xlink:href="#ArialMT-31"/>
       <use xlink:href="#ArialMT-32" transform="translate(55.615234 0)"/>
       <use xlink:href="#ArialMT-30" transform="translate(111.230469 0)"/>
      </g>
     </g>
    </g>
    <g id="xtick_8">
     <g id="line2d_8">
      <path d="M 507.562799 303.3 
L 507.562799 7.2 
" clip-path="url(#p2c40705cde)" style="fill: none; stroke: #ffffff; stroke-linecap: round"/>
     </g>
     <g id="text_8">
      <!-- 140 -->
      <g style="fill: #262626" transform="translate(497.553112 321.389375) scale(0.12 -0.12)">
       <use xlink:href="#ArialMT-31"/>
       <use xlink:href="#ArialMT-34" transform="translate(55.615234 0)"/>
       <use xlink:href="#ArialMT-30" transform="translate(111.230469 0)"/>
      </g>
     </g>
    </g>
    <g id="text_9">
     <!-- Generation -->
     <g style="fill: #262626" transform="translate(272.135391 338.511094) scale(0.15 -0.15)">
      <defs>
       <path id="ArialMT-47" d="M 2638 1797 
L 2638 2334 
L 4578 2338 
L 4578 638 
Q 4131 281 3656 101 
Q 3181 -78 2681 -78 
Q 2006 -78 1454 211 
Q 903 500 622 1047 
Q 341 1594 341 2269 
Q 341 2938 620 3517 
Q 900 4097 1425 4378 
Q 1950 4659 2634 4659 
Q 3131 4659 3532 4498 
Q 3934 4338 4162 4050 
Q 4391 3763 4509 3300 
L 3963 3150 
Q 3859 3500 3706 3700 
Q 3553 3900 3268 4020 
Q 2984 4141 2638 4141 
Q 2222 4141 1919 4014 
Q 1616 3888 1430 3681 
Q 1244 3475 1141 3228 
Q 966 2803 966 2306 
Q 966 1694 1177 1281 
Q 1388 869 1791 669 
Q 2194 469 2647 469 
Q 3041 469 3416 620 
Q 3791 772 3984 944 
L 3984 1797 
L 2638 1797 
z
" transform="scale(0.015625)"/>
       <path id="ArialMT-65" d="M 2694 1069 
L 3275 997 
Q 3138 488 2766 206 
Q 2394 -75 1816 -75 
Q 1088 -75 661 373 
Q 234 822 234 1631 
Q 234 2469 665 2931 
Q 1097 3394 1784 3394 
Q 2450 3394 2872 2941 
Q 3294 2488 3294 1666 
Q 3294 1616 3291 1516 
L 816 1516 
Q 847 969 1125 678 
Q 1403 388 1819 388 
Q 2128 388 2347 550 
Q 2566 713 2694 1069 
z
M 847 1978 
L 2700 1978 
Q 2663 2397 2488 2606 
Q 2219 2931 1791 2931 
Q 1403 2931 1139 2672 
Q 875 2413 847 1978 
z
" transform="scale(0.015625)"/>
       <path id="ArialMT-6e" d="M 422 0 
L 422 3319 
L 928 3319 
L 928 2847 
Q 1294 3394 1984 3394 
Q 2284 3394 2536 3286 
Q 2788 3178 2913 3003 
Q 3038 2828 3088 2588 
Q 3119 2431 3119 2041 
L 3119 0 
L 2556 0 
L 2556 2019 
Q 2556 2363 2490 2533 
Q 2425 2703 2258 2804 
Q 2091 2906 1866 2906 
Q 1506 2906 1245 2678 
Q 984 2450 984 1813 
L 984 0 
L 422 0 
z
" transform="scale(0.015625)"/>
       <path id="ArialMT-72" d="M 416 0 
L 416 3319 
L 922 3319 
L 922 2816 
Q 1116 3169 1280 3281 
Q 1444 3394 1641 3394 
Q 1925 3394 2219 3213 
L 2025 2691 
Q 1819 2813 1613 2813 
Q 1428 2813 1281 2702 
Q 1134 2591 1072 2394 
Q 978 2094 978 1738 
L 978 0 
L 416 0 
z
" transform="scale(0.015625)"/>
       <path id="ArialMT-61" d="M 2588 409 
Q 2275 144 1986 34 
Q 1697 -75 1366 -75 
Q 819 -75 525 192 
Q 231 459 231 875 
Q 231 1119 342 1320 
Q 453 1522 633 1644 
Q 813 1766 1038 1828 
Q 1203 1872 1538 1913 
Q 2219 1994 2541 2106 
Q 2544 2222 2544 2253 
Q 2544 2597 2384 2738 
Q 2169 2928 1744 2928 
Q 1347 2928 1158 2789 
Q 969 2650 878 2297 
L 328 2372 
Q 403 2725 575 2942 
Q 747 3159 1072 3276 
Q 1397 3394 1825 3394 
Q 2250 3394 2515 3294 
Q 2781 3194 2906 3042 
Q 3031 2891 3081 2659 
Q 3109 2516 3109 2141 
L 3109 1391 
Q 3109 606 3145 398 
Q 3181 191 3288 0 
L 2700 0 
Q 2613 175 2588 409 
z
M 2541 1666 
Q 2234 1541 1622 1453 
Q 1275 1403 1131 1340 
Q 988 1278 909 1158 
Q 831 1038 831 891 
Q 831 666 1001 516 
Q 1172 366 1500 366 
Q 1825 366 2078 508 
Q 2331 650 2450 897 
Q 2541 1088 2541 1459 
L 2541 1666 
z
" transform="scale(0.015625)"/>
       <path id="ArialMT-74" d="M 1650 503 
L 1731 6 
Q 1494 -44 1306 -44 
Q 1000 -44 831 53 
Q 663 150 594 308 
Q 525 466 525 972 
L 525 2881 
L 113 2881 
L 113 3319 
L 525 3319 
L 525 4141 
L 1084 4478 
L 1084 3319 
L 1650 3319 
L 1650 2881 
L 1084 2881 
L 1084 941 
Q 1084 700 1114 631 
Q 1144 563 1211 522 
Q 1278 481 1403 481 
Q 1497 481 1650 503 
z
" transform="scale(0.015625)"/>
       <path id="ArialMT-69" d="M 425 3934 
L 425 4581 
L 988 4581 
L 988 3934 
L 425 3934 
z
M 425 0 
L 425 3319 
L 988 3319 
L 988 0 
L 425 0 
z
" transform="scale(0.015625)"/>
       <path id="ArialMT-6f" d="M 213 1659 
Q 213 2581 725 3025 
Q 1153 3394 1769 3394 
Q 2453 3394 2887 2945 
Q 3322 2497 3322 1706 
Q 3322 1066 3130 698 
Q 2938 331 2570 128 
Q 2203 -75 1769 -75 
Q 1072 -75 642 372 
Q 213 819 213 1659 
z
M 791 1659 
Q 791 1022 1069 705 
Q 1347 388 1769 388 
Q 2188 388 2466 706 
Q 2744 1025 2744 1678 
Q 2744 2294 2464 2611 
Q 2184 2928 1769 2928 
Q 1347 2928 1069 2612 
Q 791 2297 791 1659 
z
" transform="scale(0.015625)"/>
      </defs>
      <use xlink:href="#ArialMT-47"/>
      <use xlink:href="#ArialMT-65" transform="translate(77.783203 0)"/>
      <use xlink:href="#ArialMT-6e" transform="translate(133.398438 0)"/>
      <use xlink:href="#ArialMT-65" transform="translate(189.013672 0)"/>
      <use xlink:href="#ArialMT-72" transform="translate(244.628906 0)"/>
      <use xlink:href="#ArialMT-61" transform="translate(277.929688 0)"/>
      <use xlink:href="#ArialMT-74" transform="translate(333.544922 0)"/>
      <use xlink:href="#ArialMT-69" transform="translate(361.328125 0)"/>
      <use xlink:href="#ArialMT-6f" transform="translate(383.544922 0)"/>
      <use xlink:href="#ArialMT-6e" transform="translate(439.160156 0)"/>
     </g>
    </g>
   </g>
   <g id="matplotlib.axis_2">
    <g id="ytick_1">
     <g id="line2d_9">
      <path d="M 61.110469 288.172876 
L 557.370469 288.172876 
" clip-path="url(#p2c40705cde)" style="fill: none; stroke: #ffffff; stroke-linecap: round"/>
     </g>
     <g id="text_10">
      <!-- 0 -->
      <g style="fill: #262626" transform="translate(44.937344 292.467564) scale(0.12 -0.12)">
       <use xlink:href="#ArialMT-30"/>
      </g>
     </g>
    </g>
    <g id="ytick_2">
     <g id="line2d_10">
      <path d="M 61.110469 249.252478 
L 557.370469 249.252478 
" clip-path="url(#p2c40705cde)" style="fill: none; stroke: #ffffff; stroke-linecap: round"/>
     </g>
     <g id="text_11">
      <!-- 250 -->
      <g style="fill: #262626" transform="translate(31.591094 253.547166) scale(0.12 -0.12)">
       <defs>
        <path id="ArialMT-35" d="M 266 1200 
L 856 1250 
Q 922 819 1161 601 
Q 1400 384 1738 384 
Q 2144 384 2425 690 
Q 2706 997 2706 1503 
Q 2706 1984 2436 2262 
Q 2166 2541 1728 2541 
Q 1456 2541 1237 2417 
Q 1019 2294 894 2097 
L 366 2166 
L 809 4519 
L 3088 4519 
L 3088 3981 
L 1259 3981 
L 1013 2750 
Q 1425 3038 1878 3038 
Q 2478 3038 2890 2622 
Q 3303 2206 3303 1553 
Q 3303 931 2941 478 
Q 2500 -78 1738 -78 
Q 1113 -78 717 272 
Q 322 622 266 1200 
z
" transform="scale(0.015625)"/>
       </defs>
       <use xlink:href="#ArialMT-32"/>
       <use xlink:href="#ArialMT-35" transform="translate(55.615234 0)"/>
       <use xlink:href="#ArialMT-30" transform="translate(111.230469 0)"/>
      </g>
     </g>
    </g>
    <g id="ytick_3">
     <g id="line2d_11">
      <path d="M 61.110469 210.33208 
L 557.370469 210.33208 
" clip-path="url(#p2c40705cde)" style="fill: none; stroke: #ffffff; stroke-linecap: round"/>
     </g>
     <g id="text_12">
      <!-- 500 -->
      <g style="fill: #262626" transform="translate(31.591094 214.626768) scale(0.12 -0.12)">
       <use xlink:href="#ArialMT-35"/>
       <use xlink:href="#ArialMT-30" transform="translate(55.615234 0)"/>
       <use xlink:href="#ArialMT-30" transform="translate(111.230469 0)"/>
      </g>
     </g>
    </g>
    <g id="ytick_4">
     <g id="line2d_12">
      <path d="M 61.110469 171.411683 
L 557.370469 171.411683 
" clip-path="url(#p2c40705cde)" style="fill: none; stroke: #ffffff; stroke-linecap: round"/>
     </g>
     <g id="text_13">
      <!-- 750 -->
      <g style="fill: #262626" transform="translate(31.591094 175.70637) scale(0.12 -0.12)">
       <defs>
        <path id="ArialMT-37" d="M 303 3981 
L 303 4522 
L 3269 4522 
L 3269 4084 
Q 2831 3619 2401 2847 
Q 1972 2075 1738 1259 
Q 1569 684 1522 0 
L 944 0 
Q 953 541 1156 1306 
Q 1359 2072 1739 2783 
Q 2119 3494 2547 3981 
L 303 3981 
z
" transform="scale(0.015625)"/>
       </defs>
       <use xlink:href="#ArialMT-37"/>
       <use xlink:href="#ArialMT-35" transform="translate(55.615234 0)"/>
       <use xlink:href="#ArialMT-30" transform="translate(111.230469 0)"/>
      </g>
     </g>
    </g>
    <g id="ytick_5">
     <g id="line2d_13">
      <path d="M 61.110469 132.491285 
L 557.370469 132.491285 
" clip-path="url(#p2c40705cde)" style="fill: none; stroke: #ffffff; stroke-linecap: round"/>
     </g>
     <g id="text_14">
      <!-- 1000 -->
      <g style="fill: #262626" transform="translate(24.917969 136.785972) scale(0.12 -0.12)">
       <use xlink:href="#ArialMT-31"/>
       <use xlink:href="#ArialMT-30" transform="translate(55.615234 0)"/>
       <use xlink:href="#ArialMT-30" transform="translate(111.230469 0)"/>
       <use xlink:href="#ArialMT-30" transform="translate(166.845703 0)"/>
      </g>
     </g>
    </g>
    <g id="ytick_6">
     <g id="line2d_14">
      <path d="M 61.110469 93.570887 
L 557.370469 93.570887 
" clip-path="url(#p2c40705cde)" style="fill: none; stroke: #ffffff; stroke-linecap: round"/>
     </g>
     <g id="text_15">
      <!-- 1250 -->
      <g style="fill: #262626" transform="translate(24.917969 97.865575) scale(0.12 -0.12)">
       <use xlink:href="#ArialMT-31"/>
       <use xlink:href="#ArialMT-32" transform="translate(55.615234 0)"/>
       <use xlink:href="#ArialMT-35" transform="translate(111.230469 0)"/>
       <use xlink:href="#ArialMT-30" transform="translate(166.845703 0)"/>
      </g>
     </g>
    </g>
    <g id="ytick_7">
     <g id="line2d_15">
      <path d="M 61.110469 54.650489 
L 557.370469 54.650489 
" clip-path="url(#p2c40705cde)" style="fill: none; stroke: #ffffff; stroke-linecap: round"/>
     </g>
     <g id="text_16">
      <!-- 1500 -->
      <g style="fill: #262626" transform="translate(24.917969 58.945177) scale(0.12 -0.12)">
       <use xlink:href="#ArialMT-31"/>
       <use xlink:href="#ArialMT-35" transform="translate(55.615234 0)"/>
       <use xlink:href="#ArialMT-30" transform="translate(111.230469 0)"/>
       <use xlink:href="#ArialMT-30" transform="translate(166.845703 0)"/>
      </g>
     </g>
    </g>
    <g id="ytick_8">
     <g id="line2d_16">
      <path d="M 61.110469 15.730091 
L 557.370469 15.730091 
" clip-path="url(#p2c40705cde)" style="fill: none; stroke: #ffffff; stroke-linecap: round"/>
     </g>
     <g id="text_17">
      <!-- 1750 -->
      <g style="fill: #262626" transform="translate(24.917969 20.024779) scale(0.12 -0.12)">
       <use xlink:href="#ArialMT-31"/>
       <use xlink:href="#ArialMT-37" transform="translate(55.615234 0)"/>
       <use xlink:href="#ArialMT-35" transform="translate(111.230469 0)"/>
       <use xlink:href="#ArialMT-30" transform="translate(166.845703 0)"/>
      </g>
     </g>
    </g>
    <g id="text_18">
     <!-- Mean loss -->
     <g style="fill: #262626" transform="translate(17.936719 189.430078) rotate(-90) scale(0.15 -0.15)">
      <defs>
       <path id="ArialMT-4d" d="M 475 0 
L 475 4581 
L 1388 4581 
L 2472 1338 
Q 2622 884 2691 659 
Q 2769 909 2934 1394 
L 4031 4581 
L 4847 4581 
L 4847 0 
L 4263 0 
L 4263 3834 
L 2931 0 
L 2384 0 
L 1059 3900 
L 1059 0 
L 475 0 
z
" transform="scale(0.015625)"/>
       <path id="ArialMT-20" transform="scale(0.015625)"/>
       <path id="ArialMT-6c" d="M 409 0 
L 409 4581 
L 972 4581 
L 972 0 
L 409 0 
z
" transform="scale(0.015625)"/>
       <path id="ArialMT-73" d="M 197 991 
L 753 1078 
Q 800 744 1014 566 
Q 1228 388 1613 388 
Q 2000 388 2187 545 
Q 2375 703 2375 916 
Q 2375 1106 2209 1216 
Q 2094 1291 1634 1406 
Q 1016 1563 777 1677 
Q 538 1791 414 1992 
Q 291 2194 291 2438 
Q 291 2659 392 2848 
Q 494 3038 669 3163 
Q 800 3259 1026 3326 
Q 1253 3394 1513 3394 
Q 1903 3394 2198 3281 
Q 2494 3169 2634 2976 
Q 2775 2784 2828 2463 
L 2278 2388 
Q 2241 2644 2061 2787 
Q 1881 2931 1553 2931 
Q 1166 2931 1000 2803 
Q 834 2675 834 2503 
Q 834 2394 903 2306 
Q 972 2216 1119 2156 
Q 1203 2125 1616 2013 
Q 2213 1853 2448 1751 
Q 2684 1650 2818 1456 
Q 2953 1263 2953 975 
Q 2953 694 2789 445 
Q 2625 197 2315 61 
Q 2006 -75 1616 -75 
Q 969 -75 630 194 
Q 291 463 197 991 
z
" transform="scale(0.015625)"/>
      </defs>
      <use xlink:href="#ArialMT-4d"/>
      <use xlink:href="#ArialMT-65" transform="translate(83.300781 0)"/>
      <use xlink:href="#ArialMT-61" transform="translate(138.916016 0)"/>
      <use xlink:href="#ArialMT-6e" transform="translate(194.53125 0)"/>
      <use xlink:href="#ArialMT-20" transform="translate(250.146484 0)"/>
      <use xlink:href="#ArialMT-6c" transform="translate(277.929688 0)"/>
      <use xlink:href="#ArialMT-6f" transform="translate(300.146484 0)"/>
      <use xlink:href="#ArialMT-73" transform="translate(355.761719 0)"/>
      <use xlink:href="#ArialMT-73" transform="translate(405.761719 0)"/>
     </g>
    </g>
   </g>
   <g id="FillBetweenPolyCollection_1">
    <defs>
     <path id="m1bd7fcdbc6" d="M 83.667741 -328.033253 
L 83.667741 -286.675638 
L 86.695563 -214.766807 
L 89.723385 -165.938904 
L 92.751207 -146.100993 
L 95.779029 -165.898942 
L 98.806851 -162.566444 
L 101.834673 -146.420963 
L 104.862494 -148.350466 
L 107.890316 -130.66404 
L 110.918138 -133.821811 
L 113.94596 -119.918644 
L 116.973782 -134.335165 
L 120.001604 -121.816838 
L 123.029425 -160.345631 
L 126.057247 -139.787912 
L 129.085069 -133.566092 
L 132.112891 -147.995604 
L 135.140713 -142.23237 
L 138.168535 -121.563355 
L 141.196356 -122.032973 
L 144.224178 -117.759664 
L 147.252 -122.645612 
L 150.279822 -113.799361 
L 153.307644 -105.972555 
L 156.335466 -115.237628 
L 159.363288 -96.990789 
L 162.391109 -100.149903 
L 165.418931 -95.467996 
L 168.446753 -96.417437 
L 171.474575 -88.038062 
L 174.502397 -95.50043 
L 177.530219 -93.380464 
L 180.55804 -90.616991 
L 183.585862 -100.918746 
L 186.613684 -90.327735 
L 189.641506 -85.76986 
L 192.669328 -85.130693 
L 195.69715 -88.317472 
L 198.724971 -84.052808 
L 201.752793 -82.709502 
L 204.780615 -84.971506 
L 207.808437 -79.295033 
L 210.836259 -79.712073 
L 213.864081 -83.57216 
L 216.891903 -79.884858 
L 219.919724 -78.796312 
L 222.947546 -92.894083 
L 225.975368 -83.951864 
L 229.00319 -80.622015 
L 232.031012 -83.36371 
L 235.058834 -79.973677 
L 238.086655 -82.711308 
L 241.114477 -72.926297 
L 244.142299 -83.792952 
L 247.170121 -79.014408 
L 250.197943 -90.771927 
L 253.225765 -89.12115 
L 256.253587 -79.398481 
L 259.281408 -77.85329 
L 262.30923 -83.037055 
L 265.337052 -78.258642 
L 268.364874 -85.431527 
L 271.392696 -81.792298 
L 274.420518 -73.501825 
L 277.448339 -71.28906 
L 280.476161 -91.444359 
L 283.503983 -80.326828 
L 286.531805 -81.683746 
L 289.559627 -76.392255 
L 292.587449 -77.709413 
L 295.61527 -75.730664 
L 298.643092 -78.791234 
L 301.670914 -77.903248 
L 304.698736 -82.229935 
L 307.726558 -80.6286 
L 310.75438 -77.20538 
L 313.782202 -77.61395 
L 316.810023 -76.643046 
L 319.837845 -72.122003 
L 322.865667 -76.443566 
L 325.893489 -79.0605 
L 328.921311 -81.618866 
L 331.949133 -86.144557 
L 334.976954 -68.212752 
L 338.004776 -81.405402 
L 341.032598 -71.859234 
L 344.06042 -89.178478 
L 347.088242 -72.446295 
L 350.116064 -74.039225 
L 353.143885 -77.781394 
L 356.171707 -74.83551 
L 359.199529 -80.283519 
L 362.227351 -83.042271 
L 365.255173 -79.872535 
L 368.282995 -66.014945 
L 371.310817 -73.182091 
L 374.338638 -88.771341 
L 377.36646 -65.820799 
L 380.394282 -72.196744 
L 383.422104 -65.214126 
L 386.449926 -70.44664 
L 389.477748 -62.394503 
L 392.505569 -66.624515 
L 395.533391 -64.371014 
L 398.561213 -70.952236 
L 401.589035 -69.431875 
L 404.616857 -65.726292 
L 407.644679 -64.787374 
L 410.6725 -66.026887 
L 413.700322 -69.643078 
L 416.728144 -76.736193 
L 419.755966 -67.474432 
L 422.783788 -70.295876 
L 425.81161 -73.698947 
L 428.839432 -69.473439 
L 431.867253 -71.402955 
L 434.895075 -71.431031 
L 437.922897 -68.62789 
L 440.950719 -72.853428 
L 443.978541 -58.851435 
L 447.006363 -68.486173 
L 450.034184 -67.629929 
L 453.062006 -66.357353 
L 456.089828 -73.780713 
L 459.11765 -75.066149 
L 462.145472 -71.536419 
L 465.173294 -67.099788 
L 468.201115 -68.482205 
L 471.228937 -67.333188 
L 474.256759 -74.091186 
L 477.284581 -67.179086 
L 480.312403 -71.821039 
L 483.340225 -73.8272 
L 486.368047 -72.744745 
L 489.395868 -70.767251 
L 492.42369 -71.333145 
L 495.451512 -69.479955 
L 498.479334 -65.110988 
L 501.507156 -69.404058 
L 504.534978 -68.847989 
L 507.562799 -72.820931 
L 510.590621 -71.917029 
L 513.618443 -68.50241 
L 516.646265 -72.467496 
L 519.674087 -74.615599 
L 522.701909 -71.866367 
L 525.72973 -66.764672 
L 528.757552 -67.377332 
L 531.785374 -71.468243 
L 534.813196 -70.445688 
L 534.813196 -77.187802 
L 534.813196 -77.187802 
L 531.785374 -81.314856 
L 528.757552 -83.114662 
L 525.72973 -109.392101 
L 522.701909 -88.033618 
L 519.674087 -85.815937 
L 516.646265 -92.817358 
L 513.618443 -88.356838 
L 510.590621 -78.147354 
L 507.562799 -82.501755 
L 504.534978 -82.964733 
L 501.507156 -81.932067 
L 498.479334 -91.764682 
L 495.451512 -87.935043 
L 492.42369 -86.512297 
L 489.395868 -85.652436 
L 486.368047 -94.46229 
L 483.340225 -90.463478 
L 480.312403 -79.287691 
L 477.284581 -77.796501 
L 474.256759 -93.117017 
L 471.228937 -72.162563 
L 468.201115 -96.901971 
L 465.173294 -90.362234 
L 462.145472 -95.401882 
L 459.11765 -90.153117 
L 456.089828 -86.476056 
L 453.062006 -80.166274 
L 450.034184 -96.960343 
L 447.006363 -81.639406 
L 443.978541 -113.534678 
L 440.950719 -100.260288 
L 437.922897 -81.312949 
L 434.895075 -82.29792 
L 431.867253 -90.594461 
L 428.839432 -79.425216 
L 425.81161 -85.454013 
L 422.783788 -83.700763 
L 419.755966 -93.35136 
L 416.728144 -87.581479 
L 413.700322 -91.414969 
L 410.6725 -104.692214 
L 407.644679 -108.159045 
L 404.616857 -125.29886 
L 401.589035 -93.249384 
L 398.561213 -95.034634 
L 395.533391 -108.950622 
L 392.505569 -124.955316 
L 389.477748 -112.669348 
L 386.449926 -96.994088 
L 383.422104 -132.096457 
L 380.394282 -125.294768 
L 377.36646 -140.911298 
L 374.338638 -104.262253 
L 371.310817 -124.948504 
L 368.282995 -109.368439 
L 365.255173 -122.103081 
L 362.227351 -117.767903 
L 359.199529 -124.093216 
L 356.171707 -113.259528 
L 353.143885 -120.488379 
L 350.116064 -107.377599 
L 347.088242 -104.600825 
L 344.06042 -109.060826 
L 341.032598 -117.955896 
L 338.004776 -119.528612 
L 334.976954 -138.192979 
L 331.949133 -100.676915 
L 328.921311 -97.329412 
L 325.893489 -103.517852 
L 322.865667 -109.372088 
L 319.837845 -98.696365 
L 316.810023 -107.380043 
L 313.782202 -107.16141 
L 310.75438 -109.07205 
L 307.726558 -109.048109 
L 304.698736 -112.719549 
L 301.670914 -100.121457 
L 298.643092 -101.754048 
L 295.61527 -107.067407 
L 292.587449 -131.853556 
L 289.559627 -156.529698 
L 286.531805 -126.95247 
L 283.503983 -100.668141 
L 280.476161 -101.501505 
L 277.448339 -110.528679 
L 274.420518 -106.423672 
L 271.392696 -115.280785 
L 268.364874 -110.542418 
L 265.337052 -104.243844 
L 262.30923 -103.604563 
L 259.281408 -110.740294 
L 256.253587 -104.535197 
L 253.225765 -117.38153 
L 250.197943 -127.526083 
L 247.170121 -108.019766 
L 244.142299 -108.197707 
L 241.114477 -108.085346 
L 238.086655 -103.936522 
L 235.058834 -119.621932 
L 232.031012 -131.102215 
L 229.00319 -112.370532 
L 225.975368 -121.754601 
L 222.947546 -112.764045 
L 219.919724 -126.759567 
L 216.891903 -149.966074 
L 213.864081 -123.883281 
L 210.836259 -140.809294 
L 207.808437 -113.540804 
L 204.780615 -131.526608 
L 201.752793 -121.559754 
L 198.724971 -109.932395 
L 195.69715 -124.026056 
L 192.669328 -130.396102 
L 189.641506 -118.155614 
L 186.613684 -147.335541 
L 183.585862 -136.726496 
L 180.55804 -129.133006 
L 177.530219 -118.426168 
L 174.502397 -145.501954 
L 171.474575 -116.648905 
L 168.446753 -123.074564 
L 165.418931 -135.451423 
L 162.391109 -130.008389 
L 159.363288 -155.754609 
L 156.335466 -126.242747 
L 153.307644 -174.413654 
L 150.279822 -149.500387 
L 147.252 -169.604065 
L 144.224178 -139.86582 
L 141.196356 -196.826091 
L 138.168535 -141.688526 
L 135.140713 -194.036579 
L 132.112891 -192.781217 
L 129.085069 -143.72908 
L 126.057247 -177.338318 
L 123.029425 -193.436817 
L 120.001604 -219.247389 
L 116.973782 -204.381607 
L 113.94596 -186.61103 
L 110.918138 -204.563143 
L 107.890316 -192.817981 
L 104.862494 -252.657789 
L 101.834673 -178.869313 
L 98.806851 -203.312485 
L 95.779029 -205.748739 
L 92.751207 -194.142813 
L 89.723385 -210.761824 
L 86.695563 -252.784654 
L 83.667741 -328.033253 
z
" style="stroke: #46327e; stroke-opacity: 0.2"/>
    </defs>
    <g clip-path="url(#p2c40705cde)">
     <use xlink:href="#m1bd7fcdbc6" x="0" y="348.692344" style="fill: #46327e; fill-opacity: 0.2; stroke: #46327e; stroke-opacity: 0.2"/>
    </g>
   </g>
   <g id="FillBetweenPolyCollection_2">
    <defs>
     <path id="m5b123225ac" d="M 83.667741 -224.260107 
L 83.667741 -106.671364 
L 86.695563 -117.30708 
L 89.723385 -102.270537 
L 92.751207 -97.174996 
L 95.779029 -97.459989 
L 98.806851 -88.20634 
L 101.834673 -98.877267 
L 104.862494 -87.112495 
L 107.890316 -90.227623 
L 110.918138 -85.742088 
L 113.94596 -82.778555 
L 116.973782 -85.293396 
L 120.001604 -83.882783 
L 123.029425 -85.436021 
L 126.057247 -77.000176 
L 129.085069 -73.386205 
L 132.112891 -80.273514 
L 135.140713 -80.417614 
L 138.168535 -79.566865 
L 141.196356 -81.566244 
L 144.224178 -74.792305 
L 147.252 -76.284038 
L 150.279822 -75.649231 
L 153.307644 -70.579068 
L 156.335466 -73.033089 
L 159.363288 -69.893619 
L 162.391109 -77.971636 
L 165.418931 -73.413537 
L 168.446753 -76.571471 
L 171.474575 -73.595108 
L 174.502397 -74.51375 
L 177.530219 -72.832781 
L 180.55804 -71.313068 
L 183.585862 -72.877502 
L 186.613684 -73.966891 
L 189.641506 -70.479527 
L 192.669328 -71.415492 
L 195.69715 -72.20781 
L 198.724971 -71.953088 
L 201.752793 -71.236937 
L 204.780615 -74.763694 
L 207.808437 -73.429186 
L 210.836259 -72.725028 
L 213.864081 -71.145104 
L 216.891903 -72.748071 
L 219.919724 -72.587578 
L 222.947546 -72.375897 
L 225.975368 -71.299275 
L 229.00319 -70.757531 
L 232.031012 -71.454937 
L 235.058834 -72.01145 
L 238.086655 -71.986971 
L 241.114477 -71.536614 
L 244.142299 -71.724788 
L 247.170121 -71.122196 
L 250.197943 -71.592983 
L 253.225765 -71.72495 
L 256.253587 -71.512894 
L 259.281408 -70.21233 
L 262.30923 -72.04356 
L 265.337052 -72.40001 
L 268.364874 -71.850912 
L 271.392696 -69.900297 
L 274.420518 -72.199383 
L 277.448339 -72.870267 
L 280.476161 -71.173909 
L 283.503983 -71.35739 
L 286.531805 -70.977481 
L 289.559627 -71.296354 
L 292.587449 -70.700943 
L 295.61527 -73.698494 
L 298.643092 -72.153496 
L 301.670914 -72.218249 
L 304.698736 -71.936046 
L 307.726558 -70.450725 
L 310.75438 -70.955069 
L 313.782202 -71.977371 
L 316.810023 -70.281252 
L 319.837845 -70.930293 
L 322.865667 -70.009494 
L 325.893489 -70.866026 
L 328.921311 -70.490997 
L 331.949133 -70.435344 
L 334.976954 -71.729181 
L 338.004776 -71.70652 
L 341.032598 -71.420737 
L 344.06042 -69.903404 
L 347.088242 -70.365593 
L 350.116064 -71.083958 
L 353.143885 -71.409697 
L 356.171707 -70.488793 
L 359.199529 -71.358657 
L 362.227351 -70.588974 
L 365.255173 -69.985116 
L 368.282995 -70.752153 
L 371.310817 -72.622529 
L 374.338638 -71.094219 
L 377.36646 -71.484096 
L 380.394282 -71.964617 
L 383.422104 -71.530498 
L 386.449926 -71.063758 
L 389.477748 -70.781527 
L 392.505569 -71.654484 
L 395.533391 -71.80997 
L 398.561213 -71.741679 
L 401.589035 -70.645418 
L 404.616857 -70.479549 
L 407.644679 -71.895523 
L 410.6725 -70.812482 
L 413.700322 -70.842668 
L 416.728144 -71.183977 
L 419.755966 -70.109099 
L 422.783788 -71.318485 
L 425.81161 -71.321656 
L 428.839432 -70.112276 
L 431.867253 -71.154255 
L 434.895075 -70.667923 
L 437.922897 -71.270365 
L 440.950719 -71.632522 
L 443.978541 -71.737956 
L 447.006363 -71.406216 
L 450.034184 -71.949829 
L 453.062006 -71.157324 
L 456.089828 -70.433387 
L 459.11765 -71.311326 
L 462.145472 -69.630765 
L 465.173294 -71.346906 
L 468.201115 -70.682533 
L 471.228937 -70.927946 
L 474.256759 -71.961548 
L 477.284581 -72.331065 
L 480.312403 -71.570386 
L 483.340225 -69.779849 
L 486.368047 -71.435306 
L 489.395868 -68.065897 
L 492.42369 -70.995437 
L 495.451512 -70.878526 
L 498.479334 -71.44726 
L 501.507156 -72.187709 
L 504.534978 -70.517764 
L 507.562799 -70.625736 
L 510.590621 -70.832374 
L 513.618443 -69.77465 
L 516.646265 -70.851554 
L 519.674087 -70.396467 
L 522.701909 -71.541287 
L 525.72973 -70.666151 
L 528.757552 -71.892528 
L 531.785374 -70.444621 
L 534.813196 -72.338687 
L 534.813196 -74.707628 
L 534.813196 -74.707628 
L 531.785374 -72.88222 
L 528.757552 -73.049409 
L 525.72973 -72.557088 
L 522.701909 -73.779031 
L 519.674087 -72.715944 
L 516.646265 -71.965321 
L 513.618443 -73.864321 
L 510.590621 -74.134041 
L 507.562799 -73.20337 
L 504.534978 -74.286927 
L 501.507156 -75.391597 
L 498.479334 -73.155898 
L 495.451512 -72.794758 
L 492.42369 -74.204978 
L 489.395868 -89.028488 
L 486.368047 -77.426896 
L 483.340225 -81.320269 
L 480.312403 -73.183827 
L 477.284581 -78.908368 
L 474.256759 -73.671121 
L 471.228937 -74.179058 
L 468.201115 -71.620749 
L 465.173294 -74.447039 
L 462.145472 -75.111099 
L 459.11765 -72.311886 
L 456.089828 -76.584856 
L 453.062006 -72.131619 
L 450.034184 -73.084985 
L 447.006363 -72.667189 
L 443.978541 -72.355054 
L 440.950719 -73.290646 
L 437.922897 -72.304051 
L 434.895075 -77.366627 
L 431.867253 -72.523396 
L 428.839432 -73.102901 
L 425.81161 -74.166948 
L 422.783788 -74.486789 
L 419.755966 -72.52148 
L 416.728144 -72.874174 
L 413.700322 -74.004227 
L 410.6725 -72.173429 
L 407.644679 -74.509111 
L 404.616857 -72.142592 
L 401.589035 -72.730981 
L 398.561213 -72.911511 
L 395.533391 -76.073605 
L 392.505569 -72.720243 
L 389.477748 -74.745003 
L 386.449926 -74.266355 
L 383.422104 -72.516694 
L 380.394282 -74.56135 
L 377.36646 -72.700132 
L 374.338638 -76.673692 
L 371.310817 -75.189417 
L 368.282995 -73.737006 
L 365.255173 -72.577592 
L 362.227351 -73.198294 
L 359.199529 -73.016675 
L 356.171707 -77.626345 
L 353.143885 -72.547543 
L 350.116064 -74.376814 
L 347.088242 -72.412708 
L 344.06042 -77.549397 
L 341.032598 -74.543212 
L 338.004776 -74.073822 
L 334.976954 -73.436785 
L 331.949133 -73.465413 
L 328.921311 -76.239699 
L 325.893489 -74.840924 
L 322.865667 -76.290111 
L 319.837845 -78.350404 
L 316.810023 -77.134325 
L 313.782202 -82.498953 
L 310.75438 -77.834297 
L 307.726558 -78.755912 
L 304.698736 -76.677509 
L 301.670914 -74.814029 
L 298.643092 -75.759614 
L 295.61527 -75.893957 
L 292.587449 -74.769213 
L 289.559627 -73.800643 
L 286.531805 -73.573389 
L 283.503983 -75.617455 
L 280.476161 -72.936858 
L 277.448339 -74.565437 
L 274.420518 -73.750725 
L 271.392696 -72.56153 
L 268.364874 -86.546645 
L 265.337052 -74.54976 
L 262.30923 -73.720967 
L 259.281408 -78.083207 
L 256.253587 -78.356756 
L 253.225765 -74.995007 
L 250.197943 -74.770267 
L 247.170121 -73.881151 
L 244.142299 -72.554224 
L 241.114477 -72.370969 
L 238.086655 -73.567401 
L 235.058834 -72.863452 
L 232.031012 -72.828604 
L 229.00319 -72.063056 
L 225.975368 -75.02181 
L 222.947546 -75.078077 
L 219.919724 -75.017069 
L 216.891903 -76.768646 
L 213.864081 -79.493996 
L 210.836259 -76.058133 
L 207.808437 -77.217059 
L 204.780615 -77.560642 
L 201.752793 -78.548262 
L 198.724971 -77.801065 
L 195.69715 -73.314435 
L 192.669328 -78.401711 
L 189.641506 -85.366182 
L 186.613684 -78.456128 
L 183.585862 -76.729994 
L 180.55804 -80.65991 
L 177.530219 -82.754246 
L 174.502397 -80.502943 
L 171.474575 -79.733622 
L 168.446753 -85.156282 
L 165.418931 -86.724592 
L 162.391109 -94.844453 
L 159.363288 -97.720357 
L 156.335466 -90.868643 
L 153.307644 -88.109928 
L 150.279822 -86.302426 
L 147.252 -79.013141 
L 144.224178 -85.493203 
L 141.196356 -85.783519 
L 138.168535 -88.025094 
L 135.140713 -91.427038 
L 132.112891 -94.458597 
L 129.085069 -91.789936 
L 126.057247 -93.271674 
L 123.029425 -92.012016 
L 120.001604 -96.242785 
L 116.973782 -113.342786 
L 113.94596 -104.807934 
L 110.918138 -97.107835 
L 107.890316 -109.572447 
L 104.862494 -107.17561 
L 101.834673 -123.350988 
L 98.806851 -105.957319 
L 95.779029 -124.015776 
L 92.751207 -125.215432 
L 89.723385 -121.355436 
L 86.695563 -134.291121 
L 83.667741 -224.260107 
z
" style="stroke: #365c8d; stroke-opacity: 0.2"/>
    </defs>
    <g clip-path="url(#p2c40705cde)">
     <use xlink:href="#m5b123225ac" x="0" y="348.692344" style="fill: #365c8d; fill-opacity: 0.2; stroke: #365c8d; stroke-opacity: 0.2"/>
    </g>
   </g>
   <g id="line2d_17">
    <path d="M 83.667741 41.337898 
L 86.695563 114.916613 
L 89.723385 160.341979 
L 92.751207 178.570441 
L 95.779029 162.868503 
L 98.806851 165.752879 
L 101.834673 186.047206 
L 104.862494 148.188216 
L 107.890316 186.951333 
L 110.918138 179.499867 
L 113.94596 195.427507 
L 116.973782 179.333958 
L 120.001604 178.16023 
L 123.029425 171.801119 
L 126.057247 190.129229 
L 129.085069 210.044758 
L 132.112891 178.303933 
L 135.140713 180.557869 
L 138.168535 217.066403 
L 141.196356 189.262812 
L 144.224178 219.879602 
L 147.252 202.567505 
L 150.279822 217.04247 
L 153.307644 208.49924 
L 156.335466 227.952156 
L 159.363288 222.319644 
L 162.391109 233.613198 
L 165.418931 233.232634 
L 168.446753 238.946343 
L 171.474575 246.34886 
L 174.502397 228.191152 
L 177.530219 242.789028 
L 180.55804 238.817345 
L 183.585862 229.869723 
L 186.613684 229.860705 
L 189.641506 246.729607 
L 192.669328 240.928946 
L 195.69715 242.52058 
L 198.724971 251.699742 
L 201.752793 246.557716 
L 204.780615 240.443287 
L 207.808437 252.274425 
L 210.836259 238.431661 
L 213.864081 244.964623 
L 216.891903 233.766878 
L 219.919724 245.914404 
L 225.975368 245.839111 
L 229.00319 252.19607 
L 232.031012 241.459381 
L 235.058834 248.894539 
L 238.086655 255.368429 
L 241.114477 258.186522 
L 244.142299 252.697014 
L 247.170121 255.175257 
L 250.197943 239.543339 
L 253.225765 245.441004 
L 256.253587 256.725505 
L 259.281408 254.395552 
L 262.30923 255.371535 
L 265.337052 257.441101 
L 268.364874 250.705371 
L 271.392696 250.155803 
L 274.420518 258.729595 
L 277.448339 257.783474 
L 280.476161 252.219412 
L 283.503983 258.19486 
L 286.531805 244.374236 
L 289.559627 232.231367 
L 292.587449 243.910859 
L 295.61527 257.293308 
L 298.643092 258.419702 
L 301.670914 259.679991 
L 304.698736 251.217602 
L 307.726558 253.853989 
L 310.75438 255.553628 
L 313.782202 256.304664 
L 316.810023 256.680799 
L 319.837845 263.28316 
L 322.865667 255.784517 
L 325.893489 257.403168 
L 328.921311 259.218205 
L 331.949133 255.281608 
L 334.976954 245.489478 
L 338.004776 248.225337 
L 341.032598 253.784779 
L 344.06042 249.572691 
L 347.088242 260.168784 
L 350.116064 257.983932 
L 353.143885 249.557457 
L 356.171707 254.644825 
L 359.199529 246.503976 
L 362.227351 248.287257 
L 365.255173 247.704536 
L 368.282995 261.000652 
L 371.310817 249.627046 
L 374.338638 252.175547 
L 377.36646 245.326295 
L 380.394282 249.946588 
L 383.422104 250.037052 
L 386.449926 264.97198 
L 389.477748 261.160418 
L 392.505569 252.902428 
L 395.533391 262.031526 
L 398.561213 265.698909 
L 401.589035 267.351714 
L 404.616857 253.179768 
L 407.644679 262.219134 
L 410.6725 263.332793 
L 413.700322 268.163321 
L 416.728144 266.533508 
L 419.755966 268.279448 
L 422.783788 271.694024 
L 425.81161 269.115863 
L 428.839432 274.243016 
L 431.867253 267.693636 
L 434.895075 271.827868 
L 437.922897 273.721924 
L 440.950719 262.135486 
L 443.978541 262.499287 
L 447.006363 273.629555 
L 450.034184 266.397208 
L 453.062006 275.430531 
L 456.089828 268.563959 
L 459.11765 266.082711 
L 462.145472 265.223194 
L 465.173294 269.961333 
L 468.201115 266.000256 
L 471.228937 278.944469 
L 474.256759 265.088242 
L 477.284581 276.20455 
L 480.312403 273.137979 
L 483.340225 266.547004 
L 486.368047 265.088827 
L 489.395868 270.482501 
L 492.42369 269.769623 
L 498.479334 270.254509 
L 501.507156 273.024281 
L 504.534978 272.785983 
L 507.562799 271.031001 
L 510.590621 273.660153 
L 513.618443 270.26272 
L 516.646265 266.049917 
L 519.674087 268.476576 
L 522.701909 268.742351 
L 525.72973 260.613957 
L 528.757552 273.446347 
L 531.785374 272.300794 
L 534.813196 274.875599 
L 534.813196 274.875599 
" clip-path="url(#p2c40705cde)" style="fill: none; stroke-dasharray: 7.4,3.2; stroke-dashoffset: 0; stroke: #46327e; stroke-width: 2"/>
   </g>
   <g id="line2d_18">
    <path d="M 83.667741 183.226608 
L 86.695563 222.893243 
L 89.723385 236.879357 
L 92.751207 237.49713 
L 95.779029 237.954461 
L 98.806851 251.610514 
L 101.834673 237.578216 
L 104.862494 251.548291 
L 107.890316 248.792309 
L 110.918138 257.267382 
L 113.94596 254.8991 
L 116.973782 249.374252 
L 120.001604 258.62956 
L 123.029425 259.968325 
L 126.057247 263.556419 
L 129.085069 266.104274 
L 132.112891 261.326288 
L 135.140713 262.770018 
L 138.168535 264.896364 
L 141.196356 265.017462 
L 144.224178 268.549589 
L 147.252 271.043754 
L 150.279822 267.716515 
L 153.307644 269.347846 
L 156.335466 266.741478 
L 159.363288 264.885356 
L 162.391109 262.284299 
L 165.418931 268.623279 
L 168.446753 267.828467 
L 171.474575 272.027979 
L 174.502397 271.183997 
L 177.530219 270.898831 
L 180.55804 272.705855 
L 183.585862 273.888596 
L 186.613684 272.480834 
L 189.641506 270.769489 
L 192.669328 273.783742 
L 195.69715 275.931221 
L 198.724971 273.815267 
L 201.752793 273.799744 
L 204.780615 272.530176 
L 210.836259 274.300764 
L 213.864081 273.372794 
L 216.891903 273.933985 
L 219.919724 274.89002 
L 222.947546 274.965357 
L 225.975368 275.531802 
L 229.00319 277.28205 
L 232.031012 276.550573 
L 238.086655 275.915158 
L 241.114477 276.738552 
L 244.142299 276.552838 
L 247.170121 276.19067 
L 250.197943 275.510719 
L 253.225765 275.332365 
L 256.253587 273.757519 
L 259.281408 274.544575 
L 262.30923 275.81008 
L 265.337052 275.217459 
L 268.364874 269.493565 
L 271.392696 277.46143 
L 274.420518 275.71729 
L 277.448339 274.974492 
L 280.476161 276.63696 
L 283.503983 275.204922 
L 286.531805 276.416909 
L 292.587449 275.957266 
L 295.61527 273.896118 
L 298.643092 274.735789 
L 301.670914 275.176205 
L 304.698736 274.385566 
L 307.726558 274.089026 
L 310.75438 274.297661 
L 313.782202 271.454181 
L 316.810023 274.984555 
L 319.837845 274.051995 
L 322.865667 275.542542 
L 325.893489 275.838869 
L 328.921311 275.326996 
L 331.949133 276.741965 
L 334.976954 276.10936 
L 338.004776 275.802173 
L 341.032598 275.710369 
L 344.06042 274.965943 
L 347.088242 277.303193 
L 350.116064 275.961958 
L 353.143885 276.713724 
L 356.171707 274.634775 
L 359.199529 276.504678 
L 362.227351 276.79871 
L 365.255173 277.41099 
L 368.282995 276.447764 
L 371.310817 274.786371 
L 374.338638 274.808388 
L 377.36646 276.60023 
L 380.394282 275.42936 
L 383.422104 276.668748 
L 386.449926 276.027287 
L 389.477748 275.929079 
L 392.505569 276.50498 
L 395.533391 274.750556 
L 398.561213 276.365749 
L 401.589035 277.004144 
L 404.616857 277.381273 
L 407.644679 275.490027 
L 410.6725 277.199388 
L 413.700322 276.268896 
L 416.728144 276.663268 
L 419.755966 277.377054 
L 422.783788 275.789707 
L 425.81161 275.948042 
L 428.839432 277.084756 
L 431.867253 276.853518 
L 434.895075 274.675069 
L 437.922897 276.905135 
L 440.950719 276.23076 
L 443.978541 276.645839 
L 447.006363 276.655641 
L 450.034184 276.174937 
L 453.062006 277.047872 
L 456.089828 275.183222 
L 459.11765 276.880738 
L 465.173294 275.795371 
L 468.201115 277.540703 
L 471.228937 276.138842 
L 474.256759 275.876009 
L 477.284581 273.072627 
L 480.312403 276.315237 
L 483.340225 273.142285 
L 486.368047 274.261242 
L 489.395868 270.145151 
L 492.42369 276.092136 
L 495.451512 276.855702 
L 498.479334 276.390765 
L 501.507156 274.902691 
L 504.534978 276.289998 
L 507.562799 276.777791 
L 510.590621 276.209137 
L 513.618443 276.872858 
L 516.646265 277.283906 
L 519.674087 277.136138 
L 522.701909 276.032185 
L 525.72973 277.080724 
L 528.757552 276.221375 
L 531.785374 277.028923 
L 534.813196 275.169186 
L 534.813196 275.169186 
" clip-path="url(#p2c40705cde)" style="fill: none; stroke: #365c8d; stroke-width: 2; stroke-linecap: round"/>
   </g>
   <g id="patch_3">
    <path d="M 61.110469 303.3 
L 61.110469 7.2 
" style="fill: none; stroke: #ffffff; stroke-width: 1.25; stroke-linejoin: miter; stroke-linecap: square"/>
   </g>
   <g id="patch_4">
    <path d="M 61.110469 303.3 
L 557.370469 303.3 
" style="fill: none; stroke: #ffffff; stroke-width: 1.25; stroke-linejoin: miter; stroke-linecap: square"/>
   </g>
   <g id="legend_1">
    <g id="line2d_19">
     <path d="M 363.698906 29.984063 
L 381.698906 29.984063 
L 399.698906 29.984063 
" style="fill: none; stroke-dasharray: 7.4,3.2; stroke-dashoffset: 0; stroke: #46327e; stroke-width: 2"/>
    </g>
    <g id="text_19">
     <!-- Random agents -->
     <g style="fill: #262626" transform="translate(414.098906 36.284063) scale(0.18 -0.18)">
      <defs>
       <path id="ArialMT-52" d="M 503 0 
L 503 4581 
L 2534 4581 
Q 3147 4581 3465 4457 
Q 3784 4334 3975 4021 
Q 4166 3709 4166 3331 
Q 4166 2844 3850 2509 
Q 3534 2175 2875 2084 
Q 3116 1969 3241 1856 
Q 3506 1613 3744 1247 
L 4541 0 
L 3778 0 
L 3172 953 
Q 2906 1366 2734 1584 
Q 2563 1803 2427 1890 
Q 2291 1978 2150 2013 
Q 2047 2034 1813 2034 
L 1109 2034 
L 1109 0 
L 503 0 
z
M 1109 2559 
L 2413 2559 
Q 2828 2559 3062 2645 
Q 3297 2731 3419 2920 
Q 3541 3109 3541 3331 
Q 3541 3656 3305 3865 
Q 3069 4075 2559 4075 
L 1109 4075 
L 1109 2559 
z
" transform="scale(0.015625)"/>
       <path id="ArialMT-64" d="M 2575 0 
L 2575 419 
Q 2259 -75 1647 -75 
Q 1250 -75 917 144 
Q 584 363 401 755 
Q 219 1147 219 1656 
Q 219 2153 384 2558 
Q 550 2963 881 3178 
Q 1213 3394 1622 3394 
Q 1922 3394 2156 3267 
Q 2391 3141 2538 2938 
L 2538 4581 
L 3097 4581 
L 3097 0 
L 2575 0 
z
M 797 1656 
Q 797 1019 1065 703 
Q 1334 388 1700 388 
Q 2069 388 2326 689 
Q 2584 991 2584 1609 
Q 2584 2291 2321 2609 
Q 2059 2928 1675 2928 
Q 1300 2928 1048 2622 
Q 797 2316 797 1656 
z
" transform="scale(0.015625)"/>
       <path id="ArialMT-6d" d="M 422 0 
L 422 3319 
L 925 3319 
L 925 2853 
Q 1081 3097 1340 3245 
Q 1600 3394 1931 3394 
Q 2300 3394 2536 3241 
Q 2772 3088 2869 2813 
Q 3263 3394 3894 3394 
Q 4388 3394 4653 3120 
Q 4919 2847 4919 2278 
L 4919 0 
L 4359 0 
L 4359 2091 
Q 4359 2428 4304 2576 
Q 4250 2725 4106 2815 
Q 3963 2906 3769 2906 
Q 3419 2906 3187 2673 
Q 2956 2441 2956 1928 
L 2956 0 
L 2394 0 
L 2394 2156 
Q 2394 2531 2256 2718 
Q 2119 2906 1806 2906 
Q 1569 2906 1367 2781 
Q 1166 2656 1075 2415 
Q 984 2175 984 1722 
L 984 0 
L 422 0 
z
" transform="scale(0.015625)"/>
       <path id="ArialMT-67" d="M 319 -275 
L 866 -356 
Q 900 -609 1056 -725 
Q 1266 -881 1628 -881 
Q 2019 -881 2231 -725 
Q 2444 -569 2519 -288 
Q 2563 -116 2559 434 
Q 2191 0 1641 0 
Q 956 0 581 494 
Q 206 988 206 1678 
Q 206 2153 378 2554 
Q 550 2956 876 3175 
Q 1203 3394 1644 3394 
Q 2231 3394 2613 2919 
L 2613 3319 
L 3131 3319 
L 3131 450 
Q 3131 -325 2973 -648 
Q 2816 -972 2473 -1159 
Q 2131 -1347 1631 -1347 
Q 1038 -1347 672 -1080 
Q 306 -813 319 -275 
z
M 784 1719 
Q 784 1066 1043 766 
Q 1303 466 1694 466 
Q 2081 466 2343 764 
Q 2606 1063 2606 1700 
Q 2606 2309 2336 2618 
Q 2066 2928 1684 2928 
Q 1309 2928 1046 2623 
Q 784 2319 784 1719 
z
" transform="scale(0.015625)"/>
      </defs>
      <use xlink:href="#ArialMT-52"/>
      <use xlink:href="#ArialMT-61" transform="translate(72.216797 0)"/>
      <use xlink:href="#ArialMT-6e" transform="translate(127.832031 0)"/>
      <use xlink:href="#ArialMT-64" transform="translate(183.447266 0)"/>
      <use xlink:href="#ArialMT-6f" transform="translate(239.0625 0)"/>
      <use xlink:href="#ArialMT-6d" transform="translate(294.677734 0)"/>
      <use xlink:href="#ArialMT-20" transform="translate(377.978516 0)"/>
      <use xlink:href="#ArialMT-61" transform="translate(405.761719 0)"/>
      <use xlink:href="#ArialMT-67" transform="translate(461.376953 0)"/>
      <use xlink:href="#ArialMT-65" transform="translate(516.992188 0)"/>
      <use xlink:href="#ArialMT-6e" transform="translate(572.607422 0)"/>
      <use xlink:href="#ArialMT-74" transform="translate(628.222656 0)"/>
      <use xlink:href="#ArialMT-73" transform="translate(656.005859 0)"/>
     </g>
    </g>
    <g id="line2d_20">
     <path d="M 363.698906 55.656563 
L 381.698906 55.656563 
L 399.698906 55.656563 
" style="fill: none; stroke: #365c8d; stroke-width: 2; stroke-linecap: round"/>
    </g>
    <g id="text_20">
     <!-- Evolved agents -->
     <g style="fill: #262626" transform="translate(414.098906 61.956563) scale(0.18 -0.18)">
      <defs>
       <path id="ArialMT-45" d="M 506 0 
L 506 4581 
L 3819 4581 
L 3819 4041 
L 1113 4041 
L 1113 2638 
L 3647 2638 
L 3647 2100 
L 1113 2100 
L 1113 541 
L 3925 541 
L 3925 0 
L 506 0 
z
" transform="scale(0.015625)"/>
       <path id="ArialMT-76" d="M 1344 0 
L 81 3319 
L 675 3319 
L 1388 1331 
Q 1503 1009 1600 663 
Q 1675 925 1809 1294 
L 2547 3319 
L 3125 3319 
L 1869 0 
L 1344 0 
z
" transform="scale(0.015625)"/>
      </defs>
      <use xlink:href="#ArialMT-45"/>
      <use xlink:href="#ArialMT-76" transform="translate(66.699219 0)"/>
      <use xlink:href="#ArialMT-6f" transform="translate(116.699219 0)"/>
      <use xlink:href="#ArialMT-6c" transform="translate(172.314453 0)"/>
      <use xlink:href="#ArialMT-76" transform="translate(194.53125 0)"/>
      <use xlink:href="#ArialMT-65" transform="translate(244.53125 0)"/>
      <use xlink:href="#ArialMT-64" transform="translate(300.146484 0)"/>
      <use xlink:href="#ArialMT-20" transform="translate(355.761719 0)"/>
      <use xlink:href="#ArialMT-61" transform="translate(383.544922 0)"/>
      <use xlink:href="#ArialMT-67" transform="translate(439.160156 0)"/>
      <use xlink:href="#ArialMT-65" transform="translate(494.775391 0)"/>
      <use xlink:href="#ArialMT-6e" transform="translate(550.390625 0)"/>
      <use xlink:href="#ArialMT-74" transform="translate(606.005859 0)"/>
      <use xlink:href="#ArialMT-73" transform="translate(633.789062 0)"/>
     </g>
    </g>
   </g>
  </g>
 </g>
 <defs>
  <clipPath id="p2c40705cde">
   <rect x="61.110469" y="7.2" width="496.26" height="296.1"/>
  </clipPath>
 </defs>
</svg>
